<svg xmlns="http://www.w3.org/2000/svg" xmlns:xlink="http://www.w3.org/1999/xlink" contentStyleType="text/css" data-diagram-type="DESCRIPTION" height="344px" preserveAspectRatio="none" style="width:574px;height:344px;" version="1.1" viewBox="0 0 574 344" width="574px" zoomAndPan="magnify"><defs/><g><!--entity n5--><g class="entity" data-entity="n5" data-source-line="5" data-uid="ent0002" id="entity_n5"><rect fill="#F1F1F1" height="37.7799" rx="2.5" ry="2.5" style="stroke:#181818;stroke-width:0.5;" width="117.9996" x="7" y="7"/><text fill="#000000" font-family="'Segoe UI', 'メイリオ', 'UDEV Gothic HSRFJPDOC', 'Hiragino Kaku Gothic ProN', 'ヒラギノ角ゴ ProN', 'Noto Sans JP', 'Helvetica Neue', Helvetica, Arial, sans-serif" font-size="14" lengthAdjust="spacing" textLength="97.9996" x="17" y="30.9999">porter_const.h</text></g><!--entity n8--><g class="entity" data-entity="n8" data-source-line="6" data-uid="ent0003" id="entity_n8"><rect fill="#F1F1F1" height="37.7799" rx="2.5" ry="2.5" style="stroke:#181818;stroke-width:0.5;" width="110.9996" x="131.5" y="105"/><text fill="#000000" font-family="'Segoe UI', 'メイリオ', 'UDEV Gothic HSRFJPDOC', 'Hiragino Kaku Gothic ProN', 'ヒラギノ角ゴ ProN', 'Noto Sans JP', 'Helvetica Neue', Helvetica, Arial, sans-serif" font-size="14" lengthAdjust="spacing" textLength="90.9996" x="141.5" y="128.9999">porter_type.h</text></g><!--entity n1--><g class="entity" data-entity="n1" data-source-line="7" data-uid="ent0004" id="entity_n1"><rect fill="#ADD8E6" height="37.7799" rx="2.5" ry="2.5" style="stroke:#181818;stroke-width:0.5;" width="131.562" x="257" y="301"/><text fill="#000000" font-family="'Segoe UI', 'メイリオ', 'UDEV Gothic HSRFJPDOC', 'Hiragino Kaku Gothic ProN', 'ヒラギノ角ゴ ProN', 'Noto Sans JP', 'Helvetica Neue', Helvetica, Arial, sans-serif" font-size="14" font-weight="bold" lengthAdjust="spacing" textLength="111.562" x="267" y="324.9999">potrSendQueue.c</text></g><!--entity n6--><g class="entity" data-entity="n6" data-source-line="8" data-uid="ent0005" id="entity_n6"><rect fill="#F1F1F1" height="37.7799" rx="2.5" ry="2.5" style="stroke:#181818;stroke-width:0.5;" width="124.9995" x="124.5" y="203"/><text fill="#000000" font-family="'Segoe UI', 'メイリオ', 'UDEV Gothic HSRFJPDOC', 'Hiragino Kaku Gothic ProN', 'ヒラギノ角ゴ ProN', 'Noto Sans JP', 'Helvetica Neue', Helvetica, Arial, sans-serif" font-size="14" lengthAdjust="spacing" textLength="104.9995" x="134.5" y="226.9999">potrSendQueue.h</text></g><!--entity n10--><g class="entity" data-entity="n10" data-source-line="9" data-uid="ent0006" id="entity_n10"><rect fill="#F1F1F1" height="37.7799" rx="2.5" ry="2.5" style="stroke:#181818;stroke-width:0.5;" width="82.9997" x="277.5" y="105"/><text fill="#000000" font-family="'Segoe UI', 'メイリオ', 'UDEV Gothic HSRFJPDOC', 'Hiragino Kaku Gothic ProN', 'ヒラギノ角ゴ ProN', 'Noto Sans JP', 'Helvetica Neue', Helvetica, Arial, sans-serif" font-size="14" lengthAdjust="spacing" textLength="62.9997" x="287.5" y="128.9999">pthread.h</text></g><!--entity n7--><g class="entity" data-entity="n7" data-source-line="10" data-uid="ent0007" id="entity_n7"><rect fill="#F1F1F1" height="37.7799" rx="2.5" ry="2.5" style="stroke:#181818;stroke-width:0.5;" width="75.9998" x="329" y="7"/><text fill="#000000" font-family="'Segoe UI', 'メイリオ', 'UDEV Gothic HSRFJPDOC', 'Hiragino Kaku Gothic ProN', 'ヒラギノ角ゴ ProN', 'Noto Sans JP', 'Helvetica Neue', Helvetica, Arial, sans-serif" font-size="14" lengthAdjust="spacing" textLength="55.9998" x="339" y="30.9999">stddef.h</text></g><!--entity n9--><g class="entity" data-entity="n9" data-source-line="11" data-uid="ent0008" id="entity_n9"><rect fill="#F1F1F1" height="37.7799" rx="2.5" ry="2.5" style="stroke:#181818;stroke-width:0.5;" width="75.9998" x="160" y="7"/><text fill="#000000" font-family="'Segoe UI', 'メイリオ', 'UDEV Gothic HSRFJPDOC', 'Hiragino Kaku Gothic ProN', 'ヒラギノ角ゴ ProN', 'Noto Sans JP', 'Helvetica Neue', Helvetica, Arial, sans-serif" font-size="14" lengthAdjust="spacing" textLength="55.9998" x="170" y="30.9999">stdint.h</text></g><!--entity n2--><g class="entity" data-entity="n2" data-source-line="12" data-uid="ent0009" id="entity_n2"><rect fill="#F1F1F1" height="37.7799" rx="2.5" ry="2.5" style="stroke:#181818;stroke-width:0.5;" width="75.9998" x="285" y="203"/><text fill="#000000" font-family="'Segoe UI', 'メイリオ', 'UDEV Gothic HSRFJPDOC', 'Hiragino Kaku Gothic ProN', 'ヒラギノ角ゴ ProN', 'Noto Sans JP', 'Helvetica Neue', Helvetica, Arial, sans-serif" font-size="14" lengthAdjust="spacing" textLength="55.9998" x="295" y="226.9999">stdlib.h</text></g><!--entity n3--><g class="entity" data-entity="n3" data-source-line="13" data-uid="ent0010" id="entity_n3"><rect fill="#F1F1F1" height="37.7799" rx="2.5" ry="2.5" style="stroke:#181818;stroke-width:0.5;" width="75.9998" x="396" y="203"/><text fill="#000000" font-family="'Segoe UI', 'メイリオ', 'UDEV Gothic HSRFJPDOC', 'Hiragino Kaku Gothic ProN', 'ヒラギノ角ゴ ProN', 'Noto Sans JP', 'Helvetica Neue', Helvetica, Arial, sans-serif" font-size="14" lengthAdjust="spacing" textLength="55.9998" x="406" y="226.9999">string.h</text></g><!--entity n4--><g class="entity" data-entity="n4" data-source-line="14" data-uid="ent0011" id="entity_n4"><rect fill="#F1F1F1" height="37.7799" rx="2.5" ry="2.5" style="stroke:#181818;stroke-width:0.5;" width="61.9998" x="507" y="203"/><text fill="#000000" font-family="'Segoe UI', 'メイリオ', 'UDEV Gothic HSRFJPDOC', 'Hiragino Kaku Gothic ProN', 'ヒラギノ角ゴ ProN', 'Noto Sans JP', 'Helvetica Neue', Helvetica, Arial, sans-serif" font-size="14" lengthAdjust="spacing" textLength="41.9998" x="517" y="226.9999">time.h</text></g><!--link n7 to n8--><g class="link" data-entity-1="n7" data-entity-2="n8" data-source-line="15" data-uid="lnk12" id="link_n7_n8"><path d="M331.8669,45.128 C300.1504,62.3959 259.0031,84.7983 227.3141,102.0512" fill="none" id="n7-to-n8" style="stroke:#181818;stroke-width:1;"/><polygon fill="#181818" points="222.0445,104.9202,231.8616,104.1298,226.4358,102.5294,228.0362,97.1036,222.0445,104.9202" style="stroke:#181818;stroke-width:1;"/></g><!--link n9 to n8--><g class="link" data-entity-1="n9" data-entity-2="n8" data-source-line="16" data-uid="lnk13" id="link_n9_n8"><path d="M195.8268,45.3616 C193.8983,62.5424 191.7651,81.5474 189.838,98.716" fill="none" id="n9-to-n8" style="stroke:#181818;stroke-width:1;"/><polygon fill="#181818" points="189.1687,104.6786,194.1476,96.1809,189.7264,99.7098,186.1976,95.2886,189.1687,104.6786" style="stroke:#181818;stroke-width:1;"/></g><!--link n5 to n8--><g class="link" data-entity-1="n5" data-entity-2="n8" data-source-line="17" data-uid="lnk14" id="link_n5_n8"><path d="M89.6173,45.128 C110.9378,62.3959 137.4776,83.891 158.7797,101.1439" fill="none" id="n5-to-n8" style="stroke:#181818;stroke-width:1;"/><polygon fill="#181818" points="163.4423,104.9202,158.966,96.1474,159.5568,101.7733,153.9309,102.3641,163.4423,104.9202" style="stroke:#181818;stroke-width:1;"/></g><!--link n2 to n1--><g class="link" data-entity-1="n2" data-entity-2="n1" data-source-line="18" data-uid="lnk15" id="link_n2_n1"><path d="M323,241.3616 C323,258.5424 323,277.51 323,294.6786" fill="none" id="n2-to-n1" style="stroke:#181818;stroke-width:1;"/><polygon fill="#181818" points="323,300.6786,327,291.6786,323,295.6786,319,291.6786,323,300.6786" style="stroke:#181818;stroke-width:1;"/></g><!--link n3 to n1--><g class="link" data-entity-1="n3" data-entity-2="n1" data-source-line="19" data-uid="lnk16" id="link_n3_n1"><path d="M412.3346,241.128 C392.7761,258.3959 368.6501,279.6962 349.1086,296.9491" fill="none" id="n3-to-n1" style="stroke:#181818;stroke-width:1;"/><polygon fill="#181818" points="344.6108,300.9202,354.0049,297.9621,348.359,297.611,348.7102,291.965,344.6108,300.9202" style="stroke:#181818;stroke-width:1;"/></g><!--link n4 to n1--><g class="link" data-entity-1="n4" data-entity-2="n1" data-source-line="20" data-uid="lnk17" id="link_n4_n1"><path d="M506.7372,236.25 C469.3521,253.2907 412.0824,279.395 370.4831,298.3565" fill="none" id="n4-to-n1" style="stroke:#181818;stroke-width:1;"/><polygon fill="#181818" points="365.0235,300.8451,374.8719,300.752,369.5732,298.7713,371.5538,293.4725,365.0235,300.8451" style="stroke:#181818;stroke-width:1;"/></g><!--link n5 to n1--><g class="link" data-entity-1="n5" data-entity-2="n1" data-source-line="21" data-uid="lnk18" id="link_n5_n1"><path d="M63.8284,45.0155 C60.2439,86.0557 57.791,183.8348 107,241 C144.5769,284.6524 202.4826,303.1302 251.032,311.8725" fill="none" id="n5-to-n1" style="stroke:#181818;stroke-width:1;"/><polygon fill="#181818" points="256.937,312.9358,248.7883,307.4041,252.0161,312.0497,247.3706,315.2775,256.937,312.9358" style="stroke:#181818;stroke-width:1;"/></g><!--link n6 to n1--><g class="link" data-entity-1="n6" data-entity-2="n1" data-source-line="22" data-uid="lnk19" id="link_n6_n1"><path d="M213.545,241.128 C237.5086,258.3959 267.7113,280.1596 291.6541,297.4125" fill="none" id="n6-to-n1" style="stroke:#181818;stroke-width:1;"/><polygon fill="#181818" points="296.5219,300.9202,291.5586,292.4134,292.4654,297.9971,286.8817,298.9039,296.5219,300.9202" style="stroke:#181818;stroke-width:1;"/></g><!--link n7 to n6--><g class="link" data-entity-1="n7" data-entity-2="n6" data-source-line="23" data-uid="lnk20" id="link_n7_n6"><path d="M375.7357,45.2387 C385.5579,70.0429 397.7301,113.4882 378,143 C362.9923,165.4482 305.3475,187.0254 255.6619,202.4647" fill="none" id="n7-to-n6" style="stroke:#181818;stroke-width:1;"/><polygon fill="#181818" points="249.9322,204.2452,259.7138,205.3943,254.707,202.7615,257.3398,197.7547,249.9322,204.2452" style="stroke:#181818;stroke-width:1;"/></g><!--link n5 to n6--><g class="link" data-entity-1="n5" data-entity-2="n6" data-source-line="24" data-uid="lnk21" id="link_n5_n6"><path d="M71.5546,45.2394 C79.0082,69.2885 93.697,111.1588 114,143 C128.4576,165.6739 145.3957,183.7057 161.2576,198.7574" fill="none" id="n5-to-n6" style="stroke:#181818;stroke-width:1;"/><polygon fill="#181818" points="165.6099,202.8874,161.8347,193.7908,161.983,199.4457,156.328,199.5939,165.6099,202.8874" style="stroke:#181818;stroke-width:1;"/></g><!--link n8 to n6--><g class="link" data-entity-1="n8" data-entity-2="n6" data-source-line="25" data-uid="lnk22" id="link_n8_n6"><path d="M187,143.3616 C187,160.5424 187,179.51 187,196.6786" fill="none" id="n8-to-n6" style="stroke:#181818;stroke-width:1;"/><polygon fill="#181818" points="187,202.6786,191,193.6786,187,197.6786,183,193.6786,187,202.6786" style="stroke:#181818;stroke-width:1;"/></g><!--link n10 to n6--><g class="link" data-entity-1="n10" data-entity-2="n6" data-source-line="26" data-uid="lnk23" id="link_n10_n6"><path d="M293.2357,143.128 C269.977,160.3959 240.7554,182.0907 217.5168,199.3436" fill="none" id="n10-to-n6" style="stroke:#181818;stroke-width:1;"/><polygon fill="#181818" points="212.6993,202.9202,222.3099,200.7669,216.7139,199.9397,217.5411,194.3437,212.6993,202.9202" style="stroke:#181818;stroke-width:1;"/></g><!--SRC=[RS_FYi8m4CVnUvyYkBU2VwgsjI0UrkjUbds09JPZ6qmdPJ8z-FQws0ojxEqBdnz3SWnyTt1AZkinmirYhqbtwgBhMqD-G7FspfDYqXYU1CW9GSqQ6mTgqNjYeD_QO-1Lkr0wACp_6V2zX-Y7gQTfxvb-0Ctt00EiwZHzhJBryMMRbZ_T0FE3q_buifWjk2NG9bgscM9WO-0QhNmZY_ABwesSlKJQpeaiDf5sKsBRoGlt2PPgkJpzVHyhgLng-weimPtKNYgNAgJ6UuNeimvIsMRC1m00]--></g></svg>