<svg xmlns="http://www.w3.org/2000/svg" xmlns:xlink="http://www.w3.org/1999/xlink" contentStyleType="text/css" data-diagram-type="DESCRIPTION" height="344px" preserveAspectRatio="none" style="width:631px;height:344px;" version="1.1" viewBox="0 0 631 344" width="631px" zoomAndPan="magnify"><defs/><g><!--entity n5--><g class="entity" data-entity="n5" data-source-line="5" data-uid="ent0002" id="entity_n5"><rect fill="#F1F1F1" height="37.7799" rx="2.5" ry="2.5" style="stroke:#181818;stroke-width:0.5;" width="117.9996" x="7" y="7"/><text fill="#000000" font-family="'Segoe UI', 'メイリオ', 'UDEV Gothic HSRFJPDOC', 'Hiragino Kaku Gothic ProN', 'ヒラギノ角ゴ ProN', 'Noto Sans JP', 'Helvetica Neue', Helvetica, Arial, sans-serif" font-size="14" lengthAdjust="spacing" textLength="97.9996" x="17" y="30.9999">porter_const.h</text></g><!--entity n9--><g class="entity" data-entity="n9" data-source-line="6" data-uid="ent0003" id="entity_n9"><rect fill="#F1F1F1" height="37.7799" rx="2.5" ry="2.5" style="stroke:#181818;stroke-width:0.5;" width="110.9996" x="142.5" y="105"/><text fill="#000000" font-family="'Segoe UI', 'メイリオ', 'UDEV Gothic HSRFJPDOC', 'Hiragino Kaku Gothic ProN', 'ヒラギノ角ゴ ProN', 'Noto Sans JP', 'Helvetica Neue', Helvetica, Arial, sans-serif" font-size="14" lengthAdjust="spacing" textLength="90.9996" x="152.5" y="128.9999">porter_type.h</text></g><!--entity n6--><g class="entity" data-entity="n6" data-source-line="7" data-uid="ent0004" id="entity_n6"><rect fill="#F1F1F1" height="37.7799" rx="2.5" ry="2.5" style="stroke:#181818;stroke-width:0.5;" width="75.9998" x="360" y="105"/><text fill="#000000" font-family="'Segoe UI', 'メイリオ', 'UDEV Gothic HSRFJPDOC', 'Hiragino Kaku Gothic ProN', 'ヒラギノ角ゴ ProN', 'Noto Sans JP', 'Helvetica Neue', Helvetica, Arial, sans-serif" font-size="14" lengthAdjust="spacing" textLength="55.9998" x="370" y="128.9999">seqnum.h</text></g><!--entity n1--><g class="entity" data-entity="n1" data-source-line="8" data-uid="ent0005" id="entity_n1"><rect fill="#ADD8E6" height="37.7799" rx="2.5" ry="2.5" style="stroke:#181818;stroke-width:0.5;" width="79.4998" x="291.5" y="301"/><text fill="#000000" font-family="'Segoe UI', 'メイリオ', 'UDEV Gothic HSRFJPDOC', 'Hiragino Kaku Gothic ProN', 'ヒラギノ角ゴ ProN', 'Noto Sans JP', 'Helvetica Neue', Helvetica, Arial, sans-serif" font-size="14" font-weight="bold" lengthAdjust="spacing" textLength="59.4998" x="301.5" y="324.9999">window.c</text></g><!--entity n8--><g class="entity" data-entity="n8" data-source-line="9" data-uid="ent0006" id="entity_n8"><rect fill="#F1F1F1" height="37.7799" rx="2.5" ry="2.5" style="stroke:#181818;stroke-width:0.5;" width="75.9998" x="160" y="203"/><text fill="#000000" font-family="'Segoe UI', 'メイリオ', 'UDEV Gothic HSRFJPDOC', 'Hiragino Kaku Gothic ProN', 'ヒラギノ角ゴ ProN', 'Noto Sans JP', 'Helvetica Neue', Helvetica, Arial, sans-serif" font-size="14" lengthAdjust="spacing" textLength="55.9998" x="170" y="226.9999">window.h</text></g><!--entity n4--><g class="entity" data-entity="n4" data-source-line="10" data-uid="ent0007" id="entity_n4"><rect fill="#F1F1F1" height="37.7799" rx="2.5" ry="2.5" style="stroke:#181818;stroke-width:0.5;" width="61.9998" x="342" y="203"/><text fill="#000000" font-family="'Segoe UI', 'メイリオ', 'UDEV Gothic HSRFJPDOC', 'Hiragino Kaku Gothic ProN', 'ヒラギノ角ゴ ProN', 'Noto Sans JP', 'Helvetica Neue', Helvetica, Arial, sans-serif" font-size="14" lengthAdjust="spacing" textLength="41.9998" x="352" y="226.9999">inet.h</text></g><!--entity n10--><g class="entity" data-entity="n10" data-source-line="11" data-uid="ent0008" id="entity_n10"><rect fill="#F1F1F1" height="37.7799" rx="2.5" ry="2.5" style="stroke:#181818;stroke-width:0.5;" width="75.9998" x="160" y="7"/><text fill="#000000" font-family="'Segoe UI', 'メイリオ', 'UDEV Gothic HSRFJPDOC', 'Hiragino Kaku Gothic ProN', 'ヒラギノ角ゴ ProN', 'Noto Sans JP', 'Helvetica Neue', Helvetica, Arial, sans-serif" font-size="14" lengthAdjust="spacing" textLength="55.9998" x="170" y="30.9999">stddef.h</text></g><!--entity n7--><g class="entity" data-entity="n7" data-source-line="12" data-uid="ent0009" id="entity_n7"><rect fill="#F1F1F1" height="37.7799" rx="2.5" ry="2.5" style="stroke:#181818;stroke-width:0.5;" width="75.9998" x="271" y="7"/><text fill="#000000" font-family="'Segoe UI', 'メイリオ', 'UDEV Gothic HSRFJPDOC', 'Hiragino Kaku Gothic ProN', 'ヒラギノ角ゴ ProN', 'Noto Sans JP', 'Helvetica Neue', Helvetica, Arial, sans-serif" font-size="14" lengthAdjust="spacing" textLength="55.9998" x="281" y="30.9999">stdint.h</text></g><!--entity n2--><g class="entity" data-entity="n2" data-source-line="13" data-uid="ent0010" id="entity_n2"><rect fill="#F1F1F1" height="37.7799" rx="2.5" ry="2.5" style="stroke:#181818;stroke-width:0.5;" width="75.9998" x="439" y="203"/><text fill="#000000" font-family="'Segoe UI', 'メイリオ', 'UDEV Gothic HSRFJPDOC', 'Hiragino Kaku Gothic ProN', 'ヒラギノ角ゴ ProN', 'Noto Sans JP', 'Helvetica Neue', Helvetica, Arial, sans-serif" font-size="14" lengthAdjust="spacing" textLength="55.9998" x="449" y="226.9999">stdlib.h</text></g><!--entity n3--><g class="entity" data-entity="n3" data-source-line="14" data-uid="ent0011" id="entity_n3"><rect fill="#F1F1F1" height="37.7799" rx="2.5" ry="2.5" style="stroke:#181818;stroke-width:0.5;" width="75.9998" x="550" y="203"/><text fill="#000000" font-family="'Segoe UI', 'メイリオ', 'UDEV Gothic HSRFJPDOC', 'Hiragino Kaku Gothic ProN', 'ヒラギノ角ゴ ProN', 'Noto Sans JP', 'Helvetica Neue', Helvetica, Arial, sans-serif" font-size="14" lengthAdjust="spacing" textLength="55.9998" x="560" y="226.9999">string.h</text></g><!--link n10 to n9--><g class="link" data-entity-1="n10" data-entity-2="n9" data-source-line="15" data-uid="lnk12" id="link_n10_n9"><path d="M198,45.3616 C198,62.5424 198,81.51 198,98.6786" fill="none" id="n10-to-n9" style="stroke:#181818;stroke-width:1;"/><polygon fill="#181818" points="198,104.6786,202,95.6786,198,99.6786,194,95.6786,198,104.6786" style="stroke:#181818;stroke-width:1;"/></g><!--link n7 to n9--><g class="link" data-entity-1="n7" data-entity-2="n9" data-source-line="16" data-uid="lnk13" id="link_n7_n9"><path d="M287.3346,45.128 C267.7761,62.3959 243.6501,83.6962 224.1086,100.9491" fill="none" id="n7-to-n9" style="stroke:#181818;stroke-width:1;"/><polygon fill="#181818" points="219.6108,104.9202,229.0049,101.9621,223.359,101.611,223.7102,95.965,219.6108,104.9202" style="stroke:#181818;stroke-width:1;"/></g><!--link n5 to n9--><g class="link" data-entity-1="n5" data-entity-2="n9" data-source-line="17" data-uid="lnk14" id="link_n5_n9"><path d="M91.7643,45.128 C115.023,62.3959 144.2446,84.0907 167.4832,101.3436" fill="none" id="n5-to-n9" style="stroke:#181818;stroke-width:1;"/><polygon fill="#181818" points="172.3007,104.9202,167.4589,96.3437,168.2861,101.9397,162.6901,102.7669,172.3007,104.9202" style="stroke:#181818;stroke-width:1;"/></g><!--link n7 to n6--><g class="link" data-entity-1="n7" data-entity-2="n6" data-source-line="18" data-uid="lnk15" id="link_n7_n6"><path d="M326.5835,45.3616 C342.1865,62.5424 360.8273,83.0683 376.4192,100.2369" fill="none" id="n7-to-n6" style="stroke:#181818;stroke-width:1;"/><polygon fill="#181818" points="380.453,104.6786,377.3635,95.3269,377.0915,100.9772,371.4412,100.7053,380.453,104.6786" style="stroke:#181818;stroke-width:1;"/></g><!--link n2 to n1--><g class="link" data-entity-1="n2" data-entity-2="n1" data-source-line="19" data-uid="lnk16" id="link_n2_n1"><path d="M448.5031,241.128 C422.7776,258.3959 390.1101,280.3234 364.4068,297.5763" fill="none" id="n2-to-n1" style="stroke:#181818;stroke-width:1;"/><polygon fill="#181818" points="359.425,300.9202,369.127,299.2255,363.5765,298.1336,364.6684,292.5831,359.425,300.9202" style="stroke:#181818;stroke-width:1;"/></g><!--link n3 to n1--><g class="link" data-entity-1="n3" data-entity-2="n1" data-source-line="20" data-uid="lnk17" id="link_n3_n1"><path d="M549.802,236.5658 C501.701,254.9078 425.0712,284.1285 376.2826,302.7327" fill="none" id="n3-to-n1" style="stroke:#181818;stroke-width:1;"/><polygon fill="#181818" points="370.6764,304.8705,380.5109,305.4013,375.3483,303.089,377.6606,297.9263,370.6764,304.8705" style="stroke:#181818;stroke-width:1;"/></g><!--link n4 to n1--><g class="link" data-entity-1="n4" data-entity-2="n1" data-source-line="21" data-uid="lnk18" id="link_n4_n1"><path d="M364.7022,241.3616 C357.339,258.5424 349.0021,277.9951 341.6441,295.1637" fill="none" id="n4-to-n1" style="stroke:#181818;stroke-width:1;"/><polygon fill="#181818" points="339.2806,300.6786,346.5025,293.982,341.2502,296.0829,339.1493,290.8306,339.2806,300.6786" style="stroke:#181818;stroke-width:1;"/></g><!--link n5 to n1--><g class="link" data-entity-1="n5" data-entity-2="n1" data-source-line="22" data-uid="lnk19" id="link_n5_n1"><path d="M67.2189,45.1749 C70.9219,86.9655 85.6251,186.8405 143,241 C184.9644,280.6126 243.8795,300.3801 285.3808,310.5524" fill="none" id="n5-to-n1" style="stroke:#181818;stroke-width:1;"/><polygon fill="#181818" points="291.2083,311.9808,283.4193,305.9532,286.352,310.7905,281.5148,313.7233,291.2083,311.9808" style="stroke:#181818;stroke-width:1;"/></g><!--link n6 to n1--><g class="link" data-entity-1="n6" data-entity-2="n1" data-source-line="23" data-uid="lnk20" id="link_n6_n1"><path d="M372.1205,143.2734 C355.1671,157.6143 334.4584,178.8273 325,203 C312.2526,235.5782 317.8706,271.3786 323.8961,295.1822" fill="none" id="n6-to-n1" style="stroke:#181818;stroke-width:1;"/><polygon fill="#181818" points="325.3685,300.9987,327.0376,291.2923,324.1415,296.1516,319.2823,293.2555,325.3685,300.9987" style="stroke:#181818;stroke-width:1;"/></g><!--link n8 to n1--><g class="link" data-entity-1="n8" data-entity-2="n1" data-source-line="24" data-uid="lnk21" id="link_n8_n1"><path d="M223.9595,241.128 C247.3944,258.3959 276.861,280.1081 300.2757,297.361" fill="none" id="n8-to-n1" style="stroke:#181818;stroke-width:1;"/><polygon fill="#181818" points="305.106,300.9202,300.2333,292.3612,301.0807,297.9542,295.4877,298.8016,305.106,300.9202" style="stroke:#181818;stroke-width:1;"/></g><!--link n7 to n8--><g class="link" data-entity-1="n7" data-entity-2="n8" data-source-line="25" data-uid="lnk22" id="link_n7_n8"><path d="M305.4091,45.2868 C300.3404,69.3848 289.57,111.3055 271,143 C257.5003,166.0407 240.7071,183.9147 224.6253,198.8032" fill="none" id="n7-to-n8" style="stroke:#181818;stroke-width:1;"/><polygon fill="#181818" points="220.2225,202.8793,229.5442,199.7003,223.8915,199.4825,224.1093,193.8299,220.2225,202.8793" style="stroke:#181818;stroke-width:1;"/></g><!--link n5 to n8--><g class="link" data-entity-1="n5" data-entity-2="n8" data-source-line="26" data-uid="lnk23" id="link_n5_n8"><path d="M73.6844,45.1398 C83.7301,69.0861 102.697,110.8504 125,143 C140.4342,165.2483 157.5071,183.4501 173.137,198.6834" fill="none" id="n5-to-n8" style="stroke:#181818;stroke-width:1;"/><polygon fill="#181818" points="177.4338,202.8712,173.7804,193.725,173.8531,199.3814,168.1967,199.4541,177.4338,202.8712" style="stroke:#181818;stroke-width:1;"/></g><!--link n9 to n8--><g class="link" data-entity-1="n9" data-entity-2="n8" data-source-line="27" data-uid="lnk24" id="link_n9_n8"><path d="M198,143.3616 C198,160.5424 198,179.51 198,196.6786" fill="none" id="n9-to-n8" style="stroke:#181818;stroke-width:1;"/><polygon fill="#181818" points="198,202.6786,202,193.6786,198,197.6786,194,193.6786,198,202.6786" style="stroke:#181818;stroke-width:1;"/></g><!--SRC=[RSzB3e8m483XVK_Hw8x41og8YN6XM-zWAepOMAVO3Z7UNepj18cxF_s6QTbwUXdOYUqiXBzfR9HJTtbMvQrsjiNgO8rrafn2tn4W2GSbAQmDo55Z7O4xbHOzJQyZgRp4xCy0lHg8lkcxXmUszqXvdvBagR6opscP95zEvVYewoljJGlzoJ0NbXHzqWZyiDNFnLHLS8cKpWUcaJzR3yZeSwJ5BpcDTQIbw9RAoMJt-M5SSsN3irpWubkfm2NNYYlZohaAhh2buBckDg7U]--></g></svg>