<svg xmlns="http://www.w3.org/2000/svg" xmlns:xlink="http://www.w3.org/1999/xlink" contentStyleType="text/css" data-diagram-type="DESCRIPTION" height="442px" preserveAspectRatio="none" style="width:817px;height:442px;" version="1.1" viewBox="0 0 817 442" width="817px" zoomAndPan="magnify"><defs/><g><!--entity n3--><g class="entity" data-entity="n3" data-source-line="5" data-uid="ent0002" id="entity_n3"><rect fill="#F1F1F1" height="37.7799" rx="2.5" ry="2.5" style="stroke:#181818;stroke-width:0.5;" width="75.9998" x="229.1271" y="301"/><text fill="#000000" font-family="'Segoe UI', 'メイリオ', 'UDEV Gothic HSRFJPDOC', 'Hiragino Kaku Gothic ProN', 'ヒラギノ角ゴ ProN', 'Noto Sans JP', 'Helvetica Neue', Helvetica, Arial, sans-serif" font-size="14" lengthAdjust="spacing" textLength="55.9998" x="239.1271" y="324.9999">porter.h</text></g><!--entity n2--><g class="entity" data-entity="n2" data-source-line="6" data-uid="ent0003" id="entity_n2"><rect fill="#F1F1F1" height="37.7799" rx="2.5" ry="2.5" style="stroke:#181818;stroke-width:0.5;" width="117.9996" x="342.1271" y="7"/><text fill="#000000" font-family="'Segoe UI', 'メイリオ', 'UDEV Gothic HSRFJPDOC', 'Hiragino Kaku Gothic ProN', 'ヒラギノ角ゴ ProN', 'Noto Sans JP', 'Helvetica Neue', Helvetica, Arial, sans-serif" font-size="14" lengthAdjust="spacing" textLength="97.9996" x="352.1271" y="30.9999">porter_const.h</text></g><!--entity n4--><g class="entity" data-entity="n4" data-source-line="7" data-uid="ent0004" id="entity_n4"><rect fill="#F1F1F1" height="37.7799" rx="2.5" ry="2.5" style="stroke:#181818;stroke-width:0.5;" width="110.9996" x="321.6271" y="105"/><text fill="#000000" font-family="'Segoe UI', 'メイリオ', 'UDEV Gothic HSRFJPDOC', 'Hiragino Kaku Gothic ProN', 'ヒラギノ角ゴ ProN', 'Noto Sans JP', 'Helvetica Neue', Helvetica, Arial, sans-serif" font-size="14" lengthAdjust="spacing" textLength="90.9996" x="331.6271" y="128.9999">porter_type.h</text></g><!--entity n1--><g class="entity" data-entity="n1" data-source-line="8" data-uid="ent0005" id="entity_n1"><rect fill="#ADD8E6" height="37.7799" rx="2.5" ry="2.5" style="stroke:#181818;stroke-width:0.5;" width="94.3747" x="277.1271" y="399"/><text fill="#000000" font-family="'Segoe UI', 'メイリオ', 'UDEV Gothic HSRFJPDOC', 'Hiragino Kaku Gothic ProN', 'ヒラギノ角ゴ ProN', 'Noto Sans JP', 'Helvetica Neue', Helvetica, Arial, sans-serif" font-size="14" font-weight="bold" lengthAdjust="spacing" textLength="74.3747" x="287.1271" y="422.9999">potrSend.c</text></g><!--entity n9--><g class="entity" data-entity="n9" data-source-line="9" data-uid="ent0006" id="entity_n9"><rect fill="#F1F1F1" height="37.7799" rx="2.5" ry="2.5" style="stroke:#181818;stroke-width:0.5;" width="89.9997" x="721.1271" y="105"/><text fill="#000000" font-family="'Segoe UI', 'メイリオ', 'UDEV Gothic HSRFJPDOC', 'Hiragino Kaku Gothic ProN', 'ヒラギノ角ゴ ProN', 'Noto Sans JP', 'Helvetica Neue', Helvetica, Arial, sans-serif" font-size="14" lengthAdjust="spacing" textLength="69.9997" x="731.1271" y="128.9999">compress.h</text></g><!--entity n10--><g class="entity" data-entity="n10" data-source-line="10" data-uid="ent0007" id="entity_n10"><rect fill="#F1F1F1" height="37.7799" rx="2.5" ry="2.5" style="stroke:#181818;stroke-width:0.5;" width="75.9998" x="539.1271" y="105"/><text fill="#000000" font-family="'Segoe UI', 'メイリオ', 'UDEV Gothic HSRFJPDOC', 'Hiragino Kaku Gothic ProN', 'ヒラギノ角ゴ ProN', 'Noto Sans JP', 'Helvetica Neue', Helvetica, Arial, sans-serif" font-size="14" lengthAdjust="spacing" textLength="55.9998" x="549.1271" y="128.9999">crypto.h</text></g><!--entity n14--><g class="entity" data-entity="n14" data-source-line="11" data-uid="ent0008" id="entity_n14"><rect fill="#F1F1F1" height="37.7799" rx="2.5" ry="2.5" style="stroke:#181818;stroke-width:0.5;" width="82.9997" x="340.6271" y="301"/><text fill="#000000" font-family="'Segoe UI', 'メイリオ', 'UDEV Gothic HSRFJPDOC', 'Hiragino Kaku Gothic ProN', 'ヒラギノ角ゴ ProN', 'Noto Sans JP', 'Helvetica Neue', Helvetica, Arial, sans-serif" font-size="14" lengthAdjust="spacing" textLength="62.9997" x="350.6271" y="324.9999">potrLog.h</text></g><!--entity n11--><g class="entity" data-entity="n11" data-source-line="12" data-uid="ent0009" id="entity_n11"><rect fill="#F1F1F1" height="37.7799" rx="2.5" ry="2.5" style="stroke:#181818;stroke-width:0.5;" width="124.9995" x="56.6271" y="203"/><text fill="#000000" font-family="'Segoe UI', 'メイリオ', 'UDEV Gothic HSRFJPDOC', 'Hiragino Kaku Gothic ProN', 'ヒラギノ角ゴ ProN', 'Noto Sans JP', 'Helvetica Neue', Helvetica, Arial, sans-serif" font-size="14" lengthAdjust="spacing" textLength="104.9995" x="66.6271" y="226.9999">potrSendQueue.h</text></g><!--entity n7--><g class="entity" data-entity="n7" data-source-line="13" data-uid="ent0010" id="entity_n7"><rect fill="#F1F1F1" height="37.7799" rx="2.5" ry="2.5" style="stroke:#181818;stroke-width:0.5;" width="110.9996" x="464.6271" y="301"/><text fill="#000000" font-family="'Segoe UI', 'メイリオ', 'UDEV Gothic HSRFJPDOC', 'Hiragino Kaku Gothic ProN', 'ヒラギノ角ゴ ProN', 'Noto Sans JP', 'Helvetica Neue', Helvetica, Arial, sans-serif" font-size="14" lengthAdjust="spacing" textLength="90.9996" x="474.6271" y="324.9999">potrContext.h</text></g><!--entity n8--><g class="entity" data-entity="n8" data-source-line="14" data-uid="ent0011" id="entity_n8"><rect fill="#F1F1F1" height="37.7799" rx="2.5" ry="2.5" style="stroke:#181818;stroke-width:0.5;" width="75.9998" x="584.1271" y="203"/><text fill="#000000" font-family="'Segoe UI', 'メイリオ', 'UDEV Gothic HSRFJPDOC', 'Hiragino Kaku Gothic ProN', 'ヒラギノ角ゴ ProN', 'Noto Sans JP', 'Helvetica Neue', Helvetica, Arial, sans-serif" font-size="14" lengthAdjust="spacing" textLength="55.9998" x="594.1271" y="226.9999">window.h</text></g><!--entity n13--><g class="entity" data-entity="n13" data-source-line="15" data-uid="ent0012" id="entity_n13"><rect fill="#F1F1F1" height="37.7799" rx="2.5" ry="2.5" style="stroke:#181818;stroke-width:0.5;" width="47.9999" x="430.1271" y="203"/><text fill="#000000" font-family="'Segoe UI', 'メイリオ', 'UDEV Gothic HSRFJPDOC', 'Hiragino Kaku Gothic ProN', 'ヒラギノ角ゴ ProN', 'Noto Sans JP', 'Helvetica Neue', Helvetica, Arial, sans-serif" font-size="14" lengthAdjust="spacing" textLength="27.9999" x="440.1271" y="226.9999">in.h</text></g><!--entity n12--><g class="entity" data-entity="n12" data-source-line="16" data-uid="ent0013" id="entity_n12"><rect fill="#F1F1F1" height="37.7799" rx="2.5" ry="2.5" style="stroke:#181818;stroke-width:0.5;" width="82.9997" x="201.6271" y="105"/><text fill="#000000" font-family="'Segoe UI', 'メイリオ', 'UDEV Gothic HSRFJPDOC', 'Hiragino Kaku Gothic ProN', 'ヒラギノ角ゴ ProN', 'Noto Sans JP', 'Helvetica Neue', Helvetica, Arial, sans-serif" font-size="14" lengthAdjust="spacing" textLength="62.9997" x="211.6271" y="128.9999">pthread.h</text></g><!--entity n5--><g class="entity" data-entity="n5" data-source-line="17" data-uid="ent0014" id="entity_n5"><rect fill="#F1F1F1" height="37.7799" rx="2.5" ry="2.5" style="stroke:#181818;stroke-width:0.5;" width="75.9998" x="507.1271" y="7"/><text fill="#000000" font-family="'Segoe UI', 'メイリオ', 'UDEV Gothic HSRFJPDOC', 'Hiragino Kaku Gothic ProN', 'ヒラギノ角ゴ ProN', 'Noto Sans JP', 'Helvetica Neue', Helvetica, Arial, sans-serif" font-size="14" lengthAdjust="spacing" textLength="55.9998" x="517.1271" y="30.9999">stddef.h</text></g><!--entity n6--><g class="entity" data-entity="n6" data-source-line="18" data-uid="ent0015" id="entity_n6"><rect fill="#F1F1F1" height="37.7799" rx="2.5" ry="2.5" style="stroke:#181818;stroke-width:0.5;" width="75.9998" x="624.1271" y="7"/><text fill="#000000" font-family="'Segoe UI', 'メイリオ', 'UDEV Gothic HSRFJPDOC', 'Hiragino Kaku Gothic ProN', 'ヒラギノ角ゴ ProN', 'Noto Sans JP', 'Helvetica Neue', Helvetica, Arial, sans-serif" font-size="14" lengthAdjust="spacing" textLength="55.9998" x="634.1271" y="30.9999">stdint.h</text></g><!--link n4 to n3--><g class="link" data-entity-1="n4" data-entity-2="n3" data-source-line="19" data-uid="lnk16" id="link_n4_n3"><path d="M366.3796,143.1502 C345.3501,180.6208 301.9192,258.0068 280.8548,295.5398" fill="none" id="n4-to-n3" style="stroke:#181818;stroke-width:1;"/><polygon fill="#181818" points="277.9183,300.7721,285.8112,294.8813,280.3654,296.4118,278.8348,290.966,277.9183,300.7721" style="stroke:#181818;stroke-width:1;"/></g><!--link n5 to n4--><g class="link" data-entity-1="n5" data-entity-2="n4" data-source-line="20" data-uid="lnk17" id="link_n5_n4"><path d="M512.3362,45.128 C482.7342,62.3959 444.5944,84.6441 415.018,101.897" fill="none" id="n5-to-n4" style="stroke:#181818;stroke-width:1;"/><polygon fill="#181818" points="409.8353,104.9202,419.6248,103.8405,414.1542,102.4008,415.5938,96.9302,409.8353,104.9202" style="stroke:#181818;stroke-width:1;"/></g><!--link n6 to n4--><g class="link" data-entity-1="n6" data-entity-2="n4" data-source-line="21" data-uid="lnk18" id="link_n6_n4"><path d="M623.9865,39.115 C574.7665,56.0398 494.45,83.6574 438.0697,103.0443" fill="none" id="n6-to-n4" style="stroke:#181818;stroke-width:1;"/><polygon fill="#181818" points="432.3958,104.9953,442.2074,105.8514,437.1241,103.3694,439.606,98.2861,432.3958,104.9953" style="stroke:#181818;stroke-width:1;"/></g><!--link n2 to n4--><g class="link" data-entity-1="n2" data-entity-2="n4" data-source-line="22" data-uid="lnk19" id="link_n2_n4"><path d="M396.3855,45.3616 C392.178,62.5424 387.4906,81.6822 383.2861,98.8508" fill="none" id="n2-to-n4" style="stroke:#181818;stroke-width:1;"/><polygon fill="#181818" points="381.8589,104.6786,387.8849,96.8884,383.0482,99.8221,380.1145,94.9855,381.8589,104.6786" style="stroke:#181818;stroke-width:1;"/></g><!--link n2 to n1--><g class="link" data-entity-1="n2" data-entity-2="n1" data-source-line="23" data-uid="lnk20" id="link_n2_n1"><path d="M341.8751,36.1759 C265.5869,50.1777 138.2845,76.8649 100.1271,105 C58.8344,135.4469 53.2254,153.6711 39.1271,203 C6,318.909 181.9312,381.2392 271.1562,405.2465" fill="none" id="n2-to-n1" style="stroke:#181818;stroke-width:1;"/><polygon fill="#181818" points="276.9501,406.8054,269.2985,400.6044,272.1218,405.5063,267.2199,408.3296,276.9501,406.8054" style="stroke:#181818;stroke-width:1;"/></g><!--link n3 to n1--><g class="link" data-entity-1="n3" data-entity-2="n1" data-source-line="24" data-uid="lnk21" id="link_n3_n1"><path d="M278.3885,339.3616 C288.3814,356.5424 299.8867,376.3235 309.8725,393.4921" fill="none" id="n3-to-n1" style="stroke:#181818;stroke-width:1;"/><polygon fill="#181818" points="312.8891,398.6786,311.8218,388.8877,310.3752,394.3565,304.9065,392.9099,312.8891,398.6786" style="stroke:#181818;stroke-width:1;"/></g><!--link n7 to n1--><g class="link" data-entity-1="n7" data-entity-2="n1" data-source-line="25" data-uid="lnk22" id="link_n7_n1"><path d="M481.8711,339.128 C447.3354,356.3959 402.1591,378.984 367.6533,396.2369" fill="none" id="n7-to-n1" style="stroke:#181818;stroke-width:1;"/><polygon fill="#181818" points="362.2867,398.9202,372.1254,398.473,366.7588,396.6841,368.5477,391.3176,362.2867,398.9202" style="stroke:#181818;stroke-width:1;"/></g><!--link n11 to n1--><g class="link" data-entity-1="n11" data-entity-2="n1" data-source-line="26" data-uid="lnk23" id="link_n11_n1"><path d="M131.6242,241.2371 C148.0475,265.6554 178.6412,308.2908 211.1271,339 C235.828,362.3499 262.8017,380.9295 286.4622,395.6726" fill="none" id="n11-to-n1" style="stroke:#181818;stroke-width:1;"/><polygon fill="#181818" points="291.5545,398.8457,286.0314,390.6912,287.3109,396.2015,281.8007,397.481,291.5545,398.8457" style="stroke:#181818;stroke-width:1;"/></g><!--link n9 to n1--><g class="link" data-entity-1="n9" data-entity-2="n1" data-source-line="27" data-uid="lnk24" id="link_n9_n1"><path d="M767.591,143.1188 C768.5241,167.7934 766.8257,211.0987 747.1271,241 C662.0554,370.1339 468.5082,404.5918 377.2073,413.9983" fill="none" id="n9-to-n1" style="stroke:#181818;stroke-width:1;"/><polygon fill="#181818" points="371.2389,414.6132,380.6015,417.6698,376.2126,414.1008,379.7816,409.7119,371.2389,414.6132" style="stroke:#181818;stroke-width:1;"/></g><!--link n14 to n1--><g class="link" data-entity-1="n14" data-entity-2="n1" data-source-line="28" data-uid="lnk25" id="link_n14_n1"><path d="M370.6682,339.3616 C360.5,356.5424 348.7791,376.3465 338.6181,393.5151" fill="none" id="n14-to-n1" style="stroke:#181818;stroke-width:1;"/><polygon fill="#181818" points="335.5622,398.6786,343.5884,392.9707,338.1088,394.3757,336.7038,388.8961,335.5622,398.6786" style="stroke:#181818;stroke-width:1;"/></g><!--link n5 to n9--><g class="link" data-entity-1="n5" data-entity-2="n9" data-source-line="29" data-uid="lnk26" id="link_n5_n9"><path d="M583.3701,42.9584 C622.2855,60.215 677.0078,84.4811 717.5779,102.4714" fill="none" id="n5-to-n9" style="stroke:#181818;stroke-width:1;"/><polygon fill="#181818" points="723.0628,104.9036,716.4569,97.5987,718.492,102.8768,713.2139,104.9119,723.0628,104.9036" style="stroke:#181818;stroke-width:1;"/></g><!--link n6 to n9--><g class="link" data-entity-1="n6" data-entity-2="n9" data-source-line="30" data-uid="lnk27" id="link_n6_n9"><path d="M682.6742,45.3616 C700.9068,62.5424 723.0363,83.3952 741.256,100.5638" fill="none" id="n6-to-n9" style="stroke:#181818;stroke-width:1;"/><polygon fill="#181818" points="745.6227,104.6786,741.8158,95.5952,741.9838,101.2496,736.3294,101.4175,745.6227,104.6786" style="stroke:#181818;stroke-width:1;"/></g><!--link n2 to n9--><g class="link" data-entity-1="n2" data-entity-2="n9" data-source-line="31" data-uid="lnk28" id="link_n2_n9"><path d="M460.1763,41.8543 C533.013,61.4104 649.4427,92.671 715.2008,110.3266" fill="none" id="n2-to-n9" style="stroke:#181818;stroke-width:1;"/><polygon fill="#181818" points="720.9956,111.8825,713.3407,105.6855,716.1666,110.586,711.2662,113.4119,720.9956,111.8825" style="stroke:#181818;stroke-width:1;"/></g><!--link n5 to n10--><g class="link" data-entity-1="n5" data-entity-2="n10" data-source-line="32" data-uid="lnk29" id="link_n5_n10"><path d="M551.4493,45.3616 C557.0593,62.5424 563.3496,81.8064 568.9557,98.975" fill="none" id="n5-to-n10" style="stroke:#181818;stroke-width:1;"/><polygon fill="#181818" points="570.8181,104.6786,571.8269,94.8815,569.2661,99.9256,564.2221,97.3648,570.8181,104.6786" style="stroke:#181818;stroke-width:1;"/></g><!--link n6 to n10--><g class="link" data-entity-1="n6" data-entity-2="n10" data-source-line="33" data-uid="lnk30" id="link_n6_n10"><path d="M645.3339,45.3616 C630.4322,62.5424 612.7079,82.9774 597.8168,100.146" fill="none" id="n6-to-n10" style="stroke:#181818;stroke-width:1;"/><polygon fill="#181818" points="593.8855,104.6786,602.8042,100.5006,597.1616,100.9014,596.7608,95.2588,593.8855,104.6786" style="stroke:#181818;stroke-width:1;"/></g><!--link n2 to n10--><g class="link" data-entity-1="n2" data-entity-2="n10" data-source-line="34" data-uid="lnk31" id="link_n2_n10"><path d="M435.4795,45.128 C466.4911,62.3959 506.6345,84.7484 537.6193,102.0013" fill="none" id="n2-to-n10" style="stroke:#181818;stroke-width:1;"/><polygon fill="#181818" points="542.8614,104.9202,536.9441,97.0471,538.493,102.4878,533.0523,104.0366,542.8614,104.9202" style="stroke:#181818;stroke-width:1;"/></g><!--link n4 to n14--><g class="link" data-entity-1="n4" data-entity-2="n14" data-source-line="35" data-uid="lnk32" id="link_n4_n14"><path d="M377.6156,143.1502 C378.5715,180.6208 380.5261,257.2411 381.4836,294.7741" fill="none" id="n4-to-n14" style="stroke:#181818;stroke-width:1;"/><polygon fill="#181818" points="381.6366,300.7721,385.4058,291.673,381.5091,295.7737,377.4084,291.877,381.6366,300.7721" style="stroke:#181818;stroke-width:1;"/></g><!--link n5 to n11--><g class="link" data-entity-1="n5" data-entity-2="n11" data-source-line="36" data-uid="lnk33" id="link_n5_n11"><path d="M506.9927,37.3488 C497.5923,39.9984 487.5251,42.7119 478.1271,45 C348.5522,76.5474 291.6883,26.1617 184.1271,105 C150.7673,129.4515 134.1372,170.7299 126.0255,197.1087" fill="none" id="n5-to-n11" style="stroke:#181818;stroke-width:1;"/><polygon fill="#181818" points="124.2619,202.8437,130.7305,195.4169,125.7315,198.0646,123.0839,193.0655,124.2619,202.8437" style="stroke:#181818;stroke-width:1;"/></g><!--link n2 to n11--><g class="link" data-entity-1="n2" data-entity-2="n11" data-source-line="37" data-uid="lnk34" id="link_n2_n11"><path d="M341.857,34.476 C268.2264,46.3429 148.9887,70.4071 122.1271,105 C100.3185,133.0855 105.4588,171.6288 111.8224,196.8896" fill="none" id="n2-to-n11" style="stroke:#181818;stroke-width:1;"/><polygon fill="#181818" points="113.2881,202.7078,114.9684,193.0033,112.0667,197.8593,107.2107,194.9576,113.2881,202.7078" style="stroke:#181818;stroke-width:1;"/></g><!--link n4 to n11--><g class="link" data-entity-1="n4" data-entity-2="n11" data-source-line="38" data-uid="lnk35" id="link_n4_n11"><path d="M327.0762,143.0116 C281.6492,160.2668 220.6079,183.4531 175.0876,200.7437" fill="none" id="n4-to-n11" style="stroke:#181818;stroke-width:1;"/><polygon fill="#181818" points="169.4786,202.8742,179.3124,203.4177,174.1528,201.0987,176.4717,195.9391,169.4786,202.8742" style="stroke:#181818;stroke-width:1;"/></g><!--link n12 to n11--><g class="link" data-entity-1="n12" data-entity-2="n11" data-source-line="39" data-uid="lnk36" id="link_n12_n11"><path d="M218.9243,143.128 C197.0752,160.3959 169.8065,181.947 147.9763,199.1999" fill="none" id="n12-to-n11" style="stroke:#181818;stroke-width:1;"/><polygon fill="#181818" points="143.2689,202.9202,152.8101,200.4779,147.1917,199.8199,147.8497,194.2015,143.2689,202.9202" style="stroke:#181818;stroke-width:1;"/></g><!--link n4 to n7--><g class="link" data-entity-1="n4" data-entity-2="n7" data-source-line="40" data-uid="lnk37" id="link_n4_n7"><path d="M411.8678,143.0659 C442.9489,160.806 485.2398,186.863 496.1271,203 C516.3061,232.9091 520.0476,270.2123 520.4344,294.8843" fill="none" id="n4-to-n7" style="stroke:#181818;stroke-width:1;"/><polygon fill="#181818" points="520.5285,300.8836,524.3869,291.822,520.4501,295.8842,516.3879,291.9474,520.5285,300.8836" style="stroke:#181818;stroke-width:1;"/></g><!--link n8 to n7--><g class="link" data-entity-1="n8" data-entity-2="n7" data-source-line="41" data-uid="lnk38" id="link_n8_n7"><path d="M601.9752,241.3616 C584.0932,258.5424 562.4331,279.353 544.5638,296.5216" fill="none" id="n8-to-n7" style="stroke:#181818;stroke-width:1;"/><polygon fill="#181818" points="540.2372,300.6786,549.4984,297.3276,543.8427,297.2145,543.9558,291.5587,540.2372,300.6786" style="stroke:#181818;stroke-width:1;"/></g><!--link n9 to n7--><g class="link" data-entity-1="n9" data-entity-2="n7" data-source-line="42" data-uid="lnk39" id="link_n9_n7"><path d="M761.0119,143.1258 C753.2941,168.6104 736.3755,213.6578 707.1271,241 C670.3107,275.417 622.0484,294.3967 581.5192,305.8917" fill="none" id="n9-to-n7" style="stroke:#181818;stroke-width:1;"/><polygon fill="#181818" points="575.7469,307.5289,585.4968,308.9214,580.5572,306.1646,583.3139,301.2249,575.7469,307.5289" style="stroke:#181818;stroke-width:1;"/></g><!--link n10 to n7--><g class="link" data-entity-1="n10" data-entity-2="n7" data-source-line="43" data-uid="lnk40" id="link_n10_n7"><path d="M614.4828,143.1647 C652.1256,165.1622 701.5455,203.1082 678.1271,241 C655.877,277.0015 617.4439,295.4033 581.4477,306.3245" fill="none" id="n10-to-n7" style="stroke:#181818;stroke-width:1;"/><polygon fill="#181818" points="575.7061,308.0665,585.4798,309.2812,580.4907,306.6148,583.1571,301.6258,575.7061,308.0665" style="stroke:#181818;stroke-width:1;"/></g><!--link n11 to n7--><g class="link" data-entity-1="n11" data-entity-2="n7" data-source-line="44" data-uid="lnk41" id="link_n11_n7"><path d="M181.7834,237.3125 C259.3205,256.2617 384.3358,286.8141 458.5413,304.9491" fill="none" id="n11-to-n7" style="stroke:#181818;stroke-width:1;"/><polygon fill="#181818" points="464.3698,306.3735,456.5767,300.3512,459.5127,305.1865,454.6775,308.1225,464.3698,306.3735" style="stroke:#181818;stroke-width:1;"/></g><!--link n12 to n7--><g class="link" data-entity-1="n12" data-entity-2="n7" data-source-line="45" data-uid="lnk42" id="link_n12_n7"><path d="M270.1914,143.1502 C323.1473,180.6208 435.011,259.7734 488.0551,297.3064" fill="none" id="n12-to-n7" style="stroke:#181818;stroke-width:1;"/><polygon fill="#181818" points="492.953,300.7721,487.9166,292.3084,488.8714,297.8841,483.2957,298.8389,492.953,300.7721" style="stroke:#181818;stroke-width:1;"/></g><!--link n13 to n7--><g class="link" data-entity-1="n13" data-entity-2="n7" data-source-line="46" data-uid="lnk43" id="link_n13_n7"><path d="M467.1666,241.3616 C478.7373,258.5424 492.2006,278.5334 503.7631,295.702" fill="none" id="n13-to-n7" style="stroke:#181818;stroke-width:1;"/><polygon fill="#181818" points="507.1147,300.6786,505.4051,290.9793,504.3217,296.5314,498.7696,295.4481,507.1147,300.6786" style="stroke:#181818;stroke-width:1;"/></g><!--link n6 to n8--><g class="link" data-entity-1="n6" data-entity-2="n8" data-source-line="47" data-uid="lnk44" id="link_n6_n8"><path d="M658.2189,45.1502 C650.5718,82.6208 634.9108,159.3603 627.251,196.8933" fill="none" id="n6-to-n8" style="stroke:#181818;stroke-width:1;"/><polygon fill="#181818" points="626.0512,202.7721,631.7701,194.7537,627.051,197.8731,623.9316,193.154,626.0512,202.7721" style="stroke:#181818;stroke-width:1;"/></g><!--link n2 to n8--><g class="link" data-entity-1="n2" data-entity-2="n8" data-source-line="48" data-uid="lnk45" id="link_n2_n8"><path d="M419.8478,45.2506 C443.1619,68.9517 484.5145,110.104 522.1271,143 C546.6086,164.4115 571.1681,183.6543 591.7136,199.248" fill="none" id="n2-to-n8" style="stroke:#181818;stroke-width:1;"/><polygon fill="#181818" points="596.4929,202.8754,591.7422,194.2481,592.5101,199.8525,586.9057,200.6205,596.4929,202.8754" style="stroke:#181818;stroke-width:1;"/></g><!--link n4 to n8--><g class="link" data-entity-1="n4" data-entity-2="n8" data-source-line="49" data-uid="lnk46" id="link_n4_n8"><path d="M424.6561,143.0116 C471.1338,161.6027 535.436,187.3235 578.4021,204.51" fill="none" id="n4-to-n8" style="stroke:#181818;stroke-width:1;"/><polygon fill="#181818" points="583.973,206.7384,577.1023,199.682,579.3306,204.8814,574.1311,207.1098,583.973,206.7384" style="stroke:#181818;stroke-width:1;"/></g><!--SRC=[RP71Re9048RlFCN6taYqBg90OZpKgvUc3z1iOGGYpfBT8PQthqHt5h2tB_lz-MSOzfRw1Wx1_lq9zb9ZguowYX-LNqgZEooEkj56a55exmgG0WCvAImR48jM6mApgXP2MO6RL_MTQxJa0j4_0UfRS3uU-p1iDPalm6ALX-4Z8CNRgIuh-cWw66TpVMqDMEkAieaqVKlQARcUBa7cf4kMyLmEypyxw7X7AUUHeqQ2N_x8PEnlDHRwvbGwLZLovVHmL1bG1Sl9qImL1PoTsyvKZRp5Bi1OB9U7uQ_Wza5nW3kcQ4uom0rJmYGbO-OVOyPdTyRT6JTcREz7Tth0oAChYdrM-e3qWM7gwtCIOCgKCScrH-anyhXXVEwLyjIKszC_]--></g></svg>