<svg xmlns="http://www.w3.org/2000/svg" xmlns:xlink="http://www.w3.org/1999/xlink" contentStyleType="text/css" data-diagram-type="DESCRIPTION" height="630px" preserveAspectRatio="none" style="width:1805px;height:630px;" version="1.1" viewBox="0 0 1805 630" width="1805px" zoomAndPan="magnify"><defs/><g><!--entity n0--><g class="entity" data-entity="n0" data-source-line="5" data-uid="ent0002" id="entity_n0"><rect fill="#ADD8E6" height="37.7799" rx="2.5" ry="2.5" style="stroke:#181818;stroke-width:0.5;" width="49.7499" x="581.5" y="7"/><text fill="#000000" font-family="'Segoe UI', 'メイリオ', 'UDEV Gothic HSRFJPDOC', 'Hiragino Kaku Gothic ProN', 'ヒラギノ角ゴ ProN', 'Noto Sans JP', 'Helvetica Neue', Helvetica, Arial, sans-serif" font-size="14" font-weight="bold" lengthAdjust="spacing" textLength="29.7499" x="591.5" y="30.9999">main</text></g><!--entity n1--><g class="entity" data-entity="n1" data-source-line="6" data-uid="ent0003" id="entity_n1"><rect fill="#F1F1F1" height="37.7799" rx="2.5" ry="2.5" style="stroke:#181818;stroke-width:0.5;" width="68.9998" x="194" y="114"/><text fill="#000000" font-family="'Segoe UI', 'メイリオ', 'UDEV Gothic HSRFJPDOC', 'Hiragino Kaku Gothic ProN', 'ヒラギノ角ゴ ProN', 'Noto Sans JP', 'Helvetica Neue', Helvetica, Arial, sans-serif" font-size="14" lengthAdjust="spacing" textLength="48.9998" x="204" y="137.9999">on_recv</text></g><!--entity n2--><g class="entity" data-entity="n2" data-source-line="7" data-uid="ent0004" id="entity_n2"><rect fill="#F1F1F1" height="55.5598" rx="2.5" ry="2.5" style="stroke:#181818;stroke-width:0.5;" width="110.9996" x="298" y="105"/><text fill="#000000" font-family="'Segoe UI', 'メイリオ', 'UDEV Gothic HSRFJPDOC', 'Hiragino Kaku Gothic ProN', 'ヒラギノ角ゴ ProN', 'Noto Sans JP', 'Helvetica Neue', Helvetica, Arial, sans-serif" font-size="14" lengthAdjust="spacing" textLength="62.9997" x="308" y="128.9999">potrClose</text><text fill="#000000" font-family="'Segoe UI', 'メイリオ', 'UDEV Gothic HSRFJPDOC', 'Hiragino Kaku Gothic ProN', 'ヒラギノ角ゴ ProN', 'Noto Sans JP', 'Helvetica Neue', Helvetica, Arial, sans-serif" font-size="14" lengthAdjust="spacing" textLength="90.9996" x="308" y="146.7799">(potrClose.c)</text></g><!--entity n3--><g class="entity" data-entity="n3" data-source-line="8" data-uid="ent0005" id="entity_n3"><rect fill="#F1F1F1" height="55.5598" rx="2.5" ry="2.5" style="stroke:#181818;stroke-width:0.5;" width="152.9994" x="730" y="105"/><text fill="#000000" font-family="'Segoe UI', 'メイリオ', 'UDEV Gothic HSRFJPDOC', 'Hiragino Kaku Gothic ProN', 'ヒラギノ角ゴ ProN', 'Noto Sans JP', 'Helvetica Neue', Helvetica, Arial, sans-serif" font-size="14" lengthAdjust="spacing" textLength="104.9995" x="740" y="128.9999">potrOpenService</text><text fill="#000000" font-family="'Segoe UI', 'メイリオ', 'UDEV Gothic HSRFJPDOC', 'Hiragino Kaku Gothic ProN', 'ヒラギノ角ゴ ProN', 'Noto Sans JP', 'Helvetica Neue', Helvetica, Arial, sans-serif" font-size="14" lengthAdjust="spacing" textLength="132.9994" x="740" y="146.7799">(potrOpenService.c)</text></g><!--entity n4--><g class="entity" data-entity="n4" data-source-line="9" data-uid="ent0006" id="entity_n4"><rect fill="#F1F1F1" height="37.7799" rx="2.5" ry="2.5" style="stroke:#181818;stroke-width:0.5;" width="96.9997" x="918" y="114"/><text fill="#000000" font-family="'Segoe UI', 'メイリオ', 'UDEV Gothic HSRFJPDOC', 'Hiragino Kaku Gothic ProN', 'ヒラギノ角ゴ ProN', 'Noto Sans JP', 'Helvetica Neue', Helvetica, Arial, sans-serif" font-size="14" lengthAdjust="spacing" textLength="76.9997" x="928" y="137.9999">sig_handler</text></g><!--entity n5--><g class="entity" data-entity="n5" data-source-line="10" data-uid="ent0007" id="entity_n5"><rect fill="#F1F1F1" height="55.5598" rx="2.5" ry="2.5" style="stroke:#181818;stroke-width:0.5;" width="166.9994" x="7" y="221"/><text fill="#000000" font-family="'Segoe UI', 'メイリオ', 'UDEV Gothic HSRFJPDOC', 'Hiragino Kaku Gothic ProN', 'ヒラギノ角ゴ ProN', 'Noto Sans JP', 'Helvetica Neue', Helvetica, Arial, sans-serif" font-size="14" lengthAdjust="spacing" textLength="146.9994" x="17" y="244.9999">comm_recv_thread_stop</text><text fill="#000000" font-family="'Segoe UI', 'メイリオ', 'UDEV Gothic HSRFJPDOC', 'Hiragino Kaku Gothic ProN', 'ヒラギノ角ゴ ProN', 'Noto Sans JP', 'Helvetica Neue', Helvetica, Arial, sans-serif" font-size="14" lengthAdjust="spacing" textLength="125.9995" x="17" y="262.7799">(potrRecvThread.c)</text></g><!--entity n6--><g class="entity" data-entity="n6" data-source-line="11" data-uid="ent0008" id="entity_n6"><rect fill="#F1F1F1" height="55.5598" rx="2.5" ry="2.5" style="stroke:#181818;stroke-width:0.5;" width="124.9995" x="474" y="337"/><text fill="#000000" font-family="'Segoe UI', 'メイリオ', 'UDEV Gothic HSRFJPDOC', 'Hiragino Kaku Gothic ProN', 'ヒラギノ角ゴ ProN', 'Noto Sans JP', 'Helvetica Neue', Helvetica, Arial, sans-serif" font-size="14" lengthAdjust="spacing" textLength="104.9995" x="484" y="360.9999">parse_ipv4_addr</text><text fill="#000000" font-family="'Segoe UI', 'メイリオ', 'UDEV Gothic HSRFJPDOC', 'Hiragino Kaku Gothic ProN', 'ヒラギノ角ゴ ProN', 'Noto Sans JP', 'Helvetica Neue', Helvetica, Arial, sans-serif" font-size="14" lengthAdjust="spacing" textLength="97.9996" x="484" y="378.7799">(potrIpAddr.c)</text></g><!--entity n7--><g class="entity" data-entity="n7" data-source-line="12" data-uid="ent0009" id="entity_n7"><rect fill="#F1F1F1" height="55.5598" rx="2.5" ry="2.5" style="stroke:#181818;stroke-width:0.5;" width="173.9993" x="1165.5" y="221"/><text fill="#000000" font-family="'Segoe UI', 'メイリオ', 'UDEV Gothic HSRFJPDOC', 'Hiragino Kaku Gothic ProN', 'ヒラギノ角ゴ ProN', 'Noto Sans JP', 'Helvetica Neue', Helvetica, Arial, sans-serif" font-size="14" lengthAdjust="spacing" textLength="153.9993" x="1175.5" y="244.9999">comm_recv_thread_start</text><text fill="#000000" font-family="'Segoe UI', 'メイリオ', 'UDEV Gothic HSRFJPDOC', 'Hiragino Kaku Gothic ProN', 'ヒラギノ角ゴ ProN', 'Noto Sans JP', 'Helvetica Neue', Helvetica, Arial, sans-serif" font-size="14" lengthAdjust="spacing" textLength="125.9995" x="1175.5" y="262.7799">(potrRecvThread.c)</text></g><!--entity n8--><g class="entity" data-entity="n8" data-source-line="13" data-uid="ent0010" id="entity_n8"><rect fill="#F1F1F1" height="55.5598" rx="2.5" ry="2.5" style="stroke:#181818;stroke-width:0.5;" width="145.9995" x="1594.5" y="221"/><text fill="#000000" font-family="'Segoe UI', 'メイリオ', 'UDEV Gothic HSRFJPDOC', 'Hiragino Kaku Gothic ProN', 'ヒラギノ角ゴ ProN', 'Noto Sans JP', 'Helvetica Neue', Helvetica, Arial, sans-serif" font-size="14" lengthAdjust="spacing" textLength="125.9995" x="1604.5" y="244.9999">config_load_global</text><text fill="#000000" font-family="'Segoe UI', 'メイリオ', 'UDEV Gothic HSRFJPDOC', 'Hiragino Kaku Gothic ProN', 'ヒラギノ角ゴ ProN', 'Noto Sans JP', 'Helvetica Neue', Helvetica, Arial, sans-serif" font-size="14" lengthAdjust="spacing" textLength="69.9997" x="1604.5" y="262.7799">(config.c)</text></g><!--entity n9--><g class="entity" data-entity="n9" data-source-line="14" data-uid="ent0011" id="entity_n9"><rect fill="#F1F1F1" height="55.5598" rx="2.5" ry="2.5" style="stroke:#181818;stroke-width:0.5;" width="152.9994" x="1375" y="221"/><text fill="#000000" font-family="'Segoe UI', 'メイリオ', 'UDEV Gothic HSRFJPDOC', 'Hiragino Kaku Gothic ProN', 'ヒラギノ角ゴ ProN', 'Noto Sans JP', 'Helvetica Neue', Helvetica, Arial, sans-serif" font-size="14" lengthAdjust="spacing" textLength="132.9994" x="1385" y="244.9999">config_load_service</text><text fill="#000000" font-family="'Segoe UI', 'メイリオ', 'UDEV Gothic HSRFJPDOC', 'Hiragino Kaku Gothic ProN', 'ヒラギノ角ゴ ProN', 'Noto Sans JP', 'Helvetica Neue', Helvetica, Arial, sans-serif" font-size="14" lengthAdjust="spacing" textLength="69.9997" x="1385" y="262.7799">(config.c)</text></g><!--entity n10--><g class="entity" data-entity="n10" data-source-line="15" data-uid="ent0012" id="entity_n10"><rect fill="#F1F1F1" height="55.5598" rx="2.5" ry="2.5" style="stroke:#181818;stroke-width:0.5;" width="166.9994" x="281" y="221"/><text fill="#000000" font-family="'Segoe UI', 'メイリオ', 'UDEV Gothic HSRFJPDOC', 'Hiragino Kaku Gothic ProN', 'ヒラギノ角ゴ ProN', 'Noto Sans JP', 'Helvetica Neue', Helvetica, Arial, sans-serif" font-size="14" lengthAdjust="spacing" textLength="146.9994" x="291" y="244.9999">open_socket_broadcast</text><text fill="#000000" font-family="'Segoe UI', 'メイリオ', 'UDEV Gothic HSRFJPDOC', 'Hiragino Kaku Gothic ProN', 'ヒラギノ角ゴ ProN', 'Noto Sans JP', 'Helvetica Neue', Helvetica, Arial, sans-serif" font-size="14" lengthAdjust="spacing" textLength="132.9994" x="291" y="262.7799">(potrOpenService.c)</text></g><!--entity n11--><g class="entity" data-entity="n11" data-source-line="16" data-uid="ent0013" id="entity_n11"><rect fill="#F1F1F1" height="55.5598" rx="2.5" ry="2.5" style="stroke:#181818;stroke-width:0.5;" width="166.9994" x="963" y="221"/><text fill="#000000" font-family="'Segoe UI', 'メイリオ', 'UDEV Gothic HSRFJPDOC', 'Hiragino Kaku Gothic ProN', 'ヒラギノ角ゴ ProN', 'Noto Sans JP', 'Helvetica Neue', Helvetica, Arial, sans-serif" font-size="14" lengthAdjust="spacing" textLength="146.9994" x="973" y="244.9999">open_socket_multicast</text><text fill="#000000" font-family="'Segoe UI', 'メイリオ', 'UDEV Gothic HSRFJPDOC', 'Hiragino Kaku Gothic ProN', 'ヒラギノ角ゴ ProN', 'Noto Sans JP', 'Helvetica Neue', Helvetica, Arial, sans-serif" font-size="14" lengthAdjust="spacing" textLength="132.9994" x="973" y="262.7799">(potrOpenService.c)</text></g><!--entity n12--><g class="entity" data-entity="n12" data-source-line="17" data-uid="ent0014" id="entity_n12"><rect fill="#F1F1F1" height="55.5598" rx="2.5" ry="2.5" style="stroke:#181818;stroke-width:0.5;" width="152.9994" x="483" y="221"/><text fill="#000000" font-family="'Segoe UI', 'メイリオ', 'UDEV Gothic HSRFJPDOC', 'Hiragino Kaku Gothic ProN', 'ヒラギノ角ゴ ProN', 'Noto Sans JP', 'Helvetica Neue', Helvetica, Arial, sans-serif" font-size="14" lengthAdjust="spacing" textLength="132.9994" x="493" y="244.9999">open_socket_unicast</text><text fill="#000000" font-family="'Segoe UI', 'メイリオ', 'UDEV Gothic HSRFJPDOC', 'Hiragino Kaku Gothic ProN', 'ヒラギノ角ゴ ProN', 'Noto Sans JP', 'Helvetica Neue', Helvetica, Arial, sans-serif" font-size="14" lengthAdjust="spacing" textLength="132.9994" x="493" y="262.7799">(potrOpenService.c)</text></g><!--entity n13--><g class="entity" data-entity="n13" data-source-line="18" data-uid="ent0015" id="entity_n13"><rect fill="#F1F1F1" height="55.5598" rx="2.5" ry="2.5" style="stroke:#181818;stroke-width:0.5;" width="124.9995" x="671" y="221"/><text fill="#000000" font-family="'Segoe UI', 'メイリオ', 'UDEV Gothic HSRFJPDOC', 'Hiragino Kaku Gothic ProN', 'ヒラギノ角ゴ ProN', 'Noto Sans JP', 'Helvetica Neue', Helvetica, Arial, sans-serif" font-size="14" lengthAdjust="spacing" textLength="104.9995" x="681" y="244.9999">retransmit_init</text><text fill="#000000" font-family="'Segoe UI', 'メイリオ', 'UDEV Gothic HSRFJPDOC', 'Hiragino Kaku Gothic ProN', 'ヒラギノ角ゴ ProN', 'Noto Sans JP', 'Helvetica Neue', Helvetica, Arial, sans-serif" font-size="14" lengthAdjust="spacing" textLength="97.9996" x="681" y="262.7799">(retransmit.c)</text></g><!--entity n14--><g class="entity" data-entity="n14" data-source-line="19" data-uid="ent0016" id="entity_n14"><rect fill="#F1F1F1" height="55.5598" rx="2.5" ry="2.5" style="stroke:#181818;stroke-width:0.5;" width="96.9997" x="831" y="221"/><text fill="#000000" font-family="'Segoe UI', 'メイリオ', 'UDEV Gothic HSRFJPDOC', 'Hiragino Kaku Gothic ProN', 'ヒラギノ角ゴ ProN', 'Noto Sans JP', 'Helvetica Neue', Helvetica, Arial, sans-serif" font-size="14" lengthAdjust="spacing" textLength="76.9997" x="841" y="244.9999">window_init</text><text fill="#000000" font-family="'Segoe UI', 'メイリオ', 'UDEV Gothic HSRFJPDOC', 'Hiragino Kaku Gothic ProN', 'ヒラギノ角ゴ ProN', 'Noto Sans JP', 'Helvetica Neue', Helvetica, Arial, sans-serif" font-size="14" lengthAdjust="spacing" textLength="69.9997" x="841" y="262.7799">(window.c)</text></g><!--entity n15--><g class="entity" data-entity="n15" data-source-line="20" data-uid="ent0017" id="entity_n15"><rect fill="#F1F1F1" height="37.7799" rx="2.5" ry="2.5" style="stroke:#181818;stroke-width:0.5;" width="131.9995" x="770.5" y="346"/><text fill="#000000" font-family="'Segoe UI', 'メイリオ', 'UDEV Gothic HSRFJPDOC', 'Hiragino Kaku Gothic ProN', 'ヒラギノ角ゴ ProN', 'Noto Sans JP', 'Helvetica Neue', Helvetica, Arial, sans-serif" font-size="14" lengthAdjust="spacing" textLength="111.9995" x="780.5" y="369.9999">recv_thread_func</text></g><!--entity n16--><g class="entity" data-entity="n16" data-source-line="21" data-uid="ent0018" id="entity_n16"><rect fill="#F1F1F1" height="37.7799" rx="2.5" ry="2.5" style="stroke:#181818;stroke-width:0.5;" width="166.9994" x="1600" y="346"/><text fill="#000000" font-family="'Segoe UI', 'メイリオ', 'UDEV Gothic HSRFJPDOC', 'Hiragino Kaku Gothic ProN', 'ヒラギノ角ゴ ProN', 'Noto Sans JP', 'Helvetica Neue', Helvetica, Arial, sans-serif" font-size="14" lengthAdjust="spacing" textLength="146.9994" x="1610" y="369.9999">open_config_file_read</text></g><!--entity n17--><g class="entity" data-entity="n17" data-source-line="22" data-uid="ent0019" id="entity_n17"><rect fill="#F1F1F1" height="37.7799" rx="2.5" ry="2.5" style="stroke:#181818;stroke-width:0.5;" width="75.9998" x="1488.5" y="346"/><text fill="#000000" font-family="'Segoe UI', 'メイリオ', 'UDEV Gothic HSRFJPDOC', 'Hiragino Kaku Gothic ProN', 'ヒラギノ角ゴ ProN', 'Noto Sans JP', 'Helvetica Neue', Helvetica, Arial, sans-serif" font-size="14" lengthAdjust="spacing" textLength="55.9998" x="1498.5" y="369.9999">parse_kv</text></g><!--entity n18--><g class="entity" data-entity="n18" data-source-line="23" data-uid="ent0020" id="entity_n18"><rect fill="#F1F1F1" height="37.7799" rx="2.5" ry="2.5" style="stroke:#181818;stroke-width:0.5;" width="47.9999" x="1502.5" y="462"/><text fill="#000000" font-family="'Segoe UI', 'メイリオ', 'UDEV Gothic HSRFJPDOC', 'Hiragino Kaku Gothic ProN', 'ヒラギノ角ゴ ProN', 'Noto Sans JP', 'Helvetica Neue', Helvetica, Arial, sans-serif" font-size="14" lengthAdjust="spacing" textLength="27.9999" x="1512.5" y="485.9999">trim</text></g><!--entity n19--><g class="entity" data-entity="n19" data-source-line="24" data-uid="ent0021" id="entity_n19"><rect fill="#F1F1F1" height="37.7799" rx="2.5" ry="2.5" style="stroke:#181818;stroke-width:0.5;" width="131.9995" x="1250.5" y="346"/><text fill="#000000" font-family="'Segoe UI', 'メイリオ', 'UDEV Gothic HSRFJPDOC', 'Hiragino Kaku Gothic ProN', 'ヒラギノ角ゴ ProN', 'Noto Sans JP', 'Helvetica Neue', Helvetica, Arial, sans-serif" font-size="14" lengthAdjust="spacing" textLength="111.9995" x="1260.5" y="369.9999">apply_service_kv</text></g><!--entity n20--><g class="entity" data-entity="n20" data-source-line="25" data-uid="ent0022" id="entity_n20"><rect fill="#F1F1F1" height="55.5598" rx="2.5" ry="2.5" style="stroke:#181818;stroke-width:0.5;" width="103.9996" x="1019.5" y="453"/><text fill="#000000" font-family="'Segoe UI', 'メイリオ', 'UDEV Gothic HSRFJPDOC', 'Hiragino Kaku Gothic ProN', 'ヒラギノ角ゴ ProN', 'Noto Sans JP', 'Helvetica Neue', Helvetica, Arial, sans-serif" font-size="14" lengthAdjust="spacing" textLength="83.9996" x="1029.5" y="476.9999">packet_parse</text><text fill="#000000" font-family="'Segoe UI', 'メイリオ', 'UDEV Gothic HSRFJPDOC', 'Hiragino Kaku Gothic ProN', 'ヒラギノ角ゴ ProN', 'Noto Sans JP', 'Helvetica Neue', Helvetica, Arial, sans-serif" font-size="14" lengthAdjust="spacing" textLength="69.9997" x="1029.5" y="494.7799">(packet.c)</text></g><!--entity n21--><g class="entity" data-entity="n21" data-source-line="26" data-uid="ent0023" id="entity_n21"><rect fill="#F1F1F1" height="37.7799" rx="2.5" ry="2.5" style="stroke:#181818;stroke-width:0.5;" width="103.9996" x="1158.5" y="462"/><text fill="#000000" font-family="'Segoe UI', 'メイリオ', 'UDEV Gothic HSRFJPDOC', 'Hiragino Kaku Gothic ProN', 'ヒラギノ角ゴ ProN', 'Noto Sans JP', 'Helvetica Neue', Helvetica, Arial, sans-serif" font-size="14" lengthAdjust="spacing" textLength="83.9996" x="1168.5" y="485.9999">recv_deliver</text></g><!--entity n22--><g class="entity" data-entity="n22" data-source-line="27" data-uid="ent0024" id="entity_n22"><rect fill="#F1F1F1" height="37.7799" rx="2.5" ry="2.5" style="stroke:#181818;stroke-width:0.5;" width="82.9997" x="204" y="462"/><text fill="#000000" font-family="'Segoe UI', 'メイリオ', 'UDEV Gothic HSRFJPDOC', 'Hiragino Kaku Gothic ProN', 'ヒラギノ角ゴ ProN', 'Noto Sans JP', 'Helvetica Neue', Helvetica, Arial, sans-serif" font-size="14" lengthAdjust="spacing" textLength="62.9997" x="214" y="485.9999">send_nack</text></g><!--entity n23--><g class="entity" data-entity="n23" data-source-line="28" data-uid="ent0025" id="entity_n23"><rect fill="#F1F1F1" height="55.5598" rx="2.5" ry="2.5" style="stroke:#181818;stroke-width:0.5;" width="173.9993" x="322.5" y="453"/><text fill="#000000" font-family="'Segoe UI', 'メイリオ', 'UDEV Gothic HSRFJPDOC', 'Hiragino Kaku Gothic ProN', 'ヒラギノ角ゴ ProN', 'Noto Sans JP', 'Helvetica Neue', Helvetica, Arial, sans-serif" font-size="14" lengthAdjust="spacing" textLength="153.9993" x="332.5" y="476.9999">window_recv_needs_nack</text><text fill="#000000" font-family="'Segoe UI', 'メイリオ', 'UDEV Gothic HSRFJPDOC', 'Hiragino Kaku Gothic ProN', 'ヒラギノ角ゴ ProN', 'Noto Sans JP', 'Helvetica Neue', Helvetica, Arial, sans-serif" font-size="14" lengthAdjust="spacing" textLength="69.9997" x="332.5" y="494.7799">(window.c)</text></g><!--entity n24--><g class="entity" data-entity="n24" data-source-line="29" data-uid="ent0026" id="entity_n24"><rect fill="#F1F1F1" height="55.5598" rx="2.5" ry="2.5" style="stroke:#181818;stroke-width:0.5;" width="124.9995" x="532" y="453"/><text fill="#000000" font-family="'Segoe UI', 'メイリオ', 'UDEV Gothic HSRFJPDOC', 'Hiragino Kaku Gothic ProN', 'ヒラギノ角ゴ ProN', 'Noto Sans JP', 'Helvetica Neue', Helvetica, Arial, sans-serif" font-size="14" lengthAdjust="spacing" textLength="104.9995" x="542" y="476.9999">window_recv_pop</text><text fill="#000000" font-family="'Segoe UI', 'メイリオ', 'UDEV Gothic HSRFJPDOC', 'Hiragino Kaku Gothic ProN', 'ヒラギノ角ゴ ProN', 'Noto Sans JP', 'Helvetica Neue', Helvetica, Arial, sans-serif" font-size="14" lengthAdjust="spacing" textLength="69.9997" x="542" y="494.7799">(window.c)</text></g><!--entity n25--><g class="entity" data-entity="n25" data-source-line="30" data-uid="ent0027" id="entity_n25"><rect fill="#F1F1F1" height="55.5598" rx="2.5" ry="2.5" style="stroke:#181818;stroke-width:0.5;" width="131.9995" x="852.5" y="453"/><text fill="#000000" font-family="'Segoe UI', 'メイリオ', 'UDEV Gothic HSRFJPDOC', 'Hiragino Kaku Gothic ProN', 'ヒラギノ角ゴ ProN', 'Noto Sans JP', 'Helvetica Neue', Helvetica, Arial, sans-serif" font-size="14" lengthAdjust="spacing" textLength="111.9995" x="862.5" y="476.9999">window_recv_push</text><text fill="#000000" font-family="'Segoe UI', 'メイリオ', 'UDEV Gothic HSRFJPDOC', 'Hiragino Kaku Gothic ProN', 'ヒラギノ角ゴ ProN', 'Noto Sans JP', 'Helvetica Neue', Helvetica, Arial, sans-serif" font-size="14" lengthAdjust="spacing" textLength="69.9997" x="862.5" y="494.7799">(window.c)</text></g><!--entity n26--><g class="entity" data-entity="n26" data-source-line="31" data-uid="ent0028" id="entity_n26"><rect fill="#F1F1F1" height="55.5598" rx="2.5" ry="2.5" style="stroke:#181818;stroke-width:0.5;" width="124.9995" x="692" y="453"/><text fill="#000000" font-family="'Segoe UI', 'メイリオ', 'UDEV Gothic HSRFJPDOC', 'Hiragino Kaku Gothic ProN', 'ヒラギノ角ゴ ProN', 'Noto Sans JP', 'Helvetica Neue', Helvetica, Arial, sans-serif" font-size="14" lengthAdjust="spacing" textLength="104.9995" x="702" y="476.9999">window_send_ack</text><text fill="#000000" font-family="'Segoe UI', 'メイリオ', 'UDEV Gothic HSRFJPDOC', 'Hiragino Kaku Gothic ProN', 'ヒラギノ角ゴ ProN', 'Noto Sans JP', 'Helvetica Neue', Helvetica, Arial, sans-serif" font-size="14" lengthAdjust="spacing" textLength="69.9997" x="702" y="494.7799">(window.c)</text></g><!--entity n27--><g class="entity" data-entity="n27" data-source-line="32" data-uid="ent0029" id="entity_n27"><rect fill="#F1F1F1" height="37.7799" rx="2.5" ry="2.5" style="stroke:#181818;stroke-width:0.5;" width="124.9995" x="1298" y="462"/><text fill="#000000" font-family="'Segoe UI', 'メイリオ', 'UDEV Gothic HSRFJPDOC', 'Hiragino Kaku Gothic ProN', 'ヒラギノ角ゴ ProN', 'Noto Sans JP', 'Helvetica Neue', Helvetica, Arial, sans-serif" font-size="14" lengthAdjust="spacing" textLength="104.9995" x="1308" y="485.9999">copy_cstr_trunc</text></g><!--entity n28--><g class="entity" data-entity="n28" data-source-line="33" data-uid="ent0030" id="entity_n28"><rect fill="#F1F1F1" height="55.5598" rx="2.5" ry="2.5" style="stroke:#181818;stroke-width:0.5;" width="145.9995" x="1137.5" y="569"/><text fill="#000000" font-family="'Segoe UI', 'メイリオ', 'UDEV Gothic HSRFJPDOC', 'Hiragino Kaku Gothic ProN', 'ヒラギノ角ゴ ProN', 'Noto Sans JP', 'Helvetica Neue', Helvetica, Arial, sans-serif" font-size="14" lengthAdjust="spacing" textLength="104.9995" x="1147.5" y="592.9999">potr_decompress</text><text fill="#000000" font-family="'Segoe UI', 'メイリオ', 'UDEV Gothic HSRFJPDOC', 'Hiragino Kaku Gothic ProN', 'ヒラギノ角ゴ ProN', 'Noto Sans JP', 'Helvetica Neue', Helvetica, Arial, sans-serif" font-size="14" lengthAdjust="spacing" textLength="125.9995" x="1147.5" y="610.7799">(compress_linux.c)</text></g><!--entity n29--><g class="entity" data-entity="n29" data-source-line="34" data-uid="ent0031" id="entity_n29"><rect fill="#F1F1F1" height="55.5598" rx="2.5" ry="2.5" style="stroke:#181818;stroke-width:0.5;" width="138.9995" x="176" y="569"/><text fill="#000000" font-family="'Segoe UI', 'メイリオ', 'UDEV Gothic HSRFJPDOC', 'Hiragino Kaku Gothic ProN', 'ヒラギノ角ゴ ProN', 'Noto Sans JP', 'Helvetica Neue', Helvetica, Arial, sans-serif" font-size="14" lengthAdjust="spacing" textLength="118.9995" x="186" y="592.9999">packet_build_nack</text><text fill="#000000" font-family="'Segoe UI', 'メイリオ', 'UDEV Gothic HSRFJPDOC', 'Hiragino Kaku Gothic ProN', 'ヒラギノ角ゴ ProN', 'Noto Sans JP', 'Helvetica Neue', Helvetica, Arial, sans-serif" font-size="14" lengthAdjust="spacing" textLength="69.9997" x="186" y="610.7799">(packet.c)</text></g><!--entity n30--><g class="entity" data-entity="n30" data-source-line="35" data-uid="ent0032" id="entity_n30"><rect fill="#F1F1F1" height="37.7799" rx="2.5" ry="2.5" style="stroke:#181818;stroke-width:0.5;" width="82.9997" x="561" y="578"/><text fill="#000000" font-family="'Segoe UI', 'メイリオ', 'UDEV Gothic HSRFJPDOC', 'Hiragino Kaku Gothic ProN', 'ヒラギノ角ゴ ProN', 'Noto Sans JP', 'Helvetica Neue', Helvetica, Arial, sans-serif" font-size="14" lengthAdjust="spacing" textLength="62.9997" x="571" y="601.9999">win_index</text></g><!--entity n31--><g class="entity" data-entity="n31" data-source-line="36" data-uid="ent0033" id="entity_n31"><rect fill="#F1F1F1" height="55.5598" rx="2.5" ry="2.5" style="stroke:#181818;stroke-width:0.5;" width="131.9995" x="770.5" y="569"/><text fill="#000000" font-family="'Segoe UI', 'メイリオ', 'UDEV Gothic HSRFJPDOC', 'Hiragino Kaku Gothic ProN', 'ヒラギノ角ゴ ProN', 'Noto Sans JP', 'Helvetica Neue', Helvetica, Arial, sans-serif" font-size="14" lengthAdjust="spacing" textLength="111.9995" x="780.5" y="592.9999">seqnum_in_window</text><text fill="#000000" font-family="'Segoe UI', 'メイリオ', 'UDEV Gothic HSRFJPDOC', 'Hiragino Kaku Gothic ProN', 'ヒラギノ角ゴ ProN', 'Noto Sans JP', 'Helvetica Neue', Helvetica, Arial, sans-serif" font-size="14" lengthAdjust="spacing" textLength="69.9997" x="780.5" y="610.7799">(seqnum.c)</text></g><!--link n0 to n1--><g class="link" data-entity-1="n0" data-entity-2="n1" data-source-line="37" data-uid="lnk34" id="link_n0_n1"><path d="M581.307,29.8395 C525.6811,38.8016 388.7191,63.5423 280.5,105 C273.9891,107.4943 272.603,107.893 266.243,111.1667" fill="none" id="n0-to-n1" style="stroke:#181818;stroke-width:1;"/><polygon fill="#181818" points="260.9082,113.9127,270.741,113.3502,265.3538,111.6244,267.0797,106.2372,260.9082,113.9127" style="stroke:#181818;stroke-width:1;"/></g><!--link n0 to n2--><g class="link" data-entity-1="n0" data-entity-2="n2" data-source-line="38" data-uid="lnk35" id="link_n0_n2"><path d="M581.3164,36.6508 C541.4456,53.5131 468.3482,84.4279 414.7388,107.1006" fill="none" id="n0-to-n2" style="stroke:#181818;stroke-width:1;"/><polygon fill="#181818" points="409.2127,109.4377,419.0599,109.6161,413.8178,107.4901,415.9438,102.2479,409.2127,109.4377" style="stroke:#181818;stroke-width:1;"/></g><!--link n0 to n3--><g class="link" data-entity-1="n0" data-entity-2="n3" data-source-line="39" data-uid="lnk36" id="link_n0_n3"><path d="M631.8301,39.5516 C662.4176,55.9159 709.3693,81.0351 748.7701,102.1145" fill="none" id="n0-to-n3" style="stroke:#181818;stroke-width:1;"/><polygon fill="#181818" points="754.0606,104.9449,748.0118,97.1723,749.6519,102.5862,744.238,104.2263,754.0606,104.9449" style="stroke:#181818;stroke-width:1;"/></g><!--link n0 to n4--><g class="link" data-entity-1="n0" data-entity-2="n4" data-source-line="40" data-uid="lnk37" id="link_n0_n4"><path d="M631.6315,31.5106 C682.8678,43.0158 802.8118,71.3354 900.5,105 C908.149,107.6359 910.6175,108.4613 918.3265,111.6235" fill="none" id="n0-to-n4" style="stroke:#181818;stroke-width:1;"/><polygon fill="#181818" points="923.8776,113.9006,917.0689,106.7843,919.2517,112.0031,914.0329,114.1858,923.8776,113.9006" style="stroke:#181818;stroke-width:1;"/></g><!--link n2 to n5--><g class="link" data-entity-1="n2" data-entity-2="n5" data-source-line="41" data-uid="lnk38" id="link_n2_n5"><path d="M297.7245,157.6006 C255.6558,176.1556 203.3919,199.2074 159.5394,218.5492" fill="none" id="n2-to-n5" style="stroke:#181818;stroke-width:1;"/><polygon fill="#181818" points="154.0497,220.9705,163.8985,220.9983,158.6245,218.9527,160.6701,213.6787,154.0497,220.9705" style="stroke:#181818;stroke-width:1;"/></g><!--link n2 to n6--><g class="link" data-entity-1="n2" data-entity-2="n6" data-source-line="42" data-uid="lnk39" id="link_n2_n6"><path d="M314.9658,161.0984 C279.1612,190.6913 235.2959,238.2753 263.5,277 C288.4928,311.3155 395.4094,337.77 467.9671,352.4056" fill="none" id="n2-to-n6" style="stroke:#181818;stroke-width:1;"/><polygon fill="#181818" points="473.8486,353.592,465.8172,347.8914,468.9473,352.6034,464.2354,355.7335,473.8486,353.592" style="stroke:#181818;stroke-width:1;"/></g><!--link n3 to n7--><g class="link" data-entity-1="n3" data-entity-2="n7" data-source-line="43" data-uid="lnk40" id="link_n3_n7"><path d="M883.1014,156.1699 C888.9788,157.8397 894.8287,159.4676 900.5,161 C1009.5592,190.4682 1038.0264,193.1108 1147.5,221 C1153.3503,222.4904 1153.5723,222.5338 1159.6428,224.1145" fill="none" id="n3-to-n7" style="stroke:#181818;stroke-width:1;"/><polygon fill="#181818" points="1165.4492,225.6264,1157.7476,219.4876,1160.6105,224.3665,1155.7317,227.2294,1165.4492,225.6264" style="stroke:#181818;stroke-width:1;"/></g><!--link n3 to n8--><g class="link" data-entity-1="n3" data-entity-2="n8" data-source-line="44" data-uid="lnk41" id="link_n3_n8"><path d="M883.1426,157.1682 C888.9835,158.5986 894.8159,159.9002 900.5,161 C1183.1616,215.6927 1261.2354,175.365 1545.5,221 C1561.3778,223.549 1572.4141,225.6577 1588.4079,229.225" fill="none" id="n3-to-n8" style="stroke:#181818;stroke-width:1;"/><polygon fill="#181818" points="1594.264,230.5312,1586.3506,224.6679,1589.3839,229.4427,1584.6091,232.476,1594.264,230.5312" style="stroke:#181818;stroke-width:1;"/></g><!--link n3 to n9--><g class="link" data-entity-1="n3" data-entity-2="n9" data-source-line="45" data-uid="lnk42" id="link_n3_n9"><path d="M883.1921,156.9246 C889.0216,158.4113 894.8379,159.7922 900.5,161 C1100.4157,203.6451 1156.5231,178.643 1356.5,221 C1362.4716,222.2648 1362.7988,222.2389 1368.9495,223.8027" fill="none" id="n3-to-n9" style="stroke:#181818;stroke-width:1;"/><polygon fill="#181818" points="1374.7645,225.2811,1367.0276,219.1868,1369.9187,224.0491,1365.0564,226.9401,1374.7645,225.2811" style="stroke:#181818;stroke-width:1;"/></g><!--link n3 to n10--><g class="link" data-entity-1="n3" data-entity-2="n10" data-source-line="46" data-uid="lnk43" id="link_n3_n10"><path d="M729.8784,152.3565 C660.6997,169.9319 556.1608,196.7371 465.5,221 C459.8752,222.5053 459.8679,222.4961 454.0301,224.085" fill="none" id="n3-to-n10" style="stroke:#181818;stroke-width:1;"/><polygon fill="#181818" points="448.2407,225.6607,457.9753,227.1567,453.0652,224.3476,455.8743,219.4375,448.2407,225.6607" style="stroke:#181818;stroke-width:1;"/></g><!--link n3 to n11--><g class="link" data-entity-1="n3" data-entity-2="n11" data-source-line="47" data-uid="lnk44" id="link_n3_n11"><path d="M864.5973,161.0804 C902.1926,179.2514 945.5486,200.2068 983.1202,218.3664" fill="none" id="n3-to-n11" style="stroke:#181818;stroke-width:1;"/><polygon fill="#181818" points="988.5223,220.9774,982.1598,213.4595,984.0206,218.8016,978.6785,220.6623,988.5223,220.9774" style="stroke:#181818;stroke-width:1;"/></g><!--link n3 to n12--><g class="link" data-entity-1="n3" data-entity-2="n12" data-source-line="48" data-uid="lnk45" id="link_n3_n12"><path d="M746.7082,161.0804 C708.0164,179.2514 663.2671,200.2673 624.5997,218.4269" fill="none" id="n3-to-n12" style="stroke:#181818;stroke-width:1;"/><polygon fill="#181818" points="619.1688,220.9774,629.0155,220.7722,623.6946,218.8519,625.6148,213.531,619.1688,220.9774" style="stroke:#181818;stroke-width:1;"/></g><!--link n3 to n13--><g class="link" data-entity-1="n3" data-entity-2="n13" data-source-line="49" data-uid="lnk46" id="link_n3_n13"><path d="M788.8287,161.0804 C777.4357,179.1844 765.868,197.5659 754.4572,215.6981" fill="none" id="n3-to-n13" style="stroke:#181818;stroke-width:1;"/><polygon fill="#181818" points="751.2615,220.7762,759.4405,215.2895,753.9246,216.5444,752.6697,211.0285,751.2615,220.7762" style="stroke:#181818;stroke-width:1;"/></g><!--link n3 to n14--><g class="link" data-entity-1="n3" data-entity-2="n14" data-source-line="50" data-uid="lnk47" id="link_n3_n14"><path d="M824.1713,161.0804 C835.5643,179.1844 847.132,197.5659 858.5428,215.6981" fill="none" id="n3-to-n14" style="stroke:#181818;stroke-width:1;"/><polygon fill="#181818" points="861.7385,220.7762,860.3303,211.0285,859.0754,216.5444,853.5595,215.2895,861.7385,220.7762" style="stroke:#181818;stroke-width:1;"/></g><!--link n7 to n15--><g class="link" data-entity-1="n7" data-entity-2="n15" data-source-line="51" data-uid="lnk48" id="link_n7_n15"><path d="M1165.2928,273.3174 C1087.0273,295.1414 979.6234,325.0906 908.5471,344.9099" fill="none" id="n7-to-n15" style="stroke:#181818;stroke-width:1;"/><polygon fill="#181818" points="902.7676,346.5215,912.5113,347.9571,907.5839,345.1785,910.3625,340.2511,902.7676,346.5215" style="stroke:#181818;stroke-width:1;"/></g><!--link n8 to n16--><g class="link" data-entity-1="n8" data-entity-2="n16" data-source-line="52" data-uid="lnk49" id="link_n8_n16"><path d="M1671.3732,277.0804 C1674.3142,298.4028 1677.4601,321.2108 1680.0432,339.9378" fill="none" id="n8-to-n16" style="stroke:#181818;stroke-width:1;"/><polygon fill="#181818" points="1680.863,345.8815,1683.5957,336.4194,1680.1798,340.9284,1675.6708,337.5125,1680.863,345.8815" style="stroke:#181818;stroke-width:1;"/></g><!--link n8 to n17--><g class="link" data-entity-1="n8" data-entity-2="n17" data-source-line="53" data-uid="lnk50" id="link_n8_n17"><path d="M1633.3678,277.0804 C1607.45,298.4028 1577.1354,323.3426 1554.3723,342.0696" fill="none" id="n8-to-n17" style="stroke:#181818;stroke-width:1;"/><polygon fill="#181818" points="1549.7388,345.8815,1559.2303,343.2526,1553.6,342.7049,1554.1477,337.0746,1549.7388,345.8815" style="stroke:#181818;stroke-width:1;"/></g><!--link n8 to n18--><g class="link" data-entity-1="n8" data-entity-2="n18" data-source-line="54" data-uid="lnk51" id="link_n8_n18"><path d="M1724.8439,277.0304 C1747.803,291.5024 1771.7867,311.5299 1784.5,337 C1795.6154,359.2689 1798.9824,372.7586 1784.5,393 C1756.4113,432.2583 1615.1421,463.6636 1556.5193,475.2759" fill="none" id="n8-to-n18" style="stroke:#181818;stroke-width:1;"/><polygon fill="#181818" points="1550.6337,476.4418,1560.2394,478.6168,1555.5384,475.4703,1558.6849,470.7693,1550.6337,476.4418" style="stroke:#181818;stroke-width:1;"/></g><!--link n9 to n19--><g class="link" data-entity-1="n9" data-entity-2="n19" data-source-line="55" data-uid="lnk52" id="link_n9_n19"><path d="M1418.8203,277.0804 C1394.0053,298.4028 1365.0952,323.2442 1343.3007,341.9712" fill="none" id="n9-to-n19" style="stroke:#181818;stroke-width:1;"/><polygon fill="#181818" points="1338.7499,345.8815,1348.1829,343.0499,1342.5422,342.6229,1342.9692,336.9822,1338.7499,345.8815" style="stroke:#181818;stroke-width:1;"/></g><!--link n9 to n16--><g class="link" data-entity-1="n9" data-entity-2="n16" data-source-line="56" data-uid="lnk53" id="link_n9_n16"><path d="M1507.6607,277.0804 C1550.3057,298.4028 1602.4423,324.4712 1639.8964,343.1982" fill="none" id="n9-to-n16" style="stroke:#181818;stroke-width:1;"/><polygon fill="#181818" points="1645.263,345.8815,1639.002,338.2789,1640.7909,343.6454,1635.4243,345.4343,1645.263,345.8815" style="stroke:#181818;stroke-width:1;"/></g><!--link n9 to n17--><g class="link" data-entity-1="n9" data-entity-2="n17" data-source-line="57" data-uid="lnk54" id="link_n9_n17"><path d="M1469.6554,277.0804 C1483.4415,298.4028 1498.7732,322.1159 1510.8812,340.8429" fill="none" id="n9-to-n17" style="stroke:#181818;stroke-width:1;"/><polygon fill="#181818" points="1514.1389,345.8815,1512.6114,336.1518,1511.4241,341.6827,1505.8933,340.4954,1514.1389,345.8815" style="stroke:#181818;stroke-width:1;"/></g><!--link n9 to n18--><g class="link" data-entity-1="n9" data-entity-2="n18" data-source-line="58" data-uid="lnk55" id="link_n9_n18"><path d="M1451.9529,277.1674 C1453.216,306.8173 1457.5015,354.4479 1471.5,393 C1480.8465,418.7404 1494.8819,440.1388 1507.6695,457.1758" fill="none" id="n9-to-n18" style="stroke:#181818;stroke-width:1;"/><polygon fill="#181818" points="1511.2713,461.9745,1509.0677,452.3753,1508.2698,457.9756,1502.6695,457.1777,1511.2713,461.9745" style="stroke:#181818;stroke-width:1;"/></g><!--link n11 to n6--><g class="link" data-entity-1="n11" data-entity-2="n6" data-source-line="59" data-uid="lnk56" id="link_n11_n6"><path d="M962.8269,272.6025 C956.973,274.1287 951.1542,275.6092 945.5,277 C823.4836,307.0124 685.4817,335.4746 605.0068,351.5373" fill="none" id="n11-to-n6" style="stroke:#181818;stroke-width:1;"/><polygon fill="#181818" points="599.1229,352.7117,608.7318,354.8727,604.0262,351.733,607.1659,347.0274,599.1229,352.7117" style="stroke:#181818;stroke-width:1;"/></g><!--link n15 to n20--><g class="link" data-entity-1="n15" data-entity-2="n20" data-source-line="60" data-uid="lnk57" id="link_n15_n20"><path d="M875.0423,384.0251 C914.3665,403.4362 970.271,431.0316 1013.9281,452.5815" fill="none" id="n15-to-n20" style="stroke:#181818;stroke-width:1;"/><polygon fill="#181818" points="1019.3083,455.2373,1013.0085,447.6668,1014.8248,453.0242,1009.4674,454.8405,1019.3083,455.2373" style="stroke:#181818;stroke-width:1;"/></g><!--link n15 to n21--><g class="link" data-entity-1="n15" data-entity-2="n21" data-source-line="61" data-uid="lnk58" id="link_n15_n21"><path d="M902.6138,382.1157 C964.5925,398.6362 1059.573,425.1774 1140.5,453 C1148.4218,455.7235 1151.167,456.6571 1159.2149,459.7927" fill="none" id="n15-to-n21" style="stroke:#181818;stroke-width:1;"/><polygon fill="#181818" points="1164.8056,461.9709,1157.8718,454.9765,1160.1467,460.1557,1154.9675,462.4307,1164.8056,461.9709" style="stroke:#181818;stroke-width:1;"/></g><!--link n15 to n22--><g class="link" data-entity-1="n15" data-entity-2="n22" data-source-line="62" data-uid="lnk59" id="link_n15_n22"><path d="M770.4125,373.5863 C647.9682,389.8818 390.487,426.0695 304.5,453 C296.9262,455.3721 294.5482,456.0645 287.1493,459.4163" fill="none" id="n15-to-n22" style="stroke:#181818;stroke-width:1;"/><polygon fill="#181818" points="281.684,461.8922,291.5326,461.822,286.2385,459.829,288.2314,454.5348,281.684,461.8922" style="stroke:#181818;stroke-width:1;"/></g><!--link n15 to n23--><g class="link" data-entity-1="n15" data-entity-2="n23" data-source-line="63" data-uid="lnk60" id="link_n15_n23"><path d="M770.2498,382.9977 C696.695,402.9798 583.4669,433.7396 502.4139,455.7587" fill="none" id="n15-to-n23" style="stroke:#181818;stroke-width:1;"/><polygon fill="#181818" points="496.6238,457.3317,506.3577,458.8323,501.4489,456.0209,504.2604,451.1122,496.6238,457.3317" style="stroke:#181818;stroke-width:1;"/></g><!--link n15 to n24--><g class="link" data-entity-1="n15" data-entity-2="n24" data-source-line="64" data-uid="lnk61" id="link_n15_n24"><path d="M796.8096,384.0251 C757.789,402.7292 703.1818,428.9045 658.6397,450.2553" fill="none" id="n15-to-n24" style="stroke:#181818;stroke-width:1;"/><polygon fill="#181818" points="653.2292,452.8488,663.074,452.5656,657.738,450.6876,659.616,445.3516,653.2292,452.8488" style="stroke:#181818;stroke-width:1;"/></g><!--link n15 to n25--><g class="link" data-entity-1="n15" data-entity-2="n25" data-source-line="65" data-uid="lnk62" id="link_n15_n25"><path d="M850.0406,384.155 C863.2324,402.8166 879.9798,426.508 895.0263,447.7933" fill="none" id="n15-to-n25" style="stroke:#181818;stroke-width:1;"/><polygon fill="#181818" points="898.4897,452.6928,896.5609,443.0347,895.6035,448.6099,890.0283,447.6525,898.4897,452.6928" style="stroke:#181818;stroke-width:1;"/></g><!--link n15 to n26--><g class="link" data-entity-1="n15" data-entity-2="n26" data-source-line="66" data-uid="lnk63" id="link_n15_n26"><path d="M822.9594,384.155 C809.7676,402.8166 793.0202,426.508 777.9737,447.7933" fill="none" id="n15-to-n26" style="stroke:#181818;stroke-width:1;"/><polygon fill="#181818" points="774.5103,452.6928,782.9717,447.6525,777.3965,448.6099,776.4391,443.0347,774.5103,452.6928" style="stroke:#181818;stroke-width:1;"/></g><!--link n17 to n18--><g class="link" data-entity-1="n17" data-entity-2="n18" data-source-line="67" data-uid="lnk64" id="link_n17_n18"><path d="M1526.5,384.155 C1526.5,405.648 1526.5,434.3119 1526.5,455.8165" fill="none" id="n17-to-n18" style="stroke:#181818;stroke-width:1;"/><polygon fill="#181818" points="1526.5,461.8165,1530.5,452.8165,1526.5,456.8165,1522.5,452.8165,1526.5,461.8165" style="stroke:#181818;stroke-width:1;"/></g><!--link n19 to n27--><g class="link" data-entity-1="n19" data-entity-2="n27" data-source-line="68" data-uid="lnk65" id="link_n19_n27"><path d="M1323.7657,384.155 C1331.9182,405.648 1342.9387,434.7019 1351.0956,456.2065" fill="none" id="n19-to-n27" style="stroke:#181818;stroke-width:1;"/><polygon fill="#181818" points="1353.2235,461.8165,1353.7716,451.9829,1351.4502,457.1415,1346.2916,454.8201,1353.2235,461.8165" style="stroke:#181818;stroke-width:1;"/></g><!--link n21 to n28--><g class="link" data-entity-1="n21" data-entity-2="n28" data-source-line="69" data-uid="lnk66" id="link_n21_n28"><path d="M1210.5,500.155 C1210.5,518.8166 1210.5,541.4075 1210.5,562.6928" fill="none" id="n21-to-n28" style="stroke:#181818;stroke-width:1;"/><polygon fill="#181818" points="1210.5,568.6928,1214.5,559.6928,1210.5,563.6928,1206.5,559.6928,1210.5,568.6928" style="stroke:#181818;stroke-width:1;"/></g><!--link n22 to n29--><g class="link" data-entity-1="n22" data-entity-2="n29" data-source-line="70" data-uid="lnk67" id="link_n22_n29"><path d="M245.5,500.155 C245.5,518.8166 245.5,541.4075 245.5,562.6928" fill="none" id="n22-to-n29" style="stroke:#181818;stroke-width:1;"/><polygon fill="#181818" points="245.5,568.6928,249.5,559.6928,245.5,563.6928,241.5,559.6928,245.5,568.6928" style="stroke:#181818;stroke-width:1;"/></g><!--link n23 to n30--><g class="link" data-entity-1="n23" data-entity-2="n30" data-source-line="71" data-uid="lnk68" id="link_n23_n30"><path d="M456.2199,509.0804 C491.6961,530.4028 534.3902,556.0636 565.5482,574.7906" fill="none" id="n23-to-n30" style="stroke:#181818;stroke-width:1;"/><polygon fill="#181818" points="570.6908,577.8815,565.0375,569.8168,566.4053,575.3058,560.9163,576.6736,570.6908,577.8815" style="stroke:#181818;stroke-width:1;"/></g><!--link n24 to n30--><g class="link" data-entity-1="n24" data-entity-2="n30" data-source-line="72" data-uid="lnk69" id="link_n24_n30"><path d="M596.4366,509.0804 C597.9071,530.4028 599.4772,553.1687 600.7687,571.8957" fill="none" id="n24-to-n30" style="stroke:#181818;stroke-width:1;"/><polygon fill="#181818" points="601.1815,577.8815,604.5528,568.6276,600.8375,572.8933,596.5718,569.178,601.1815,577.8815" style="stroke:#181818;stroke-width:1;"/></g><!--link n25 to n31--><g class="link" data-entity-1="n25" data-entity-2="n31" data-source-line="73" data-uid="lnk70" id="link_n25_n31"><path d="M898.6501,509.0804 C885.8524,527.1844 872.7323,545.7445 859.9147,563.8767" fill="none" id="n25-to-n31" style="stroke:#181818;stroke-width:1;"/><polygon fill="#181818" points="856.4513,568.7762,864.9127,563.7359,859.3375,564.6933,858.3801,559.1181,856.4513,568.7762" style="stroke:#181818;stroke-width:1;"/></g><!--link n25 to n30--><g class="link" data-entity-1="n25" data-entity-2="n30" data-source-line="74" data-uid="lnk71" id="link_n25_n30"><path d="M852.256,505.3174 C789.4563,528.3705 702.6932,560.2202 649.6635,579.6869" fill="none" id="n25-to-n30" style="stroke:#181818;stroke-width:1;"/><polygon fill="#181818" points="644.031,581.7545,653.8582,582.408,648.7247,580.0315,651.1013,574.8981,644.031,581.7545" style="stroke:#181818;stroke-width:1;"/></g><!--link n26 to n31--><g class="link" data-entity-1="n26" data-entity-2="n31" data-source-line="75" data-uid="lnk72" id="link_n26_n31"><path d="M774.3499,509.0804 C787.1476,527.1844 800.2677,545.7445 813.0853,563.8767" fill="none" id="n26-to-n31" style="stroke:#181818;stroke-width:1;"/><polygon fill="#181818" points="816.5487,568.7762,814.6199,559.1181,813.6625,564.6933,808.0873,563.7359,816.5487,568.7762" style="stroke:#181818;stroke-width:1;"/></g><!--link n26 to n30--><g class="link" data-entity-1="n26" data-entity-2="n30" data-source-line="76" data-uid="lnk73" id="link_n26_n30"><path d="M717.705,509.0804 C689.7652,530.4028 656.8604,555.5145 632.3215,574.2415" fill="none" id="n26-to-n30" style="stroke:#181818;stroke-width:1;"/><polygon fill="#181818" points="627.5518,577.8815,637.1331,575.6013,631.5266,574.8481,632.2797,569.2416,627.5518,577.8815" style="stroke:#181818;stroke-width:1;"/></g><!--SRC=[XPHDZziW48Rl-HNMzj96sjQVSIojLchtLAbIfRR7bH2nIOA2mGMStVpxZcqCs8cRsyCmxp3CC3mfVM7aUVNqnO0wKTvWYUjWXylJGOgMLo-22HbeYRc2BSBrIf9IOtvW97XOhsjC-Nhz460Ly33uy8CUZleRQudl9JY2rNbmYloTHcZvmeGYh_oZvS_bfy4rdhl-R0Z_JUIPbgF0irXPuiiKFQ0ZvXKZSjXD_TrIr7MV6z97IN25b1QD2VqBp7zwgusSJHB2KX54ctEAS5L9e_hUV8M5LMpkd8QbNZukduhv7kx21EWEJEmm0-5Wj8Bjaa3PeiqKnQHFK4oaH7aY6kqaw4giz7yA7OLBwhfbcjvJHqlgbj_LJfw69FtphAb6bDDEvonECdaMRvHNucrq7rREDPr6TmtRjxmqFjbLzgRWUye8whoDu-RwqPp6MPXqM4jQ6_kaaRXfs6LieTCMqxXzvVhmNTtwfHkayEf25M7qFCv4F6c58hn272AOpVX6uVeOd91AzPxNDOoJ9LNJJzZSFLrqRzNnXdzsmxzF_7OsipbiBgXKMY8jRKFZVFxRG8rWOXj9bEe7Pq34A6_VNUJjZJRiMiggiJ3pNXIppE4HLkJTV5tXj15_ULl3FXgk0y46a_lgeXNyke-Fpzs_Eb9iAR6KhdWyK6Pfi-B9GBcbhQN24eovnSXXx31n20Vb1k6ahS6DmzmX75OOB1nk7EOEmJUARDvHPguQUXnv77kSU9nwd7dSnSozeyony2WWhc6mnwPqq4I8QueCESIfnoPcrnlBdNtZsKSE_m40]--></g></svg>