<svg xmlns="http://www.w3.org/2000/svg" xmlns:xlink="http://www.w3.org/1999/xlink" contentStyleType="text/css" data-diagram-type="DESCRIPTION" height="710px" preserveAspectRatio="none" style="width:2105px;height:710px;" version="1.1" viewBox="0 0 2105 710" width="2105px" zoomAndPan="magnify"><defs/><g><!--entity n0--><g class="entity" data-entity="n0" data-source-line="5" data-uid="ent0002" id="entity_n0"><rect fill="#ADD8E6" height="37.7799" rx="2.5" ry="2.5" style="stroke:#181818;stroke-width:0.5;" width="183.6243" x="1059" y="7"/><text fill="#000000" font-family="'Segoe UI', 'メイリオ', 'UDEV Gothic HSRFJPDOC', 'Hiragino Kaku Gothic ProN', 'ヒラギノ角ゴ ProN', 'Noto Sans JP', 'Helvetica Neue', Helvetica, Arial, sans-serif" font-size="14" font-weight="bold" lengthAdjust="spacing" textLength="163.6243" x="1069" y="30.9999">comm_recv_thread_start</text></g><!--entity n1--><g class="entity" data-entity="n1" data-source-line="6" data-uid="ent0003" id="entity_n1"><rect fill="#F1F1F1" height="37.7799" rx="2.5" ry="2.5" style="stroke:#181818;stroke-width:0.5;" width="131.9995" x="1085" y="105"/><text fill="#000000" font-family="'Segoe UI', 'メイリオ', 'UDEV Gothic HSRFJPDOC', 'Hiragino Kaku Gothic ProN', 'ヒラギノ角ゴ ProN', 'Noto Sans JP', 'Helvetica Neue', Helvetica, Arial, sans-serif" font-size="14" lengthAdjust="spacing" textLength="111.9995" x="1095" y="128.9999">recv_thread_func</text></g><!--entity n2--><g class="entity" data-entity="n2" data-source-line="7" data-uid="ent0004" id="entity_n2"><rect fill="#F1F1F1" height="37.7799" rx="2.5" ry="2.5" style="stroke:#181818;stroke-width:0.5;" width="187.9993" x="7" y="212"/><text fill="#000000" font-family="'Segoe UI', 'メイリオ', 'UDEV Gothic HSRFJPDOC', 'Hiragino Kaku Gothic ProN', 'ヒラギノ角ゴ ProN', 'Noto Sans JP', 'Helvetica Neue', Helvetica, Arial, sans-serif" font-size="14" lengthAdjust="spacing" textLength="167.9993" x="17" y="235.9999">check_and_update_session</text></g><!--entity n3--><g class="entity" data-entity="n3" data-source-line="8" data-uid="ent0005" id="entity_n3"><rect fill="#F1F1F1" height="37.7799" rx="2.5" ry="2.5" style="stroke:#181818;stroke-width:0.5;" width="159.9994" x="301" y="212"/><text fill="#000000" font-family="'Segoe UI', 'メイリオ', 'UDEV Gothic HSRFJPDOC', 'Hiragino Kaku Gothic ProN', 'ヒラギノ角ゴ ProN', 'Noto Sans JP', 'Helvetica Neue', Helvetica, Arial, sans-serif" font-size="14" lengthAdjust="spacing" textLength="139.9994" x="311" y="235.9999">check_health_timeout</text></g><!--entity n4--><g class="entity" data-entity="n4" data-source-line="9" data-uid="ent0006" id="entity_n4"><rect fill="#F1F1F1" height="37.7799" rx="2.5" ry="2.5" style="stroke:#181818;stroke-width:0.5;" width="117.9996" x="663" y="212"/><text fill="#000000" font-family="'Segoe UI', 'メイリオ', 'UDEV Gothic HSRFJPDOC', 'Hiragino Kaku Gothic ProN', 'ヒラギノ角ゴ ProN', 'Noto Sans JP', 'Helvetica Neue', Helvetica, Arial, sans-serif" font-size="14" lengthAdjust="spacing" textLength="97.9996" x="673" y="235.9999">check_src_addr</text></g><!--entity n5--><g class="entity" data-entity="n5" data-source-line="10" data-uid="ent0007" id="entity_n5"><rect fill="#F1F1F1" height="37.7799" rx="2.5" ry="2.5" style="stroke:#181818;stroke-width:0.5;" width="138.9995" x="582.5" y="328"/><text fill="#000000" font-family="'Segoe UI', 'メイリオ', 'UDEV Gothic HSRFJPDOC', 'Hiragino Kaku Gothic ProN', 'ヒラギノ角ゴ ProN', 'Noto Sans JP', 'Helvetica Neue', Helvetica, Arial, sans-serif" font-size="14" lengthAdjust="spacing" textLength="118.9995" x="592.5" y="351.9999">drain_recv_window</text></g><!--entity n6--><g class="entity" data-entity="n6" data-source-line="11" data-uid="ent0008" id="entity_n6"><rect fill="#F1F1F1" height="37.7799" rx="2.5" ry="2.5" style="stroke:#181818;stroke-width:0.5;" width="96.9997" x="1835.5" y="212"/><text fill="#000000" font-family="'Segoe UI', 'メイリオ', 'UDEV Gothic HSRFJPDOC', 'Hiragino Kaku Gothic ProN', 'ヒラギノ角ゴ ProN', 'Noto Sans JP', 'Helvetica Neue', Helvetica, Arial, sans-serif" font-size="14" lengthAdjust="spacing" textLength="76.9997" x="1845.5" y="235.9999">get_ms_mono</text></g><!--entity n7--><g class="entity" data-entity="n7" data-source-line="12" data-uid="ent0009" id="entity_n7"><rect fill="#F1F1F1" height="37.7799" rx="2.5" ry="2.5" style="stroke:#181818;stroke-width:0.5;" width="152.9994" x="128.5" y="444"/><text fill="#000000" font-family="'Segoe UI', 'メイリオ', 'UDEV Gothic HSRFJPDOC', 'Hiragino Kaku Gothic ProN', 'ヒラギノ角ゴ ProN', 'Noto Sans JP', 'Helvetica Neue', Helvetica, Arial, sans-serif" font-size="14" lengthAdjust="spacing" textLength="132.9994" x="138.5" y="467.9999">notify_health_alive</text></g><!--entity n8--><g class="entity" data-entity="n8" data-source-line="13" data-uid="ent0010" id="entity_n8"><rect fill="#F1F1F1" height="55.5598" rx="2.5" ry="2.5" style="stroke:#181818;stroke-width:0.5;" width="103.9996" x="1696" y="203"/><text fill="#000000" font-family="'Segoe UI', 'メイリオ', 'UDEV Gothic HSRFJPDOC', 'Hiragino Kaku Gothic ProN', 'ヒラギノ角ゴ ProN', 'Noto Sans JP', 'Helvetica Neue', Helvetica, Arial, sans-serif" font-size="14" lengthAdjust="spacing" textLength="83.9996" x="1706" y="226.9999">packet_parse</text><text fill="#000000" font-family="'Segoe UI', 'メイリオ', 'UDEV Gothic HSRFJPDOC', 'Hiragino Kaku Gothic ProN', 'ヒラギノ角ゴ ProN', 'Noto Sans JP', 'Helvetica Neue', Helvetica, Arial, sans-serif" font-size="14" lengthAdjust="spacing" textLength="69.9997" x="1706" y="244.7799">(packet.c)</text></g><!--entity n9--><g class="entity" data-entity="n9" data-source-line="14" data-uid="ent0011" id="entity_n9"><rect fill="#F1F1F1" height="55.5598" rx="2.5" ry="2.5" style="stroke:#181818;stroke-width:0.5;" width="131.9995" x="1576" y="435"/><text fill="#000000" font-family="'Segoe UI', 'メイリオ', 'UDEV Gothic HSRFJPDOC', 'Hiragino Kaku Gothic ProN', 'ヒラギノ角ゴ ProN', 'Noto Sans JP', 'Helvetica Neue', Helvetica, Arial, sans-serif" font-size="14" lengthAdjust="spacing" textLength="111.9995" x="1586" y="458.9999">packet_wire_size</text><text fill="#000000" font-family="'Segoe UI', 'メイリオ', 'UDEV Gothic HSRFJPDOC', 'Hiragino Kaku Gothic ProN', 'ヒラギノ角ゴ ProN', 'Noto Sans JP', 'Helvetica Neue', Helvetica, Arial, sans-serif" font-size="14" lengthAdjust="spacing" textLength="69.9997" x="1586" y="476.7799">(packet.c)</text></g><!--entity n10--><g class="entity" data-entity="n10" data-source-line="15" data-uid="ent0012" id="entity_n10"><rect fill="#F1F1F1" height="55.5598" rx="2.5" ry="2.5" style="stroke:#181818;stroke-width:0.5;" width="131.9995" x="1968" y="203"/><text fill="#000000" font-family="'Segoe UI', 'メイリオ', 'UDEV Gothic HSRFJPDOC', 'Hiragino Kaku Gothic ProN', 'ヒラギノ角ゴ ProN', 'Noto Sans JP', 'Helvetica Neue', Helvetica, Arial, sans-serif" font-size="14" lengthAdjust="spacing" textLength="83.9996" x="1978" y="226.9999">potr_decrypt</text><text fill="#000000" font-family="'Segoe UI', 'メイリオ', 'UDEV Gothic HSRFJPDOC', 'Hiragino Kaku Gothic ProN', 'ヒラギノ角ゴ ProN', 'Noto Sans JP', 'Helvetica Neue', Helvetica, Arial, sans-serif" font-size="14" lengthAdjust="spacing" textLength="111.9995" x="1978" y="244.7799">(crypto_linux.c)</text></g><!--entity n11--><g class="entity" data-entity="n11" data-source-line="16" data-uid="ent0013" id="entity_n11"><rect fill="#F1F1F1" height="37.7799" rx="2.5" ry="2.5" style="stroke:#181818;stroke-width:0.5;" width="138.9995" x="958.5" y="212"/><text fill="#000000" font-family="'Segoe UI', 'メイリオ', 'UDEV Gothic HSRFJPDOC', 'Hiragino Kaku Gothic ProN', 'ヒラギノ角ゴ ProN', 'Noto Sans JP', 'Helvetica Neue', Helvetica, Arial, sans-serif" font-size="14" lengthAdjust="spacing" textLength="118.9995" x="968.5" y="235.9999">process_outer_pkt</text></g><!--entity n12--><g class="entity" data-entity="n12" data-source-line="17" data-uid="ent0014" id="entity_n12"><rect fill="#F1F1F1" height="37.7799" rx="2.5" ry="2.5" style="stroke:#181818;stroke-width:0.5;" width="82.9997" x="1435.5" y="328"/><text fill="#000000" font-family="'Segoe UI', 'メイリオ', 'UDEV Gothic HSRFJPDOC', 'Hiragino Kaku Gothic ProN', 'ヒラギノ角ゴ ProN', 'Noto Sans JP', 'Helvetica Neue', Helvetica, Arial, sans-serif" font-size="14" lengthAdjust="spacing" textLength="62.9997" x="1445.5" y="351.9999">send_nack</text></g><!--entity n13--><g class="entity" data-entity="n13" data-source-line="18" data-uid="ent0015" id="entity_n13"><rect fill="#F1F1F1" height="37.7799" rx="2.5" ry="2.5" style="stroke:#181818;stroke-width:0.5;" width="96.9997" x="1625.5" y="328"/><text fill="#000000" font-family="'Segoe UI', 'メイリオ', 'UDEV Gothic HSRFJPDOC', 'Hiragino Kaku Gothic ProN', 'ヒラギノ角ゴ ProN', 'Noto Sans JP', 'Helvetica Neue', Helvetica, Arial, sans-serif" font-size="14" lengthAdjust="spacing" textLength="76.9997" x="1635.5" y="351.9999">send_reject</text></g><!--entity n14--><g class="entity" data-entity="n14" data-source-line="19" data-uid="ent0016" id="entity_n14"><rect fill="#F1F1F1" height="55.5598" rx="2.5" ry="2.5" style="stroke:#181818;stroke-width:0.5;" width="131.9995" x="1163" y="435"/><text fill="#000000" font-family="'Segoe UI', 'メイリオ', 'UDEV Gothic HSRFJPDOC', 'Hiragino Kaku Gothic ProN', 'ヒラギノ角ゴ ProN', 'Noto Sans JP', 'Helvetica Neue', Helvetica, Arial, sans-serif" font-size="14" lengthAdjust="spacing" textLength="111.9995" x="1173" y="458.9999">seqnum_in_window</text><text fill="#000000" font-family="'Segoe UI', 'メイリオ', 'UDEV Gothic HSRFJPDOC', 'Hiragino Kaku Gothic ProN', 'ヒラギノ角ゴ ProN', 'Noto Sans JP', 'Helvetica Neue', Helvetica, Arial, sans-serif" font-size="14" lengthAdjust="spacing" textLength="69.9997" x="1173" y="476.7799">(seqnum.c)</text></g><!--entity n15--><g class="entity" data-entity="n15" data-source-line="20" data-uid="ent0017" id="entity_n15"><rect fill="#F1F1F1" height="37.7799" rx="2.5" ry="2.5" style="stroke:#181818;stroke-width:0.5;" width="131.9995" x="496" y="212"/><text fill="#000000" font-family="'Segoe UI', 'メイリオ', 'UDEV Gothic HSRFJPDOC', 'Hiragino Kaku Gothic ProN', 'ヒラギノ角ゴ ProN', 'Noto Sans JP', 'Helvetica Neue', Helvetica, Arial, sans-serif" font-size="14" lengthAdjust="spacing" textLength="111.9995" x="506" y="235.9999">update_path_recv</text></g><!--entity n16--><g class="entity" data-entity="n16" data-source-line="21" data-uid="ent0018" id="entity_n16"><rect fill="#F1F1F1" height="55.5598" rx="2.5" ry="2.5" style="stroke:#181818;stroke-width:0.5;" width="96.9997" x="199.5" y="319"/><text fill="#000000" font-family="'Segoe UI', 'メイリオ', 'UDEV Gothic HSRFJPDOC', 'Hiragino Kaku Gothic ProN', 'ヒラギノ角ゴ ProN', 'Noto Sans JP', 'Helvetica Neue', Helvetica, Arial, sans-serif" font-size="14" lengthAdjust="spacing" textLength="76.9997" x="209.5" y="342.9999">window_init</text><text fill="#000000" font-family="'Segoe UI', 'メイリオ', 'UDEV Gothic HSRFJPDOC', 'Hiragino Kaku Gothic ProN', 'ヒラギノ角ゴ ProN', 'Noto Sans JP', 'Helvetica Neue', Helvetica, Arial, sans-serif" font-size="14" lengthAdjust="spacing" textLength="69.9997" x="209.5" y="360.7799">(window.c)</text></g><!--entity n17--><g class="entity" data-entity="n17" data-source-line="22" data-uid="ent0019" id="entity_n17"><rect fill="#F1F1F1" height="55.5598" rx="2.5" ry="2.5" style="stroke:#181818;stroke-width:0.5;" width="131.9995" x="996" y="435"/><text fill="#000000" font-family="'Segoe UI', 'メイリオ', 'UDEV Gothic HSRFJPDOC', 'Hiragino Kaku Gothic ProN', 'ヒラギノ角ゴ ProN', 'Noto Sans JP', 'Helvetica Neue', Helvetica, Arial, sans-serif" font-size="14" lengthAdjust="spacing" textLength="111.9995" x="1006" y="458.9999">window_recv_skip</text><text fill="#000000" font-family="'Segoe UI', 'メイリオ', 'UDEV Gothic HSRFJPDOC', 'Hiragino Kaku Gothic ProN', 'ヒラギノ角ゴ ProN', 'Noto Sans JP', 'Helvetica Neue', Helvetica, Arial, sans-serif" font-size="14" lengthAdjust="spacing" textLength="69.9997" x="1006" y="476.7799">(window.c)</text></g><!--entity n18--><g class="entity" data-entity="n18" data-source-line="23" data-uid="ent0020" id="entity_n18"><rect fill="#F1F1F1" height="55.5598" rx="2.5" ry="2.5" style="stroke:#181818;stroke-width:0.5;" width="124.9995" x="1275.5" y="319"/><text fill="#000000" font-family="'Segoe UI', 'メイリオ', 'UDEV Gothic HSRFJPDOC', 'Hiragino Kaku Gothic ProN', 'ヒラギノ角ゴ ProN', 'Noto Sans JP', 'Helvetica Neue', Helvetica, Arial, sans-serif" font-size="14" lengthAdjust="spacing" textLength="104.9995" x="1285.5" y="342.9999">window_send_get</text><text fill="#000000" font-family="'Segoe UI', 'メイリオ', 'UDEV Gothic HSRFJPDOC', 'Hiragino Kaku Gothic ProN', 'ヒラギノ角ゴ ProN', 'Noto Sans JP', 'Helvetica Neue', Helvetica, Arial, sans-serif" font-size="14" lengthAdjust="spacing" textLength="69.9997" x="1285.5" y="360.7799">(window.c)</text></g><!--entity n19--><g class="entity" data-entity="n19" data-source-line="24" data-uid="ent0021" id="entity_n19"><rect fill="#F1F1F1" height="37.7799" rx="2.5" ry="2.5" style="stroke:#181818;stroke-width:0.5;" width="110.9996" x="348.5" y="328"/><text fill="#000000" font-family="'Segoe UI', 'メイリオ', 'UDEV Gothic HSRFJPDOC', 'Hiragino Kaku Gothic ProN', 'ヒラギノ角ゴ ProN', 'Noto Sans JP', 'Helvetica Neue', Helvetica, Arial, sans-serif" font-size="14" lengthAdjust="spacing" textLength="90.9996" x="358.5" y="351.9999">get_monotonic</text></g><!--entity n20--><g class="entity" data-entity="n20" data-source-line="25" data-uid="ent0022" id="entity_n20"><rect fill="#F1F1F1" height="37.7799" rx="2.5" ry="2.5" style="stroke:#181818;stroke-width:0.5;" width="159.9994" x="317" y="444"/><text fill="#000000" font-family="'Segoe UI', 'メイリオ', 'UDEV Gothic HSRFJPDOC', 'Hiragino Kaku Gothic ProN', 'ヒラギノ角ゴ ProN', 'Noto Sans JP', 'Helvetica Neue', Helvetica, Arial, sans-serif" font-size="14" lengthAdjust="spacing" textLength="139.9994" x="327" y="467.9999">deliver_payload_elem</text></g><!--entity n21--><g class="entity" data-entity="n21" data-source-line="26" data-uid="ent0023" id="entity_n21"><rect fill="#F1F1F1" height="55.5598" rx="2.5" ry="2.5" style="stroke:#181818;stroke-width:0.5;" width="145.9995" x="512" y="435"/><text fill="#000000" font-family="'Segoe UI', 'メイリオ', 'UDEV Gothic HSRFJPDOC', 'Hiragino Kaku Gothic ProN', 'ヒラギノ角ゴ ProN', 'Noto Sans JP', 'Helvetica Neue', Helvetica, Arial, sans-serif" font-size="14" lengthAdjust="spacing" textLength="125.9995" x="522" y="458.9999">packet_unpack_next</text><text fill="#000000" font-family="'Segoe UI', 'メイリオ', 'UDEV Gothic HSRFJPDOC', 'Hiragino Kaku Gothic ProN', 'ヒラギノ角ゴ ProN', 'Noto Sans JP', 'Helvetica Neue', Helvetica, Arial, sans-serif" font-size="14" lengthAdjust="spacing" textLength="69.9997" x="522" y="476.7799">(packet.c)</text></g><!--entity n22--><g class="entity" data-entity="n22" data-source-line="27" data-uid="ent0024" id="entity_n22"><rect fill="#F1F1F1" height="55.5598" rx="2.5" ry="2.5" style="stroke:#181818;stroke-width:0.5;" width="124.9995" x="693.5" y="435"/><text fill="#000000" font-family="'Segoe UI', 'メイリオ', 'UDEV Gothic HSRFJPDOC', 'Hiragino Kaku Gothic ProN', 'ヒラギノ角ゴ ProN', 'Noto Sans JP', 'Helvetica Neue', Helvetica, Arial, sans-serif" font-size="14" lengthAdjust="spacing" textLength="104.9995" x="703.5" y="458.9999">window_recv_pop</text><text fill="#000000" font-family="'Segoe UI', 'メイリオ', 'UDEV Gothic HSRFJPDOC', 'Hiragino Kaku Gothic ProN', 'ヒラギノ角ゴ ProN', 'Noto Sans JP', 'Helvetica Neue', Helvetica, Arial, sans-serif" font-size="14" lengthAdjust="spacing" textLength="69.9997" x="703.5" y="476.7799">(window.c)</text></g><!--entity n23--><g class="entity" data-entity="n23" data-source-line="28" data-uid="ent0025" id="entity_n23"><rect fill="#F1F1F1" height="37.7799" rx="2.5" ry="2.5" style="stroke:#181818;stroke-width:0.5;" width="61.9998" x="1919" y="551"/><text fill="#000000" font-family="'Segoe UI', 'メイリオ', 'UDEV Gothic HSRFJPDOC', 'Hiragino Kaku Gothic ProN', 'ヒラギノ角ゴ ProN', 'Noto Sans JP', 'Helvetica Neue', Helvetica, Arial, sans-serif" font-size="14" lengthAdjust="spacing" textLength="41.9998" x="1929" y="574.9999">ntoh64</text></g><!--entity n24--><g class="entity" data-entity="n24" data-source-line="29" data-uid="ent0026" id="entity_n24"><rect fill="#F1F1F1" height="55.5598" rx="2.5" ry="2.5" style="stroke:#181818;stroke-width:0.5;" width="173.9993" x="757" y="319"/><text fill="#000000" font-family="'Segoe UI', 'メイリオ', 'UDEV Gothic HSRFJPDOC', 'Hiragino Kaku Gothic ProN', 'ヒラギノ角ゴ ProN', 'Noto Sans JP', 'Helvetica Neue', Helvetica, Arial, sans-serif" font-size="14" lengthAdjust="spacing" textLength="153.9993" x="767" y="342.9999">window_recv_needs_nack</text><text fill="#000000" font-family="'Segoe UI', 'メイリオ', 'UDEV Gothic HSRFJPDOC', 'Hiragino Kaku Gothic ProN', 'ヒラギノ角ゴ ProN', 'Noto Sans JP', 'Helvetica Neue', Helvetica, Arial, sans-serif" font-size="14" lengthAdjust="spacing" textLength="69.9997" x="767" y="360.7799">(window.c)</text></g><!--entity n25--><g class="entity" data-entity="n25" data-source-line="30" data-uid="ent0027" id="entity_n25"><rect fill="#F1F1F1" height="55.5598" rx="2.5" ry="2.5" style="stroke:#181818;stroke-width:0.5;" width="131.9995" x="966" y="319"/><text fill="#000000" font-family="'Segoe UI', 'メイリオ', 'UDEV Gothic HSRFJPDOC', 'Hiragino Kaku Gothic ProN', 'ヒラギノ角ゴ ProN', 'Noto Sans JP', 'Helvetica Neue', Helvetica, Arial, sans-serif" font-size="14" lengthAdjust="spacing" textLength="111.9995" x="976" y="342.9999">window_recv_push</text><text fill="#000000" font-family="'Segoe UI', 'メイリオ', 'UDEV Gothic HSRFJPDOC', 'Hiragino Kaku Gothic ProN', 'ヒラギノ角ゴ ProN', 'Noto Sans JP', 'Helvetica Neue', Helvetica, Arial, sans-serif" font-size="14" lengthAdjust="spacing" textLength="69.9997" x="976" y="360.7799">(window.c)</text></g><!--entity n26--><g class="entity" data-entity="n26" data-source-line="31" data-uid="ent0028" id="entity_n26"><rect fill="#F1F1F1" height="55.5598" rx="2.5" ry="2.5" style="stroke:#181818;stroke-width:0.5;" width="138.9995" x="1401.5" y="435"/><text fill="#000000" font-family="'Segoe UI', 'メイリオ', 'UDEV Gothic HSRFJPDOC', 'Hiragino Kaku Gothic ProN', 'ヒラギノ角ゴ ProN', 'Noto Sans JP', 'Helvetica Neue', Helvetica, Arial, sans-serif" font-size="14" lengthAdjust="spacing" textLength="118.9995" x="1411.5" y="458.9999">packet_build_nack</text><text fill="#000000" font-family="'Segoe UI', 'メイリオ', 'UDEV Gothic HSRFJPDOC', 'Hiragino Kaku Gothic ProN', 'ヒラギノ角ゴ ProN', 'Noto Sans JP', 'Helvetica Neue', Helvetica, Arial, sans-serif" font-size="14" lengthAdjust="spacing" textLength="69.9997" x="1411.5" y="476.7799">(packet.c)</text></g><!--entity n27--><g class="entity" data-entity="n27" data-source-line="32" data-uid="ent0029" id="entity_n27"><rect fill="#F1F1F1" height="55.5598" rx="2.5" ry="2.5" style="stroke:#181818;stroke-width:0.5;" width="152.9994" x="1743.5" y="435"/><text fill="#000000" font-family="'Segoe UI', 'メイリオ', 'UDEV Gothic HSRFJPDOC', 'Hiragino Kaku Gothic ProN', 'ヒラギノ角ゴ ProN', 'Noto Sans JP', 'Helvetica Neue', Helvetica, Arial, sans-serif" font-size="14" lengthAdjust="spacing" textLength="132.9994" x="1753.5" y="458.9999">packet_build_reject</text><text fill="#000000" font-family="'Segoe UI', 'メイリオ', 'UDEV Gothic HSRFJPDOC', 'Hiragino Kaku Gothic ProN', 'ヒラギノ角ゴ ProN', 'Noto Sans JP', 'Helvetica Neue', Helvetica, Arial, sans-serif" font-size="14" lengthAdjust="spacing" textLength="69.9997" x="1753.5" y="476.7799">(packet.c)</text></g><!--entity n28--><g class="entity" data-entity="n28" data-source-line="33" data-uid="ent0030" id="entity_n28"><rect fill="#F1F1F1" height="37.7799" rx="2.5" ry="2.5" style="stroke:#181818;stroke-width:0.5;" width="82.9997" x="901.5" y="551"/><text fill="#000000" font-family="'Segoe UI', 'メイリオ', 'UDEV Gothic HSRFJPDOC', 'Hiragino Kaku Gothic ProN', 'ヒラギノ角ゴ ProN', 'Noto Sans JP', 'Helvetica Neue', Helvetica, Arial, sans-serif" font-size="14" lengthAdjust="spacing" textLength="62.9997" x="911.5" y="574.9999">win_index</text></g><!--entity n29--><g class="entity" data-entity="n29" data-source-line="34" data-uid="ent0031" id="entity_n29"><rect fill="#F1F1F1" height="37.7799" rx="2.5" ry="2.5" style="stroke:#181818;stroke-width:0.5;" width="103.9996" x="345" y="551"/><text fill="#000000" font-family="'Segoe UI', 'メイリオ', 'UDEV Gothic HSRFJPDOC', 'Hiragino Kaku Gothic ProN', 'ヒラギノ角ゴ ProN', 'Noto Sans JP', 'Helvetica Neue', Helvetica, Arial, sans-serif" font-size="14" lengthAdjust="spacing" textLength="83.9996" x="355" y="574.9999">recv_deliver</text></g><!--entity n30--><g class="entity" data-entity="n30" data-source-line="35" data-uid="ent0032" id="entity_n30"><rect fill="#F1F1F1" height="37.7799" rx="2.5" ry="2.5" style="stroke:#181818;stroke-width:0.5;" width="61.9998" x="1853" y="658"/><text fill="#000000" font-family="'Segoe UI', 'メイリオ', 'UDEV Gothic HSRFJPDOC', 'Hiragino Kaku Gothic ProN', 'ヒラギノ角ゴ ProN', 'Noto Sans JP', 'Helvetica Neue', Helvetica, Arial, sans-serif" font-size="14" lengthAdjust="spacing" textLength="41.9998" x="1863" y="681.9999">hton64</text></g><!--entity n31--><g class="entity" data-entity="n31" data-source-line="36" data-uid="ent0033" id="entity_n31"><rect fill="#F1F1F1" height="37.7799" rx="2.5" ry="2.5" style="stroke:#181818;stroke-width:0.5;" width="131.9995" x="1752" y="551"/><text fill="#000000" font-family="'Segoe UI', 'メイリオ', 'UDEV Gothic HSRFJPDOC', 'Hiragino Kaku Gothic ProN', 'ヒラギノ角ゴ ProN', 'Noto Sans JP', 'Helvetica Neue', Helvetica, Arial, sans-serif" font-size="14" lengthAdjust="spacing" textLength="111.9995" x="1762" y="574.9999">fill_session_hdr</text></g><!--entity n32--><g class="entity" data-entity="n32" data-source-line="37" data-uid="ent0034" id="entity_n32"><rect fill="#F1F1F1" height="55.5598" rx="2.5" ry="2.5" style="stroke:#181818;stroke-width:0.5;" width="145.9995" x="324" y="649"/><text fill="#000000" font-family="'Segoe UI', 'メイリオ', 'UDEV Gothic HSRFJPDOC', 'Hiragino Kaku Gothic ProN', 'ヒラギノ角ゴ ProN', 'Noto Sans JP', 'Helvetica Neue', Helvetica, Arial, sans-serif" font-size="14" lengthAdjust="spacing" textLength="104.9995" x="334" y="672.9999">potr_decompress</text><text fill="#000000" font-family="'Segoe UI', 'メイリオ', 'UDEV Gothic HSRFJPDOC', 'Hiragino Kaku Gothic ProN', 'ヒラギノ角ゴ ProN', 'Noto Sans JP', 'Helvetica Neue', Helvetica, Arial, sans-serif" font-size="14" lengthAdjust="spacing" textLength="125.9995" x="334" y="690.7799">(compress_linux.c)</text></g><!--link n0 to n1--><g class="link" data-entity-1="n0" data-entity-2="n1" data-source-line="38" data-uid="lnk35" id="link_n0_n1"><path d="M1151,45.3616 C1151,62.5424 1151,81.51 1151,98.6786" fill="none" id="n0-to-n1" style="stroke:#181818;stroke-width:1;"/><polygon fill="#181818" points="1151,104.6786,1155,95.6786,1151,99.6786,1147,95.6786,1151,104.6786" style="stroke:#181818;stroke-width:1;"/></g><!--link n1 to n2--><g class="link" data-entity-1="n1" data-entity-2="n2" data-source-line="39" data-uid="lnk36" id="link_n1_n2"><path d="M1084.7181,126.3907 C931.832,132.6116 542.9958,152.4757 222,203 C206.8771,205.3803 196.6923,207.2909 181.4047,210.6926" fill="none" id="n1-to-n2" style="stroke:#181818;stroke-width:1;"/><polygon fill="#181818" points="175.5479,211.9958,185.2018,213.9455,180.4285,210.9098,183.4642,206.1365,175.5479,211.9958" style="stroke:#181818;stroke-width:1;"/></g><!--link n1 to n3--><g class="link" data-entity-1="n1" data-entity-2="n3" data-source-line="40" data-uid="lnk37" id="link_n1_n3"><path d="M1084.9956,128.1373 C963.7862,136.5322 697.9773,158.6521 478,203 C465.9725,205.4248 459.0517,207.0133 446.9427,210.372" fill="none" id="n1-to-n3" style="stroke:#181818;stroke-width:1;"/><polygon fill="#181818" points="441.161,211.9757,450.9027,213.4246,445.9791,210.6393,448.7644,205.7157,441.161,211.9757" style="stroke:#181818;stroke-width:1;"/></g><!--link n1 to n4--><g class="link" data-entity-1="n1" data-entity-2="n4" data-source-line="41" data-uid="lnk38" id="link_n1_n4"><path d="M1084.8095,137.4298 C1015.4091,151.9336 903.393,176.5411 808,203 C798.3163,205.6859 793.8195,206.9673 783.9413,210.0959" fill="none" id="n1-to-n4" style="stroke:#181818;stroke-width:1;"/><polygon fill="#181818" points="778.2213,211.9075,788.009,213.0034,782.9879,210.3978,785.5935,205.3768,778.2213,211.9075" style="stroke:#181818;stroke-width:1;"/></g><!--link n1 to n5--><g class="link" data-entity-1="n1" data-entity-2="n5" data-source-line="42" data-uid="lnk39" id="link_n1_n5"><path d="M1088.1684,143.1402 C1045.5096,157.2086 988.4491,178.1551 941,203 C902.2276,223.3017 898.3541,237.9188 860,259 C809.3167,286.8579 753.6019,309.7116 710.72,325.8733" fill="none" id="n1-to-n5" style="stroke:#181818;stroke-width:1;"/><polygon fill="#181818" points="705.1055,327.9893,714.9379,328.5582,709.7842,326.2259,712.1165,321.0723,705.1055,327.9893" style="stroke:#181818;stroke-width:1;"/></g><!--link n1 to n6--><g class="link" data-entity-1="n1" data-entity-2="n6" data-source-line="43" data-uid="lnk40" id="link_n1_n6"><path d="M1217.0079,125.6543 C1338.0929,130.0378 1603.021,145.9122 1818,203 C1826.6615,205.3001 1830.1125,206.264 1838.5899,209.7061" fill="none" id="n1-to-n6" style="stroke:#181818;stroke-width:1;"/><polygon fill="#181818" points="1844.1491,211.9633,1837.3151,204.8713,1839.5164,210.0823,1834.3055,212.2836,1844.1491,211.9633" style="stroke:#181818;stroke-width:1;"/></g><!--link n1 to n7--><g class="link" data-entity-1="n1" data-entity-2="n7" data-source-line="44" data-uid="lnk41" id="link_n1_n7"><path d="M1084.9784,131.9656 C1022.6914,141.6554 928.3389,162.0837 856,203 C824.8112,220.641 829.2734,241.5092 798,259 C704.6712,311.1976 663.0976,276.4357 565,319 C522.472,337.4528 518.9468,355.2617 477,375 C457.6331,384.1132 346.5959,419.1204 272.484,442.1491" fill="none" id="n1-to-n7" style="stroke:#181818;stroke-width:1;"/><polygon fill="#181818" points="266.7542,443.9295,276.5358,445.0787,271.529,442.4458,274.1619,437.4391,266.7542,443.9295" style="stroke:#181818;stroke-width:1;"/></g><!--link n1 to n8--><g class="link" data-entity-1="n1" data-entity-2="n8" data-source-line="45" data-uid="lnk42" id="link_n1_n8"><path d="M1217.2084,130.0447 C1316.481,140.0153 1509.2999,162.905 1669,203 C1677.7502,205.1969 1681.2035,206.0753 1690.0396,209.0196" fill="none" id="n1-to-n8" style="stroke:#181818;stroke-width:1;"/><polygon fill="#181818" points="1695.7319,210.9163,1688.4579,204.2763,1690.9883,209.3357,1685.9289,211.866,1695.7319,210.9163" style="stroke:#181818;stroke-width:1;"/></g><!--link n1 to n9--><g class="link" data-entity-1="n1" data-entity-2="n9" data-source-line="46" data-uid="lnk43" id="link_n1_n9"><path d="M1212.8072,143.0424 C1294.7261,170.7988 1440.0656,229.0722 1536,319 C1573.4828,354.1359 1603.6745,398.9063 1622.5488,429.7889" fill="none" id="n1-to-n9" style="stroke:#181818;stroke-width:1;"/><polygon fill="#181818" points="1625.6777,434.9085,1624.3974,425.1432,1623.0703,430.6422,1617.5713,429.3151,1625.6777,434.9085" style="stroke:#181818;stroke-width:1;"/></g><!--link n1 to n10--><g class="link" data-entity-1="n1" data-entity-2="n10" data-source-line="47" data-uid="lnk44" id="link_n1_n10"><path d="M1217.0099,125.5591 C1354.7266,129.8945 1682.1215,145.8612 1950,203 C1955.8633,204.2506 1956.1109,204.1556 1962.1145,205.8329" fill="none" id="n1-to-n10" style="stroke:#181818;stroke-width:1;"/><polygon fill="#181818" points="1967.8932,207.4474,1960.3014,201.1732,1963.0776,206.102,1958.1488,208.8782,1967.8932,207.4474" style="stroke:#181818;stroke-width:1;"/></g><!--link n1 to n11--><g class="link" data-entity-1="n1" data-entity-2="n11" data-source-line="48" data-uid="lnk45" id="link_n1_n11"><path d="M1129.0101,143.1295 C1106.7599,162.4853 1077.0713,188.3119 1054.7411,207.7374" fill="none" id="n1-to-n11" style="stroke:#181818;stroke-width:1;"/><polygon fill="#181818" points="1050.2143,211.6754,1059.6299,208.7863,1053.9867,208.3937,1054.3792,202.7505,1050.2143,211.6754" style="stroke:#181818;stroke-width:1;"/></g><!--link n1 to n12--><g class="link" data-entity-1="n1" data-entity-2="n12" data-source-line="49" data-uid="lnk46" id="link_n1_n12"><path d="M1189.017,143.077 C1218.1696,158.1955 1259.0333,180.4599 1293,203 C1354.3457,243.7085 1416.6309,295.181 1450.3436,323.9593" fill="none" id="n1-to-n12" style="stroke:#181818;stroke-width:1;"/><polygon fill="#181818" points="1454.907,327.8548,1450.6588,318.9692,1451.1041,324.6085,1445.4648,325.0538,1454.907,327.8548" style="stroke:#181818;stroke-width:1;"/></g><!--link n1 to n13--><g class="link" data-entity-1="n1" data-entity-2="n13" data-source-line="50" data-uid="lnk47" id="link_n1_n13"><path d="M1217.0633,128.5918 C1326.2638,137.3258 1538.304,159.4701 1598,203 C1640.5978,234.062 1659.9553,290.4847 1668.1459,321.984" fill="none" id="n1-to-n13" style="stroke:#181818;stroke-width:1;"/><polygon fill="#181818" points="1669.6558,327.7909,1671.2622,318.0739,1668.3975,322.9518,1663.5196,320.0872,1669.6558,327.7909" style="stroke:#181818;stroke-width:1;"/></g><!--link n1 to n14--><g class="link" data-entity-1="n1" data-entity-2="n14" data-source-line="51" data-uid="lnk48" id="link_n1_n14"><path d="M1158.0703,143.2842 C1163.7153,159.1605 1171.5544,182.3358 1177,203 C1198.9361,286.2395 1215.5965,380.683 1223.5094,428.7382" fill="none" id="n1-to-n14" style="stroke:#181818;stroke-width:1;"/><polygon fill="#181818" points="1224.4842,434.6585,1226.9688,425.1282,1223.6718,429.7249,1219.0751,426.428,1224.4842,434.6585" style="stroke:#181818;stroke-width:1;"/></g><!--link n1 to n15--><g class="link" data-entity-1="n1" data-entity-2="n15" data-source-line="52" data-uid="lnk49" id="link_n1_n15"><path d="M1084.7918,130.6905 C987.4565,141.3452 800.449,164.9395 645,203 C634.9555,205.4593 630.0995,206.7403 619.9999,210.0088" fill="none" id="n1-to-n15" style="stroke:#181818;stroke-width:1;"/><polygon fill="#181818" points="614.2914,211.8562,624.0858,212.8907,619.0485,210.3167,621.6225,205.2794,614.2914,211.8562" style="stroke:#181818;stroke-width:1;"/></g><!--link n1 to n16--><g class="link" data-entity-1="n1" data-entity-2="n16" data-source-line="53" data-uid="lnk50" id="link_n1_n16"><path d="M1084.8888,125.6523 C892.6127,131.0547 343.3793,150.9379 283,203 C249.8759,231.5613 245.1891,279.6918 245.8599,312.8367" fill="none" id="n1-to-n16" style="stroke:#181818;stroke-width:1;"/><polygon fill="#181818" points="245.9813,318.8355,249.7984,309.7564,245.8801,313.8365,241.8,309.9183,245.9813,318.8355" style="stroke:#181818;stroke-width:1;"/></g><!--link n1 to n17--><g class="link" data-entity-1="n1" data-entity-2="n17" data-source-line="54" data-uid="lnk51" id="link_n1_n17"><path d="M1150.9695,143.2086 C1150.3396,186.098 1145.6416,292.3803 1116,375 C1108.3125,396.4273 1098.3862,413.3249 1086.8839,429.8795" fill="none" id="n1-to-n17" style="stroke:#181818;stroke-width:1;"/><polygon fill="#181818" points="1083.4603,434.8069,1091.8806,429.6982,1086.3133,430.7008,1085.3108,425.1334,1083.4603,434.8069" style="stroke:#181818;stroke-width:1;"/></g><!--link n1 to n18--><g class="link" data-entity-1="n1" data-entity-2="n18" data-source-line="55" data-uid="lnk52" id="link_n1_n18"><path d="M1179.436,143.2876 C1199.9826,158.0969 1227.5957,179.8741 1248,203 C1280.0856,239.3652 1305.3168,283.1374 1321.2422,313.5826" fill="none" id="n1-to-n18" style="stroke:#181818;stroke-width:1;"/><polygon fill="#181818" points="1324.0232,318.8992,1323.3961,309.0703,1321.7057,314.4687,1316.3073,312.7783,1324.0232,318.8992" style="stroke:#181818;stroke-width:1;"/></g><!--link n2 to n16--><g class="link" data-entity-1="n2" data-entity-2="n16" data-source-line="56" data-uid="lnk53" id="link_n2_n16"><path d="M125.2741,250.155 C149.0043,268.8809 180.6943,293.888 207.6965,315.1959" fill="none" id="n2-to-n16" style="stroke:#181818;stroke-width:1;"/><polygon fill="#181818" points="212.4066,318.9127,207.8193,310.1974,208.4815,315.8153,202.8635,316.4775,212.4066,318.9127" style="stroke:#181818;stroke-width:1;"/></g><!--link n3 to n19--><g class="link" data-entity-1="n3" data-entity-2="n19" data-source-line="57" data-uid="lnk54" id="link_n3_n19"><path d="M384.798,250.155 C389.0595,271.648 394.7655,300.4265 399.0294,321.9311" fill="none" id="n3-to-n19" style="stroke:#181818;stroke-width:1;"/><polygon fill="#181818" points="400.1964,327.8165,402.3696,318.2104,399.2239,322.912,394.5224,319.7663,400.1964,327.8165" style="stroke:#181818;stroke-width:1;"/></g><!--link n3 to n16--><g class="link" data-entity-1="n3" data-entity-2="n16" data-source-line="58" data-uid="lnk55" id="link_n3_n16"><path d="M359.0378,250.155 C337.5676,268.8809 309.156,293.661 284.7253,314.9689" fill="none" id="n3-to-n16" style="stroke:#181818;stroke-width:1;"/><polygon fill="#181818" points="280.2035,318.9127,289.6154,316.0115,283.9716,315.6262,284.357,309.9825,280.2035,318.9127" style="stroke:#181818;stroke-width:1;"/></g><!--link n5 to n20--><g class="link" data-entity-1="n5" data-entity-2="n20" data-source-line="59" data-uid="lnk56" id="link_n5_n20"><path d="M610.1775,366.0251 C562.8438,387.5573 491.65,419.9436 444.3069,441.4801" fill="none" id="n5-to-n20" style="stroke:#181818;stroke-width:1;"/><polygon fill="#181818" points="438.8454,443.9645,448.6939,443.8788,443.3966,441.8941,445.3813,436.5969,438.8454,443.9645" style="stroke:#181818;stroke-width:1;"/></g><!--link n5 to n7--><g class="link" data-entity-1="n5" data-entity-2="n7" data-source-line="60" data-uid="lnk57" id="link_n5_n7"><path d="M587.6882,366.0606 C576.8043,369.1438 565.5989,372.2301 555,375 C441.9362,404.5478 411.9375,404.9729 299,435 C288.6325,437.7564 283.4348,439.1716 272.8055,442.2724" fill="none" id="n5-to-n7" style="stroke:#181818;stroke-width:1;"/><polygon fill="#181818" points="267.0456,443.9527,276.8057,445.2722,271.8455,442.5525,274.5653,437.5923,267.0456,443.9527" style="stroke:#181818;stroke-width:1;"/></g><!--link n5 to n21--><g class="link" data-entity-1="n5" data-entity-2="n21" data-source-line="61" data-uid="lnk58" id="link_n5_n21"><path d="M640.9363,366.155 C630.1577,384.8166 616.6448,408.2119 604.3508,429.4972" fill="none" id="n5-to-n21" style="stroke:#181818;stroke-width:1;"/><polygon fill="#181818" points="601.3499,434.6928,609.315,428.9,603.8507,430.3631,602.3875,424.8988,601.3499,434.6928" style="stroke:#181818;stroke-width:1;"/></g><!--link n5 to n22--><g class="link" data-entity-1="n5" data-entity-2="n22" data-source-line="62" data-uid="lnk59" id="link_n5_n22"><path d="M669.1735,366.155 C685.9045,384.8166 707.5325,408.9401 726.6158,430.2254" fill="none" id="n5-to-n22" style="stroke:#181818;stroke-width:1;"/><polygon fill="#181818" points="730.6211,434.6928,727.5915,425.3215,727.2834,430.9699,721.6349,430.6618,730.6211,434.6928" style="stroke:#181818;stroke-width:1;"/></g><!--link n8 to n23--><g class="link" data-entity-1="n8" data-entity-2="n23" data-source-line="63" data-uid="lnk60" id="link_n8_n23"><path d="M1777.7114,259.238 C1814.9099,296.2118 1878.0964,364.6378 1914,435 C1933.6244,473.4591 1942.4612,517.7712 1946.5739,544.8183" fill="none" id="n8-to-n23" style="stroke:#181818;stroke-width:1;"/><polygon fill="#181818" points="1947.4759,550.7501,1950.0775,541.2511,1946.7243,545.8069,1942.1684,542.4537,1947.4759,550.7501" style="stroke:#181818;stroke-width:1;"/></g><!--link n11 to n5--><g class="link" data-entity-1="n11" data-entity-2="n5" data-source-line="64" data-uid="lnk61" id="link_n11_n5"><path d="M964.4857,250.0256 C905.8715,267.658 816.4546,294.7453 739,319 C729.9148,321.845 726.0239,323.0662 716.6409,326.0681" fill="none" id="n11-to-n5" style="stroke:#181818;stroke-width:1;"/><polygon fill="#181818" points="710.9262,327.8964,720.7171,328.9637,715.6884,326.3728,718.2793,321.3442,710.9262,327.8964" style="stroke:#181818;stroke-width:1;"/></g><!--link n11 to n12--><g class="link" data-entity-1="n11" data-entity-2="n12" data-source-line="65" data-uid="lnk62" id="link_n11_n12"><path d="M1097.6191,241.9145 C1176.6454,255.398 1308.7617,281.2761 1418,319 C1425.2875,321.5166 1427.4053,322.1867 1434.6066,325.4638" fill="none" id="n11-to-n12" style="stroke:#181818;stroke-width:1;"/><polygon fill="#181818" points="1440.0677,327.949,1433.5328,320.5805,1435.5168,325.878,1430.2192,327.862,1440.0677,327.949" style="stroke:#181818;stroke-width:1;"/></g><!--link n11 to n24--><g class="link" data-entity-1="n11" data-entity-2="n24" data-source-line="66" data-uid="lnk63" id="link_n11_n24"><path d="M997.6161,250.155 C967.913,268.8809 927.4266,294.405 893.6279,315.7129" fill="none" id="n11-to-n24" style="stroke:#181818;stroke-width:1;"/><polygon fill="#181818" points="888.5523,318.9127,898.2988,317.4967,892.7819,316.2462,894.0324,310.7293,888.5523,318.9127" style="stroke:#181818;stroke-width:1;"/></g><!--link n11 to n25--><g class="link" data-entity-1="n11" data-entity-2="n25" data-source-line="67" data-uid="lnk64" id="link_n11_n25"><path d="M1028.6605,250.155 C1029.304,268.8166 1030.0831,291.4111 1030.8171,312.6964" fill="none" id="n11-to-n25" style="stroke:#181818;stroke-width:1;"/><polygon fill="#181818" points="1031.0239,318.6928,1034.7114,309.5603,1030.8516,313.6958,1026.7161,309.836,1031.0239,318.6928" style="stroke:#181818;stroke-width:1;"/></g><!--link n12 to n26--><g class="link" data-entity-1="n12" data-entity-2="n26" data-source-line="68" data-uid="lnk65" id="link_n12_n26"><path d="M1476.0092,366.155 C1475.044,384.8166 1473.875,407.4155 1472.7741,428.7008" fill="none" id="n12-to-n26" style="stroke:#181818;stroke-width:1;"/><polygon fill="#181818" points="1472.4642,434.6928,1476.9237,425.9114,1472.7225,429.6995,1468.9344,425.4982,1472.4642,434.6928" style="stroke:#181818;stroke-width:1;"/></g><!--link n12 to n9--><g class="link" data-entity-1="n12" data-entity-2="n9" data-source-line="69" data-uid="lnk66" id="link_n12_n9"><path d="M1504.2464,366.155 C1530.8823,384.8809 1566.8312,410.154 1597.1398,431.4619" fill="none" id="n12-to-n9" style="stroke:#181818;stroke-width:1;"/><polygon fill="#181818" points="1602.0482,434.9127,1596.9861,426.4643,1597.9579,432.0371,1592.3851,433.0088,1602.0482,434.9127" style="stroke:#181818;stroke-width:1;"/></g><!--link n13 to n27--><g class="link" data-entity-1="n13" data-entity-2="n27" data-source-line="70" data-uid="lnk67" id="link_n13_n27"><path d="M1698.1089,366.155 C1721.6777,384.8809 1753.1325,409.8723 1779.951,431.1802" fill="none" id="n13-to-n27" style="stroke:#181818;stroke-width:1;"/><polygon fill="#181818" points="1784.6487,434.9127,1780.0904,426.1822,1780.7339,431.8023,1775.1138,432.4458,1784.6487,434.9127" style="stroke:#181818;stroke-width:1;"/></g><!--link n13 to n9--><g class="link" data-entity-1="n13" data-entity-2="n9" data-source-line="71" data-uid="lnk68" id="link_n13_n9"><path d="M1668.7159,366.155 C1663.5678,384.8166 1657.2763,407.6235 1651.4045,428.9088" fill="none" id="n13-to-n9" style="stroke:#181818;stroke-width:1;"/><polygon fill="#181818" points="1649.8089,434.6928,1656.0582,427.0806,1651.1385,429.8728,1648.3463,424.9532,1649.8089,434.6928" style="stroke:#181818;stroke-width:1;"/></g><!--link n15 to n19--><g class="link" data-entity-1="n15" data-entity-2="n19" data-source-line="72" data-uid="lnk69" id="link_n15_n19"><path d="M535.9095,250.155 C506.6347,271.648 464.2564,302.7611 434.9657,324.2657" fill="none" id="n15-to-n19" style="stroke:#181818;stroke-width:1;"/><polygon fill="#181818" points="430.1292,327.8165,439.7511,325.7146,434.1596,324.8575,435.0167,319.2659,430.1292,327.8165" style="stroke:#181818;stroke-width:1;"/></g><!--link n17 to n28--><g class="link" data-entity-1="n17" data-entity-2="n28" data-source-line="73" data-uid="lnk70" id="link_n17_n28"><path d="M1030.7342,491.113 C1009.7999,509.9362 987.257,530.2059 968.7707,546.828" fill="none" id="n17-to-n28" style="stroke:#181818;stroke-width:1;"/><polygon fill="#181818" points="964.3091,550.8397,973.676,547.7966,968.0271,547.4966,968.3271,541.8477,964.3091,550.8397" style="stroke:#181818;stroke-width:1;"/></g><!--link n18 to n14--><g class="link" data-entity-1="n18" data-entity-2="n14" data-source-line="74" data-uid="lnk71" id="link_n18_n14"><path d="M1311.6141,375.0804 C1294.6026,393.1844 1276.6674,412.2715 1259.6294,430.4037" fill="none" id="n18-to-n14" style="stroke:#181818;stroke-width:1;"/><polygon fill="#181818" points="1255.5207,434.7762,1264.5987,430.9565,1258.9446,431.1324,1258.7687,425.4783,1255.5207,434.7762" style="stroke:#181818;stroke-width:1;"/></g><!--link n18 to n28--><g class="link" data-entity-1="n18" data-entity-2="n28" data-source-line="75" data-uid="lnk72" id="link_n18_n28"><path d="M1341.6247,375.171 C1344.0963,407.5544 1342.6456,460.1919 1313,491 C1267.9684,537.7976 1077.7079,558.9252 990.7354,566.3493" fill="none" id="n18-to-n28" style="stroke:#181818;stroke-width:1;"/><polygon fill="#181818" points="984.7571,566.8596,994.0647,570.0796,989.739,566.4343,993.3843,562.1086,984.7571,566.8596" style="stroke:#181818;stroke-width:1;"/></g><!--link n20 to n29--><g class="link" data-entity-1="n20" data-entity-2="n29" data-source-line="76" data-uid="lnk73" id="link_n20_n29"><path d="M397,482.1295 C397,501.4853 397,525.2499 397,544.6754" fill="none" id="n20-to-n29" style="stroke:#181818;stroke-width:1;"/><polygon fill="#181818" points="397,550.6754,401,541.6754,397,545.6754,393,541.6754,397,550.6754" style="stroke:#181818;stroke-width:1;"/></g><!--link n22 to n28--><g class="link" data-entity-1="n22" data-entity-2="n28" data-source-line="77" data-uid="lnk74" id="link_n22_n28"><path d="M805.132,491.113 C838.0287,509.9362 875.2567,531.2378 904.3065,547.8599" fill="none" id="n22-to-n28" style="stroke:#181818;stroke-width:1;"/><polygon fill="#181818" points="909.5142,550.8397,903.6891,542.8981,905.1744,548.3565,899.716,549.8418,909.5142,550.8397" style="stroke:#181818;stroke-width:1;"/></g><!--link n23 to n30--><g class="link" data-entity-1="n23" data-entity-2="n30" data-source-line="78" data-uid="lnk75" id="link_n23_n30"><path d="M1938.2005,589.1295 C1926.2614,608.4853 1911.0518,633.1432 1899.0698,652.5687" fill="none" id="n23-to-n30" style="stroke:#181818;stroke-width:1;"/><polygon fill="#181818" points="1895.9199,657.6754,1904.0492,652.1153,1898.5448,653.4198,1897.2403,647.9155,1895.9199,657.6754" style="stroke:#181818;stroke-width:1;"/></g><!--link n24 to n28--><g class="link" data-entity-1="n24" data-entity-2="n28" data-source-line="79" data-uid="lnk76" id="link_n24_n28"><path d="M856.5384,375.2431 C876.9863,421.3025 914.55,505.9158 932.0384,545.3087" fill="none" id="n24-to-n28" style="stroke:#181818;stroke-width:1;"/><polygon fill="#181818" points="934.473,550.7926,934.4771,540.9437,932.4442,546.2227,927.1652,544.1898,934.473,550.7926" style="stroke:#181818;stroke-width:1;"/></g><!--link n25 to n14--><g class="link" data-entity-1="n25" data-entity-2="n14" data-source-line="80" data-uid="lnk77" id="link_n25_n14"><path d="M1079.6882,375.0804 C1110.5476,393.2514 1145.3996,413.7734 1176.2396,431.933" fill="none" id="n25-to-n14" style="stroke:#181818;stroke-width:1;"/><polygon fill="#181818" points="1181.4099,434.9774,1175.6841,426.9639,1177.1014,432.4404,1171.6249,433.8576,1181.4099,434.9774" style="stroke:#181818;stroke-width:1;"/></g><!--link n25 to n28--><g class="link" data-entity-1="n25" data-entity-2="n28" data-source-line="81" data-uid="lnk78" id="link_n25_n28"><path d="M1012.1886,375.2392 C1001.1681,391.9856 987.9181,413.9856 979,435 C962.2275,474.5223 952.555,518.0332 947.4935,544.7624" fill="none" id="n25-to-n28" style="stroke:#181818;stroke-width:1;"/><polygon fill="#181818" points="946.3772,550.6576,951.9819,542.559,947.3075,545.7449,944.1215,541.0705,946.3772,550.6576" style="stroke:#181818;stroke-width:1;"/></g><!--link n26 to n31--><g class="link" data-entity-1="n26" data-entity-2="n31" data-source-line="82" data-uid="lnk79" id="link_n26_n31"><path d="M1540.6274,485.239 C1546.8373,487.1968 1553.0304,489.1399 1559,491 C1625.7623,511.8023 1696.6411,533.3656 1749.1242,549.2374" fill="none" id="n26-to-n31" style="stroke:#181818;stroke-width:1;"/><polygon fill="#181818" points="1754.8673,550.9742,1747.4105,544.5402,1750.0814,549.5269,1745.0947,552.1977,1754.8673,550.9742" style="stroke:#181818;stroke-width:1;"/></g><!--link n27 to n31--><g class="link" data-entity-1="n27" data-entity-2="n31" data-source-line="83" data-uid="lnk80" id="link_n27_n31"><path d="M1819.4745,491.113 C1819.1227,509.9362 1818.7809,528.2186 1818.4702,544.8407" fill="none" id="n27-to-n31" style="stroke:#181818;stroke-width:1;"/><polygon fill="#181818" points="1818.3581,550.8397,1822.5256,541.916,1818.4515,545.8406,1814.527,541.7665,1818.3581,550.8397" style="stroke:#181818;stroke-width:1;"/></g><!--link n29 to n32--><g class="link" data-entity-1="n29" data-entity-2="n32" data-source-line="84" data-uid="lnk81" id="link_n29_n32"><path d="M397,589.1295 C397,605.7202 397,623.9582 397,642.7777" fill="none" id="n29-to-n32" style="stroke:#181818;stroke-width:1;"/><polygon fill="#181818" points="397,648.7777,401,639.7777,397,643.7777,393,639.7777,397,648.7777" style="stroke:#181818;stroke-width:1;"/></g><!--link n31 to n30--><g class="link" data-entity-1="n31" data-entity-2="n30" data-source-line="85" data-uid="lnk82" id="link_n31_n30"><path d="M1829.7995,589.1295 C1841.7386,608.4853 1856.9482,633.1432 1868.9302,652.5687" fill="none" id="n31-to-n30" style="stroke:#181818;stroke-width:1;"/><polygon fill="#181818" points="1872.0801,657.6754,1870.7597,647.9155,1869.4552,653.4198,1863.9508,652.1153,1872.0801,657.6754" style="stroke:#181818;stroke-width:1;"/></g><!--SRC=[TLHDSziW4BtdLtZII-kPj4Qo9NacaqDxxK_e34F4nYAMG0KKs_trNHaaK8nFUjfzxDTRU3RsqiBBm_CF3ynHo9vfrgrUMNqyQ3L8_akrIg-iPjAW2wHzq51R9Wyjh1xNwrfr7KNB1xMD1iQfiKpRzVfnnSnARbPVVej3Ot-s0yJduWDlWwmTcyIKke7wI9daTEWviq0D62EKTDJibje0Qsr3hUX03TRHybkQqJLbd6j7sCO4hfcGhfcJa5oT76SNSmvWQMTefwHotYBsIcN5ssKgXRNY0nohZ5az3XV3u3WD_95VtU_t-fkZLWdgIMWSWFYNeEyNT6KrvL3hIs-HUlqgsWevdES3PBCueLMDWwKuCj2qF_h1aOKM1b06YNczCxjnQdX7YtVdI_TVENGK1-jcYcKvKoXe8O9NksSum54Aprc8u29XJ35swVv2k291lOgAwzqd-6M2VsqAjKxGgvjrm5smIeffYnUAS1YN02VBBgt2ROSMEh_2cuJGWnm1bN2sjr9dv5vdlKeqbYraabOrnTPxydk1900tLwaJyRPtqm-cIV1tYGPV1z7oAS7d_egx1zn-9Ovy5W-NWiFPEwkRDyVBuVqBfHhKS1fGlj3cJRJjzFpGPdewSfAwUQhhDJB7o-VXf-kNPm_uB3uzlOpldIGEPJFAPxITqMv6nOpA6LKpsiy8x_WCGnOIqf2GXuH496GY8HK9kN3vPHO8kOVx0D6wyprjPbW68maGgway7Ak9cethdIQqZV38yMLaHS1Z_xwEh0nuDEz2fQJqb75mLJI3AjWphn1k2DOPsNr8t0-iABBlGfm9N-s5vsFRMHdXlSVOOJufl_aF]--></g></svg>