<svg xmlns="http://www.w3.org/2000/svg" xmlns:xlink="http://www.w3.org/1999/xlink" contentStyleType="text/css" data-diagram-type="DESCRIPTION" height="540px" preserveAspectRatio="none" style="width:1695px;height:540px;" version="1.1" viewBox="0 0 1695 540" width="1695px" zoomAndPan="magnify"><defs/><g><!--entity n9--><g class="entity" data-entity="n9" data-source-line="5" data-uid="ent0002" id="entity_n9"><rect fill="#F1F1F1" height="37.7799" rx="2.5" ry="2.5" style="stroke:#181818;stroke-width:0.5;" width="75.9998" x="818" y="301"/><text fill="#000000" font-family="'Segoe UI', 'メイリオ', 'UDEV Gothic HSRFJPDOC', 'Hiragino Kaku Gothic ProN', 'ヒラギノ角ゴ ProN', 'Noto Sans JP', 'Helvetica Neue', Helvetica, Arial, sans-serif" font-size="14" lengthAdjust="spacing" textLength="55.9998" x="828" y="324.9999">porter.h</text></g><!--entity n8--><g class="entity" data-entity="n8" data-source-line="6" data-uid="ent0003" id="entity_n8"><rect fill="#F1F1F1" height="37.7799" rx="2.5" ry="2.5" style="stroke:#181818;stroke-width:0.5;" width="117.9996" x="321" y="7"/><text fill="#000000" font-family="'Segoe UI', 'メイリオ', 'UDEV Gothic HSRFJPDOC', 'Hiragino Kaku Gothic ProN', 'ヒラギノ角ゴ ProN', 'Noto Sans JP', 'Helvetica Neue', Helvetica, Arial, sans-serif" font-size="14" lengthAdjust="spacing" textLength="97.9996" x="331" y="30.9999">porter_const.h</text></g><!--entity n10--><g class="entity" data-entity="n10" data-source-line="7" data-uid="ent0004" id="entity_n10"><rect fill="#F1F1F1" height="37.7799" rx="2.5" ry="2.5" style="stroke:#181818;stroke-width:0.5;" width="110.9996" x="627.5" y="105"/><text fill="#000000" font-family="'Segoe UI', 'メイリオ', 'UDEV Gothic HSRFJPDOC', 'Hiragino Kaku Gothic ProN', 'ヒラギノ角ゴ ProN', 'Noto Sans JP', 'Helvetica Neue', Helvetica, Arial, sans-serif" font-size="14" lengthAdjust="spacing" textLength="90.9996" x="637.5" y="128.9999">porter_type.h</text></g><!--entity n1--><g class="entity" data-entity="n1" data-source-line="8" data-uid="ent0005" id="entity_n1"><rect fill="#ADD8E6" height="37.7799" rx="2.5" ry="2.5" style="stroke:#181818;stroke-width:0.5;" width="153.8745" x="799" y="497"/><text fill="#000000" font-family="'Segoe UI', 'メイリオ', 'UDEV Gothic HSRFJPDOC', 'Hiragino Kaku Gothic ProN', 'ヒラギノ角ゴ ProN', 'Noto Sans JP', 'Helvetica Neue', Helvetica, Arial, sans-serif" font-size="14" font-weight="bold" lengthAdjust="spacing" textLength="133.8745" x="809" y="520.9999">potrCloseService.c</text></g><!--entity n15--><g class="entity" data-entity="n15" data-source-line="9" data-uid="ent0006" id="entity_n15"><rect fill="#F1F1F1" height="37.7799" rx="2.5" ry="2.5" style="stroke:#181818;stroke-width:0.5;" width="89.9997" x="391" y="105"/><text fill="#000000" font-family="'Segoe UI', 'メイリオ', 'UDEV Gothic HSRFJPDOC', 'Hiragino Kaku Gothic ProN', 'ヒラギノ角ゴ ProN', 'Noto Sans JP', 'Helvetica Neue', Helvetica, Arial, sans-serif" font-size="14" lengthAdjust="spacing" textLength="69.9997" x="401" y="128.9999">compress.h</text></g><!--entity n16--><g class="entity" data-entity="n16" data-source-line="10" data-uid="ent0007" id="entity_n16"><rect fill="#F1F1F1" height="37.7799" rx="2.5" ry="2.5" style="stroke:#181818;stroke-width:0.5;" width="75.9998" x="516" y="105"/><text fill="#000000" font-family="'Segoe UI', 'メイリオ', 'UDEV Gothic HSRFJPDOC', 'Hiragino Kaku Gothic ProN', 'ヒラギノ角ゴ ProN', 'Noto Sans JP', 'Helvetica Neue', Helvetica, Arial, sans-serif" font-size="14" lengthAdjust="spacing" textLength="55.9998" x="526" y="128.9999">crypto.h</text></g><!--entity n24--><g class="entity" data-entity="n24" data-source-line="11" data-uid="ent0008" id="entity_n24"><rect fill="#F1F1F1" height="37.7799" rx="2.5" ry="2.5" style="stroke:#181818;stroke-width:0.5;" width="82.9997" x="699.5" y="301"/><text fill="#000000" font-family="'Segoe UI', 'メイリオ', 'UDEV Gothic HSRFJPDOC', 'Hiragino Kaku Gothic ProN', 'ヒラギノ角ゴ ProN', 'Noto Sans JP', 'Helvetica Neue', Helvetica, Arial, sans-serif" font-size="14" lengthAdjust="spacing" textLength="62.9997" x="709.5" y="324.9999">potrLog.h</text></g><!--entity n17--><g class="entity" data-entity="n17" data-source-line="12" data-uid="ent0009" id="entity_n17"><rect fill="#F1F1F1" height="37.7799" rx="2.5" ry="2.5" style="stroke:#181818;stroke-width:0.5;" width="124.9995" x="105.5" y="203"/><text fill="#000000" font-family="'Segoe UI', 'メイリオ', 'UDEV Gothic HSRFJPDOC', 'Hiragino Kaku Gothic ProN', 'ヒラギノ角ゴ ProN', 'Noto Sans JP', 'Helvetica Neue', Helvetica, Arial, sans-serif" font-size="14" lengthAdjust="spacing" textLength="104.9995" x="115.5" y="226.9999">potrSendQueue.h</text></g><!--entity n13--><g class="entity" data-entity="n13" data-source-line="13" data-uid="ent0010" id="entity_n13"><rect fill="#F1F1F1" height="37.7799" rx="2.5" ry="2.5" style="stroke:#181818;stroke-width:0.5;" width="110.9996" x="426.5" y="301"/><text fill="#000000" font-family="'Segoe UI', 'メイリオ', 'UDEV Gothic HSRFJPDOC', 'Hiragino Kaku Gothic ProN', 'ヒラギノ角ゴ ProN', 'Noto Sans JP', 'Helvetica Neue', Helvetica, Arial, sans-serif" font-size="14" lengthAdjust="spacing" textLength="90.9996" x="436.5" y="324.9999">potrContext.h</text></g><!--entity n22--><g class="entity" data-entity="n22" data-source-line="14" data-uid="ent0011" id="entity_n22"><rect fill="#F1F1F1" height="37.7799" rx="2.5" ry="2.5" style="stroke:#181818;stroke-width:0.5;" width="75.9998" x="879" y="203"/><text fill="#000000" font-family="'Segoe UI', 'メイリオ', 'UDEV Gothic HSRFJPDOC', 'Hiragino Kaku Gothic ProN', 'ヒラギノ角ゴ ProN', 'Noto Sans JP', 'Helvetica Neue', Helvetica, Arial, sans-serif" font-size="14" lengthAdjust="spacing" textLength="55.9998" x="889" y="226.9999">packet.h</text></g><!--entity n14--><g class="entity" data-entity="n14" data-source-line="15" data-uid="ent0012" id="entity_n14"><rect fill="#F1F1F1" height="37.7799" rx="2.5" ry="2.5" style="stroke:#181818;stroke-width:0.5;" width="75.9998" x="612" y="203"/><text fill="#000000" font-family="'Segoe UI', 'メイリオ', 'UDEV Gothic HSRFJPDOC', 'Hiragino Kaku Gothic ProN', 'ヒラギノ角ゴ ProN', 'Noto Sans JP', 'Helvetica Neue', Helvetica, Arial, sans-serif" font-size="14" lengthAdjust="spacing" textLength="55.9998" x="622" y="226.9999">window.h</text></g><!--entity n20--><g class="entity" data-entity="n20" data-source-line="16" data-uid="ent0013" id="entity_n20"><rect fill="#F1F1F1" height="37.7799" rx="2.5" ry="2.5" style="stroke:#181818;stroke-width:0.5;" width="145.9995" x="535" y="399"/><text fill="#000000" font-family="'Segoe UI', 'メイリオ', 'UDEV Gothic HSRFJPDOC', 'Hiragino Kaku Gothic ProN', 'ヒラギノ角ゴ ProN', 'Noto Sans JP', 'Helvetica Neue', Helvetica, Arial, sans-serif" font-size="14" lengthAdjust="spacing" textLength="125.9995" x="545" y="422.9999">potrHealthThread.h</text></g><!--entity n19--><g class="entity" data-entity="n19" data-source-line="17" data-uid="ent0014" id="entity_n19"><rect fill="#F1F1F1" height="37.7799" rx="2.5" ry="2.5" style="stroke:#181818;stroke-width:0.5;" width="131.9995" x="130" y="399"/><text fill="#000000" font-family="'Segoe UI', 'メイリオ', 'UDEV Gothic HSRFJPDOC', 'Hiragino Kaku Gothic ProN', 'ヒラギノ角ゴ ProN', 'Noto Sans JP', 'Helvetica Neue', Helvetica, Arial, sans-serif" font-size="14" lengthAdjust="spacing" textLength="111.9995" x="140" y="422.9999">potrRecvThread.h</text></g><!--entity n21--><g class="entity" data-entity="n21" data-source-line="18" data-uid="ent0015" id="entity_n21"><rect fill="#F1F1F1" height="37.7799" rx="2.5" ry="2.5" style="stroke:#181818;stroke-width:0.5;" width="131.9995" x="297" y="399"/><text fill="#000000" font-family="'Segoe UI', 'メイリオ', 'UDEV Gothic HSRFJPDOC', 'Hiragino Kaku Gothic ProN', 'ヒラギノ角ゴ ProN', 'Noto Sans JP', 'Helvetica Neue', Helvetica, Arial, sans-serif" font-size="14" lengthAdjust="spacing" textLength="111.9995" x="307" y="422.9999">potrSendThread.h</text></g><!--entity n23--><g class="entity" data-entity="n23" data-source-line="19" data-uid="ent0016" id="entity_n23"><rect fill="#F1F1F1" height="37.7799" rx="2.5" ry="2.5" style="stroke:#181818;stroke-width:0.5;" width="103.9996" x="1071" y="399"/><text fill="#000000" font-family="'Segoe UI', 'メイリオ', 'UDEV Gothic HSRFJPDOC', 'Hiragino Kaku Gothic ProN', 'ヒラギノ角ゴ ProN', 'Noto Sans JP', 'Helvetica Neue', Helvetica, Arial, sans-serif" font-size="14" lengthAdjust="spacing" textLength="83.9996" x="1081" y="422.9999">potrIpAddr.h</text></g><!--entity n4--><g class="entity" data-entity="n4" data-source-line="20" data-uid="ent0017" id="entity_n4"><rect fill="#F1F1F1" height="37.7799" rx="2.5" ry="2.5" style="stroke:#181818;stroke-width:0.5;" width="61.9998" x="1178" y="301"/><text fill="#000000" font-family="'Segoe UI', 'メイリオ', 'UDEV Gothic HSRFJPDOC', 'Hiragino Kaku Gothic ProN', 'ヒラギノ角ゴ ProN', 'Noto Sans JP', 'Helvetica Neue', Helvetica, Arial, sans-serif" font-size="14" lengthAdjust="spacing" textLength="41.9998" x="1188" y="324.9999">inet.h</text></g><!--entity n5--><g class="entity" data-entity="n5" data-source-line="21" data-uid="ent0018" id="entity_n5"><rect fill="#F1F1F1" height="37.7799" rx="2.5" ry="2.5" style="stroke:#181818;stroke-width:0.5;" width="47.9999" x="994" y="203"/><text fill="#000000" font-family="'Segoe UI', 'メイリオ', 'UDEV Gothic HSRFJPDOC', 'Hiragino Kaku Gothic ProN', 'ヒラギノ角ゴ ProN', 'Noto Sans JP', 'Helvetica Neue', Helvetica, Arial, sans-serif" font-size="14" lengthAdjust="spacing" textLength="27.9999" x="1004" y="226.9999">in.h</text></g><!--entity n18--><g class="entity" data-entity="n18" data-source-line="22" data-uid="ent0019" id="entity_n18"><rect fill="#F1F1F1" height="37.7799" rx="2.5" ry="2.5" style="stroke:#181818;stroke-width:0.5;" width="82.9997" x="201.5" y="105"/><text fill="#000000" font-family="'Segoe UI', 'メイリオ', 'UDEV Gothic HSRFJPDOC', 'Hiragino Kaku Gothic ProN', 'ヒラギノ角ゴ ProN', 'Noto Sans JP', 'Helvetica Neue', Helvetica, Arial, sans-serif" font-size="14" lengthAdjust="spacing" textLength="62.9997" x="211.5" y="128.9999">pthread.h</text></g><!--entity n11--><g class="entity" data-entity="n11" data-source-line="23" data-uid="ent0020" id="entity_n11"><rect fill="#F1F1F1" height="37.7799" rx="2.5" ry="2.5" style="stroke:#181818;stroke-width:0.5;" width="75.9998" x="516" y="7"/><text fill="#000000" font-family="'Segoe UI', 'メイリオ', 'UDEV Gothic HSRFJPDOC', 'Hiragino Kaku Gothic ProN', 'ヒラギノ角ゴ ProN', 'Noto Sans JP', 'Helvetica Neue', Helvetica, Arial, sans-serif" font-size="14" lengthAdjust="spacing" textLength="55.9998" x="526" y="30.9999">stddef.h</text></g><!--entity n12--><g class="entity" data-entity="n12" data-source-line="24" data-uid="ent0021" id="entity_n12"><rect fill="#F1F1F1" height="37.7799" rx="2.5" ry="2.5" style="stroke:#181818;stroke-width:0.5;" width="75.9998" x="645" y="7"/><text fill="#000000" font-family="'Segoe UI', 'メイリオ', 'UDEV Gothic HSRFJPDOC', 'Hiragino Kaku Gothic ProN', 'ヒラギノ角ゴ ProN', 'Noto Sans JP', 'Helvetica Neue', Helvetica, Arial, sans-serif" font-size="14" lengthAdjust="spacing" textLength="55.9998" x="655" y="30.9999">stdint.h</text></g><!--entity n2--><g class="entity" data-entity="n2" data-source-line="25" data-uid="ent0022" id="entity_n2"><rect fill="#F1F1F1" height="37.7799" rx="2.5" ry="2.5" style="stroke:#181818;stroke-width:0.5;" width="75.9998" x="1281" y="399"/><text fill="#000000" font-family="'Segoe UI', 'メイリオ', 'UDEV Gothic HSRFJPDOC', 'Hiragino Kaku Gothic ProN', 'ヒラギノ角ゴ ProN', 'Noto Sans JP', 'Helvetica Neue', Helvetica, Arial, sans-serif" font-size="14" lengthAdjust="spacing" textLength="55.9998" x="1291" y="422.9999">stdlib.h</text></g><!--entity n3--><g class="entity" data-entity="n3" data-source-line="26" data-uid="ent0023" id="entity_n3"><rect fill="#F1F1F1" height="37.7799" rx="2.5" ry="2.5" style="stroke:#181818;stroke-width:0.5;" width="75.9998" x="1392" y="399"/><text fill="#000000" font-family="'Segoe UI', 'メイリオ', 'UDEV Gothic HSRFJPDOC', 'Hiragino Kaku Gothic ProN', 'ヒラギノ角ゴ ProN', 'Noto Sans JP', 'Helvetica Neue', Helvetica, Arial, sans-serif" font-size="14" lengthAdjust="spacing" textLength="55.9998" x="1402" y="422.9999">string.h</text></g><!--entity n6--><g class="entity" data-entity="n6" data-source-line="27" data-uid="ent0024" id="entity_n6"><rect fill="#F1F1F1" height="37.7799" rx="2.5" ry="2.5" style="stroke:#181818;stroke-width:0.5;" width="75.9998" x="1503" y="399"/><text fill="#000000" font-family="'Segoe UI', 'メイリオ', 'UDEV Gothic HSRFJPDOC', 'Hiragino Kaku Gothic ProN', 'ヒラギノ角ゴ ProN', 'Noto Sans JP', 'Helvetica Neue', Helvetica, Arial, sans-serif" font-size="14" lengthAdjust="spacing" textLength="55.9998" x="1513" y="422.9999">socket.h</text></g><!--entity n7--><g class="entity" data-entity="n7" data-source-line="28" data-uid="ent0025" id="entity_n7"><rect fill="#F1F1F1" height="37.7799" rx="2.5" ry="2.5" style="stroke:#181818;stroke-width:0.5;" width="75.9998" x="1614" y="399"/><text fill="#000000" font-family="'Segoe UI', 'メイリオ', 'UDEV Gothic HSRFJPDOC', 'Hiragino Kaku Gothic ProN', 'ヒラギノ角ゴ ProN', 'Noto Sans JP', 'Helvetica Neue', Helvetica, Arial, sans-serif" font-size="14" lengthAdjust="spacing" textLength="55.9998" x="1624" y="422.9999">unistd.h</text></g><!--link n10 to n9--><g class="link" data-entity-1="n10" data-entity-2="n9" data-source-line="29" data-uid="lnk26" id="link_n10_n9"><path d="M699.903,143.1502 C732.9765,180.6208 801.9293,258.7407 835.0579,296.2737" fill="none" id="n10-to-n9" style="stroke:#181818;stroke-width:1;"/><polygon fill="#181818" points="839.0284,300.7721,836.0716,291.3776,835.7197,297.0235,830.0738,296.6716,839.0284,300.7721" style="stroke:#181818;stroke-width:1;"/></g><!--link n11 to n10--><g class="link" data-entity-1="n11" data-entity-2="n10" data-source-line="30" data-uid="lnk27" id="link_n11_n10"><path d="M579.1787,45.128 C601.9089,62.3959 630.3966,84.0377 653.1071,101.2906" fill="none" id="n11-to-n10" style="stroke:#181818;stroke-width:1;"/><polygon fill="#181818" points="657.8848,104.9202,653.138,96.2907,653.9034,101.8956,648.2986,102.661,657.8848,104.9202" style="stroke:#181818;stroke-width:1;"/></g><!--link n12 to n10--><g class="link" data-entity-1="n12" data-entity-2="n10" data-source-line="31" data-uid="lnk28" id="link_n12_n10"><path d="M683,45.3616 C683,62.5424 683,81.51 683,98.6786" fill="none" id="n12-to-n10" style="stroke:#181818;stroke-width:1;"/><polygon fill="#181818" points="683,104.6786,687,95.6786,683,99.6786,679,95.6786,683,104.6786" style="stroke:#181818;stroke-width:1;"/></g><!--link n8 to n10--><g class="link" data-entity-1="n8" data-entity-2="n10" data-source-line="32" data-uid="lnk29" id="link_n8_n10"><path d="M438.7807,45.0116 C493.3357,62.6564 568.2453,86.8846 621.7404,104.1867" fill="none" id="n8-to-n10" style="stroke:#181818;stroke-width:1;"/><polygon fill="#181818" points="627.4492,106.0331,620.1169,99.4576,622.6918,104.4944,617.655,107.0693,627.4492,106.0331" style="stroke:#181818;stroke-width:1;"/></g><!--link n2 to n1--><g class="link" data-entity-1="n2" data-entity-2="n1" data-source-line="33" data-uid="lnk30" id="link_n2_n1"><path d="M1280.9848,429.654 C1272.1617,432.2078 1262.7821,434.8024 1254,437 C1150.5905,462.8775 1035.7123,485.9606 959.0365,500.5902" fill="none" id="n2-to-n1" style="stroke:#181818;stroke-width:1;"/><polygon fill="#181818" points="953.1428,501.7147,962.733,503.9571,958.0542,500.7776,961.2337,496.0988,953.1428,501.7147" style="stroke:#181818;stroke-width:1;"/></g><!--link n3 to n1--><g class="link" data-entity-1="n3" data-entity-2="n1" data-source-line="34" data-uid="lnk31" id="link_n3_n1"><path d="M1391.794,432.1595 C1386.2078,433.9483 1380.4886,435.6288 1375,437 C1227.9975,473.7253 1058.1277,496.1858 959.3141,507.3482" fill="none" id="n3-to-n1" style="stroke:#181818;stroke-width:1;"/><polygon fill="#181818" points="953.352,508.0217,962.7441,510.9862,958.3204,507.4604,961.8461,503.0367,953.352,508.0217" style="stroke:#181818;stroke-width:1;"/></g><!--link n4 to n1--><g class="link" data-entity-1="n4" data-entity-2="n1" data-source-line="35" data-uid="lnk32" id="link_n4_n1"><path d="M1212.3483,339.2676 C1215.6223,364.9128 1217.0957,410.1418 1193,437 C1161.4212,472.1993 1042.4267,494.2291 959.151,505.8917" fill="none" id="n4-to-n1" style="stroke:#181818;stroke-width:1;"/><polygon fill="#181818" points="953.209,506.7239,962.6768,509.437,958.1607,506.0304,961.5672,501.5143,953.209,506.7239" style="stroke:#181818;stroke-width:1;"/></g><!--link n5 to n1--><g class="link" data-entity-1="n5" data-entity-2="n1" data-source-line="36" data-uid="lnk33" id="link_n5_n1"><path d="M1010.4878,241.0507 C995.3256,279.0031 959.3966,366.4657 923,437 C912.1691,457.9896 901.3417,476.0317 891.443,491.8073" fill="none" id="n5-to-n1" style="stroke:#181818;stroke-width:1;"/><polygon fill="#181818" points="888.254,496.8896,896.4257,491.3921,890.9115,492.6543,889.6493,487.1401,888.254,496.8896" style="stroke:#181818;stroke-width:1;"/></g><!--link n6 to n1--><g class="link" data-entity-1="n6" data-entity-2="n1" data-source-line="37" data-uid="lnk34" id="link_n6_n1"><path d="M1502.8284,432.3015 C1497.2372,434.0695 1491.5074,435.7064 1486,437 C1297.5763,481.2584 1076.1695,502.006 959.4419,510.6064" fill="none" id="n6-to-n1" style="stroke:#181818;stroke-width:1;"/><polygon fill="#181818" points="953.4581,511.0473,962.7277,514.3752,958.4446,510.6799,962.1398,506.3968,953.4581,511.0473" style="stroke:#181818;stroke-width:1;"/></g><!--link n7 to n1--><g class="link" data-entity-1="n7" data-entity-2="n1" data-source-line="38" data-uid="lnk35" id="link_n7_n1"><path d="M1613.8512,432.4008 C1608.2566,434.1542 1602.5199,435.7606 1597,437 C1366.3237,488.7962 1092.1897,506.8357 959.2204,512.9191" fill="none" id="n7-to-n1" style="stroke:#181818;stroke-width:1;"/><polygon fill="#181818" points="953.2267,513.1933,962.4001,516.7778,958.2215,512.9648,962.0345,508.7862,953.2267,513.1933" style="stroke:#181818;stroke-width:1;"/></g><!--link n8 to n1--><g class="link" data-entity-1="n8" data-entity-2="n1" data-source-line="39" data-uid="lnk36" id="link_n8_n1"><path d="M320.7386,30.3222 C215.2807,41.584 6,81.6177 6,222 C6,222 6,222 6,320 C6,383.2456 32.5121,404.8897 87,437 C147.4497,472.6237 606.0348,501.2798 792.7163,511.6074" fill="none" id="n8-to-n1" style="stroke:#181818;stroke-width:1;"/><polygon fill="#181818" points="798.7071,511.9388,789.9418,507.4478,793.7147,511.6626,789.4999,515.4356,798.7071,511.9388" style="stroke:#181818;stroke-width:1;"/></g><!--link n9 to n1--><g class="link" data-entity-1="n9" data-entity-2="n1" data-source-line="40" data-uid="lnk37" id="link_n9_n1"><path d="M857.9541,339.1502 C861.7776,376.6208 869.599,453.2701 873.4289,490.8031" fill="none" id="n9-to-n1" style="stroke:#181818;stroke-width:1;"/><polygon fill="#181818" points="874.038,496.7721,877.1037,487.4125,873.5304,491.7979,869.145,488.2246,874.038,496.7721" style="stroke:#181818;stroke-width:1;"/></g><!--link n13 to n1--><g class="link" data-entity-1="n13" data-entity-2="n1" data-source-line="41" data-uid="lnk38" id="link_n13_n1"><path d="M482.0855,339.254 C483.2958,365.3091 489.4998,411.4649 517,437 C557.277,474.399 699.9241,496.5342 792.8458,507.4734" fill="none" id="n13-to-n1" style="stroke:#181818;stroke-width:1;"/><polygon fill="#181818" points="798.8046,508.1749,790.334,503.1501,793.8389,507.5903,789.3987,511.0952,798.8046,508.1749" style="stroke:#181818;stroke-width:1;"/></g><!--link n19 to n1--><g class="link" data-entity-1="n19" data-entity-2="n1" data-source-line="42" data-uid="lnk39" id="link_n19_n1"><path d="M262.0299,433.701 C267.7559,434.8846 273.4717,436.0037 279,437 C464.4626,470.4231 678.7582,495.308 792.8701,507.4851" fill="none" id="n19-to-n1" style="stroke:#181818;stroke-width:1;"/><polygon fill="#181818" points="798.8362,508.1218,790.3114,503.1894,793.8644,507.5913,789.4626,511.1442,798.8362,508.1218" style="stroke:#181818;stroke-width:1;"/></g><!--link n20 to n1--><g class="link" data-entity-1="n20" data-entity-2="n1" data-source-line="43" data-uid="lnk40" id="link_n20_n1"><path d="M659.9909,437.0116 C707.1786,454.2668 770.7772,477.523 818.0618,494.8136" fill="none" id="n20-to-n1" style="stroke:#181818;stroke-width:1;"/><polygon fill="#181818" points="823.6969,496.8742,816.618,490.0266,819.001,495.157,813.8706,497.54,823.6969,496.8742" style="stroke:#181818;stroke-width:1;"/></g><!--link n17 to n1--><g class="link" data-entity-1="n17" data-entity-2="n1" data-source-line="44" data-uid="lnk41" id="link_n17_n1"><path d="M153.0325,241.0623 C122.6331,282.1948 60.7202,380.1443 112,437 C157.464,487.4076 607.9717,507.4077 792.8611,513.5631" fill="none" id="n17-to-n1" style="stroke:#181818;stroke-width:1;"/><polygon fill="#181818" points="798.8578,513.7627,789.9959,509.4654,793.8606,513.5963,789.7297,517.461,798.8578,513.7627" style="stroke:#181818;stroke-width:1;"/></g><!--link n21 to n1--><g class="link" data-entity-1="n21" data-entity-2="n1" data-source-line="45" data-uid="lnk42" id="link_n21_n1"><path d="M429.0209,431.6205 C438.0812,433.451 447.2676,435.2868 456,437 C575.5862,460.4611 708.7125,485.25 793.0058,500.7845" fill="none" id="n21-to-n1" style="stroke:#181818;stroke-width:1;"/><polygon fill="#181818" points="798.9064,501.8719,790.7804,496.307,793.9892,500.9657,789.3305,504.1745,798.9064,501.8719" style="stroke:#181818;stroke-width:1;"/></g><!--link n22 to n1--><g class="link" data-entity-1="n22" data-entity-2="n1" data-source-line="46" data-uid="lnk43" id="link_n22_n1"><path d="M916.8409,241.1202 C916.4585,264.3452 915.1863,304.6777 911,339 C905.6285,383.0402 900.6257,393.48 892,437 C887.9462,457.4528 884.3918,474.9807 881.1251,490.9741" fill="none" id="n22-to-n1" style="stroke:#181818;stroke-width:1;"/><polygon fill="#181818" points="879.9244,496.8527,885.6446,488.8352,880.925,491.9538,877.8064,487.2343,879.9244,496.8527" style="stroke:#181818;stroke-width:1;"/></g><!--link n14 to n1--><g class="link" data-entity-1="n14" data-entity-2="n1" data-source-line="47" data-uid="lnk44" id="link_n14_n1"><path d="M651.9235,241.1157 C655.0764,265.4057 663.0162,307.9058 682,339 C724.7636,409.0438 798.326,464.7413 841.189,493.6294" fill="none" id="n14-to-n1" style="stroke:#181818;stroke-width:1;"/><polygon fill="#181818" points="846.1645,496.9827,840.9368,488.6358,842.0183,494.1883,836.4657,495.2697,846.1645,496.9827" style="stroke:#181818;stroke-width:1;"/></g><!--link n23 to n1--><g class="link" data-entity-1="n23" data-entity-2="n1" data-source-line="48" data-uid="lnk45" id="link_n23_n1"><path d="M1075.083,437.0116 C1031.5929,454.2668 973.3613,477.3708 929.7818,494.6614" fill="none" id="n23-to-n1" style="stroke:#181818;stroke-width:1;"/><polygon fill="#181818" points="924.2047,496.8742,934.0455,497.2731,928.8523,495.0302,931.0951,489.837,924.2047,496.8742" style="stroke:#181818;stroke-width:1;"/></g><!--link n24 to n1--><g class="link" data-entity-1="n24" data-entity-2="n1" data-source-line="49" data-uid="lnk46" id="link_n24_n1"><path d="M754.1902,339.1502 C779.999,376.6208 833.501,454.2978 859.3528,491.8308" fill="none" id="n24-to-n1" style="stroke:#181818;stroke-width:1;"/><polygon fill="#181818" points="862.7563,496.7721,860.9453,487.0912,859.9201,492.6543,854.3569,491.6291,862.7563,496.7721" style="stroke:#181818;stroke-width:1;"/></g><!--link n11 to n15--><g class="link" data-entity-1="n11" data-entity-2="n15" data-source-line="50" data-uid="lnk47" id="link_n11_n15"><path d="M530.9683,45.128 C510.1764,62.3959 484.3632,83.8339 463.5893,101.0868" fill="none" id="n11-to-n15" style="stroke:#181818;stroke-width:1;"/><polygon fill="#181818" points="458.9736,104.9202,468.4528,102.2472,462.82,101.7257,463.3416,96.0929,458.9736,104.9202" style="stroke:#181818;stroke-width:1;"/></g><!--link n12 to n15--><g class="link" data-entity-1="n12" data-entity-2="n15" data-source-line="51" data-uid="lnk48" id="link_n12_n15"><path d="M644.9476,41.0977 C600.8322,58.601 533.7625,85.2116 486.8021,103.8437" fill="none" id="n12-to-n15" style="stroke:#181818;stroke-width:1;"/><polygon fill="#181818" points="481.225,106.0565,491.0658,106.4554,485.8726,104.2125,488.1154,99.0193,481.225,106.0565" style="stroke:#181818;stroke-width:1;"/></g><!--link n8 to n15--><g class="link" data-entity-1="n8" data-entity-2="n15" data-source-line="52" data-uid="lnk49" id="link_n8_n15"><path d="M391.0638,45.3616 C400.8814,62.5424 412.1718,82.3005 421.9824,99.4691" fill="none" id="n8-to-n15" style="stroke:#181818;stroke-width:1;"/><polygon fill="#181818" points="424.9592,104.6786,423.9669,94.8799,422.4785,100.3374,417.021,98.849,424.9592,104.6786" style="stroke:#181818;stroke-width:1;"/></g><!--link n11 to n16--><g class="link" data-entity-1="n11" data-entity-2="n16" data-source-line="53" data-uid="lnk50" id="link_n11_n16"><path d="M554,45.3616 C554,62.5424 554,81.51 554,98.6786" fill="none" id="n11-to-n16" style="stroke:#181818;stroke-width:1;"/><polygon fill="#181818" points="554,104.6786,558,95.6786,554,99.6786,550,95.6786,554,104.6786" style="stroke:#181818;stroke-width:1;"/></g><!--link n12 to n16--><g class="link" data-entity-1="n12" data-entity-2="n16" data-source-line="54" data-uid="lnk51" id="link_n12_n16"><path d="M657.8213,45.128 C635.0911,62.3959 606.6034,84.0377 583.8929,101.2906" fill="none" id="n12-to-n16" style="stroke:#181818;stroke-width:1;"/><polygon fill="#181818" points="579.1152,104.9202,588.7014,102.661,583.0966,101.8956,583.862,96.2907,579.1152,104.9202" style="stroke:#181818;stroke-width:1;"/></g><!--link n8 to n16--><g class="link" data-entity-1="n8" data-entity-2="n16" data-source-line="55" data-uid="lnk52" id="link_n8_n16"><path d="M413.962,45.128 C444.6212,62.3959 484.2631,84.7229 514.8958,101.9758" fill="none" id="n8-to-n16" style="stroke:#181818;stroke-width:1;"/><polygon fill="#181818" points="520.1236,104.9202,514.2448,97.0183,515.7671,102.4665,510.3189,103.9888,520.1236,104.9202" style="stroke:#181818;stroke-width:1;"/></g><!--link n10 to n24--><g class="link" data-entity-1="n10" data-entity-2="n24" data-source-line="56" data-uid="lnk53" id="link_n10_n24"><path d="M688.6669,143.1502 C699.7551,180.6208 722.5009,257.4857 733.6076,295.0187" fill="none" id="n10-to-n24" style="stroke:#181818;stroke-width:1;"/><polygon fill="#181818" points="735.3101,300.7721,736.5919,291.007,733.8913,295.9776,728.9207,293.277,735.3101,300.7721" style="stroke:#181818;stroke-width:1;"/></g><!--link n11 to n17--><g class="link" data-entity-1="n11" data-entity-2="n17" data-source-line="57" data-uid="lnk54" id="link_n11_n17"><path d="M515.7962,33.558 C422.4047,52.1123 189.7113,98.8469 184,105 C159.4528,131.4462 160.3056,170.8818 163.7295,196.6639" fill="none" id="n11-to-n17" style="stroke:#181818;stroke-width:1;"/><polygon fill="#181818" points="164.5194,202.6117,167.2998,193.1634,163.8612,197.6552,159.3694,194.2166,164.5194,202.6117" style="stroke:#181818;stroke-width:1;"/></g><!--link n8 to n17--><g class="link" data-entity-1="n8" data-entity-2="n17" data-source-line="58" data-uid="lnk55" id="link_n8_n17"><path d="M320.8338,35.8059 C252.3053,48.5109 145.7473,72.893 122,105 C99.5466,135.3577 124.5354,173.5676 145.6362,198.1029" fill="none" id="n8-to-n17" style="stroke:#181818;stroke-width:1;"/><polygon fill="#181818" points="149.5485,202.652,146.7128,193.2202,146.2883,198.8611,140.6474,198.4366,149.5485,202.652" style="stroke:#181818;stroke-width:1;"/></g><!--link n10 to n17--><g class="link" data-entity-1="n10" data-entity-2="n17" data-source-line="59" data-uid="lnk56" id="link_n10_n17"><path d="M627.3446,138.7607 C621.1704,140.2578 614.9619,141.7025 609,143 C475.0462,172.153 322.4319,197.6665 236.654,211.321" fill="none" id="n10-to-n17" style="stroke:#181818;stroke-width:1;"/><polygon fill="#181818" points="230.7286,212.2642,240.2455,214.7996,235.6664,211.4782,238.9879,206.8991,230.7286,212.2642" style="stroke:#181818;stroke-width:1;"/></g><!--link n18 to n17--><g class="link" data-entity-1="n18" data-entity-2="n17" data-source-line="60" data-uid="lnk57" id="link_n18_n17"><path d="M228.1824,143.3616 C215.0339,160.5424 199.5725,180.7452 186.4333,197.9138" fill="none" id="n18-to-n17" style="stroke:#181818;stroke-width:1;"/><polygon fill="#181818" points="182.7868,202.6786,191.4331,197.9624,185.8255,198.708,185.08,193.1004,182.7868,202.6786" style="stroke:#181818;stroke-width:1;"/></g><!--link n10 to n13--><g class="link" data-entity-1="n10" data-entity-2="n13" data-source-line="61" data-uid="lnk58" id="link_n10_n13"><path d="M660.2329,143.3116 C641.9742,159.0111 615.8756,181.9323 594,203 C559.3662,236.3547 525.0885,272.9351 503.4481,296.4833" fill="none" id="n10-to-n13" style="stroke:#181818;stroke-width:1;"/><polygon fill="#181818" points="499.3882,300.9011,508.4233,296.981,502.7715,297.2196,502.5328,291.5678,499.3882,300.9011" style="stroke:#181818;stroke-width:1;"/></g><!--link n14 to n13--><g class="link" data-entity-1="n14" data-entity-2="n13" data-source-line="62" data-uid="lnk59" id="link_n14_n13"><path d="M617.2091,241.128 C587.6071,258.3959 549.4673,280.6441 519.8909,297.897" fill="none" id="n14-to-n13" style="stroke:#181818;stroke-width:1;"/><polygon fill="#181818" points="514.7082,300.9202,524.4977,299.8405,519.0271,298.4008,520.4667,292.9302,514.7082,300.9202" style="stroke:#181818;stroke-width:1;"/></g><!--link n15 to n13--><g class="link" data-entity-1="n15" data-entity-2="n13" data-source-line="63" data-uid="lnk60" id="link_n15_n13"><path d="M440.0623,143.0887 C445.0397,166.2828 453.8216,206.5848 462,241 C466.8738,261.5093 471.343,279.0988 475.4868,295.0745" fill="none" id="n15-to-n13" style="stroke:#181818;stroke-width:1;"/><polygon fill="#181818" points="476.9932,300.8823,478.6054,291.1663,475.7378,296.0425,470.8617,293.1749,476.9932,300.8823" style="stroke:#181818;stroke-width:1;"/></g><!--link n16 to n13--><g class="link" data-entity-1="n16" data-entity-2="n13" data-source-line="64" data-uid="lnk61" id="link_n16_n13"><path d="M546.9652,143.1502 C533.2005,180.6208 504.9198,257.6071 491.1322,295.1401" fill="none" id="n16-to-n13" style="stroke:#181818;stroke-width:1;"/><polygon fill="#181818" points="489.0633,300.7721,495.9213,293.7033,490.7874,296.0787,488.412,290.9448,489.0633,300.7721" style="stroke:#181818;stroke-width:1;"/></g><!--link n17 to n13--><g class="link" data-entity-1="n17" data-entity-2="n13" data-source-line="65" data-uid="lnk62" id="link_n17_n13"><path d="M228.9147,241.0116 C286.0744,258.8513 365.116,283.5202 420.5309,300.8154" fill="none" id="n17-to-n13" style="stroke:#181818;stroke-width:1;"/><polygon fill="#181818" points="426.2584,302.603,418.8588,296.1033,421.4855,301.1133,416.4754,303.74,426.2584,302.603" style="stroke:#181818;stroke-width:1;"/></g><!--link n18 to n13--><g class="link" data-entity-1="n18" data-entity-2="n13" data-source-line="66" data-uid="lnk63" id="link_n18_n13"><path d="M266.3515,143.1502 C312.0427,180.6208 408.1471,259.4344 453.9143,296.9674" fill="none" id="n18-to-n13" style="stroke:#181818;stroke-width:1;"/><polygon fill="#181818" points="458.5537,300.7721,454.1311,291.9721,454.6875,297.6015,449.0581,298.158,458.5537,300.7721" style="stroke:#181818;stroke-width:1;"/></g><!--link n5 to n13--><g class="link" data-entity-1="n5" data-entity-2="n13" data-source-line="67" data-uid="lnk64" id="link_n5_n13"><path d="M993.6279,233.5439 C987.0456,236.3134 979.847,239.0347 973,241 C818.8492,285.247 635.8729,306.3216 543.7795,314.86" fill="none" id="n5-to-n13" style="stroke:#181818;stroke-width:1;"/><polygon fill="#181818" points="537.8051,315.4139,547.1359,318.566,542.7837,314.9523,546.3974,310.6001,537.8051,315.4139" style="stroke:#181818;stroke-width:1;"/></g><!--link n11 to n22--><g class="link" data-entity-1="n11" data-entity-2="n22" data-source-line="68" data-uid="lnk65" id="link_n11_n22"><path d="M592.1428,37.668 C633.7462,51.1274 701.6572,75.269 756,105 C783.8117,120.2158 849.7197,170.0728 887.5127,199.1647" fill="none" id="n11-to-n22" style="stroke:#181818;stroke-width:1;"/><polygon fill="#181818" points="892.2672,202.8246,887.5754,194.1651,888.3051,199.7747,882.6955,200.5045,892.2672,202.8246" style="stroke:#181818;stroke-width:1;"/></g><!--link n12 to n22--><g class="link" data-entity-1="n12" data-entity-2="n22" data-source-line="69" data-uid="lnk66" id="link_n12_n22"><path d="M708.5171,45.022 C729.3746,60.7463 759.4781,83.8448 785,105 C825.316,138.418 866.245,175.3411 891.9172,198.8683" fill="none" id="n12-to-n22" style="stroke:#181818;stroke-width:1;"/><polygon fill="#181818" points="896.3406,202.9221,892.408,193.8924,892.6544,199.5439,887.0029,199.7903,896.3406,202.9221" style="stroke:#181818;stroke-width:1;"/></g><!--link n10 to n22--><g class="link" data-entity-1="n10" data-entity-2="n22" data-source-line="70" data-uid="lnk67" id="link_n10_n22"><path d="M728.395,143.0116 C772.1215,161.3244 831.9946,186.3994 873.1645,203.6415" fill="none" id="n10-to-n22" style="stroke:#181818;stroke-width:1;"/><polygon fill="#181818" points="878.6988,205.9593,871.9426,198.7931,874.0869,204.0278,868.8522,206.1722,878.6988,205.9593" style="stroke:#181818;stroke-width:1;"/></g><!--link n12 to n14--><g class="link" data-entity-1="n12" data-entity-2="n14" data-source-line="71" data-uid="lnk68" id="link_n12_n14"><path d="M709.3435,45.2272 C736.9657,67.8975 774.0425,107.0511 756,143 C741.844,171.2052 717.5951,189.0525 693.2909,202.17" fill="none" id="n12-to-n14" style="stroke:#181818;stroke-width:1;"/><polygon fill="#181818" points="688.0109,205.0198,697.8308,204.2652,692.4109,202.645,694.0311,197.2251,688.0109,205.0198" style="stroke:#181818;stroke-width:1;"/></g><!--link n8 to n14--><g class="link" data-entity-1="n8" data-entity-2="n14" data-source-line="72" data-uid="lnk69" id="link_n8_n14"><path d="M371.8985,45.1904 C362.6965,70.3385 351.5488,114.5756 373,143 C401.8814,181.27 536.9695,205.6479 605.9371,215.9174" fill="none" id="n8-to-n14" style="stroke:#181818;stroke-width:1;"/><polygon fill="#181818" points="611.8717,216.8011,603.559,211.5192,606.9262,216.0647,602.3807,219.432,611.8717,216.8011" style="stroke:#181818;stroke-width:1;"/></g><!--link n10 to n14--><g class="link" data-entity-1="n10" data-entity-2="n14" data-source-line="73" data-uid="lnk70" id="link_n10_n14"><path d="M676.4803,143.3616 C670.6949,160.5424 664.2021,179.8237 658.4209,196.9923" fill="none" id="n10-to-n14" style="stroke:#181818;stroke-width:1;"/><polygon fill="#181818" points="656.5062,202.6786,663.1692,195.4257,658.1018,197.94,655.5875,192.8727,656.5062,202.6786" style="stroke:#181818;stroke-width:1;"/></g><!--link n13 to n20--><g class="link" data-entity-1="n13" data-entity-2="n20" data-source-line="74" data-uid="lnk71" id="link_n13_n20"><path d="M506.5932,339.128 C528.7947,356.3959 556.5504,377.9837 578.7327,395.2366" fill="none" id="n13-to-n20" style="stroke:#181818;stroke-width:1;"/><polygon fill="#181818" points="583.4688,398.9202,578.8204,390.2373,579.522,395.8505,573.9089,396.5521,583.4688,398.9202" style="stroke:#181818;stroke-width:1;"/></g><!--link n13 to n19--><g class="link" data-entity-1="n13" data-entity-2="n19" data-source-line="75" data-uid="lnk72" id="link_n13_n19"><path d="M426.5172,339.0116 C376.1601,356.2668 307.9525,379.6387 257.492,396.9293" fill="none" id="n13-to-n19" style="stroke:#181818;stroke-width:1;"/><polygon fill="#181818" points="251.816,398.8742,261.6267,399.7408,256.546,397.2534,259.0334,392.1728,251.816,398.8742" style="stroke:#181818;stroke-width:1;"/></g><!--link n13 to n21--><g class="link" data-entity-1="n13" data-entity-2="n21" data-source-line="76" data-uid="lnk73" id="link_n13_n21"><path d="M458.7731,339.128 C437.805,356.3959 411.7499,377.8531 390.7999,395.106" fill="none" id="n13-to-n21" style="stroke:#181818;stroke-width:1;"/><polygon fill="#181818" points="386.1683,398.9202,395.6585,396.2866,390.028,395.7417,390.5729,390.1111,386.1683,398.9202" style="stroke:#181818;stroke-width:1;"/></g><!--link n4 to n23--><g class="link" data-entity-1="n4" data-entity-2="n23" data-source-line="77" data-uid="lnk74" id="link_n4_n23"><path d="M1192.0092,339.3616 C1176.9322,356.5424 1158.9793,377.0002 1143.913,394.1688" fill="none" id="n4-to-n23" style="stroke:#181818;stroke-width:1;"/><polygon fill="#181818" points="1139.9555,398.6786,1148.8983,394.5523,1143.2534,394.9205,1142.8853,389.2756,1139.9555,398.6786" style="stroke:#181818;stroke-width:1;"/></g><!--link n5 to n23--><g class="link" data-entity-1="n5" data-entity-2="n23" data-source-line="78" data-uid="lnk75" id="link_n5_n23"><path d="M1028.259,241.1502 C1048.3326,278.6208 1089.7591,355.9502 1109.866,393.4832" fill="none" id="n5-to-n23" style="stroke:#181818;stroke-width:1;"/><polygon fill="#181818" points="1112.6993,398.7721,1111.9752,388.9499,1110.3382,394.3647,1104.9234,392.7277,1112.6993,398.7721" style="stroke:#181818;stroke-width:1;"/></g><!--SRC=[RLFBJiCm4BptAoAuHIh4RbwL41Bq0b8lKEue94jZ4Up8TYZzUzpIxDffRwEPyNfsrxupTj_1_UpkzWJCbv1zfQllwAEglxPQ3R9PgKxfoEfA6YU1j3CDjQtajeFegbVQWhvfhwBAH79vBhtNIXex6ieB1hllOTHPuXlYk5TMhpfbO0FwHzHmKyVnoHbThyMsjO_T0FwPMdtt6ep1YbcWwdrl5Mfv6CVgjTgE8a-duWPaypB0G6cBgMMbf8LVR9Sj0eCRAQ36kQ_jX6pK3i-TtVq4LMVRjrP3rM25PEfwXVedzB3bfIucTTZKyzm_D0rkbGTT24azfA4mqi78Uni62fw0iKq3dwYnYIOaZP9Fj4vyOC1GqaBY5eFeHlaB29O_IE5gZb8nSoynci_l3q_QnVg7xd6w68HBWYCxamj4AQ8CKOweG5GYMY9YL8OHonDYwJnd12a7e-iv5UF4ObUPrrL6SJBFadkMd2mvZSdz5h8NPF4cUSIN-8MNze0p3-SUBZnS4lRjfmJkRs7W8qxEUVV7C6NgfKbf-ZpnDh7qUDekfm1yyGS0]--></g></svg>