<svg xmlns="http://www.w3.org/2000/svg" xmlns:xlink="http://www.w3.org/1999/xlink" contentStyleType="text/css" data-diagram-type="DESCRIPTION" height="442px" preserveAspectRatio="none" style="width:597px;height:442px;" version="1.1" viewBox="0 0 597 442" width="597px" zoomAndPan="magnify"><defs/><g><!--entity n3--><g class="entity" data-entity="n3" data-source-line="5" data-uid="ent0002" id="entity_n3"><rect fill="#F1F1F1" height="37.7799" rx="2.5" ry="2.5" style="stroke:#181818;stroke-width:0.5;" width="75.9998" x="7" y="203"/><text fill="#000000" font-family="'Segoe UI', 'メイリオ', 'UDEV Gothic HSRFJPDOC', 'Hiragino Kaku Gothic ProN', 'ヒラギノ角ゴ ProN', 'Noto Sans JP', 'Helvetica Neue', Helvetica, Arial, sans-serif" font-size="14" lengthAdjust="spacing" textLength="55.9998" x="17" y="226.9999">porter.h</text></g><!--entity n1--><g class="entity" data-entity="n1" data-source-line="6" data-uid="ent0003" id="entity_n1"><rect fill="#ADD8E6" height="37.7799" rx="2.5" ry="2.5" style="stroke:#181818;stroke-width:0.5;" width="124.1246" x="373" y="7"/><text fill="#000000" font-family="'Segoe UI', 'メイリオ', 'UDEV Gothic HSRFJPDOC', 'Hiragino Kaku Gothic ProN', 'ヒラギノ角ゴ ProN', 'Noto Sans JP', 'Helvetica Neue', Helvetica, Arial, sans-serif" font-size="14" font-weight="bold" lengthAdjust="spacing" textLength="104.1246" x="383" y="30.9999">porter_const.h</text></g><!--entity n2--><g class="entity" data-entity="n2" data-source-line="7" data-uid="ent0004" id="entity_n2"><rect fill="#F1F1F1" height="37.7799" rx="2.5" ry="2.5" style="stroke:#181818;stroke-width:0.5;" width="110.9996" x="221.5" y="105"/><text fill="#000000" font-family="'Segoe UI', 'メイリオ', 'UDEV Gothic HSRFJPDOC', 'Hiragino Kaku Gothic ProN', 'ヒラギノ角ゴ ProN', 'Noto Sans JP', 'Helvetica Neue', Helvetica, Arial, sans-serif" font-size="14" lengthAdjust="spacing" textLength="90.9996" x="231.5" y="128.9999">porter_type.h</text></g><!--entity n9--><g class="entity" data-entity="n9" data-source-line="8" data-uid="ent0005" id="entity_n9"><rect fill="#F1F1F1" height="37.7799" rx="2.5" ry="2.5" style="stroke:#181818;stroke-width:0.5;" width="110.9996" x="393.5" y="301"/><text fill="#000000" font-family="'Segoe UI', 'メイリオ', 'UDEV Gothic HSRFJPDOC', 'Hiragino Kaku Gothic ProN', 'ヒラギノ角ゴ ProN', 'Noto Sans JP', 'Helvetica Neue', Helvetica, Arial, sans-serif" font-size="14" lengthAdjust="spacing" textLength="90.9996" x="403.5" y="324.9999">potrContext.h</text></g><!--entity n11--><g class="entity" data-entity="n11" data-source-line="9" data-uid="ent0006" id="entity_n11"><rect fill="#F1F1F1" height="37.7799" rx="2.5" ry="2.5" style="stroke:#181818;stroke-width:0.5;" width="131.9995" x="383" y="399"/><text fill="#000000" font-family="'Segoe UI', 'メイリオ', 'UDEV Gothic HSRFJPDOC', 'Hiragino Kaku Gothic ProN', 'ヒラギノ角ゴ ProN', 'Noto Sans JP', 'Helvetica Neue', Helvetica, Arial, sans-serif" font-size="14" lengthAdjust="spacing" textLength="111.9995" x="393" y="422.9999">potrRecvThread.h</text></g><!--entity n13--><g class="entity" data-entity="n13" data-source-line="10" data-uid="ent0007" id="entity_n13"><rect fill="#F1F1F1" height="37.7799" rx="2.5" ry="2.5" style="stroke:#181818;stroke-width:0.5;" width="75.9998" x="189" y="203"/><text fill="#000000" font-family="'Segoe UI', 'メイリオ', 'UDEV Gothic HSRFJPDOC', 'Hiragino Kaku Gothic ProN', 'ヒラギノ角ゴ ProN', 'Noto Sans JP', 'Helvetica Neue', Helvetica, Arial, sans-serif" font-size="14" lengthAdjust="spacing" textLength="55.9998" x="199" y="226.9999">config.h</text></g><!--entity n15--><g class="entity" data-entity="n15" data-source-line="11" data-uid="ent0008" id="entity_n15"><rect fill="#F1F1F1" height="37.7799" rx="2.5" ry="2.5" style="stroke:#181818;stroke-width:0.5;" width="75.9998" x="300" y="203"/><text fill="#000000" font-family="'Segoe UI', 'メイリオ', 'UDEV Gothic HSRFJPDOC', 'Hiragino Kaku Gothic ProN', 'ヒラギノ角ゴ ProN', 'Noto Sans JP', 'Helvetica Neue', Helvetica, Arial, sans-serif" font-size="14" lengthAdjust="spacing" textLength="55.9998" x="310" y="226.9999">packet.h</text></g><!--entity n19--><g class="entity" data-entity="n19" data-source-line="12" data-uid="ent0009" id="entity_n19"><rect fill="#F1F1F1" height="37.7799" rx="2.5" ry="2.5" style="stroke:#181818;stroke-width:0.5;" width="103.9996" x="488" y="105"/><text fill="#000000" font-family="'Segoe UI', 'メイリオ', 'UDEV Gothic HSRFJPDOC', 'Hiragino Kaku Gothic ProN', 'ヒラギノ角ゴ ProN', 'Noto Sans JP', 'Helvetica Neue', Helvetica, Arial, sans-serif" font-size="14" lengthAdjust="spacing" textLength="83.9996" x="498" y="128.9999">retransmit.h</text></g><!--entity n16--><g class="entity" data-entity="n16" data-source-line="13" data-uid="ent0010" id="entity_n16"><rect fill="#F1F1F1" height="37.7799" rx="2.5" ry="2.5" style="stroke:#181818;stroke-width:0.5;" width="75.9998" x="411" y="203"/><text fill="#000000" font-family="'Segoe UI', 'メイリオ', 'UDEV Gothic HSRFJPDOC', 'Hiragino Kaku Gothic ProN', 'ヒラギノ角ゴ ProN', 'Noto Sans JP', 'Helvetica Neue', Helvetica, Arial, sans-serif" font-size="14" lengthAdjust="spacing" textLength="55.9998" x="421" y="226.9999">window.h</text></g><!--link n1 to n2--><g class="link" data-entity-1="n1" data-entity-2="n2" data-source-line="14" data-uid="lnk11" id="link_n1_n2"><path d="M404.1609,45.128 C376.3209,62.3959 340.676,84.5047 312.8601,101.7576" fill="none" id="n1-to-n2" style="stroke:#181818;stroke-width:1;"/><polygon fill="#181818" points="307.7613,104.9202,317.5179,103.5756,312.0103,102.2847,313.3012,96.7771,307.7613,104.9202" style="stroke:#181818;stroke-width:1;"/></g><!--link n1 to n19--><g class="link" data-entity-1="n1" data-entity-2="n19" data-source-line="15" data-uid="lnk12" id="link_n1_n19"><path d="M455.4943,45.128 C473.9956,62.3959 496.6858,83.5734 515.1711,100.8263" fill="none" id="n1-to-n19" style="stroke:#181818;stroke-width:1;"/><polygon fill="#181818" points="519.5574,104.9202,515.7072,95.8551,515.9021,101.5086,510.2486,101.7036,519.5574,104.9202" style="stroke:#181818;stroke-width:1;"/></g><!--link n1 to n16--><g class="link" data-entity-1="n1" data-entity-2="n16" data-source-line="16" data-uid="lnk13" id="link_n1_n16"><path d="M436.3679,45.1502 C439.0443,82.6208 444.5182,159.2543 447.1991,196.7873" fill="none" id="n1-to-n16" style="stroke:#181818;stroke-width:1;"/><polygon fill="#181818" points="447.6266,202.7721,450.9752,193.51,447.2704,197.7848,442.9955,194.08,447.6266,202.7721" style="stroke:#181818;stroke-width:1;"/></g><!--link n2 to n3--><g class="link" data-entity-1="n2" data-entity-2="n3" data-source-line="17" data-uid="lnk14" id="link_n2_n3"><path d="M231.993,143.0116 C188.772,161.2687 129.713,186.2161 88.8738,203.4671" fill="none" id="n2-to-n3" style="stroke:#181818;stroke-width:1;"/><polygon fill="#181818" points="83.3467,205.8018,93.1939,205.9845,87.9526,203.8562,90.0809,198.615,83.3467,205.8018" style="stroke:#181818;stroke-width:1;"/></g><!--link n2 to n9--><g class="link" data-entity-1="n2" data-entity-2="n9" data-source-line="18" data-uid="lnk15" id="link_n2_n9"><path d="M237.8328,143.1465 C197.2457,165.5837 143.3269,204.3673 171,241 C197.7278,276.3813 314.1428,299.6269 387.3277,311.2091" fill="none" id="n2-to-n9" style="stroke:#181818;stroke-width:1;"/><polygon fill="#181818" points="393.2539,312.147,384.9898,306.7893,388.3154,311.3654,383.7393,314.691,393.2539,312.147" style="stroke:#181818;stroke-width:1;"/></g><!--link n2 to n13--><g class="link" data-entity-1="n2" data-entity-2="n13" data-source-line="19" data-uid="lnk16" id="link_n2_n13"><path d="M267.1216,143.3616 C258.3559,160.5424 248.3441,180.1654 239.5847,197.334" fill="none" id="n2-to-n13" style="stroke:#181818;stroke-width:1;"/><polygon fill="#181818" points="236.8579,202.6786,244.5112,196.4796,239.1302,198.2248,237.385,192.8439,236.8579,202.6786" style="stroke:#181818;stroke-width:1;"/></g><!--link n2 to n15--><g class="link" data-entity-1="n2" data-entity-2="n15" data-source-line="20" data-uid="lnk17" id="link_n2_n15"><path d="M289.0516,143.3616 C299.7458,160.5424 312.1162,180.4162 322.8028,197.5848" fill="none" id="n2-to-n15" style="stroke:#181818;stroke-width:1;"/><polygon fill="#181818" points="325.9734,202.6786,324.6133,192.9241,323.3312,198.4338,317.8215,197.1516,325.9734,202.6786" style="stroke:#181818;stroke-width:1;"/></g><!--link n2 to n16--><g class="link" data-entity-1="n2" data-entity-2="n16" data-source-line="21" data-uid="lnk18" id="link_n2_n16"><path d="M310.5716,143.128 C340.8785,160.3959 380.0192,182.697 410.2998,199.9499" fill="none" id="n2-to-n16" style="stroke:#181818;stroke-width:1;"/><polygon fill="#181818" points="415.513,202.9202,409.6734,194.9893,411.1687,200.4449,405.713,201.9402,415.513,202.9202" style="stroke:#181818;stroke-width:1;"/></g><!--link n9 to n11--><g class="link" data-entity-1="n9" data-entity-2="n11" data-source-line="22" data-uid="lnk19" id="link_n9_n11"><path d="M449,339.3616 C449,356.5424 449,375.51 449,392.6786" fill="none" id="n9-to-n11" style="stroke:#181818;stroke-width:1;"/><polygon fill="#181818" points="449,398.6786,453,389.6786,449,393.6786,445,389.6786,449,398.6786" style="stroke:#181818;stroke-width:1;"/></g><!--link n19 to n9--><g class="link" data-entity-1="n19" data-entity-2="n9" data-source-line="23" data-uid="lnk20" id="link_n19_n9"><path d="M536.2417,143.3524 C531.1678,167.1562 520.8892,208.412 505,241 C494.243,263.0622 481.3067,280.9837 468.9398,296.3259" fill="none" id="n19-to-n9" style="stroke:#181818;stroke-width:1;"/><polygon fill="#181818" points="465.1744,300.9972,473.9368,296.5005,468.3123,297.1044,467.7083,291.4799,465.1744,300.9972" style="stroke:#181818;stroke-width:1;"/></g><!--link n16 to n9--><g class="link" data-entity-1="n16" data-entity-2="n9" data-source-line="24" data-uid="lnk21" id="link_n16_n9"><path d="M449,241.3616 C449,258.5424 449,277.51 449,294.6786" fill="none" id="n16-to-n9" style="stroke:#181818;stroke-width:1;"/><polygon fill="#181818" points="449,300.6786,453,291.6786,449,295.6786,445,291.6786,449,300.6786" style="stroke:#181818;stroke-width:1;"/></g><!--SRC=[POzD2y8m38Rl-nL5RmELAWe3yQ1NJ-9TwXQtuan76h_-lT5jTTFRGv_aRTwbvsS9gsWvQS2VBLQ6p4KTJNhEoLqnsxZIaM8ow4K1SaIGii6y13Me737Gk1WeunNEkYgEQtb87NeU5t5S3sartDgyu7LvXV-e0pyhQFEcVS-qSSZmuDOdltu7wMrV49Yi7T6wEoEdd6mUNE_UIXf3YDRphYFuzB_Oh-_zVRUOkNjmYqXQZaQhTuEMP26W-6cDiq198Frzb2i2obBIe9Qe9ApfHOCl]--></g></svg>