<svg xmlns="http://www.w3.org/2000/svg" xmlns:xlink="http://www.w3.org/1999/xlink" contentStyleType="text/css" data-diagram-type="DESCRIPTION" height="344px" preserveAspectRatio="none" style="width:844px;height:344px;" version="1.1" viewBox="0 0 844 344" width="844px" zoomAndPan="magnify"><defs/><g><!--entity n6--><g class="entity" data-entity="n6" data-source-line="5" data-uid="ent0002" id="entity_n6"><rect fill="#F1F1F1" height="37.7799" rx="2.5" ry="2.5" style="stroke:#181818;stroke-width:0.5;" width="117.9996" x="54.5243" y="7"/><text fill="#000000" font-family="'Segoe UI', 'メイリオ', 'UDEV Gothic HSRFJPDOC', 'Hiragino Kaku Gothic ProN', 'ヒラギノ角ゴ ProN', 'Noto Sans JP', 'Helvetica Neue', Helvetica, Arial, sans-serif" font-size="14" lengthAdjust="spacing" textLength="97.9996" x="64.5243" y="30.9999">porter_const.h</text></g><!--entity n7--><g class="entity" data-entity="n7" data-source-line="6" data-uid="ent0003" id="entity_n7"><rect fill="#F1F1F1" height="37.7799" rx="2.5" ry="2.5" style="stroke:#181818;stroke-width:0.5;" width="110.9996" x="172.0243" y="105"/><text fill="#000000" font-family="'Segoe UI', 'メイリオ', 'UDEV Gothic HSRFJPDOC', 'Hiragino Kaku Gothic ProN', 'ヒラギノ角ゴ ProN', 'Noto Sans JP', 'Helvetica Neue', Helvetica, Arial, sans-serif" font-size="14" lengthAdjust="spacing" textLength="90.9996" x="182.0243" y="128.9999">porter_type.h</text></g><!--entity n10--><g class="entity" data-entity="n10" data-source-line="7" data-uid="ent0004" id="entity_n10"><rect fill="#F1F1F1" height="37.7799" rx="2.5" ry="2.5" style="stroke:#181818;stroke-width:0.5;" width="75.9998" x="318.5243" y="105"/><text fill="#000000" font-family="'Segoe UI', 'メイリオ', 'UDEV Gothic HSRFJPDOC', 'Hiragino Kaku Gothic ProN', 'ヒラギノ角ゴ ProN', 'Noto Sans JP', 'Helvetica Neue', Helvetica, Arial, sans-serif" font-size="14" lengthAdjust="spacing" textLength="55.9998" x="328.5243" y="128.9999">crypto.h</text></g><!--entity n11--><g class="entity" data-entity="n11" data-source-line="8" data-uid="ent0005" id="entity_n11"><rect fill="#F1F1F1" height="37.7799" rx="2.5" ry="2.5" style="stroke:#181818;stroke-width:0.5;" width="82.9997" x="71.0243" y="203"/><text fill="#000000" font-family="'Segoe UI', 'メイリオ', 'UDEV Gothic HSRFJPDOC', 'Hiragino Kaku Gothic ProN', 'ヒラギノ角ゴ ProN', 'Noto Sans JP', 'Helvetica Neue', Helvetica, Arial, sans-serif" font-size="14" lengthAdjust="spacing" textLength="62.9997" x="81.0243" y="226.9999">potrLog.h</text></g><!--entity n1--><g class="entity" data-entity="n1" data-source-line="9" data-uid="ent0006" id="entity_n1"><rect fill="#ADD8E6" height="37.7799" rx="2.5" ry="2.5" style="stroke:#181818;stroke-width:0.5;" width="79.4998" x="350.0243" y="301"/><text fill="#000000" font-family="'Segoe UI', 'メイリオ', 'UDEV Gothic HSRFJPDOC', 'Hiragino Kaku Gothic ProN', 'ヒラギノ角ゴ ProN', 'Noto Sans JP', 'Helvetica Neue', Helvetica, Arial, sans-serif" font-size="14" font-weight="bold" lengthAdjust="spacing" textLength="59.4998" x="360.0243" y="324.9999">config.c</text></g><!--entity n12--><g class="entity" data-entity="n12" data-source-line="10" data-uid="ent0007" id="entity_n12"><rect fill="#F1F1F1" height="37.7799" rx="2.5" ry="2.5" style="stroke:#181818;stroke-width:0.5;" width="75.9998" x="189.5243" y="203"/><text fill="#000000" font-family="'Segoe UI', 'メイリオ', 'UDEV Gothic HSRFJPDOC', 'Hiragino Kaku Gothic ProN', 'ヒラギノ角ゴ ProN', 'Noto Sans JP', 'Helvetica Neue', Helvetica, Arial, sans-serif" font-size="14" lengthAdjust="spacing" textLength="55.9998" x="199.5243" y="226.9999">config.h</text></g><!--entity n2--><g class="entity" data-entity="n2" data-source-line="11" data-uid="ent0008" id="entity_n2"><rect fill="#F1F1F1" height="37.7799" rx="2.5" ry="2.5" style="stroke:#181818;stroke-width:0.5;" width="68.9998" x="443.0243" y="203"/><text fill="#000000" font-family="'Segoe UI', 'メイリオ', 'UDEV Gothic HSRFJPDOC', 'Hiragino Kaku Gothic ProN', 'ヒラギノ角ゴ ProN', 'Noto Sans JP', 'Helvetica Neue', Helvetica, Arial, sans-serif" font-size="14" lengthAdjust="spacing" textLength="48.9998" x="453.0243" y="226.9999">ctype.h</text></g><!--entity n8--><g class="entity" data-entity="n8" data-source-line="12" data-uid="ent0009" id="entity_n8"><rect fill="#F1F1F1" height="37.7799" rx="2.5" ry="2.5" style="stroke:#181818;stroke-width:0.5;" width="75.9998" x="318.5243" y="7"/><text fill="#000000" font-family="'Segoe UI', 'メイリオ', 'UDEV Gothic HSRFJPDOC', 'Hiragino Kaku Gothic ProN', 'ヒラギノ角ゴ ProN', 'Noto Sans JP', 'Helvetica Neue', Helvetica, Arial, sans-serif" font-size="14" lengthAdjust="spacing" textLength="55.9998" x="328.5243" y="30.9999">stddef.h</text></g><!--entity n9--><g class="entity" data-entity="n9" data-source-line="13" data-uid="ent0010" id="entity_n9"><rect fill="#F1F1F1" height="37.7799" rx="2.5" ry="2.5" style="stroke:#181818;stroke-width:0.5;" width="75.9998" x="207.5243" y="7"/><text fill="#000000" font-family="'Segoe UI', 'メイリオ', 'UDEV Gothic HSRFJPDOC', 'Hiragino Kaku Gothic ProN', 'ヒラギノ角ゴ ProN', 'Noto Sans JP', 'Helvetica Neue', Helvetica, Arial, sans-serif" font-size="14" lengthAdjust="spacing" textLength="55.9998" x="217.5243" y="30.9999">stdint.h</text></g><!--entity n3--><g class="entity" data-entity="n3" data-source-line="14" data-uid="ent0011" id="entity_n3"><rect fill="#F1F1F1" height="37.7799" rx="2.5" ry="2.5" style="stroke:#181818;stroke-width:0.5;" width="68.9998" x="547.0243" y="203"/><text fill="#000000" font-family="'Segoe UI', 'メイリオ', 'UDEV Gothic HSRFJPDOC', 'Hiragino Kaku Gothic ProN', 'ヒラギノ角ゴ ProN', 'Noto Sans JP', 'Helvetica Neue', Helvetica, Arial, sans-serif" font-size="14" lengthAdjust="spacing" textLength="48.9998" x="557.0243" y="226.9999">stdio.h</text></g><!--entity n4--><g class="entity" data-entity="n4" data-source-line="15" data-uid="ent0012" id="entity_n4"><rect fill="#F1F1F1" height="37.7799" rx="2.5" ry="2.5" style="stroke:#181818;stroke-width:0.5;" width="75.9998" x="651.5243" y="203"/><text fill="#000000" font-family="'Segoe UI', 'メイリオ', 'UDEV Gothic HSRFJPDOC', 'Hiragino Kaku Gothic ProN', 'ヒラギノ角ゴ ProN', 'Noto Sans JP', 'Helvetica Neue', Helvetica, Arial, sans-serif" font-size="14" lengthAdjust="spacing" textLength="55.9998" x="661.5243" y="226.9999">stdlib.h</text></g><!--entity n5--><g class="entity" data-entity="n5" data-source-line="16" data-uid="ent0013" id="entity_n5"><rect fill="#F1F1F1" height="37.7799" rx="2.5" ry="2.5" style="stroke:#181818;stroke-width:0.5;" width="75.9998" x="762.5243" y="203"/><text fill="#000000" font-family="'Segoe UI', 'メイリオ', 'UDEV Gothic HSRFJPDOC', 'Hiragino Kaku Gothic ProN', 'ヒラギノ角ゴ ProN', 'Noto Sans JP', 'Helvetica Neue', Helvetica, Arial, sans-serif" font-size="14" lengthAdjust="spacing" textLength="55.9998" x="772.5243" y="226.9999">string.h</text></g><!--link n8 to n7--><g class="link" data-entity-1="n8" data-entity-2="n7" data-source-line="17" data-uid="lnk14" id="link_n8_n7"><path d="M331.3455,45.128 C308.6154,62.3959 280.1276,84.0377 257.4172,101.2906" fill="none" id="n8-to-n7" style="stroke:#181818;stroke-width:1;"/><polygon fill="#181818" points="252.6395,104.9202,262.2257,102.661,256.6209,101.8956,257.3863,96.2907,252.6395,104.9202" style="stroke:#181818;stroke-width:1;"/></g><!--link n9 to n7--><g class="link" data-entity-1="n9" data-entity-2="n7" data-source-line="18" data-uid="lnk15" id="link_n9_n7"><path d="M241.968,45.3616 C238.8124,62.5424 235.3104,81.6087 232.157,98.7773" fill="none" id="n9-to-n7" style="stroke:#181818;stroke-width:1;"/><polygon fill="#181818" points="231.0731,104.6786,236.6331,96.5493,231.9764,99.7609,228.7648,95.1041,231.0731,104.6786" style="stroke:#181818;stroke-width:1;"/></g><!--link n6 to n7--><g class="link" data-entity-1="n6" data-entity-2="n7" data-source-line="19" data-uid="lnk16" id="link_n6_n7"><path d="M135.7752,45.128 C155.8623,62.3959 180.7098,83.756 200.7795,101.0089" fill="none" id="n6-to-n7" style="stroke:#181818;stroke-width:1;"/><polygon fill="#181818" points="205.3294,104.9202,201.1121,96.02,201.5378,101.6608,195.897,102.0865,205.3294,104.9202" style="stroke:#181818;stroke-width:1;"/></g><!--link n8 to n10--><g class="link" data-entity-1="n8" data-entity-2="n10" data-source-line="20" data-uid="lnk17" id="link_n8_n10"><path d="M356.5243,45.3616 C356.5243,62.5424 356.5243,81.51 356.5243,98.6786" fill="none" id="n8-to-n10" style="stroke:#181818;stroke-width:1;"/><polygon fill="#181818" points="356.5243,104.6786,360.5243,95.6786,356.5243,99.6786,352.5243,95.6786,356.5243,104.6786" style="stroke:#181818;stroke-width:1;"/></g><!--link n9 to n10--><g class="link" data-entity-1="n9" data-entity-2="n10" data-source-line="21" data-uid="lnk18" id="link_n9_n10"><path d="M267.1897,45.128 C286.7481,62.3959 310.8741,83.6962 330.4157,100.9491" fill="none" id="n9-to-n10" style="stroke:#181818;stroke-width:1;"/><polygon fill="#181818" points="334.9135,104.9202,330.8141,95.965,331.1653,101.611,325.5193,101.9622,334.9135,104.9202" style="stroke:#181818;stroke-width:1;"/></g><!--link n6 to n10--><g class="link" data-entity-1="n6" data-entity-2="n10" data-source-line="22" data-uid="lnk19" id="link_n6_n10"><path d="M160.6652,45.0116 C206.6256,63.547 270.087,89.1405 312.7336,106.3396" fill="none" id="n6-to-n10" style="stroke:#181818;stroke-width:1;"/><polygon fill="#181818" points="318.2981,108.5837,311.4474,101.5078,313.661,106.7136,308.4552,108.9272,318.2981,108.5837" style="stroke:#181818;stroke-width:1;"/></g><!--link n7 to n11--><g class="link" data-entity-1="n7" data-entity-2="n11" data-source-line="23" data-uid="lnk20" id="link_n7_n11"><path d="M205.0781,143.128 C184.8148,160.3959 159.7263,181.7757 139.4805,199.0286" fill="none" id="n7-to-n11" style="stroke:#181818;stroke-width:1;"/><polygon fill="#181818" points="134.9138,202.9202,144.3583,200.1272,138.7194,199.6772,139.1695,194.0382,134.9138,202.9202" style="stroke:#181818;stroke-width:1;"/></g><!--link n2 to n1--><g class="link" data-entity-1="n2" data-entity-2="n1" data-source-line="24" data-uid="lnk21" id="link_n2_n1"><path d="M460.1383,241.3616 C444.7107,258.5424 426.2996,279.0457 410.8829,296.2143" fill="none" id="n2-to-n1" style="stroke:#181818;stroke-width:1;"/><polygon fill="#181818" points="406.8741,300.6786,415.8634,296.6547,410.2147,296.9584,409.911,291.3097,406.8741,300.6786" style="stroke:#181818;stroke-width:1;"/></g><!--link n3 to n1--><g class="link" data-entity-1="n3" data-entity-2="n1" data-source-line="25" data-uid="lnk22" id="link_n3_n1"><path d="M546.7545,239.7471 C512.9303,257.0115 467.0451,280.4321 432.3321,298.1502" fill="none" id="n3-to-n1" style="stroke:#181818;stroke-width:1;"/><polygon fill="#181818" points="426.988,300.8779,436.8226,300.3491,431.4414,298.6048,433.1857,293.2236,426.988,300.8779" style="stroke:#181818;stroke-width:1;"/></g><!--link n4 to n1--><g class="link" data-entity-1="n4" data-entity-2="n1" data-source-line="26" data-uid="lnk23" id="link_n4_n1"><path d="M651.291,235.0514 C645.3477,237.0573 639.2738,239.094 633.5243,241 C561.6751,264.8187 483.3663,290.0122 435.0216,305.4795" fill="none" id="n4-to-n1" style="stroke:#181818;stroke-width:1;"/><polygon fill="#181818" points="429.307,307.3078,439.0979,308.3751,434.0692,305.7842,436.6601,300.7555,429.307,307.3078" style="stroke:#181818;stroke-width:1;"/></g><!--link n5 to n1--><g class="link" data-entity-1="n5" data-entity-2="n1" data-source-line="27" data-uid="lnk24" id="link_n5_n1"><path d="M762.2365,235.8524 C756.6623,237.6863 750.9682,239.4611 745.5243,241 C632.0576,273.0752 501.1547,299.1839 435.033,311.635" fill="none" id="n5-to-n1" style="stroke:#181818;stroke-width:1;"/><polygon fill="#181818" points="429.1366,312.7453,438.7214,315.0107,434.0502,311.82,437.2409,307.1489,429.1366,312.7453" style="stroke:#181818;stroke-width:1;"/></g><!--link n6 to n1--><g class="link" data-entity-1="n6" data-entity-2="n1" data-source-line="28" data-uid="lnk25" id="link_n6_n1"><path d="M98.1117,45.1518 C67.5155,85.6154 6,181.006 53.5243,241 C90.1286,287.2088 262.9619,308.4886 343.7691,316.1248" fill="none" id="n6-to-n1" style="stroke:#181818;stroke-width:1;"/><polygon fill="#181818" points="349.7425,316.6893,341.1587,311.8603,344.7647,316.2189,340.4061,319.8248,349.7425,316.6893" style="stroke:#181818;stroke-width:1;"/></g><!--link n7 to n1--><g class="link" data-entity-1="n7" data-entity-2="n1" data-source-line="29" data-uid="lnk26" id="link_n7_n1"><path d="M243.3525,143.1502 C274.3231,180.6208 338.7871,258.6143 369.8093,296.1473" fill="none" id="n7-to-n1" style="stroke:#181818;stroke-width:1;"/><polygon fill="#181818" points="373.6318,300.7721,370.9812,291.2866,370.4464,296.9181,364.8149,296.3833,373.6318,300.7721" style="stroke:#181818;stroke-width:1;"/></g><!--link n10 to n1--><g class="link" data-entity-1="n10" data-entity-2="n1" data-source-line="30" data-uid="lnk27" id="link_n10_n1"><path d="M359.7485,143.1502 C366.0574,180.6208 378.9714,257.3224 385.2907,294.8554" fill="none" id="n10-to-n1" style="stroke:#181818;stroke-width:1;"/><polygon fill="#181818" points="386.2869,300.7721,388.7371,291.2329,385.4568,295.8415,380.8481,292.5611,386.2869,300.7721" style="stroke:#181818;stroke-width:1;"/></g><!--link n11 to n1--><g class="link" data-entity-1="n11" data-entity-2="n1" data-source-line="31" data-uid="lnk28" id="link_n11_n1"><path d="M154.2939,236.7777 C207.192,255.4926 292.0354,285.5093 344.0089,303.8971" fill="none" id="n11-to-n1" style="stroke:#181818;stroke-width:1;"/><polygon fill="#181818" points="349.6653,305.8983,342.5148,299.1255,344.9516,304.2306,339.8465,306.6675,349.6653,305.8983" style="stroke:#181818;stroke-width:1;"/></g><!--link n12 to n1--><g class="link" data-entity-1="n12" data-entity-2="n1" data-source-line="32" data-uid="lnk29" id="link_n12_n1"><path d="M259.1441,241.128 C287.6889,258.3959 324.3304,280.5617 352.8505,297.8146" fill="none" id="n12-to-n1" style="stroke:#181818;stroke-width:1;"/><polygon fill="#181818" points="357.9842,300.9202,352.354,292.8393,353.7061,298.3322,348.2132,299.6843,357.9842,300.9202" style="stroke:#181818;stroke-width:1;"/></g><!--link n7 to n12--><g class="link" data-entity-1="n7" data-entity-2="n12" data-source-line="33" data-uid="lnk30" id="link_n7_n12"><path d="M227.5243,143.3616 C227.5243,160.5424 227.5243,179.51 227.5243,196.6786" fill="none" id="n7-to-n12" style="stroke:#181818;stroke-width:1;"/><polygon fill="#181818" points="227.5243,202.6786,231.5243,193.6786,227.5243,197.6786,223.5243,193.6786,227.5243,202.6786" style="stroke:#181818;stroke-width:1;"/></g><!--SRC=[RT1BRi8m483XlKzXmIuI50T8G48iw9OxLCOnni8TH_QmoEqRL7loQ7U_z8sVfuYTqsTs-aWHdnPQ6UGtlqdrDC6_eFdqpWUEGKBiIGEoe1LAC4xpHUi3wl2bF4HSFnPSHWxLFmFOjJfxFNOLkXPz9h6PhiLmzOPGZB4e-aFlrgnLKIJdowir3xoubvuSyJkNToadDhxOH28sZRvdEip80ZttE2TwpNOcpjuoxQOKBD05zmmEVBKwlpyAZbGLLTB-hpA_ingoJYaOb2aPRAbsL7kgYggc4fiXnP3bdz7o1m00]--></g></svg>