<svg xmlns="http://www.w3.org/2000/svg" xmlns:xlink="http://www.w3.org/1999/xlink" contentStyleType="text/css" data-diagram-type="DESCRIPTION" height="344px" preserveAspectRatio="none" style="width:637px;height:344px;" version="1.1" viewBox="0 0 637 344" width="637px" zoomAndPan="magnify"><defs/><g><!--entity n6--><g class="entity" data-entity="n6" data-source-line="5" data-uid="ent0002" id="entity_n6"><rect fill="#F1F1F1" height="37.7799" rx="2.5" ry="2.5" style="stroke:#181818;stroke-width:0.5;" width="75.9998" x="444.5" y="203"/><text fill="#000000" font-family="'Segoe UI', 'メイリオ', 'UDEV Gothic HSRFJPDOC', 'Hiragino Kaku Gothic ProN', 'ヒラギノ角ゴ ProN', 'Noto Sans JP', 'Helvetica Neue', Helvetica, Arial, sans-serif" font-size="14" lengthAdjust="spacing" textLength="55.9998" x="454.5" y="226.9999">porter.h</text></g><!--entity n10--><g class="entity" data-entity="n10" data-source-line="6" data-uid="ent0003" id="entity_n10"><rect fill="#F1F1F1" height="37.7799" rx="2.5" ry="2.5" style="stroke:#181818;stroke-width:0.5;" width="117.9996" x="291.5" y="7"/><text fill="#000000" font-family="'Segoe UI', 'メイリオ', 'UDEV Gothic HSRFJPDOC', 'Hiragino Kaku Gothic ProN', 'ヒラギノ角ゴ ProN', 'Noto Sans JP', 'Helvetica Neue', Helvetica, Arial, sans-serif" font-size="14" lengthAdjust="spacing" textLength="97.9996" x="301.5" y="30.9999">porter_const.h</text></g><!--entity n7--><g class="entity" data-entity="n7" data-source-line="7" data-uid="ent0004" id="entity_n7"><rect fill="#F1F1F1" height="37.7799" rx="2.5" ry="2.5" style="stroke:#181818;stroke-width:0.5;" width="110.9996" x="427" y="105"/><text fill="#000000" font-family="'Segoe UI', 'メイリオ', 'UDEV Gothic HSRFJPDOC', 'Hiragino Kaku Gothic ProN', 'ヒラギノ角ゴ ProN', 'Noto Sans JP', 'Helvetica Neue', Helvetica, Arial, sans-serif" font-size="14" lengthAdjust="spacing" textLength="90.9996" x="437" y="128.9999">porter_type.h</text></g><!--entity n1--><g class="entity" data-entity="n1" data-source-line="8" data-uid="ent0005" id="entity_n1"><rect fill="#ADD8E6" height="37.7799" rx="2.5" ry="2.5" style="stroke:#181818;stroke-width:0.5;" width="64.6248" x="228" y="301"/><text fill="#000000" font-family="'Segoe UI', 'メイリオ', 'UDEV Gothic HSRFJPDOC', 'Hiragino Kaku Gothic ProN', 'ヒラギノ角ゴ ProN', 'Noto Sans JP', 'Helvetica Neue', Helvetica, Arial, sans-serif" font-size="14" font-weight="bold" lengthAdjust="spacing" textLength="44.6248" x="238" y="324.9999">send.c</text></g><!--entity n8--><g class="entity" data-entity="n8" data-source-line="9" data-uid="ent0006" id="entity_n8"><rect fill="#F1F1F1" height="37.7799" rx="2.5" ry="2.5" style="stroke:#181818;stroke-width:0.5;" width="75.9998" x="444.5" y="7"/><text fill="#000000" font-family="'Segoe UI', 'メイリオ', 'UDEV Gothic HSRFJPDOC', 'Hiragino Kaku Gothic ProN', 'ヒラギノ角ゴ ProN', 'Noto Sans JP', 'Helvetica Neue', Helvetica, Arial, sans-serif" font-size="14" lengthAdjust="spacing" textLength="55.9998" x="454.5" y="30.9999">stddef.h</text></g><!--entity n9--><g class="entity" data-entity="n9" data-source-line="10" data-uid="ent0007" id="entity_n9"><rect fill="#F1F1F1" height="37.7799" rx="2.5" ry="2.5" style="stroke:#181818;stroke-width:0.5;" width="75.9998" x="555.5" y="7"/><text fill="#000000" font-family="'Segoe UI', 'メイリオ', 'UDEV Gothic HSRFJPDOC', 'Hiragino Kaku Gothic ProN', 'ヒラギノ角ゴ ProN', 'Noto Sans JP', 'Helvetica Neue', Helvetica, Arial, sans-serif" font-size="14" lengthAdjust="spacing" textLength="55.9998" x="565.5" y="30.9999">stdint.h</text></g><!--entity n2--><g class="entity" data-entity="n2" data-source-line="11" data-uid="ent0008" id="entity_n2"><rect fill="#F1F1F1" height="37.7799" rx="2.5" ry="2.5" style="stroke:#181818;stroke-width:0.5;" width="68.9998" x="7" y="203"/><text fill="#000000" font-family="'Segoe UI', 'メイリオ', 'UDEV Gothic HSRFJPDOC', 'Hiragino Kaku Gothic ProN', 'ヒラギノ角ゴ ProN', 'Noto Sans JP', 'Helvetica Neue', Helvetica, Arial, sans-serif" font-size="14" lengthAdjust="spacing" textLength="48.9998" x="17" y="226.9999">stdio.h</text></g><!--entity n3--><g class="entity" data-entity="n3" data-source-line="12" data-uid="ent0009" id="entity_n3"><rect fill="#F1F1F1" height="37.7799" rx="2.5" ry="2.5" style="stroke:#181818;stroke-width:0.5;" width="75.9998" x="111.5" y="203"/><text fill="#000000" font-family="'Segoe UI', 'メイリオ', 'UDEV Gothic HSRFJPDOC', 'Hiragino Kaku Gothic ProN', 'ヒラギノ角ゴ ProN', 'Noto Sans JP', 'Helvetica Neue', Helvetica, Arial, sans-serif" font-size="14" lengthAdjust="spacing" textLength="55.9998" x="121.5" y="226.9999">stdlib.h</text></g><!--entity n4--><g class="entity" data-entity="n4" data-source-line="13" data-uid="ent0010" id="entity_n4"><rect fill="#F1F1F1" height="37.7799" rx="2.5" ry="2.5" style="stroke:#181818;stroke-width:0.5;" width="75.9998" x="222.5" y="203"/><text fill="#000000" font-family="'Segoe UI', 'メイリオ', 'UDEV Gothic HSRFJPDOC', 'Hiragino Kaku Gothic ProN', 'ヒラギノ角ゴ ProN', 'Noto Sans JP', 'Helvetica Neue', Helvetica, Arial, sans-serif" font-size="14" lengthAdjust="spacing" textLength="55.9998" x="232.5" y="226.9999">string.h</text></g><!--entity n5--><g class="entity" data-entity="n5" data-source-line="14" data-uid="ent0011" id="entity_n5"><rect fill="#F1F1F1" height="37.7799" rx="2.5" ry="2.5" style="stroke:#181818;stroke-width:0.5;" width="75.9998" x="333.5" y="203"/><text fill="#000000" font-family="'Segoe UI', 'メイリオ', 'UDEV Gothic HSRFJPDOC', 'Hiragino Kaku Gothic ProN', 'ヒラギノ角ゴ ProN', 'Noto Sans JP', 'Helvetica Neue', Helvetica, Arial, sans-serif" font-size="14" lengthAdjust="spacing" textLength="55.9998" x="343.5" y="226.9999">unistd.h</text></g><!--link n7 to n6--><g class="link" data-entity-1="n7" data-entity-2="n6" data-source-line="15" data-uid="lnk12" id="link_n7_n6"><path d="M482.5,143.3616 C482.5,160.5424 482.5,179.51 482.5,196.6786" fill="none" id="n7-to-n6" style="stroke:#181818;stroke-width:1;"/><polygon fill="#181818" points="482.5,202.6786,486.5,193.6786,482.5,197.6786,478.5,193.6786,482.5,202.6786" style="stroke:#181818;stroke-width:1;"/></g><!--link n8 to n7--><g class="link" data-entity-1="n8" data-entity-2="n7" data-source-line="16" data-uid="lnk13" id="link_n8_n7"><path d="M482.5,45.3616 C482.5,62.5424 482.5,81.51 482.5,98.6786" fill="none" id="n8-to-n7" style="stroke:#181818;stroke-width:1;"/><polygon fill="#181818" points="482.5,104.6786,486.5,95.6786,482.5,99.6786,478.5,95.6786,482.5,104.6786" style="stroke:#181818;stroke-width:1;"/></g><!--link n9 to n7--><g class="link" data-entity-1="n9" data-entity-2="n7" data-source-line="17" data-uid="lnk14" id="link_n9_n7"><path d="M571.8346,45.128 C552.2761,62.3959 528.1501,83.6962 508.6086,100.9491" fill="none" id="n9-to-n7" style="stroke:#181818;stroke-width:1;"/><polygon fill="#181818" points="504.1108,104.9202,513.5049,101.9621,507.859,101.611,508.2102,95.965,504.1108,104.9202" style="stroke:#181818;stroke-width:1;"/></g><!--link n10 to n7--><g class="link" data-entity-1="n10" data-entity-2="n7" data-source-line="18" data-uid="lnk15" id="link_n10_n7"><path d="M376.2643,45.128 C399.523,62.3959 428.7446,84.0907 451.9832,101.3436" fill="none" id="n10-to-n7" style="stroke:#181818;stroke-width:1;"/><polygon fill="#181818" points="456.8007,104.9202,451.9589,96.3437,452.7861,101.9397,447.1901,102.7669,456.8007,104.9202" style="stroke:#181818;stroke-width:1;"/></g><!--link n2 to n1--><g class="link" data-entity-1="n2" data-entity-2="n1" data-source-line="19" data-uid="lnk16" id="link_n2_n1"><path d="M76.2012,237.5284 C117.8115,256.1485 181.5485,284.6702 222.2729,302.8938" fill="none" id="n2-to-n1" style="stroke:#181818;stroke-width:1;"/><polygon fill="#181818" points="227.7496,305.3445,221.1684,298.0173,223.1857,303.3022,217.9008,305.3195,227.7496,305.3445" style="stroke:#181818;stroke-width:1;"/></g><!--link n3 to n1--><g class="link" data-entity-1="n3" data-entity-2="n1" data-source-line="20" data-uid="lnk17" id="link_n3_n1"><path d="M171.1654,241.128 C190.7239,258.3959 214.8499,279.6962 234.3914,296.9491" fill="none" id="n3-to-n1" style="stroke:#181818;stroke-width:1;"/><polygon fill="#181818" points="238.8892,300.9202,234.7898,291.965,235.141,297.611,229.4951,297.9621,238.8892,300.9202" style="stroke:#181818;stroke-width:1;"/></g><!--link n4 to n1--><g class="link" data-entity-1="n4" data-entity-2="n1" data-source-line="21" data-uid="lnk18" id="link_n4_n1"><path d="M260.5,241.3616 C260.5,258.5424 260.5,277.51 260.5,294.6786" fill="none" id="n4-to-n1" style="stroke:#181818;stroke-width:1;"/><polygon fill="#181818" points="260.5,300.6786,264.5,291.6786,260.5,295.6786,256.5,291.6786,260.5,300.6786" style="stroke:#181818;stroke-width:1;"/></g><!--link n5 to n1--><g class="link" data-entity-1="n5" data-entity-2="n1" data-source-line="22" data-uid="lnk19" id="link_n5_n1"><path d="M349.8346,241.128 C330.2761,258.3959 306.1501,279.6962 286.6086,296.9491" fill="none" id="n5-to-n1" style="stroke:#181818;stroke-width:1;"/><polygon fill="#181818" points="282.1108,300.9202,291.5049,297.9621,285.859,297.611,286.2102,291.965,282.1108,300.9202" style="stroke:#181818;stroke-width:1;"/></g><!--link n6 to n1--><g class="link" data-entity-1="n6" data-entity-2="n1" data-source-line="23" data-uid="lnk20" id="link_n6_n1"><path d="M444.3368,238.8468 C401.6909,257.6725 338.8525,285.4119 298.6042,303.1792" fill="none" id="n6-to-n1" style="stroke:#181818;stroke-width:1;"/><polygon fill="#181818" points="293.1152,305.6023,302.964,305.627,297.6893,303.5831,299.7333,298.3084,293.1152,305.6023" style="stroke:#181818;stroke-width:1;"/></g><!--SRC=[RT1D3e8m48RXVK_Hu8u41UL74-92jzx151YXeKv9EooylHffW-ZkJPwlRTBIqaF1aPMRAMmlSH16t7abwhurUiJch9Ksd8n0-o90OWPg4jWguC6W3O5PTm4NbcF-IzTQeoKtIE8_2teCu0R5tCFG0ZRhEWodqtnraMr79pN2V6UfQU3chjWlIA9__h0axMIx42KhHxjlCX9RH-cSHfIlWuuoXWMFekFxKt3_gOBXmLSI-zn-Ac6uyvNwodpbKpq1]--></g></svg>