<svg xmlns="http://www.w3.org/2000/svg" xmlns:xlink="http://www.w3.org/1999/xlink" contentStyleType="text/css" data-diagram-type="DESCRIPTION" height="344px" preserveAspectRatio="none" style="width:441px;height:344px;" version="1.1" viewBox="0 0 441 344" width="441px" zoomAndPan="magnify"><defs/><g><!--entity n3--><g class="entity" data-entity="n3" data-source-line="5" data-uid="ent0002" id="entity_n3"><rect fill="#F1F1F1" height="37.7799" rx="2.5" ry="2.5" style="stroke:#181818;stroke-width:0.5;" width="117.9996" x="7" y="7"/><text fill="#000000" font-family="'Segoe UI', 'メイリオ', 'UDEV Gothic HSRFJPDOC', 'Hiragino Kaku Gothic ProN', 'ヒラギノ角ゴ ProN', 'Noto Sans JP', 'Helvetica Neue', Helvetica, Arial, sans-serif" font-size="14" lengthAdjust="spacing" textLength="97.9996" x="17" y="30.9999">porter_const.h</text></g><!--entity n7--><g class="entity" data-entity="n7" data-source-line="6" data-uid="ent0003" id="entity_n7"><rect fill="#F1F1F1" height="37.7799" rx="2.5" ry="2.5" style="stroke:#181818;stroke-width:0.5;" width="110.9996" x="142.5" y="105"/><text fill="#000000" font-family="'Segoe UI', 'メイリオ', 'UDEV Gothic HSRFJPDOC', 'Hiragino Kaku Gothic ProN', 'ヒラギノ角ゴ ProN', 'Noto Sans JP', 'Helvetica Neue', Helvetica, Arial, sans-serif" font-size="14" lengthAdjust="spacing" textLength="90.9996" x="152.5" y="128.9999">porter_type.h</text></g><!--entity n4--><g class="entity" data-entity="n4" data-source-line="7" data-uid="ent0004" id="entity_n4"><rect fill="#F1F1F1" height="37.7799" rx="2.5" ry="2.5" style="stroke:#181818;stroke-width:0.5;" width="75.9998" x="360" y="105"/><text fill="#000000" font-family="'Segoe UI', 'メイリオ', 'UDEV Gothic HSRFJPDOC', 'Hiragino Kaku Gothic ProN', 'ヒラギノ角ゴ ProN', 'Noto Sans JP', 'Helvetica Neue', Helvetica, Arial, sans-serif" font-size="14" lengthAdjust="spacing" textLength="55.9998" x="370" y="128.9999">seqnum.h</text></g><!--entity n1--><g class="entity" data-entity="n1" data-source-line="8" data-uid="ent0005" id="entity_n1"><rect fill="#ADD8E6" height="37.7799" rx="2.5" ry="2.5" style="stroke:#181818;stroke-width:0.5;" width="79.4998" x="203.5" y="301"/><text fill="#000000" font-family="'Segoe UI', 'メイリオ', 'UDEV Gothic HSRFJPDOC', 'Hiragino Kaku Gothic ProN', 'ヒラギノ角ゴ ProN', 'Noto Sans JP', 'Helvetica Neue', Helvetica, Arial, sans-serif" font-size="14" font-weight="bold" lengthAdjust="spacing" textLength="59.4998" x="213.5" y="324.9999">window.c</text></g><!--entity n6--><g class="entity" data-entity="n6" data-source-line="9" data-uid="ent0006" id="entity_n6"><rect fill="#F1F1F1" height="37.7799" rx="2.5" ry="2.5" style="stroke:#181818;stroke-width:0.5;" width="75.9998" x="160" y="203"/><text fill="#000000" font-family="'Segoe UI', 'メイリオ', 'UDEV Gothic HSRFJPDOC', 'Hiragino Kaku Gothic ProN', 'ヒラギノ角ゴ ProN', 'Noto Sans JP', 'Helvetica Neue', Helvetica, Arial, sans-serif" font-size="14" lengthAdjust="spacing" textLength="55.9998" x="170" y="226.9999">window.h</text></g><!--entity n8--><g class="entity" data-entity="n8" data-source-line="10" data-uid="ent0007" id="entity_n8"><rect fill="#F1F1F1" height="37.7799" rx="2.5" ry="2.5" style="stroke:#181818;stroke-width:0.5;" width="75.9998" x="160" y="7"/><text fill="#000000" font-family="'Segoe UI', 'メイリオ', 'UDEV Gothic HSRFJPDOC', 'Hiragino Kaku Gothic ProN', 'ヒラギノ角ゴ ProN', 'Noto Sans JP', 'Helvetica Neue', Helvetica, Arial, sans-serif" font-size="14" lengthAdjust="spacing" textLength="55.9998" x="170" y="30.9999">stddef.h</text></g><!--entity n5--><g class="entity" data-entity="n5" data-source-line="11" data-uid="ent0008" id="entity_n5"><rect fill="#F1F1F1" height="37.7799" rx="2.5" ry="2.5" style="stroke:#181818;stroke-width:0.5;" width="75.9998" x="271" y="7"/><text fill="#000000" font-family="'Segoe UI', 'メイリオ', 'UDEV Gothic HSRFJPDOC', 'Hiragino Kaku Gothic ProN', 'ヒラギノ角ゴ ProN', 'Noto Sans JP', 'Helvetica Neue', Helvetica, Arial, sans-serif" font-size="14" lengthAdjust="spacing" textLength="55.9998" x="281" y="30.9999">stdint.h</text></g><!--entity n2--><g class="entity" data-entity="n2" data-source-line="12" data-uid="ent0009" id="entity_n2"><rect fill="#F1F1F1" height="37.7799" rx="2.5" ry="2.5" style="stroke:#181818;stroke-width:0.5;" width="75.9998" x="342" y="203"/><text fill="#000000" font-family="'Segoe UI', 'メイリオ', 'UDEV Gothic HSRFJPDOC', 'Hiragino Kaku Gothic ProN', 'ヒラギノ角ゴ ProN', 'Noto Sans JP', 'Helvetica Neue', Helvetica, Arial, sans-serif" font-size="14" lengthAdjust="spacing" textLength="55.9998" x="352" y="226.9999">string.h</text></g><!--link n8 to n7--><g class="link" data-entity-1="n8" data-entity-2="n7" data-source-line="13" data-uid="lnk10" id="link_n8_n7"><path d="M198,45.3616 C198,62.5424 198,81.51 198,98.6786" fill="none" id="n8-to-n7" style="stroke:#181818;stroke-width:1;"/><polygon fill="#181818" points="198,104.6786,202,95.6786,198,99.6786,194,95.6786,198,104.6786" style="stroke:#181818;stroke-width:1;"/></g><!--link n5 to n7--><g class="link" data-entity-1="n5" data-entity-2="n7" data-source-line="14" data-uid="lnk11" id="link_n5_n7"><path d="M287.3346,45.128 C267.7761,62.3959 243.6501,83.6962 224.1086,100.9491" fill="none" id="n5-to-n7" style="stroke:#181818;stroke-width:1;"/><polygon fill="#181818" points="219.6108,104.9202,229.0049,101.9621,223.359,101.611,223.7102,95.965,219.6108,104.9202" style="stroke:#181818;stroke-width:1;"/></g><!--link n3 to n7--><g class="link" data-entity-1="n3" data-entity-2="n7" data-source-line="15" data-uid="lnk12" id="link_n3_n7"><path d="M91.7643,45.128 C115.023,62.3959 144.2446,84.0907 167.4832,101.3436" fill="none" id="n3-to-n7" style="stroke:#181818;stroke-width:1;"/><polygon fill="#181818" points="172.3007,104.9202,167.4589,96.3437,168.2861,101.9397,162.6901,102.7669,172.3007,104.9202" style="stroke:#181818;stroke-width:1;"/></g><!--link n5 to n4--><g class="link" data-entity-1="n5" data-entity-2="n4" data-source-line="16" data-uid="lnk13" id="link_n5_n4"><path d="M326.5835,45.3616 C342.1865,62.5424 360.8273,83.0683 376.4192,100.2369" fill="none" id="n5-to-n4" style="stroke:#181818;stroke-width:1;"/><polygon fill="#181818" points="380.453,104.6786,377.3635,95.3269,377.0915,100.9772,371.4412,100.7053,380.453,104.6786" style="stroke:#181818;stroke-width:1;"/></g><!--link n2 to n1--><g class="link" data-entity-1="n2" data-entity-2="n1" data-source-line="17" data-uid="lnk14" id="link_n2_n1"><path d="M353.2598,241.128 C329.1201,258.3959 298.6716,280.1765 274.5528,297.4294" fill="none" id="n2-to-n1" style="stroke:#181818;stroke-width:1;"/><polygon fill="#181818" points="269.6728,300.9202,279.32,298.9373,273.7395,298.0112,274.6656,292.4307,269.6728,300.9202" style="stroke:#181818;stroke-width:1;"/></g><!--link n3 to n1--><g class="link" data-entity-1="n3" data-entity-2="n1" data-source-line="18" data-uid="lnk15" id="link_n3_n1"><path d="M68.5228,45.0027 C74.7004,85.1804 93.8346,180.0541 143,241 C162.4484,265.1084 185.5516,283.1293 207.0095,297.5428" fill="none" id="n3-to-n1" style="stroke:#181818;stroke-width:1;"/><polygon fill="#181818" points="211.9902,300.8884,206.7496,292.5496,207.8396,298.1004,202.2888,299.1905,211.9902,300.8884" style="stroke:#181818;stroke-width:1;"/></g><!--link n4 to n1--><g class="link" data-entity-1="n4" data-entity-2="n1" data-source-line="19" data-uid="lnk16" id="link_n4_n1"><path d="M378.9391,143.1477 C363.744,158.7544 342.2317,181.6309 325,203 C298.3747,236.018 274.0084,272.1028 258.5874,295.7632" fill="none" id="n4-to-n1" style="stroke:#181818;stroke-width:1;"/><polygon fill="#181818" points="255.3112,300.7898,263.5765,295.434,258.0413,296.601,256.8744,291.0658,255.3112,300.7898" style="stroke:#181818;stroke-width:1;"/></g><!--link n6 to n1--><g class="link" data-entity-1="n6" data-entity-2="n1" data-source-line="20" data-uid="lnk17" id="link_n6_n1"><path d="M206.8906,241.3616 C214.7797,258.5424 223.7407,278.0574 231.6242,295.226" fill="none" id="n6-to-n1" style="stroke:#181818;stroke-width:1;"/><polygon fill="#181818" points="234.1279,300.6786,234.0074,290.8305,232.0414,296.1347,226.7372,294.1688,234.1279,300.6786" style="stroke:#181818;stroke-width:1;"/></g><!--link n5 to n6--><g class="link" data-entity-1="n5" data-entity-2="n6" data-source-line="21" data-uid="lnk18" id="link_n5_n6"><path d="M305.4091,45.2868 C300.3404,69.3848 289.57,111.3055 271,143 C257.5003,166.0407 240.7071,183.9147 224.6253,198.8032" fill="none" id="n5-to-n6" style="stroke:#181818;stroke-width:1;"/><polygon fill="#181818" points="220.2225,202.8793,229.5442,199.7003,223.8915,199.4825,224.1093,193.8299,220.2225,202.8793" style="stroke:#181818;stroke-width:1;"/></g><!--link n3 to n6--><g class="link" data-entity-1="n3" data-entity-2="n6" data-source-line="22" data-uid="lnk19" id="link_n3_n6"><path d="M73.6844,45.1398 C83.7301,69.0861 102.697,110.8504 125,143 C140.4342,165.2483 157.5071,183.4501 173.137,198.6834" fill="none" id="n3-to-n6" style="stroke:#181818;stroke-width:1;"/><polygon fill="#181818" points="177.4338,202.8712,173.7804,193.725,173.8531,199.3814,168.1967,199.4541,177.4338,202.8712" style="stroke:#181818;stroke-width:1;"/></g><!--link n7 to n6--><g class="link" data-entity-1="n7" data-entity-2="n6" data-source-line="23" data-uid="lnk20" id="link_n7_n6"><path d="M198,143.3616 C198,160.5424 198,179.51 198,196.6786" fill="none" id="n7-to-n6" style="stroke:#181818;stroke-width:1;"/><polygon fill="#181818" points="198,202.6786,202,193.6786,198,197.6786,194,193.6786,198,202.6786" style="stroke:#181818;stroke-width:1;"/></g><!--SRC=[RSvB3e8m483XFQTeT4S2XgSi20lTUWTJOOG6c68xX71xCPG6ZRi__QQJoJND7HHEVZAXMu43Lxnd3rwsjP8ZLbVPISL8STGB0PAZe2IETGViC4X5eEwbH4r-Ss1SCup-3D0ymERdlMjuuTXl5E_9TIU1bPpyqdLN3jZn9kg6Bjq8-qapPvQaN_kfgk2vKVP30ktLoJSfWVL6eOCPyxpYSpecjgBVjzZ1SAt0wbAnhTIM-P7QkQNEfju0]--></g></svg>