<svg xmlns="http://www.w3.org/2000/svg" xmlns:xlink="http://www.w3.org/1999/xlink" contentStyleType="text/css" data-diagram-type="DESCRIPTION" height="540px" preserveAspectRatio="none" style="width:1223px;height:540px;" version="1.1" viewBox="0 0 1223 540" width="1223px" zoomAndPan="magnify"><defs/><g><!--entity n9--><g class="entity" data-entity="n9" data-source-line="5" data-uid="ent0002" id="entity_n9"><rect fill="#F1F1F1" height="37.7799" rx="2.5" ry="2.5" style="stroke:#181818;stroke-width:0.5;" width="75.9998" x="483" y="203"/><text fill="#000000" font-family="'Segoe UI', 'メイリオ', 'UDEV Gothic HSRFJPDOC', 'Hiragino Kaku Gothic ProN', 'ヒラギノ角ゴ ProN', 'Noto Sans JP', 'Helvetica Neue', Helvetica, Arial, sans-serif" font-size="14" lengthAdjust="spacing" textLength="55.9998" x="493" y="226.9999">porter.h</text></g><!--entity n8--><g class="entity" data-entity="n8" data-source-line="6" data-uid="ent0003" id="entity_n8"><rect fill="#F1F1F1" height="37.7799" rx="2.5" ry="2.5" style="stroke:#181818;stroke-width:0.5;" width="117.9996" x="90" y="7"/><text fill="#000000" font-family="'Segoe UI', 'メイリオ', 'UDEV Gothic HSRFJPDOC', 'Hiragino Kaku Gothic ProN', 'ヒラギノ角ゴ ProN', 'Noto Sans JP', 'Helvetica Neue', Helvetica, Arial, sans-serif" font-size="14" lengthAdjust="spacing" textLength="97.9996" x="100" y="30.9999">porter_const.h</text></g><!--entity n10--><g class="entity" data-entity="n10" data-source-line="7" data-uid="ent0004" id="entity_n10"><rect fill="#F1F1F1" height="37.7799" rx="2.5" ry="2.5" style="stroke:#181818;stroke-width:0.5;" width="110.9996" x="340.5" y="105"/><text fill="#000000" font-family="'Segoe UI', 'メイリオ', 'UDEV Gothic HSRFJPDOC', 'Hiragino Kaku Gothic ProN', 'ヒラギノ角ゴ ProN', 'Noto Sans JP', 'Helvetica Neue', Helvetica, Arial, sans-serif" font-size="14" lengthAdjust="spacing" textLength="90.9996" x="350.5" y="128.9999">porter_type.h</text></g><!--entity n16--><g class="entity" data-entity="n16" data-source-line="8" data-uid="ent0005" id="entity_n16"><rect fill="#F1F1F1" height="37.7799" rx="2.5" ry="2.5" style="stroke:#181818;stroke-width:0.5;" width="89.9997" x="487" y="105"/><text fill="#000000" font-family="'Segoe UI', 'メイリオ', 'UDEV Gothic HSRFJPDOC', 'Hiragino Kaku Gothic ProN', 'ヒラギノ角ゴ ProN', 'Noto Sans JP', 'Helvetica Neue', Helvetica, Arial, sans-serif" font-size="14" lengthAdjust="spacing" textLength="69.9997" x="497" y="128.9999">compress.h</text></g><!--entity n1--><g class="entity" data-entity="n1" data-source-line="9" data-uid="ent0006" id="entity_n1"><rect fill="#ADD8E6" height="37.7799" rx="2.5" ry="2.5" style="stroke:#181818;stroke-width:0.5;" width="101.8122" x="600" y="497"/><text fill="#000000" font-family="'Segoe UI', 'メイリオ', 'UDEV Gothic HSRFJPDOC', 'Hiragino Kaku Gothic ProN', 'ヒラギノ角ゴ ProN', 'Noto Sans JP', 'Helvetica Neue', Helvetica, Arial, sans-serif" font-size="14" font-weight="bold" lengthAdjust="spacing" textLength="81.8122" x="610" y="520.9999">potrClose.c</text></g><!--entity n13--><g class="entity" data-entity="n13" data-source-line="10" data-uid="ent0007" id="entity_n13"><rect fill="#F1F1F1" height="37.7799" rx="2.5" ry="2.5" style="stroke:#181818;stroke-width:0.5;" width="110.9996" x="255.5" y="301"/><text fill="#000000" font-family="'Segoe UI', 'メイリオ', 'UDEV Gothic HSRFJPDOC', 'Hiragino Kaku Gothic ProN', 'ヒラギノ角ゴ ProN', 'Noto Sans JP', 'Helvetica Neue', Helvetica, Arial, sans-serif" font-size="14" lengthAdjust="spacing" textLength="90.9996" x="265.5" y="324.9999">potrContext.h</text></g><!--entity n18--><g class="entity" data-entity="n18" data-source-line="11" data-uid="ent0008" id="entity_n18"><rect fill="#F1F1F1" height="37.7799" rx="2.5" ry="2.5" style="stroke:#181818;stroke-width:0.5;" width="131.9995" x="290" y="399"/><text fill="#000000" font-family="'Segoe UI', 'メイリオ', 'UDEV Gothic HSRFJPDOC', 'Hiragino Kaku Gothic ProN', 'ヒラギノ角ゴ ProN', 'Noto Sans JP', 'Helvetica Neue', Helvetica, Arial, sans-serif" font-size="14" lengthAdjust="spacing" textLength="111.9995" x="300" y="422.9999">potrRecvThread.h</text></g><!--entity n14--><g class="entity" data-entity="n14" data-source-line="12" data-uid="ent0009" id="entity_n14"><rect fill="#F1F1F1" height="37.7799" rx="2.5" ry="2.5" style="stroke:#181818;stroke-width:0.5;" width="103.9996" x="130" y="105"/><text fill="#000000" font-family="'Segoe UI', 'メイリオ', 'UDEV Gothic HSRFJPDOC', 'Hiragino Kaku Gothic ProN', 'ヒラギノ角ゴ ProN', 'Noto Sans JP', 'Helvetica Neue', Helvetica, Arial, sans-serif" font-size="14" lengthAdjust="spacing" textLength="83.9996" x="140" y="128.9999">retransmit.h</text></g><!--entity n15--><g class="entity" data-entity="n15" data-source-line="13" data-uid="ent0010" id="entity_n15"><rect fill="#F1F1F1" height="37.7799" rx="2.5" ry="2.5" style="stroke:#181818;stroke-width:0.5;" width="75.9998" x="182" y="203"/><text fill="#000000" font-family="'Segoe UI', 'メイリオ', 'UDEV Gothic HSRFJPDOC', 'Hiragino Kaku Gothic ProN', 'ヒラギノ角ゴ ProN', 'Noto Sans JP', 'Helvetica Neue', Helvetica, Arial, sans-serif" font-size="14" lengthAdjust="spacing" textLength="55.9998" x="192" y="226.9999">window.h</text></g><!--entity n19--><g class="entity" data-entity="n19" data-source-line="14" data-uid="ent0011" id="entity_n19"><rect fill="#F1F1F1" height="37.7799" rx="2.5" ry="2.5" style="stroke:#181818;stroke-width:0.5;" width="103.9996" x="599" y="399"/><text fill="#000000" font-family="'Segoe UI', 'メイリオ', 'UDEV Gothic HSRFJPDOC', 'Hiragino Kaku Gothic ProN', 'ヒラギノ角ゴ ProN', 'Noto Sans JP', 'Helvetica Neue', Helvetica, Arial, sans-serif" font-size="14" lengthAdjust="spacing" textLength="83.9996" x="609" y="422.9999">potrIpAddr.h</text></g><!--entity n4--><g class="entity" data-entity="n4" data-source-line="15" data-uid="ent0012" id="entity_n4"><rect fill="#F1F1F1" height="37.7799" rx="2.5" ry="2.5" style="stroke:#181818;stroke-width:0.5;" width="61.9998" x="574" y="301"/><text fill="#000000" font-family="'Segoe UI', 'メイリオ', 'UDEV Gothic HSRFJPDOC', 'Hiragino Kaku Gothic ProN', 'ヒラギノ角ゴ ProN', 'Noto Sans JP', 'Helvetica Neue', Helvetica, Arial, sans-serif" font-size="14" lengthAdjust="spacing" textLength="41.9998" x="584" y="324.9999">inet.h</text></g><!--entity n5--><g class="entity" data-entity="n5" data-source-line="16" data-uid="ent0013" id="entity_n5"><rect fill="#F1F1F1" height="37.7799" rx="2.5" ry="2.5" style="stroke:#181818;stroke-width:0.5;" width="47.9999" x="672" y="301"/><text fill="#000000" font-family="'Segoe UI', 'メイリオ', 'UDEV Gothic HSRFJPDOC', 'Hiragino Kaku Gothic ProN', 'ヒラギノ角ゴ ProN', 'Noto Sans JP', 'Helvetica Neue', Helvetica, Arial, sans-serif" font-size="14" lengthAdjust="spacing" textLength="27.9999" x="682" y="324.9999">in.h</text></g><!--entity n17--><g class="entity" data-entity="n17" data-source-line="17" data-uid="ent0014" id="entity_n17"><rect fill="#F1F1F1" height="37.7799" rx="2.5" ry="2.5" style="stroke:#181818;stroke-width:0.5;" width="82.9997" x="364.5" y="203"/><text fill="#000000" font-family="'Segoe UI', 'メイリオ', 'UDEV Gothic HSRFJPDOC', 'Hiragino Kaku Gothic ProN', 'ヒラギノ角ゴ ProN', 'Noto Sans JP', 'Helvetica Neue', Helvetica, Arial, sans-serif" font-size="14" lengthAdjust="spacing" textLength="62.9997" x="374.5" y="226.9999">pthread.h</text></g><!--entity n11--><g class="entity" data-entity="n11" data-source-line="18" data-uid="ent0015" id="entity_n11"><rect fill="#F1F1F1" height="37.7799" rx="2.5" ry="2.5" style="stroke:#181818;stroke-width:0.5;" width="75.9998" x="460" y="7"/><text fill="#000000" font-family="'Segoe UI', 'メイリオ', 'UDEV Gothic HSRFJPDOC', 'Hiragino Kaku Gothic ProN', 'ヒラギノ角ゴ ProN', 'Noto Sans JP', 'Helvetica Neue', Helvetica, Arial, sans-serif" font-size="14" lengthAdjust="spacing" textLength="55.9998" x="470" y="30.9999">stddef.h</text></g><!--entity n12--><g class="entity" data-entity="n12" data-source-line="19" data-uid="ent0016" id="entity_n12"><rect fill="#F1F1F1" height="37.7799" rx="2.5" ry="2.5" style="stroke:#181818;stroke-width:0.5;" width="75.9998" x="282" y="7"/><text fill="#000000" font-family="'Segoe UI', 'メイリオ', 'UDEV Gothic HSRFJPDOC', 'Hiragino Kaku Gothic ProN', 'ヒラギノ角ゴ ProN', 'Noto Sans JP', 'Helvetica Neue', Helvetica, Arial, sans-serif" font-size="14" lengthAdjust="spacing" textLength="55.9998" x="292" y="30.9999">stdint.h</text></g><!--entity n2--><g class="entity" data-entity="n2" data-source-line="20" data-uid="ent0017" id="entity_n2"><rect fill="#F1F1F1" height="37.7799" rx="2.5" ry="2.5" style="stroke:#181818;stroke-width:0.5;" width="75.9998" x="809" y="399"/><text fill="#000000" font-family="'Segoe UI', 'メイリオ', 'UDEV Gothic HSRFJPDOC', 'Hiragino Kaku Gothic ProN', 'ヒラギノ角ゴ ProN', 'Noto Sans JP', 'Helvetica Neue', Helvetica, Arial, sans-serif" font-size="14" lengthAdjust="spacing" textLength="55.9998" x="819" y="422.9999">stdlib.h</text></g><!--entity n3--><g class="entity" data-entity="n3" data-source-line="21" data-uid="ent0018" id="entity_n3"><rect fill="#F1F1F1" height="37.7799" rx="2.5" ry="2.5" style="stroke:#181818;stroke-width:0.5;" width="75.9998" x="920" y="399"/><text fill="#000000" font-family="'Segoe UI', 'メイリオ', 'UDEV Gothic HSRFJPDOC', 'Hiragino Kaku Gothic ProN', 'ヒラギノ角ゴ ProN', 'Noto Sans JP', 'Helvetica Neue', Helvetica, Arial, sans-serif" font-size="14" lengthAdjust="spacing" textLength="55.9998" x="930" y="422.9999">string.h</text></g><!--entity n6--><g class="entity" data-entity="n6" data-source-line="22" data-uid="ent0019" id="entity_n6"><rect fill="#F1F1F1" height="37.7799" rx="2.5" ry="2.5" style="stroke:#181818;stroke-width:0.5;" width="75.9998" x="1031" y="399"/><text fill="#000000" font-family="'Segoe UI', 'メイリオ', 'UDEV Gothic HSRFJPDOC', 'Hiragino Kaku Gothic ProN', 'ヒラギノ角ゴ ProN', 'Noto Sans JP', 'Helvetica Neue', Helvetica, Arial, sans-serif" font-size="14" lengthAdjust="spacing" textLength="55.9998" x="1041" y="422.9999">socket.h</text></g><!--entity n7--><g class="entity" data-entity="n7" data-source-line="23" data-uid="ent0020" id="entity_n7"><rect fill="#F1F1F1" height="37.7799" rx="2.5" ry="2.5" style="stroke:#181818;stroke-width:0.5;" width="75.9998" x="1142" y="399"/><text fill="#000000" font-family="'Segoe UI', 'メイリオ', 'UDEV Gothic HSRFJPDOC', 'Hiragino Kaku Gothic ProN', 'ヒラギノ角ゴ ProN', 'Noto Sans JP', 'Helvetica Neue', Helvetica, Arial, sans-serif" font-size="14" lengthAdjust="spacing" textLength="55.9998" x="1152" y="422.9999">unistd.h</text></g><!--link n10 to n9--><g class="link" data-entity-1="n10" data-entity-2="n9" data-source-line="24" data-uid="lnk21" id="link_n10_n9"><path d="M420.398,143.128 C442.4233,160.3959 469.9355,181.9654 491.9417,199.2183" fill="none" id="n10-to-n9" style="stroke:#181818;stroke-width:1;"/><polygon fill="#181818" points="496.6635,202.9202,492.0487,194.2194,492.7286,199.8353,487.1128,200.5152,496.6635,202.9202" style="stroke:#181818;stroke-width:1;"/></g><!--link n11 to n10--><g class="link" data-entity-1="n11" data-entity-2="n10" data-source-line="25" data-uid="lnk22" id="link_n11_n10"><path d="M477.8481,45.3616 C459.9661,62.5424 438.306,83.353 420.4367,100.5216" fill="none" id="n11-to-n10" style="stroke:#181818;stroke-width:1;"/><polygon fill="#181818" points="416.1101,104.6786,425.3713,101.3276,419.7156,101.2145,419.8287,95.5587,416.1101,104.6786" style="stroke:#181818;stroke-width:1;"/></g><!--link n12 to n10--><g class="link" data-entity-1="n12" data-entity-2="n10" data-source-line="26" data-uid="lnk23" id="link_n12_n10"><path d="M335.0152,45.3616 C348.339,62.5424 364.0247,82.7687 377.3391,99.9373" fill="none" id="n12-to-n10" style="stroke:#181818;stroke-width:1;"/><polygon fill="#181818" points="381.016,104.6786,378.6615,95.1153,377.9519,100.7275,372.3397,100.0179,381.016,104.6786" style="stroke:#181818;stroke-width:1;"/></g><!--link n8 to n10--><g class="link" data-entity-1="n8" data-entity-2="n10" data-source-line="27" data-uid="lnk24" id="link_n8_n10"><path d="M196.917,45.0116 C240.4071,62.2668 298.6387,85.3708 342.2182,102.6614" fill="none" id="n8-to-n10" style="stroke:#181818;stroke-width:1;"/><polygon fill="#181818" points="347.7953,104.8742,340.9049,97.837,343.1477,103.0302,337.9545,105.2731,347.7953,104.8742" style="stroke:#181818;stroke-width:1;"/></g><!--link n11 to n16--><g class="link" data-entity-1="n11" data-entity-2="n16" data-source-line="28" data-uid="lnk25" id="link_n11_n16"><path d="M504.7173,45.3616 C510.678,62.5424 517.3736,81.8415 523.33,99.0101" fill="none" id="n11-to-n16" style="stroke:#181818;stroke-width:1;"/><polygon fill="#181818" points="525.2966,104.6786,526.1257,94.8647,523.6577,99.9548,518.5676,97.4869,525.2966,104.6786" style="stroke:#181818;stroke-width:1;"/></g><!--link n12 to n16--><g class="link" data-entity-1="n12" data-entity-2="n16" data-source-line="29" data-uid="lnk26" id="link_n12_n16"><path d="M358.3916,43.7471 C395.7392,61.0115 446.8585,84.6422 485.1875,102.3603" fill="none" id="n12-to-n16" style="stroke:#181818;stroke-width:1;"/><polygon fill="#181818" points="490.6338,104.8779,484.1428,97.4707,486.0953,102.7799,480.786,104.7323,490.6338,104.8779" style="stroke:#181818;stroke-width:1;"/></g><!--link n2 to n1--><g class="link" data-entity-1="n2" data-entity-2="n1" data-source-line="30" data-uid="lnk27" id="link_n2_n1"><path d="M808.7439,437.128 C774.2083,454.3959 729.032,476.984 694.5262,494.2369" fill="none" id="n2-to-n1" style="stroke:#181818;stroke-width:1;"/><polygon fill="#181818" points="689.1596,496.9202,698.9983,496.473,693.6317,494.6841,695.4206,489.3176,689.1596,496.9202" style="stroke:#181818;stroke-width:1;"/></g><!--link n3 to n1--><g class="link" data-entity-1="n3" data-entity-2="n1" data-source-line="31" data-uid="lnk28" id="link_n3_n1"><path d="M919.7805,431.0933 C913.8354,433.0936 907.7573,435.1175 902,437 C832.9596,459.5741 758.5873,482.8089 707.7953,498.519" fill="none" id="n3-to-n1" style="stroke:#181818;stroke-width:1;"/><polygon fill="#181818" points="702.0632,500.2919,711.8433,501.4539,706.8399,498.8144,709.4793,493.8111,702.0632,500.2919" style="stroke:#181818;stroke-width:1;"/></g><!--link n4 to n1--><g class="link" data-entity-1="n4" data-entity-2="n1" data-source-line="32" data-uid="lnk29" id="link_n4_n1"><path d="M594.6605,339.1656 C583.3579,362.7811 568.4251,403.8471 581,437 C590.0983,460.9872 605.6867,478.3894 622.018,492.838" fill="none" id="n4-to-n1" style="stroke:#181818;stroke-width:1;"/><polygon fill="#181818" points="626.5117,496.8137,622.4215,487.8543,622.7669,493.5006,617.1206,493.846,626.5117,496.8137" style="stroke:#181818;stroke-width:1;"/></g><!--link n5 to n1--><g class="link" data-entity-1="n5" data-entity-2="n1" data-source-line="33" data-uid="lnk30" id="link_n5_n1"><path d="M706.3004,339.1508 C717.5635,362.7514 732.4565,403.8024 720,437 C711.0437,460.8692 695.7083,478.2457 679.6068,492.7286" fill="none" id="n5-to-n1" style="stroke:#181818;stroke-width:1;"/><polygon fill="#181818" points="675.1459,496.7411,684.5123,493.6963,678.8633,493.3974,679.1623,487.7484,675.1459,496.7411" style="stroke:#181818;stroke-width:1;"/></g><!--link n6 to n1--><g class="link" data-entity-1="n6" data-entity-2="n1" data-source-line="34" data-uid="lnk31" id="link_n6_n1"><path d="M1030.9207,431.5571 C1024.9568,433.4954 1018.8362,435.3786 1013,437 C903.4521,467.434 778.5087,492.3958 707.9984,505.6187" fill="none" id="n6-to-n1" style="stroke:#181818;stroke-width:1;"/><polygon fill="#181818" points="702.1012,506.7246,711.6843,508.9972,707.0155,505.803,710.2097,501.1343,702.1012,506.7246" style="stroke:#181818;stroke-width:1;"/></g><!--link n7 to n1--><g class="link" data-entity-1="n7" data-entity-2="n1" data-source-line="35" data-uid="lnk32" id="link_n7_n1"><path d="M1141.7837,432.1186 C1136.199,433.9134 1130.483,435.6065 1125,437 C1045.3566,457.2417 813.5332,492.2412 708.1712,507.7002" fill="none" id="n7-to-n1" style="stroke:#181818;stroke-width:1;"/><polygon fill="#181818" points="702.2348,508.5712,711.7201,511.2223,707.1818,507.8454,710.5588,503.3071,702.2348,508.5712" style="stroke:#181818;stroke-width:1;"/></g><!--link n8 to n1--><g class="link" data-entity-1="n8" data-entity-2="n1" data-source-line="36" data-uid="lnk33" id="link_n8_n1"><path d="M121.7662,45.1407 C80.2761,76.7842 6,144.2854 6,222 C6,222 6,222 6,320 C6,443.911 441.32,496.3619 593.8762,510.9902" fill="none" id="n8-to-n1" style="stroke:#181818;stroke-width:1;"/><polygon fill="#181818" points="599.8488,511.5629,591.2717,506.7221,594.8716,511.0856,590.5081,514.6856,599.8488,511.5629" style="stroke:#181818;stroke-width:1;"/></g><!--link n9 to n1--><g class="link" data-entity-1="n9" data-entity-2="n1" data-source-line="37" data-uid="lnk34" id="link_n9_n1"><path d="M521.6238,241.1248 C523.6533,280.3362 532.2854,371.6459 569,437 C582.5549,461.1285 601.0947,478.7804 619.3848,493.188" fill="none" id="n9-to-n1" style="stroke:#181818;stroke-width:1;"/><polygon fill="#181818" points="624.0981,496.9008,619.5033,488.1894,620.1704,493.8068,614.553,494.4738,624.0981,496.9008" style="stroke:#181818;stroke-width:1;"/></g><!--link n13 to n1--><g class="link" data-entity-1="n13" data-entity-2="n1" data-source-line="38" data-uid="lnk35" id="link_n13_n1"><path d="M294.3251,339.4249 C274.9606,364.4305 248.4973,408.0932 272,437 C312.7582,487.1299 500.0571,506.1023 593.7943,512.6509" fill="none" id="n13-to-n1" style="stroke:#181818;stroke-width:1;"/><polygon fill="#181818" points="599.7797,513.069,591.0803,508.4515,594.7919,512.7205,590.5228,516.4321,599.7797,513.069" style="stroke:#181818;stroke-width:1;"/></g><!--link n18 to n1--><g class="link" data-entity-1="n18" data-entity-2="n1" data-source-line="39" data-uid="lnk36" id="link_n18_n1"><path d="M413.2288,437.0116 C467.3487,454.9904 542.1195,479.8295 594.1506,497.1144" fill="none" id="n18-to-n1" style="stroke:#181818;stroke-width:1;"/><polygon fill="#181818" points="599.8446,499.006,592.5646,492.3726,595.0996,497.4297,590.0425,499.9647,599.8446,499.006" style="stroke:#181818;stroke-width:1;"/></g><!--link n19 to n1--><g class="link" data-entity-1="n19" data-entity-2="n1" data-source-line="40" data-uid="lnk37" id="link_n19_n1"><path d="M651,437.3616 C651,454.5424 651,473.51 651,490.6786" fill="none" id="n19-to-n1" style="stroke:#181818;stroke-width:1;"/><polygon fill="#181818" points="651,496.6786,655,487.6786,651,491.6786,647,487.6786,651,496.6786" style="stroke:#181818;stroke-width:1;"/></g><!--link n10 to n13--><g class="link" data-entity-1="n10" data-entity-2="n13" data-source-line="41" data-uid="lnk38" id="link_n10_n13"><path d="M382.2569,143.0242 C371.5206,158.5611 356.8219,181.4038 347,203 C331.9548,236.0808 322.3416,271.3356 316.69,294.9751" fill="none" id="n10-to-n13" style="stroke:#181818;stroke-width:1;"/><polygon fill="#181818" points="315.2949,300.8106,321.278,292.9874,316.4575,295.9476,313.4972,291.1272,315.2949,300.8106" style="stroke:#181818;stroke-width:1;"/></g><!--link n14 to n13--><g class="link" data-entity-1="n14" data-entity-2="n13" data-source-line="42" data-uid="lnk39" id="link_n14_n13"><path d="M171.7972,143.2979 C160.3901,167.7805 145.756,210.4837 164,241 C183.773,274.0739 217.0215,292.1035 249.842,303.7171" fill="none" id="n14-to-n13" style="stroke:#181818;stroke-width:1;"/><polygon fill="#181818" points="255.4983,305.7186,248.3481,298.9455,250.7847,304.0507,245.6795,306.4872,255.4983,305.7186" style="stroke:#181818;stroke-width:1;"/></g><!--link n15 to n13--><g class="link" data-entity-1="n15" data-entity-2="n13" data-source-line="43" data-uid="lnk40" id="link_n15_n13"><path d="M237.9787,241.3616 C253.9322,258.5424 273.0337,279.1132 288.976,296.2818" fill="none" id="n15-to-n13" style="stroke:#181818;stroke-width:1;"/><polygon fill="#181818" points="293.0587,300.6786,289.8658,291.3617,289.6564,297.0146,284.0035,296.8053,293.0587,300.6786" style="stroke:#181818;stroke-width:1;"/></g><!--link n16 to n13--><g class="link" data-entity-1="n16" data-entity-2="n13" data-source-line="44" data-uid="lnk41" id="link_n16_n13"><path d="M549.5972,143.0037 C570.1298,167.5537 598.5666,210.7246 576,241 C550.9315,274.6319 442.5177,298.1317 372.4731,310.3133" fill="none" id="n16-to-n13" style="stroke:#181818;stroke-width:1;"/><polygon fill="#181818" points="366.5618,311.3413,376.1141,313.7401,371.4879,310.4846,374.7433,305.8584,366.5618,311.3413" style="stroke:#181818;stroke-width:1;"/></g><!--link n17 to n13--><g class="link" data-entity-1="n17" data-entity-2="n13" data-source-line="45" data-uid="lnk42" id="link_n17_n13"><path d="M387.2311,241.3616 C370.5763,258.5424 350.5492,279.2019 333.9062,296.3705" fill="none" id="n17-to-n13" style="stroke:#181818;stroke-width:1;"/><polygon fill="#181818" points="329.73,300.6786,338.8663,297.0006,333.2102,297.0885,333.1222,291.4324,329.73,300.6786" style="stroke:#181818;stroke-width:1;"/></g><!--link n13 to n18--><g class="link" data-entity-1="n13" data-entity-2="n18" data-source-line="46" data-uid="lnk43" id="link_n13_n18"><path d="M319.8906,339.3616 C327.7797,356.5424 336.7407,376.0574 344.6242,393.226" fill="none" id="n13-to-n18" style="stroke:#181818;stroke-width:1;"/><polygon fill="#181818" points="347.1279,398.6786,347.0074,388.8305,345.0414,394.1347,339.7372,392.1688,347.1279,398.6786" style="stroke:#181818;stroke-width:1;"/></g><!--link n12 to n14--><g class="link" data-entity-1="n12" data-entity-2="n14" data-source-line="47" data-uid="lnk44" id="link_n12_n14"><path d="M293.0646,45.128 C268.7487,62.3959 238.0544,84.1933 213.7595,101.4462" fill="none" id="n12-to-n14" style="stroke:#181818;stroke-width:1;"/><polygon fill="#181818" points="208.8675,104.9202,218.5214,102.9705,212.9441,102.0252,213.8894,96.4479,208.8675,104.9202" style="stroke:#181818;stroke-width:1;"/></g><!--link n8 to n14--><g class="link" data-entity-1="n8" data-entity-2="n14" data-source-line="48" data-uid="lnk45" id="link_n8_n14"><path d="M155.5197,45.3616 C161.3051,62.5424 167.7979,81.8237 173.5791,98.9923" fill="none" id="n8-to-n14" style="stroke:#181818;stroke-width:1;"/><polygon fill="#181818" points="175.4938,104.6786,176.4125,94.8727,173.8982,99.94,168.8308,97.4257,175.4938,104.6786" style="stroke:#181818;stroke-width:1;"/></g><!--link n12 to n15--><g class="link" data-entity-1="n12" data-entity-2="n15" data-source-line="49" data-uid="lnk46" id="link_n12_n15"><path d="M310.2295,45.1502 C291.1118,82.6208 251.6864,159.8945 232.537,197.4275" fill="none" id="n12-to-n15" style="stroke:#181818;stroke-width:1;"/><polygon fill="#181818" points="229.8102,202.7721,237.4635,196.5731,232.0825,198.3183,230.3374,192.9374,229.8102,202.7721" style="stroke:#181818;stroke-width:1;"/></g><!--link n8 to n15--><g class="link" data-entity-1="n8" data-entity-2="n15" data-source-line="50" data-uid="lnk47" id="link_n8_n15"><path d="M134.019,45.3862 C117.5607,69.224 95.5136,110.5141 112,143 C126.5608,171.6914 151.6629,189.6764 176.5172,202.6979" fill="none" id="n8-to-n15" style="stroke:#181818;stroke-width:1;"/><polygon fill="#181818" points="181.832,205.4824,175.7162,197.7625,177.403,203.162,172.0035,204.8489,181.832,205.4824" style="stroke:#181818;stroke-width:1;"/></g><!--link n10 to n15--><g class="link" data-entity-1="n10" data-entity-2="n15" data-source-line="51" data-uid="lnk48" id="link_n10_n15"><path d="M361.6476,143.128 C330.636,160.3959 290.4927,182.7484 259.5078,200.0013" fill="none" id="n10-to-n15" style="stroke:#181818;stroke-width:1;"/><polygon fill="#181818" points="254.2657,202.9202,264.0748,202.0366,258.6341,200.4878,260.183,195.0471,254.2657,202.9202" style="stroke:#181818;stroke-width:1;"/></g><!--link n4 to n19--><g class="link" data-entity-1="n4" data-entity-2="n19" data-source-line="52" data-uid="lnk49" id="link_n4_n19"><path d="M614.0881,339.3616 C622.1526,356.5424 631.3225,376.0786 639.3813,393.2472" fill="none" id="n4-to-n19" style="stroke:#181818;stroke-width:1;"/><polygon fill="#181818" points="641.9308,398.6786,641.7276,388.8318,639.8062,394.1524,634.4857,392.2311,641.9308,398.6786" style="stroke:#181818;stroke-width:1;"/></g><!--link n5 to n19--><g class="link" data-entity-1="n5" data-entity-2="n19" data-source-line="53" data-uid="lnk50" id="link_n5_n19"><path d="M687.1094,339.3616 C679.2203,356.5424 670.2593,376.0574 662.3758,393.226" fill="none" id="n5-to-n19" style="stroke:#181818;stroke-width:1;"/><polygon fill="#181818" points="659.8721,398.6786,667.2628,392.1688,661.9586,394.1347,659.9926,388.8305,659.8721,398.6786" style="stroke:#181818;stroke-width:1;"/></g><!--SRC=[RPBBJiCm44Nt-Gghx2ArO9gdL5M2hf1O8VR8TORKQZgER9VIlyT0_0hihkPSZU_CUAFDTO1jjhcTX3uA79bY9x9d_DWhUSPk9mUfY54CjKM09bF03SD-0B8OfJAWLeS5OPfW-nUzSOdQE4FpZy5SHt2StiK6Ba-Z0gqzhMAQvwCqQZT83IkUvvE5t3oB_c0UXpEaRrchH0EVFWjTpmqlm3zU3mfOvpr9O0K_MpY9qAE8-KLW9o-UbVF-J-D3r_bbqMHR0i5tBLBWoca_amQjOwXDry6xPtJ618O1xcTi47l7PaW9x1rALgSbFuRmoOtEA6nFX-hC7fWibzllds9Z_KfxSniZw2OgEqiLMQnsCiErLuLNfLULLxLNZLUjLpIqeO7Jo335jd_6tZpIPQIhIDUHTisRQ8WY12cYSXdAPVHg6SPhmtpj5m00]--></g></svg>