<svg xmlns="http://www.w3.org/2000/svg" xmlns:xlink="http://www.w3.org/1999/xlink" contentStyleType="text/css" data-diagram-type="DESCRIPTION" height="344px" preserveAspectRatio="none" style="width:748px;height:344px;" version="1.1" viewBox="0 0 748 344" width="748px" zoomAndPan="magnify"><defs/><g><!--entity n7--><g class="entity" data-entity="n7" data-source-line="5" data-uid="ent0002" id="entity_n7"><rect fill="#F1F1F1" height="37.7799" rx="2.5" ry="2.5" style="stroke:#181818;stroke-width:0.5;" width="75.9998" x="556" y="203"/><text fill="#000000" font-family="'Segoe UI', 'メイリオ', 'UDEV Gothic HSRFJPDOC', 'Hiragino Kaku Gothic ProN', 'ヒラギノ角ゴ ProN', 'Noto Sans JP', 'Helvetica Neue', Helvetica, Arial, sans-serif" font-size="14" lengthAdjust="spacing" textLength="55.9998" x="566" y="226.9999">porter.h</text></g><!--entity n11--><g class="entity" data-entity="n11" data-source-line="6" data-uid="ent0003" id="entity_n11"><rect fill="#F1F1F1" height="37.7799" rx="2.5" ry="2.5" style="stroke:#181818;stroke-width:0.5;" width="117.9996" x="403" y="7"/><text fill="#000000" font-family="'Segoe UI', 'メイリオ', 'UDEV Gothic HSRFJPDOC', 'Hiragino Kaku Gothic ProN', 'ヒラギノ角ゴ ProN', 'Noto Sans JP', 'Helvetica Neue', Helvetica, Arial, sans-serif" font-size="14" lengthAdjust="spacing" textLength="97.9996" x="413" y="30.9999">porter_const.h</text></g><!--entity n8--><g class="entity" data-entity="n8" data-source-line="7" data-uid="ent0004" id="entity_n8"><rect fill="#F1F1F1" height="37.7799" rx="2.5" ry="2.5" style="stroke:#181818;stroke-width:0.5;" width="110.9996" x="538.5" y="105"/><text fill="#000000" font-family="'Segoe UI', 'メイリオ', 'UDEV Gothic HSRFJPDOC', 'Hiragino Kaku Gothic ProN', 'ヒラギノ角ゴ ProN', 'Noto Sans JP', 'Helvetica Neue', Helvetica, Arial, sans-serif" font-size="14" lengthAdjust="spacing" textLength="90.9996" x="548.5" y="128.9999">porter_type.h</text></g><!--entity n1--><g class="entity" data-entity="n1" data-source-line="8" data-uid="ent0005" id="entity_n1"><rect fill="#ADD8E6" height="37.7799" rx="2.5" ry="2.5" style="stroke:#181818;stroke-width:0.5;" width="64.6248" x="283.5" y="301"/><text fill="#000000" font-family="'Segoe UI', 'メイリオ', 'UDEV Gothic HSRFJPDOC', 'Hiragino Kaku Gothic ProN', 'ヒラギノ角ゴ ProN', 'Noto Sans JP', 'Helvetica Neue', Helvetica, Arial, sans-serif" font-size="14" font-weight="bold" lengthAdjust="spacing" textLength="44.6248" x="293.5" y="324.9999">recv.c</text></g><!--entity n2--><g class="entity" data-entity="n2" data-source-line="9" data-uid="ent0006" id="entity_n2"><rect fill="#F1F1F1" height="37.7799" rx="2.5" ry="2.5" style="stroke:#181818;stroke-width:0.5;" width="75.9998" x="7" y="203"/><text fill="#000000" font-family="'Segoe UI', 'メイリオ', 'UDEV Gothic HSRFJPDOC', 'Hiragino Kaku Gothic ProN', 'ヒラギノ角ゴ ProN', 'Noto Sans JP', 'Helvetica Neue', Helvetica, Arial, sans-serif" font-size="14" lengthAdjust="spacing" textLength="55.9998" x="17" y="226.9999">signal.h</text></g><!--entity n9--><g class="entity" data-entity="n9" data-source-line="10" data-uid="ent0007" id="entity_n9"><rect fill="#F1F1F1" height="37.7799" rx="2.5" ry="2.5" style="stroke:#181818;stroke-width:0.5;" width="75.9998" x="556" y="7"/><text fill="#000000" font-family="'Segoe UI', 'メイリオ', 'UDEV Gothic HSRFJPDOC', 'Hiragino Kaku Gothic ProN', 'ヒラギノ角ゴ ProN', 'Noto Sans JP', 'Helvetica Neue', Helvetica, Arial, sans-serif" font-size="14" lengthAdjust="spacing" textLength="55.9998" x="566" y="30.9999">stddef.h</text></g><!--entity n10--><g class="entity" data-entity="n10" data-source-line="11" data-uid="ent0008" id="entity_n10"><rect fill="#F1F1F1" height="37.7799" rx="2.5" ry="2.5" style="stroke:#181818;stroke-width:0.5;" width="75.9998" x="667" y="7"/><text fill="#000000" font-family="'Segoe UI', 'メイリオ', 'UDEV Gothic HSRFJPDOC', 'Hiragino Kaku Gothic ProN', 'ヒラギノ角ゴ ProN', 'Noto Sans JP', 'Helvetica Neue', Helvetica, Arial, sans-serif" font-size="14" lengthAdjust="spacing" textLength="55.9998" x="677" y="30.9999">stdint.h</text></g><!--entity n3--><g class="entity" data-entity="n3" data-source-line="12" data-uid="ent0009" id="entity_n3"><rect fill="#F1F1F1" height="37.7799" rx="2.5" ry="2.5" style="stroke:#181818;stroke-width:0.5;" width="68.9998" x="118.5" y="203"/><text fill="#000000" font-family="'Segoe UI', 'メイリオ', 'UDEV Gothic HSRFJPDOC', 'Hiragino Kaku Gothic ProN', 'ヒラギノ角ゴ ProN', 'Noto Sans JP', 'Helvetica Neue', Helvetica, Arial, sans-serif" font-size="14" lengthAdjust="spacing" textLength="48.9998" x="128.5" y="226.9999">stdio.h</text></g><!--entity n4--><g class="entity" data-entity="n4" data-source-line="13" data-uid="ent0010" id="entity_n4"><rect fill="#F1F1F1" height="37.7799" rx="2.5" ry="2.5" style="stroke:#181818;stroke-width:0.5;" width="75.9998" x="223" y="203"/><text fill="#000000" font-family="'Segoe UI', 'メイリオ', 'UDEV Gothic HSRFJPDOC', 'Hiragino Kaku Gothic ProN', 'ヒラギノ角ゴ ProN', 'Noto Sans JP', 'Helvetica Neue', Helvetica, Arial, sans-serif" font-size="14" lengthAdjust="spacing" textLength="55.9998" x="233" y="226.9999">stdlib.h</text></g><!--entity n5--><g class="entity" data-entity="n5" data-source-line="14" data-uid="ent0011" id="entity_n5"><rect fill="#F1F1F1" height="37.7799" rx="2.5" ry="2.5" style="stroke:#181818;stroke-width:0.5;" width="75.9998" x="334" y="203"/><text fill="#000000" font-family="'Segoe UI', 'メイリオ', 'UDEV Gothic HSRFJPDOC', 'Hiragino Kaku Gothic ProN', 'ヒラギノ角ゴ ProN', 'Noto Sans JP', 'Helvetica Neue', Helvetica, Arial, sans-serif" font-size="14" lengthAdjust="spacing" textLength="55.9998" x="344" y="226.9999">string.h</text></g><!--entity n6--><g class="entity" data-entity="n6" data-source-line="15" data-uid="ent0012" id="entity_n6"><rect fill="#F1F1F1" height="37.7799" rx="2.5" ry="2.5" style="stroke:#181818;stroke-width:0.5;" width="75.9998" x="445" y="203"/><text fill="#000000" font-family="'Segoe UI', 'メイリオ', 'UDEV Gothic HSRFJPDOC', 'Hiragino Kaku Gothic ProN', 'ヒラギノ角ゴ ProN', 'Noto Sans JP', 'Helvetica Neue', Helvetica, Arial, sans-serif" font-size="14" lengthAdjust="spacing" textLength="55.9998" x="455" y="226.9999">unistd.h</text></g><!--link n8 to n7--><g class="link" data-entity-1="n8" data-entity-2="n7" data-source-line="16" data-uid="lnk13" id="link_n8_n7"><path d="M594,143.3616 C594,160.5424 594,179.51 594,196.6786" fill="none" id="n8-to-n7" style="stroke:#181818;stroke-width:1;"/><polygon fill="#181818" points="594,202.6786,598,193.6786,594,197.6786,590,193.6786,594,202.6786" style="stroke:#181818;stroke-width:1;"/></g><!--link n9 to n8--><g class="link" data-entity-1="n9" data-entity-2="n8" data-source-line="17" data-uid="lnk14" id="link_n9_n8"><path d="M594,45.3616 C594,62.5424 594,81.51 594,98.6786" fill="none" id="n9-to-n8" style="stroke:#181818;stroke-width:1;"/><polygon fill="#181818" points="594,104.6786,598,95.6786,594,99.6786,590,95.6786,594,104.6786" style="stroke:#181818;stroke-width:1;"/></g><!--link n10 to n8--><g class="link" data-entity-1="n10" data-entity-2="n8" data-source-line="18" data-uid="lnk15" id="link_n10_n8"><path d="M683.3346,45.128 C663.7761,62.3959 639.6501,83.6962 620.1086,100.9491" fill="none" id="n10-to-n8" style="stroke:#181818;stroke-width:1;"/><polygon fill="#181818" points="615.6108,104.9202,625.0049,101.9621,619.359,101.611,619.7102,95.965,615.6108,104.9202" style="stroke:#181818;stroke-width:1;"/></g><!--link n11 to n8--><g class="link" data-entity-1="n11" data-entity-2="n8" data-source-line="19" data-uid="lnk16" id="link_n11_n8"><path d="M487.7643,45.128 C511.023,62.3959 540.2446,84.0907 563.4832,101.3436" fill="none" id="n11-to-n8" style="stroke:#181818;stroke-width:1;"/><polygon fill="#181818" points="568.3007,104.9202,563.4589,96.3437,564.2861,101.9397,558.6901,102.7669,568.3007,104.9202" style="stroke:#181818;stroke-width:1;"/></g><!--link n2 to n1--><g class="link" data-entity-1="n2" data-entity-2="n1" data-source-line="20" data-uid="lnk17" id="link_n2_n1"><path d="M83.2529,235.8332 C136.7986,255.1965 227.524,288.005 277.8128,306.1906" fill="none" id="n2-to-n1" style="stroke:#181818;stroke-width:1;"/><polygon fill="#181818" points="283.4552,308.231,276.3519,301.4088,278.7532,306.5306,273.6313,308.932,283.4552,308.231" style="stroke:#181818;stroke-width:1;"/></g><!--link n3 to n1--><g class="link" data-entity-1="n3" data-entity-2="n1" data-source-line="21" data-uid="lnk18" id="link_n3_n1"><path d="M184.815,241.128 C213.536,258.3959 250.4269,280.5757 279.1231,297.8286" fill="none" id="n3-to-n1" style="stroke:#181818;stroke-width:1;"/><polygon fill="#181818" points="284.2653,300.9202,278.6131,292.8547,279.9802,298.3439,274.491,299.7109,284.2653,300.9202" style="stroke:#181818;stroke-width:1;"/></g><!--link n4 to n1--><g class="link" data-entity-1="n4" data-entity-2="n1" data-source-line="22" data-uid="lnk19" id="link_n4_n1"><path d="M271.8662,241.3616 C281.5085,258.5424 292.5844,278.2777 302.2198,295.4463" fill="none" id="n4-to-n1" style="stroke:#181818;stroke-width:1;"/><polygon fill="#181818" points="305.1563,300.6786,304.2398,290.8725,302.7092,296.3183,297.2634,294.7878,305.1563,300.6786" style="stroke:#181818;stroke-width:1;"/></g><!--link n5 to n1--><g class="link" data-entity-1="n5" data-entity-2="n1" data-source-line="23" data-uid="lnk20" id="link_n5_n1"><path d="M360.9362,241.3616 C351.1186,258.5424 339.8282,278.3005 330.0176,295.4691" fill="none" id="n5-to-n1" style="stroke:#181818;stroke-width:1;"/><polygon fill="#181818" points="327.0408,300.6786,334.979,294.849,329.5215,296.3374,328.0331,290.8799,327.0408,300.6786" style="stroke:#181818;stroke-width:1;"/></g><!--link n6 to n1--><g class="link" data-entity-1="n6" data-entity-2="n1" data-source-line="24" data-uid="lnk21" id="link_n6_n1"><path d="M450.4043,241.128 C420.9785,258.3959 383.0887,280.6306 353.6883,297.8835" fill="none" id="n6-to-n1" style="stroke:#181818;stroke-width:1;"/><polygon fill="#181818" points="348.5135,300.9202,358.3002,299.815,352.8258,298.3896,354.2512,292.9153,348.5135,300.9202" style="stroke:#181818;stroke-width:1;"/></g><!--link n7 to n1--><g class="link" data-entity-1="n7" data-entity-2="n1" data-source-line="25" data-uid="lnk22" id="link_n7_n1"><path d="M555.9282,235.421 C501.0559,254.7645 406.3137,288.1628 354.5109,306.4242" fill="none" id="n7-to-n1" style="stroke:#181818;stroke-width:1;"/><polygon fill="#181818" points="348.8522,308.419,358.6701,309.1993,353.5678,306.7567,356.0104,301.6544,348.8522,308.419" style="stroke:#181818;stroke-width:1;"/></g><!--SRC=[RT3T3e8W5C3nUvw2rHrRbdsORiwBkkqT6YaXYmuEZcszVRO4pRhxizyvZ94xV6fHa7pPXxifQBZbTthXvKrQqq9rDDfOYfQ3wqW04YjAv22reBF6M1GsgcUKEmhxNpgN1XpwWJZ-Cu7FHlY1TEoCTOT7L3BMRzFvISaQ3xeLupcd973jhrX_4LQLk7hA9gHWUDbgQiRJPY9QNJnjlyaga9vsOsf1TOkU4W8fNIoAzuT1zgcKT4yOCWwv_bHCO1Dg6seNAWcrx-i5]--></g></svg>