<svg xmlns="http://www.w3.org/2000/svg" xmlns:xlink="http://www.w3.org/1999/xlink" contentStyleType="text/css" data-diagram-type="DESCRIPTION" height="380px" preserveAspectRatio="none" style="width:1071px;height:380px;" version="1.1" viewBox="0 0 1071 380" width="1071px" zoomAndPan="magnify"><defs/><g><!--entity n0--><g class="entity" data-entity="n0" data-source-line="5" data-uid="ent0002" id="entity_n0"><rect fill="#ADD8E6" height="37.7799" rx="2.5" ry="2.5" style="stroke:#181818;stroke-width:0.5;" width="183.6243" x="374" y="7"/><text fill="#000000" font-family="'Segoe UI', 'メイリオ', 'UDEV Gothic HSRFJPDOC', 'Hiragino Kaku Gothic ProN', 'ヒラギノ角ゴ ProN', 'Noto Sans JP', 'Helvetica Neue', Helvetica, Arial, sans-serif" font-size="14" font-weight="bold" lengthAdjust="spacing" textLength="163.6243" x="384" y="30.9999">comm_recv_thread_start</text></g><!--entity n1--><g class="entity" data-entity="n1" data-source-line="6" data-uid="ent0003" id="entity_n1"><rect fill="#F1F1F1" height="37.7799" rx="2.5" ry="2.5" style="stroke:#181818;stroke-width:0.5;" width="131.9995" x="400" y="105"/><text fill="#000000" font-family="'Segoe UI', 'メイリオ', 'UDEV Gothic HSRFJPDOC', 'Hiragino Kaku Gothic ProN', 'ヒラギノ角ゴ ProN', 'Noto Sans JP', 'Helvetica Neue', Helvetica, Arial, sans-serif" font-size="14" lengthAdjust="spacing" textLength="111.9995" x="410" y="128.9999">recv_thread_func</text></g><!--entity n2--><g class="entity" data-entity="n2" data-source-line="7" data-uid="ent0004" id="entity_n2"><rect fill="#F1F1F1" height="55.5598" rx="2.5" ry="2.5" style="stroke:#181818;stroke-width:0.5;" width="103.9996" x="7" y="203"/><text fill="#000000" font-family="'Segoe UI', 'メイリオ', 'UDEV Gothic HSRFJPDOC', 'Hiragino Kaku Gothic ProN', 'ヒラギノ角ゴ ProN', 'Noto Sans JP', 'Helvetica Neue', Helvetica, Arial, sans-serif" font-size="14" lengthAdjust="spacing" textLength="83.9996" x="17" y="226.9999">packet_parse</text><text fill="#000000" font-family="'Segoe UI', 'メイリオ', 'UDEV Gothic HSRFJPDOC', 'Hiragino Kaku Gothic ProN', 'ヒラギノ角ゴ ProN', 'Noto Sans JP', 'Helvetica Neue', Helvetica, Arial, sans-serif" font-size="14" lengthAdjust="spacing" textLength="69.9997" x="17" y="244.7799">(packet.c)</text></g><!--entity n3--><g class="entity" data-entity="n3" data-source-line="8" data-uid="ent0005" id="entity_n3"><rect fill="#F1F1F1" height="37.7799" rx="2.5" ry="2.5" style="stroke:#181818;stroke-width:0.5;" width="103.9996" x="146" y="212"/><text fill="#000000" font-family="'Segoe UI', 'メイリオ', 'UDEV Gothic HSRFJPDOC', 'Hiragino Kaku Gothic ProN', 'ヒラギノ角ゴ ProN', 'Noto Sans JP', 'Helvetica Neue', Helvetica, Arial, sans-serif" font-size="14" lengthAdjust="spacing" textLength="83.9996" x="156" y="235.9999">recv_deliver</text></g><!--entity n4--><g class="entity" data-entity="n4" data-source-line="9" data-uid="ent0006" id="entity_n4"><rect fill="#F1F1F1" height="37.7799" rx="2.5" ry="2.5" style="stroke:#181818;stroke-width:0.5;" width="82.9997" x="285.5" y="212"/><text fill="#000000" font-family="'Segoe UI', 'メイリオ', 'UDEV Gothic HSRFJPDOC', 'Hiragino Kaku Gothic ProN', 'ヒラギノ角ゴ ProN', 'Noto Sans JP', 'Helvetica Neue', Helvetica, Arial, sans-serif" font-size="14" lengthAdjust="spacing" textLength="62.9997" x="295.5" y="235.9999">send_nack</text></g><!--entity n5--><g class="entity" data-entity="n5" data-source-line="10" data-uid="ent0007" id="entity_n5"><rect fill="#F1F1F1" height="55.5598" rx="2.5" ry="2.5" style="stroke:#181818;stroke-width:0.5;" width="173.9993" x="564" y="203"/><text fill="#000000" font-family="'Segoe UI', 'メイリオ', 'UDEV Gothic HSRFJPDOC', 'Hiragino Kaku Gothic ProN', 'ヒラギノ角ゴ ProN', 'Noto Sans JP', 'Helvetica Neue', Helvetica, Arial, sans-serif" font-size="14" lengthAdjust="spacing" textLength="153.9993" x="574" y="226.9999">window_recv_needs_nack</text><text fill="#000000" font-family="'Segoe UI', 'メイリオ', 'UDEV Gothic HSRFJPDOC', 'Hiragino Kaku Gothic ProN', 'ヒラギノ角ゴ ProN', 'Noto Sans JP', 'Helvetica Neue', Helvetica, Arial, sans-serif" font-size="14" lengthAdjust="spacing" textLength="69.9997" x="574" y="244.7799">(window.c)</text></g><!--entity n6--><g class="entity" data-entity="n6" data-source-line="11" data-uid="ent0008" id="entity_n6"><rect fill="#F1F1F1" height="55.5598" rx="2.5" ry="2.5" style="stroke:#181818;stroke-width:0.5;" width="124.9995" x="403.5" y="203"/><text fill="#000000" font-family="'Segoe UI', 'メイリオ', 'UDEV Gothic HSRFJPDOC', 'Hiragino Kaku Gothic ProN', 'ヒラギノ角ゴ ProN', 'Noto Sans JP', 'Helvetica Neue', Helvetica, Arial, sans-serif" font-size="14" lengthAdjust="spacing" textLength="104.9995" x="413.5" y="226.9999">window_recv_pop</text><text fill="#000000" font-family="'Segoe UI', 'メイリオ', 'UDEV Gothic HSRFJPDOC', 'Hiragino Kaku Gothic ProN', 'ヒラギノ角ゴ ProN', 'Noto Sans JP', 'Helvetica Neue', Helvetica, Arial, sans-serif" font-size="14" lengthAdjust="spacing" textLength="69.9997" x="413.5" y="244.7799">(window.c)</text></g><!--entity n7--><g class="entity" data-entity="n7" data-source-line="12" data-uid="ent0009" id="entity_n7"><rect fill="#F1F1F1" height="55.5598" rx="2.5" ry="2.5" style="stroke:#181818;stroke-width:0.5;" width="131.9995" x="934" y="203"/><text fill="#000000" font-family="'Segoe UI', 'メイリオ', 'UDEV Gothic HSRFJPDOC', 'Hiragino Kaku Gothic ProN', 'ヒラギノ角ゴ ProN', 'Noto Sans JP', 'Helvetica Neue', Helvetica, Arial, sans-serif" font-size="14" lengthAdjust="spacing" textLength="111.9995" x="944" y="226.9999">window_recv_push</text><text fill="#000000" font-family="'Segoe UI', 'メイリオ', 'UDEV Gothic HSRFJPDOC', 'Hiragino Kaku Gothic ProN', 'ヒラギノ角ゴ ProN', 'Noto Sans JP', 'Helvetica Neue', Helvetica, Arial, sans-serif" font-size="14" lengthAdjust="spacing" textLength="69.9997" x="944" y="244.7799">(window.c)</text></g><!--entity n8--><g class="entity" data-entity="n8" data-source-line="13" data-uid="ent0010" id="entity_n8"><rect fill="#F1F1F1" height="55.5598" rx="2.5" ry="2.5" style="stroke:#181818;stroke-width:0.5;" width="124.9995" x="773.5" y="203"/><text fill="#000000" font-family="'Segoe UI', 'メイリオ', 'UDEV Gothic HSRFJPDOC', 'Hiragino Kaku Gothic ProN', 'ヒラギノ角ゴ ProN', 'Noto Sans JP', 'Helvetica Neue', Helvetica, Arial, sans-serif" font-size="14" lengthAdjust="spacing" textLength="104.9995" x="783.5" y="226.9999">window_send_ack</text><text fill="#000000" font-family="'Segoe UI', 'メイリオ', 'UDEV Gothic HSRFJPDOC', 'Hiragino Kaku Gothic ProN', 'ヒラギノ角ゴ ProN', 'Noto Sans JP', 'Helvetica Neue', Helvetica, Arial, sans-serif" font-size="14" lengthAdjust="spacing" textLength="69.9997" x="783.5" y="244.7799">(window.c)</text></g><!--entity n9--><g class="entity" data-entity="n9" data-source-line="14" data-uid="ent0011" id="entity_n9"><rect fill="#F1F1F1" height="55.5598" rx="2.5" ry="2.5" style="stroke:#181818;stroke-width:0.5;" width="145.9995" x="101" y="319"/><text fill="#000000" font-family="'Segoe UI', 'メイリオ', 'UDEV Gothic HSRFJPDOC', 'Hiragino Kaku Gothic ProN', 'ヒラギノ角ゴ ProN', 'Noto Sans JP', 'Helvetica Neue', Helvetica, Arial, sans-serif" font-size="14" lengthAdjust="spacing" textLength="104.9995" x="111" y="342.9999">potr_decompress</text><text fill="#000000" font-family="'Segoe UI', 'メイリオ', 'UDEV Gothic HSRFJPDOC', 'Hiragino Kaku Gothic ProN', 'ヒラギノ角ゴ ProN', 'Noto Sans JP', 'Helvetica Neue', Helvetica, Arial, sans-serif" font-size="14" lengthAdjust="spacing" textLength="125.9995" x="111" y="360.7799">(compress_linux.c)</text></g><!--entity n10--><g class="entity" data-entity="n10" data-source-line="15" data-uid="ent0012" id="entity_n10"><rect fill="#F1F1F1" height="55.5598" rx="2.5" ry="2.5" style="stroke:#181818;stroke-width:0.5;" width="138.9995" x="282.5" y="319"/><text fill="#000000" font-family="'Segoe UI', 'メイリオ', 'UDEV Gothic HSRFJPDOC', 'Hiragino Kaku Gothic ProN', 'ヒラギノ角ゴ ProN', 'Noto Sans JP', 'Helvetica Neue', Helvetica, Arial, sans-serif" font-size="14" lengthAdjust="spacing" textLength="118.9995" x="292.5" y="342.9999">packet_build_nack</text><text fill="#000000" font-family="'Segoe UI', 'メイリオ', 'UDEV Gothic HSRFJPDOC', 'Hiragino Kaku Gothic ProN', 'ヒラギノ角ゴ ProN', 'Noto Sans JP', 'Helvetica Neue', Helvetica, Arial, sans-serif" font-size="14" lengthAdjust="spacing" textLength="69.9997" x="292.5" y="360.7799">(packet.c)</text></g><!--entity n11--><g class="entity" data-entity="n11" data-source-line="16" data-uid="ent0013" id="entity_n11"><rect fill="#F1F1F1" height="37.7799" rx="2.5" ry="2.5" style="stroke:#181818;stroke-width:0.5;" width="82.9997" x="671.5" y="328"/><text fill="#000000" font-family="'Segoe UI', 'メイリオ', 'UDEV Gothic HSRFJPDOC', 'Hiragino Kaku Gothic ProN', 'ヒラギノ角ゴ ProN', 'Noto Sans JP', 'Helvetica Neue', Helvetica, Arial, sans-serif" font-size="14" lengthAdjust="spacing" textLength="62.9997" x="681.5" y="351.9999">win_index</text></g><!--entity n12--><g class="entity" data-entity="n12" data-source-line="17" data-uid="ent0014" id="entity_n12"><rect fill="#F1F1F1" height="55.5598" rx="2.5" ry="2.5" style="stroke:#181818;stroke-width:0.5;" width="131.9995" x="852" y="319"/><text fill="#000000" font-family="'Segoe UI', 'メイリオ', 'UDEV Gothic HSRFJPDOC', 'Hiragino Kaku Gothic ProN', 'ヒラギノ角ゴ ProN', 'Noto Sans JP', 'Helvetica Neue', Helvetica, Arial, sans-serif" font-size="14" lengthAdjust="spacing" textLength="111.9995" x="862" y="342.9999">seqnum_in_window</text><text fill="#000000" font-family="'Segoe UI', 'メイリオ', 'UDEV Gothic HSRFJPDOC', 'Hiragino Kaku Gothic ProN', 'ヒラギノ角ゴ ProN', 'Noto Sans JP', 'Helvetica Neue', Helvetica, Arial, sans-serif" font-size="14" lengthAdjust="spacing" textLength="69.9997" x="862" y="360.7799">(seqnum.c)</text></g><!--link n0 to n1--><g class="link" data-entity-1="n0" data-entity-2="n1" data-source-line="18" data-uid="lnk15" id="link_n0_n1"><path d="M466,45.3616 C466,62.5424 466,81.51 466,98.6786" fill="none" id="n0-to-n1" style="stroke:#181818;stroke-width:1;"/><polygon fill="#181818" points="466,104.6786,470,95.6786,466,99.6786,462,95.6786,466,104.6786" style="stroke:#181818;stroke-width:1;"/></g><!--link n1 to n2--><g class="link" data-entity-1="n1" data-entity-2="n2" data-source-line="19" data-uid="lnk16" id="link_n1_n2"><path d="M399.7493,136.3033 C330.9989,149.808 220.7566,173.5379 128,203 C122.4554,204.7611 122.3512,204.6753 116.6766,206.7875" fill="none" id="n1-to-n2" style="stroke:#181818;stroke-width:1;"/><polygon fill="#181818" points="111.0535,208.8805,120.8835,209.4897,115.7394,207.1363,118.0928,201.9922,111.0535,208.8805" style="stroke:#181818;stroke-width:1;"/></g><!--link n1 to n3--><g class="link" data-entity-1="n1" data-entity-2="n3" data-source-line="20" data-uid="lnk17" id="link_n1_n3"><path d="M417.9834,143.1446 C377.8828,159.1363 319.2098,182.5419 268,203 C260.8286,205.8649 258.8158,206.6688 251.3904,209.6381" fill="none" id="n1-to-n3" style="stroke:#181818;stroke-width:1;"/><polygon fill="#181818" points="245.8193,211.8659,255.6611,212.2383,250.4619,210.0094,252.6907,204.8102,245.8193,211.8659" style="stroke:#181818;stroke-width:1;"/></g><!--link n1 to n4--><g class="link" data-entity-1="n1" data-entity-2="n4" data-source-line="21" data-uid="lnk18" id="link_n1_n4"><path d="M441.1496,143.1295 C416.0051,162.4853 382.0934,188.59 356.8584,208.0155" fill="none" id="n1-to-n4" style="stroke:#181818;stroke-width:1;"/><polygon fill="#181818" points="352.1039,211.6754,361.6756,209.3552,356.066,208.6255,356.7957,203.0159,352.1039,211.6754" style="stroke:#181818;stroke-width:1;"/></g><!--link n1 to n5--><g class="link" data-entity-1="n1" data-entity-2="n5" data-source-line="22" data-uid="lnk19" id="link_n1_n5"><path d="M499.0743,143.1295 C527.8631,159.7803 564.7761,181.1299 597.3639,199.978" fill="none" id="n1-to-n5" style="stroke:#181818;stroke-width:1;"/><polygon fill="#181818" points="602.5577,202.982,596.7696,195.0134,598.2295,200.4787,592.7643,201.9385,602.5577,202.982" style="stroke:#181818;stroke-width:1;"/></g><!--link n1 to n6--><g class="link" data-entity-1="n1" data-entity-2="n6" data-source-line="23" data-uid="lnk20" id="link_n1_n6"><path d="M466,143.1295 C466,159.7202 466,177.9582 466,196.7777" fill="none" id="n1-to-n6" style="stroke:#181818;stroke-width:1;"/><polygon fill="#181818" points="466,202.7777,470,193.7777,466,197.7777,462,193.7777,466,202.7777" style="stroke:#181818;stroke-width:1;"/></g><!--link n1 to n7--><g class="link" data-entity-1="n1" data-entity-2="n7" data-source-line="24" data-uid="lnk21" id="link_n1_n7"><path d="M532.2269,132.4979 C620.5568,144.5412 781.4293,168.9583 916,203 C921.8121,204.4703 922.0517,204.4322 928.0318,206.2105" fill="none" id="n1-to-n7" style="stroke:#181818;stroke-width:1;"/><polygon fill="#181818" points="933.7829,207.9207,926.2964,201.5213,928.9903,206.4955,924.0161,209.1895,933.7829,207.9207" style="stroke:#181818;stroke-width:1;"/></g><!--link n1 to n8--><g class="link" data-entity-1="n1" data-entity-2="n8" data-source-line="25" data-uid="lnk22" id="link_n1_n8"><path d="M532.0338,140.5679 C591.0636,155.7152 679.7587,179.3057 756,203 C761.6208,204.7468 761.7457,204.7356 767.561,206.6722" fill="none" id="n1-to-n8" style="stroke:#181818;stroke-width:1;"/><polygon fill="#181818" points="773.2536,208.568,765.9785,201.9293,768.5097,206.9882,763.4508,209.5195,773.2536,208.568" style="stroke:#181818;stroke-width:1;"/></g><!--link n3 to n9--><g class="link" data-entity-1="n3" data-entity-2="n9" data-source-line="26" data-uid="lnk23" id="link_n3_n9"><path d="M194.0369,250.155 C190.1759,268.8166 185.4761,291.5319 181.0723,312.8172" fill="none" id="n3-to-n9" style="stroke:#181818;stroke-width:1;"/><polygon fill="#181818" points="179.8567,318.6928,185.5972,310.6899,180.8697,313.7965,177.7631,309.069,179.8567,318.6928" style="stroke:#181818;stroke-width:1;"/></g><!--link n4 to n10--><g class="link" data-entity-1="n4" data-entity-2="n10" data-source-line="27" data-uid="lnk24" id="link_n4_n10"><path d="M331.1282,250.155 C335.1501,268.8166 340.0479,291.5422 344.6352,312.8275" fill="none" id="n4-to-n10" style="stroke:#181818;stroke-width:1;"/><polygon fill="#181818" points="345.8993,318.6928,347.9134,309.0521,344.8459,313.805,340.093,310.7375,345.8993,318.6928" style="stroke:#181818;stroke-width:1;"/></g><!--link n5 to n11--><g class="link" data-entity-1="n5" data-entity-2="n11" data-source-line="28" data-uid="lnk25" id="link_n5_n11"><path d="M666.0085,259.0804 C677.405,280.4028 689.9439,303.8629 699.9532,322.5899" fill="none" id="n5-to-n11" style="stroke:#181818;stroke-width:1;"/><polygon fill="#181818" points="702.7815,327.8815,702.0668,318.0586,700.4246,323.4718,695.0114,321.8296,702.7815,327.8815" style="stroke:#181818;stroke-width:1;"/></g><!--link n6 to n11--><g class="link" data-entity-1="n6" data-entity-2="n11" data-source-line="29" data-uid="lnk26" id="link_n6_n11"><path d="M525.7918,259.0804 C571.194,280.4028 626.9842,306.604 666.8599,325.331" fill="none" id="n6-to-n11" style="stroke:#181818;stroke-width:1;"/><polygon fill="#181818" points="672.2908,327.8815,665.8448,320.4351,667.765,325.756,662.4441,327.6763,672.2908,327.8815" style="stroke:#181818;stroke-width:1;"/></g><!--link n7 to n12--><g class="link" data-entity-1="n7" data-entity-2="n12" data-source-line="30" data-uid="lnk27" id="link_n7_n12"><path d="M980.1501,259.0804 C967.3524,277.1844 954.2323,295.7445 941.4147,313.8767" fill="none" id="n7-to-n12" style="stroke:#181818;stroke-width:1;"/><polygon fill="#181818" points="937.9513,318.7762,946.4127,313.7359,940.8375,314.6933,939.8801,309.1181,937.9513,318.7762" style="stroke:#181818;stroke-width:1;"/></g><!--link n7 to n11--><g class="link" data-entity-1="n7" data-entity-2="n11" data-source-line="31" data-uid="lnk28" id="link_n7_n11"><path d="M933.796,257.7584 C878.6702,280.0392 807.4153,308.8391 760.4408,327.8253" fill="none" id="n7-to-n11" style="stroke:#181818;stroke-width:1;"/><polygon fill="#181818" points="754.878,330.0737,764.7211,330.4097,759.5137,328.2001,761.7233,322.9926,754.878,330.0737" style="stroke:#181818;stroke-width:1;"/></g><!--link n8 to n12--><g class="link" data-entity-1="n8" data-entity-2="n12" data-source-line="32" data-uid="lnk29" id="link_n8_n12"><path d="M855.8499,259.0804 C868.6476,277.1844 881.7677,295.7445 894.5853,313.8767" fill="none" id="n8-to-n12" style="stroke:#181818;stroke-width:1;"/><polygon fill="#181818" points="898.0487,318.7762,896.1199,309.1181,895.1625,314.6933,889.5873,313.7359,898.0487,318.7762" style="stroke:#181818;stroke-width:1;"/></g><!--link n8 to n11--><g class="link" data-entity-1="n8" data-entity-2="n11" data-source-line="33" data-uid="lnk30" id="link_n8_n11"><path d="M806.2251,259.0804 C783.616,280.4028 757.4943,305.0379 737.6372,323.7649" fill="none" id="n8-to-n11" style="stroke:#181818;stroke-width:1;"/><polygon fill="#181818" points="733.2722,327.8815,742.5642,324.6166,736.9097,324.451,737.0753,318.7966,733.2722,327.8815" style="stroke:#181818;stroke-width:1;"/></g><!--SRC=[TPBBReCm44NtV0LADorIsa3UKfH5k-qdLB8SF4rGp9ZwaQH_tsaCXWIoEyozypGROtybRAFDMmtcM635DI_Z7S-FUwqSYWybbOwjvcX80hIHXjnot4k8HqcIgx9a53anUz301JEMQviaevYR62VnqsUnFzXtwQ2RrqtuTfXxTzgrL3G1M4Oz3NpXi_zypL-yDUjL4o2B4sWlJxko0HGCATzhiwvsBb2eiry00OIv6gcV5qA_-QEaIbLzz-AXsvb3txuSi5-77XnbTNCbPJMjJgzGQJ26t0qoMQ2xXAprm6rthf2YMVZkmEdaRYX6Ky2b5jFR-_wWAqbdVb8gvaDjiIoYNs4ytlw_CQQUia3JGBD0yq2BGCj0gmYddjOHpkhAamZdDLANHOlB6hCMARfgemscVm00]--></g></svg>