<svg xmlns="http://www.w3.org/2000/svg" xmlns:xlink="http://www.w3.org/1999/xlink" contentStyleType="text/css" data-diagram-type="DESCRIPTION" height="344px" preserveAspectRatio="none" style="width:492px;height:344px;" version="1.1" viewBox="0 0 492 344" width="492px" zoomAndPan="magnify"><defs/><g><!--entity n2--><g class="entity" data-entity="n2" data-source-line="5" data-uid="ent0002" id="entity_n2"><rect fill="#F1F1F1" height="37.7799" rx="2.5" ry="2.5" style="stroke:#181818;stroke-width:0.5;" width="75.9998" x="7" y="105"/><text fill="#000000" font-family="'Segoe UI', 'メイリオ', 'UDEV Gothic HSRFJPDOC', 'Hiragino Kaku Gothic ProN', 'ヒラギノ角ゴ ProN', 'Noto Sans JP', 'Helvetica Neue', Helvetica, Arial, sans-serif" font-size="14" lengthAdjust="spacing" textLength="55.9998" x="17" y="128.9999">porter.h</text></g><!--entity n1--><g class="entity" data-entity="n1" data-source-line="6" data-uid="ent0003" id="entity_n1"><rect fill="#ADD8E6" height="37.7799" rx="2.5" ry="2.5" style="stroke:#181818;stroke-width:0.5;" width="116.6871" x="168.5" y="7"/><text fill="#000000" font-family="'Segoe UI', 'メイリオ', 'UDEV Gothic HSRFJPDOC', 'Hiragino Kaku Gothic ProN', 'ヒラギノ角ゴ ProN', 'Noto Sans JP', 'Helvetica Neue', Helvetica, Arial, sans-serif" font-size="14" font-weight="bold" lengthAdjust="spacing" textLength="96.6871" x="178.5" y="30.9999">porter_type.h</text></g><!--entity n8--><g class="entity" data-entity="n8" data-source-line="7" data-uid="ent0004" id="entity_n8"><rect fill="#F1F1F1" height="37.7799" rx="2.5" ry="2.5" style="stroke:#181818;stroke-width:0.5;" width="110.9996" x="236.5" y="203"/><text fill="#000000" font-family="'Segoe UI', 'メイリオ', 'UDEV Gothic HSRFJPDOC', 'Hiragino Kaku Gothic ProN', 'ヒラギノ角ゴ ProN', 'Noto Sans JP', 'Helvetica Neue', Helvetica, Arial, sans-serif" font-size="14" lengthAdjust="spacing" textLength="90.9996" x="246.5" y="226.9999">potrContext.h</text></g><!--entity n10--><g class="entity" data-entity="n10" data-source-line="8" data-uid="ent0005" id="entity_n10"><rect fill="#F1F1F1" height="37.7799" rx="2.5" ry="2.5" style="stroke:#181818;stroke-width:0.5;" width="131.9995" x="226" y="301"/><text fill="#000000" font-family="'Segoe UI', 'メイリオ', 'UDEV Gothic HSRFJPDOC', 'Hiragino Kaku Gothic ProN', 'ヒラギノ角ゴ ProN', 'Noto Sans JP', 'Helvetica Neue', Helvetica, Arial, sans-serif" font-size="14" lengthAdjust="spacing" textLength="111.9995" x="236" y="324.9999">potrRecvThread.h</text></g><!--entity n12--><g class="entity" data-entity="n12" data-source-line="9" data-uid="ent0006" id="entity_n12"><rect fill="#F1F1F1" height="37.7799" rx="2.5" ry="2.5" style="stroke:#181818;stroke-width:0.5;" width="75.9998" x="189" y="105"/><text fill="#000000" font-family="'Segoe UI', 'メイリオ', 'UDEV Gothic HSRFJPDOC', 'Hiragino Kaku Gothic ProN', 'ヒラギノ角ゴ ProN', 'Noto Sans JP', 'Helvetica Neue', Helvetica, Arial, sans-serif" font-size="14" lengthAdjust="spacing" textLength="55.9998" x="199" y="128.9999">config.h</text></g><!--entity n14--><g class="entity" data-entity="n14" data-source-line="10" data-uid="ent0007" id="entity_n14"><rect fill="#F1F1F1" height="37.7799" rx="2.5" ry="2.5" style="stroke:#181818;stroke-width:0.5;" width="75.9998" x="300" y="105"/><text fill="#000000" font-family="'Segoe UI', 'メイリオ', 'UDEV Gothic HSRFJPDOC', 'Hiragino Kaku Gothic ProN', 'ヒラギノ角ゴ ProN', 'Noto Sans JP', 'Helvetica Neue', Helvetica, Arial, sans-serif" font-size="14" lengthAdjust="spacing" textLength="55.9998" x="310" y="128.9999">packet.h</text></g><!--entity n15--><g class="entity" data-entity="n15" data-source-line="11" data-uid="ent0008" id="entity_n15"><rect fill="#F1F1F1" height="37.7799" rx="2.5" ry="2.5" style="stroke:#181818;stroke-width:0.5;" width="75.9998" x="411" y="105"/><text fill="#000000" font-family="'Segoe UI', 'メイリオ', 'UDEV Gothic HSRFJPDOC', 'Hiragino Kaku Gothic ProN', 'ヒラギノ角ゴ ProN', 'Noto Sans JP', 'Helvetica Neue', Helvetica, Arial, sans-serif" font-size="14" lengthAdjust="spacing" textLength="55.9998" x="421" y="128.9999">window.h</text></g><!--link n1 to n2--><g class="link" data-entity-1="n1" data-entity-2="n2" data-source-line="12" data-uid="lnk9" id="link_n1_n2"><path d="M191.4765,45.128 C159.4077,62.3959 117.7578,84.8227 85.7167,102.0756" fill="none" id="n1-to-n2" style="stroke:#181818;stroke-width:1;"/><polygon fill="#181818" points="80.4339,104.9202,90.2545,104.1752,84.8363,102.5497,86.4617,97.1314,80.4339,104.9202" style="stroke:#181818;stroke-width:1;"/></g><!--link n1 to n8--><g class="link" data-entity-1="n1" data-entity-2="n8" data-source-line="13" data-uid="lnk10" id="link_n1_n8"><path d="M206.1161,45.3424 C183.4494,68.7862 152.7742,109.3341 171,143 C185.9896,170.6881 209.9701,187.5836 236.0212,200.2967" fill="none" id="n1-to-n8" style="stroke:#181818;stroke-width:1;"/><polygon fill="#181818" points="241.4134,202.9281,235.0794,195.3862,236.9199,200.7353,231.5708,202.5758,241.4134,202.9281" style="stroke:#181818;stroke-width:1;"/></g><!--link n1 to n12--><g class="link" data-entity-1="n1" data-entity-2="n12" data-source-line="14" data-uid="lnk11" id="link_n1_n12"><path d="M227,45.3616 C227,62.5424 227,81.51 227,98.6786" fill="none" id="n1-to-n12" style="stroke:#181818;stroke-width:1;"/><polygon fill="#181818" points="227,104.6786,231,95.6786,227,99.6786,223,95.6786,227,104.6786" style="stroke:#181818;stroke-width:1;"/></g><!--link n1 to n14--><g class="link" data-entity-1="n1" data-entity-2="n14" data-source-line="15" data-uid="lnk12" id="link_n1_n14"><path d="M248.6654,45.128 C268.2239,62.3959 292.3499,83.6962 311.8914,100.9491" fill="none" id="n1-to-n14" style="stroke:#181818;stroke-width:1;"/><polygon fill="#181818" points="316.3892,104.9202,312.2898,95.965,312.641,101.611,306.9951,101.9621,316.3892,104.9202" style="stroke:#181818;stroke-width:1;"/></g><!--link n1 to n15--><g class="link" data-entity-1="n1" data-entity-2="n15" data-source-line="16" data-uid="lnk13" id="link_n1_n15"><path d="M270.0671,45.0116 C310.9207,63.0461 366.2339,87.4636 405.3774,104.7432" fill="none" id="n1-to-n15" style="stroke:#181818;stroke-width:1;"/><polygon fill="#181818" points="410.8664,107.1663,404.2483,99.8724,406.2923,105.1471,401.0176,107.191,410.8664,107.1663" style="stroke:#181818;stroke-width:1;"/></g><!--link n8 to n10--><g class="link" data-entity-1="n8" data-entity-2="n10" data-source-line="17" data-uid="lnk14" id="link_n8_n10"><path d="M292,241.3616 C292,258.5424 292,277.51 292,294.6786" fill="none" id="n8-to-n10" style="stroke:#181818;stroke-width:1;"/><polygon fill="#181818" points="292,300.6786,296,291.6786,292,295.6786,288,291.6786,292,300.6786" style="stroke:#181818;stroke-width:1;"/></g><!--link n15 to n8--><g class="link" data-entity-1="n15" data-entity-2="n8" data-source-line="18" data-uid="lnk15" id="link_n15_n8"><path d="M418.3561,143.128 C390.6923,160.3959 355.2963,182.4902 327.6564,199.7431" fill="none" id="n15-to-n8" style="stroke:#181818;stroke-width:1;"/><polygon fill="#181818" points="322.5666,202.9202,332.3194,201.5478,326.8081,200.2726,328.0833,194.7614,322.5666,202.9202" style="stroke:#181818;stroke-width:1;"/></g><!--SRC=[NO-n3e9038PtdkA26ma8HX86mY2hat4t9rGWO8-K8lBsdW5ESFlIx- -VDkvuR22nulqCNLrXAqa-nLrcTK6gnpnLZIB19B7J2f0jWemb5Wq8krN4G5vf2za9FAoLuqponcCBNkauKoOGktDLb7ngUjWsCQKA6Twyr4N__WBPwreIo7o91FuwaobyL8LnctDQ_H2Owk2uTaE5kHgC2orzfUictuSMYWm5lw5kCQYNeXbzFGtdjGy0]--></g></svg>