<svg xmlns="http://www.w3.org/2000/svg" xmlns:xlink="http://www.w3.org/1999/xlink" contentStyleType="text/css" data-diagram-type="DESCRIPTION" height="246px" preserveAspectRatio="none" style="width:495px;height:246px;" version="1.1" viewBox="0 0 495 246" width="495px" zoomAndPan="magnify"><defs/><g><!--entity n0--><g class="entity" data-entity="n0" data-source-line="5" data-uid="ent0002" id="entity_n0"><rect fill="#ADD8E6" height="37.7799" rx="2.5" ry="2.5" style="stroke:#181818;stroke-width:0.5;" width="161.3119" x="255.5" y="7"/><text fill="#000000" font-family="'Segoe UI', 'メイリオ', 'UDEV Gothic HSRFJPDOC', 'Hiragino Kaku Gothic ProN', 'ヒラギノ角ゴ ProN', 'Noto Sans JP', 'Helvetica Neue', Helvetica, Arial, sans-serif" font-size="14" font-weight="bold" lengthAdjust="spacing" textLength="141.3119" x="265.5" y="30.9999">config_load_service</text></g><!--entity n1--><g class="entity" data-entity="n1" data-source-line="6" data-uid="ent0003" id="entity_n1"><rect fill="#F1F1F1" height="37.7799" rx="2.5" ry="2.5" style="stroke:#181818;stroke-width:0.5;" width="131.9995" x="7" y="105"/><text fill="#000000" font-family="'Segoe UI', 'メイリオ', 'UDEV Gothic HSRFJPDOC', 'Hiragino Kaku Gothic ProN', 'ヒラギノ角ゴ ProN', 'Noto Sans JP', 'Helvetica Neue', Helvetica, Arial, sans-serif" font-size="14" lengthAdjust="spacing" textLength="111.9995" x="17" y="128.9999">apply_service_kv</text></g><!--entity n2--><g class="entity" data-entity="n2" data-source-line="7" data-uid="ent0004" id="entity_n2"><rect fill="#F1F1F1" height="37.7799" rx="2.5" ry="2.5" style="stroke:#181818;stroke-width:0.5;" width="166.9994" x="174.5" y="105"/><text fill="#000000" font-family="'Segoe UI', 'メイリオ', 'UDEV Gothic HSRFJPDOC', 'Hiragino Kaku Gothic ProN', 'ヒラギノ角ゴ ProN', 'Noto Sans JP', 'Helvetica Neue', Helvetica, Arial, sans-serif" font-size="14" lengthAdjust="spacing" textLength="146.9994" x="184.5" y="128.9999">open_config_file_read</text></g><!--entity n3--><g class="entity" data-entity="n3" data-source-line="8" data-uid="ent0005" id="entity_n3"><rect fill="#F1F1F1" height="37.7799" rx="2.5" ry="2.5" style="stroke:#181818;stroke-width:0.5;" width="75.9998" x="377" y="105"/><text fill="#000000" font-family="'Segoe UI', 'メイリオ', 'UDEV Gothic HSRFJPDOC', 'Hiragino Kaku Gothic ProN', 'ヒラギノ角ゴ ProN', 'Noto Sans JP', 'Helvetica Neue', Helvetica, Arial, sans-serif" font-size="14" lengthAdjust="spacing" textLength="55.9998" x="387" y="128.9999">parse_kv</text></g><!--entity n4--><g class="entity" data-entity="n4" data-source-line="9" data-uid="ent0006" id="entity_n4"><rect fill="#F1F1F1" height="37.7799" rx="2.5" ry="2.5" style="stroke:#181818;stroke-width:0.5;" width="47.9999" x="436" y="203"/><text fill="#000000" font-family="'Segoe UI', 'メイリオ', 'UDEV Gothic HSRFJPDOC', 'Hiragino Kaku Gothic ProN', 'ヒラギノ角ゴ ProN', 'Noto Sans JP', 'Helvetica Neue', Helvetica, Arial, sans-serif" font-size="14" lengthAdjust="spacing" textLength="27.9999" x="446" y="226.9999">trim</text></g><!--entity n5--><g class="entity" data-entity="n5" data-source-line="10" data-uid="ent0007" id="entity_n5"><rect fill="#F1F1F1" height="37.7799" rx="2.5" ry="2.5" style="stroke:#181818;stroke-width:0.5;" width="124.9995" x="10.5" y="203"/><text fill="#000000" font-family="'Segoe UI', 'メイリオ', 'UDEV Gothic HSRFJPDOC', 'Hiragino Kaku Gothic ProN', 'ヒラギノ角ゴ ProN', 'Noto Sans JP', 'Helvetica Neue', Helvetica, Arial, sans-serif" font-size="14" lengthAdjust="spacing" textLength="104.9995" x="20.5" y="226.9999">copy_cstr_trunc</text></g><!--link n0 to n1--><g class="link" data-entity-1="n0" data-entity-2="n1" data-source-line="11" data-uid="lnk8" id="link_n0_n1"><path d="M284.9791,45.0116 C238.6717,62.2668 176.3522,85.4886 129.9497,102.7792" fill="none" id="n0-to-n1" style="stroke:#181818;stroke-width:1;"/><polygon fill="#181818" points="124.3273,104.8742,134.1575,105.4799,129.0126,103.1284,131.3642,97.9834,124.3273,104.8742" style="stroke:#181818;stroke-width:1;"/></g><!--link n0 to n2--><g class="link" data-entity-1="n0" data-entity-2="n2" data-source-line="12" data-uid="lnk9" id="link_n0_n2"><path d="M320.5897,45.3616 C306.9152,62.5424 290.7796,82.8155 277.1148,99.9841" fill="none" id="n0-to-n2" style="stroke:#181818;stroke-width:1;"/><polygon fill="#181818" points="273.3783,104.6786,282.1127,100.1278,276.492,100.7665,275.8533,95.1458,273.3783,104.6786" style="stroke:#181818;stroke-width:1;"/></g><!--link n0 to n3--><g class="link" data-entity-1="n0" data-entity-2="n3" data-source-line="13" data-uid="lnk10" id="link_n0_n3"><path d="M351.6079,45.3616 C365.4576,62.5424 381.819,82.8388 395.659,100.0074" fill="none" id="n0-to-n3" style="stroke:#181818;stroke-width:1;"/><polygon fill="#181818" points="399.4246,104.6786,396.8904,95.1614,396.2866,100.7859,390.6621,100.1821,399.4246,104.6786" style="stroke:#181818;stroke-width:1;"/></g><!--link n0 to n4--><g class="link" data-entity-1="n0" data-entity-2="n4" data-source-line="14" data-uid="lnk11" id="link_n0_n4"><path d="M395.7446,45.11 C423.8572,57.4471 454.7218,76.6137 471,105 C488.5582,135.6184 479.456,172.663 470.3502,197.1116" fill="none" id="n0-to-n4" style="stroke:#181818;stroke-width:1;"/><polygon fill="#181818" points="468.2561,202.7343,475.1458,195.6964,470.0012,198.0487,467.6489,192.9042,468.2561,202.7343" style="stroke:#181818;stroke-width:1;"/></g><!--link n1 to n5--><g class="link" data-entity-1="n1" data-entity-2="n5" data-source-line="15" data-uid="lnk12" id="link_n1_n5"><path d="M73,143.3616 C73,160.5424 73,179.51 73,196.6786" fill="none" id="n1-to-n5" style="stroke:#181818;stroke-width:1;"/><polygon fill="#181818" points="73,202.6786,77,193.6786,73,197.6786,69,193.6786,73,202.6786" style="stroke:#181818;stroke-width:1;"/></g><!--link n3 to n4--><g class="link" data-entity-1="n3" data-entity-2="n4" data-source-line="16" data-uid="lnk13" id="link_n3_n4"><path d="M423.8906,143.3616 C431.7797,160.5424 440.7407,180.0574 448.6242,197.226" fill="none" id="n3-to-n4" style="stroke:#181818;stroke-width:1;"/><polygon fill="#181818" points="451.1279,202.6786,451.0074,192.8305,449.0414,198.1347,443.7372,196.1688,451.1279,202.6786" style="stroke:#181818;stroke-width:1;"/></g><!--SRC=[JOxB3e8m44NtV4MZEnAZFDmH5xhr7vgnZDXGfisqaF3tOWhOtScTSoUtyM4sUCkQymg-r-I0OH0lK7t7TgJsOOrb4HZ8BoUaa36g0DGP58SyLvRUkfF6GYizygGLvlb1W1Tq4SUdxZxXRaPCI-2ScJTPzbEqYrIn3ackhz_Qe6I4DdfbwYsB_Fz5bPu2wo76THehwsQfV60PU2GLZMksZ3sTRhyL6vKxLJlL6HMHbaQrPby0]--></g></svg>