<svg xmlns="http://www.w3.org/2000/svg" xmlns:xlink="http://www.w3.org/1999/xlink" contentStyleType="text/css" data-diagram-type="DESCRIPTION" height="540px" preserveAspectRatio="none" style="width:1397px;height:540px;" version="1.1" viewBox="0 0 1397 540" width="1397px" zoomAndPan="magnify"><defs/><g><!--entity n9--><g class="entity" data-entity="n9" data-source-line="5" data-uid="ent0002" id="entity_n9"><rect fill="#F1F1F1" height="37.7799" rx="2.5" ry="2.5" style="stroke:#181818;stroke-width:0.5;" width="75.9998" x="7" y="301"/><text fill="#000000" font-family="'Segoe UI', 'メイリオ', 'UDEV Gothic HSRFJPDOC', 'Hiragino Kaku Gothic ProN', 'ヒラギノ角ゴ ProN', 'Noto Sans JP', 'Helvetica Neue', Helvetica, Arial, sans-serif" font-size="14" lengthAdjust="spacing" textLength="55.9998" x="17" y="324.9999">porter.h</text></g><!--entity n8--><g class="entity" data-entity="n8" data-source-line="6" data-uid="ent0003" id="entity_n8"><rect fill="#F1F1F1" height="37.7799" rx="2.5" ry="2.5" style="stroke:#181818;stroke-width:0.5;" width="117.9996" x="420" y="7"/><text fill="#000000" font-family="'Segoe UI', 'メイリオ', 'UDEV Gothic HSRFJPDOC', 'Hiragino Kaku Gothic ProN', 'ヒラギノ角ゴ ProN', 'Noto Sans JP', 'Helvetica Neue', Helvetica, Arial, sans-serif" font-size="14" lengthAdjust="spacing" textLength="97.9996" x="430" y="30.9999">porter_const.h</text></g><!--entity n10--><g class="entity" data-entity="n10" data-source-line="7" data-uid="ent0004" id="entity_n10"><rect fill="#F1F1F1" height="37.7799" rx="2.5" ry="2.5" style="stroke:#181818;stroke-width:0.5;" width="110.9996" x="191.5" y="105"/><text fill="#000000" font-family="'Segoe UI', 'メイリオ', 'UDEV Gothic HSRFJPDOC', 'Hiragino Kaku Gothic ProN', 'ヒラギノ角ゴ ProN', 'Noto Sans JP', 'Helvetica Neue', Helvetica, Arial, sans-serif" font-size="14" lengthAdjust="spacing" textLength="90.9996" x="201.5" y="128.9999">porter_type.h</text></g><!--entity n17--><g class="entity" data-entity="n17" data-source-line="8" data-uid="ent0005" id="entity_n17"><rect fill="#F1F1F1" height="37.7799" rx="2.5" ry="2.5" style="stroke:#181818;stroke-width:0.5;" width="89.9997" x="66" y="105"/><text fill="#000000" font-family="'Segoe UI', 'メイリオ', 'UDEV Gothic HSRFJPDOC', 'Hiragino Kaku Gothic ProN', 'ヒラギノ角ゴ ProN', 'Noto Sans JP', 'Helvetica Neue', Helvetica, Arial, sans-serif" font-size="14" lengthAdjust="spacing" textLength="69.9997" x="76" y="128.9999">compress.h</text></g><!--entity n16--><g class="entity" data-entity="n16" data-source-line="9" data-uid="ent0006" id="entity_n16"><rect fill="#F1F1F1" height="37.7799" rx="2.5" ry="2.5" style="stroke:#181818;stroke-width:0.5;" width="110.9996" x="269.5" y="301"/><text fill="#000000" font-family="'Segoe UI', 'メイリオ', 'UDEV Gothic HSRFJPDOC', 'Hiragino Kaku Gothic ProN', 'ヒラギノ角ゴ ProN', 'Noto Sans JP', 'Helvetica Neue', Helvetica, Arial, sans-serif" font-size="14" lengthAdjust="spacing" textLength="90.9996" x="279.5" y="324.9999">potrContext.h</text></g><!--entity n1--><g class="entity" data-entity="n1" data-source-line="10" data-uid="ent0007" id="entity_n1"><rect fill="#ADD8E6" height="37.7799" rx="2.5" ry="2.5" style="stroke:#181818;stroke-width:0.5;" width="146.437" x="611" y="497"/><text fill="#000000" font-family="'Segoe UI', 'メイリオ', 'UDEV Gothic HSRFJPDOC', 'Hiragino Kaku Gothic ProN', 'ヒラギノ角ゴ ProN', 'Noto Sans JP', 'Helvetica Neue', Helvetica, Arial, sans-serif" font-size="14" font-weight="bold" lengthAdjust="spacing" textLength="126.437" x="621" y="520.9999">potrOpenService.c</text></g><!--entity n19--><g class="entity" data-entity="n19" data-source-line="11" data-uid="ent0008" id="entity_n19"><rect fill="#F1F1F1" height="37.7799" rx="2.5" ry="2.5" style="stroke:#181818;stroke-width:0.5;" width="131.9995" x="322" y="399"/><text fill="#000000" font-family="'Segoe UI', 'メイリオ', 'UDEV Gothic HSRFJPDOC', 'Hiragino Kaku Gothic ProN', 'ヒラギノ角ゴ ProN', 'Noto Sans JP', 'Helvetica Neue', Helvetica, Arial, sans-serif" font-size="14" lengthAdjust="spacing" textLength="111.9995" x="332" y="422.9999">potrRecvThread.h</text></g><!--entity n13--><g class="entity" data-entity="n13" data-source-line="12" data-uid="ent0009" id="entity_n13"><rect fill="#F1F1F1" height="37.7799" rx="2.5" ry="2.5" style="stroke:#181818;stroke-width:0.5;" width="75.9998" x="77" y="203"/><text fill="#000000" font-family="'Segoe UI', 'メイリオ', 'UDEV Gothic HSRFJPDOC', 'Hiragino Kaku Gothic ProN', 'ヒラギノ角ゴ ProN', 'Noto Sans JP', 'Helvetica Neue', Helvetica, Arial, sans-serif" font-size="14" lengthAdjust="spacing" textLength="55.9998" x="87" y="226.9999">config.h</text></g><!--entity n15--><g class="entity" data-entity="n15" data-source-line="13" data-uid="ent0010" id="entity_n15"><rect fill="#F1F1F1" height="37.7799" rx="2.5" ry="2.5" style="stroke:#181818;stroke-width:0.5;" width="103.9996" x="480" y="105"/><text fill="#000000" font-family="'Segoe UI', 'メイリオ', 'UDEV Gothic HSRFJPDOC', 'Hiragino Kaku Gothic ProN', 'ヒラギノ角ゴ ProN', 'Noto Sans JP', 'Helvetica Neue', Helvetica, Arial, sans-serif" font-size="14" lengthAdjust="spacing" textLength="83.9996" x="490" y="128.9999">retransmit.h</text></g><!--entity n14--><g class="entity" data-entity="n14" data-source-line="14" data-uid="ent0011" id="entity_n14"><rect fill="#F1F1F1" height="37.7799" rx="2.5" ry="2.5" style="stroke:#181818;stroke-width:0.5;" width="75.9998" x="378" y="203"/><text fill="#000000" font-family="'Segoe UI', 'メイリオ', 'UDEV Gothic HSRFJPDOC', 'Hiragino Kaku Gothic ProN', 'ヒラギノ角ゴ ProN', 'Noto Sans JP', 'Helvetica Neue', Helvetica, Arial, sans-serif" font-size="14" lengthAdjust="spacing" textLength="55.9998" x="388" y="226.9999">window.h</text></g><!--entity n20--><g class="entity" data-entity="n20" data-source-line="15" data-uid="ent0012" id="entity_n20"><rect fill="#F1F1F1" height="37.7799" rx="2.5" ry="2.5" style="stroke:#181818;stroke-width:0.5;" width="103.9996" x="773" y="399"/><text fill="#000000" font-family="'Segoe UI', 'メイリオ', 'UDEV Gothic HSRFJPDOC', 'Hiragino Kaku Gothic ProN', 'ヒラギノ角ゴ ProN', 'Noto Sans JP', 'Helvetica Neue', Helvetica, Arial, sans-serif" font-size="14" lengthAdjust="spacing" textLength="83.9996" x="783" y="422.9999">potrIpAddr.h</text></g><!--entity n6--><g class="entity" data-entity="n6" data-source-line="16" data-uid="ent0013" id="entity_n6"><rect fill="#F1F1F1" height="37.7799" rx="2.5" ry="2.5" style="stroke:#181818;stroke-width:0.5;" width="61.9998" x="748" y="301"/><text fill="#000000" font-family="'Segoe UI', 'メイリオ', 'UDEV Gothic HSRFJPDOC', 'Hiragino Kaku Gothic ProN', 'ヒラギノ角ゴ ProN', 'Noto Sans JP', 'Helvetica Neue', Helvetica, Arial, sans-serif" font-size="14" lengthAdjust="spacing" textLength="41.9998" x="758" y="324.9999">inet.h</text></g><!--entity n5--><g class="entity" data-entity="n5" data-source-line="17" data-uid="ent0014" id="entity_n5"><rect fill="#F1F1F1" height="37.7799" rx="2.5" ry="2.5" style="stroke:#181818;stroke-width:0.5;" width="47.9999" x="846" y="301"/><text fill="#000000" font-family="'Segoe UI', 'メイリオ', 'UDEV Gothic HSRFJPDOC', 'Hiragino Kaku Gothic ProN', 'ヒラギノ角ゴ ProN', 'Noto Sans JP', 'Helvetica Neue', Helvetica, Arial, sans-serif" font-size="14" lengthAdjust="spacing" textLength="27.9999" x="856" y="324.9999">in.h</text></g><!--entity n18--><g class="entity" data-entity="n18" data-source-line="18" data-uid="ent0015" id="entity_n18"><rect fill="#F1F1F1" height="37.7799" rx="2.5" ry="2.5" style="stroke:#181818;stroke-width:0.5;" width="82.9997" x="188.5" y="203"/><text fill="#000000" font-family="'Segoe UI', 'メイリオ', 'UDEV Gothic HSRFJPDOC', 'Hiragino Kaku Gothic ProN', 'ヒラギノ角ゴ ProN', 'Noto Sans JP', 'Helvetica Neue', Helvetica, Arial, sans-serif" font-size="14" lengthAdjust="spacing" textLength="62.9997" x="198.5" y="226.9999">pthread.h</text></g><!--entity n11--><g class="entity" data-entity="n11" data-source-line="19" data-uid="ent0016" id="entity_n11"><rect fill="#F1F1F1" height="37.7799" rx="2.5" ry="2.5" style="stroke:#181818;stroke-width:0.5;" width="75.9998" x="136" y="7"/><text fill="#000000" font-family="'Segoe UI', 'メイリオ', 'UDEV Gothic HSRFJPDOC', 'Hiragino Kaku Gothic ProN', 'ヒラギノ角ゴ ProN', 'Noto Sans JP', 'Helvetica Neue', Helvetica, Arial, sans-serif" font-size="14" lengthAdjust="spacing" textLength="55.9998" x="146" y="30.9999">stddef.h</text></g><!--entity n12--><g class="entity" data-entity="n12" data-source-line="20" data-uid="ent0017" id="entity_n12"><rect fill="#F1F1F1" height="37.7799" rx="2.5" ry="2.5" style="stroke:#181818;stroke-width:0.5;" width="75.9998" x="259" y="7"/><text fill="#000000" font-family="'Segoe UI', 'メイリオ', 'UDEV Gothic HSRFJPDOC', 'Hiragino Kaku Gothic ProN', 'ヒラギノ角ゴ ProN', 'Noto Sans JP', 'Helvetica Neue', Helvetica, Arial, sans-serif" font-size="14" lengthAdjust="spacing" textLength="55.9998" x="269" y="30.9999">stdint.h</text></g><!--entity n2--><g class="entity" data-entity="n2" data-source-line="21" data-uid="ent0018" id="entity_n2"><rect fill="#F1F1F1" height="37.7799" rx="2.5" ry="2.5" style="stroke:#181818;stroke-width:0.5;" width="75.9998" x="983" y="399"/><text fill="#000000" font-family="'Segoe UI', 'メイリオ', 'UDEV Gothic HSRFJPDOC', 'Hiragino Kaku Gothic ProN', 'ヒラギノ角ゴ ProN', 'Noto Sans JP', 'Helvetica Neue', Helvetica, Arial, sans-serif" font-size="14" lengthAdjust="spacing" textLength="55.9998" x="993" y="422.9999">stdlib.h</text></g><!--entity n3--><g class="entity" data-entity="n3" data-source-line="22" data-uid="ent0019" id="entity_n3"><rect fill="#F1F1F1" height="37.7799" rx="2.5" ry="2.5" style="stroke:#181818;stroke-width:0.5;" width="75.9998" x="1094" y="399"/><text fill="#000000" font-family="'Segoe UI', 'メイリオ', 'UDEV Gothic HSRFJPDOC', 'Hiragino Kaku Gothic ProN', 'ヒラギノ角ゴ ProN', 'Noto Sans JP', 'Helvetica Neue', Helvetica, Arial, sans-serif" font-size="14" lengthAdjust="spacing" textLength="55.9998" x="1104" y="422.9999">string.h</text></g><!--entity n4--><g class="entity" data-entity="n4" data-source-line="23" data-uid="ent0020" id="entity_n4"><rect fill="#F1F1F1" height="37.7799" rx="2.5" ry="2.5" style="stroke:#181818;stroke-width:0.5;" width="75.9998" x="1205" y="399"/><text fill="#000000" font-family="'Segoe UI', 'メイリオ', 'UDEV Gothic HSRFJPDOC', 'Hiragino Kaku Gothic ProN', 'ヒラギノ角ゴ ProN', 'Noto Sans JP', 'Helvetica Neue', Helvetica, Arial, sans-serif" font-size="14" lengthAdjust="spacing" textLength="55.9998" x="1215" y="422.9999">socket.h</text></g><!--entity n7--><g class="entity" data-entity="n7" data-source-line="24" data-uid="ent0021" id="entity_n7"><rect fill="#F1F1F1" height="37.7799" rx="2.5" ry="2.5" style="stroke:#181818;stroke-width:0.5;" width="75.9998" x="1316" y="399"/><text fill="#000000" font-family="'Segoe UI', 'メイリオ', 'UDEV Gothic HSRFJPDOC', 'Hiragino Kaku Gothic ProN', 'ヒラギノ角ゴ ProN', 'Noto Sans JP', 'Helvetica Neue', Helvetica, Arial, sans-serif" font-size="14" lengthAdjust="spacing" textLength="55.9998" x="1326" y="422.9999">unistd.h</text></g><!--link n10 to n9--><g class="link" data-entity-1="n10" data-entity-2="n9" data-source-line="25" data-uid="lnk22" id="link_n10_n9"><path d="M191.4342,140.5008 C142.2244,156.2809 75.6781,180.8797 59,203 C37.4471,231.5857 38.1005,269.8067 41.1263,294.9011" fill="none" id="n10-to-n9" style="stroke:#181818;stroke-width:1;"/><polygon fill="#181818" points="41.8446,300.858,44.7384,291.4439,41.2461,295.894,36.796,292.4016,41.8446,300.858" style="stroke:#181818;stroke-width:1;"/></g><!--link n11 to n10--><g class="link" data-entity-1="n11" data-entity-2="n10" data-source-line="26" data-uid="lnk23" id="link_n11_n10"><path d="M188.4225,45.3616 C201.2204,62.5424 216.2344,82.6982 229.0232,99.8668" fill="none" id="n11-to-n10" style="stroke:#181818;stroke-width:1;"/><polygon fill="#181818" points="232.6075,104.6786,230.439,95.0714,229.6206,100.6688,224.0233,99.8505,232.6075,104.6786" style="stroke:#181818;stroke-width:1;"/></g><!--link n12 to n10--><g class="link" data-entity-1="n12" data-entity-2="n10" data-source-line="27" data-uid="lnk24" id="link_n12_n10"><path d="M287.1216,45.3616 C278.3559,62.5424 268.3441,82.1654 259.5847,99.334" fill="none" id="n12-to-n10" style="stroke:#181818;stroke-width:1;"/><polygon fill="#181818" points="256.8579,104.6786,264.5112,98.4796,259.1302,100.2248,257.385,94.8439,256.8579,104.6786" style="stroke:#181818;stroke-width:1;"/></g><!--link n8 to n10--><g class="link" data-entity-1="n8" data-entity-2="n10" data-source-line="28" data-uid="lnk25" id="link_n8_n10"><path d="M433.993,45.0116 C393.1439,62.2668 338.7374,85.2489 297.8044,102.5395" fill="none" id="n8-to-n10" style="stroke:#181818;stroke-width:1;"/><polygon fill="#181818" points="292.2773,104.8742,302.1245,105.0569,296.8832,102.9286,299.0115,97.6874,292.2773,104.8742" style="stroke:#181818;stroke-width:1;"/></g><!--link n11 to n17--><g class="link" data-entity-1="n11" data-entity-2="n17" data-source-line="29" data-uid="lnk26" id="link_n11_n17"><path d="M161.5532,45.3616 C150.5085,62.5424 137.7025,82.4629 126.6655,99.6315" fill="none" id="n11-to-n17" style="stroke:#181818;stroke-width:1;"/><polygon fill="#181818" points="123.4209,104.6786,131.6524,99.271,126.1247,100.4727,124.923,94.945,123.4209,104.6786" style="stroke:#181818;stroke-width:1;"/></g><!--link n12 to n17--><g class="link" data-entity-1="n12" data-entity-2="n17" data-source-line="30" data-uid="lnk27" id="link_n12_n17"><path d="M260.6958,45.128 C227.9221,62.3959 185.2663,84.8705 152.521,102.1234" fill="none" id="n12-to-n17" style="stroke:#181818;stroke-width:1;"/><polygon fill="#181818" points="147.2127,104.9202,157.0397,104.2638,151.6363,102.5895,153.3106,97.1861,147.2127,104.9202" style="stroke:#181818;stroke-width:1;"/></g><!--link n10 to n16--><g class="link" data-entity-1="n10" data-entity-2="n16" data-source-line="31" data-uid="lnk28" id="link_n10_n16"><path d="M258.5962,143.3006 C267.6948,158.9939 280.2436,181.9121 289,203 C302.9365,236.563 312.8268,271.6793 318.8479,295.1581" fill="none" id="n10-to-n16" style="stroke:#181818;stroke-width:1;"/><polygon fill="#181818" points="320.3384,300.97,321.9773,291.2585,319.0964,296.1267,314.2281,293.2457,320.3384,300.97" style="stroke:#181818;stroke-width:1;"/></g><!--link n15 to n16--><g class="link" data-entity-1="n15" data-entity-2="n16" data-source-line="32" data-uid="lnk29" id="link_n15_n16"><path d="M525.9917,143.1486 C517.3048,168.2503 499.1276,212.4362 471,241 C444.6111,267.7981 412.6907,285.4147 382.3394,298.5892" fill="none" id="n15-to-n16" style="stroke:#181818;stroke-width:1;"/><polygon fill="#181818" points="376.8355,300.9782,386.684,301.0639,381.422,298.9873,383.4986,293.7254,376.8355,300.9782" style="stroke:#181818;stroke-width:1;"/></g><!--link n14 to n16--><g class="link" data-entity-1="n14" data-entity-2="n16" data-source-line="33" data-uid="lnk30" id="link_n14_n16"><path d="M398.0213,241.3616 C382.0678,258.5424 362.9663,279.1132 347.024,296.2818" fill="none" id="n14-to-n16" style="stroke:#181818;stroke-width:1;"/><polygon fill="#181818" points="342.9413,300.6786,351.9965,296.8053,346.3436,297.0146,346.1342,291.3617,342.9413,300.6786" style="stroke:#181818;stroke-width:1;"/></g><!--link n17 to n16--><g class="link" data-entity-1="n17" data-entity-2="n16" data-source-line="34" data-uid="lnk31" id="link_n17_n16"><path d="M90.8937,143.202 C67.8349,167.5833 36.0025,210.1795 59,241 C84.1727,274.7355 193.0134,298.204 263.319,310.3511" fill="none" id="n17-to-n16" style="stroke:#181818;stroke-width:1;"/><polygon fill="#181818" points="269.2314,311.3726,261.0438,305.8987,264.3044,310.5213,259.6818,313.7819,269.2314,311.3726" style="stroke:#181818;stroke-width:1;"/></g><!--link n18 to n16--><g class="link" data-entity-1="n18" data-entity-2="n16" data-source-line="35" data-uid="lnk32" id="link_n18_n16"><path d="M248.7689,241.3616 C265.4237,258.5424 285.4508,279.2019 302.0938,296.3705" fill="none" id="n18-to-n16" style="stroke:#181818;stroke-width:1;"/><polygon fill="#181818" points="306.27,300.6786,302.8778,291.4324,302.7898,297.0885,297.1337,297.0006,306.27,300.6786" style="stroke:#181818;stroke-width:1;"/></g><!--link n2 to n1--><g class="link" data-entity-1="n2" data-entity-2="n1" data-source-line="36" data-uid="lnk33" id="link_n2_n1"><path d="M982.8519,429.1629 C974.0349,431.7396 964.6914,434.4675 956,437 C885.5385,457.5307 810.5464,479.3027 755.4504,495.2843" fill="none" id="n2-to-n1" style="stroke:#181818;stroke-width:1;"/><polygon fill="#181818" points="749.6879,496.9558,759.4459,498.2902,754.49,495.5629,757.2173,490.6069,749.6879,496.9558" style="stroke:#181818;stroke-width:1;"/></g><!--link n3 to n1--><g class="link" data-entity-1="n3" data-entity-2="n1" data-source-line="37" data-uid="lnk34" id="link_n3_n1"><path d="M1093.9434,431.6401 C1087.9765,433.5673 1081.849,435.4253 1076,437 C966.227,466.5528 842.4141,489.6134 763.1734,503.1223" fill="none" id="n3-to-n1" style="stroke:#181818;stroke-width:1;"/><polygon fill="#181818" points="757.2587,504.1306,766.8029,506.5612,762.1876,503.2903,765.4585,498.675,757.2587,504.1306" style="stroke:#181818;stroke-width:1;"/></g><!--link n4 to n1--><g class="link" data-entity-1="n4" data-entity-2="n1" data-source-line="38" data-uid="lnk35" id="link_n4_n1"><path d="M1204.6973,431.961 C1198.8184,433.8223 1192.7819,435.5762 1187,437 C1036.3633,474.0935 861.8294,496.7898 763.2088,507.8149" fill="none" id="n4-to-n1" style="stroke:#181818;stroke-width:1;"/><polygon fill="#181818" points="757.2459,508.4815,766.6346,511.4568,762.2149,507.926,765.7458,503.5064,757.2459,508.4815" style="stroke:#181818;stroke-width:1;"/></g><!--link n5 to n1--><g class="link" data-entity-1="n5" data-entity-2="n1" data-source-line="39" data-uid="lnk36" id="link_n5_n1"><path d="M882.1305,339.1914 C896.068,363.9444 914.5353,407.3345 894,437 C877.7323,460.5004 816.8899,481.4154 762.9876,496.3545" fill="none" id="n5-to-n1" style="stroke:#181818;stroke-width:1;"/><polygon fill="#181818" points="757.2056,497.957,766.947,499.4079,762.024,496.6216,764.8103,491.6986,757.2056,497.957" style="stroke:#181818;stroke-width:1;"/></g><!--link n6 to n1--><g class="link" data-entity-1="n6" data-entity-2="n1" data-source-line="40" data-uid="lnk37" id="link_n6_n1"><path d="M769.718,339.1502 C751.5562,376.6208 714.1287,453.8399 695.9366,491.3729" fill="none" id="n6-to-n1" style="stroke:#181818;stroke-width:1;"/><polygon fill="#181818" points="693.3196,496.7721,700.8445,490.4179,695.5004,492.2728,693.6456,486.9286,693.3196,496.7721" style="stroke:#181818;stroke-width:1;"/></g><!--link n7 to n1--><g class="link" data-entity-1="n7" data-entity-2="n1" data-source-line="41" data-uid="lnk38" id="link_n7_n1"><path d="M1315.7318,432.1056 C1309.8481,433.947 1303.8011,435.6568 1298,437 C1105.6029,481.5475 879.0528,502.4083 763.1231,510.8818" fill="none" id="n7-to-n1" style="stroke:#181818;stroke-width:1;"/><polygon fill="#181818" points="757.1391,511.3192,766.4067,514.6525,762.1258,510.9547,765.8236,506.6738,757.1391,511.3192" style="stroke:#181818;stroke-width:1;"/></g><!--link n8 to n1--><g class="link" data-entity-1="n8" data-entity-2="n1" data-source-line="42" data-uid="lnk39" id="link_n8_n1"><path d="M521.2923,45.1491 C547.2333,58.7082 579.4863,79.0781 601,105 C636.8956,148.2506 649,165.794 649,222 C649,222 649,222 649,320 C649,385.6755 666.6359,456.0585 676.5769,490.9599" fill="none" id="n8-to-n1" style="stroke:#181818;stroke-width:1;"/><polygon fill="#181818" points="678.2205,496.7304,679.6021,486.9789,676.8508,491.9217,671.9081,489.1704,678.2205,496.7304" style="stroke:#181818;stroke-width:1;"/></g><!--link n9 to n1--><g class="link" data-entity-1="n9" data-entity-2="n1" data-source-line="43" data-uid="lnk40" id="link_n9_n1"><path d="M56.2571,339.1097 C73.1474,365.884 107.7319,413.8704 151,437 C229.2184,478.8129 478.0175,501.592 604.8783,510.819" fill="none" id="n9-to-n1" style="stroke:#181818;stroke-width:1;"/><polygon fill="#181818" points="610.8625,511.2542,602.1764,506.6119,605.8757,510.8915,601.596,514.5908,610.8625,511.2542" style="stroke:#181818;stroke-width:1;"/></g><!--link n13 to n1--><g class="link" data-entity-1="n13" data-entity-2="n1" data-source-line="44" data-uid="lnk41" id="link_n13_n1"><path d="M124.2759,241.2362 C145.9969,284.0538 204.5531,387.3529 286,437 C339.6096,469.6785 505.5679,494.4047 605.0459,506.8625" fill="none" id="n13-to-n1" style="stroke:#181818;stroke-width:1;"/><polygon fill="#181818" points="610.9994,507.6081,602.5662,502.5208,606.0382,506.9868,601.5721,510.4587,610.9994,507.6081" style="stroke:#181818;stroke-width:1;"/></g><!--link n14 to n1--><g class="link" data-entity-1="n14" data-entity-2="n1" data-source-line="45" data-uid="lnk42" id="link_n14_n1"><path d="M424.2782,241.0076 C442.5181,281.1948 489.5615,376.0857 552,437 C577.9989,462.3642 608.2612,480.3919 635.9507,494.2349" fill="none" id="n14-to-n1" style="stroke:#181818;stroke-width:1;"/><polygon fill="#181818" points="641.3174,496.9179,635.056,489.3156,636.8452,494.6821,631.4787,496.4712,641.3174,496.9179" style="stroke:#181818;stroke-width:1;"/></g><!--link n15 to n1--><g class="link" data-entity-1="n15" data-entity-2="n1" data-source-line="46" data-uid="lnk43" id="link_n15_n1"><path d="M535.0134,143.2629 C543.4428,193.7306 570.1802,333.0768 623,437 C634.3843,459.3987 648.4528,477.2866 661.972,492.4743" fill="none" id="n15-to-n1" style="stroke:#181818;stroke-width:1;"/><polygon fill="#181818" points="665.9613,496.956,662.9651,487.574,662.6369,493.2213,656.9895,492.893,665.9613,496.956" style="stroke:#181818;stroke-width:1;"/></g><!--link n16 to n1--><g class="link" data-entity-1="n16" data-entity-2="n1" data-source-line="47" data-uid="lnk44" id="link_n16_n1"><path d="M313.1784,339.3131 C299.3912,364.5971 281.2095,408.9842 304,437 C341.8979,483.587 505.2697,503.1256 604.6428,510.9839" fill="none" id="n16-to-n1" style="stroke:#181818;stroke-width:1;"/><polygon fill="#181818" points="610.6241,511.4569,601.9674,506.7599,605.6397,511.0627,601.3368,514.735,610.6241,511.4569" style="stroke:#181818;stroke-width:1;"/></g><!--link n19 to n1--><g class="link" data-entity-1="n19" data-entity-2="n1" data-source-line="48" data-uid="lnk45" id="link_n19_n1"><path d="M445.4227,437.0116 C497.6246,454.2946 568.5584,477.7795 620.789,495.072" fill="none" id="n19-to-n1" style="stroke:#181818;stroke-width:1;"/><polygon fill="#181818" points="626.4849,496.9578,619.1982,490.3318,621.7383,495.3863,616.6838,497.9264,626.4849,496.9578" style="stroke:#181818;stroke-width:1;"/></g><!--link n20 to n1--><g class="link" data-entity-1="n20" data-entity-2="n1" data-source-line="49" data-uid="lnk46" id="link_n20_n1"><path d="M797.4791,437.128 C772.6345,454.3959 741.2015,476.243 716.3784,493.4959" fill="none" id="n20-to-n1" style="stroke:#181818;stroke-width:1;"/><polygon fill="#181818" points="711.4515,496.9202,721.1247,495.0683,715.5572,494.0666,716.5589,488.4991,711.4515,496.9202" style="stroke:#181818;stroke-width:1;"/></g><!--link n16 to n19--><g class="link" data-entity-1="n16" data-entity-2="n19" data-source-line="50" data-uid="lnk47" id="link_n16_n19"><path d="M337.4468,339.3616 C348.4915,356.5424 361.2975,376.4629 372.3345,393.6315" fill="none" id="n16-to-n19" style="stroke:#181818;stroke-width:1;"/><polygon fill="#181818" points="375.5791,398.6786,374.077,388.945,372.8753,394.4727,367.3476,393.271,375.5791,398.6786" style="stroke:#181818;stroke-width:1;"/></g><!--link n10 to n13--><g class="link" data-entity-1="n10" data-entity-2="n13" data-source-line="51" data-uid="lnk48" id="link_n10_n13"><path d="M221.2357,143.128 C197.977,160.3959 168.7554,182.0907 145.5168,199.3436" fill="none" id="n10-to-n13" style="stroke:#181818;stroke-width:1;"/><polygon fill="#181818" points="140.6993,202.9202,150.3099,200.7669,144.7139,199.9397,145.5411,194.3437,140.6993,202.9202" style="stroke:#181818;stroke-width:1;"/></g><!--link n12 to n15--><g class="link" data-entity-1="n12" data-entity-2="n15" data-source-line="52" data-uid="lnk49" id="link_n12_n15"><path d="M335.018,41.8543 C376.327,59.081 436.7719,84.2879 480.8438,102.6667" fill="none" id="n12-to-n15" style="stroke:#181818;stroke-width:1;"/><polygon fill="#181818" points="486.3816,104.9761,479.6145,97.8202,481.7668,103.0516,476.5354,105.2039,486.3816,104.9761" style="stroke:#181818;stroke-width:1;"/></g><!--link n8 to n15--><g class="link" data-entity-1="n8" data-entity-2="n15" data-source-line="53" data-uid="lnk50" id="link_n8_n15"><path d="M489.4711,45.3616 C498.7627,62.5424 509.4114,82.2324 518.6965,99.401" fill="none" id="n8-to-n15" style="stroke:#181818;stroke-width:1;"/><polygon fill="#181818" points="521.5507,104.6786,520.7878,94.8593,519.1722,100.2806,513.7509,98.665,521.5507,104.6786" style="stroke:#181818;stroke-width:1;"/></g><!--link n12 to n14--><g class="link" data-entity-1="n12" data-entity-2="n14" data-source-line="54" data-uid="lnk51" id="link_n12_n14"><path d="M308.6269,45.1502 C331.3769,82.6208 378.4241,160.1104 401.212,197.6434" fill="none" id="n12-to-n14" style="stroke:#181818;stroke-width:1;"/><polygon fill="#181818" points="404.3259,202.7721,403.0742,193.0031,401.731,198.4982,396.2359,197.1549,404.3259,202.7721" style="stroke:#181818;stroke-width:1;"/></g><!--link n8 to n14--><g class="link" data-entity-1="n8" data-entity-2="n14" data-source-line="55" data-uid="lnk52" id="link_n8_n14"><path d="M472.8446,45.1502 C460.8005,82.6208 436.0807,159.5269 424.0165,197.0599" fill="none" id="n8-to-n14" style="stroke:#181818;stroke-width:1;"/><polygon fill="#181818" points="422.1804,202.7721,428.7426,195.4279,423.7104,198.012,421.1264,192.9798,422.1804,202.7721" style="stroke:#181818;stroke-width:1;"/></g><!--link n10 to n14--><g class="link" data-entity-1="n10" data-entity-2="n14" data-source-line="56" data-uid="lnk53" id="link_n10_n14"><path d="M279.9861,143.128 C309.7643,160.3959 348.1541,182.6575 377.9066,199.9104" fill="none" id="n10-to-n14" style="stroke:#181818;stroke-width:1;"/><polygon fill="#181818" points="383.0971,202.9202,377.318,194.9451,378.7717,200.412,373.3049,201.8657,383.0971,202.9202" style="stroke:#181818;stroke-width:1;"/></g><!--link n6 to n20--><g class="link" data-entity-1="n6" data-entity-2="n20" data-source-line="57" data-uid="lnk54" id="link_n6_n20"><path d="M788.0881,339.3616 C796.1526,356.5424 805.3225,376.0786 813.3813,393.2472" fill="none" id="n6-to-n20" style="stroke:#181818;stroke-width:1;"/><polygon fill="#181818" points="815.9308,398.6786,815.7276,388.8318,813.8062,394.1524,808.4857,392.2311,815.9308,398.6786" style="stroke:#181818;stroke-width:1;"/></g><!--link n5 to n20--><g class="link" data-entity-1="n5" data-entity-2="n20" data-source-line="58" data-uid="lnk55" id="link_n5_n20"><path d="M861.1094,339.3616 C853.2203,356.5424 844.2593,376.0574 836.3758,393.226" fill="none" id="n5-to-n20" style="stroke:#181818;stroke-width:1;"/><polygon fill="#181818" points="833.8721,398.6786,841.2628,392.1688,835.9586,394.1347,833.9926,388.8305,833.8721,398.6786" style="stroke:#181818;stroke-width:1;"/></g><!--SRC=[RLB1Ri8m3BttAofsgmGZfT1MGaWRfqcJ9csxJoKr9Q8uLH9W_Ft2HfsaxFRaz_pox7YfpQM5LRHyl06z5zXLgZh4cuhl6oMFMAzbArLiL8NQKe0cKi1DXKqByQYJoe2Qx4PnfMCixwalBb6RNb3y8p2N3dgUJNq1buTEWTR4vc6xKMk91hx9dYryGP9S9MyTu0Uea-0muKbo4yOFhwBPcUVs24FFT-2dpvs2gYRRCao5Mz4GD_Cv1RzxEWWNQUxpPu6rF1EN3Tz-wPxgcjQP1jiG2EIw28c-7BpLcN28OFVQr3LiYMC3Jg0R81rmhTXGm91I0calmLgqv7iNFfZwYC9wzbGUsHE8n-FLzPPih3zehyB6SBZmohqazoIUYxq8-mKUpZoSUxXmkBU9S4Oe8pGdj22K4oe8bOIOis7EXpaZvfoOQqkdzuBIcspcJJntBy-zSkRAcTUPKNPxOVr0wVG7]--></g></svg>