<svg xmlns="http://www.w3.org/2000/svg" xmlns:xlink="http://www.w3.org/1999/xlink" contentStyleType="text/css" data-diagram-type="DESCRIPTION" height="540px" preserveAspectRatio="none" style="width:1163px;height:540px;" version="1.1" viewBox="0 0 1163 540" width="1163px" zoomAndPan="magnify"><defs/><g><!--entity n7--><g class="entity" data-entity="n7" data-source-line="5" data-uid="ent0002" id="entity_n7"><rect fill="#F1F1F1" height="37.7799" rx="2.5" ry="2.5" style="stroke:#181818;stroke-width:0.5;" width="117.9996" x="71" y="7"/><text fill="#000000" font-family="'Segoe UI', 'メイリオ', 'UDEV Gothic HSRFJPDOC', 'Hiragino Kaku Gothic ProN', 'ヒラギノ角ゴ ProN', 'Noto Sans JP', 'Helvetica Neue', Helvetica, Arial, sans-serif" font-size="14" lengthAdjust="spacing" textLength="97.9996" x="81" y="30.9999">porter_const.h</text></g><!--entity n11--><g class="entity" data-entity="n11" data-source-line="6" data-uid="ent0003" id="entity_n11"><rect fill="#F1F1F1" height="37.7799" rx="2.5" ry="2.5" style="stroke:#181818;stroke-width:0.5;" width="110.9996" x="340.5" y="105"/><text fill="#000000" font-family="'Segoe UI', 'メイリオ', 'UDEV Gothic HSRFJPDOC', 'Hiragino Kaku Gothic ProN', 'ヒラギノ角ゴ ProN', 'Noto Sans JP', 'Helvetica Neue', Helvetica, Arial, sans-serif" font-size="14" lengthAdjust="spacing" textLength="90.9996" x="350.5" y="128.9999">porter_type.h</text></g><!--entity n15--><g class="entity" data-entity="n15" data-source-line="7" data-uid="ent0004" id="entity_n15"><rect fill="#F1F1F1" height="37.7799" rx="2.5" ry="2.5" style="stroke:#181818;stroke-width:0.5;" width="89.9997" x="629" y="105"/><text fill="#000000" font-family="'Segoe UI', 'メイリオ', 'UDEV Gothic HSRFJPDOC', 'Hiragino Kaku Gothic ProN', 'ヒラギノ角ゴ ProN', 'Noto Sans JP', 'Helvetica Neue', Helvetica, Arial, sans-serif" font-size="14" lengthAdjust="spacing" textLength="69.9997" x="639" y="128.9999">compress.h</text></g><!--entity n13--><g class="entity" data-entity="n13" data-source-line="8" data-uid="ent0005" id="entity_n13"><rect fill="#F1F1F1" height="37.7799" rx="2.5" ry="2.5" style="stroke:#181818;stroke-width:0.5;" width="110.9996" x="262.5" y="301"/><text fill="#000000" font-family="'Segoe UI', 'メイリオ', 'UDEV Gothic HSRFJPDOC', 'Hiragino Kaku Gothic ProN', 'ヒラギノ角ゴ ProN', 'Noto Sans JP', 'Helvetica Neue', Helvetica, Arial, sans-serif" font-size="14" lengthAdjust="spacing" textLength="90.9996" x="272.5" y="324.9999">potrContext.h</text></g><!--entity n1--><g class="entity" data-entity="n1" data-source-line="9" data-uid="ent0006" id="entity_n1"><rect fill="#ADD8E6" height="37.7799" rx="2.5" ry="2.5" style="stroke:#181818;stroke-width:0.5;" width="138.9995" x="557.5" y="497"/><text fill="#000000" font-family="'Segoe UI', 'メイリオ', 'UDEV Gothic HSRFJPDOC', 'Hiragino Kaku Gothic ProN', 'ヒラギノ角ゴ ProN', 'Noto Sans JP', 'Helvetica Neue', Helvetica, Arial, sans-serif" font-size="14" font-weight="bold" lengthAdjust="spacing" textLength="118.9995" x="567.5" y="520.9999">potrRecvThread.c</text></g><!--entity n17--><g class="entity" data-entity="n17" data-source-line="10" data-uid="ent0007" id="entity_n17"><rect fill="#F1F1F1" height="37.7799" rx="2.5" ry="2.5" style="stroke:#181818;stroke-width:0.5;" width="131.9995" x="371" y="399"/><text fill="#000000" font-family="'Segoe UI', 'メイリオ', 'UDEV Gothic HSRFJPDOC', 'Hiragino Kaku Gothic ProN', 'ヒラギノ角ゴ ProN', 'Noto Sans JP', 'Helvetica Neue', Helvetica, Arial, sans-serif" font-size="14" lengthAdjust="spacing" textLength="111.9995" x="381" y="422.9999">potrRecvThread.h</text></g><!--entity n8--><g class="entity" data-entity="n8" data-source-line="11" data-uid="ent0008" id="entity_n8"><rect fill="#F1F1F1" height="37.7799" rx="2.5" ry="2.5" style="stroke:#181818;stroke-width:0.5;" width="75.9998" x="474" y="203"/><text fill="#000000" font-family="'Segoe UI', 'メイリオ', 'UDEV Gothic HSRFJPDOC', 'Hiragino Kaku Gothic ProN', 'ヒラギノ角ゴ ProN', 'Noto Sans JP', 'Helvetica Neue', Helvetica, Arial, sans-serif" font-size="14" lengthAdjust="spacing" textLength="55.9998" x="484" y="226.9999">packet.h</text></g><!--entity n14--><g class="entity" data-entity="n14" data-source-line="12" data-uid="ent0009" id="entity_n14"><rect fill="#F1F1F1" height="37.7799" rx="2.5" ry="2.5" style="stroke:#181818;stroke-width:0.5;" width="103.9996" x="130" y="105"/><text fill="#000000" font-family="'Segoe UI', 'メイリオ', 'UDEV Gothic HSRFJPDOC', 'Hiragino Kaku Gothic ProN', 'ヒラギノ角ゴ ProN', 'Noto Sans JP', 'Helvetica Neue', Helvetica, Arial, sans-serif" font-size="14" lengthAdjust="spacing" textLength="83.9996" x="140" y="128.9999">retransmit.h</text></g><!--entity n12--><g class="entity" data-entity="n12" data-source-line="13" data-uid="ent0010" id="entity_n12"><rect fill="#F1F1F1" height="37.7799" rx="2.5" ry="2.5" style="stroke:#181818;stroke-width:0.5;" width="75.9998" x="102" y="203"/><text fill="#000000" font-family="'Segoe UI', 'メイリオ', 'UDEV Gothic HSRFJPDOC', 'Hiragino Kaku Gothic ProN', 'ヒラギノ角ゴ ProN', 'Noto Sans JP', 'Helvetica Neue', Helvetica, Arial, sans-serif" font-size="14" lengthAdjust="spacing" textLength="55.9998" x="112" y="226.9999">window.h</text></g><!--entity n5--><g class="entity" data-entity="n5" data-source-line="14" data-uid="ent0011" id="entity_n5"><rect fill="#F1F1F1" height="37.7799" rx="2.5" ry="2.5" style="stroke:#181818;stroke-width:0.5;" width="61.9998" x="680" y="399"/><text fill="#000000" font-family="'Segoe UI', 'メイリオ', 'UDEV Gothic HSRFJPDOC', 'Hiragino Kaku Gothic ProN', 'ヒラギノ角ゴ ProN', 'Noto Sans JP', 'Helvetica Neue', Helvetica, Arial, sans-serif" font-size="14" lengthAdjust="spacing" textLength="41.9998" x="690" y="422.9999">inet.h</text></g><!--entity n4--><g class="entity" data-entity="n4" data-source-line="15" data-uid="ent0012" id="entity_n4"><rect fill="#F1F1F1" height="37.7799" rx="2.5" ry="2.5" style="stroke:#181818;stroke-width:0.5;" width="47.9999" x="777" y="399"/><text fill="#000000" font-family="'Segoe UI', 'メイリオ', 'UDEV Gothic HSRFJPDOC', 'Hiragino Kaku Gothic ProN', 'ヒラギノ角ゴ ProN', 'Noto Sans JP', 'Helvetica Neue', Helvetica, Arial, sans-serif" font-size="14" lengthAdjust="spacing" textLength="27.9999" x="787" y="422.9999">in.h</text></g><!--entity n16--><g class="entity" data-entity="n16" data-source-line="16" data-uid="ent0013" id="entity_n16"><rect fill="#F1F1F1" height="37.7799" rx="2.5" ry="2.5" style="stroke:#181818;stroke-width:0.5;" width="82.9997" x="355.5" y="203"/><text fill="#000000" font-family="'Segoe UI', 'メイリオ', 'UDEV Gothic HSRFJPDOC', 'Hiragino Kaku Gothic ProN', 'ヒラギノ角ゴ ProN', 'Noto Sans JP', 'Helvetica Neue', Helvetica, Arial, sans-serif" font-size="14" lengthAdjust="spacing" textLength="62.9997" x="365.5" y="226.9999">pthread.h</text></g><!--entity n9--><g class="entity" data-entity="n9" data-source-line="17" data-uid="ent0014" id="entity_n9"><rect fill="#F1F1F1" height="37.7799" rx="2.5" ry="2.5" style="stroke:#181818;stroke-width:0.5;" width="75.9998" x="538" y="7"/><text fill="#000000" font-family="'Segoe UI', 'メイリオ', 'UDEV Gothic HSRFJPDOC', 'Hiragino Kaku Gothic ProN', 'ヒラギノ角ゴ ProN', 'Noto Sans JP', 'Helvetica Neue', Helvetica, Arial, sans-serif" font-size="14" lengthAdjust="spacing" textLength="55.9998" x="548" y="30.9999">stddef.h</text></g><!--entity n10--><g class="entity" data-entity="n10" data-source-line="18" data-uid="ent0015" id="entity_n10"><rect fill="#F1F1F1" height="37.7799" rx="2.5" ry="2.5" style="stroke:#181818;stroke-width:0.5;" width="75.9998" x="358" y="7"/><text fill="#000000" font-family="'Segoe UI', 'メイリオ', 'UDEV Gothic HSRFJPDOC', 'Hiragino Kaku Gothic ProN', 'ヒラギノ角ゴ ProN', 'Noto Sans JP', 'Helvetica Neue', Helvetica, Arial, sans-serif" font-size="14" lengthAdjust="spacing" textLength="55.9998" x="368" y="30.9999">stdint.h</text></g><!--entity n2--><g class="entity" data-entity="n2" data-source-line="19" data-uid="ent0016" id="entity_n2"><rect fill="#F1F1F1" height="37.7799" rx="2.5" ry="2.5" style="stroke:#181818;stroke-width:0.5;" width="75.9998" x="860" y="399"/><text fill="#000000" font-family="'Segoe UI', 'メイリオ', 'UDEV Gothic HSRFJPDOC', 'Hiragino Kaku Gothic ProN', 'ヒラギノ角ゴ ProN', 'Noto Sans JP', 'Helvetica Neue', Helvetica, Arial, sans-serif" font-size="14" lengthAdjust="spacing" textLength="55.9998" x="870" y="422.9999">string.h</text></g><!--entity n3--><g class="entity" data-entity="n3" data-source-line="20" data-uid="ent0017" id="entity_n3"><rect fill="#F1F1F1" height="37.7799" rx="2.5" ry="2.5" style="stroke:#181818;stroke-width:0.5;" width="75.9998" x="971" y="399"/><text fill="#000000" font-family="'Segoe UI', 'メイリオ', 'UDEV Gothic HSRFJPDOC', 'Hiragino Kaku Gothic ProN', 'ヒラギノ角ゴ ProN', 'Noto Sans JP', 'Helvetica Neue', Helvetica, Arial, sans-serif" font-size="14" lengthAdjust="spacing" textLength="55.9998" x="981" y="422.9999">socket.h</text></g><!--entity n6--><g class="entity" data-entity="n6" data-source-line="21" data-uid="ent0018" id="entity_n6"><rect fill="#F1F1F1" height="37.7799" rx="2.5" ry="2.5" style="stroke:#181818;stroke-width:0.5;" width="75.9998" x="1082" y="399"/><text fill="#000000" font-family="'Segoe UI', 'メイリオ', 'UDEV Gothic HSRFJPDOC', 'Hiragino Kaku Gothic ProN', 'ヒラギノ角ゴ ProN', 'Noto Sans JP', 'Helvetica Neue', Helvetica, Arial, sans-serif" font-size="14" lengthAdjust="spacing" textLength="55.9998" x="1092" y="422.9999">unistd.h</text></g><!--link n9 to n11--><g class="link" data-entity-1="n9" data-entity-2="n11" data-source-line="22" data-uid="lnk19" id="link_n9_n11"><path d="M540.8669,45.128 C509.1504,62.3959 468.0031,84.7983 436.3141,102.0512" fill="none" id="n9-to-n11" style="stroke:#181818;stroke-width:1;"/><polygon fill="#181818" points="431.0445,104.9202,440.8616,104.1298,435.4358,102.5294,437.0362,97.1036,431.0445,104.9202" style="stroke:#181818;stroke-width:1;"/></g><!--link n10 to n11--><g class="link" data-entity-1="n10" data-entity-2="n11" data-source-line="23" data-uid="lnk20" id="link_n10_n11"><path d="M396,45.3616 C396,62.5424 396,81.51 396,98.6786" fill="none" id="n10-to-n11" style="stroke:#181818;stroke-width:1;"/><polygon fill="#181818" points="396,104.6786,400,95.6786,396,99.6786,392,95.6786,396,104.6786" style="stroke:#181818;stroke-width:1;"/></g><!--link n7 to n11--><g class="link" data-entity-1="n7" data-entity-2="n11" data-source-line="24" data-uid="lnk21" id="link_n7_n11"><path d="M181.6029,45.0116 C228.4385,62.2668 291.5253,85.5094 338.4571,102.8" fill="none" id="n7-to-n11" style="stroke:#181818;stroke-width:1;"/><polygon fill="#181818" points="344.0872,104.8742,337.0249,98.0095,339.3955,103.1457,334.2593,105.5162,344.0872,104.8742" style="stroke:#181818;stroke-width:1;"/></g><!--link n9 to n15--><g class="link" data-entity-1="n9" data-entity-2="n15" data-source-line="25" data-uid="lnk22" id="link_n9_n15"><path d="M595.3616,45.3616 C612.5424,62.5424 633.2674,83.2674 650.436,100.436" fill="none" id="n9-to-n15" style="stroke:#181818;stroke-width:1;"/><polygon fill="#181818" points="654.6786,104.6786,651.1431,95.4862,651.1431,101.1431,645.4862,101.1431,654.6786,104.6786" style="stroke:#181818;stroke-width:1;"/></g><!--link n10 to n15--><g class="link" data-entity-1="n10" data-entity-2="n15" data-source-line="26" data-uid="lnk23" id="link_n10_n15"><path d="M434.0718,39.421 C484.7804,57.2967 568.7114,86.8839 622.8983,105.9857" fill="none" id="n10-to-n15" style="stroke:#181818;stroke-width:1;"/><polygon fill="#181818" points="628.557,107.9805,621.3988,101.2159,623.8414,106.3182,618.7391,108.7608,628.557,107.9805" style="stroke:#181818;stroke-width:1;"/></g><!--link n11 to n13--><g class="link" data-entity-1="n11" data-entity-2="n13" data-source-line="27" data-uid="lnk24" id="link_n11_n13"><path d="M377.9048,143.181 C364.7258,158.2685 347.5706,180.4453 338,203 C324.2354,235.4387 320.2717,270.754 318.934,294.6076" fill="none" id="n11-to-n13" style="stroke:#181818;stroke-width:1;"/><polygon fill="#181818" points="318.5981,300.5982,323.0957,291.8363,318.8781,295.606,315.1083,291.3884,318.5981,300.5982" style="stroke:#181818;stroke-width:1;"/></g><!--link n14 to n13--><g class="link" data-entity-1="n14" data-entity-2="n13" data-source-line="28" data-uid="lnk25" id="link_n14_n13"><path d="M195.2879,143.1502 C221.2879,180.6208 275.1944,258.3096 301.2377,295.8426" fill="none" id="n14-to-n13" style="stroke:#181818;stroke-width:1;"/><polygon fill="#181818" points="304.6582,300.7721,302.8138,291.0975,301.8078,296.6642,296.2411,295.6581,304.6582,300.7721" style="stroke:#181818;stroke-width:1;"/></g><!--link n12 to n13--><g class="link" data-entity-1="n12" data-entity-2="n13" data-source-line="29" data-uid="lnk26" id="link_n12_n13"><path d="M174.7427,241.128 C206.1068,258.3959 246.752,280.7735 278.0889,298.0264" fill="none" id="n12-to-n13" style="stroke:#181818;stroke-width:1;"/><polygon fill="#181818" points="283.3449,300.9202,277.39,293.0755,278.9649,298.5087,273.5316,300.0836,283.3449,300.9202" style="stroke:#181818;stroke-width:1;"/></g><!--link n15 to n13--><g class="link" data-entity-1="n15" data-entity-2="n13" data-source-line="30" data-uid="lnk27" id="link_n15_n13"><path d="M661.6129,143.0654 C643.8749,168.9017 608.8342,214.8048 568,241 C507.6577,279.7097 432.8246,299.5378 379.6404,309.9527" fill="none" id="n15-to-n13" style="stroke:#181818;stroke-width:1;"/><polygon fill="#181818" points="373.7522,311.1058,383.3532,313.3017,378.659,310.1449,381.8157,305.4508,373.7522,311.1058" style="stroke:#181818;stroke-width:1;"/></g><!--link n16 to n13--><g class="link" data-entity-1="n16" data-entity-2="n13" data-source-line="31" data-uid="lnk28" id="link_n16_n13"><path d="M381.3921,241.3616 C367.5424,258.5424 351.181,278.8388 337.341,296.0074" fill="none" id="n16-to-n13" style="stroke:#181818;stroke-width:1;"/><polygon fill="#181818" points="333.5754,300.6786,342.3379,296.1821,336.7134,296.7859,336.1096,291.1614,333.5754,300.6786" style="stroke:#181818;stroke-width:1;"/></g><!--link n2 to n1--><g class="link" data-entity-1="n2" data-entity-2="n1" data-source-line="32" data-uid="lnk29" id="link_n2_n1"><path d="M859.7471,431.8332 C812.767,448.8223 738.4646,475.6918 685.6002,494.8088" fill="none" id="n2-to-n1" style="stroke:#181818;stroke-width:1;"/><polygon fill="#181818" points="679.9578,496.8492,689.7817,497.5502,684.6598,495.1488,687.0611,490.027,679.9578,496.8492" style="stroke:#181818;stroke-width:1;"/></g><!--link n3 to n1--><g class="link" data-entity-1="n3" data-entity-2="n1" data-source-line="33" data-uid="lnk30" id="link_n3_n1"><path d="M970.9838,431.6604 C965.3184,433.5425 959.5263,435.3819 954,437 C866.1402,462.7249 769.1368,485.278 702.5832,499.897" fill="none" id="n3-to-n1" style="stroke:#181818;stroke-width:1;"/><polygon fill="#181818" points="696.7229,501.1843,706.3715,503.1603,701.6065,500.1116,704.6552,495.3466,696.7229,501.1843" style="stroke:#181818;stroke-width:1;"/></g><!--link n4 to n1--><g class="link" data-entity-1="n4" data-entity-2="n1" data-source-line="34" data-uid="lnk31" id="link_n4_n1"><path d="M776.806,431.6265 C746.6444,448.6141 700.1458,474.803 666.0671,493.9967" fill="none" id="n4-to-n1" style="stroke:#181818;stroke-width:1;"/><polygon fill="#181818" points="660.8392,496.9411,670.6439,496.0097,665.1957,494.4874,666.718,489.0392,660.8392,496.9411" style="stroke:#181818;stroke-width:1;"/></g><!--link n5 to n1--><g class="link" data-entity-1="n5" data-entity-2="n1" data-source-line="35" data-uid="lnk32" id="link_n5_n1"><path d="M694.4043,437.3616 C679.678,454.5424 662.1818,474.9545 647.4659,492.1231" fill="none" id="n5-to-n1" style="stroke:#181818;stroke-width:1;"/><polygon fill="#181818" points="643.5612,496.6786,652.4553,492.4484,646.8152,492.8823,646.3813,487.2421,643.5612,496.6786" style="stroke:#181818;stroke-width:1;"/></g><!--link n6 to n1--><g class="link" data-entity-1="n6" data-entity-2="n1" data-source-line="36" data-uid="lnk33" id="link_n6_n1"><path d="M1081.7665,432.0519 C1076.1843,433.8565 1070.4736,435.5701 1065,437 C936.7872,470.4949 789.7287,493.731 702.6937,505.9728" fill="none" id="n6-to-n1" style="stroke:#181818;stroke-width:1;"/><polygon fill="#181818" points="696.7522,506.8085,706.2216,509.516,701.7035,506.1121,705.1073,501.5939,696.7522,506.8085" style="stroke:#181818;stroke-width:1;"/></g><!--link n7 to n1--><g class="link" data-entity-1="n7" data-entity-2="n1" data-source-line="37" data-uid="lnk34" id="link_n7_n1"><path d="M107.2565,45.1503 C71.4587,77.5751 6,147.1056 6,222 C6,222 6,222 6,320 C6,434.5388 389.0812,489.8762 551.3091,508.254" fill="none" id="n7-to-n1" style="stroke:#181818;stroke-width:1;"/><polygon fill="#181818" points="557.271,508.9294,548.7785,503.9417,552.3028,508.3666,547.8779,511.8909,557.271,508.9294" style="stroke:#181818;stroke-width:1;"/></g><!--link n8 to n1--><g class="link" data-entity-1="n8" data-entity-2="n1" data-source-line="38" data-uid="lnk35" id="link_n8_n1"><path d="M519.5455,241.2902 C540.3828,294.5612 596.3706,437.6954 617.241,491.0511" fill="none" id="n8-to-n1" style="stroke:#181818;stroke-width:1;"/><polygon fill="#181818" points="619.4267,496.6388,619.8733,486.8001,617.6053,491.9824,612.423,489.7143,619.4267,496.6388" style="stroke:#181818;stroke-width:1;"/></g><!--link n12 to n1--><g class="link" data-entity-1="n12" data-entity-2="n1" data-source-line="39" data-uid="lnk36" id="link_n12_n1"><path d="M150.6995,241.2054 C175.2907,283.5037 240.1449,385.0614 323,437 C395.1927,482.2547 486.5566,500.9371 551.4337,509.2173" fill="none" id="n12-to-n1" style="stroke:#181818;stroke-width:1;"/><polygon fill="#181818" points="557.3854,509.9769,548.9642,504.8697,552.4256,509.3439,547.9514,512.8053,557.3854,509.9769" style="stroke:#181818;stroke-width:1;"/></g><!--link n13 to n1--><g class="link" data-entity-1="n13" data-entity-2="n1" data-source-line="40" data-uid="lnk37" id="link_n13_n1"><path d="M318.5063,339.0142 C320.2365,364.7911 327.1784,410.6257 354,437 C382.8045,465.3241 480.5696,488.5815 551.5322,502.4974" fill="none" id="n13-to-n1" style="stroke:#181818;stroke-width:1;"/><polygon fill="#181818" points="557.4201,503.652,549.3581,497.9948,552.5136,502.6898,547.8186,505.8453,557.4201,503.652" style="stroke:#181818;stroke-width:1;"/></g><!--link n17 to n1--><g class="link" data-entity-1="n17" data-entity-2="n1" data-source-line="41" data-uid="lnk38" id="link_n17_n1"><path d="M474.085,437.128 C507.5634,454.3959 551.2266,476.9169 584.6761,494.1698" fill="none" id="n17-to-n1" style="stroke:#181818;stroke-width:1;"/><polygon fill="#181818" points="590.0086,496.9202,583.8435,489.2396,585.5649,494.6282,580.1763,496.3495,590.0086,496.9202" style="stroke:#181818;stroke-width:1;"/></g><!--link n15 to n1--><g class="link" data-entity-1="n15" data-entity-2="n1" data-source-line="42" data-uid="lnk39" id="link_n15_n1"><path d="M671.7013,143.1723 C663.7211,209.7306 637.982,424.406 630.0086,490.9073" fill="none" id="n15-to-n1" style="stroke:#181818;stroke-width:1;"/><polygon fill="#181818" points="629.2943,496.8646,634.3373,488.4048,629.8895,491.9002,626.3942,487.4524,629.2943,496.8646" style="stroke:#181818;stroke-width:1;"/></g><!--link n13 to n17--><g class="link" data-entity-1="n13" data-entity-2="n17" data-source-line="43" data-uid="lnk40" id="link_n13_n17"><path d="M341.2269,339.128 C362.195,356.3959 388.2501,377.8531 409.2001,395.106" fill="none" id="n13-to-n17" style="stroke:#181818;stroke-width:1;"/><polygon fill="#181818" points="413.8317,398.9202,409.4271,390.1111,409.972,395.7417,404.3415,396.2866,413.8317,398.9202" style="stroke:#181818;stroke-width:1;"/></g><!--link n9 to n8--><g class="link" data-entity-1="n9" data-entity-2="n8" data-source-line="44" data-uid="lnk41" id="link_n9_n8"><path d="M569.7469,45.1502 C557.5116,82.6208 532.3966,159.5355 520.1409,197.0685" fill="none" id="n9-to-n8" style="stroke:#181818;stroke-width:1;"/><polygon fill="#181818" points="518.2785,202.7721,524.8745,195.4583,519.8305,198.0191,517.2697,192.975,518.2785,202.7721" style="stroke:#181818;stroke-width:1;"/></g><!--link n10 to n8--><g class="link" data-entity-1="n10" data-entity-2="n8" data-source-line="45" data-uid="lnk42" id="link_n10_n8"><path d="M417.967,45.2737 C433.9184,60.2403 455.0632,82.221 469,105 C488.4262,136.751 499.6486,172.8456 505.9132,196.9248" fill="none" id="n10-to-n8" style="stroke:#181818;stroke-width:1;"/><polygon fill="#181818" points="507.4239,202.7315,509.029,193.0143,506.165,197.8926,501.2867,195.0286,507.4239,202.7315" style="stroke:#181818;stroke-width:1;"/></g><!--link n11 to n8--><g class="link" data-entity-1="n11" data-entity-2="n8" data-source-line="46" data-uid="lnk43" id="link_n11_n8"><path d="M418.6413,143.128 C439.0808,160.3959 464.4106,181.7952 484.8325,199.0481" fill="none" id="n11-to-n8" style="stroke:#181818;stroke-width:1;"/><polygon fill="#181818" points="489.4158,202.9202,485.1222,194.0565,485.5964,199.6935,479.9594,200.1676,489.4158,202.9202" style="stroke:#181818;stroke-width:1;"/></g><!--link n10 to n14--><g class="link" data-entity-1="n10" data-entity-2="n14" data-source-line="47" data-uid="lnk44" id="link_n10_n14"><path d="M357.7411,43.5204 C319.9912,60.8078 267.9004,84.6624 229.0378,102.4593" fill="none" id="n10-to-n14" style="stroke:#181818;stroke-width:1;"/><polygon fill="#181818" points="223.5826,104.9575,233.4308,104.847,228.1286,102.8757,230.0999,97.5734,223.5826,104.9575" style="stroke:#181818;stroke-width:1;"/></g><!--link n7 to n14--><g class="link" data-entity-1="n7" data-entity-2="n14" data-source-line="48" data-uid="lnk45" id="link_n7_n14"><path d="M140.2735,45.3616 C149.3898,62.5424 159.8257,82.2099 168.9355,99.3785" fill="none" id="n7-to-n14" style="stroke:#181818;stroke-width:1;"/><polygon fill="#181818" points="171.7478,104.6786,171.0628,94.8536,169.4042,100.2618,163.996,98.6033,171.7478,104.6786" style="stroke:#181818;stroke-width:1;"/></g><!--link n10 to n12--><g class="link" data-entity-1="n10" data-entity-2="n12" data-source-line="49" data-uid="lnk46" id="link_n10_n12"><path d="M373.4377,45.1299 C345.4066,68.7093 295.9061,109.739 252,143 C224.1186,164.1215 196.276,183.6413 173.4072,199.3243" fill="none" id="n10-to-n12" style="stroke:#181818;stroke-width:1;"/><polygon fill="#181818" points="168.459,202.7177,178.1436,200.9264,172.5825,199.8899,173.6191,194.3288,168.459,202.7177" style="stroke:#181818;stroke-width:1;"/></g><!--link n7 to n12--><g class="link" data-entity-1="n7" data-entity-2="n12" data-source-line="50" data-uid="lnk47" id="link_n7_n12"><path d="M123.2659,45.083 C115.9592,68.2714 106.0786,108.5679 112,143 C115.6254,164.0809 121.9502,181.4877 128.6966,197.1832" fill="none" id="n7-to-n12" style="stroke:#181818;stroke-width:1;"/><polygon fill="#181818" points="131.066,202.6956,131.1868,192.8475,129.0915,198.102,123.837,196.0067,131.066,202.6956" style="stroke:#181818;stroke-width:1;"/></g><!--link n11 to n12--><g class="link" data-entity-1="n11" data-entity-2="n12" data-source-line="51" data-uid="lnk48" id="link_n11_n12"><path d="M346.3371,143.0116 C297.1909,161.8253 228.6136,188.0776 183.8698,205.2061" fill="none" id="n11-to-n12" style="stroke:#181818;stroke-width:1;"/><polygon fill="#181818" points="178.2663,207.3512,188.1015,207.8692,182.9358,205.5636,185.2414,200.398,178.2663,207.3512" style="stroke:#181818;stroke-width:1;"/></g><!--SRC=[RPBBRi8m44Nt-GgBxY91wxoH48koxQhgldAJ8LY4SMGxfVnz0yBsc7Ptv7DpC-DaO-nbW6soURw3EKeSXHOdzYNQOw_LXDrE3KepgmMQMG7QH4Dh1VO3iCMej0NzsIeqTdLOC64Orly4x6K4vpcdWLQTHWt6U5l6ZrkzKsZXnzVpd0RIz1fvX_Rxuw11TAisJUyvzlGc-uDz7IPuh2HvrnfFFMyF_eqDLHfkLt6IOQ22-hF4JfszowYJ64hBMBZZg6kqyOmLbSPs7UoTMpyeYM6-bzXfYRrpqNX6qQsZQvvGpgLELGcksNAvlNtBkJzm7T0bIfAuChzpFdD1E2DS4gu2kqY2kQV2K-cfybHxQZpnKCD33mzHNluDr7wX9kpJX7N8wVm_-FSMv3WBnncvX-mN]--></g></svg>