<svg xmlns="http://www.w3.org/2000/svg" xmlns:xlink="http://www.w3.org/1999/xlink" contentStyleType="text/css" data-diagram-type="DESCRIPTION" height="442px" preserveAspectRatio="none" style="width:525px;height:442px;" version="1.1" viewBox="0 0 525 442" width="525px" zoomAndPan="magnify"><defs/><g><!--entity n6--><g class="entity" data-entity="n6" data-source-line="5" data-uid="ent0002" id="entity_n6"><rect fill="#F1F1F1" height="37.7799" rx="2.5" ry="2.5" style="stroke:#181818;stroke-width:0.5;" width="117.9996" x="343" y="7"/><text fill="#000000" font-family="'Segoe UI', 'メイリオ', 'UDEV Gothic HSRFJPDOC', 'Hiragino Kaku Gothic ProN', 'ヒラギノ角ゴ ProN', 'Noto Sans JP', 'Helvetica Neue', Helvetica, Arial, sans-serif" font-size="14" lengthAdjust="spacing" textLength="97.9996" x="353" y="30.9999">porter_const.h</text></g><!--entity n3--><g class="entity" data-entity="n3" data-source-line="6" data-uid="ent0003" id="entity_n3"><rect fill="#F1F1F1" height="37.7799" rx="2.5" ry="2.5" style="stroke:#181818;stroke-width:0.5;" width="110.9996" x="132.5" y="105"/><text fill="#000000" font-family="'Segoe UI', 'メイリオ', 'UDEV Gothic HSRFJPDOC', 'Hiragino Kaku Gothic ProN', 'ヒラギノ角ゴ ProN', 'Noto Sans JP', 'Helvetica Neue', Helvetica, Arial, sans-serif" font-size="14" lengthAdjust="spacing" textLength="90.9996" x="142.5" y="128.9999">porter_type.h</text></g><!--entity n9--><g class="entity" data-entity="n9" data-source-line="7" data-uid="ent0004" id="entity_n9"><rect fill="#F1F1F1" height="37.7799" rx="2.5" ry="2.5" style="stroke:#181818;stroke-width:0.5;" width="89.9997" x="7" y="105"/><text fill="#000000" font-family="'Segoe UI', 'メイリオ', 'UDEV Gothic HSRFJPDOC', 'Hiragino Kaku Gothic ProN', 'ヒラギノ角ゴ ProN', 'Noto Sans JP', 'Helvetica Neue', Helvetica, Arial, sans-serif" font-size="14" lengthAdjust="spacing" textLength="69.9997" x="17" y="128.9999">compress.h</text></g><!--entity n2--><g class="entity" data-entity="n2" data-source-line="8" data-uid="ent0005" id="entity_n2"><rect fill="#F1F1F1" height="37.7799" rx="2.5" ry="2.5" style="stroke:#181818;stroke-width:0.5;" width="110.9996" x="236.5" y="301"/><text fill="#000000" font-family="'Segoe UI', 'メイリオ', 'UDEV Gothic HSRFJPDOC', 'Hiragino Kaku Gothic ProN', 'ヒラギノ角ゴ ProN', 'Noto Sans JP', 'Helvetica Neue', Helvetica, Arial, sans-serif" font-size="14" lengthAdjust="spacing" textLength="90.9996" x="246.5" y="324.9999">potrContext.h</text></g><!--entity n1--><g class="entity" data-entity="n1" data-source-line="9" data-uid="ent0006" id="entity_n1"><rect fill="#ADD8E6" height="37.7799" rx="2.5" ry="2.5" style="stroke:#181818;stroke-width:0.5;" width="138.9995" x="222.5" y="399"/><text fill="#000000" font-family="'Segoe UI', 'メイリオ', 'UDEV Gothic HSRFJPDOC', 'Hiragino Kaku Gothic ProN', 'ヒラギノ角ゴ ProN', 'Noto Sans JP', 'Helvetica Neue', Helvetica, Arial, sans-serif" font-size="14" font-weight="bold" lengthAdjust="spacing" textLength="118.9995" x="232.5" y="422.9999">potrRecvThread.h</text></g><!--entity n7--><g class="entity" data-entity="n7" data-source-line="10" data-uid="ent0007" id="entity_n7"><rect fill="#F1F1F1" height="37.7799" rx="2.5" ry="2.5" style="stroke:#181818;stroke-width:0.5;" width="103.9996" x="350" y="105"/><text fill="#000000" font-family="'Segoe UI', 'メイリオ', 'UDEV Gothic HSRFJPDOC', 'Hiragino Kaku Gothic ProN', 'ヒラギノ角ゴ ProN', 'Noto Sans JP', 'Helvetica Neue', Helvetica, Arial, sans-serif" font-size="14" lengthAdjust="spacing" textLength="83.9996" x="360" y="128.9999">retransmit.h</text></g><!--entity n8--><g class="entity" data-entity="n8" data-source-line="11" data-uid="ent0008" id="entity_n8"><rect fill="#F1F1F1" height="37.7799" rx="2.5" ry="2.5" style="stroke:#181818;stroke-width:0.5;" width="75.9998" x="254" y="203"/><text fill="#000000" font-family="'Segoe UI', 'メイリオ', 'UDEV Gothic HSRFJPDOC', 'Hiragino Kaku Gothic ProN', 'ヒラギノ角ゴ ProN', 'Noto Sans JP', 'Helvetica Neue', Helvetica, Arial, sans-serif" font-size="14" lengthAdjust="spacing" textLength="55.9998" x="264" y="226.9999">window.h</text></g><!--entity n10--><g class="entity" data-entity="n10" data-source-line="12" data-uid="ent0009" id="entity_n10"><rect fill="#F1F1F1" height="37.7799" rx="2.5" ry="2.5" style="stroke:#181818;stroke-width:0.5;" width="82.9997" x="436.5" y="203"/><text fill="#000000" font-family="'Segoe UI', 'メイリオ', 'UDEV Gothic HSRFJPDOC', 'Hiragino Kaku Gothic ProN', 'ヒラギノ角ゴ ProN', 'Noto Sans JP', 'Helvetica Neue', Helvetica, Arial, sans-serif" font-size="14" lengthAdjust="spacing" textLength="62.9997" x="446.5" y="226.9999">pthread.h</text></g><!--entity n4--><g class="entity" data-entity="n4" data-source-line="13" data-uid="ent0010" id="entity_n4"><rect fill="#F1F1F1" height="37.7799" rx="2.5" ry="2.5" style="stroke:#181818;stroke-width:0.5;" width="75.9998" x="68" y="7"/><text fill="#000000" font-family="'Segoe UI', 'メイリオ', 'UDEV Gothic HSRFJPDOC', 'Hiragino Kaku Gothic ProN', 'ヒラギノ角ゴ ProN', 'Noto Sans JP', 'Helvetica Neue', Helvetica, Arial, sans-serif" font-size="14" lengthAdjust="spacing" textLength="55.9998" x="78" y="30.9999">stddef.h</text></g><!--entity n5--><g class="entity" data-entity="n5" data-source-line="14" data-uid="ent0011" id="entity_n5"><rect fill="#F1F1F1" height="37.7799" rx="2.5" ry="2.5" style="stroke:#181818;stroke-width:0.5;" width="75.9998" x="191" y="7"/><text fill="#000000" font-family="'Segoe UI', 'メイリオ', 'UDEV Gothic HSRFJPDOC', 'Hiragino Kaku Gothic ProN', 'ヒラギノ角ゴ ProN', 'Noto Sans JP', 'Helvetica Neue', Helvetica, Arial, sans-serif" font-size="14" lengthAdjust="spacing" textLength="55.9998" x="201" y="30.9999">stdint.h</text></g><!--link n4 to n3--><g class="link" data-entity-1="n4" data-entity-2="n3" data-source-line="15" data-uid="lnk12" id="link_n4_n3"><path d="M122.2006,45.3616 C136.5763,62.5424 153.6172,82.9084 167.9828,100.077" fill="none" id="n4-to-n3" style="stroke:#181818;stroke-width:1;"/><polygon fill="#181818" points="171.8331,104.6786,169.1253,95.2093,168.6245,100.8439,162.9898,100.3431,171.8331,104.6786" style="stroke:#181818;stroke-width:1;"/></g><!--link n5 to n3--><g class="link" data-entity-1="n5" data-entity-2="n3" data-source-line="16" data-uid="lnk13" id="link_n5_n3"><path d="M220.8997,45.3616 C213.7119,62.5424 205.5819,81.9749 198.3992,99.1435" fill="none" id="n5-to-n3" style="stroke:#181818;stroke-width:1;"/><polygon fill="#181818" points="196.0835,104.6786,203.2471,97.9197,198.0132,100.066,195.867,94.8321,196.0835,104.6786" style="stroke:#181818;stroke-width:1;"/></g><!--link n6 to n3--><g class="link" data-entity-1="n6" data-entity-2="n3" data-source-line="17" data-uid="lnk14" id="link_n6_n3"><path d="M360.4849,45.0116 C322.8051,62.2668 272.9768,85.0854 235.2196,102.376" fill="none" id="n6-to-n3" style="stroke:#181818;stroke-width:1;"/><polygon fill="#181818" points="229.7644,104.8742,239.6126,104.7638,234.3104,102.7924,236.2818,97.4902,229.7644,104.8742" style="stroke:#181818;stroke-width:1;"/></g><!--link n4 to n9--><g class="link" data-entity-1="n4" data-entity-2="n9" data-source-line="18" data-uid="lnk15" id="link_n4_n9"><path d="M95.3313,45.3616 C85.8644,62.5424 75.0023,82.255 65.5421,99.4236" fill="none" id="n4-to-n9" style="stroke:#181818;stroke-width:1;"/><polygon fill="#181818" points="62.6465,104.6786,70.4933,98.7265,65.0595,100.2994,63.4866,94.8656,62.6465,104.6786" style="stroke:#181818;stroke-width:1;"/></g><!--link n5 to n9--><g class="link" data-entity-1="n5" data-entity-2="n9" data-source-line="19" data-uid="lnk16" id="link_n5_n9"><path d="M194.4524,45.128 C163.2646,62.3959 122.8704,84.761 91.7095,102.0139" fill="none" id="n5-to-n9" style="stroke:#181818;stroke-width:1;"/><polygon fill="#181818" points="86.4604,104.9202,96.2716,104.0602,90.8347,102.4983,92.3966,97.0613,86.4604,104.9202" style="stroke:#181818;stroke-width:1;"/></g><!--link n3 to n2--><g class="link" data-entity-1="n3" data-entity-2="n2" data-source-line="20" data-uid="lnk17" id="link_n3_n2"><path d="M194.3757,143.2512 C202.5653,166.953 217.9023,208.106 236,241 C247.8317,262.505 260.7036,280.436 272.7422,295.9485" fill="none" id="n3-to-n2" style="stroke:#181818;stroke-width:1;"/><polygon fill="#181818" points="276.4208,300.6886,274.063,291.1261,273.3553,296.7385,267.7429,296.0309,276.4208,300.6886" style="stroke:#181818;stroke-width:1;"/></g><!--link n7 to n2--><g class="link" data-entity-1="n7" data-entity-2="n2" data-source-line="21" data-uid="lnk18" id="link_n7_n2"><path d="M394.1853,143.1385 C384.2881,166.7267 366.1971,207.7652 347,241 C334.7125,262.2726 321.9886,280.3538 310.3263,295.9902" fill="none" id="n7-to-n2" style="stroke:#181818;stroke-width:1;"/><polygon fill="#181818" points="306.7391,300.7998,315.3263,295.9769,309.7284,296.7918,308.9135,291.194,306.7391,300.7998" style="stroke:#181818;stroke-width:1;"/></g><!--link n8 to n2--><g class="link" data-entity-1="n8" data-entity-2="n2" data-source-line="22" data-uid="lnk19" id="link_n8_n2"><path d="M292,241.3616 C292,258.5424 292,277.51 292,294.6786" fill="none" id="n8-to-n2" style="stroke:#181818;stroke-width:1;"/><polygon fill="#181818" points="292,300.6786,296,291.6786,292,295.6786,288,291.6786,292,300.6786" style="stroke:#181818;stroke-width:1;"/></g><!--link n9 to n2--><g class="link" data-entity-1="n9" data-entity-2="n2" data-source-line="23" data-uid="lnk20" id="link_n9_n2"><path d="M75.4492,143.1502 C121.3316,180.6208 217.8497,259.4439 263.8084,296.9769" fill="none" id="n9-to-n2" style="stroke:#181818;stroke-width:1;"/><polygon fill="#181818" points="268.4556,300.7721,264.015,291.9812,264.5829,297.6094,258.9547,298.1774,268.4556,300.7721" style="stroke:#181818;stroke-width:1;"/></g><!--link n10 to n2--><g class="link" data-entity-1="n10" data-entity-2="n2" data-source-line="24" data-uid="lnk21" id="link_n10_n2"><path d="M441.6958,241.128 C408.9221,258.3959 366.2663,280.8705 333.521,298.1234" fill="none" id="n10-to-n2" style="stroke:#181818;stroke-width:1;"/><polygon fill="#181818" points="328.2127,300.9202,338.0397,300.2638,332.6363,298.5895,334.3106,293.1861,328.2127,300.9202" style="stroke:#181818;stroke-width:1;"/></g><!--link n2 to n1--><g class="link" data-entity-1="n2" data-entity-2="n1" data-source-line="25" data-uid="lnk22" id="link_n2_n1"><path d="M292,339.3616 C292,356.5424 292,375.51 292,392.6786" fill="none" id="n2-to-n1" style="stroke:#181818;stroke-width:1;"/><polygon fill="#181818" points="292,398.6786,296,389.6786,292,393.6786,288,389.6786,292,398.6786" style="stroke:#181818;stroke-width:1;"/></g><!--link n5 to n7--><g class="link" data-entity-1="n5" data-entity-2="n7" data-source-line="26" data-uid="lnk23" id="link_n5_n7"><path d="M262.7668,45.128 C293.2499,62.3959 332.6411,84.71 363.0977,101.9629" fill="none" id="n5-to-n7" style="stroke:#181818;stroke-width:1;"/><polygon fill="#181818" points="368.3183,104.9202,362.459,97.0038,363.9678,102.4558,358.5159,103.9646,368.3183,104.9202" style="stroke:#181818;stroke-width:1;"/></g><!--link n6 to n7--><g class="link" data-entity-1="n6" data-entity-2="n7" data-source-line="27" data-uid="lnk24" id="link_n6_n7"><path d="M402,45.3616 C402,62.5424 402,81.51 402,98.6786" fill="none" id="n6-to-n7" style="stroke:#181818;stroke-width:1;"/><polygon fill="#181818" points="402,104.6786,406,95.6786,402,99.6786,398,95.6786,402,104.6786" style="stroke:#181818;stroke-width:1;"/></g><!--link n5 to n8--><g class="link" data-entity-1="n5" data-entity-2="n8" data-source-line="28" data-uid="lnk25" id="link_n5_n8"><path d="M237.5807,45.2247 C244.458,61.0666 254.0706,84.2245 261,105 C272.3028,138.8875 280.9095,173.5177 286.3269,196.8877" fill="none" id="n5-to-n8" style="stroke:#181818;stroke-width:1;"/><polygon fill="#181818" points="287.6818,202.7327,289.5461,193.0619,286.5527,197.8619,281.7527,194.8685,287.6818,202.7327" style="stroke:#181818;stroke-width:1;"/></g><!--link n6 to n8--><g class="link" data-entity-1="n6" data-entity-2="n8" data-source-line="29" data-uid="lnk26" id="link_n6_n8"><path d="M427.8419,45.3344 C455.9164,68.7703 494.0055,109.3104 472,143 C440.6464,191.0012 378.8372,209.0016 335.9836,216.4073" fill="none" id="n6-to-n8" style="stroke:#181818;stroke-width:1;"/><polygon fill="#181818" points="330.0712,217.429,339.6209,219.838,334.9982,216.5776,338.2586,211.9548,330.0712,217.429" style="stroke:#181818;stroke-width:1;"/></g><!--link n3 to n8--><g class="link" data-entity-1="n3" data-entity-2="n8" data-source-line="30" data-uid="lnk27" id="link_n3_n8"><path d="M208.5471,143.3616 C226.7797,160.5424 248.9092,181.3952 267.1289,198.5638" fill="none" id="n3-to-n8" style="stroke:#181818;stroke-width:1;"/><polygon fill="#181818" points="271.4956,202.6786,267.6887,193.5952,267.8567,199.2496,262.2023,199.4175,271.4956,202.6786" style="stroke:#181818;stroke-width:1;"/></g><!--SRC=[RP1DRy8m38Rl_HKHkrM2qVBHL48SndMdQVSfQqmRqJgLOyRuzuErjSAqsoC_jbydky3N5lR9xdc4S7BO6pAT-ZJLgIP_HdlmhIV5P33S520d11KRh5jGizuJ0trK7WClcfaoGU7sdmQ-zZ3vLUmht_K48KooV1ncEdXa-9RbUUpJzDxn1jNNUqDWxA99qw4jKq-lhcxufJr3F47m-v3EoS8YrXU7rbycfHzkuJ5Y35Z6Ch2rS9pS-ezoA6cR1DTgFj_VVm4tGbkXqPPYRxGQA4-m4D92fL2s5Cm7ocHD8I65rBJKj8Je7m00]--></g></svg>