<svg xmlns="http://www.w3.org/2000/svg" xmlns:xlink="http://www.w3.org/1999/xlink" contentStyleType="text/css" data-diagram-type="DESCRIPTION" height="246px" preserveAspectRatio="none" style="width:339px;height:246px;" version="1.1" viewBox="0 0 339 246" width="339px" zoomAndPan="magnify"><defs/><g><!--entity n3--><g class="entity" data-entity="n3" data-source-line="5" data-uid="ent0002" id="entity_n3"><rect fill="#F1F1F1" height="37.7799" rx="2.5" ry="2.5" style="stroke:#181818;stroke-width:0.5;" width="117.9996" x="7" y="7"/><text fill="#000000" font-family="'Segoe UI', 'メイリオ', 'UDEV Gothic HSRFJPDOC', 'Hiragino Kaku Gothic ProN', 'ヒラギノ角ゴ ProN', 'Noto Sans JP', 'Helvetica Neue', Helvetica, Arial, sans-serif" font-size="14" lengthAdjust="spacing" textLength="97.9996" x="17" y="30.9999">porter_const.h</text></g><!--entity n1--><g class="entity" data-entity="n1" data-source-line="6" data-uid="ent0003" id="entity_n1"><rect fill="#ADD8E6" height="37.7799" rx="2.5" ry="2.5" style="stroke:#181818;stroke-width:0.5;" width="109.2496" x="116.5" y="203"/><text fill="#000000" font-family="'Segoe UI', 'メイリオ', 'UDEV Gothic HSRFJPDOC', 'Hiragino Kaku Gothic ProN', 'ヒラギノ角ゴ ProN', 'Noto Sans JP', 'Helvetica Neue', Helvetica, Arial, sans-serif" font-size="14" font-weight="bold" lengthAdjust="spacing" textLength="89.2496" x="126.5" y="226.9999">retransmit.c</text></g><!--entity n4--><g class="entity" data-entity="n4" data-source-line="7" data-uid="ent0004" id="entity_n4"><rect fill="#F1F1F1" height="37.7799" rx="2.5" ry="2.5" style="stroke:#181818;stroke-width:0.5;" width="103.9996" x="119" y="105"/><text fill="#000000" font-family="'Segoe UI', 'メイリオ', 'UDEV Gothic HSRFJPDOC', 'Hiragino Kaku Gothic ProN', 'ヒラギノ角ゴ ProN', 'Noto Sans JP', 'Helvetica Neue', Helvetica, Arial, sans-serif" font-size="14" lengthAdjust="spacing" textLength="83.9996" x="129" y="128.9999">retransmit.h</text></g><!--entity n5--><g class="entity" data-entity="n5" data-source-line="8" data-uid="ent0005" id="entity_n5"><rect fill="#F1F1F1" height="37.7799" rx="2.5" ry="2.5" style="stroke:#181818;stroke-width:0.5;" width="75.9998" x="160" y="7"/><text fill="#000000" font-family="'Segoe UI', 'メイリオ', 'UDEV Gothic HSRFJPDOC', 'Hiragino Kaku Gothic ProN', 'ヒラギノ角ゴ ProN', 'Noto Sans JP', 'Helvetica Neue', Helvetica, Arial, sans-serif" font-size="14" lengthAdjust="spacing" textLength="55.9998" x="170" y="30.9999">stdint.h</text></g><!--entity n2--><g class="entity" data-entity="n2" data-source-line="9" data-uid="ent0006" id="entity_n2"><rect fill="#F1F1F1" height="37.7799" rx="2.5" ry="2.5" style="stroke:#181818;stroke-width:0.5;" width="75.9998" x="258" y="105"/><text fill="#000000" font-family="'Segoe UI', 'メイリオ', 'UDEV Gothic HSRFJPDOC', 'Hiragino Kaku Gothic ProN', 'ヒラギノ角ゴ ProN', 'Noto Sans JP', 'Helvetica Neue', Helvetica, Arial, sans-serif" font-size="14" lengthAdjust="spacing" textLength="55.9998" x="268" y="128.9999">string.h</text></g><!--link n2 to n1--><g class="link" data-entity-1="n2" data-entity-2="n1" data-source-line="10" data-uid="lnk7" id="link_n2_n1"><path d="M271.602,143.128 C249.5767,160.3959 222.0645,181.9654 200.0583,199.2183" fill="none" id="n2-to-n1" style="stroke:#181818;stroke-width:1;"/><polygon fill="#181818" points="195.3365,202.9202,204.8872,200.5152,199.2714,199.8353,199.9513,194.2194,195.3365,202.9202" style="stroke:#181818;stroke-width:1;"/></g><!--link n3 to n1--><g class="link" data-entity-1="n3" data-entity-2="n1" data-source-line="11" data-uid="lnk8" id="link_n3_n1"><path d="M69.1037,45.2319 C73.5621,69.2733 83.2653,111.1356 101,143 C113.7437,165.897 129.7736,183.6986 145.2545,198.63" fill="none" id="n3-to-n1" style="stroke:#181818;stroke-width:1;"/><polygon fill="#181818" points="149.5731,202.7953,145.8721,193.6683,145.9743,199.3242,140.3183,199.4264,149.5731,202.7953" style="stroke:#181818;stroke-width:1;"/></g><!--link n4 to n1--><g class="link" data-entity-1="n4" data-entity-2="n1" data-source-line="12" data-uid="lnk9" id="link_n4_n1"><path d="M171,143.3616 C171,160.5424 171,179.51 171,196.6786" fill="none" id="n4-to-n1" style="stroke:#181818;stroke-width:1;"/><polygon fill="#181818" points="171,202.6786,175,193.6786,171,197.6786,167,193.6786,171,202.6786" style="stroke:#181818;stroke-width:1;"/></g><!--link n5 to n4--><g class="link" data-entity-1="n5" data-entity-2="n4" data-source-line="13" data-uid="lnk10" id="link_n5_n4"><path d="M192.6657,45.3616 C187.9322,62.5424 182.6471,81.7255 177.9169,98.8941" fill="none" id="n5-to-n4" style="stroke:#181818;stroke-width:1;"/><polygon fill="#181818" points="176.3232,104.6786,182.5701,97.0644,177.6513,99.8582,174.8574,94.9394,176.3232,104.6786" style="stroke:#181818;stroke-width:1;"/></g><!--link n3 to n4--><g class="link" data-entity-1="n3" data-entity-2="n4" data-source-line="14" data-uid="lnk11" id="link_n3_n4"><path d="M86.4943,45.128 C104.9956,62.3959 127.6858,83.5734 146.1711,100.8263" fill="none" id="n3-to-n4" style="stroke:#181818;stroke-width:1;"/><polygon fill="#181818" points="150.5574,104.9202,146.7072,95.8551,146.9021,101.5086,141.2486,101.7036,150.5574,104.9202" style="stroke:#181818;stroke-width:1;"/></g><!--SRC=[LOr13eCW44Ntd8BO7OasLTmP5tRREpGK2H9nCCEuwErhgYLqzvBt_amNwUrDpxhh2N5si2fK2tyfFLiC6uptu0DoGWLnLmQ8eT6am7h3YpKW6Npg096ggU0gScZoG0Wqt-tYgD927CcDNnxEJZJupUHrrfx7PAuZZGwIQlyLEh0_LJEeULds-oS6JIAPg3r89Yi_]--></g></svg>