<svg xmlns="http://www.w3.org/2000/svg" xmlns:xlink="http://www.w3.org/1999/xlink" contentStyleType="text/css" data-diagram-type="DESCRIPTION" height="442px" preserveAspectRatio="none" style="width:868px;height:442px;" version="1.1" viewBox="0 0 868 442" width="868px" zoomAndPan="magnify"><defs/><g><!--entity n3--><g class="entity" data-entity="n3" data-source-line="5" data-uid="ent0002" id="entity_n3"><rect fill="#F1F1F1" height="37.7799" rx="2.5" ry="2.5" style="stroke:#181818;stroke-width:0.5;" width="75.9998" x="271" y="203"/><text fill="#000000" font-family="'Segoe UI', 'メイリオ', 'UDEV Gothic HSRFJPDOC', 'Hiragino Kaku Gothic ProN', 'ヒラギノ角ゴ ProN', 'Noto Sans JP', 'Helvetica Neue', Helvetica, Arial, sans-serif" font-size="14" lengthAdjust="spacing" textLength="55.9998" x="281" y="226.9999">porter.h</text></g><!--entity n1--><g class="entity" data-entity="n1" data-source-line="6" data-uid="ent0003" id="entity_n1"><rect fill="#ADD8E6" height="37.7799" rx="2.5" ry="2.5" style="stroke:#181818;stroke-width:0.5;" width="124.1246" x="362" y="7"/><text fill="#000000" font-family="'Segoe UI', 'メイリオ', 'UDEV Gothic HSRFJPDOC', 'Hiragino Kaku Gothic ProN', 'ヒラギノ角ゴ ProN', 'Noto Sans JP', 'Helvetica Neue', Helvetica, Arial, sans-serif" font-size="14" font-weight="bold" lengthAdjust="spacing" textLength="104.1246" x="372" y="30.9999">porter_const.h</text></g><!--entity n2--><g class="entity" data-entity="n2" data-source-line="7" data-uid="ent0004" id="entity_n2"><rect fill="#F1F1F1" height="37.7799" rx="2.5" ry="2.5" style="stroke:#181818;stroke-width:0.5;" width="110.9996" x="368.5" y="105"/><text fill="#000000" font-family="'Segoe UI', 'メイリオ', 'UDEV Gothic HSRFJPDOC', 'Hiragino Kaku Gothic ProN', 'ヒラギノ角ゴ ProN', 'Noto Sans JP', 'Helvetica Neue', Helvetica, Arial, sans-serif" font-size="14" lengthAdjust="spacing" textLength="90.9996" x="378.5" y="128.9999">porter_type.h</text></g><!--entity n26--><g class="entity" data-entity="n26" data-source-line="8" data-uid="ent0005" id="entity_n26"><rect fill="#F1F1F1" height="37.7799" rx="2.5" ry="2.5" style="stroke:#181818;stroke-width:0.5;" width="89.9997" x="7" y="105"/><text fill="#000000" font-family="'Segoe UI', 'メイリオ', 'UDEV Gothic HSRFJPDOC', 'Hiragino Kaku Gothic ProN', 'ヒラギノ角ゴ ProN', 'Noto Sans JP', 'Helvetica Neue', Helvetica, Arial, sans-serif" font-size="14" lengthAdjust="spacing" textLength="69.9997" x="17" y="128.9999">compress.h</text></g><!--entity n28--><g class="entity" data-entity="n28" data-source-line="9" data-uid="ent0006" id="entity_n28"><rect fill="#F1F1F1" height="37.7799" rx="2.5" ry="2.5" style="stroke:#181818;stroke-width:0.5;" width="75.9998" x="758" y="105"/><text fill="#000000" font-family="'Segoe UI', 'メイリオ', 'UDEV Gothic HSRFJPDOC', 'Hiragino Kaku Gothic ProN', 'ヒラギノ角ゴ ProN', 'Noto Sans JP', 'Helvetica Neue', Helvetica, Arial, sans-serif" font-size="14" lengthAdjust="spacing" textLength="55.9998" x="768" y="128.9999">crypto.h</text></g><!--entity n11--><g class="entity" data-entity="n11" data-source-line="10" data-uid="ent0007" id="entity_n11"><rect fill="#F1F1F1" height="37.7799" rx="2.5" ry="2.5" style="stroke:#181818;stroke-width:0.5;" width="82.9997" x="382.5" y="203"/><text fill="#000000" font-family="'Segoe UI', 'メイリオ', 'UDEV Gothic HSRFJPDOC', 'Hiragino Kaku Gothic ProN', 'ヒラギノ角ゴ ProN', 'Noto Sans JP', 'Helvetica Neue', Helvetica, Arial, sans-serif" font-size="14" lengthAdjust="spacing" textLength="62.9997" x="392.5" y="226.9999">potrLog.h</text></g><!--entity n15--><g class="entity" data-entity="n15" data-source-line="11" data-uid="ent0008" id="entity_n15"><rect fill="#F1F1F1" height="37.7799" rx="2.5" ry="2.5" style="stroke:#181818;stroke-width:0.5;" width="124.9995" x="683.5" y="203"/><text fill="#000000" font-family="'Segoe UI', 'メイリオ', 'UDEV Gothic HSRFJPDOC', 'Hiragino Kaku Gothic ProN', 'ヒラギノ角ゴ ProN', 'Noto Sans JP', 'Helvetica Neue', Helvetica, Arial, sans-serif" font-size="14" lengthAdjust="spacing" textLength="104.9995" x="693.5" y="226.9999">potrSendQueue.h</text></g><!--entity n17--><g class="entity" data-entity="n17" data-source-line="12" data-uid="ent0009" id="entity_n17"><rect fill="#F1F1F1" height="37.7799" rx="2.5" ry="2.5" style="stroke:#181818;stroke-width:0.5;" width="110.9996" x="574.5" y="301"/><text fill="#000000" font-family="'Segoe UI', 'メイリオ', 'UDEV Gothic HSRFJPDOC', 'Hiragino Kaku Gothic ProN', 'ヒラギノ角ゴ ProN', 'Noto Sans JP', 'Helvetica Neue', Helvetica, Arial, sans-serif" font-size="14" lengthAdjust="spacing" textLength="90.9996" x="584.5" y="324.9999">potrContext.h</text></g><!--entity n21--><g class="entity" data-entity="n21" data-source-line="13" data-uid="ent0010" id="entity_n21"><rect fill="#F1F1F1" height="37.7799" rx="2.5" ry="2.5" style="stroke:#181818;stroke-width:0.5;" width="75.9998" x="501" y="203"/><text fill="#000000" font-family="'Segoe UI', 'メイリオ', 'UDEV Gothic HSRFJPDOC', 'Hiragino Kaku Gothic ProN', 'ヒラギノ角ゴ ProN', 'Noto Sans JP', 'Helvetica Neue', Helvetica, Arial, sans-serif" font-size="14" lengthAdjust="spacing" textLength="55.9998" x="511" y="226.9999">config.h</text></g><!--entity n23--><g class="entity" data-entity="n23" data-source-line="14" data-uid="ent0011" id="entity_n23"><rect fill="#F1F1F1" height="37.7799" rx="2.5" ry="2.5" style="stroke:#181818;stroke-width:0.5;" width="75.9998" x="160" y="203"/><text fill="#000000" font-family="'Segoe UI', 'メイリオ', 'UDEV Gothic HSRFJPDOC', 'Hiragino Kaku Gothic ProN', 'ヒラギノ角ゴ ProN', 'Noto Sans JP', 'Helvetica Neue', Helvetica, Arial, sans-serif" font-size="14" lengthAdjust="spacing" textLength="55.9998" x="170" y="226.9999">packet.h</text></g><!--entity n24--><g class="entity" data-entity="n24" data-source-line="15" data-uid="ent0012" id="entity_n24"><rect fill="#F1F1F1" height="37.7799" rx="2.5" ry="2.5" style="stroke:#181818;stroke-width:0.5;" width="75.9998" x="49" y="203"/><text fill="#000000" font-family="'Segoe UI', 'メイリオ', 'UDEV Gothic HSRFJPDOC', 'Hiragino Kaku Gothic ProN', 'ヒラギノ角ゴ ProN', 'Noto Sans JP', 'Helvetica Neue', Helvetica, Arial, sans-serif" font-size="14" lengthAdjust="spacing" textLength="55.9998" x="59" y="226.9999">window.h</text></g><!--entity n18--><g class="entity" data-entity="n18" data-source-line="16" data-uid="ent0013" id="entity_n18"><rect fill="#F1F1F1" height="37.7799" rx="2.5" ry="2.5" style="stroke:#181818;stroke-width:0.5;" width="145.9995" x="383" y="399"/><text fill="#000000" font-family="'Segoe UI', 'メイリオ', 'UDEV Gothic HSRFJPDOC', 'Hiragino Kaku Gothic ProN', 'ヒラギノ角ゴ ProN', 'Noto Sans JP', 'Helvetica Neue', Helvetica, Arial, sans-serif" font-size="14" lengthAdjust="spacing" textLength="125.9995" x="393" y="422.9999">potrHealthThread.h</text></g><!--entity n19--><g class="entity" data-entity="n19" data-source-line="17" data-uid="ent0014" id="entity_n19"><rect fill="#F1F1F1" height="37.7799" rx="2.5" ry="2.5" style="stroke:#181818;stroke-width:0.5;" width="131.9995" x="564" y="399"/><text fill="#000000" font-family="'Segoe UI', 'メイリオ', 'UDEV Gothic HSRFJPDOC', 'Hiragino Kaku Gothic ProN', 'ヒラギノ角ゴ ProN', 'Noto Sans JP', 'Helvetica Neue', Helvetica, Arial, sans-serif" font-size="14" lengthAdjust="spacing" textLength="111.9995" x="574" y="422.9999">potrRecvThread.h</text></g><!--entity n20--><g class="entity" data-entity="n20" data-source-line="18" data-uid="ent0015" id="entity_n20"><rect fill="#F1F1F1" height="37.7799" rx="2.5" ry="2.5" style="stroke:#181818;stroke-width:0.5;" width="131.9995" x="731" y="399"/><text fill="#000000" font-family="'Segoe UI', 'メイリオ', 'UDEV Gothic HSRFJPDOC', 'Hiragino Kaku Gothic ProN', 'ヒラギノ角ゴ ProN', 'Noto Sans JP', 'Helvetica Neue', Helvetica, Arial, sans-serif" font-size="14" lengthAdjust="spacing" textLength="111.9995" x="741" y="422.9999">potrSendThread.h</text></g><!--link n1 to n2--><g class="link" data-entity-1="n1" data-entity-2="n2" data-source-line="19" data-uid="lnk16" id="link_n1_n2"><path d="M424,45.3616 C424,62.5424 424,81.51 424,98.6786" fill="none" id="n1-to-n2" style="stroke:#181818;stroke-width:1;"/><polygon fill="#181818" points="424,104.6786,428,95.6786,424,99.6786,420,95.6786,424,104.6786" style="stroke:#181818;stroke-width:1;"/></g><!--link n1 to n26--><g class="link" data-entity-1="n1" data-entity-2="n26" data-source-line="20" data-uid="lnk17" id="link_n1_n26"><path d="M361.7356,42.403 C286.9649,62.1007 169.1733,93.1318 102.9743,110.5713" fill="none" id="n1-to-n26" style="stroke:#181818;stroke-width:1;"/><polygon fill="#181818" points="97.1723,112.0998,106.8944,113.6751,102.0073,110.8261,104.8564,105.939,97.1723,112.0998" style="stroke:#181818;stroke-width:1;"/></g><!--link n1 to n28--><g class="link" data-entity-1="n1" data-entity-2="n28" data-source-line="21" data-uid="lnk18" id="link_n1_n28"><path d="M486.2644,42.403 C563.8274,62.8363 688.1258,95.5815 752.1966,112.4604" fill="none" id="n1-to-n28" style="stroke:#181818;stroke-width:1;"/><polygon fill="#181818" points="757.9986,113.9889,750.3145,107.8281,753.1636,112.7152,748.2765,115.5642,757.9986,113.9889" style="stroke:#181818;stroke-width:1;"/></g><!--link n1 to n15--><g class="link" data-entity-1="n1" data-entity-2="n15" data-source-line="22" data-uid="lnk19" id="link_n1_n15"><path d="M455.461,45.1502 C517.0199,82.6208 647.6248,162.1194 709.2861,199.6524" fill="none" id="n1-to-n15" style="stroke:#181818;stroke-width:1;"/><polygon fill="#181818" points="714.4113,202.7721,708.8033,194.6758,710.1403,200.1724,704.6437,201.5094,714.4113,202.7721" style="stroke:#181818;stroke-width:1;"/></g><!--link n1 to n24--><g class="link" data-entity-1="n1" data-entity-2="n24" data-source-line="23" data-uid="lnk20" id="link_n1_n24"><path d="M391.0734,45.1502 C326.6469,82.6208 189.7806,162.2226 125.2468,199.7556" fill="none" id="n1-to-n24" style="stroke:#181818;stroke-width:1;"/><polygon fill="#181818" points="120.0602,202.7721,129.8511,201.705,124.3823,200.2583,125.829,194.7896,120.0602,202.7721" style="stroke:#181818;stroke-width:1;"/></g><!--link n2 to n3--><g class="link" data-entity-1="n2" data-entity-2="n3" data-source-line="24" data-uid="lnk21" id="link_n2_n3"><path d="M401.5538,143.128 C381.2906,160.3959 356.202,181.7757 335.9562,199.0286" fill="none" id="n2-to-n3" style="stroke:#181818;stroke-width:1;"/><polygon fill="#181818" points="331.3895,202.9202,340.834,200.1272,335.1951,199.6772,335.6452,194.0382,331.3895,202.9202" style="stroke:#181818;stroke-width:1;"/></g><!--link n2 to n11--><g class="link" data-entity-1="n2" data-entity-2="n11" data-source-line="25" data-uid="lnk22" id="link_n2_n11"><path d="M424,143.3616 C424,160.5424 424,179.51 424,196.6786" fill="none" id="n2-to-n11" style="stroke:#181818;stroke-width:1;"/><polygon fill="#181818" points="424,202.6786,428,193.6786,424,197.6786,420,193.6786,424,202.6786" style="stroke:#181818;stroke-width:1;"/></g><!--link n2 to n15--><g class="link" data-entity-1="n2" data-entity-2="n15" data-source-line="26" data-uid="lnk23" id="link_n2_n15"><path d="M479.7205,140.9584 C536.5109,158.2424 618.6821,183.251 677.796,201.2422" fill="none" id="n2-to-n15" style="stroke:#181818;stroke-width:1;"/><polygon fill="#181818" points="683.536,202.9892,676.0906,196.542,678.7526,201.5334,673.7613,204.1954,683.536,202.9892" style="stroke:#181818;stroke-width:1;"/></g><!--link n2 to n17--><g class="link" data-entity-1="n2" data-entity-2="n17" data-source-line="27" data-uid="lnk24" id="link_n2_n17"><path d="M479.8448,136.9 C517.3662,148.3176 565.2204,168.6566 595,203 C619.3072,231.0324 626.2011,269.4374 628.4696,294.7158" fill="none" id="n2-to-n17" style="stroke:#181818;stroke-width:1;"/><polygon fill="#181818" points="629.0059,300.6918,632.1855,291.3703,628.559,295.7118,624.2175,292.0853,629.0059,300.6918" style="stroke:#181818;stroke-width:1;"/></g><!--link n2 to n21--><g class="link" data-entity-1="n2" data-entity-2="n21" data-source-line="28" data-uid="lnk25" id="link_n2_n21"><path d="M446.4462,143.128 C466.7094,160.3959 491.798,181.7757 512.0438,199.0286" fill="none" id="n2-to-n21" style="stroke:#181818;stroke-width:1;"/><polygon fill="#181818" points="516.6105,202.9202,512.3548,194.0382,512.8049,199.6772,507.166,200.1272,516.6105,202.9202" style="stroke:#181818;stroke-width:1;"/></g><!--link n2 to n23--><g class="link" data-entity-1="n2" data-entity-2="n23" data-source-line="29" data-uid="lnk26" id="link_n2_n23"><path d="M380.157,143.0116 C338.3105,161.1574 281.4092,185.8314 241.59,203.0982" fill="none" id="n2-to-n23" style="stroke:#181818;stroke-width:1;"/><polygon fill="#181818" points="236.0853,205.4852,245.9338,205.5745,240.6726,203.496,242.7511,198.2348,236.0853,205.4852" style="stroke:#181818;stroke-width:1;"/></g><!--link n2 to n24--><g class="link" data-entity-1="n2" data-entity-2="n24" data-source-line="30" data-uid="lnk27" id="link_n2_n24"><path d="M368.3317,138.5468 C311.2419,153.7102 220.0101,178.6223 142,203 C136.5038,204.7175 136.4139,204.6951 130.7562,206.6028" fill="none" id="n2-to-n24" style="stroke:#181818;stroke-width:1;"/><polygon fill="#181818" points="125.0707,208.5199,134.877,209.4346,129.8086,206.9223,132.3209,201.854,125.0707,208.5199" style="stroke:#181818;stroke-width:1;"/></g><!--link n26 to n17--><g class="link" data-entity-1="n26" data-entity-2="n17" data-source-line="31" data-uid="lnk28" id="link_n26_n17"><path d="M40.1142,143.1351 C25.9601,168.6301 7.0548,213.6895 31,241 C66.6133,281.6186 426.7885,307.6505 568.4627,316.4144" fill="none" id="n26-to-n17" style="stroke:#181818;stroke-width:1;"/><polygon fill="#181818" points="574.4513,316.7848,565.7154,312.2368,569.4608,316.4761,565.2215,320.2215,574.4513,316.7848" style="stroke:#181818;stroke-width:1;"/></g><!--link n28 to n17--><g class="link" data-entity-1="n28" data-entity-2="n17" data-source-line="32" data-uid="lnk29" id="link_n28_n17"><path d="M809.5462,143.0143 C825.2197,167.576 846.4159,210.7593 826,241 C794.8998,287.0667 737.8777,305.2521 691.6802,313.2593" fill="none" id="n28-to-n17" style="stroke:#181818;stroke-width:1;"/><polygon fill="#181818" points="685.7683,314.284,695.3192,316.6882,690.6948,313.4301,693.953,308.8058,685.7683,314.284" style="stroke:#181818;stroke-width:1;"/></g><!--link n15 to n17--><g class="link" data-entity-1="n15" data-entity-2="n17" data-source-line="33" data-uid="lnk30" id="link_n15_n17"><path d="M723.3587,241.128 C702.9192,258.3959 677.5894,279.7952 657.1675,297.0481" fill="none" id="n15-to-n17" style="stroke:#181818;stroke-width:1;"/><polygon fill="#181818" points="652.5842,300.9202,662.0406,298.1676,656.4036,297.6935,656.8778,292.0565,652.5842,300.9202" style="stroke:#181818;stroke-width:1;"/></g><!--link n17 to n18--><g class="link" data-entity-1="n17" data-entity-2="n18" data-source-line="34" data-uid="lnk31" id="link_n17_n18"><path d="M596.038,339.128 C565.3788,356.3959 525.7369,378.7229 495.1042,395.9758" fill="none" id="n17-to-n18" style="stroke:#181818;stroke-width:1;"/><polygon fill="#181818" points="489.8764,398.9202,499.6811,397.9888,494.2329,396.4665,495.7552,391.0183,489.8764,398.9202" style="stroke:#181818;stroke-width:1;"/></g><!--link n17 to n19--><g class="link" data-entity-1="n17" data-entity-2="n19" data-source-line="35" data-uid="lnk32" id="link_n17_n19"><path d="M630,339.3616 C630,356.5424 630,375.51 630,392.6786" fill="none" id="n17-to-n19" style="stroke:#181818;stroke-width:1;"/><polygon fill="#181818" points="630,398.6786,634,389.6786,630,393.6786,626,389.6786,630,398.6786" style="stroke:#181818;stroke-width:1;"/></g><!--link n17 to n20--><g class="link" data-entity-1="n17" data-entity-2="n20" data-source-line="36" data-uid="lnk33" id="link_n17_n20"><path d="M662.5957,339.128 C692.0215,356.3959 729.9113,378.6306 759.3117,395.8835" fill="none" id="n17-to-n20" style="stroke:#181818;stroke-width:1;"/><polygon fill="#181818" points="764.4865,398.9202,758.7488,390.9153,760.1742,396.3896,754.6998,397.815,764.4865,398.9202" style="stroke:#181818;stroke-width:1;"/></g><!--link n24 to n17--><g class="link" data-entity-1="n24" data-entity-2="n17" data-source-line="37" data-uid="lnk34" id="link_n24_n17"><path d="M125.2104,236.142 C130.796,237.9334 136.5138,239.6192 142,241 C296.3911,279.8567 477.3022,303.2089 568.5195,313.4942" fill="none" id="n24-to-n17" style="stroke:#181818;stroke-width:1;"/><polygon fill="#181818" points="574.4817,314.1665,565.9866,309.1833,569.5132,313.6063,565.0902,317.1329,574.4817,314.1665" style="stroke:#181818;stroke-width:1;"/></g><!--SRC=[RP5BRuCm48Jl_0ehlI4bBGwlI54EpQM7NFguHovi0ONOo5wQykzBIbXZqjidptZMEzuQx6hOUTl76vXJ9HkXnPbzYknKQDNAVAzgfHbg8KqlWKHFGuP25ZMmHQCqWbwL2oOCa-kfvFk3UCoKDBWgVNym1UpXK1KbFjSjt4STiMjWpEDJFLFdHeCn9CQEghi65Mcfcupwe8fH38Av-0uoVssXfS51DBVibKJuGJ8axjFaLqNvtCtlYmIwnvsABfNCrOMqS3xq1KIDvKUfGUGq-MwrDyY-PvxDVnkw7lxazL-nNEwkDHF55bF2lWqw3Jt91rmJzOKIHXOJGcuDt5xxouedvjHo44qukN4wuOtbwoOy7Fs_]--></g></svg>