<svg xmlns="http://www.w3.org/2000/svg" xmlns:xlink="http://www.w3.org/1999/xlink" contentStyleType="text/css" data-diagram-type="DESCRIPTION" height="344px" preserveAspectRatio="none" style="width:965px;height:344px;" version="1.1" viewBox="0 0 965 344" width="965px" zoomAndPan="magnify"><defs/><g><!--entity n9--><g class="entity" data-entity="n9" data-source-line="5" data-uid="ent0002" id="entity_n9"><rect fill="#F1F1F1" height="37.7799" rx="2.5" ry="2.5" style="stroke:#181818;stroke-width:0.5;" width="75.9998" x="40" y="203"/><text fill="#000000" font-family="'Segoe UI', 'メイリオ', 'UDEV Gothic HSRFJPDOC', 'Hiragino Kaku Gothic ProN', 'ヒラギノ角ゴ ProN', 'Noto Sans JP', 'Helvetica Neue', Helvetica, Arial, sans-serif" font-size="14" lengthAdjust="spacing" textLength="55.9998" x="50" y="226.9999">porter.h</text></g><!--entity n8--><g class="entity" data-entity="n8" data-source-line="6" data-uid="ent0003" id="entity_n8"><rect fill="#F1F1F1" height="37.7799" rx="2.5" ry="2.5" style="stroke:#181818;stroke-width:0.5;" width="117.9996" x="229" y="7"/><text fill="#000000" font-family="'Segoe UI', 'メイリオ', 'UDEV Gothic HSRFJPDOC', 'Hiragino Kaku Gothic ProN', 'ヒラギノ角ゴ ProN', 'Noto Sans JP', 'Helvetica Neue', Helvetica, Arial, sans-serif" font-size="14" lengthAdjust="spacing" textLength="97.9996" x="239" y="30.9999">porter_const.h</text></g><!--entity n10--><g class="entity" data-entity="n10" data-source-line="7" data-uid="ent0004" id="entity_n10"><rect fill="#F1F1F1" height="37.7799" rx="2.5" ry="2.5" style="stroke:#181818;stroke-width:0.5;" width="110.9996" x="100.5" y="105"/><text fill="#000000" font-family="'Segoe UI', 'メイリオ', 'UDEV Gothic HSRFJPDOC', 'Hiragino Kaku Gothic ProN', 'ヒラギノ角ゴ ProN', 'Noto Sans JP', 'Helvetica Neue', Helvetica, Arial, sans-serif" font-size="14" lengthAdjust="spacing" textLength="90.9996" x="110.5" y="128.9999">porter_type.h</text></g><!--entity n1--><g class="entity" data-entity="n1" data-source-line="8" data-uid="ent0005" id="entity_n1"><rect fill="#ADD8E6" height="37.7799" rx="2.5" ry="2.5" style="stroke:#181818;stroke-width:0.5;" width="86.9372" x="454.5" y="301"/><text fill="#000000" font-family="'Segoe UI', 'メイリオ', 'UDEV Gothic HSRFJPDOC', 'Hiragino Kaku Gothic ProN', 'ヒラギノ角ゴ ProN', 'Noto Sans JP', 'Helvetica Neue', Helvetica, Arial, sans-serif" font-size="14" font-weight="bold" lengthAdjust="spacing" textLength="66.9372" x="464.5" y="324.9999">potrLog.c</text></g><!--entity n13--><g class="entity" data-entity="n13" data-source-line="9" data-uid="ent0006" id="entity_n13"><rect fill="#F1F1F1" height="37.7799" rx="2.5" ry="2.5" style="stroke:#181818;stroke-width:0.5;" width="82.9997" x="151.5" y="203"/><text fill="#000000" font-family="'Segoe UI', 'メイリオ', 'UDEV Gothic HSRFJPDOC', 'Hiragino Kaku Gothic ProN', 'ヒラギノ角ゴ ProN', 'Noto Sans JP', 'Helvetica Neue', Helvetica, Arial, sans-serif" font-size="14" lengthAdjust="spacing" textLength="62.9997" x="161.5" y="226.9999">potrLog.h</text></g><!--entity n6--><g class="entity" data-entity="n6" data-source-line="10" data-uid="ent0007" id="entity_n6"><rect fill="#F1F1F1" height="37.7799" rx="2.5" ry="2.5" style="stroke:#181818;stroke-width:0.5;" width="82.9997" x="341.5" y="203"/><text fill="#000000" font-family="'Segoe UI', 'メイリオ', 'UDEV Gothic HSRFJPDOC', 'Hiragino Kaku Gothic ProN', 'ヒラギノ角ゴ ProN', 'Noto Sans JP', 'Helvetica Neue', Helvetica, Arial, sans-serif" font-size="14" lengthAdjust="spacing" textLength="62.9997" x="351.5" y="226.9999">pthread.h</text></g><!--entity n3--><g class="entity" data-entity="n3" data-source-line="11" data-uid="ent0008" id="entity_n3"><rect fill="#F1F1F1" height="37.7799" rx="2.5" ry="2.5" style="stroke:#181818;stroke-width:0.5;" width="75.9998" x="460" y="203"/><text fill="#000000" font-family="'Segoe UI', 'メイリオ', 'UDEV Gothic HSRFJPDOC', 'Hiragino Kaku Gothic ProN', 'ヒラギノ角ゴ ProN', 'Noto Sans JP', 'Helvetica Neue', Helvetica, Arial, sans-serif" font-size="14" lengthAdjust="spacing" textLength="55.9998" x="470" y="226.9999">stdarg.h</text></g><!--entity n11--><g class="entity" data-entity="n11" data-source-line="12" data-uid="ent0009" id="entity_n11"><rect fill="#F1F1F1" height="37.7799" rx="2.5" ry="2.5" style="stroke:#181818;stroke-width:0.5;" width="75.9998" x="7" y="7"/><text fill="#000000" font-family="'Segoe UI', 'メイリオ', 'UDEV Gothic HSRFJPDOC', 'Hiragino Kaku Gothic ProN', 'ヒラギノ角ゴ ProN', 'Noto Sans JP', 'Helvetica Neue', Helvetica, Arial, sans-serif" font-size="14" lengthAdjust="spacing" textLength="55.9998" x="17" y="30.9999">stddef.h</text></g><!--entity n12--><g class="entity" data-entity="n12" data-source-line="13" data-uid="ent0010" id="entity_n12"><rect fill="#F1F1F1" height="37.7799" rx="2.5" ry="2.5" style="stroke:#181818;stroke-width:0.5;" width="75.9998" x="118" y="7"/><text fill="#000000" font-family="'Segoe UI', 'メイリオ', 'UDEV Gothic HSRFJPDOC', 'Hiragino Kaku Gothic ProN', 'ヒラギノ角ゴ ProN', 'Noto Sans JP', 'Helvetica Neue', Helvetica, Arial, sans-serif" font-size="14" lengthAdjust="spacing" textLength="55.9998" x="128" y="30.9999">stdint.h</text></g><!--entity n2--><g class="entity" data-entity="n2" data-source-line="14" data-uid="ent0011" id="entity_n2"><rect fill="#F1F1F1" height="37.7799" rx="2.5" ry="2.5" style="stroke:#181818;stroke-width:0.5;" width="68.9998" x="571.5" y="203"/><text fill="#000000" font-family="'Segoe UI', 'メイリオ', 'UDEV Gothic HSRFJPDOC', 'Hiragino Kaku Gothic ProN', 'ヒラギノ角ゴ ProN', 'Noto Sans JP', 'Helvetica Neue', Helvetica, Arial, sans-serif" font-size="14" lengthAdjust="spacing" textLength="48.9998" x="581.5" y="226.9999">stdio.h</text></g><!--entity n4--><g class="entity" data-entity="n4" data-source-line="15" data-uid="ent0012" id="entity_n4"><rect fill="#F1F1F1" height="37.7799" rx="2.5" ry="2.5" style="stroke:#181818;stroke-width:0.5;" width="75.9998" x="676" y="203"/><text fill="#000000" font-family="'Segoe UI', 'メイリオ', 'UDEV Gothic HSRFJPDOC', 'Hiragino Kaku Gothic ProN', 'ヒラギノ角ゴ ProN', 'Noto Sans JP', 'Helvetica Neue', Helvetica, Arial, sans-serif" font-size="14" lengthAdjust="spacing" textLength="55.9998" x="686" y="226.9999">string.h</text></g><!--entity n5--><g class="entity" data-entity="n5" data-source-line="16" data-uid="ent0013" id="entity_n5"><rect fill="#F1F1F1" height="37.7799" rx="2.5" ry="2.5" style="stroke:#181818;stroke-width:0.5;" width="75.9998" x="787" y="203"/><text fill="#000000" font-family="'Segoe UI', 'メイリオ', 'UDEV Gothic HSRFJPDOC', 'Hiragino Kaku Gothic ProN', 'ヒラギノ角ゴ ProN', 'Noto Sans JP', 'Helvetica Neue', Helvetica, Arial, sans-serif" font-size="14" lengthAdjust="spacing" textLength="55.9998" x="797" y="226.9999">syslog.h</text></g><!--entity n7--><g class="entity" data-entity="n7" data-source-line="17" data-uid="ent0014" id="entity_n7"><rect fill="#F1F1F1" height="37.7799" rx="2.5" ry="2.5" style="stroke:#181818;stroke-width:0.5;" width="61.9998" x="898" y="203"/><text fill="#000000" font-family="'Segoe UI', 'メイリオ', 'UDEV Gothic HSRFJPDOC', 'Hiragino Kaku Gothic ProN', 'ヒラギノ角ゴ ProN', 'Noto Sans JP', 'Helvetica Neue', Helvetica, Arial, sans-serif" font-size="14" lengthAdjust="spacing" textLength="41.9998" x="908" y="226.9999">time.h</text></g><!--link n10 to n9--><g class="link" data-entity-1="n10" data-entity-2="n9" data-source-line="18" data-uid="lnk15" id="link_n10_n9"><path d="M140.5897,143.3616 C126.9152,160.5424 110.7796,180.8155 97.1148,197.9841" fill="none" id="n10-to-n9" style="stroke:#181818;stroke-width:1;"/><polygon fill="#181818" points="93.3783,202.6786,102.1127,198.1278,96.492,198.7665,95.8533,193.1458,93.3783,202.6786" style="stroke:#181818;stroke-width:1;"/></g><!--link n11 to n10--><g class="link" data-entity-1="n11" data-entity-2="n10" data-source-line="19" data-uid="lnk16" id="link_n11_n10"><path d="M66.6654,45.128 C86.2239,62.3959 110.3499,83.6962 129.8914,100.9491" fill="none" id="n11-to-n10" style="stroke:#181818;stroke-width:1;"/><polygon fill="#181818" points="134.3892,104.9202,130.2898,95.965,130.641,101.611,124.9951,101.9621,134.3892,104.9202" style="stroke:#181818;stroke-width:1;"/></g><!--link n12 to n10--><g class="link" data-entity-1="n12" data-entity-2="n10" data-source-line="20" data-uid="lnk17" id="link_n12_n10"><path d="M156,45.3616 C156,62.5424 156,81.51 156,98.6786" fill="none" id="n12-to-n10" style="stroke:#181818;stroke-width:1;"/><polygon fill="#181818" points="156,104.6786,160,95.6786,156,99.6786,152,95.6786,156,104.6786" style="stroke:#181818;stroke-width:1;"/></g><!--link n8 to n10--><g class="link" data-entity-1="n8" data-entity-2="n10" data-source-line="21" data-uid="lnk18" id="link_n8_n10"><path d="M262.2357,45.128 C238.977,62.3959 209.7554,84.0907 186.5168,101.3436" fill="none" id="n8-to-n10" style="stroke:#181818;stroke-width:1;"/><polygon fill="#181818" points="181.6993,104.9202,191.3099,102.7669,185.7139,101.9397,186.5411,96.3437,181.6993,104.9202" style="stroke:#181818;stroke-width:1;"/></g><!--link n2 to n1--><g class="link" data-entity-1="n2" data-entity-2="n1" data-source-line="22" data-uid="lnk19" id="link_n2_n1"><path d="M584.9201,241.128 C565.8903,258.3959 542.4835,279.6354 523.4701,296.8883" fill="none" id="n2-to-n1" style="stroke:#181818;stroke-width:1;"/><polygon fill="#181818" points="519.0267,300.9202,528.3797,297.8345,522.7295,297.5603,523.0038,291.91,519.0267,300.9202" style="stroke:#181818;stroke-width:1;"/></g><!--link n3 to n1--><g class="link" data-entity-1="n3" data-entity-2="n1" data-source-line="23" data-uid="lnk20" id="link_n3_n1"><path d="M498,241.3616 C498,258.5424 498,277.51 498,294.6786" fill="none" id="n3-to-n1" style="stroke:#181818;stroke-width:1;"/><polygon fill="#181818" points="498,300.6786,502,291.6786,498,295.6786,494,291.6786,498,300.6786" style="stroke:#181818;stroke-width:1;"/></g><!--link n4 to n1--><g class="link" data-entity-1="n4" data-entity-2="n1" data-source-line="24" data-uid="lnk21" id="link_n4_n1"><path d="M675.8807,239.2948 C637.8516,256.5488 585.0281,280.515 545.6337,298.3884" fill="none" id="n4-to-n1" style="stroke:#181818;stroke-width:1;"/><polygon fill="#181818" points="540.1698,300.8674,550.0184,300.7915,544.7231,298.8016,546.713,293.5063,540.1698,300.8674" style="stroke:#181818;stroke-width:1;"/></g><!--link n5 to n1--><g class="link" data-entity-1="n5" data-entity-2="n1" data-source-line="25" data-uid="lnk22" id="link_n5_n1"><path d="M786.9143,235.4327 C781.2587,237.3472 775.488,239.2563 770,241 C689.8609,266.4625 601.2035,291.5559 547.3244,306.4757" fill="none" id="n5-to-n1" style="stroke:#181818;stroke-width:1;"/><polygon fill="#181818" points="541.542,308.0769,551.2831,309.53,546.3607,306.7426,549.1481,301.8201,541.542,308.0769" style="stroke:#181818;stroke-width:1;"/></g><!--link n6 to n1--><g class="link" data-entity-1="n6" data-entity-2="n1" data-source-line="26" data-uid="lnk23" id="link_n6_n1"><path d="M405.4462,241.128 C425.7094,258.3959 450.798,279.7757 471.0438,297.0286" fill="none" id="n6-to-n1" style="stroke:#181818;stroke-width:1;"/><polygon fill="#181818" points="475.6105,300.9202,471.3548,292.0382,471.8049,297.6772,466.166,298.1272,475.6105,300.9202" style="stroke:#181818;stroke-width:1;"/></g><!--link n7 to n1--><g class="link" data-entity-1="n7" data-entity-2="n1" data-source-line="27" data-uid="lnk24" id="link_n7_n1"><path d="M897.7748,235.2619 C892.2443,237.3509 886.4962,239.3589 881,241 C760.3234,277.0326 619.3643,301.4005 547.6136,312.5988" fill="none" id="n7-to-n1" style="stroke:#181818;stroke-width:1;"/><polygon fill="#181818" points="541.6854,313.524,551.1946,316.0883,546.6256,312.753,549.9609,308.184,541.6854,313.524" style="stroke:#181818;stroke-width:1;"/></g><!--link n8 to n1--><g class="link" data-entity-1="n8" data-entity-2="n1" data-source-line="28" data-uid="lnk25" id="link_n8_n1"><path d="M285.6452,45.2659 C281.7568,85.9483 278.4529,181.7344 324,241 C355.7394,282.299 408.1544,301.2695 448.4627,310.8374" fill="none" id="n8-to-n1" style="stroke:#181818;stroke-width:1;"/><polygon fill="#181818" points="454.3005,312.2231,446.4676,306.2527,449.4357,311.0683,444.62,314.0364,454.3005,312.2231" style="stroke:#181818;stroke-width:1;"/></g><!--link n9 to n1--><g class="link" data-entity-1="n9" data-entity-2="n1" data-source-line="29" data-uid="lnk26" id="link_n9_n1"><path d="M116.0777,235.5631 C122.0417,237.5005 128.1628,239.382 134,241 C248.3495,272.6974 379.8902,298.4556 448.5664,311.1193" fill="none" id="n9-to-n1" style="stroke:#181818;stroke-width:1;"/><polygon fill="#181818" points="454.4669,312.2073,446.3415,306.6416,449.5498,311.3006,444.8908,314.5089,454.4669,312.2073" style="stroke:#181818;stroke-width:1;"/></g><!--link n13 to n1--><g class="link" data-entity-1="n13" data-entity-2="n1" data-source-line="30" data-uid="lnk27" id="link_n13_n1"><path d="M234.7694,235.421 C292.3607,253.9257 389.9521,285.283 448.5594,304.1142" fill="none" id="n13-to-n1" style="stroke:#181818;stroke-width:1;"/><polygon fill="#181818" points="454.2718,305.9496,446.9269,299.3882,449.5115,304.4201,444.4796,307.0047,454.2718,305.9496" style="stroke:#181818;stroke-width:1;"/></g><!--link n10 to n13--><g class="link" data-entity-1="n10" data-entity-2="n13" data-source-line="31" data-uid="lnk28" id="link_n10_n13"><path d="M163.31,143.3616 C169.7966,160.5424 177.1039,179.8967 183.5859,197.0653" fill="none" id="n10-to-n13" style="stroke:#181818;stroke-width:1;"/><polygon fill="#181818" points="185.7052,202.6786,186.2684,192.8459,183.9391,198.0009,178.7841,195.6716,185.7052,202.6786" style="stroke:#181818;stroke-width:1;"/></g><!--SRC=[RP3BRi8m44Nt-GgBxY81TSCZI8W5tV8FbPjC4mipZiR38d-FA_3aqUwEVAx7rtCCt3iuPSVr2yBLOcV8tDItgQuD-JlMdzvvKam6GrI0d15KRB1ne1QT9mPQjGjbWiB3N_LLUGoS0kK_0UuxI5w_ZmDvtdccYszMLPw_0khjOfkMp-uEqrdFO9fJJ2It1APESZTsWMj3Sg-OgHf-PAIUEOloBVqnTpwfcI6ByjXcelhWXlxRiM9xamNjixWZjLoUVfSTEpqnhYrs6BWSC9rcM0XjXBP2Ew6zK2bq4DB3c5H45my0]--></g></svg>