<svg xmlns="http://www.w3.org/2000/svg" xmlns:xlink="http://www.w3.org/1999/xlink" contentStyleType="text/css" data-diagram-type="DESCRIPTION" height="540px" preserveAspectRatio="none" style="width:1256px;height:540px;" version="1.1" viewBox="0 0 1256 540" width="1256px" zoomAndPan="magnify"><defs/><g><!--entity n8--><g class="entity" data-entity="n8" data-source-line="5" data-uid="ent0002" id="entity_n8"><rect fill="#F1F1F1" height="37.7799" rx="2.5" ry="2.5" style="stroke:#181818;stroke-width:0.5;" width="75.9998" x="636.2974" y="301"/><text fill="#000000" font-family="'Segoe UI', 'メイリオ', 'UDEV Gothic HSRFJPDOC', 'Hiragino Kaku Gothic ProN', 'ヒラギノ角ゴ ProN', 'Noto Sans JP', 'Helvetica Neue', Helvetica, Arial, sans-serif" font-size="14" lengthAdjust="spacing" textLength="55.9998" x="646.2974" y="324.9999">porter.h</text></g><!--entity n7--><g class="entity" data-entity="n7" data-source-line="6" data-uid="ent0003" id="entity_n7"><rect fill="#F1F1F1" height="37.7799" rx="2.5" ry="2.5" style="stroke:#181818;stroke-width:0.5;" width="117.9996" x="289.2974" y="7"/><text fill="#000000" font-family="'Segoe UI', 'メイリオ', 'UDEV Gothic HSRFJPDOC', 'Hiragino Kaku Gothic ProN', 'ヒラギノ角ゴ ProN', 'Noto Sans JP', 'Helvetica Neue', Helvetica, Arial, sans-serif" font-size="14" lengthAdjust="spacing" textLength="97.9996" x="299.2974" y="30.9999">porter_const.h</text></g><!--entity n9--><g class="entity" data-entity="n9" data-source-line="7" data-uid="ent0004" id="entity_n9"><rect fill="#F1F1F1" height="37.7799" rx="2.5" ry="2.5" style="stroke:#181818;stroke-width:0.5;" width="110.9996" x="630.7974" y="105"/><text fill="#000000" font-family="'Segoe UI', 'メイリオ', 'UDEV Gothic HSRFJPDOC', 'Hiragino Kaku Gothic ProN', 'ヒラギノ角ゴ ProN', 'Noto Sans JP', 'Helvetica Neue', Helvetica, Arial, sans-serif" font-size="14" lengthAdjust="spacing" textLength="90.9996" x="640.7974" y="128.9999">porter_type.h</text></g><!--entity n15--><g class="entity" data-entity="n15" data-source-line="8" data-uid="ent0005" id="entity_n15"><rect fill="#F1F1F1" height="37.7799" rx="2.5" ry="2.5" style="stroke:#181818;stroke-width:0.5;" width="89.9997" x="394.2974" y="105"/><text fill="#000000" font-family="'Segoe UI', 'メイリオ', 'UDEV Gothic HSRFJPDOC', 'Hiragino Kaku Gothic ProN', 'ヒラギノ角ゴ ProN', 'Noto Sans JP', 'Helvetica Neue', Helvetica, Arial, sans-serif" font-size="14" lengthAdjust="spacing" textLength="69.9997" x="404.2974" y="128.9999">compress.h</text></g><!--entity n16--><g class="entity" data-entity="n16" data-source-line="9" data-uid="ent0006" id="entity_n16"><rect fill="#F1F1F1" height="37.7799" rx="2.5" ry="2.5" style="stroke:#181818;stroke-width:0.5;" width="75.9998" x="519.2974" y="105"/><text fill="#000000" font-family="'Segoe UI', 'メイリオ', 'UDEV Gothic HSRFJPDOC', 'Hiragino Kaku Gothic ProN', 'ヒラギノ角ゴ ProN', 'Noto Sans JP', 'Helvetica Neue', Helvetica, Arial, sans-serif" font-size="14" lengthAdjust="spacing" textLength="55.9998" x="529.2974" y="128.9999">crypto.h</text></g><!--entity n20--><g class="entity" data-entity="n20" data-source-line="10" data-uid="ent0007" id="entity_n20"><rect fill="#F1F1F1" height="37.7799" rx="2.5" ry="2.5" style="stroke:#181818;stroke-width:0.5;" width="82.9997" x="747.7974" y="301"/><text fill="#000000" font-family="'Segoe UI', 'メイリオ', 'UDEV Gothic HSRFJPDOC', 'Hiragino Kaku Gothic ProN', 'ヒラギノ角ゴ ProN', 'Noto Sans JP', 'Helvetica Neue', Helvetica, Arial, sans-serif" font-size="14" lengthAdjust="spacing" textLength="62.9997" x="757.7974" y="324.9999">potrLog.h</text></g><!--entity n17--><g class="entity" data-entity="n17" data-source-line="11" data-uid="ent0008" id="entity_n17"><rect fill="#F1F1F1" height="37.7799" rx="2.5" ry="2.5" style="stroke:#181818;stroke-width:0.5;" width="124.9995" x="216.7974" y="203"/><text fill="#000000" font-family="'Segoe UI', 'メイリオ', 'UDEV Gothic HSRFJPDOC', 'Hiragino Kaku Gothic ProN', 'ヒラギノ角ゴ ProN', 'Noto Sans JP', 'Helvetica Neue', Helvetica, Arial, sans-serif" font-size="14" lengthAdjust="spacing" textLength="104.9995" x="226.7974" y="226.9999">potrSendQueue.h</text></g><!--entity n14--><g class="entity" data-entity="n14" data-source-line="12" data-uid="ent0009" id="entity_n14"><rect fill="#F1F1F1" height="37.7799" rx="2.5" ry="2.5" style="stroke:#181818;stroke-width:0.5;" width="110.9996" x="339.7974" y="301"/><text fill="#000000" font-family="'Segoe UI', 'メイリオ', 'UDEV Gothic HSRFJPDOC', 'Hiragino Kaku Gothic ProN', 'ヒラギノ角ゴ ProN', 'Noto Sans JP', 'Helvetica Neue', Helvetica, Arial, sans-serif" font-size="14" lengthAdjust="spacing" textLength="90.9996" x="349.7974" y="324.9999">potrContext.h</text></g><!--entity n12--><g class="entity" data-entity="n12" data-source-line="13" data-uid="ent0010" id="entity_n12"><rect fill="#F1F1F1" height="37.7799" rx="2.5" ry="2.5" style="stroke:#181818;stroke-width:0.5;" width="75.9998" x="845.2974" y="203"/><text fill="#000000" font-family="'Segoe UI', 'メイリオ', 'UDEV Gothic HSRFJPDOC', 'Hiragino Kaku Gothic ProN', 'ヒラギノ角ゴ ProN', 'Noto Sans JP', 'Helvetica Neue', Helvetica, Arial, sans-serif" font-size="14" lengthAdjust="spacing" textLength="55.9998" x="855.2974" y="226.9999">packet.h</text></g><!--entity n13--><g class="entity" data-entity="n13" data-source-line="14" data-uid="ent0011" id="entity_n13"><rect fill="#F1F1F1" height="37.7799" rx="2.5" ry="2.5" style="stroke:#181818;stroke-width:0.5;" width="75.9998" x="590.2974" y="203"/><text fill="#000000" font-family="'Segoe UI', 'メイリオ', 'UDEV Gothic HSRFJPDOC', 'Hiragino Kaku Gothic ProN', 'ヒラギノ角ゴ ProN', 'Noto Sans JP', 'Helvetica Neue', Helvetica, Arial, sans-serif" font-size="14" lengthAdjust="spacing" textLength="55.9998" x="600.2974" y="226.9999">window.h</text></g><!--entity n1--><g class="entity" data-entity="n1" data-source-line="15" data-uid="ent0012" id="entity_n1"><rect fill="#ADD8E6" height="37.7799" rx="2.5" ry="2.5" style="stroke:#181818;stroke-width:0.5;" width="153.8745" x="632.2974" y="497"/><text fill="#000000" font-family="'Segoe UI', 'メイリオ', 'UDEV Gothic HSRFJPDOC', 'Hiragino Kaku Gothic ProN', 'ヒラギノ角ゴ ProN', 'Noto Sans JP', 'Helvetica Neue', Helvetica, Arial, sans-serif" font-size="14" font-weight="bold" lengthAdjust="spacing" textLength="133.8745" x="642.2974" y="520.9999">potrHealthThread.c</text></g><!--entity n19--><g class="entity" data-entity="n19" data-source-line="16" data-uid="ent0013" id="entity_n19"><rect fill="#F1F1F1" height="37.7799" rx="2.5" ry="2.5" style="stroke:#181818;stroke-width:0.5;" width="145.9995" x="384.2974" y="399"/><text fill="#000000" font-family="'Segoe UI', 'メイリオ', 'UDEV Gothic HSRFJPDOC', 'Hiragino Kaku Gothic ProN', 'ヒラギノ角ゴ ProN', 'Noto Sans JP', 'Helvetica Neue', Helvetica, Arial, sans-serif" font-size="14" lengthAdjust="spacing" textLength="125.9995" x="394.2974" y="422.9999">potrHealthThread.h</text></g><!--entity n5--><g class="entity" data-entity="n5" data-source-line="17" data-uid="ent0014" id="entity_n5"><rect fill="#F1F1F1" height="37.7799" rx="2.5" ry="2.5" style="stroke:#181818;stroke-width:0.5;" width="61.9998" x="869.2974" y="399"/><text fill="#000000" font-family="'Segoe UI', 'メイリオ', 'UDEV Gothic HSRFJPDOC', 'Hiragino Kaku Gothic ProN', 'ヒラギノ角ゴ ProN', 'Noto Sans JP', 'Helvetica Neue', Helvetica, Arial, sans-serif" font-size="14" lengthAdjust="spacing" textLength="41.9998" x="879.2974" y="422.9999">inet.h</text></g><!--entity n4--><g class="entity" data-entity="n4" data-source-line="18" data-uid="ent0015" id="entity_n4"><rect fill="#F1F1F1" height="37.7799" rx="2.5" ry="2.5" style="stroke:#181818;stroke-width:0.5;" width="47.9999" x="62.2974" y="203"/><text fill="#000000" font-family="'Segoe UI', 'メイリオ', 'UDEV Gothic HSRFJPDOC', 'Hiragino Kaku Gothic ProN', 'ヒラギノ角ゴ ProN', 'Noto Sans JP', 'Helvetica Neue', Helvetica, Arial, sans-serif" font-size="14" lengthAdjust="spacing" textLength="27.9999" x="72.2974" y="226.9999">in.h</text></g><!--entity n18--><g class="entity" data-entity="n18" data-source-line="19" data-uid="ent0016" id="entity_n18"><rect fill="#F1F1F1" height="37.7799" rx="2.5" ry="2.5" style="stroke:#181818;stroke-width:0.5;" width="82.9997" x="62.7974" y="105"/><text fill="#000000" font-family="'Segoe UI', 'メイリオ', 'UDEV Gothic HSRFJPDOC', 'Hiragino Kaku Gothic ProN', 'ヒラギノ角ゴ ProN', 'Noto Sans JP', 'Helvetica Neue', Helvetica, Arial, sans-serif" font-size="14" lengthAdjust="spacing" textLength="62.9997" x="72.7974" y="128.9999">pthread.h</text></g><!--entity n10--><g class="entity" data-entity="n10" data-source-line="20" data-uid="ent0017" id="entity_n10"><rect fill="#F1F1F1" height="37.7799" rx="2.5" ry="2.5" style="stroke:#181818;stroke-width:0.5;" width="75.9998" x="519.2974" y="7"/><text fill="#000000" font-family="'Segoe UI', 'メイリオ', 'UDEV Gothic HSRFJPDOC', 'Hiragino Kaku Gothic ProN', 'ヒラギノ角ゴ ProN', 'Noto Sans JP', 'Helvetica Neue', Helvetica, Arial, sans-serif" font-size="14" lengthAdjust="spacing" textLength="55.9998" x="529.2974" y="30.9999">stddef.h</text></g><!--entity n11--><g class="entity" data-entity="n11" data-source-line="21" data-uid="ent0018" id="entity_n11"><rect fill="#F1F1F1" height="37.7799" rx="2.5" ry="2.5" style="stroke:#181818;stroke-width:0.5;" width="75.9998" x="648.2974" y="7"/><text fill="#000000" font-family="'Segoe UI', 'メイリオ', 'UDEV Gothic HSRFJPDOC', 'Hiragino Kaku Gothic ProN', 'ヒラギノ角ゴ ProN', 'Noto Sans JP', 'Helvetica Neue', Helvetica, Arial, sans-serif" font-size="14" lengthAdjust="spacing" textLength="55.9998" x="658.2974" y="30.9999">stdint.h</text></g><!--entity n2--><g class="entity" data-entity="n2" data-source-line="22" data-uid="ent0019" id="entity_n2"><rect fill="#F1F1F1" height="37.7799" rx="2.5" ry="2.5" style="stroke:#181818;stroke-width:0.5;" width="75.9998" x="966.2974" y="399"/><text fill="#000000" font-family="'Segoe UI', 'メイリオ', 'UDEV Gothic HSRFJPDOC', 'Hiragino Kaku Gothic ProN', 'ヒラギノ角ゴ ProN', 'Noto Sans JP', 'Helvetica Neue', Helvetica, Arial, sans-serif" font-size="14" lengthAdjust="spacing" textLength="55.9998" x="976.2974" y="422.9999">string.h</text></g><!--entity n3--><g class="entity" data-entity="n3" data-source-line="23" data-uid="ent0020" id="entity_n3"><rect fill="#F1F1F1" height="37.7799" rx="2.5" ry="2.5" style="stroke:#181818;stroke-width:0.5;" width="75.9998" x="1077.2974" y="399"/><text fill="#000000" font-family="'Segoe UI', 'メイリオ', 'UDEV Gothic HSRFJPDOC', 'Hiragino Kaku Gothic ProN', 'ヒラギノ角ゴ ProN', 'Noto Sans JP', 'Helvetica Neue', Helvetica, Arial, sans-serif" font-size="14" lengthAdjust="spacing" textLength="55.9998" x="1087.2974" y="422.9999">socket.h</text></g><!--entity n6--><g class="entity" data-entity="n6" data-source-line="24" data-uid="ent0021" id="entity_n6"><rect fill="#F1F1F1" height="37.7799" rx="2.5" ry="2.5" style="stroke:#181818;stroke-width:0.5;" width="61.9998" x="1188.2974" y="399"/><text fill="#000000" font-family="'Segoe UI', 'メイリオ', 'UDEV Gothic HSRFJPDOC', 'Hiragino Kaku Gothic ProN', 'ヒラギノ角ゴ ProN', 'Noto Sans JP', 'Helvetica Neue', Helvetica, Arial, sans-serif" font-size="14" lengthAdjust="spacing" textLength="41.9998" x="1198.2974" y="422.9999">time.h</text></g><!--link n9 to n8--><g class="link" data-entity-1="n9" data-entity-2="n8" data-source-line="25" data-uid="lnk22" id="link_n9_n8"><path d="M686.3217,143.0738 C686.2328,166.2532 685.6974,206.5409 683.2974,241 C681.8683,261.5182 679.8372,278.9653 677.7341,294.9383" fill="none" id="n9-to-n8" style="stroke:#181818;stroke-width:1;"/><polygon fill="#181818" points="676.9509,300.887,682.0915,292.4862,677.6036,295.9298,674.16,291.4419,676.9509,300.887" style="stroke:#181818;stroke-width:1;"/></g><!--link n10 to n9--><g class="link" data-entity-1="n10" data-entity-2="n9" data-source-line="26" data-uid="lnk23" id="link_n10_n9"><path d="M582.4761,45.128 C605.2062,62.3959 633.694,84.0377 656.4045,101.2906" fill="none" id="n10-to-n9" style="stroke:#181818;stroke-width:1;"/><polygon fill="#181818" points="661.1822,104.9202,656.4354,96.2907,657.2008,101.8956,651.596,102.661,661.1822,104.9202" style="stroke:#181818;stroke-width:1;"/></g><!--link n11 to n9--><g class="link" data-entity-1="n11" data-entity-2="n9" data-source-line="27" data-uid="lnk24" id="link_n11_n9"><path d="M686.2974,45.3616 C686.2974,62.5424 686.2974,81.51 686.2974,98.6786" fill="none" id="n11-to-n9" style="stroke:#181818;stroke-width:1;"/><polygon fill="#181818" points="686.2974,104.6786,690.2974,95.6786,686.2974,99.6786,682.2974,95.6786,686.2974,104.6786" style="stroke:#181818;stroke-width:1;"/></g><!--link n7 to n9--><g class="link" data-entity-1="n7" data-entity-2="n9" data-source-line="28" data-uid="lnk25" id="link_n7_n9"><path d="M407.5593,43.1824 C470.5115,61.4349 563.4915,88.3936 624.9897,106.2244" fill="none" id="n7-to-n9" style="stroke:#181818;stroke-width:1;"/><polygon fill="#181818" points="630.7524,107.8952,623.2223,101.5472,625.9502,106.5028,620.9945,109.2307,630.7524,107.8952" style="stroke:#181818;stroke-width:1;"/></g><!--link n10 to n15--><g class="link" data-entity-1="n10" data-entity-2="n15" data-source-line="29" data-uid="lnk26" id="link_n10_n15"><path d="M534.2657,45.128 C513.4738,62.3959 487.6606,83.8339 466.8867,101.0868" fill="none" id="n10-to-n15" style="stroke:#181818;stroke-width:1;"/><polygon fill="#181818" points="462.271,104.9202,471.7502,102.2472,466.1174,101.7257,466.639,96.0929,462.271,104.9202" style="stroke:#181818;stroke-width:1;"/></g><!--link n11 to n15--><g class="link" data-entity-1="n11" data-entity-2="n15" data-source-line="30" data-uid="lnk27" id="link_n11_n15"><path d="M648.2449,41.0977 C604.1296,58.601 537.0599,85.2116 490.0995,103.8437" fill="none" id="n11-to-n15" style="stroke:#181818;stroke-width:1;"/><polygon fill="#181818" points="484.5224,106.0565,494.3632,106.4554,489.17,104.2125,491.4128,99.0193,484.5224,106.0565" style="stroke:#181818;stroke-width:1;"/></g><!--link n7 to n15--><g class="link" data-entity-1="n7" data-entity-2="n15" data-source-line="31" data-uid="lnk28" id="link_n7_n15"><path d="M366.2761,45.3616 C382.2296,62.5424 401.3311,83.1132 417.2734,100.2818" fill="none" id="n7-to-n15" style="stroke:#181818;stroke-width:1;"/><polygon fill="#181818" points="421.3561,104.6786,418.1632,95.3617,417.9538,101.0146,412.3009,100.8053,421.3561,104.6786" style="stroke:#181818;stroke-width:1;"/></g><!--link n10 to n16--><g class="link" data-entity-1="n10" data-entity-2="n16" data-source-line="32" data-uid="lnk29" id="link_n10_n16"><path d="M557.2974,45.3616 C557.2974,62.5424 557.2974,81.51 557.2974,98.6786" fill="none" id="n10-to-n16" style="stroke:#181818;stroke-width:1;"/><polygon fill="#181818" points="557.2974,104.6786,561.2974,95.6786,557.2974,99.6786,553.2974,95.6786,557.2974,104.6786" style="stroke:#181818;stroke-width:1;"/></g><!--link n11 to n16--><g class="link" data-entity-1="n11" data-entity-2="n16" data-source-line="33" data-uid="lnk30" id="link_n11_n16"><path d="M661.1187,45.128 C638.3885,62.3959 609.9008,84.0377 587.1903,101.2906" fill="none" id="n11-to-n16" style="stroke:#181818;stroke-width:1;"/><polygon fill="#181818" points="582.4126,104.9202,591.9988,102.661,586.394,101.8956,587.1594,96.2907,582.4126,104.9202" style="stroke:#181818;stroke-width:1;"/></g><!--link n7 to n16--><g class="link" data-entity-1="n7" data-entity-2="n16" data-source-line="34" data-uid="lnk31" id="link_n7_n16"><path d="M389.0908,45.128 C426.7487,62.7858 476.8226,86.2654 513.6404,103.5292" fill="none" id="n7-to-n16" style="stroke:#181818;stroke-width:1;"/><polygon fill="#181818" points="519.0728,106.0765,512.6223,98.634,514.5458,103.9538,509.226,105.8772,519.0728,106.0765" style="stroke:#181818;stroke-width:1;"/></g><!--link n9 to n20--><g class="link" data-entity-1="n9" data-entity-2="n20" data-source-line="35" data-uid="lnk32" id="link_n9_n20"><path d="M696.361,143.1502 C716.0522,180.6208 756.6779,257.9278 776.4018,295.4608" fill="none" id="n9-to-n20" style="stroke:#181818;stroke-width:1;"/><polygon fill="#181818" points="779.1929,300.7721,778.5471,290.9444,776.867,296.346,771.4654,294.6659,779.1929,300.7721" style="stroke:#181818;stroke-width:1;"/></g><!--link n10 to n17--><g class="link" data-entity-1="n10" data-entity-2="n17" data-source-line="36" data-uid="lnk33" id="link_n10_n17"><path d="M519.2429,36.8514 C480.6242,49.1208 420.4064,71.8105 376.2974,105 C339.4011,132.7624 310.8806,172.2053 294.4634,197.5736" fill="none" id="n10-to-n17" style="stroke:#181818;stroke-width:1;"/><polygon fill="#181818" points="291.2036,202.6108,299.4515,197.2282,293.9201,198.4131,292.7352,192.8818,291.2036,202.6108" style="stroke:#181818;stroke-width:1;"/></g><!--link n7 to n17--><g class="link" data-entity-1="n7" data-entity-2="n17" data-source-line="37" data-uid="lnk34" id="link_n7_n17"><path d="M307.5681,45.0803 C284.4231,58.3293 257.4995,78.3923 244.2974,105 C228.1829,137.4772 245.9068,173.7632 261.6484,197.6039" fill="none" id="n7-to-n17" style="stroke:#181818;stroke-width:1;"/><polygon fill="#181818" points="264.9544,202.6109,263.3333,192.8964,262.1994,198.4384,256.6573,197.3044,264.9544,202.6109" style="stroke:#181818;stroke-width:1;"/></g><!--link n9 to n17--><g class="link" data-entity-1="n9" data-entity-2="n17" data-source-line="38" data-uid="lnk35" id="link_n9_n17"><path d="M630.5644,138.4268 C624.4048,139.9864 618.2208,141.5371 612.2974,143 C518.2726,166.2217 414.8245,190.5395 347.8259,206.1313" fill="none" id="n9-to-n17" style="stroke:#181818;stroke-width:1;"/><polygon fill="#181818" points="341.9821,207.4913,351.6545,209.3472,346.852,206.358,349.8412,201.5555,341.9821,207.4913" style="stroke:#181818;stroke-width:1;"/></g><!--link n18 to n17--><g class="link" data-entity-1="n18" data-entity-2="n17" data-source-line="39" data-uid="lnk36" id="link_n18_n17"><path d="M138.4546,143.128 C169.29,160.3959 209.1826,182.7357 239.9913,199.9886" fill="none" id="n18-to-n17" style="stroke:#181818;stroke-width:1;"/><polygon fill="#181818" points="245.2263,202.9202,239.3282,195.0327,240.8638,200.4772,235.4193,202.0128,245.2263,202.9202" style="stroke:#181818;stroke-width:1;"/></g><!--link n9 to n14--><g class="link" data-entity-1="n9" data-entity-2="n14" data-source-line="40" data-uid="lnk37" id="link_n9_n14"><path d="M657.8652,143.1502 C602.2328,180.6208 484.5464,259.8873 428.8214,297.4203" fill="none" id="n9-to-n14" style="stroke:#181818;stroke-width:1;"/><polygon fill="#181818" points="423.8449,300.7721,433.5442,299.062,427.9919,297.9789,429.075,292.4267,423.8449,300.7721" style="stroke:#181818;stroke-width:1;"/></g><!--link n13 to n14--><g class="link" data-entity-1="n13" data-entity-2="n14" data-source-line="41" data-uid="lnk38" id="link_n13_n14"><path d="M590.0831,238.073 C549.157,255.2865 489.7714,280.2642 446.26,298.5651" fill="none" id="n13-to-n14" style="stroke:#181818;stroke-width:1;"/><polygon fill="#181818" points="440.7293,300.8913,450.5762,301.0891,445.3382,298.9528,447.4745,293.7148,440.7293,300.8913" style="stroke:#181818;stroke-width:1;"/></g><!--link n15 to n14--><g class="link" data-entity-1="n15" data-entity-2="n14" data-source-line="42" data-uid="lnk39" id="link_n15_n14"><path d="M434.9984,143.1502 C426.5866,180.6208 409.3538,257.3848 400.9281,294.9178" fill="none" id="n15-to-n14" style="stroke:#181818;stroke-width:1;"/><polygon fill="#181818" points="399.6139,300.7721,405.4881,292.8668,400.7091,295.8935,397.6824,291.1145,399.6139,300.7721" style="stroke:#181818;stroke-width:1;"/></g><!--link n16 to n14--><g class="link" data-entity-1="n16" data-entity-2="n14" data-source-line="43" data-uid="lnk40" id="link_n16_n14"><path d="M541.4692,143.1502 C510.4986,180.6208 446.0345,258.6143 415.0123,296.1473" fill="none" id="n16-to-n14" style="stroke:#181818;stroke-width:1;"/><polygon fill="#181818" points="411.1898,300.7721,420.0067,296.3833,414.3752,296.9181,413.8404,291.2866,411.1898,300.7721" style="stroke:#181818;stroke-width:1;"/></g><!--link n17 to n14--><g class="link" data-entity-1="n17" data-entity-2="n14" data-source-line="44" data-uid="lnk41" id="link_n17_n14"><path d="M301.9387,241.128 C322.3782,258.3959 347.708,279.7952 368.1299,297.0481" fill="none" id="n17-to-n14" style="stroke:#181818;stroke-width:1;"/><polygon fill="#181818" points="372.7132,300.9202,368.4196,292.0565,368.8938,297.6935,363.2568,298.1676,372.7132,300.9202" style="stroke:#181818;stroke-width:1;"/></g><!--link n18 to n14--><g class="link" data-entity-1="n18" data-entity-2="n14" data-source-line="45" data-uid="lnk42" id="link_n18_n14"><path d="M115.4773,143.1229 C131.2403,168.604 162.2498,213.6477 199.2974,241 C241.6517,272.2702 292.3622,291.5801 333.8031,304.0301" fill="none" id="n18-to-n14" style="stroke:#181818;stroke-width:1;"/><polygon fill="#181818" points="339.5494,305.7564,332.0809,299.336,334.7608,304.3178,329.7791,306.9977,339.5494,305.7564" style="stroke:#181818;stroke-width:1;"/></g><!--link n4 to n14--><g class="link" data-entity-1="n4" data-entity-2="n14" data-source-line="46" data-uid="lnk43" id="link_n4_n14"><path d="M110.3193,231.2843 C118.8043,234.4745 128.4385,237.9965 137.2974,241 C206.5052,264.4643 281.412,286.9844 333.872,302.3125" fill="none" id="n4-to-n14" style="stroke:#181818;stroke-width:1;"/><polygon fill="#181818" points="339.6312,303.9953,332.1142,297.6317,334.8319,302.593,329.8706,305.3106,339.6312,303.9953" style="stroke:#181818;stroke-width:1;"/></g><!--link n10 to n12--><g class="link" data-entity-1="n10" data-entity-2="n12" data-source-line="47" data-uid="lnk44" id="link_n10_n12"><path d="M595.4432,36.1364 C637.6484,48.4063 706.6481,71.6546 759.2974,105 C803.0558,132.7143 840.9917,172.6886 863.1117,198.0728" fill="none" id="n10-to-n12" style="stroke:#181818;stroke-width:1;"/><polygon fill="#181818" points="867.0535,202.5963,864.1564,193.1832,863.7687,198.8267,858.1251,198.4389,867.0535,202.5963" style="stroke:#181818;stroke-width:1;"/></g><!--link n11 to n12--><g class="link" data-entity-1="n11" data-entity-2="n12" data-source-line="48" data-uid="lnk45" id="link_n11_n12"><path d="M714.5388,45.1876 C735.8398,60.2786 765.2298,82.4567 788.2974,105 C820.4839,136.4548 848.7973,173.5895 866.214,197.7674" fill="none" id="n11-to-n12" style="stroke:#181818;stroke-width:1;"/><polygon fill="#181818" points="869.721,202.6358,867.7061,192.9952,866.7985,198.5788,861.215,197.6712,869.721,202.6358" style="stroke:#181818;stroke-width:1;"/></g><!--link n9 to n12--><g class="link" data-entity-1="n9" data-entity-2="n12" data-source-line="49" data-uid="lnk46" id="link_n9_n12"><path d="M724.7486,143.128 C759.5725,160.4516 805.2172,183.158 839.9063,200.4145" fill="none" id="n9-to-n12" style="stroke:#181818;stroke-width:1;"/><polygon fill="#181818" points="845.2783,203.0869,839.0019,195.497,840.8016,200.8599,835.4387,202.6597,845.2783,203.0869" style="stroke:#181818;stroke-width:1;"/></g><!--link n11 to n13--><g class="link" data-entity-1="n11" data-entity-2="n13" data-source-line="50" data-uid="lnk47" id="link_n11_n13"><path d="M712.7537,45.1465 C741.0066,68.0637 779.1935,107.7677 759.2974,143 C739.5776,177.9201 703.1716,197.0495 672.0083,208.5743" fill="none" id="n11-to-n13" style="stroke:#181818;stroke-width:1;"/><polygon fill="#181818" points="666.3808,210.6555,676.2095,211.2854,671.0704,208.9212,673.4346,203.7821,666.3808,210.6555" style="stroke:#181818;stroke-width:1;"/></g><!--link n7 to n13--><g class="link" data-entity-1="n7" data-entity-2="n13" data-source-line="51" data-uid="lnk48" id="link_n7_n13"><path d="M347.4432,45.2634 C347.3866,70.9038 351.2151,116.1274 376.2974,143 C405.6268,174.4229 521.2934,201.0162 584.2416,213.6289" fill="none" id="n7-to-n13" style="stroke:#181818;stroke-width:1;"/><polygon fill="#181818" points="590.1247,214.8077,582.0859,209.1175,585.2221,213.8254,580.5143,216.9616,590.1247,214.8077" style="stroke:#181818;stroke-width:1;"/></g><!--link n9 to n13--><g class="link" data-entity-1="n9" data-entity-2="n13" data-source-line="52" data-uid="lnk49" id="link_n9_n13"><path d="M674.8385,143.3616 C664.6703,160.5424 652.9494,180.3465 642.7884,197.5151" fill="none" id="n9-to-n13" style="stroke:#181818;stroke-width:1;"/><polygon fill="#181818" points="639.7325,202.6786,647.7587,196.9707,642.2791,198.3757,640.8741,192.8961,639.7325,202.6786" style="stroke:#181818;stroke-width:1;"/></g><!--link n2 to n1--><g class="link" data-entity-1="n2" data-entity-2="n1" data-source-line="53" data-uid="lnk50" id="link_n2_n1"><path d="M966.1543,431.2574 C960.5069,433.1969 954.7537,435.1596 949.2974,437 C887.573,457.8191 822.4054,479.208 773.7679,495.062" fill="none" id="n2-to-n1" style="stroke:#181818;stroke-width:1;"/><polygon fill="#181818" points="768.0633,496.9215,777.8598,497.9353,772.8171,495.3719,775.3805,490.3292,768.0633,496.9215" style="stroke:#181818;stroke-width:1;"/></g><!--link n3 to n1--><g class="link" data-entity-1="n3" data-entity-2="n1" data-source-line="54" data-uid="lnk51" id="link_n3_n1"><path d="M1077.0054,431.8374 C1071.4318,433.6735 1065.739,435.4529 1060.2974,437 C967.1721,463.4765 864.025,485.6744 792.4886,499.9983" fill="none" id="n3-to-n1" style="stroke:#181818;stroke-width:1;"/><polygon fill="#181818" points="786.6054,501.1763,796.2156,503.3314,791.5081,500.1946,794.6449,495.4871,786.6054,501.1763" style="stroke:#181818;stroke-width:1;"/></g><!--link n4 to n1--><g class="link" data-entity-1="n4" data-entity-2="n1" data-source-line="55" data-uid="lnk52" id="link_n4_n1"><path d="M103.5984,241.3065 C142.8279,283.8091 243.3891,385.7532 349.2974,437 C440.591,481.175 550.8772,500.2483 626.1823,508.8901" fill="none" id="n4-to-n1" style="stroke:#181818;stroke-width:1;"/><polygon fill="#181818" points="632.1432,509.5742,623.6579,504.5742,627.1758,509.0042,622.7458,512.522,632.1432,509.5742" style="stroke:#181818;stroke-width:1;"/></g><!--link n5 to n1--><g class="link" data-entity-1="n5" data-entity-2="n1" data-source-line="56" data-uid="lnk53" id="link_n5_n1"><path d="M869.1848,433.9635 C835.6756,451.1567 787.7081,475.7684 751.9646,494.1079" fill="none" id="n5-to-n1" style="stroke:#181818;stroke-width:1;"/><polygon fill="#181818" points="746.6263,496.8469,756.4598,496.2973,751.0749,494.5644,752.8078,489.1795,746.6263,496.8469" style="stroke:#181818;stroke-width:1;"/></g><!--link n6 to n1--><g class="link" data-entity-1="n6" data-entity-2="n1" data-source-line="57" data-uid="lnk54" id="link_n6_n1"><path d="M1188.118,431.4202 C1182.5824,433.4916 1176.8207,435.4527 1171.2974,437 C1038.4839,474.2057 884.967,496.0676 792.3601,507.0722" fill="none" id="n6-to-n1" style="stroke:#181818;stroke-width:1;"/><polygon fill="#181818" points="786.402,507.7802,795.8111,510.6902,791.3671,507.1902,794.8671,502.7461,786.402,507.7802" style="stroke:#181818;stroke-width:1;"/></g><!--link n7 to n1--><g class="link" data-entity-1="n7" data-entity-2="n1" data-source-line="58" data-uid="lnk55" id="link_n7_n1"><path d="M289.1396,34.4728 C211.2206,46.7699 79.9989,71.7744 45.2974,105 C6,142.626 9.2974,167.5941 9.2974,222 C9.2974,222 9.2974,222 9.2974,320 C9.2974,448.1737 444.018,495.8692 626.0658,510.2994" fill="none" id="n7-to-n1" style="stroke:#181818;stroke-width:1;"/><polygon fill="#181818" points="632.047,510.7735,623.3912,506.0748,627.0626,510.3784,622.7591,514.0498,632.047,510.7735" style="stroke:#181818;stroke-width:1;"/></g><!--link n8 to n1--><g class="link" data-entity-1="n8" data-entity-2="n1" data-source-line="59" data-uid="lnk56" id="link_n8_n1"><path d="M677.7171,339.1502 C684.4082,376.6208 698.1068,453.3325 704.8091,490.8655" fill="none" id="n8-to-n1" style="stroke:#181818;stroke-width:1;"/><polygon fill="#181818" points="705.8638,496.7721,708.2194,487.2091,704.9848,491.85,700.344,488.6154,705.8638,496.7721" style="stroke:#181818;stroke-width:1;"/></g><!--link n12 to n1--><g class="link" data-entity-1="n12" data-entity-2="n1" data-source-line="60" data-uid="lnk57" id="link_n12_n1"><path d="M879.6658,241.4152 C874.7196,265.2821 864.5696,306.6016 848.2974,339 C816.1178,403.0702 762.8484,461.9428 732.8808,492.5793" fill="none" id="n12-to-n1" style="stroke:#181818;stroke-width:1;"/><polygon fill="#181818" points="728.6852,496.8685,737.838,493.2317,732.1815,493.2942,732.1191,487.6377,728.6852,496.8685" style="stroke:#181818;stroke-width:1;"/></g><!--link n13 to n1--><g class="link" data-entity-1="n13" data-entity-2="n1" data-source-line="61" data-uid="lnk58" id="link_n13_n1"><path d="M622.9101,241.336 C617.2301,264.7735 610.1454,305.3152 618.2974,339 C633.2923,400.9608 670.5349,460.6069 692.0708,491.851" fill="none" id="n13-to-n1" style="stroke:#181818;stroke-width:1;"/><polygon fill="#181818" points="695.4759,496.7911,693.6616,487.1108,692.6383,492.6743,687.0748,491.651,695.4759,496.7911" style="stroke:#181818;stroke-width:1;"/></g><!--link n14 to n1--><g class="link" data-entity-1="n14" data-entity-2="n1" data-source-line="62" data-uid="lnk59" id="link_n14_n1"><path d="M381.5754,339.1211 C365.4175,364.1925 343.4919,408.3448 366.2974,437 C398.8801,477.9403 535.3935,498.817 626.1591,508.5774" fill="none" id="n14-to-n1" style="stroke:#181818;stroke-width:1;"/><polygon fill="#181818" points="632.1247,509.2189,623.604,504.2796,627.1534,508.6843,622.7486,512.2337,632.1247,509.2189" style="stroke:#181818;stroke-width:1;"/></g><!--link n19 to n1--><g class="link" data-entity-1="n19" data-entity-2="n1" data-source-line="63" data-uid="lnk60" id="link_n19_n1"><path d="M506.1843,437.0116 C550.5549,454.2668 610.0632,477.4089 654.5249,494.6995" fill="none" id="n19-to-n1" style="stroke:#181818;stroke-width:1;"/><polygon fill="#181818" points="660.1169,496.8742,653.1786,489.8842,655.4569,495.062,650.2791,497.3402,660.1169,496.8742" style="stroke:#181818;stroke-width:1;"/></g><!--link n20 to n1--><g class="link" data-entity-1="n20" data-entity-2="n1" data-source-line="64" data-uid="lnk61" id="link_n20_n1"><path d="M781.481,339.1502 C766.1869,376.6208 734.7325,453.684 719.4129,491.217" fill="none" id="n20-to-n1" style="stroke:#181818;stroke-width:1;"/><polygon fill="#181818" points="717.1455,496.7721,724.25,489.9511,719.035,492.1429,716.8432,486.9279,717.1455,496.7721" style="stroke:#181818;stroke-width:1;"/></g><!--link n14 to n19--><g class="link" data-entity-1="n14" data-entity-2="n19" data-source-line="65" data-uid="lnk62" id="link_n14_n19"><path d="M407.5466,339.3616 C418.416,356.5424 431.0041,376.4395 441.8658,393.6081" fill="none" id="n14-to-n19" style="stroke:#181818;stroke-width:1;"/><polygon fill="#181818" points="445.0736,398.6786,443.6422,388.9343,442.4004,394.4532,436.8815,393.2114,445.0736,398.6786" style="stroke:#181818;stroke-width:1;"/></g><!--SRC=[RP8zRuCm48PtVWLADwIaCLy6AShGB1soLErUkU022h6HRPJctnTKV6UJRe_kUJcV3n-qkVVy61oU5z2NJWnCiMlunQfBe-GewfFifGgDOa9FYWiJA5uP9fgUXvj1AiFLhjs4J8UYU5IVbHJQs03z9s3k0xU-T7qbhuFYMbj9Ci-g-s0akDplRDHPDbR6-xLyvw9-6_a81nEwZfoaCFm79YUf5vYsmz75hhjrefOtS8dhecXk_SfPRzgFLd5MxweeMfBXqxbhMlFIZtmzZFU5xUmjgnCuJ-OBM_PlOFnctg_JfgxvDxZzodK2hqvyfpg1Q_UKT3VcBSLqL_WFUI3ASBizpczfElWFoma98CNYugU70O6PgLEsaTo9v1Z1ywP7WccA2Gg96KdnM4wdSk9mvd3kC7MuG4wTiZq_TgQDyIItdE282IOcZ1SCH0AK0cL0EH05Ae08jY7OXs0ZKWB6-yT0-Gi0]--></g></svg>