<svg xmlns="http://www.w3.org/2000/svg" xmlns:xlink="http://www.w3.org/1999/xlink" contentStyleType="text/css" data-diagram-type="DESCRIPTION" height="344px" preserveAspectRatio="none" style="width:556px;height:344px;" version="1.1" viewBox="0 0 556 344" width="556px" zoomAndPan="magnify"><defs/><g><!--entity n0--><g class="entity" data-entity="n0" data-source-line="5" data-uid="ent0002" id="entity_n0"><rect fill="#ADD8E6" height="37.7799" rx="2.5" ry="2.5" style="stroke:#181818;stroke-width:0.5;" width="138.9995" x="135.5918" y="7"/><text fill="#000000" font-family="'Segoe UI', 'メイリオ', 'UDEV Gothic HSRFJPDOC', 'Hiragino Kaku Gothic ProN', 'ヒラギノ角ゴ ProN', 'Noto Sans JP', 'Helvetica Neue', Helvetica, Arial, sans-serif" font-size="14" font-weight="bold" lengthAdjust="spacing" textLength="118.9995" x="145.5918" y="30.9999">get_lib_basename</text></g><!--entity n1--><g class="entity" data-entity="n1" data-source-line="6" data-uid="ent0003" id="entity_n1"><rect fill="#F1F1F1" height="37.7799" rx="2.5" ry="2.5" style="stroke:#181818;stroke-width:0.5;" width="75.9998" x="37.0918" y="301"/><text fill="#000000" font-family="'Segoe UI', 'メイリオ', 'UDEV Gothic HSRFJPDOC', 'Hiragino Kaku Gothic ProN', 'ヒラギノ角ゴ ProN', 'Noto Sans JP', 'Helvetica Neue', Helvetica, Arial, sans-serif" font-size="14" lengthAdjust="spacing" textLength="55.9998" x="47.0918" y="324.9999">copy_str</text></g><!--entity n2--><g class="entity" data-entity="n2" data-source-line="7" data-uid="ent0004" id="entity_n2"><rect fill="#F1F1F1" height="37.7799" rx="2.5" ry="2.5" style="stroke:#181818;stroke-width:0.5;" width="131.9995" x="63.0918" y="105"/><text fill="#000000" font-family="'Segoe UI', 'メイリオ', 'UDEV Gothic HSRFJPDOC', 'Hiragino Kaku Gothic ProN', 'ヒラギノ角ゴ ProN', 'Noto Sans JP', 'Helvetica Neue', Helvetica, Arial, sans-serif" font-size="14" lengthAdjust="spacing" textLength="111.9995" x="73.0918" y="128.9999">get_ilename_part</text></g><!--entity n3--><g class="entity" data-entity="n3" data-source-line="8" data-uid="ent0005" id="entity_n3"><rect fill="#F1F1F1" height="37.7799" rx="2.5" ry="2.5" style="stroke:#181818;stroke-width:0.5;" width="103.9996" x="230.0918" y="105"/><text fill="#000000" font-family="'Segoe UI', 'メイリオ', 'UDEV Gothic HSRFJPDOC', 'Hiragino Kaku Gothic ProN', 'ヒラギノ角ゴ ProN', 'Noto Sans JP', 'Helvetica Neue', Helvetica, Arial, sans-serif" font-size="14" lengthAdjust="spacing" textLength="83.9996" x="240.0918" y="128.9999">get_lib_path</text></g><!--entity n4--><g class="entity" data-entity="n4" data-source-line="9" data-uid="ent0006" id="entity_n4"><rect fill="#F1F1F1" height="37.7799" rx="2.5" ry="2.5" style="stroke:#181818;stroke-width:0.5;" width="180.9993" x="369.5918" y="105"/><text fill="#000000" font-family="'Segoe UI', 'メイリオ', 'UDEV Gothic HSRFJPDOC', 'Hiragino Kaku Gothic ProN', 'ヒラギノ角ゴ ProN', 'Noto Sans JP', 'Helvetica Neue', Helvetica, Arial, sans-serif" font-size="14" lengthAdjust="spacing" textLength="160.9993" x="379.5918" y="128.9999">strip_extension_inplace</text></g><!--entity n5--><g class="entity" data-entity="n5" data-source-line="10" data-uid="ent0007" id="entity_n5"><rect fill="#F1F1F1" height="37.7799" rx="2.5" ry="2.5" style="stroke:#181818;stroke-width:0.5;" width="152.9994" x="134.5918" y="203"/><text fill="#000000" font-family="'Segoe UI', 'メイリオ', 'UDEV Gothic HSRFJPDOC', 'Hiragino Kaku Gothic ProN', 'ヒラギノ角ゴ ProN', 'Noto Sans JP', 'Helvetica Neue', Helvetica, Arial, sans-serif" font-size="14" lengthAdjust="spacing" textLength="132.9994" x="144.5918" y="226.9999">get_self_path_posix</text></g><!--link n0 to n1--><g class="link" data-entity-1="n0" data-entity-2="n1" data-source-line="11" data-uid="lnk8" id="link_n0_n1"><path d="M135.4566,42.0328 C102.01,53.6129 64.9604,73.0314 45.0918,105 C6,167.8988 41.8979,255.5516 61.9505,295.3899" fill="none" id="n0-to-n1" style="stroke:#181818;stroke-width:1;"/><polygon fill="#181818" points="64.6481,300.7493,64.1746,290.9118,62.4001,296.2832,57.0287,294.5087,64.6481,300.7493" style="stroke:#181818;stroke-width:1;"/></g><!--link n0 to n2--><g class="link" data-entity-1="n0" data-entity-2="n2" data-source-line="12" data-uid="lnk9" id="link_n0_n2"><path d="M190.0766,45.3616 C176.7528,62.5424 161.0671,82.7687 147.7527,99.9373" fill="none" id="n0-to-n2" style="stroke:#181818;stroke-width:1;"/><polygon fill="#181818" points="144.0758,104.6786,152.7521,100.0179,147.1399,100.7275,146.4303,95.1153,144.0758,104.6786" style="stroke:#181818;stroke-width:1;"/></g><!--link n0 to n3--><g class="link" data-entity-1="n0" data-entity-2="n3" data-source-line="13" data-uid="lnk10" id="link_n0_n3"><path d="M220.3045,45.3616 C233.8037,62.5424 249.7142,82.7921 263.2038,99.9607" fill="none" id="n0-to-n3" style="stroke:#181818;stroke-width:1;"/><polygon fill="#181818" points="266.9107,104.6786,264.4956,95.1304,263.8216,100.747,258.205,100.073,266.9107,104.6786" style="stroke:#181818;stroke-width:1;"/></g><!--link n0 to n4--><g class="link" data-entity-1="n0" data-entity-2="n4" data-source-line="14" data-uid="lnk11" id="link_n0_n4"><path d="M254.5607,45.0116 C299.4595,62.2668 359.7342,85.4312 404.7252,102.7218" fill="none" id="n0-to-n4" style="stroke:#181818;stroke-width:1;"/><polygon fill="#181818" points="410.3258,104.8742,403.3598,97.9118,405.6586,103.0805,400.4899,105.3794,410.3258,104.8742" style="stroke:#181818;stroke-width:1;"/></g><!--link n3 to n5--><g class="link" data-entity-1="n3" data-entity-2="n5" data-source-line="15" data-uid="lnk12" id="link_n3_n5"><path d="M268.0645,143.3616 C255.6172,160.5424 241.0486,180.6511 228.6102,197.8197" fill="none" id="n3-to-n5" style="stroke:#181818;stroke-width:1;"/><polygon fill="#181818" points="225.09,202.6786,233.6095,197.7371,228.0235,198.6296,227.131,193.0435,225.09,202.6786" style="stroke:#181818;stroke-width:1;"/></g><!--link n5 to n1--><g class="link" data-entity-1="n5" data-entity-2="n1" data-source-line="16" data-uid="lnk13" id="link_n5_n1"><path d="M184.5468,241.128 C160.5832,258.3959 130.3805,280.1596 106.4377,297.4125" fill="none" id="n5-to-n1" style="stroke:#181818;stroke-width:1;"/><polygon fill="#181818" points="101.5699,300.9202,111.2101,298.9039,105.6264,297.9971,106.5332,292.4134,101.5699,300.9202" style="stroke:#181818;stroke-width:1;"/></g><!--SRC=[NO_D2i8m48JlVOgWjuAe_Rc91xtw3c5RrneQDo6xWdrxqwQMucrWlfdPFR4C5i_PQJyBxWrv2F1I3RHz5zoRxbTdNL0IW3XQI985R0MeiwWsUTwXQ6iQtG0ZmGlpVAE05HtKzcQwfrpi6zU9rlb1iuH47TVMM6NirABZb2Ia-4V6DG_oJ7QvjcElyHe_WiJ6aOxVM6WnaTL_4QDzJ4tQEpQVHDLPF7stEu-t_LIng79HLKPbKZ5Hpual]--></g></svg>