<svg xmlns="http://www.w3.org/2000/svg" xmlns:xlink="http://www.w3.org/1999/xlink" contentStyleType="text/css" data-diagram-type="DESCRIPTION" height="832px" preserveAspectRatio="none" style="width:605px;height:832px;" version="1.1" viewBox="0 0 605 832" width="605px" zoomAndPan="magnify"><defs/><g><!--entity src--><g class="entity" data-entity="src" data-source-line="5" data-uid="ent0002" id="entity_src"><path d="M186.5,6 L227.5,6 A3.75,3.75 0 0 1 230,8.5 L237,27 L323.4995,27 A2.5,2.5 0 0 1 325.9995,29.5 L325.9995,59.2799 A2.5,2.5 0 0 1 323.4995,61.7799 L186.5,61.7799 A2.5,2.5 0 0 1 184,59.2799 L184,8.5 A2.5,2.5 0 0 1 186.5,6" fill="#FFC0C0" style="stroke:#181818;stroke-width:0.5;"/><line style="stroke:#181818;stroke-width:0.5;" x1="184" x2="237" y1="27" y2="27"/><text fill="#000000" font-family="メイリオ, `UDEV Gothic HSRFJPDOC`, Helvetica Neue, Helvetica, Arial, sans-serif" font-size="14" lengthAdjust="spacing" textLength="111.9995" x="194" y="47.9999">&#35069;&#21697;&#12477;&#12540;&#12473;&#12467;&#12540;&#12489;</text></g><!--entity Doxygen--><g class="entity" data-entity="Doxygen" data-source-line="6" data-uid="ent0003" id="entity_Doxygen"><rect fill="#F1F1F1" height="47.7799" rx="2.5" ry="2.5" style="stroke:#181818;stroke-width:0.5;" width="88.9998" x="151.5" y="131"/><rect fill="#F1F1F1" height="10" style="stroke:#181818;stroke-width:0.5;" width="15" x="220.4998" y="136"/><rect fill="#F1F1F1" height="2" style="stroke:#181818;stroke-width:0.5;" width="4" x="218.4998" y="138"/><rect fill="#F1F1F1" height="2" style="stroke:#181818;stroke-width:0.5;" width="4" x="218.4998" y="142"/><text fill="#000000" font-family="メイリオ, `UDEV Gothic HSRFJPDOC`, Helvetica Neue, Helvetica, Arial, sans-serif" font-size="14" lengthAdjust="spacing" textLength="48.9998" x="166.5" y="164.9999">Doxygen</text></g><!--entity Doxybook2--><g class="entity" data-entity="Doxybook2" data-source-line="7" data-uid="ent0004" id="entity_Doxybook2"><rect fill="#F1F1F1" height="47.7799" rx="2.5" ry="2.5" style="stroke:#181818;stroke-width:0.5;" width="102.9997" x="144.5" y="248"/><rect fill="#F1F1F1" height="10" style="stroke:#181818;stroke-width:0.5;" width="15" x="227.4997" y="253"/><rect fill="#F1F1F1" height="2" style="stroke:#181818;stroke-width:0.5;" width="4" x="225.4997" y="255"/><rect fill="#F1F1F1" height="2" style="stroke:#181818;stroke-width:0.5;" width="4" x="225.4997" y="259"/><text fill="#000000" font-family="メイリオ, `UDEV Gothic HSRFJPDOC`, Helvetica Neue, Helvetica, Arial, sans-serif" font-size="14" lengthAdjust="spacing" textLength="62.9997" x="159.5" y="281.9999">Doxybook2</text></g><!--entity src_md--><g class="entity" data-entity="src_md" data-source-line="8" data-uid="ent0005" id="entity_src_md"><path d="M127.5,356 L168.5,356 A3.75,3.75 0 0 1 171,358.5 L178,377 L264.4995,377 A2.5,2.5 0 0 1 266.9995,379.5 L266.9995,427.0598 A2.5,2.5 0 0 1 264.4995,429.5598 L127.5,429.5598 A2.5,2.5 0 0 1 125,427.0598 L125,358.5 A2.5,2.5 0 0 1 127.5,356" fill="#F1F1F1" style="stroke:#181818;stroke-width:0.5;"/><line style="stroke:#181818;stroke-width:0.5;" x1="125" x2="178" y1="377" y2="377"/><text fill="#000000" font-family="メイリオ, `UDEV Gothic HSRFJPDOC`, Helvetica Neue, Helvetica, Arial, sans-serif" font-size="14" lengthAdjust="spacing" textLength="111.9995" x="135" y="397.9999">&#35069;&#21697;&#12489;&#12461;&#12517;&#12513;&#12531;&#12488;</text><text fill="#000000" font-family="メイリオ, `UDEV Gothic HSRFJPDOC`, Helvetica Neue, Helvetica, Arial, sans-serif" font-size="14" lengthAdjust="spacing" textLength="69.9997" x="135" y="415.7799">(Markdown)</text></g><!--entity test_src--><g class="entity" data-entity="test_src" data-source-line="9" data-uid="ent0006" id="entity_test_src"><path d="M393.5,6 L434.5,6 A3.75,3.75 0 0 1 437,8.5 L444,27 L558.4994,27 A2.5,2.5 0 0 1 560.9994,29.5 L560.9994,59.2799 A2.5,2.5 0 0 1 558.4994,61.7799 L393.5,61.7799 A2.5,2.5 0 0 1 391,59.2799 L391,8.5 A2.5,2.5 0 0 1 393.5,6" fill="#FFC0C0" style="stroke:#181818;stroke-width:0.5;"/><line style="stroke:#181818;stroke-width:0.5;" x1="391" x2="444" y1="27" y2="27"/><text fill="#000000" font-family="メイリオ, `UDEV Gothic HSRFJPDOC`, Helvetica Neue, Helvetica, Arial, sans-serif" font-size="14" lengthAdjust="spacing" textLength="139.9994" x="401" y="47.9999">&#12486;&#12473;&#12488;&#12398;&#12477;&#12540;&#12473;&#12467;&#12540;&#12489;</text></g><!--entity test_evi--><g class="entity" data-entity="test_evi" data-source-line="10" data-uid="ent0007" id="entity_test_evi"><path d="M445.5,616 L486.5,616 A3.75,3.75 0 0 1 489,618.5 L496,637 L596.4995,637 A2.5,2.5 0 0 1 598.9995,639.5 L598.9995,687.0598 A2.5,2.5 0 0 1 596.4995,689.5598 L445.5,689.5598 A2.5,2.5 0 0 1 443,687.0598 L443,618.5 A2.5,2.5 0 0 1 445.5,616" fill="#F1F1F1" style="stroke:#181818;stroke-width:0.5;"/><line style="stroke:#181818;stroke-width:0.5;" x1="443" x2="496" y1="637" y2="637"/><text fill="#000000" font-family="メイリオ, `UDEV Gothic HSRFJPDOC`, Helvetica Neue, Helvetica, Arial, sans-serif" font-size="14" lengthAdjust="spacing" textLength="83.9996" x="453" y="657.9999">&#21336;&#20307;&#35430;&#39443;&#32080;&#26524;</text><text fill="#000000" font-family="メイリオ, `UDEV Gothic HSRFJPDOC`, Helvetica Neue, Helvetica, Arial, sans-serif" font-size="14" lengthAdjust="spacing" textLength="125.9995" x="453" y="675.7799">(&#12486;&#12473;&#12488;&#12456;&#12499;&#12487;&#12531;&#12473;)</text></g><!--entity gtest--><g class="entity" data-entity="gtest" data-source-line="11" data-uid="ent0008" id="entity_gtest"><rect fill="#F1F1F1" height="65.5598" rx="2.5" ry="2.5" style="stroke:#181818;stroke-width:0.5;" width="144.9995" x="403.5" y="122"/><rect fill="#F1F1F1" height="10" style="stroke:#181818;stroke-width:0.5;" width="15" x="528.4995" y="127"/><rect fill="#F1F1F1" height="2" style="stroke:#181818;stroke-width:0.5;" width="4" x="526.4995" y="129"/><rect fill="#F1F1F1" height="2" style="stroke:#181818;stroke-width:0.5;" width="4" x="526.4995" y="133"/><text fill="#000000" font-family="メイリオ, `UDEV Gothic HSRFJPDOC`, Helvetica Neue, Helvetica, Arial, sans-serif" font-size="14" lengthAdjust="spacing" textLength="76.9997" x="418.5" y="155.9999">Google Test</text><text fill="#000000" font-family="メイリオ, `UDEV Gothic HSRFJPDOC`, Helvetica Neue, Helvetica, Arial, sans-serif" font-size="14" lengthAdjust="spacing" textLength="104.9995" x="418.5" y="173.7799">(w/Google Mock)</text></g><!--entity docs_md--><g class="entity" data-entity="docs_md" data-source-line="12" data-uid="ent0009" id="entity_docs_md"><path d="M304.5,356 L345.5,356 A3.75,3.75 0 0 1 348,358.5 L355,377 L441.4995,377 A2.5,2.5 0 0 1 443.9995,379.5 L443.9995,427.0598 A2.5,2.5 0 0 1 441.4995,429.5598 L304.5,429.5598 A2.5,2.5 0 0 1 302,427.0598 L302,358.5 A2.5,2.5 0 0 1 304.5,356" fill="#FFC0C0" style="stroke:#181818;stroke-width:0.5;"/><line style="stroke:#181818;stroke-width:0.5;" x1="302" x2="355" y1="377" y2="377"/><text fill="#000000" font-family="メイリオ, `UDEV Gothic HSRFJPDOC`, Helvetica Neue, Helvetica, Arial, sans-serif" font-size="14" lengthAdjust="spacing" textLength="111.9995" x="312" y="397.9999">&#38306;&#36899;&#12489;&#12461;&#12517;&#12513;&#12531;&#12488;</text><text fill="#000000" font-family="メイリオ, `UDEV Gothic HSRFJPDOC`, Helvetica Neue, Helvetica, Arial, sans-serif" font-size="14" lengthAdjust="spacing" textLength="69.9997" x="312" y="415.7799">(Markdown)</text></g><!--entity Pandoc--><g class="entity" data-entity="Pandoc" data-source-line="13" data-uid="ent0010" id="entity_Pandoc"><rect fill="#F1F1F1" height="47.7799" rx="2.5" ry="2.5" style="stroke:#181818;stroke-width:0.5;" width="81.9998" x="158" y="499"/><rect fill="#F1F1F1" height="10" style="stroke:#181818;stroke-width:0.5;" width="15" x="219.9998" y="504"/><rect fill="#F1F1F1" height="2" style="stroke:#181818;stroke-width:0.5;" width="4" x="217.9998" y="506"/><rect fill="#F1F1F1" height="2" style="stroke:#181818;stroke-width:0.5;" width="4" x="217.9998" y="510"/><text fill="#000000" font-family="メイリオ, `UDEV Gothic HSRFJPDOC`, Helvetica Neue, Helvetica, Arial, sans-serif" font-size="14" lengthAdjust="spacing" textLength="41.9998" x="173" y="532.9999">Pandoc</text></g><!--entity html--><g class="entity" data-entity="html" data-source-line="14" data-uid="ent0011" id="entity_html"><path d="M8.5,616 L49.5,616 A3.75,3.75 0 0 1 52,618.5 L59,637 L117.4996,637 A2.5,2.5 0 0 1 119.9996,639.5 L119.9996,687.0598 A2.5,2.5 0 0 1 117.4996,689.5598 L8.5,689.5598 A2.5,2.5 0 0 1 6,687.0598 L6,618.5 A2.5,2.5 0 0 1 8.5,616" fill="#F1F1F1" style="stroke:#181818;stroke-width:0.5;"/><line style="stroke:#181818;stroke-width:0.5;" x1="6" x2="59" y1="637" y2="637"/><text fill="#000000" font-family="メイリオ, `UDEV Gothic HSRFJPDOC`, Helvetica Neue, Helvetica, Arial, sans-serif" font-size="14" lengthAdjust="spacing" textLength="83.9996" x="16" y="657.9999">&#12489;&#12461;&#12517;&#12513;&#12531;&#12488;</text><text fill="#000000" font-family="メイリオ, `UDEV Gothic HSRFJPDOC`, Helvetica Neue, Helvetica, Arial, sans-serif" font-size="14" lengthAdjust="spacing" textLength="41.9998" x="16" y="675.7799">(html)</text></g><!--entity docx--><g class="entity" data-entity="docx" data-source-line="15" data-uid="ent0012" id="entity_docx"><path d="M157.5,616 L198.5,616 A3.75,3.75 0 0 1 201,618.5 L208,637 L266.4996,637 A2.5,2.5 0 0 1 268.9996,639.5 L268.9996,687.0598 A2.5,2.5 0 0 1 266.4996,689.5598 L157.5,689.5598 A2.5,2.5 0 0 1 155,687.0598 L155,618.5 A2.5,2.5 0 0 1 157.5,616" fill="#F1F1F1" style="stroke:#181818;stroke-width:0.5;"/><line style="stroke:#181818;stroke-width:0.5;" x1="155" x2="208" y1="637" y2="637"/><text fill="#000000" font-family="メイリオ, `UDEV Gothic HSRFJPDOC`, Helvetica Neue, Helvetica, Arial, sans-serif" font-size="14" lengthAdjust="spacing" textLength="83.9996" x="165" y="657.9999">&#12489;&#12461;&#12517;&#12513;&#12531;&#12488;</text><text fill="#000000" font-family="メイリオ, `UDEV Gothic HSRFJPDOC`, Helvetica Neue, Helvetica, Arial, sans-serif" font-size="14" lengthAdjust="spacing" textLength="41.9998" x="165" y="675.7799">(docx)</text></g><g class="entity" data-entity="GMN13" data-source-line="17" data-uid="ent0014" id="entity_GMN13"><path d="M182,775.5 L182,802.01 A0,0 0 0 0 182,802.01 L242,802.01 A0,0 0 0 0 242,802.01 L242,785.5 L232,775.5 L216,775.5 L212,690.1626 L208,775.5 L182,775.5 A0,0 0 0 0 182,775.5" fill="#FEFFDD" style="stroke:#181818;stroke-width:0.5;"/><path d="M232,775.5 L232,785.5 L242,785.5 L232,775.5" fill="#FEFFDD" style="stroke:#181818;stroke-width:0.5;"/><text fill="#000000" font-family="メイリオ, `UDEV Gothic HSRFJPDOC`, Helvetica Neue, Helvetica, Arial, sans-serif" font-size="13" lengthAdjust="spacing" textLength="39" x="188" y="793.5">&#32013;&#21697;&#29992;</text></g><!--entity developer--><g class="entity" data-entity="developer" data-source-line="19" data-uid="ent0016" id="entity_developer"><ellipse cx="62.9998" cy="758.5" fill="#F1F1F1" rx="8" ry="8" style="stroke:#181818;stroke-width:0.5;"/><path d="M62.9998,766.5 L62.9998,793.5 M49.9998,774.5 L75.9998,774.5 M62.9998,793.5 L49.9998,808.5 M62.9998,793.5 L75.9998,808.5" fill="none" style="stroke:#181818;stroke-width:0.5;"/><text fill="#000000" font-family="メイリオ, `UDEV Gothic HSRFJPDOC`, Helvetica Neue, Helvetica, Arial, sans-serif" font-size="14" lengthAdjust="spacing" textLength="97.9996" x="14" y="823.9999">&#12502;&#12521;&#12454;&#12470;&#12391;&#38322;&#35239;</text></g><!--entity rag--><g class="entity" data-entity="rag" data-source-line="20" data-uid="ent0017" id="entity_rag"><rect fill="#F1F1F1" height="65.5598" rx="2.5" ry="2.5" style="stroke:#181818;stroke-width:0.5;" width="137.9996" x="287" y="490"/><rect fill="#F1F1F1" height="10" style="stroke:#181818;stroke-width:0.5;" width="15" x="404.9996" y="495"/><rect fill="#F1F1F1" height="2" style="stroke:#181818;stroke-width:0.5;" width="4" x="402.9996" y="497"/><rect fill="#F1F1F1" height="2" style="stroke:#181818;stroke-width:0.5;" width="4" x="402.9996" y="501"/><text fill="#000000" font-family="メイリオ, `UDEV Gothic HSRFJPDOC`, Helvetica Neue, Helvetica, Arial, sans-serif" font-size="14" lengthAdjust="spacing" textLength="20.9999" x="302" y="523.9999">RAG</text><text fill="#000000" font-family="メイリオ, `UDEV Gothic HSRFJPDOC`, Helvetica Neue, Helvetica, Arial, sans-serif" font-size="14" lengthAdjust="spacing" textLength="97.9996" x="302" y="541.7799">(&#26908;&#32034;&#25313;&#24373;&#29983;&#25104;)</text></g><!--entity llm_db--><g class="entity" data-entity="llm_db" data-source-line="21" data-uid="ent0018" id="entity_llm_db"><path d="M304,630.5 C304,620.5 355.9998,620.5 355.9998,620.5 C355.9998,620.5 407.9996,620.5 407.9996,630.5 L407.9996,675.0598 C407.9996,685.0598 355.9998,685.0598 355.9998,685.0598 C355.9998,685.0598 304,685.0598 304,675.0598 L304,630.5" fill="#F1F1F1" style="stroke:#181818;stroke-width:0.5;"/><path d="M304,630.5 C304,640.5 355.9998,640.5 355.9998,640.5 C355.9998,640.5 407.9996,640.5 407.9996,630.5" fill="none" style="stroke:#181818;stroke-width:0.5;"/><text fill="#000000" font-family="メイリオ, `UDEV Gothic HSRFJPDOC`, Helvetica Neue, Helvetica, Arial, sans-serif" font-size="14" lengthAdjust="spacing" textLength="83.9996" x="314" y="658.4999">&#12487;&#12540;&#12479;&#12505;&#12540;&#12473;</text><text fill="#000000" font-family="メイリオ, `UDEV Gothic HSRFJPDOC`, Helvetica Neue, Helvetica, Arial, sans-serif" font-size="14" lengthAdjust="spacing" textLength="83.9996" x="314" y="676.2799">(LLM &#20998;&#26512;&#29992;)</text></g><g class="entity" data-entity="GMN19" data-source-line="23" data-uid="ent0020" id="entity_GMN19"><path d="M303,767.5 L303,810.52 A0,0 0 0 0 303,810.52 L408.5001,810.52 A0,0 0 0 0 408.5001,810.52 L408.5001,777.5 L398.5001,767.5 L360,767.5 L356,685.5754 L352,767.5 L303,767.5 A0,0 0 0 0 303,767.5" fill="#FEFFDD" style="stroke:#181818;stroke-width:0.5;"/><path d="M398.5001,767.5 L398.5001,777.5 L408.5001,777.5 L398.5001,767.5" fill="#FEFFDD" style="stroke:#181818;stroke-width:0.5;"/><text fill="#000000" font-family="メイリオ, `UDEV Gothic HSRFJPDOC`, Helvetica Neue, Helvetica, Arial, sans-serif" font-size="13" lengthAdjust="spacing" textLength="84.5001" x="309" y="785.5">AI &#12398;&#24540;&#31572;&#21521;&#12369;</text><text fill="#000000" font-family="メイリオ, `UDEV Gothic HSRFJPDOC`, Helvetica Neue, Helvetica, Arial, sans-serif" font-size="13" lengthAdjust="spacing" textLength="65.0001" x="309" y="802.01">&#20837;&#21147;&#12487;&#12540;&#12479;</text></g><!--link src to Doxygen--><g class="link" data-entity-1="src" data-entity-2="Doxygen" data-source-line="26" data-uid="lnk22" id="link_src_Doxygen"><path d="M241.3159,62.064 C231.1716,82.8685 220.1143,105.5453 210.4451,125.3754" fill="none" id="src-to-Doxygen" style="stroke:#181818;stroke-width:1;"/><polygon fill="#181818" points="207.8154,130.7684,215.3552,124.4319,210.0068,126.2742,208.1645,120.9257,207.8154,130.7684" style="stroke:#181818;stroke-width:1;"/></g><!--link Doxygen to Doxybook2--><g class="link" data-entity-1="Doxygen" data-entity-2="Doxybook2" data-source-line="27" data-uid="lnk23" id="link_Doxygen_Doxybook2"><path d="M196,179.2425 C196,199.3226 196,221.7171 196,241.7886" fill="none" id="Doxygen-to-Doxybook2" style="stroke:#181818;stroke-width:1;"/><polygon fill="#181818" points="196,247.7886,200,238.7886,196,242.7886,192,238.7886,196,247.7886" style="stroke:#181818;stroke-width:1;"/></g><!--link Doxybook2 to src_md--><g class="link" data-entity-1="Doxybook2" data-entity-2="src_md" data-source-line="28" data-uid="lnk24" id="link_Doxybook2_src_md"><path d="M196,296.1953 C196,313.299 196,351.5458 196,370.9716" fill="none" id="Doxybook2-to-src_md" style="stroke:#181818;stroke-width:1;"/><polygon fill="#181818" points="196,376.9716,200,367.9716,196,371.9716,192,367.9716,196,376.9716" style="stroke:#181818;stroke-width:1;"/></g><!--link Doxygen to html--><g class="link" data-entity-1="Doxygen" data-entity-2="html" data-source-line="29" data-uid="lnk25" id="link_Doxygen_html"><path d="M173.2595,179.0848 C157.8202,196.8001 138.2378,222.1946 127,248 C71.7909,374.7771 63.5808,557.3435 62.8016,630.8048" fill="none" id="Doxygen-to-html" style="stroke:#181818;stroke-width:1;"/><polygon fill="#181818" points="62.738,636.8045,66.8332,627.8474,62.791,631.8048,58.8337,627.7626,62.738,636.8045" style="stroke:#181818;stroke-width:1;"/></g><!--link src to gtest--><g class="link" data-entity-1="src" data-entity-2="gtest" data-source-line="30" data-uid="lnk26" id="link_src_gtest"><path d="M306.2573,62.064 C338.9001,79.9363 376.073,100.2889 410.348,119.0548" fill="none" id="src-to-gtest" style="stroke:#181818;stroke-width:1;"/><polygon fill="#181818" points="415.6108,121.9362,409.6375,114.1055,411.2251,119.535,405.7956,121.1226,415.6108,121.9362" style="stroke:#181818;stroke-width:1;"/></g><!--link test_src to gtest--><g class="link" data-entity-1="test_src" data-entity-2="gtest" data-source-line="31" data-uid="lnk27" id="link_test_src_gtest"><path d="M476,62.064 C476,79.9363 476,97.1703 476,115.9362" fill="none" id="test_src-to-gtest" style="stroke:#181818;stroke-width:1;"/><polygon fill="#181818" points="476,121.9362,480,112.9362,476,116.9362,472,112.9362,476,121.9362" style="stroke:#181818;stroke-width:1;"/></g><!--link gtest to test_evi--><g class="link" data-entity-1="gtest" data-entity-2="test_evi" data-source-line="32" data-uid="lnk28" id="link_gtest_test_evi"><path d="M478.9874,188.0608 C487.0455,277.2373 508.6487,537.3123 517.1114,630.9665" fill="none" id="gtest-to-test_evi" style="stroke:#181818;stroke-width:1;"/><polygon fill="#181818" points="517.6514,636.9422,520.8252,627.6187,517.2014,631.9625,512.8577,628.3387,517.6514,636.9422" style="stroke:#181818;stroke-width:1;"/></g><!--link docs_md to Pandoc--><g class="link" data-entity-1="docs_md" data-entity-2="Pandoc" data-source-line="33" data-uid="lnk29" id="link_docs_md_Pandoc"><path d="M323.1386,430.2528 C293.6142,452.3113 261.8714,476.027 236.0999,495.2816" fill="none" id="docs_md-to-Pandoc" style="stroke:#181818;stroke-width:1;"/><polygon fill="#181818" points="231.2933,498.8728,240.8973,496.6905,235.2988,495.8802,236.1091,490.2817,231.2933,498.8728" style="stroke:#181818;stroke-width:1;"/></g><!--link src_md to Pandoc--><g class="link" data-entity-1="src_md" data-entity-2="Pandoc" data-source-line="34" data-uid="lnk30" id="link_src_md_Pandoc"><path d="M196.8597,430.2528 C197.3687,452.3113 197.8605,473.6198 198.3048,492.8744" fill="none" id="src_md-to-Pandoc" style="stroke:#181818;stroke-width:1;"/><polygon fill="#181818" points="198.4432,498.8728,202.2345,489.7829,198.3279,493.8741,194.2366,489.9675,198.4432,498.8728" style="stroke:#181818;stroke-width:1;"/></g><!--link Pandoc to html--><g class="link" data-entity-1="Pandoc" data-entity-2="html" data-source-line="35" data-uid="lnk31" id="link_Pandoc_html"><path d="M173.7382,547.1473 C153.5354,566.4588 129.2057,610.7151 106.101,632.8004" fill="none" id="Pandoc-to-html" style="stroke:#181818;stroke-width:1;"/><polygon fill="#181818" points="101.7638,636.9463,111.0336,633.619,105.3782,633.4914,105.5057,627.836,101.7638,636.9463" style="stroke:#181818;stroke-width:1;"/></g><!--link Pandoc to docx--><g class="link" data-entity-1="Pandoc" data-entity-2="docx" data-source-line="36" data-uid="lnk32" id="link_Pandoc_docx"><path d="M201.4147,547.1473 C203.3459,566.4588 205.4891,608.4372 207.6976,630.5225" fill="none" id="Pandoc-to-docx" style="stroke:#181818;stroke-width:1;"/><polygon fill="#181818" points="208.2946,636.4927,211.3792,627.1393,207.7971,631.5175,203.4189,627.9354,208.2946,636.4927" style="stroke:#181818;stroke-width:1;"/></g><!--link html to developer--><g class="link" data-entity-1="html" data-entity-2="developer" data-source-line="37" data-uid="lnk33" id="link_html_developer"><path d="M63,690.1626 C63,708.7232 63,725.1726 63,743.9823" fill="none" id="html-to-developer" style="stroke:#181818;stroke-width:1;"/><polygon fill="#181818" points="63,749.9823,67,740.9823,63,744.9823,59,740.9823,63,749.9823" style="stroke:#181818;stroke-width:1;"/></g><!--link docs_md to rag--><g class="link" data-entity-1="docs_md" data-entity-2="rag" data-source-line="38" data-uid="lnk34" id="link_docs_md_rag"><path d="M368.1285,430.2528 C365.6756,449.01 363.5045,465.613 361.1285,483.7821" fill="none" id="docs_md-to-rag" style="stroke:#181818;stroke-width:1;"/><polygon fill="#181818" points="360.3505,489.7314,365.4837,481.3261,360.9988,484.7736,357.5513,480.2887,360.3505,489.7314" style="stroke:#181818;stroke-width:1;"/></g><!--link src_md to rag--><g class="link" data-entity-1="src_md" data-entity-2="rag" data-source-line="39" data-uid="lnk35" id="link_src_md_rag"><path d="M241.8496,430.2528 C265.0277,449.085 288.2574,467.9592 310.6655,486.1657" fill="none" id="src_md-to-rag" style="stroke:#181818;stroke-width:1;"/><polygon fill="#181818" points="315.3222,489.9492,310.8595,481.1694,311.4416,486.7962,305.8148,487.3783,315.3222,489.9492" style="stroke:#181818;stroke-width:1;"/></g><!--link rag to llm_db--><g class="link" data-entity-1="rag" data-entity-2="llm_db" data-source-line="40" data-uid="lnk36" id="link_rag_llm_db"><path d="M356,556.1409 C356,575.8501 356,594.7513 356,614.3699" fill="none" id="rag-to-llm_db" style="stroke:#181818;stroke-width:1;"/><polygon fill="#181818" points="356,620.3699,360,611.3699,356,615.3699,352,611.3699,356,620.3699" style="stroke:#181818;stroke-width:1;"/></g><!--SRC=[ZL91Qzim5BxtLuZiiXv2oywbK3OeWmR6s74GP5lnYcqfs5gRtXQBjUb68IKXR2nqj5tJzD0TjdPGQEYFqMmd_sAI73ksbx3vulU-f_TzJthVcaVtRBI-jBOo3Jnh6zUX2nsWGTqoNV8M6q-9JLn0NOWzKKAOBW7nrOXj81UKnkUZeDFa_eYpU-xVSV-d3DXX2K0FUAuE7jLg-gg-gffqujG95XJW6MdicGZFGJL2h2Vp9DWXzwyvk-3ib3EXqdgD7rUWQnba5oydSbN7oFLojY-dOYtU_BvWI8eyMYrEclG7Hvz-ZphZgy5as8bks-59NwZEIFqXPntE3kH0_jtoZ0_jR1VkLjeanBGHU2NAWcDtPPfNY6x5ZQRipAbFUcUJT-V_SNE3w9wu-eB7VW6nE51ubpcSRwXZntmo-lTvGTf8zHlgF2OK0OrGIXoLoo-wEHBxYxf3XI1ig5CgWJebYht7sHNt1zp_nPkNazwFyU0o9aOxo2Prv1PVy-N6ffWW_DQFRix2ZwV1_MtK_Hgssl4yBZHLWm4frA27fCI1Mlu3PvzZ5uZshQqA25hxuKbRJ1TtshPJDRI5Tzbu3eIJWeT-TDqDsiUyUPoMWlSNmOSlgSxVbvKUAvVNSzwVnYa-St-QgLh6sjcMT4y9zyn3gQtpi8e4LfPmpgg9XsGXuvXOkOZ6ONw639RwGHPZ9BV8h5QogunG0ec_okEb_040]--></g></svg>