<?xml version="1.0" encoding="UTF-8" standalone="no"?>
<!DOCTYPE svg PUBLIC "-//W3C//DTD SVG 1.1//EN"
 "http://www.w3.org/Graphics/SVG/1.1/DTD/svg11.dtd">
<!-- Generated by graphviz version 2.40.1 (0)
 -->
<!-- Title: util/libsrc/libutil/file&#45;util.c Pages: 1 -->
<svg width="356pt" height="148pt"
 viewBox="0.00 0.00 356.00 148.00" xmlns="http://www.w3.org/2000/svg" xmlns:xlink="http://www.w3.org/1999/xlink">
<g id="graph0" class="graph" transform="scale(1 1) rotate(0) translate(4 144)">
<title>util/libsrc/libutil/file&#45;util.c</title>
<!-- Node1 -->
<g id="Node000001" class="node">
<title>Node1</title>
<g id="a_Node000001"><a xlink:title=" ">
<polygon fill="#999999" stroke="#666666" points="232.5,-140 151.5,-140 151.5,-110 232.5,-110 232.5,-140"/>
<text text-anchor="start" x="159.5" y="-128" font-family="Helvetica,sans-Serif" font-size="10.00" fill="#000000">util/libsrc/libutil</text>
<text text-anchor="middle" x="192" y="-117" font-family="Helvetica,sans-Serif" font-size="10.00" fill="#000000">/file&#45;util.c</text>
</a>
</g>
</g>
<!-- Node2 -->
<g id="Node000002" class="node">
<title>Node2</title>
<g id="a_Node000002"><a xlink:href="file-util_8h.html" target="_top" xlink:title=" ">
<polygon fill="#ffffff" stroke="#666666" points="82.5,-74 29.5,-74 29.5,-55 82.5,-55 82.5,-74"/>
<text text-anchor="middle" x="56" y="-62" font-family="Helvetica,sans-Serif" font-size="10.00" fill="#000000">file&#45;util.h</text>
</a>
</g>
</g>
<!-- Node1&#45;&gt;Node2 -->
<g id="edge1_Node000001_Node000002" class="edge">
<title>Node1&#45;&gt;Node2</title>
<g id="a_edge1_Node000001_Node000002"><a xlink:title=" ">
<path fill="none" stroke="#63b8ff" d="M158.0323,-109.8894C136.1996,-100.177 108.0607,-87.6593 86.8648,-78.2303"/>
<polygon fill="#63b8ff" stroke="#63b8ff" points="88.2217,-75.0033 77.6624,-74.1366 85.3765,-81.399 88.2217,-75.0033"/>
</a>
</g>
</g>
<!-- Node5 -->
<g id="Node000005" class="node">
<title>Node5</title>
<g id="a_Node000005"><a xlink:title=" ">
<polygon fill="#e0e0e0" stroke="#999999" points="149,-74 101,-74 101,-55 149,-55 149,-74"/>
<text text-anchor="middle" x="125" y="-62" font-family="Helvetica,sans-Serif" font-size="10.00" fill="#000000">stdlib.h</text>
</a>
</g>
</g>
<!-- Node1&#45;&gt;Node5 -->
<g id="edge4_Node000001_Node000005" class="edge">
<title>Node1&#45;&gt;Node5</title>
<g id="a_edge4_Node000001_Node000005"><a xlink:title=" ">
<path fill="none" stroke="#63b8ff" d="M175.0931,-109.7333C165.4016,-100.982 153.2313,-89.9924 143.3136,-81.0369"/>
<polygon fill="#63b8ff" stroke="#63b8ff" points="145.384,-78.1906 135.6163,-74.0864 140.6926,-83.386 145.384,-78.1906"/>
</a>
</g>
</g>
<!-- Node6 -->
<g id="Node000006" class="node">
<title>Node6</title>
<g id="a_Node000006"><a xlink:title=" ">
<polygon fill="#e0e0e0" stroke="#999999" points="216.5,-74 167.5,-74 167.5,-55 216.5,-55 216.5,-74"/>
<text text-anchor="middle" x="192" y="-62" font-family="Helvetica,sans-Serif" font-size="10.00" fill="#000000">string.h</text>
</a>
</g>
</g>
<!-- Node1&#45;&gt;Node6 -->
<g id="edge5_Node000001_Node000006" class="edge">
<title>Node1&#45;&gt;Node6</title>
<g id="a_edge5_Node000001_Node000006"><a xlink:title=" ">
<path fill="none" stroke="#63b8ff" d="M192,-109.7333C192,-102.0322 192,-92.5977 192,-84.3414"/>
<polygon fill="#63b8ff" stroke="#63b8ff" points="195.5001,-84.0864 192,-74.0864 188.5001,-84.0864 195.5001,-84.0864"/>
</a>
</g>
</g>
<!-- Node7 -->
<g id="Node000007" class="node">
<title>Node7</title>
<g id="a_Node000007"><a xlink:title=" ">
<polygon fill="#e0e0e0" stroke="#999999" points="281.5,-74 234.5,-74 234.5,-55 281.5,-55 281.5,-74"/>
<text text-anchor="middle" x="258" y="-62" font-family="Helvetica,sans-Serif" font-size="10.00" fill="#000000">errno.h</text>
</a>
</g>
</g>
<!-- Node1&#45;&gt;Node7 -->
<g id="edge6_Node000001_Node000007" class="edge">
<title>Node1&#45;&gt;Node7</title>
<g id="a_edge6_Node000001_Node000007"><a xlink:title=" ">
<path fill="none" stroke="#63b8ff" d="M208.6546,-109.7333C218.2014,-100.982 230.1901,-89.9924 239.9598,-81.0369"/>
<polygon fill="#63b8ff" stroke="#63b8ff" points="242.5356,-83.4237 247.5421,-74.0864 237.8055,-78.2636 242.5356,-83.4237"/>
</a>
</g>
</g>
<!-- Node8 -->
<g id="Node000008" class="node">
<title>Node8</title>
<g id="a_Node000008"><a xlink:title=" ">
<polygon fill="#e0e0e0" stroke="#999999" points="348,-74 300,-74 300,-55 348,-55 348,-74"/>
<text text-anchor="middle" x="324" y="-62" font-family="Helvetica,sans-Serif" font-size="10.00" fill="#000000">limits.h</text>
</a>
</g>
</g>
<!-- Node1&#45;&gt;Node8 -->
<g id="edge7_Node000001_Node000008" class="edge">
<title>Node1&#45;&gt;Node8</title>
<g id="a_edge7_Node000001_Node000008"><a xlink:title=" ">
<path fill="none" stroke="#63b8ff" d="M224.9687,-109.8894C246.0637,-100.2208 273.2246,-87.7721 293.7646,-78.3579"/>
<polygon fill="#63b8ff" stroke="#63b8ff" points="295.3424,-81.4849 302.9748,-74.1366 292.4258,-75.1214 295.3424,-81.4849"/>
</a>
</g>
</g>
<!-- Node3 -->
<g id="Node000003" class="node">
<title>Node3</title>
<g id="a_Node000003"><a xlink:title=" ">
<polygon fill="#e0e0e0" stroke="#999999" points="46,-19 0,-19 0,0 46,0 46,-19"/>
<text text-anchor="middle" x="23" y="-7" font-family="Helvetica,sans-Serif" font-size="10.00" fill="#000000">stdio.h</text>
</a>
</g>
</g>
<!-- Node2&#45;&gt;Node3 -->
<g id="edge2_Node000002_Node000003" class="edge">
<title>Node2&#45;&gt;Node3</title>
<g id="a_edge2_Node000002_Node000003"><a xlink:title=" ">
<path fill="none" stroke="#63b8ff" d="M50.2518,-54.9197C45.8113,-47.5188 39.5305,-37.0509 34.1176,-28.0294"/>
<polygon fill="#63b8ff" stroke="#63b8ff" points="37.0507,-26.115 28.9045,-19.3408 31.0483,-29.7165 37.0507,-26.115"/>
</a>
</g>
</g>
<!-- Node4 -->
<g id="Node000004" class="node">
<title>Node4</title>
<g id="a_Node000004"><a xlink:title=" ">
<polygon fill="#e0e0e0" stroke="#999999" points="116,-19 64,-19 64,0 116,0 116,-19"/>
<text text-anchor="middle" x="90" y="-7" font-family="Helvetica,sans-Serif" font-size="10.00" fill="#000000">stdarg.h</text>
</a>
</g>
</g>
<!-- Node2&#45;&gt;Node4 -->
<g id="edge3_Node000002_Node000004" class="edge">
<title>Node2&#45;&gt;Node4</title>
<g id="a_edge3_Node000002_Node000004"><a xlink:title=" ">
<path fill="none" stroke="#63b8ff" d="M61.9223,-54.9197C66.4975,-47.5188 72.9686,-37.0509 78.5455,-28.0294"/>
<polygon fill="#63b8ff" stroke="#63b8ff" points="81.6354,-29.6872 83.9166,-19.3408 75.6812,-26.0064 81.6354,-29.6872"/>
</a>
</g>
</g>
</g>
</svg>
