<?xml version="1.0" encoding="UTF-8" standalone="no"?>
<!DOCTYPE svg PUBLIC "-//W3C//DTD SVG 1.1//EN"
 "http://www.w3.org/Graphics/SVG/1.1/DTD/svg11.dtd">
<!-- Generated by graphviz version 2.40.1 (0)
 -->
<!-- Title: util/libsrc/util/file&#45;util.c Pages: 1 -->
<svg width="553pt" height="148pt"
 viewBox="0.00 0.00 553.00 148.00" xmlns="http://www.w3.org/2000/svg" xmlns:xlink="http://www.w3.org/1999/xlink">
<g id="graph0" class="graph" transform="scale(1 1) rotate(0) translate(4 144)">
<title>util/libsrc/util/file&#45;util.c</title>
<!-- Node1 -->
<g id="Node000001" class="node">
<title>Node1</title>
<g id="a_Node000001"><a xlink:title=" ">
<polygon fill="#999999" stroke="#666666" points="398.5,-140 311.5,-140 311.5,-110 398.5,-110 398.5,-140"/>
<text text-anchor="start" x="319.5" y="-128" font-family="Helvetica,sans-Serif" font-size="10.00" fill="#000000">util/libsrc/util/file</text>
<text text-anchor="middle" x="355" y="-117" font-family="Helvetica,sans-Serif" font-size="10.00" fill="#000000">&#45;util.c</text>
</a>
</g>
</g>
<!-- Node2 -->
<g id="Node000002" class="node">
<title>Node2</title>
<g id="a_Node000002"><a xlink:href="file-util_8h.html" target="_top" xlink:title=" ">
<polygon fill="#ffffff" stroke="#666666" points="218.5,-74 165.5,-74 165.5,-55 218.5,-55 218.5,-74"/>
<text text-anchor="middle" x="192" y="-62" font-family="Helvetica,sans-Serif" font-size="10.00" fill="#000000">file&#45;util.h</text>
</a>
</g>
</g>
<!-- Node1&#45;&gt;Node2 -->
<g id="edge1_Node000001_Node000002" class="edge">
<title>Node1&#45;&gt;Node2</title>
<g id="a_edge1_Node000001_Node000002"><a xlink:title=" ">
<path fill="none" stroke="#63b8ff" d="M314.2887,-109.8894C287.6501,-100.002 253.1785,-87.2073 227.6274,-77.7237"/>
<polygon fill="#63b8ff" stroke="#63b8ff" points="228.5559,-74.3351 217.963,-74.1366 226.1201,-80.8976 228.5559,-74.3351"/>
</a>
</g>
</g>
<!-- Node6 -->
<g id="Node000006" class="node">
<title>Node6</title>
<g id="a_Node000006"><a xlink:title=" ">
<polygon fill="#e0e0e0" stroke="#999999" points="324,-19 264,-19 264,0 324,0 324,-19"/>
<text text-anchor="middle" x="294" y="-7" font-family="Helvetica,sans-Serif" font-size="10.00" fill="#000000">sys/stat.h</text>
</a>
</g>
</g>
<!-- Node1&#45;&gt;Node6 -->
<g id="edge11_Node000001_Node000006" class="edge">
<title>Node1&#45;&gt;Node6</title>
<g id="a_edge11_Node000001_Node000006"><a xlink:title=" ">
<path fill="none" stroke="#63b8ff" d="M324.7064,-109.8888C311.1425,-101.3717 296.5315,-89.3378 289,-74 282.1931,-60.1377 284.1407,-42.5592 287.4023,-29.2556"/>
<polygon fill="#63b8ff" stroke="#63b8ff" points="290.8765,-29.8398 290.2877,-19.2614 284.1512,-27.8981 290.8765,-29.8398"/>
</a>
</g>
</g>
<!-- Node8 -->
<g id="Node000008" class="node">
<title>Node8</title>
<g id="a_Node000008"><a xlink:title=" ">
<polygon fill="#e0e0e0" stroke="#999999" points="346,-74 298,-74 298,-55 346,-55 346,-74"/>
<text text-anchor="middle" x="322" y="-62" font-family="Helvetica,sans-Serif" font-size="10.00" fill="#000000">stdlib.h</text>
</a>
</g>
</g>
<!-- Node1&#45;&gt;Node8 -->
<g id="edge7_Node000001_Node000008" class="edge">
<title>Node1&#45;&gt;Node8</title>
<g id="a_edge7_Node000001_Node000008"><a xlink:title=" ">
<path fill="none" stroke="#63b8ff" d="M346.6727,-109.7333C342.2334,-101.5946 336.7382,-91.52 332.0614,-82.946"/>
<polygon fill="#63b8ff" stroke="#63b8ff" points="335.0902,-81.1894 327.2289,-74.0864 328.9449,-84.5414 335.0902,-81.1894"/>
</a>
</g>
</g>
<!-- Node9 -->
<g id="Node000009" class="node">
<title>Node9</title>
<g id="a_Node000009"><a xlink:title=" ">
<polygon fill="#e0e0e0" stroke="#999999" points="413.5,-74 364.5,-74 364.5,-55 413.5,-55 413.5,-74"/>
<text text-anchor="middle" x="389" y="-62" font-family="Helvetica,sans-Serif" font-size="10.00" fill="#000000">string.h</text>
</a>
</g>
</g>
<!-- Node1&#45;&gt;Node9 -->
<g id="edge8_Node000001_Node000009" class="edge">
<title>Node1&#45;&gt;Node9</title>
<g id="a_edge8_Node000001_Node000009"><a xlink:title=" ">
<path fill="none" stroke="#63b8ff" d="M363.5796,-109.7333C368.1534,-101.5946 373.8152,-91.52 378.6337,-82.946"/>
<polygon fill="#63b8ff" stroke="#63b8ff" points="381.7645,-84.5188 383.6126,-74.0864 375.6622,-81.0894 381.7645,-84.5188"/>
</a>
</g>
</g>
<!-- Node10 -->
<g id="Node000010" class="node">
<title>Node10</title>
<g id="a_Node000010"><a xlink:title=" ">
<polygon fill="#e0e0e0" stroke="#999999" points="478.5,-74 431.5,-74 431.5,-55 478.5,-55 478.5,-74"/>
<text text-anchor="middle" x="455" y="-62" font-family="Helvetica,sans-Serif" font-size="10.00" fill="#000000">errno.h</text>
</a>
</g>
</g>
<!-- Node1&#45;&gt;Node10 -->
<g id="edge9_Node000001_Node000010" class="edge">
<title>Node1&#45;&gt;Node10</title>
<g id="a_edge9_Node000001_Node000010"><a xlink:title=" ">
<path fill="none" stroke="#63b8ff" d="M379.9763,-109.8894C395.3066,-100.6145 414.8655,-88.7814 430.169,-79.5228"/>
<polygon fill="#63b8ff" stroke="#63b8ff" points="432.3275,-82.3076 439.0718,-74.1366 428.704,-76.3184 432.3275,-82.3076"/>
</a>
</g>
</g>
<!-- Node11 -->
<g id="Node000011" class="node">
<title>Node11</title>
<g id="a_Node000011"><a xlink:title=" ">
<polygon fill="#e0e0e0" stroke="#999999" points="545,-74 497,-74 497,-55 545,-55 545,-74"/>
<text text-anchor="middle" x="521" y="-62" font-family="Helvetica,sans-Serif" font-size="10.00" fill="#000000">limits.h</text>
</a>
</g>
</g>
<!-- Node1&#45;&gt;Node11 -->
<g id="edge10_Node000001_Node000011" class="edge">
<title>Node1&#45;&gt;Node11</title>
<g id="a_edge10_Node000001_Node000011"><a xlink:title=" ">
<path fill="none" stroke="#63b8ff" d="M396.4606,-109.8894C424.561,-99.6479 461.2203,-86.2872 487.4768,-76.7178"/>
<polygon fill="#63b8ff" stroke="#63b8ff" points="488.7941,-79.963 496.991,-73.2503 486.3971,-73.3862 488.7941,-79.963"/>
</a>
</g>
</g>
<!-- Node3 -->
<g id="Node000003" class="node">
<title>Node3</title>
<g id="a_Node000003"><a xlink:title=" ">
<polygon fill="#e0e0e0" stroke="#999999" points="52,-19 0,-19 0,0 52,0 52,-19"/>
<text text-anchor="middle" x="26" y="-7" font-family="Helvetica,sans-Serif" font-size="10.00" fill="#000000">stdarg.h</text>
</a>
</g>
</g>
<!-- Node2&#45;&gt;Node3 -->
<g id="edge2_Node000002_Node000003" class="edge">
<title>Node2&#45;&gt;Node3</title>
<g id="a_edge2_Node000002_Node000003"><a xlink:title=" ">
<path fill="none" stroke="#63b8ff" d="M165.3292,-55.6633C137.2116,-46.3472 92.7639,-31.6206 61.6522,-21.3125"/>
<polygon fill="#63b8ff" stroke="#63b8ff" points="62.6506,-17.9562 52.0573,-18.1334 60.449,-24.601 62.6506,-17.9562"/>
</a>
</g>
</g>
<!-- Node4 -->
<g id="Node000004" class="node">
<title>Node4</title>
<g id="a_Node000004"><a xlink:title=" ">
<polygon fill="#e0e0e0" stroke="#999999" points="119.5,-19 70.5,-19 70.5,0 119.5,0 119.5,-19"/>
<text text-anchor="middle" x="95" y="-7" font-family="Helvetica,sans-Serif" font-size="10.00" fill="#000000">stdint.h</text>
</a>
</g>
</g>
<!-- Node2&#45;&gt;Node4 -->
<g id="edge3_Node000002_Node000004" class="edge">
<title>Node2&#45;&gt;Node4</title>
<g id="a_edge3_Node000002_Node000004"><a xlink:title=" ">
<path fill="none" stroke="#63b8ff" d="M175.1039,-54.9197C160.1736,-46.4541 138.166,-33.9755 120.9945,-24.2391"/>
<polygon fill="#63b8ff" stroke="#63b8ff" points="122.4533,-21.0428 112.028,-19.155 119.0005,-27.1321 122.4533,-21.0428"/>
</a>
</g>
</g>
<!-- Node5 -->
<g id="Node000005" class="node">
<title>Node5</title>
<g id="a_Node000005"><a xlink:title=" ">
<polygon fill="#e0e0e0" stroke="#999999" points="184,-19 138,-19 138,0 184,0 184,-19"/>
<text text-anchor="middle" x="161" y="-7" font-family="Helvetica,sans-Serif" font-size="10.00" fill="#000000">stdio.h</text>
</a>
</g>
</g>
<!-- Node2&#45;&gt;Node5 -->
<g id="edge4_Node000002_Node000005" class="edge">
<title>Node2&#45;&gt;Node5</title>
<g id="a_edge4_Node000002_Node000005"><a xlink:title=" ">
<path fill="none" stroke="#63b8ff" d="M186.6002,-54.9197C182.4727,-47.5967 176.6527,-37.2709 171.6047,-28.3147"/>
<polygon fill="#63b8ff" stroke="#63b8ff" points="174.5059,-26.3338 166.5466,-19.3408 168.4078,-29.7709 174.5059,-26.3338"/>
</a>
</g>
</g>
<!-- Node2&#45;&gt;Node6 -->
<g id="edge5_Node000002_Node000006" class="edge">
<title>Node2&#45;&gt;Node6</title>
<g id="a_edge5_Node000002_Node000006"><a xlink:title=" ">
<path fill="none" stroke="#63b8ff" d="M209.767,-54.9197C225.6123,-46.3757 249.0382,-33.7441 267.1659,-23.9694"/>
<polygon fill="#63b8ff" stroke="#63b8ff" points="268.9535,-26.9819 276.0943,-19.155 265.6312,-20.8205 268.9535,-26.9819"/>
</a>
</g>
</g>
<!-- Node7 -->
<g id="Node000007" class="node">
<title>Node7</title>
<g id="a_Node000007"><a xlink:title=" ">
<polygon fill="#e0e0e0" stroke="#999999" points="246,-19 202,-19 202,0 246,0 246,-19"/>
<text text-anchor="middle" x="224" y="-7" font-family="Helvetica,sans-Serif" font-size="10.00" fill="#000000">time.h</text>
</a>
</g>
</g>
<!-- Node2&#45;&gt;Node7 -->
<g id="edge6_Node000002_Node000007" class="edge">
<title>Node2&#45;&gt;Node7</title>
<g id="a_edge6_Node000002_Node000007"><a xlink:title=" ">
<path fill="none" stroke="#63b8ff" d="M197.574,-54.9197C201.88,-47.5188 207.9704,-37.0509 213.2193,-28.0294"/>
<polygon fill="#63b8ff" stroke="#63b8ff" points="216.2707,-29.7445 218.2744,-19.3408 210.2202,-26.2242 216.2707,-29.7445"/>
</a>
</g>
</g>
</g>
</svg>
