<?xml version="1.0" encoding="UTF-8" standalone="no"?>
<!DOCTYPE svg PUBLIC "-//W3C//DTD SVG 1.1//EN"
 "http://www.w3.org/Graphics/SVG/1.1/DTD/svg11.dtd">
<!-- Generated by graphviz version 2.40.1 (0)
 -->
<!-- Title: util/libsrc/libutil/file&#45;util.c Pages: 1 -->
<svg width="553pt" height="148pt"
 viewBox="0.00 0.00 553.00 148.00" xmlns="http://www.w3.org/2000/svg" xmlns:xlink="http://www.w3.org/1999/xlink">
<g id="graph0" class="graph" transform="scale(1 1) rotate(0) translate(4 144)">
<title>util/libsrc/libutil/file&#45;util.c</title>
<!-- Node1 -->
<g id="Node000001" class="node">
<title>Node1</title>
<g id="a_Node000001"><a xlink:title=" ">
<polygon fill="#999999" stroke="#666666" points="395.5,-140 314.5,-140 314.5,-110 395.5,-110 395.5,-140"/>
<text text-anchor="start" x="322.5" y="-128" font-family="Helvetica,sans-Serif" font-size="10.00" fill="#000000">util/libsrc/libutil</text>
<text text-anchor="middle" x="355" y="-117" font-family="Helvetica,sans-Serif" font-size="10.00" fill="#000000">/file&#45;util.c</text>
</a>
</g>
</g>
<!-- Node2 -->
<g id="Node000002" class="node">
<title>Node2</title>
<g id="a_Node000002"><a xlink:href="file-util_8h.html" target="_top" xlink:title=" ">
<polygon fill="#ffffff" stroke="#666666" points="217.5,-74 164.5,-74 164.5,-55 217.5,-55 217.5,-74"/>
<text text-anchor="middle" x="191" y="-62" font-family="Helvetica,sans-Serif" font-size="10.00" fill="#000000">file&#45;util.h</text>
</a>
</g>
</g>
<!-- Node1&#45;&gt;Node2 -->
<g id="edge1_Node000001_Node000002" class="edge">
<title>Node1&#45;&gt;Node2</title>
<g id="a_edge1_Node000001_Node000002"><a xlink:title=" ">
<path fill="none" stroke="#63b8ff" d="M314.4607,-110.0449C287.3777,-100.054 252.1063,-87.0423 226.2017,-77.486"/>
<polygon fill="#63b8ff" stroke="#63b8ff" points="227.3621,-74.1836 216.7687,-74.0061 224.9393,-80.7509 227.3621,-74.1836"/>
</a>
</g>
</g>
<!-- Node5 -->
<g id="Node000005" class="node">
<title>Node5</title>
<g id="a_Node000005"><a xlink:title=" ">
<polygon fill="#e0e0e0" stroke="#999999" points="324,-19 264,-19 264,0 324,0 324,-19"/>
<text text-anchor="middle" x="294" y="-7" font-family="Helvetica,sans-Serif" font-size="10.00" fill="#000000">sys/stat.h</text>
</a>
</g>
</g>
<!-- Node1&#45;&gt;Node5 -->
<g id="edge11_Node000001_Node000005" class="edge">
<title>Node1&#45;&gt;Node5</title>
<g id="a_edge11_Node000001_Node000005"><a xlink:title=" ">
<path fill="none" stroke="#63b8ff" d="M324.7064,-109.8888C311.1425,-101.3717 296.5315,-89.3378 289,-74 282.1931,-60.1377 284.1407,-42.5592 287.4023,-29.2556"/>
<polygon fill="#63b8ff" stroke="#63b8ff" points="290.8765,-29.8398 290.2877,-19.2614 284.1512,-27.8981 290.8765,-29.8398"/>
</a>
</g>
</g>
<!-- Node8 -->
<g id="Node000008" class="node">
<title>Node8</title>
<g id="a_Node000008"><a xlink:title=" ">
<polygon fill="#e0e0e0" stroke="#999999" points="346,-74 298,-74 298,-55 346,-55 346,-74"/>
<text text-anchor="middle" x="322" y="-62" font-family="Helvetica,sans-Serif" font-size="10.00" fill="#000000">stdlib.h</text>
</a>
</g>
</g>
<!-- Node1&#45;&gt;Node8 -->
<g id="edge7_Node000001_Node000008" class="edge">
<title>Node1&#45;&gt;Node8</title>
<g id="a_edge7_Node000001_Node000008"><a xlink:title=" ">
<path fill="none" stroke="#63b8ff" d="M346.6727,-109.7333C342.2334,-101.5946 336.7382,-91.52 332.0614,-82.946"/>
<polygon fill="#63b8ff" stroke="#63b8ff" points="335.0902,-81.1894 327.2289,-74.0864 328.9449,-84.5414 335.0902,-81.1894"/>
</a>
</g>
</g>
<!-- Node9 -->
<g id="Node000009" class="node">
<title>Node9</title>
<g id="a_Node000009"><a xlink:title=" ">
<polygon fill="#e0e0e0" stroke="#999999" points="413.5,-74 364.5,-74 364.5,-55 413.5,-55 413.5,-74"/>
<text text-anchor="middle" x="389" y="-62" font-family="Helvetica,sans-Serif" font-size="10.00" fill="#000000">string.h</text>
</a>
</g>
</g>
<!-- Node1&#45;&gt;Node9 -->
<g id="edge8_Node000001_Node000009" class="edge">
<title>Node1&#45;&gt;Node9</title>
<g id="a_edge8_Node000001_Node000009"><a xlink:title=" ">
<path fill="none" stroke="#63b8ff" d="M363.5796,-109.7333C368.1534,-101.5946 373.8152,-91.52 378.6337,-82.946"/>
<polygon fill="#63b8ff" stroke="#63b8ff" points="381.7645,-84.5188 383.6126,-74.0864 375.6622,-81.0894 381.7645,-84.5188"/>
</a>
</g>
</g>
<!-- Node10 -->
<g id="Node000010" class="node">
<title>Node10</title>
<g id="a_Node000010"><a xlink:title=" ">
<polygon fill="#e0e0e0" stroke="#999999" points="478.5,-74 431.5,-74 431.5,-55 478.5,-55 478.5,-74"/>
<text text-anchor="middle" x="455" y="-62" font-family="Helvetica,sans-Serif" font-size="10.00" fill="#000000">errno.h</text>
</a>
</g>
</g>
<!-- Node1&#45;&gt;Node10 -->
<g id="edge9_Node000001_Node000010" class="edge">
<title>Node1&#45;&gt;Node10</title>
<g id="a_edge9_Node000001_Node000010"><a xlink:title=" ">
<path fill="none" stroke="#63b8ff" d="M379.9763,-109.8894C395.3066,-100.6145 414.8655,-88.7814 430.169,-79.5228"/>
<polygon fill="#63b8ff" stroke="#63b8ff" points="432.3275,-82.3076 439.0718,-74.1366 428.704,-76.3184 432.3275,-82.3076"/>
</a>
</g>
</g>
<!-- Node11 -->
<g id="Node000011" class="node">
<title>Node11</title>
<g id="a_Node000011"><a xlink:title=" ">
<polygon fill="#e0e0e0" stroke="#999999" points="545,-74 497,-74 497,-55 545,-55 545,-74"/>
<text text-anchor="middle" x="521" y="-62" font-family="Helvetica,sans-Serif" font-size="10.00" fill="#000000">limits.h</text>
</a>
</g>
</g>
<!-- Node1&#45;&gt;Node11 -->
<g id="edge10_Node000001_Node000011" class="edge">
<title>Node1&#45;&gt;Node11</title>
<g id="a_edge10_Node000001_Node000011"><a xlink:title=" ">
<path fill="none" stroke="#63b8ff" d="M395.6082,-110.2C423.6949,-99.9636 460.6346,-86.5007 487.1339,-76.8428"/>
<polygon fill="#63b8ff" stroke="#63b8ff" points="488.5417,-80.055 496.7386,-73.3423 486.1446,-73.4782 488.5417,-80.055"/>
</a>
</g>
</g>
<!-- Node3 -->
<g id="Node000003" class="node">
<title>Node3</title>
<g id="a_Node000003"><a xlink:title=" ">
<polygon fill="#e0e0e0" stroke="#999999" points="46,-19 0,-19 0,0 46,0 46,-19"/>
<text text-anchor="middle" x="23" y="-7" font-family="Helvetica,sans-Serif" font-size="10.00" fill="#000000">stdio.h</text>
</a>
</g>
</g>
<!-- Node2&#45;&gt;Node3 -->
<g id="edge2_Node000002_Node000003" class="edge">
<title>Node2&#45;&gt;Node3</title>
<g id="a_edge2_Node000002_Node000003"><a xlink:title=" ">
<path fill="none" stroke="#63b8ff" d="M164.3799,-55.7851C134.9925,-46.1642 87.6569,-30.6674 55.9515,-20.2877"/>
<polygon fill="#63b8ff" stroke="#63b8ff" points="56.842,-16.8965 46.2494,-17.1114 54.6641,-23.5491 56.842,-16.8965"/>
</a>
</g>
</g>
<!-- Node4 -->
<g id="Node000004" class="node">
<title>Node4</title>
<g id="a_Node000004"><a xlink:title=" ">
<polygon fill="#e0e0e0" stroke="#999999" points="116,-19 64,-19 64,0 116,0 116,-19"/>
<text text-anchor="middle" x="90" y="-7" font-family="Helvetica,sans-Serif" font-size="10.00" fill="#000000">stdarg.h</text>
</a>
</g>
</g>
<!-- Node2&#45;&gt;Node4 -->
<g id="edge3_Node000002_Node000004" class="edge">
<title>Node2&#45;&gt;Node4</title>
<g id="a_edge3_Node000002_Node000004"><a xlink:title=" ">
<path fill="none" stroke="#63b8ff" d="M173.4071,-54.9197C157.7172,-46.3757 134.521,-33.7441 116.5711,-23.9694"/>
<polygon fill="#63b8ff" stroke="#63b8ff" points="118.1863,-20.8637 107.7301,-19.155 114.8386,-27.0113 118.1863,-20.8637"/>
</a>
</g>
</g>
<!-- Node2&#45;&gt;Node5 -->
<g id="edge4_Node000002_Node000005" class="edge">
<title>Node2&#45;&gt;Node5</title>
<g id="a_edge4_Node000002_Node000005"><a xlink:title=" ">
<path fill="none" stroke="#63b8ff" d="M208.9412,-54.9197C224.9418,-46.3757 248.5974,-33.7441 266.9028,-23.9694"/>
<polygon fill="#63b8ff" stroke="#63b8ff" points="268.7462,-26.9528 275.9188,-19.155 265.449,-20.778 268.7462,-26.9528"/>
</a>
</g>
</g>
<!-- Node6 -->
<g id="Node000006" class="node">
<title>Node6</title>
<g id="a_Node000006"><a xlink:title=" ">
<polygon fill="#e0e0e0" stroke="#999999" points="183.5,-19 134.5,-19 134.5,0 183.5,0 183.5,-19"/>
<text text-anchor="middle" x="159" y="-7" font-family="Helvetica,sans-Serif" font-size="10.00" fill="#000000">stdint.h</text>
</a>
</g>
</g>
<!-- Node2&#45;&gt;Node6 -->
<g id="edge5_Node000002_Node000006" class="edge">
<title>Node2&#45;&gt;Node6</title>
<g id="a_edge5_Node000002_Node000006"><a xlink:title=" ">
<path fill="none" stroke="#63b8ff" d="M185.426,-54.9197C181.12,-47.5188 175.0296,-37.0509 169.7807,-28.0294"/>
<polygon fill="#63b8ff" stroke="#63b8ff" points="172.7798,-26.2242 164.7256,-19.3408 166.7293,-29.7445 172.7798,-26.2242"/>
</a>
</g>
</g>
<!-- Node7 -->
<g id="Node000007" class="node">
<title>Node7</title>
<g id="a_Node000007"><a xlink:title=" ">
<polygon fill="#e0e0e0" stroke="#999999" points="246,-19 202,-19 202,0 246,0 246,-19"/>
<text text-anchor="middle" x="224" y="-7" font-family="Helvetica,sans-Serif" font-size="10.00" fill="#000000">time.h</text>
</a>
</g>
</g>
<!-- Node2&#45;&gt;Node7 -->
<g id="edge6_Node000002_Node000007" class="edge">
<title>Node2&#45;&gt;Node7</title>
<g id="a_edge6_Node000002_Node000007"><a xlink:title=" ">
<path fill="none" stroke="#63b8ff" d="M196.7482,-54.9197C201.1887,-47.5188 207.4695,-37.0509 212.8824,-28.0294"/>
<polygon fill="#63b8ff" stroke="#63b8ff" points="215.9517,-29.7165 218.0955,-19.3408 209.9493,-26.115 215.9517,-29.7165"/>
</a>
</g>
</g>
</g>
</svg>
