<svg xmlns="http://www.w3.org/2000/svg" xmlns:xlink="http://www.w3.org/1999/xlink" contentStyleType="text/css" data-diagram-type="DESCRIPTION" height="148px" preserveAspectRatio="none" style="width:1181px;height:148px;" version="1.1" viewBox="0 0 1181 148" width="1181px" zoomAndPan="magnify"><defs/><g><!--entity current--><g class="entity" data-entity="current" data-source-line="5" data-uid="ent0002" id="entity_current"><rect fill="#ADD8E6" height="37.7799" rx="2.5" ry="2.5" style="stroke:#181818;stroke-width:0.5;" width="49.7499" x="625.5" y="7"/><text fill="#000000" font-family="'Segoe UI', 'メイリオ', 'UDEV Gothic HSRFJPDOC', 'Hiragino Kaku Gothic ProN', 'ヒラギノ角ゴ ProN', 'Noto Sans JP', 'Helvetica Neue', Helvetica, Arial, sans-serif" font-size="14" font-weight="bold" lengthAdjust="spacing" textLength="29.7499" x="635.5" y="30.9999">main</text></g><!--entity r0--><g class="entity" data-entity="r0" data-source-line="6" data-uid="ent0003" id="entity_r0"><rect fill="#F1F1F1" height="37.7799" rx="2.5" ry="2.5" style="stroke:#181818;stroke-width:0.5;" width="40.9999" x="7" y="105"/><text fill="#000000" font-family="'Segoe UI', 'メイリオ', 'UDEV Gothic HSRFJPDOC', 'Hiragino Kaku Gothic ProN', 'ヒラギノ角ゴ ProN', 'Noto Sans JP', 'Helvetica Neue', Helvetica, Arial, sans-serif" font-size="14" lengthAdjust="spacing" textLength="20.9999" x="17" y="128.9999">add</text></g><!--entity r1--><g class="entity" data-entity="r1" data-source-line="7" data-uid="ent0004" id="entity_r1"><rect fill="#F1F1F1" height="37.7799" rx="2.5" ry="2.5" style="stroke:#181818;stroke-width:0.5;" width="110.9996" x="83" y="105"/><text fill="#000000" font-family="'Segoe UI', 'メイリオ', 'UDEV Gothic HSRFJPDOC', 'Hiragino Kaku Gothic ProN', 'ヒラギノ角ゴ ProN', 'Noto Sans JP', 'Helvetica Neue', Helvetica, Arial, sans-serif" font-size="14" lengthAdjust="spacing" textLength="90.9996" x="93" y="128.9999">CALC_KIND_ADD</text></g><!--entity r2--><g class="entity" data-entity="r2" data-source-line="8" data-uid="ent0005" id="entity_r2"><rect fill="#F1F1F1" height="37.7799" rx="2.5" ry="2.5" style="stroke:#181818;stroke-width:0.5;" width="131.9995" x="229.5" y="105"/><text fill="#000000" font-family="'Segoe UI', 'メイリオ', 'UDEV Gothic HSRFJPDOC', 'Hiragino Kaku Gothic ProN', 'ヒラギノ角ゴ ProN', 'Noto Sans JP', 'Helvetica Neue', Helvetica, Arial, sans-serif" font-size="14" lengthAdjust="spacing" textLength="111.9995" x="239.5" y="128.9999">CALC_KIND_DIVIDE</text></g><!--entity r3--><g class="entity" data-entity="r3" data-source-line="9" data-uid="ent0006" id="entity_r3"><rect fill="#F1F1F1" height="37.7799" rx="2.5" ry="2.5" style="stroke:#181818;stroke-width:0.5;" width="145.9995" x="396.5" y="105"/><text fill="#000000" font-family="'Segoe UI', 'メイリオ', 'UDEV Gothic HSRFJPDOC', 'Hiragino Kaku Gothic ProN', 'ヒラギノ角ゴ ProN', 'Noto Sans JP', 'Helvetica Neue', Helvetica, Arial, sans-serif" font-size="14" lengthAdjust="spacing" textLength="125.9995" x="406.5" y="128.9999">CALC_KIND_MULTIPLY</text></g><!--entity r4--><g class="entity" data-entity="r4" data-source-line="10" data-uid="ent0007" id="entity_r4"><rect fill="#F1F1F1" height="37.7799" rx="2.5" ry="2.5" style="stroke:#181818;stroke-width:0.5;" width="145.9995" x="577.5" y="105"/><text fill="#000000" font-family="'Segoe UI', 'メイリオ', 'UDEV Gothic HSRFJPDOC', 'Hiragino Kaku Gothic ProN', 'ヒラギノ角ゴ ProN', 'Noto Sans JP', 'Helvetica Neue', Helvetica, Arial, sans-serif" font-size="14" lengthAdjust="spacing" textLength="125.9995" x="587.5" y="128.9999">CALC_KIND_SUBTRACT</text></g><!--entity r5--><g class="entity" data-entity="r5" data-source-line="11" data-uid="ent0008" id="entity_r5"><rect fill="#F1F1F1" height="37.7799" rx="2.5" ry="2.5" style="stroke:#181818;stroke-width:0.5;" width="96.9997" x="759" y="105"/><text fill="#000000" font-family="'Segoe UI', 'メイリオ', 'UDEV Gothic HSRFJPDOC', 'Hiragino Kaku Gothic ProN', 'ヒラギノ角ゴ ProN', 'Noto Sans JP', 'Helvetica Neue', Helvetica, Arial, sans-serif" font-size="14" lengthAdjust="spacing" textLength="76.9997" x="769" y="128.9999">calcHandler</text></g><!--entity r6--><g class="entity" data-entity="r6" data-source-line="12" data-uid="ent0009" id="entity_r6"><rect fill="#F1F1F1" height="37.7799" rx="2.5" ry="2.5" style="stroke:#181818;stroke-width:0.5;" width="61.9998" x="891.5" y="105"/><text fill="#000000" font-family="'Segoe UI', 'メイリオ', 'UDEV Gothic HSRFJPDOC', 'Hiragino Kaku Gothic ProN', 'ヒラギノ角ゴ ProN', 'Noto Sans JP', 'Helvetica Neue', Helvetica, Arial, sans-serif" font-size="14" lengthAdjust="spacing" textLength="41.9998" x="901.5" y="128.9999">divide</text></g><!--entity r7--><g class="entity" data-entity="r7" data-source-line="13" data-uid="ent0010" id="entity_r7"><rect fill="#F1F1F1" height="37.7799" rx="2.5" ry="2.5" style="stroke:#181818;stroke-width:0.5;" width="75.9998" x="988.5" y="105"/><text fill="#000000" font-family="'Segoe UI', 'メイリオ', 'UDEV Gothic HSRFJPDOC', 'Hiragino Kaku Gothic ProN', 'ヒラギノ角ゴ ProN', 'Noto Sans JP', 'Helvetica Neue', Helvetica, Arial, sans-serif" font-size="14" lengthAdjust="spacing" textLength="55.9998" x="998.5" y="128.9999">multiply</text></g><!--entity r8--><g class="entity" data-entity="r8" data-source-line="14" data-uid="ent0011" id="entity_r8"><rect fill="#F1F1F1" height="37.7799" rx="2.5" ry="2.5" style="stroke:#181818;stroke-width:0.5;" width="75.9998" x="1099.5" y="105"/><text fill="#000000" font-family="'Segoe UI', 'メイリオ', 'UDEV Gothic HSRFJPDOC', 'Hiragino Kaku Gothic ProN', 'ヒラギノ角ゴ ProN', 'Noto Sans JP', 'Helvetica Neue', Helvetica, Arial, sans-serif" font-size="14" lengthAdjust="spacing" textLength="55.9998" x="1109.5" y="128.9999">subtract</text></g><!--link current to r0--><g class="link" data-entity-1="current" data-entity-2="r0" data-source-line="15" data-uid="lnk12" id="link_current_r0"><path d="M625.3525,26.4659 C543.0647,28.6018 275.0898,40.4098 65.5,105 C59.72,106.7813 59.1221,106.7108 53.6687,109.408" fill="none" id="current-to-r0" style="stroke:#181818;stroke-width:1;"/><polygon fill="#181818" points="48.2906,112.068,58.1311,111.6635,52.7724,109.8513,54.5845,104.4926,48.2906,112.068" style="stroke:#181818;stroke-width:1;"/></g><!--link current to r1--><g class="link" data-entity-1="current" data-entity-2="r1" data-source-line="16" data-uid="lnk13" id="link_current_r1"><path d="M625.1258,29.8686 C557.5434,40.3227 367.6851,70.6743 211.5,105 C205.8721,106.2369 205.8506,106.1842 200.0214,107.61" fill="none" id="current-to-r1" style="stroke:#181818;stroke-width:1;"/><polygon fill="#181818" points="194.1932,109.0356,203.8859,110.7827,199.05,107.8476,201.9851,103.0118,194.1932,109.0356" style="stroke:#181818;stroke-width:1;"/></g><!--link current to r2--><g class="link" data-entity-1="current" data-entity-2="r2" data-source-line="17" data-uid="lnk14" id="link_current_r2"><path d="M625.2539,32.9694 C570.9212,47.9682 447.1775,82.1285 367.5889,104.0994" fill="none" id="current-to-r2" style="stroke:#181818;stroke-width:1;"/><polygon fill="#181818" points="361.8052,105.696,371.5451,107.1569,366.6249,104.3655,369.4163,99.4453,361.8052,105.696" style="stroke:#181818;stroke-width:1;"/></g><!--link current to r3--><g class="link" data-entity-1="current" data-entity-2="r3" data-source-line="18" data-uid="lnk15" id="link_current_r3"><path d="M625.3327,39.6265 C593.9577,56.6141 545.4265,82.8906 509.9769,102.0843" fill="none" id="current-to-r3" style="stroke:#181818;stroke-width:1;"/><polygon fill="#181818" points="504.7006,104.9411,514.5195,104.1735,509.0975,102.5605,510.7105,97.1385,504.7006,104.9411" style="stroke:#181818;stroke-width:1;"/></g><!--link current to r4--><g class="link" data-entity-1="current" data-entity-2="r4" data-source-line="19" data-uid="lnk16" id="link_current_r4"><path d="M650.5,45.3616 C650.5,62.5424 650.5,81.51 650.5,98.6786" fill="none" id="current-to-r4" style="stroke:#181818;stroke-width:1;"/><polygon fill="#181818" points="650.5,104.6786,654.5,95.6786,650.5,99.6786,646.5,95.6786,650.5,104.6786" style="stroke:#181818;stroke-width:1;"/></g><!--link current to r5--><g class="link" data-entity-1="current" data-entity-2="r5" data-source-line="20" data-uid="lnk17" id="link_current_r5"><path d="M675.7248,41.7454 C703.2891,58.9511 742.3568,83.3373 771.8626,101.7549" fill="none" id="current-to-r5" style="stroke:#181818;stroke-width:1;"/><polygon fill="#181818" points="776.9524,104.932,771.4357,96.7732,772.7109,102.2844,767.1996,103.5596,776.9524,104.932" style="stroke:#181818;stroke-width:1;"/></g><!--link current to r6--><g class="link" data-entity-1="current" data-entity-2="r6" data-source-line="21" data-uid="lnk18" id="link_current_r6"><path d="M675.6692,34.6457 C717.0671,48.9267 802.0654,78.5038 873.5,105 C879.3171,107.1577 879.9024,107.3523 885.848,109.6432" fill="none" id="current-to-r6" style="stroke:#181818;stroke-width:1;"/><polygon fill="#181818" points="891.4468,111.8005,884.4868,104.8321,886.7812,110.0028,881.6105,112.2971,891.4468,111.8005" style="stroke:#181818;stroke-width:1;"/></g><!--link current to r7--><g class="link" data-entity-1="current" data-entity-2="r7" data-source-line="22" data-uid="lnk19" id="link_current_r7"><path d="M675.6817,31.3749 C730.0902,43.1675 862.5106,72.8361 971.5,105 C977.0228,106.6299 977.12,106.5812 982.7846,108.4663" fill="none" id="current-to-r7" style="stroke:#181818;stroke-width:1;"/><polygon fill="#181818" points="988.4776,110.3609,981.2011,103.7237,983.7334,108.7821,978.675,111.3144,988.4776,110.3609" style="stroke:#181818;stroke-width:1;"/></g><!--link current to r8--><g class="link" data-entity-1="current" data-entity-2="r8" data-source-line="23" data-uid="lnk20" id="link_current_r8"><path d="M675.628,29.2344 C742.5204,38.136 930.2174,65.0197 1082.5,105 C1087.9719,106.4366 1087.9731,106.3064 1093.5549,108.1128" fill="none" id="current-to-r8" style="stroke:#181818;stroke-width:1;"/><polygon fill="#181818" points="1099.2634,109.9602,1091.9322,103.3834,1094.5063,108.4207,1089.469,110.9948,1099.2634,109.9602" style="stroke:#181818;stroke-width:1;"/></g><!--SRC=[RP1BYy8m54Rt_HL1TmLnwdiXGcq6famTHAimAxbDGWscgUGnuBzN9me9T7VFFMVrBRMv2RQAbiFNeIzSNa51WoeWbrgrLjAi5Qr2He7K3yMaYHGZ1cGj6Eh5SGDSnd4FWKR4ggT7_OBNPxCMblafKFfVgG__cwL5TlhEV_0fnTZvfDlZ_9ZZJvUCkfFDeIZpRV7hed5tj3-iorsQbIwQ-141GRv0Ki6KirFVKlx7ANDYvel62iElukRKt5VQLe_bY75g4Rqd6WnMpo42J48SXJWESHBYDCHPYFCG5tS0]--></g></svg>