<?xml version="1.0" encoding="UTF-8" standalone="no"?>
<!DOCTYPE svg PUBLIC "-//W3C//DTD SVG 1.1//EN"
 "http://www.w3.org/Graphics/SVG/1.1/DTD/svg11.dtd">
<!-- Generated by graphviz version 2.40.1 (0)
 -->
<!-- Title: console_output Pages: 1 -->
<svg width="276pt" height="103pt"
 viewBox="0.00 0.00 276.00 103.00" xmlns="http://www.w3.org/2000/svg" xmlns:xlink="http://www.w3.org/1999/xlink">

<svg id="main" version="1.1" xmlns="http://www.w3.org/2000/svg" xmlns:xlink="http://www.w3.org/1999/xlink" xml:space="preserve">

<style type="text/css"><![CDATA[
.node, .edge {opacity: 0.7;}
.node.selected, .edge.selected {opacity: 1;}
.edge:hover path { stroke: red; }
.edge:hover polygon { stroke: red; fill: red; }
]]></style>
<script type="application/ecmascript" xlink:href="svg.min.js"/>
<svg id="graph" class="graph">
<g id="graph0" class="graph" transform="scale(1 1) rotate(0) translate(4 99)">
<title>console_output</title>
<!-- Node1 -->
<g id="Node000001" class="node">
<title>Node1</title>
<g id="a_Node000001"><a xlink:title="printf と同じ書式でコンソールに出力します。">
<polygon fill="#999999" stroke="#666666" points="268,-57 185,-57 185,-38 268,-38 268,-57"/>
<text text-anchor="middle" x="226.5" y="-45" font-family="Helvetica,sans-Serif" font-size="10.00" fill="#000000">console_output</text>
</a>
</g>
</g>
<!-- Node2 -->
<g id="Node000002" class="node">
<title>Node2</title>
<g id="a_Node000002"><a xlink:href="func_8c.html#a93e538b93356962ce68c563834cd7cb6" target="_top" xlink:title="useOverride フラグに従い計算処理を行います。">
<polygon fill="#ffffff" stroke="#666666" points="129,-95 94,-95 94,-76 129,-76 129,-95"/>
<text text-anchor="middle" x="111.5" y="-83" font-family="Helvetica,sans-Serif" font-size="10.00" fill="#000000">func</text>
</a>
</g>
</g>
<!-- Node1&#45;&gt;Node2 -->
<g id="edge1_Node000001_Node000002" class="edge">
<title>Node1&#45;&gt;Node2</title>
<g id="a_edge1_Node000001_Node000002"><a xlink:title=" ">
<path fill="none" stroke="#63b8ff" d="M187.7385,-60.3081C167.8447,-66.8818 144.5909,-74.5656 129.0442,-79.7028"/>
<polygon fill="#63b8ff" stroke="#63b8ff" points="189.0837,-63.5498 197.4806,-57.089 186.8874,-56.9033 189.0837,-63.5498"/>
</a>
</g>
</g>
<!-- Node3 -->
<g id="Node000003" class="node">
<title>Node3</title>
<g id="a_Node000003"><a xlink:href="override-sample_8c.html#a840291bc02cba5474a4cb46a9b9566fe" target="_top" xlink:title="メインエントリポイント。">
<polygon fill="#ffffff" stroke="#666666" points="38,-76 0,-76 0,-57 38,-57 38,-76"/>
<text text-anchor="middle" x="19" y="-64" font-family="Helvetica,sans-Serif" font-size="10.00" fill="#000000">main</text>
</a>
</g>
</g>
<!-- Node1&#45;&gt;Node3 -->
<g id="edge4_Node000001_Node000003" class="edge">
<title>Node1&#45;&gt;Node3</title>
<g id="a_edge4_Node000001_Node000003"><a xlink:title=" ">
<path fill="none" stroke="#63b8ff" d="M174.477,-52.2636C130.13,-56.3242 68.839,-61.9364 38.1405,-64.7474"/>
<polygon fill="#63b8ff" stroke="#63b8ff" points="174.8701,-55.7423 184.5093,-51.3449 174.2318,-48.7715 174.8701,-55.7423"/>
</a>
</g>
</g>
<!-- Node4 -->
<g id="Node000004" class="node">
<title>Node4</title>
<g id="a_Node000004"><a xlink:href="func__override_8c.html#ae5d30cdc55268aaf3ed5d89465148649" target="_top" xlink:title="func のオーバーライド実装です。">
<polygon fill="#ffffff" stroke="#666666" points="149,-19 74,-19 74,0 149,0 149,-19"/>
<text text-anchor="middle" x="111.5" y="-7" font-family="Helvetica,sans-Serif" font-size="10.00" fill="#000000">func_override</text>
</a>
</g>
</g>
<!-- Node1&#45;&gt;Node4 -->
<g id="edge3_Node000001_Node000004" class="edge">
<title>Node1&#45;&gt;Node4</title>
<g id="a_edge3_Node000001_Node000004"><a xlink:title=" ">
<path fill="none" stroke="#63b8ff" d="M187.6847,-34.6741C172.2541,-29.5753 154.8093,-23.8109 140.5101,-19.0859"/>
<polygon fill="#63b8ff" stroke="#63b8ff" points="186.8874,-38.0967 197.4806,-37.911 189.0837,-31.4502 186.8874,-38.0967"/>
</a>
</g>
</g>
<!-- Node2&#45;&gt;Node3 -->
<g id="edge2_Node000002_Node000003" class="edge">
<title>Node2&#45;&gt;Node3</title>
<g id="a_edge2_Node000002_Node000003"><a xlink:title=" ">
<path fill="none" stroke="#63b8ff" d="M83.5774,-79.7645C68.8595,-76.7414 51.1877,-73.1115 38.0539,-70.4138"/>
<polygon fill="#63b8ff" stroke="#63b8ff" points="83.1653,-83.2529 93.6651,-81.8366 84.5738,-76.3961 83.1653,-83.2529"/>
</a>
</g>
</g>
</g>
</svg>
</svg>

<style type='text/css'>
<![CDATA[
[data-mouse-over-selected='false'] { opacity: 0.7; }
[data-mouse-over-selected='true']  { opacity: 1.0; }
]]>
</style>
<script type="application/ecmascript"><![CDATA[
document.addEventListener('DOMContentLoaded', (event) => {
  highlightEdges();
  highlightAdjacentNodes();
});
]]></script>
</svg>
