<?xml version="1.0" encoding="UTF-8" standalone="no"?>
<!DOCTYPE svg PUBLIC "-//W3C//DTD SVG 1.1//EN"
 "http://www.w3.org/Graphics/SVG/1.1/DTD/svg11.dtd">
<!-- Generated by graphviz version 2.40.1 (0)
 -->
<!-- Title: override&#45;sample/libsrc/base/funcman/funcman_get_func.c Pages: 1 -->
<svg width="200pt" height="159pt"
 viewBox="0.00 0.00 199.50 159.00" xmlns="http://www.w3.org/2000/svg" xmlns:xlink="http://www.w3.org/1999/xlink">
<g id="graph0" class="graph" transform="scale(1 1) rotate(0) translate(4 155)">
<title>override&#45;sample/libsrc/base/funcman/funcman_get_func.c</title>
<!-- Node1 -->
<g id="Node000001" class="node">
<title>Node1</title>
<g id="a_Node000001"><a xlink:title="拡張可能な関数の動的ロードを行い、関数アドレスを返却します。">
<polygon fill="#999999" stroke="#666666" points="189,-151 67,-151 67,-110 189,-110 189,-151"/>
<text text-anchor="start" x="75" y="-139" font-family="Helvetica,sans-Serif" font-size="10.00" fill="#000000">override&#45;sample/libsrc</text>
<text text-anchor="start" x="75" y="-128" font-family="Helvetica,sans-Serif" font-size="10.00" fill="#000000">/base/funcman/funcman</text>
<text text-anchor="middle" x="128" y="-117" font-family="Helvetica,sans-Serif" font-size="10.00" fill="#000000">_get_func.c</text>
</a>
</g>
</g>
<!-- Node2 -->
<g id="Node000002" class="node">
<title>Node2</title>
<g id="a_Node000002"><a xlink:href="libbase_8h.html" target="_top" xlink:title="ベースライブラリ (動的リンク用) のヘッダーファイル。">
<polygon fill="#ffffff" stroke="#666666" points="121,-74 65,-74 65,-55 121,-55 121,-74"/>
<text text-anchor="middle" x="93" y="-62" font-family="Helvetica,sans-Serif" font-size="10.00" fill="#000000">libbase.h</text>
</a>
</g>
</g>
<!-- Node1&#45;&gt;Node2 -->
<g id="edge1_Node000001_Node000002" class="edge">
<title>Node1&#45;&gt;Node2</title>
<g id="a_edge1_Node000001_Node000002"><a xlink:title=" ">
<path fill="none" stroke="#63b8ff" d="M117.1176,-109.979C112.5599,-101.3844 107.2999,-91.4655 102.8575,-83.0884"/>
<polygon fill="#63b8ff" stroke="#63b8ff" points="105.8864,-81.3293 98.1092,-74.1345 99.7022,-84.6089 105.8864,-81.3293"/>
</a>
</g>
</g>
<!-- Node6 -->
<g id="Node000006" class="node">
<title>Node6</title>
<g id="a_Node000006"><a xlink:title=" ">
<polygon fill="#e0e0e0" stroke="#999999" points="188.5,-74 139.5,-74 139.5,-55 188.5,-55 188.5,-74"/>
<text text-anchor="middle" x="164" y="-62" font-family="Helvetica,sans-Serif" font-size="10.00" fill="#000000">string.h</text>
</a>
</g>
</g>
<!-- Node1&#45;&gt;Node6 -->
<g id="edge5_Node000001_Node000006" class="edge">
<title>Node1&#45;&gt;Node6</title>
<g id="a_edge5_Node000001_Node000006"><a xlink:title=" ">
<path fill="none" stroke="#63b8ff" d="M139.1933,-109.979C143.8812,-101.3844 149.2916,-91.4655 153.8609,-83.0884"/>
<polygon fill="#63b8ff" stroke="#63b8ff" points="157.0289,-84.5895 158.7448,-74.1345 150.8836,-81.2375 157.0289,-84.5895"/>
</a>
</g>
</g>
<!-- Node3 -->
<g id="Node000003" class="node">
<title>Node3</title>
<g id="a_Node000003"><a xlink:title=" ">
<polygon fill="#e0e0e0" stroke="#999999" points="52,-19 0,-19 0,0 52,0 52,-19"/>
<text text-anchor="middle" x="26" y="-7" font-family="Helvetica,sans-Serif" font-size="10.00" fill="#000000">stddef.h</text>
</a>
</g>
</g>
<!-- Node2&#45;&gt;Node3 -->
<g id="edge2_Node000002_Node000003" class="edge">
<title>Node2&#45;&gt;Node3</title>
<g id="a_edge2_Node000002_Node000003"><a xlink:title=" ">
<path fill="none" stroke="#63b8ff" d="M81.3295,-54.9197C71.5546,-46.8956 57.3878,-35.2661 45.8365,-25.7837"/>
<polygon fill="#63b8ff" stroke="#63b8ff" points="47.938,-22.9805 37.9879,-19.3408 43.4965,-28.3911 47.938,-22.9805"/>
</a>
</g>
</g>
<!-- Node4 -->
<g id="Node000004" class="node">
<title>Node4</title>
<g id="a_Node000004"><a xlink:title=" ">
<polygon fill="#e0e0e0" stroke="#999999" points="116,-19 70,-19 70,0 116,0 116,-19"/>
<text text-anchor="middle" x="93" y="-7" font-family="Helvetica,sans-Serif" font-size="10.00" fill="#000000">dlfcn.h</text>
</a>
</g>
</g>
<!-- Node2&#45;&gt;Node4 -->
<g id="edge3_Node000002_Node000004" class="edge">
<title>Node2&#45;&gt;Node4</title>
<g id="a_edge3_Node000002_Node000004"><a xlink:title=" ">
<path fill="none" stroke="#63b8ff" d="M93,-54.9197C93,-47.9083 93,-38.1442 93,-29.4652"/>
<polygon fill="#63b8ff" stroke="#63b8ff" points="96.5001,-29.3408 93,-19.3408 89.5001,-29.3409 96.5001,-29.3408"/>
</a>
</g>
</g>
<!-- Node5 -->
<g id="Node000005" class="node">
<title>Node5</title>
<g id="a_Node000005"><a xlink:title=" ">
<polygon fill="#e0e0e0" stroke="#999999" points="191.5,-19 134.5,-19 134.5,0 191.5,0 191.5,-19"/>
<text text-anchor="middle" x="163" y="-7" font-family="Helvetica,sans-Serif" font-size="10.00" fill="#000000">pthread.h</text>
</a>
</g>
</g>
<!-- Node2&#45;&gt;Node5 -->
<g id="edge4_Node000002_Node000005" class="edge">
<title>Node2&#45;&gt;Node5</title>
<g id="a_edge4_Node000002_Node000005"><a xlink:title=" ">
<path fill="none" stroke="#63b8ff" d="M105.1931,-54.9197C115.4056,-46.8956 130.2068,-35.2661 142.2753,-25.7837"/>
<polygon fill="#63b8ff" stroke="#63b8ff" points="144.7745,-28.2712 150.4753,-19.3408 140.4497,-22.767 144.7745,-28.2712"/>
</a>
</g>
</g>
</g>
</svg>
