<?xml version="1.0" encoding="UTF-8" standalone="no"?>
<!DOCTYPE svg PUBLIC "-//W3C//DTD SVG 1.1//EN"
 "http://www.w3.org/Graphics/SVG/1.1/DTD/svg11.dtd">
<!-- Generated by graphviz version 2.40.1 (0)
 -->
<!-- Title: override&#45;sample/libsrc/base/func.c Pages: 1 -->
<svg width="251pt" height="148pt"
 viewBox="0.00 0.00 251.00 148.00" xmlns="http://www.w3.org/2000/svg" xmlns:xlink="http://www.w3.org/1999/xlink">

<svg id="main" version="1.1" xmlns="http://www.w3.org/2000/svg" xmlns:xlink="http://www.w3.org/1999/xlink" xml:space="preserve">

<style type="text/css"><![CDATA[
.node, .edge {opacity: 0.7;}
.node.selected, .edge.selected {opacity: 1;}
.edge:hover path { stroke: red; }
.edge:hover polygon { stroke: red; fill: red; }
]]></style>
<script type="application/ecmascript" xlink:href="svg.min.js"/>
<svg id="graph" class="graph">
<g id="graph0" class="graph" transform="scale(1 1) rotate(0) translate(4 144)">
<title>override&#45;sample/libsrc/base/func.c</title>
<!-- Node1 -->
<g id="Node000001" class="node">
<title>Node1</title>
<g id="a_Node000001"><a xlink:title="func 関数の実装ファイル。">
<polygon fill="#999999" stroke="#666666" points="201,-140 89,-140 89,-110 201,-110 201,-140"/>
<text text-anchor="start" x="97" y="-128" font-family="Helvetica,sans-Serif" font-size="10.00" fill="#000000">override&#45;sample/libsrc</text>
<text text-anchor="middle" x="145" y="-117" font-family="Helvetica,sans-Serif" font-size="10.00" fill="#000000">/base/func.c</text>
</a>
</g>
</g>
<!-- Node2 -->
<g id="Node000002" class="node">
<title>Node2</title>
<g id="a_Node000002"><a xlink:href="libbase__local_8h.html" target="_top" xlink:title="libbase 内部共有ヘッダーファイル。">
<polygon fill="#ffffff" stroke="#666666" points="98.5,-74 17.5,-74 17.5,-55 98.5,-55 98.5,-74"/>
<text text-anchor="middle" x="58" y="-62" font-family="Helvetica,sans-Serif" font-size="10.00" fill="#000000">libbase_local.h</text>
</a>
</g>
</g>
<!-- Node1&#45;&gt;Node2 -->
<g id="edge1_Node000001_Node000002" class="edge">
<title>Node1&#45;&gt;Node2</title>
<g id="a_edge1_Node000001_Node000002"><a xlink:title=" ">
<path fill="none" stroke="#63b8ff" d="M123.0462,-109.7333C109.9584,-100.632 93.3892,-89.1097 80.2494,-79.9723"/>
<polygon fill="#63b8ff" stroke="#63b8ff" points="81.9937,-76.9222 71.7854,-74.0864 77.9972,-82.6692 81.9937,-76.9222"/>
</a>
</g>
</g>
<!-- Node5 -->
<g id="Node000005" class="node">
<title>Node5</title>
<g id="a_Node000005"><a xlink:href="libbase_8h.html" target="_top" xlink:title="ベースライブラリ (動的リンク用) のヘッダーファイル。">
<polygon fill="#ffffff" stroke="#666666" points="173,-74 117,-74 117,-55 173,-55 173,-74"/>
<text text-anchor="middle" x="145" y="-62" font-family="Helvetica,sans-Serif" font-size="10.00" fill="#000000">libbase.h</text>
</a>
</g>
</g>
<!-- Node1&#45;&gt;Node5 -->
<g id="edge4_Node000001_Node000005" class="edge">
<title>Node1&#45;&gt;Node5</title>
<g id="a_edge4_Node000001_Node000005"><a xlink:title=" ">
<path fill="none" stroke="#63b8ff" d="M145,-109.7333C145,-102.0322 145,-92.5977 145,-84.3414"/>
<polygon fill="#63b8ff" stroke="#63b8ff" points="148.5001,-84.0864 145,-74.0864 141.5001,-84.0864 148.5001,-84.0864"/>
</a>
</g>
</g>
<!-- Node6 -->
<g id="Node000006" class="node">
<title>Node6</title>
<g id="a_Node000006"><a xlink:title=" ">
<polygon fill="#e0e0e0" stroke="#999999" points="243,-74 191,-74 191,-55 243,-55 243,-74"/>
<text text-anchor="middle" x="217" y="-62" font-family="Helvetica,sans-Serif" font-size="10.00" fill="#000000">stddef.h</text>
</a>
</g>
</g>
<!-- Node1&#45;&gt;Node6 -->
<g id="edge5_Node000001_Node000006" class="edge">
<title>Node1&#45;&gt;Node6</title>
<g id="a_edge5_Node000001_Node000006"><a xlink:title=" ">
<path fill="none" stroke="#63b8ff" d="M163.1686,-109.7333C173.6875,-100.8945 186.9237,-89.7724 197.6387,-80.7688"/>
<polygon fill="#63b8ff" stroke="#63b8ff" points="200.187,-83.1992 205.5914,-74.0864 195.6837,-77.84 200.187,-83.1992"/>
</a>
</g>
</g>
<!-- Node3 -->
<g id="Node000003" class="node">
<title>Node3</title>
<g id="a_Node000003"><a xlink:title=" ">
<polygon fill="#e0e0e0" stroke="#999999" points="46,-19 0,-19 0,0 46,0 46,-19"/>
<text text-anchor="middle" x="23" y="-7" font-family="Helvetica,sans-Serif" font-size="10.00" fill="#000000">dlfcn.h</text>
</a>
</g>
</g>
<!-- Node2&#45;&gt;Node3 -->
<g id="edge2_Node000002_Node000003" class="edge">
<title>Node2&#45;&gt;Node3</title>
<g id="a_edge2_Node000002_Node000003"><a xlink:title=" ">
<path fill="none" stroke="#63b8ff" d="M51.9035,-54.9197C47.1938,-47.5188 40.5324,-37.0509 34.7914,-28.0294"/>
<polygon fill="#63b8ff" stroke="#63b8ff" points="37.584,-25.8984 29.2623,-19.3408 31.6783,-29.6565 37.584,-25.8984"/>
</a>
</g>
</g>
<!-- Node4 -->
<g id="Node000004" class="node">
<title>Node4</title>
<g id="a_Node000004"><a xlink:title=" ">
<polygon fill="#e0e0e0" stroke="#999999" points="121.5,-19 64.5,-19 64.5,0 121.5,0 121.5,-19"/>
<text text-anchor="middle" x="93" y="-7" font-family="Helvetica,sans-Serif" font-size="10.00" fill="#000000">pthread.h</text>
</a>
</g>
</g>
<!-- Node2&#45;&gt;Node4 -->
<g id="edge3_Node000002_Node000004" class="edge">
<title>Node2&#45;&gt;Node4</title>
<g id="a_edge3_Node000002_Node000004"><a xlink:title=" ">
<path fill="none" stroke="#63b8ff" d="M64.0965,-54.9197C68.8062,-47.5188 75.4676,-37.0509 81.2086,-28.0294"/>
<polygon fill="#63b8ff" stroke="#63b8ff" points="84.3217,-29.6565 86.7377,-19.3408 78.416,-25.8984 84.3217,-29.6565"/>
</a>
</g>
</g>
</g>
</svg>
</svg>

<style type='text/css'>
<![CDATA[
[data-mouse-over-selected='false'] { opacity: 0.7; }
[data-mouse-over-selected='true']  { opacity: 1.0; }
]]>
</style>
<script type="application/ecmascript"><![CDATA[
document.addEventListener('DOMContentLoaded', (event) => {
  highlightEdges();
  highlightAdjacentNodes();
});
]]></script>
</svg>
