<?xml version="1.0" encoding="UTF-8" standalone="no"?>
<!DOCTYPE svg PUBLIC "-//W3C//DTD SVG 1.1//EN"
 "http://www.w3.org/Graphics/SVG/1.1/DTD/svg11.dtd">
<!-- Generated by graphviz version 2.40.1 (0)
 -->
<!-- Title: override&#45;sample/libsrc/base/funcman_libbase.h Pages: 1 -->
<svg width="401pt" height="104pt"
 viewBox="0.00 0.00 400.50 104.00" xmlns="http://www.w3.org/2000/svg" xmlns:xlink="http://www.w3.org/1999/xlink">
<g id="graph0" class="graph" transform="scale(1 1) rotate(0) translate(4 100)">
<title>override&#45;sample/libsrc/base/funcman_libbase.h</title>
<!-- Node1 -->
<g id="Node000001" class="node">
<title>Node1</title>
<g id="a_Node000001"><a xlink:title="funcman が管理する関数ポインタの extern 定義。">
<polygon fill="#999999" stroke="#666666" points="262,-96 137,-96 137,-66 262,-66 262,-96"/>
<text text-anchor="start" x="145" y="-84" font-family="Helvetica,sans-Serif" font-size="10.00" fill="#000000">override&#45;sample/libsrc</text>
<text text-anchor="middle" x="199.5" y="-73" font-family="Helvetica,sans-Serif" font-size="10.00" fill="#000000">/base/funcman_libbase.h</text>
</a>
</g>
</g>
<!-- Node2 -->
<g id="Node000002" class="node">
<title>Node2</title>
<g id="a_Node000002"><a xlink:href="dllmain__libbase_8c.html" target="_top" xlink:title="base.so / base.dll のロード・アンロード時処理。">
<polygon fill="#ffffff" stroke="#666666" points="119,-30 0,-30 0,0 119,0 119,-30"/>
<text text-anchor="start" x="8" y="-18" font-family="Helvetica,sans-Serif" font-size="10.00" fill="#000000">override&#45;sample/libsrc</text>
<text text-anchor="middle" x="59.5" y="-7" font-family="Helvetica,sans-Serif" font-size="10.00" fill="#000000">/base/dllmain_libbase.c</text>
</a>
</g>
</g>
<!-- Node1&#45;&gt;Node2 -->
<g id="edge1_Node000001_Node000002" class="edge">
<title>Node1&#45;&gt;Node2</title>
<g id="a_edge1_Node000001_Node000002"><a xlink:title=" ">
<path fill="none" stroke="#63b8ff" d="M158.2289,-61.5436C136.9022,-51.4896 111.2709,-39.4063 91.4694,-30.0713"/>
<polygon fill="#63b8ff" stroke="#63b8ff" points="156.8434,-64.7599 167.3812,-65.8583 159.8284,-58.4282 156.8434,-64.7599"/>
</a>
</g>
</g>
<!-- Node3 -->
<g id="Node000003" class="node">
<title>Node3</title>
<g id="a_Node000003"><a xlink:href="funcman__libbase_8c.html" target="_top" xlink:title="funcman が管理する関数ポインタの実定義。">
<polygon fill="#ffffff" stroke="#666666" points="262,-30 137,-30 137,0 262,0 262,-30"/>
<text text-anchor="start" x="145" y="-18" font-family="Helvetica,sans-Serif" font-size="10.00" fill="#000000">override&#45;sample/libsrc</text>
<text text-anchor="middle" x="199.5" y="-7" font-family="Helvetica,sans-Serif" font-size="10.00" fill="#000000">/base/funcman_libbase.c</text>
</a>
</g>
</g>
<!-- Node1&#45;&gt;Node3 -->
<g id="edge2_Node000001_Node000003" class="edge">
<title>Node1&#45;&gt;Node3</title>
<g id="a_edge2_Node000001_Node000003"><a xlink:title=" ">
<path fill="none" stroke="#63b8ff" d="M199.5,-55.4546C199.5,-46.9317 199.5,-37.7088 199.5,-30.2246"/>
<polygon fill="#63b8ff" stroke="#63b8ff" points="196.0001,-55.6923 199.5,-65.6924 203.0001,-55.6924 196.0001,-55.6923"/>
</a>
</g>
</g>
<!-- Node4 -->
<g id="Node000004" class="node">
<title>Node4</title>
<g id="a_Node000004"><a xlink:href="sample__func_8c.html" target="_top" xlink:title="sample_func 関数の実装ファイル。">
<polygon fill="#ffffff" stroke="#666666" points="392.5,-30 280.5,-30 280.5,0 392.5,0 392.5,-30"/>
<text text-anchor="start" x="288.5" y="-18" font-family="Helvetica,sans-Serif" font-size="10.00" fill="#000000">override&#45;sample/libsrc</text>
<text text-anchor="middle" x="336.5" y="-7" font-family="Helvetica,sans-Serif" font-size="10.00" fill="#000000">/base/sample_func.c</text>
</a>
</g>
</g>
<!-- Node1&#45;&gt;Node4 -->
<g id="edge3_Node000001_Node000004" class="edge">
<title>Node1&#45;&gt;Node4</title>
<g id="a_edge3_Node000001_Node000004"><a xlink:title=" ">
<path fill="none" stroke="#63b8ff" d="M240.1677,-61.4083C260.9812,-51.3813 285.9254,-39.3644 305.2157,-30.0713"/>
<polygon fill="#63b8ff" stroke="#63b8ff" points="238.4206,-58.3649 230.9306,-65.8583 241.4587,-64.6713 238.4206,-58.3649"/>
</a>
</g>
</g>
</g>
</svg>
