<?xml version="1.0" encoding="UTF-8" standalone="no"?>
<!DOCTYPE svg PUBLIC "-//W3C//DTD SVG 1.1//EN"
 "http://www.w3.org/Graphics/SVG/1.1/DTD/svg11.dtd">
<!-- Generated by graphviz version 2.40.1 (0)
 -->
<!-- Title: funcman_init Pages: 1 -->
<svg width="273pt" height="45pt"
 viewBox="0.00 0.00 273.00 45.00" xmlns="http://www.w3.org/2000/svg" xmlns:xlink="http://www.w3.org/1999/xlink">
<g id="graph0" class="graph" transform="scale(1 1) rotate(0) translate(4 41)">
<title>funcman_init</title>
<!-- Node1 -->
<g id="Node000001" class="node">
<title>Node1</title>
<g id="a_Node000001"><a xlink:title="funcman_object ポインタ配列を初期化します。">
<polygon fill="#999999" stroke="#666666" points="265,-19 193,-19 193,0 265,0 265,-19"/>
<text text-anchor="middle" x="229" y="-7" font-family="Helvetica,sans-Serif" font-size="10.00" fill="#000000">funcman_init</text>
</a>
</g>
</g>
<!-- Node2 -->
<g id="Node000002" class="node">
<title>Node2</title>
<g id="a_Node000002"><a xlink:href="dllmain__libbase_8c.html#abcf0942133b0a576c6b3bd8020639698" target="_top" xlink:title="ライブラリのロード時に呼び出されるフック関数。">
<polygon fill="#ffffff" stroke="#666666" points="157,-19 109,-19 109,0 157,0 157,-19"/>
<text text-anchor="middle" x="133" y="-7" font-family="Helvetica,sans-Serif" font-size="10.00" fill="#000000">onLoad</text>
</a>
</g>
</g>
<!-- Node1&#45;&gt;Node2 -->
<g id="edge1_Node000001_Node000002" class="edge">
<title>Node1&#45;&gt;Node2</title>
<g id="a_edge1_Node000001_Node000002"><a xlink:title=" ">
<path fill="none" stroke="#63b8ff" d="M182.7459,-9.5C173.9366,-9.5 165.0488,-9.5 157.2714,-9.5"/>
<polygon fill="#63b8ff" stroke="#63b8ff" points="182.98,-13.0001 192.98,-9.5 182.98,-6.0001 182.98,-13.0001"/>
</a>
</g>
</g>
<!-- Node2&#45;&gt;Node2 -->
<g id="edge3_Node000002_Node000002" class="edge">
<title>Node2&#45;&gt;Node2</title>
<g id="a_edge3_Node000002_Node000002"><a xlink:title=" ">
<path fill="none" stroke="#63b8ff" d="M150.679,-28.9133C149.2905,-33.5591 143.3975,-37 133,-37 115.9375,-37 111.0054,-27.7337 118.2036,-19.0828"/>
<polygon fill="#63b8ff" stroke="#63b8ff" points="153.9689,-27.6939 147.7964,-19.0828 147.2517,-29.6637 153.9689,-27.6939"/>
</a>
</g>
</g>
<!-- Node3 -->
<g id="Node000003" class="node">
<title>Node3</title>
<g id="a_Node000003"><a xlink:href="dllmain_8h.html#a4d4bf980742769db8ad7ca3fdd754ab6" target="_top" xlink:title="共有ライブラリロード時のコンストラクタ (Linux 専用)。">
<polygon fill="#ffffff" stroke="#666666" points="73,-19 0,-19 0,0 73,0 73,-19"/>
<text text-anchor="middle" x="36.5" y="-7" font-family="Helvetica,sans-Serif" font-size="10.00" fill="#000000">__attribute__</text>
</a>
</g>
</g>
<!-- Node2&#45;&gt;Node3 -->
<g id="edge2_Node000002_Node000003" class="edge">
<title>Node2&#45;&gt;Node3</title>
<g id="a_edge2_Node000002_Node000003"><a xlink:title=" ">
<path fill="none" stroke="#63b8ff" d="M98.6252,-9.5C90.3998,-9.5 81.5863,-9.5 73.2578,-9.5"/>
<polygon fill="#63b8ff" stroke="#63b8ff" points="98.649,-13.0001 108.649,-9.5 98.6489,-6.0001 98.649,-13.0001"/>
</a>
</g>
</g>
</g>
</svg>
