<?xml version="1.0" encoding="UTF-8" standalone="no"?>
<!DOCTYPE svg PUBLIC "-//W3C//DTD SVG 1.1//EN"
 "http://www.w3.org/Graphics/SVG/1.1/DTD/svg11.dtd">
<!-- Generated by graphviz version 2.40.1 (0)
 -->
<!-- Title: _funcman_get_func Pages: 1 -->
<svg width="476pt" height="76pt"
 viewBox="0.00 0.00 476.00 75.50" xmlns="http://www.w3.org/2000/svg" xmlns:xlink="http://www.w3.org/1999/xlink">
<g id="graph0" class="graph" transform="scale(1 1) rotate(0) translate(4 71.5)">
<title>_funcman_get_func</title>
<!-- Node1 -->
<g id="Node000001" class="node">
<title>Node1</title>
<g id="a_Node000001"><a xlink:title="拡張関数ポインタを返します。この関数は内部用です。">
<polygon fill="#999999" stroke="#666666" points="468,-45.5 366,-45.5 366,-26.5 468,-26.5 468,-45.5"/>
<text text-anchor="middle" x="417" y="-33.5" font-family="Helvetica,sans-Serif" font-size="10.00" fill="#000000">_funcman_get_func</text>
</a>
</g>
</g>
<!-- Node2 -->
<g id="Node000002" class="node">
<title>Node2</title>
<g id="a_Node000002"><a xlink:href="funcman__info_8c.html#a5ca78ded8e50601198ce802629908082" target="_top" xlink:title="funcman_object ポインタ配列の内容を標準出力に表示します。">
<polygon fill="#ffffff" stroke="#666666" points="313,-67.5 238,-67.5 238,-48.5 313,-48.5 313,-67.5"/>
<text text-anchor="middle" x="275.5" y="-55.5" font-family="Helvetica,sans-Serif" font-size="10.00" fill="#000000">funcman_info</text>
</a>
</g>
</g>
<!-- Node1&#45;&gt;Node2 -->
<g id="edge1_Node000001_Node000002" class="edge">
<title>Node1&#45;&gt;Node2</title>
<g id="a_edge1_Node000001_Node000002"><a xlink:title=" ">
<path fill="none" stroke="#63b8ff" d="M355.9678,-45.4891C341.4256,-47.7501 326.3252,-50.0979 313.1871,-52.1405"/>
<polygon fill="#63b8ff" stroke="#63b8ff" points="356.5717,-48.9374 365.9153,-43.9425 355.4962,-42.0205 356.5717,-48.9374"/>
</a>
</g>
</g>
<!-- Node5 -->
<g id="Node000005" class="node">
<title>Node5</title>
<g id="a_Node000005"><a xlink:href="funcman__is__declared__default_8c.html#a27e02014f1da78014cf80cde917211db" target="_top" xlink:title="funcman_object が明示的デフォルトかどうかを返します。">
<polygon fill="#ffffff" stroke="#666666" points="330,-30 221,-30 221,0 330,0 330,-30"/>
<text text-anchor="start" x="229" y="-18" font-family="Helvetica,sans-Serif" font-size="10.00" fill="#000000">funcman_is_declared</text>
<text text-anchor="middle" x="275.5" y="-7" font-family="Helvetica,sans-Serif" font-size="10.00" fill="#000000">_default</text>
</a>
</g>
</g>
<!-- Node1&#45;&gt;Node5 -->
<g id="edge4_Node000001_Node000005" class="edge">
<title>Node1&#45;&gt;Node5</title>
<g id="a_edge4_Node000001_Node000005"><a xlink:title=" ">
<path fill="none" stroke="#63b8ff" d="M356.0136,-26.949C347.4771,-25.6821 338.7473,-24.3865 330.3342,-23.1379"/>
<polygon fill="#63b8ff" stroke="#63b8ff" points="355.5098,-30.4125 365.9153,-28.4185 356.5374,-23.4883 355.5098,-30.4125"/>
</a>
</g>
</g>
<!-- Node3 -->
<g id="Node000003" class="node">
<title>Node3</title>
<g id="a_Node000003"><a xlink:href="funcman__libbase_8c.html#ac849ebc781221b8a6155160620716a4c" target="_top" xlink:title="libbase が管理する funcman_object ポインタ配列の内容を標準出力に表示します。">
<polygon fill="#ffffff" stroke="#666666" points="185,-67.5 74,-67.5 74,-48.5 185,-48.5 185,-67.5"/>
<text text-anchor="middle" x="129.5" y="-55.5" font-family="Helvetica,sans-Serif" font-size="10.00" fill="#000000">funcman_info_libbase</text>
</a>
</g>
</g>
<!-- Node2&#45;&gt;Node3 -->
<g id="edge2_Node000002_Node000003" class="edge">
<title>Node2&#45;&gt;Node3</title>
<g id="a_edge2_Node000002_Node000003"><a xlink:title=" ">
<path fill="none" stroke="#63b8ff" d="M227.7833,-58C214.1616,-58 199.1999,-58 185.1487,-58"/>
<polygon fill="#63b8ff" stroke="#63b8ff" points="227.9014,-61.5001 237.9014,-58 227.9013,-54.5001 227.9014,-61.5001"/>
</a>
</g>
</g>
<!-- Node4 -->
<g id="Node000004" class="node">
<title>Node4</title>
<g id="a_Node000004"><a xlink:href="override-sample_8c.html#a840291bc02cba5474a4cb46a9b9566fe" target="_top" xlink:title="メインエントリポイント。">
<polygon fill="#ffffff" stroke="#666666" points="38,-67.5 0,-67.5 0,-48.5 38,-48.5 38,-67.5"/>
<text text-anchor="middle" x="19" y="-55.5" font-family="Helvetica,sans-Serif" font-size="10.00" fill="#000000">main</text>
</a>
</g>
</g>
<!-- Node3&#45;&gt;Node4 -->
<g id="edge3_Node000003_Node000004" class="edge">
<title>Node3&#45;&gt;Node4</title>
<g id="a_edge3_Node000003_Node000004"><a xlink:title=" ">
<path fill="none" stroke="#63b8ff" d="M63.7055,-58C54.3881,-58 45.4862,-58 38.1136,-58"/>
<polygon fill="#63b8ff" stroke="#63b8ff" points="63.9263,-61.5001 73.9263,-58 63.9262,-54.5001 63.9263,-61.5001"/>
</a>
</g>
</g>
</g>
</svg>
