<?xml version="1.0" encoding="UTF-8" standalone="no"?>
<!DOCTYPE svg PUBLIC "-//W3C//DTD SVG 1.1//EN"
 "http://www.w3.org/Graphics/SVG/1.1/DTD/svg11.dtd">
<!-- Generated by graphviz version 2.40.1 (0)
 -->
<!-- Title: override&#45;sample/libsrc/base/get_lib_info.c Pages: 1 -->
<svg width="574pt" height="148pt"
 viewBox="0.00 0.00 573.50 148.00" xmlns="http://www.w3.org/2000/svg" xmlns:xlink="http://www.w3.org/1999/xlink">
<g id="graph0" class="graph" transform="scale(1 1) rotate(0) translate(4 144)">
<title>override&#45;sample/libsrc/base/get_lib_info.c</title>
<!-- Node1 -->
<g id="Node000001" class="node">
<title>Node1</title>
<g id="a_Node000001"><a xlink:title="共有ライブラリ自身 (.so/.dll) の絶対パスと basename (パスなし・拡張子なし) を取得します。">
<polygon fill="#999999" stroke="#666666" points="330,-140 218,-140 218,-110 330,-110 330,-140"/>
<text text-anchor="start" x="226" y="-128" font-family="Helvetica,sans-Serif" font-size="10.00" fill="#000000">override&#45;sample/libsrc</text>
<text text-anchor="middle" x="274" y="-117" font-family="Helvetica,sans-Serif" font-size="10.00" fill="#000000">/base/get_lib_info.c</text>
</a>
</g>
</g>
<!-- Node2 -->
<g id="Node000002" class="node">
<title>Node2</title>
<g id="a_Node000002"><a xlink:href="libbase_8h.html" target="_top" xlink:title="ベースライブラリ (動的リンク用) のヘッダーファイル。">
<polygon fill="#ffffff" stroke="#666666" points="127,-74 71,-74 71,-55 127,-55 127,-74"/>
<text text-anchor="middle" x="99" y="-62" font-family="Helvetica,sans-Serif" font-size="10.00" fill="#000000">libbase.h</text>
</a>
</g>
</g>
<!-- Node1&#45;&gt;Node2 -->
<g id="edge1_Node000001_Node000002" class="edge">
<title>Node1&#45;&gt;Node2</title>
<g id="a_edge1_Node000001_Node000002"><a xlink:title=" ">
<path fill="none" stroke="#63b8ff" d="M230.2915,-109.8894C201.3486,-99.8834 163.7928,-86.8998 136.2667,-77.3836"/>
<polygon fill="#63b8ff" stroke="#63b8ff" points="137.2086,-74.0061 126.6139,-74.0465 134.9214,-80.6219 137.2086,-74.0061"/>
</a>
</g>
</g>
<!-- Node3 -->
<g id="Node000003" class="node">
<title>Node3</title>
<g id="a_Node000003"><a xlink:title=" ">
<polygon fill="#e0e0e0" stroke="#999999" points="52,-19 0,-19 0,0 52,0 52,-19"/>
<text text-anchor="middle" x="26" y="-7" font-family="Helvetica,sans-Serif" font-size="10.00" fill="#000000">stddef.h</text>
</a>
</g>
</g>
<!-- Node1&#45;&gt;Node3 -->
<g id="edge7_Node000001_Node000003" class="edge">
<title>Node1&#45;&gt;Node3</title>
<g id="a_edge7_Node000001_Node000003"><a xlink:title=" ">
<path fill="none" stroke="#63b8ff" d="M217.8619,-116.7094C163.6303,-107.7916 86.2422,-92.3871 62,-74 47.0361,-62.6503 37.4114,-43.1771 31.9143,-28.5895"/>
<polygon fill="#63b8ff" stroke="#63b8ff" points="35.1845,-27.336 28.6237,-19.0169 28.5647,-29.6116 35.1845,-27.336"/>
</a>
</g>
</g>
<!-- Node4 -->
<g id="Node000004" class="node">
<title>Node4</title>
<g id="a_Node000004"><a xlink:title=" ">
<polygon fill="#e0e0e0" stroke="#999999" points="192,-19 146,-19 146,0 192,0 192,-19"/>
<text text-anchor="middle" x="169" y="-7" font-family="Helvetica,sans-Serif" font-size="10.00" fill="#000000">dlfcn.h</text>
</a>
</g>
</g>
<!-- Node1&#45;&gt;Node4 -->
<g id="edge5_Node000001_Node000004" class="edge">
<title>Node1&#45;&gt;Node4</title>
<g id="a_edge5_Node000001_Node000004"><a xlink:title=" ">
<path fill="none" stroke="#63b8ff" d="M221.2125,-109.9046C203.3247,-102.1044 185.0851,-90.6179 174,-74 165.3327,-61.0067 164.6064,-43.097 165.7513,-29.4462"/>
<polygon fill="#63b8ff" stroke="#63b8ff" points="169.2667,-29.5366 167.0199,-19.1827 162.3196,-28.6778 169.2667,-29.5366"/>
</a>
</g>
</g>
<!-- Node6 -->
<g id="Node000006" class="node">
<title>Node6</title>
<g id="a_Node000006"><a xlink:title=" ">
<polygon fill="#e0e0e0" stroke="#999999" points="231,-74 183,-74 183,-55 231,-55 231,-74"/>
<text text-anchor="middle" x="207" y="-62" font-family="Helvetica,sans-Serif" font-size="10.00" fill="#000000">limits.h</text>
</a>
</g>
</g>
<!-- Node1&#45;&gt;Node6 -->
<g id="edge6_Node000001_Node000006" class="edge">
<title>Node1&#45;&gt;Node6</title>
<g id="a_edge6_Node000001_Node000006"><a xlink:title=" ">
<path fill="none" stroke="#63b8ff" d="M257.0931,-109.7333C247.4016,-100.982 235.2313,-89.9924 225.3136,-81.0369"/>
<polygon fill="#63b8ff" stroke="#63b8ff" points="227.384,-78.1906 217.6163,-74.0864 222.6926,-83.386 227.384,-78.1906"/>
</a>
</g>
</g>
<!-- Node7 -->
<g id="Node000007" class="node">
<title>Node7</title>
<g id="a_Node000007"><a xlink:title=" ">
<polygon fill="#e0e0e0" stroke="#999999" points="298.5,-74 249.5,-74 249.5,-55 298.5,-55 298.5,-74"/>
<text text-anchor="middle" x="274" y="-62" font-family="Helvetica,sans-Serif" font-size="10.00" fill="#000000">stdint.h</text>
</a>
</g>
</g>
<!-- Node1&#45;&gt;Node7 -->
<g id="edge8_Node000001_Node000007" class="edge">
<title>Node1&#45;&gt;Node7</title>
<g id="a_edge8_Node000001_Node000007"><a xlink:title=" ">
<path fill="none" stroke="#63b8ff" d="M274,-109.7333C274,-102.0322 274,-92.5977 274,-84.3414"/>
<polygon fill="#63b8ff" stroke="#63b8ff" points="277.5001,-84.0864 274,-74.0864 270.5001,-84.0864 277.5001,-84.0864"/>
</a>
</g>
</g>
<!-- Node8 -->
<g id="Node000008" class="node">
<title>Node8</title>
<g id="a_Node000008"><a xlink:title=" ">
<polygon fill="#e0e0e0" stroke="#999999" points="363,-74 317,-74 317,-55 363,-55 363,-74"/>
<text text-anchor="middle" x="340" y="-62" font-family="Helvetica,sans-Serif" font-size="10.00" fill="#000000">stdio.h</text>
</a>
</g>
</g>
<!-- Node1&#45;&gt;Node8 -->
<g id="edge9_Node000001_Node000008" class="edge">
<title>Node1&#45;&gt;Node8</title>
<g id="a_edge9_Node000001_Node000008"><a xlink:title=" ">
<path fill="none" stroke="#63b8ff" d="M290.6546,-109.7333C300.2014,-100.982 312.1901,-89.9924 321.9598,-81.0369"/>
<polygon fill="#63b8ff" stroke="#63b8ff" points="324.5356,-83.4237 329.5421,-74.0864 319.8055,-78.2636 324.5356,-83.4237"/>
</a>
</g>
</g>
<!-- Node9 -->
<g id="Node000009" class="node">
<title>Node9</title>
<g id="a_Node000009"><a xlink:title=" ">
<polygon fill="#e0e0e0" stroke="#999999" points="429,-74 381,-74 381,-55 429,-55 429,-74"/>
<text text-anchor="middle" x="405" y="-62" font-family="Helvetica,sans-Serif" font-size="10.00" fill="#000000">stdlib.h</text>
</a>
</g>
</g>
<!-- Node1&#45;&gt;Node9 -->
<g id="edge10_Node000001_Node000009" class="edge">
<title>Node1&#45;&gt;Node9</title>
<g id="a_edge10_Node000001_Node000009"><a xlink:title=" ">
<path fill="none" stroke="#63b8ff" d="M306.7189,-109.8894C327.6542,-100.2208 354.6093,-87.7721 374.9936,-78.3579"/>
<polygon fill="#63b8ff" stroke="#63b8ff" points="376.523,-81.5069 384.1341,-74.1366 373.588,-75.1519 376.523,-81.5069"/>
</a>
</g>
</g>
<!-- Node10 -->
<g id="Node000010" class="node">
<title>Node10</title>
<g id="a_Node000010"><a xlink:title=" ">
<polygon fill="#e0e0e0" stroke="#999999" points="496.5,-74 447.5,-74 447.5,-55 496.5,-55 496.5,-74"/>
<text text-anchor="middle" x="472" y="-62" font-family="Helvetica,sans-Serif" font-size="10.00" fill="#000000">string.h</text>
</a>
</g>
</g>
<!-- Node1&#45;&gt;Node10 -->
<g id="edge11_Node000001_Node000010" class="edge">
<title>Node1&#45;&gt;Node10</title>
<g id="a_edge11_Node000001_Node000010"><a xlink:title=" ">
<path fill="none" stroke="#63b8ff" d="M323.1982,-109.9672C358.8529,-99.0727 406.1609,-84.6175 437.7698,-74.9592"/>
<polygon fill="#63b8ff" stroke="#63b8ff" points="438.9054,-78.2721 447.4461,-72.0026 436.8598,-71.5776 438.9054,-78.2721"/>
</a>
</g>
</g>
<!-- Node11 -->
<g id="Node000011" class="node">
<title>Node11</title>
<g id="a_Node000011"><a xlink:title=" ">
<polygon fill="#e0e0e0" stroke="#999999" points="565.5,-74 514.5,-74 514.5,-55 565.5,-55 565.5,-74"/>
<text text-anchor="middle" x="540" y="-62" font-family="Helvetica,sans-Serif" font-size="10.00" fill="#000000">unistd.h</text>
</a>
</g>
</g>
<!-- Node1&#45;&gt;Node11 -->
<g id="edge12_Node000001_Node000011" class="edge">
<title>Node1&#45;&gt;Node11</title>
<g id="a_edge12_Node000001_Node000011"><a xlink:title=" ">
<path fill="none" stroke="#63b8ff" d="M330.4626,-113.5124C375.2685,-104.1859 439.7115,-90.307 504.4511,-74.2952"/>
<polygon fill="#63b8ff" stroke="#63b8ff" points="505.563,-77.6253 514.421,-71.8127 503.8716,-70.8326 505.563,-77.6253"/>
</a>
</g>
</g>
<!-- Node2&#45;&gt;Node3 -->
<g id="edge2_Node000002_Node000003" class="edge">
<title>Node2&#45;&gt;Node3</title>
<g id="a_edge2_Node000002_Node000003"><a xlink:title=" ">
<path fill="none" stroke="#63b8ff" d="M86.2844,-54.9197C75.5307,-46.8177 59.8984,-35.0399 47.2472,-25.5082"/>
<polygon fill="#63b8ff" stroke="#63b8ff" points="49.1545,-22.563 39.0615,-19.3408 44.9422,-28.1538 49.1545,-22.563"/>
</a>
</g>
</g>
<!-- Node2&#45;&gt;Node4 -->
<g id="edge3_Node000002_Node000004" class="edge">
<title>Node2&#45;&gt;Node4</title>
<g id="a_edge3_Node000002_Node000004"><a xlink:title=" ">
<path fill="none" stroke="#63b8ff" d="M111.1931,-54.9197C121.4056,-46.8956 136.2068,-35.2661 148.2753,-25.7837"/>
<polygon fill="#63b8ff" stroke="#63b8ff" points="150.7745,-28.2712 156.4753,-19.3408 146.4497,-22.767 150.7745,-28.2712"/>
</a>
</g>
</g>
<!-- Node5 -->
<g id="Node000005" class="node">
<title>Node5</title>
<g id="a_Node000005"><a xlink:title=" ">
<polygon fill="#e0e0e0" stroke="#999999" points="127.5,-19 70.5,-19 70.5,0 127.5,0 127.5,-19"/>
<text text-anchor="middle" x="99" y="-7" font-family="Helvetica,sans-Serif" font-size="10.00" fill="#000000">pthread.h</text>
</a>
</g>
</g>
<!-- Node2&#45;&gt;Node5 -->
<g id="edge4_Node000002_Node000005" class="edge">
<title>Node2&#45;&gt;Node5</title>
<g id="a_edge4_Node000002_Node000005"><a xlink:title=" ">
<path fill="none" stroke="#63b8ff" d="M99,-54.9197C99,-47.9083 99,-38.1442 99,-29.4652"/>
<polygon fill="#63b8ff" stroke="#63b8ff" points="102.5001,-29.3408 99,-19.3408 95.5001,-29.3409 102.5001,-29.3408"/>
</a>
</g>
</g>
</g>
</svg>
