<?xml version="1.0" encoding="UTF-8" standalone="no"?>
<!DOCTYPE svg PUBLIC "-//W3C//DTD SVG 1.1//EN"
 "http://www.w3.org/Graphics/SVG/1.1/DTD/svg11.dtd">
<!-- Generated by graphviz version 2.40.1 (0)
 -->
<!-- Title: copy_str Pages: 1 -->
<svg width="631pt" height="64pt"
 viewBox="0.00 0.00 631.00 64.00" xmlns="http://www.w3.org/2000/svg" xmlns:xlink="http://www.w3.org/1999/xlink">
<g id="graph0" class="graph" transform="scale(1 1) rotate(0) translate(4 60)">
<title>copy_str</title>
<!-- Node1 -->
<g id="Node000001" class="node">
<title>Node1</title>
<g id="a_Node000001"><a xlink:title="文字列を安全にコピーします (UTF&#45;8 想定だが単なる byte 列として扱う)。">
<polygon fill="#999999" stroke="#666666" points="623,-38 569,-38 569,-19 623,-19 623,-38"/>
<text text-anchor="middle" x="596" y="-26" font-family="Helvetica,sans-Serif" font-size="10.00" fill="#000000">copy_str</text>
</a>
</g>
</g>
<!-- Node2 -->
<g id="Node000002" class="node">
<title>Node2</title>
<g id="a_Node000002"><a xlink:href="get__lib__info_8c.html#a29793dd1bfe75be29def445e0ada69a0" target="_top" xlink:title="指定した関数が所属する共有ライブラリ (.so/.dll) の basename (パスなし・拡張子なし) を取得します。">
<polygon fill="#ffffff" stroke="#666666" points="288,-38 193,-38 193,-19 288,-19 288,-38"/>
<text text-anchor="middle" x="240.5" y="-26" font-family="Helvetica,sans-Serif" font-size="10.00" fill="#000000">get_lib_basename</text>
</a>
</g>
</g>
<!-- Node1&#45;&gt;Node2 -->
<g id="edge1_Node000001_Node000002" class="edge">
<title>Node1&#45;&gt;Node2</title>
<g id="a_edge1_Node000001_Node000002"><a xlink:title=" ">
<path fill="none" stroke="#63b8ff" d="M558.8029,-28.5C493.838,-28.5 359.8052,-28.5 288.1449,-28.5"/>
<polygon fill="#63b8ff" stroke="#63b8ff" points="558.988,-32.0001 568.9879,-28.5 558.9879,-25.0001 558.988,-32.0001"/>
</a>
</g>
</g>
<!-- Node5 -->
<g id="Node000005" class="node">
<title>Node5</title>
<g id="a_Node000005"><a xlink:href="get__lib__info_8c.html#a3da7623fb03ca9f5a9febbfb28bca8c6" target="_top" xlink:title=".so 自身の絶対パスを取得します (Linux/Unix)。">
<polygon fill="#ffffff" stroke="#666666" points="533,-19 429,-19 429,0 533,0 533,-19"/>
<text text-anchor="middle" x="481" y="-7" font-family="Helvetica,sans-Serif" font-size="10.00" fill="#000000">get_self_path_posix</text>
</a>
</g>
</g>
<!-- Node1&#45;&gt;Node5 -->
<g id="edge5_Node000001_Node000005" class="edge">
<title>Node1&#45;&gt;Node5</title>
<g id="a_edge5_Node000001_Node000005"><a xlink:title=" ">
<path fill="none" stroke="#63b8ff" d="M558.8309,-22.359C550.6931,-21.0145 541.9317,-19.567 533.3262,-18.1452"/>
<polygon fill="#63b8ff" stroke="#63b8ff" points="558.3098,-25.8203 568.7466,-23.9973 559.4509,-18.9139 558.3098,-25.8203"/>
</a>
</g>
</g>
<!-- Node3 -->
<g id="Node000003" class="node">
<title>Node3</title>
<g id="a_Node000003"><a xlink:href="dllmain__libbase_8c.html#abcf0942133b0a576c6b3bd8020639698" target="_top" xlink:title="ライブラリのロード時に呼び出されるフック関数。">
<polygon fill="#ffffff" stroke="#666666" points="157,-38 109,-38 109,-19 157,-19 157,-38"/>
<text text-anchor="middle" x="133" y="-26" font-family="Helvetica,sans-Serif" font-size="10.00" fill="#000000">onLoad</text>
</a>
</g>
</g>
<!-- Node2&#45;&gt;Node3 -->
<g id="edge2_Node000002_Node000003" class="edge">
<title>Node2&#45;&gt;Node3</title>
<g id="a_edge2_Node000002_Node000003"><a xlink:title=" ">
<path fill="none" stroke="#63b8ff" d="M182.5618,-28.5C173.5732,-28.5 164.7417,-28.5 157.0812,-28.5"/>
<polygon fill="#63b8ff" stroke="#63b8ff" points="182.7229,-32.0001 192.7229,-28.5 182.7229,-25.0001 182.7229,-32.0001"/>
</a>
</g>
</g>
<!-- Node3&#45;&gt;Node3 -->
<g id="edge4_Node000003_Node000003" class="edge">
<title>Node3&#45;&gt;Node3</title>
<g id="a_edge4_Node000003_Node000003"><a xlink:title=" ">
<path fill="none" stroke="#63b8ff" d="M150.679,-47.9133C149.2905,-52.5591 143.3975,-56 133,-56 115.9375,-56 111.0054,-46.7337 118.2036,-38.0828"/>
<polygon fill="#63b8ff" stroke="#63b8ff" points="153.9689,-46.6939 147.7964,-38.0828 147.2517,-48.6637 153.9689,-46.6939"/>
</a>
</g>
</g>
<!-- Node4 -->
<g id="Node000004" class="node">
<title>Node4</title>
<g id="a_Node000004"><a xlink:href="dllmain_8h.html#a4d4bf980742769db8ad7ca3fdd754ab6" target="_top" xlink:title="共有ライブラリロード時のコンストラクタ (Linux 専用)。">
<polygon fill="#ffffff" stroke="#666666" points="73,-38 0,-38 0,-19 73,-19 73,-38"/>
<text text-anchor="middle" x="36.5" y="-26" font-family="Helvetica,sans-Serif" font-size="10.00" fill="#000000">__attribute__</text>
</a>
</g>
</g>
<!-- Node3&#45;&gt;Node4 -->
<g id="edge3_Node000003_Node000004" class="edge">
<title>Node3&#45;&gt;Node4</title>
<g id="a_edge3_Node000003_Node000004"><a xlink:title=" ">
<path fill="none" stroke="#63b8ff" d="M98.6252,-28.5C90.3998,-28.5 81.5863,-28.5 73.2578,-28.5"/>
<polygon fill="#63b8ff" stroke="#63b8ff" points="98.649,-32.0001 108.649,-28.5 98.6489,-25.0001 98.649,-32.0001"/>
</a>
</g>
</g>
<!-- Node6 -->
<g id="Node000006" class="node">
<title>Node6</title>
<g id="a_Node000006"><a xlink:href="get__lib__info_8c.html#af6ea2bf0e62a8f5f9fe488ef6b07db62" target="_top" xlink:title="指定した関数が所属する共有ライブラリ (.so/.dll) の絶対パスを取得します。">
<polygon fill="#ffffff" stroke="#666666" points="393,-19 324,-19 324,0 393,0 393,-19"/>
<text text-anchor="middle" x="358.5" y="-7" font-family="Helvetica,sans-Serif" font-size="10.00" fill="#000000">get_lib_path</text>
</a>
</g>
</g>
<!-- Node5&#45;&gt;Node6 -->
<g id="edge6_Node000005_Node000006" class="edge">
<title>Node5&#45;&gt;Node6</title>
<g id="a_edge6_Node000005_Node000006"><a xlink:title=" ">
<path fill="none" stroke="#63b8ff" d="M418.5292,-9.5C409.8478,-9.5 401.199,-9.5 393.281,-9.5"/>
<polygon fill="#63b8ff" stroke="#63b8ff" points="418.6937,-13.0001 428.6936,-9.5 418.6936,-6.0001 418.6937,-13.0001"/>
</a>
</g>
</g>
<!-- Node6&#45;&gt;Node2 -->
<g id="edge7_Node000006_Node000002" class="edge">
<title>Node6&#45;&gt;Node2</title>
<g id="a_edge7_Node000006_Node000002"><a xlink:title=" ">
<path fill="none" stroke="#63b8ff" d="M313.7649,-16.7031C305.3853,-18.0524 296.5974,-19.4674 288.1337,-20.8302"/>
<polygon fill="#63b8ff" stroke="#63b8ff" points="314.4179,-20.1431 323.7343,-15.0979 313.3051,-13.2321 314.4179,-20.1431"/>
</a>
</g>
</g>
</g>
</svg>
