<?xml version="1.0" encoding="UTF-8" standalone="no"?>
<!DOCTYPE svg PUBLIC "-//W3C//DTD SVG 1.1//EN"
 "http://www.w3.org/Graphics/SVG/1.1/DTD/svg11.dtd">
<!-- Generated by graphviz version 2.40.1 (0)
 -->
<!-- Title: get_lib_path Pages: 1 -->
<svg width="307pt" height="27pt"
 viewBox="0.00 0.00 307.00 27.00" xmlns="http://www.w3.org/2000/svg" xmlns:xlink="http://www.w3.org/1999/xlink">
<g id="graph0" class="graph" transform="scale(1 1) rotate(0) translate(4 23)">
<title>get_lib_path</title>
<!-- Node1 -->
<g id="Node000001" class="node">
<title>Node1</title>
<g id="a_Node000001"><a xlink:title="指定した関数が所属する共有ライブラリ (.so/.dll) の絶対パスを取得します。">
<polygon fill="#999999" stroke="#666666" points="69,-19 0,-19 0,0 69,0 69,-19"/>
<text text-anchor="middle" x="34.5" y="-7" font-family="Helvetica,sans-Serif" font-size="10.00" fill="#000000">get_lib_path</text>
</a>
</g>
</g>
<!-- Node2 -->
<g id="Node000002" class="node">
<title>Node2</title>
<g id="a_Node000002"><a xlink:href="get__lib__info_8c.html#a3da7623fb03ca9f5a9febbfb28bca8c6" target="_top" xlink:title=".so 自身の絶対パスを取得します (Linux/Unix)。">
<polygon fill="#ffffff" stroke="#666666" points="209,-19 105,-19 105,0 209,0 209,-19"/>
<text text-anchor="middle" x="157" y="-7" font-family="Helvetica,sans-Serif" font-size="10.00" fill="#000000">get_self_path_posix</text>
</a>
</g>
</g>
<!-- Node1&#45;&gt;Node2 -->
<g id="edge1_Node000001_Node000002" class="edge">
<title>Node1&#45;&gt;Node2</title>
<g id="a_edge1_Node000001_Node000002"><a xlink:title=" ">
<path fill="none" stroke="#63b8ff" d="M69.2759,-9.5C77.2071,-9.5 85.8716,-9.5 94.5679,-9.5"/>
<polygon fill="#63b8ff" stroke="#63b8ff" points="94.7492,-13.0001 104.7492,-9.5 94.7491,-6.0001 94.7492,-13.0001"/>
</a>
</g>
</g>
<!-- Node3 -->
<g id="Node000003" class="node">
<title>Node3</title>
<g id="a_Node000003"><a xlink:href="get__lib__info_8c.html#a6b8f85c79c31c267b18934757210e83e" target="_top" xlink:title="文字列を安全にコピーします (UTF&#45;8 想定だが単なる byte 列として扱う)。">
<polygon fill="#ffffff" stroke="#666666" points="299,-19 245,-19 245,0 299,0 299,-19"/>
<text text-anchor="middle" x="272" y="-7" font-family="Helvetica,sans-Serif" font-size="10.00" fill="#000000">copy_str</text>
</a>
</g>
</g>
<!-- Node2&#45;&gt;Node3 -->
<g id="edge2_Node000002_Node000003" class="edge">
<title>Node2&#45;&gt;Node3</title>
<g id="a_edge2_Node000002_Node000003"><a xlink:title=" ">
<path fill="none" stroke="#63b8ff" d="M209.1164,-9.5C217.8079,-9.5 226.6648,-9.5 234.8836,-9.5"/>
<polygon fill="#63b8ff" stroke="#63b8ff" points="234.8923,-13.0001 244.8922,-9.5 234.8922,-6.0001 234.8923,-13.0001"/>
</a>
</g>
</g>
</g>
</svg>
