<?xml version="1.0" encoding="UTF-8" standalone="no"?>
<!DOCTYPE svg PUBLIC "-//W3C//DTD SVG 1.1//EN"
 "http://www.w3.org/Graphics/SVG/1.1/DTD/svg11.dtd">
<!-- Generated by graphviz version 2.40.1 (0)
 -->
<!-- Title: Graph Legend Pages: 1 -->
<svg width="509pt" height="159pt"
 viewBox="0.00 0.00 508.50 159.00" xmlns="http://www.w3.org/2000/svg" xmlns:xlink="http://www.w3.org/1999/xlink">
<g id="graph0" class="graph" transform="scale(1 1) rotate(0) translate(4 155)">
<title>Graph Legend</title>
<!-- Node9 -->
<g id="Node000009" class="node">
<title>Node9</title>
<g id="a_Node000009"><a xlink:title=" ">
<polygon fill="#999999" stroke="#666666" points="293,-19 239,-19 239,0 293,0 293,-19"/>
<text text-anchor="middle" x="266" y="-7" font-family="Helvetica,sans-Serif" font-size="10.00" fill="#000000">Inherited</text>
</a>
</g>
</g>
<!-- Node10 -->
<g id="Node000010" class="node">
<title>Node10</title>
<g id="a_Node000010"><a xlink:title=" ">
<polygon fill="#ffffff" stroke="#666666" points="66,-85 0,-85 0,-66 66,-66 66,-85"/>
<text text-anchor="middle" x="33" y="-73" font-family="Helvetica,sans-Serif" font-size="10.00" fill="#000000">PublicBase</text>
</a>
</g>
</g>
<!-- Node10&#45;&gt;Node9 -->
<g id="edge1" class="edge">
<title>Node10&#45;&gt;Node9</title>
<g id="a_edge1"><a xlink:title=" ">
<path fill="none" stroke="#63b8ff" d="M76.0971,-63.2922C123.6862,-49.8121 198.8489,-28.5213 238.8499,-17.1906"/>
<polygon fill="#63b8ff" stroke="#63b8ff" points="75.0508,-59.9508 66.3832,-66.0438 76.9586,-66.6859 75.0508,-59.9508"/>
</a>
</g>
</g>
<!-- Node11 -->
<g id="Node000011" class="node">
<title>Node11</title>
<g id="a_Node000011"><a xlink:title=" ">
<polygon fill="#fff0f0" stroke="#ff0000" points="63,-151 3,-151 3,-132 63,-132 63,-151"/>
<text text-anchor="middle" x="33" y="-139" font-family="Helvetica,sans-Serif" font-size="10.00" fill="#000000">Truncated</text>
</a>
</g>
</g>
<!-- Node11&#45;&gt;Node10 -->
<g id="edge2" class="edge">
<title>Node11&#45;&gt;Node10</title>
<g id="a_edge2"><a xlink:title=" ">
<path fill="none" stroke="#63b8ff" d="M33,-121.732C33,-109.6966 33,-94.847 33,-85.2785"/>
<polygon fill="#63b8ff" stroke="#63b8ff" points="29.5001,-121.7614 33,-131.7615 36.5001,-121.7615 29.5001,-121.7614"/>
</a>
</g>
</g>
<!-- Node13 -->
<g id="node4" class="node">
<title>Node13</title>
<g id="a_node4"><a xlink:title=" ">
<polygon fill="#ffffff" stroke="#666666" points="165.5,-85 84.5,-85 84.5,-66 165.5,-66 165.5,-85"/>
<text text-anchor="middle" x="125" y="-73" font-family="Helvetica,sans-Serif" font-size="10.00" fill="#000000">ProtectedBase</text>
</a>
</g>
</g>
<!-- Node13&#45;&gt;Node9 -->
<g id="edge3" class="edge">
<title>Node13&#45;&gt;Node9</title>
<g id="a_edge3"><a xlink:title=" ">
<path fill="none" stroke="#006400" d="M154.574,-61.6568C181.8226,-48.9022 221.5486,-30.3071 245.4726,-19.1085"/>
<polygon fill="#006400" stroke="#006400" points="153.0757,-58.4937 145.5026,-65.903 156.0433,-64.8335 153.0757,-58.4937"/>
</a>
</g>
</g>
<!-- Node14 -->
<g id="node5" class="node">
<title>Node14</title>
<g id="a_node5"><a xlink:title=" ">
<polygon fill="#ffffff" stroke="#666666" points="254,-85 184,-85 184,-66 254,-66 254,-85"/>
<text text-anchor="middle" x="219" y="-73" font-family="Helvetica,sans-Serif" font-size="10.00" fill="#000000">PrivateBase</text>
</a>
</g>
</g>
<!-- Node14&#45;&gt;Node9 -->
<g id="edge4" class="edge">
<title>Node14&#45;&gt;Node9</title>
<g id="a_edge4"><a xlink:title=" ">
<path fill="none" stroke="#8b1a1a" d="M231.7818,-57.5511C240.559,-45.2256 251.875,-29.3352 259.0365,-19.2785"/>
<polygon fill="#8b1a1a" stroke="#8b1a1a" points="228.8848,-55.5855 225.935,-65.7615 234.5867,-59.646 228.8848,-55.5855"/>
</a>
</g>
</g>
<!-- Node15 -->
<g id="Node000015" class="node">
<title>Node15</title>
<g id="a_Node000015"><a xlink:title=" ">
<polygon fill="#e0e0e0" stroke="#999999" points="354,-85 272,-85 272,-66 354,-66 354,-85"/>
<text text-anchor="middle" x="313" y="-73" font-family="Helvetica,sans-Serif" font-size="10.00" fill="#000000">Undocumented</text>
</a>
</g>
</g>
<!-- Node15&#45;&gt;Node9 -->
<g id="edge5" class="edge">
<title>Node15&#45;&gt;Node9</title>
<g id="a_edge5"><a xlink:title=" ">
<path fill="none" stroke="#63b8ff" d="M300.2182,-57.5511C291.441,-45.2256 280.125,-29.3352 272.9635,-19.2785"/>
<polygon fill="#63b8ff" stroke="#63b8ff" points="297.4133,-59.646 306.065,-65.7615 303.1152,-55.5855 297.4133,-59.646"/>
</a>
</g>
</g>
<!-- Node16 -->
<g id="node7" class="node">
<title>Node16</title>
<g id="a_node7"><a xlink:title=" ">
<polygon fill="#ffffff" stroke="#666666" points="443.5,-85 372.5,-85 372.5,-66 443.5,-66 443.5,-85"/>
<text text-anchor="middle" x="408" y="-73" font-family="Helvetica,sans-Serif" font-size="10.00" fill="#000000">Templ&lt; int &gt;</text>
</a>
</g>
</g>
<!-- Node16&#45;&gt;Node9 -->
<g id="edge6" class="edge">
<title>Node16&#45;&gt;Node9</title>
<g id="a_edge6"><a xlink:title=" ">
<path fill="none" stroke="#63b8ff" d="M378.2162,-61.6568C350.7744,-48.9022 310.7667,-30.3071 286.6729,-19.1085"/>
<polygon fill="#63b8ff" stroke="#63b8ff" points="376.8084,-64.862 387.352,-65.903 379.7588,-58.5142 376.8084,-64.862"/>
</a>
</g>
</g>
<!-- Node17 -->
<g id="node8" class="node">
<title>Node17</title>
<g id="a_node8"><a xlink:title=" ">
<polygon fill="#ffffff" stroke="#666666" points="441.5,-151 374.5,-151 374.5,-132 441.5,-132 441.5,-151"/>
<text text-anchor="middle" x="408" y="-139" font-family="Helvetica,sans-Serif" font-size="10.00" fill="#000000">Templ&lt; T &gt;</text>
</a>
</g>
</g>
<!-- Node17&#45;&gt;Node16 -->
<g id="edge7" class="edge">
<title>Node17&#45;&gt;Node16</title>
<g id="a_edge7"><a xlink:title=" ">
<path fill="none" stroke="#ffa500" stroke-dasharray="5,2" d="M408,-121.732C408,-109.6966 408,-94.847 408,-85.2785"/>
<polygon fill="#ffa500" stroke="#ffa500" points="404.5001,-121.7614 408,-131.7615 411.5001,-121.7615 404.5001,-121.7614"/>
</a>
</g>
<text text-anchor="middle" x="422.5" y="-106" font-family="Helvetica,sans-Serif" font-size="10.00" fill="#c0c0c0">&lt; int &gt;</text>
</g>
<!-- Node18 -->
<g id="node9" class="node">
<title>Node18</title>
<g id="a_node9"><a xlink:title=" ">
<polygon fill="#ffffff" stroke="#666666" points="500.5,-85 461.5,-85 461.5,-66 500.5,-66 500.5,-85"/>
<text text-anchor="middle" x="481" y="-73" font-family="Helvetica,sans-Serif" font-size="10.00" fill="#000000">Used</text>
</a>
</g>
</g>
<!-- Node18&#45;&gt;Node9 -->
<g id="edge8" class="edge">
<title>Node18&#45;&gt;Node9</title>
<g id="a_edge8"><a xlink:title=" ">
<path fill="none" stroke="#9a32cd" stroke-dasharray="5,2" d="M451.8974,-65.713C389.8654,-45.9154 327.69,-27.4975 293.0299,-17.3562"/>
<polygon fill="#9a32cd" stroke="#9a32cd" points="450.8546,-69.0541 461.4457,-68.7719 452.9902,-62.3878 450.8546,-69.0541"/>
</a>
</g>
<text text-anchor="middle" x="421" y="-40" font-family="Helvetica,sans-Serif" font-size="10.00" fill="#c0c0c0">m_usedClass</text>
</g>
</g>
</svg>
