<svg xmlns="http://www.w3.org/2000/svg" xmlns:xlink="http://www.w3.org/1999/xlink" contentStyleType="text/css" data-diagram-type="ACTIVITY" height="1358px" preserveAspectRatio="none" style="width:348px;height:1358px;background:#FFFFFF;" version="1.1" viewBox="0 0 348 1358" width="348px" zoomAndPan="magnify"><defs/><g><ellipse cx="174.0012" cy="20" fill="#222222" rx="10" ry="10" style="stroke:#222222;stroke-width:1;"/><rect fill="#F1F1F1" height="35.2401" rx="12.5" ry="12.5" style="stroke:#181818;stroke-width:0.5;" width="74.0004" x="137.001" y="98.9849"/><text fill="#000000" font-family="sans-serif" font-size="12" lengthAdjust="spacing" textLength="54.0004" x="147.001" y="120.985">return -1</text><ellipse cx="174.0012" cy="173.105" fill="none" rx="11" ry="11" style="stroke:#222222;stroke-width:1;"/><ellipse cx="174.0012" cy="173.105" fill="#222222" rx="6" ry="6" style="stroke:#222222;stroke-width:1;"/><polygon fill="#F1F1F1" points="132.7515,50,215.2508,50,227.2508,62,215.2508,74,132.7515,74,120.7515,62,132.7515,50" style="stroke:#181818;stroke-width:0.5;"/><text fill="#000000" font-family="sans-serif" font-size="11" lengthAdjust="spacing" textLength="21.9998" x="178.0012" y="84.9999">true</text><text fill="#000000" font-family="sans-serif" font-size="11" lengthAdjust="spacing" textLength="82.4993" x="132.7515" y="66.015">result == NULL?</text><rect fill="#F1F1F1" height="35.2401" rx="12.5" ry="12.5" style="stroke:#181818;stroke-width:0.5;" width="230.0016" x="59.0004" y="275.0899"/><text fill="#000000" font-family="sans-serif" font-size="12" lengthAdjust="spacing" textLength="210.0016" x="69.0004" y="297.09">console_output &#12391;&#20966;&#29702;&#12434;&#34892;&#12358;&#26088;&#12434;&#34920;&#31034;</text><rect fill="#F1F1F1" height="35.2401" rx="12.5" ry="12.5" style="stroke:#181818;stroke-width:0.5;" width="107.7506" x="120.1258" y="330.3301"/><text fill="#000000" font-family="sans-serif" font-size="12" font-weight="bold" lengthAdjust="spacing" textLength="87.7506" x="130.1258" y="352.3301">result = a + b</text><rect fill="#F1F1F1" height="35.2401" rx="12.5" ry="12.5" style="stroke:#181818;stroke-width:0.5;" width="68.0004" x="140.001" y="393.4501"/><text fill="#000000" font-family="sans-serif" font-size="12" lengthAdjust="spacing" textLength="48.0004" x="150.001" y="415.4502">return 0</text><ellipse cx="174.0012" cy="459.6902" fill="none" rx="11" ry="11" style="stroke:#222222;stroke-width:1;"/><ellipse cx="174.0012" cy="459.6902" fill="#222222" rx="6" ry="6" style="stroke:#222222;stroke-width:1;"/><polygon fill="#F1F1F1" points="127.2515,226.105,220.7508,226.105,232.7508,238.105,220.7508,250.105,127.2515,250.105,115.2515,238.105,127.2515,226.105" style="stroke:#181818;stroke-width:0.5;"/><text fill="#000000" font-family="sans-serif" font-size="11" lengthAdjust="spacing" textLength="21.9998" x="178.0012" y="261.1049">true</text><text fill="#000000" font-family="sans-serif" font-size="11" lengthAdjust="spacing" textLength="93.4992" x="127.2515" y="242.12">useOverride == 0?</text><rect fill="#F1F1F1" height="65.7203" rx="12.5" ry="12.5" style="stroke:#181818;stroke-width:0.5;" width="248.0017" x="50.0003" y="512.6902"/><text fill="#000000" font-family="sans-serif" font-size="12" lengthAdjust="spacing" textLength="138.0011" x="60.0003" y="534.6903">dlopen / LoadLibrary &#12391;</text><text fill="#000000" font-family="sans-serif" font-size="12" lengthAdjust="spacing" textLength="120.0009" x="60.0003" y="549.9304">liboverride &#12434;&#12525;&#12540;&#12489;</text><text fill="#000000" font-family="sans-serif" font-size="12" lengthAdjust="spacing" textLength="228.0017" x="60.0003" y="565.1705">(&#12521;&#12452;&#12502;&#12521;&#12522;&#21517;&#12399;&#23450;&#32681;&#12501;&#12449;&#12452;&#12523;&#31561;&#12391;&#22793;&#26356;&#21487;)</text><rect fill="#F1F1F1" height="35.2401" rx="12.5" ry="12.5" style="stroke:#181818;stroke-width:0.5;" width="74.0004" x="137.001" y="647.3955"/><text fill="#000000" font-family="sans-serif" font-size="12" lengthAdjust="spacing" textLength="54.0004" x="147.001" y="669.3956">return -1</text><ellipse cx="174.0012" cy="721.5155" fill="none" rx="11" ry="11" style="stroke:#222222;stroke-width:1;"/><ellipse cx="174.0012" cy="721.5155" fill="#222222" rx="6" ry="6" style="stroke:#222222;stroke-width:1;"/><polygon fill="#F1F1F1" points="132.7515,598.4105,215.2508,598.4105,227.2508,610.4105,215.2508,622.4105,132.7515,622.4105,120.7515,610.4105,132.7515,598.4105" style="stroke:#181818;stroke-width:0.5;"/><text fill="#000000" font-family="sans-serif" font-size="11" lengthAdjust="spacing" textLength="21.9998" x="178.0012" y="633.4105">true</text><text fill="#000000" font-family="sans-serif" font-size="11" lengthAdjust="spacing" textLength="82.4993" x="132.7515" y="614.4255">handle == NULL?</text><rect fill="#F1F1F1" height="65.7203" rx="12.5" ry="12.5" style="stroke:#181818;stroke-width:0.5;" width="212.0015" x="68.0004" y="774.5155"/><text fill="#000000" font-family="sans-serif" font-size="12" lengthAdjust="spacing" textLength="150.0011" x="78.0004" y="796.5156">dlsym / GetProcAddress &#12391;</text><text fill="#000000" font-family="sans-serif" font-size="12" lengthAdjust="spacing" textLength="120.0009" x="78.0004" y="811.7557">func_override &#12434;&#21462;&#24471;</text><text fill="#000000" font-family="sans-serif" font-size="12" lengthAdjust="spacing" textLength="192.0015" x="78.0004" y="826.9958">(&#38306;&#25968;&#21517;&#12399;&#23450;&#32681;&#12501;&#12449;&#12452;&#12523;&#31561;&#12391;&#22793;&#26356;&#21487;)</text><rect fill="#F1F1F1" height="35.2401" rx="12.5" ry="12.5" style="stroke:#181818;stroke-width:0.5;" width="128.0008" x="110.0007" y="909.2208"/><text fill="#000000" font-family="sans-serif" font-size="12" lengthAdjust="spacing" textLength="108.0008" x="120.0007" y="931.2209">&#12495;&#12531;&#12489;&#12523;&#12434;&#12463;&#12525;&#12540;&#12474;</text><rect fill="#F1F1F1" height="35.2401" rx="12.5" ry="12.5" style="stroke:#181818;stroke-width:0.5;" width="74.0004" x="137.001" y="964.4609"/><text fill="#000000" font-family="sans-serif" font-size="12" lengthAdjust="spacing" textLength="54.0004" x="147.001" y="986.461">return -1</text><ellipse cx="174.0012" cy="1030.701" fill="none" rx="11" ry="11" style="stroke:#222222;stroke-width:1;"/><ellipse cx="174.0012" cy="1030.701" fill="#222222" rx="6" ry="6" style="stroke:#222222;stroke-width:1;"/><polygon fill="#F1F1F1" points="113.5017,860.2359,234.5007,860.2359,246.5007,872.2359,234.5007,884.2359,113.5017,884.2359,101.5017,872.2359,113.5017,860.2359" style="stroke:#181818;stroke-width:0.5;"/><text fill="#000000" font-family="sans-serif" font-size="11" lengthAdjust="spacing" textLength="21.9998" x="178.0012" y="895.2358">true</text><text fill="#000000" font-family="sans-serif" font-size="11" lengthAdjust="spacing" textLength="120.999" x="113.5017" y="876.2508">func_override == NULL?</text><rect fill="#F1F1F1" height="35.2401" rx="12.5" ry="12.5" style="stroke:#181818;stroke-width:0.5;" width="218.0015" x="65.0004" y="1083.701"/><text fill="#000000" font-family="sans-serif" font-size="12" lengthAdjust="spacing" textLength="198.0015" x="75.0004" y="1105.7011">console_output &#12391;&#31227;&#35698;&#12377;&#12427;&#26088;&#12434;&#34920;&#31034;</text><rect fill="#F1F1F1" height="35.2401" rx="12.5" ry="12.5" style="stroke:#181818;stroke-width:0.5;" width="326.0023" x="11" y="1138.9411"/><text fill="#000000" font-family="sans-serif" font-size="12" lengthAdjust="spacing" textLength="306.0023" x="21" y="1160.9412">func_override(useOverride, a, b, result) &#12434;&#21628;&#12403;&#20986;&#12377;</text><rect fill="#F1F1F1" height="35.2401" rx="12.5" ry="12.5" style="stroke:#181818;stroke-width:0.5;" width="128.0008" x="110.0007" y="1194.1812"/><text fill="#000000" font-family="sans-serif" font-size="12" lengthAdjust="spacing" textLength="108.0008" x="120.0007" y="1216.1813">&#12495;&#12531;&#12489;&#12523;&#12434;&#12463;&#12525;&#12540;&#12474;</text><rect fill="#F1F1F1" height="35.2401" rx="12.5" ry="12.5" style="stroke:#181818;stroke-width:0.5;" width="80.0005" x="134.0009" y="1249.4213"/><text fill="#000000" font-family="sans-serif" font-size="12" lengthAdjust="spacing" textLength="60.0005" x="144.0009" y="1271.4214">return ret</text><ellipse cx="174.0012" cy="1315.6614" fill="none" rx="11" ry="11" style="stroke:#222222;stroke-width:1;"/><ellipse cx="174.0012" cy="1315.6614" fill="#222222" rx="6" ry="6" style="stroke:#222222;stroke-width:1;"/><line style="stroke:#181818;stroke-width:1;" x1="174.0012" x2="174.0012" y1="134.2251" y2="162.105"/><polygon fill="#181818" points="170.0012,152.105,174.0012,162.105,178.0012,152.105,174.0012,156.105" style="stroke:#181818;stroke-width:1;"/><line style="stroke:#181818;stroke-width:1;" x1="174.0012" x2="174.0012" y1="74" y2="98.9849"/><polygon fill="#181818" points="170.0012,88.9849,174.0012,98.9849,178.0012,88.9849,174.0012,92.9849" style="stroke:#181818;stroke-width:1;"/><line style="stroke:#181818;stroke-width:1;" x1="227.2508" x2="239.2508" y1="62" y2="62"/><polygon fill="#181818" points="235.2508,132.105,239.2508,142.105,243.2508,132.105,239.2508,136.105" style="stroke:#181818;stroke-width:1;"/><line style="stroke:#181818;stroke-width:1;" x1="239.2508" x2="239.2508" y1="62" y2="206.105"/><line style="stroke:#181818;stroke-width:1;" x1="239.2508" x2="174.0012" y1="206.105" y2="206.105"/><line style="stroke:#181818;stroke-width:1;" x1="174.0012" x2="174.0012" y1="206.105" y2="226.105"/><polygon fill="#181818" points="170.0012,216.105,174.0012,226.105,178.0012,216.105,174.0012,220.105" style="stroke:#181818;stroke-width:1;"/><line style="stroke:#181818;stroke-width:1;" x1="174.0012" x2="174.0012" y1="30" y2="50"/><polygon fill="#181818" points="170.0012,40,174.0012,50,178.0012,40,174.0012,44" style="stroke:#181818;stroke-width:1;"/><line style="stroke:#181818;stroke-width:1;" x1="174.0012" x2="174.0012" y1="310.3301" y2="330.3301"/><polygon fill="#181818" points="170.0012,320.3301,174.0012,330.3301,178.0012,320.3301,174.0012,324.3301" style="stroke:#181818;stroke-width:1;"/><line style="stroke:#181818;stroke-width:1;" x1="174.0012" x2="174.0012" y1="365.5702" y2="393.4501"/><polygon fill="#181818" points="170.0012,383.4501,174.0012,393.4501,178.0012,383.4501,174.0012,387.4501" style="stroke:#181818;stroke-width:1;"/><line style="stroke:#181818;stroke-width:1;" x1="174.0012" x2="174.0012" y1="428.6902" y2="448.6902"/><polygon fill="#181818" points="170.0012,438.6902,174.0012,448.6902,178.0012,438.6902,174.0012,442.6902" style="stroke:#181818;stroke-width:1;"/><line style="stroke:#181818;stroke-width:1;" x1="174.0012" x2="174.0012" y1="250.105" y2="275.0899"/><polygon fill="#181818" points="170.0012,265.0899,174.0012,275.0899,178.0012,265.0899,174.0012,269.0899" style="stroke:#181818;stroke-width:1;"/><line style="stroke:#181818;stroke-width:1;" x1="232.7508" x2="299.002" y1="238.105" y2="238.105"/><polygon fill="#181818" points="295.002,363.4501,299.002,373.4501,303.002,363.4501,299.002,367.4501" style="stroke:#181818;stroke-width:1;"/><line style="stroke:#181818;stroke-width:1;" x1="299.002" x2="299.002" y1="238.105" y2="492.6902"/><line style="stroke:#181818;stroke-width:1;" x1="299.002" x2="174.0012" y1="492.6902" y2="492.6902"/><line style="stroke:#181818;stroke-width:1;" x1="174.0012" x2="174.0012" y1="492.6902" y2="512.6902"/><polygon fill="#181818" points="170.0012,502.6902,174.0012,512.6902,178.0012,502.6902,174.0012,506.6902" style="stroke:#181818;stroke-width:1;"/><line style="stroke:#181818;stroke-width:1;" x1="174.0012" x2="174.0012" y1="682.6356" y2="710.5155"/><polygon fill="#181818" points="170.0012,700.5155,174.0012,710.5155,178.0012,700.5155,174.0012,704.5155" style="stroke:#181818;stroke-width:1;"/><line style="stroke:#181818;stroke-width:1;" x1="174.0012" x2="174.0012" y1="622.4105" y2="647.3955"/><polygon fill="#181818" points="170.0012,637.3955,174.0012,647.3955,178.0012,637.3955,174.0012,641.3955" style="stroke:#181818;stroke-width:1;"/><line style="stroke:#181818;stroke-width:1;" x1="227.2508" x2="239.2508" y1="610.4105" y2="610.4105"/><polygon fill="#181818" points="235.2508,680.5155,239.2508,690.5155,243.2508,680.5155,239.2508,684.5155" style="stroke:#181818;stroke-width:1;"/><line style="stroke:#181818;stroke-width:1;" x1="239.2508" x2="239.2508" y1="610.4105" y2="754.5155"/><line style="stroke:#181818;stroke-width:1;" x1="239.2508" x2="174.0012" y1="754.5155" y2="754.5155"/><line style="stroke:#181818;stroke-width:1;" x1="174.0012" x2="174.0012" y1="754.5155" y2="774.5155"/><polygon fill="#181818" points="170.0012,764.5155,174.0012,774.5155,178.0012,764.5155,174.0012,768.5155" style="stroke:#181818;stroke-width:1;"/><line style="stroke:#181818;stroke-width:1;" x1="174.0012" x2="174.0012" y1="578.4105" y2="598.4105"/><polygon fill="#181818" points="170.0012,588.4105,174.0012,598.4105,178.0012,588.4105,174.0012,592.4105" style="stroke:#181818;stroke-width:1;"/><line style="stroke:#181818;stroke-width:1;" x1="174.0012" x2="174.0012" y1="944.4609" y2="964.4609"/><polygon fill="#181818" points="170.0012,954.4609,174.0012,964.4609,178.0012,954.4609,174.0012,958.4609" style="stroke:#181818;stroke-width:1;"/><line style="stroke:#181818;stroke-width:1;" x1="174.0012" x2="174.0012" y1="999.701" y2="1019.701"/><polygon fill="#181818" points="170.0012,1009.701,174.0012,1019.701,178.0012,1009.701,174.0012,1013.701" style="stroke:#181818;stroke-width:1;"/><line style="stroke:#181818;stroke-width:1;" x1="174.0012" x2="174.0012" y1="884.2359" y2="909.2208"/><polygon fill="#181818" points="170.0012,899.2208,174.0012,909.2208,178.0012,899.2208,174.0012,903.2208" style="stroke:#181818;stroke-width:1;"/><line style="stroke:#181818;stroke-width:1;" x1="246.5007" x2="258.5007" y1="872.2359" y2="872.2359"/><polygon fill="#181818" points="254.5007,962.4609,258.5007,972.4609,262.5007,962.4609,258.5007,966.4609" style="stroke:#181818;stroke-width:1;"/><line style="stroke:#181818;stroke-width:1;" x1="258.5007" x2="258.5007" y1="872.2359" y2="1063.701"/><line style="stroke:#181818;stroke-width:1;" x1="258.5007" x2="174.0012" y1="1063.701" y2="1063.701"/><line style="stroke:#181818;stroke-width:1;" x1="174.0012" x2="174.0012" y1="1063.701" y2="1083.701"/><polygon fill="#181818" points="170.0012,1073.701,174.0012,1083.701,178.0012,1073.701,174.0012,1077.701" style="stroke:#181818;stroke-width:1;"/><line style="stroke:#181818;stroke-width:1;" x1="174.0012" x2="174.0012" y1="840.2359" y2="860.2359"/><polygon fill="#181818" points="170.0012,850.2359,174.0012,860.2359,178.0012,850.2359,174.0012,854.2359" style="stroke:#181818;stroke-width:1;"/><line style="stroke:#181818;stroke-width:1;" x1="174.0012" x2="174.0012" y1="1118.9411" y2="1138.9411"/><polygon fill="#181818" points="170.0012,1128.9411,174.0012,1138.9411,178.0012,1128.9411,174.0012,1132.9411" style="stroke:#181818;stroke-width:1;"/><line style="stroke:#181818;stroke-width:1;" x1="174.0012" x2="174.0012" y1="1174.1812" y2="1194.1812"/><polygon fill="#181818" points="170.0012,1184.1812,174.0012,1194.1812,178.0012,1184.1812,174.0012,1188.1812" style="stroke:#181818;stroke-width:1;"/><line style="stroke:#181818;stroke-width:1;" x1="174.0012" x2="174.0012" y1="1229.4213" y2="1249.4213"/><polygon fill="#181818" points="170.0012,1239.4213,174.0012,1249.4213,178.0012,1239.4213,174.0012,1243.4213" style="stroke:#181818;stroke-width:1;"/><line style="stroke:#181818;stroke-width:1;" x1="174.0012" x2="174.0012" y1="1284.6614" y2="1304.6614"/><polygon fill="#181818" points="170.0012,1294.6614,174.0012,1304.6614,178.0012,1294.6614,174.0012,1298.6614" style="stroke:#181818;stroke-width:1;"/><g class="caption" data-source-line="31"><text fill="#000000" font-family="sans-serif" font-size="14" lengthAdjust="spacing" textLength="160.9993" x="92.0015" y="1340.6614">func &#20966;&#29702;&#12450;&#12463;&#12486;&#12451;&#12499;&#12486;&#12451;</text></g><!--SRC=[hPBDIiD058NtFiLTjhLYtJQ8k79Jr8sxWgJD50DnfamcGfV9WAMer1-igAjgyPTQKLUrz6KkQVGjdAIcAaL5C9lSIMREVETm002AUbcOZ4B9eKNmgnV1xYPwP-XrKAhX7EN1S9XGUy4MEXVHP9OWmOdjM09cPs5n9PURIu9O8nGIWZia6MqAdomdmk4KfcQqqJTRi7Aq8DGmIoCznoPB6uHpqo2XQEOxnIAZDhF8AdD4sH60xcNClV_It4PtSt1q5SrNGQlxSMisbOg9GOT9AAHIsXXcvaVAh66niYAQXXpJZPnPu3glX01vQfa55iEhor6sKVPGrl8qWV8QlHRAHZZ86tzt1zsEVtSIzDNo4BrczFSsQDT2AwtQuFJ9htUIsYYODPqQ5lcVe9K5kxAk72mGiSnPSTumL2hsq4HOWjNFDlnwm-yVAG-lZRF1uVtVqRyg_k80PHtbemfDIOOPXYMCOlIwsfzzZhSak7n-QJ-WUupUrdX5ibzGFvSn3NeQ2caOjYSPvRBNG_VHhtQLsllnN-5ZSFNI9cBgDm00]--></g></svg>