<?xml version="1.0" encoding="UTF-8" standalone="no"?>
<!DOCTYPE svg PUBLIC "-//W3C//DTD SVG 1.1//EN"
 "http://www.w3.org/Graphics/SVG/1.1/DTD/svg11.dtd">
<!-- Generated by graphviz version 2.40.1 (0)
 -->
<!-- Title: libbase_unload_func Pages: 1 -->
<svg width="447pt" height="27pt"
 viewBox="0.00 0.00 447.00 27.00" xmlns="http://www.w3.org/2000/svg" xmlns:xlink="http://www.w3.org/1999/xlink">
<g id="graph0" class="graph" transform="scale(1 1) rotate(0) translate(4 23)">
<title>libbase_unload_func</title>
<!-- Node1 -->
<g id="Node000001" class="node">
<title>Node1</title>
<g id="a_Node000001"><a xlink:title=" ">
<polygon fill="#999999" stroke="#666666" points="439,-19 334,-19 334,0 439,0 439,-19"/>
<text text-anchor="middle" x="386.5" y="-7" font-family="Helvetica,sans-Serif" font-size="10.00" fill="#000000">libbase_unload_func</text>
</a>
</g>
</g>
<!-- Node2 -->
<g id="Node000002" class="node">
<title>Node2</title>
<g id="a_Node000002"><a xlink:href="lib__loader_8c.html#a2cae0bb7ef3ddbaf4feaa84dbccd65dd" target="_top" xlink:title=" ">
<polygon fill="#ffffff" stroke="#666666" points="298,-19 202,-19 202,0 298,0 298,-19"/>
<text text-anchor="middle" x="250" y="-7" font-family="Helvetica,sans-Serif" font-size="10.00" fill="#000000">libbase_unload_all</text>
</a>
</g>
</g>
<!-- Node1&#45;&gt;Node2 -->
<g id="edge1_Node000001_Node000002" class="edge">
<title>Node1&#45;&gt;Node2</title>
<g id="a_edge1_Node000001_Node000002"><a xlink:title=" ">
<path fill="none" stroke="#63b8ff" d="M323.4515,-9.5C314.9555,-9.5 306.3513,-9.5 298.1698,-9.5"/>
<polygon fill="#63b8ff" stroke="#63b8ff" points="323.7256,-13.0001 333.7255,-9.5 323.7255,-6.0001 323.7256,-13.0001"/>
</a>
</g>
</g>
<!-- Node3 -->
<g id="Node000003" class="node">
<title>Node3</title>
<g id="a_Node000003"><a xlink:href="DllMain_8c.html#ad6ea4e19cd8b77666efd16582b3c7033" target="_top" xlink:title=" ">
<polygon fill="#ffffff" stroke="#666666" points="166,-19 109,-19 109,0 166,0 166,-19"/>
<text text-anchor="middle" x="137.5" y="-7" font-family="Helvetica,sans-Serif" font-size="10.00" fill="#000000">onUnload</text>
</a>
</g>
</g>
<!-- Node2&#45;&gt;Node3 -->
<g id="edge2_Node000002_Node000003" class="edge">
<title>Node2&#45;&gt;Node3</title>
<g id="a_edge2_Node000002_Node000003"><a xlink:title=" ">
<path fill="none" stroke="#63b8ff" d="M191.8999,-9.5C182.9672,-9.5 174.0967,-9.5 166.191,-9.5"/>
<polygon fill="#63b8ff" stroke="#63b8ff" points="191.9636,-13.0001 201.9636,-9.5 191.9635,-6.0001 191.9636,-13.0001"/>
</a>
</g>
</g>
<!-- Node4 -->
<g id="Node000004" class="node">
<title>Node4</title>
<g id="a_Node000004"><a xlink:href="DllMain_8c.html#a521aaa29708382a7af39b3f0e60e4a1f" target="_top" xlink:title="共有ライブラリアンロード時のデストラクタ (Linux 専用)。">
<polygon fill="#ffffff" stroke="#666666" points="73,-19 0,-19 0,0 73,0 73,-19"/>
<text text-anchor="middle" x="36.5" y="-7" font-family="Helvetica,sans-Serif" font-size="10.00" fill="#000000">__attribute__</text>
</a>
</g>
</g>
<!-- Node3&#45;&gt;Node4 -->
<g id="edge3_Node000003_Node000004" class="edge">
<title>Node3&#45;&gt;Node4</title>
<g id="a_edge3_Node000003_Node000004"><a xlink:title=" ">
<path fill="none" stroke="#63b8ff" d="M98.5733,-9.5C90.2317,-9.5 81.4447,-9.5 73.191,-9.5"/>
<polygon fill="#63b8ff" stroke="#63b8ff" points="98.8276,-13.0001 108.8276,-9.5 98.8276,-6.0001 98.8276,-13.0001"/>
</a>
</g>
</g>
</g>
</svg>
