<?xml version="1.0" encoding="UTF-8" standalone="no"?>
<!DOCTYPE svg PUBLIC "-//W3C//DTD SVG 1.1//EN"
 "http://www.w3.org/Graphics/SVG/1.1/DTD/svg11.dtd">
<!-- Generated by graphviz version 2.40.1 (0)
 -->
<!-- Title: override&#45;sample/libsrc/base/libbase_local.h Pages: 1 -->
<svg width="130pt" height="93pt"
 viewBox="0.00 0.00 129.50 93.00" xmlns="http://www.w3.org/2000/svg" xmlns:xlink="http://www.w3.org/1999/xlink">
<g id="graph0" class="graph" transform="scale(1 1) rotate(0) translate(4 89)">
<title>override&#45;sample/libsrc/base/libbase_local.h</title>
<!-- Node1 -->
<g id="Node000001" class="node">
<title>Node1</title>
<g id="a_Node000001"><a xlink:title="libbase 内部共有ヘッダーファイル。">
<polygon fill="#999999" stroke="#666666" points="114,-85 2,-85 2,-55 114,-55 114,-85"/>
<text text-anchor="start" x="10" y="-73" font-family="Helvetica,sans-Serif" font-size="10.00" fill="#000000">override&#45;sample/libsrc</text>
<text text-anchor="middle" x="58" y="-62" font-family="Helvetica,sans-Serif" font-size="10.00" fill="#000000">/base/libbase_local.h</text>
</a>
</g>
</g>
<!-- Node2 -->
<g id="Node000002" class="node">
<title>Node2</title>
<g id="a_Node000002"><a xlink:title=" ">
<polygon fill="#e0e0e0" stroke="#999999" points="46,-19 0,-19 0,0 46,0 46,-19"/>
<text text-anchor="middle" x="23" y="-7" font-family="Helvetica,sans-Serif" font-size="10.00" fill="#000000">dlfcn.h</text>
</a>
</g>
</g>
<!-- Node1&#45;&gt;Node2 -->
<g id="edge1_Node000001_Node000002" class="edge">
<title>Node1&#45;&gt;Node2</title>
<g id="a_edge1_Node000001_Node000002"><a xlink:title=" ">
<path fill="none" stroke="#63b8ff" d="M49.168,-54.7333C44.4597,-46.5946 38.6314,-36.52 33.6712,-27.946"/>
<polygon fill="#63b8ff" stroke="#63b8ff" points="36.583,-25.9897 28.5459,-19.0864 30.5239,-29.495 36.583,-25.9897"/>
</a>
</g>
</g>
<!-- Node3 -->
<g id="Node000003" class="node">
<title>Node3</title>
<g id="a_Node000003"><a xlink:title=" ">
<polygon fill="#e0e0e0" stroke="#999999" points="121.5,-19 64.5,-19 64.5,0 121.5,0 121.5,-19"/>
<text text-anchor="middle" x="93" y="-7" font-family="Helvetica,sans-Serif" font-size="10.00" fill="#000000">pthread.h</text>
</a>
</g>
</g>
<!-- Node1&#45;&gt;Node3 -->
<g id="edge2_Node000001_Node000003" class="edge">
<title>Node1&#45;&gt;Node3</title>
<g id="a_edge2_Node000001_Node000003"><a xlink:title=" ">
<path fill="none" stroke="#63b8ff" d="M66.832,-54.7333C71.5403,-46.5946 77.3686,-36.52 82.3288,-27.946"/>
<polygon fill="#63b8ff" stroke="#63b8ff" points="85.4761,-29.495 87.4541,-19.0864 79.417,-25.9897 85.4761,-29.495"/>
</a>
</g>
</g>
</g>
</svg>
