<?xml version="1.0" encoding="UTF-8" standalone="no"?>
<!DOCTYPE svg PUBLIC "-//W3C//DTD SVG 1.1//EN"
 "http://www.w3.org/Graphics/SVG/1.1/DTD/svg11.dtd">
<!-- Generated by graphviz version 2.40.1 (0)
 -->
<!-- Title: get_lib_basename Pages: 1 -->
<svg width="488pt" height="121pt"
 viewBox="0.00 0.00 488.00 121.10" xmlns="http://www.w3.org/2000/svg" xmlns:xlink="http://www.w3.org/1999/xlink">

<svg id="main" version="1.1" xmlns="http://www.w3.org/2000/svg" xmlns:xlink="http://www.w3.org/1999/xlink" xml:space="preserve">

<style type="text/css"><![CDATA[
.node, .edge {opacity: 0.7;}
.node.selected, .edge.selected {opacity: 1;}
.edge:hover path { stroke: red; }
.edge:hover polygon { stroke: red; fill: red; }
]]></style>
<script type="application/ecmascript" xlink:href="svg.min.js"/>
<svg id="graph" class="graph">
<g id="graph0" class="graph" transform="scale(1 1) rotate(0) translate(4 117.0995)">
<title>get_lib_basename</title>
<!-- Node1 -->
<g id="Node000001" class="node">
<title>Node1</title>
<g id="a_Node000001"><a xlink:title="指定した関数が所属する共有ライブラリ (.so/.dll) の basename (パスなし・拡張子なし) を取得します。">
<polygon fill="#999999" stroke="#666666" points="95,-74 0,-74 0,-55 95,-55 95,-74"/>
<text text-anchor="middle" x="47.5" y="-62" font-family="Helvetica,sans-Serif" font-size="10.00" fill="#000000">get_lib_basename</text>
</a>
</g>
</g>
<!-- Node2 -->
<g id="Node000002" class="node">
<title>Node2</title>
<g id="a_Node000002"><a xlink:href="get__lib__info_8c.html#a6b8f85c79c31c267b18934757210e83e" target="_top" xlink:title="文字列を安全にコピーします (UTF&#45;8 想定だが単なる byte 列として扱う)。">
<polygon fill="#ffffff" stroke="#666666" points="480,-94 426,-94 426,-75 480,-75 480,-94"/>
<text text-anchor="middle" x="453" y="-82" font-family="Helvetica,sans-Serif" font-size="10.00" fill="#000000">copy_str</text>
</a>
</g>
</g>
<!-- Node1&#45;&gt;Node2 -->
<g id="edge1_Node000001_Node000002" class="edge">
<title>Node1&#45;&gt;Node2</title>
<g id="a_edge1_Node000001_Node000002"><a xlink:title=" ">
<path fill="none" stroke="#63b8ff" d="M63.109,-74.0701C79.3744,-83.4369 105.9398,-97.0658 131,-102.5 232.3828,-124.4844 355.6834,-105.2174 416.0691,-92.8949"/>
<polygon fill="#63b8ff" stroke="#63b8ff" points="416.8312,-96.3113 425.9012,-90.8353 415.396,-89.46 416.8312,-96.3113"/>
</a>
</g>
</g>
<!-- Node3 -->
<g id="Node000003" class="node">
<title>Node3</title>
<g id="a_Node000003"><a xlink:href="get__lib__info_8c.html#ae72331c635b126219e7aa22222353d80" target="_top" xlink:title="パス文字列からファイル名部分 (最後の区切り文字以降) を返します。">
<polygon fill="#ffffff" stroke="#666666" points="236,-93 145,-93 145,-74 236,-74 236,-93"/>
<text text-anchor="middle" x="190.5" y="-81" font-family="Helvetica,sans-Serif" font-size="10.00" fill="#000000">get_ilename_part</text>
</a>
</g>
</g>
<!-- Node1&#45;&gt;Node3 -->
<g id="edge2_Node000001_Node000003" class="edge">
<title>Node1&#45;&gt;Node3</title>
<g id="a_edge2_Node000001_Node000003"><a xlink:title=" ">
<path fill="none" stroke="#63b8ff" d="M95.1169,-70.8267C107.6824,-72.4963 121.3597,-74.3135 134.3306,-76.0369"/>
<polygon fill="#63b8ff" stroke="#63b8ff" points="134.173,-79.5467 144.5469,-77.3943 135.095,-72.6076 134.173,-79.5467"/>
</a>
</g>
</g>
<!-- Node4 -->
<g id="Node000004" class="node">
<title>Node4</title>
<g id="a_Node000004"><a xlink:href="get__lib__info_8c.html#af6ea2bf0e62a8f5f9fe488ef6b07db62" target="_top" xlink:title="指定した関数が所属する共有ライブラリ (.so/.dll) の絶対パスを取得します。">
<polygon fill="#ffffff" stroke="#666666" points="225,-56 156,-56 156,-37 225,-37 225,-56"/>
<text text-anchor="middle" x="190.5" y="-44" font-family="Helvetica,sans-Serif" font-size="10.00" fill="#000000">get_lib_path</text>
</a>
</g>
</g>
<!-- Node1&#45;&gt;Node4 -->
<g id="edge3_Node000001_Node000004" class="edge">
<title>Node1&#45;&gt;Node4</title>
<g id="a_edge3_Node000001_Node000004"><a xlink:title=" ">
<path fill="none" stroke="#63b8ff" d="M95.1169,-58.5063C111.3791,-56.4593 129.5036,-54.1779 145.5491,-52.1582"/>
<polygon fill="#63b8ff" stroke="#63b8ff" points="146.2679,-55.5954 155.7525,-50.8738 145.3937,-48.6502 146.2679,-55.5954"/>
</a>
</g>
</g>
<!-- Node6 -->
<g id="Node000006" class="node">
<title>Node6</title>
<g id="a_Node000006"><a xlink:href="get__lib__info_8c.html#a6a4373ad8047dc25256fd9320083d960" target="_top" xlink:title="拡張子を取り除きます (その場で書き換え)。">
<polygon fill="#ffffff" stroke="#666666" points="250,-19 131,-19 131,0 250,0 250,-19"/>
<text text-anchor="middle" x="190.5" y="-7" font-family="Helvetica,sans-Serif" font-size="10.00" fill="#000000">strip_extension_inplace</text>
</a>
</g>
</g>
<!-- Node1&#45;&gt;Node6 -->
<g id="edge6_Node000001_Node000006" class="edge">
<title>Node1&#45;&gt;Node6</title>
<g id="a_edge6_Node000001_Node000006"><a xlink:title=" ">
<path fill="none" stroke="#63b8ff" d="M67.1238,-54.9797C83.8676,-47.0572 108.7027,-35.7769 131,-27.5 135.9323,-25.6691 141.1438,-23.8828 146.3493,-22.1904"/>
<polygon fill="#63b8ff" stroke="#63b8ff" points="147.7898,-25.4063 156.2772,-19.0648 145.6877,-18.7294 147.7898,-25.4063"/>
</a>
</g>
</g>
<!-- Node5 -->
<g id="Node000005" class="node">
<title>Node5</title>
<g id="a_Node000005"><a xlink:href="get__lib__info_8c.html#a3da7623fb03ca9f5a9febbfb28bca8c6" target="_top" xlink:title=".so 自身の絶対パスを取得します (Linux/Unix)。">
<polygon fill="#ffffff" stroke="#666666" points="390,-75 286,-75 286,-56 390,-56 390,-75"/>
<text text-anchor="middle" x="338" y="-63" font-family="Helvetica,sans-Serif" font-size="10.00" fill="#000000">get_self_path_posix</text>
</a>
</g>
</g>
<!-- Node4&#45;&gt;Node5 -->
<g id="edge4_Node000004_Node000005" class="edge">
<title>Node4&#45;&gt;Node5</title>
<g id="a_edge4_Node000004_Node000005"><a xlink:title=" ">
<path fill="none" stroke="#63b8ff" d="M225.0822,-50.9547C240.1723,-52.8985 258.3444,-55.2393 275.657,-57.4694"/>
<polygon fill="#63b8ff" stroke="#63b8ff" points="275.3561,-60.9594 285.7213,-58.7658 276.2504,-54.0168 275.3561,-60.9594"/>
</a>
</g>
</g>
<!-- Node5&#45;&gt;Node2 -->
<g id="edge5_Node000005_Node000002" class="edge">
<title>Node5&#45;&gt;Node2</title>
<g id="a_edge5_Node000005_Node000002"><a xlink:title=" ">
<path fill="none" stroke="#63b8ff" d="M390.1164,-74.1105C398.8079,-75.5465 407.6648,-77.0098 415.8836,-78.3677"/>
<polygon fill="#63b8ff" stroke="#63b8ff" points="415.4554,-81.8444 425.8922,-80.0213 416.5965,-74.938 415.4554,-81.8444"/>
</a>
</g>
</g>
</g>
</svg>
</svg>

<style type='text/css'>
<![CDATA[
[data-mouse-over-selected='false'] { opacity: 0.7; }
[data-mouse-over-selected='true']  { opacity: 1.0; }
]]>
</style>
<script type="application/ecmascript"><![CDATA[
document.addEventListener('DOMContentLoaded', (event) => {
  highlightEdges();
  highlightAdjacentNodes();
});
]]></script>
</svg>
