<?xml version="1.0" encoding="UTF-8" standalone="no"?>
<!DOCTYPE svg PUBLIC "-//W3C//DTD SVG 1.1//EN"
 "http://www.w3.org/Graphics/SVG/1.1/DTD/svg11.dtd">
<!-- Generated by graphviz version 2.40.1 (0)
 -->
<!-- Title: override&#45;sample/libsrc/base/libbase_local.h Pages: 1 -->
<svg width="380pt" height="104pt"
 viewBox="0.00 0.00 380.00 104.00" xmlns="http://www.w3.org/2000/svg" xmlns:xlink="http://www.w3.org/1999/xlink">
<g id="graph0" class="graph" transform="scale(1 1) rotate(0) translate(4 100)">
<title>override&#45;sample/libsrc/base/libbase_local.h</title>
<!-- Node1 -->
<g id="Node000001" class="node">
<title>Node1</title>
<g id="a_Node000001"><a xlink:title="libbase 内部共有ヘッダーファイル。">
<polygon fill="#999999" stroke="#666666" points="242,-96 130,-96 130,-66 242,-66 242,-96"/>
<text text-anchor="start" x="138" y="-84" font-family="Helvetica,sans-Serif" font-size="10.00" fill="#000000">override&#45;sample/libsrc</text>
<text text-anchor="middle" x="186" y="-73" font-family="Helvetica,sans-Serif" font-size="10.00" fill="#000000">/base/libbase_local.h</text>
</a>
</g>
</g>
<!-- Node2 -->
<g id="Node000002" class="node">
<title>Node2</title>
<g id="a_Node000002"><a xlink:href="DllMain_8c.html" target="_top" xlink:title="base.so / base.dll のアンロード時処理。">
<polygon fill="#ffffff" stroke="#666666" points="112,-30 0,-30 0,0 112,0 112,-30"/>
<text text-anchor="start" x="8" y="-18" font-family="Helvetica,sans-Serif" font-size="10.00" fill="#000000">override&#45;sample/libsrc</text>
<text text-anchor="middle" x="56" y="-7" font-family="Helvetica,sans-Serif" font-size="10.00" fill="#000000">/base/DllMain.c</text>
</a>
</g>
</g>
<!-- Node1&#45;&gt;Node2 -->
<g id="edge1_Node000001_Node000002" class="edge">
<title>Node1&#45;&gt;Node2</title>
<g id="a_edge1_Node000001_Node000002"><a xlink:title=" ">
<path fill="none" stroke="#63b8ff" d="M147.1431,-61.2726C127.447,-51.2731 103.908,-39.3225 85.6858,-30.0713"/>
<polygon fill="#63b8ff" stroke="#63b8ff" points="145.6743,-64.4521 156.1754,-65.8583 148.8431,-58.2105 145.6743,-64.4521"/>
</a>
</g>
</g>
<!-- Node3 -->
<g id="Node000003" class="node">
<title>Node3</title>
<g id="a_Node000003"><a xlink:href="func_8c.html" target="_top" xlink:title="func 関数の実装ファイル。">
<polygon fill="#ffffff" stroke="#666666" points="242,-30 130,-30 130,0 242,0 242,-30"/>
<text text-anchor="start" x="138" y="-18" font-family="Helvetica,sans-Serif" font-size="10.00" fill="#000000">override&#45;sample/libsrc</text>
<text text-anchor="middle" x="186" y="-7" font-family="Helvetica,sans-Serif" font-size="10.00" fill="#000000">/base/func.c</text>
</a>
</g>
</g>
<!-- Node1&#45;&gt;Node3 -->
<g id="edge2_Node000001_Node000003" class="edge">
<title>Node1&#45;&gt;Node3</title>
<g id="a_edge2_Node000001_Node000003"><a xlink:title=" ">
<path fill="none" stroke="#63b8ff" d="M186,-55.4546C186,-46.9317 186,-37.7088 186,-30.2246"/>
<polygon fill="#63b8ff" stroke="#63b8ff" points="182.5001,-55.6923 186,-65.6924 189.5001,-55.6924 182.5001,-55.6923"/>
</a>
</g>
</g>
<!-- Node4 -->
<g id="Node000004" class="node">
<title>Node4</title>
<g id="a_Node000004"><a xlink:href="lib__loader_8c.html" target="_top" xlink:title="動的ライブラリロード Factory 関数の実装ファイル。">
<polygon fill="#ffffff" stroke="#666666" points="372,-30 260,-30 260,0 372,0 372,-30"/>
<text text-anchor="start" x="268" y="-18" font-family="Helvetica,sans-Serif" font-size="10.00" fill="#000000">override&#45;sample/libsrc</text>
<text text-anchor="middle" x="316" y="-7" font-family="Helvetica,sans-Serif" font-size="10.00" fill="#000000">/base/lib_loader.c</text>
</a>
</g>
</g>
<!-- Node1&#45;&gt;Node4 -->
<g id="edge3_Node000001_Node000004" class="edge">
<title>Node1&#45;&gt;Node4</title>
<g id="a_edge3_Node000001_Node000004"><a xlink:title=" ">
<path fill="none" stroke="#63b8ff" d="M224.8569,-61.2726C244.553,-51.2731 268.092,-39.3225 286.3142,-30.0713"/>
<polygon fill="#63b8ff" stroke="#63b8ff" points="223.1569,-58.2105 215.8246,-65.8583 226.3257,-64.4521 223.1569,-58.2105"/>
</a>
</g>
</g>
</g>
</svg>
