<?xml version="1.0" encoding="UTF-8" standalone="no"?>
<!DOCTYPE svg PUBLIC "-//W3C//DTD SVG 1.1//EN"
 "http://www.w3.org/Graphics/SVG/1.1/DTD/svg11.dtd">
<!-- Generated by graphviz version 2.40.1 (0)
 -->
<!-- Title: override&#45;sample/include/libbase.h Pages: 1 -->
<!--zoomable 181 -->

<svg id="main" version="1.1" xmlns="http://www.w3.org/2000/svg" xmlns:xlink="http://www.w3.org/1999/xlink" xml:space="preserve" onload="init(evt)">

<style type="text/css"><![CDATA[
.node, .edge {opacity: 0.7;}
.node.selected, .edge.selected {opacity: 1;}
.edge:hover path { stroke: red; }
.edge:hover polygon { stroke: red; fill: red; }
]]></style>

<defs>
  <circle id="rim" cx="0" cy="0" r="7"/>
  <circle id="rim2" cx="0" cy="0" r="3.5"/>
  <g id="zoomPlus">
    <use xlink:href="#rim" fill="#404040"><set attributeName="fill" to="#808080" begin="zoomplus.mouseover" end="zoomplus.mouseout"/></use>
    <path d="M-4,0h8M0,-4v8" fill="none" stroke="white" stroke-width="1.5" pointer-events="none"/>
  </g>
  <g id="zoomMin">
    <use xlink:href="#rim" fill="#404040"><set attributeName="fill" to="#808080" begin="zoomminus.mouseover" end="zoomminus.mouseout"/></use>
    <path d="M-4,0h8" fill="none" stroke="white" stroke-width="1.5" pointer-events="none"/>
  </g>
  <g id="arrowUp" transform="translate(30 24)">
    <use xlink:href="#rim"/>
    <path pointer-events="none" fill="none" stroke="white" stroke-width="1.5" d="M0,-3.0v7 M-2.5,-0.5L0,-3.0L2.5,-0.5"/>
  </g>
  <g id="arrowRight" transform="rotate(90) translate(36 -43)">
    <use xlink:href="#rim"/>
    <path pointer-events="none" fill="none" stroke="white" stroke-width="1.5" d="M0,-3.0v7 M-2.5,-0.5L0,-3.0L2.5,-0.5"/>
  </g>
  <g id="arrowDown" transform="rotate(180) translate(-30 -48)">
    <use xlink:href="#rim"/>
    <path pointer-events="none" fill="none" stroke="white" stroke-width="1.5" d="M0,-3.0v7 M-2.5,-0.5L0,-3.0L2.5,-0.5"/>
  </g>
  <g id="arrowLeft" transform="rotate(270) translate(-36 17)">
    <use xlink:href="#rim"/>
    <path pointer-events="none" fill="none" stroke="white" stroke-width="1.5" d="M0,-3.0v7 M-2.5,-0.5L0,-3.0L2.5,-0.5"/>
  </g>
  <g id="resetDef">
    <use xlink:href="#rim2" fill="#404040"><set attributeName="fill" to="#808080" begin="reset.mouseover" end="reset.mouseout"/></use>
  </g>
</defs>
<script type="application/ecmascript">
var viewWidth = 1424;
var viewHeight = 181;
var sectionId = 'dynsection-1';
</script>
<script type="application/ecmascript" xlink:href="svg.min.js"/>
<svg id="graph" class="graph">
<g id="viewport">
<title>override&#45;sample/include/libbase.h</title>
<!-- Node1 -->
<g id="Node000001" class="node">
<title>Node1</title>
<g id="a_Node000001"><a xlink:title="ベースライブラリ (動的リンク用) のヘッダーファイル。">
<polygon fill="#999999" stroke="#666666" points="816.5,-173 697.5,-173 697.5,-143 816.5,-143 816.5,-173"/>
<text text-anchor="start" x="705.5" y="-161" font-family="Helvetica,sans-Serif" font-size="10.00" fill="#000000">override&#45;sample/include</text>
<text text-anchor="middle" x="757" y="-150" font-family="Helvetica,sans-Serif" font-size="10.00" fill="#000000">/libbase.h</text>
</a>
</g>
</g>
<!-- Node2 -->
<g id="Node000002" class="node">
<title>Node2</title>
<g id="a_Node000002"><a xlink:href="console__output_8c.html" target="_top" xlink:title="console_output 関数の実装ファイル。">
<polygon fill="#ffffff" stroke="#666666" points="118,-101.5 0,-101.5 0,-71.5 118,-71.5 118,-101.5"/>
<text text-anchor="start" x="8" y="-89.5" font-family="Helvetica,sans-Serif" font-size="10.00" fill="#000000">override&#45;sample/libsrc</text>
<text text-anchor="middle" x="59" y="-78.5" font-family="Helvetica,sans-Serif" font-size="10.00" fill="#000000">/base/console_output.c</text>
</a>
</g>
</g>
<!-- Node1&#45;&gt;Node2 -->
<g id="edge1_Node000001_Node000002" class="edge">
<title>Node1&#45;&gt;Node2</title>
<g id="a_edge1_Node000001_Node000002"><a xlink:title=" ">
<path fill="none" stroke="#63b8ff" d="M687.0148,-154.211C546.1226,-146.2747 232.7176,-126.98 127,-107 119.4882,-105.5803 111.6263,-103.6459 104.0247,-101.5293"/>
<polygon fill="#63b8ff" stroke="#63b8ff" points="687.082,-157.7202 697.2622,-154.7853 687.4737,-150.7311 687.082,-157.7202"/>
</a>
</g>
</g>
<!-- Node3 -->
<g id="Node000003" class="node">
<title>Node3</title>
<g id="a_Node000003"><a xlink:href="funcman__dispose_8c.html" target="_top" xlink:title="funcman_object ポインタ配列を解放します。">
<polygon fill="#ffffff" stroke="#666666" points="258,-107 136,-107 136,-66 258,-66 258,-107"/>
<text text-anchor="start" x="144" y="-95" font-family="Helvetica,sans-Serif" font-size="10.00" fill="#000000">override&#45;sample/libsrc</text>
<text text-anchor="start" x="144" y="-84" font-family="Helvetica,sans-Serif" font-size="10.00" fill="#000000">/base/funcman/funcman</text>
<text text-anchor="middle" x="197" y="-73" font-family="Helvetica,sans-Serif" font-size="10.00" fill="#000000">_dispose.c</text>
</a>
</g>
</g>
<!-- Node1&#45;&gt;Node3 -->
<g id="edge2_Node000001_Node000003" class="edge">
<title>Node1&#45;&gt;Node3</title>
<g id="a_edge2_Node000001_Node000003"><a xlink:title=" ">
<path fill="none" stroke="#63b8ff" d="M687.1533,-154.7163C591.5644,-149.3195 414.9714,-136.1181 267,-107 264.1423,-106.4376 261.233,-105.8109 258.3045,-105.1358"/>
<polygon fill="#63b8ff" stroke="#63b8ff" points="687.0964,-158.2184 697.2743,-155.2755 687.4827,-151.2291 687.0964,-158.2184"/>
</a>
</g>
</g>
<!-- Node4 -->
<g id="Node000004" class="node">
<title>Node4</title>
<g id="a_Node000004"><a xlink:href="funcman__get__func_8c.html" target="_top" xlink:title="拡張可能な関数の動的ロードを行い、関数アドレスを返却します。">
<polygon fill="#ffffff" stroke="#666666" points="398,-107 276,-107 276,-66 398,-66 398,-107"/>
<text text-anchor="start" x="284" y="-95" font-family="Helvetica,sans-Serif" font-size="10.00" fill="#000000">override&#45;sample/libsrc</text>
<text text-anchor="start" x="284" y="-84" font-family="Helvetica,sans-Serif" font-size="10.00" fill="#000000">/base/funcman/funcman</text>
<text text-anchor="middle" x="337" y="-73" font-family="Helvetica,sans-Serif" font-size="10.00" fill="#000000">_get_func.c</text>
</a>
</g>
</g>
<!-- Node1&#45;&gt;Node4 -->
<g id="edge3_Node000001_Node000004" class="edge">
<title>Node1&#45;&gt;Node4</title>
<g id="a_edge3_Node000001_Node000004"><a xlink:title=" ">
<path fill="none" stroke="#63b8ff" d="M687.2374,-150.7528C616.2241,-142.6945 503.2092,-127.9889 407,-107 404.1544,-106.3792 401.2551,-105.7045 398.3347,-104.9905"/>
<polygon fill="#63b8ff" stroke="#63b8ff" points="687.075,-154.2564 697.403,-151.8934 687.8556,-147.3001 687.075,-154.2564"/>
</a>
</g>
</g>
<!-- Node5 -->
<g id="Node000005" class="node">
<title>Node5</title>
<g id="a_Node000005"><a xlink:href="funcman__info_8c.html" target="_top" xlink:title="funcman_object ポインタ配列の内容を標準出力に表示します。">
<polygon fill="#ffffff" stroke="#666666" points="538,-107 416,-107 416,-66 538,-66 538,-107"/>
<text text-anchor="start" x="424" y="-95" font-family="Helvetica,sans-Serif" font-size="10.00" fill="#000000">override&#45;sample/libsrc</text>
<text text-anchor="start" x="424" y="-84" font-family="Helvetica,sans-Serif" font-size="10.00" fill="#000000">/base/funcman/funcman</text>
<text text-anchor="middle" x="477" y="-73" font-family="Helvetica,sans-Serif" font-size="10.00" fill="#000000">_info.c</text>
</a>
</g>
</g>
<!-- Node1&#45;&gt;Node5 -->
<g id="edge4_Node000001_Node000005" class="edge">
<title>Node1&#45;&gt;Node5</title>
<g id="a_edge4_Node000001_Node000005"><a xlink:title=" ">
<path fill="none" stroke="#63b8ff" d="M687.187,-141.907C646.2278,-132.2507 593.539,-119.4585 547,-107 544.0642,-106.2141 541.0636,-105.3954 538.0362,-104.5569"/>
<polygon fill="#63b8ff" stroke="#63b8ff" points="686.5337,-145.3488 697.0693,-144.2296 688.1353,-138.5344 686.5337,-145.3488"/>
</a>
</g>
</g>
<!-- Node6 -->
<g id="Node000006" class="node">
<title>Node6</title>
<g id="a_Node000006"><a xlink:href="funcman__init_8c.html" target="_top" xlink:title="設定テキストファイルから funcman_object エントリを読み込む。">
<polygon fill="#ffffff" stroke="#666666" points="678,-107 556,-107 556,-66 678,-66 678,-107"/>
<text text-anchor="start" x="564" y="-95" font-family="Helvetica,sans-Serif" font-size="10.00" fill="#000000">override&#45;sample/libsrc</text>
<text text-anchor="start" x="564" y="-84" font-family="Helvetica,sans-Serif" font-size="10.00" fill="#000000">/base/funcman/funcman</text>
<text text-anchor="middle" x="617" y="-73" font-family="Helvetica,sans-Serif" font-size="10.00" fill="#000000">_init.c</text>
</a>
</g>
</g>
<!-- Node1&#45;&gt;Node6 -->
<g id="edge5_Node000001_Node000006" class="edge">
<title>Node1&#45;&gt;Node6</title>
<g id="a_edge5_Node000001_Node000006"><a xlink:title=" ">
<path fill="none" stroke="#63b8ff" d="M718.3312,-138.2513C699.3402,-128.5523 676.4727,-116.8735 657.2708,-107.0669"/>
<polygon fill="#63b8ff" stroke="#63b8ff" points="716.8119,-141.4054 727.3096,-142.8367 719.9957,-135.1713 716.8119,-141.4054"/>
</a>
</g>
</g>
<!-- Node7 -->
<g id="Node000007" class="node">
<title>Node7</title>
<g id="a_Node000007"><a xlink:href="funcman__is__declared__default_8c.html" target="_top" xlink:title="funcman_object が明示的デフォルトかどうかを返します。">
<polygon fill="#ffffff" stroke="#666666" points="818,-107 696,-107 696,-66 818,-66 818,-107"/>
<text text-anchor="start" x="704" y="-95" font-family="Helvetica,sans-Serif" font-size="10.00" fill="#000000">override&#45;sample/libsrc</text>
<text text-anchor="start" x="704" y="-84" font-family="Helvetica,sans-Serif" font-size="10.00" fill="#000000">/base/funcman/funcman</text>
<text text-anchor="middle" x="757" y="-73" font-family="Helvetica,sans-Serif" font-size="10.00" fill="#000000">_is_declared_default.c</text>
</a>
</g>
</g>
<!-- Node1&#45;&gt;Node7 -->
<g id="edge6_Node000001_Node000007" class="edge">
<title>Node1&#45;&gt;Node7</title>
<g id="a_edge6_Node000001_Node000007"><a xlink:title=" ">
<path fill="none" stroke="#63b8ff" d="M757,-132.7877C757,-124.3674 757,-115.0905 757,-107.0669"/>
<polygon fill="#63b8ff" stroke="#63b8ff" points="753.5001,-132.8367 757,-142.8367 760.5001,-132.8367 753.5001,-132.8367"/>
</a>
</g>
</g>
<!-- Node8 -->
<g id="Node000008" class="node">
<title>Node8</title>
<g id="a_Node000008"><a xlink:href="funcman__libbase_8h.html" target="_top" xlink:title="funcman が管理する関数ポインタの extern 定義。">
<polygon fill="#ffffff" stroke="#666666" points="961.5,-101.5 836.5,-101.5 836.5,-71.5 961.5,-71.5 961.5,-101.5"/>
<text text-anchor="start" x="844.5" y="-89.5" font-family="Helvetica,sans-Serif" font-size="10.00" fill="#000000">override&#45;sample/libsrc</text>
<text text-anchor="middle" x="899" y="-78.5" font-family="Helvetica,sans-Serif" font-size="10.00" fill="#000000">/base/funcman_libbase.h</text>
</a>
</g>
</g>
<!-- Node1&#45;&gt;Node8 -->
<g id="edge7_Node000001_Node000008" class="edge">
<title>Node1&#45;&gt;Node8</title>
<g id="a_edge7_Node000001_Node000008"><a xlink:title=" ">
<path fill="none" stroke="#63b8ff" d="M796.2543,-138.2346C819.2173,-126.6723 847.7592,-112.3008 868.9289,-101.6415"/>
<polygon fill="#63b8ff" stroke="#63b8ff" points="794.4721,-135.2133 787.1145,-142.8367 797.6203,-141.4654 794.4721,-135.2133"/>
</a>
</g>
</g>
<!-- Node11 -->
<g id="Node000011" class="node">
<title>Node11</title>
<g id="a_Node000011"><a xlink:href="sample__func_8c.html" target="_top" xlink:title="sample_func 関数の実装ファイル。">
<polygon fill="#ffffff" stroke="#666666" points="1069,-30 957,-30 957,0 1069,0 1069,-30"/>
<text text-anchor="start" x="965" y="-18" font-family="Helvetica,sans-Serif" font-size="10.00" fill="#000000">override&#45;sample/libsrc</text>
<text text-anchor="middle" x="1013" y="-7" font-family="Helvetica,sans-Serif" font-size="10.00" fill="#000000">/base/sample_func.c</text>
</a>
</g>
</g>
<!-- Node1&#45;&gt;Node11 -->
<g id="edge12_Node000001_Node000011" class="edge">
<title>Node1&#45;&gt;Node11</title>
<g id="a_edge12_Node000001_Node000011"><a xlink:title=" ">
<path fill="none" stroke="#63b8ff" d="M826.7453,-148.1324C880.4404,-139.3213 949.0721,-125.0332 971,-107 995.0031,-87.2602 1005.8922,-50.8369 1010.327,-30.2367"/>
<polygon fill="#63b8ff" stroke="#63b8ff" points="825.8846,-144.7257 816.5662,-149.7673 826.9947,-151.6371 825.8846,-144.7257"/>
</a>
</g>
</g>
<!-- Node12 -->
<g id="Node000012" class="node">
<title>Node12</title>
<g id="a_Node000012"><a xlink:href="get__lib__info_8c.html" target="_top" xlink:title="共有ライブラリ自身 (.so/.dll) の絶対パスと basename (パスなし・拡張子なし) を取得します。">
<polygon fill="#ffffff" stroke="#666666" points="1130,-101.5 1018,-101.5 1018,-71.5 1130,-71.5 1130,-101.5"/>
<text text-anchor="start" x="1026" y="-89.5" font-family="Helvetica,sans-Serif" font-size="10.00" fill="#000000">override&#45;sample/libsrc</text>
<text text-anchor="middle" x="1074" y="-78.5" font-family="Helvetica,sans-Serif" font-size="10.00" fill="#000000">/base/get_lib_info.c</text>
</a>
</g>
</g>
<!-- Node1&#45;&gt;Node12 -->
<g id="edge11_Node000001_Node000012" class="edge">
<title>Node1&#45;&gt;Node12</title>
<g id="a_edge11_Node000001_Node000012"><a xlink:title=" ">
<path fill="none" stroke="#63b8ff" d="M826.6896,-145.1792C876.3564,-135.6606 944.5761,-121.8102 1004,-107 1010.6352,-105.3463 1017.5857,-103.4781 1024.4234,-101.5595"/>
<polygon fill="#63b8ff" stroke="#63b8ff" points="825.8653,-141.7732 816.6975,-147.0837 827.176,-148.6494 825.8653,-141.7732"/>
</a>
</g>
</g>
<!-- Node13 -->
<g id="Node000013" class="node">
<title>Node13</title>
<g id="a_Node000013"><a xlink:href="override__func_8c.html" target="_top" xlink:title="override_func 関数の実装ファイル。">
<polygon fill="#ffffff" stroke="#666666" points="1272,-101.5 1148,-101.5 1148,-71.5 1272,-71.5 1272,-101.5"/>
<text text-anchor="start" x="1156" y="-89.5" font-family="Helvetica,sans-Serif" font-size="10.00" fill="#000000">override&#45;sample/libsrc</text>
<text text-anchor="middle" x="1210" y="-78.5" font-family="Helvetica,sans-Serif" font-size="10.00" fill="#000000">/override/override_func.c</text>
</a>
</g>
</g>
<!-- Node1&#45;&gt;Node13 -->
<g id="edge13_Node000001_Node000013" class="edge">
<title>Node1&#45;&gt;Node13</title>
<g id="a_edge13_Node000001_Node000013"><a xlink:title=" ">
<path fill="none" stroke="#63b8ff" d="M826.7457,-151.8251C903.7311,-144.2832 1031.0557,-129.6585 1139,-107 1146.2826,-105.4713 1153.9098,-103.583 1161.3515,-101.5766"/>
<polygon fill="#63b8ff" stroke="#63b8ff" points="826.3035,-148.3514 816.687,-152.7982 826.9776,-155.3189 826.3035,-148.3514"/>
</a>
</g>
</g>
<!-- Node14 -->
<g id="Node000014" class="node">
<title>Node14</title>
<g id="a_Node000014"><a xlink:href="override-sample_8c.html" target="_top" xlink:title="override&#45;sample メインプログラム。">
<polygon fill="#ffffff" stroke="#666666" points="1416,-107 1290,-107 1290,-66 1416,-66 1416,-107"/>
<text text-anchor="start" x="1298" y="-95" font-family="Helvetica,sans-Serif" font-size="10.00" fill="#000000">override&#45;sample/src</text>
<text text-anchor="start" x="1298" y="-84" font-family="Helvetica,sans-Serif" font-size="10.00" fill="#000000">/override&#45;sample/override</text>
<text text-anchor="middle" x="1353" y="-73" font-family="Helvetica,sans-Serif" font-size="10.00" fill="#000000">&#45;sample.c</text>
</a>
</g>
</g>
<!-- Node1&#45;&gt;Node14 -->
<g id="edge14_Node000001_Node000014" class="edge">
<title>Node1&#45;&gt;Node14</title>
<g id="a_edge14_Node000001_Node000014"><a xlink:title=" ">
<path fill="none" stroke="#63b8ff" d="M826.9032,-155.2062C927.8981,-150.2657 1120.1597,-137.4664 1281,-107 1283.937,-106.4437 1286.9275,-105.8218 1289.9381,-105.1507"/>
<polygon fill="#63b8ff" stroke="#63b8ff" points="826.6471,-151.7144 816.8256,-155.6878 826.9813,-158.7064 826.6471,-151.7144"/>
</a>
</g>
</g>
<!-- Node9 -->
<g id="Node000009" class="node">
<title>Node9</title>
<g id="a_Node000009"><a xlink:href="dllmain__libbase_8c.html" target="_top" xlink:title="base.so / base.dll のロード・アンロード時処理。">
<polygon fill="#ffffff" stroke="#666666" points="795.5,-30 676.5,-30 676.5,0 795.5,0 795.5,-30"/>
<text text-anchor="start" x="684.5" y="-18" font-family="Helvetica,sans-Serif" font-size="10.00" fill="#000000">override&#45;sample/libsrc</text>
<text text-anchor="middle" x="736" y="-7" font-family="Helvetica,sans-Serif" font-size="10.00" fill="#000000">/base/dllmain_libbase.c</text>
</a>
</g>
</g>
<!-- Node8&#45;&gt;Node9 -->
<g id="edge8_Node000008_Node000009" class="edge">
<title>Node8&#45;&gt;Node9</title>
<g id="a_edge8_Node000008_Node000009"><a xlink:title=" ">
<path fill="none" stroke="#63b8ff" d="M854.9583,-67.1811C828.3285,-55.4999 794.8797,-40.8276 770.2384,-30.0187"/>
<polygon fill="#63b8ff" stroke="#63b8ff" points="853.8682,-70.5248 864.4319,-71.3367 856.6802,-64.1144 853.8682,-70.5248"/>
</a>
</g>
</g>
<!-- Node10 -->
<g id="Node000010" class="node">
<title>Node10</title>
<g id="a_Node000010"><a xlink:href="funcman__libbase_8c.html" target="_top" xlink:title="funcman が管理する関数ポインタの実定義。">
<polygon fill="#ffffff" stroke="#666666" points="938.5,-30 813.5,-30 813.5,0 938.5,0 938.5,-30"/>
<text text-anchor="start" x="821.5" y="-18" font-family="Helvetica,sans-Serif" font-size="10.00" fill="#000000">override&#45;sample/libsrc</text>
<text text-anchor="middle" x="876" y="-7" font-family="Helvetica,sans-Serif" font-size="10.00" fill="#000000">/base/funcman_libbase.c</text>
</a>
</g>
</g>
<!-- Node8&#45;&gt;Node10 -->
<g id="edge9_Node000008_Node000010" class="edge">
<title>Node8&#45;&gt;Node10</title>
<g id="a_edge9_Node000008_Node000010"><a xlink:title=" ">
<path fill="none" stroke="#63b8ff" d="M891.0586,-61.8126C887.6713,-51.2826 883.8271,-39.3322 880.8707,-30.1415"/>
<polygon fill="#63b8ff" stroke="#63b8ff" points="887.7281,-62.8889 894.1223,-71.3367 894.3918,-60.7453 887.7281,-62.8889"/>
</a>
</g>
</g>
<!-- Node8&#45;&gt;Node11 -->
<g id="edge10_Node000008_Node000011" class="edge">
<title>Node8&#45;&gt;Node11</title>
<g id="a_edge10_Node000008_Node000011"><a xlink:title=" ">
<path fill="none" stroke="#63b8ff" d="M931.7495,-65.9597C949.9645,-54.5354 972.2407,-40.564 988.8584,-30.1415"/>
<polygon fill="#63b8ff" stroke="#63b8ff" points="929.7884,-63.0582 923.1765,-71.3367 933.5078,-68.9884 929.7884,-63.0582"/>
</a>
</g>
</g>
</g>
</svg>

<g id="navigator" transform="translate(0 0)" fill="#404254">
  <rect fill="#f2f5e9" fill-opacity="0.5" stroke="#606060" stroke-width=".5" x="0" y="0" width="60" height="60"/>
  <use id="zoomplus" xlink:href="#zoomPlus" x="17" y="9" onmousedown="handleZoom(evt,'in')"/>
  <use id="zoomminus" xlink:href="#zoomMin" x="42" y="9" onmousedown="handleZoom(evt,'out')"/>
  <use id="reset" xlink:href="#resetDef" x="30" y="36" onmousedown="handleReset()"/>
   <use id="arrowup" xlink:href="#arrowUp" x="0" y="0" onmousedown="handlePan(0,-1)"/>
  <use id="arrowright" xlink:href="#arrowRight" x="0" y="0" onmousedown="handlePan(1,0)"/>
  <use id="arrowdown" xlink:href="#arrowDown" x="0" y="0" onmousedown="handlePan(0,1)"/>
  <use id="arrowleft" xlink:href="#arrowLeft" x="0" y="0" onmousedown="handlePan(-1,0)"/>
</g>
<svg viewBox="0 0 15 15" width="100%" height="30px" preserveAspectRatio="xMaxYMin meet">
 <g id="arrow_out" transform="scale(0.3 0.3)">
  <a xlink:href="libbase_8h__dep__incl_org.svg" target="_base">
   <rect id="button" ry="5" rx="5" y="6" x="6" height="38" width="38"
        fill="#f2f5e9" fill-opacity="0.5" stroke="#606060" stroke-width="1.0"/>
   <path id="arrow"
     d="M 11.500037,31.436501 C 11.940474,20.09759 22.043105,11.32322 32.158766,21.979434 L 37.068811,17.246167 C 37.068811,17.246167 37.088388,32 37.088388,32 L 22.160133,31.978069 C 22.160133,31.978069 26.997745,27.140456 26.997745,27.140456 C 18.528582,18.264221 13.291696,25.230495 11.500037,31.436501 z"
     style="fill:#404040;"/>
  </a>
 </g>
</svg>

<style type='text/css'>
<![CDATA[
[data-mouse-over-selected='false'] { opacity: 0.7; }
[data-mouse-over-selected='true']  { opacity: 1.0; }
]]>
</style>
<script type="application/ecmascript"><![CDATA[
document.addEventListener('DOMContentLoaded', (event) => {
  highlightEdges();
  highlightAdjacentNodes();
});
]]></script>
</svg>
