<?xml version="1.0" encoding="UTF-8" standalone="no"?>
<!DOCTYPE svg PUBLIC "-//W3C//DTD SVG 1.1//EN"
 "http://www.w3.org/Graphics/SVG/1.1/DTD/svg11.dtd">
<!-- Generated by graphviz version 2.40.1 (0)
 -->
<!-- Title: funcman_info Pages: 1 -->
<svg width="304pt" height="27pt"
 viewBox="0.00 0.00 304.00 27.00" xmlns="http://www.w3.org/2000/svg" xmlns:xlink="http://www.w3.org/1999/xlink">
<g id="graph0" class="graph" transform="scale(1 1) rotate(0) translate(4 23)">
<title>funcman_info</title>
<!-- Node1 -->
<g id="Node000001" class="node">
<title>Node1</title>
<g id="a_Node000001"><a xlink:title="funcman_object ポインタ配列の内容を標準出力に表示します。">
<polygon fill="#999999" stroke="#666666" points="296,-19 221,-19 221,0 296,0 296,-19"/>
<text text-anchor="middle" x="258.5" y="-7" font-family="Helvetica,sans-Serif" font-size="10.00" fill="#000000">funcman_info</text>
</a>
</g>
</g>
<!-- Node2 -->
<g id="Node000002" class="node">
<title>Node2</title>
<g id="a_Node000002"><a xlink:href="funcman__libbase_8c.html#ac849ebc781221b8a6155160620716a4c" target="_top" xlink:title="libbase が管理する funcman_object ポインタ配列の内容を標準出力に表示します。">
<polygon fill="#ffffff" stroke="#666666" points="185,-19 74,-19 74,0 185,0 185,-19"/>
<text text-anchor="middle" x="129.5" y="-7" font-family="Helvetica,sans-Serif" font-size="10.00" fill="#000000">funcman_info_libbase</text>
</a>
</g>
</g>
<!-- Node1&#45;&gt;Node2 -->
<g id="edge1_Node000001_Node000002" class="edge">
<title>Node1&#45;&gt;Node2</title>
<g id="a_edge1_Node000001_Node000002"><a xlink:title=" ">
<path fill="none" stroke="#63b8ff" d="M210.6064,-9.5C202.3254,-9.5 193.6525,-9.5 185.1861,-9.5"/>
<polygon fill="#63b8ff" stroke="#63b8ff" points="210.8411,-13.0001 220.8411,-9.5 210.841,-6.0001 210.8411,-13.0001"/>
</a>
</g>
</g>
<!-- Node3 -->
<g id="Node000003" class="node">
<title>Node3</title>
<g id="a_Node000003"><a xlink:href="override-sample_8c.html#a840291bc02cba5474a4cb46a9b9566fe" target="_top" xlink:title="メインエントリポイント。">
<polygon fill="#ffffff" stroke="#666666" points="38,-19 0,-19 0,0 38,0 38,-19"/>
<text text-anchor="middle" x="19" y="-7" font-family="Helvetica,sans-Serif" font-size="10.00" fill="#000000">main</text>
</a>
</g>
</g>
<!-- Node2&#45;&gt;Node3 -->
<g id="edge2_Node000002_Node000003" class="edge">
<title>Node2&#45;&gt;Node3</title>
<g id="a_edge2_Node000002_Node000003"><a xlink:title=" ">
<path fill="none" stroke="#63b8ff" d="M63.7055,-9.5C54.3881,-9.5 45.4862,-9.5 38.1136,-9.5"/>
<polygon fill="#63b8ff" stroke="#63b8ff" points="63.9263,-13.0001 73.9263,-9.5 63.9262,-6.0001 63.9263,-13.0001"/>
</a>
</g>
</g>
</g>
</svg>
