<?xml version="1.0" encoding="UTF-8" standalone="no"?>
<!DOCTYPE svg PUBLIC "-//W3C//DTD SVG 1.1//EN"
 "http://www.w3.org/Graphics/SVG/1.1/DTD/svg11.dtd">
<!-- Generated by graphviz version 2.40.1 (0)
 -->
<!-- Title: console_output Pages: 1 -->
<svg width="276pt" height="77pt"
 viewBox="0.00 0.00 276.00 77.26" xmlns="http://www.w3.org/2000/svg" xmlns:xlink="http://www.w3.org/1999/xlink">

<svg id="main" version="1.1" xmlns="http://www.w3.org/2000/svg" xmlns:xlink="http://www.w3.org/1999/xlink" xml:space="preserve">

<style type="text/css"><![CDATA[
.node, .edge {opacity: 0.7;}
.node.selected, .edge.selected {opacity: 1;}
.edge:hover path { stroke: red; }
.edge:hover polygon { stroke: red; fill: red; }
]]></style>
<script type="application/ecmascript" xlink:href="svg.min.js"/>
<svg id="graph" class="graph">
<g id="graph0" class="graph" transform="scale(1 1) rotate(0) translate(4 73.2584)">
<title>console_output</title>
<!-- Node1 -->
<g id="Node000001" class="node">
<title>Node1</title>
<g id="a_Node000001"><a xlink:title="printf と同じ書式でコンソールに出力します。">
<polygon fill="#999999" stroke="#666666" points="268,-56 185,-56 185,-37 268,-37 268,-56"/>
<text text-anchor="middle" x="226.5" y="-44" font-family="Helvetica,sans-Serif" font-size="10.00" fill="#000000">console_output</text>
</a>
</g>
</g>
<!-- Node2 -->
<g id="Node000002" class="node">
<title>Node2</title>
<g id="a_Node000002"><a xlink:href="override-sample_8c.html#a840291bc02cba5474a4cb46a9b9566fe" target="_top" xlink:title="メインエントリポイント。">
<polygon fill="#ffffff" stroke="#666666" points="38,-56 0,-56 0,-37 38,-37 38,-56"/>
<text text-anchor="middle" x="19" y="-44" font-family="Helvetica,sans-Serif" font-size="10.00" fill="#000000">main</text>
</a>
</g>
</g>
<!-- Node1&#45;&gt;Node2 -->
<g id="edge1_Node000001_Node000002" class="edge">
<title>Node1&#45;&gt;Node2</title>
<g id="a_edge1_Node000001_Node000002"><a xlink:title=" ">
<path fill="none" stroke="#63b8ff" d="M185.2615,-58.5559C173.6386,-61.4202 160.9138,-64.0609 149,-65.5 115.9072,-69.4973 106.8734,-71.0181 74,-65.5 61.7456,-63.443 48.5701,-58.9765 38.1877,-54.8907"/>
<polygon fill="#63b8ff" stroke="#63b8ff" points="186.3355,-61.8935 195.1437,-56.0058 184.5864,-55.1155 186.3355,-61.8935"/>
</a>
</g>
</g>
<!-- Node3 -->
<g id="Node000003" class="node">
<title>Node3</title>
<g id="a_Node000003"><a xlink:href="override__func_8c.html#af872d044f081eaec2599844b43475166" target="_top" xlink:title="sample_func のオーバーライド実装。">
<polygon fill="#ffffff" stroke="#666666" points="149,-56 74,-56 74,-37 149,-37 149,-56"/>
<text text-anchor="middle" x="111.5" y="-44" font-family="Helvetica,sans-Serif" font-size="10.00" fill="#000000">override_func</text>
</a>
</g>
</g>
<!-- Node1&#45;&gt;Node3 -->
<g id="edge2_Node000001_Node000003" class="edge">
<title>Node1&#45;&gt;Node3</title>
<g id="a_edge2_Node000001_Node000003"><a xlink:title=" ">
<path fill="none" stroke="#63b8ff" d="M174.9228,-46.5C166.2414,-46.5 157.3779,-46.5 149.1354,-46.5"/>
<polygon fill="#63b8ff" stroke="#63b8ff" points="174.9824,-50.0001 184.9824,-46.5 174.9823,-43.0001 174.9824,-50.0001"/>
</a>
</g>
</g>
<!-- Node4 -->
<g id="Node000004" class="node">
<title>Node4</title>
<g id="a_Node000004"><a xlink:href="sample__func_8c.html#ad27d814cdde25db39d4a08df33f6754b" target="_top" xlink:title="計算処理を行います。">
<polygon fill="#ffffff" stroke="#666666" points="147.5,-19 75.5,-19 75.5,0 147.5,0 147.5,-19"/>
<text text-anchor="middle" x="111.5" y="-7" font-family="Helvetica,sans-Serif" font-size="10.00" fill="#000000">sample_func</text>
</a>
</g>
</g>
<!-- Node1&#45;&gt;Node4 -->
<g id="edge3_Node000001_Node000004" class="edge">
<title>Node1&#45;&gt;Node4</title>
<g id="a_edge3_Node000001_Node000004"><a xlink:title=" ">
<path fill="none" stroke="#63b8ff" d="M187.333,-33.8984C172.314,-29.0663 155.4313,-23.6344 141.4147,-19.1247"/>
<polygon fill="#63b8ff" stroke="#63b8ff" points="186.2932,-37.2405 196.8846,-36.9716 188.4372,-30.5769 186.2932,-37.2405"/>
</a>
</g>
</g>
<!-- Node4&#45;&gt;Node2 -->
<g id="edge4_Node000004_Node000002" class="edge">
<title>Node4&#45;&gt;Node2</title>
<g id="a_edge4_Node000004_Node000002"><a xlink:title=" ">
<path fill="none" stroke="#63b8ff" d="M78.2169,-22.8132C64.7338,-28.2065 49.651,-34.2396 38.0819,-38.8672"/>
<polygon fill="#63b8ff" stroke="#63b8ff" points="79.6941,-25.9921 87.679,-19.0284 77.0943,-19.4927 79.6941,-25.9921"/>
</a>
</g>
</g>
</g>
</svg>
</svg>

<style type='text/css'>
<![CDATA[
[data-mouse-over-selected='false'] { opacity: 0.7; }
[data-mouse-over-selected='true']  { opacity: 1.0; }
]]>
</style>
<script type="application/ecmascript"><![CDATA[
document.addEventListener('DOMContentLoaded', (event) => {
  highlightEdges();
  highlightAdjacentNodes();
});
]]></script>
</svg>
