<?xml version="1.0" encoding="UTF-8" standalone="no"?>
<!DOCTYPE svg PUBLIC "-//W3C//DTD SVG 1.1//EN"
 "http://www.w3.org/Graphics/SVG/1.1/DTD/svg11.dtd">
<!-- Generated by graphviz version 2.40.1 (0)
 -->
<!-- Title: funcman_info_libbase Pages: 1 -->
<svg width="368pt" height="27pt"
 viewBox="0.00 0.00 368.00 27.00" xmlns="http://www.w3.org/2000/svg" xmlns:xlink="http://www.w3.org/1999/xlink">
<g id="graph0" class="graph" transform="scale(1 1) rotate(0) translate(4 23)">
<title>funcman_info_libbase</title>
<!-- Node1 -->
<g id="Node000001" class="node">
<title>Node1</title>
<g id="a_Node000001"><a xlink:title="libbase が管理する funcman_object ポインタ配列の内容を標準出力に表示します。">
<polygon fill="#999999" stroke="#666666" points="111,-19 0,-19 0,0 111,0 111,-19"/>
<text text-anchor="middle" x="55.5" y="-7" font-family="Helvetica,sans-Serif" font-size="10.00" fill="#000000">funcman_info_libbase</text>
</a>
</g>
</g>
<!-- Node2 -->
<g id="Node000002" class="node">
<title>Node2</title>
<g id="a_Node000002"><a xlink:href="funcman__info_8c.html#a5ca78ded8e50601198ce802629908082" target="_top" xlink:title="funcman_object ポインタ配列の内容を標準出力に表示します。">
<polygon fill="#ffffff" stroke="#666666" points="222,-19 147,-19 147,0 222,0 222,-19"/>
<text text-anchor="middle" x="184.5" y="-7" font-family="Helvetica,sans-Serif" font-size="10.00" fill="#000000">funcman_info</text>
</a>
</g>
</g>
<!-- Node1&#45;&gt;Node2 -->
<g id="edge1_Node000001_Node000002" class="edge">
<title>Node1&#45;&gt;Node2</title>
<g id="a_edge1_Node000001_Node000002"><a xlink:title=" ">
<path fill="none" stroke="#63b8ff" d="M111.331,-9.5C119.7575,-9.5 128.3851,-9.5 136.6243,-9.5"/>
<polygon fill="#63b8ff" stroke="#63b8ff" points="136.8086,-13.0001 146.8085,-9.5 136.8085,-6.0001 136.8086,-13.0001"/>
</a>
</g>
</g>
<!-- Node3 -->
<g id="Node000003" class="node">
<title>Node3</title>
<g id="a_Node000003"><a xlink:href="funcman__get__func_8c.html#acb47786bbf6ea8a7edef3562a896765d" target="_top" xlink:title="拡張関数ポインタを返します。この関数は内部用です。">
<polygon fill="#ffffff" stroke="#666666" points="360,-19 258,-19 258,0 360,0 360,-19"/>
<text text-anchor="middle" x="309" y="-7" font-family="Helvetica,sans-Serif" font-size="10.00" fill="#000000">_funcman_get_func</text>
</a>
</g>
</g>
<!-- Node2&#45;&gt;Node3 -->
<g id="edge2_Node000002_Node000003" class="edge">
<title>Node2&#45;&gt;Node3</title>
<g id="a_edge2_Node000002_Node000003"><a xlink:title=" ">
<path fill="none" stroke="#63b8ff" d="M222.192,-9.5C230.2167,-9.5 238.8899,-9.5 247.5426,-9.5"/>
<polygon fill="#63b8ff" stroke="#63b8ff" points="247.6508,-13.0001 257.6507,-9.5 247.6507,-6.0001 247.6508,-13.0001"/>
</a>
</g>
</g>
</g>
</svg>
