<?xml version="1.0" encoding="UTF-8" standalone="no"?>
<!DOCTYPE svg PUBLIC "-//W3C//DTD SVG 1.1//EN"
 "http://www.w3.org/Graphics/SVG/1.1/DTD/svg11.dtd">
<!-- Generated by graphviz version 2.40.1 (0)
 -->
<!-- Title: override&#45;sample/include/libbase.h Pages: 1 -->
<svg width="542pt" height="115pt"
 viewBox="0.00 0.00 542.00 115.00" xmlns="http://www.w3.org/2000/svg" xmlns:xlink="http://www.w3.org/1999/xlink">
<g id="graph0" class="graph" transform="scale(1 1) rotate(0) translate(4 111)">
<title>override&#45;sample/include/libbase.h</title>
<!-- Node1 -->
<g id="Node000001" class="node">
<title>Node1</title>
<g id="a_Node000001"><a xlink:title="ベースライブラリ (動的リンク用) のヘッダーファイル。">
<polygon fill="#999999" stroke="#666666" points="319.5,-107 200.5,-107 200.5,-77 319.5,-77 319.5,-107"/>
<text text-anchor="start" x="208.5" y="-95" font-family="Helvetica,sans-Serif" font-size="10.00" fill="#000000">override&#45;sample/include</text>
<text text-anchor="middle" x="260" y="-84" font-family="Helvetica,sans-Serif" font-size="10.00" fill="#000000">/libbase.h</text>
</a>
</g>
</g>
<!-- Node2 -->
<g id="Node000002" class="node">
<title>Node2</title>
<g id="a_Node000002"><a xlink:href="console__output_8c.html" target="_top" xlink:title="console_output 関数の実装ファイル。">
<polygon fill="#ffffff" stroke="#666666" points="118,-35.5 0,-35.5 0,-5.5 118,-5.5 118,-35.5"/>
<text text-anchor="start" x="8" y="-23.5" font-family="Helvetica,sans-Serif" font-size="10.00" fill="#000000">override&#45;sample/libsrc</text>
<text text-anchor="middle" x="59" y="-12.5" font-family="Helvetica,sans-Serif" font-size="10.00" fill="#000000">/base/console_output.c</text>
</a>
</g>
</g>
<!-- Node1&#45;&gt;Node2 -->
<g id="edge1_Node000001_Node000002" class="edge">
<title>Node1&#45;&gt;Node2</title>
<g id="a_edge1_Node000001_Node000002"><a xlink:title=" ">
<path fill="none" stroke="#63b8ff" d="M207.839,-73.4452C174.6672,-61.6453 132.2726,-46.5646 101.2204,-35.5187"/>
<polygon fill="#63b8ff" stroke="#63b8ff" points="206.7784,-76.7827 217.3731,-76.8367 209.1245,-70.1876 206.7784,-76.7827"/>
</a>
</g>
</g>
<!-- Node3 -->
<g id="Node000003" class="node">
<title>Node3</title>
<g id="a_Node000003"><a xlink:href="func_8c.html" target="_top" xlink:title="func 関数の実装ファイル。">
<polygon fill="#ffffff" stroke="#666666" points="248,-35.5 136,-35.5 136,-5.5 248,-5.5 248,-35.5"/>
<text text-anchor="start" x="144" y="-23.5" font-family="Helvetica,sans-Serif" font-size="10.00" fill="#000000">override&#45;sample/libsrc</text>
<text text-anchor="middle" x="192" y="-12.5" font-family="Helvetica,sans-Serif" font-size="10.00" fill="#000000">/base/func.c</text>
</a>
</g>
</g>
<!-- Node1&#45;&gt;Node3 -->
<g id="edge2_Node000001_Node000003" class="edge">
<title>Node1&#45;&gt;Node3</title>
<g id="a_edge2_Node000001_Node000003"><a xlink:title=" ">
<path fill="none" stroke="#63b8ff" d="M238.6666,-69.5685C228.1606,-58.5218 215.7719,-45.4955 206.4003,-35.6415"/>
<polygon fill="#63b8ff" stroke="#63b8ff" points="236.1513,-72.0025 245.5789,-76.8367 241.2236,-67.1784 236.1513,-72.0025"/>
</a>
</g>
</g>
<!-- Node4 -->
<g id="Node000004" class="node">
<title>Node4</title>
<g id="a_Node000004"><a xlink:href="func__override_8c.html" target="_top" xlink:title="func_override 関数の実装ファイル。">
<polygon fill="#ffffff" stroke="#666666" points="390,-35.5 266,-35.5 266,-5.5 390,-5.5 390,-35.5"/>
<text text-anchor="start" x="274" y="-23.5" font-family="Helvetica,sans-Serif" font-size="10.00" fill="#000000">override&#45;sample/libsrc</text>
<text text-anchor="middle" x="328" y="-12.5" font-family="Helvetica,sans-Serif" font-size="10.00" fill="#000000">/override/func_override.c</text>
</a>
</g>
</g>
<!-- Node1&#45;&gt;Node4 -->
<g id="edge3_Node000001_Node000004" class="edge">
<title>Node1&#45;&gt;Node4</title>
<g id="a_edge3_Node000001_Node000004"><a xlink:title=" ">
<path fill="none" stroke="#63b8ff" d="M281.3334,-69.5685C291.8394,-58.5218 304.2281,-45.4955 313.5997,-35.6415"/>
<polygon fill="#63b8ff" stroke="#63b8ff" points="278.7764,-67.1784 274.4211,-76.8367 283.8487,-72.0025 278.7764,-67.1784"/>
</a>
</g>
</g>
<!-- Node5 -->
<g id="Node000005" class="node">
<title>Node5</title>
<g id="a_Node000005"><a xlink:href="override-sample_8c.html" target="_top" xlink:title="override&#45;sample メインプログラム。">
<polygon fill="#ffffff" stroke="#666666" points="534,-41 408,-41 408,0 534,0 534,-41"/>
<text text-anchor="start" x="416" y="-29" font-family="Helvetica,sans-Serif" font-size="10.00" fill="#000000">override&#45;sample/src</text>
<text text-anchor="start" x="416" y="-18" font-family="Helvetica,sans-Serif" font-size="10.00" fill="#000000">/override&#45;sample/override</text>
<text text-anchor="middle" x="471" y="-7" font-family="Helvetica,sans-Serif" font-size="10.00" fill="#000000">&#45;sample.c</text>
</a>
</g>
</g>
<!-- Node1&#45;&gt;Node5 -->
<g id="edge4_Node000001_Node000005" class="edge">
<title>Node1&#45;&gt;Node5</title>
<g id="a_edge4_Node000001_Node000005"><a xlink:title=" ">
<path fill="none" stroke="#63b8ff" d="M314.1534,-73.6495C343.4961,-63.7063 379.8472,-51.3883 410.1636,-41.1152"/>
<polygon fill="#63b8ff" stroke="#63b8ff" points="312.8376,-70.3998 304.4898,-76.9241 315.0842,-77.0295 312.8376,-70.3998"/>
</a>
</g>
</g>
</g>
</svg>
