<?xml version="1.0" encoding="UTF-8" standalone="no"?>
<!DOCTYPE svg PUBLIC "-//W3C//DTD SVG 1.1//EN"
 "http://www.w3.org/Graphics/SVG/1.1/DTD/svg11.dtd">
<!-- Generated by graphviz version 2.40.1 (0)
 -->
<!-- Title: override&#45;sample/libsrc/override/override_func.c Pages: 1 -->
<svg width="218pt" height="148pt"
 viewBox="0.00 0.00 218.00 148.00" xmlns="http://www.w3.org/2000/svg" xmlns:xlink="http://www.w3.org/1999/xlink">
<g id="graph0" class="graph" transform="scale(1 1) rotate(0) translate(4 144)">
<title>override&#45;sample/libsrc/override/override_func.c</title>
<!-- Node1 -->
<g id="Node000001" class="node">
<title>Node1</title>
<g id="a_Node000001"><a xlink:title="override_func 関数の実装ファイル。">
<polygon fill="#999999" stroke="#666666" points="152,-140 28,-140 28,-110 152,-110 152,-140"/>
<text text-anchor="start" x="36" y="-128" font-family="Helvetica,sans-Serif" font-size="10.00" fill="#000000">override&#45;sample/libsrc</text>
<text text-anchor="middle" x="90" y="-117" font-family="Helvetica,sans-Serif" font-size="10.00" fill="#000000">/override/override_func.c</text>
</a>
</g>
</g>
<!-- Node2 -->
<g id="Node000002" class="node">
<title>Node2</title>
<g id="a_Node000002"><a xlink:href="libbase_8h.html" target="_top" xlink:title="ベースライブラリ (動的リンク用) のヘッダーファイル。">
<polygon fill="#ffffff" stroke="#666666" points="118,-74 62,-74 62,-55 118,-55 118,-74"/>
<text text-anchor="middle" x="90" y="-62" font-family="Helvetica,sans-Serif" font-size="10.00" fill="#000000">libbase.h</text>
</a>
</g>
</g>
<!-- Node1&#45;&gt;Node2 -->
<g id="edge1_Node000001_Node000002" class="edge">
<title>Node1&#45;&gt;Node2</title>
<g id="a_edge1_Node000001_Node000002"><a xlink:title=" ">
<path fill="none" stroke="#63b8ff" d="M90,-109.7333C90,-102.0322 90,-92.5977 90,-84.3414"/>
<polygon fill="#63b8ff" stroke="#63b8ff" points="93.5001,-84.0864 90,-74.0864 86.5001,-84.0864 93.5001,-84.0864"/>
</a>
</g>
</g>
<!-- Node3 -->
<g id="Node000003" class="node">
<title>Node3</title>
<g id="a_Node000003"><a xlink:title=" ">
<polygon fill="#e0e0e0" stroke="#999999" points="52,-19 0,-19 0,0 52,0 52,-19"/>
<text text-anchor="middle" x="26" y="-7" font-family="Helvetica,sans-Serif" font-size="10.00" fill="#000000">stddef.h</text>
</a>
</g>
</g>
<!-- Node1&#45;&gt;Node3 -->
<g id="edge6_Node000001_Node000003" class="edge">
<title>Node1&#45;&gt;Node3</title>
<g id="a_edge6_Node000001_Node000003"><a xlink:title=" ">
<path fill="none" stroke="#63b8ff" d="M77.693,-109.9979C69.9826,-100.1525 60.1818,-86.7782 53,-74 44.7401,-59.3035 37.4961,-41.5707 32.5967,-28.4209"/>
<polygon fill="#63b8ff" stroke="#63b8ff" points="35.8842,-27.2196 29.1954,-19.0031 29.3004,-29.5974 35.8842,-27.2196"/>
</a>
</g>
</g>
<!-- Node6 -->
<g id="Node000006" class="node">
<title>Node6</title>
<g id="a_Node000006"><a xlink:href="libbase__ext_8h.html" target="_top" xlink:title="オーバーライドライブラリ (動的リンク用) のヘッダーファイル。">
<polygon fill="#ffffff" stroke="#666666" points="210,-74 136,-74 136,-55 210,-55 210,-74"/>
<text text-anchor="middle" x="173" y="-62" font-family="Helvetica,sans-Serif" font-size="10.00" fill="#000000">libbase_ext.h</text>
</a>
</g>
</g>
<!-- Node1&#45;&gt;Node6 -->
<g id="edge5_Node000001_Node000006" class="edge">
<title>Node1&#45;&gt;Node6</title>
<g id="a_edge5_Node000001_Node000006"><a xlink:title=" ">
<path fill="none" stroke="#63b8ff" d="M110.9444,-109.7333C123.3105,-100.7195 138.9343,-89.3311 151.4111,-80.2365"/>
<polygon fill="#63b8ff" stroke="#63b8ff" points="153.829,-82.8052 159.8484,-74.0864 149.7057,-77.1485 153.829,-82.8052"/>
</a>
</g>
</g>
<!-- Node2&#45;&gt;Node3 -->
<g id="edge2_Node000002_Node000003" class="edge">
<title>Node2&#45;&gt;Node3</title>
<g id="a_edge2_Node000002_Node000003"><a xlink:title=" ">
<path fill="none" stroke="#63b8ff" d="M78.8521,-54.9197C69.6055,-46.9735 56.2447,-35.4916 45.2704,-26.0605"/>
<polygon fill="#63b8ff" stroke="#63b8ff" points="47.3166,-23.2041 37.4511,-19.3408 42.7542,-28.513 47.3166,-23.2041"/>
</a>
</g>
</g>
<!-- Node4 -->
<g id="Node000004" class="node">
<title>Node4</title>
<g id="a_Node000004"><a xlink:title=" ">
<polygon fill="#e0e0e0" stroke="#999999" points="116,-19 70,-19 70,0 116,0 116,-19"/>
<text text-anchor="middle" x="93" y="-7" font-family="Helvetica,sans-Serif" font-size="10.00" fill="#000000">dlfcn.h</text>
</a>
</g>
</g>
<!-- Node2&#45;&gt;Node4 -->
<g id="edge3_Node000002_Node000004" class="edge">
<title>Node2&#45;&gt;Node4</title>
<g id="a_edge3_Node000002_Node000004"><a xlink:title=" ">
<path fill="none" stroke="#63b8ff" d="M90.5226,-54.9197C90.905,-47.9083 91.4376,-38.1442 91.911,-29.4652"/>
<polygon fill="#63b8ff" stroke="#63b8ff" points="95.4133,-29.5166 92.4632,-19.3408 88.4237,-29.1353 95.4133,-29.5166"/>
</a>
</g>
</g>
<!-- Node5 -->
<g id="Node000005" class="node">
<title>Node5</title>
<g id="a_Node000005"><a xlink:title=" ">
<polygon fill="#e0e0e0" stroke="#999999" points="191.5,-19 134.5,-19 134.5,0 191.5,0 191.5,-19"/>
<text text-anchor="middle" x="163" y="-7" font-family="Helvetica,sans-Serif" font-size="10.00" fill="#000000">pthread.h</text>
</a>
</g>
</g>
<!-- Node2&#45;&gt;Node5 -->
<g id="edge4_Node000002_Node000005" class="edge">
<title>Node2&#45;&gt;Node5</title>
<g id="a_edge4_Node000002_Node000005"><a xlink:title=" ">
<path fill="none" stroke="#63b8ff" d="M102.7156,-54.9197C113.4693,-46.8177 129.1016,-35.0399 141.7528,-25.5082"/>
<polygon fill="#63b8ff" stroke="#63b8ff" points="144.0578,-28.1538 149.9385,-19.3408 139.8455,-22.563 144.0578,-28.1538"/>
</a>
</g>
</g>
</g>
</svg>
