<?xml version="1.0" encoding="UTF-8" standalone="no"?>
<!DOCTYPE svg PUBLIC "-//W3C//DTD SVG 1.1//EN"
 "http://www.w3.org/Graphics/SVG/1.1/DTD/svg11.dtd">
<!-- Generated by graphviz version 2.40.1 (0)
 -->
<!-- Title: main Pages: 1 -->
<svg width="450pt" height="83pt"
 viewBox="0.00 0.00 450.00 83.00" xmlns="http://www.w3.org/2000/svg" xmlns:xlink="http://www.w3.org/1999/xlink">
<g id="graph0" class="graph" transform="scale(1 1) rotate(0) translate(4 79)">
<title>main</title>
<!-- Node1 -->
<g id="Node000001" class="node">
<title>Node1</title>
<g id="a_Node000001"><a xlink:title="メインエントリポイント。">
<polygon fill="#999999" stroke="#666666" points="38,-56 0,-56 0,-37 38,-37 38,-56"/>
<text text-anchor="middle" x="19" y="-44" font-family="Helvetica,sans-Serif" font-size="10.00" fill="#000000">main</text>
</a>
</g>
</g>
<!-- Node2 -->
<g id="Node000002" class="node">
<title>Node2</title>
<g id="a_Node000002"><a xlink:href="console__output_8c.html#a8bdbc169cde3952bd32b0d5333168178" target="_top" xlink:title="printf と同じ書式でコンソールに出力します。">
<polygon fill="#ffffff" stroke="#666666" points="304,-75 221,-75 221,-56 304,-56 304,-75"/>
<text text-anchor="middle" x="262.5" y="-63" font-family="Helvetica,sans-Serif" font-size="10.00" fill="#000000">console_output</text>
</a>
</g>
</g>
<!-- Node1&#45;&gt;Node2 -->
<g id="edge1_Node000001_Node000002" class="edge">
<title>Node1&#45;&gt;Node2</title>
<g id="a_edge1_Node000001_Node000002"><a xlink:title=" ">
<path fill="none" stroke="#63b8ff" d="M38.1877,-54.8907C48.5701,-58.9765 61.7456,-63.443 74,-65.5 119.7259,-73.1756 172.5751,-72.3553 210.6575,-70.092"/>
<polygon fill="#63b8ff" stroke="#63b8ff" points="211.2367,-73.5618 220.9889,-69.4212 210.7831,-66.5765 211.2367,-73.5618"/>
</a>
</g>
</g>
<!-- Node3 -->
<g id="Node000003" class="node">
<title>Node3</title>
<g id="a_Node000003"><a xlink:href="funcman__libbase_8c.html#ac849ebc781221b8a6155160620716a4c" target="_top" xlink:title="libbase が管理する funcman_object ポインタ配列の内容を標準出力に表示します。">
<polygon fill="#ffffff" stroke="#666666" points="185,-19 74,-19 74,0 185,0 185,-19"/>
<text text-anchor="middle" x="129.5" y="-7" font-family="Helvetica,sans-Serif" font-size="10.00" fill="#000000">funcman_info_libbase</text>
</a>
</g>
</g>
<!-- Node1&#45;&gt;Node3 -->
<g id="edge2_Node000001_Node000003" class="edge">
<title>Node1&#45;&gt;Node3</title>
<g id="a_edge2_Node000001_Node000003"><a xlink:title=" ">
<path fill="none" stroke="#63b8ff" d="M38.0599,-39.816C48.6319,-36.1336 62.0256,-31.5097 74,-27.5 79.2229,-25.7511 84.7309,-23.9331 90.1674,-22.1542"/>
<polygon fill="#63b8ff" stroke="#63b8ff" points="91.3738,-25.4423 99.7986,-19.0178 89.2063,-18.7863 91.3738,-25.4423"/>
</a>
</g>
</g>
<!-- Node6 -->
<g id="Node000006" class="node">
<title>Node6</title>
<g id="a_Node000006"><a xlink:href="sample__func_8c.html#ad27d814cdde25db39d4a08df33f6754b" target="_top" xlink:title="計算処理を行います。">
<polygon fill="#ffffff" stroke="#666666" points="165.5,-56 93.5,-56 93.5,-37 165.5,-37 165.5,-56"/>
<text text-anchor="middle" x="129.5" y="-44" font-family="Helvetica,sans-Serif" font-size="10.00" fill="#000000">sample_func</text>
</a>
</g>
</g>
<!-- Node1&#45;&gt;Node6 -->
<g id="edge5_Node000001_Node000006" class="edge">
<title>Node1&#45;&gt;Node6</title>
<g id="a_edge5_Node000001_Node000006"><a xlink:title=" ">
<path fill="none" stroke="#63b8ff" d="M38.2476,-46.5C50.6241,-46.5 67.2696,-46.5 82.955,-46.5"/>
<polygon fill="#63b8ff" stroke="#63b8ff" points="83.0694,-50.0001 93.0694,-46.5 83.0694,-43.0001 83.0694,-50.0001"/>
</a>
</g>
</g>
<!-- Node4 -->
<g id="Node000004" class="node">
<title>Node4</title>
<g id="a_Node000004"><a xlink:href="funcman__info_8c.html#a5ca78ded8e50601198ce802629908082" target="_top" xlink:title="funcman_object ポインタ配列の内容を標準出力に表示します。">
<polygon fill="#ffffff" stroke="#666666" points="300,-19 225,-19 225,0 300,0 300,-19"/>
<text text-anchor="middle" x="262.5" y="-7" font-family="Helvetica,sans-Serif" font-size="10.00" fill="#000000">funcman_info</text>
</a>
</g>
</g>
<!-- Node3&#45;&gt;Node4 -->
<g id="edge3_Node000003_Node000004" class="edge">
<title>Node3&#45;&gt;Node4</title>
<g id="a_edge3_Node000003_Node000004"><a xlink:title=" ">
<path fill="none" stroke="#63b8ff" d="M185.1333,-9.5C194.961,-9.5 205.1141,-9.5 214.7025,-9.5"/>
<polygon fill="#63b8ff" stroke="#63b8ff" points="214.8432,-13.0001 224.8432,-9.5 214.8432,-6.0001 214.8432,-13.0001"/>
</a>
</g>
</g>
<!-- Node5 -->
<g id="Node000005" class="node">
<title>Node5</title>
<g id="a_Node000005"><a xlink:href="funcman__get__func_8c.html#acb47786bbf6ea8a7edef3562a896765d" target="_top" xlink:title="拡張関数ポインタを返します。この関数は内部用です。">
<polygon fill="#ffffff" stroke="#666666" points="442,-19 340,-19 340,0 442,0 442,-19"/>
<text text-anchor="middle" x="391" y="-7" font-family="Helvetica,sans-Serif" font-size="10.00" fill="#000000">_funcman_get_func</text>
</a>
</g>
</g>
<!-- Node4&#45;&gt;Node5 -->
<g id="edge4_Node000004_Node000005" class="edge">
<title>Node4&#45;&gt;Node5</title>
<g id="a_edge4_Node000004_Node000005"><a xlink:title=" ">
<path fill="none" stroke="#63b8ff" d="M300.013,-9.5C309.3469,-9.5 319.5972,-9.5 329.7475,-9.5"/>
<polygon fill="#63b8ff" stroke="#63b8ff" points="329.8269,-13.0001 339.8269,-9.5 329.8268,-6.0001 329.8269,-13.0001"/>
</a>
</g>
</g>
<!-- Node6&#45;&gt;Node2 -->
<g id="edge6_Node000006_Node000002" class="edge">
<title>Node6&#45;&gt;Node2</title>
<g id="a_edge6_Node000006_Node000002"><a xlink:title=" ">
<path fill="none" stroke="#63b8ff" d="M165.8428,-51.6918C179.5908,-53.6558 195.5205,-55.9315 210.4328,-58.0618"/>
<polygon fill="#63b8ff" stroke="#63b8ff" points="210.1604,-61.5584 220.5549,-59.5078 211.1504,-54.6287 210.1604,-61.5584"/>
</a>
</g>
</g>
</g>
</svg>
