<?xml version="1.0" encoding="UTF-8" standalone="no"?>
<!DOCTYPE svg PUBLIC "-//W3C//DTD SVG 1.1//EN"
 "http://www.w3.org/Graphics/SVG/1.1/DTD/svg11.dtd">
<!-- Generated by graphviz version 2.40.1 (0)
 -->
<!-- Title: main Pages: 1 -->
<svg width="236pt" height="46pt"
 viewBox="0.00 0.00 236.00 46.00" xmlns="http://www.w3.org/2000/svg" xmlns:xlink="http://www.w3.org/1999/xlink">
<g id="graph0" class="graph" transform="scale(1 1) rotate(0) translate(4 42)">
<title>main</title>
<!-- Node1 -->
<g id="Node000001" class="node">
<title>Node1</title>
<g id="a_Node000001"><a xlink:title="メインエントリポイント。">
<polygon fill="#999999" stroke="#666666" points="38,-38 0,-38 0,-19 38,-19 38,-38"/>
<text text-anchor="middle" x="19" y="-26" font-family="Helvetica,sans-Serif" font-size="10.00" fill="#000000">main</text>
</a>
</g>
</g>
<!-- Node2 -->
<g id="Node000002" class="node">
<title>Node2</title>
<g id="a_Node000002"><a xlink:href="console__output_8c.html#a8bdbc169cde3952bd32b0d5333168178" target="_top" xlink:title="printf と同じ書式でコンソールに出力します。">
<polygon fill="#ffffff" stroke="#666666" points="228,-38 145,-38 145,-19 228,-19 228,-38"/>
<text text-anchor="middle" x="186.5" y="-26" font-family="Helvetica,sans-Serif" font-size="10.00" fill="#000000">console_output</text>
</a>
</g>
</g>
<!-- Node1&#45;&gt;Node2 -->
<g id="edge1_Node000001_Node000002" class="edge">
<title>Node1&#45;&gt;Node2</title>
<g id="a_edge1_Node000001_Node000002"><a xlink:title=" ">
<path fill="none" stroke="#63b8ff" d="M38.2144,-28.5C61.5538,-28.5 101.8599,-28.5 134.5638,-28.5"/>
<polygon fill="#63b8ff" stroke="#63b8ff" points="134.8837,-32.0001 144.8837,-28.5 134.8836,-25.0001 134.8837,-32.0001"/>
</a>
</g>
</g>
<!-- Node3 -->
<g id="Node000003" class="node">
<title>Node3</title>
<g id="a_Node000003"><a xlink:href="func_8c.html#a93e538b93356962ce68c563834cd7cb6" target="_top" xlink:title="useOverride フラグに従い計算処理を行います。">
<polygon fill="#ffffff" stroke="#666666" points="109,-19 74,-19 74,0 109,0 109,-19"/>
<text text-anchor="middle" x="91.5" y="-7" font-family="Helvetica,sans-Serif" font-size="10.00" fill="#000000">func</text>
</a>
</g>
</g>
<!-- Node1&#45;&gt;Node3 -->
<g id="edge2_Node000001_Node000003" class="edge">
<title>Node1&#45;&gt;Node3</title>
<g id="a_edge2_Node000001_Node000003"><a xlink:title=" ">
<path fill="none" stroke="#63b8ff" d="M38.0485,-23.508C46.0093,-21.4217 55.411,-18.9578 64.0921,-16.6828"/>
<polygon fill="#63b8ff" stroke="#63b8ff" points="65.0364,-20.0536 73.8225,-14.1327 63.2618,-13.2822 65.0364,-20.0536"/>
</a>
</g>
</g>
<!-- Node3&#45;&gt;Node2 -->
<g id="edge3_Node000003_Node000002" class="edge">
<title>Node3&#45;&gt;Node2</title>
<g id="a_edge3_Node000003_Node000002"><a xlink:title=" ">
<path fill="none" stroke="#63b8ff" d="M109.3688,-13.0738C116.7105,-14.5421 125.6246,-16.3249 134.7496,-18.1499"/>
<polygon fill="#63b8ff" stroke="#63b8ff" points="134.1774,-21.6047 144.6696,-20.1339 135.5502,-14.7406 134.1774,-21.6047"/>
</a>
</g>
</g>
</g>
</svg>
