<?xml version="1.0" encoding="UTF-8" standalone="no"?>
<!DOCTYPE svg PUBLIC "-//W3C//DTD SVG 1.1//EN"
 "http://www.w3.org/Graphics/SVG/1.1/DTD/svg11.dtd">
<!-- Generated by graphviz version 2.40.1 (0)
 -->
<!-- Title: funcman_object Pages: 1 -->
<svg width="88pt" height="162pt"
 viewBox="0.00 0.00 88.00 162.00" xmlns="http://www.w3.org/2000/svg" xmlns:xlink="http://www.w3.org/1999/xlink">
<g id="graph0" class="graph" transform="scale(1 1) rotate(0) translate(4 158)">
<title>funcman_object</title>
<!-- Node1 -->
<g id="Node000001" class="node">
<title>Node1</title>
<g id="a_Node000001"><a xlink:title="関数ポインタキャッシュエントリ。">
<polygon fill="#999999" stroke="transparent" points="80,-154 0,-154 0,0 80,0 80,-154"/>
<text text-anchor="start" x="5" y="-142" font-family="Helvetica,sans-Serif" font-size="10.00" fill="#000000">funcman_object</text>
<text text-anchor="start" x="7" y="-127" font-family="Helvetica,sans-Serif" font-size="10.00" fill="#000000">+</text>
<text text-anchor="start" x="21" y="-127" font-family="Helvetica,sans-Serif" font-size="10.00" fill="#000000">func_key</text>
<text text-anchor="start" x="7" y="-112" font-family="Helvetica,sans-Serif" font-size="10.00" fill="#000000">+</text>
<text text-anchor="start" x="21" y="-112" font-family="Helvetica,sans-Serif" font-size="10.00" fill="#000000">lib_name</text>
<text text-anchor="start" x="7" y="-97" font-family="Helvetica,sans-Serif" font-size="10.00" fill="#000000">+</text>
<text text-anchor="start" x="21" y="-97" font-family="Helvetica,sans-Serif" font-size="10.00" fill="#000000">func_name</text>
<text text-anchor="start" x="7" y="-82" font-family="Helvetica,sans-Serif" font-size="10.00" fill="#000000">+</text>
<text text-anchor="start" x="21" y="-82" font-family="Helvetica,sans-Serif" font-size="10.00" fill="#000000">handle</text>
<text text-anchor="start" x="7" y="-67" font-family="Helvetica,sans-Serif" font-size="10.00" fill="#000000">+</text>
<text text-anchor="start" x="21" y="-67" font-family="Helvetica,sans-Serif" font-size="10.00" fill="#000000">func_ptr</text>
<text text-anchor="start" x="7" y="-52" font-family="Helvetica,sans-Serif" font-size="10.00" fill="#000000">+</text>
<text text-anchor="start" x="21" y="-52" font-family="Helvetica,sans-Serif" font-size="10.00" fill="#000000">resolved</text>
<text text-anchor="start" x="7" y="-37" font-family="Helvetica,sans-Serif" font-size="10.00" fill="#000000">+</text>
<text text-anchor="start" x="21" y="-37" font-family="Helvetica,sans-Serif" font-size="10.00" fill="#000000">padding</text>
<text text-anchor="start" x="7" y="-22" font-family="Helvetica,sans-Serif" font-size="10.00" fill="#000000">+</text>
<text text-anchor="start" x="21" y="-22" font-family="Helvetica,sans-Serif" font-size="10.00" fill="#000000">mutex</text>
<text text-anchor="start" x="38" y="-7" font-family="Helvetica,sans-Serif" font-size="10.00" fill="#000000"> </text>
<polygon fill="#666666" stroke="#666666" points="0,-137 0,-137 80,-137 80,-137 0,-137"/>
<polygon fill="#666666" stroke="#666666" points="0,-17 0,-17 19,-17 19,-17 0,-17"/>
<polygon fill="#666666" stroke="#666666" points="19,-17 19,-17 80,-17 80,-17 19,-17"/>
<polygon fill="none" stroke="#666666" points="0,0 0,-154 80,-154 80,0 0,0"/>
</a>
</g>
</g>
</g>
</svg>
