<svg xmlns="http://www.w3.org/2000/svg" xmlns:xlink="http://www.w3.org/1999/xlink" contentStyleType="text/css" data-diagram-type="DESCRIPTION" height="398px" preserveAspectRatio="none" style="width:476px;height:398px;" version="1.1" viewBox="0 0 476 398" width="476px" zoomAndPan="magnify"><defs/><g><!--entity n0--><g class="entity" data-entity="n0" data-source-line="5" data-uid="ent0002" id="entity_n0"><rect fill="#ADD8E6" height="37.7799" rx="2.5" ry="2.5" style="stroke:#181818;stroke-width:0.5;" width="49.7499" x="168.1235" y="7"/><text fill="#000000" font-family="'Segoe UI', 'メイリオ', 'UDEV Gothic HSRFJPDOC', 'Hiragino Kaku Gothic ProN', 'ヒラギノ角ゴ ProN', 'Noto Sans JP', 'Helvetica Neue', Helvetica, Arial, sans-serif" font-size="14" font-weight="bold" lengthAdjust="spacing" textLength="29.7499" x="178.1235" y="30.9999">main</text></g><!--entity n1--><g class="entity" data-entity="n1" data-source-line="6" data-uid="ent0003" id="entity_n1"><rect fill="#F1F1F1" height="55.5598" rx="2.5" ry="2.5" style="stroke:#181818;stroke-width:0.5;" width="68.9998" x="48.6235" y="337"/><text fill="#000000" font-family="'Segoe UI', 'メイリオ', 'UDEV Gothic HSRFJPDOC', 'Hiragino Kaku Gothic ProN', 'ヒラギノ角ゴ ProN', 'Noto Sans JP', 'Helvetica Neue', Helvetica, Arial, sans-serif" font-size="14" lengthAdjust="spacing" textLength="20.9999" x="58.6235" y="360.9999">add</text><text fill="#000000" font-family="'Segoe UI', 'メイリオ', 'UDEV Gothic HSRFJPDOC', 'Hiragino Kaku Gothic ProN', 'ヒラギノ角ゴ ProN', 'Noto Sans JP', 'Helvetica Neue', Helvetica, Arial, sans-serif" font-size="14" lengthAdjust="spacing" textLength="48.9998" x="58.6235" y="378.7799">(add.c)</text></g><!--entity n2--><g class="entity" data-entity="n2" data-source-line="7" data-uid="ent0004" id="entity_n2"><rect fill="#F1F1F1" height="55.5598" rx="2.5" ry="2.5" style="stroke:#181818;stroke-width:0.5;" width="124.9995" x="130.6235" y="105"/><text fill="#000000" font-family="'Segoe UI', 'メイリオ', 'UDEV Gothic HSRFJPDOC', 'Hiragino Kaku Gothic ProN', 'ヒラギノ角ゴ ProN', 'Noto Sans JP', 'Helvetica Neue', Helvetica, Arial, sans-serif" font-size="14" lengthAdjust="spacing" textLength="76.9997" x="140.6235" y="128.9999">calcHandler</text><text fill="#000000" font-family="'Segoe UI', 'メイリオ', 'UDEV Gothic HSRFJPDOC', 'Hiragino Kaku Gothic ProN', 'ヒラギノ角ゴ ProN', 'Noto Sans JP', 'Helvetica Neue', Helvetica, Arial, sans-serif" font-size="14" lengthAdjust="spacing" textLength="104.9995" x="140.6235" y="146.7799">(calcHandler.c)</text></g><!--entity n3--><g class="entity" data-entity="n3" data-source-line="8" data-uid="ent0005" id="entity_n3"><rect fill="#F1F1F1" height="55.5598" rx="2.5" ry="2.5" style="stroke:#181818;stroke-width:0.5;" width="89.9997" x="241.1235" y="221"/><text fill="#000000" font-family="'Segoe UI', 'メイリオ', 'UDEV Gothic HSRFJPDOC', 'Hiragino Kaku Gothic ProN', 'ヒラギノ角ゴ ProN', 'Noto Sans JP', 'Helvetica Neue', Helvetica, Arial, sans-serif" font-size="14" lengthAdjust="spacing" textLength="41.9998" x="251.1235" y="244.9999">divide</text><text fill="#000000" font-family="'Segoe UI', 'メイリオ', 'UDEV Gothic HSRFJPDOC', 'Hiragino Kaku Gothic ProN', 'ヒラギノ角ゴ ProN', 'Noto Sans JP', 'Helvetica Neue', Helvetica, Arial, sans-serif" font-size="14" lengthAdjust="spacing" textLength="69.9997" x="251.1235" y="262.7799">(divide.c)</text></g><!--entity n4--><g class="entity" data-entity="n4" data-source-line="9" data-uid="ent0006" id="entity_n4"><rect fill="#F1F1F1" height="55.5598" rx="2.5" ry="2.5" style="stroke:#181818;stroke-width:0.5;" width="103.9996" x="366.1235" y="221"/><text fill="#000000" font-family="'Segoe UI', 'メイリオ', 'UDEV Gothic HSRFJPDOC', 'Hiragino Kaku Gothic ProN', 'ヒラギノ角ゴ ProN', 'Noto Sans JP', 'Helvetica Neue', Helvetica, Arial, sans-serif" font-size="14" lengthAdjust="spacing" textLength="55.9998" x="376.1235" y="244.9999">multiply</text><text fill="#000000" font-family="'Segoe UI', 'メイリオ', 'UDEV Gothic HSRFJPDOC', 'Hiragino Kaku Gothic ProN', 'ヒラギノ角ゴ ProN', 'Noto Sans JP', 'Helvetica Neue', Helvetica, Arial, sans-serif" font-size="14" lengthAdjust="spacing" textLength="83.9996" x="376.1235" y="262.7799">(multiply.c)</text></g><!--entity n5--><g class="entity" data-entity="n5" data-source-line="10" data-uid="ent0007" id="entity_n5"><rect fill="#F1F1F1" height="55.5598" rx="2.5" ry="2.5" style="stroke:#181818;stroke-width:0.5;" width="103.9996" x="31.1235" y="221"/><text fill="#000000" font-family="'Segoe UI', 'メイリオ', 'UDEV Gothic HSRFJPDOC', 'Hiragino Kaku Gothic ProN', 'ヒラギノ角ゴ ProN', 'Noto Sans JP', 'Helvetica Neue', Helvetica, Arial, sans-serif" font-size="14" lengthAdjust="spacing" textLength="55.9998" x="41.1235" y="244.9999">subtract</text><text fill="#000000" font-family="'Segoe UI', 'メイリオ', 'UDEV Gothic HSRFJPDOC', 'Hiragino Kaku Gothic ProN', 'ヒラギノ角ゴ ProN', 'Noto Sans JP', 'Helvetica Neue', Helvetica, Arial, sans-serif" font-size="14" lengthAdjust="spacing" textLength="83.9996" x="41.1235" y="262.7799">(subtract.c)</text></g><!--link n0 to n1--><g class="link" data-entity-1="n0" data-entity-2="n1" data-source-line="11" data-uid="lnk8" id="link_n0_n1"><path d="M167.7976,40.5427 C144.4075,54.8377 109.6733,78.3419 85.1235,105 C44.1761,149.4639 30.5155,162.819 14.1235,221 C7.374,244.9562 6,253.4742 14.1235,277 C21.9175,299.5717 34.0725,316.3672 48.836,332.2994" fill="none" id="n0-to-n1" style="stroke:#181818;stroke-width:1;"/><polygon fill="#181818" points="52.9142,336.7004,49.731,327.3802,49.5157,333.0329,43.863,332.8177,52.9142,336.7004" style="stroke:#181818;stroke-width:1;"/></g><!--link n0 to n2--><g class="link" data-entity-1="n0" data-entity-2="n2" data-source-line="12" data-uid="lnk9" id="link_n0_n2"><path d="M193.1235,45.1295 C193.1235,61.7202 193.1235,79.9582 193.1235,98.7777" fill="none" id="n0-to-n2" style="stroke:#181818;stroke-width:1;"/><polygon fill="#181818" points="193.1235,104.7777,197.1235,95.7777,193.1235,99.7777,189.1235,95.7777,193.1235,104.7777" style="stroke:#181818;stroke-width:1;"/></g><!--link n0 to n3--><g class="link" data-entity-1="n0" data-entity-2="n3" data-source-line="13" data-uid="lnk10" id="link_n0_n3"><path d="M218.3898,43.2401 C236.9848,57.4581 261.046,79.403 273.1235,105 C290.6901,142.2306 291.479,184.8701 289.4939,215.0121" fill="none" id="n0-to-n3" style="stroke:#181818;stroke-width:1;"/><polygon fill="#181818" points="289.0996,220.9991,293.6824,212.2814,289.4282,216.0099,285.6997,211.7557,289.0996,220.9991" style="stroke:#181818;stroke-width:1;"/></g><!--link n0 to n4--><g class="link" data-entity-1="n0" data-entity-2="n4" data-source-line="14" data-uid="lnk11" id="link_n0_n4"><path d="M218.5288,40.6907 C242.553,55.2636 278.882,79.1112 306.1235,105 C344.0041,140.9995 376.2397,185.4307 396.7464,216.0124" fill="none" id="n0-to-n4" style="stroke:#181818;stroke-width:1;"/><polygon fill="#181818" points="400.088,220.9957,398.3978,211.293,397.3033,216.8429,391.7534,215.7484,400.088,220.9957" style="stroke:#181818;stroke-width:1;"/></g><!--link n0 to n5--><g class="link" data-entity-1="n0" data-entity-2="n5" data-source-line="15" data-uid="lnk12" id="link_n0_n5"><path d="M167.9238,44.2588 C149.868,58.7074 126.4699,80.4847 113.1235,105 C93.0987,141.7827 86.8562,184.5512 84.6412,214.8416" fill="none" id="n0-to-n5" style="stroke:#181818;stroke-width:1;"/><polygon fill="#181818" points="84.2036,220.8256,88.8493,212.1413,84.5683,215.8389,80.8706,211.5578,84.2036,220.8256" style="stroke:#181818;stroke-width:1;"/></g><!--link n2 to n1--><g class="link" data-entity-1="n2" data-entity-2="n1" data-source-line="16" data-uid="lnk13" id="link_n2_n1"><path d="M188.7771,161.0117 C183.3635,190.9496 172.3912,239.2053 153.1235,277 C141.9518,298.9141 128.8041,316.0882 114.2854,332.4358" fill="none" id="n2-to-n1" style="stroke:#181818;stroke-width:1;"/><polygon fill="#181818" points="110.3011,336.922,119.2683,332.8489,113.6213,333.1835,113.2867,327.5366,110.3011,336.922" style="stroke:#181818;stroke-width:1;"/></g><!--link n2 to n3--><g class="link" data-entity-1="n2" data-entity-2="n3" data-source-line="17" data-uid="lnk14" id="link_n2_n3"><path d="M215.6362,161.0804 C230.1506,179.1844 245.2057,197.9627 259.7427,216.0949" fill="none" id="n2-to-n3" style="stroke:#181818;stroke-width:1;"/><polygon fill="#181818" points="263.4958,220.7762,260.987,211.2522,260.3682,216.8751,254.7453,216.2563,263.4958,220.7762" style="stroke:#181818;stroke-width:1;"/></g><!--link n2 to n4--><g class="link" data-entity-1="n2" data-entity-2="n4" data-source-line="18" data-uid="lnk15" id="link_n2_n4"><path d="M247.5897,161.0804 C283.6156,179.6537 325.2423,201.1146 360.7603,219.4261" fill="none" id="n2-to-n4" style="stroke:#181818;stroke-width:1;"/><polygon fill="#181818" points="366.0933,222.1755,359.9268,214.496,361.6492,219.8843,356.2609,221.6067,366.0933,222.1755" style="stroke:#181818;stroke-width:1;"/></g><!--link n2 to n5--><g class="link" data-entity-1="n2" data-entity-2="n5" data-source-line="19" data-uid="lnk16" id="link_n2_n5"><path d="M166.4956,161.0804 C149.328,179.1844 131.2103,198.2903 114.016,216.4225" fill="none" id="n2-to-n5" style="stroke:#181818;stroke-width:1;"/><polygon fill="#181818" points="109.8875,220.7762,118.9828,216.9979,113.328,217.1481,113.1778,211.4932,109.8875,220.7762" style="stroke:#181818;stroke-width:1;"/></g><!--link n5 to n1--><g class="link" data-entity-1="n5" data-entity-2="n1" data-source-line="20" data-uid="lnk17" id="link_n5_n1"><path d="M83.1235,277.0804 C83.1235,295.1844 83.1235,312.644 83.1235,330.7762" fill="none" id="n5-to-n1" style="stroke:#181818;stroke-width:1;"/><polygon fill="#181818" points="83.1235,336.7762,87.1235,327.7762,83.1235,331.7762,79.1235,327.7762,83.1235,336.7762" style="stroke:#181818;stroke-width:1;"/></g><!--SRC=[JS-z2i8m4C3nlKyHTD50_OYwIGTT77m4bpC9DJIzbdm8VNjFj4UMy0_t2-JECKtUDjLv-u_OEHmXG2-UeBis31dDTV1342a0HXfPJ5MmEW6steg5b3qub78X80hSYUNTjQzqyTcM2envu8hEZLx_vBuSQ_3w1cYy3SIA6tDLSkFUpbYIls1qA56VVNAZduZDoV1OmfYVj9jE1ETaUAfefRfkll-TIt4Tk8vSz4Bn2yLEiLFiJd_t0G00]--></g></svg>