<svg xmlns="http://www.w3.org/2000/svg" xmlns:xlink="http://www.w3.org/1999/xlink" contentStyleType="text/css" data-diagram-type="ACTIVITY" height="809px" preserveAspectRatio="none" style="width:424px;height:809px;" version="1.1" viewBox="0 0 424 809" width="424px" zoomAndPan="magnify"><defs/><g><ellipse cx="237.5015" cy="20" fill="#222222" rx="10" ry="10" style="stroke:#222222;stroke-width:1;"/><rect fill="#F1F1F1" height="35.2401" rx="12.5" ry="12.5" style="stroke:#181818;stroke-width:0.5;" width="140.0009" x="167.501" y="50"/><text fill="#000000" font-family="'Segoe UI', 'メイリオ', 'UDEV Gothic HSRFJPDOC', 'Hiragino Kaku Gothic ProN', 'ヒラギノ角ゴ ProN', 'Noto Sans JP', 'Helvetica Neue', Helvetica, Arial, sans-serif" font-size="12" lengthAdjust="spacing" textLength="120.0009" x="177.501" y="72.0001">&#29872;&#22659;&#22793;&#25968;&#12398;&#20445;&#23384;&#12392;&#35373;&#23450;</text><rect fill="#F1F1F1" height="35.2401" rx="12.5" ry="12.5" style="stroke:#181818;stroke-width:0.5;" width="242.0017" x="116.5007" y="105.2401"/><text fill="#000000" font-family="'Segoe UI', 'メイリオ', 'UDEV Gothic HSRFJPDOC', 'Hiragino Kaku Gothic ProN', 'ヒラギノ角ゴ ProN', 'Noto Sans JP', 'Helvetica Neue', Helvetica, Arial, sans-serif" font-size="12" lengthAdjust="spacing" textLength="222.0017" x="126.5007" y="127.2402">Puppeteer &#12364; chrome-wrapper.sh &#12434;&#36215;&#21205;</text><rect fill="#F1F1F1" height="35.2401" rx="12.5" ry="12.5" style="stroke:#181818;stroke-width:0.5;" width="242.0017" x="116.5007" y="160.4802"/><text fill="#000000" font-family="'Segoe UI', 'メイリオ', 'UDEV Gothic HSRFJPDOC', 'Hiragino Kaku Gothic ProN', 'ヒラギノ角ゴ ProN', 'Noto Sans JP', 'Helvetica Neue', Helvetica, Arial, sans-serif" font-size="12" lengthAdjust="spacing" textLength="222.0017" x="126.5007" y="182.4803">&#20803;&#12398; PUPPETEER_EXECUTABLE_PATH &#12434;&#24489;&#20803;</text><rect fill="#F1F1F1" height="35.2401" rx="12.5" ry="12.5" style="stroke:#181818;stroke-width:0.5;" width="230.0016" x="122.5007" y="215.7203"/><text fill="#000000" font-family="'Segoe UI', 'メイリオ', 'UDEV Gothic HSRFJPDOC', 'Hiragino Kaku Gothic ProN', 'ヒラギノ角ゴ ProN', 'Noto Sans JP', 'Helvetica Neue', Helvetica, Arial, sans-serif" font-size="12" lengthAdjust="spacing" textLength="210.0016" x="132.5007" y="237.7204">Chromium &#23455;&#34892;&#21487;&#33021;&#12501;&#12449;&#12452;&#12523;&#12497;&#12473;&#12434;&#21462;&#24471;</text><rect fill="#F1F1F1" height="35.2401" rx="12.5" ry="12.5" style="stroke:#181818;stroke-width:0.5;" width="188.0013" x="143.5009" y="270.9604"/><text fill="#000000" font-family="'Segoe UI', 'メイリオ', 'UDEV Gothic HSRFJPDOC', 'Hiragino Kaku Gothic ProN', 'ヒラギノ角ゴ ProN', 'Noto Sans JP', 'Helvetica Neue', Helvetica, Arial, sans-serif" font-size="12" lengthAdjust="spacing" textLength="168.0013" x="153.5009" y="292.9605">FIFO (&#21517;&#21069;&#20184;&#12365;&#12497;&#12452;&#12503;) &#12434;&#20316;&#25104;</text><rect fill="#F1F1F1" height="35.2401" rx="12.5" ry="12.5" style="stroke:#181818;stroke-width:0.5;" width="158.0011" x="158.501" y="326.2005"/><text fill="#000000" font-family="'Segoe UI', 'メイリオ', 'UDEV Gothic HSRFJPDOC', 'Hiragino Kaku Gothic ProN', 'ヒラギノ角ゴ ProN', 'Noto Sans JP', 'Helvetica Neue', Helvetica, Arial, sans-serif" font-size="12" lengthAdjust="spacing" textLength="138.0011" x="168.501" y="348.2006">Chromium &#12503;&#12525;&#12475;&#12473;&#12434;&#36215;&#21205;</text><rect fill="#F1F1F1" height="35.2401" rx="12.5" ry="12.5" style="stroke:#181818;stroke-width:0.5;" width="122.0008" x="176.5011" y="381.4406"/><text fill="#000000" font-family="'Segoe UI', 'メイリオ', 'UDEV Gothic HSRFJPDOC', 'Hiragino Kaku Gothic ProN', 'ヒラギノ角ゴ ProN', 'Noto Sans JP', 'Helvetica Neue', Helvetica, Arial, sans-serif" font-size="12" lengthAdjust="spacing" textLength="102.0008" x="186.5011" y="403.4407">stderr &#20986;&#21147;&#12434;&#30435;&#35222;</text><polygon fill="#F1F1F1" points="160.5021,436.6807,314.5009,436.6807,326.5009,448.6807,314.5009,460.6807,160.5021,460.6807,148.5021,448.6807,160.5021,436.6807" style="stroke:#181818;stroke-width:0.5;"/><text fill="#000000" font-family="'Segoe UI', 'メイリオ', 'UDEV Gothic HSRFJPDOC', 'Hiragino Kaku Gothic ProN', 'ヒラギノ角ゴ ProN', 'Noto Sans JP', 'Helvetica Neue', Helvetica, Arial, sans-serif" font-size="11" lengthAdjust="spacing" textLength="153.9988" x="160.5021" y="452.6957">DevTools WebSocket &#34892;&#12434;&#26908;&#20986;?</text><text fill="#000000" font-family="'Segoe UI', 'メイリオ', 'UDEV Gothic HSRFJPDOC', 'Hiragino Kaku Gothic ProN', 'ヒラギノ角ゴ ProN', 'Noto Sans JP', 'Helvetica Neue', Helvetica, Arial, sans-serif" font-size="11" lengthAdjust="spacing" textLength="16.4999" x="132.0022" y="445.7108">Yes</text><text fill="#000000" font-family="'Segoe UI', 'メイリオ', 'UDEV Gothic HSRFJPDOC', 'Hiragino Kaku Gothic ProN', 'ヒラギノ角ゴ ProN', 'Noto Sans JP', 'Helvetica Neue', Helvetica, Arial, sans-serif" font-size="11" lengthAdjust="spacing" textLength="10.9999" x="326.5009" y="445.7108">No</text><rect fill="#F1F1F1" height="35.2401" rx="12.5" ry="12.5" style="stroke:#181818;stroke-width:0.5;" width="116.0007" x="74.0005" y="470.6807"/><text fill="#000000" font-family="'Segoe UI', 'メイリオ', 'UDEV Gothic HSRFJPDOC', 'Hiragino Kaku Gothic ProN', 'ヒラギノ角ゴ ProN', 'Noto Sans JP', 'Helvetica Neue', Helvetica, Arial, sans-serif" font-size="12" lengthAdjust="spacing" textLength="96.0007" x="84.0005" y="492.6808">&#12509;&#12540;&#12488;&#30058;&#21495;&#12434;&#25277;&#20986;</text><rect fill="#F1F1F1" height="35.2401" rx="12.5" ry="12.5" style="stroke:#181818;stroke-width:0.5;" width="176.0012" x="44.0003" y="525.9209"/><text fill="#000000" font-family="'Segoe UI', 'メイリオ', 'UDEV Gothic HSRFJPDOC', 'Hiragino Kaku Gothic ProN', 'ヒラギノ角ゴ ProN', 'Noto Sans JP', 'Helvetica Neue', Helvetica, Arial, sans-serif" font-size="12" lengthAdjust="spacing" textLength="156.0012" x="54.0003" y="547.9209">&#12509;&#12540;&#12488;&#12398; LISTEN &#29366;&#24907;&#12434;&#30906;&#35469;</text><rect fill="#F1F1F1" height="35.2401" rx="12.5" ry="12.5" style="stroke:#181818;stroke-width:0.5;" width="182.0012" x="41.0002" y="581.161"/><text fill="#000000" font-family="'Segoe UI', 'メイリオ', 'UDEV Gothic HSRFJPDOC', 'Hiragino Kaku Gothic ProN', 'ヒラギノ角ゴ ProN', 'Noto Sans JP', 'Helvetica Neue', Helvetica, Arial, sans-serif" font-size="12" lengthAdjust="spacing" textLength="162.0012" x="51.0002" y="603.161">DevTools API &#12398;&#24540;&#31572;&#24615;&#12434;&#30906;&#35469;</text><rect fill="#F1F1F1" height="35.2401" rx="12.5" ry="12.5" style="stroke:#181818;stroke-width:0.5;" width="242.0017" x="11" y="636.4011"/><text fill="#000000" font-family="'Segoe UI', 'メイリオ', 'UDEV Gothic HSRFJPDOC', 'Hiragino Kaku Gothic ProN', 'ヒラギノ角ゴ ProN', 'Noto Sans JP', 'Helvetica Neue', Helvetica, Arial, sans-serif" font-size="12" lengthAdjust="spacing" textLength="222.0017" x="21" y="658.4011">&#12496;&#12483;&#12501;&#12449;&#12373;&#12428;&#12383;&#20986;&#21147;&#12434; Puppeteer &#12395;&#36865;&#20449;</text><rect fill="#F1F1F1" height="35.2401" rx="12.5" ry="12.5" style="stroke:#181818;stroke-width:0.5;" width="140.0009" x="273.0017" y="470.6807"/><text fill="#000000" font-family="'Segoe UI', 'メイリオ', 'UDEV Gothic HSRFJPDOC', 'Hiragino Kaku Gothic ProN', 'ヒラギノ角ゴ ProN', 'Noto Sans JP', 'Helvetica Neue', Helvetica, Arial, sans-serif" font-size="12" lengthAdjust="spacing" textLength="120.0009" x="283.0017" y="492.6808">&#20986;&#21147;&#12434;&#12496;&#12483;&#12501;&#12449;&#12395;&#33988;&#31309;</text><polygon fill="#F1F1F1" points="237.5015,677.6412,249.5015,689.6412,237.5015,701.6412,225.5015,689.6412,237.5015,677.6412" style="stroke:#181818;stroke-width:0.5;"/><rect fill="#F1F1F1" height="35.2401" rx="12.5" ry="12.5" style="stroke:#181818;stroke-width:0.5;" width="164.0011" x="155.5009" y="721.6412"/><text fill="#000000" font-family="'Segoe UI', 'メイリオ', 'UDEV Gothic HSRFJPDOC', 'Hiragino Kaku Gothic ProN', 'ヒラギノ角ゴ ProN', 'Noto Sans JP', 'Helvetica Neue', Helvetica, Arial, sans-serif" font-size="12" lengthAdjust="spacing" textLength="144.0011" x="165.5009" y="743.6413">&#36890;&#24120;&#12398; stderr &#20986;&#21147;&#12434;&#36578;&#36865;</text><ellipse cx="237.5015" cy="787.8813" fill="none" rx="11" ry="11" style="stroke:#222222;stroke-width:1;"/><ellipse cx="237.5015" cy="787.8813" fill="#222222" rx="6" ry="6" style="stroke:#222222;stroke-width:1;"/><line style="stroke:#181818;stroke-width:1;" x1="237.5015" x2="237.5015" y1="30" y2="50"/><polygon fill="#181818" points="233.5015,40,237.5015,50,241.5015,40,237.5015,44" style="stroke:#181818;stroke-width:1;"/><line style="stroke:#181818;stroke-width:1;" x1="237.5015" x2="237.5015" y1="85.2401" y2="105.2401"/><polygon fill="#181818" points="233.5015,95.2401,237.5015,105.2401,241.5015,95.2401,237.5015,99.2401" style="stroke:#181818;stroke-width:1;"/><line style="stroke:#181818;stroke-width:1;" x1="237.5015" x2="237.5015" y1="140.4802" y2="160.4802"/><polygon fill="#181818" points="233.5015,150.4802,237.5015,160.4802,241.5015,150.4802,237.5015,154.4802" style="stroke:#181818;stroke-width:1;"/><line style="stroke:#181818;stroke-width:1;" x1="237.5015" x2="237.5015" y1="195.7203" y2="215.7203"/><polygon fill="#181818" points="233.5015,205.7203,237.5015,215.7203,241.5015,205.7203,237.5015,209.7203" style="stroke:#181818;stroke-width:1;"/><line style="stroke:#181818;stroke-width:1;" x1="237.5015" x2="237.5015" y1="250.9604" y2="270.9604"/><polygon fill="#181818" points="233.5015,260.9604,237.5015,270.9604,241.5015,260.9604,237.5015,264.9604" style="stroke:#181818;stroke-width:1;"/><line style="stroke:#181818;stroke-width:1;" x1="237.5015" x2="237.5015" y1="306.2005" y2="326.2005"/><polygon fill="#181818" points="233.5015,316.2005,237.5015,326.2005,241.5015,316.2005,237.5015,320.2005" style="stroke:#181818;stroke-width:1;"/><line style="stroke:#181818;stroke-width:1;" x1="237.5015" x2="237.5015" y1="361.4406" y2="381.4406"/><polygon fill="#181818" points="233.5015,371.4406,237.5015,381.4406,241.5015,371.4406,237.5015,375.4406" style="stroke:#181818;stroke-width:1;"/><line style="stroke:#181818;stroke-width:1;" x1="132.0008" x2="132.0008" y1="505.9209" y2="525.9209"/><polygon fill="#181818" points="128.0008,515.9209,132.0008,525.9209,136.0008,515.9209,132.0008,519.9209" style="stroke:#181818;stroke-width:1;"/><line style="stroke:#181818;stroke-width:1;" x1="132.0008" x2="132.0008" y1="561.161" y2="581.161"/><polygon fill="#181818" points="128.0008,571.161,132.0008,581.161,136.0008,571.161,132.0008,575.161" style="stroke:#181818;stroke-width:1;"/><line style="stroke:#181818;stroke-width:1;" x1="132.0008" x2="132.0008" y1="616.4011" y2="636.4011"/><polygon fill="#181818" points="128.0008,626.4011,132.0008,636.4011,136.0008,626.4011,132.0008,630.4011" style="stroke:#181818;stroke-width:1;"/><line style="stroke:#181818;stroke-width:1;" x1="148.5021" x2="132.0008" y1="448.6807" y2="448.6807"/><line style="stroke:#181818;stroke-width:1;" x1="132.0008" x2="132.0008" y1="448.6807" y2="470.6807"/><polygon fill="#181818" points="128.0008,460.6807,132.0008,470.6807,136.0008,460.6807,132.0008,464.6807" style="stroke:#181818;stroke-width:1;"/><line style="stroke:#181818;stroke-width:1;" x1="326.5009" x2="343.0022" y1="448.6807" y2="448.6807"/><line style="stroke:#181818;stroke-width:1;" x1="343.0022" x2="343.0022" y1="448.6807" y2="470.6807"/><polygon fill="#181818" points="339.0022,460.6807,343.0022,470.6807,347.0022,460.6807,343.0022,464.6807" style="stroke:#181818;stroke-width:1;"/><line style="stroke:#181818;stroke-width:1;" x1="132.0008" x2="132.0008" y1="671.6412" y2="689.6412"/><line style="stroke:#181818;stroke-width:1;" x1="132.0008" x2="225.5015" y1="689.6412" y2="689.6412"/><polygon fill="#181818" points="215.5015,685.6412,225.5015,689.6412,215.5015,693.6412,219.5015,689.6412" style="stroke:#181818;stroke-width:1;"/><line style="stroke:#181818;stroke-width:1;" x1="343.0022" x2="343.0022" y1="505.9209" y2="689.6412"/><line style="stroke:#181818;stroke-width:1;" x1="343.0022" x2="249.5015" y1="689.6412" y2="689.6412"/><polygon fill="#181818" points="259.5015,685.6412,249.5015,689.6412,259.5015,693.6412,255.5015,689.6412" style="stroke:#181818;stroke-width:1;"/><line style="stroke:#181818;stroke-width:1;" x1="237.5015" x2="237.5015" y1="416.6807" y2="436.6807"/><polygon fill="#181818" points="233.5015,426.6807,237.5015,436.6807,241.5015,426.6807,237.5015,430.6807" style="stroke:#181818;stroke-width:1;"/><line style="stroke:#181818;stroke-width:1;" x1="237.5015" x2="237.5015" y1="701.6412" y2="721.6412"/><polygon fill="#181818" points="233.5015,711.6412,237.5015,721.6412,241.5015,711.6412,237.5015,715.6412" style="stroke:#181818;stroke-width:1;"/><line style="stroke:#181818;stroke-width:1;" x1="237.5015" x2="237.5015" y1="756.8813" y2="776.8813"/><polygon fill="#181818" points="233.5015,766.8813,237.5015,776.8813,241.5015,766.8813,237.5015,770.8813" style="stroke:#181818;stroke-width:1;"/><!--SRC=[TP91Jnf168Rl_eevmg7jlHWRIjT8OdHJrxGzcHL68S0EcLdQzCRkr5GH0hMYHZ46IbgLGBsqMYdoOuRPNVz5PvJ0bjOvJ2Qxx_D-t_lDJ1FpVHhEJ4q_6Hv8AcbaTQndmAeUIwrZb3FY4PH669XODuZu1Grp2eX5J1tVd-HwwkvSy0RbpIsdUi6ipg1_pDi7p3hrJjkySnWQ2zLSDWjD235WLX744XXbuADtM1TVyMEI0CpUyNvSyksgZ-4RL7W2TLbL5KrHNguehvN8iXP-Fg-ig65jJaByvap8V514MYTp6S0x9rwzoClVFTfZjChiEhERZBOO_SJiNn8jx_6RVHyw6vrT105UAV6jqg0hOfJkj0BQ3yfQWrxDsQpyhvPGCDfcTlVU-Pyan8n3Z07_UCqBHqBW7dtnlkwD1Sar47W1tse8fGbu1LUNK2m5JI3w5sAdMHFWio0m4z00WJUG14VWdJkZnup-PdJJhPxpygL42Zs1X1wGoQ7EHvSqPG6uXP_EnhRig77jdPScY55BOJKgxgt3-pMtlUlalpq4C5fXb0wdROczoAoJKMhWVmIjsxmrwDV71Z1D80Wie8bm8_flxvRt-ODxvgiFZNXoRJpns_mXlxgIIITdxtKRedHe-9fHzWy0]--></g></svg>