<?xml version="1.0" encoding="UTF-8" standalone="no"?>
<!DOCTYPE svg PUBLIC "-//W3C//DTD SVG 1.1//EN"
 "http://www.w3.org/Graphics/SVG/1.1/DTD/svg11.dtd">
<!-- Generated by graphviz version 2.40.1 (0)
 -->
<!-- Title: CalcLib.CalcResult Pages: 1 -->
<svg width="101pt" height="87pt"
 viewBox="0.00 0.00 101.00 87.00" xmlns="http://www.w3.org/2000/svg" xmlns:xlink="http://www.w3.org/1999/xlink">
<g id="graph0" class="graph" transform="scale(1 1) rotate(0) translate(4 83)">
<title>CalcLib.CalcResult</title>
<!-- Node1 -->
<g id="Node000001" class="node">
<title>Node1</title>
<g id="a_Node000001"><a xlink:title="計算演算の結果を表します。">
<polygon fill="#999999" stroke="transparent" points="93,-79 0,-79 0,0 93,0 93,-79"/>
<text text-anchor="start" x="5.5" y="-66.5" font-family="Helvetica,sans-Serif" font-size="10.00" fill="#000000">CalcLib.CalcResult</text>
<text text-anchor="start" x="9.5" y="-51.5" font-family="Helvetica,sans-Serif" font-size="10.00" fill="#000000">+</text>
<text text-anchor="start" x="25.5" y="-51.5" font-family="Helvetica,sans-Serif" font-size="10.00" fill="#000000">IsSuccess</text>
<text text-anchor="start" x="9.5" y="-36.5" font-family="Helvetica,sans-Serif" font-size="10.00" fill="#000000">+</text>
<text text-anchor="start" x="25.5" y="-36.5" font-family="Helvetica,sans-Serif" font-size="10.00" fill="#000000">Value</text>
<text text-anchor="start" x="9.5" y="-21.5" font-family="Helvetica,sans-Serif" font-size="10.00" fill="#000000">+</text>
<text text-anchor="start" x="25.5" y="-21.5" font-family="Helvetica,sans-Serif" font-size="10.00" fill="#000000">ErrorCode</text>
<text text-anchor="start" x="9.5" y="-6.5" font-family="Helvetica,sans-Serif" font-size="10.00" fill="#000000">~</text>
<text text-anchor="start" x="25.5" y="-6.5" font-family="Helvetica,sans-Serif" font-size="10.00" fill="#000000">CalcResult()</text>
<polygon fill="#666666" stroke="#666666" points=".5,-61.5 .5,-61.5 93.5,-61.5 93.5,-61.5 .5,-61.5"/>
<polygon fill="#666666" stroke="#666666" points=".5,-16.5 .5,-16.5 23.5,-16.5 23.5,-16.5 .5,-16.5"/>
<polygon fill="#666666" stroke="#666666" points="23.5,-16.5 23.5,-16.5 93.5,-16.5 93.5,-16.5 23.5,-16.5"/>
<polygon fill="none" stroke="#666666" points="0,0 0,-79 93,-79 93,0 0,0"/>
</a>
</g>
</g>
</g>
</svg>
