<?xml version="1.0" encoding="UTF-8" standalone="no"?>
<!DOCTYPE svg PUBLIC "-//W3C//DTD SVG 1.1//EN"
 "http://www.w3.org/Graphics/SVG/1.1/DTD/svg11.dtd">
<!-- Generated by graphviz version 2.40.1 (0)
 -->
<!-- Title: CalcLib.CalcLibrary.Calculate Pages: 1 -->
<svg width="330pt" height="76pt"
 viewBox="0.00 0.00 330.00 75.50" xmlns="http://www.w3.org/2000/svg" xmlns:xlink="http://www.w3.org/1999/xlink">
<g id="graph0" class="graph" transform="scale(1 1) rotate(0) translate(4 71.5)">
<title>CalcLib.CalcLibrary.Calculate</title>
<!-- Node1 -->
<g id="Node000001" class="node">
<title>Node1</title>
<g id="a_Node000001"><a xlink:title="指定された演算種別に基づいて計算を実行します。">
<polygon fill="#999999" stroke="#666666" points="322,-40 179,-40 179,-21 322,-21 322,-40"/>
<text text-anchor="middle" x="250.5" y="-28" font-family="Helvetica,sans-Serif" font-size="10.00" fill="#000000">CalcLib.CalcLibrary.Calculate</text>
</a>
</g>
</g>
<!-- Node2 -->
<g id="Node000002" class="node">
<title>Node2</title>
<g id="a_Node000002"><a xlink:href="classCalcLib_1_1CalcLibrary.html#a2a5d124125389d3ff10bf82898c9a732" target="_top" xlink:title="計算を実行し、失敗した場合は例外をスローします。">
<polygon fill="#ffffff" stroke="#666666" points="143,-67.5 0,-67.5 0,-37.5 143,-37.5 143,-67.5"/>
<text text-anchor="start" x="8" y="-55.5" font-family="Helvetica,sans-Serif" font-size="10.00" fill="#000000">CalcLib.CalcLibrary.Calculate</text>
<text text-anchor="middle" x="71.5" y="-44.5" font-family="Helvetica,sans-Serif" font-size="10.00" fill="#000000">OrThrow</text>
</a>
</g>
</g>
<!-- Node1&#45;&gt;Node2 -->
<g id="edge1_Node000001_Node000002" class="edge">
<title>Node1&#45;&gt;Node2</title>
<g id="a_edge1_Node000001_Node000002"><a xlink:title=" ">
<path fill="none" stroke="#63b8ff" d="M168.9572,-40.522C160.3619,-41.5784 151.6679,-42.647 143.1958,-43.6882"/>
<polygon fill="#63b8ff" stroke="#63b8ff" points="169.4844,-43.9836 178.9828,-39.2898 168.6305,-37.0359 169.4844,-43.9836"/>
</a>
</g>
</g>
<!-- Node3 -->
<g id="Node000003" class="node">
<title>Node3</title>
<g id="a_Node000003"><a xlink:href="classCalcApp_1_1Program.html#a1c1a792b2d6e11d612e740ddf26b3936" target="_top" xlink:title="プログラムのエントリーポイント。">
<polygon fill="#ffffff" stroke="#666666" points="130,-19 13,-19 13,0 130,0 130,-19"/>
<text text-anchor="middle" x="71.5" y="-7" font-family="Helvetica,sans-Serif" font-size="10.00" fill="#000000">CalcApp.Program.Main</text>
</a>
</g>
</g>
<!-- Node1&#45;&gt;Node3 -->
<g id="edge2_Node000001_Node000003" class="edge">
<title>Node1&#45;&gt;Node3</title>
<g id="a_edge2_Node000001_Node000003"><a xlink:title=" ">
<path fill="none" stroke="#63b8ff" d="M169.0498,-20.9444C155.9773,-19.4107 142.6738,-17.85 130.2672,-16.3945"/>
<polygon fill="#63b8ff" stroke="#63b8ff" points="168.643,-24.4206 178.9828,-22.1097 169.4587,-17.4683 168.643,-24.4206"/>
</a>
</g>
</g>
</g>
</svg>
