<?xml version="1.0" encoding="UTF-8" standalone="no"?>
<!DOCTYPE svg PUBLIC "-//W3C//DTD SVG 1.1//EN"
 "http://www.w3.org/Graphics/SVG/1.1/DTD/svg11.dtd">
<!-- Generated by graphviz version 2.40.1 (0)
 -->
<!-- Title: CalcLib.CalcLibrary Pages: 1 -->
<svg width="111pt" height="132pt"
 viewBox="0.00 0.00 111.00 132.00" xmlns="http://www.w3.org/2000/svg" xmlns:xlink="http://www.w3.org/1999/xlink">
<g id="graph0" class="graph" transform="scale(1 1) rotate(0) translate(4 128)">
<title>CalcLib.CalcLibrary</title>
<!-- Node1 -->
<g id="Node000001" class="node">
<title>Node1</title>
<g id="a_Node000001"><a xlink:title="ネイティブ calc ライブラリを使用して基本的な整数演算を実行するための メソッドを提供します。">
<polygon fill="#999999" stroke="transparent" points="103,-124 0,-124 0,0 103,0 103,-124"/>
<text text-anchor="start" x="9.5" y="-112" font-family="Helvetica,sans-Serif" font-size="10.00" fill="#000000">CalcLib.CalcLibrary</text>
<text text-anchor="start" x="50" y="-97" font-family="Helvetica,sans-Serif" font-size="10.00" fill="#000000"> </text>
<text text-anchor="start" x="4.5" y="-82" font-family="Helvetica,sans-Serif" font-size="10.00" fill="#000000">+</text>
<text text-anchor="start" x="15.5" y="-82" font-family="Helvetica,sans-Serif" font-size="10.00" fill="#000000">Calculate()</text>
<text text-anchor="start" x="4.5" y="-67" font-family="Helvetica,sans-Serif" font-size="10.00" fill="#000000">+</text>
<text text-anchor="start" x="15.5" y="-67" font-family="Helvetica,sans-Serif" font-size="10.00" fill="#000000">CalculateOrThrow()</text>
<text text-anchor="start" x="4.5" y="-52" font-family="Helvetica,sans-Serif" font-size="10.00" fill="#000000">+</text>
<text text-anchor="start" x="15.5" y="-52" font-family="Helvetica,sans-Serif" font-size="10.00" fill="#000000">Add()</text>
<text text-anchor="start" x="4.5" y="-37" font-family="Helvetica,sans-Serif" font-size="10.00" fill="#000000">+</text>
<text text-anchor="start" x="15.5" y="-37" font-family="Helvetica,sans-Serif" font-size="10.00" fill="#000000">Subtract()</text>
<text text-anchor="start" x="4.5" y="-22" font-family="Helvetica,sans-Serif" font-size="10.00" fill="#000000">+</text>
<text text-anchor="start" x="15.5" y="-22" font-family="Helvetica,sans-Serif" font-size="10.00" fill="#000000">Multiply()</text>
<text text-anchor="start" x="4.5" y="-7" font-family="Helvetica,sans-Serif" font-size="10.00" fill="#000000">+</text>
<text text-anchor="start" x="15.5" y="-7" font-family="Helvetica,sans-Serif" font-size="10.00" fill="#000000">Divide()</text>
<polygon fill="#666666" stroke="#666666" points=".5,-107 .5,-107 103.5,-107 103.5,-107 .5,-107"/>
<polygon fill="#666666" stroke="#666666" points=".5,-92 .5,-92 103.5,-92 103.5,-92 .5,-92"/>
<polygon fill="none" stroke="#666666" points="0,0 0,-124 103,-124 103,0 0,0"/>
</a>
</g>
</g>
</g>
</svg>
