<?xml version="1.0" encoding="UTF-8" standalone="no"?>
<!DOCTYPE svg PUBLIC "-//W3C//DTD SVG 1.1//EN"
 "http://www.w3.org/Graphics/SVG/1.1/DTD/svg11.dtd">
<!-- Generated by graphviz version 2.40.1 (0)
 -->
<!-- Title: CalcLib.CalcException Pages: 1 -->
<svg width="117pt" height="157pt"
 viewBox="0.00 0.00 117.00 157.00" xmlns="http://www.w3.org/2000/svg" xmlns:xlink="http://www.w3.org/1999/xlink">
<g id="graph0" class="graph" transform="scale(1 1) rotate(0) translate(4 153)">
<title>CalcLib.CalcException</title>
<!-- Node1 -->
<g id="Node000001" class="node">
<title>Node1</title>
<g id="a_Node000001"><a xlink:title="計算演算が失敗した際にスローされる例外。">
<polygon fill="#999999" stroke="transparent" points="109,-64 0,-64 0,0 109,0 109,-64"/>
<text text-anchor="start" x="5.5" y="-52" font-family="Helvetica,sans-Serif" font-size="10.00" fill="#000000">CalcLib.CalcException</text>
<text text-anchor="start" x="9.5" y="-37" font-family="Helvetica,sans-Serif" font-size="10.00" fill="#000000">+</text>
<text text-anchor="start" x="25.5" y="-37" font-family="Helvetica,sans-Serif" font-size="10.00" fill="#000000">ErrorCode</text>
<text text-anchor="start" x="9.5" y="-22" font-family="Helvetica,sans-Serif" font-size="10.00" fill="#000000">+</text>
<text text-anchor="start" x="25.5" y="-22" font-family="Helvetica,sans-Serif" font-size="10.00" fill="#000000">CalcException()</text>
<text text-anchor="start" x="9.5" y="-7" font-family="Helvetica,sans-Serif" font-size="10.00" fill="#000000">+</text>
<text text-anchor="start" x="25.5" y="-7" font-family="Helvetica,sans-Serif" font-size="10.00" fill="#000000">CalcException()</text>
<polygon fill="#666666" stroke="#666666" points=".5,-47 .5,-47 109.5,-47 109.5,-47 .5,-47"/>
<polygon fill="#666666" stroke="#666666" points=".5,-32 .5,-32 23.5,-32 23.5,-32 .5,-32"/>
<polygon fill="#666666" stroke="#666666" points="23.5,-32 23.5,-32 109.5,-32 109.5,-32 23.5,-32"/>
<polygon fill="none" stroke="#666666" points="0,0 0,-64 109,-64 109,0 0,0"/>
</a>
</g>
</g>
<!-- Node2 -->
<g id="Node000002" class="node">
<title>Node2</title>
<g id="a_Node000002"><a xlink:title=" ">
<polygon fill="#ffffff" stroke="transparent" points="81.5,-149 27.5,-149 27.5,-100 81.5,-100 81.5,-149"/>
<text text-anchor="start" x="32.5" y="-136.5" font-family="Helvetica,sans-Serif" font-size="10.00" fill="#000000">Exception</text>
<text text-anchor="start" x="52.5" y="-121.5" font-family="Helvetica,sans-Serif" font-size="10.00" fill="#000000"> </text>
<text text-anchor="start" x="52.5" y="-106.5" font-family="Helvetica,sans-Serif" font-size="10.00" fill="#000000"> </text>
<polygon fill="#666666" stroke="#666666" points="27.5,-131.5 27.5,-131.5 81.5,-131.5 81.5,-131.5 27.5,-131.5"/>
<polygon fill="#666666" stroke="#666666" points="27.5,-116.5 27.5,-116.5 81.5,-116.5 81.5,-116.5 27.5,-116.5"/>
<polygon fill="none" stroke="#666666" points="27.5,-100 27.5,-149 81.5,-149 81.5,-100 27.5,-100"/>
</a>
</g>
</g>
<!-- Node2&#45;&gt;Node1 -->
<g id="edge1_Node000001_Node000002" class="edge">
<title>Node2&#45;&gt;Node1</title>
<g id="a_edge1_Node000001_Node000002"><a xlink:title=" ">
<path fill="none" stroke="#63b8ff" d="M54.5,-89.5348C54.5,-81.2116 54.5,-72.3691 54.5,-64.1775"/>
<polygon fill="none" stroke="#63b8ff" points="51.0001,-89.7117 54.5,-99.7117 58.0001,-89.7117 51.0001,-89.7117"/>
</a>
</g>
</g>
</g>
</svg>
