<svg xmlns="http://www.w3.org/2000/svg" xmlns:xlink="http://www.w3.org/1999/xlink" contentStyleType="text/css" data-diagram-type="DESCRIPTION" height="72px" preserveAspectRatio="none" style="width:905px;height:72px;" version="1.1" viewBox="0 0 905 72" width="905px" zoomAndPan="magnify"><defs/><g><!--entity jobs--><g class="entity" data-entity="jobs" data-source-line="8" data-uid="ent0002" id="entity_jobs"><rect fill="#F1F1F1" height="41.5598" rx="2.5" ry="2.5" style="stroke:#181818;stroke-width:0.5;" width="222.9991" x="7" y="14"/><text fill="#000000" font-family="'Segoe UI', 'メイリオ', 'UDEV Gothic HSRFJPDOC', 'Hiragino Kaku Gothic ProN', 'ヒラギノ角ゴ ProN', 'Noto Sans JP', 'Helvetica Neue', Helvetica, Arial, sans-serif" font-size="14" lengthAdjust="spacing" textLength="55.9998" x="17" y="30.9999">&#21508;&#12472;&#12519;&#12502;</text><text fill="#000000" font-family="'Segoe UI', 'メイリオ', 'UDEV Gothic HSRFJPDOC', 'Hiragino Kaku Gothic ProN', 'ヒラギノ角ゴ ProN', 'Noto Sans JP', 'Helvetica Neue', Helvetica, Arial, sans-serif" font-size="14" lengthAdjust="spacing" textLength="202.9991" x="17" y="48.7799">(Linux OL8/OL10/Windows/docs)</text></g><!--entity storage--><g class="entity" data-entity="storage" data-source-line="9" data-uid="ent0003" id="entity_storage"><rect fill="#F1F1F1" height="55.5598" rx="35" ry="35" style="stroke:#181818;stroke-width:0.5;" width="201.9992" x="305.5" y="7"/><text fill="#000000" font-family="'Segoe UI', 'メイリオ', 'UDEV Gothic HSRFJPDOC', 'Hiragino Kaku Gothic ProN', 'ヒラギノ角ゴ ProN', 'Noto Sans JP', 'Helvetica Neue', Helvetica, Arial, sans-serif" font-size="14" lengthAdjust="spacing" textLength="181.9992" x="315.5" y="30.9999">&#12450;&#12540;&#12486;&#12451;&#12501;&#12449;&#12463;&#12488;&#12473;&#12488;&#12524;&#12540;&#12472;</text><text fill="#000000" font-family="'Segoe UI', 'メイリオ', 'UDEV Gothic HSRFJPDOC', 'Hiragino Kaku Gothic ProN', 'ヒラギノ角ゴ ProN', 'Noto Sans JP', 'Helvetica Neue', Helvetica, Arial, sans-serif" font-size="14" lengthAdjust="spacing" textLength="41.9998" x="315.5" y="48.7799">(&#20013;&#32153;)</text></g><!--entity deploy--><g class="entity" data-entity="deploy" data-source-line="10" data-uid="ent0004" id="entity_deploy"><rect fill="#F1F1F1" height="23.7799" rx="2.5" ry="2.5" style="stroke:#181818;stroke-width:0.5;" width="103.9996" x="596.5" y="23"/><text fill="#000000" font-family="'Segoe UI', 'メイリオ', 'UDEV Gothic HSRFJPDOC', 'Hiragino Kaku Gothic ProN', 'ヒラギノ角ゴ ProN', 'Noto Sans JP', 'Helvetica Neue', Helvetica, Arial, sans-serif" font-size="14" lengthAdjust="spacing" textLength="83.9996" x="606.5" y="39.9999">deploy-pages</text></g><!--entity pages--><g class="entity" data-entity="pages" data-source-line="11" data-uid="ent0005" id="entity_pages"><path d="M791.7232,19.6526 C794.4589,13.8527 800.339,12.6962 804.3166,18.2785 C807.4129,11.3762 813.3916,10.8027 817.1585,17.6523 C819.319,13.0945 824.3643,12.537 827.3625,16.6685 C830.6513,9.7172 837.4098,8.8656 841.5422,15.8076 C845.0349,9.3114 848.9879,10.4277 853.0239,15.2568 C857.861,10.9836 862.1225,11.2082 865.0913,17.4092 C868.7721,11.4188 874.6464,11.6787 878.0122,17.7467 C882.9403,13.353 886.4447,14.8116 889.0918,20.3034 C898.2711,24.1561 897.3202,30.4527 891.4237,36.4788 C897.7675,42.3271 896.0755,47.4936 889.1742,51.3365 C886.8445,58.1649 882.2341,60.4783 876.5292,54.7299 C873.7093,60.0162 869.7995,60.8882 865.7712,56.0088 C863.3021,62.8349 857.8519,65.1733 852.2676,59.3287 C849.5709,65.5223 845.8496,65.3829 841.3217,61.2742 C837.031,65.4348 831.2363,64.2113 829.4415,58.3233 C824.3751,64.411 819.8735,64.1961 816.5094,56.7023 C810.5849,60.6953 806.2103,61.0002 803.5096,53.1605 C799.3224,57.9627 795.451,57.8605 792.5474,51.8581 C783.8199,50.358 779.293,43.0877 785.4181,35.2225 C779.3264,26.8629 781.1868,21.2786 791.7232,19.6526" fill="#F1F1F1" style="stroke:#181818;stroke-width:0.5;"/><text fill="#000000" font-family="'Segoe UI', 'メイリオ', 'UDEV Gothic HSRFJPDOC', 'Hiragino Kaku Gothic ProN', 'ヒラギノ角ゴ ProN', 'Noto Sans JP', 'Helvetica Neue', Helvetica, Arial, sans-serif" font-size="14" lengthAdjust="spacing" textLength="83.9996" x="797.5" y="39.9999">GitHub Pages</text></g><!--link jobs to storage--><g class="link" data-entity-1="jobs" data-entity-2="storage" data-source-line="12" data-uid="lnk6" id="link_jobs_storage"><path d="M230.2605,35 C254.9264,35 274.9227,35 299.1487,35" fill="none" id="jobs-to-storage" style="stroke:#181818;stroke-width:1;"/><polygon fill="#181818" points="305.1487,35,296.1487,31,300.1487,35,296.1487,39,305.1487,35" style="stroke:#181818;stroke-width:1;"/><text fill="#000000" font-family="'Segoe UI', 'メイリオ', 'UDEV Gothic HSRFJPDOC', 'Hiragino Kaku Gothic ProN', 'ヒラギノ角ゴ ProN', 'Noto Sans JP', 'Helvetica Neue', Helvetica, Arial, sans-serif" font-size="13" lengthAdjust="spacing" textLength="39" x="248.25" y="28">upload</text></g><!--link storage to deploy--><g class="link" data-entity-1="storage" data-entity-2="deploy" data-source-line="13" data-uid="lnk7" id="link_storage_deploy"><path d="M507.7276,35 C538.1648,35 564.3177,35 590.1992,35" fill="none" id="storage-to-deploy" style="stroke:#181818;stroke-width:1;"/><polygon fill="#181818" points="596.1992,35,587.1992,31,591.1992,35,587.1992,39,596.1992,35" style="stroke:#181818;stroke-width:1;"/><text fill="#000000" font-family="'Segoe UI', 'メイリオ', 'UDEV Gothic HSRFJPDOC', 'Hiragino Kaku Gothic ProN', 'ヒラギノ角ゴ ProN', 'Noto Sans JP', 'Helvetica Neue', Helvetica, Arial, sans-serif" font-size="13" lengthAdjust="spacing" textLength="52" x="526" y="28">download</text></g><!--link deploy to pages--><g class="link" data-entity-1="deploy" data-entity-2="pages" data-source-line="14" data-uid="lnk8" id="link_deploy_pages"><path d="M700.6916,35 C725.9852,35 750.421,35 776.3393,35" fill="none" id="deploy-to-pages" style="stroke:#181818;stroke-width:1;"/><polygon fill="#181818" points="782.3393,35,773.3393,31,777.3393,35,773.3393,39,782.3393,35" style="stroke:#181818;stroke-width:1;"/><text fill="#000000" font-family="'Segoe UI', 'メイリオ', 'UDEV Gothic HSRFJPDOC', 'Hiragino Kaku Gothic ProN', 'ヒラギノ角ゴ ProN', 'Noto Sans JP', 'Helvetica Neue', Helvetica, Arial, sans-serif" font-size="13" lengthAdjust="spacing" textLength="45.5" x="719" y="28">publish</text></g><!--SRC=[JOynImCn7CNt-nH_RzAXd6uYfI2brE6m8eABIov9xsBJv4WkQDT4nD55mL4TN1GtES5l4yMlONezZouXlDzxBozzNIqu7KJzfBte6HCbKcWE6SApN4aZo51ogQ1IIEY0gAYY3KAdJ50u7WrFzW_7wGWmHrglfUTII5meEQSXQEWQqGKYyeA97AQ8QnfXf0Z4FxTNtjRUlNXtVoOsKoRC9KpItMIIxcmdfqo4Z4w8n7eh1gJXN6RXkKegb5E8lNtoxikxQs-VlRlpzj7RT-zklFrSdkvrIMqTYh_hjz-FXrL76syN45fokUYLGT4DNWaHvj84F6RLWSdWgCEDCLhkW9vYUL7r1l-Di0ScP17f5dQELMamXF-8nj8gdQFf3ORIP9pfuWy0]--></g></svg>