<svg xmlns="http://www.w3.org/2000/svg" xmlns:xlink="http://www.w3.org/1999/xlink" contentStyleType="text/css" data-diagram-type="DESCRIPTION" height="246px" preserveAspectRatio="none" style="width:704px;height:246px;" version="1.1" viewBox="0 0 704 246" width="704px" zoomAndPan="magnify"><defs/><g><!--entity n2--><g class="entity" data-entity="n2" data-source-line="5" data-uid="ent0002" id="entity_n2"><rect fill="#F1F1F1" height="37.7799" rx="2.5" ry="2.5" style="stroke:#181818;stroke-width:0.5;" width="96.9997" x="445" y="105"/><text fill="#000000" font-family="'Segoe UI', 'メイリオ', 'UDEV Gothic HSRFJPDOC', 'Hiragino Kaku Gothic ProN', 'ヒラギノ角ゴ ProN', 'Noto Sans JP', 'Helvetica Neue', Helvetica, Arial, sans-serif" font-size="14" lengthAdjust="spacing" textLength="76.9997" x="455" y="128.9999">file-util.h</text></g><!--entity n1--><g class="entity" data-entity="n1" data-source-line="6" data-uid="ent0003" id="entity_n1"><rect fill="#ADD8E6" height="37.7799" rx="2.5" ry="2.5" style="stroke:#181818;stroke-width:0.5;" width="101.8122" x="264.5" y="203"/><text fill="#000000" font-family="'Segoe UI', 'メイリオ', 'UDEV Gothic HSRFJPDOC', 'Hiragino Kaku Gothic ProN', 'ヒラギノ角ゴ ProN', 'Noto Sans JP', 'Helvetica Neue', Helvetica, Arial, sans-serif" font-size="14" font-weight="bold" lengthAdjust="spacing" textLength="81.8122" x="274.5" y="226.9999">file-util.c</text></g><!--entity n10--><g class="entity" data-entity="n10" data-source-line="7" data-uid="ent0004" id="entity_n10"><rect fill="#F1F1F1" height="37.7799" rx="2.5" ry="2.5" style="stroke:#181818;stroke-width:0.5;" width="68.9998" x="7" y="105"/><text fill="#000000" font-family="'Segoe UI', 'メイリオ', 'UDEV Gothic HSRFJPDOC', 'Hiragino Kaku Gothic ProN', 'ヒラギノ角ゴ ProN', 'Noto Sans JP', 'Helvetica Neue', Helvetica, Arial, sans-serif" font-size="14" lengthAdjust="spacing" textLength="48.9998" x="17" y="128.9999">errno.h</text></g><!--entity n11--><g class="entity" data-entity="n11" data-source-line="8" data-uid="ent0005" id="entity_n11"><rect fill="#F1F1F1" height="37.7799" rx="2.5" ry="2.5" style="stroke:#181818;stroke-width:0.5;" width="75.9998" x="111.5" y="105"/><text fill="#000000" font-family="'Segoe UI', 'メイリオ', 'UDEV Gothic HSRFJPDOC', 'Hiragino Kaku Gothic ProN', 'ヒラギノ角ゴ ProN', 'Noto Sans JP', 'Helvetica Neue', Helvetica, Arial, sans-serif" font-size="14" lengthAdjust="spacing" textLength="55.9998" x="121.5" y="128.9999">limits.h</text></g><!--entity n3--><g class="entity" data-entity="n3" data-source-line="9" data-uid="ent0006" id="entity_n3"><rect fill="#F1F1F1" height="37.7799" rx="2.5" ry="2.5" style="stroke:#181818;stroke-width:0.5;" width="75.9998" x="212.5" y="7"/><text fill="#000000" font-family="'Segoe UI', 'メイリオ', 'UDEV Gothic HSRFJPDOC', 'Hiragino Kaku Gothic ProN', 'ヒラギノ角ゴ ProN', 'Noto Sans JP', 'Helvetica Neue', Helvetica, Arial, sans-serif" font-size="14" lengthAdjust="spacing" textLength="55.9998" x="222.5" y="30.9999">stdarg.h</text></g><!--entity n4--><g class="entity" data-entity="n4" data-source-line="10" data-uid="ent0007" id="entity_n4"><rect fill="#F1F1F1" height="37.7799" rx="2.5" ry="2.5" style="stroke:#181818;stroke-width:0.5;" width="75.9998" x="323.5" y="7"/><text fill="#000000" font-family="'Segoe UI', 'メイリオ', 'UDEV Gothic HSRFJPDOC', 'Hiragino Kaku Gothic ProN', 'ヒラギノ角ゴ ProN', 'Noto Sans JP', 'Helvetica Neue', Helvetica, Arial, sans-serif" font-size="14" lengthAdjust="spacing" textLength="55.9998" x="333.5" y="30.9999">stdint.h</text></g><!--entity n5--><g class="entity" data-entity="n5" data-source-line="11" data-uid="ent0008" id="entity_n5"><rect fill="#F1F1F1" height="37.7799" rx="2.5" ry="2.5" style="stroke:#181818;stroke-width:0.5;" width="68.9998" x="435" y="7"/><text fill="#000000" font-family="'Segoe UI', 'メイリオ', 'UDEV Gothic HSRFJPDOC', 'Hiragino Kaku Gothic ProN', 'ヒラギノ角ゴ ProN', 'Noto Sans JP', 'Helvetica Neue', Helvetica, Arial, sans-serif" font-size="14" lengthAdjust="spacing" textLength="48.9998" x="445" y="30.9999">stdio.h</text></g><!--entity n8--><g class="entity" data-entity="n8" data-source-line="12" data-uid="ent0009" id="entity_n8"><rect fill="#F1F1F1" height="37.7799" rx="2.5" ry="2.5" style="stroke:#181818;stroke-width:0.5;" width="75.9998" x="222.5" y="105"/><text fill="#000000" font-family="'Segoe UI', 'メイリオ', 'UDEV Gothic HSRFJPDOC', 'Hiragino Kaku Gothic ProN', 'ヒラギノ角ゴ ProN', 'Noto Sans JP', 'Helvetica Neue', Helvetica, Arial, sans-serif" font-size="14" lengthAdjust="spacing" textLength="55.9998" x="232.5" y="128.9999">stdlib.h</text></g><!--entity n9--><g class="entity" data-entity="n9" data-source-line="13" data-uid="ent0010" id="entity_n9"><rect fill="#F1F1F1" height="37.7799" rx="2.5" ry="2.5" style="stroke:#181818;stroke-width:0.5;" width="75.9998" x="333.5" y="105"/><text fill="#000000" font-family="'Segoe UI', 'メイリオ', 'UDEV Gothic HSRFJPDOC', 'Hiragino Kaku Gothic ProN', 'ヒラギノ角ゴ ProN', 'Noto Sans JP', 'Helvetica Neue', Helvetica, Arial, sans-serif" font-size="14" lengthAdjust="spacing" textLength="55.9998" x="343.5" y="128.9999">string.h</text></g><!--entity n6--><g class="entity" data-entity="n6" data-source-line="14" data-uid="ent0011" id="entity_n6"><rect fill="#F1F1F1" height="37.7799" rx="2.5" ry="2.5" style="stroke:#181818;stroke-width:0.5;" width="61.9998" x="636.5" y="7"/><text fill="#000000" font-family="'Segoe UI', 'メイリオ', 'UDEV Gothic HSRFJPDOC', 'Hiragino Kaku Gothic ProN', 'ヒラギノ角ゴ ProN', 'Noto Sans JP', 'Helvetica Neue', Helvetica, Arial, sans-serif" font-size="14" lengthAdjust="spacing" textLength="41.9998" x="646.5" y="30.9999">stat.h</text></g><!--entity n7--><g class="entity" data-entity="n7" data-source-line="15" data-uid="ent0012" id="entity_n7"><rect fill="#F1F1F1" height="37.7799" rx="2.5" ry="2.5" style="stroke:#181818;stroke-width:0.5;" width="61.9998" x="539.5" y="7"/><text fill="#000000" font-family="'Segoe UI', 'メイリオ', 'UDEV Gothic HSRFJPDOC', 'Hiragino Kaku Gothic ProN', 'ヒラギノ角ゴ ProN', 'Noto Sans JP', 'Helvetica Neue', Helvetica, Arial, sans-serif" font-size="14" lengthAdjust="spacing" textLength="41.9998" x="549.5" y="30.9999">time.h</text></g><!--link n3 to n2--><g class="link" data-entity-1="n3" data-entity-2="n2" data-source-line="16" data-uid="lnk13" id="link_n3_n2"><path d="M288.7361,41.4203 C331.3725,58.6153 394.8022,84.196 440.759,102.73" fill="none" id="n3-to-n2" style="stroke:#181818;stroke-width:1;"/><polygon fill="#181818" points="446.3235,104.9741,439.4728,97.8982,441.6864,103.104,436.4806,105.3176,446.3235,104.9741" style="stroke:#181818;stroke-width:1;"/></g><!--link n4 to n2--><g class="link" data-entity-1="n4" data-entity-2="n2" data-source-line="17" data-uid="lnk14" id="link_n4_n2"><path d="M387.2643,45.128 C410.523,62.3959 439.7446,84.0907 462.9832,101.3436" fill="none" id="n4-to-n2" style="stroke:#181818;stroke-width:1;"/><polygon fill="#181818" points="467.8007,104.9202,462.9589,96.3437,463.7861,101.9397,458.1901,102.7669,467.8007,104.9202" style="stroke:#181818;stroke-width:1;"/></g><!--link n5 to n2--><g class="link" data-entity-1="n5" data-entity-2="n2" data-source-line="18" data-uid="lnk15" id="link_n5_n2"><path d="M474.2416,45.3616 C478.4492,62.5424 483.1365,81.6822 487.341,98.8508" fill="none" id="n5-to-n2" style="stroke:#181818;stroke-width:1;"/><polygon fill="#181818" points="488.7682,104.6786,490.5126,94.9855,487.5789,99.8221,482.7422,96.8884,488.7682,104.6786" style="stroke:#181818;stroke-width:1;"/></g><!--link n6 to n2--><g class="link" data-entity-1="n6" data-entity-2="n2" data-source-line="19" data-uid="lnk16" id="link_n6_n2"><path d="M636.3923,43.5204 C605.6984,60.8078 564.1365,84.2162 532.5379,102.0131" fill="none" id="n6-to-n2" style="stroke:#181818;stroke-width:1;"/><polygon fill="#181818" points="527.3101,104.9575,537.1148,104.0261,531.6666,102.5038,533.1889,97.0556,527.3101,104.9575" style="stroke:#181818;stroke-width:1;"/></g><!--link n7 to n2--><g class="link" data-entity-1="n7" data-entity-2="n2" data-source-line="20" data-uid="lnk17" id="link_n7_n2"><path d="M555.2873,45.3616 C541.7881,62.5424 525.8776,82.7921 512.388,99.9607" fill="none" id="n7-to-n2" style="stroke:#181818;stroke-width:1;"/><polygon fill="#181818" points="508.6811,104.6786,517.3868,100.073,511.7702,100.747,511.0962,95.1304,508.6811,104.6786" style="stroke:#181818;stroke-width:1;"/></g><!--link n2 to n1--><g class="link" data-entity-1="n2" data-entity-2="n1" data-source-line="21" data-uid="lnk18" id="link_n2_n1"><path d="M458.7573,143.128 C427.3932,160.3959 386.748,182.7735 355.4111,200.0264" fill="none" id="n2-to-n1" style="stroke:#181818;stroke-width:1;"/><polygon fill="#181818" points="350.1551,202.9202,359.9684,202.0836,354.5351,200.5087,356.11,195.0755,350.1551,202.9202" style="stroke:#181818;stroke-width:1;"/></g><!--link n8 to n1--><g class="link" data-entity-1="n8" data-entity-2="n1" data-source-line="22" data-uid="lnk19" id="link_n8_n1"><path d="M271.3662,143.3616 C281.0085,160.5424 292.0844,180.2777 301.7198,197.4463" fill="none" id="n8-to-n1" style="stroke:#181818;stroke-width:1;"/><polygon fill="#181818" points="304.6563,202.6786,303.7398,192.8725,302.2092,198.3183,296.7634,196.7878,304.6563,202.6786" style="stroke:#181818;stroke-width:1;"/></g><!--link n9 to n1--><g class="link" data-entity-1="n9" data-entity-2="n1" data-source-line="23" data-uid="lnk20" id="link_n9_n1"><path d="M360.4362,143.3616 C350.6186,160.5424 339.3282,180.3005 329.5176,197.4691" fill="none" id="n9-to-n1" style="stroke:#181818;stroke-width:1;"/><polygon fill="#181818" points="326.5408,202.6786,334.479,196.849,329.0215,198.3374,327.5331,192.8799,326.5408,202.6786" style="stroke:#181818;stroke-width:1;"/></g><!--link n10 to n1--><g class="link" data-entity-1="n10" data-entity-2="n1" data-source-line="24" data-uid="lnk21" id="link_n10_n1"><path d="M76.1693,136.7137 C81.9537,138.8217 87.8942,140.9785 93.5,143 C151.9949,164.094 213.6346,185.9878 258.6585,201.9215" fill="none" id="n10-to-n1" style="stroke:#181818;stroke-width:1;"/><polygon fill="#181818" points="264.3147,203.9232,257.1648,197.1498,259.6012,202.2551,254.4959,204.6915,264.3147,203.9232" style="stroke:#181818;stroke-width:1;"/></g><!--link n11 to n1--><g class="link" data-entity-1="n11" data-entity-2="n1" data-source-line="25" data-uid="lnk22" id="link_n11_n1"><path d="M181.9005,143.128 C211.1501,160.3959 248.7901,182.617 278.0144,199.8699" fill="none" id="n11-to-n1" style="stroke:#181818;stroke-width:1;"/><polygon fill="#181818" points="283.1812,202.9202,277.4645,194.9003,278.8755,200.3783,273.3975,201.7893,283.1812,202.9202" style="stroke:#181818;stroke-width:1;"/></g><!--link n6 to n1--><g class="link" data-entity-1="n6" data-entity-2="n1" data-source-line="26" data-uid="lnk23" id="link_n6_n1"><path d="M654.7673,45.0147 C636.5648,70.7922 600.7131,116.6274 559.5,143 C499.3051,181.5192 424.5599,201.5979 372.7829,212.1085" fill="none" id="n6-to-n1" style="stroke:#181818;stroke-width:1;"/><polygon fill="#181818" points="366.9028,213.3021,376.5187,215.4317,371.8029,212.3074,374.9271,207.5916,366.9028,213.3021" style="stroke:#181818;stroke-width:1;"/></g><!--SRC=[NT3D3e8m3C3nEq-nw8q4PNwR40zwzIK6JcmSnNJbuDkhWPN9xP_ycZPfuVdjx2afbaFu9-3Ba6bKQQfdJMs7jqlhMb9C1lsNB792jcA3jRDgTWTdiux1BHupPRp2LQnfEdgLfls4LlChr0y-kyx6mvO8sx16vp4vQ82zc8xDyyrG7Mmz8K0Ej9cI7DjEn44PwF1F12YdZlzavD0k1eR61jWdk5PPTlfz2JTIMwcTr5vgrPTEy21rbDBvc5fosAC_]--></g></svg>