<svg xmlns="http://www.w3.org/2000/svg" xmlns:xlink="http://www.w3.org/1999/xlink" contentStyleType="text/css" data-diagram-type="DESCRIPTION" height="540px" preserveAspectRatio="none" style="width:1646px;height:540px;" version="1.1" viewBox="0 0 1646 540" width="1646px" zoomAndPan="magnify"><defs/><g><!--entity n10--><g class="entity" data-entity="n10" data-source-line="5" data-uid="ent0002" id="entity_n10"><rect fill="#F1F1F1" height="37.7799" rx="2.5" ry="2.5" style="stroke:#181818;stroke-width:0.5;" width="117.9996" x="262" y="7"/><text fill="#000000" font-family="'Segoe UI', 'メイリオ', 'UDEV Gothic HSRFJPDOC', 'Hiragino Kaku Gothic ProN', 'ヒラギノ角ゴ ProN', 'Noto Sans JP', 'Helvetica Neue', Helvetica, Arial, sans-serif" font-size="14" lengthAdjust="spacing" textLength="97.9996" x="272" y="30.9999">porter_const.h</text></g><!--entity n14--><g class="entity" data-entity="n14" data-source-line="6" data-uid="ent0003" id="entity_n14"><rect fill="#F1F1F1" height="37.7799" rx="2.5" ry="2.5" style="stroke:#181818;stroke-width:0.5;" width="110.9996" x="651.5" y="105"/><text fill="#000000" font-family="'Segoe UI', 'メイリオ', 'UDEV Gothic HSRFJPDOC', 'Hiragino Kaku Gothic ProN', 'ヒラギノ角ゴ ProN', 'Noto Sans JP', 'Helvetica Neue', Helvetica, Arial, sans-serif" font-size="14" lengthAdjust="spacing" textLength="90.9996" x="661.5" y="128.9999">porter_type.h</text></g><!--entity n18--><g class="entity" data-entity="n18" data-source-line="7" data-uid="ent0004" id="entity_n18"><rect fill="#F1F1F1" height="37.7799" rx="2.5" ry="2.5" style="stroke:#181818;stroke-width:0.5;" width="89.9997" x="83" y="105"/><text fill="#000000" font-family="'Segoe UI', 'メイリオ', 'UDEV Gothic HSRFJPDOC', 'Hiragino Kaku Gothic ProN', 'ヒラギノ角ゴ ProN', 'Noto Sans JP', 'Helvetica Neue', Helvetica, Arial, sans-serif" font-size="14" lengthAdjust="spacing" textLength="69.9997" x="93" y="128.9999">compress.h</text></g><!--entity n19--><g class="entity" data-entity="n19" data-source-line="8" data-uid="ent0005" id="entity_n19"><rect fill="#F1F1F1" height="37.7799" rx="2.5" ry="2.5" style="stroke:#181818;stroke-width:0.5;" width="75.9998" x="208" y="105"/><text fill="#000000" font-family="'Segoe UI', 'メイリオ', 'UDEV Gothic HSRFJPDOC', 'Hiragino Kaku Gothic ProN', 'ヒラギノ角ゴ ProN', 'Noto Sans JP', 'Helvetica Neue', Helvetica, Arial, sans-serif" font-size="14" lengthAdjust="spacing" textLength="55.9998" x="218" y="128.9999">crypto.h</text></g><!--entity n23--><g class="entity" data-entity="n23" data-source-line="9" data-uid="ent0006" id="entity_n23"><rect fill="#F1F1F1" height="37.7799" rx="2.5" ry="2.5" style="stroke:#181818;stroke-width:0.5;" width="82.9997" x="799.5" y="301"/><text fill="#000000" font-family="'Segoe UI', 'メイリオ', 'UDEV Gothic HSRFJPDOC', 'Hiragino Kaku Gothic ProN', 'ヒラギノ角ゴ ProN', 'Noto Sans JP', 'Helvetica Neue', Helvetica, Arial, sans-serif" font-size="14" lengthAdjust="spacing" textLength="62.9997" x="809.5" y="324.9999">potrLog.h</text></g><!--entity n20--><g class="entity" data-entity="n20" data-source-line="10" data-uid="ent0007" id="entity_n20"><rect fill="#F1F1F1" height="37.7799" rx="2.5" ry="2.5" style="stroke:#181818;stroke-width:0.5;" width="124.9995" x="414.5" y="203"/><text fill="#000000" font-family="'Segoe UI', 'メイリオ', 'UDEV Gothic HSRFJPDOC', 'Hiragino Kaku Gothic ProN', 'ヒラギノ角ゴ ProN', 'Noto Sans JP', 'Helvetica Neue', Helvetica, Arial, sans-serif" font-size="14" lengthAdjust="spacing" textLength="104.9995" x="424.5" y="226.9999">potrSendQueue.h</text></g><!--entity n17--><g class="entity" data-entity="n17" data-source-line="11" data-uid="ent0008" id="entity_n17"><rect fill="#F1F1F1" height="37.7799" rx="2.5" ry="2.5" style="stroke:#181818;stroke-width:0.5;" width="110.9996" x="421.5" y="301"/><text fill="#000000" font-family="'Segoe UI', 'メイリオ', 'UDEV Gothic HSRFJPDOC', 'Hiragino Kaku Gothic ProN', 'ヒラギノ角ゴ ProN', 'Noto Sans JP', 'Helvetica Neue', Helvetica, Arial, sans-serif" font-size="14" lengthAdjust="spacing" textLength="90.9996" x="431.5" y="324.9999">potrContext.h</text></g><!--entity n11--><g class="entity" data-entity="n11" data-source-line="12" data-uid="ent0009" id="entity_n11"><rect fill="#F1F1F1" height="37.7799" rx="2.5" ry="2.5" style="stroke:#181818;stroke-width:0.5;" width="75.9998" x="911" y="203"/><text fill="#000000" font-family="'Segoe UI', 'メイリオ', 'UDEV Gothic HSRFJPDOC', 'Hiragino Kaku Gothic ProN', 'ヒラギノ角ゴ ProN', 'Noto Sans JP', 'Helvetica Neue', Helvetica, Arial, sans-serif" font-size="14" lengthAdjust="spacing" textLength="55.9998" x="921" y="226.9999">packet.h</text></g><!--entity n15--><g class="entity" data-entity="n15" data-source-line="13" data-uid="ent0010" id="entity_n15"><rect fill="#F1F1F1" height="37.7799" rx="2.5" ry="2.5" style="stroke:#181818;stroke-width:0.5;" width="75.9998" x="1039" y="301"/><text fill="#000000" font-family="'Segoe UI', 'メイリオ', 'UDEV Gothic HSRFJPDOC', 'Hiragino Kaku Gothic ProN', 'ヒラギノ角ゴ ProN', 'Noto Sans JP', 'Helvetica Neue', Helvetica, Arial, sans-serif" font-size="14" lengthAdjust="spacing" textLength="55.9998" x="1049" y="324.9999">seqnum.h</text></g><!--entity n16--><g class="entity" data-entity="n16" data-source-line="14" data-uid="ent0011" id="entity_n16"><rect fill="#F1F1F1" height="37.7799" rx="2.5" ry="2.5" style="stroke:#181818;stroke-width:0.5;" width="75.9998" x="646" y="203"/><text fill="#000000" font-family="'Segoe UI', 'メイリオ', 'UDEV Gothic HSRFJPDOC', 'Hiragino Kaku Gothic ProN', 'ヒラギノ角ゴ ProN', 'Noto Sans JP', 'Helvetica Neue', Helvetica, Arial, sans-serif" font-size="14" lengthAdjust="spacing" textLength="55.9998" x="656" y="226.9999">window.h</text></g><!--entity n1--><g class="entity" data-entity="n1" data-source-line="15" data-uid="ent0012" id="entity_n1"><rect fill="#ADD8E6" height="37.7799" rx="2.5" ry="2.5" style="stroke:#181818;stroke-width:0.5;" width="138.9995" x="739.5" y="497"/><text fill="#000000" font-family="'Segoe UI', 'メイリオ', 'UDEV Gothic HSRFJPDOC', 'Hiragino Kaku Gothic ProN', 'ヒラギノ角ゴ ProN', 'Noto Sans JP', 'Helvetica Neue', Helvetica, Arial, sans-serif" font-size="14" font-weight="bold" lengthAdjust="spacing" textLength="118.9995" x="749.5" y="520.9999">potrRecvThread.c</text></g><!--entity n22--><g class="entity" data-entity="n22" data-source-line="16" data-uid="ent0013" id="entity_n22"><rect fill="#F1F1F1" height="37.7799" rx="2.5" ry="2.5" style="stroke:#181818;stroke-width:0.5;" width="131.9995" x="340" y="399"/><text fill="#000000" font-family="'Segoe UI', 'メイリオ', 'UDEV Gothic HSRFJPDOC', 'Hiragino Kaku Gothic ProN', 'ヒラギノ角ゴ ProN', 'Noto Sans JP', 'Helvetica Neue', Helvetica, Arial, sans-serif" font-size="14" lengthAdjust="spacing" textLength="111.9995" x="350" y="422.9999">potrRecvThread.h</text></g><!--entity n6--><g class="entity" data-entity="n6" data-source-line="17" data-uid="ent0014" id="entity_n6"><rect fill="#F1F1F1" height="37.7799" rx="2.5" ry="2.5" style="stroke:#181818;stroke-width:0.5;" width="61.9998" x="862" y="399"/><text fill="#000000" font-family="'Segoe UI', 'メイリオ', 'UDEV Gothic HSRFJPDOC', 'Hiragino Kaku Gothic ProN', 'ヒラギノ角ゴ ProN', 'Noto Sans JP', 'Helvetica Neue', Helvetica, Arial, sans-serif" font-size="14" lengthAdjust="spacing" textLength="41.9998" x="872" y="422.9999">inet.h</text></g><!--entity n9--><g class="entity" data-entity="n9" data-source-line="18" data-uid="ent0015" id="entity_n9"><rect fill="#F1F1F1" height="37.7799" rx="2.5" ry="2.5" style="stroke:#181818;stroke-width:0.5;" width="68.9998" x="959.5" y="399"/><text fill="#000000" font-family="'Segoe UI', 'メイリオ', 'UDEV Gothic HSRFJPDOC', 'Hiragino Kaku Gothic ProN', 'ヒラギノ角ゴ ProN', 'Noto Sans JP', 'Helvetica Neue', Helvetica, Arial, sans-serif" font-size="14" lengthAdjust="spacing" textLength="48.9998" x="969.5" y="422.9999">errno.h</text></g><!--entity n5--><g class="entity" data-entity="n5" data-source-line="19" data-uid="ent0016" id="entity_n5"><rect fill="#F1F1F1" height="37.7799" rx="2.5" ry="2.5" style="stroke:#181818;stroke-width:0.5;" width="47.9999" x="757" y="203"/><text fill="#000000" font-family="'Segoe UI', 'メイリオ', 'UDEV Gothic HSRFJPDOC', 'Hiragino Kaku Gothic ProN', 'ヒラギノ角ゴ ProN', 'Noto Sans JP', 'Helvetica Neue', Helvetica, Arial, sans-serif" font-size="14" lengthAdjust="spacing" textLength="27.9999" x="767" y="226.9999">in.h</text></g><!--entity n21--><g class="entity" data-entity="n21" data-source-line="20" data-uid="ent0017" id="entity_n21"><rect fill="#F1F1F1" height="37.7799" rx="2.5" ry="2.5" style="stroke:#181818;stroke-width:0.5;" width="82.9997" x="319.5" y="105"/><text fill="#000000" font-family="'Segoe UI', 'メイリオ', 'UDEV Gothic HSRFJPDOC', 'Hiragino Kaku Gothic ProN', 'ヒラギノ角ゴ ProN', 'Noto Sans JP', 'Helvetica Neue', Helvetica, Arial, sans-serif" font-size="14" lengthAdjust="spacing" textLength="62.9997" x="329.5" y="128.9999">pthread.h</text></g><!--entity n12--><g class="entity" data-entity="n12" data-source-line="21" data-uid="ent0018" id="entity_n12"><rect fill="#F1F1F1" height="37.7799" rx="2.5" ry="2.5" style="stroke:#181818;stroke-width:0.5;" width="75.9998" x="489" y="7"/><text fill="#000000" font-family="'Segoe UI', 'メイリオ', 'UDEV Gothic HSRFJPDOC', 'Hiragino Kaku Gothic ProN', 'ヒラギノ角ゴ ProN', 'Noto Sans JP', 'Helvetica Neue', Helvetica, Arial, sans-serif" font-size="14" lengthAdjust="spacing" textLength="55.9998" x="499" y="30.9999">stddef.h</text></g><!--entity n13--><g class="entity" data-entity="n13" data-source-line="22" data-uid="ent0019" id="entity_n13"><rect fill="#F1F1F1" height="37.7799" rx="2.5" ry="2.5" style="stroke:#181818;stroke-width:0.5;" width="75.9998" x="723" y="7"/><text fill="#000000" font-family="'Segoe UI', 'メイリオ', 'UDEV Gothic HSRFJPDOC', 'Hiragino Kaku Gothic ProN', 'ヒラギノ角ゴ ProN', 'Noto Sans JP', 'Helvetica Neue', Helvetica, Arial, sans-serif" font-size="14" lengthAdjust="spacing" textLength="55.9998" x="733" y="30.9999">stdint.h</text></g><!--entity n2--><g class="entity" data-entity="n2" data-source-line="23" data-uid="ent0020" id="entity_n2"><rect fill="#F1F1F1" height="37.7799" rx="2.5" ry="2.5" style="stroke:#181818;stroke-width:0.5;" width="75.9998" x="1135" y="399"/><text fill="#000000" font-family="'Segoe UI', 'メイリオ', 'UDEV Gothic HSRFJPDOC', 'Hiragino Kaku Gothic ProN', 'ヒラギノ角ゴ ProN', 'Noto Sans JP', 'Helvetica Neue', Helvetica, Arial, sans-serif" font-size="14" lengthAdjust="spacing" textLength="55.9998" x="1145" y="422.9999">string.h</text></g><!--entity n4--><g class="entity" data-entity="n4" data-source-line="24" data-uid="ent0021" id="entity_n4"><rect fill="#F1F1F1" height="37.7799" rx="2.5" ry="2.5" style="stroke:#181818;stroke-width:0.5;" width="75.9998" x="1246" y="399"/><text fill="#000000" font-family="'Segoe UI', 'メイリオ', 'UDEV Gothic HSRFJPDOC', 'Hiragino Kaku Gothic ProN', 'ヒラギノ角ゴ ProN', 'Noto Sans JP', 'Helvetica Neue', Helvetica, Arial, sans-serif" font-size="14" lengthAdjust="spacing" textLength="55.9998" x="1256" y="422.9999">select.h</text></g><!--entity n3--><g class="entity" data-entity="n3" data-source-line="25" data-uid="ent0022" id="entity_n3"><rect fill="#F1F1F1" height="37.7799" rx="2.5" ry="2.5" style="stroke:#181818;stroke-width:0.5;" width="75.9998" x="1357" y="399"/><text fill="#000000" font-family="'Segoe UI', 'メイリオ', 'UDEV Gothic HSRFJPDOC', 'Hiragino Kaku Gothic ProN', 'ヒラギノ角ゴ ProN', 'Noto Sans JP', 'Helvetica Neue', Helvetica, Arial, sans-serif" font-size="14" lengthAdjust="spacing" textLength="55.9998" x="1367" y="422.9999">socket.h</text></g><!--entity n8--><g class="entity" data-entity="n8" data-source-line="26" data-uid="ent0023" id="entity_n8"><rect fill="#F1F1F1" height="37.7799" rx="2.5" ry="2.5" style="stroke:#181818;stroke-width:0.5;" width="61.9998" x="1468" y="399"/><text fill="#000000" font-family="'Segoe UI', 'メイリオ', 'UDEV Gothic HSRFJPDOC', 'Hiragino Kaku Gothic ProN', 'ヒラギノ角ゴ ProN', 'Noto Sans JP', 'Helvetica Neue', Helvetica, Arial, sans-serif" font-size="14" lengthAdjust="spacing" textLength="41.9998" x="1478" y="422.9999">time.h</text></g><!--entity n7--><g class="entity" data-entity="n7" data-source-line="27" data-uid="ent0024" id="entity_n7"><rect fill="#F1F1F1" height="37.7799" rx="2.5" ry="2.5" style="stroke:#181818;stroke-width:0.5;" width="75.9998" x="1565" y="399"/><text fill="#000000" font-family="'Segoe UI', 'メイリオ', 'UDEV Gothic HSRFJPDOC', 'Hiragino Kaku Gothic ProN', 'ヒラギノ角ゴ ProN', 'Noto Sans JP', 'Helvetica Neue', Helvetica, Arial, sans-serif" font-size="14" lengthAdjust="spacing" textLength="55.9998" x="1575" y="422.9999">unistd.h</text></g><!--link n12 to n14--><g class="link" data-entity-1="n12" data-entity-2="n14" data-source-line="28" data-uid="lnk25" id="link_n12_n14"><path d="M562.1331,45.128 C593.8496,62.3959 634.9969,84.7983 666.6859,102.0512" fill="none" id="n12-to-n14" style="stroke:#181818;stroke-width:1;"/><polygon fill="#181818" points="671.9555,104.9202,665.9638,97.1036,667.5642,102.5294,662.1384,104.1298,671.9555,104.9202" style="stroke:#181818;stroke-width:1;"/></g><!--link n13 to n14--><g class="link" data-entity-1="n13" data-entity-2="n14" data-source-line="29" data-uid="lnk26" id="link_n13_n14"><path d="M750.3313,45.3616 C740.8644,62.5424 730.0023,82.255 720.5421,99.4236" fill="none" id="n13-to-n14" style="stroke:#181818;stroke-width:1;"/><polygon fill="#181818" points="717.6465,104.6786,725.4933,98.7265,720.0595,100.2994,718.4866,94.8656,717.6465,104.6786" style="stroke:#181818;stroke-width:1;"/></g><!--link n10 to n14--><g class="link" data-entity-1="n10" data-entity-2="n14" data-source-line="30" data-uid="lnk27" id="link_n10_n14"><path d="M380.0453,40.9908 C453.8568,59.7305 573.4326,90.0891 645.5916,108.4092" fill="none" id="n10-to-n14" style="stroke:#181818;stroke-width:1;"/><polygon fill="#181818" points="651.4071,109.8857,643.6682,103.794,646.5609,108.6553,641.6995,111.548,651.4071,109.8857" style="stroke:#181818;stroke-width:1;"/></g><!--link n12 to n18--><g class="link" data-entity-1="n12" data-entity-2="n18" data-source-line="31" data-uid="lnk28" id="link_n12_n18"><path d="M488.8874,34.0606 C426.2176,47.5102 297.6159,75.9319 190,105 C184.5658,106.4678 184.6444,106.3909 179.0274,108.0464" fill="none" id="n12-to-n18" style="stroke:#181818;stroke-width:1;"/><polygon fill="#181818" points="173.2722,109.7426,183.0359,111.0351,178.0682,108.3291,180.7742,103.3614,173.2722,109.7426" style="stroke:#181818;stroke-width:1;"/></g><!--link n13 to n18--><g class="link" data-entity-1="n13" data-entity-2="n18" data-source-line="32" data-uid="lnk29" id="link_n13_n18"><path d="M722.6517,30.493 C611.8658,43.6018 292.7282,82.3058 190,105 C184.5035,106.2143 184.5688,106.0684 178.9311,107.6394" fill="none" id="n13-to-n18" style="stroke:#181818;stroke-width:1;"/><polygon fill="#181818" points="173.1513,109.25,182.8947,110.6873,177.9678,107.9078,180.7473,102.9809,173.1513,109.25" style="stroke:#181818;stroke-width:1;"/></g><!--link n10 to n18--><g class="link" data-entity-1="n10" data-entity-2="n18" data-source-line="33" data-uid="lnk30" id="link_n10_n18"><path d="M283.3295,45.128 C249.3224,62.3959 204.903,84.9508 170.9253,102.2037" fill="none" id="n10-to-n18" style="stroke:#181818;stroke-width:1;"/><polygon fill="#181818" points="165.5755,104.9202,175.4112,104.412,170.0337,102.6565,171.7893,97.2789,165.5755,104.9202" style="stroke:#181818;stroke-width:1;"/></g><!--link n12 to n19--><g class="link" data-entity-1="n12" data-entity-2="n19" data-source-line="34" data-uid="lnk31" id="link_n12_n19"><path d="M488.8106,39.3187 C435.0892,58.0543 343.4474,90.0148 289.7712,108.7346" fill="none" id="n12-to-n19" style="stroke:#181818;stroke-width:1;"/><polygon fill="#181818" points="284.1059,110.7104,293.9211,111.5236,288.827,109.0639,291.2867,103.9698,284.1059,110.7104" style="stroke:#181818;stroke-width:1;"/></g><!--link n13 to n19--><g class="link" data-entity-1="n13" data-entity-2="n19" data-source-line="35" data-uid="lnk32" id="link_n13_n19"><path d="M722.7948,30.5166 C643.5381,40.3354 455.8011,65.9295 302,105 C296.1292,106.4914 295.7056,106.479 289.7335,108.3864" fill="none" id="n13-to-n19" style="stroke:#181818;stroke-width:1;"/><polygon fill="#181818" points="284.0179,110.2119,293.8082,111.2841,288.7809,108.6907,291.3743,103.6633,284.0179,110.2119" style="stroke:#181818;stroke-width:1;"/></g><!--link n10 to n19--><g class="link" data-entity-1="n10" data-entity-2="n19" data-source-line="36" data-uid="lnk33" id="link_n10_n19"><path d="M306.1824,45.3616 C293.0339,62.5424 277.5725,82.7452 264.4333,99.9138" fill="none" id="n10-to-n19" style="stroke:#181818;stroke-width:1;"/><polygon fill="#181818" points="260.7868,104.6786,269.4331,99.9624,263.8255,100.708,263.08,95.1004,260.7868,104.6786" style="stroke:#181818;stroke-width:1;"/></g><!--link n14 to n23--><g class="link" data-entity-1="n14" data-entity-2="n23" data-source-line="37" data-uid="lnk34" id="link_n14_n23"><path d="M750.6145,143.0934 C775.5237,156.2937 805.0772,176.3013 822,203 C841.1695,233.2433 843.2428,270.4285 842.4858,294.9892" fill="none" id="n14-to-n23" style="stroke:#181818;stroke-width:1;"/><polygon fill="#181818" points="842.301,300.9864,846.5764,292.1139,842.455,295.9888,838.5802,291.8674,842.301,300.9864" style="stroke:#181818;stroke-width:1;"/></g><!--link n12 to n20--><g class="link" data-entity-1="n12" data-entity-2="n20" data-source-line="38" data-uid="lnk35" id="link_n12_n20"><path d="M522.1148,45.1502 C512.5559,82.6208 492.9629,159.4253 483.3882,196.9583" fill="none" id="n12-to-n20" style="stroke:#181818;stroke-width:1;"/><polygon fill="#181818" points="481.9051,202.7721,488.0056,195.0401,483.141,197.9273,480.2539,193.0626,481.9051,202.7721" style="stroke:#181818;stroke-width:1;"/></g><!--link n10 to n20--><g class="link" data-entity-1="n10" data-entity-2="n20" data-source-line="39" data-uid="lnk36" id="link_n10_n20"><path d="M351.7053,45.1613 C372.9512,59.5981 400.7552,80.9722 420,105 C444.4362,135.5094 459.859,172.5642 468.599,197.0491" fill="none" id="n10-to-n20" style="stroke:#181818;stroke-width:1;"/><polygon fill="#181818" points="470.6161,202.6999,471.3577,192.879,468.9352,197.9909,463.8233,195.5684,470.6161,202.6999" style="stroke:#181818;stroke-width:1;"/></g><!--link n14 to n20--><g class="link" data-entity-1="n14" data-entity-2="n20" data-source-line="40" data-uid="lnk37" id="link_n14_n20"><path d="M662.381,143.0116 C621.884,160.2668 567.9869,183.2317 527.4068,200.5223" fill="none" id="n14-to-n20" style="stroke:#181818;stroke-width:1;"/><polygon fill="#181818" points="521.887,202.8742,531.7347,203.0262,526.4869,200.9143,528.5988,195.6664,521.887,202.8742" style="stroke:#181818;stroke-width:1;"/></g><!--link n21 to n20--><g class="link" data-entity-1="n21" data-entity-2="n20" data-source-line="41" data-uid="lnk38" id="link_n21_n20"><path d="M383.6413,143.128 C404.0808,160.3959 429.4106,181.7952 449.8325,199.0481" fill="none" id="n21-to-n20" style="stroke:#181818;stroke-width:1;"/><polygon fill="#181818" points="454.4158,202.9202,450.1222,194.0565,450.5964,199.6935,444.9594,200.1676,454.4158,202.9202" style="stroke:#181818;stroke-width:1;"/></g><!--link n14 to n17--><g class="link" data-entity-1="n14" data-entity-2="n17" data-source-line="42" data-uid="lnk39" id="link_n14_n17"><path d="M684.5279,143.1502 C640.5572,180.6208 548.1739,259.3474 504.1301,296.8804" fill="none" id="n14-to-n17" style="stroke:#181818;stroke-width:1;"/><polygon fill="#181818" points="499.5634,300.7721,509.0079,297.9791,503.369,297.5291,503.8191,291.8901,499.5634,300.7721" style="stroke:#181818;stroke-width:1;"/></g><!--link n16 to n17--><g class="link" data-entity-1="n16" data-entity-2="n17" data-source-line="43" data-uid="lnk40" id="link_n16_n17"><path d="M645.55,240.2034 C609.0711,257.4736 559.8848,280.7598 522.7876,298.3228" fill="none" id="n16-to-n17" style="stroke:#181818;stroke-width:1;"/><polygon fill="#181818" points="517.3646,300.8902,527.2106,300.6544,521.8837,298.7507,523.7874,293.4238,517.3646,300.8902" style="stroke:#181818;stroke-width:1;"/></g><!--link n18 to n17--><g class="link" data-entity-1="n18" data-entity-2="n17" data-source-line="44" data-uid="lnk41" id="link_n18_n17"><path d="M158.3664,143.077 C196.4137,166.7794 263.8152,208.1116 323,241 C361.6108,262.4556 401.2841,282.6497 432.6444,298.2298" fill="none" id="n18-to-n17" style="stroke:#181818;stroke-width:1;"/><polygon fill="#181818" points="438.0178,300.8994,431.7374,293.3128,433.54,298.6748,428.178,300.4773,438.0178,300.8994" style="stroke:#181818;stroke-width:1;"/></g><!--link n19 to n17--><g class="link" data-entity-1="n19" data-entity-2="n17" data-source-line="45" data-uid="lnk42" id="link_n19_n17"><path d="M265.7056,143.2464 C290.2327,166.9432 333.6933,208.0913 373,241 C398.5564,262.3966 424.2107,281.7281 445.5486,297.3264" fill="none" id="n19-to-n17" style="stroke:#181818;stroke-width:1;"/><polygon fill="#181818" points="450.3924,300.8673,445.4873,292.3268,446.3559,297.9166,440.7661,298.7852,450.3924,300.8673" style="stroke:#181818;stroke-width:1;"/></g><!--link n20 to n17--><g class="link" data-entity-1="n20" data-entity-2="n17" data-source-line="46" data-uid="lnk43" id="link_n20_n17"><path d="M477,241.3616 C477,258.5424 477,277.51 477,294.6786" fill="none" id="n20-to-n17" style="stroke:#181818;stroke-width:1;"/><polygon fill="#181818" points="477,300.6786,481,291.6786,477,295.6786,473,291.6786,477,300.6786" style="stroke:#181818;stroke-width:1;"/></g><!--link n21 to n17--><g class="link" data-entity-1="n21" data-entity-2="n17" data-source-line="47" data-uid="lnk44" id="link_n21_n17"><path d="M363.8872,143.0072 C368.1981,167.1827 377.9367,209.5618 397,241 C411.2703,264.5339 429.474,282.2759 447.0962,296.9108" fill="none" id="n21-to-n17" style="stroke:#181818;stroke-width:1;"/><polygon fill="#181818" points="451.712,300.7441,447.3439,291.9169,447.8655,297.5497,442.2328,298.0713,451.712,300.7441" style="stroke:#181818;stroke-width:1;"/></g><!--link n5 to n17--><g class="link" data-entity-1="n5" data-entity-2="n17" data-source-line="48" data-uid="lnk45" id="link_n5_n17"><path d="M756.7983,233.6036 C751.0269,236.1875 744.8448,238.8077 739,241 C669.0509,267.2368 591.9716,289.4835 538.4458,303.9503" fill="none" id="n5-to-n17" style="stroke:#181818;stroke-width:1;"/><polygon fill="#181818" points="532.6536,305.5158,542.3855,307.029,537.4804,304.2112,540.2982,299.3061,532.6536,305.5158" style="stroke:#181818;stroke-width:1;"/></g><!--link n12 to n11--><g class="link" data-entity-1="n12" data-entity-2="n11" data-source-line="49" data-uid="lnk46" id="link_n12_n11"><path d="M565.2233,34.1129 C615.9792,45.7302 707.6345,69.6766 780,105 C836.4413,132.5504 890.5037,173.7292 921.6877,199.1446" fill="none" id="n12-to-n11" style="stroke:#181818;stroke-width:1;"/><polygon fill="#181818" points="926.3387,202.9352,921.8893,194.1487,922.4629,199.7764,916.8352,200.3499,926.3387,202.9352" style="stroke:#181818;stroke-width:1;"/></g><!--link n13 to n11--><g class="link" data-entity-1="n13" data-entity-2="n11" data-source-line="50" data-uid="lnk47" id="link_n13_n11"><path d="M799.1921,36.5437 C833.6655,47.9635 883.385,69.4803 913,105 C936.8167,133.5653 944.2462,171.7857 946.9735,196.887" fill="none" id="n13-to-n11" style="stroke:#181818;stroke-width:1;"/><polygon fill="#181818" points="947.6216,202.8519,950.6261,193.4725,947.0815,197.8812,942.6729,194.3366,947.6216,202.8519" style="stroke:#181818;stroke-width:1;"/></g><!--link n14 to n11--><g class="link" data-entity-1="n14" data-entity-2="n11" data-source-line="51" data-uid="lnk48" id="link_n14_n11"><path d="M753.947,143.0116 C799.7182,161.547 862.8987,187.1325 905.3699,204.3316" fill="none" id="n14-to-n11" style="stroke:#181818;stroke-width:1;"/><polygon fill="#181818" points="910.9312,206.5837,904.0907,199.498,906.2968,204.707,901.0879,206.9131,910.9312,206.5837" style="stroke:#181818;stroke-width:1;"/></g><!--link n13 to n15--><g class="link" data-entity-1="n13" data-entity-2="n15" data-source-line="52" data-uid="lnk49" id="link_n13_n15"><path d="M799.268,34.3361 C840.4261,44.9126 905.8862,66.5752 950,105 C1014.8894,161.5211 1053.4579,254.0152 1068.4299,295.2473" fill="none" id="n13-to-n15" style="stroke:#181818;stroke-width:1;"/><polygon fill="#181818" points="1070.4778,300.887,1071.1658,291.0622,1068.7712,296.1872,1063.6462,293.7927,1070.4778,300.887" style="stroke:#181818;stroke-width:1;"/></g><!--link n13 to n16--><g class="link" data-entity-1="n13" data-entity-2="n16" data-source-line="53" data-uid="lnk50" id="link_n13_n16"><path d="M770.6757,45.1859 C781.3404,69.1798 795.112,110.993 780,143 C767.7434,168.9592 747.3968,186.0855 725.7868,199.6086" fill="none" id="n13-to-n16" style="stroke:#181818;stroke-width:1;"/><polygon fill="#181818" points="720.7006,202.7914,730.4518,201.4079,724.9391,200.139,726.208,194.6263,720.7006,202.7914" style="stroke:#181818;stroke-width:1;"/></g><!--link n10 to n16--><g class="link" data-entity-1="n10" data-entity-2="n16" data-source-line="54" data-uid="lnk51" id="link_n10_n16"><path d="M356.4669,45.1502 C425.9533,82.669 573.9904,162.6009 643.3772,200.0659" fill="none" id="n10-to-n16" style="stroke:#181818;stroke-width:1;"/><polygon fill="#181818" points="648.6568,202.9166,642.6379,195.1209,644.2572,200.541,638.837,202.1603,648.6568,202.9166" style="stroke:#181818;stroke-width:1;"/></g><!--link n14 to n16--><g class="link" data-entity-1="n14" data-entity-2="n16" data-source-line="55" data-uid="lnk52" id="link_n14_n16"><path d="M702.4559,143.3616 C698.4237,160.5424 693.9349,179.6687 689.9055,196.8373" fill="none" id="n14-to-n16" style="stroke:#181818;stroke-width:1;"/><polygon fill="#181818" points="688.5346,202.6786,694.4852,194.8306,689.677,197.8109,686.6968,193.0027,688.5346,202.6786" style="stroke:#181818;stroke-width:1;"/></g><!--link n2 to n1--><g class="link" data-entity-1="n2" data-entity-2="n1" data-source-line="56" data-uid="lnk53" id="link_n2_n1"><path d="M1134.8962,429.3184 C1126.0771,431.8879 1116.7216,434.5736 1108,437 C1029.6343,458.8021 945.114,480.9654 884.4266,496.6528" fill="none" id="n2-to-n1" style="stroke:#181818;stroke-width:1;"/><polygon fill="#181818" points="878.6175,498.1544,888.3322,499.7747,883.4584,496.9031,886.33,492.0293,878.6175,498.1544" style="stroke:#181818;stroke-width:1;"/></g><!--link n3 to n1--><g class="link" data-entity-1="n3" data-entity-2="n1" data-source-line="57" data-uid="lnk54" id="link_n3_n1"><path d="M1356.8056,432.2063 C1351.2177,433.9883 1345.4949,435.6544 1340,437 C1177.0508,476.9034 986.7018,499.162 884.4982,509.2098" fill="none" id="n3-to-n1" style="stroke:#181818;stroke-width:1;"/><polygon fill="#181818" points="878.527,509.7968,887.8752,512.897,883.503,509.3076,887.0925,504.9354,878.527,509.7968" style="stroke:#181818;stroke-width:1;"/></g><!--link n4 to n1--><g class="link" data-entity-1="n4" data-entity-2="n1" data-source-line="58" data-uid="lnk55" id="link_n4_n1"><path d="M1245.9607,431.7052 C1239.9915,433.6237 1233.8588,435.462 1228,437 C1106.6403,468.8594 968.2337,492.2565 884.5485,505.0428" fill="none" id="n4-to-n1" style="stroke:#181818;stroke-width:1;"/><polygon fill="#181818" points="878.6173,505.949,888.1182,508.5438,883.5599,505.1938,886.9099,500.6355,878.6173,505.949" style="stroke:#181818;stroke-width:1;"/></g><!--link n5 to n1--><g class="link" data-entity-1="n5" data-entity-2="n1" data-source-line="59" data-uid="lnk56" id="link_n5_n1"><path d="M756.8541,241.2589 C740.7526,255.7418 720.9563,277.1308 712,301 C690.7655,357.5917 686.0544,382.4073 712,437 C724.3992,463.0894 744.9921,480.2397 766.8231,493.7278" fill="none" id="n5-to-n1" style="stroke:#181818;stroke-width:1;"/><polygon fill="#181818" points="771.9274,496.8815,766.3733,488.7481,767.6738,494.2534,762.1684,495.5539,771.9274,496.8815" style="stroke:#181818;stroke-width:1;"/></g><!--link n6 to n1--><g class="link" data-entity-1="n6" data-entity-2="n1" data-source-line="60" data-uid="lnk57" id="link_n6_n1"><path d="M876.4043,437.3616 C861.678,454.5424 844.1818,474.9545 829.4659,492.1231" fill="none" id="n6-to-n1" style="stroke:#181818;stroke-width:1;"/><polygon fill="#181818" points="825.5612,496.6786,834.4553,492.4484,828.8152,492.8823,828.3813,487.2421,825.5612,496.6786" style="stroke:#181818;stroke-width:1;"/></g><!--link n7 to n1--><g class="link" data-entity-1="n7" data-entity-2="n1" data-source-line="61" data-uid="lnk58" id="link_n7_n1"><path d="M1564.8542,432.4141 C1559.2592,434.1656 1553.5215,435.7678 1548,437 C1305.8955,491.027 1016.645,508.2192 884.6124,513.5519" fill="none" id="n7-to-n1" style="stroke:#181818;stroke-width:1;"/><polygon fill="#181818" points="878.6173,513.794,887.7714,517.4275,883.6132,513.5922,887.4485,509.4341,878.6173,513.794" style="stroke:#181818;stroke-width:1;"/></g><!--link n8 to n1--><g class="link" data-entity-1="n8" data-entity-2="n1" data-source-line="62" data-uid="lnk59" id="link_n8_n1"><path d="M1467.8793,431.6396 C1462.3372,433.6866 1456.5581,435.5827 1451,437 C1247.2402,488.9575 1004.0731,506.8692 884.9428,512.9056" fill="none" id="n8-to-n1" style="stroke:#181818;stroke-width:1;"/><polygon fill="#181818" points="878.9505,513.2092,888.1414,516.7486,883.9441,512.9562,887.7365,508.7589,878.9505,513.2092" style="stroke:#181818;stroke-width:1;"/></g><!--link n9 to n1--><g class="link" data-entity-1="n9" data-entity-2="n1" data-source-line="63" data-uid="lnk60" id="link_n9_n1"><path d="M959.2029,436.4331 C926.5465,453.7321 883.2161,476.6856 850.2049,494.1725" fill="none" id="n9-to-n1" style="stroke:#181818;stroke-width:1;"/><polygon fill="#181818" points="844.9029,496.9811,854.7284,496.3028,849.3213,494.6406,850.9835,489.2335,844.9029,496.9811" style="stroke:#181818;stroke-width:1;"/></g><!--link n10 to n1--><g class="link" data-entity-1="n10" data-entity-2="n1" data-source-line="64" data-uid="lnk61" id="link_n10_n1"><path d="M261.8553,31.0159 C205.4945,38.5942 121.1357,57.5707 65,105 C20.5149,142.5857 6,163.7625 6,222 C6,222 6,222 6,320 C6,470.4085 538.4256,505.6704 733.498,513.5983" fill="none" id="n10-to-n1" style="stroke:#181818;stroke-width:1;"/><polygon fill="#181818" points="739.4931,513.8419,730.663,509.4797,734.4972,513.6389,730.3381,517.4731,739.4931,513.8419" style="stroke:#181818;stroke-width:1;"/></g><!--link n11 to n1--><g class="link" data-entity-1="n11" data-entity-2="n1" data-source-line="65" data-uid="lnk62" id="link_n11_n1"><path d="M910.7004,228.0567 C870.7621,236.6366 810.1395,256.5593 782,301 C742.3533,363.614 777.0934,451.7822 796.4203,491.5842" fill="none" id="n11-to-n1" style="stroke:#181818;stroke-width:1;"/><polygon fill="#181818" points="799.0411,496.9815,798.7081,487.1383,796.8571,492.4837,791.5116,490.6327,799.0411,496.9815" style="stroke:#181818;stroke-width:1;"/></g><!--link n15 to n1--><g class="link" data-entity-1="n15" data-entity-2="n1" data-source-line="66" data-uid="lnk63" id="link_n15_n1"><path d="M1077.2275,339.2382 C1076.4762,364.85 1071.3182,410.0412 1046,437 C1022.8408,461.6598 945.7289,484.1796 884.4651,499.121" fill="none" id="n15-to-n1" style="stroke:#181818;stroke-width:1;"/><polygon fill="#181818" points="878.636,500.5426,888.3275,502.2962,883.4936,499.3579,886.432,494.524,878.636,500.5426" style="stroke:#181818;stroke-width:1;"/></g><!--link n16 to n1--><g class="link" data-entity-1="n16" data-entity-2="n1" data-source-line="67" data-uid="lnk64" id="link_n16_n1"><path d="M679.055,241.0448 C669.924,280.4986 654.4161,372.831 690,437 C705.2128,464.4336 729.0795,481.3652 754.7644,494.1862" fill="none" id="n16-to-n1" style="stroke:#181818;stroke-width:1;"/><polygon fill="#181818" points="760.1328,496.8659,753.8667,489.2675,755.6592,494.6328,750.2938,496.4253,760.1328,496.8659" style="stroke:#181818;stroke-width:1;"/></g><!--link n17 to n1--><g class="link" data-entity-1="n17" data-entity-2="n1" data-source-line="68" data-uid="lnk65" id="link_n17_n1"><path d="M487.3426,339.0409 C502.2956,364.8488 532.3349,410.7192 570,437 C620.8916,472.5096 683.0018,491.6376 733.4446,502.7849" fill="none" id="n17-to-n1" style="stroke:#181818;stroke-width:1;"/><polygon fill="#181818" points="739.3032,504.0796,731.3784,498.2318,734.421,503.0007,729.6521,506.0433,739.3032,504.0796" style="stroke:#181818;stroke-width:1;"/></g><!--link n22 to n1--><g class="link" data-entity-1="n22" data-entity-2="n1" data-source-line="69" data-uid="lnk66" id="link_n22_n1"><path d="M472.096,434.073 C545.7852,451.9924 658.6112,479.4291 733.657,497.6784" fill="none" id="n22-to-n1" style="stroke:#181818;stroke-width:1;"/><polygon fill="#181818" points="739.4871,499.0961,731.6871,493.0828,734.6287,497.9147,729.7968,500.8562,739.4871,499.0961" style="stroke:#181818;stroke-width:1;"/></g><!--link n18 to n1--><g class="link" data-entity-1="n18" data-entity-2="n1" data-source-line="70" data-uid="lnk67" id="link_n18_n1"><path d="M131.2374,143.023 C141.7859,198.6494 180.6457,361.8182 284,437 C355.3698,488.9157 607.7469,507.0807 733.4107,513.0828" fill="none" id="n18-to-n1" style="stroke:#181818;stroke-width:1;"/><polygon fill="#181818" points="739.4039,513.3691,730.605,508.9443,734.4096,513.1306,730.2233,516.9352,739.4039,513.3691" style="stroke:#181818;stroke-width:1;"/></g><!--link n19 to n1--><g class="link" data-entity-1="n19" data-entity-2="n1" data-source-line="71" data-uid="lnk68" id="link_n19_n1"><path d="M244.1012,143.3532 C239.8668,198.4732 236.0195,357.4283 322,437 C381.485,492.0511 613.1723,508.6303 733.0756,513.6646" fill="none" id="n19-to-n1" style="stroke:#181818;stroke-width:1;"/><polygon fill="#181818" points="739.0703,513.9163,730.246,509.5423,734.0747,513.7066,729.9104,517.5352,739.0703,513.9163" style="stroke:#181818;stroke-width:1;"/></g><!--link n23 to n1--><g class="link" data-entity-1="n23" data-entity-2="n1" data-source-line="72" data-uid="lnk69" id="link_n23_n1"><path d="M837.8734,339.1502 C831.7558,376.6208 819.2339,453.3175 813.106,490.8505" fill="none" id="n23-to-n1" style="stroke:#181818;stroke-width:1;"/><polygon fill="#181818" points="812.1392,496.7721,817.5371,488.5342,812.9449,491.8374,809.6417,487.2452,812.1392,496.7721" style="stroke:#181818;stroke-width:1;"/></g><!--link n17 to n22--><g class="link" data-entity-1="n17" data-entity-2="n22" data-source-line="73" data-uid="lnk70" id="link_n17_n22"><path d="M462.9727,339.3616 C450.5254,356.5424 435.9568,376.6511 423.5184,393.8197" fill="none" id="n17-to-n22" style="stroke:#181818;stroke-width:1;"/><polygon fill="#181818" points="419.9982,398.6786,428.5177,393.7371,422.9317,394.6296,422.0392,389.0435,419.9982,398.6786" style="stroke:#181818;stroke-width:1;"/></g><!--SRC=[RP9FSu8m4CNlVWh6tfZHceW8Cuw7UlNIF_SEXIqoueOceTPltsXbiz7UVkGzTbyskpBsrC9wj7gyWjats1MwE4GVHRcljUgnsgXMwSZg0esJ0Er8GsaBh5k8nftI5lHxgT3OwMuS5IP2CVl7OKyTa27XXb8TEWt6a9e5gZvrLf6MXwMjtgfw4ENyLdm5h9vxwAcpdDrQDWej_FZioy3WXW1U4rmpy8NzWRG5ruuDLkf8MigrE3wtVO7o-ssdeQYcPHnVVT73jgbtzgdjuJOcymzNaTpJeCyPj0EjaSQNXxyCnq7spePjmalRge9FkfYyqHhqmvg7ccxGFrGunzPz35Am6KRnyGS5RNEWHmtsfSV61HcavSY5Z2QJzMNfN2Z6CyQ39sEUZ7aovicP9sUUCoT_x3QH_6xbo7FXnBCKz-VYd3bbd37EFSiPO-5vmUn3PC4Y2zQAdoyOf-nQAVCx7agES4wK42s8Kg8bKKQK4r4VXyAZBoHy9U5BIPz3-BB2rvNpkz-a_0K0]--></g></svg>