<svg xmlns="http://www.w3.org/2000/svg" xmlns:xlink="http://www.w3.org/1999/xlink" contentStyleType="text/css" data-diagram-type="DESCRIPTION" height="612px" preserveAspectRatio="none" style="width:2105px;height:612px;" version="1.1" viewBox="0 0 2105 612" width="2105px" zoomAndPan="magnify"><defs/><g><!--entity n0--><g class="entity" data-entity="n0" data-source-line="5" data-uid="ent0002" id="entity_n0"><rect fill="#ADD8E6" height="37.7799" rx="2.5" ry="2.5" style="stroke:#181818;stroke-width:0.5;" width="138.9995" x="1081.5" y="7"/><text fill="#000000" font-family="'Segoe UI', 'メイリオ', 'UDEV Gothic HSRFJPDOC', 'Hiragino Kaku Gothic ProN', 'ヒラギノ角ゴ ProN', 'Noto Sans JP', 'Helvetica Neue', Helvetica, Arial, sans-serif" font-size="14" font-weight="bold" lengthAdjust="spacing" textLength="118.9995" x="1091.5" y="30.9999">recv_thread_func</text></g><!--entity n1--><g class="entity" data-entity="n1" data-source-line="6" data-uid="ent0003" id="entity_n1"><rect fill="#F1F1F1" height="37.7799" rx="2.5" ry="2.5" style="stroke:#181818;stroke-width:0.5;" width="187.9993" x="7" y="114"/><text fill="#000000" font-family="'Segoe UI', 'メイリオ', 'UDEV Gothic HSRFJPDOC', 'Hiragino Kaku Gothic ProN', 'ヒラギノ角ゴ ProN', 'Noto Sans JP', 'Helvetica Neue', Helvetica, Arial, sans-serif" font-size="14" lengthAdjust="spacing" textLength="167.9993" x="17" y="137.9999">check_and_update_session</text></g><!--entity n2--><g class="entity" data-entity="n2" data-source-line="7" data-uid="ent0004" id="entity_n2"><rect fill="#F1F1F1" height="37.7799" rx="2.5" ry="2.5" style="stroke:#181818;stroke-width:0.5;" width="159.9994" x="301" y="114"/><text fill="#000000" font-family="'Segoe UI', 'メイリオ', 'UDEV Gothic HSRFJPDOC', 'Hiragino Kaku Gothic ProN', 'ヒラギノ角ゴ ProN', 'Noto Sans JP', 'Helvetica Neue', Helvetica, Arial, sans-serif" font-size="14" lengthAdjust="spacing" textLength="139.9994" x="311" y="137.9999">check_health_timeout</text></g><!--entity n3--><g class="entity" data-entity="n3" data-source-line="8" data-uid="ent0005" id="entity_n3"><rect fill="#F1F1F1" height="37.7799" rx="2.5" ry="2.5" style="stroke:#181818;stroke-width:0.5;" width="117.9996" x="663" y="114"/><text fill="#000000" font-family="'Segoe UI', 'メイリオ', 'UDEV Gothic HSRFJPDOC', 'Hiragino Kaku Gothic ProN', 'ヒラギノ角ゴ ProN', 'Noto Sans JP', 'Helvetica Neue', Helvetica, Arial, sans-serif" font-size="14" lengthAdjust="spacing" textLength="97.9996" x="673" y="137.9999">check_src_addr</text></g><!--entity n4--><g class="entity" data-entity="n4" data-source-line="9" data-uid="ent0006" id="entity_n4"><rect fill="#F1F1F1" height="37.7799" rx="2.5" ry="2.5" style="stroke:#181818;stroke-width:0.5;" width="138.9995" x="582.5" y="230"/><text fill="#000000" font-family="'Segoe UI', 'メイリオ', 'UDEV Gothic HSRFJPDOC', 'Hiragino Kaku Gothic ProN', 'ヒラギノ角ゴ ProN', 'Noto Sans JP', 'Helvetica Neue', Helvetica, Arial, sans-serif" font-size="14" lengthAdjust="spacing" textLength="118.9995" x="592.5" y="253.9999">drain_recv_window</text></g><!--entity n5--><g class="entity" data-entity="n5" data-source-line="10" data-uid="ent0007" id="entity_n5"><rect fill="#F1F1F1" height="37.7799" rx="2.5" ry="2.5" style="stroke:#181818;stroke-width:0.5;" width="96.9997" x="1835.5" y="114"/><text fill="#000000" font-family="'Segoe UI', 'メイリオ', 'UDEV Gothic HSRFJPDOC', 'Hiragino Kaku Gothic ProN', 'ヒラギノ角ゴ ProN', 'Noto Sans JP', 'Helvetica Neue', Helvetica, Arial, sans-serif" font-size="14" lengthAdjust="spacing" textLength="76.9997" x="1845.5" y="137.9999">get_ms_mono</text></g><!--entity n6--><g class="entity" data-entity="n6" data-source-line="11" data-uid="ent0008" id="entity_n6"><rect fill="#F1F1F1" height="37.7799" rx="2.5" ry="2.5" style="stroke:#181818;stroke-width:0.5;" width="152.9994" x="128.5" y="346"/><text fill="#000000" font-family="'Segoe UI', 'メイリオ', 'UDEV Gothic HSRFJPDOC', 'Hiragino Kaku Gothic ProN', 'ヒラギノ角ゴ ProN', 'Noto Sans JP', 'Helvetica Neue', Helvetica, Arial, sans-serif" font-size="14" lengthAdjust="spacing" textLength="132.9994" x="138.5" y="369.9999">notify_health_alive</text></g><!--entity n7--><g class="entity" data-entity="n7" data-source-line="12" data-uid="ent0009" id="entity_n7"><rect fill="#F1F1F1" height="55.5598" rx="2.5" ry="2.5" style="stroke:#181818;stroke-width:0.5;" width="103.9996" x="1696" y="105"/><text fill="#000000" font-family="'Segoe UI', 'メイリオ', 'UDEV Gothic HSRFJPDOC', 'Hiragino Kaku Gothic ProN', 'ヒラギノ角ゴ ProN', 'Noto Sans JP', 'Helvetica Neue', Helvetica, Arial, sans-serif" font-size="14" lengthAdjust="spacing" textLength="83.9996" x="1706" y="128.9999">packet_parse</text><text fill="#000000" font-family="'Segoe UI', 'メイリオ', 'UDEV Gothic HSRFJPDOC', 'Hiragino Kaku Gothic ProN', 'ヒラギノ角ゴ ProN', 'Noto Sans JP', 'Helvetica Neue', Helvetica, Arial, sans-serif" font-size="14" lengthAdjust="spacing" textLength="69.9997" x="1706" y="146.7799">(packet.c)</text></g><!--entity n8--><g class="entity" data-entity="n8" data-source-line="13" data-uid="ent0010" id="entity_n8"><rect fill="#F1F1F1" height="55.5598" rx="2.5" ry="2.5" style="stroke:#181818;stroke-width:0.5;" width="131.9995" x="1576" y="337"/><text fill="#000000" font-family="'Segoe UI', 'メイリオ', 'UDEV Gothic HSRFJPDOC', 'Hiragino Kaku Gothic ProN', 'ヒラギノ角ゴ ProN', 'Noto Sans JP', 'Helvetica Neue', Helvetica, Arial, sans-serif" font-size="14" lengthAdjust="spacing" textLength="111.9995" x="1586" y="360.9999">packet_wire_size</text><text fill="#000000" font-family="'Segoe UI', 'メイリオ', 'UDEV Gothic HSRFJPDOC', 'Hiragino Kaku Gothic ProN', 'ヒラギノ角ゴ ProN', 'Noto Sans JP', 'Helvetica Neue', Helvetica, Arial, sans-serif" font-size="14" lengthAdjust="spacing" textLength="69.9997" x="1586" y="378.7799">(packet.c)</text></g><!--entity n9--><g class="entity" data-entity="n9" data-source-line="14" data-uid="ent0011" id="entity_n9"><rect fill="#F1F1F1" height="55.5598" rx="2.5" ry="2.5" style="stroke:#181818;stroke-width:0.5;" width="131.9995" x="1968" y="105"/><text fill="#000000" font-family="'Segoe UI', 'メイリオ', 'UDEV Gothic HSRFJPDOC', 'Hiragino Kaku Gothic ProN', 'ヒラギノ角ゴ ProN', 'Noto Sans JP', 'Helvetica Neue', Helvetica, Arial, sans-serif" font-size="14" lengthAdjust="spacing" textLength="83.9996" x="1978" y="128.9999">potr_decrypt</text><text fill="#000000" font-family="'Segoe UI', 'メイリオ', 'UDEV Gothic HSRFJPDOC', 'Hiragino Kaku Gothic ProN', 'ヒラギノ角ゴ ProN', 'Noto Sans JP', 'Helvetica Neue', Helvetica, Arial, sans-serif" font-size="14" lengthAdjust="spacing" textLength="111.9995" x="1978" y="146.7799">(crypto_linux.c)</text></g><!--entity n10--><g class="entity" data-entity="n10" data-source-line="15" data-uid="ent0012" id="entity_n10"><rect fill="#F1F1F1" height="37.7799" rx="2.5" ry="2.5" style="stroke:#181818;stroke-width:0.5;" width="138.9995" x="958.5" y="114"/><text fill="#000000" font-family="'Segoe UI', 'メイリオ', 'UDEV Gothic HSRFJPDOC', 'Hiragino Kaku Gothic ProN', 'ヒラギノ角ゴ ProN', 'Noto Sans JP', 'Helvetica Neue', Helvetica, Arial, sans-serif" font-size="14" lengthAdjust="spacing" textLength="118.9995" x="968.5" y="137.9999">process_outer_pkt</text></g><!--entity n11--><g class="entity" data-entity="n11" data-source-line="16" data-uid="ent0013" id="entity_n11"><rect fill="#F1F1F1" height="37.7799" rx="2.5" ry="2.5" style="stroke:#181818;stroke-width:0.5;" width="82.9997" x="1435.5" y="230"/><text fill="#000000" font-family="'Segoe UI', 'メイリオ', 'UDEV Gothic HSRFJPDOC', 'Hiragino Kaku Gothic ProN', 'ヒラギノ角ゴ ProN', 'Noto Sans JP', 'Helvetica Neue', Helvetica, Arial, sans-serif" font-size="14" lengthAdjust="spacing" textLength="62.9997" x="1445.5" y="253.9999">send_nack</text></g><!--entity n12--><g class="entity" data-entity="n12" data-source-line="17" data-uid="ent0014" id="entity_n12"><rect fill="#F1F1F1" height="37.7799" rx="2.5" ry="2.5" style="stroke:#181818;stroke-width:0.5;" width="96.9997" x="1625.5" y="230"/><text fill="#000000" font-family="'Segoe UI', 'メイリオ', 'UDEV Gothic HSRFJPDOC', 'Hiragino Kaku Gothic ProN', 'ヒラギノ角ゴ ProN', 'Noto Sans JP', 'Helvetica Neue', Helvetica, Arial, sans-serif" font-size="14" lengthAdjust="spacing" textLength="76.9997" x="1635.5" y="253.9999">send_reject</text></g><!--entity n13--><g class="entity" data-entity="n13" data-source-line="18" data-uid="ent0015" id="entity_n13"><rect fill="#F1F1F1" height="55.5598" rx="2.5" ry="2.5" style="stroke:#181818;stroke-width:0.5;" width="131.9995" x="1163" y="337"/><text fill="#000000" font-family="'Segoe UI', 'メイリオ', 'UDEV Gothic HSRFJPDOC', 'Hiragino Kaku Gothic ProN', 'ヒラギノ角ゴ ProN', 'Noto Sans JP', 'Helvetica Neue', Helvetica, Arial, sans-serif" font-size="14" lengthAdjust="spacing" textLength="111.9995" x="1173" y="360.9999">seqnum_in_window</text><text fill="#000000" font-family="'Segoe UI', 'メイリオ', 'UDEV Gothic HSRFJPDOC', 'Hiragino Kaku Gothic ProN', 'ヒラギノ角ゴ ProN', 'Noto Sans JP', 'Helvetica Neue', Helvetica, Arial, sans-serif" font-size="14" lengthAdjust="spacing" textLength="69.9997" x="1173" y="378.7799">(seqnum.c)</text></g><!--entity n14--><g class="entity" data-entity="n14" data-source-line="19" data-uid="ent0016" id="entity_n14"><rect fill="#F1F1F1" height="37.7799" rx="2.5" ry="2.5" style="stroke:#181818;stroke-width:0.5;" width="131.9995" x="496" y="114"/><text fill="#000000" font-family="'Segoe UI', 'メイリオ', 'UDEV Gothic HSRFJPDOC', 'Hiragino Kaku Gothic ProN', 'ヒラギノ角ゴ ProN', 'Noto Sans JP', 'Helvetica Neue', Helvetica, Arial, sans-serif" font-size="14" lengthAdjust="spacing" textLength="111.9995" x="506" y="137.9999">update_path_recv</text></g><!--entity n15--><g class="entity" data-entity="n15" data-source-line="20" data-uid="ent0017" id="entity_n15"><rect fill="#F1F1F1" height="55.5598" rx="2.5" ry="2.5" style="stroke:#181818;stroke-width:0.5;" width="96.9997" x="199.5" y="221"/><text fill="#000000" font-family="'Segoe UI', 'メイリオ', 'UDEV Gothic HSRFJPDOC', 'Hiragino Kaku Gothic ProN', 'ヒラギノ角ゴ ProN', 'Noto Sans JP', 'Helvetica Neue', Helvetica, Arial, sans-serif" font-size="14" lengthAdjust="spacing" textLength="76.9997" x="209.5" y="244.9999">window_init</text><text fill="#000000" font-family="'Segoe UI', 'メイリオ', 'UDEV Gothic HSRFJPDOC', 'Hiragino Kaku Gothic ProN', 'ヒラギノ角ゴ ProN', 'Noto Sans JP', 'Helvetica Neue', Helvetica, Arial, sans-serif" font-size="14" lengthAdjust="spacing" textLength="69.9997" x="209.5" y="262.7799">(window.c)</text></g><!--entity n16--><g class="entity" data-entity="n16" data-source-line="21" data-uid="ent0018" id="entity_n16"><rect fill="#F1F1F1" height="55.5598" rx="2.5" ry="2.5" style="stroke:#181818;stroke-width:0.5;" width="131.9995" x="996" y="337"/><text fill="#000000" font-family="'Segoe UI', 'メイリオ', 'UDEV Gothic HSRFJPDOC', 'Hiragino Kaku Gothic ProN', 'ヒラギノ角ゴ ProN', 'Noto Sans JP', 'Helvetica Neue', Helvetica, Arial, sans-serif" font-size="14" lengthAdjust="spacing" textLength="111.9995" x="1006" y="360.9999">window_recv_skip</text><text fill="#000000" font-family="'Segoe UI', 'メイリオ', 'UDEV Gothic HSRFJPDOC', 'Hiragino Kaku Gothic ProN', 'ヒラギノ角ゴ ProN', 'Noto Sans JP', 'Helvetica Neue', Helvetica, Arial, sans-serif" font-size="14" lengthAdjust="spacing" textLength="69.9997" x="1006" y="378.7799">(window.c)</text></g><!--entity n17--><g class="entity" data-entity="n17" data-source-line="22" data-uid="ent0019" id="entity_n17"><rect fill="#F1F1F1" height="55.5598" rx="2.5" ry="2.5" style="stroke:#181818;stroke-width:0.5;" width="124.9995" x="1275.5" y="221"/><text fill="#000000" font-family="'Segoe UI', 'メイリオ', 'UDEV Gothic HSRFJPDOC', 'Hiragino Kaku Gothic ProN', 'ヒラギノ角ゴ ProN', 'Noto Sans JP', 'Helvetica Neue', Helvetica, Arial, sans-serif" font-size="14" lengthAdjust="spacing" textLength="104.9995" x="1285.5" y="244.9999">window_send_get</text><text fill="#000000" font-family="'Segoe UI', 'メイリオ', 'UDEV Gothic HSRFJPDOC', 'Hiragino Kaku Gothic ProN', 'ヒラギノ角ゴ ProN', 'Noto Sans JP', 'Helvetica Neue', Helvetica, Arial, sans-serif" font-size="14" lengthAdjust="spacing" textLength="69.9997" x="1285.5" y="262.7799">(window.c)</text></g><!--entity n18--><g class="entity" data-entity="n18" data-source-line="23" data-uid="ent0020" id="entity_n18"><rect fill="#F1F1F1" height="37.7799" rx="2.5" ry="2.5" style="stroke:#181818;stroke-width:0.5;" width="110.9996" x="348.5" y="230"/><text fill="#000000" font-family="'Segoe UI', 'メイリオ', 'UDEV Gothic HSRFJPDOC', 'Hiragino Kaku Gothic ProN', 'ヒラギノ角ゴ ProN', 'Noto Sans JP', 'Helvetica Neue', Helvetica, Arial, sans-serif" font-size="14" lengthAdjust="spacing" textLength="90.9996" x="358.5" y="253.9999">get_monotonic</text></g><!--entity n19--><g class="entity" data-entity="n19" data-source-line="24" data-uid="ent0021" id="entity_n19"><rect fill="#F1F1F1" height="37.7799" rx="2.5" ry="2.5" style="stroke:#181818;stroke-width:0.5;" width="159.9994" x="317" y="346"/><text fill="#000000" font-family="'Segoe UI', 'メイリオ', 'UDEV Gothic HSRFJPDOC', 'Hiragino Kaku Gothic ProN', 'ヒラギノ角ゴ ProN', 'Noto Sans JP', 'Helvetica Neue', Helvetica, Arial, sans-serif" font-size="14" lengthAdjust="spacing" textLength="139.9994" x="327" y="369.9999">deliver_payload_elem</text></g><!--entity n20--><g class="entity" data-entity="n20" data-source-line="25" data-uid="ent0022" id="entity_n20"><rect fill="#F1F1F1" height="55.5598" rx="2.5" ry="2.5" style="stroke:#181818;stroke-width:0.5;" width="145.9995" x="512" y="337"/><text fill="#000000" font-family="'Segoe UI', 'メイリオ', 'UDEV Gothic HSRFJPDOC', 'Hiragino Kaku Gothic ProN', 'ヒラギノ角ゴ ProN', 'Noto Sans JP', 'Helvetica Neue', Helvetica, Arial, sans-serif" font-size="14" lengthAdjust="spacing" textLength="125.9995" x="522" y="360.9999">packet_unpack_next</text><text fill="#000000" font-family="'Segoe UI', 'メイリオ', 'UDEV Gothic HSRFJPDOC', 'Hiragino Kaku Gothic ProN', 'ヒラギノ角ゴ ProN', 'Noto Sans JP', 'Helvetica Neue', Helvetica, Arial, sans-serif" font-size="14" lengthAdjust="spacing" textLength="69.9997" x="522" y="378.7799">(packet.c)</text></g><!--entity n21--><g class="entity" data-entity="n21" data-source-line="26" data-uid="ent0023" id="entity_n21"><rect fill="#F1F1F1" height="55.5598" rx="2.5" ry="2.5" style="stroke:#181818;stroke-width:0.5;" width="124.9995" x="693.5" y="337"/><text fill="#000000" font-family="'Segoe UI', 'メイリオ', 'UDEV Gothic HSRFJPDOC', 'Hiragino Kaku Gothic ProN', 'ヒラギノ角ゴ ProN', 'Noto Sans JP', 'Helvetica Neue', Helvetica, Arial, sans-serif" font-size="14" lengthAdjust="spacing" textLength="104.9995" x="703.5" y="360.9999">window_recv_pop</text><text fill="#000000" font-family="'Segoe UI', 'メイリオ', 'UDEV Gothic HSRFJPDOC', 'Hiragino Kaku Gothic ProN', 'ヒラギノ角ゴ ProN', 'Noto Sans JP', 'Helvetica Neue', Helvetica, Arial, sans-serif" font-size="14" lengthAdjust="spacing" textLength="69.9997" x="703.5" y="378.7799">(window.c)</text></g><!--entity n22--><g class="entity" data-entity="n22" data-source-line="27" data-uid="ent0024" id="entity_n22"><rect fill="#F1F1F1" height="37.7799" rx="2.5" ry="2.5" style="stroke:#181818;stroke-width:0.5;" width="61.9998" x="1919" y="453"/><text fill="#000000" font-family="'Segoe UI', 'メイリオ', 'UDEV Gothic HSRFJPDOC', 'Hiragino Kaku Gothic ProN', 'ヒラギノ角ゴ ProN', 'Noto Sans JP', 'Helvetica Neue', Helvetica, Arial, sans-serif" font-size="14" lengthAdjust="spacing" textLength="41.9998" x="1929" y="476.9999">ntoh64</text></g><!--entity n23--><g class="entity" data-entity="n23" data-source-line="28" data-uid="ent0025" id="entity_n23"><rect fill="#F1F1F1" height="55.5598" rx="2.5" ry="2.5" style="stroke:#181818;stroke-width:0.5;" width="173.9993" x="757" y="221"/><text fill="#000000" font-family="'Segoe UI', 'メイリオ', 'UDEV Gothic HSRFJPDOC', 'Hiragino Kaku Gothic ProN', 'ヒラギノ角ゴ ProN', 'Noto Sans JP', 'Helvetica Neue', Helvetica, Arial, sans-serif" font-size="14" lengthAdjust="spacing" textLength="153.9993" x="767" y="244.9999">window_recv_needs_nack</text><text fill="#000000" font-family="'Segoe UI', 'メイリオ', 'UDEV Gothic HSRFJPDOC', 'Hiragino Kaku Gothic ProN', 'ヒラギノ角ゴ ProN', 'Noto Sans JP', 'Helvetica Neue', Helvetica, Arial, sans-serif" font-size="14" lengthAdjust="spacing" textLength="69.9997" x="767" y="262.7799">(window.c)</text></g><!--entity n24--><g class="entity" data-entity="n24" data-source-line="29" data-uid="ent0026" id="entity_n24"><rect fill="#F1F1F1" height="55.5598" rx="2.5" ry="2.5" style="stroke:#181818;stroke-width:0.5;" width="131.9995" x="966" y="221"/><text fill="#000000" font-family="'Segoe UI', 'メイリオ', 'UDEV Gothic HSRFJPDOC', 'Hiragino Kaku Gothic ProN', 'ヒラギノ角ゴ ProN', 'Noto Sans JP', 'Helvetica Neue', Helvetica, Arial, sans-serif" font-size="14" lengthAdjust="spacing" textLength="111.9995" x="976" y="244.9999">window_recv_push</text><text fill="#000000" font-family="'Segoe UI', 'メイリオ', 'UDEV Gothic HSRFJPDOC', 'Hiragino Kaku Gothic ProN', 'ヒラギノ角ゴ ProN', 'Noto Sans JP', 'Helvetica Neue', Helvetica, Arial, sans-serif" font-size="14" lengthAdjust="spacing" textLength="69.9997" x="976" y="262.7799">(window.c)</text></g><!--entity n25--><g class="entity" data-entity="n25" data-source-line="30" data-uid="ent0027" id="entity_n25"><rect fill="#F1F1F1" height="55.5598" rx="2.5" ry="2.5" style="stroke:#181818;stroke-width:0.5;" width="138.9995" x="1401.5" y="337"/><text fill="#000000" font-family="'Segoe UI', 'メイリオ', 'UDEV Gothic HSRFJPDOC', 'Hiragino Kaku Gothic ProN', 'ヒラギノ角ゴ ProN', 'Noto Sans JP', 'Helvetica Neue', Helvetica, Arial, sans-serif" font-size="14" lengthAdjust="spacing" textLength="118.9995" x="1411.5" y="360.9999">packet_build_nack</text><text fill="#000000" font-family="'Segoe UI', 'メイリオ', 'UDEV Gothic HSRFJPDOC', 'Hiragino Kaku Gothic ProN', 'ヒラギノ角ゴ ProN', 'Noto Sans JP', 'Helvetica Neue', Helvetica, Arial, sans-serif" font-size="14" lengthAdjust="spacing" textLength="69.9997" x="1411.5" y="378.7799">(packet.c)</text></g><!--entity n26--><g class="entity" data-entity="n26" data-source-line="31" data-uid="ent0028" id="entity_n26"><rect fill="#F1F1F1" height="55.5598" rx="2.5" ry="2.5" style="stroke:#181818;stroke-width:0.5;" width="152.9994" x="1743.5" y="337"/><text fill="#000000" font-family="'Segoe UI', 'メイリオ', 'UDEV Gothic HSRFJPDOC', 'Hiragino Kaku Gothic ProN', 'ヒラギノ角ゴ ProN', 'Noto Sans JP', 'Helvetica Neue', Helvetica, Arial, sans-serif" font-size="14" lengthAdjust="spacing" textLength="132.9994" x="1753.5" y="360.9999">packet_build_reject</text><text fill="#000000" font-family="'Segoe UI', 'メイリオ', 'UDEV Gothic HSRFJPDOC', 'Hiragino Kaku Gothic ProN', 'ヒラギノ角ゴ ProN', 'Noto Sans JP', 'Helvetica Neue', Helvetica, Arial, sans-serif" font-size="14" lengthAdjust="spacing" textLength="69.9997" x="1753.5" y="378.7799">(packet.c)</text></g><!--entity n27--><g class="entity" data-entity="n27" data-source-line="32" data-uid="ent0029" id="entity_n27"><rect fill="#F1F1F1" height="37.7799" rx="2.5" ry="2.5" style="stroke:#181818;stroke-width:0.5;" width="82.9997" x="901.5" y="453"/><text fill="#000000" font-family="'Segoe UI', 'メイリオ', 'UDEV Gothic HSRFJPDOC', 'Hiragino Kaku Gothic ProN', 'ヒラギノ角ゴ ProN', 'Noto Sans JP', 'Helvetica Neue', Helvetica, Arial, sans-serif" font-size="14" lengthAdjust="spacing" textLength="62.9997" x="911.5" y="476.9999">win_index</text></g><!--entity n28--><g class="entity" data-entity="n28" data-source-line="33" data-uid="ent0030" id="entity_n28"><rect fill="#F1F1F1" height="37.7799" rx="2.5" ry="2.5" style="stroke:#181818;stroke-width:0.5;" width="103.9996" x="345" y="453"/><text fill="#000000" font-family="'Segoe UI', 'メイリオ', 'UDEV Gothic HSRFJPDOC', 'Hiragino Kaku Gothic ProN', 'ヒラギノ角ゴ ProN', 'Noto Sans JP', 'Helvetica Neue', Helvetica, Arial, sans-serif" font-size="14" lengthAdjust="spacing" textLength="83.9996" x="355" y="476.9999">recv_deliver</text></g><!--entity n29--><g class="entity" data-entity="n29" data-source-line="34" data-uid="ent0031" id="entity_n29"><rect fill="#F1F1F1" height="37.7799" rx="2.5" ry="2.5" style="stroke:#181818;stroke-width:0.5;" width="61.9998" x="1853" y="560"/><text fill="#000000" font-family="'Segoe UI', 'メイリオ', 'UDEV Gothic HSRFJPDOC', 'Hiragino Kaku Gothic ProN', 'ヒラギノ角ゴ ProN', 'Noto Sans JP', 'Helvetica Neue', Helvetica, Arial, sans-serif" font-size="14" lengthAdjust="spacing" textLength="41.9998" x="1863" y="583.9999">hton64</text></g><!--entity n30--><g class="entity" data-entity="n30" data-source-line="35" data-uid="ent0032" id="entity_n30"><rect fill="#F1F1F1" height="37.7799" rx="2.5" ry="2.5" style="stroke:#181818;stroke-width:0.5;" width="131.9995" x="1752" y="453"/><text fill="#000000" font-family="'Segoe UI', 'メイリオ', 'UDEV Gothic HSRFJPDOC', 'Hiragino Kaku Gothic ProN', 'ヒラギノ角ゴ ProN', 'Noto Sans JP', 'Helvetica Neue', Helvetica, Arial, sans-serif" font-size="14" lengthAdjust="spacing" textLength="111.9995" x="1762" y="476.9999">fill_session_hdr</text></g><!--entity n31--><g class="entity" data-entity="n31" data-source-line="36" data-uid="ent0033" id="entity_n31"><rect fill="#F1F1F1" height="55.5598" rx="2.5" ry="2.5" style="stroke:#181818;stroke-width:0.5;" width="145.9995" x="324" y="551"/><text fill="#000000" font-family="'Segoe UI', 'メイリオ', 'UDEV Gothic HSRFJPDOC', 'Hiragino Kaku Gothic ProN', 'ヒラギノ角ゴ ProN', 'Noto Sans JP', 'Helvetica Neue', Helvetica, Arial, sans-serif" font-size="14" lengthAdjust="spacing" textLength="104.9995" x="334" y="574.9999">potr_decompress</text><text fill="#000000" font-family="'Segoe UI', 'メイリオ', 'UDEV Gothic HSRFJPDOC', 'Hiragino Kaku Gothic ProN', 'ヒラギノ角ゴ ProN', 'Noto Sans JP', 'Helvetica Neue', Helvetica, Arial, sans-serif" font-size="14" lengthAdjust="spacing" textLength="125.9995" x="334" y="592.7799">(compress_linux.c)</text></g><!--link n0 to n1--><g class="link" data-entity-1="n0" data-entity-2="n1" data-source-line="37" data-uid="lnk34" id="link_n0_n1"><path d="M1081.2516,28.5325 C926.025,34.9101 540.5973,54.8532 222,105 C206.8771,107.3803 196.6923,109.2909 181.4047,112.6926" fill="none" id="n0-to-n1" style="stroke:#181818;stroke-width:1;"/><polygon fill="#181818" points="175.5479,113.9958,185.2018,115.9455,180.4285,112.9098,183.4642,108.1365,175.5479,113.9958" style="stroke:#181818;stroke-width:1;"/></g><!--link n0 to n2--><g class="link" data-entity-1="n0" data-entity-2="n2" data-source-line="38" data-uid="lnk35" id="link_n0_n2"><path d="M1081.1355,30.4059 C958.2173,38.9985 695.6709,61.1171 478,105 C465.9725,107.4248 459.0517,109.0133 446.9427,112.372" fill="none" id="n0-to-n2" style="stroke:#181818;stroke-width:1;"/><polygon fill="#181818" points="441.161,113.9757,450.9027,115.4246,445.9791,112.6393,448.7644,107.7157,441.161,113.9757" style="stroke:#181818;stroke-width:1;"/></g><!--link n0 to n3--><g class="link" data-entity-1="n0" data-entity-2="n3" data-source-line="39" data-uid="lnk36" id="link_n0_n3"><path d="M1081.2387,40.1771 C1011.6109,54.7696 901.7737,78.9903 808,105 C798.3163,107.6859 793.8195,108.9673 783.9413,112.0959" fill="none" id="n0-to-n3" style="stroke:#181818;stroke-width:1;"/><polygon fill="#181818" points="778.2213,113.9075,788.009,115.0034,782.9879,112.3978,785.5935,107.3768,778.2213,113.9075" style="stroke:#181818;stroke-width:1;"/></g><!--link n0 to n4--><g class="link" data-entity-1="n0" data-entity-2="n4" data-source-line="40" data-uid="lnk37" id="link_n0_n4"><path d="M1088.1684,45.1402 C1045.5096,59.2086 988.4491,80.1551 941,105 C902.2276,125.3017 898.3541,139.9188 860,161 C809.3167,188.8579 753.6019,211.7116 710.72,227.8733" fill="none" id="n0-to-n4" style="stroke:#181818;stroke-width:1;"/><polygon fill="#181818" points="705.1055,229.9893,714.9379,230.5582,709.7842,228.2259,712.1165,223.0723,705.1055,229.9893" style="stroke:#181818;stroke-width:1;"/></g><!--link n0 to n5--><g class="link" data-entity-1="n0" data-entity-2="n5" data-source-line="41" data-uid="lnk38" id="link_n0_n5"><path d="M1220.8638,27.796 C1343.6429,32.3752 1605.275,48.5107 1818,105 C1826.6615,107.3001 1830.1125,108.264 1838.5899,111.7061" fill="none" id="n0-to-n5" style="stroke:#181818;stroke-width:1;"/><polygon fill="#181818" points="1844.1491,113.9633,1837.3151,106.8713,1839.5164,112.0823,1834.3055,114.2836,1844.1491,113.9633" style="stroke:#181818;stroke-width:1;"/></g><!--link n0 to n6--><g class="link" data-entity-1="n0" data-entity-2="n6" data-source-line="42" data-uid="lnk39" id="link_n0_n6"><path d="M1081.3673,34.5338 C1019.0879,44.4449 926.9544,64.8667 856,105 C824.8112,122.641 829.2734,143.5092 798,161 C704.6712,213.1976 663.0976,178.4357 565,221 C522.472,239.4528 518.9468,257.2617 477,277 C457.6331,286.1132 346.5959,321.1204 272.484,344.1491" fill="none" id="n0-to-n6" style="stroke:#181818;stroke-width:1;"/><polygon fill="#181818" points="266.7542,345.9295,276.5358,347.0787,271.529,344.4458,274.1619,339.4391,266.7542,345.9295" style="stroke:#181818;stroke-width:1;"/></g><!--link n0 to n7--><g class="link" data-entity-1="n0" data-entity-2="n7" data-source-line="43" data-uid="lnk40" id="link_n0_n7"><path d="M1220.5333,32.38 C1320.7382,42.5232 1511.0645,65.3481 1669,105 C1677.7502,107.1969 1681.2035,108.0753 1690.0396,111.0196" fill="none" id="n0-to-n7" style="stroke:#181818;stroke-width:1;"/><polygon fill="#181818" points="1695.7319,112.9163,1688.4579,106.2763,1690.9883,111.3357,1685.9289,113.866,1695.7319,112.9163" style="stroke:#181818;stroke-width:1;"/></g><!--link n0 to n8--><g class="link" data-entity-1="n0" data-entity-2="n8" data-source-line="44" data-uid="lnk41" id="link_n0_n8"><path d="M1212.8072,45.0424 C1294.7261,72.7988 1440.0656,131.0722 1536,221 C1573.4828,256.1359 1603.6745,300.9063 1622.5488,331.7889" fill="none" id="n0-to-n8" style="stroke:#181818;stroke-width:1;"/><polygon fill="#181818" points="1625.6777,336.9085,1624.3974,327.1432,1623.0703,332.6422,1617.5713,331.3151,1625.6777,336.9085" style="stroke:#181818;stroke-width:1;"/></g><!--link n0 to n9--><g class="link" data-entity-1="n0" data-entity-2="n9" data-source-line="45" data-uid="lnk42" id="link_n0_n9"><path d="M1220.7343,27.6777 C1360.5533,32.1821 1684.5072,48.37 1950,105 C1955.8633,106.2506 1956.1109,106.1556 1962.1145,107.8329" fill="none" id="n0-to-n9" style="stroke:#181818;stroke-width:1;"/><polygon fill="#181818" points="1967.8932,109.4474,1960.3014,103.1732,1963.0776,108.102,1958.1488,110.8782,1967.8932,109.4474" style="stroke:#181818;stroke-width:1;"/></g><!--link n0 to n10--><g class="link" data-entity-1="n0" data-entity-2="n10" data-source-line="46" data-uid="lnk43" id="link_n0_n10"><path d="M1129.0101,45.1295 C1106.7599,64.4853 1077.0713,90.3119 1054.7411,109.7374" fill="none" id="n0-to-n10" style="stroke:#181818;stroke-width:1;"/><polygon fill="#181818" points="1050.2143,113.6754,1059.6299,110.7863,1053.9867,110.3937,1054.3792,104.7505,1050.2143,113.6754" style="stroke:#181818;stroke-width:1;"/></g><!--link n0 to n11--><g class="link" data-entity-1="n0" data-entity-2="n11" data-source-line="47" data-uid="lnk44" id="link_n0_n11"><path d="M1189.017,45.077 C1218.1696,60.1955 1259.0333,82.4599 1293,105 C1354.3457,145.7085 1416.6309,197.181 1450.3436,225.9593" fill="none" id="n0-to-n11" style="stroke:#181818;stroke-width:1;"/><polygon fill="#181818" points="1454.907,229.8548,1450.6588,220.9692,1451.1041,226.6085,1445.4648,227.0538,1454.907,229.8548" style="stroke:#181818;stroke-width:1;"/></g><!--link n0 to n12--><g class="link" data-entity-1="n0" data-entity-2="n12" data-source-line="48" data-uid="lnk45" id="link_n0_n12"><path d="M1220.5925,30.8759 C1330.77,39.8007 1538.9408,61.9344 1598,105 C1640.5978,136.062 1659.9553,192.4847 1668.1459,223.984" fill="none" id="n0-to-n12" style="stroke:#181818;stroke-width:1;"/><polygon fill="#181818" points="1669.6558,229.7909,1671.2622,220.0739,1668.3975,224.9518,1663.5196,222.0872,1669.6558,229.7909" style="stroke:#181818;stroke-width:1;"/></g><!--link n0 to n13--><g class="link" data-entity-1="n0" data-entity-2="n13" data-source-line="49" data-uid="lnk46" id="link_n0_n13"><path d="M1158.0703,45.2842 C1163.7153,61.1605 1171.5544,84.3358 1177,105 C1198.9361,188.2395 1215.5965,282.683 1223.5094,330.7382" fill="none" id="n0-to-n13" style="stroke:#181818;stroke-width:1;"/><polygon fill="#181818" points="1224.4842,336.6585,1226.9688,327.1282,1223.6718,331.7249,1219.0751,328.428,1224.4842,336.6585" style="stroke:#181818;stroke-width:1;"/></g><!--link n0 to n14--><g class="link" data-entity-1="n0" data-entity-2="n14" data-source-line="50" data-uid="lnk47" id="link_n0_n14"><path d="M1081.0999,33.0961 C982.7863,43.9373 798.5059,67.4153 645,105 C634.9555,107.4593 630.0995,108.7403 619.9999,112.0088" fill="none" id="n0-to-n14" style="stroke:#181818;stroke-width:1;"/><polygon fill="#181818" points="614.2914,113.8562,624.0858,114.8907,619.0485,112.3167,621.6225,107.2794,614.2914,113.8562" style="stroke:#181818;stroke-width:1;"/></g><!--link n0 to n15--><g class="link" data-entity-1="n0" data-entity-2="n15" data-source-line="51" data-uid="lnk48" id="link_n0_n15"><path d="M1081.43,27.75 C886.1146,33.2917 343.0212,53.2467 283,105 C249.8759,133.5613 245.1891,181.6918 245.8599,214.8367" fill="none" id="n0-to-n15" style="stroke:#181818;stroke-width:1;"/><polygon fill="#181818" points="245.9813,220.8355,249.7984,211.7564,245.8801,215.8365,241.8,211.9183,245.9813,220.8355" style="stroke:#181818;stroke-width:1;"/></g><!--link n0 to n16--><g class="link" data-entity-1="n0" data-entity-2="n16" data-source-line="52" data-uid="lnk49" id="link_n0_n16"><path d="M1150.9695,45.2086 C1150.3396,88.098 1145.6416,194.3803 1116,277 C1108.3125,298.4273 1098.3862,315.3249 1086.8839,331.8795" fill="none" id="n0-to-n16" style="stroke:#181818;stroke-width:1;"/><polygon fill="#181818" points="1083.4603,336.8069,1091.8806,331.6982,1086.3133,332.7008,1085.3108,327.1334,1083.4603,336.8069" style="stroke:#181818;stroke-width:1;"/></g><!--link n0 to n17--><g class="link" data-entity-1="n0" data-entity-2="n17" data-source-line="53" data-uid="lnk50" id="link_n0_n17"><path d="M1179.436,45.2876 C1199.9826,60.0969 1227.5957,81.8741 1248,105 C1280.0856,141.3652 1305.3168,185.1374 1321.2422,215.5826" fill="none" id="n0-to-n17" style="stroke:#181818;stroke-width:1;"/><polygon fill="#181818" points="1324.0232,220.8992,1323.3961,211.0703,1321.7057,216.4687,1316.3073,214.7783,1324.0232,220.8992" style="stroke:#181818;stroke-width:1;"/></g><!--link n1 to n15--><g class="link" data-entity-1="n1" data-entity-2="n15" data-source-line="54" data-uid="lnk51" id="link_n1_n15"><path d="M125.2741,152.155 C149.0043,170.8809 180.6943,195.888 207.6965,217.1959" fill="none" id="n1-to-n15" style="stroke:#181818;stroke-width:1;"/><polygon fill="#181818" points="212.4066,220.9127,207.8193,212.1974,208.4815,217.8153,202.8635,218.4775,212.4066,220.9127" style="stroke:#181818;stroke-width:1;"/></g><!--link n2 to n18--><g class="link" data-entity-1="n2" data-entity-2="n18" data-source-line="55" data-uid="lnk52" id="link_n2_n18"><path d="M384.798,152.155 C389.0595,173.648 394.7655,202.4265 399.0294,223.9311" fill="none" id="n2-to-n18" style="stroke:#181818;stroke-width:1;"/><polygon fill="#181818" points="400.1964,229.8165,402.3696,220.2104,399.2239,224.912,394.5224,221.7663,400.1964,229.8165" style="stroke:#181818;stroke-width:1;"/></g><!--link n2 to n15--><g class="link" data-entity-1="n2" data-entity-2="n15" data-source-line="56" data-uid="lnk53" id="link_n2_n15"><path d="M359.0378,152.155 C337.5676,170.8809 309.156,195.661 284.7253,216.9689" fill="none" id="n2-to-n15" style="stroke:#181818;stroke-width:1;"/><polygon fill="#181818" points="280.2035,220.9127,289.6154,218.0115,283.9716,217.6262,284.357,211.9825,280.2035,220.9127" style="stroke:#181818;stroke-width:1;"/></g><!--link n4 to n19--><g class="link" data-entity-1="n4" data-entity-2="n19" data-source-line="57" data-uid="lnk54" id="link_n4_n19"><path d="M610.1775,268.0251 C562.8438,289.5573 491.65,321.9436 444.3069,343.4801" fill="none" id="n4-to-n19" style="stroke:#181818;stroke-width:1;"/><polygon fill="#181818" points="438.8454,345.9645,448.6939,345.8788,443.3966,343.8941,445.3813,338.5969,438.8454,345.9645" style="stroke:#181818;stroke-width:1;"/></g><!--link n4 to n6--><g class="link" data-entity-1="n4" data-entity-2="n6" data-source-line="58" data-uid="lnk55" id="link_n4_n6"><path d="M587.6882,268.0606 C576.8043,271.1438 565.5989,274.2301 555,277 C441.9362,306.5478 411.9375,306.9729 299,337 C288.6325,339.7564 283.4348,341.1716 272.8055,344.2724" fill="none" id="n4-to-n6" style="stroke:#181818;stroke-width:1;"/><polygon fill="#181818" points="267.0456,345.9527,276.8057,347.2722,271.8455,344.5525,274.5653,339.5923,267.0456,345.9527" style="stroke:#181818;stroke-width:1;"/></g><!--link n4 to n20--><g class="link" data-entity-1="n4" data-entity-2="n20" data-source-line="59" data-uid="lnk56" id="link_n4_n20"><path d="M640.9363,268.155 C630.1577,286.8166 616.6448,310.2119 604.3508,331.4972" fill="none" id="n4-to-n20" style="stroke:#181818;stroke-width:1;"/><polygon fill="#181818" points="601.3499,336.6928,609.315,330.9,603.8507,332.3631,602.3875,326.8988,601.3499,336.6928" style="stroke:#181818;stroke-width:1;"/></g><!--link n4 to n21--><g class="link" data-entity-1="n4" data-entity-2="n21" data-source-line="60" data-uid="lnk57" id="link_n4_n21"><path d="M669.1735,268.155 C685.9045,286.8166 707.5325,310.9401 726.6158,332.2254" fill="none" id="n4-to-n21" style="stroke:#181818;stroke-width:1;"/><polygon fill="#181818" points="730.6211,336.6928,727.5915,327.3215,727.2834,332.9699,721.6349,332.6618,730.6211,336.6928" style="stroke:#181818;stroke-width:1;"/></g><!--link n7 to n22--><g class="link" data-entity-1="n7" data-entity-2="n22" data-source-line="61" data-uid="lnk58" id="link_n7_n22"><path d="M1777.7114,161.238 C1814.9099,198.2118 1878.0964,266.6378 1914,337 C1933.6244,375.4591 1942.4612,419.7712 1946.5739,446.8183" fill="none" id="n7-to-n22" style="stroke:#181818;stroke-width:1;"/><polygon fill="#181818" points="1947.4759,452.7501,1950.0775,443.2511,1946.7243,447.8069,1942.1684,444.4537,1947.4759,452.7501" style="stroke:#181818;stroke-width:1;"/></g><!--link n10 to n4--><g class="link" data-entity-1="n10" data-entity-2="n4" data-source-line="62" data-uid="lnk59" id="link_n10_n4"><path d="M964.4857,152.0256 C905.8715,169.658 816.4546,196.7453 739,221 C729.9148,223.845 726.0239,225.0662 716.6409,228.0681" fill="none" id="n10-to-n4" style="stroke:#181818;stroke-width:1;"/><polygon fill="#181818" points="710.9262,229.8964,720.7171,230.9637,715.6884,228.3728,718.2793,223.3442,710.9262,229.8964" style="stroke:#181818;stroke-width:1;"/></g><!--link n10 to n11--><g class="link" data-entity-1="n10" data-entity-2="n11" data-source-line="63" data-uid="lnk60" id="link_n10_n11"><path d="M1097.6191,143.9145 C1176.6454,157.398 1308.7617,183.2761 1418,221 C1425.2875,223.5166 1427.4053,224.1867 1434.6066,227.4638" fill="none" id="n10-to-n11" style="stroke:#181818;stroke-width:1;"/><polygon fill="#181818" points="1440.0677,229.949,1433.5328,222.5805,1435.5168,227.878,1430.2192,229.862,1440.0677,229.949" style="stroke:#181818;stroke-width:1;"/></g><!--link n10 to n23--><g class="link" data-entity-1="n10" data-entity-2="n23" data-source-line="64" data-uid="lnk61" id="link_n10_n23"><path d="M997.6161,152.155 C967.913,170.8809 927.4266,196.405 893.6279,217.7129" fill="none" id="n10-to-n23" style="stroke:#181818;stroke-width:1;"/><polygon fill="#181818" points="888.5523,220.9127,898.2988,219.4967,892.7819,218.2462,894.0324,212.7293,888.5523,220.9127" style="stroke:#181818;stroke-width:1;"/></g><!--link n10 to n24--><g class="link" data-entity-1="n10" data-entity-2="n24" data-source-line="65" data-uid="lnk62" id="link_n10_n24"><path d="M1028.6605,152.155 C1029.304,170.8166 1030.0831,193.4111 1030.8171,214.6964" fill="none" id="n10-to-n24" style="stroke:#181818;stroke-width:1;"/><polygon fill="#181818" points="1031.0239,220.6928,1034.7114,211.5603,1030.8516,215.6958,1026.7161,211.836,1031.0239,220.6928" style="stroke:#181818;stroke-width:1;"/></g><!--link n11 to n25--><g class="link" data-entity-1="n11" data-entity-2="n25" data-source-line="66" data-uid="lnk63" id="link_n11_n25"><path d="M1476.0092,268.155 C1475.044,286.8166 1473.875,309.4155 1472.7741,330.7008" fill="none" id="n11-to-n25" style="stroke:#181818;stroke-width:1;"/><polygon fill="#181818" points="1472.4642,336.6928,1476.9237,327.9114,1472.7225,331.6995,1468.9344,327.4982,1472.4642,336.6928" style="stroke:#181818;stroke-width:1;"/></g><!--link n11 to n8--><g class="link" data-entity-1="n11" data-entity-2="n8" data-source-line="67" data-uid="lnk64" id="link_n11_n8"><path d="M1504.2464,268.155 C1530.8823,286.8809 1566.8312,312.154 1597.1398,333.4619" fill="none" id="n11-to-n8" style="stroke:#181818;stroke-width:1;"/><polygon fill="#181818" points="1602.0482,336.9127,1596.9861,328.4643,1597.9579,334.0371,1592.3851,335.0088,1602.0482,336.9127" style="stroke:#181818;stroke-width:1;"/></g><!--link n12 to n26--><g class="link" data-entity-1="n12" data-entity-2="n26" data-source-line="68" data-uid="lnk65" id="link_n12_n26"><path d="M1698.1089,268.155 C1721.6777,286.8809 1753.1325,311.8723 1779.951,333.1802" fill="none" id="n12-to-n26" style="stroke:#181818;stroke-width:1;"/><polygon fill="#181818" points="1784.6487,336.9127,1780.0904,328.1822,1780.7339,333.8023,1775.1138,334.4458,1784.6487,336.9127" style="stroke:#181818;stroke-width:1;"/></g><!--link n12 to n8--><g class="link" data-entity-1="n12" data-entity-2="n8" data-source-line="69" data-uid="lnk66" id="link_n12_n8"><path d="M1668.7159,268.155 C1663.5678,286.8166 1657.2763,309.6235 1651.4045,330.9088" fill="none" id="n12-to-n8" style="stroke:#181818;stroke-width:1;"/><polygon fill="#181818" points="1649.8089,336.6928,1656.0582,329.0806,1651.1385,331.8728,1648.3463,326.9532,1649.8089,336.6928" style="stroke:#181818;stroke-width:1;"/></g><!--link n14 to n18--><g class="link" data-entity-1="n14" data-entity-2="n18" data-source-line="70" data-uid="lnk67" id="link_n14_n18"><path d="M535.9095,152.155 C506.6347,173.648 464.2564,204.7611 434.9657,226.2657" fill="none" id="n14-to-n18" style="stroke:#181818;stroke-width:1;"/><polygon fill="#181818" points="430.1292,229.8165,439.7511,227.7146,434.1596,226.8575,435.0167,221.2659,430.1292,229.8165" style="stroke:#181818;stroke-width:1;"/></g><!--link n16 to n27--><g class="link" data-entity-1="n16" data-entity-2="n27" data-source-line="71" data-uid="lnk68" id="link_n16_n27"><path d="M1030.7342,393.113 C1009.7999,411.9362 987.257,432.2059 968.7707,448.828" fill="none" id="n16-to-n27" style="stroke:#181818;stroke-width:1;"/><polygon fill="#181818" points="964.3091,452.8397,973.676,449.7966,968.0271,449.4966,968.3271,443.8477,964.3091,452.8397" style="stroke:#181818;stroke-width:1;"/></g><!--link n17 to n13--><g class="link" data-entity-1="n17" data-entity-2="n13" data-source-line="72" data-uid="lnk69" id="link_n17_n13"><path d="M1311.6141,277.0804 C1294.6026,295.1844 1276.6674,314.2715 1259.6294,332.4037" fill="none" id="n17-to-n13" style="stroke:#181818;stroke-width:1;"/><polygon fill="#181818" points="1255.5207,336.7762,1264.5987,332.9565,1258.9446,333.1324,1258.7687,327.4783,1255.5207,336.7762" style="stroke:#181818;stroke-width:1;"/></g><!--link n17 to n27--><g class="link" data-entity-1="n17" data-entity-2="n27" data-source-line="73" data-uid="lnk70" id="link_n17_n27"><path d="M1341.6247,277.171 C1344.0963,309.5544 1342.6456,362.1919 1313,393 C1267.9684,439.7976 1077.7079,460.9252 990.7354,468.3493" fill="none" id="n17-to-n27" style="stroke:#181818;stroke-width:1;"/><polygon fill="#181818" points="984.7571,468.8596,994.0647,472.0796,989.739,468.4343,993.3843,464.1086,984.7571,468.8596" style="stroke:#181818;stroke-width:1;"/></g><!--link n19 to n28--><g class="link" data-entity-1="n19" data-entity-2="n28" data-source-line="74" data-uid="lnk71" id="link_n19_n28"><path d="M397,384.1295 C397,403.4853 397,427.2499 397,446.6754" fill="none" id="n19-to-n28" style="stroke:#181818;stroke-width:1;"/><polygon fill="#181818" points="397,452.6754,401,443.6754,397,447.6754,393,443.6754,397,452.6754" style="stroke:#181818;stroke-width:1;"/></g><!--link n21 to n27--><g class="link" data-entity-1="n21" data-entity-2="n27" data-source-line="75" data-uid="lnk72" id="link_n21_n27"><path d="M805.132,393.113 C838.0287,411.9362 875.2567,433.2378 904.3065,449.8599" fill="none" id="n21-to-n27" style="stroke:#181818;stroke-width:1;"/><polygon fill="#181818" points="909.5142,452.8397,903.6891,444.8981,905.1744,450.3565,899.716,451.8418,909.5142,452.8397" style="stroke:#181818;stroke-width:1;"/></g><!--link n22 to n29--><g class="link" data-entity-1="n22" data-entity-2="n29" data-source-line="76" data-uid="lnk73" id="link_n22_n29"><path d="M1938.2005,491.1295 C1926.2614,510.4853 1911.0518,535.1432 1899.0698,554.5687" fill="none" id="n22-to-n29" style="stroke:#181818;stroke-width:1;"/><polygon fill="#181818" points="1895.9199,559.6754,1904.0492,554.1153,1898.5448,555.4198,1897.2403,549.9155,1895.9199,559.6754" style="stroke:#181818;stroke-width:1;"/></g><!--link n23 to n27--><g class="link" data-entity-1="n23" data-entity-2="n27" data-source-line="77" data-uid="lnk74" id="link_n23_n27"><path d="M856.5384,277.2431 C876.9863,323.3025 914.55,407.9158 932.0384,447.3087" fill="none" id="n23-to-n27" style="stroke:#181818;stroke-width:1;"/><polygon fill="#181818" points="934.473,452.7926,934.4771,442.9437,932.4442,448.2227,927.1652,446.1898,934.473,452.7926" style="stroke:#181818;stroke-width:1;"/></g><!--link n24 to n13--><g class="link" data-entity-1="n24" data-entity-2="n13" data-source-line="78" data-uid="lnk75" id="link_n24_n13"><path d="M1079.6882,277.0804 C1110.5476,295.2514 1145.3996,315.7734 1176.2396,333.933" fill="none" id="n24-to-n13" style="stroke:#181818;stroke-width:1;"/><polygon fill="#181818" points="1181.4099,336.9774,1175.6841,328.9639,1177.1014,334.4404,1171.6249,335.8576,1181.4099,336.9774" style="stroke:#181818;stroke-width:1;"/></g><!--link n24 to n27--><g class="link" data-entity-1="n24" data-entity-2="n27" data-source-line="79" data-uid="lnk76" id="link_n24_n27"><path d="M1012.1886,277.2392 C1001.1681,293.9856 987.9181,315.9856 979,337 C962.2275,376.5223 952.555,420.0332 947.4935,446.7624" fill="none" id="n24-to-n27" style="stroke:#181818;stroke-width:1;"/><polygon fill="#181818" points="946.3772,452.6576,951.9819,444.559,947.3075,447.7449,944.1215,443.0705,946.3772,452.6576" style="stroke:#181818;stroke-width:1;"/></g><!--link n25 to n30--><g class="link" data-entity-1="n25" data-entity-2="n30" data-source-line="80" data-uid="lnk77" id="link_n25_n30"><path d="M1540.6274,387.239 C1546.8373,389.1968 1553.0304,391.1399 1559,393 C1625.7623,413.8023 1696.6411,435.3656 1749.1242,451.2374" fill="none" id="n25-to-n30" style="stroke:#181818;stroke-width:1;"/><polygon fill="#181818" points="1754.8673,452.9742,1747.4105,446.5402,1750.0814,451.5269,1745.0947,454.1977,1754.8673,452.9742" style="stroke:#181818;stroke-width:1;"/></g><!--link n26 to n30--><g class="link" data-entity-1="n26" data-entity-2="n30" data-source-line="81" data-uid="lnk78" id="link_n26_n30"><path d="M1819.4745,393.113 C1819.1227,411.9362 1818.7809,430.2186 1818.4702,446.8407" fill="none" id="n26-to-n30" style="stroke:#181818;stroke-width:1;"/><polygon fill="#181818" points="1818.3581,452.8397,1822.5256,443.916,1818.4515,447.8406,1814.527,443.7665,1818.3581,452.8397" style="stroke:#181818;stroke-width:1;"/></g><!--link n28 to n31--><g class="link" data-entity-1="n28" data-entity-2="n31" data-source-line="82" data-uid="lnk79" id="link_n28_n31"><path d="M397,491.1295 C397,507.7202 397,525.9582 397,544.7777" fill="none" id="n28-to-n31" style="stroke:#181818;stroke-width:1;"/><polygon fill="#181818" points="397,550.7777,401,541.7777,397,545.7777,393,541.7777,397,550.7777" style="stroke:#181818;stroke-width:1;"/></g><!--link n30 to n29--><g class="link" data-entity-1="n30" data-entity-2="n29" data-source-line="83" data-uid="lnk80" id="link_n30_n29"><path d="M1829.7995,491.1295 C1841.7386,510.4853 1856.9482,535.1432 1868.9302,554.5687" fill="none" id="n30-to-n29" style="stroke:#181818;stroke-width:1;"/><polygon fill="#181818" points="1872.0801,559.6754,1870.7597,549.9155,1869.4552,555.4198,1863.9508,554.1153,1872.0801,559.6754" style="stroke:#181818;stroke-width:1;"/></g><!--SRC=[TLHDZziW4BtlhuYsbpRIji5nd4HQxQ6zzYTKGgoPn6niS05lalxwZWq6Eo4dFyyyvkiDl1fxhU7jwVM71-OaPCiqQnRlh3mTjUea_wLgfHTMCsdG1T8-QIWjaySQ5i_B9VvyKbjfO9mUEbakbyyBPXPojVZoMnmh-xFkO7gYhA0yKIOvxLhEB503nWWbtIboJws0rRQYLZIWEkjesJtDw98ophKZhAS4hfcGT2ZqB2HNPyV9fvmZMDeOsYYfd7SpzKfbnU4wbi9gyGcELKnPBSuCm-2K3FoHNztlz_AResuJrBFGE03nBq7VpUZAQigXrDVM8dNuAbeBsLt2WVtiW5ObpfNYn43JzkJdHbPJaW5KGM9QxoHtJWqVQF7kREx-Axk6ubpTIB4gPmhra9a6NkoMuVnw9Jndfe6BX355twJxY-4s2UgWAIvjc-0N2VxG54gTe6_ljW5NmIefIa-O2SAXtm6SBBlM2ZSVQcWyRv_GkPCze18kzbxfRFMeirOb6ijcCachgYBtdknH80d0pI1r8jxwOVhEL0b-dcZmlHCr7nFSzhTvUC3jL-B8hNYu51mktZcJQgZKo-7zCwKgr30CQARDGTJr-FhGAhmSgzJ5KqshaTdVFGzlRj-QFE6Jz_BorhzX8ye2MWUK1xG9g0Xe6z0ke7sCl8fmaY-c8J4FYOb8p4HYAjnuII8Xyt0N8Lfp3_S15W7XtWQ8rMmzn6f8x9LCwXqnRbp4FSUNWOiIC9P1V1su307tvZnMIWfFwNlPnXcCUB3lFUux8z6UZU6njsmziUSnpeW7-yPBYMrdnGJlFCOErsDN-_y0]--></g></svg>