<svg xmlns="http://www.w3.org/2000/svg" xmlns:xlink="http://www.w3.org/1999/xlink" contentStyleType="text/css" data-diagram-type="DESCRIPTION" height="540px" preserveAspectRatio="none" style="width:1271px;height:540px;" version="1.1" viewBox="0 0 1271 540" width="1271px" zoomAndPan="magnify"><defs/><g><!--entity n7--><g class="entity" data-entity="n7" data-source-line="5" data-uid="ent0002" id="entity_n7"><rect fill="#F1F1F1" height="37.7799" rx="2.5" ry="2.5" style="stroke:#181818;stroke-width:0.5;" width="117.9996" x="188" y="7"/><text fill="#000000" font-family="'Segoe UI', 'メイリオ', 'UDEV Gothic HSRFJPDOC', 'Hiragino Kaku Gothic ProN', 'ヒラギノ角ゴ ProN', 'Noto Sans JP', 'Helvetica Neue', Helvetica, Arial, sans-serif" font-size="14" lengthAdjust="spacing" textLength="97.9996" x="198" y="30.9999">porter_const.h</text></g><!--entity n9--><g class="entity" data-entity="n9" data-source-line="6" data-uid="ent0003" id="entity_n9"><rect fill="#F1F1F1" height="37.7799" rx="2.5" ry="2.5" style="stroke:#181818;stroke-width:0.5;" width="110.9996" x="279.5" y="105"/><text fill="#000000" font-family="'Segoe UI', 'メイリオ', 'UDEV Gothic HSRFJPDOC', 'Hiragino Kaku Gothic ProN', 'ヒラギノ角ゴ ProN', 'Noto Sans JP', 'Helvetica Neue', Helvetica, Arial, sans-serif" font-size="14" lengthAdjust="spacing" textLength="90.9996" x="289.5" y="128.9999">porter_type.h</text></g><!--entity n13--><g class="entity" data-entity="n13" data-source-line="7" data-uid="ent0004" id="entity_n13"><rect fill="#F1F1F1" height="37.7799" rx="2.5" ry="2.5" style="stroke:#181818;stroke-width:0.5;" width="89.9997" x="426" y="105"/><text fill="#000000" font-family="'Segoe UI', 'メイリオ', 'UDEV Gothic HSRFJPDOC', 'Hiragino Kaku Gothic ProN', 'ヒラギノ角ゴ ProN', 'Noto Sans JP', 'Helvetica Neue', Helvetica, Arial, sans-serif" font-size="14" lengthAdjust="spacing" textLength="69.9997" x="436" y="128.9999">compress.h</text></g><!--entity n14--><g class="entity" data-entity="n14" data-source-line="8" data-uid="ent0005" id="entity_n14"><rect fill="#F1F1F1" height="37.7799" rx="2.5" ry="2.5" style="stroke:#181818;stroke-width:0.5;" width="75.9998" x="741" y="105"/><text fill="#000000" font-family="'Segoe UI', 'メイリオ', 'UDEV Gothic HSRFJPDOC', 'Hiragino Kaku Gothic ProN', 'ヒラギノ角ゴ ProN', 'Noto Sans JP', 'Helvetica Neue', Helvetica, Arial, sans-serif" font-size="14" lengthAdjust="spacing" textLength="55.9998" x="751" y="128.9999">crypto.h</text></g><!--entity n18--><g class="entity" data-entity="n18" data-source-line="9" data-uid="ent0006" id="entity_n18"><rect fill="#F1F1F1" height="37.7799" rx="2.5" ry="2.5" style="stroke:#181818;stroke-width:0.5;" width="82.9997" x="206.5" y="301"/><text fill="#000000" font-family="'Segoe UI', 'メイリオ', 'UDEV Gothic HSRFJPDOC', 'Hiragino Kaku Gothic ProN', 'ヒラギノ角ゴ ProN', 'Noto Sans JP', 'Helvetica Neue', Helvetica, Arial, sans-serif" font-size="14" lengthAdjust="spacing" textLength="62.9997" x="216.5" y="324.9999">potrLog.h</text></g><!--entity n15--><g class="entity" data-entity="n15" data-source-line="10" data-uid="ent0007" id="entity_n15"><rect fill="#F1F1F1" height="37.7799" rx="2.5" ry="2.5" style="stroke:#181818;stroke-width:0.5;" width="124.9995" x="241.5" y="203"/><text fill="#000000" font-family="'Segoe UI', 'メイリオ', 'UDEV Gothic HSRFJPDOC', 'Hiragino Kaku Gothic ProN', 'ヒラギノ角ゴ ProN', 'Noto Sans JP', 'Helvetica Neue', Helvetica, Arial, sans-serif" font-size="14" lengthAdjust="spacing" textLength="104.9995" x="251.5" y="226.9999">potrSendQueue.h</text></g><!--entity n8--><g class="entity" data-entity="n8" data-source-line="11" data-uid="ent0008" id="entity_n8"><rect fill="#F1F1F1" height="37.7799" rx="2.5" ry="2.5" style="stroke:#181818;stroke-width:0.5;" width="110.9996" x="435.5" y="301"/><text fill="#000000" font-family="'Segoe UI', 'メイリオ', 'UDEV Gothic HSRFJPDOC', 'Hiragino Kaku Gothic ProN', 'ヒラギノ角ゴ ProN', 'Noto Sans JP', 'Helvetica Neue', Helvetica, Arial, sans-serif" font-size="14" lengthAdjust="spacing" textLength="90.9996" x="445.5" y="324.9999">potrContext.h</text></g><!--entity n17--><g class="entity" data-entity="n17" data-source-line="12" data-uid="ent0009" id="entity_n17"><rect fill="#F1F1F1" height="37.7799" rx="2.5" ry="2.5" style="stroke:#181818;stroke-width:0.5;" width="75.9998" x="911" y="203"/><text fill="#000000" font-family="'Segoe UI', 'メイリオ', 'UDEV Gothic HSRFJPDOC', 'Hiragino Kaku Gothic ProN', 'ヒラギノ角ゴ ProN', 'Noto Sans JP', 'Helvetica Neue', Helvetica, Arial, sans-serif" font-size="14" lengthAdjust="spacing" textLength="55.9998" x="921" y="226.9999">packet.h</text></g><!--entity n12--><g class="entity" data-entity="n12" data-source-line="13" data-uid="ent0010" id="entity_n12"><rect fill="#F1F1F1" height="37.7799" rx="2.5" ry="2.5" style="stroke:#181818;stroke-width:0.5;" width="75.9998" x="59" y="203"/><text fill="#000000" font-family="'Segoe UI', 'メイリオ', 'UDEV Gothic HSRFJPDOC', 'Hiragino Kaku Gothic ProN', 'ヒラギノ角ゴ ProN', 'Noto Sans JP', 'Helvetica Neue', Helvetica, Arial, sans-serif" font-size="14" lengthAdjust="spacing" textLength="55.9998" x="69" y="226.9999">window.h</text></g><!--entity n1--><g class="entity" data-entity="n1" data-source-line="14" data-uid="ent0011" id="entity_n1"><rect fill="#ADD8E6" height="37.7799" rx="2.5" ry="2.5" style="stroke:#181818;stroke-width:0.5;" width="138.9995" x="646.5" y="497"/><text fill="#000000" font-family="'Segoe UI', 'メイリオ', 'UDEV Gothic HSRFJPDOC', 'Hiragino Kaku Gothic ProN', 'ヒラギノ角ゴ ProN', 'Noto Sans JP', 'Helvetica Neue', Helvetica, Arial, sans-serif" font-size="14" font-weight="bold" lengthAdjust="spacing" textLength="118.9995" x="656.5" y="520.9999">potrSendThread.c</text></g><!--entity n16--><g class="entity" data-entity="n16" data-source-line="15" data-uid="ent0012" id="entity_n16"><rect fill="#F1F1F1" height="37.7799" rx="2.5" ry="2.5" style="stroke:#181818;stroke-width:0.5;" width="131.9995" x="531" y="399"/><text fill="#000000" font-family="'Segoe UI', 'メイリオ', 'UDEV Gothic HSRFJPDOC', 'Hiragino Kaku Gothic ProN', 'ヒラギノ角ゴ ProN', 'Noto Sans JP', 'Helvetica Neue', Helvetica, Arial, sans-serif" font-size="14" lengthAdjust="spacing" textLength="111.9995" x="541" y="422.9999">potrSendThread.h</text></g><!--entity n4--><g class="entity" data-entity="n4" data-source-line="16" data-uid="ent0013" id="entity_n4"><rect fill="#F1F1F1" height="37.7799" rx="2.5" ry="2.5" style="stroke:#181818;stroke-width:0.5;" width="47.9999" x="686" y="203"/><text fill="#000000" font-family="'Segoe UI', 'メイリオ', 'UDEV Gothic HSRFJPDOC', 'Hiragino Kaku Gothic ProN', 'ヒラギノ角ゴ ProN', 'Noto Sans JP', 'Helvetica Neue', Helvetica, Arial, sans-serif" font-size="14" lengthAdjust="spacing" textLength="27.9999" x="696" y="226.9999">in.h</text></g><!--entity n2--><g class="entity" data-entity="n2" data-source-line="17" data-uid="ent0014" id="entity_n2"><rect fill="#F1F1F1" height="37.7799" rx="2.5" ry="2.5" style="stroke:#181818;stroke-width:0.5;" width="82.9997" x="622.5" y="105"/><text fill="#000000" font-family="'Segoe UI', 'メイリオ', 'UDEV Gothic HSRFJPDOC', 'Hiragino Kaku Gothic ProN', 'ヒラギノ角ゴ ProN', 'Noto Sans JP', 'Helvetica Neue', Helvetica, Arial, sans-serif" font-size="14" lengthAdjust="spacing" textLength="62.9997" x="632.5" y="128.9999">pthread.h</text></g><!--entity n10--><g class="entity" data-entity="n10" data-source-line="18" data-uid="ent0015" id="entity_n10"><rect fill="#F1F1F1" height="37.7799" rx="2.5" ry="2.5" style="stroke:#181818;stroke-width:0.5;" width="75.9998" x="537" y="7"/><text fill="#000000" font-family="'Segoe UI', 'メイリオ', 'UDEV Gothic HSRFJPDOC', 'Hiragino Kaku Gothic ProN', 'ヒラギノ角ゴ ProN', 'Noto Sans JP', 'Helvetica Neue', Helvetica, Arial, sans-serif" font-size="14" lengthAdjust="spacing" textLength="55.9998" x="547" y="30.9999">stddef.h</text></g><!--entity n11--><g class="entity" data-entity="n11" data-source-line="19" data-uid="ent0016" id="entity_n11"><rect fill="#F1F1F1" height="37.7799" rx="2.5" ry="2.5" style="stroke:#181818;stroke-width:0.5;" width="75.9998" x="426" y="7"/><text fill="#000000" font-family="'Segoe UI', 'メイリオ', 'UDEV Gothic HSRFJPDOC', 'Hiragino Kaku Gothic ProN', 'ヒラギノ角ゴ ProN', 'Noto Sans JP', 'Helvetica Neue', Helvetica, Arial, sans-serif" font-size="14" lengthAdjust="spacing" textLength="55.9998" x="436" y="30.9999">stdint.h</text></g><!--entity n6--><g class="entity" data-entity="n6" data-source-line="20" data-uid="ent0017" id="entity_n6"><rect fill="#F1F1F1" height="37.7799" rx="2.5" ry="2.5" style="stroke:#181818;stroke-width:0.5;" width="75.9998" x="982" y="399"/><text fill="#000000" font-family="'Segoe UI', 'メイリオ', 'UDEV Gothic HSRFJPDOC', 'Hiragino Kaku Gothic ProN', 'ヒラギノ角ゴ ProN', 'Noto Sans JP', 'Helvetica Neue', Helvetica, Arial, sans-serif" font-size="14" lengthAdjust="spacing" textLength="55.9998" x="992" y="422.9999">string.h</text></g><!--entity n3--><g class="entity" data-entity="n3" data-source-line="21" data-uid="ent0018" id="entity_n3"><rect fill="#F1F1F1" height="37.7799" rx="2.5" ry="2.5" style="stroke:#181818;stroke-width:0.5;" width="75.9998" x="1093" y="399"/><text fill="#000000" font-family="'Segoe UI', 'メイリオ', 'UDEV Gothic HSRFJPDOC', 'Hiragino Kaku Gothic ProN', 'ヒラギノ角ゴ ProN', 'Noto Sans JP', 'Helvetica Neue', Helvetica, Arial, sans-serif" font-size="14" lengthAdjust="spacing" textLength="55.9998" x="1103" y="422.9999">socket.h</text></g><!--entity n5--><g class="entity" data-entity="n5" data-source-line="22" data-uid="ent0019" id="entity_n5"><rect fill="#F1F1F1" height="37.7799" rx="2.5" ry="2.5" style="stroke:#181818;stroke-width:0.5;" width="61.9998" x="1204" y="399"/><text fill="#000000" font-family="'Segoe UI', 'メイリオ', 'UDEV Gothic HSRFJPDOC', 'Hiragino Kaku Gothic ProN', 'ヒラギノ角ゴ ProN', 'Noto Sans JP', 'Helvetica Neue', Helvetica, Arial, sans-serif" font-size="14" lengthAdjust="spacing" textLength="41.9998" x="1214" y="422.9999">time.h</text></g><!--link n10 to n9--><g class="link" data-entity-1="n10" data-entity-2="n9" data-source-line="23" data-uid="lnk20" id="link_n10_n9"><path d="M536.9713,41.5284 C494.9397,58.6913 432.7621,84.0805 387.4681,102.5755" fill="none" id="n10-to-n9" style="stroke:#181818;stroke-width:1;"/><polygon fill="#181818" points="381.9133,104.8437,391.7576,105.1446,386.5423,102.9535,388.7333,97.7382,381.9133,104.8437" style="stroke:#181818;stroke-width:1;"/></g><!--link n11 to n9--><g class="link" data-entity-1="n11" data-entity-2="n9" data-source-line="24" data-uid="lnk21" id="link_n11_n9"><path d="M438.8213,45.128 C416.0911,62.3959 387.6034,84.0377 364.8929,101.2906" fill="none" id="n11-to-n9" style="stroke:#181818;stroke-width:1;"/><polygon fill="#181818" points="360.1152,104.9202,369.7014,102.661,364.0966,101.8956,364.862,96.2907,360.1152,104.9202" style="stroke:#181818;stroke-width:1;"/></g><!--link n7 to n9--><g class="link" data-entity-1="n7" data-entity-2="n9" data-source-line="25" data-uid="lnk22" id="link_n7_n9"><path d="M264.386,45.3616 C279.8136,62.5424 298.2248,83.0457 313.6414,100.2143" fill="none" id="n7-to-n9" style="stroke:#181818;stroke-width:1;"/><polygon fill="#181818" points="317.6501,104.6786,314.6132,95.3097,314.3095,100.9583,308.6608,100.6546,317.6501,104.6786" style="stroke:#181818;stroke-width:1;"/></g><!--link n10 to n13--><g class="link" data-entity-1="n10" data-entity-2="n13" data-source-line="26" data-uid="lnk23" id="link_n10_n13"><path d="M554.4529,45.3616 C536.2203,62.5424 514.0908,83.3952 495.8711,100.5638" fill="none" id="n10-to-n13" style="stroke:#181818;stroke-width:1;"/><polygon fill="#181818" points="491.5044,104.6786,500.7977,101.4175,495.1433,101.2496,495.3113,95.5952,491.5044,104.6786" style="stroke:#181818;stroke-width:1;"/></g><!--link n11 to n13--><g class="link" data-entity-1="n11" data-entity-2="n13" data-source-line="27" data-uid="lnk24" id="link_n11_n13"><path d="M465.383,45.3616 C466.6102,62.5424 467.9661,81.5252 469.1924,98.6938" fill="none" id="n11-to-n13" style="stroke:#181818;stroke-width:1;"/><polygon fill="#181818" points="469.6199,104.6786,472.9685,95.4165,469.2637,99.6913,464.9889,95.9865,469.6199,104.6786" style="stroke:#181818;stroke-width:1;"/></g><!--link n7 to n13--><g class="link" data-entity-1="n7" data-entity-2="n13" data-source-line="28" data-uid="lnk25" id="link_n7_n13"><path d="M290.4551,45.0116 C329.8956,62.2668 382.2656,85.1787 421.7871,102.4693" fill="none" id="n7-to-n13" style="stroke:#181818;stroke-width:1;"/><polygon fill="#181818" points="427.284,104.8742,420.6419,97.6022,422.7032,102.8701,417.4353,104.9315,427.284,104.8742" style="stroke:#181818;stroke-width:1;"/></g><!--link n10 to n14--><g class="link" data-entity-1="n10" data-entity-2="n14" data-source-line="29" data-uid="lnk26" id="link_n10_n14"><path d="M613.3708,44.4331 C649.8428,61.9539 698.9779,85.558 735.3929,103.0515" fill="none" id="n10-to-n14" style="stroke:#181818;stroke-width:1;"/><polygon fill="#181818" points="740.8012,105.6496,734.4208,98.1469,736.2943,103.4845,730.9567,105.358,740.8012,105.6496" style="stroke:#181818;stroke-width:1;"/></g><!--link n11 to n14--><g class="link" data-entity-1="n11" data-entity-2="n14" data-source-line="30" data-uid="lnk27" id="link_n11_n14"><path d="M502.091,39.4158 C507.7459,41.3327 513.515,43.247 519,45 C609.0212,73.7703 632.8997,76.4783 723,105 C728.7748,106.8281 729.1714,106.9217 735.1207,108.909" fill="none" id="n11-to-n14" style="stroke:#181818;stroke-width:1;"/><polygon fill="#181818" points="740.8116,110.81,733.5426,104.1646,736.0692,109.2258,731.0079,111.7525,740.8116,110.81" style="stroke:#181818;stroke-width:1;"/></g><!--link n7 to n14--><g class="link" data-entity-1="n7" data-entity-2="n14" data-source-line="31" data-uid="lnk28" id="link_n7_n14"><path d="M306.2569,32.6879 C396.9222,43.6248 575.1217,67.9041 723,105 C728.8752,106.4738 729.3,106.456 735.2732,108.3592" fill="none" id="n7-to-n14" style="stroke:#181818;stroke-width:1;"/><polygon fill="#181818" points="740.99,110.1807,733.6291,103.6372,736.226,108.6628,731.2004,111.2596,740.99,110.1807" style="stroke:#181818;stroke-width:1;"/></g><!--link n9 to n18--><g class="link" data-entity-1="n9" data-entity-2="n18" data-source-line="32" data-uid="lnk29" id="link_n9_n18"><path d="M290.476,143.0145 C266.0612,156.0331 237.9852,175.8811 224,203 C207.6533,234.6982 221.3337,271.2967 233.891,295.3935" fill="none" id="n9-to-n18" style="stroke:#181818;stroke-width:1;"/><polygon fill="#181818" points="236.6638,300.7144,236.0518,290.8846,234.3531,296.2803,228.9574,294.5816,236.6638,300.7144" style="stroke:#181818;stroke-width:1;"/></g><!--link n10 to n15--><g class="link" data-entity-1="n10" data-entity-2="n15" data-source-line="33" data-uid="lnk30" id="link_n10_n15"><path d="M573.1763,45.3167 C569.7423,71.0175 560.0252,116.3093 533,143 C488.2654,187.181 423.5983,205.7044 372.6127,214.3001" fill="none" id="n10-to-n15" style="stroke:#181818;stroke-width:1;"/><polygon fill="#181818" points="366.6962,215.2976,376.2359,217.7457,371.6266,214.4664,374.906,209.8571,366.6962,215.2976" style="stroke:#181818;stroke-width:1;"/></g><!--link n7 to n15--><g class="link" data-entity-1="n7" data-entity-2="n15" data-source-line="34" data-uid="lnk31" id="link_n7_n15"><path d="M247.351,45.0938 C248.2559,68.6369 251.3814,109.6301 262,143 C268.8767,164.6106 278.399,182.1736 288.038,197.6538" fill="none" id="n7-to-n15" style="stroke:#181818;stroke-width:1;"/><polygon fill="#181818" points="291.2094,202.7471,289.8478,192.9928,288.5665,198.5027,283.0567,197.2214,291.2094,202.7471" style="stroke:#181818;stroke-width:1;"/></g><!--link n9 to n15--><g class="link" data-entity-1="n9" data-entity-2="n15" data-source-line="35" data-uid="lnk32" id="link_n9_n15"><path d="M328.8754,143.3616 C323.4407,160.5424 317.3524,179.7894 311.9215,196.958" fill="none" id="n9-to-n15" style="stroke:#181818;stroke-width:1;"/><polygon fill="#181818" points="310.1119,202.6786,316.64,195.3041,311.6199,197.9114,309.0125,192.8913,310.1119,202.6786" style="stroke:#181818;stroke-width:1;"/></g><!--link n2 to n15--><g class="link" data-entity-1="n2" data-entity-2="n15" data-source-line="36" data-uid="lnk33" id="link_n2_n15"><path d="M622.4112,135.4781 C613.376,137.9644 603.869,140.5751 595,143 C516.3525,164.5037 431.4814,187.516 372.5348,203.4694" fill="none" id="n2-to-n15" style="stroke:#181818;stroke-width:1;"/><polygon fill="#181818" points="366.7432,205.0369,376.4756,206.5468,371.5696,203.7307,374.3857,198.8246,366.7432,205.0369" style="stroke:#181818;stroke-width:1;"/></g><!--link n9 to n8--><g class="link" data-entity-1="n9" data-entity-2="n8" data-source-line="37" data-uid="lnk34" id="link_n9_n8"><path d="M350.242,143.1502 C380.0655,180.6208 442.0865,258.5446 471.9597,296.0776" fill="none" id="n9-to-n8" style="stroke:#181818;stroke-width:1;"/><polygon fill="#181818" points="475.6962,300.7721,473.2212,291.2393,472.5825,296.86,466.9618,296.2213,475.6962,300.7721" style="stroke:#181818;stroke-width:1;"/></g><!--link n12 to n8--><g class="link" data-entity-1="n12" data-entity-2="n8" data-source-line="38" data-uid="lnk35" id="link_n12_n8"><path d="M135.1364,231.4857 C205.0468,248.8746 348.1707,284.4739 429.4436,304.689" fill="none" id="n12-to-n8" style="stroke:#181818;stroke-width:1;"/><polygon fill="#181818" points="435.2662,306.1373,427.4978,300.0832,430.414,304.9304,425.5668,307.8466,435.2662,306.1373" style="stroke:#181818;stroke-width:1;"/></g><!--link n13 to n8--><g class="link" data-entity-1="n13" data-entity-2="n8" data-source-line="39" data-uid="lnk36" id="link_n13_n8"><path d="M472.9541,143.1502 C476.7776,180.6208 484.599,257.2701 488.4289,294.8031" fill="none" id="n13-to-n8" style="stroke:#181818;stroke-width:1;"/><polygon fill="#181818" points="489.038,300.7721,492.1037,291.4125,488.5304,295.7979,484.145,292.2246,489.038,300.7721" style="stroke:#181818;stroke-width:1;"/></g><!--link n14 to n8--><g class="link" data-entity-1="n14" data-entity-2="n8" data-source-line="40" data-uid="lnk37" id="link_n14_n8"><path d="M750.861,143.1502 C695.8021,180.6208 579.3641,259.8634 524.2135,297.3964" fill="none" id="n14-to-n8" style="stroke:#181818;stroke-width:1;"/><polygon fill="#181818" points="519.2532,300.7721,528.9441,299.0153,523.3868,297.959,524.4431,292.4016,519.2532,300.7721" style="stroke:#181818;stroke-width:1;"/></g><!--link n15 to n8--><g class="link" data-entity-1="n15" data-entity-2="n8" data-source-line="41" data-uid="lnk38" id="link_n15_n8"><path d="M340.4994,241.128 C373.4493,258.3959 416.3569,280.8822 449.2783,298.1351" fill="none" id="n15-to-n8" style="stroke:#181818;stroke-width:1;"/><polygon fill="#181818" points="454.5927,300.9202,448.4778,293.1996,450.164,298.5993,444.7643,300.2855,454.5927,300.9202" style="stroke:#181818;stroke-width:1;"/></g><!--link n2 to n8--><g class="link" data-entity-1="n2" data-entity-2="n8" data-source-line="42" data-uid="lnk39" id="link_n2_n8"><path d="M647.097,143.1502 C614.0235,180.6208 545.0707,258.7407 511.9421,296.2737" fill="none" id="n2-to-n8" style="stroke:#181818;stroke-width:1;"/><polygon fill="#181818" points="507.9716,300.7721,516.9262,296.6716,511.2803,297.0235,510.9284,291.3776,507.9716,300.7721" style="stroke:#181818;stroke-width:1;"/></g><!--link n4 to n8--><g class="link" data-entity-1="n4" data-entity-2="n8" data-source-line="43" data-uid="lnk40" id="link_n4_n8"><path d="M685.7264,232.8622 C649.087,249.2579 584.6079,278.1116 539.281,298.3949" fill="none" id="n4-to-n8" style="stroke:#181818;stroke-width:1;"/><polygon fill="#181818" points="533.8043,300.8456,543.6531,300.8206,538.3682,298.8033,540.3855,293.5184,533.8043,300.8456" style="stroke:#181818;stroke-width:1;"/></g><!--link n10 to n17--><g class="link" data-entity-1="n10" data-entity-2="n17" data-source-line="44" data-uid="lnk41" id="link_n10_n17"><path d="M613.0557,30.8981 C689.1983,41.379 856.709,68.0663 900,105 C929.6534,130.2987 940.6798,170.6369 945.3068,196.7704" fill="none" id="n10-to-n17" style="stroke:#181818;stroke-width:1;"/><polygon fill="#181818" points="946.3528,202.6785,948.7225,193.119,945.4811,197.7551,940.845,194.5137,946.3528,202.6785" style="stroke:#181818;stroke-width:1;"/></g><!--link n11 to n17--><g class="link" data-entity-1="n11" data-entity-2="n17" data-source-line="45" data-uid="lnk42" id="link_n11_n17"><path d="M502.2464,40.003 C507.8267,41.8148 513.5335,43.5433 519,45 C656.7116,81.6963 708.3277,37.787 834,105 C878.7053,128.9096 913.3383,171.2626 932.4266,197.8207" fill="none" id="n11-to-n17" style="stroke:#181818;stroke-width:1;"/><polygon fill="#181818" points="935.9284,202.6928,933.9238,193.0501,933.0103,198.6327,927.4277,197.7191,935.9284,202.6928" style="stroke:#181818;stroke-width:1;"/></g><!--link n9 to n17--><g class="link" data-entity-1="n9" data-entity-2="n17" data-source-line="46" data-uid="lnk43" id="link_n9_n17"><path d="M390.6527,139.1561 C396.4898,140.5445 402.3525,141.8563 408,143 C594.9927,180.8689 815.8958,207.3086 904.7462,217.207" fill="none" id="n9-to-n17" style="stroke:#181818;stroke-width:1;"/><polygon fill="#181818" points="910.7093,217.8713,902.2075,212.8994,905.74,217.3177,901.3218,220.8502,910.7093,217.8713" style="stroke:#181818;stroke-width:1;"/></g><!--link n11 to n12--><g class="link" data-entity-1="n11" data-entity-2="n12" data-source-line="47" data-uid="lnk44" id="link_n11_n12"><path d="M425.9231,37.7893 C384.3767,51.3535 316.5147,75.5854 262,105 C208.071,134.0986 155.6657,174.1201 124.7919,199.0535" fill="none" id="n11-to-n12" style="stroke:#181818;stroke-width:1;"/><polygon fill="#181818" points="120.124,202.8232,129.639,200.2805,124.0139,199.6818,124.6127,194.0567,120.124,202.8232" style="stroke:#181818;stroke-width:1;"/></g><!--link n7 to n12--><g class="link" data-entity-1="n7" data-entity-2="n12" data-source-line="48" data-uid="lnk45" id="link_n7_n12"><path d="M232.3443,45.1502 C203.6677,82.6208 144.086,160.4743 115.3617,198.0073" fill="none" id="n7-to-n12" style="stroke:#181818;stroke-width:1;"/><polygon fill="#181818" points="111.7152,202.7721,120.3615,198.056,114.754,198.8015,114.0085,193.1939,111.7152,202.7721" style="stroke:#181818;stroke-width:1;"/></g><!--link n9 to n12--><g class="link" data-entity-1="n9" data-entity-2="n12" data-source-line="49" data-uid="lnk46" id="link_n9_n12"><path d="M288.829,143.0116 C244.0847,161.4357 182.5681,186.7661 140.7431,203.9882" fill="none" id="n9-to-n12" style="stroke:#181818;stroke-width:1;"/><polygon fill="#181818" points="135.195,206.2727,145.0401,206.5447,139.8184,204.3689,141.9941,199.1472,135.195,206.2727" style="stroke:#181818;stroke-width:1;"/></g><!--link n2 to n1--><g class="link" data-entity-1="n2" data-entity-2="n1" data-source-line="50" data-uid="lnk47" id="link_n2_n1"><path d="M696.0231,143.0772 C715.916,156.9182 739.7677,177.6283 751,203 C796.7085,306.2466 748.2434,441.0621 726.887,491.4742" fill="none" id="n2-to-n1" style="stroke:#181818;stroke-width:1;"/><polygon fill="#181818" points="724.5465,496.9989,731.7403,490.2722,726.4969,492.395,724.3741,487.1516,724.5465,496.9989" style="stroke:#181818;stroke-width:1;"/></g><!--link n3 to n1--><g class="link" data-entity-1="n3" data-entity-2="n1" data-source-line="51" data-uid="lnk48" id="link_n3_n1"><path d="M1092.9182,431.5481 C1086.9546,433.4876 1080.8348,435.3735 1075,437 C975.5659,464.7174 864.3557,487.8067 791.6089,501.8909" fill="none" id="n3-to-n1" style="stroke:#181818;stroke-width:1;"/><polygon fill="#181818" points="785.7183,503.0314,795.3145,505.2478,790.6271,502.081,793.7939,497.3936,785.7183,503.0314" style="stroke:#181818;stroke-width:1;"/></g><!--link n4 to n1--><g class="link" data-entity-1="n4" data-entity-2="n1" data-source-line="52" data-uid="lnk49" id="link_n4_n1"><path d="M710.3937,241.2902 C711.4808,294.5612 714.3936,437.2843 715.4825,490.64" fill="none" id="n4-to-n1" style="stroke:#181818;stroke-width:1;"/><polygon fill="#181818" points="715.6049,496.6388,719.4204,487.5591,715.5029,491.6398,711.4221,487.7223,715.6049,496.6388" style="stroke:#181818;stroke-width:1;"/></g><!--link n5 to n1--><g class="link" data-entity-1="n5" data-entity-2="n1" data-source-line="53" data-uid="lnk50" id="link_n5_n1"><path d="M1203.9508,431.1278 C1198.06,433.3064 1191.8946,435.3799 1186,437 C1046.5785,475.3186 884.4568,497.4512 791.8079,508.0741" fill="none" id="n5-to-n1" style="stroke:#181818;stroke-width:1;"/><polygon fill="#181818" points="785.847,508.7576,795.2441,511.7064,790.8145,508.188,794.3328,503.7584,785.847,508.7576" style="stroke:#181818;stroke-width:1;"/></g><!--link n6 to n1--><g class="link" data-entity-1="n6" data-entity-2="n1" data-source-line="54" data-uid="lnk51" id="link_n6_n1"><path d="M981.806,430.3125 C929.8191,447.0715 841.9843,475.3867 780.8785,495.0852" fill="none" id="n6-to-n1" style="stroke:#181818;stroke-width:1;"/><polygon fill="#181818" points="775.1679,496.9261,784.9611,497.9718,779.9267,495.392,782.5065,490.3577,775.1679,496.9261" style="stroke:#181818;stroke-width:1;"/></g><!--link n7 to n1--><g class="link" data-entity-1="n7" data-entity-2="n1" data-source-line="55" data-uid="lnk52" id="link_n7_n1"><path d="M187.7361,44.9103 C116.3783,71.8278 6,128.5654 6,222 C6,222 6,222 6,320 C6,451.9505 461.4319,498.0951 640.3207,511.1968" fill="none" id="n7-to-n1" style="stroke:#181818;stroke-width:1;"/><polygon fill="#181818" points="646.3047,511.6351,637.6209,506.9884,641.3181,511.2699,637.0366,514.967,646.3047,511.6351" style="stroke:#181818;stroke-width:1;"/></g><!--link n8 to n1--><g class="link" data-entity-1="n8" data-entity-2="n1" data-source-line="56" data-uid="lnk53" id="link_n8_n1"><path d="M489.2757,339.3683 C488.1011,364.7134 489.8995,409.1679 513,437 C545.9688,476.7216 595.6344,495.2515 640.288,505.1022" fill="none" id="n8-to-n1" style="stroke:#181818;stroke-width:1;"/><polygon fill="#181818" points="646.1471,506.3947,638.2201,500.5498,641.2645,505.3176,636.4967,508.362,646.1471,506.3947" style="stroke:#181818;stroke-width:1;"/></g><!--link n15 to n1--><g class="link" data-entity-1="n15" data-entity-2="n1" data-source-line="57" data-uid="lnk54" id="link_n15_n1"><path d="M315.1947,241.0515 C340.5428,282.5959 406.434,382.0106 487,437 C535.2835,469.9554 592.8219,488.9747 640.6545,500.7912" fill="none" id="n15-to-n1" style="stroke:#181818;stroke-width:1;"/><polygon fill="#181818" points="646.4794,502.2302,638.7014,496.1885,641.6253,501.0311,636.7827,503.955,646.4794,502.2302" style="stroke:#181818;stroke-width:1;"/></g><!--link n16 to n1--><g class="link" data-entity-1="n16" data-entity-2="n1" data-source-line="58" data-uid="lnk55" id="link_n16_n1"><path d="M620.2269,437.128 C641.195,454.3959 667.2501,475.8531 688.2001,493.106" fill="none" id="n16-to-n1" style="stroke:#181818;stroke-width:1;"/><polygon fill="#181818" points="692.8317,496.9202,688.4271,488.1111,688.972,493.7417,683.3415,494.2866,692.8317,496.9202" style="stroke:#181818;stroke-width:1;"/></g><!--link n17 to n1--><g class="link" data-entity-1="n17" data-entity-2="n1" data-source-line="59" data-uid="lnk56" id="link_n17_n1"><path d="M948.2742,241.1095 C945.7523,281.9091 934.4693,378.5686 884,437 C858.5079,466.5138 825.2335,483.7619 791.2679,495.8708" fill="none" id="n17-to-n1" style="stroke:#181818;stroke-width:1;"/><polygon fill="#181818" points="785.6163,497.8856,795.4369,498.6311,790.326,496.2066,792.7505,491.0956,785.6163,497.8856" style="stroke:#181818;stroke-width:1;"/></g><!--link n12 to n1--><g class="link" data-entity-1="n12" data-entity-2="n1" data-source-line="60" data-uid="lnk57" id="link_n12_n1"><path d="M107.4185,241.0865 C132.2831,284.5339 199.7383,390.6292 289,437 C350.1309,468.7571 535.6285,494.7109 640.1862,507.3762" fill="none" id="n12-to-n1" style="stroke:#181818;stroke-width:1;"/><polygon fill="#181818" points="646.1427,508.0977,637.689,503.0444,641.179,507.4964,636.727,510.9864,646.1427,508.0977" style="stroke:#181818;stroke-width:1;"/></g><!--link n18 to n1--><g class="link" data-entity-1="n18" data-entity-2="n1" data-source-line="61" data-uid="lnk58" id="link_n18_n1"><path d="M257.214,339.2117 C270.9457,365.6565 299.3654,412.7476 338,437 C388.5363,468.7235 545.5971,493.722 640.238,506.4996" fill="none" id="n18-to-n1" style="stroke:#181818;stroke-width:1;"/><polygon fill="#181818" points="646.1841,507.3024,637.8002,502.1342,641.2291,506.6334,636.7298,510.0623,646.1841,507.3024" style="stroke:#181818;stroke-width:1;"/></g><!--link n14 to n1--><g class="link" data-entity-1="n14" data-entity-2="n1" data-source-line="62" data-uid="lnk59" id="link_n14_n1"><path d="M784.0182,143.0821 C796.2893,193.6921 823.6111,334.4747 778,437 C767.8661,459.7792 753.8155,477.3863 739.7598,492.3528" fill="none" id="n14-to-n1" style="stroke:#181818;stroke-width:1;"/><polygon fill="#181818" points="735.6523,496.7264,744.7293,492.9043,739.0752,493.0817,738.8978,487.4276,735.6523,496.7264" style="stroke:#181818;stroke-width:1;"/></g><!--link n8 to n16--><g class="link" data-entity-1="n8" data-entity-2="n16" data-source-line="63" data-uid="lnk60" id="link_n8_n16"><path d="M511.6895,339.128 C530.367,356.3959 553.2958,377.5942 571.9571,394.8471" fill="none" id="n8-to-n16" style="stroke:#181818;stroke-width:1;"/><polygon fill="#181818" points="576.3627,398.9202,572.4697,389.8734,572.6913,395.5259,567.0388,395.7476,576.3627,398.9202" style="stroke:#181818;stroke-width:1;"/></g><!--SRC=[RP71Ri8m38RlVOg8tIh1bj9Ia127SUKoRVSfQxCIKPmgISLu-mMfiHFWzid_5zj9jjPTUxdBjgyJs9E2GHXnPZ-YENL6Zz3kTQyDSqQ0zP44bndPE05TBzbiqCP9yzrei6vnd35X6THF17STPCWtSTxeys2ajI7aooGrry5fpCgqipC7tM6ulWy_9RGVennnCA_kbRq69_zmyxI5Vm694KzkTL7GwWjcHPpbUHZ-TJHIj8icpoUFlHnKTtJl_IYVBJlveUigTXI4Ule8BZcJB69TsyfVRFTsbocWo_4qCmhmNPCjh8xV9Fagfyxuq5Ncnx7vV7VxRDyTiQRYbFl_Hk76TLGEIXaf9IaUDnEk8xiYeoB3O_5GlHqh29U49M65I6eKXx5rj6HDS-DoGPiLP1IqMGPBf1AfGbeXrKXh94uY9vEJocaEZuwL3xrM_m00]--></g></svg>