<svg xmlns="http://www.w3.org/2000/svg" xmlns:xlink="http://www.w3.org/1999/xlink" contentStyleType="text/css" data-diagram-type="DESCRIPTION" height="514px" preserveAspectRatio="none" style="width:2438px;height:514px;" version="1.1" viewBox="0 0 2438 514" width="2438px" zoomAndPan="magnify"><defs/><g><!--entity n0--><g class="entity" data-entity="n0" data-source-line="5" data-uid="ent0002" id="entity_n0"><rect fill="#ADD8E6" height="37.7799" rx="2.5" ry="2.5" style="stroke:#181818;stroke-width:0.5;" width="131.562" x="1702" y="7"/><text fill="#000000" font-family="'Segoe UI', 'メイリオ', 'UDEV Gothic HSRFJPDOC', 'Hiragino Kaku Gothic ProN', 'ヒラギノ角ゴ ProN', 'Noto Sans JP', 'Helvetica Neue', Helvetica, Arial, sans-serif" font-size="14" font-weight="bold" lengthAdjust="spacing" textLength="111.562" x="1712" y="30.9999">potrOpenService</text></g><!--entity n1--><g class="entity" data-entity="n1" data-source-line="6" data-uid="ent0003" id="entity_n1"><rect fill="#F1F1F1" height="55.5598" rx="2.5" ry="2.5" style="stroke:#181818;stroke-width:0.5;" width="173.9993" x="857" y="105"/><text fill="#000000" font-family="'Segoe UI', 'メイリオ', 'UDEV Gothic HSRFJPDOC', 'Hiragino Kaku Gothic ProN', 'ヒラギノ角ゴ ProN', 'Noto Sans JP', 'Helvetica Neue', Helvetica, Arial, sans-serif" font-size="14" lengthAdjust="spacing" textLength="153.9993" x="867" y="128.9999">comm_recv_thread_start</text><text fill="#000000" font-family="'Segoe UI', 'メイリオ', 'UDEV Gothic HSRFJPDOC', 'Hiragino Kaku Gothic ProN', 'ヒラギノ角ゴ ProN', 'Noto Sans JP', 'Helvetica Neue', Helvetica, Arial, sans-serif" font-size="14" lengthAdjust="spacing" textLength="125.9995" x="867" y="146.7799">(potrRecvThread.c)</text></g><!--entity n2--><g class="entity" data-entity="n2" data-source-line="7" data-uid="ent0004" id="entity_n2"><rect fill="#F1F1F1" height="55.5598" rx="2.5" ry="2.5" style="stroke:#181818;stroke-width:0.5;" width="145.9995" x="1402" y="105"/><text fill="#000000" font-family="'Segoe UI', 'メイリオ', 'UDEV Gothic HSRFJPDOC', 'Hiragino Kaku Gothic ProN', 'ヒラギノ角ゴ ProN', 'Noto Sans JP', 'Helvetica Neue', Helvetica, Arial, sans-serif" font-size="14" lengthAdjust="spacing" textLength="125.9995" x="1412" y="128.9999">config_load_global</text><text fill="#000000" font-family="'Segoe UI', 'メイリオ', 'UDEV Gothic HSRFJPDOC', 'Hiragino Kaku Gothic ProN', 'ヒラギノ角ゴ ProN', 'Noto Sans JP', 'Helvetica Neue', Helvetica, Arial, sans-serif" font-size="14" lengthAdjust="spacing" textLength="69.9997" x="1412" y="146.7799">(config.c)</text></g><!--entity n3--><g class="entity" data-entity="n3" data-source-line="8" data-uid="ent0005" id="entity_n3"><rect fill="#F1F1F1" height="55.5598" rx="2.5" ry="2.5" style="stroke:#181818;stroke-width:0.5;" width="152.9994" x="1213.5" y="105"/><text fill="#000000" font-family="'Segoe UI', 'メイリオ', 'UDEV Gothic HSRFJPDOC', 'Hiragino Kaku Gothic ProN', 'ヒラギノ角ゴ ProN', 'Noto Sans JP', 'Helvetica Neue', Helvetica, Arial, sans-serif" font-size="14" lengthAdjust="spacing" textLength="132.9994" x="1223.5" y="128.9999">config_load_service</text><text fill="#000000" font-family="'Segoe UI', 'メイリオ', 'UDEV Gothic HSRFJPDOC', 'Hiragino Kaku Gothic ProN', 'ヒラギノ角ゴ ProN', 'Noto Sans JP', 'Helvetica Neue', Helvetica, Arial, sans-serif" font-size="14" lengthAdjust="spacing" textLength="69.9997" x="1223.5" y="146.7799">(config.c)</text></g><!--entity n4--><g class="entity" data-entity="n4" data-source-line="9" data-uid="ent0006" id="entity_n4"><rect fill="#F1F1F1" height="37.7799" rx="2.5" ry="2.5" style="stroke:#181818;stroke-width:0.5;" width="166.9994" x="1583.5" y="114"/><text fill="#000000" font-family="'Segoe UI', 'メイリオ', 'UDEV Gothic HSRFJPDOC', 'Hiragino Kaku Gothic ProN', 'ヒラギノ角ゴ ProN', 'Noto Sans JP', 'Helvetica Neue', Helvetica, Arial, sans-serif" font-size="14" lengthAdjust="spacing" textLength="146.9994" x="1593.5" y="137.9999">open_socket_broadcast</text></g><!--entity n5--><g class="entity" data-entity="n5" data-source-line="10" data-uid="ent0007" id="entity_n5"><rect fill="#F1F1F1" height="37.7799" rx="2.5" ry="2.5" style="stroke:#181818;stroke-width:0.5;" width="166.9994" x="1785.5" y="114"/><text fill="#000000" font-family="'Segoe UI', 'メイリオ', 'UDEV Gothic HSRFJPDOC', 'Hiragino Kaku Gothic ProN', 'ヒラギノ角ゴ ProN', 'Noto Sans JP', 'Helvetica Neue', Helvetica, Arial, sans-serif" font-size="14" lengthAdjust="spacing" textLength="146.9994" x="1795.5" y="137.9999">open_socket_multicast</text></g><!--entity n6--><g class="entity" data-entity="n6" data-source-line="11" data-uid="ent0008" id="entity_n6"><rect fill="#F1F1F1" height="37.7799" rx="2.5" ry="2.5" style="stroke:#181818;stroke-width:0.5;" width="152.9994" x="1987.5" y="114"/><text fill="#000000" font-family="'Segoe UI', 'メイリオ', 'UDEV Gothic HSRFJPDOC', 'Hiragino Kaku Gothic ProN', 'ヒラギノ角ゴ ProN', 'Noto Sans JP', 'Helvetica Neue', Helvetica, Arial, sans-serif" font-size="14" lengthAdjust="spacing" textLength="132.9994" x="1997.5" y="137.9999">open_socket_unicast</text></g><!--entity n7--><g class="entity" data-entity="n7" data-source-line="12" data-uid="ent0009" id="entity_n7"><rect fill="#F1F1F1" height="55.5598" rx="2.5" ry="2.5" style="stroke:#181818;stroke-width:0.5;" width="124.9995" x="2175.5" y="105"/><text fill="#000000" font-family="'Segoe UI', 'メイリオ', 'UDEV Gothic HSRFJPDOC', 'Hiragino Kaku Gothic ProN', 'ヒラギノ角ゴ ProN', 'Noto Sans JP', 'Helvetica Neue', Helvetica, Arial, sans-serif" font-size="14" lengthAdjust="spacing" textLength="104.9995" x="2185.5" y="128.9999">retransmit_init</text><text fill="#000000" font-family="'Segoe UI', 'メイリオ', 'UDEV Gothic HSRFJPDOC', 'Hiragino Kaku Gothic ProN', 'ヒラギノ角ゴ ProN', 'Noto Sans JP', 'Helvetica Neue', Helvetica, Arial, sans-serif" font-size="14" lengthAdjust="spacing" textLength="97.9996" x="2185.5" y="146.7799">(retransmit.c)</text></g><!--entity n8--><g class="entity" data-entity="n8" data-source-line="13" data-uid="ent0010" id="entity_n8"><rect fill="#F1F1F1" height="55.5598" rx="2.5" ry="2.5" style="stroke:#181818;stroke-width:0.5;" width="96.9997" x="2335.5" y="105"/><text fill="#000000" font-family="'Segoe UI', 'メイリオ', 'UDEV Gothic HSRFJPDOC', 'Hiragino Kaku Gothic ProN', 'ヒラギノ角ゴ ProN', 'Noto Sans JP', 'Helvetica Neue', Helvetica, Arial, sans-serif" font-size="14" lengthAdjust="spacing" textLength="76.9997" x="2345.5" y="128.9999">window_init</text><text fill="#000000" font-family="'Segoe UI', 'メイリオ', 'UDEV Gothic HSRFJPDOC', 'Hiragino Kaku Gothic ProN', 'ヒラギノ角ゴ ProN', 'Noto Sans JP', 'Helvetica Neue', Helvetica, Arial, sans-serif" font-size="14" lengthAdjust="spacing" textLength="69.9997" x="2345.5" y="146.7799">(window.c)</text></g><!--entity n9--><g class="entity" data-entity="n9" data-source-line="14" data-uid="ent0011" id="entity_n9"><rect fill="#F1F1F1" height="37.7799" rx="2.5" ry="2.5" style="stroke:#181818;stroke-width:0.5;" width="131.9995" x="563" y="230"/><text fill="#000000" font-family="'Segoe UI', 'メイリオ', 'UDEV Gothic HSRFJPDOC', 'Hiragino Kaku Gothic ProN', 'ヒラギノ角ゴ ProN', 'Noto Sans JP', 'Helvetica Neue', Helvetica, Arial, sans-serif" font-size="14" lengthAdjust="spacing" textLength="111.9995" x="573" y="253.9999">recv_thread_func</text></g><!--entity n10--><g class="entity" data-entity="n10" data-source-line="15" data-uid="ent0012" id="entity_n10"><rect fill="#F1F1F1" height="37.7799" rx="2.5" ry="2.5" style="stroke:#181818;stroke-width:0.5;" width="166.9994" x="1423.5" y="230"/><text fill="#000000" font-family="'Segoe UI', 'メイリオ', 'UDEV Gothic HSRFJPDOC', 'Hiragino Kaku Gothic ProN', 'ヒラギノ角ゴ ProN', 'Noto Sans JP', 'Helvetica Neue', Helvetica, Arial, sans-serif" font-size="14" lengthAdjust="spacing" textLength="146.9994" x="1433.5" y="253.9999">open_config_file_read</text></g><!--entity n11--><g class="entity" data-entity="n11" data-source-line="16" data-uid="ent0013" id="entity_n11"><rect fill="#F1F1F1" height="37.7799" rx="2.5" ry="2.5" style="stroke:#181818;stroke-width:0.5;" width="75.9998" x="1312" y="230"/><text fill="#000000" font-family="'Segoe UI', 'メイリオ', 'UDEV Gothic HSRFJPDOC', 'Hiragino Kaku Gothic ProN', 'ヒラギノ角ゴ ProN', 'Noto Sans JP', 'Helvetica Neue', Helvetica, Arial, sans-serif" font-size="14" lengthAdjust="spacing" textLength="55.9998" x="1322" y="253.9999">parse_kv</text></g><!--entity n12--><g class="entity" data-entity="n12" data-source-line="17" data-uid="ent0014" id="entity_n12"><rect fill="#F1F1F1" height="37.7799" rx="2.5" ry="2.5" style="stroke:#181818;stroke-width:0.5;" width="47.9999" x="1326" y="346"/><text fill="#000000" font-family="'Segoe UI', 'メイリオ', 'UDEV Gothic HSRFJPDOC', 'Hiragino Kaku Gothic ProN', 'ヒラギノ角ゴ ProN', 'Noto Sans JP', 'Helvetica Neue', Helvetica, Arial, sans-serif" font-size="14" lengthAdjust="spacing" textLength="27.9999" x="1336" y="369.9999">trim</text></g><!--entity n13--><g class="entity" data-entity="n13" data-source-line="18" data-uid="ent0015" id="entity_n13"><rect fill="#F1F1F1" height="37.7799" rx="2.5" ry="2.5" style="stroke:#181818;stroke-width:0.5;" width="131.9995" x="1074" y="230"/><text fill="#000000" font-family="'Segoe UI', 'メイリオ', 'UDEV Gothic HSRFJPDOC', 'Hiragino Kaku Gothic ProN', 'ヒラギノ角ゴ ProN', 'Noto Sans JP', 'Helvetica Neue', Helvetica, Arial, sans-serif" font-size="14" lengthAdjust="spacing" textLength="111.9995" x="1084" y="253.9999">apply_service_kv</text></g><!--entity n14--><g class="entity" data-entity="n14" data-source-line="19" data-uid="ent0016" id="entity_n14"><rect fill="#F1F1F1" height="55.5598" rx="2.5" ry="2.5" style="stroke:#181818;stroke-width:0.5;" width="124.9995" x="1806.5" y="221"/><text fill="#000000" font-family="'Segoe UI', 'メイリオ', 'UDEV Gothic HSRFJPDOC', 'Hiragino Kaku Gothic ProN', 'ヒラギノ角ゴ ProN', 'Noto Sans JP', 'Helvetica Neue', Helvetica, Arial, sans-serif" font-size="14" lengthAdjust="spacing" textLength="104.9995" x="1816.5" y="244.9999">parse_ipv4_addr</text><text fill="#000000" font-family="'Segoe UI', 'メイリオ', 'UDEV Gothic HSRFJPDOC', 'Hiragino Kaku Gothic ProN', 'ヒラギノ角ゴ ProN', 'Noto Sans JP', 'Helvetica Neue', Helvetica, Arial, sans-serif" font-size="14" lengthAdjust="spacing" textLength="97.9996" x="1816.5" y="262.7799">(potrIpAddr.c)</text></g><!--entity n15--><g class="entity" data-entity="n15" data-source-line="20" data-uid="ent0017" id="entity_n15"><rect fill="#F1F1F1" height="55.5598" rx="2.5" ry="2.5" style="stroke:#181818;stroke-width:0.5;" width="103.9996" x="167" y="337"/><text fill="#000000" font-family="'Segoe UI', 'メイリオ', 'UDEV Gothic HSRFJPDOC', 'Hiragino Kaku Gothic ProN', 'ヒラギノ角ゴ ProN', 'Noto Sans JP', 'Helvetica Neue', Helvetica, Arial, sans-serif" font-size="14" lengthAdjust="spacing" textLength="83.9996" x="177" y="360.9999">packet_parse</text><text fill="#000000" font-family="'Segoe UI', 'メイリオ', 'UDEV Gothic HSRFJPDOC', 'Hiragino Kaku Gothic ProN', 'ヒラギノ角ゴ ProN', 'Noto Sans JP', 'Helvetica Neue', Helvetica, Arial, sans-serif" font-size="14" lengthAdjust="spacing" textLength="69.9997" x="177" y="378.7799">(packet.c)</text></g><!--entity n16--><g class="entity" data-entity="n16" data-source-line="21" data-uid="ent0018" id="entity_n16"><rect fill="#F1F1F1" height="37.7799" rx="2.5" ry="2.5" style="stroke:#181818;stroke-width:0.5;" width="103.9996" x="28" y="346"/><text fill="#000000" font-family="'Segoe UI', 'メイリオ', 'UDEV Gothic HSRFJPDOC', 'Hiragino Kaku Gothic ProN', 'ヒラギノ角ゴ ProN', 'Noto Sans JP', 'Helvetica Neue', Helvetica, Arial, sans-serif" font-size="14" lengthAdjust="spacing" textLength="83.9996" x="38" y="369.9999">recv_deliver</text></g><!--entity n17--><g class="entity" data-entity="n17" data-source-line="22" data-uid="ent0019" id="entity_n17"><rect fill="#F1F1F1" height="37.7799" rx="2.5" ry="2.5" style="stroke:#181818;stroke-width:0.5;" width="82.9997" x="1003.5" y="346"/><text fill="#000000" font-family="'Segoe UI', 'メイリオ', 'UDEV Gothic HSRFJPDOC', 'Hiragino Kaku Gothic ProN', 'ヒラギノ角ゴ ProN', 'Noto Sans JP', 'Helvetica Neue', Helvetica, Arial, sans-serif" font-size="14" lengthAdjust="spacing" textLength="62.9997" x="1013.5" y="369.9999">send_nack</text></g><!--entity n18--><g class="entity" data-entity="n18" data-source-line="23" data-uid="ent0020" id="entity_n18"><rect fill="#F1F1F1" height="55.5598" rx="2.5" ry="2.5" style="stroke:#181818;stroke-width:0.5;" width="173.9993" x="634" y="337"/><text fill="#000000" font-family="'Segoe UI', 'メイリオ', 'UDEV Gothic HSRFJPDOC', 'Hiragino Kaku Gothic ProN', 'ヒラギノ角ゴ ProN', 'Noto Sans JP', 'Helvetica Neue', Helvetica, Arial, sans-serif" font-size="14" lengthAdjust="spacing" textLength="153.9993" x="644" y="360.9999">window_recv_needs_nack</text><text fill="#000000" font-family="'Segoe UI', 'メイリオ', 'UDEV Gothic HSRFJPDOC', 'Hiragino Kaku Gothic ProN', 'ヒラギノ角ゴ ProN', 'Noto Sans JP', 'Helvetica Neue', Helvetica, Arial, sans-serif" font-size="14" lengthAdjust="spacing" textLength="69.9997" x="644" y="378.7799">(window.c)</text></g><!--entity n19--><g class="entity" data-entity="n19" data-source-line="24" data-uid="ent0021" id="entity_n19"><rect fill="#F1F1F1" height="55.5598" rx="2.5" ry="2.5" style="stroke:#181818;stroke-width:0.5;" width="124.9995" x="843.5" y="337"/><text fill="#000000" font-family="'Segoe UI', 'メイリオ', 'UDEV Gothic HSRFJPDOC', 'Hiragino Kaku Gothic ProN', 'ヒラギノ角ゴ ProN', 'Noto Sans JP', 'Helvetica Neue', Helvetica, Arial, sans-serif" font-size="14" lengthAdjust="spacing" textLength="104.9995" x="853.5" y="360.9999">window_recv_pop</text><text fill="#000000" font-family="'Segoe UI', 'メイリオ', 'UDEV Gothic HSRFJPDOC', 'Hiragino Kaku Gothic ProN', 'ヒラギノ角ゴ ProN', 'Noto Sans JP', 'Helvetica Neue', Helvetica, Arial, sans-serif" font-size="14" lengthAdjust="spacing" textLength="69.9997" x="853.5" y="378.7799">(window.c)</text></g><!--entity n20--><g class="entity" data-entity="n20" data-source-line="25" data-uid="ent0022" id="entity_n20"><rect fill="#F1F1F1" height="55.5598" rx="2.5" ry="2.5" style="stroke:#181818;stroke-width:0.5;" width="131.9995" x="306" y="337"/><text fill="#000000" font-family="'Segoe UI', 'メイリオ', 'UDEV Gothic HSRFJPDOC', 'Hiragino Kaku Gothic ProN', 'ヒラギノ角ゴ ProN', 'Noto Sans JP', 'Helvetica Neue', Helvetica, Arial, sans-serif" font-size="14" lengthAdjust="spacing" textLength="111.9995" x="316" y="360.9999">window_recv_push</text><text fill="#000000" font-family="'Segoe UI', 'メイリオ', 'UDEV Gothic HSRFJPDOC', 'Hiragino Kaku Gothic ProN', 'ヒラギノ角ゴ ProN', 'Noto Sans JP', 'Helvetica Neue', Helvetica, Arial, sans-serif" font-size="14" lengthAdjust="spacing" textLength="69.9997" x="316" y="378.7799">(window.c)</text></g><!--entity n21--><g class="entity" data-entity="n21" data-source-line="26" data-uid="ent0023" id="entity_n21"><rect fill="#F1F1F1" height="55.5598" rx="2.5" ry="2.5" style="stroke:#181818;stroke-width:0.5;" width="124.9995" x="473.5" y="337"/><text fill="#000000" font-family="'Segoe UI', 'メイリオ', 'UDEV Gothic HSRFJPDOC', 'Hiragino Kaku Gothic ProN', 'ヒラギノ角ゴ ProN', 'Noto Sans JP', 'Helvetica Neue', Helvetica, Arial, sans-serif" font-size="14" lengthAdjust="spacing" textLength="104.9995" x="483.5" y="360.9999">window_send_ack</text><text fill="#000000" font-family="'Segoe UI', 'メイリオ', 'UDEV Gothic HSRFJPDOC', 'Hiragino Kaku Gothic ProN', 'ヒラギノ角ゴ ProN', 'Noto Sans JP', 'Helvetica Neue', Helvetica, Arial, sans-serif" font-size="14" lengthAdjust="spacing" textLength="69.9997" x="483.5" y="378.7799">(window.c)</text></g><!--entity n22--><g class="entity" data-entity="n22" data-source-line="27" data-uid="ent0024" id="entity_n22"><rect fill="#F1F1F1" height="37.7799" rx="2.5" ry="2.5" style="stroke:#181818;stroke-width:0.5;" width="124.9995" x="1121.5" y="346"/><text fill="#000000" font-family="'Segoe UI', 'メイリオ', 'UDEV Gothic HSRFJPDOC', 'Hiragino Kaku Gothic ProN', 'ヒラギノ角ゴ ProN', 'Noto Sans JP', 'Helvetica Neue', Helvetica, Arial, sans-serif" font-size="14" lengthAdjust="spacing" textLength="104.9995" x="1131.5" y="369.9999">copy_cstr_trunc</text></g><!--entity n23--><g class="entity" data-entity="n23" data-source-line="28" data-uid="ent0025" id="entity_n23"><rect fill="#F1F1F1" height="55.5598" rx="2.5" ry="2.5" style="stroke:#181818;stroke-width:0.5;" width="145.9995" x="7" y="453"/><text fill="#000000" font-family="'Segoe UI', 'メイリオ', 'UDEV Gothic HSRFJPDOC', 'Hiragino Kaku Gothic ProN', 'ヒラギノ角ゴ ProN', 'Noto Sans JP', 'Helvetica Neue', Helvetica, Arial, sans-serif" font-size="14" lengthAdjust="spacing" textLength="104.9995" x="17" y="476.9999">potr_decompress</text><text fill="#000000" font-family="'Segoe UI', 'メイリオ', 'UDEV Gothic HSRFJPDOC', 'Hiragino Kaku Gothic ProN', 'ヒラギノ角ゴ ProN', 'Noto Sans JP', 'Helvetica Neue', Helvetica, Arial, sans-serif" font-size="14" lengthAdjust="spacing" textLength="125.9995" x="17" y="494.7799">(compress_linux.c)</text></g><!--entity n24--><g class="entity" data-entity="n24" data-source-line="29" data-uid="ent0026" id="entity_n24"><rect fill="#F1F1F1" height="55.5598" rx="2.5" ry="2.5" style="stroke:#181818;stroke-width:0.5;" width="138.9995" x="975.5" y="453"/><text fill="#000000" font-family="'Segoe UI', 'メイリオ', 'UDEV Gothic HSRFJPDOC', 'Hiragino Kaku Gothic ProN', 'ヒラギノ角ゴ ProN', 'Noto Sans JP', 'Helvetica Neue', Helvetica, Arial, sans-serif" font-size="14" lengthAdjust="spacing" textLength="118.9995" x="985.5" y="476.9999">packet_build_nack</text><text fill="#000000" font-family="'Segoe UI', 'メイリオ', 'UDEV Gothic HSRFJPDOC', 'Hiragino Kaku Gothic ProN', 'ヒラギノ角ゴ ProN', 'Noto Sans JP', 'Helvetica Neue', Helvetica, Arial, sans-serif" font-size="14" lengthAdjust="spacing" textLength="69.9997" x="985.5" y="494.7799">(packet.c)</text></g><!--entity n25--><g class="entity" data-entity="n25" data-source-line="30" data-uid="ent0027" id="entity_n25"><rect fill="#F1F1F1" height="37.7799" rx="2.5" ry="2.5" style="stroke:#181818;stroke-width:0.5;" width="82.9997" x="586.5" y="462"/><text fill="#000000" font-family="'Segoe UI', 'メイリオ', 'UDEV Gothic HSRFJPDOC', 'Hiragino Kaku Gothic ProN', 'ヒラギノ角ゴ ProN', 'Noto Sans JP', 'Helvetica Neue', Helvetica, Arial, sans-serif" font-size="14" lengthAdjust="spacing" textLength="62.9997" x="596.5" y="485.9999">win_index</text></g><!--entity n26--><g class="entity" data-entity="n26" data-source-line="31" data-uid="ent0028" id="entity_n26"><rect fill="#F1F1F1" height="55.5598" rx="2.5" ry="2.5" style="stroke:#181818;stroke-width:0.5;" width="131.9995" x="316" y="453"/><text fill="#000000" font-family="'Segoe UI', 'メイリオ', 'UDEV Gothic HSRFJPDOC', 'Hiragino Kaku Gothic ProN', 'ヒラギノ角ゴ ProN', 'Noto Sans JP', 'Helvetica Neue', Helvetica, Arial, sans-serif" font-size="14" lengthAdjust="spacing" textLength="111.9995" x="326" y="476.9999">seqnum_in_window</text><text fill="#000000" font-family="'Segoe UI', 'メイリオ', 'UDEV Gothic HSRFJPDOC', 'Hiragino Kaku Gothic ProN', 'ヒラギノ角ゴ ProN', 'Noto Sans JP', 'Helvetica Neue', Helvetica, Arial, sans-serif" font-size="14" lengthAdjust="spacing" textLength="69.9997" x="326" y="494.7799">(seqnum.c)</text></g><!--link n0 to n1--><g class="link" data-entity-1="n0" data-entity-2="n1" data-source-line="32" data-uid="lnk29" id="link_n0_n1"><path d="M1701.9615,34.5754 C1554.1667,53.7672 1202.705,99.4061 1036.9967,120.924" fill="none" id="n0-to-n1" style="stroke:#181818;stroke-width:1;"/><polygon fill="#181818" points="1031.0467,121.6966,1040.4869,124.5043,1036.0051,121.0527,1039.4567,116.5709,1031.0467,121.6966" style="stroke:#181818;stroke-width:1;"/></g><!--link n0 to n2--><g class="link" data-entity-1="n0" data-entity-2="n2" data-source-line="33" data-uid="lnk30" id="link_n0_n2"><path d="M1715.9551,45.0062 C1669.2523,62.0614 1605.8597,85.2116 1553.6425,104.2807" fill="none" id="n0-to-n2" style="stroke:#181818;stroke-width:1;"/><polygon fill="#181818" points="1548.0066,106.3389,1557.8326,107.0089,1552.7032,104.6237,1555.0884,99.4943,1548.0066,106.3389" style="stroke:#181818;stroke-width:1;"/></g><!--link n0 to n3--><g class="link" data-entity-1="n0" data-entity-2="n3" data-source-line="34" data-uid="lnk31" id="link_n0_n3"><path d="M1701.8844,37.9059 C1625.2427,52.1069 1495.324,77.4145 1385,105 C1378.9949,106.5015 1378.5878,106.5529 1372.3753,108.2506" fill="none" id="n0-to-n3" style="stroke:#181818;stroke-width:1;"/><polygon fill="#181818" points="1366.5875,109.8322,1376.3236,111.3183,1371.4107,108.5142,1374.2147,103.6012,1366.5875,109.8322" style="stroke:#181818;stroke-width:1;"/></g><!--link n0 to n4--><g class="link" data-entity-1="n0" data-entity-2="n4" data-source-line="35" data-uid="lnk32" id="link_n0_n4"><path d="M1749.9432,45.1295 C1731.6728,64.4853 1707.6957,89.8867 1689.3595,109.3122" fill="none" id="n0-to-n4" style="stroke:#181818;stroke-width:1;"/><polygon fill="#181818" points="1685.241,113.6754,1694.3276,109.8763,1688.6731,110.0394,1688.51,104.3849,1685.241,113.6754" style="stroke:#181818;stroke-width:1;"/></g><!--link n0 to n5--><g class="link" data-entity-1="n0" data-entity-2="n5" data-source-line="36" data-uid="lnk33" id="link_n0_n5"><path d="M1786.0568,45.1295 C1804.3272,64.4853 1828.3043,89.8867 1846.6405,109.3122" fill="none" id="n0-to-n5" style="stroke:#181818;stroke-width:1;"/><polygon fill="#181818" points="1850.759,113.6754,1847.49,104.3849,1847.3269,110.0394,1841.6724,109.8763,1850.759,113.6754" style="stroke:#181818;stroke-width:1;"/></g><!--link n0 to n6--><g class="link" data-entity-1="n0" data-entity-2="n6" data-source-line="37" data-uid="lnk34" id="link_n0_n6"><path d="M1820.5778,45.0062 C1874.4039,64.4636 1951.9426,92.4928 2005.7716,111.9513" fill="none" id="n0-to-n6" style="stroke:#181818;stroke-width:1;"/><polygon fill="#181818" points="2011.4142,113.991,2004.3101,107.1696,2006.712,112.2912,2001.5904,114.6931,2011.4142,113.991" style="stroke:#181818;stroke-width:1;"/></g><!--link n0 to n7--><g class="link" data-entity-1="n0" data-entity-2="n7" data-source-line="38" data-uid="lnk35" id="link_n0_n7"><path d="M1834.2016,36.5648 C1912.3118,49.6827 2045.758,74.1454 2158,105 C2163.6755,106.5602 2163.8115,106.5017 2169.6514,108.3546" fill="none" id="n0-to-n7" style="stroke:#181818;stroke-width:1;"/><polygon fill="#181818" points="2175.3704,110.1692,2168.0015,103.6347,2170.6045,108.6571,2165.5821,111.2601,2175.3704,110.1692" style="stroke:#181818;stroke-width:1;"/></g><!--link n0 to n8--><g class="link" data-entity-1="n0" data-entity-2="n8" data-source-line="39" data-uid="lnk36" id="link_n0_n8"><path d="M1834.3244,29.9791 C1938.8333,37.4789 2147.49,57.4528 2318,105 C2323.7549,106.6048 2324.0506,106.4947 2329.8668,108.6648" fill="none" id="n0-to-n8" style="stroke:#181818;stroke-width:1;"/><polygon fill="#181818" points="2335.4883,110.7622,2328.4544,103.8684,2330.8038,109.0143,2325.6578,111.3637,2335.4883,110.7622" style="stroke:#181818;stroke-width:1;"/></g><!--link n1 to n9--><g class="link" data-entity-1="n1" data-entity-2="n9" data-source-line="40" data-uid="lnk37" id="link_n1_n9"><path d="M867.7473,161.0804 C809.8457,182.4028 737.4006,209.0811 686.5469,227.8081" fill="none" id="n1-to-n9" style="stroke:#181818;stroke-width:1;"/><polygon fill="#181818" points="680.9165,229.8815,690.7443,230.525,685.6085,228.1537,687.9798,223.0178,680.9165,229.8815" style="stroke:#181818;stroke-width:1;"/></g><!--link n2 to n10--><g class="link" data-entity-1="n2" data-entity-2="n10" data-source-line="41" data-uid="lnk38" id="link_n2_n10"><path d="M1482.7463,161.0804 C1488.6284,182.4028 1494.9642,205.3705 1500.1303,224.0975" fill="none" id="n2-to-n10" style="stroke:#181818;stroke-width:1;"/><polygon fill="#181818" points="1501.7259,229.8815,1503.1885,220.1418,1500.3962,225.0615,1495.4766,222.2693,1501.7259,229.8815" style="stroke:#181818;stroke-width:1;"/></g><!--link n2 to n11--><g class="link" data-entity-1="n2" data-entity-2="n11" data-source-line="42" data-uid="lnk39" id="link_n2_n11"><path d="M1444.741,161.0804 C1421.7642,182.4028 1395.1798,207.0731 1374.9998,225.8001" fill="none" id="n2-to-n11" style="stroke:#181818;stroke-width:1;"/><polygon fill="#181818" points="1370.6018,229.8815,1379.9197,226.6915,1374.2668,226.4804,1374.4779,220.8275,1370.6018,229.8815" style="stroke:#181818;stroke-width:1;"/></g><!--link n2 to n12--><g class="link" data-entity-1="n2" data-entity-2="n12" data-source-line="43" data-uid="lnk40" id="link_n2_n12"><path d="M1543.1158,161.0143 C1568.2012,175.0664 1593.9102,194.7827 1608,221 C1619.7822,242.9234 1622.4824,256.7586 1608,277 C1579.9113,316.2583 1438.6421,347.6636 1380.0193,359.2759" fill="none" id="n2-to-n12" style="stroke:#181818;stroke-width:1;"/><polygon fill="#181818" points="1374.1337,360.4418,1383.7394,362.6168,1379.0384,359.4703,1382.1849,354.7693,1374.1337,360.4418" style="stroke:#181818;stroke-width:1;"/></g><!--link n3 to n13--><g class="link" data-entity-1="n3" data-entity-2="n13" data-source-line="44" data-uid="lnk41" id="link_n3_n13"><path d="M1253.6892,161.0804 C1226.117,182.4028 1193.6845,207.484 1169.4685,226.211" fill="none" id="n3-to-n13" style="stroke:#181818;stroke-width:1;"/><polygon fill="#181818" points="1164.7222,229.8815,1174.2887,227.54,1168.6775,226.8228,1169.3947,221.2116,1164.7222,229.8815" style="stroke:#181818;stroke-width:1;"/></g><!--link n3 to n10--><g class="link" data-entity-1="n3" data-entity-2="n10" data-source-line="45" data-uid="lnk42" id="link_n3_n10"><path d="M1342.5296,161.0804 C1382.4174,182.4028 1430.9113,208.3259 1465.9439,227.0529" fill="none" id="n3-to-n10" style="stroke:#181818;stroke-width:1;"/><polygon fill="#181818" points="1471.2353,229.8815,1465.1839,222.111,1466.8258,227.5244,1461.4124,229.1662,1471.2353,229.8815" style="stroke:#181818;stroke-width:1;"/></g><!--link n3 to n11--><g class="link" data-entity-1="n3" data-entity-2="n11" data-source-line="46" data-uid="lnk43" id="link_n3_n11"><path d="M1304.5243,161.0804 C1315.5532,182.4028 1327.6682,205.8252 1337.3546,224.5522" fill="none" id="n3-to-n11" style="stroke:#181818;stroke-width:1;"/><polygon fill="#181818" points="1340.1111,229.8815,1339.5292,220.0499,1337.814,225.4404,1332.4234,223.7252,1340.1111,229.8815" style="stroke:#181818;stroke-width:1;"/></g><!--link n3 to n12--><g class="link" data-entity-1="n3" data-entity-2="n12" data-source-line="47" data-uid="lnk44" id="link_n3_n12"><path d="M1286.7584,161.0386 C1284.3054,190.5823 1283.1173,238.1261 1295,277 C1302.9525,303.0163 1316.9684,324.2274 1330.1553,341.1311" fill="none" id="n3-to-n12" style="stroke:#181818;stroke-width:1;"/><polygon fill="#181818" points="1333.8458,345.8618,1331.4638,336.3053,1330.7703,341.9195,1325.1562,341.2261,1333.8458,345.8618" style="stroke:#181818;stroke-width:1;"/></g><!--link n5 to n14--><g class="link" data-entity-1="n5" data-entity-2="n14" data-source-line="48" data-uid="lnk45" id="link_n5_n14"><path d="M1869,152.155 C1869,170.8166 1869,193.4075 1869,214.6928" fill="none" id="n5-to-n14" style="stroke:#181818;stroke-width:1;"/><polygon fill="#181818" points="1869,220.6928,1873,211.6928,1869,215.6928,1865,211.6928,1869,220.6928" style="stroke:#181818;stroke-width:1;"/></g><!--link n9 to n15--><g class="link" data-entity-1="n9" data-entity-2="n15" data-source-line="49" data-uid="lnk46" id="link_n9_n15"><path d="M562.8774,263.3157 C493.6224,278.9465 382.0505,305.9345 288,337 C282.476,338.8246 282.376,338.7557 276.7094,340.8927" fill="none" id="n9-to-n15" style="stroke:#181818;stroke-width:1;"/><polygon fill="#181818" points="271.0954,343.0099,280.9279,343.5768,275.7738,341.2456,278.105,336.0914,271.0954,343.0099" style="stroke:#181818;stroke-width:1;"/></g><!--link n9 to n16--><g class="link" data-entity-1="n9" data-entity-2="n16" data-source-line="50" data-uid="lnk47" id="link_n9_n16"><path d="M562.7969,256.7857 C469.2918,268.7585 293.7897,294.8305 149,337 C140.4356,339.4944 137.0658,340.4996 128.5452,343.8201" fill="none" id="n9-to-n16" style="stroke:#181818;stroke-width:1;"/><polygon fill="#181818" points="122.9547,345.9987,132.7929,346.4578,127.6134,344.1832,129.888,339.0038,122.9547,345.9987" style="stroke:#181818;stroke-width:1;"/></g><!--link n9 to n17--><g class="link" data-entity-1="n9" data-entity-2="n17" data-source-line="51" data-uid="lnk48" id="link_n9_n17"><path d="M695.3106,261.1782 C767.8855,275.4622 887.0877,301.7447 986,337 C993.1555,339.5504 995.1471,340.1958 1002.2493,343.4322" fill="none" id="n9-to-n17" style="stroke:#181818;stroke-width:1;"/><polygon fill="#181818" points="1007.7091,345.9202,1001.178,338.5483,1003.1592,343.8469,997.8607,345.8281,1007.7091,345.9202" style="stroke:#181818;stroke-width:1;"/></g><!--link n9 to n18--><g class="link" data-entity-1="n9" data-entity-2="n18" data-source-line="52" data-uid="lnk49" id="link_n9_n18"><path d="M644.1919,268.155 C658.9925,286.8166 677.9396,310.7065 694.821,331.9918" fill="none" id="n9-to-n18" style="stroke:#181818;stroke-width:1;"/><polygon fill="#181818" points="698.5494,336.6928,696.0909,327.1557,695.4424,332.7753,689.8229,332.1269,698.5494,336.6928" style="stroke:#181818;stroke-width:1;"/></g><!--link n9 to n19--><g class="link" data-entity-1="n9" data-entity-2="n19" data-source-line="53" data-uid="lnk50" id="link_n9_n19"><path d="M674.4307,268.0251 C720.4761,287.3077 786.5308,314.9696 837.921,336.4904" fill="none" id="n9-to-n19" style="stroke:#181818;stroke-width:1;"/><polygon fill="#181818" points="843.4553,338.808,836.6989,331.642,838.8434,336.8767,833.6087,339.0211,843.4553,338.808" style="stroke:#181818;stroke-width:1;"/></g><!--link n9 to n20--><g class="link" data-entity-1="n9" data-entity-2="n20" data-source-line="54" data-uid="lnk51" id="link_n9_n20"><path d="M586.8495,268.0251 C545.4103,286.7292 487.1411,313.0296 439.8382,334.3804" fill="none" id="n9-to-n20" style="stroke:#181818;stroke-width:1;"/><polygon fill="#181818" points="434.3695,336.8488,444.2182,336.792,438.9268,334.7918,440.927,329.5004,434.3695,336.8488" style="stroke:#181818;stroke-width:1;"/></g><!--link n9 to n21--><g class="link" data-entity-1="n9" data-entity-2="n21" data-source-line="55" data-uid="lnk52" id="link_n9_n21"><path d="M613.6429,268.155 C598.6815,286.8166 579.5126,310.7262 562.4477,332.0115" fill="none" id="n9-to-n21" style="stroke:#181818;stroke-width:1;"/><polygon fill="#181818" points="558.6946,336.6928,567.4451,332.1729,561.8222,332.7917,561.2034,327.1688,558.6946,336.6928" style="stroke:#181818;stroke-width:1;"/></g><!--link n11 to n12--><g class="link" data-entity-1="n11" data-entity-2="n12" data-source-line="56" data-uid="lnk53" id="link_n11_n12"><path d="M1350,268.155 C1350,289.648 1350,318.3119 1350,339.8165" fill="none" id="n11-to-n12" style="stroke:#181818;stroke-width:1;"/><polygon fill="#181818" points="1350,345.8165,1354,336.8165,1350,340.8165,1346,336.8165,1350,345.8165" style="stroke:#181818;stroke-width:1;"/></g><!--link n13 to n22--><g class="link" data-entity-1="n13" data-entity-2="n22" data-source-line="57" data-uid="lnk54" id="link_n13_n22"><path d="M1147.2657,268.155 C1155.4182,289.648 1166.4387,318.7019 1174.5956,340.2065" fill="none" id="n13-to-n22" style="stroke:#181818;stroke-width:1;"/><polygon fill="#181818" points="1176.7235,345.8165,1177.2716,335.9829,1174.9502,341.1415,1169.7916,338.8201,1176.7235,345.8165" style="stroke:#181818;stroke-width:1;"/></g><!--link n16 to n23--><g class="link" data-entity-1="n16" data-entity-2="n23" data-source-line="58" data-uid="lnk55" id="link_n16_n23"><path d="M80,384.155 C80,402.8166 80,425.4075 80,446.6928" fill="none" id="n16-to-n23" style="stroke:#181818;stroke-width:1;"/><polygon fill="#181818" points="80,452.6928,84,443.6928,80,447.6928,76,443.6928,80,452.6928" style="stroke:#181818;stroke-width:1;"/></g><!--link n17 to n24--><g class="link" data-entity-1="n17" data-entity-2="n24" data-source-line="59" data-uid="lnk56" id="link_n17_n24"><path d="M1045,384.155 C1045,402.8166 1045,425.4075 1045,446.6928" fill="none" id="n17-to-n24" style="stroke:#181818;stroke-width:1;"/><polygon fill="#181818" points="1045,452.6928,1049,443.6928,1045,447.6928,1041,443.6928,1045,452.6928" style="stroke:#181818;stroke-width:1;"/></g><!--link n18 to n25--><g class="link" data-entity-1="n18" data-entity-2="n25" data-source-line="60" data-uid="lnk57" id="link_n18_n25"><path d="M698.4873,393.0804 C681.3926,414.4028 662.0948,438.4732 647.0808,457.2002" fill="none" id="n18-to-n25" style="stroke:#181818;stroke-width:1;"/><polygon fill="#181818" points="643.3277,461.8815,652.0782,457.3617,646.4553,457.9805,645.8365,452.3575,643.3277,461.8815" style="stroke:#181818;stroke-width:1;"/></g><!--link n19 to n25--><g class="link" data-entity-1="n19" data-entity-2="n25" data-source-line="61" data-uid="lnk58" id="link_n19_n25"><path d="M843.2647,391.1773 C790.2574,413.2955 721.356,442.0457 675.35,461.2425" fill="none" id="n19-to-n25" style="stroke:#181818;stroke-width:1;"/><polygon fill="#181818" points="669.8127,463.553,679.659,463.7787,674.4271,461.6276,676.5783,456.3957,669.8127,463.553" style="stroke:#181818;stroke-width:1;"/></g><!--link n20 to n26--><g class="link" data-entity-1="n20" data-entity-2="n26" data-source-line="62" data-uid="lnk59" id="link_n20_n26"><path d="M374.4207,393.0804 C375.9814,411.1844 377.4885,428.6662 379.0516,446.7984" fill="none" id="n20-to-n26" style="stroke:#181818;stroke-width:1;"/><polygon fill="#181818" points="379.5669,452.7762,382.7791,443.4659,379.1375,447.7947,374.8087,444.153,379.5669,452.7762" style="stroke:#181818;stroke-width:1;"/></g><!--link n20 to n25--><g class="link" data-entity-1="n20" data-entity-2="n25" data-source-line="63" data-uid="lnk60" id="link_n20_n25"><path d="M433.9705,393.0804 C481.1749,414.4699 539.4129,440.859 580.7316,459.5815" fill="none" id="n20-to-n25" style="stroke:#181818;stroke-width:1;"/><polygon fill="#181818" points="586.1967,462.0579,579.6499,454.6999,581.6424,459.9943,576.3481,461.9867,586.1967,462.0579" style="stroke:#181818;stroke-width:1;"/></g><!--link n21 to n26--><g class="link" data-entity-1="n21" data-entity-2="n26" data-source-line="64" data-uid="lnk61" id="link_n21_n26"><path d="M498.7209,393.0804 C474.5973,411.2514 448.1033,431.2078 423.9949,449.3674" fill="none" id="n21-to-n26" style="stroke:#181818;stroke-width:1;"/><polygon fill="#181818" points="419.2024,452.9774,428.7978,450.7575,423.1962,449.9691,423.9845,444.3675,419.2024,452.9774" style="stroke:#181818;stroke-width:1;"/></g><!--link n21 to n25--><g class="link" data-entity-1="n21" data-entity-2="n25" data-source-line="65" data-uid="lnk62" id="link_n21_n25"><path d="M558.2706,393.0804 C575.1816,414.4028 594.2562,438.4535 609.1087,457.1805" fill="none" id="n21-to-n25" style="stroke:#181818;stroke-width:1;"/><polygon fill="#181818" points="612.8371,461.8815,610.3785,452.3444,609.7301,457.964,604.1105,457.3156,612.8371,461.8815" style="stroke:#181818;stroke-width:1;"/></g><!--SRC=[TPH1Zvim48Nl-HLeUsaZRJU6G41QhRJjgLAbIcsFAraEE8aLOxksoMx-VGSmDeHm-nY_DnwU3S_6NZbzMJq_EJ1d9XJHf8xsf3mVjMn4zLrogIEhYJ2mH8LTQLfQ8ewSHW_hjP9M_r9K_A7wmagwNZz4n4HY4ttwoOud-uqtT6mePLrZUBvWUzAKLDXOeksR-Dps-GtrlrtvQ_cbxuEcPd5WHymb-8vSxWa7Or_qXdZ9OFe1vuvax93mAjZ8yamjtclmbSJONhTTqjKDjopeqYLT8qQgRApIjCktPXOpmTeuGiNFkHixtfcevFkWxf-yCf_s3c4V6b7sac8sfClgm3Z5hTZblnaBuG8OYiyNjpOv7AjPxUgJCo1AyUkGVl0cyxvCNRQOL9Lsr-67UeM7S1MsKqkNQUTizTrZqAQp22hAsOLgjpw9tr1HOG4TtEAzfBiUWjBATCfvw2XVSYcfxiYBHNbZJdDzlBcZxmQ_Eqryy-6eAowDrTXgVmNYoJ6rWKD6y7qgJOtfFfCUCMUY-GYTapl7i6yOhuPWRiuYtjvC3hUseXzkCPqUn3_HrB2E-zU1PdqfDCjMy6zvV7nfVmq3nPuIJrjFgQVWtNdALmBrLAn4x3fl0gA0i4tYC0cu2OW2WZPr29CK3jE0MS1Tm3nWuH6EtYDiWL3O0xdzufOpnp0SsZc6pL7k67P7HU1uI2yRSLj7e_h0wNy0]--></g></svg>