<svg xmlns="http://www.w3.org/2000/svg" xmlns:xlink="http://www.w3.org/1999/xlink" contentStyleType="text/css" data-diagram-type="DESCRIPTION" height="344px" preserveAspectRatio="none" style="width:494px;height:344px;" version="1.1" viewBox="0 0 494 344" width="494px" zoomAndPan="magnify"><defs/><g><!--entity n4--><g class="entity" data-entity="n4" data-source-line="5" data-uid="ent0002" id="entity_n4"><rect fill="#F1F1F1" height="37.7799" rx="2.5" ry="2.5" style="stroke:#181818;stroke-width:0.5;" width="117.9996" x="7" y="7"/><text fill="#000000" font-family="'Segoe UI', 'メイリオ', 'UDEV Gothic HSRFJPDOC', 'Hiragino Kaku Gothic ProN', 'ヒラギノ角ゴ ProN', 'Noto Sans JP', 'Helvetica Neue', Helvetica, Arial, sans-serif" font-size="14" lengthAdjust="spacing" textLength="97.9996" x="17" y="30.9999">porter_const.h</text></g><!--entity n5--><g class="entity" data-entity="n5" data-source-line="6" data-uid="ent0003" id="entity_n5"><rect fill="#F1F1F1" height="37.7799" rx="2.5" ry="2.5" style="stroke:#181818;stroke-width:0.5;" width="110.9996" x="96.5" y="105"/><text fill="#000000" font-family="'Segoe UI', 'メイリオ', 'UDEV Gothic HSRFJPDOC', 'Hiragino Kaku Gothic ProN', 'ヒラギノ角ゴ ProN', 'Noto Sans JP', 'Helvetica Neue', Helvetica, Arial, sans-serif" font-size="14" lengthAdjust="spacing" textLength="90.9996" x="106.5" y="128.9999">porter_type.h</text></g><!--entity n1--><g class="entity" data-entity="n1" data-source-line="7" data-uid="ent0004" id="entity_n1"><rect fill="#ADD8E6" height="37.7799" rx="2.5" ry="2.5" style="stroke:#181818;stroke-width:0.5;" width="79.4998" x="203.5" y="301"/><text fill="#000000" font-family="'Segoe UI', 'メイリオ', 'UDEV Gothic HSRFJPDOC', 'Hiragino Kaku Gothic ProN', 'ヒラギノ角ゴ ProN', 'Noto Sans JP', 'Helvetica Neue', Helvetica, Arial, sans-serif" font-size="14" font-weight="bold" lengthAdjust="spacing" textLength="59.4998" x="213.5" y="324.9999">packet.c</text></g><!--entity n8--><g class="entity" data-entity="n8" data-source-line="8" data-uid="ent0005" id="entity_n8"><rect fill="#F1F1F1" height="37.7799" rx="2.5" ry="2.5" style="stroke:#181818;stroke-width:0.5;" width="75.9998" x="205" y="203"/><text fill="#000000" font-family="'Segoe UI', 'メイリオ', 'UDEV Gothic HSRFJPDOC', 'Hiragino Kaku Gothic ProN', 'ヒラギノ角ゴ ProN', 'Noto Sans JP', 'Helvetica Neue', Helvetica, Arial, sans-serif" font-size="14" lengthAdjust="spacing" textLength="55.9998" x="215" y="226.9999">packet.h</text></g><!--entity n3--><g class="entity" data-entity="n3" data-source-line="9" data-uid="ent0006" id="entity_n3"><rect fill="#F1F1F1" height="37.7799" rx="2.5" ry="2.5" style="stroke:#181818;stroke-width:0.5;" width="61.9998" x="316" y="203"/><text fill="#000000" font-family="'Segoe UI', 'メイリオ', 'UDEV Gothic HSRFJPDOC', 'Hiragino Kaku Gothic ProN', 'ヒラギノ角ゴ ProN', 'Noto Sans JP', 'Helvetica Neue', Helvetica, Arial, sans-serif" font-size="14" lengthAdjust="spacing" textLength="41.9998" x="326" y="226.9999">inet.h</text></g><!--entity n6--><g class="entity" data-entity="n6" data-source-line="10" data-uid="ent0007" id="entity_n6"><rect fill="#F1F1F1" height="37.7799" rx="2.5" ry="2.5" style="stroke:#181818;stroke-width:0.5;" width="75.9998" x="171" y="7"/><text fill="#000000" font-family="'Segoe UI', 'メイリオ', 'UDEV Gothic HSRFJPDOC', 'Hiragino Kaku Gothic ProN', 'ヒラギノ角ゴ ProN', 'Noto Sans JP', 'Helvetica Neue', Helvetica, Arial, sans-serif" font-size="14" lengthAdjust="spacing" textLength="55.9998" x="181" y="30.9999">stddef.h</text></g><!--entity n7--><g class="entity" data-entity="n7" data-source-line="11" data-uid="ent0008" id="entity_n7"><rect fill="#F1F1F1" height="37.7799" rx="2.5" ry="2.5" style="stroke:#181818;stroke-width:0.5;" width="75.9998" x="288" y="7"/><text fill="#000000" font-family="'Segoe UI', 'メイリオ', 'UDEV Gothic HSRFJPDOC', 'Hiragino Kaku Gothic ProN', 'ヒラギノ角ゴ ProN', 'Noto Sans JP', 'Helvetica Neue', Helvetica, Arial, sans-serif" font-size="14" lengthAdjust="spacing" textLength="55.9998" x="298" y="30.9999">stdint.h</text></g><!--entity n2--><g class="entity" data-entity="n2" data-source-line="12" data-uid="ent0009" id="entity_n2"><rect fill="#F1F1F1" height="37.7799" rx="2.5" ry="2.5" style="stroke:#181818;stroke-width:0.5;" width="75.9998" x="413" y="203"/><text fill="#000000" font-family="'Segoe UI', 'メイリオ', 'UDEV Gothic HSRFJPDOC', 'Hiragino Kaku Gothic ProN', 'ヒラギノ角ゴ ProN', 'Noto Sans JP', 'Helvetica Neue', Helvetica, Arial, sans-serif" font-size="14" lengthAdjust="spacing" textLength="55.9998" x="423" y="226.9999">string.h</text></g><!--link n6 to n5--><g class="link" data-entity-1="n6" data-entity-2="n5" data-source-line="13" data-uid="lnk10" id="link_n6_n5"><path d="M197.7386,45.3616 C187.7458,62.5424 176.2404,82.3235 166.2546,99.4921" fill="none" id="n6-to-n5" style="stroke:#181818;stroke-width:1;"/><polygon fill="#181818" points="163.238,104.6786,171.2206,98.9099,165.7519,100.3565,164.3053,94.8877,163.238,104.6786" style="stroke:#181818;stroke-width:1;"/></g><!--link n7 to n5--><g class="link" data-entity-1="n7" data-entity-2="n5" data-source-line="14" data-uid="lnk11" id="link_n7_n5"><path d="M292.038,45.128 C261.3788,62.3959 221.7369,84.7229 191.1042,101.9758" fill="none" id="n7-to-n5" style="stroke:#181818;stroke-width:1;"/><polygon fill="#181818" points="185.8764,104.9202,195.6811,103.9888,190.2329,102.4665,191.7552,97.0183,185.8764,104.9202" style="stroke:#181818;stroke-width:1;"/></g><!--link n4 to n5--><g class="link" data-entity-1="n4" data-entity-2="n5" data-source-line="15" data-uid="lnk12" id="link_n4_n5"><path d="M82.9908,45.3616 C98.0678,62.5424 116.0207,83.0002 131.087,100.1688" fill="none" id="n4-to-n5" style="stroke:#181818;stroke-width:1;"/><polygon fill="#181818" points="135.0445,104.6786,132.1147,95.2756,131.7466,100.9205,126.1017,100.5523,135.0445,104.6786" style="stroke:#181818;stroke-width:1;"/></g><!--link n2 to n1--><g class="link" data-entity-1="n2" data-entity-2="n1" data-source-line="16" data-uid="lnk13" id="link_n2_n1"><path d="M412.8496,239.9747 C375.9061,257.3808 325.5578,281.1026 288.1057,298.7483" fill="none" id="n2-to-n1" style="stroke:#181818;stroke-width:1;"/><polygon fill="#181818" points="282.678,301.3056,292.5245,301.0881,287.2011,299.1745,289.1147,293.8512,282.678,301.3056" style="stroke:#181818;stroke-width:1;"/></g><!--link n3 to n1--><g class="link" data-entity-1="n3" data-entity-2="n1" data-source-line="17" data-uid="lnk14" id="link_n3_n1"><path d="M326.4529,241.3616 C308.2203,258.5424 286.0908,279.3952 267.8711,296.5638" fill="none" id="n3-to-n1" style="stroke:#181818;stroke-width:1;"/><polygon fill="#181818" points="263.5044,300.6786,272.7977,297.4175,267.1433,297.2496,267.3113,291.5952,263.5044,300.6786" style="stroke:#181818;stroke-width:1;"/></g><!--link n4 to n1--><g class="link" data-entity-1="n4" data-entity-2="n1" data-source-line="18" data-uid="lnk15" id="link_n4_n1"><path d="M64.6977,45.1358 C63.8207,69.078 64.8119,110.838 79,143 C109.5195,212.1826 173.7687,268.1512 211.8207,297.2987" fill="none" id="n4-to-n1" style="stroke:#181818;stroke-width:1;"/><polygon fill="#181818" points="216.5839,300.9473,211.8715,292.299,212.6146,297.9068,207.0067,298.6499,216.5839,300.9473" style="stroke:#181818;stroke-width:1;"/></g><!--link n5 to n1--><g class="link" data-entity-1="n5" data-entity-2="n1" data-source-line="19" data-uid="lnk16" id="link_n5_n1"><path d="M155.7583,143.3524 C160.8322,167.1562 171.1108,208.412 187,241 C197.757,263.0622 210.6933,280.9837 223.0602,296.3259" fill="none" id="n5-to-n1" style="stroke:#181818;stroke-width:1;"/><polygon fill="#181818" points="226.8256,300.9972,224.2917,291.4799,223.6877,297.1044,218.0632,296.5005,226.8256,300.9972" style="stroke:#181818;stroke-width:1;"/></g><!--link n8 to n1--><g class="link" data-entity-1="n8" data-entity-2="n1" data-source-line="20" data-uid="lnk17" id="link_n8_n1"><path d="M243,241.3616 C243,258.5424 243,277.51 243,294.6786" fill="none" id="n8-to-n1" style="stroke:#181818;stroke-width:1;"/><polygon fill="#181818" points="243,300.6786,247,291.6786,243,295.6786,239,291.6786,243,300.6786" style="stroke:#181818;stroke-width:1;"/></g><!--link n6 to n8--><g class="link" data-entity-1="n6" data-entity-2="n8" data-source-line="21" data-uid="lnk18" id="link_n6_n8"><path d="M213.133,45.1081 C216.5239,61.0781 221.3443,84.4723 225,105 C231.1255,139.3963 236.2104,173.7641 239.5018,196.9644" fill="none" id="n6-to-n8" style="stroke:#181818;stroke-width:1;"/><polygon fill="#181818" points="240.3446,202.9049,243.0408,193.4323,239.6423,197.9545,235.1201,194.556,240.3446,202.9049" style="stroke:#181818;stroke-width:1;"/></g><!--link n7 to n8--><g class="link" data-entity-1="n7" data-entity-2="n8" data-source-line="22" data-uid="lnk19" id="link_n7_n8"><path d="M317.8905,45.1502 C302.0228,82.6208 269.3762,159.7141 253.4821,197.2471" fill="none" id="n7-to-n8" style="stroke:#181818;stroke-width:1;"/><polygon fill="#181818" points="251.1424,202.7721,258.3353,196.0444,253.0921,198.1679,250.9686,192.9248,251.1424,202.7721" style="stroke:#181818;stroke-width:1;"/></g><!--link n5 to n8--><g class="link" data-entity-1="n5" data-entity-2="n8" data-source-line="23" data-uid="lnk20" id="link_n5_n8"><path d="M169.9787,143.3616 C185.9322,160.5424 205.0337,181.1132 220.976,198.2818" fill="none" id="n5-to-n8" style="stroke:#181818;stroke-width:1;"/><polygon fill="#181818" points="225.0587,202.6786,221.8658,193.3617,221.6564,199.0146,216.0035,198.8053,225.0587,202.6786" style="stroke:#181818;stroke-width:1;"/></g><!--SRC=[RSvD3e8m48RXFQTeS4S2HldhWh3GhNSm5KPem2bfnuMt5mECODozoJFze73qwg7qYlqShjCuAAiUugQghh7cYVNPzCOAiWhTI83aMQX8OTE3y0TZ2UorCkWeQdsXdC3apm6z1bWyNNiG3EENWA8g22O-YDr5DosT-YTibgQxUKIkIUCNuZKugckuBvJza4P-bM_9QcmMEdgOYJ0iFp-EELV2TPpgu67CbN2bN99htfEy9_bElW40]--></g></svg>