<svg xmlns="http://www.w3.org/2000/svg" xmlns:xlink="http://www.w3.org/1999/xlink" contentStyleType="text/css" data-diagram-type="DESCRIPTION" height="246px" preserveAspectRatio="none" style="width:330px;height:246px;" version="1.1" viewBox="0 0 330 246" width="330px" zoomAndPan="magnify"><defs/><g><!--entity n0--><g class="entity" data-entity="n0" data-source-line="5" data-uid="ent0002" id="entity_n0"><rect fill="#ADD8E6" height="37.7799" rx="2.5" ry="2.5" style="stroke:#181818;stroke-width:0.5;" width="153.8745" x="170.5" y="7"/><text fill="#000000" font-family="'Segoe UI', 'メイリオ', 'UDEV Gothic HSRFJPDOC', 'Hiragino Kaku Gothic ProN', 'ヒラギノ角ゴ ProN', 'Noto Sans JP', 'Helvetica Neue', Helvetica, Arial, sans-serif" font-size="14" font-weight="bold" lengthAdjust="spacing" textLength="133.8745" x="180.5" y="30.9999">config_load_global</text></g><!--entity n1--><g class="entity" data-entity="n1" data-source-line="6" data-uid="ent0003" id="entity_n1"><rect fill="#F1F1F1" height="37.7799" rx="2.5" ry="2.5" style="stroke:#181818;stroke-width:0.5;" width="166.9994" x="7" y="105"/><text fill="#000000" font-family="'Segoe UI', 'メイリオ', 'UDEV Gothic HSRFJPDOC', 'Hiragino Kaku Gothic ProN', 'ヒラギノ角ゴ ProN', 'Noto Sans JP', 'Helvetica Neue', Helvetica, Arial, sans-serif" font-size="14" lengthAdjust="spacing" textLength="146.9994" x="17" y="128.9999">open_config_file_read</text></g><!--entity n2--><g class="entity" data-entity="n2" data-source-line="7" data-uid="ent0004" id="entity_n2"><rect fill="#F1F1F1" height="37.7799" rx="2.5" ry="2.5" style="stroke:#181818;stroke-width:0.5;" width="75.9998" x="209.5" y="105"/><text fill="#000000" font-family="'Segoe UI', 'メイリオ', 'UDEV Gothic HSRFJPDOC', 'Hiragino Kaku Gothic ProN', 'ヒラギノ角ゴ ProN', 'Noto Sans JP', 'Helvetica Neue', Helvetica, Arial, sans-serif" font-size="14" lengthAdjust="spacing" textLength="55.9998" x="219.5" y="128.9999">parse_kv</text></g><!--entity n3--><g class="entity" data-entity="n3" data-source-line="8" data-uid="ent0005" id="entity_n3"><rect fill="#F1F1F1" height="37.7799" rx="2.5" ry="2.5" style="stroke:#181818;stroke-width:0.5;" width="47.9999" x="268.5" y="203"/><text fill="#000000" font-family="'Segoe UI', 'メイリオ', 'UDEV Gothic HSRFJPDOC', 'Hiragino Kaku Gothic ProN', 'ヒラギノ角ゴ ProN', 'Noto Sans JP', 'Helvetica Neue', Helvetica, Arial, sans-serif" font-size="14" lengthAdjust="spacing" textLength="27.9999" x="278.5" y="226.9999">trim</text></g><!--link n0 to n1--><g class="link" data-entity-1="n0" data-entity-2="n1" data-source-line="9" data-uid="lnk6" id="link_n0_n1"><path d="M216.8561,45.128 C189.1923,62.3959 153.7963,84.4902 126.1564,101.7431" fill="none" id="n0-to-n1" style="stroke:#181818;stroke-width:1;"/><polygon fill="#181818" points="121.0666,104.9202,130.8194,103.5478,125.3081,102.2726,126.5833,96.7614,121.0666,104.9202" style="stroke:#181818;stroke-width:1;"/></g><!--link n0 to n2--><g class="link" data-entity-1="n0" data-entity-2="n2" data-source-line="10" data-uid="lnk7" id="link_n0_n2"><path d="M247.5,45.3616 C247.5,62.5424 247.5,81.51 247.5,98.6786" fill="none" id="n0-to-n2" style="stroke:#181818;stroke-width:1;"/><polygon fill="#181818" points="247.5,104.6786,251.5,95.6786,247.5,99.6786,243.5,95.6786,247.5,104.6786" style="stroke:#181818;stroke-width:1;"/></g><!--link n0 to n3--><g class="link" data-entity-1="n0" data-entity-2="n3" data-source-line="11" data-uid="lnk8" id="link_n0_n3"><path d="M266.3364,45.1989 C279.586,60.1273 296.2046,82.0931 303.5,105 C314.087,138.2424 307.282,173.5124 300.4938,197.0981" fill="none" id="n0-to-n3" style="stroke:#181818;stroke-width:1;"/><polygon fill="#181818" points="298.8343,202.864,305.1675,195.3214,300.2172,198.059,297.4796,193.1088,298.8343,202.864" style="stroke:#181818;stroke-width:1;"/></g><!--link n2 to n3--><g class="link" data-entity-1="n2" data-entity-2="n3" data-source-line="12" data-uid="lnk9" id="link_n2_n3"><path d="M256.3906,143.3616 C264.2797,160.5424 273.2407,180.0574 281.1242,197.226" fill="none" id="n2-to-n3" style="stroke:#181818;stroke-width:1;"/><polygon fill="#181818" points="283.6279,202.6786,283.5074,192.8305,281.5414,198.1347,276.2372,196.1688,283.6279,202.6786" style="stroke:#181818;stroke-width:1;"/></g><!--SRC=[JOt13e8m38RlFCMYjoL4nIlXe5VVOIbGva9fIJTCV7jdGCFjIxz- -UkOteHDKPysY6FW6HGcqq8tUfM5-xkGg4aA7BD2JeLYbu0zeJbOsmaFmJiIw9qdQO6iFHY8Xi_c-0Z-cMwquBwH6TbjsH08dIBqQtBP_-MrY6vyhQhQgwHXMi_N8k-KPVDjVrJzATjgemy0]--></g></svg>