<svg xmlns="http://www.w3.org/2000/svg" xmlns:xlink="http://www.w3.org/1999/xlink" contentStyleType="text/css" data-diagram-type="DESCRIPTION" height="246px" preserveAspectRatio="none" style="width:245px;height:246px;" version="1.1" viewBox="0 0 245 246" width="245px" zoomAndPan="magnify"><defs/><g><!--entity n1--><g class="entity" data-entity="n1" data-source-line="5" data-uid="ent0002" id="entity_n1"><rect fill="#ADD8E6" height="37.7799" rx="2.5" ry="2.5" style="stroke:#181818;stroke-width:0.5;" width="79.4998" x="51.5" y="203"/><text fill="#000000" font-family="'Segoe UI', 'メイリオ', 'UDEV Gothic HSRFJPDOC', 'Hiragino Kaku Gothic ProN', 'ヒラギノ角ゴ ProN', 'Noto Sans JP', 'Helvetica Neue', Helvetica, Arial, sans-serif" font-size="14" font-weight="bold" lengthAdjust="spacing" textLength="59.4998" x="61.5" y="226.9999">seqnum.c</text></g><!--entity n4--><g class="entity" data-entity="n4" data-source-line="6" data-uid="ent0003" id="entity_n4"><rect fill="#F1F1F1" height="37.7799" rx="2.5" ry="2.5" style="stroke:#181818;stroke-width:0.5;" width="75.9998" x="53" y="105"/><text fill="#000000" font-family="'Segoe UI', 'メイリオ', 'UDEV Gothic HSRFJPDOC', 'Hiragino Kaku Gothic ProN', 'ヒラギノ角ゴ ProN', 'Noto Sans JP', 'Helvetica Neue', Helvetica, Arial, sans-serif" font-size="14" lengthAdjust="spacing" textLength="55.9998" x="63" y="128.9999">seqnum.h</text></g><!--entity n2--><g class="entity" data-entity="n2" data-source-line="7" data-uid="ent0004" id="entity_n2"><rect fill="#F1F1F1" height="37.7799" rx="2.5" ry="2.5" style="stroke:#181818;stroke-width:0.5;" width="75.9998" x="164" y="105"/><text fill="#000000" font-family="'Segoe UI', 'メイリオ', 'UDEV Gothic HSRFJPDOC', 'Hiragino Kaku Gothic ProN', 'ヒラギノ角ゴ ProN', 'Noto Sans JP', 'Helvetica Neue', Helvetica, Arial, sans-serif" font-size="14" lengthAdjust="spacing" textLength="55.9998" x="174" y="128.9999">stddef.h</text></g><!--entity n3--><g class="entity" data-entity="n3" data-source-line="8" data-uid="ent0005" id="entity_n3"><rect fill="#F1F1F1" height="37.7799" rx="2.5" ry="2.5" style="stroke:#181818;stroke-width:0.5;" width="75.9998" x="7" y="7"/><text fill="#000000" font-family="'Segoe UI', 'メイリオ', 'UDEV Gothic HSRFJPDOC', 'Hiragino Kaku Gothic ProN', 'ヒラギノ角ゴ ProN', 'Noto Sans JP', 'Helvetica Neue', Helvetica, Arial, sans-serif" font-size="14" lengthAdjust="spacing" textLength="55.9998" x="17" y="30.9999">stdint.h</text></g><!--link n2 to n1--><g class="link" data-entity-1="n2" data-entity-2="n1" data-source-line="9" data-uid="lnk6" id="link_n2_n1"><path d="M180.3346,143.128 C160.7761,160.3959 136.6501,181.6962 117.1086,198.9491" fill="none" id="n2-to-n1" style="stroke:#181818;stroke-width:1;"/><polygon fill="#181818" points="112.6108,202.9202,122.0049,199.9621,116.359,199.611,116.7102,193.965,112.6108,202.9202" style="stroke:#181818;stroke-width:1;"/></g><!--link n3 to n1--><g class="link" data-entity-1="n3" data-entity-2="n1" data-source-line="10" data-uid="lnk7" id="link_n3_n1"><path d="M38.9259,45.1444 C32.4367,68.7385 24.421,109.7829 35,143 C42.2954,165.9069 54.9312,183.3852 68.1808,198.3136" fill="none" id="n3-to-n1" style="stroke:#181818;stroke-width:1;"/><polygon fill="#181818" points="72.1636,202.8011,69.181,193.4147,68.8446,199.0616,63.1978,198.7251,72.1636,202.8011" style="stroke:#181818;stroke-width:1;"/></g><!--link n4 to n1--><g class="link" data-entity-1="n4" data-entity-2="n1" data-source-line="11" data-uid="lnk8" id="link_n4_n1"><path d="M91,143.3616 C91,160.5424 91,179.51 91,196.6786" fill="none" id="n4-to-n1" style="stroke:#181818;stroke-width:1;"/><polygon fill="#181818" points="91,202.6786,95,193.6786,91,197.6786,87,193.6786,91,202.6786" style="stroke:#181818;stroke-width:1;"/></g><!--link n3 to n4--><g class="link" data-entity-1="n3" data-entity-2="n4" data-source-line="12" data-uid="lnk9" id="link_n3_n4"><path d="M54.0881,45.3616 C62.1526,62.5424 71.3225,82.0786 79.3813,99.2472" fill="none" id="n3-to-n4" style="stroke:#181818;stroke-width:1;"/><polygon fill="#181818" points="81.9308,104.6786,81.7276,94.8318,79.8062,100.1524,74.4857,98.2311,81.9308,104.6786" style="stroke:#181818;stroke-width:1;"/></g><!--SRC=[NSsn3e8m4CRnlKznmQq96g4ZOT3LbwZjMHhA5TlhuDjB8XXb-tA_Vt9TvbV0NdIdTUJHqwoJdk2kpUXIB6IlCSG4d3JbXP1O93IioGM4IigCJohJqKXPWSv0PpZSl1lu4Wh-bcitV2hrHsmjFZPgTkI9Dse5DL3N_V95KFjTQdzJRm00]--></g></svg>