<svg xmlns="http://www.w3.org/2000/svg" xmlns:xlink="http://www.w3.org/1999/xlink" contentStyleType="text/css" data-diagram-type="DESCRIPTION" height="344px" preserveAspectRatio="none" style="width:562px;height:344px;" version="1.1" viewBox="0 0 562 344" width="562px" zoomAndPan="magnify"><defs/><g><!--entity n5--><g class="entity" data-entity="n5" data-source-line="5" data-uid="ent0002" id="entity_n5"><rect fill="#F1F1F1" height="37.7799" rx="2.5" ry="2.5" style="stroke:#181818;stroke-width:0.5;" width="117.9996" x="7" y="7"/><text fill="#000000" font-family="'Segoe UI', 'メイリオ', 'UDEV Gothic HSRFJPDOC', 'Hiragino Kaku Gothic ProN', 'ヒラギノ角ゴ ProN', 'Noto Sans JP', 'Helvetica Neue', Helvetica, Arial, sans-serif" font-size="14" lengthAdjust="spacing" textLength="97.9996" x="17" y="30.9999">porter_const.h</text></g><!--entity n6--><g class="entity" data-entity="n6" data-source-line="6" data-uid="ent0003" id="entity_n6"><rect fill="#F1F1F1" height="37.7799" rx="2.5" ry="2.5" style="stroke:#181818;stroke-width:0.5;" width="110.9996" x="107.5" y="105"/><text fill="#000000" font-family="'Segoe UI', 'メイリオ', 'UDEV Gothic HSRFJPDOC', 'Hiragino Kaku Gothic ProN', 'ヒラギノ角ゴ ProN', 'Noto Sans JP', 'Helvetica Neue', Helvetica, Arial, sans-serif" font-size="14" lengthAdjust="spacing" textLength="90.9996" x="117.5" y="128.9999">porter_type.h</text></g><!--entity n1--><g class="entity" data-entity="n1" data-source-line="7" data-uid="ent0004" id="entity_n1"><rect fill="#ADD8E6" height="37.7799" rx="2.5" ry="2.5" style="stroke:#181818;stroke-width:0.5;" width="79.4998" x="252.5" y="301"/><text fill="#000000" font-family="'Segoe UI', 'メイリオ', 'UDEV Gothic HSRFJPDOC', 'Hiragino Kaku Gothic ProN', 'ヒラギノ角ゴ ProN', 'Noto Sans JP', 'Helvetica Neue', Helvetica, Arial, sans-serif" font-size="14" font-weight="bold" lengthAdjust="spacing" textLength="59.4998" x="262.5" y="324.9999">packet.c</text></g><!--entity n8--><g class="entity" data-entity="n8" data-source-line="8" data-uid="ent0005" id="entity_n8"><rect fill="#F1F1F1" height="37.7799" rx="2.5" ry="2.5" style="stroke:#181818;stroke-width:0.5;" width="75.9998" x="202" y="203"/><text fill="#000000" font-family="'Segoe UI', 'メイリオ', 'UDEV Gothic HSRFJPDOC', 'Hiragino Kaku Gothic ProN', 'ヒラギノ角ゴ ProN', 'Noto Sans JP', 'Helvetica Neue', Helvetica, Arial, sans-serif" font-size="14" lengthAdjust="spacing" textLength="55.9998" x="212" y="226.9999">packet.h</text></g><!--entity n4--><g class="entity" data-entity="n4" data-source-line="9" data-uid="ent0006" id="entity_n4"><rect fill="#F1F1F1" height="37.7799" rx="2.5" ry="2.5" style="stroke:#181818;stroke-width:0.5;" width="61.9998" x="313" y="203"/><text fill="#000000" font-family="'Segoe UI', 'メイリオ', 'UDEV Gothic HSRFJPDOC', 'Hiragino Kaku Gothic ProN', 'ヒラギノ角ゴ ProN', 'Noto Sans JP', 'Helvetica Neue', Helvetica, Arial, sans-serif" font-size="14" lengthAdjust="spacing" textLength="41.9998" x="323" y="226.9999">inet.h</text></g><!--entity n2--><g class="entity" data-entity="n2" data-source-line="10" data-uid="ent0007" id="entity_n2"><rect fill="#F1F1F1" height="37.7799" rx="2.5" ry="2.5" style="stroke:#181818;stroke-width:0.5;" width="75.9998" x="305" y="7"/><text fill="#000000" font-family="'Segoe UI', 'メイリオ', 'UDEV Gothic HSRFJPDOC', 'Hiragino Kaku Gothic ProN', 'ヒラギノ角ゴ ProN', 'Noto Sans JP', 'Helvetica Neue', Helvetica, Arial, sans-serif" font-size="14" lengthAdjust="spacing" textLength="55.9998" x="315" y="30.9999">stddef.h</text></g><!--entity n7--><g class="entity" data-entity="n7" data-source-line="11" data-uid="ent0008" id="entity_n7"><rect fill="#F1F1F1" height="37.7799" rx="2.5" ry="2.5" style="stroke:#181818;stroke-width:0.5;" width="75.9998" x="183" y="7"/><text fill="#000000" font-family="'Segoe UI', 'メイリオ', 'UDEV Gothic HSRFJPDOC', 'Hiragino Kaku Gothic ProN', 'ヒラギノ角ゴ ProN', 'Noto Sans JP', 'Helvetica Neue', Helvetica, Arial, sans-serif" font-size="14" lengthAdjust="spacing" textLength="55.9998" x="193" y="30.9999">stdint.h</text></g><!--entity n3--><g class="entity" data-entity="n3" data-source-line="12" data-uid="ent0009" id="entity_n3"><rect fill="#F1F1F1" height="37.7799" rx="2.5" ry="2.5" style="stroke:#181818;stroke-width:0.5;" width="75.9998" x="481" y="203"/><text fill="#000000" font-family="'Segoe UI', 'メイリオ', 'UDEV Gothic HSRFJPDOC', 'Hiragino Kaku Gothic ProN', 'ヒラギノ角ゴ ProN', 'Noto Sans JP', 'Helvetica Neue', Helvetica, Arial, sans-serif" font-size="14" lengthAdjust="spacing" textLength="55.9998" x="491" y="226.9999">string.h</text></g><!--link n2 to n6--><g class="link" data-entity-1="n2" data-entity-2="n6" data-source-line="13" data-uid="lnk10" id="link_n2_n6"><path d="M307.8669,45.128 C276.1504,62.3959 235.0031,84.7983 203.3141,102.0512" fill="none" id="n2-to-n6" style="stroke:#181818;stroke-width:1;"/><polygon fill="#181818" points="198.0445,104.9202,207.8616,104.1298,202.4358,102.5294,204.0362,97.1036,198.0445,104.9202" style="stroke:#181818;stroke-width:1;"/></g><!--link n7 to n6--><g class="link" data-entity-1="n7" data-entity-2="n6" data-source-line="14" data-uid="lnk11" id="link_n7_n6"><path d="M209.5411,45.3616 C199.3729,62.5424 187.652,82.3465 177.491,99.5151" fill="none" id="n7-to-n6" style="stroke:#181818;stroke-width:1;"/><polygon fill="#181818" points="174.4351,104.6786,182.4613,98.9707,176.9817,100.3757,175.5767,94.8961,174.4351,104.6786" style="stroke:#181818;stroke-width:1;"/></g><!--link n5 to n6--><g class="link" data-entity-1="n5" data-entity-2="n6" data-source-line="15" data-uid="lnk12" id="link_n5_n6"><path d="M85.1641,45.3616 C102.1695,62.5424 122.6615,83.2457 139.6549,100.4143" fill="none" id="n5-to-n6" style="stroke:#181818;stroke-width:1;"/><polygon fill="#181818" points="143.8757,104.6786,140.3874,95.4682,140.3583,101.125,134.7016,101.096,143.8757,104.6786" style="stroke:#181818;stroke-width:1;"/></g><!--link n2 to n1--><g class="link" data-entity-1="n2" data-entity-2="n1" data-source-line="16" data-uid="lnk13" id="link_n2_n1"><path d="M355.3835,45.0623 C378.8454,83.7761 424.6282,173.6423 392,241 C379.2681,267.2837 358.2286,284.3867 335.8451,297.7716" fill="none" id="n2-to-n1" style="stroke:#181818;stroke-width:1;"/><polygon fill="#181818" points="330.6956,300.8509,340.4728,299.6649,334.9869,298.2848,336.367,292.7989,330.6956,300.8509" style="stroke:#181818;stroke-width:1;"/></g><!--link n3 to n1--><g class="link" data-entity-1="n3" data-entity-2="n1" data-source-line="17" data-uid="lnk14" id="link_n3_n1"><path d="M480.7492,238.5135 C439.3051,256.4057 379.0071,282.4374 337.0611,300.5463" fill="none" id="n3-to-n1" style="stroke:#181818;stroke-width:1;"/><polygon fill="#181818" points="331.5525,302.9245,341.4008,303.0296,336.143,300.9427,338.2299,295.6849,331.5525,302.9245" style="stroke:#181818;stroke-width:1;"/></g><!--link n4 to n1--><g class="link" data-entity-1="n4" data-entity-2="n1" data-source-line="18" data-uid="lnk15" id="link_n4_n1"><path d="M333.7265,241.3616 C324.6102,258.5424 314.1743,278.2099 305.0645,295.3785" fill="none" id="n4-to-n1" style="stroke:#181818;stroke-width:1;"/><polygon fill="#181818" points="302.2522,300.6786,310.004,294.6033,304.5958,296.2618,302.9372,290.8536,302.2522,300.6786" style="stroke:#181818;stroke-width:1;"/></g><!--link n5 to n1--><g class="link" data-entity-1="n5" data-entity-2="n1" data-source-line="19" data-uid="lnk16" id="link_n5_n1"><path d="M67.4204,45.4129 C69.734,69.2776 75.6073,110.5949 90,143 C111.9384,192.3943 122.1467,204.4925 162,241 C189.0692,265.7967 219.7449,284.1894 246.9967,298.351" fill="none" id="n5-to-n1" style="stroke:#181818;stroke-width:1;"/><polygon fill="#181818" points="252.3207,301.1177,246.1791,293.4183,247.884,298.8121,242.4902,300.517,252.3207,301.1177" style="stroke:#181818;stroke-width:1;"/></g><!--link n6 to n1--><g class="link" data-entity-1="n6" data-entity-2="n1" data-source-line="20" data-uid="lnk17" id="link_n6_n1"><path d="M162.2255,143.3729 C162.1433,167.9346 165.0832,210.7213 184,241 C200.3708,267.2035 223.6688,284.5326 247.287,297.9901" fill="none" id="n6-to-n1" style="stroke:#181818;stroke-width:1;"/><polygon fill="#181818" points="252.5001,300.9605,246.6607,293.0295,248.1558,298.4852,242.7001,299.9803,252.5001,300.9605" style="stroke:#181818;stroke-width:1;"/></g><!--link n8 to n1--><g class="link" data-entity-1="n8" data-entity-2="n1" data-source-line="21" data-uid="lnk18" id="link_n8_n1"><path d="M250.2735,241.3616 C259.3898,258.5424 269.8257,278.2099 278.9355,295.3785" fill="none" id="n8-to-n1" style="stroke:#181818;stroke-width:1;"/><polygon fill="#181818" points="281.7478,300.6786,281.0628,290.8536,279.4042,296.2618,273.996,294.6033,281.7478,300.6786" style="stroke:#181818;stroke-width:1;"/></g><!--link n2 to n8--><g class="link" data-entity-1="n2" data-entity-2="n8" data-source-line="22" data-uid="lnk19" id="link_n2_n8"><path d="M332.9364,45.1502 C313.2452,82.6208 272.6195,159.9278 252.8956,197.4608" fill="none" id="n2-to-n8" style="stroke:#181818;stroke-width:1;"/><polygon fill="#181818" points="250.1045,202.7721,257.832,196.6659,252.4304,198.346,250.7503,192.9444,250.1045,202.7721" style="stroke:#181818;stroke-width:1;"/></g><!--link n7 to n8--><g class="link" data-entity-1="n7" data-entity-2="n8" data-source-line="23" data-uid="lnk20" id="link_n7_n8"><path d="M225.4643,45.0319 C228.9941,60.9565 233.6978,84.3269 236,105 C239.8242,139.3391 240.3564,173.6662 240.2669,196.8856" fill="none" id="n7-to-n8" style="stroke:#181818;stroke-width:1;"/><polygon fill="#181818" points="240.2438,202.8856,244.2785,193.9011,240.2631,197.8856,236.2785,193.8702,240.2438,202.8856" style="stroke:#181818;stroke-width:1;"/></g><!--link n6 to n8--><g class="link" data-entity-1="n6" data-entity-2="n8" data-source-line="24" data-uid="lnk21" id="link_n6_n8"><path d="M178.2127,143.3616 C191.7119,160.5424 207.6224,180.7921 221.112,197.9607" fill="none" id="n6-to-n8" style="stroke:#181818;stroke-width:1;"/><polygon fill="#181818" points="224.8189,202.6786,222.4038,193.1304,221.7298,198.747,216.1132,198.073,224.8189,202.6786" style="stroke:#181818;stroke-width:1;"/></g><!--SRC=[RSwz3e8m4C3ndQTeT2C1mwST38EkleEfS48ZNabx3Boz6E04u_PFVdVNdXmDBHJUwJ27Ushib5KlSLVbixQcn-fYMcC5MOLk943oB9Iai6v1x3fZ2UojDEWeR7P2EO7Pdm4QEbWyNxllT-DBG67f-nD7Od_LTKFdjeVDfMbkFYBNfF4BwHeSLHKy5ef_I2Dl7RTaDTOB9Hx68WYApyVno9LnpHfvc72bN1bNpYMvvbt9boNFoJS0]--></g></svg>