<svg xmlns="http://www.w3.org/2000/svg" xmlns:xlink="http://www.w3.org/1999/xlink" contentStyleType="text/css" data-diagram-type="DESCRIPTION" height="282px" preserveAspectRatio="none" style="width:1071px;height:282px;" version="1.1" viewBox="0 0 1071 282" width="1071px" zoomAndPan="magnify"><defs/><g><!--entity n0--><g class="entity" data-entity="n0" data-source-line="5" data-uid="ent0002" id="entity_n0"><rect fill="#ADD8E6" height="37.7799" rx="2.5" ry="2.5" style="stroke:#181818;stroke-width:0.5;" width="138.9995" x="396.5" y="7"/><text fill="#000000" font-family="'Segoe UI', 'メイリオ', 'UDEV Gothic HSRFJPDOC', 'Hiragino Kaku Gothic ProN', 'ヒラギノ角ゴ ProN', 'Noto Sans JP', 'Helvetica Neue', Helvetica, Arial, sans-serif" font-size="14" font-weight="bold" lengthAdjust="spacing" textLength="118.9995" x="406.5" y="30.9999">recv_thread_func</text></g><!--entity n1--><g class="entity" data-entity="n1" data-source-line="6" data-uid="ent0003" id="entity_n1"><rect fill="#F1F1F1" height="55.5598" rx="2.5" ry="2.5" style="stroke:#181818;stroke-width:0.5;" width="103.9996" x="7" y="105"/><text fill="#000000" font-family="'Segoe UI', 'メイリオ', 'UDEV Gothic HSRFJPDOC', 'Hiragino Kaku Gothic ProN', 'ヒラギノ角ゴ ProN', 'Noto Sans JP', 'Helvetica Neue', Helvetica, Arial, sans-serif" font-size="14" lengthAdjust="spacing" textLength="83.9996" x="17" y="128.9999">packet_parse</text><text fill="#000000" font-family="'Segoe UI', 'メイリオ', 'UDEV Gothic HSRFJPDOC', 'Hiragino Kaku Gothic ProN', 'ヒラギノ角ゴ ProN', 'Noto Sans JP', 'Helvetica Neue', Helvetica, Arial, sans-serif" font-size="14" lengthAdjust="spacing" textLength="69.9997" x="17" y="146.7799">(packet.c)</text></g><!--entity n2--><g class="entity" data-entity="n2" data-source-line="7" data-uid="ent0004" id="entity_n2"><rect fill="#F1F1F1" height="37.7799" rx="2.5" ry="2.5" style="stroke:#181818;stroke-width:0.5;" width="103.9996" x="146" y="114"/><text fill="#000000" font-family="'Segoe UI', 'メイリオ', 'UDEV Gothic HSRFJPDOC', 'Hiragino Kaku Gothic ProN', 'ヒラギノ角ゴ ProN', 'Noto Sans JP', 'Helvetica Neue', Helvetica, Arial, sans-serif" font-size="14" lengthAdjust="spacing" textLength="83.9996" x="156" y="137.9999">recv_deliver</text></g><!--entity n3--><g class="entity" data-entity="n3" data-source-line="8" data-uid="ent0005" id="entity_n3"><rect fill="#F1F1F1" height="37.7799" rx="2.5" ry="2.5" style="stroke:#181818;stroke-width:0.5;" width="82.9997" x="285.5" y="114"/><text fill="#000000" font-family="'Segoe UI', 'メイリオ', 'UDEV Gothic HSRFJPDOC', 'Hiragino Kaku Gothic ProN', 'ヒラギノ角ゴ ProN', 'Noto Sans JP', 'Helvetica Neue', Helvetica, Arial, sans-serif" font-size="14" lengthAdjust="spacing" textLength="62.9997" x="295.5" y="137.9999">send_nack</text></g><!--entity n4--><g class="entity" data-entity="n4" data-source-line="9" data-uid="ent0006" id="entity_n4"><rect fill="#F1F1F1" height="55.5598" rx="2.5" ry="2.5" style="stroke:#181818;stroke-width:0.5;" width="173.9993" x="564" y="105"/><text fill="#000000" font-family="'Segoe UI', 'メイリオ', 'UDEV Gothic HSRFJPDOC', 'Hiragino Kaku Gothic ProN', 'ヒラギノ角ゴ ProN', 'Noto Sans JP', 'Helvetica Neue', Helvetica, Arial, sans-serif" font-size="14" lengthAdjust="spacing" textLength="153.9993" x="574" y="128.9999">window_recv_needs_nack</text><text fill="#000000" font-family="'Segoe UI', 'メイリオ', 'UDEV Gothic HSRFJPDOC', 'Hiragino Kaku Gothic ProN', 'ヒラギノ角ゴ ProN', 'Noto Sans JP', 'Helvetica Neue', Helvetica, Arial, sans-serif" font-size="14" lengthAdjust="spacing" textLength="69.9997" x="574" y="146.7799">(window.c)</text></g><!--entity n5--><g class="entity" data-entity="n5" data-source-line="10" data-uid="ent0007" id="entity_n5"><rect fill="#F1F1F1" height="55.5598" rx="2.5" ry="2.5" style="stroke:#181818;stroke-width:0.5;" width="124.9995" x="403.5" y="105"/><text fill="#000000" font-family="'Segoe UI', 'メイリオ', 'UDEV Gothic HSRFJPDOC', 'Hiragino Kaku Gothic ProN', 'ヒラギノ角ゴ ProN', 'Noto Sans JP', 'Helvetica Neue', Helvetica, Arial, sans-serif" font-size="14" lengthAdjust="spacing" textLength="104.9995" x="413.5" y="128.9999">window_recv_pop</text><text fill="#000000" font-family="'Segoe UI', 'メイリオ', 'UDEV Gothic HSRFJPDOC', 'Hiragino Kaku Gothic ProN', 'ヒラギノ角ゴ ProN', 'Noto Sans JP', 'Helvetica Neue', Helvetica, Arial, sans-serif" font-size="14" lengthAdjust="spacing" textLength="69.9997" x="413.5" y="146.7799">(window.c)</text></g><!--entity n6--><g class="entity" data-entity="n6" data-source-line="11" data-uid="ent0008" id="entity_n6"><rect fill="#F1F1F1" height="55.5598" rx="2.5" ry="2.5" style="stroke:#181818;stroke-width:0.5;" width="131.9995" x="934" y="105"/><text fill="#000000" font-family="'Segoe UI', 'メイリオ', 'UDEV Gothic HSRFJPDOC', 'Hiragino Kaku Gothic ProN', 'ヒラギノ角ゴ ProN', 'Noto Sans JP', 'Helvetica Neue', Helvetica, Arial, sans-serif" font-size="14" lengthAdjust="spacing" textLength="111.9995" x="944" y="128.9999">window_recv_push</text><text fill="#000000" font-family="'Segoe UI', 'メイリオ', 'UDEV Gothic HSRFJPDOC', 'Hiragino Kaku Gothic ProN', 'ヒラギノ角ゴ ProN', 'Noto Sans JP', 'Helvetica Neue', Helvetica, Arial, sans-serif" font-size="14" lengthAdjust="spacing" textLength="69.9997" x="944" y="146.7799">(window.c)</text></g><!--entity n7--><g class="entity" data-entity="n7" data-source-line="12" data-uid="ent0009" id="entity_n7"><rect fill="#F1F1F1" height="55.5598" rx="2.5" ry="2.5" style="stroke:#181818;stroke-width:0.5;" width="124.9995" x="773.5" y="105"/><text fill="#000000" font-family="'Segoe UI', 'メイリオ', 'UDEV Gothic HSRFJPDOC', 'Hiragino Kaku Gothic ProN', 'ヒラギノ角ゴ ProN', 'Noto Sans JP', 'Helvetica Neue', Helvetica, Arial, sans-serif" font-size="14" lengthAdjust="spacing" textLength="104.9995" x="783.5" y="128.9999">window_send_ack</text><text fill="#000000" font-family="'Segoe UI', 'メイリオ', 'UDEV Gothic HSRFJPDOC', 'Hiragino Kaku Gothic ProN', 'ヒラギノ角ゴ ProN', 'Noto Sans JP', 'Helvetica Neue', Helvetica, Arial, sans-serif" font-size="14" lengthAdjust="spacing" textLength="69.9997" x="783.5" y="146.7799">(window.c)</text></g><!--entity n8--><g class="entity" data-entity="n8" data-source-line="13" data-uid="ent0010" id="entity_n8"><rect fill="#F1F1F1" height="55.5598" rx="2.5" ry="2.5" style="stroke:#181818;stroke-width:0.5;" width="145.9995" x="101" y="221"/><text fill="#000000" font-family="'Segoe UI', 'メイリオ', 'UDEV Gothic HSRFJPDOC', 'Hiragino Kaku Gothic ProN', 'ヒラギノ角ゴ ProN', 'Noto Sans JP', 'Helvetica Neue', Helvetica, Arial, sans-serif" font-size="14" lengthAdjust="spacing" textLength="104.9995" x="111" y="244.9999">potr_decompress</text><text fill="#000000" font-family="'Segoe UI', 'メイリオ', 'UDEV Gothic HSRFJPDOC', 'Hiragino Kaku Gothic ProN', 'ヒラギノ角ゴ ProN', 'Noto Sans JP', 'Helvetica Neue', Helvetica, Arial, sans-serif" font-size="14" lengthAdjust="spacing" textLength="125.9995" x="111" y="262.7799">(compress_linux.c)</text></g><!--entity n9--><g class="entity" data-entity="n9" data-source-line="14" data-uid="ent0011" id="entity_n9"><rect fill="#F1F1F1" height="55.5598" rx="2.5" ry="2.5" style="stroke:#181818;stroke-width:0.5;" width="138.9995" x="282.5" y="221"/><text fill="#000000" font-family="'Segoe UI', 'メイリオ', 'UDEV Gothic HSRFJPDOC', 'Hiragino Kaku Gothic ProN', 'ヒラギノ角ゴ ProN', 'Noto Sans JP', 'Helvetica Neue', Helvetica, Arial, sans-serif" font-size="14" lengthAdjust="spacing" textLength="118.9995" x="292.5" y="244.9999">packet_build_nack</text><text fill="#000000" font-family="'Segoe UI', 'メイリオ', 'UDEV Gothic HSRFJPDOC', 'Hiragino Kaku Gothic ProN', 'ヒラギノ角ゴ ProN', 'Noto Sans JP', 'Helvetica Neue', Helvetica, Arial, sans-serif" font-size="14" lengthAdjust="spacing" textLength="69.9997" x="292.5" y="262.7799">(packet.c)</text></g><!--entity n10--><g class="entity" data-entity="n10" data-source-line="15" data-uid="ent0012" id="entity_n10"><rect fill="#F1F1F1" height="37.7799" rx="2.5" ry="2.5" style="stroke:#181818;stroke-width:0.5;" width="82.9997" x="671.5" y="230"/><text fill="#000000" font-family="'Segoe UI', 'メイリオ', 'UDEV Gothic HSRFJPDOC', 'Hiragino Kaku Gothic ProN', 'ヒラギノ角ゴ ProN', 'Noto Sans JP', 'Helvetica Neue', Helvetica, Arial, sans-serif" font-size="14" lengthAdjust="spacing" textLength="62.9997" x="681.5" y="253.9999">win_index</text></g><!--entity n11--><g class="entity" data-entity="n11" data-source-line="16" data-uid="ent0013" id="entity_n11"><rect fill="#F1F1F1" height="55.5598" rx="2.5" ry="2.5" style="stroke:#181818;stroke-width:0.5;" width="131.9995" x="852" y="221"/><text fill="#000000" font-family="'Segoe UI', 'メイリオ', 'UDEV Gothic HSRFJPDOC', 'Hiragino Kaku Gothic ProN', 'ヒラギノ角ゴ ProN', 'Noto Sans JP', 'Helvetica Neue', Helvetica, Arial, sans-serif" font-size="14" lengthAdjust="spacing" textLength="111.9995" x="862" y="244.9999">seqnum_in_window</text><text fill="#000000" font-family="'Segoe UI', 'メイリオ', 'UDEV Gothic HSRFJPDOC', 'Hiragino Kaku Gothic ProN', 'ヒラギノ角ゴ ProN', 'Noto Sans JP', 'Helvetica Neue', Helvetica, Arial, sans-serif" font-size="14" lengthAdjust="spacing" textLength="69.9997" x="862" y="262.7799">(seqnum.c)</text></g><!--link n0 to n1--><g class="link" data-entity-1="n0" data-entity-2="n1" data-source-line="17" data-uid="lnk14" id="link_n0_n1"><path d="M396.2015,39.002 C327.2496,52.6178 219.1772,76.0396 128,105 C122.4554,106.7611 122.3512,106.6753 116.6766,108.7875" fill="none" id="n0-to-n1" style="stroke:#181818;stroke-width:1;"/><polygon fill="#181818" points="111.0535,110.8805,120.8835,111.4897,115.7394,109.1363,118.0928,103.9922,111.0535,110.8805" style="stroke:#181818;stroke-width:1;"/></g><!--link n0 to n2--><g class="link" data-entity-1="n0" data-entity-2="n2" data-source-line="18" data-uid="lnk15" id="link_n0_n2"><path d="M417.9834,45.1446 C377.8828,61.1363 319.2098,84.5419 268,105 C260.8286,107.8649 258.8158,108.6688 251.3904,111.6381" fill="none" id="n0-to-n2" style="stroke:#181818;stroke-width:1;"/><polygon fill="#181818" points="245.8193,113.8659,255.6611,114.2383,250.4619,112.0094,252.6907,106.8102,245.8193,113.8659" style="stroke:#181818;stroke-width:1;"/></g><!--link n0 to n3--><g class="link" data-entity-1="n0" data-entity-2="n3" data-source-line="19" data-uid="lnk16" id="link_n0_n3"><path d="M441.1496,45.1295 C416.0051,64.4853 382.0934,90.59 356.8584,110.0155" fill="none" id="n0-to-n3" style="stroke:#181818;stroke-width:1;"/><polygon fill="#181818" points="352.1039,113.6754,361.6756,111.3552,356.066,110.6255,356.7957,105.0159,352.1039,113.6754" style="stroke:#181818;stroke-width:1;"/></g><!--link n0 to n4--><g class="link" data-entity-1="n0" data-entity-2="n4" data-source-line="20" data-uid="lnk17" id="link_n0_n4"><path d="M499.0743,45.1295 C527.8631,61.7803 564.7761,83.1299 597.3639,101.978" fill="none" id="n0-to-n4" style="stroke:#181818;stroke-width:1;"/><polygon fill="#181818" points="602.5577,104.982,596.7696,97.0134,598.2295,102.4787,592.7643,103.9385,602.5577,104.982" style="stroke:#181818;stroke-width:1;"/></g><!--link n0 to n5--><g class="link" data-entity-1="n0" data-entity-2="n5" data-source-line="21" data-uid="lnk18" id="link_n0_n5"><path d="M466,45.1295 C466,61.7202 466,79.9582 466,98.7777" fill="none" id="n0-to-n5" style="stroke:#181818;stroke-width:1;"/><polygon fill="#181818" points="466,104.7777,470,95.7777,466,99.7777,462,95.7777,466,104.7777" style="stroke:#181818;stroke-width:1;"/></g><!--link n0 to n6--><g class="link" data-entity-1="n0" data-entity-2="n6" data-source-line="22" data-uid="lnk19" id="link_n0_n6"><path d="M535.6697,34.9685 C624.6892,47.1707 783.1595,71.396 916,105 C921.8121,106.4703 922.0517,106.4322 928.0318,108.2105" fill="none" id="n0-to-n6" style="stroke:#181818;stroke-width:1;"/><polygon fill="#181818" points="933.7829,109.9207,926.2964,103.5213,928.9903,108.4955,924.0161,111.1895,933.7829,109.9207" style="stroke:#181818;stroke-width:1;"/></g><!--link n0 to n7--><g class="link" data-entity-1="n0" data-entity-2="n7" data-source-line="23" data-uid="lnk20" id="link_n0_n7"><path d="M535.54,43.4686 C594.5371,58.6404 681.2536,81.7703 756,105 C761.6208,106.7468 761.7457,106.7356 767.561,108.6722" fill="none" id="n0-to-n7" style="stroke:#181818;stroke-width:1;"/><polygon fill="#181818" points="773.2536,110.568,765.9785,103.9293,768.5097,108.9882,763.4508,111.5195,773.2536,110.568" style="stroke:#181818;stroke-width:1;"/></g><!--link n2 to n8--><g class="link" data-entity-1="n2" data-entity-2="n8" data-source-line="24" data-uid="lnk21" id="link_n2_n8"><path d="M194.0369,152.155 C190.1759,170.8166 185.4761,193.5319 181.0723,214.8172" fill="none" id="n2-to-n8" style="stroke:#181818;stroke-width:1;"/><polygon fill="#181818" points="179.8567,220.6928,185.5972,212.6899,180.8697,215.7965,177.7631,211.069,179.8567,220.6928" style="stroke:#181818;stroke-width:1;"/></g><!--link n3 to n9--><g class="link" data-entity-1="n3" data-entity-2="n9" data-source-line="25" data-uid="lnk22" id="link_n3_n9"><path d="M331.1282,152.155 C335.1501,170.8166 340.0479,193.5422 344.6352,214.8275" fill="none" id="n3-to-n9" style="stroke:#181818;stroke-width:1;"/><polygon fill="#181818" points="345.8993,220.6928,347.9134,211.0521,344.8459,215.805,340.093,212.7375,345.8993,220.6928" style="stroke:#181818;stroke-width:1;"/></g><!--link n4 to n10--><g class="link" data-entity-1="n4" data-entity-2="n10" data-source-line="26" data-uid="lnk23" id="link_n4_n10"><path d="M666.0085,161.0804 C677.405,182.4028 689.9439,205.8629 699.9532,224.5899" fill="none" id="n4-to-n10" style="stroke:#181818;stroke-width:1;"/><polygon fill="#181818" points="702.7815,229.8815,702.0668,220.0586,700.4246,225.4718,695.0114,223.8296,702.7815,229.8815" style="stroke:#181818;stroke-width:1;"/></g><!--link n5 to n10--><g class="link" data-entity-1="n5" data-entity-2="n10" data-source-line="27" data-uid="lnk24" id="link_n5_n10"><path d="M525.7918,161.0804 C571.194,182.4028 626.9842,208.604 666.8599,227.331" fill="none" id="n5-to-n10" style="stroke:#181818;stroke-width:1;"/><polygon fill="#181818" points="672.2908,229.8815,665.8448,222.4351,667.765,227.756,662.4441,229.6763,672.2908,229.8815" style="stroke:#181818;stroke-width:1;"/></g><!--link n6 to n11--><g class="link" data-entity-1="n6" data-entity-2="n11" data-source-line="28" data-uid="lnk25" id="link_n6_n11"><path d="M980.1501,161.0804 C967.3524,179.1844 954.2323,197.7445 941.4147,215.8767" fill="none" id="n6-to-n11" style="stroke:#181818;stroke-width:1;"/><polygon fill="#181818" points="937.9513,220.7762,946.4127,215.7359,940.8375,216.6933,939.8801,211.1181,937.9513,220.7762" style="stroke:#181818;stroke-width:1;"/></g><!--link n6 to n10--><g class="link" data-entity-1="n6" data-entity-2="n10" data-source-line="29" data-uid="lnk26" id="link_n6_n10"><path d="M933.796,159.7584 C878.6702,182.0392 807.4153,210.8391 760.4408,229.8253" fill="none" id="n6-to-n10" style="stroke:#181818;stroke-width:1;"/><polygon fill="#181818" points="754.878,232.0737,764.7211,232.4097,759.5137,230.2001,761.7233,224.9926,754.878,232.0737" style="stroke:#181818;stroke-width:1;"/></g><!--link n7 to n11--><g class="link" data-entity-1="n7" data-entity-2="n11" data-source-line="30" data-uid="lnk27" id="link_n7_n11"><path d="M855.8499,161.0804 C868.6476,179.1844 881.7677,197.7445 894.5853,215.8767" fill="none" id="n7-to-n11" style="stroke:#181818;stroke-width:1;"/><polygon fill="#181818" points="898.0487,220.7762,896.1199,211.1181,895.1625,216.6933,889.5873,215.7359,898.0487,220.7762" style="stroke:#181818;stroke-width:1;"/></g><!--link n7 to n10--><g class="link" data-entity-1="n7" data-entity-2="n10" data-source-line="31" data-uid="lnk28" id="link_n7_n10"><path d="M806.2251,161.0804 C783.616,182.4028 757.4943,207.0379 737.6372,225.7649" fill="none" id="n7-to-n10" style="stroke:#181818;stroke-width:1;"/><polygon fill="#181818" points="733.2722,229.8815,742.5642,226.6166,736.9097,226.451,737.0753,220.7966,733.2722,229.8815" style="stroke:#181818;stroke-width:1;"/></g><!--SRC=[TP7BRi8m44Nt_eg8Rjf8jE4D4cBHRli9bImJJqE46QT-0FtxJkF42Q_TiU-Tw_7CshfV1HksVcl0xakiX167P2loVM6qH_cXbJQ9Cm8jIO2E6SYTm491CaXJEXovsnaGadzxpDDqa0YRO9OyVPR5phqh3_sAYeB1SOgoy8NFuVYQluIgKTzQHqjGvH5CaCTzsG9AZbGVj4bVEvKezOdN2GWWRMsazu8Gtvi-AgfqTUkUFNHxkxkrp-_OwwRljhAuc99sXhwUwqDbm5fojyXLYVuSgvPtPhlrfPBjXwy6lBhgYLCJS6w6drsEzmVzWNGU6gMiSDKjQyHepSFXvdzlBOqZJI9D8yqYpICj68u3BHbE0gqOJflaZE6imtc3emxfTj7TjfZz0G00]--></g></svg>