<?xml version="1.0" encoding="UTF-8" standalone="no"?>
<!DOCTYPE svg PUBLIC "-//W3C//DTD SVG 1.1//EN"
 "http://www.w3.org/Graphics/SVG/1.1/DTD/svg11.dtd">
<!-- Generated by graphviz version 2.40.1 (0)
 -->
<!-- Title: calcHandler Pages: 1 -->
<svg width="232pt" height="115pt"
 viewBox="0.00 0.00 232.00 115.44" xmlns="http://www.w3.org/2000/svg" xmlns:xlink="http://www.w3.org/1999/xlink">

<svg id="main" version="1.1" xmlns="http://www.w3.org/2000/svg" xmlns:xlink="http://www.w3.org/1999/xlink" xml:space="preserve">

<style type="text/css"><![CDATA[
.node, .edge {opacity: 0.7;}
.node.selected, .edge.selected {opacity: 1;}
.edge:hover path { stroke: red; }
.edge:hover polygon { stroke: red; fill: red; }
]]></style>
<script type="application/ecmascript" xlink:href="svg.min.js"/>
<svg id="graph" class="graph">
<g id="graph0" class="graph" transform="scale(1 1) rotate(0) translate(4 111.4385)">
<title>calcHandler</title>
<!-- Node1 -->
<g id="Node000001" class="node">
<title>Node1</title>
<g id="a_Node000001"><a xlink:title="指定された演算種別に基づいて計算を実行します。">
<polygon fill="#999999" stroke="#666666" points="68,-74 0,-74 0,-55 68,-55 68,-74"/>
<text text-anchor="middle" x="34" y="-62" font-family="Helvetica,sans-Serif" font-size="10.00" fill="#000000">calcHandler</text>
</a>
</g>
</g>
<!-- Node2 -->
<g id="Node000002" class="node">
<title>Node2</title>
<g id="a_Node000002"><a xlink:href="libsrc_2calcbase_2add_8c.html#ae0a73dcc2e58d59cbc0f200e50736260" target="_top" xlink:title="2 つの整数を加算します。">
<polygon fill="#ffffff" stroke="#666666" points="224,-75 192,-75 192,-56 224,-56 224,-75"/>
<text text-anchor="middle" x="208" y="-63" font-family="Helvetica,sans-Serif" font-size="10.00" fill="#000000">add</text>
</a>
</g>
</g>
<!-- Node1&#45;&gt;Node2 -->
<g id="edge1_Node000001_Node000002" class="edge">
<title>Node1&#45;&gt;Node2</title>
<g id="a_edge1_Node000001_Node000002"><a xlink:title=" ">
<path fill="none" stroke="#63b8ff" d="M47.1017,-74.2262C60.5731,-83.5723 82.5558,-97.0547 104,-102.5 126.4002,-108.188 133.985,-109.5329 156,-102.5 168.7675,-98.4213 181.0799,-89.9356 190.5164,-82.1185"/>
<polygon fill="#63b8ff" stroke="#63b8ff" points="193.1041,-84.5038 198.3046,-75.2731 188.4828,-79.246 193.1041,-84.5038"/>
</a>
</g>
</g>
<!-- Node3 -->
<g id="Node000003" class="node">
<title>Node3</title>
<g id="a_Node000003"><a xlink:href="divide_8c.html#a457d7ab9fae4d04f0083aeeee6c700bb" target="_top" xlink:title="2 つの整数を除算します。">
<polygon fill="#ffffff" stroke="#666666" points="151,-93 109,-93 109,-74 151,-74 151,-93"/>
<text text-anchor="middle" x="130" y="-81" font-family="Helvetica,sans-Serif" font-size="10.00" fill="#000000">divide</text>
</a>
</g>
</g>
<!-- Node1&#45;&gt;Node3 -->
<g id="edge2_Node000001_Node000003" class="edge">
<title>Node1&#45;&gt;Node3</title>
<g id="a_edge2_Node000001_Node000003"><a xlink:title=" ">
<path fill="none" stroke="#63b8ff" d="M68.1163,-71.2522C78.0899,-73.2261 88.9384,-75.3732 98.7264,-77.3104"/>
<polygon fill="#63b8ff" stroke="#63b8ff" points="98.3503,-80.8038 108.8396,-79.312 99.7094,-73.937 98.3503,-80.8038"/>
</a>
</g>
</g>
<!-- Node4 -->
<g id="Node000004" class="node">
<title>Node4</title>
<g id="a_Node000004"><a xlink:href="multiply_8c.html#aa2620c22f253b878c0356f0df6ac6d61" target="_top" xlink:title="2 つの整数を乗算します。">
<polygon fill="#ffffff" stroke="#666666" points="155,-56 105,-56 105,-37 155,-37 155,-56"/>
<text text-anchor="middle" x="130" y="-44" font-family="Helvetica,sans-Serif" font-size="10.00" fill="#000000">multiply</text>
</a>
</g>
</g>
<!-- Node1&#45;&gt;Node4 -->
<g id="edge3_Node000001_Node000004" class="edge">
<title>Node1&#45;&gt;Node4</title>
<g id="a_edge3_Node000001_Node000004"><a xlink:title=" ">
<path fill="none" stroke="#63b8ff" d="M68.1163,-58.1032C76.7931,-56.4763 86.1321,-54.7252 94.8589,-53.089"/>
<polygon fill="#63b8ff" stroke="#63b8ff" points="95.5621,-56.5182 104.7458,-51.2352 94.272,-49.6381 95.5621,-56.5182"/>
</a>
</g>
</g>
<!-- Node5 -->
<g id="Node000005" class="node">
<title>Node5</title>
<g id="a_Node000005"><a xlink:href="subtract_8c.html#a1bf275b5894cc190077fcae5246956ac" target="_top" xlink:title="2 つの整数を減算します。">
<polygon fill="#ffffff" stroke="#666666" points="156,-19 104,-19 104,0 156,0 156,-19"/>
<text text-anchor="middle" x="130" y="-7" font-family="Helvetica,sans-Serif" font-size="10.00" fill="#000000">subtract</text>
</a>
</g>
</g>
<!-- Node1&#45;&gt;Node5 -->
<g id="edge4_Node000001_Node000005" class="edge">
<title>Node1&#45;&gt;Node5</title>
<g id="a_edge4_Node000001_Node000005"><a xlink:title=" ">
<path fill="none" stroke="#63b8ff" d="M50.7219,-54.9197C65.4983,-46.4541 87.279,-33.9755 104.2735,-24.2391"/>
<polygon fill="#63b8ff" stroke="#63b8ff" points="106.2106,-27.1631 113.1476,-19.155 102.7308,-21.0893 106.2106,-27.1631"/>
</a>
</g>
</g>
<!-- Node5&#45;&gt;Node2 -->
<g id="edge5_Node000005_Node000002" class="edge">
<title>Node5&#45;&gt;Node2</title>
<g id="a_edge5_Node000005_Node000002"><a xlink:title=" ">
<path fill="none" stroke="#63b8ff" d="M143.5866,-19.2545C155.3305,-27.686 172.5199,-40.0271 186.1882,-49.8402"/>
<polygon fill="#63b8ff" stroke="#63b8ff" points="184.4046,-52.8684 194.5691,-55.8573 188.4871,-47.1821 184.4046,-52.8684"/>
</a>
</g>
</g>
</g>
</svg>
</svg>

<style type='text/css'>
<![CDATA[
[data-mouse-over-selected='false'] { opacity: 0.7; }
[data-mouse-over-selected='true']  { opacity: 1.0; }
]]>
</style>
<script type="application/ecmascript"><![CDATA[
document.addEventListener('DOMContentLoaded', (event) => {
  highlightEdges();
  highlightAdjacentNodes();
});
]]></script>
</svg>
