<?xml version="1.0" encoding="UTF-8" standalone="no"?>
<!DOCTYPE svg PUBLIC "-//W3C//DTD SVG 1.1//EN"
 "http://www.w3.org/Graphics/SVG/1.1/DTD/svg11.dtd">
<!-- Generated by graphviz version 2.40.1 (0)
 -->
<!-- Title: calc/libsrc/calc/calcHandler.c Pages: 1 -->
<svg width="224pt" height="137pt"
 viewBox="0.00 0.00 223.50 137.00" xmlns="http://www.w3.org/2000/svg" xmlns:xlink="http://www.w3.org/1999/xlink">

<svg id="main" version="1.1" xmlns="http://www.w3.org/2000/svg" xmlns:xlink="http://www.w3.org/1999/xlink" xml:space="preserve">

<style type="text/css"><![CDATA[
.node, .edge {opacity: 0.7;}
.node.selected, .edge.selected {opacity: 1;}
.edge:hover path { stroke: red; }
.edge:hover polygon { stroke: red; fill: red; }
]]></style>
<script type="application/ecmascript" xlink:href="svg.min.js"/>
<svg id="graph" class="graph">
<g id="graph0" class="graph" transform="scale(1 1) rotate(0) translate(4 133)">
<title>calc/libsrc/calc/calcHandler.c</title>
<!-- Node1 -->
<g id="Node000001" class="node">
<title>Node1</title>
<g id="a_Node000001"><a xlink:title="calcHandler 関数の実装ファイル。">
<polygon fill="#999999" stroke="#666666" points="180,-129 37,-129 37,-110 180,-110 180,-129"/>
<text text-anchor="middle" x="108.5" y="-117" font-family="Helvetica,sans-Serif" font-size="10.00" fill="#000000">calc/libsrc/calc/calcHandler.c</text>
</a>
</g>
</g>
<!-- Node2 -->
<g id="Node000002" class="node">
<title>Node2</title>
<g id="a_Node000002"><a xlink:href="libcalc_8h.html" target="_top" xlink:title="計算ライブラリ (動的リンク用) のヘッダーファイル。">
<polygon fill="#ffffff" stroke="#666666" points="53,-74 0,-74 0,-55 53,-55 53,-74"/>
<text text-anchor="middle" x="26.5" y="-62" font-family="Helvetica,sans-Serif" font-size="10.00" fill="#000000">libcalc.h</text>
</a>
</g>
</g>
<!-- Node1&#45;&gt;Node2 -->
<g id="edge1_Node000001_Node000002" class="edge">
<title>Node1&#45;&gt;Node2</title>
<g id="a_edge1_Node000001_Node000002"><a xlink:title=" ">
<path fill="none" stroke="#63b8ff" d="M94.2167,-109.9197C81.8289,-101.6109 63.6778,-89.4363 49.2853,-79.7828"/>
<polygon fill="#63b8ff" stroke="#63b8ff" points="51.1493,-76.8187 40.8948,-74.155 47.25,-82.6321 51.1493,-76.8187"/>
</a>
</g>
</g>
<!-- Node4 -->
<g id="Node000004" class="node">
<title>Node4</title>
<g id="a_Node000004"><a xlink:href="libcalcbase_8h.html" target="_top" xlink:title="計算ライブラリ (静的リンク用) のヘッダーファイル。">
<polygon fill="#ffffff" stroke="#666666" points="145.5,-74 71.5,-74 71.5,-55 145.5,-55 145.5,-74"/>
<text text-anchor="middle" x="108.5" y="-62" font-family="Helvetica,sans-Serif" font-size="10.00" fill="#000000">libcalcbase.h</text>
</a>
</g>
</g>
<!-- Node1&#45;&gt;Node4 -->
<g id="edge3_Node000001_Node000004" class="edge">
<title>Node1&#45;&gt;Node4</title>
<g id="a_edge3_Node000001_Node000004"><a xlink:title=" ">
<path fill="none" stroke="#63b8ff" d="M108.5,-109.9197C108.5,-102.9083 108.5,-93.1442 108.5,-84.4652"/>
<polygon fill="#63b8ff" stroke="#63b8ff" points="112.0001,-84.3408 108.5,-74.3408 105.0001,-84.3409 112.0001,-84.3408"/>
</a>
</g>
</g>
<!-- Node5 -->
<g id="Node000005" class="node">
<title>Node5</title>
<g id="a_Node000005"><a xlink:title=" ">
<polygon fill="#e0e0e0" stroke="#999999" points="215.5,-74 163.5,-74 163.5,-55 215.5,-55 215.5,-74"/>
<text text-anchor="middle" x="189.5" y="-62" font-family="Helvetica,sans-Serif" font-size="10.00" fill="#000000">stddef.h</text>
</a>
</g>
</g>
<!-- Node1&#45;&gt;Node5 -->
<g id="edge5_Node000001_Node000005" class="edge">
<title>Node1&#45;&gt;Node5</title>
<g id="a_edge5_Node000001_Node000005"><a xlink:title=" ">
<path fill="none" stroke="#63b8ff" d="M122.6091,-109.9197C134.8458,-101.6109 152.7756,-89.4363 166.9926,-79.7828"/>
<polygon fill="#63b8ff" stroke="#63b8ff" points="168.9738,-82.6682 175.2808,-74.155 165.0416,-76.877 168.9738,-82.6682"/>
</a>
</g>
</g>
<!-- Node3 -->
<g id="Node000003" class="node">
<title>Node3</title>
<g id="a_Node000003"><a xlink:href="libcalc__const_8h.html" target="_top" xlink:title="計算ライブラリの定数ファイル。">
<polygon fill="#ffffff" stroke="#666666" points="108.5,-19 26.5,-19 26.5,0 108.5,0 108.5,-19"/>
<text text-anchor="middle" x="67.5" y="-7" font-family="Helvetica,sans-Serif" font-size="10.00" fill="#000000">libcalc_const.h</text>
</a>
</g>
</g>
<!-- Node2&#45;&gt;Node3 -->
<g id="edge2_Node000002_Node000003" class="edge">
<title>Node2&#45;&gt;Node3</title>
<g id="a_edge2_Node000002_Node000003"><a xlink:title=" ">
<path fill="none" stroke="#63b8ff" d="M33.6417,-54.9197C39.2749,-47.363 47.2917,-36.6087 54.1105,-27.4616"/>
<polygon fill="#63b8ff" stroke="#63b8ff" points="56.9935,-29.4501 60.1641,-19.3408 51.3813,-25.2665 56.9935,-29.4501"/>
</a>
</g>
</g>
<!-- Node4&#45;&gt;Node3 -->
<g id="edge4_Node000004_Node000003" class="edge">
<title>Node4&#45;&gt;Node3</title>
<g id="a_edge4_Node000004_Node000003"><a xlink:title=" ">
<path fill="none" stroke="#63b8ff" d="M101.3583,-54.9197C95.7251,-47.363 87.7083,-36.6087 80.8895,-27.4616"/>
<polygon fill="#63b8ff" stroke="#63b8ff" points="83.6187,-25.2665 74.8359,-19.3408 78.0065,-29.4501 83.6187,-25.2665"/>
</a>
</g>
</g>
</g>
</svg>
</svg>

<style type='text/css'>
<![CDATA[
[data-mouse-over-selected='false'] { opacity: 0.7; }
[data-mouse-over-selected='true']  { opacity: 1.0; }
]]>
</style>
<script type="application/ecmascript"><![CDATA[
document.addEventListener('DOMContentLoaded', (event) => {
  highlightEdges();
  highlightAdjacentNodes();
});
]]></script>
</svg>
