<?xml version="1.0" encoding="UTF-8" standalone="no"?>
<!DOCTYPE svg PUBLIC "-//W3C//DTD SVG 1.1//EN"
 "http://www.w3.org/Graphics/SVG/1.1/DTD/svg11.dtd">
<!-- Generated by graphviz version 2.40.1 (0)
 -->
<!-- Title: calc/include/libcalcbase.h Pages: 1 -->
<svg width="871pt" height="104pt"
 viewBox="0.00 0.00 870.50 104.00" xmlns="http://www.w3.org/2000/svg" xmlns:xlink="http://www.w3.org/1999/xlink">
<g id="graph0" class="graph" transform="scale(1 1) rotate(0) translate(4 100)">
<title>calc/include/libcalcbase.h</title>
<!-- Node1 -->
<g id="Node000001" class="node">
<title>Node1</title>
<g id="a_Node000001"><a xlink:title="計算ライブラリ (静的リンク用) のヘッダーファイル。">
<polygon fill="#999999" stroke="#666666" points="518.5,-96 390.5,-96 390.5,-77 518.5,-77 518.5,-96"/>
<text text-anchor="middle" x="454.5" y="-84" font-family="Helvetica,sans-Serif" font-size="10.00" fill="#000000">calc/include/libcalcbase.h</text>
</a>
</g>
</g>
<!-- Node2 -->
<g id="Node000002" class="node">
<title>Node2</title>
<g id="a_Node000002"><a xlink:href="calcHandler_8c.html" target="_top" xlink:title="calcHandler 関数の実装ファイル。">
<polygon fill="#ffffff" stroke="#666666" points="143,-30 0,-30 0,-11 143,-11 143,-30"/>
<text text-anchor="middle" x="71.5" y="-18" font-family="Helvetica,sans-Serif" font-size="10.00" fill="#000000">calc/libsrc/calc/calcHandler.c</text>
</a>
</g>
</g>
<!-- Node1&#45;&gt;Node2 -->
<g id="edge1_Node000001_Node000002" class="edge">
<title>Node1&#45;&gt;Node2</title>
<g id="a_edge1_Node000001_Node000002"><a xlink:title=" ">
<path fill="none" stroke="#63b8ff" d="M380.3136,-77.5041C318.7429,-69.5253 229.0342,-56.7131 151.5,-41 136.3239,-37.9244 119.7143,-33.7953 105.5818,-30.0489"/>
<polygon fill="#63b8ff" stroke="#63b8ff" points="379.9633,-80.9878 390.328,-78.7914 380.8559,-74.0449 379.9633,-80.9878"/>
</a>
</g>
</g>
<!-- Node3 -->
<g id="Node000003" class="node">
<title>Node3</title>
<g id="a_Node000003"><a xlink:href="libsrc_2calcbase_2add_8c.html" target="_top" xlink:title="add 関数の実装ファイル。">
<polygon fill="#ffffff" stroke="#666666" points="264,-35.5 161,-35.5 161,-5.5 264,-5.5 264,-35.5"/>
<text text-anchor="start" x="169" y="-23.5" font-family="Helvetica,sans-Serif" font-size="10.00" fill="#000000">calc/libsrc/calcbase</text>
<text text-anchor="middle" x="212.5" y="-12.5" font-family="Helvetica,sans-Serif" font-size="10.00" fill="#000000">/add.c</text>
</a>
</g>
</g>
<!-- Node1&#45;&gt;Node3 -->
<g id="edge2_Node000001_Node000003" class="edge">
<title>Node1&#45;&gt;Node3</title>
<g id="a_edge2_Node000001_Node000003"><a xlink:title=" ">
<path fill="none" stroke="#63b8ff" d="M401.9986,-74.6125C365.4707,-66.0403 315.7565,-53.772 272.5,-41 266.7991,-39.3167 260.8335,-37.4314 254.9687,-35.5043"/>
<polygon fill="#63b8ff" stroke="#63b8ff" points="401.4018,-78.0671 411.9354,-76.9296 402.9915,-71.25 401.4018,-78.0671"/>
</a>
</g>
</g>
<!-- Node4 -->
<g id="Node000004" class="node">
<title>Node4</title>
<g id="a_Node000004"><a xlink:href="divide_8c.html" target="_top" xlink:title="divide 関数の実装ファイル。">
<polygon fill="#ffffff" stroke="#666666" points="385,-35.5 282,-35.5 282,-5.5 385,-5.5 385,-35.5"/>
<text text-anchor="start" x="290" y="-23.5" font-family="Helvetica,sans-Serif" font-size="10.00" fill="#000000">calc/libsrc/calcbase</text>
<text text-anchor="middle" x="333.5" y="-12.5" font-family="Helvetica,sans-Serif" font-size="10.00" fill="#000000">/divide.c</text>
</a>
</g>
</g>
<!-- Node1&#45;&gt;Node4 -->
<g id="edge3_Node000001_Node000004" class="edge">
<title>Node1&#45;&gt;Node4</title>
<g id="a_edge3_Node000001_Node000004"><a xlink:title=" ">
<path fill="none" stroke="#63b8ff" d="M427.8663,-71.9725C408.174,-61.2313 381.4199,-46.6381 361.4272,-35.733"/>
<polygon fill="#63b8ff" stroke="#63b8ff" points="426.4506,-75.1871 436.9056,-76.903 429.8026,-69.0418 426.4506,-75.1871"/>
</a>
</g>
</g>
<!-- Node5 -->
<g id="Node000005" class="node">
<title>Node5</title>
<g id="a_Node000005"><a xlink:href="multiply_8c.html" target="_top" xlink:title="multiply 関数の実装ファイル。">
<polygon fill="#ffffff" stroke="#666666" points="506,-35.5 403,-35.5 403,-5.5 506,-5.5 506,-35.5"/>
<text text-anchor="start" x="411" y="-23.5" font-family="Helvetica,sans-Serif" font-size="10.00" fill="#000000">calc/libsrc/calcbase</text>
<text text-anchor="middle" x="454.5" y="-12.5" font-family="Helvetica,sans-Serif" font-size="10.00" fill="#000000">/multiply.c</text>
</a>
</g>
</g>
<!-- Node1&#45;&gt;Node5 -->
<g id="edge4_Node000001_Node000005" class="edge">
<title>Node1&#45;&gt;Node5</title>
<g id="a_edge4_Node000001_Node000005"><a xlink:title=" ">
<path fill="none" stroke="#63b8ff" d="M454.5,-66.5942C454.5,-56.665 454.5,-44.8481 454.5,-35.665"/>
<polygon fill="#63b8ff" stroke="#63b8ff" points="451.0001,-66.7614 454.5,-76.7615 458.0001,-66.7615 451.0001,-66.7614"/>
</a>
</g>
</g>
<!-- Node6 -->
<g id="Node000006" class="node">
<title>Node6</title>
<g id="a_Node000006"><a xlink:href="subtract_8c.html" target="_top" xlink:title="subtract 関数の実装ファイル。">
<polygon fill="#ffffff" stroke="#666666" points="627,-35.5 524,-35.5 524,-5.5 627,-5.5 627,-35.5"/>
<text text-anchor="start" x="532" y="-23.5" font-family="Helvetica,sans-Serif" font-size="10.00" fill="#000000">calc/libsrc/calcbase</text>
<text text-anchor="middle" x="575.5" y="-12.5" font-family="Helvetica,sans-Serif" font-size="10.00" fill="#000000">/subtract.c</text>
</a>
</g>
</g>
<!-- Node1&#45;&gt;Node6 -->
<g id="edge5_Node000001_Node000006" class="edge">
<title>Node1&#45;&gt;Node6</title>
<g id="a_edge5_Node000001_Node000006"><a xlink:title=" ">
<path fill="none" stroke="#63b8ff" d="M481.1337,-71.9725C500.826,-61.2313 527.5801,-46.6381 547.5728,-35.733"/>
<polygon fill="#63b8ff" stroke="#63b8ff" points="479.1974,-69.0418 472.0944,-76.903 482.5494,-75.1871 479.1974,-69.0418"/>
</a>
</g>
</g>
<!-- Node7 -->
<g id="Node000007" class="node">
<title>Node7</title>
<g id="a_Node000007"><a xlink:href="src_2add_2add_8c.html" target="_top" xlink:title="add 関数の呼び出しコマンド。">
<polygon fill="#ffffff" stroke="#666666" points="742,-30 645,-30 645,-11 742,-11 742,-30"/>
<text text-anchor="middle" x="693.5" y="-18" font-family="Helvetica,sans-Serif" font-size="10.00" fill="#000000">calc/src/add/add.c</text>
</a>
</g>
</g>
<!-- Node1&#45;&gt;Node7 -->
<g id="edge6_Node000001_Node000007" class="edge">
<title>Node1&#45;&gt;Node7</title>
<g id="a_edge6_Node000001_Node000007"><a xlink:title=" ">
<path fill="none" stroke="#63b8ff" d="M507.7925,-74.6629C544.2806,-66.1963 593.632,-54.0314 636.5,-41 647.1655,-37.7578 658.7711,-33.6859 668.7098,-30.0272"/>
<polygon fill="#63b8ff" stroke="#63b8ff" points="506.8177,-71.2957 497.8582,-76.9505 508.3886,-78.1172 506.8177,-71.2957"/>
</a>
</g>
</g>
<!-- Node8 -->
<g id="Node000008" class="node">
<title>Node8</title>
<g id="a_Node000008"><a xlink:href="shared-and-static-calc_8c.html" target="_top" xlink:title="動的リンク、静的リンクを使った関数の呼び出しコマンド。">
<polygon fill="#ffffff" stroke="#666666" points="862.5,-41 760.5,-41 760.5,0 862.5,0 862.5,-41"/>
<text text-anchor="start" x="768.5" y="-29" font-family="Helvetica,sans-Serif" font-size="10.00" fill="#000000">calc/src/shared&#45;and</text>
<text text-anchor="start" x="768.5" y="-18" font-family="Helvetica,sans-Serif" font-size="10.00" fill="#000000">&#45;static&#45;calc/shared</text>
<text text-anchor="middle" x="811.5" y="-7" font-family="Helvetica,sans-Serif" font-size="10.00" fill="#000000">&#45;and&#45;static&#45;calc.c</text>
</a>
</g>
</g>
<!-- Node1&#45;&gt;Node8 -->
<g id="edge7_Node000001_Node000008" class="edge">
<title>Node1&#45;&gt;Node8</title>
<g id="a_edge7_Node000001_Node000008"><a xlink:title=" ">
<path fill="none" stroke="#63b8ff" d="M528.807,-78.8194C589.3198,-71.6816 676.6708,-59.3615 751.5,-41 754.3865,-40.2917 757.3316,-39.5048 760.2907,-38.6637"/>
<polygon fill="#63b8ff" stroke="#63b8ff" points="528.1116,-75.3765 518.5818,-80.0063 528.9187,-82.3298 528.1116,-75.3765"/>
</a>
</g>
</g>
</g>
</svg>
