<?xml version="1.0" encoding="UTF-8" standalone="no"?>
<!DOCTYPE svg PUBLIC "-//W3C//DTD SVG 1.1//EN"
 "http://www.w3.org/Graphics/SVG/1.1/DTD/svg11.dtd">
<!-- Generated by graphviz version 2.40.1 (0)
 -->
<!-- Title: calc/include/libcalc_const.h Pages: 1 -->
<svg width="990pt" height="170pt"
 viewBox="0.00 0.00 990.00 170.00" xmlns="http://www.w3.org/2000/svg" xmlns:xlink="http://www.w3.org/1999/xlink">
<g id="graph0" class="graph" transform="scale(1 1) rotate(0) translate(4 166)">
<title>calc/include/libcalc_const.h</title>
<!-- Node1 -->
<g id="Node000001" class="node">
<title>Node1</title>
<g id="a_Node000001"><a xlink:title="計算ライブラリの定数ファイル。">
<polygon fill="#999999" stroke="#666666" points="409,-162 310,-162 310,-132 409,-132 409,-162"/>
<text text-anchor="start" x="318" y="-150" font-family="Helvetica,sans-Serif" font-size="10.00" fill="#000000">calc/include/libcalc</text>
<text text-anchor="middle" x="359.5" y="-139" font-family="Helvetica,sans-Serif" font-size="10.00" fill="#000000">_const.h</text>
</a>
</g>
</g>
<!-- Node2 -->
<g id="Node000002" class="node">
<title>Node2</title>
<g id="a_Node000002"><a xlink:href="libcalc_8h.html" target="_top" xlink:title="計算ライブラリ (動的リンク用) のヘッダーファイル。">
<polygon fill="#ffffff" stroke="#666666" points="345,-96 238,-96 238,-77 345,-77 345,-96"/>
<text text-anchor="middle" x="291.5" y="-84" font-family="Helvetica,sans-Serif" font-size="10.00" fill="#000000">calc/include/libcalc.h</text>
</a>
</g>
</g>
<!-- Node1&#45;&gt;Node2 -->
<g id="edge1_Node000001_Node000002" class="edge">
<title>Node1&#45;&gt;Node2</title>
<g id="a_edge1_Node000001_Node000002"><a xlink:title=" ">
<path fill="none" stroke="#63b8ff" d="M334.5669,-124.8169C323.4492,-114.9254 310.9361,-103.7924 302.2748,-96.0864"/>
<polygon fill="#63b8ff" stroke="#63b8ff" points="332.5432,-127.7011 342.3407,-131.7333 337.1961,-122.4713 332.5432,-127.7011"/>
</a>
</g>
</g>
<!-- Node6 -->
<g id="Node000006" class="node">
<title>Node6</title>
<g id="a_Node000006"><a xlink:href="libcalcbase_8h.html" target="_top" xlink:title="計算ライブラリ (静的リンク用) のヘッダーファイル。">
<polygon fill="#ffffff" stroke="#666666" points="552.5,-96 424.5,-96 424.5,-77 552.5,-77 552.5,-96"/>
<text text-anchor="middle" x="488.5" y="-84" font-family="Helvetica,sans-Serif" font-size="10.00" fill="#000000">calc/include/libcalcbase.h</text>
</a>
</g>
</g>
<!-- Node1&#45;&gt;Node6 -->
<g id="edge5_Node000001_Node000006" class="edge">
<title>Node1&#45;&gt;Node6</title>
<g id="a_edge5_Node000001_Node000006"><a xlink:title=" ">
<path fill="none" stroke="#63b8ff" d="M401.0098,-127.5322C423.3818,-117.0399 449.9995,-104.5565 467.9526,-96.1366"/>
<polygon fill="#63b8ff" stroke="#63b8ff" points="399.287,-124.4744 391.7194,-131.8894 402.2593,-130.812 399.287,-124.4744"/>
</a>
</g>
</g>
<!-- Node3 -->
<g id="Node000003" class="node">
<title>Node3</title>
<g id="a_Node000003"><a xlink:href="calcHandler_8c.html" target="_top" xlink:title="calcHandler 関数の実装ファイル。">
<polygon fill="#ffffff" stroke="#666666" points="262,-30 119,-30 119,-11 262,-11 262,-30"/>
<text text-anchor="middle" x="190.5" y="-18" font-family="Helvetica,sans-Serif" font-size="10.00" fill="#000000">calc/libsrc/calc/calcHandler.c</text>
</a>
</g>
</g>
<!-- Node2&#45;&gt;Node3 -->
<g id="edge2_Node000002_Node000003" class="edge">
<title>Node2&#45;&gt;Node3</title>
<g id="a_edge2_Node000002_Node000003"><a xlink:title=" ">
<path fill="none" stroke="#63b8ff" d="M268.0079,-71.1487C248.5823,-58.4548 221.6026,-40.8244 205.1357,-30.0639"/>
<polygon fill="#63b8ff" stroke="#63b8ff" points="266.3113,-74.2211 276.5971,-76.7615 270.1405,-68.3613 266.3113,-74.2211"/>
</a>
</g>
</g>
<!-- Node4 -->
<g id="Node000004" class="node">
<title>Node4</title>
<g id="a_Node000004"><a xlink:href="calc_8c.html" target="_top" xlink:title="calc 関数の呼び出しコマンド。">
<polygon fill="#ffffff" stroke="#666666" points="101,-30 0,-30 0,-11 101,-11 101,-30"/>
<text text-anchor="middle" x="50.5" y="-18" font-family="Helvetica,sans-Serif" font-size="10.00" fill="#000000">calc/src/calc/calc.c</text>
</a>
</g>
</g>
<!-- Node2&#45;&gt;Node4 -->
<g id="edge3_Node000002_Node000004" class="edge">
<title>Node2&#45;&gt;Node4</title>
<g id="a_edge3_Node000002_Node000004"><a xlink:title=" ">
<path fill="none" stroke="#63b8ff" d="M238.9777,-74.6832C202.4402,-66.143 152.7233,-53.8839 109.5,-41 98.5885,-37.7475 86.7024,-33.7144 76.4768,-30.0882"/>
<polygon fill="#63b8ff" stroke="#63b8ff" points="238.3848,-78.1386 248.9172,-76.9908 239.9679,-71.3199 238.3848,-78.1386"/>
</a>
</g>
</g>
<!-- Node5 -->
<g id="Node000005" class="node">
<title>Node5</title>
<g id="a_Node000005"><a xlink:href="shared-and-static-calc_8c.html" target="_top" xlink:title="動的リンク、静的リンクを使った関数の呼び出しコマンド。">
<polygon fill="#ffffff" stroke="#666666" points="382.5,-41 280.5,-41 280.5,0 382.5,0 382.5,-41"/>
<text text-anchor="start" x="288.5" y="-29" font-family="Helvetica,sans-Serif" font-size="10.00" fill="#000000">calc/src/shared&#45;and</text>
<text text-anchor="start" x="288.5" y="-18" font-family="Helvetica,sans-Serif" font-size="10.00" fill="#000000">&#45;static&#45;calc/shared</text>
<text text-anchor="middle" x="331.5" y="-7" font-family="Helvetica,sans-Serif" font-size="10.00" fill="#000000">&#45;and&#45;static&#45;calc.c</text>
</a>
</g>
</g>
<!-- Node2&#45;&gt;Node5 -->
<g id="edge4_Node000002_Node000005" class="edge">
<title>Node2&#45;&gt;Node5</title>
<g id="a_edge4_Node000002_Node000005"><a xlink:title=" ">
<path fill="none" stroke="#63b8ff" d="M302.629,-68.1371C307.7002,-59.7696 313.7258,-49.8275 318.9569,-41.1961"/>
<polygon fill="#63b8ff" stroke="#63b8ff" points="299.592,-66.3954 297.4021,-76.7615 305.5784,-70.0236 299.592,-66.3954"/>
</a>
</g>
</g>
<!-- Node6&#45;&gt;Node3 -->
<g id="edge6_Node000006_Node000003" class="edge">
<title>Node6&#45;&gt;Node3</title>
<g id="a_edge6_Node000006_Node000003"><a xlink:title=" ">
<path fill="none" stroke="#63b8ff" d="M430.2138,-74.9568C386.4436,-66.124 325.0808,-53.3921 271.5,-41 256.8019,-37.6006 240.6778,-33.58 226.7121,-30.0038"/>
<polygon fill="#63b8ff" stroke="#63b8ff" points="429.616,-78.4066 440.1099,-76.9479 430.9968,-71.5441 429.616,-78.4066"/>
</a>
</g>
</g>
<!-- Node6&#45;&gt;Node5 -->
<g id="edge12_Node000006_Node000005" class="edge">
<title>Node6&#45;&gt;Node5</title>
<g id="a_edge12_Node000006_Node000005"><a xlink:title=" ">
<path fill="none" stroke="#63b8ff" d="M456.1836,-72.9148C434.3032,-63.7166 404.9941,-51.3956 380.29,-41.0105"/>
<polygon fill="#63b8ff" stroke="#63b8ff" points="455.0959,-76.2542 465.6709,-76.903 457.8087,-69.8012 455.0959,-76.2542"/>
</a>
</g>
</g>
<!-- Node7 -->
<g id="Node000007" class="node">
<title>Node7</title>
<g id="a_Node000007"><a xlink:href="libsrc_2calcbase_2add_8c.html" target="_top" xlink:title="add 関数の実装ファイル。">
<polygon fill="#ffffff" stroke="#666666" points="619,-35.5 516,-35.5 516,-5.5 619,-5.5 619,-35.5"/>
<text text-anchor="start" x="524" y="-23.5" font-family="Helvetica,sans-Serif" font-size="10.00" fill="#000000">calc/libsrc/calcbase</text>
<text text-anchor="middle" x="567.5" y="-12.5" font-family="Helvetica,sans-Serif" font-size="10.00" fill="#000000">/add.c</text>
</a>
</g>
</g>
<!-- Node6&#45;&gt;Node7 -->
<g id="edge7_Node000006_Node000007" class="edge">
<title>Node6&#45;&gt;Node7</title>
<g id="a_edge7_Node000006_Node000007"><a xlink:title=" ">
<path fill="none" stroke="#63b8ff" d="M507.8505,-70.3338C520.5089,-59.7584 536.9377,-46.033 549.3479,-35.665"/>
<polygon fill="#63b8ff" stroke="#63b8ff" points="505.587,-67.664 500.1567,-76.7615 510.075,-73.036 505.587,-67.664"/>
</a>
</g>
</g>
<!-- Node8 -->
<g id="Node000008" class="node">
<title>Node8</title>
<g id="a_Node000008"><a xlink:href="divide_8c.html" target="_top" xlink:title="divide 関数の実装ファイル。">
<polygon fill="#ffffff" stroke="#666666" points="740,-35.5 637,-35.5 637,-5.5 740,-5.5 740,-35.5"/>
<text text-anchor="start" x="645" y="-23.5" font-family="Helvetica,sans-Serif" font-size="10.00" fill="#000000">calc/libsrc/calcbase</text>
<text text-anchor="middle" x="688.5" y="-12.5" font-family="Helvetica,sans-Serif" font-size="10.00" fill="#000000">/divide.c</text>
</a>
</g>
</g>
<!-- Node6&#45;&gt;Node8 -->
<g id="edge8_Node000006_Node000008" class="edge">
<title>Node6&#45;&gt;Node8</title>
<g id="a_edge8_Node000006_Node000008"><a xlink:title=" ">
<path fill="none" stroke="#63b8ff" d="M528.1489,-73.789C556.2093,-64.7504 594.7058,-52.264 628.5,-41 633.7215,-39.2596 639.1922,-37.417 644.6156,-35.5786"/>
<polygon fill="#63b8ff" stroke="#63b8ff" points="526.7585,-70.5596 518.3111,-76.9543 528.9026,-77.2231 526.7585,-70.5596"/>
</a>
</g>
</g>
<!-- Node9 -->
<g id="Node000009" class="node">
<title>Node9</title>
<g id="a_Node000009"><a xlink:href="multiply_8c.html" target="_top" xlink:title="multiply 関数の実装ファイル。">
<polygon fill="#ffffff" stroke="#666666" points="861,-35.5 758,-35.5 758,-5.5 861,-5.5 861,-35.5"/>
<text text-anchor="start" x="766" y="-23.5" font-family="Helvetica,sans-Serif" font-size="10.00" fill="#000000">calc/libsrc/calcbase</text>
<text text-anchor="middle" x="809.5" y="-12.5" font-family="Helvetica,sans-Serif" font-size="10.00" fill="#000000">/multiply.c</text>
</a>
</g>
</g>
<!-- Node6&#45;&gt;Node9 -->
<g id="edge9_Node000006_Node000009" class="edge">
<title>Node6&#45;&gt;Node9</title>
<g id="a_edge9_Node000006_Node000009"><a xlink:title=" ">
<path fill="none" stroke="#63b8ff" d="M562.5689,-76.7459C615.1767,-69.0529 687.2364,-56.9591 749.5,-41 755.578,-39.4421 761.924,-37.5617 768.1172,-35.5795"/>
<polygon fill="#63b8ff" stroke="#63b8ff" points="562.0447,-73.2852 552.6475,-78.1783 563.0451,-80.2133 562.0447,-73.2852"/>
</a>
</g>
</g>
<!-- Node10 -->
<g id="Node000010" class="node">
<title>Node10</title>
<g id="a_Node000010"><a xlink:href="subtract_8c.html" target="_top" xlink:title="subtract 関数の実装ファイル。">
<polygon fill="#ffffff" stroke="#666666" points="982,-35.5 879,-35.5 879,-5.5 982,-5.5 982,-35.5"/>
<text text-anchor="start" x="887" y="-23.5" font-family="Helvetica,sans-Serif" font-size="10.00" fill="#000000">calc/libsrc/calcbase</text>
<text text-anchor="middle" x="930.5" y="-12.5" font-family="Helvetica,sans-Serif" font-size="10.00" fill="#000000">/subtract.c</text>
</a>
</g>
</g>
<!-- Node6&#45;&gt;Node10 -->
<g id="edge10_Node000006_Node000010" class="edge">
<title>Node6&#45;&gt;Node10</title>
<g id="a_edge10_Node000006_Node000010"><a xlink:title=" ">
<path fill="none" stroke="#63b8ff" d="M562.8932,-82.2914C640.4572,-76.8238 765.174,-64.9837 870.5,-41 876.9399,-39.5336 883.657,-37.6284 890.1676,-35.5708"/>
<polygon fill="#63b8ff" stroke="#63b8ff" points="562.4733,-78.8119 552.737,-82.9898 562.9536,-85.7954 562.4733,-78.8119"/>
</a>
</g>
</g>
<!-- Node11 -->
<g id="Node000011" class="node">
<title>Node11</title>
<g id="a_Node000011"><a xlink:href="src_2add_2add_8c.html" target="_top" xlink:title="add 関数の呼び出しコマンド。">
<polygon fill="#ffffff" stroke="#666666" points="498,-30 401,-30 401,-11 498,-11 498,-30"/>
<text text-anchor="middle" x="449.5" y="-18" font-family="Helvetica,sans-Serif" font-size="10.00" fill="#000000">calc/src/add/add.c</text>
</a>
</g>
</g>
<!-- Node6&#45;&gt;Node11 -->
<g id="edge11_Node000006_Node000011" class="edge">
<title>Node6&#45;&gt;Node11</title>
<g id="a_edge11_Node000006_Node000011"><a xlink:title=" ">
<path fill="none" stroke="#63b8ff" d="M477.4672,-67.8291C470.2472,-55.6107 461.1054,-40.1399 455.2782,-30.2785"/>
<polygon fill="#63b8ff" stroke="#63b8ff" points="474.6448,-69.9328 482.7454,-76.7615 480.6713,-66.3716 474.6448,-69.9328"/>
</a>
</g>
</g>
</g>
</svg>
