<?xml version="1.0" encoding="UTF-8" standalone="no"?>
<!DOCTYPE svg PUBLIC "-//W3C//DTD SVG 1.1//EN"
 "http://www.w3.org/Graphics/SVG/1.1/DTD/svg11.dtd">
<!-- Generated by graphviz version 2.40.1 (0)
 -->
<!-- Title: add Pages: 1 -->
<svg width="306pt" height="83pt"
 viewBox="0.00 0.00 306.00 83.00" xmlns="http://www.w3.org/2000/svg" xmlns:xlink="http://www.w3.org/1999/xlink">
<g id="graph0" class="graph" transform="scale(1 1) rotate(0) translate(4 79)">
<title>add</title>
<!-- Node1 -->
<g id="Node000001" class="node">
<title>Node1</title>
<g id="a_Node000001"><a xlink:title="2 つの整数を加算します。">
<polygon fill="#999999" stroke="#666666" points="298,-56 266,-56 266,-37 298,-37 298,-56"/>
<text text-anchor="middle" x="282" y="-44" font-family="Helvetica,sans-Serif" font-size="10.00" fill="#000000">add</text>
</a>
</g>
</g>
<!-- Node2 -->
<g id="Node000002" class="node">
<title>Node2</title>
<g id="a_Node000002"><a xlink:href="calcHandler_8c.html#a076a4c6ceba865f94fc475a5411115f7" target="_top" xlink:title="指定された演算種別に基づいて計算を実行します。">
<polygon fill="#ffffff" stroke="#666666" points="142,-75 74,-75 74,-56 142,-56 142,-75"/>
<text text-anchor="middle" x="108" y="-63" font-family="Helvetica,sans-Serif" font-size="10.00" fill="#000000">calcHandler</text>
</a>
</g>
</g>
<!-- Node1&#45;&gt;Node2 -->
<g id="edge1_Node000001_Node000002" class="edge">
<title>Node1&#45;&gt;Node2</title>
<g id="a_edge1_Node000001_Node000002"><a xlink:title=" ">
<path fill="none" stroke="#63b8ff" d="M256.1532,-57.9627C247.9561,-61.0453 238.7472,-63.952 230,-65.5 200.6967,-70.6858 166.8104,-70.1794 142.1982,-68.6668"/>
<polygon fill="#63b8ff" stroke="#63b8ff" points="257.5717,-61.1649 265.5511,-54.1949 254.9668,-54.6676 257.5717,-61.1649"/>
</a>
</g>
</g>
<!-- Node4 -->
<g id="Node000004" class="node">
<title>Node4</title>
<g id="a_Node000004"><a xlink:href="src_2add_2add_8c.html#a0ddf1224851353fc92bfbff6f499fa97" target="_top" xlink:title="プログラムのエントリーポイント。">
<polygon fill="#ffffff" stroke="#666666" points="223,-56 185,-56 185,-37 223,-37 223,-56"/>
<text text-anchor="middle" x="204" y="-44" font-family="Helvetica,sans-Serif" font-size="10.00" fill="#000000">main</text>
</a>
</g>
</g>
<!-- Node1&#45;&gt;Node4 -->
<g id="edge3_Node000001_Node000004" class="edge">
<title>Node1&#45;&gt;Node4</title>
<g id="a_edge3_Node000001_Node000004"><a xlink:title=" ">
<path fill="none" stroke="#63b8ff" d="M255.78,-46.5C245.105,-46.5 232.9939,-46.5 223.1699,-46.5"/>
<polygon fill="#63b8ff" stroke="#63b8ff" points="255.8384,-50.0001 265.8383,-46.5 255.8383,-43.0001 255.8384,-50.0001"/>
</a>
</g>
</g>
<!-- Node5 -->
<g id="Node000005" class="node">
<title>Node5</title>
<g id="a_Node000005"><a xlink:href="subtract_8c.html#a1bf275b5894cc190077fcae5246956ac" target="_top" xlink:title="2 つの整数を減算します。">
<polygon fill="#ffffff" stroke="#666666" points="230,-19 178,-19 178,0 230,0 230,-19"/>
<text text-anchor="middle" x="204" y="-7" font-family="Helvetica,sans-Serif" font-size="10.00" fill="#000000">subtract</text>
</a>
</g>
</g>
<!-- Node1&#45;&gt;Node5 -->
<g id="edge4_Node000001_Node000005" class="edge">
<title>Node1&#45;&gt;Node5</title>
<g id="a_edge4_Node000001_Node000005"><a xlink:title=" ">
<path fill="none" stroke="#63b8ff" d="M256.7313,-34.5136C246.2357,-29.5349 234.2192,-23.8348 224.3106,-19.1345"/>
<polygon fill="#63b8ff" stroke="#63b8ff" points="255.3033,-37.7099 265.8383,-38.8336 258.3034,-31.3854 255.3033,-37.7099"/>
</a>
</g>
</g>
<!-- Node3 -->
<g id="Node000003" class="node">
<title>Node3</title>
<g id="a_Node000003"><a xlink:href="calc_8c.html#a0ddf1224851353fc92bfbff6f499fa97" target="_top" xlink:title="プログラムのエントリーポイント。">
<polygon fill="#ffffff" stroke="#666666" points="38,-75 0,-75 0,-56 38,-56 38,-75"/>
<text text-anchor="middle" x="19" y="-63" font-family="Helvetica,sans-Serif" font-size="10.00" fill="#000000">main</text>
</a>
</g>
</g>
<!-- Node2&#45;&gt;Node3 -->
<g id="edge2_Node000002_Node000003" class="edge">
<title>Node2&#45;&gt;Node3</title>
<g id="a_edge2_Node000002_Node000003"><a xlink:title=" ">
<path fill="none" stroke="#63b8ff" d="M63.7075,-65.5C54.6537,-65.5 45.5884,-65.5 38.0108,-65.5"/>
<polygon fill="#63b8ff" stroke="#63b8ff" points="63.8448,-69.0001 73.8448,-65.5 63.8448,-62.0001 63.8448,-69.0001"/>
</a>
</g>
</g>
<!-- Node5&#45;&gt;Node2 -->
<g id="edge5_Node000005_Node000002" class="edge">
<title>Node5&#45;&gt;Node2</title>
<g id="a_edge5_Node000005_Node000002"><a xlink:title=" ">
<path fill="none" stroke="#63b8ff" d="M178.3654,-24.4535C161.2841,-34.4176 139.336,-47.2206 124.5303,-55.8573"/>
<polygon fill="#63b8ff" stroke="#63b8ff" points="180.4038,-27.3164 187.2781,-19.2545 176.8767,-21.27 180.4038,-27.3164"/>
</a>
</g>
</g>
<!-- Node6 -->
<g id="Node000006" class="node">
<title>Node6</title>
<g id="a_Node000006"><a xlink:href="shared-and-static-calc_8c.html#a0ddf1224851353fc92bfbff6f499fa97" target="_top" xlink:title="プログラムのエントリーポイント。">
<polygon fill="#ffffff" stroke="#666666" points="127,-19 89,-19 89,0 127,0 127,-19"/>
<text text-anchor="middle" x="108" y="-7" font-family="Helvetica,sans-Serif" font-size="10.00" fill="#000000">main</text>
</a>
</g>
</g>
<!-- Node5&#45;&gt;Node6 -->
<g id="edge6_Node000005_Node000006" class="edge">
<title>Node5&#45;&gt;Node6</title>
<g id="a_edge6_Node000005_Node000006"><a xlink:title=" ">
<path fill="none" stroke="#63b8ff" d="M167.5996,-9.5C153.853,-9.5 138.7562,-9.5 127.1963,-9.5"/>
<polygon fill="#63b8ff" stroke="#63b8ff" points="167.7676,-13.0001 177.7676,-9.5 167.7675,-6.0001 167.7676,-13.0001"/>
</a>
</g>
</g>
</g>
</svg>
