<?xml version="1.0" encoding="UTF-8" standalone="no"?>
<!DOCTYPE svg PUBLIC "-//W3C//DTD SVG 1.1//EN"
 "http://www.w3.org/Graphics/SVG/1.1/DTD/svg11.dtd">
<!-- Generated by graphviz version 2.40.1 (0)
 -->
<!-- Title: calc/src/shared&#45;and&#45;static&#45;calc/shared&#45;and&#45;static&#45;calc.c Pages: 1 -->
<svg width="284pt" height="159pt"
 viewBox="0.00 0.00 283.50 159.00" xmlns="http://www.w3.org/2000/svg" xmlns:xlink="http://www.w3.org/1999/xlink">
<g id="graph0" class="graph" transform="scale(1 1) rotate(0) translate(4 155)">
<title>calc/src/shared&#45;and&#45;static&#45;calc/shared&#45;and&#45;static&#45;calc.c</title>
<!-- Node1 -->
<g id="Node000001" class="node">
<title>Node1</title>
<g id="a_Node000001"><a xlink:title="動的リンク、静的リンクを使った関数の呼び出しコマンド。">
<polygon fill="#999999" stroke="#666666" points="198.5,-151 96.5,-151 96.5,-110 198.5,-110 198.5,-151"/>
<text text-anchor="start" x="104.5" y="-139" font-family="Helvetica,sans-Serif" font-size="10.00" fill="#000000">calc/src/shared&#45;and</text>
<text text-anchor="start" x="104.5" y="-128" font-family="Helvetica,sans-Serif" font-size="10.00" fill="#000000">&#45;static&#45;calc/shared</text>
<text text-anchor="middle" x="147.5" y="-117" font-family="Helvetica,sans-Serif" font-size="10.00" fill="#000000">&#45;and&#45;static&#45;calc.c</text>
</a>
</g>
</g>
<!-- Node2 -->
<g id="Node000002" class="node">
<title>Node2</title>
<g id="a_Node000002"><a xlink:href="libcalc_8h.html" target="_top" xlink:title="計算ライブラリ (動的リンク用) のヘッダーファイル。">
<polygon fill="#ffffff" stroke="#666666" points="53,-74 0,-74 0,-55 53,-55 53,-74"/>
<text text-anchor="middle" x="26.5" y="-62" font-family="Helvetica,sans-Serif" font-size="10.00" fill="#000000">libcalc.h</text>
</a>
</g>
</g>
<!-- Node1&#45;&gt;Node2 -->
<g id="edge1_Node000001_Node000002" class="edge">
<title>Node1&#45;&gt;Node2</title>
<g id="a_edge1_Node000001_Node000002"><a xlink:title=" ">
<path fill="none" stroke="#63b8ff" d="M109.8781,-109.979C91.5524,-99.9831 69.9423,-88.1958 53.3149,-79.1263"/>
<polygon fill="#63b8ff" stroke="#63b8ff" points="54.6182,-75.8504 44.1632,-74.1345 51.2662,-81.9957 54.6182,-75.8504"/>
</a>
</g>
</g>
<!-- Node4 -->
<g id="Node000004" class="node">
<title>Node4</title>
<g id="a_Node000004"><a xlink:href="libcalcbase_8h.html" target="_top" xlink:title="計算ライブラリ (静的リンク用) のヘッダーファイル。">
<polygon fill="#ffffff" stroke="#666666" points="145.5,-74 71.5,-74 71.5,-55 145.5,-55 145.5,-74"/>
<text text-anchor="middle" x="108.5" y="-62" font-family="Helvetica,sans-Serif" font-size="10.00" fill="#000000">libcalcbase.h</text>
</a>
</g>
</g>
<!-- Node1&#45;&gt;Node4 -->
<g id="edge3_Node000001_Node000004" class="edge">
<title>Node1&#45;&gt;Node4</title>
<g id="a_edge3_Node000001_Node000004"><a xlink:title=" ">
<path fill="none" stroke="#63b8ff" d="M135.3739,-109.979C130.2401,-101.291 124.3066,-91.2497 119.323,-82.8158"/>
<polygon fill="#63b8ff" stroke="#63b8ff" points="122.2937,-80.9632 114.1931,-74.1345 116.2672,-84.5243 122.2937,-80.9632"/>
</a>
</g>
</g>
<!-- Node5 -->
<g id="Node000005" class="node">
<title>Node5</title>
<g id="a_Node000005"><a xlink:title=" ">
<polygon fill="#e0e0e0" stroke="#999999" points="209.5,-74 163.5,-74 163.5,-55 209.5,-55 209.5,-74"/>
<text text-anchor="middle" x="186.5" y="-62" font-family="Helvetica,sans-Serif" font-size="10.00" fill="#000000">stdio.h</text>
</a>
</g>
</g>
<!-- Node1&#45;&gt;Node5 -->
<g id="edge5_Node000001_Node000005" class="edge">
<title>Node1&#45;&gt;Node5</title>
<g id="a_edge5_Node000001_Node000005"><a xlink:title=" ">
<path fill="none" stroke="#63b8ff" d="M159.6261,-109.979C164.7599,-101.291 170.6934,-91.2497 175.677,-82.8158"/>
<polygon fill="#63b8ff" stroke="#63b8ff" points="178.7328,-84.5243 180.8069,-74.1345 172.7063,-80.9632 178.7328,-84.5243"/>
</a>
</g>
</g>
<!-- Node6 -->
<g id="Node000006" class="node">
<title>Node6</title>
<g id="a_Node000006"><a xlink:title=" ">
<polygon fill="#e0e0e0" stroke="#999999" points="275.5,-74 227.5,-74 227.5,-55 275.5,-55 275.5,-74"/>
<text text-anchor="middle" x="251.5" y="-62" font-family="Helvetica,sans-Serif" font-size="10.00" fill="#000000">stdlib.h</text>
</a>
</g>
</g>
<!-- Node1&#45;&gt;Node6 -->
<g id="edge6_Node000001_Node000006" class="edge">
<title>Node1&#45;&gt;Node6</title>
<g id="a_edge6_Node000001_Node000006"><a xlink:title=" ">
<path fill="none" stroke="#63b8ff" d="M179.8362,-109.979C195.2928,-100.1699 213.4678,-88.6358 227.6466,-79.6377"/>
<polygon fill="#63b8ff" stroke="#63b8ff" points="229.7505,-82.4479 236.3184,-74.1345 225.9997,-76.5376 229.7505,-82.4479"/>
</a>
</g>
</g>
<!-- Node3 -->
<g id="Node000003" class="node">
<title>Node3</title>
<g id="a_Node000003"><a xlink:href="libcalc__const_8h.html" target="_top" xlink:title="計算ライブラリの定数ファイル。">
<polygon fill="#ffffff" stroke="#666666" points="108.5,-19 26.5,-19 26.5,0 108.5,0 108.5,-19"/>
<text text-anchor="middle" x="67.5" y="-7" font-family="Helvetica,sans-Serif" font-size="10.00" fill="#000000">libcalc_const.h</text>
</a>
</g>
</g>
<!-- Node2&#45;&gt;Node3 -->
<g id="edge2_Node000002_Node000003" class="edge">
<title>Node2&#45;&gt;Node3</title>
<g id="a_edge2_Node000002_Node000003"><a xlink:title=" ">
<path fill="none" stroke="#63b8ff" d="M33.6417,-54.9197C39.2749,-47.363 47.2917,-36.6087 54.1105,-27.4616"/>
<polygon fill="#63b8ff" stroke="#63b8ff" points="56.9935,-29.4501 60.1641,-19.3408 51.3813,-25.2665 56.9935,-29.4501"/>
</a>
</g>
</g>
<!-- Node4&#45;&gt;Node3 -->
<g id="edge4_Node000004_Node000003" class="edge">
<title>Node4&#45;&gt;Node3</title>
<g id="a_edge4_Node000004_Node000003"><a xlink:title=" ">
<path fill="none" stroke="#63b8ff" d="M101.3583,-54.9197C95.7251,-47.363 87.7083,-36.6087 80.8895,-27.4616"/>
<polygon fill="#63b8ff" stroke="#63b8ff" points="83.6187,-25.2665 74.8359,-19.3408 78.0065,-29.4501 83.6187,-25.2665"/>
</a>
</g>
</g>
</g>
</svg>
