<svg xmlns="http://www.w3.org/2000/svg" xmlns:xlink="http://www.w3.org/1999/xlink" contentStyleType="text/css" data-diagram-type="DESCRIPTION" height="148px" preserveAspectRatio="none" style="width:1271px;height:148px;" version="1.1" viewBox="0 0 1271 148" width="1271px" zoomAndPan="magnify"><defs/><g><!--entity current--><g class="entity" data-entity="current" data-source-line="5" data-uid="ent0002" id="entity_current"><rect fill="#ADD8E6" height="37.7799" rx="2.5" ry="2.5" style="stroke:#181818;stroke-width:0.5;" width="101.8122" x="634.5" y="7"/><text fill="#000000" font-family="'Segoe UI', 'メイリオ', 'UDEV Gothic HSRFJPDOC', 'Hiragino Kaku Gothic ProN', 'ヒラギノ角ゴ ProN', 'Noto Sans JP', 'Helvetica Neue', Helvetica, Arial, sans-serif" font-size="14" font-weight="bold" lengthAdjust="spacing" textLength="81.8122" x="644.5" y="30.9999">calcHandler</text></g><!--entity r0--><g class="entity" data-entity="r0" data-source-line="6" data-uid="ent0003" id="entity_r0"><rect fill="#F1F1F1" height="37.7799" rx="2.5" ry="2.5" style="stroke:#181818;stroke-width:0.5;" width="40.9999" x="7" y="105"/><text fill="#000000" font-family="'Segoe UI', 'メイリオ', 'UDEV Gothic HSRFJPDOC', 'Hiragino Kaku Gothic ProN', 'ヒラギノ角ゴ ProN', 'Noto Sans JP', 'Helvetica Neue', Helvetica, Arial, sans-serif" font-size="14" lengthAdjust="spacing" textLength="20.9999" x="17" y="128.9999">add</text></g><!--entity r1--><g class="entity" data-entity="r1" data-source-line="7" data-uid="ent0004" id="entity_r1"><rect fill="#F1F1F1" height="37.7799" rx="2.5" ry="2.5" style="stroke:#181818;stroke-width:0.5;" width="89.9997" x="83.5" y="105"/><text fill="#000000" font-family="'Segoe UI', 'メイリオ', 'UDEV Gothic HSRFJPDOC', 'Hiragino Kaku Gothic ProN', 'ヒラギノ角ゴ ProN', 'Noto Sans JP', 'Helvetica Neue', Helvetica, Arial, sans-serif" font-size="14" lengthAdjust="spacing" textLength="69.9997" x="93.5" y="128.9999">CALC_ERROR</text></g><!--entity r2--><g class="entity" data-entity="r2" data-source-line="8" data-uid="ent0005" id="entity_r2"><rect fill="#F1F1F1" height="37.7799" rx="2.5" ry="2.5" style="stroke:#181818;stroke-width:0.5;" width="110.9996" x="209" y="105"/><text fill="#000000" font-family="'Segoe UI', 'メイリオ', 'UDEV Gothic HSRFJPDOC', 'Hiragino Kaku Gothic ProN', 'ヒラギノ角ゴ ProN', 'Noto Sans JP', 'Helvetica Neue', Helvetica, Arial, sans-serif" font-size="14" lengthAdjust="spacing" textLength="90.9996" x="219" y="128.9999">CALC_KIND_ADD</text></g><!--entity r3--><g class="entity" data-entity="r3" data-source-line="9" data-uid="ent0006" id="entity_r3"><rect fill="#F1F1F1" height="37.7799" rx="2.5" ry="2.5" style="stroke:#181818;stroke-width:0.5;" width="131.9995" x="355.5" y="105"/><text fill="#000000" font-family="'Segoe UI', 'メイリオ', 'UDEV Gothic HSRFJPDOC', 'Hiragino Kaku Gothic ProN', 'ヒラギノ角ゴ ProN', 'Noto Sans JP', 'Helvetica Neue', Helvetica, Arial, sans-serif" font-size="14" lengthAdjust="spacing" textLength="111.9995" x="365.5" y="128.9999">CALC_KIND_DIVIDE</text></g><!--entity r4--><g class="entity" data-entity="r4" data-source-line="10" data-uid="ent0007" id="entity_r4"><rect fill="#F1F1F1" height="37.7799" rx="2.5" ry="2.5" style="stroke:#181818;stroke-width:0.5;" width="145.9995" x="522.5" y="105"/><text fill="#000000" font-family="'Segoe UI', 'メイリオ', 'UDEV Gothic HSRFJPDOC', 'Hiragino Kaku Gothic ProN', 'ヒラギノ角ゴ ProN', 'Noto Sans JP', 'Helvetica Neue', Helvetica, Arial, sans-serif" font-size="14" lengthAdjust="spacing" textLength="125.9995" x="532.5" y="128.9999">CALC_KIND_MULTIPLY</text></g><!--entity r5--><g class="entity" data-entity="r5" data-source-line="11" data-uid="ent0008" id="entity_r5"><rect fill="#F1F1F1" height="37.7799" rx="2.5" ry="2.5" style="stroke:#181818;stroke-width:0.5;" width="145.9995" x="703.5" y="105"/><text fill="#000000" font-family="'Segoe UI', 'メイリオ', 'UDEV Gothic HSRFJPDOC', 'Hiragino Kaku Gothic ProN', 'ヒラギノ角ゴ ProN', 'Noto Sans JP', 'Helvetica Neue', Helvetica, Arial, sans-serif" font-size="14" lengthAdjust="spacing" textLength="125.9995" x="713.5" y="128.9999">CALC_KIND_SUBTRACT</text></g><!--entity r6--><g class="entity" data-entity="r6" data-source-line="12" data-uid="ent0009" id="entity_r6"><rect fill="#F1F1F1" height="37.7799" rx="2.5" ry="2.5" style="stroke:#181818;stroke-width:0.5;" width="61.9998" x="884.5" y="105"/><text fill="#000000" font-family="'Segoe UI', 'メイリオ', 'UDEV Gothic HSRFJPDOC', 'Hiragino Kaku Gothic ProN', 'ヒラギノ角ゴ ProN', 'Noto Sans JP', 'Helvetica Neue', Helvetica, Arial, sans-serif" font-size="14" lengthAdjust="spacing" textLength="41.9998" x="894.5" y="128.9999">divide</text></g><!--entity r7--><g class="entity" data-entity="r7" data-source-line="13" data-uid="ent0010" id="entity_r7"><rect fill="#F1F1F1" height="37.7799" rx="2.5" ry="2.5" style="stroke:#181818;stroke-width:0.5;" width="75.9998" x="981.5" y="105"/><text fill="#000000" font-family="'Segoe UI', 'メイリオ', 'UDEV Gothic HSRFJPDOC', 'Hiragino Kaku Gothic ProN', 'ヒラギノ角ゴ ProN', 'Noto Sans JP', 'Helvetica Neue', Helvetica, Arial, sans-serif" font-size="14" lengthAdjust="spacing" textLength="55.9998" x="991.5" y="128.9999">multiply</text></g><!--entity r8--><g class="entity" data-entity="r8" data-source-line="14" data-uid="ent0011" id="entity_r8"><rect fill="#F1F1F1" height="37.7799" rx="2.5" ry="2.5" style="stroke:#181818;stroke-width:0.5;" width="75.9998" x="1092.5" y="105"/><text fill="#000000" font-family="'Segoe UI', 'メイリオ', 'UDEV Gothic HSRFJPDOC', 'Hiragino Kaku Gothic ProN', 'ヒラギノ角ゴ ProN', 'Noto Sans JP', 'Helvetica Neue', Helvetica, Arial, sans-serif" font-size="14" lengthAdjust="spacing" textLength="55.9998" x="1102.5" y="128.9999">subtract</text></g><!--entity r9--><g class="entity" data-entity="r9" data-source-line="15" data-uid="ent0012" id="entity_r9"><rect fill="#F1F1F1" height="37.7799" rx="2.5" ry="2.5" style="stroke:#181818;stroke-width:0.5;" width="61.9998" x="1203.5" y="105"/><text fill="#000000" font-family="'Segoe UI', 'メイリオ', 'UDEV Gothic HSRFJPDOC', 'Hiragino Kaku Gothic ProN', 'ヒラギノ角ゴ ProN', 'Noto Sans JP', 'Helvetica Neue', Helvetica, Arial, sans-serif" font-size="14" lengthAdjust="spacing" textLength="41.9998" x="1213.5" y="128.9999">WINAPI</text></g><!--link current to r0--><g class="link" data-entity-1="current" data-entity-2="r0" data-source-line="16" data-uid="lnk13" id="link_current_r0"><path d="M634.1541,30.3043 C505.4736,41.4489 171.9111,72.6429 65.5,105 C59.7134,106.7596 59.1134,106.6818 53.6598,109.3785" fill="none" id="current-to-r0" style="stroke:#181818;stroke-width:1;"/><polygon fill="#181818" points="48.2814,112.038,58.122,111.6343,52.7634,109.8217,54.576,104.4631,48.2814,112.038" style="stroke:#181818;stroke-width:1;"/></g><!--link current to r1--><g class="link" data-entity-1="current" data-entity-2="r1" data-source-line="17" data-uid="lnk14" id="link_current_r1"><path d="M634.2177,31.8942 C543.9926,42.7754 351.2768,68.3058 191.5,105 C185.7102,106.3297 185.4512,106.2865 179.5063,107.9498" fill="none" id="current-to-r1" style="stroke:#181818;stroke-width:1;"/><polygon fill="#181818" points="173.7282,109.5664,183.4731,110.9935,178.5433,108.2192,181.3176,103.2894,173.7282,109.5664" style="stroke:#181818;stroke-width:1;"/></g><!--link current to r2--><g class="link" data-entity-1="current" data-entity-2="r2" data-source-line="18" data-uid="lnk15" id="link_current_r2"><path d="M634.3751,37.0793 C566.4265,51.9248 442.6889,79.3782 337.5,105 C331.9015,106.3637 331.8866,106.3438 326.0692,107.8204" fill="none" id="current-to-r2" style="stroke:#181818;stroke-width:1;"/><polygon fill="#181818" points="320.2536,109.2965,329.9611,110.9593,325.0999,108.0664,327.9929,103.2052,320.2536,109.2965" style="stroke:#181818;stroke-width:1;"/></g><!--link current to r3--><g class="link" data-entity-1="current" data-entity-2="r3" data-source-line="19" data-uid="lnk16" id="link_current_r3"><path d="M634.2851,45.0116 C587.8017,62.2668 525.2264,85.4956 478.6474,102.7862" fill="none" id="current-to-r3" style="stroke:#181818;stroke-width:1;"/><polygon fill="#181818" points="473.0224,104.8742,482.8519,105.4921,477.7099,103.1342,480.0678,97.9922,473.0224,104.8742" style="stroke:#181818;stroke-width:1;"/></g><!--link current to r4--><g class="link" data-entity-1="current" data-entity-2="r4" data-source-line="20" data-uid="lnk17" id="link_current_r4"><path d="M667.7189,45.3616 C651.9407,62.5424 633.0696,83.0908 617.3026,100.2594" fill="none" id="current-to-r4" style="stroke:#181818;stroke-width:1;"/><polygon fill="#181818" points="613.2442,104.6786,622.278,100.7554,616.6262,100.9959,616.3857,95.3442,613.2442,104.6786" style="stroke:#181818;stroke-width:1;"/></g><!--link current to r5--><g class="link" data-entity-1="current" data-entity-2="r5" data-source-line="21" data-uid="lnk18" id="link_current_r5"><path d="M703.4787,45.3616 C719.4322,62.5424 738.5337,83.1132 754.476,100.2818" fill="none" id="current-to-r5" style="stroke:#181818;stroke-width:1;"/><polygon fill="#181818" points="758.5587,104.6786,755.3658,95.3617,755.1564,101.0146,749.5035,100.8053,758.5587,104.6786" style="stroke:#181818;stroke-width:1;"/></g><!--link current to r6--><g class="link" data-entity-1="current" data-entity-2="r6" data-source-line="22" data-uid="lnk19" id="link_current_r6"><path d="M730.119,45.0116 C775.4495,64.3263 838.966,91.3899 878.7543,108.3432" fill="none" id="current-to-r6" style="stroke:#181818;stroke-width:1;"/><polygon fill="#181818" points="884.2741,110.6951,877.5623,103.4873,879.6742,108.7352,874.4264,110.8471,884.2741,110.6951" style="stroke:#181818;stroke-width:1;"/></g><!--link current to r7--><g class="link" data-entity-1="current" data-entity-2="r7" data-source-line="23" data-uid="lnk20" id="link_current_r7"><path d="M736.6683,39.5537 C792.8205,54.6446 885.4917,80.1893 964.5,105 C969.9938,106.7252 970.083,106.705 975.7401,108.6147" fill="none" id="current-to-r7" style="stroke:#181818;stroke-width:1;"/><polygon fill="#181818" points="981.4249,110.5338,974.177,103.8653,976.6875,108.9346,971.6183,111.4451,981.4249,110.5338" style="stroke:#181818;stroke-width:1;"/></g><!--link current to r8--><g class="link" data-entity-1="current" data-entity-2="r8" data-source-line="24" data-uid="lnk21" id="link_current_r8"><path d="M736.8014,34.1551 C811.8585,46.5893 955.6976,72.3282 1075.5,105 C1080.958,106.4885 1080.9559,106.3735 1086.5339,108.1938" fill="none" id="current-to-r8" style="stroke:#181818;stroke-width:1;"/><polygon fill="#181818" points="1092.2379,110.0552,1084.9229,103.4605,1087.4846,108.504,1082.441,111.0657,1092.2379,110.0552" style="stroke:#181818;stroke-width:1;"/></g><!--link current to r9--><g class="link" data-entity-1="current" data-entity-2="r9" data-source-line="25" data-uid="lnk22" id="link_current_r9"><path d="M736.7713,30.322 C828.3523,38.869 1025.5351,61.0311 1186.5,105 C1192.0332,106.5114 1192.178,106.3586 1197.7154,108.4232" fill="none" id="current-to-r9" style="stroke:#181818;stroke-width:1;"/><polygon fill="#181818" points="1203.3373,110.5193,1196.3018,103.6272,1198.6523,108.7725,1193.507,111.1231,1203.3373,110.5193" style="stroke:#181818;stroke-width:1;"/></g><!--SRC=[RP1BQm8n54Rtyok2tGr8VJz0X74YD7HgPJgsT2Kn2TDWp4WU1VzzjMaX5sUNatFkvbjOTr5YcImU_nxsAFMP6df21ygEjMcyvdcZ6eESeTfUbT0kCO8vgcibK2TD6LNiYMgkX4dJ3g8MCMzk6NeePFtbLigB-89o_bkPNloRPqM-NvVbQnba_qu-amtUPnW7FsZtcBmJl0x9i3rvsHKLsHQV8HgrHs-xLLLcUHMYSHnn-Isv268IYvDNJfxL9QXfhAm_NFTZBgXPh3x89jkI8ER9_tJTxl8s4C0-n0748SGHn3742SGfn1d4-Gy0]--></g></svg>