<svg xmlns="http://www.w3.org/2000/svg" xmlns:xlink="http://www.w3.org/1999/xlink" contentStyleType="text/css" data-diagram-type="DESCRIPTION" height="342px" preserveAspectRatio="none" style="width:444px;height:342px;" version="1.1" viewBox="0 0 444 342" width="444px" zoomAndPan="magnify"><defs/><g><!--entity H--><g class="entity" data-entity="H" data-source-line="5" data-uid="ent0002" id="entity_H"><path d="M29,300.5 L29,333.2799 A2.5,2.5 0 0 0 31.5,335.7799 L102.4998,335.7799 A2.5,2.5 0 0 0 104.9998,333.2799 L104.9998,308 L94.9998,298 L31.5,298 A2.5,2.5 0 0 0 29,300.5" fill="#F1F1F1" style="stroke:#181818;stroke-width:0.5;"/><path d="M94.9998,298 L94.9998,305.5 A2.5,2.5 0 0 0 97.4998,308 L104.9998,308" fill="#F1F1F1" style="stroke:#181818;stroke-width:0.5;"/><text fill="#000000" font-family="'Segoe UI', 'メイリオ', 'UDEV Gothic HSRFJPDOC', 'Hiragino Kaku Gothic ProN', 'ヒラギノ角ゴ ProN', 'Noto Sans JP', 'Helvetica Neue', Helvetica, Arial, sans-serif" font-size="14" lengthAdjust="spacing" textLength="55.9998" x="39" y="321.9999">sample.h</text></g><g class="entity" data-entity="GMN3" data-source-line="7" data-uid="ent0004" id="entity_GMN3"><path d="M140,303.5 L140,313 L105.1797,317 L140,321 L140,330.01 A0,0 0 0 0 140,330.01 L356,330.01 A0,0 0 0 0 356,330.01 L356,313.5 L346,303.5 L140,303.5 A0,0 0 0 0 140,303.5" fill="#FEFFDD" style="stroke:#181818;stroke-width:0.5;"/><path d="M346,303.5 L346,313.5 L356,313.5 L346,303.5" fill="#FEFFDD" style="stroke:#181818;stroke-width:0.5;"/><text fill="#000000" font-family="'Segoe UI', 'メイリオ', 'UDEV Gothic HSRFJPDOC', 'Hiragino Kaku Gothic ProN', 'ヒラギノ角ゴ ProN', 'Noto Sans JP', 'Helvetica Neue', Helvetica, Arial, sans-serif" font-size="13" lengthAdjust="spacing" textLength="195" x="146" y="321.5">&#12288;extern void print_message();</text></g><!--entity C--><g class="entity" data-entity="C" data-source-line="9" data-uid="ent0006" id="entity_C"><path d="M149,173.5 L149,206.2799 A2.5,2.5 0 0 0 151.5,208.7799 L222.4998,208.7799 A2.5,2.5 0 0 0 224.9998,206.2799 L224.9998,181 L214.9998,171 L151.5,171 A2.5,2.5 0 0 0 149,173.5" fill="#F1F1F1" style="stroke:#181818;stroke-width:0.5;"/><path d="M214.9998,171 L214.9998,178.5 A2.5,2.5 0 0 0 217.4998,181 L224.9998,181" fill="#F1F1F1" style="stroke:#181818;stroke-width:0.5;"/><text fill="#000000" font-family="'Segoe UI', 'メイリオ', 'UDEV Gothic HSRFJPDOC', 'Hiragino Kaku Gothic ProN', 'ヒラギノ角ゴ ProN', 'Noto Sans JP', 'Helvetica Neue', Helvetica, Arial, sans-serif" font-size="14" lengthAdjust="spacing" textLength="55.9998" x="159" y="194.9999">sample.c</text></g><g class="entity" data-entity="GMN7" data-source-line="11" data-uid="ent0008" id="entity_GMN7"><path d="M260.5,160 L260.5,186 L225.2852,190 L260.5,194 L260.5,219.53 A0,0 0 0 0 260.5,219.53 L437.5,219.53 A0,0 0 0 0 437.5,219.53 L437.5,170 L427.5,160 L260.5,160 A0,0 0 0 0 260.5,160" fill="#FEFFDD" style="stroke:#181818;stroke-width:0.5;"/><path d="M427.5,160 L427.5,170 L437.5,170 L427.5,160" fill="#FEFFDD" style="stroke:#181818;stroke-width:0.5;"/><text fill="#000000" font-family="'Segoe UI', 'メイリオ', 'UDEV Gothic HSRFJPDOC', 'Hiragino Kaku Gothic ProN', 'ヒラギノ角ゴ ProN', 'Noto Sans JP', 'Helvetica Neue', Helvetica, Arial, sans-serif" font-size="13" lengthAdjust="spacing" textLength="156" x="266.5" y="178">&#12288;void print_message() {</text><text fill="#000000" font-family="'Segoe UI', 'メイリオ', 'UDEV Gothic HSRFJPDOC', 'Hiragino Kaku Gothic ProN', 'ヒラギノ角ゴ ProN', 'Noto Sans JP', 'Helvetica Neue', Helvetica, Arial, sans-serif" font-size="13" lengthAdjust="spacing" textLength="123.5001" x="266.5" y="194.51">&#12288;&#12288;// &#23450;&#32681;&#65288;&#23455;&#20307;&#65289;</text><text fill="#000000" font-family="'Segoe UI', 'メイリオ', 'UDEV Gothic HSRFJPDOC', 'Hiragino Kaku Gothic ProN', 'ヒラギノ角ゴ ProN', 'Noto Sans JP', 'Helvetica Neue', Helvetica, Arial, sans-serif" font-size="13" lengthAdjust="spacing" textLength="19.5" x="266.5" y="211.02">&#12288;}</text></g><!--entity M--><g class="entity" data-entity="M" data-source-line="15" data-uid="ent0010" id="entity_M"><path d="M6,27.5 L6,60.2799 A2.5,2.5 0 0 0 8.5,62.7799 L65.4998,62.7799 A2.5,2.5 0 0 0 67.9998,60.2799 L67.9998,35 L57.9998,25 L8.5,25 A2.5,2.5 0 0 0 6,27.5" fill="#F1F1F1" style="stroke:#181818;stroke-width:0.5;"/><path d="M57.9998,25 L57.9998,32.5 A2.5,2.5 0 0 0 60.4998,35 L67.9998,35" fill="#F1F1F1" style="stroke:#181818;stroke-width:0.5;"/><text fill="#000000" font-family="'Segoe UI', 'メイリオ', 'UDEV Gothic HSRFJPDOC', 'Hiragino Kaku Gothic ProN', 'ヒラギノ角ゴ ProN', 'Noto Sans JP', 'Helvetica Neue', Helvetica, Arial, sans-serif" font-size="14" lengthAdjust="spacing" textLength="41.9998" x="16" y="48.9999">main.c</text></g><g class="entity" data-entity="GMN11" data-source-line="17" data-uid="ent0012" id="entity_GMN11"><path d="M103,6 L103,40 L68.1523,44 L103,48 L103,82.0401 A0,0 0 0 0 103,82.0401 L260.5,82.0401 A0,0 0 0 0 260.5,82.0401 L260.5,16 L250.5,6 L103,6 A0,0 0 0 0 103,6" fill="#FEFFDD" style="stroke:#181818;stroke-width:0.5;"/><path d="M250.5,6 L250.5,16 L260.5,16 L250.5,6" fill="#FEFFDD" style="stroke:#181818;stroke-width:0.5;"/><text fill="#000000" font-family="'Segoe UI', 'メイリオ', 'UDEV Gothic HSRFJPDOC', 'Hiragino Kaku Gothic ProN', 'ヒラギノ角ゴ ProN', 'Noto Sans JP', 'Helvetica Neue', Helvetica, Arial, sans-serif" font-size="13" lengthAdjust="spacing" textLength="136.5" x="109" y="24">&#12288;#include "sample.h"</text><text fill="#000000" font-family="'Segoe UI', 'メイリオ', 'UDEV Gothic HSRFJPDOC', 'Hiragino Kaku Gothic ProN', 'ヒラギノ角ゴ ProN', 'Noto Sans JP', 'Helvetica Neue', Helvetica, Arial, sans-serif" font-size="13" lengthAdjust="spacing" textLength="91" x="109" y="40.51">&#12288;int main() {</text><text fill="#000000" font-family="'Segoe UI', 'メイリオ', 'UDEV Gothic HSRFJPDOC', 'Hiragino Kaku Gothic ProN', 'ヒラギノ角ゴ ProN', 'Noto Sans JP', 'Helvetica Neue', Helvetica, Arial, sans-serif" font-size="13" lengthAdjust="spacing" textLength="130" x="109" y="57.02">&#12288;&#12288;print_message();</text><text fill="#000000" font-family="'Segoe UI', 'メイリオ', 'UDEV Gothic HSRFJPDOC', 'Hiragino Kaku Gothic ProN', 'ヒラギノ角ゴ ProN', 'Noto Sans JP', 'Helvetica Neue', Helvetica, Arial, sans-serif" font-size="13" lengthAdjust="spacing" textLength="19.5" x="109" y="73.5301">&#12288;}</text></g><!--link M to H--><g class="link" data-entity-1="M" data-entity-2="H" data-source-line="22" data-uid="lnk14" id="link_M_H"><path d="M32.5552,63.2366 C25.7396,95.8425 14.6288,163.8903 26,220 C31.7376,248.3113 43.2041,273.3219 53.291,292.3821" fill="none" id="M-to-H" style="stroke:#181818;stroke-width:1;"/><polygon fill="#181818" points="56.0975,297.6853,55.4232,287.8596,53.7587,293.266,48.3523,291.6016,56.0975,297.6853" style="stroke:#181818;stroke-width:1;"/><text fill="#000000" font-family="'Segoe UI', 'メイリオ', 'UDEV Gothic HSRFJPDOC', 'Hiragino Kaku Gothic ProN', 'ヒラギノ角ゴ ProN', 'Noto Sans JP', 'Helvetica Neue', Helvetica, Arial, sans-serif" font-size="13" lengthAdjust="spacing" textLength="104.0001" x="27" y="195">&#38306;&#25968;&#12398;&#23459;&#35328;&#12434;&#21442;&#29031;</text></g><!--link C to H--><g class="link" data-entity-1="C" data-entity-2="H" data-source-line="23" data-uid="lnk15" id="link_C_H"><path d="M169.0348,209.0132 C146.4123,232.9553 111.8891,269.4925 89.2088,293.4957" fill="none" id="C-to-H" style="stroke:#181818;stroke-width:1;"/><polygon fill="#181818" points="85.088,297.8568,94.1766,294.0623,88.522,294.2225,88.3617,288.568,85.088,297.8568" style="stroke:#181818;stroke-width:1;"/><text fill="#000000" font-family="'Segoe UI', 'メイリオ', 'UDEV Gothic HSRFJPDOC', 'Hiragino Kaku Gothic ProN', 'ヒラギノ角ゴ ProN', 'Noto Sans JP', 'Helvetica Neue', Helvetica, Arial, sans-serif" font-size="13" lengthAdjust="spacing" textLength="104.0001" x="128" y="264">&#23459;&#35328;&#12392;&#23450;&#32681;&#12434;&#19968;&#33268;</text></g><!--link M to C--><g class="link" data-entity-1="M" data-entity-2="C" data-source-line="24" data-uid="lnk16" id="link_M_C"><path d="M56.6099,63.087 C85.3573,91.0677 134.3356,138.74 163.0857,166.7235" fill="none" id="M-to-C" style="stroke:#181818;stroke-width:1;"/><polygon fill="#181818" points="167.3853,170.9084,163.7259,161.7646,163.8023,167.421,158.146,167.4974,167.3853,170.9084" style="stroke:#181818;stroke-width:1;"/><text fill="#000000" font-family="'Segoe UI', 'メイリオ', 'UDEV Gothic HSRFJPDOC', 'Hiragino Kaku Gothic ProN', 'ヒラギノ角ゴ ProN', 'Noto Sans JP', 'Helvetica Neue', Helvetica, Arial, sans-serif" font-size="13" lengthAdjust="spacing" textLength="91.0001" x="121" y="126">&#12522;&#12531;&#12463;&#26178;&#12395;&#35299;&#27770;</text></g><!--SRC=[ioakgSn9jUEoqOSoYhCpymeIYn9p5P8IaxFJY_9ByrASytFoYnHAYXBpYe5IgNabN0eAQPavgGfAnOcv1JcfUXbA2ed52Xv0uRpyabI5eipq392QnmqDgHKbgKLv2cNvcIaA1KMPUINnkQd5nOdfgHgQra0LgNafO2te1YQ33NJ6OY0sanIg8N90fA-ly7JThEVxLhxVq_5qtVmdUoU_tzC9aQt5PbzkOcOUr3PVBBOfP-ObvvIc8FiK8W6qNm6a5yLoB1x4jDTNGLVNJi53mKhXvRH5pwPkUDouxkcwnIzMD3nkclIql-bvwtAW8cUu8gXSumg8ju2AdkneUD6-1MwICr3Hu-PLZvitFsvQ_sncq-F6rI-MBtwsSHS0]--></g></svg>