<svg xmlns="http://www.w3.org/2000/svg" xmlns:xlink="http://www.w3.org/1999/xlink" contentStyleType="text/css" data-diagram-type="DESCRIPTION" height="246px" preserveAspectRatio="none" style="width:348px;height:246px;" version="1.1" viewBox="0 0 348 246" width="348px" zoomAndPan="magnify"><defs/><g><!--entity n2--><g class="entity" data-entity="n2" data-source-line="5" data-uid="ent0002" id="entity_n2"><rect fill="#F1F1F1" height="37.7799" rx="2.5" ry="2.5" style="stroke:#181818;stroke-width:0.5;" width="82.9997" x="153" y="105"/><text fill="#000000" font-family="'Segoe UI', 'メイリオ', 'UDEV Gothic HSRFJPDOC', 'Hiragino Kaku Gothic ProN', 'ヒラギノ角ゴ ProN', 'Noto Sans JP', 'Helvetica Neue', Helvetica, Arial, sans-serif" font-size="14" lengthAdjust="spacing" textLength="62.9997" x="163" y="128.9999">libbase.h</text></g><!--entity n6--><g class="entity" data-entity="n6" data-source-line="6" data-uid="ent0003" id="entity_n6"><rect fill="#F1F1F1" height="37.7799" rx="2.5" ry="2.5" style="stroke:#181818;stroke-width:0.5;" width="110.9996" x="7" y="105"/><text fill="#000000" font-family="'Segoe UI', 'メイリオ', 'UDEV Gothic HSRFJPDOC', 'Hiragino Kaku Gothic ProN', 'ヒラギノ角ゴ ProN', 'Noto Sans JP', 'Helvetica Neue', Helvetica, Arial, sans-serif" font-size="14" lengthAdjust="spacing" textLength="90.9996" x="17" y="128.9999">libbase_ext.h</text></g><!--entity n1--><g class="entity" data-entity="n1" data-source-line="7" data-uid="ent0004" id="entity_n1"><rect fill="#ADD8E6" height="37.7799" rx="2.5" ry="2.5" style="stroke:#181818;stroke-width:0.5;" width="131.562" x="128.5" y="203"/><text fill="#000000" font-family="'Segoe UI', 'メイリオ', 'UDEV Gothic HSRFJPDOC', 'Hiragino Kaku Gothic ProN', 'ヒラギノ角ゴ ProN', 'Noto Sans JP', 'Helvetica Neue', Helvetica, Arial, sans-serif" font-size="14" font-weight="bold" lengthAdjust="spacing" textLength="111.562" x="138.5" y="226.9999">override_func.c</text></g><!--entity n4--><g class="entity" data-entity="n4" data-source-line="8" data-uid="ent0005" id="entity_n4"><rect fill="#F1F1F1" height="37.7799" rx="2.5" ry="2.5" style="stroke:#181818;stroke-width:0.5;" width="68.9998" x="44" y="7"/><text fill="#000000" font-family="'Segoe UI', 'メイリオ', 'UDEV Gothic HSRFJPDOC', 'Hiragino Kaku Gothic ProN', 'ヒラギノ角ゴ ProN', 'Noto Sans JP', 'Helvetica Neue', Helvetica, Arial, sans-serif" font-size="14" lengthAdjust="spacing" textLength="48.9998" x="54" y="30.9999">dlfcn.h</text></g><!--entity n5--><g class="entity" data-entity="n5" data-source-line="9" data-uid="ent0006" id="entity_n5"><rect fill="#F1F1F1" height="37.7799" rx="2.5" ry="2.5" style="stroke:#181818;stroke-width:0.5;" width="82.9997" x="148" y="7"/><text fill="#000000" font-family="'Segoe UI', 'メイリオ', 'UDEV Gothic HSRFJPDOC', 'Hiragino Kaku Gothic ProN', 'ヒラギノ角ゴ ProN', 'Noto Sans JP', 'Helvetica Neue', Helvetica, Arial, sans-serif" font-size="14" lengthAdjust="spacing" textLength="62.9997" x="158" y="30.9999">pthread.h</text></g><!--entity n3--><g class="entity" data-entity="n3" data-source-line="10" data-uid="ent0007" id="entity_n3"><rect fill="#F1F1F1" height="37.7799" rx="2.5" ry="2.5" style="stroke:#181818;stroke-width:0.5;" width="75.9998" x="266.5" y="7"/><text fill="#000000" font-family="'Segoe UI', 'メイリオ', 'UDEV Gothic HSRFJPDOC', 'Hiragino Kaku Gothic ProN', 'ヒラギノ角ゴ ProN', 'Noto Sans JP', 'Helvetica Neue', Helvetica, Arial, sans-serif" font-size="14" lengthAdjust="spacing" textLength="55.9998" x="276.5" y="30.9999">stddef.h</text></g><!--link n3 to n2--><g class="link" data-entity-1="n3" data-entity-2="n2" data-source-line="11" data-uid="lnk8" id="link_n3_n2"><path d="M283.0298,45.128 C263.6475,62.3959 239.7616,83.6761 220.3961,100.929" fill="none" id="n3-to-n2" style="stroke:#181818;stroke-width:1;"/><polygon fill="#181818" points="215.9161,104.9202,225.2969,101.92,219.6494,101.5942,219.9752,95.9467,215.9161,104.9202" style="stroke:#181818;stroke-width:1;"/></g><!--link n4 to n2--><g class="link" data-entity-1="n4" data-entity-2="n2" data-source-line="12" data-uid="lnk9" id="link_n4_n2"><path d="M101.1413,45.128 C121.5808,62.3959 146.9106,83.7952 167.3325,101.0481" fill="none" id="n4-to-n2" style="stroke:#181818;stroke-width:1;"/><polygon fill="#181818" points="171.9158,104.9202,167.6222,96.0565,168.0964,101.6935,162.4594,102.1676,171.9158,104.9202" style="stroke:#181818;stroke-width:1;"/></g><!--link n5 to n2--><g class="link" data-entity-1="n5" data-entity-2="n2" data-source-line="13" data-uid="lnk10" id="link_n5_n2"><path d="M190.4878,45.3616 C191.3644,62.5424 192.3326,81.5178 193.2085,98.6864" fill="none" id="n5-to-n2" style="stroke:#181818;stroke-width:1;"/><polygon fill="#181818" points="193.5142,104.6786,197.0504,95.4865,193.2594,99.6851,189.0608,95.8941,193.5142,104.6786" style="stroke:#181818;stroke-width:1;"/></g><!--link n2 to n1--><g class="link" data-entity-1="n2" data-entity-2="n1" data-source-line="14" data-uid="lnk11" id="link_n2_n1"><path d="M194.5,143.3616 C194.5,160.5424 194.5,179.51 194.5,196.6786" fill="none" id="n2-to-n1" style="stroke:#181818;stroke-width:1;"/><polygon fill="#181818" points="194.5,202.6786,198.5,193.6786,194.5,197.6786,190.5,193.6786,194.5,202.6786" style="stroke:#181818;stroke-width:1;"/></g><!--link n6 to n1--><g class="link" data-entity-1="n6" data-entity-2="n1" data-source-line="15" data-uid="lnk12" id="link_n6_n1"><path d="M88.2643,143.128 C111.523,160.3959 140.7446,182.0907 163.9832,199.3436" fill="none" id="n6-to-n1" style="stroke:#181818;stroke-width:1;"/><polygon fill="#181818" points="168.8007,202.9202,163.9589,194.3437,164.7861,199.9397,159.1901,200.7669,168.8007,202.9202" style="stroke:#181818;stroke-width:1;"/></g><!--link n3 to n1--><g class="link" data-entity-1="n3" data-entity-2="n1" data-source-line="16" data-uid="lnk13" id="link_n3_n1"><path d="M297.6611,45.2943 C288.8944,69.0395 272.533,110.2363 253.5,143 C240.9461,164.6106 227.3191,182.6218 214.6626,198.102" fill="none" id="n3-to-n1" style="stroke:#181818;stroke-width:1;"/><polygon fill="#181818" points="210.8648,202.7471,219.6582,198.3113,214.0296,198.8762,213.4648,193.2476,210.8648,202.7471" style="stroke:#181818;stroke-width:1;"/></g><!--SRC=[RSwz3eCW4C3ndQSWTYEnZP-JSMZNleD1E9L83mFOj6_VDefXwFPFVdUNQvn_QsX9Szd3pGeNRlc3zbpCepKhoflHnb9lERel0NfYGNYEemQQQDNttC5vIYXt5FC_ri7B1wzZPymymLebeHjM56V1s3QLqTDTZPE_wXNY1Qa7WU5K6SlY9mjS1gjYSrvA608L10kQfktlLooFgexAjye8raVj6za7]--></g></svg>