<svg xmlns="http://www.w3.org/2000/svg" xmlns:xlink="http://www.w3.org/1999/xlink" contentStyleType="text/css" data-diagram-type="DESCRIPTION" height="450px" preserveAspectRatio="none" style="width:798px;height:450px;" version="1.1" viewBox="0 0 798 450" width="798px" zoomAndPan="magnify"><defs/><g><!--entity core--><g class="entity" data-entity="core" data-source-line="5" data-uid="ent0002" id="entity_core"><rect fill="#F1F1F1" height="37.7799" rx="2.5" ry="2.5" style="stroke:#181818;stroke-width:0.5;" width="159.9994" x="235.5" y="7"/><text fill="#000000" font-family="'Segoe UI', 'メイリオ', 'UDEV Gothic HSRFJPDOC', 'Hiragino Kaku Gothic ProN', 'ヒラギノ角ゴ ProN', 'Noto Sans JP', 'Helvetica Neue', Helvetica, Arial, sans-serif" font-size="14" lengthAdjust="spacing" textLength="139.9994" x="245.5" y="30.9999">pub_markdown_core.sh</text></g><!--entity server--><g class="entity" data-entity="server" data-source-line="7" data-uid="ent0003" id="entity_server"><rect fill="#F1F1F1" height="37.7799" rx="2.5" ry="2.5" style="stroke:#181818;stroke-width:0.5;" width="138.9995" x="246" y="140"/><text fill="#000000" font-family="'Segoe UI', 'メイリオ', 'UDEV Gothic HSRFJPDOC', 'Hiragino Kaku Gothic ProN', 'ヒラギノ角ゴ ProN', 'Noto Sans JP', 'Helvetica Neue', Helvetica, Arial, sans-serif" font-size="14" lengthAdjust="spacing" textLength="118.9995" x="256" y="163.9999">browser-server.js</text></g><!--entity chrome--><g class="entity" data-entity="chrome" data-source-line="9" data-uid="ent0004" id="entity_chrome"><path d="M201.2792,268.7223 C204.4511,263.51 209.3179,262.8088 212.9449,268.2227 C214.8961,263.1933 218.7582,261.8189 223.1413,265.3141 C226.773,260.0767 230.834,258.7969 235.183,264.5266 C239.3421,259.8009 243.1085,260.3708 246.2656,265.6379 C251.6546,261.2632 255.8912,261.5828 258.8403,268.3834 C261.9838,263.0953 267.6708,263.56 270.7052,268.5099 C281.3678,268.5452 284.1252,275.8758 280.0585,284.5176 C285.6834,294.1134 281.594,301.1676 270.4146,300.827 C268.2082,305.4926 262.866,306.2491 259.6335,302.0791 C256.3654,309.1122 249.9613,309.2579 246.5781,302.1856 C244.0517,307.5195 238.7336,308.1934 235.9064,302.476 C232.5746,308.0827 228.8025,308.3304 224.4592,303.5957 C220.6604,308.0848 215.6547,308.7387 212.9784,302.405 C209.1287,307.2087 202.9189,307.636 200.487,300.8737 C189.1987,300.5091 186.4618,295.1991 191.5575,285.3873 C186.7994,276.3414 190.639,268.7855 201.2792,268.7223" fill="#F1F1F1" style="stroke:#181818;stroke-width:0.5;"/><text fill="#000000" font-family="'Segoe UI', 'メイリオ', 'UDEV Gothic HSRFJPDOC', 'Hiragino Kaku Gothic ProN', 'ヒラギノ角ゴ ProN', 'Noto Sans JP', 'Helvetica Neue', Helvetica, Arial, sans-serif" font-size="14" lengthAdjust="spacing" textLength="55.9998" x="206.5" y="288.9999">Chromium</text></g><!--entity rsvg--><g class="entity" data-entity="rsvg" data-source-line="11" data-uid="ent0005" id="entity_rsvg"><rect fill="#F1F1F1" height="37.7799" rx="2.5" ry="2.5" style="stroke:#181818;stroke-width:0.5;" width="124.9995" x="7" y="407"/><text fill="#000000" font-family="'Segoe UI', 'メイリオ', 'UDEV Gothic HSRFJPDOC', 'Hiragino Kaku Gothic ProN', 'ヒラギノ角ゴ ProN', 'Noto Sans JP', 'Helvetica Neue', Helvetica, Arial, sans-serif" font-size="14" lengthAdjust="spacing" textLength="104.9995" x="17" y="430.9999">rsvg-convert.js</text></g><!--entity mmdc--><g class="entity" data-entity="mmdc" data-source-line="13" data-uid="ent0006" id="entity_mmdc"><rect fill="#F1F1F1" height="37.7799" rx="2.5" ry="2.5" style="stroke:#181818;stroke-width:0.5;" width="110.9996" x="529" y="407"/><text fill="#000000" font-family="'Segoe UI', 'メイリオ', 'UDEV Gothic HSRFJPDOC', 'Hiragino Kaku Gothic ProN', 'ヒラギノ角ゴ ProN', 'Noto Sans JP', 'Helvetica Neue', Helvetica, Arial, sans-serif" font-size="14" lengthAdjust="spacing" textLength="90.9996" x="539" y="430.9999">mmdc-reuse.js</text></g><!--entity wsfile--><g class="entity" data-entity="wsfile" data-source-line="15" data-uid="ent0007" id="entity_wsfile"><path d="M330,258.5 L330,309.0598 A2.5,2.5 0 0 0 332.5,311.5598 L466.4995,311.5598 A2.5,2.5 0 0 0 468.9995,309.0598 L468.9995,266 L458.9995,256 L332.5,256 A2.5,2.5 0 0 0 330,258.5" fill="#F1F1F1" style="stroke:#181818;stroke-width:0.5;"/><path d="M458.9995,256 L458.9995,263.5 A2.5,2.5 0 0 0 461.4995,266 L468.9995,266" fill="#F1F1F1" style="stroke:#181818;stroke-width:0.5;"/><text fill="#000000" font-family="'Segoe UI', 'メイリオ', 'UDEV Gothic HSRFJPDOC', 'Hiragino Kaku Gothic ProN', 'ヒラギノ角ゴ ProN', 'Noto Sans JP', 'Helvetica Neue', Helvetica, Arial, sans-serif" font-size="14" lengthAdjust="spacing" textLength="118.9995" x="340" y="279.9999">WS &#12456;&#12531;&#12489;&#12509;&#12452;&#12531;&#12488;</text><text fill="#000000" font-family="'Segoe UI', 'メイリオ', 'UDEV Gothic HSRFJPDOC', 'Hiragino Kaku Gothic ProN', 'ヒラギノ角ゴ ProN', 'Noto Sans JP', 'Helvetica Neue', Helvetica, Arial, sans-serif" font-size="14" lengthAdjust="spacing" textLength="55.9998" x="340" y="297.7799">&#12501;&#12449;&#12452;&#12523;</text></g><!--link core to server--><g class="link" data-entity-1="core" data-entity-2="server" data-source-line="16" data-uid="lnk8" id="link_core_server"><path d="M315.5,45.0557 C315.5,70.3389 315.5,108.7142 315.5,133.9797" fill="none" id="core-to-server" style="stroke:#181818;stroke-width:1;"/><polygon fill="#181818" points="315.5,139.9797,319.5,130.9797,315.5,134.9797,311.5,130.9797,315.5,139.9797" style="stroke:#181818;stroke-width:1;"/><text fill="#000000" font-family="'Segoe UI', 'メイリオ', 'UDEV Gothic HSRFJPDOC', 'Hiragino Kaku Gothic ProN', 'ヒラギノ角ゴ ProN', 'Noto Sans JP', 'Helvetica Neue', Helvetica, Arial, sans-serif" font-size="13" lengthAdjust="spacing" textLength="130.0002" x="335.9999" y="89">&#12496;&#12483;&#12463;&#12464;&#12521;&#12454;&#12531;&#12489;&#36215;&#21205;</text><text fill="#000000" font-family="'Segoe UI', 'メイリオ', 'UDEV Gothic HSRFJPDOC', 'Hiragino Kaku Gothic ProN', 'ヒラギノ角ゴ ProN', 'Noto Sans JP', 'Helvetica Neue', Helvetica, Arial, sans-serif" font-size="13" lengthAdjust="spacing" textLength="169" x="316.5" y="105.51">(node browser-server.js &amp;)</text></g><!--link server to chrome--><g class="link" data-entity-1="server" data-entity-2="chrome" data-source-line="17" data-uid="lnk9" id="link_server_chrome"><path d="M266.2344,178.0838 C253.6628,185.4534 241.6839,195.2581 234.5,208 C225.6871,223.6312 225.3151,238.1749 227.7679,253.9331" fill="none" id="server-to-chrome" style="stroke:#181818;stroke-width:1;"/><polygon fill="#181818" points="228.6907,259.8617,231.2589,250.3536,227.9217,254.9212,223.3541,251.584,228.6907,259.8617" style="stroke:#181818;stroke-width:1;"/><text fill="#000000" font-family="'Segoe UI', 'メイリオ', 'UDEV Gothic HSRFJPDOC', 'Hiragino Kaku Gothic ProN', 'ヒラギノ角ゴ ProN', 'Noto Sans JP', 'Helvetica Neue', Helvetica, Arial, sans-serif" font-size="13" lengthAdjust="spacing" textLength="117" x="235.5" y="222">puppeteer.launch()</text></g><!--link server to wsfile--><g class="link" data-entity-1="server" data-entity-2="wsfile" data-source-line="18" data-uid="lnk10" id="link_server_wsfile"><path d="M333.6251,178.2844 C341.4112,187.0235 350.3447,197.691 357.5,208 C367.9869,223.109 375.2497,235.7541 382.8768,250.4255" fill="none" id="server-to-wsfile" style="stroke:#181818;stroke-width:1;"/><polygon fill="#181818" points="385.6443,255.7491,385.0421,245.9187,383.338,251.3128,377.9439,249.6087,385.6443,255.7491" style="stroke:#181818;stroke-width:1;"/><text fill="#000000" font-family="'Segoe UI', 'メイリオ', 'UDEV Gothic HSRFJPDOC', 'Hiragino Kaku Gothic ProN', 'ヒラギノ角ゴ ProN', 'Noto Sans JP', 'Helvetica Neue', Helvetica, Arial, sans-serif" font-size="13" lengthAdjust="spacing" textLength="123.5001" x="368.5" y="222">ws://... &#12434;&#26360;&#12365;&#20986;&#12375;</text></g><!--reverse link wsfile to rsvg--><g class="link" data-entity-1="wsfile" data-entity-2="rsvg" data-source-line="19" data-uid="lnk12" id="link_wsfile_rsvg"><path d="M393.7463,318.2456 C388.9277,339.3378 380.3944,361.2299 360.5,377 C326.0227,404.3299 206.8265,417.0437 132.1053,422.452" fill="none" id="wsfile-backto-rsvg" style="stroke:#181818;stroke-width:1;"/><polygon fill="#181818" points="395.0826,312.3963,389.1786,320.2794,393.969,317.2707,396.9777,322.0611,395.0826,312.3963" style="stroke:#181818;stroke-width:1;"/><text fill="#000000" font-family="'Segoe UI', 'メイリオ', 'UDEV Gothic HSRFJPDOC', 'Hiragino Kaku Gothic ProN', 'ヒラギノ角ゴ ProN', 'Noto Sans JP', 'Helvetica Neue', Helvetica, Arial, sans-serif" font-size="13" lengthAdjust="spacing" textLength="143.0002" x="386.5" y="364.5">&#12456;&#12531;&#12489;&#12509;&#12452;&#12531;&#12488;&#35501;&#12415;&#21462;&#12426;</text></g><!--reverse link chrome to rsvg--><g class="link" data-entity-1="chrome" data-entity-2="rsvg" data-source-line="20" data-uid="lnk14" id="link_chrome_rsvg"><path d="M185.253,294.3541 C140.5496,304.6204 81.2293,321.3326 66.5,342 C53.1187,360.776 57.3977,388.3727 62.6348,406.7499" fill="none" id="chrome-backto-rsvg" style="stroke:#181818;stroke-width:1;"/><polygon fill="#181818" points="191.1008,293.0111,181.4338,291.127,186.2277,294.1302,183.2244,298.9241,191.1008,293.0111" style="stroke:#181818;stroke-width:1;"/><text fill="#000000" font-family="'Segoe UI', 'メイリオ', 'UDEV Gothic HSRFJPDOC', 'Hiragino Kaku Gothic ProN', 'ヒラギノ角ゴ ProN', 'Noto Sans JP', 'Helvetica Neue', Helvetica, Arial, sans-serif" font-size="13" lengthAdjust="spacing" textLength="123.5" x="67.5" y="356">puppeteer.connect()</text><text fill="#000000" font-family="'Segoe UI', 'メイリオ', 'UDEV Gothic HSRFJPDOC', 'Hiragino Kaku Gothic ProN', 'ヒラギノ角ゴ ProN', 'Noto Sans JP', 'Helvetica Neue', Helvetica, Arial, sans-serif" font-size="13" lengthAdjust="spacing" textLength="117.0001" x="70.7499" y="372.51">(&#12506;&#12540;&#12472;&#21336;&#20301;&#12391;&#25805;&#20316;)</text></g><!--reverse link wsfile to mmdc--><g class="link" data-entity-1="wsfile" data-entity-2="mmdc" data-source-line="21" data-uid="lnk16" id="link_wsfile_mmdc"><path d="M474.8113,301.7267 C501.2655,310.5608 524.3885,322.0494 545.5,342 C564.1975,359.6694 574.7575,388.0645 580.0482,406.8762" fill="none" id="wsfile-backto-mmdc" style="stroke:#181818;stroke-width:1;"/><polygon fill="#181818" points="469.1202,299.8262,476.3898,306.4709,473.8628,301.4099,478.9238,298.8829,469.1202,299.8262" style="stroke:#181818;stroke-width:1;"/><text fill="#000000" font-family="'Segoe UI', 'メイリオ', 'UDEV Gothic HSRFJPDOC', 'Hiragino Kaku Gothic ProN', 'ヒラギノ角ゴ ProN', 'Noto Sans JP', 'Helvetica Neue', Helvetica, Arial, sans-serif" font-size="13" lengthAdjust="spacing" textLength="143.0002" x="568.5" y="364.5">&#12456;&#12531;&#12489;&#12509;&#12452;&#12531;&#12488;&#35501;&#12415;&#21462;&#12426;</text></g><!--reverse link chrome to mmdc--><g class="link" data-entity-1="chrome" data-entity-2="mmdc" data-source-line="22" data-uid="lnk18" id="link_chrome_mmdc"><path d="M222.0118,314.0652 C214.8727,334.8171 211.3238,358.4518 227.5,377 C246.9803,399.3367 433.2377,415.454 528.6897,422.3202" fill="none" id="chrome-backto-mmdc" style="stroke:#181818;stroke-width:1;"/><polygon fill="#181818" points="223.9637,308.3916,217.2535,315.6008,222.3372,313.1196,224.8183,318.2033,223.9637,308.3916" style="stroke:#181818;stroke-width:1;"/><text fill="#000000" font-family="'Segoe UI', 'メイリオ', 'UDEV Gothic HSRFJPDOC', 'Hiragino Kaku Gothic ProN', 'ヒラギノ角ゴ ProN', 'Noto Sans JP', 'Helvetica Neue', Helvetica, Arial, sans-serif" font-size="13" lengthAdjust="spacing" textLength="123.5" x="228.5" y="356">puppeteer.connect()</text><text fill="#000000" font-family="'Segoe UI', 'メイリオ', 'UDEV Gothic HSRFJPDOC', 'Hiragino Kaku Gothic ProN', 'ヒラギノ角ゴ ProN', 'Noto Sans JP', 'Helvetica Neue', Helvetica, Arial, sans-serif" font-size="13" lengthAdjust="spacing" textLength="117.0001" x="231.7499" y="372.51">(&#12506;&#12540;&#12472;&#21336;&#20301;&#12391;&#25805;&#20316;)</text></g><!--link core to rsvg--><g class="link" data-entity-1="core" data-entity-2="rsvg" data-source-line="23" data-uid="lnk19" id="link_core_rsvg"><path d="M282.1999,45.1506 C234.2577,74.3517 146.0146,134.45 95.5,208 C51.4949,272.0721 36.2057,300.5974 50.5,377 C52.4128,387.2241 54.0158,392.5488 57.8392,401.4233" fill="none" id="core-to-rsvg" style="stroke:#181818;stroke-width:1;"/><polygon fill="#181818" points="60.2132,406.9337,60.3257,397.0855,58.2348,402.3417,52.9786,400.2509,60.2132,406.9337" style="stroke:#181818;stroke-width:1;"/><text fill="#000000" font-family="'Segoe UI', 'メイリオ', 'UDEV Gothic HSRFJPDOC', 'Hiragino Kaku Gothic ProN', 'ヒラギノ角ゴ ProN', 'Noto Sans JP', 'Helvetica Neue', Helvetica, Arial, sans-serif" font-size="13" lengthAdjust="spacing" textLength="123.5001" x="96.5" y="222">Pandoc &#12501;&#12451;&#12523;&#12479;&#32076;&#30001;</text></g><!--link core to mmdc--><g class="link" data-entity-1="core" data-entity-2="mmdc" data-source-line="24" data-uid="lnk20" id="link_core_mmdc"><path d="M395.9409,37.3326 C428.3829,44.5347 465.0268,56.2006 494.5,75 C625.5758,158.6063 667.0127,196.0206 720.5,342 C725.8517,356.606 729.443,364.2722 720.5,377 C710.7248,390.9123 678.9837,402.2413 645.8201,411.3147" fill="none" id="core-to-mmdc" style="stroke:#181818;stroke-width:1;"/><polygon fill="#181818" points="640.0328,412.8981,649.7693,414.3812,644.8556,411.5786,647.6582,406.6648,640.0328,412.8981" style="stroke:#181818;stroke-width:1;"/><text fill="#000000" font-family="'Segoe UI', 'メイリオ', 'UDEV Gothic HSRFJPDOC', 'Hiragino Kaku Gothic ProN', 'ヒラギノ角ゴ ProN', 'Noto Sans JP', 'Helvetica Neue', Helvetica, Arial, sans-serif" font-size="13" lengthAdjust="spacing" textLength="123.5001" x="666.5" y="222">Pandoc &#12501;&#12451;&#12523;&#12479;&#32076;&#30001;</text></g><!--SRC=[fL7BIWCn5Dtx5Q4BgOkPxekuyGS45su4IMTYMpkJ3CcCHSH5auNFelZ6nq8KduYAY4KiViorwcUOP5gmlXOQ2DpSd7Cuzzn-4Ky5PA2dFzSkHALC8ynnY0hOgnGvIwW_o0B6KSmn5VgBqBW7wSE95sDQ30ZAH4bXBCIyuhCg7VCO9wuePH0MoDHesi9dFfCAd5K5uOw-auIx4y8oqbSNnmjOugFCO8cpi9o4gR1v_2ZDnMJHyHZLId57sFH-meUXxpcS989qqARJXHul6-38C09v2keMr3oeVP17jfuRfQ0sG1xOneLLg0f3IGSmAJWc76UWCs0UWLe1fK1UWRm6TGRoEDLzkxjlBMwCqYnbFa5VKaAzVLQqhTEHRGUIHr4IHIGc6XlWX7gbR3USbukbMEDJUnfV5VbSpdLTFTZgosu3QlNMx0FKjjACJ6XE4dqaV1l0s_abr9vQoviW5puplx6cTqDr_Da-FIQe7L2F81kj-lPpimwravUr-dDpB_Lj5_4d1n-O_tBGjJqxLXuDOUep3zcb7-gDWtnwlLjwNR_voh0sVc6y0m00]--></g></svg>