<svg xmlns="http://www.w3.org/2000/svg" xmlns:xlink="http://www.w3.org/1999/xlink" contentStyleType="text/css" data-diagram-type="ACTIVITY" height="733px" preserveAspectRatio="none" style="width:631px;height:733px;" version="1.1" viewBox="0 0 631 733" width="631px" zoomAndPan="magnify"><defs/><g><ellipse cx="184.0012" cy="20" fill="#222222" rx="10" ry="10" style="stroke:#222222;stroke-width:1;"/><rect fill="#F1F1F1" height="35.2401" rx="12.5" ry="12.5" style="stroke:#181818;stroke-width:0.5;" width="170.0011" x="99.0006" y="50"/><text fill="#000000" font-family="'Segoe UI', 'メイリオ', 'UDEV Gothic HSRFJPDOC', 'Hiragino Kaku Gothic ProN', 'ヒラギノ角ゴ ProN', 'Noto Sans JP', 'Helvetica Neue', Helvetica, Arial, sans-serif" font-size="12" lengthAdjust="spacing" textLength="150.0011" x="109.0006" y="72.0001">pub_markdown_core.sh &#38283;&#22987;</text><rect fill="none" height="250.7403" style="stroke:#000000;stroke-width:1.5;" width="346.0023" x="11" y="95.2401"/><path d="M160.9994,95.2401 L160.9994,106.02 L150.9994,116.02 L11,116.02" fill="none" style="stroke:#000000;stroke-width:1.5;"/><text fill="#000000" font-family="'Segoe UI', 'メイリオ', 'UDEV Gothic HSRFJPDOC', 'Hiragino Kaku Gothic ProN', 'ヒラギノ角ゴ ProN', 'Noto Sans JP', 'Helvetica Neue', Helvetica, Arial, sans-serif" font-size="14" lengthAdjust="spacing" textLength="139.9994" x="14" y="110.24">&#12502;&#12521;&#12454;&#12470;&#12469;&#12540;&#12496;&#12540;&#36215;&#21205;</text><rect fill="#F1F1F1" height="35.2401" rx="12.5" ry="12.5" style="stroke:#181818;stroke-width:0.5;" width="272.0019" x="48.0002" y="133.02"/><text fill="#000000" font-family="'Segoe UI', 'メイリオ', 'UDEV Gothic HSRFJPDOC', 'Hiragino Kaku Gothic ProN', 'ヒラギノ角ゴ ProN', 'Noto Sans JP', 'Helvetica Neue', Helvetica, Arial, sans-serif" font-size="12" lengthAdjust="spacing" textLength="252.0019" x="58.0002" y="155.0201">browser-server.js &#12434;&#12496;&#12483;&#12463;&#12464;&#12521;&#12454;&#12531;&#12489;&#12391;&#36215;&#21205;</text><rect fill="#F1F1F1" height="35.2401" rx="12.5" ry="12.5" style="stroke:#181818;stroke-width:0.5;" width="158.0011" x="105.0006" y="188.2601"/><text fill="#000000" font-family="'Segoe UI', 'メイリオ', 'UDEV Gothic HSRFJPDOC', 'Hiragino Kaku Gothic ProN', 'ヒラギノ角ゴ ProN', 'Noto Sans JP', 'Helvetica Neue', Helvetica, Arial, sans-serif" font-size="12" lengthAdjust="spacing" textLength="138.0011" x="115.0006" y="210.2602">Chromium &#12502;&#12521;&#12454;&#12470;&#12434;&#36215;&#21205;</text><rect fill="#F1F1F1" height="35.2401" rx="12.5" ry="12.5" style="stroke:#181818;stroke-width:0.5;" width="284.002" x="42.0002" y="243.5002"/><text fill="#000000" font-family="'Segoe UI', 'メイリオ', 'UDEV Gothic HSRFJPDOC', 'Hiragino Kaku Gothic ProN', 'ヒラギノ角ゴ ProN', 'Noto Sans JP', 'Helvetica Neue', Helvetica, Arial, sans-serif" font-size="12" lengthAdjust="spacing" textLength="264.002" x="52.0002" y="265.5003">WebSocket &#12456;&#12531;&#12489;&#12509;&#12452;&#12531;&#12488;&#12434;&#12501;&#12449;&#12452;&#12523;&#12395;&#26360;&#12365;&#20986;&#12375;</text><rect fill="#F1F1F1" height="35.2401" rx="12.5" ry="12.5" style="stroke:#181818;stroke-width:0.5;" width="326.0023" x="21" y="298.7403"/><text fill="#000000" font-family="'Segoe UI', 'メイリオ', 'UDEV Gothic HSRFJPDOC', 'Hiragino Kaku Gothic ProN', 'ヒラギノ角ゴ ProN', 'Noto Sans JP', 'Helvetica Neue', Helvetica, Arial, sans-serif" font-size="12" lengthAdjust="spacing" textLength="306.0023" x="31" y="320.7404">PUB_MARKDOWN_BROWSER_WS_FILE &#29872;&#22659;&#22793;&#25968;&#12434;&#12456;&#12463;&#12473;&#12509;&#12540;&#12488;</text><rect fill="none" height="118.82" style="stroke:#000000;stroke-width:1.5;" width="519.0011" x="101.0007" y="355.9805"/><path d="M181.0004,355.9805 L181.0004,366.7604 L171.0004,376.7604 L101.0007,376.7604" fill="none" style="stroke:#000000;stroke-width:1.5;"/><text fill="#000000" font-family="'Segoe UI', 'メイリオ', 'UDEV Gothic HSRFJPDOC', 'Hiragino Kaku Gothic ProN', 'ヒラギノ角ゴ ProN', 'Noto Sans JP', 'Helvetica Neue', Helvetica, Arial, sans-serif" font-size="14" lengthAdjust="spacing" textLength="69.9997" x="104.0007" y="370.9804">&#12499;&#12523;&#12489;&#20966;&#29702;</text><path d="M277.0016,386.7604 L277.0016,420.7804 L257.0016,424.7804 L277.0016,428.7804 L277.0016,462.8004 A0,0 0 0 0 277.0016,462.8004 L610.0018,462.8004 A0,0 0 0 0 610.0018,462.8004 L610.0018,396.7604 L600.0018,386.7604 L277.0016,386.7604 A0,0 0 0 0 277.0016,386.7604" fill="#FEFFDD" style="stroke:#181818;stroke-width:0.5;"/><path d="M600.0018,386.7604 L600.0018,396.7604 L610.0018,396.7604 L600.0018,386.7604" fill="#FEFFDD" style="stroke:#181818;stroke-width:0.5;"/><text fill="#000000" font-family="'Segoe UI', 'メイリオ', 'UDEV Gothic HSRFJPDOC', 'Hiragino Kaku Gothic ProN', 'ヒラギノ角ゴ ProN', 'Noto Sans JP', 'Helvetica Neue', Helvetica, Arial, sans-serif" font-size="13" lengthAdjust="spacing" textLength="201.5002" x="283.0016" y="404.7604">&#21508;&#12501;&#12451;&#12523;&#12479;&#12364;&#20849;&#26377;&#12502;&#12521;&#12454;&#12470;&#12395;&#25509;&#32154;:</text><text fill="#000000" font-family="'Segoe UI', 'メイリオ', 'UDEV Gothic HSRFJPDOC', 'Hiragino Kaku Gothic ProN', 'ヒラギノ角ゴ ProN', 'Noto Sans JP', 'Helvetica Neue', Helvetica, Arial, sans-serif" font-size="13" lengthAdjust="spacing" textLength="260.312" x="283.0016" y="421.2704">&#12539;rsvg-convert.js &#8594; puppeteer.connect()</text><text fill="#000000" font-family="'Segoe UI', 'メイリオ', 'UDEV Gothic HSRFJPDOC', 'Hiragino Kaku Gothic ProN', 'ヒラギノ角ゴ ProN', 'Noto Sans JP', 'Helvetica Neue', Helvetica, Arial, sans-serif" font-size="13" lengthAdjust="spacing" textLength="247.312" x="283.0016" y="437.7804">&#12539;mmdc-reuse.js &#8594; puppeteer.connect()</text><text fill="#000000" font-family="'Segoe UI', 'メイリオ', 'UDEV Gothic HSRFJPDOC', 'Hiragino Kaku Gothic ProN', 'ヒラギノ角ゴ ProN', 'Noto Sans JP', 'Helvetica Neue', Helvetica, Arial, sans-serif" font-size="13" lengthAdjust="spacing" textLength="312.0002" x="283.0016" y="454.2904">&#25509;&#32154;&#22833;&#25943;&#26178;&#12399; puppeteer.launch() &#12395;&#12501;&#12457;&#12540;&#12523;&#12496;&#12483;&#12463;</text><rect fill="#F1F1F1" height="35.2401" rx="12.5" ry="12.5" style="stroke:#181818;stroke-width:0.5;" width="146.001" x="111.0007" y="407.1604"/><text fill="#000000" font-family="'Segoe UI', 'メイリオ', 'UDEV Gothic HSRFJPDOC', 'Hiragino Kaku Gothic ProN', 'ヒラギノ角ゴ ProN', 'Noto Sans JP', 'Helvetica Neue', Helvetica, Arial, sans-serif" font-size="12" lengthAdjust="spacing" textLength="126.001" x="121.0007" y="429.1604">Pandoc &#12395;&#12424;&#12427;&#22793;&#25563;&#20966;&#29702;</text><rect fill="none" height="140.2601" style="stroke:#000000;stroke-width:1.5;" width="328.0022" x="20.0001" y="484.8004"/><path d="M169.9995,484.8004 L169.9995,495.5804 L159.9995,505.5804 L20.0001,505.5804" fill="none" style="stroke:#000000;stroke-width:1.5;"/><text fill="#000000" font-family="'Segoe UI', 'メイリオ', 'UDEV Gothic HSRFJPDOC', 'Hiragino Kaku Gothic ProN', 'ヒラギノ角ゴ ProN', 'Noto Sans JP', 'Helvetica Neue', Helvetica, Arial, sans-serif" font-size="14" lengthAdjust="spacing" textLength="139.9994" x="23.0001" y="499.8004">&#12502;&#12521;&#12454;&#12470;&#12469;&#12540;&#12496;&#12540;&#20572;&#27490;</text><rect fill="#F1F1F1" height="35.2401" rx="12.5" ry="12.5" style="stroke:#181818;stroke-width:0.5;" width="218.0015" x="75.0004" y="522.5804"/><text fill="#000000" font-family="'Segoe UI', 'メイリオ', 'UDEV Gothic HSRFJPDOC', 'Hiragino Kaku Gothic ProN', 'ヒラギノ角ゴ ProN', 'Noto Sans JP', 'Helvetica Neue', Helvetica, Arial, sans-serif" font-size="12" lengthAdjust="spacing" textLength="198.0015" x="85.0004" y="544.5804">browser-server.js &#12395; SIGTERM &#36865;&#20449;</text><rect fill="#F1F1F1" height="35.2401" rx="12.5" ry="12.5" style="stroke:#181818;stroke-width:0.5;" width="308.0022" x="30.0001" y="577.8205"/><text fill="#000000" font-family="'Segoe UI', 'メイリオ', 'UDEV Gothic HSRFJPDOC', 'Hiragino Kaku Gothic ProN', 'ヒラギノ角ゴ ProN', 'Noto Sans JP', 'Helvetica Neue', Helvetica, Arial, sans-serif" font-size="12" lengthAdjust="spacing" textLength="288.0022" x="40.0001" y="599.8205">&#12502;&#12521;&#12454;&#12470;&#12434;&#38281;&#12376;&#12390; WS &#12456;&#12531;&#12489;&#12509;&#12452;&#12531;&#12488;&#12501;&#12449;&#12452;&#12523;&#12434;&#21066;&#38500;</text><rect fill="#F1F1F1" height="35.2401" rx="12.5" ry="12.5" style="stroke:#181818;stroke-width:0.5;" width="170.0011" x="99.0006" y="645.0606"/><text fill="#000000" font-family="'Segoe UI', 'メイリオ', 'UDEV Gothic HSRFJPDOC', 'Hiragino Kaku Gothic ProN', 'ヒラギノ角ゴ ProN', 'Noto Sans JP', 'Helvetica Neue', Helvetica, Arial, sans-serif" font-size="12" lengthAdjust="spacing" textLength="150.0011" x="109.0006" y="667.0607">pub_markdown_core.sh &#32066;&#20102;</text><ellipse cx="184.0012" cy="711.3007" fill="none" rx="11" ry="11" style="stroke:#222222;stroke-width:1;"/><ellipse cx="184.0012" cy="711.3007" fill="#222222" rx="6" ry="6" style="stroke:#222222;stroke-width:1;"/><line style="stroke:#181818;stroke-width:1;" x1="184.0012" x2="184.0012" y1="30" y2="50"/><polygon fill="#181818" points="180.0012,40,184.0012,50,188.0012,40,184.0012,44" style="stroke:#181818;stroke-width:1;"/><line style="stroke:#181818;stroke-width:1;" x1="184.0012" x2="184.0012" y1="168.2601" y2="188.2601"/><polygon fill="#181818" points="180.0012,178.2601,184.0012,188.2601,188.0012,178.2601,184.0012,182.2601" style="stroke:#181818;stroke-width:1;"/><line style="stroke:#181818;stroke-width:1;" x1="184.0012" x2="184.0012" y1="223.5002" y2="243.5002"/><polygon fill="#181818" points="180.0012,233.5002,184.0012,243.5002,188.0012,233.5002,184.0012,237.5002" style="stroke:#181818;stroke-width:1;"/><line style="stroke:#181818;stroke-width:1;" x1="184.0012" x2="184.0012" y1="278.7403" y2="298.7403"/><polygon fill="#181818" points="180.0012,288.7403,184.0012,298.7403,188.0012,288.7403,184.0012,292.7403" style="stroke:#181818;stroke-width:1;"/><line style="stroke:#181818;stroke-width:1;" x1="184.0012" x2="184.0012" y1="85.2401" y2="133.02"/><polygon fill="#181818" points="180.0012,123.02,184.0012,133.02,188.0012,123.02,184.0012,127.02" style="stroke:#181818;stroke-width:1;"/><line style="stroke:#181818;stroke-width:1;" x1="184.0012" x2="184.0012" y1="333.9805" y2="407.1604"/><polygon fill="#181818" points="180.0012,397.1604,184.0012,407.1604,188.0012,397.1604,184.0012,401.1604" style="stroke:#181818;stroke-width:1;"/><line style="stroke:#181818;stroke-width:1;" x1="184.0012" x2="184.0012" y1="557.8205" y2="577.8205"/><polygon fill="#181818" points="180.0012,567.8205,184.0012,577.8205,188.0012,567.8205,184.0012,571.8205" style="stroke:#181818;stroke-width:1;"/><line style="stroke:#181818;stroke-width:1;" x1="184.0012" x2="184.0012" y1="442.4005" y2="522.5804"/><polygon fill="#181818" points="180.0012,512.5804,184.0012,522.5804,188.0012,512.5804,184.0012,516.5804" style="stroke:#181818;stroke-width:1;"/><line style="stroke:#181818;stroke-width:1;" x1="184.0012" x2="184.0012" y1="613.0606" y2="645.0606"/><polygon fill="#181818" points="180.0012,635.0606,184.0012,645.0606,188.0012,635.0606,184.0012,639.0606" style="stroke:#181818;stroke-width:1;"/><line style="stroke:#181818;stroke-width:1;" x1="184.0012" x2="184.0012" y1="680.3007" y2="700.3007"/><polygon fill="#181818" points="180.0012,690.3007,184.0012,700.3007,188.0012,690.3007,184.0012,694.3007" style="stroke:#181818;stroke-width:1;"/><!--SRC=[bLDlJnCn77xFfsXu1I-6xu6O24v3526RPYyljrkppUtQIwy7CSR4QnMOyyyoio62By0v98jXn0mLJVWkbhkvRs5xMoOtZgXDxjAqVPxdr-VtTDQc3uhmwjZibS74BkIHfHFT16dTA6G9Tb1c7XSn0PJeo9PR4D4n88TDTTAVgJ5jEMdDr4aXWrUHPc02f-mSwDNBtdvvPdXAmccUvZ42uuBN1JyGh2dOiM0TmNy8Nf7_NvqlNhas3XuEGG5zck1L6vAO_5OWcRfl0y6g0O8BTYXOUq36FmjU4kv-dsOcJ3AV8zZCEoO8YrSZ3wTWEecD0gHIwUE0bxyJh17CDmBvcc2xmKfBk2r_-wjmNtZh9yBT7E5QlZUdBLvBtBg-bBgZpIMMKibuGaibjHiBj-EWMsrxUznhbFnQMx5ADNMZRqfDkRBnX-nHj9ElLG6yvAqtkvMr2zOjwoY33I0h54oMNLPAhxRxXyDr8amX8FbiZeQMrV0gJuBhlbTIx5IupxsdH_vEAUIazE3bX-xns-aBSC6_4tib6pCmaksZgdy_rwh0SYmBKYWRAZSGDEZ4P1JKD3D6Z437Xly3xDVYDOxysgQ_nOHxU0vMr1rav2Oc0rlKnGu2hrl3I8Ne8Ce4vloj4T6HzjmT_zFUlqJQRO7amisxySGYw3rspqvtHt8qajjUNKRzZN2R89My9ANd8yggNkbPRwiHbQVezzljiBEJGKXiYgtV]--></g></svg>