<svg xmlns="http://www.w3.org/2000/svg" xmlns:xlink="http://www.w3.org/1999/xlink" contentStyleType="text/css" data-diagram-type="ACTIVITY" height="595px" preserveAspectRatio="none" style="width:198px;height:595px;" version="1.1" viewBox="0 0 198 595" width="198px" zoomAndPan="magnify"><defs/><g><ellipse cx="99.0006" cy="20" fill="#222222" rx="10" ry="10" style="stroke:#222222;stroke-width:1;"/><rect fill="#F1F1F1" height="35.2401" rx="12.5" ry="12.5" style="stroke:#181818;stroke-width:0.5;" width="110.0007" x="44.0003" y="50"/><text fill="#000000" font-family="'Segoe UI', 'メイリオ', 'UDEV Gothic HSRFJPDOC', 'Hiragino Kaku Gothic ProN', 'ヒラギノ角ゴ ProN', 'Noto Sans JP', 'Helvetica Neue', Helvetica, Arial, sans-serif" font-size="12" lengthAdjust="spacing" textLength="90.0007" x="54.0003" y="72.0001">STDIN: SVG Text</text><rect fill="#F1F1F1" height="35.2401" rx="12.5" ry="12.5" style="stroke:#181818;stroke-width:0.5;" width="104.0006" x="47.0003" y="105.2401"/><text fill="#000000" font-family="'Segoe UI', 'メイリオ', 'UDEV Gothic HSRFJPDOC', 'Hiragino Kaku Gothic ProN', 'ヒラギノ角ゴ ProN', 'Noto Sans JP', 'Helvetica Neue', Helvetica, Arial, sans-serif" font-size="12" lengthAdjust="spacing" textLength="84.0006" x="57.0003" y="127.2402">&#12458;&#12503;&#12471;&#12519;&#12531;&#35299;&#26512;</text><rect fill="#F1F1F1" height="35.2401" rx="12.5" ry="12.5" style="stroke:#181818;stroke-width:0.5;" width="104.0006" x="47.0003" y="160.4802"/><text fill="#000000" font-family="'Segoe UI', 'メイリオ', 'UDEV Gothic HSRFJPDOC', 'Hiragino Kaku Gothic ProN', 'ヒラギノ角ゴ ProN', 'Noto Sans JP', 'Helvetica Neue', Helvetica, Arial, sans-serif" font-size="12" lengthAdjust="spacing" textLength="84.0006" x="57.0003" y="182.4803">Puppeteer &#36215;&#21205;</text><rect fill="#F1F1F1" height="50.4802" rx="12.5" ry="12.5" style="stroke:#181818;stroke-width:0.5;" width="116.0007" x="41.0002" y="215.7203"/><text fill="#000000" font-family="'Segoe UI', 'メイリオ', 'UDEV Gothic HSRFJPDOC', 'Hiragino Kaku Gothic ProN', 'ヒラギノ角ゴ ProN', 'Noto Sans JP', 'Helvetica Neue', Helvetica, Arial, sans-serif" font-size="12" lengthAdjust="spacing" textLength="96.0007" x="51.0002" y="237.7204">&#20206; viewport &#35373;&#23450;</text><text fill="#000000" font-family="'Segoe UI', 'メイリオ', 'UDEV Gothic HSRFJPDOC', 'Hiragino Kaku Gothic ProN', 'ヒラギノ角ゴ ProN', 'Noto Sans JP', 'Helvetica Neue', Helvetica, Arial, sans-serif" font-size="12" lengthAdjust="spacing" textLength="54.0004" x="51.0002" y="252.9605">4096x4096</text><rect fill="#F1F1F1" height="35.2401" rx="12.5" ry="12.5" style="stroke:#181818;stroke-width:0.5;" width="152.001" x="23.0001" y="286.2005"/><text fill="#000000" font-family="'Segoe UI', 'メイリオ', 'UDEV Gothic HSRFJPDOC', 'Hiragino Kaku Gothic ProN', 'ヒラギノ角ゴ ProN', 'Noto Sans JP', 'Helvetica Neue', Helvetica, Arial, sans-serif" font-size="12" lengthAdjust="spacing" textLength="132.001" x="33.0001" y="308.2006">SVG &#12434; HTML &#12395;&#22475;&#12417;&#36796;&#12415;</text><rect fill="#F1F1F1" height="35.2401" rx="12.5" ry="12.5" style="stroke:#181818;stroke-width:0.5;" width="152.001" x="23.0001" y="341.4406"/><text fill="#000000" font-family="'Segoe UI', 'メイリオ', 'UDEV Gothic HSRFJPDOC', 'Hiragino Kaku Gothic ProN', 'ヒラギノ角ゴ ProN', 'Noto Sans JP', 'Helvetica Neue', Helvetica, Arial, sans-serif" font-size="12" lengthAdjust="spacing" textLength="132.001" x="33.0001" y="363.4407">&#12469;&#12452;&#12474;&#27770;&#23450;&#12525;&#12472;&#12483;&#12463;&#23455;&#34892;</text><rect fill="#F1F1F1" height="35.2401" rx="12.5" ry="12.5" style="stroke:#181818;stroke-width:0.5;" width="140.0009" x="29.0001" y="396.6807"/><text fill="#000000" font-family="'Segoe UI', 'メイリオ', 'UDEV Gothic HSRFJPDOC', 'Hiragino Kaku Gothic ProN', 'ヒラギノ角ゴ ProN', 'Noto Sans JP', 'Helvetica Neue', Helvetica, Arial, sans-serif" font-size="12" lengthAdjust="spacing" textLength="120.0009" x="39.0001" y="418.6808">&#26368;&#36969; viewport &#20877;&#35373;&#23450;</text><rect fill="#F1F1F1" height="35.2401" rx="12.5" ry="12.5" style="stroke:#181818;stroke-width:0.5;" width="176.0012" x="11" y="451.9209"/><text fill="#000000" font-family="'Segoe UI', 'メイリオ', 'UDEV Gothic HSRFJPDOC', 'Hiragino Kaku Gothic ProN', 'ヒラギノ角ゴ ProN', 'Noto Sans JP', 'Helvetica Neue', Helvetica, Arial, sans-serif" font-size="12" lengthAdjust="spacing" textLength="156.0012" x="21" y="473.9209">&#39640;&#35299;&#20687;&#24230;&#12473;&#12463;&#12522;&#12540;&#12531;&#12471;&#12519;&#12483;&#12488;</text><rect fill="#F1F1F1" height="35.2401" rx="12.5" ry="12.5" style="stroke:#181818;stroke-width:0.5;" width="128.0008" x="35.0002" y="507.161"/><text fill="#000000" font-family="'Segoe UI', 'メイリオ', 'UDEV Gothic HSRFJPDOC', 'Hiragino Kaku Gothic ProN', 'ヒラギノ角ゴ ProN', 'Noto Sans JP', 'Helvetica Neue', Helvetica, Arial, sans-serif" font-size="12" lengthAdjust="spacing" textLength="108.0008" x="45.0002" y="529.161">STDOUT: PNG Binary</text><ellipse cx="99.0006" cy="573.4011" fill="none" rx="11" ry="11" style="stroke:#222222;stroke-width:1;"/><ellipse cx="99.0006" cy="573.4011" fill="#222222" rx="6" ry="6" style="stroke:#222222;stroke-width:1;"/><line style="stroke:#181818;stroke-width:1;" x1="99.0006" x2="99.0006" y1="30" y2="50"/><polygon fill="#181818" points="95.0006,40,99.0006,50,103.0006,40,99.0006,44" style="stroke:#181818;stroke-width:1;"/><line style="stroke:#181818;stroke-width:1;" x1="99.0006" x2="99.0006" y1="85.2401" y2="105.2401"/><polygon fill="#181818" points="95.0006,95.2401,99.0006,105.2401,103.0006,95.2401,99.0006,99.2401" style="stroke:#181818;stroke-width:1;"/><line style="stroke:#181818;stroke-width:1;" x1="99.0006" x2="99.0006" y1="140.4802" y2="160.4802"/><polygon fill="#181818" points="95.0006,150.4802,99.0006,160.4802,103.0006,150.4802,99.0006,154.4802" style="stroke:#181818;stroke-width:1;"/><line style="stroke:#181818;stroke-width:1;" x1="99.0006" x2="99.0006" y1="195.7203" y2="215.7203"/><polygon fill="#181818" points="95.0006,205.7203,99.0006,215.7203,103.0006,205.7203,99.0006,209.7203" style="stroke:#181818;stroke-width:1;"/><line style="stroke:#181818;stroke-width:1;" x1="99.0006" x2="99.0006" y1="266.2005" y2="286.2005"/><polygon fill="#181818" points="95.0006,276.2005,99.0006,286.2005,103.0006,276.2005,99.0006,280.2005" style="stroke:#181818;stroke-width:1;"/><line style="stroke:#181818;stroke-width:1;" x1="99.0006" x2="99.0006" y1="321.4406" y2="341.4406"/><polygon fill="#181818" points="95.0006,331.4406,99.0006,341.4406,103.0006,331.4406,99.0006,335.4406" style="stroke:#181818;stroke-width:1;"/><line style="stroke:#181818;stroke-width:1;" x1="99.0006" x2="99.0006" y1="376.6807" y2="396.6807"/><polygon fill="#181818" points="95.0006,386.6807,99.0006,396.6807,103.0006,386.6807,99.0006,390.6807" style="stroke:#181818;stroke-width:1;"/><line style="stroke:#181818;stroke-width:1;" x1="99.0006" x2="99.0006" y1="431.9209" y2="451.9209"/><polygon fill="#181818" points="95.0006,441.9209,99.0006,451.9209,103.0006,441.9209,99.0006,445.9209" style="stroke:#181818;stroke-width:1;"/><line style="stroke:#181818;stroke-width:1;" x1="99.0006" x2="99.0006" y1="487.161" y2="507.161"/><polygon fill="#181818" points="95.0006,497.161,99.0006,507.161,103.0006,497.161,99.0006,501.161" style="stroke:#181818;stroke-width:1;"/><line style="stroke:#181818;stroke-width:1;" x1="99.0006" x2="99.0006" y1="542.4011" y2="562.4011"/><polygon fill="#181818" points="95.0006,552.4011,99.0006,562.4011,103.0006,552.4011,99.0006,556.4011" style="stroke:#181818;stroke-width:1;"/><!--SRC=[LL31IiD05BptA_OFz222IV6WGXMq5XezULbraT2w2PkjjZUp2o9KKGHHH2oYMBKq8bAgiUZ7F3UaV-66LfhEuV5WXlTc9klnMfdCPh8JmyKhsTJ53E-YJRnLsc5EXMxFEsM78SumzJH5ACyW3OzZDjWI64LhOIbleE9w3bcaoiqH0-85v2M8BiWcoFUuUH_TdgNuGiLr2IU4eRZJLVMB5FNx5Q0zc-ox3kCeVcghu7g3JatEJ5UJaH8cRq6SeqLhPHc1trADEWW__kw1_pDcfGFY0KGOlONw5iWsY0-G4iIh2XhntN5A6zqSzFtdqNjrU39maDBqMrSwZfAdAdm4yQdFWDHXUphcVru9yiWSgsbrpJ9G8Pz3SpR5h6OEstJSFm00]--></g></svg>