<svg xmlns="http://www.w3.org/2000/svg" xmlns:xlink="http://www.w3.org/1999/xlink" contentStyleType="text/css" data-diagram-type="DESCRIPTION" height="246px" preserveAspectRatio="none" style="width:986px;height:246px;" version="1.1" viewBox="0 0 986 246" width="986px" zoomAndPan="magnify"><defs/><g><!--entity n2--><g class="entity" data-entity="n2" data-source-line="5" data-uid="ent0002" id="entity_n2"><rect fill="#F1F1F1" height="37.7799" rx="2.5" ry="2.5" style="stroke:#181818;stroke-width:0.5;" width="82.9997" x="655" y="105"/><text fill="#000000" font-family="'Segoe UI', 'メイリオ', 'UDEV Gothic HSRFJPDOC', 'Hiragino Kaku Gothic ProN', 'ヒラギノ角ゴ ProN', 'Noto Sans JP', 'Helvetica Neue', Helvetica, Arial, sans-serif" font-size="14" lengthAdjust="spacing" textLength="62.9997" x="665" y="128.9999">libcalc.h</text></g><!--entity n1--><g class="entity" data-entity="n1" data-source-line="6" data-uid="ent0003" id="entity_n1"><rect fill="#ADD8E6" height="37.7799" rx="2.5" ry="2.5" style="stroke:#181818;stroke-width:0.5;" width="131.562" x="408.5" y="7"/><text fill="#000000" font-family="'Segoe UI', 'メイリオ', 'UDEV Gothic HSRFJPDOC', 'Hiragino Kaku Gothic ProN', 'ヒラギノ角ゴ ProN', 'Noto Sans JP', 'Helvetica Neue', Helvetica, Arial, sans-serif" font-size="14" font-weight="bold" lengthAdjust="spacing" textLength="111.562" x="418.5" y="30.9999">libcalc_const.h</text></g><!--entity n6--><g class="entity" data-entity="n6" data-source-line="7" data-uid="ent0004" id="entity_n6"><rect fill="#F1F1F1" height="37.7799" rx="2.5" ry="2.5" style="stroke:#181818;stroke-width:0.5;" width="110.9996" x="351" y="105"/><text fill="#000000" font-family="'Segoe UI', 'メイリオ', 'UDEV Gothic HSRFJPDOC', 'Hiragino Kaku Gothic ProN', 'ヒラギノ角ゴ ProN', 'Noto Sans JP', 'Helvetica Neue', Helvetica, Arial, sans-serif" font-size="14" lengthAdjust="spacing" textLength="90.9996" x="361" y="128.9999">libcalcbase.h</text></g><!--entity n3--><g class="entity" data-entity="n3" data-source-line="8" data-uid="ent0005" id="entity_n3"><rect fill="#F1F1F1" height="37.7799" rx="2.5" ry="2.5" style="stroke:#181818;stroke-width:0.5;" width="110.9996" x="549" y="203"/><text fill="#000000" font-family="'Segoe UI', 'メイリオ', 'UDEV Gothic HSRFJPDOC', 'Hiragino Kaku Gothic ProN', 'ヒラギノ角ゴ ProN', 'Noto Sans JP', 'Helvetica Neue', Helvetica, Arial, sans-serif" font-size="14" lengthAdjust="spacing" textLength="90.9996" x="559" y="226.9999">calcHandler.c</text></g><!--entity n7--><g class="entity" data-entity="n7" data-source-line="9" data-uid="ent0006" id="entity_n7"><rect fill="#F1F1F1" height="37.7799" rx="2.5" ry="2.5" style="stroke:#181818;stroke-width:0.5;" width="54.9998" x="97" y="203"/><text fill="#000000" font-family="'Segoe UI', 'メイリオ', 'UDEV Gothic HSRFJPDOC', 'Hiragino Kaku Gothic ProN', 'ヒラギノ角ゴ ProN', 'Noto Sans JP', 'Helvetica Neue', Helvetica, Arial, sans-serif" font-size="14" lengthAdjust="spacing" textLength="34.9998" x="107" y="226.9999">add.c</text></g><!--entity n8--><g class="entity" data-entity="n8" data-source-line="10" data-uid="ent0007" id="entity_n8"><rect fill="#F1F1F1" height="37.7799" rx="2.5" ry="2.5" style="stroke:#181818;stroke-width:0.5;" width="75.9998" x="187.5" y="203"/><text fill="#000000" font-family="'Segoe UI', 'メイリオ', 'UDEV Gothic HSRFJPDOC', 'Hiragino Kaku Gothic ProN', 'ヒラギノ角ゴ ProN', 'Noto Sans JP', 'Helvetica Neue', Helvetica, Arial, sans-serif" font-size="14" lengthAdjust="spacing" textLength="55.9998" x="197.5" y="226.9999">divide.c</text></g><!--entity n9--><g class="entity" data-entity="n9" data-source-line="11" data-uid="ent0008" id="entity_n9"><rect fill="#F1F1F1" height="37.7799" rx="2.5" ry="2.5" style="stroke:#181818;stroke-width:0.5;" width="89.9997" x="298.5" y="203"/><text fill="#000000" font-family="'Segoe UI', 'メイリオ', 'UDEV Gothic HSRFJPDOC', 'Hiragino Kaku Gothic ProN', 'ヒラギノ角ゴ ProN', 'Noto Sans JP', 'Helvetica Neue', Helvetica, Arial, sans-serif" font-size="14" lengthAdjust="spacing" textLength="69.9997" x="308.5" y="226.9999">multiply.c</text></g><!--entity n10--><g class="entity" data-entity="n10" data-source-line="12" data-uid="ent0009" id="entity_n10"><rect fill="#F1F1F1" height="37.7799" rx="2.5" ry="2.5" style="stroke:#181818;stroke-width:0.5;" width="89.9997" x="423.5" y="203"/><text fill="#000000" font-family="'Segoe UI', 'メイリオ', 'UDEV Gothic HSRFJPDOC', 'Hiragino Kaku Gothic ProN', 'ヒラギノ角ゴ ProN', 'Noto Sans JP', 'Helvetica Neue', Helvetica, Arial, sans-serif" font-size="14" lengthAdjust="spacing" textLength="69.9997" x="433.5" y="226.9999">subtract.c</text></g><!--entity n11--><g class="entity" data-entity="n11" data-source-line="13" data-uid="ent0010" id="entity_n11"><rect fill="#F1F1F1" height="37.7799" rx="2.5" ry="2.5" style="stroke:#181818;stroke-width:0.5;" width="54.9998" x="7" y="203"/><text fill="#000000" font-family="'Segoe UI', 'メイリオ', 'UDEV Gothic HSRFJPDOC', 'Hiragino Kaku Gothic ProN', 'ヒラギノ角ゴ ProN', 'Noto Sans JP', 'Helvetica Neue', Helvetica, Arial, sans-serif" font-size="14" lengthAdjust="spacing" textLength="34.9998" x="17" y="226.9999">add.c</text></g><!--entity n4--><g class="entity" data-entity="n4" data-source-line="14" data-uid="ent0011" id="entity_n4"><rect fill="#F1F1F1" height="37.7799" rx="2.5" ry="2.5" style="stroke:#181818;stroke-width:0.5;" width="61.9998" x="918.5" y="203"/><text fill="#000000" font-family="'Segoe UI', 'メイリオ', 'UDEV Gothic HSRFJPDOC', 'Hiragino Kaku Gothic ProN', 'ヒラギノ角ゴ ProN', 'Noto Sans JP', 'Helvetica Neue', Helvetica, Arial, sans-serif" font-size="14" lengthAdjust="spacing" textLength="41.9998" x="928.5" y="226.9999">calc.c</text></g><!--entity n5--><g class="entity" data-entity="n5" data-source-line="15" data-uid="ent0012" id="entity_n5"><rect fill="#F1F1F1" height="37.7799" rx="2.5" ry="2.5" style="stroke:#181818;stroke-width:0.5;" width="187.9993" x="695.5" y="203"/><text fill="#000000" font-family="'Segoe UI', 'メイリオ', 'UDEV Gothic HSRFJPDOC', 'Hiragino Kaku Gothic ProN', 'ヒラギノ角ゴ ProN', 'Noto Sans JP', 'Helvetica Neue', Helvetica, Arial, sans-serif" font-size="14" lengthAdjust="spacing" textLength="167.9993" x="705.5" y="226.9999">shared-and-static-calc.c</text></g><!--link n2 to n3--><g class="link" data-entity-1="n2" data-entity-2="n3" data-source-line="16" data-uid="lnk13" id="link_n2_n3"><path d="M678.3238,143.3616 C662.1949,160.5424 642.8625,181.1356 626.7451,198.3042" fill="none" id="n2-to-n3" style="stroke:#181818;stroke-width:1;"/><polygon fill="#181818" points="622.6385,202.6786,631.7147,198.8547,626.0607,199.0332,625.8821,193.3792,622.6385,202.6786" style="stroke:#181818;stroke-width:1;"/></g><!--link n2 to n4--><g class="link" data-entity-1="n2" data-entity-2="n4" data-source-line="17" data-uid="lnk14" id="link_n2_n4"><path d="M738.1614,139.9278 C779.6117,155.8048 845.0111,180.936 901.5,203 C906.9263,205.1195 907.111,205.1838 912.6933,207.3883" fill="none" id="n2-to-n4" style="stroke:#181818;stroke-width:1;"/><polygon fill="#181818" points="918.2739,209.5921,911.3722,202.566,913.6234,207.7556,908.4338,210.0068,918.2739,209.5921" style="stroke:#181818;stroke-width:1;"/></g><!--link n2 to n5--><g class="link" data-entity-1="n2" data-entity-2="n5" data-source-line="18" data-uid="lnk15" id="link_n2_n5"><path d="M714.8738,143.3616 C731.178,160.5424 750.7415,181.1578 767.0342,198.3264" fill="none" id="n2-to-n5" style="stroke:#181818;stroke-width:1;"/><polygon fill="#181818" points="771.1644,202.6786,767.8706,193.3968,767.7226,199.0518,762.0677,198.9037,771.1644,202.6786" style="stroke:#181818;stroke-width:1;"/></g><!--link n1 to n2--><g class="link" data-entity-1="n1" data-entity-2="n2" data-source-line="19" data-uid="lnk16" id="link_n1_n2"><path d="M517.5671,45.0116 C557.1598,62.4895 609.9997,85.8153 649.1924,103.1165" fill="none" id="n1-to-n2" style="stroke:#181818;stroke-width:1;"/><polygon fill="#181818" points="654.6814,105.5395,648.0633,98.2456,650.1073,103.5203,644.8326,105.5642,654.6814,105.5395" style="stroke:#181818;stroke-width:1;"/></g><!--link n1 to n6--><g class="link" data-entity-1="n1" data-entity-2="n6" data-source-line="20" data-uid="lnk17" id="link_n1_n6"><path d="M461.0654,45.3616 C449.1441,62.5424 435.2401,82.5805 423.3272,99.7491" fill="none" id="n1-to-n6" style="stroke:#181818;stroke-width:1;"/><polygon fill="#181818" points="419.9067,104.6786,428.3238,99.5646,422.7571,100.5707,421.7511,95.004,419.9067,104.6786" style="stroke:#181818;stroke-width:1;"/></g><!--link n6 to n3--><g class="link" data-entity-1="n6" data-entity-2="n3" data-source-line="21" data-uid="lnk18" id="link_n6_n3"><path d="M445.1464,143.128 C480.0345,160.3959 525.7157,183.0058 560.5736,200.2587" fill="none" id="n6-to-n3" style="stroke:#181818;stroke-width:1;"/><polygon fill="#181818" points="565.951,202.9202,559.6593,195.343,561.4698,200.7023,556.1106,202.5128,565.951,202.9202" style="stroke:#181818;stroke-width:1;"/></g><!--link n6 to n7--><g class="link" data-entity-1="n6" data-entity-2="n7" data-source-line="22" data-uid="lnk19" id="link_n6_n7"><path d="M350.5219,141.3051 C302.2233,156.5576 230.7782,179.8904 169.5,203 C163.9456,205.0947 163.6032,205.1581 157.989,207.4958" fill="none" id="n6-to-n7" style="stroke:#181818;stroke-width:1;"/><polygon fill="#181818" points="152.45,209.8022,162.2961,210.0353,157.0658,207.8802,159.2209,202.6499,152.45,209.8022" style="stroke:#181818;stroke-width:1;"/></g><!--link n6 to n8--><g class="link" data-entity-1="n6" data-entity-2="n8" data-source-line="23" data-uid="lnk20" id="link_n6_n8"><path d="M371.1717,143.128 C339.2791,160.3959 297.8806,182.8105 266.0155,200.0634" fill="none" id="n6-to-n8" style="stroke:#181818;stroke-width:1;"/><polygon fill="#181818" points="260.7392,202.9202,270.5581,202.1526,265.1361,200.5396,266.7491,195.1176,260.7392,202.9202" style="stroke:#181818;stroke-width:1;"/></g><!--link n6 to n9--><g class="link" data-entity-1="n6" data-entity-2="n9" data-source-line="24" data-uid="lnk21" id="link_n6_n9"><path d="M394.0532,143.3616 C383.0085,160.5424 370.2025,180.4629 359.1655,197.6315" fill="none" id="n6-to-n9" style="stroke:#181818;stroke-width:1;"/><polygon fill="#181818" points="355.9209,202.6786,364.1524,197.271,358.6247,198.4727,357.423,192.945,355.9209,202.6786" style="stroke:#181818;stroke-width:1;"/></g><!--link n6 to n10--><g class="link" data-entity-1="n6" data-entity-2="n10" data-source-line="25" data-uid="lnk22" id="link_n6_n10"><path d="M418.7492,143.3616 C429.6187,160.5424 442.2067,180.4395 453.0684,197.6081" fill="none" id="n6-to-n10" style="stroke:#181818;stroke-width:1;"/><polygon fill="#181818" points="456.2762,202.6786,454.8448,192.9343,453.603,198.4532,448.0841,197.2114,456.2762,202.6786" style="stroke:#181818;stroke-width:1;"/></g><!--link n6 to n11--><g class="link" data-entity-1="n6" data-entity-2="n11" data-source-line="26" data-uid="lnk23" id="link_n6_n11"><path d="M350.7674,134.5852 C285.0609,147.7226 172.9681,172.2038 79.5,203 C73.8619,204.8577 73.4939,204.8435 67.8687,207.1503" fill="none" id="n6-to-n11" style="stroke:#181818;stroke-width:1;"/><polygon fill="#181818" points="62.3174,209.4268,72.1621,209.7129,66.9435,207.5297,69.1267,202.3111,62.3174,209.4268" style="stroke:#181818;stroke-width:1;"/></g><!--link n6 to n5--><g class="link" data-entity-1="n6" data-entity-2="n5" data-source-line="27" data-uid="lnk24" id="link_n6_n5"><path d="M462.1915,138.25 C528.8928,155.3172 635.0703,182.4854 709.1728,201.4463" fill="none" id="n6-to-n5" style="stroke:#181818;stroke-width:1;"/><polygon fill="#181818" points="714.9855,202.9336,707.258,196.8275,710.1416,201.6942,705.2749,204.5778,714.9855,202.9336" style="stroke:#181818;stroke-width:1;"/></g><!--SRC=[TP31Zi8W48RlVGhYtffGbwvMJOm7lUnXts4p1T8ISMfWQkBRYsaXQ7PlN-ORVlZPUxfRVIZsondysU0L75nO2_BSkM54THhiu1WvG1-KHYgSbWJOMSqMrhGIhApw1GFFiCvTMSxsLmxegUhBSjeIxEF7T3qTxQZ_26l1wnZOvFuflm6LrQwIa__AFIWLvvjyhipDA1tLDbUNqPAvsdkKkrpwiGsr9KKfFl-vJOZtPqQpUidhm_yf7XfmJq16ydnrNM3DE3yyIqLQ9GfMJ5GdQWfiqecPDecsYNQ9GeE48k7w0G00]--></g></svg>