<svg xmlns="http://www.w3.org/2000/svg" xmlns:xlink="http://www.w3.org/1999/xlink" contentStyleType="text/css" data-diagram-type="DESCRIPTION" height="148px" preserveAspectRatio="none" style="width:889px;height:148px;" version="1.1" viewBox="0 0 889 148" width="889px" zoomAndPan="magnify"><defs/><g><!--entity n1--><g class="entity" data-entity="n1" data-source-line="5" data-uid="ent0002" id="entity_n1"><rect fill="#ADD8E6" height="37.7799" rx="2.5" ry="2.5" style="stroke:#181818;stroke-width:0.5;" width="116.6871" x="341" y="7"/><text fill="#000000" font-family="'Segoe UI', 'メイリオ', 'UDEV Gothic HSRFJPDOC', 'Hiragino Kaku Gothic ProN', 'ヒラギノ角ゴ ProN', 'Noto Sans JP', 'Helvetica Neue', Helvetica, Arial, sans-serif" font-size="14" font-weight="bold" lengthAdjust="spacing" textLength="96.6871" x="351" y="30.9999">libcalcbase.h</text></g><!--entity n2--><g class="entity" data-entity="n2" data-source-line="6" data-uid="ent0003" id="entity_n2"><rect fill="#F1F1F1" height="37.7799" rx="2.5" ry="2.5" style="stroke:#181818;stroke-width:0.5;" width="110.9996" x="7" y="105"/><text fill="#000000" font-family="'Segoe UI', 'メイリオ', 'UDEV Gothic HSRFJPDOC', 'Hiragino Kaku Gothic ProN', 'ヒラギノ角ゴ ProN', 'Noto Sans JP', 'Helvetica Neue', Helvetica, Arial, sans-serif" font-size="14" lengthAdjust="spacing" textLength="90.9996" x="17" y="128.9999">calcHandler.c</text></g><!--entity n3--><g class="entity" data-entity="n3" data-source-line="7" data-uid="ent0004" id="entity_n3"><rect fill="#F1F1F1" height="37.7799" rx="2.5" ry="2.5" style="stroke:#181818;stroke-width:0.5;" width="54.9998" x="153" y="105"/><text fill="#000000" font-family="'Segoe UI', 'メイリオ', 'UDEV Gothic HSRFJPDOC', 'Hiragino Kaku Gothic ProN', 'ヒラギノ角ゴ ProN', 'Noto Sans JP', 'Helvetica Neue', Helvetica, Arial, sans-serif" font-size="14" lengthAdjust="spacing" textLength="34.9998" x="163" y="128.9999">add.c</text></g><!--entity n4--><g class="entity" data-entity="n4" data-source-line="8" data-uid="ent0005" id="entity_n4"><rect fill="#F1F1F1" height="37.7799" rx="2.5" ry="2.5" style="stroke:#181818;stroke-width:0.5;" width="75.9998" x="243.5" y="105"/><text fill="#000000" font-family="'Segoe UI', 'メイリオ', 'UDEV Gothic HSRFJPDOC', 'Hiragino Kaku Gothic ProN', 'ヒラギノ角ゴ ProN', 'Noto Sans JP', 'Helvetica Neue', Helvetica, Arial, sans-serif" font-size="14" lengthAdjust="spacing" textLength="55.9998" x="253.5" y="128.9999">divide.c</text></g><!--entity n5--><g class="entity" data-entity="n5" data-source-line="9" data-uid="ent0006" id="entity_n5"><rect fill="#F1F1F1" height="37.7799" rx="2.5" ry="2.5" style="stroke:#181818;stroke-width:0.5;" width="89.9997" x="354.5" y="105"/><text fill="#000000" font-family="'Segoe UI', 'メイリオ', 'UDEV Gothic HSRFJPDOC', 'Hiragino Kaku Gothic ProN', 'ヒラギノ角ゴ ProN', 'Noto Sans JP', 'Helvetica Neue', Helvetica, Arial, sans-serif" font-size="14" lengthAdjust="spacing" textLength="69.9997" x="364.5" y="128.9999">multiply.c</text></g><!--entity n6--><g class="entity" data-entity="n6" data-source-line="10" data-uid="ent0007" id="entity_n6"><rect fill="#F1F1F1" height="37.7799" rx="2.5" ry="2.5" style="stroke:#181818;stroke-width:0.5;" width="89.9997" x="479.5" y="105"/><text fill="#000000" font-family="'Segoe UI', 'メイリオ', 'UDEV Gothic HSRFJPDOC', 'Hiragino Kaku Gothic ProN', 'ヒラギノ角ゴ ProN', 'Noto Sans JP', 'Helvetica Neue', Helvetica, Arial, sans-serif" font-size="14" lengthAdjust="spacing" textLength="69.9997" x="489.5" y="128.9999">subtract.c</text></g><!--entity n7--><g class="entity" data-entity="n7" data-source-line="11" data-uid="ent0008" id="entity_n7"><rect fill="#F1F1F1" height="37.7799" rx="2.5" ry="2.5" style="stroke:#181818;stroke-width:0.5;" width="54.9998" x="605" y="105"/><text fill="#000000" font-family="'Segoe UI', 'メイリオ', 'UDEV Gothic HSRFJPDOC', 'Hiragino Kaku Gothic ProN', 'ヒラギノ角ゴ ProN', 'Noto Sans JP', 'Helvetica Neue', Helvetica, Arial, sans-serif" font-size="14" lengthAdjust="spacing" textLength="34.9998" x="615" y="128.9999">add.c</text></g><!--entity n8--><g class="entity" data-entity="n8" data-source-line="12" data-uid="ent0009" id="entity_n8"><rect fill="#F1F1F1" height="37.7799" rx="2.5" ry="2.5" style="stroke:#181818;stroke-width:0.5;" width="187.9993" x="695.5" y="105"/><text fill="#000000" font-family="'Segoe UI', 'メイリオ', 'UDEV Gothic HSRFJPDOC', 'Hiragino Kaku Gothic ProN', 'ヒラギノ角ゴ ProN', 'Noto Sans JP', 'Helvetica Neue', Helvetica, Arial, sans-serif" font-size="14" lengthAdjust="spacing" textLength="167.9993" x="705.5" y="128.9999">shared-and-static-calc.c</text></g><!--link n1 to n2--><g class="link" data-entity-1="n1" data-entity-2="n2" data-source-line="13" data-uid="lnk10" id="link_n1_n2"><path d="M340.7991,43.0703 C278.0964,61.3043 185.2255,88.3113 123.7743,106.1814" fill="none" id="n1-to-n2" style="stroke:#181818;stroke-width:1;"/><polygon fill="#181818" points="118.013,107.8568,127.7719,109.1846,122.8141,106.4606,125.5381,101.5028,118.013,107.8568" style="stroke:#181818;stroke-width:1;"/></g><!--link n1 to n3--><g class="link" data-entity-1="n1" data-entity-2="n3" data-source-line="14" data-uid="lnk11" id="link_n1_n3"><path d="M357.0149,45.0116 C313.1061,64.6603 251.3146,92.3114 213.7692,109.1125" fill="none" id="n1-to-n3" style="stroke:#181818;stroke-width:1;"/><polygon fill="#181818" points="208.2925,111.5632,218.1413,111.5382,212.8564,109.5209,214.8737,104.236,208.2925,111.5632" style="stroke:#181818;stroke-width:1;"/></g><!--link n1 to n4--><g class="link" data-entity-1="n1" data-entity-2="n4" data-source-line="15" data-uid="lnk12" id="link_n1_n4"><path d="M376.4683,45.128 C355.6764,62.3959 329.8632,83.8339 309.0893,101.0868" fill="none" id="n1-to-n4" style="stroke:#181818;stroke-width:1;"/><polygon fill="#181818" points="304.4736,104.9202,313.9528,102.2472,308.32,101.7257,308.8416,96.0929,304.4736,104.9202" style="stroke:#181818;stroke-width:1;"/></g><!--link n1 to n5--><g class="link" data-entity-1="n1" data-entity-2="n5" data-source-line="16" data-uid="lnk13" id="link_n1_n5"><path d="M399.5,45.3616 C399.5,62.5424 399.5,81.51 399.5,98.6786" fill="none" id="n1-to-n5" style="stroke:#181818;stroke-width:1;"/><polygon fill="#181818" points="399.5,104.6786,403.5,95.6786,399.5,99.6786,395.5,95.6786,399.5,104.6786" style="stroke:#181818;stroke-width:1;"/></g><!--link n1 to n6--><g class="link" data-entity-1="n1" data-entity-2="n6" data-source-line="17" data-uid="lnk14" id="link_n1_n6"><path d="M423.898,45.128 C445.9233,62.3959 473.4355,83.9654 495.4417,101.2183" fill="none" id="n1-to-n6" style="stroke:#181818;stroke-width:1;"/><polygon fill="#181818" points="500.1635,104.9202,495.5487,96.2194,496.2286,101.8353,490.6128,102.5152,500.1635,104.9202" style="stroke:#181818;stroke-width:1;"/></g><!--link n1 to n7--><g class="link" data-entity-1="n1" data-entity-2="n7" data-source-line="18" data-uid="lnk15" id="link_n1_n7"><path d="M445.0962,45.1345 C483.1744,61.1202 538.8855,84.5227 587.5,105 C593.127,107.3702 593.6207,107.5768 599.3695,110.0034" fill="none" id="n1-to-n7" style="stroke:#181818;stroke-width:1;"/><polygon fill="#181818" points="604.8972,112.3367,598.1611,105.1516,600.2908,110.3923,595.0501,112.5219,604.8972,112.3367" style="stroke:#181818;stroke-width:1;"/></g><!--link n1 to n8--><g class="link" data-entity-1="n1" data-entity-2="n8" data-source-line="19" data-uid="lnk16" id="link_n1_n8"><path d="M458.3092,40.7777 C526.5094,57.9152 633.283,84.7455 707.9669,103.5122" fill="none" id="n1-to-n8" style="stroke:#181818;stroke-width:1;"/><polygon fill="#181818" points="713.786,104.9744,706.0322,98.9017,708.9368,103.7559,704.0825,106.6604,713.786,104.9744" style="stroke:#181818;stroke-width:1;"/></g><!--SRC=[TO-n3e8m48PtdgB1ZQGQ1PJ1CEZYu4iSRGEDHp7jOSBRMw9jwk3svRx_Sl-T7Iseskoy-u9xQFC42oFhG3nwEyr6NYUSB2CBndcb36LM2GBJes9vKQ3k1A3emAdjK1Gv0yVCdctkkX_eWhDAuslo1aQYiblnYHvI3rA6UPdEfNvfgOAgKZNEIFg9Iv1rAjtS-UA2WZp-ENRwMHhycvBxcjmHa1PyhHsYJUQ_uxnTcmSg8rMHwaZ7IAT8pHi0]--></g></svg>