<?xml version="1.0" encoding="UTF-8" standalone="no"?>
<!DOCTYPE svg PUBLIC "-//W3C//DTD SVG 1.1//EN"
 "http://www.w3.org/Graphics/SVG/1.1/DTD/svg11.dtd">
<!-- Generated by graphviz version 2.40.1 (0)
 -->
<!-- Title: calc/libsrc/calc/calcHandler.c Pages: 1 -->
<svg width="158pt" height="82pt"
 viewBox="0.00 0.00 157.50 82.00" xmlns="http://www.w3.org/2000/svg" xmlns:xlink="http://www.w3.org/1999/xlink">
<g id="graph0" class="graph" transform="scale(1 1) rotate(0) translate(4 78)">
<title>calc/libsrc/calc/calcHandler.c</title>
<!-- Node1 -->
<g id="Node000001" class="node">
<title>Node1</title>
<g id="a_Node000001"><a xlink:title="calcHandler 関数の実装ファイル。">
<polygon fill="#999999" stroke="#666666" points="149.5,-74 6.5,-74 6.5,-55 149.5,-55 149.5,-74"/>
<text text-anchor="middle" x="78" y="-62" font-family="Helvetica,sans-Serif" font-size="10.00" fill="#000000">calc/libsrc/calc/calcHandler.c</text>
</a>
</g>
</g>
<!-- Node2 -->
<g id="Node000002" class="node">
<title>Node2</title>
<g id="a_Node000002"><a xlink:href="libcalcbase_8h.html" target="_top" xlink:title="計算ライブラリ (静的リンク用) のヘッダーファイル。">
<polygon fill="#ffffff" stroke="#666666" points="74,-19 0,-19 0,0 74,0 74,-19"/>
<text text-anchor="middle" x="37" y="-7" font-family="Helvetica,sans-Serif" font-size="10.00" fill="#000000">libcalcbase.h</text>
</a>
</g>
</g>
<!-- Node1&#45;&gt;Node2 -->
<g id="edge1_Node000001_Node000002" class="edge">
<title>Node1&#45;&gt;Node2</title>
<g id="a_edge1_Node000001_Node000002"><a xlink:title=" ">
<path fill="none" stroke="#63b8ff" d="M70.8583,-54.9197C65.2251,-47.363 57.2083,-36.6087 50.3895,-27.4616"/>
<polygon fill="#63b8ff" stroke="#63b8ff" points="53.1187,-25.2665 44.3359,-19.3408 47.5065,-29.4501 53.1187,-25.2665"/>
</a>
</g>
</g>
<!-- Node3 -->
<g id="Node000003" class="node">
<title>Node3</title>
<g id="a_Node000003"><a xlink:href="libcalc_8h.html" target="_top" xlink:title="計算ライブラリ (動的リンク用) のヘッダーファイル。">
<polygon fill="#ffffff" stroke="#666666" points="145.5,-19 92.5,-19 92.5,0 145.5,0 145.5,-19"/>
<text text-anchor="middle" x="119" y="-7" font-family="Helvetica,sans-Serif" font-size="10.00" fill="#000000">libcalc.h</text>
</a>
</g>
</g>
<!-- Node1&#45;&gt;Node3 -->
<g id="edge2_Node000001_Node000003" class="edge">
<title>Node1&#45;&gt;Node3</title>
<g id="a_edge2_Node000001_Node000003"><a xlink:title=" ">
<path fill="none" stroke="#63b8ff" d="M85.1417,-54.9197C90.7749,-47.363 98.7917,-36.6087 105.6105,-27.4616"/>
<polygon fill="#63b8ff" stroke="#63b8ff" points="108.4935,-29.4501 111.6641,-19.3408 102.8813,-25.2665 108.4935,-29.4501"/>
</a>
</g>
</g>
</g>
</svg>
