<?xml version="1.0" encoding="UTF-8" standalone="no"?>
<!DOCTYPE svg PUBLIC "-//W3C//DTD SVG 1.1//EN"
 "http://www.w3.org/Graphics/SVG/1.1/DTD/svg11.dtd">
<!-- Generated by graphviz version 2.40.1 (0)
 -->
<!-- Title: main Pages: 1 -->
<svg width="218pt" height="27pt"
 viewBox="0.00 0.00 218.00 27.00" xmlns="http://www.w3.org/2000/svg" xmlns:xlink="http://www.w3.org/1999/xlink">
<g id="graph0" class="graph" transform="scale(1 1) rotate(0) translate(4 23)">
<title>main</title>
<!-- Node1 -->
<g id="Node000001" class="node">
<title>Node1</title>
<g id="a_Node000001"><a xlink:title="プログラムのエントリーポイント。">
<polygon fill="#999999" stroke="#666666" points="38,-19 0,-19 0,0 38,0 38,-19"/>
<text text-anchor="middle" x="19" y="-7" font-family="Helvetica,sans-Serif" font-size="10.00" fill="#000000">main</text>
</a>
</g>
</g>
<!-- Node2 -->
<g id="Node000002" class="node">
<title>Node2</title>
<g id="a_Node000002"><a xlink:href="calcHandler_8c.html#ab0b0cfaa323f14dab216e9c7bbf08ff1" target="_top" xlink:title="指定された演算種別に基づいて計算を実行します。">
<polygon fill="#ffffff" stroke="#666666" points="142,-19 74,-19 74,0 142,0 142,-19"/>
<text text-anchor="middle" x="108" y="-7" font-family="Helvetica,sans-Serif" font-size="10.00" fill="#000000">calcHandler</text>
</a>
</g>
</g>
<!-- Node1&#45;&gt;Node2 -->
<g id="edge1_Node000001_Node000002" class="edge">
<title>Node1&#45;&gt;Node2</title>
<g id="a_edge1_Node000001_Node000002"><a xlink:title=" ">
<path fill="none" stroke="#63b8ff" d="M38.3117,-9.5C45.7343,-9.5 54.551,-9.5 63.3743,-9.5"/>
<polygon fill="#63b8ff" stroke="#63b8ff" points="63.652,-13.0001 73.652,-9.5 63.6519,-6.0001 63.652,-13.0001"/>
</a>
</g>
</g>
<!-- Node3 -->
<g id="Node000003" class="node">
<title>Node3</title>
<g id="a_Node000003"><a xlink:href="libsrc_2calcbase_2add_8c.html#aa99823a0fc8313c9c32541ce768fb801" target="_top" xlink:title="2 つの整数を加算します。">
<polygon fill="#ffffff" stroke="#666666" points="210,-19 178,-19 178,0 210,0 210,-19"/>
<text text-anchor="middle" x="194" y="-7" font-family="Helvetica,sans-Serif" font-size="10.00" fill="#000000">add</text>
</a>
</g>
</g>
<!-- Node2&#45;&gt;Node3 -->
<g id="edge2_Node000002_Node000003" class="edge">
<title>Node2&#45;&gt;Node3</title>
<g id="a_edge2_Node000002_Node000003"><a xlink:title=" ">
<path fill="none" stroke="#63b8ff" d="M142.484,-9.5C150.837,-9.5 159.6366,-9.5 167.5529,-9.5"/>
<polygon fill="#63b8ff" stroke="#63b8ff" points="167.6755,-13.0001 177.6755,-9.5 167.6755,-6.0001 167.6755,-13.0001"/>
</a>
</g>
</g>
</g>
</svg>
