<?xml version="1.0" encoding="UTF-8" standalone="no"?>
<!DOCTYPE svg PUBLIC "-//W3C//DTD SVG 1.1//EN"
 "http://www.w3.org/Graphics/SVG/1.1/DTD/svg11.dtd">
<!-- Generated by graphviz version 2.40.1 (0)
 -->
<!-- Title: calc/include/libcalc_const.h Pages: 1 -->
<svg width="1000pt" height="170pt"
 viewBox="0.00 0.00 1000.00 170.00" xmlns="http://www.w3.org/2000/svg" xmlns:xlink="http://www.w3.org/1999/xlink">
<g id="graph0" class="graph" transform="scale(1 1) rotate(0) translate(4 166)">
<title>calc/include/libcalc_const.h</title>
<!-- Node1 -->
<g id="Node000001" class="node">
<title>Node1</title>
<g id="a_Node000001"><a xlink:title="計算ライブラリの定数ファイル。">
<polygon fill="#999999" stroke="#666666" points="414,-162 315,-162 315,-132 414,-132 414,-162"/>
<text text-anchor="start" x="323" y="-150" font-family="Helvetica,sans-Serif" font-size="10.00" fill="#000000">calc/include/libcalc</text>
<text text-anchor="middle" x="364.5" y="-139" font-family="Helvetica,sans-Serif" font-size="10.00" fill="#000000">_const.h</text>
</a>
</g>
</g>
<!-- Node2 -->
<g id="Node000002" class="node">
<title>Node2</title>
<g id="a_Node000002"><a xlink:href="libcalc_8h.html" target="_top" xlink:title="計算ライブラリ (動的リンク用) のヘッダーファイル。">
<polygon fill="#ffffff" stroke="#666666" points="350,-96 243,-96 243,-77 350,-77 350,-96"/>
<text text-anchor="middle" x="296.5" y="-84" font-family="Helvetica,sans-Serif" font-size="10.00" fill="#000000">calc/include/libcalc.h</text>
</a>
</g>
</g>
<!-- Node1&#45;&gt;Node2 -->
<g id="edge1_Node000001_Node000002" class="edge">
<title>Node1&#45;&gt;Node2</title>
<g id="a_edge1_Node000001_Node000002"><a xlink:title=" ">
<path fill="none" stroke="#63b8ff" d="M339.5669,-124.8169C328.4492,-114.9254 315.9361,-103.7924 307.2748,-96.0864"/>
<polygon fill="#63b8ff" stroke="#63b8ff" points="337.5432,-127.7011 347.3407,-131.7333 342.1961,-122.4713 337.5432,-127.7011"/>
</a>
</g>
</g>
<!-- Node6 -->
<g id="Node000006" class="node">
<title>Node6</title>
<g id="a_Node000006"><a xlink:href="libcalcbase_8h.html" target="_top" xlink:title="計算ライブラリ (静的リンク用) のヘッダーファイル。">
<polygon fill="#ffffff" stroke="#666666" points="562.5,-96 434.5,-96 434.5,-77 562.5,-77 562.5,-96"/>
<text text-anchor="middle" x="498.5" y="-84" font-family="Helvetica,sans-Serif" font-size="10.00" fill="#000000">calc/include/libcalcbase.h</text>
</a>
</g>
</g>
<!-- Node1&#45;&gt;Node6 -->
<g id="edge5_Node000001_Node000006" class="edge">
<title>Node1&#45;&gt;Node6</title>
<g id="a_edge5_Node000001_Node000006"><a xlink:title=" ">
<path fill="none" stroke="#63b8ff" d="M407.3077,-127.6726C430.6108,-117.1515 458.4239,-104.594 477.1562,-96.1366"/>
<polygon fill="#63b8ff" stroke="#63b8ff" points="405.6421,-124.5844 397.9682,-131.8894 408.5226,-130.9643 405.6421,-124.5844"/>
</a>
</g>
</g>
<!-- Node3 -->
<g id="Node000003" class="node">
<title>Node3</title>
<g id="a_Node000003"><a xlink:href="calcHandler_8c.html" target="_top" xlink:title="calcHandler 関数の実装ファイル。">
<polygon fill="#ffffff" stroke="#666666" points="262,-30 119,-30 119,-11 262,-11 262,-30"/>
<text text-anchor="middle" x="190.5" y="-18" font-family="Helvetica,sans-Serif" font-size="10.00" fill="#000000">calc/libsrc/calc/calcHandler.c</text>
</a>
</g>
</g>
<!-- Node2&#45;&gt;Node3 -->
<g id="edge2_Node000002_Node000003" class="edge">
<title>Node2&#45;&gt;Node3</title>
<g id="a_edge2_Node000002_Node000003"><a xlink:title=" ">
<path fill="none" stroke="#63b8ff" d="M272.1212,-71.3208C251.7142,-58.6145 223.2205,-40.8731 205.8602,-30.0639"/>
<polygon fill="#63b8ff" stroke="#63b8ff" points="270.5204,-74.447 280.8593,-76.7615 274.2203,-68.5047 270.5204,-74.447"/>
</a>
</g>
</g>
<!-- Node4 -->
<g id="Node000004" class="node">
<title>Node4</title>
<g id="a_Node000004"><a xlink:href="calc_8c.html" target="_top" xlink:title="calc 関数の呼び出しコマンド。">
<polygon fill="#ffffff" stroke="#666666" points="101,-30 0,-30 0,-11 101,-11 101,-30"/>
<text text-anchor="middle" x="50.5" y="-18" font-family="Helvetica,sans-Serif" font-size="10.00" fill="#000000">calc/src/calc/calc.c</text>
</a>
</g>
</g>
<!-- Node2&#45;&gt;Node4 -->
<g id="edge3_Node000002_Node000004" class="edge">
<title>Node2&#45;&gt;Node4</title>
<g id="a_edge3_Node000002_Node000004"><a xlink:title=" ">
<path fill="none" stroke="#63b8ff" d="M241.772,-74.6371C204.2941,-66.1591 153.5902,-53.9913 109.5,-41 98.4743,-37.7513 86.4638,-33.6782 76.1744,-30.0205"/>
<polygon fill="#63b8ff" stroke="#63b8ff" points="241.4516,-78.1523 251.9755,-76.9281 242.9852,-71.3223 241.4516,-78.1523"/>
</a>
</g>
</g>
<!-- Node5 -->
<g id="Node000005" class="node">
<title>Node5</title>
<g id="a_Node000005"><a xlink:href="shared-and-static-add_8c.html" target="_top" xlink:title="動的リンク、静的リンクを使った関数の呼び出しコマンド。">
<polygon fill="#ffffff" stroke="#666666" points="393,-41 280,-41 280,0 393,0 393,-41"/>
<text text-anchor="start" x="288" y="-29" font-family="Helvetica,sans-Serif" font-size="10.00" fill="#000000">calc/src/shared&#45;and</text>
<text text-anchor="start" x="288" y="-18" font-family="Helvetica,sans-Serif" font-size="10.00" fill="#000000">&#45;static&#45;add/shared&#45;and</text>
<text text-anchor="middle" x="336.5" y="-7" font-family="Helvetica,sans-Serif" font-size="10.00" fill="#000000">&#45;static&#45;add.c</text>
</a>
</g>
</g>
<!-- Node2&#45;&gt;Node5 -->
<g id="edge4_Node000002_Node000005" class="edge">
<title>Node2&#45;&gt;Node5</title>
<g id="a_edge4_Node000002_Node000005"><a xlink:title=" ">
<path fill="none" stroke="#63b8ff" d="M307.629,-68.1371C312.7002,-59.7696 318.7258,-49.8275 323.9569,-41.1961"/>
<polygon fill="#63b8ff" stroke="#63b8ff" points="304.592,-66.3954 302.4021,-76.7615 310.5784,-70.0236 304.592,-66.3954"/>
</a>
</g>
</g>
<!-- Node6&#45;&gt;Node3 -->
<g id="edge6_Node000006_Node000003" class="edge">
<title>Node6&#45;&gt;Node3</title>
<g id="a_edge6_Node000006_Node000003"><a xlink:title=" ">
<path fill="none" stroke="#63b8ff" d="M436.6105,-75.0834C390.6424,-66.3773 326.4811,-53.7487 270.5,-41 255.9611,-37.689 240.0319,-33.6849 226.2416,-30.0973"/>
<polygon fill="#63b8ff" stroke="#63b8ff" points="436.2411,-78.5754 446.7166,-76.9898 437.5388,-71.6967 436.2411,-78.5754"/>
</a>
</g>
</g>
<!-- Node6&#45;&gt;Node5 -->
<g id="edge12_Node000006_Node000005" class="edge">
<title>Node6&#45;&gt;Node5</title>
<g id="a_edge12_Node000006_Node000005"><a xlink:title=" ">
<path fill="none" stroke="#63b8ff" d="M465.4591,-73.0389C442.8497,-63.8277 412.4495,-51.4424 386.8438,-41.0105"/>
<polygon fill="#63b8ff" stroke="#63b8ff" points="464.3623,-76.3713 474.9438,-76.903 467.0034,-69.8887 464.3623,-76.3713"/>
</a>
</g>
</g>
<!-- Node7 -->
<g id="Node000007" class="node">
<title>Node7</title>
<g id="a_Node000007"><a xlink:href="libsrc_2calcbase_2add_8c.html" target="_top" xlink:title="add 関数の実装ファイル。">
<polygon fill="#ffffff" stroke="#666666" points="629,-35.5 526,-35.5 526,-5.5 629,-5.5 629,-35.5"/>
<text text-anchor="start" x="534" y="-23.5" font-family="Helvetica,sans-Serif" font-size="10.00" fill="#000000">calc/libsrc/calcbase</text>
<text text-anchor="middle" x="577.5" y="-12.5" font-family="Helvetica,sans-Serif" font-size="10.00" fill="#000000">/add.c</text>
</a>
</g>
</g>
<!-- Node6&#45;&gt;Node7 -->
<g id="edge7_Node000006_Node000007" class="edge">
<title>Node6&#45;&gt;Node7</title>
<g id="a_edge7_Node000006_Node000007"><a xlink:title=" ">
<path fill="none" stroke="#63b8ff" d="M517.8505,-70.3338C530.5089,-59.7584 546.9377,-46.033 559.3479,-35.665"/>
<polygon fill="#63b8ff" stroke="#63b8ff" points="515.587,-67.664 510.1567,-76.7615 520.075,-73.036 515.587,-67.664"/>
</a>
</g>
</g>
<!-- Node8 -->
<g id="Node000008" class="node">
<title>Node8</title>
<g id="a_Node000008"><a xlink:href="divide_8c.html" target="_top" xlink:title="divide 関数の実装ファイル。">
<polygon fill="#ffffff" stroke="#666666" points="750,-35.5 647,-35.5 647,-5.5 750,-5.5 750,-35.5"/>
<text text-anchor="start" x="655" y="-23.5" font-family="Helvetica,sans-Serif" font-size="10.00" fill="#000000">calc/libsrc/calcbase</text>
<text text-anchor="middle" x="698.5" y="-12.5" font-family="Helvetica,sans-Serif" font-size="10.00" fill="#000000">/divide.c</text>
</a>
</g>
</g>
<!-- Node6&#45;&gt;Node8 -->
<g id="edge8_Node000006_Node000008" class="edge">
<title>Node6&#45;&gt;Node8</title>
<g id="a_edge8_Node000006_Node000008"><a xlink:title=" ">
<path fill="none" stroke="#63b8ff" d="M538.1489,-73.789C566.2093,-64.7504 604.7058,-52.264 638.5,-41 643.7215,-39.2596 649.1922,-37.417 654.6156,-35.5786"/>
<polygon fill="#63b8ff" stroke="#63b8ff" points="536.7585,-70.5596 528.3111,-76.9543 538.9026,-77.2231 536.7585,-70.5596"/>
</a>
</g>
</g>
<!-- Node9 -->
<g id="Node000009" class="node">
<title>Node9</title>
<g id="a_Node000009"><a xlink:href="multiply_8c.html" target="_top" xlink:title="multiply 関数の実装ファイル。">
<polygon fill="#ffffff" stroke="#666666" points="871,-35.5 768,-35.5 768,-5.5 871,-5.5 871,-35.5"/>
<text text-anchor="start" x="776" y="-23.5" font-family="Helvetica,sans-Serif" font-size="10.00" fill="#000000">calc/libsrc/calcbase</text>
<text text-anchor="middle" x="819.5" y="-12.5" font-family="Helvetica,sans-Serif" font-size="10.00" fill="#000000">/multiply.c</text>
</a>
</g>
</g>
<!-- Node6&#45;&gt;Node9 -->
<g id="edge9_Node000006_Node000009" class="edge">
<title>Node6&#45;&gt;Node9</title>
<g id="a_edge9_Node000006_Node000009"><a xlink:title=" ">
<path fill="none" stroke="#63b8ff" d="M572.5689,-76.7459C625.1767,-69.0529 697.2364,-56.9591 759.5,-41 765.578,-39.4421 771.924,-37.5617 778.1172,-35.5795"/>
<polygon fill="#63b8ff" stroke="#63b8ff" points="572.0447,-73.2852 562.6475,-78.1783 573.0451,-80.2133 572.0447,-73.2852"/>
</a>
</g>
</g>
<!-- Node10 -->
<g id="Node000010" class="node">
<title>Node10</title>
<g id="a_Node000010"><a xlink:href="subtract_8c.html" target="_top" xlink:title="subtract 関数の実装ファイル。">
<polygon fill="#ffffff" stroke="#666666" points="992,-35.5 889,-35.5 889,-5.5 992,-5.5 992,-35.5"/>
<text text-anchor="start" x="897" y="-23.5" font-family="Helvetica,sans-Serif" font-size="10.00" fill="#000000">calc/libsrc/calcbase</text>
<text text-anchor="middle" x="940.5" y="-12.5" font-family="Helvetica,sans-Serif" font-size="10.00" fill="#000000">/subtract.c</text>
</a>
</g>
</g>
<!-- Node6&#45;&gt;Node10 -->
<g id="edge10_Node000006_Node000010" class="edge">
<title>Node6&#45;&gt;Node10</title>
<g id="a_edge10_Node000006_Node000010"><a xlink:title=" ">
<path fill="none" stroke="#63b8ff" d="M572.8932,-82.2914C650.4572,-76.8238 775.174,-64.9837 880.5,-41 886.9399,-39.5336 893.657,-37.6284 900.1676,-35.5708"/>
<polygon fill="#63b8ff" stroke="#63b8ff" points="572.4733,-78.8119 562.737,-82.9898 572.9536,-85.7954 572.4733,-78.8119"/>
</a>
</g>
</g>
<!-- Node11 -->
<g id="Node000011" class="node">
<title>Node11</title>
<g id="a_Node000011"><a xlink:href="src_2add_2add_8c.html" target="_top" xlink:title="add 関数の呼び出しコマンド。">
<polygon fill="#ffffff" stroke="#666666" points="508,-30 411,-30 411,-11 508,-11 508,-30"/>
<text text-anchor="middle" x="459.5" y="-18" font-family="Helvetica,sans-Serif" font-size="10.00" fill="#000000">calc/src/add/add.c</text>
</a>
</g>
</g>
<!-- Node6&#45;&gt;Node11 -->
<g id="edge11_Node000006_Node000011" class="edge">
<title>Node6&#45;&gt;Node11</title>
<g id="a_edge11_Node000006_Node000011"><a xlink:title=" ">
<path fill="none" stroke="#63b8ff" d="M487.4672,-67.8291C480.2472,-55.6107 471.1054,-40.1399 465.2782,-30.2785"/>
<polygon fill="#63b8ff" stroke="#63b8ff" points="484.6448,-69.9328 492.7454,-76.7615 490.6713,-66.3716 484.6448,-69.9328"/>
</a>
</g>
</g>
</g>
</svg>
