<?xml version="1.0" encoding="UTF-8" standalone="no"?>
<!DOCTYPE svg PUBLIC "-//W3C//DTD SVG 1.1//EN"
 "http://www.w3.org/Graphics/SVG/1.1/DTD/svg11.dtd">
<!-- Generated by graphviz version 2.40.1 (0)
 -->
<!-- Title: calc/include/libcalcbase.h Pages: 1 -->
<svg width="518pt" height="104pt"
 viewBox="0.00 0.00 518.00 104.00" xmlns="http://www.w3.org/2000/svg" xmlns:xlink="http://www.w3.org/1999/xlink">
<g id="graph0" class="graph" transform="scale(1 1) rotate(0) translate(4 100)">
<title>calc/include/libcalcbase.h</title>
<!-- Node1 -->
<g id="Node000001" class="node">
<title>Node1</title>
<g id="a_Node000001"><a xlink:title="計算ライブラリ (静的リンク用) のヘッダーファイル。">
<polygon fill="#999999" stroke="#666666" points="335.5,-96 207.5,-96 207.5,-77 335.5,-77 335.5,-96"/>
<text text-anchor="middle" x="271.5" y="-84" font-family="Helvetica,sans-Serif" font-size="10.00" fill="#000000">calc/include/libcalcbase.h</text>
</a>
</g>
</g>
<!-- Node2 -->
<g id="Node000002" class="node">
<title>Node2</title>
<g id="a_Node000002"><a xlink:href="calcHandler_8c.html" target="_top" xlink:title="calcHandler 関数の実装ファイル。">
<polygon fill="#ffffff" stroke="#666666" points="143,-30 0,-30 0,-11 143,-11 143,-30"/>
<text text-anchor="middle" x="71.5" y="-18" font-family="Helvetica,sans-Serif" font-size="10.00" fill="#000000">calc/libsrc/calc/calcHandler.c</text>
</a>
</g>
</g>
<!-- Node1&#45;&gt;Node2 -->
<g id="edge1_Node000001_Node000002" class="edge">
<title>Node1&#45;&gt;Node2</title>
<g id="a_edge1_Node000001_Node000002"><a xlink:title=" ">
<path fill="none" stroke="#63b8ff" d="M232.5222,-73.6373C193.7185,-60.8321 135.068,-41.4775 100.2923,-30.0015"/>
<polygon fill="#63b8ff" stroke="#63b8ff" points="231.8251,-77.0929 242.4183,-76.903 234.0188,-70.4455 231.8251,-77.0929"/>
</a>
</g>
</g>
<!-- Node3 -->
<g id="Node000003" class="node">
<title>Node3</title>
<g id="a_Node000003"><a xlink:href="libsrc_2calcbase_2add_8c.html" target="_top" xlink:title="add 関数の実装ファイル。">
<polygon fill="#ffffff" stroke="#666666" points="264,-35.5 161,-35.5 161,-5.5 264,-5.5 264,-35.5"/>
<text text-anchor="start" x="169" y="-23.5" font-family="Helvetica,sans-Serif" font-size="10.00" fill="#000000">calc/libsrc/calcbase</text>
<text text-anchor="middle" x="212.5" y="-12.5" font-family="Helvetica,sans-Serif" font-size="10.00" fill="#000000">/add.c</text>
</a>
</g>
</g>
<!-- Node1&#45;&gt;Node3 -->
<g id="edge2_Node000001_Node000003" class="edge">
<title>Node1&#45;&gt;Node3</title>
<g id="a_edge2_Node000001_Node000003"><a xlink:title=" ">
<path fill="none" stroke="#63b8ff" d="M255.956,-69.1118C246.6642,-58.7175 234.9719,-45.6381 226.0566,-35.665"/>
<polygon fill="#63b8ff" stroke="#63b8ff" points="253.5203,-71.6387 262.7943,-76.7615 258.7391,-66.9734 253.5203,-71.6387"/>
</a>
</g>
</g>
<!-- Node4 -->
<g id="Node000004" class="node">
<title>Node4</title>
<g id="a_Node000004"><a xlink:href="src_2add_2add_8c.html" target="_top" xlink:title="add 関数の呼び出しコマンド。">
<polygon fill="#ffffff" stroke="#666666" points="379,-30 282,-30 282,-11 379,-11 379,-30"/>
<text text-anchor="middle" x="330.5" y="-18" font-family="Helvetica,sans-Serif" font-size="10.00" fill="#000000">calc/src/add/add.c</text>
</a>
</g>
</g>
<!-- Node1&#45;&gt;Node4 -->
<g id="edge3_Node000001_Node000004" class="edge">
<title>Node1&#45;&gt;Node4</title>
<g id="a_edge3_Node000001_Node000004"><a xlink:title=" ">
<path fill="none" stroke="#63b8ff" d="M286.9071,-69.265C298.0099,-56.8449 312.594,-40.5304 321.7586,-30.2785"/>
<polygon fill="#63b8ff" stroke="#63b8ff" points="284.2609,-66.9734 280.2057,-76.7615 289.4797,-71.6387 284.2609,-66.9734"/>
</a>
</g>
</g>
<!-- Node5 -->
<g id="Node000005" class="node">
<title>Node5</title>
<g id="a_Node000005"><a xlink:href="shared-and-static-add_8c.html" target="_top" xlink:title="動的リンク、静的リンクを使った関数の呼び出しコマンド。">
<polygon fill="#ffffff" stroke="#666666" points="510,-41 397,-41 397,0 510,0 510,-41"/>
<text text-anchor="start" x="405" y="-29" font-family="Helvetica,sans-Serif" font-size="10.00" fill="#000000">calc/src/shared&#45;and</text>
<text text-anchor="start" x="405" y="-18" font-family="Helvetica,sans-Serif" font-size="10.00" fill="#000000">&#45;static&#45;add/shared&#45;and</text>
<text text-anchor="middle" x="453.5" y="-7" font-family="Helvetica,sans-Serif" font-size="10.00" fill="#000000">&#45;static&#45;add.c</text>
</a>
</g>
</g>
<!-- Node1&#45;&gt;Node5 -->
<g id="edge4_Node000001_Node000005" class="edge">
<title>Node1&#45;&gt;Node5</title>
<g id="a_edge4_Node000001_Node000005"><a xlink:title=" ">
<path fill="none" stroke="#63b8ff" d="M307.5997,-73.4089C333.1008,-64.1613 367.7871,-51.5827 396.9409,-41.0105"/>
<polygon fill="#63b8ff" stroke="#63b8ff" points="306.1721,-70.2035 297.9644,-76.903 308.5585,-76.7842 306.1721,-70.2035"/>
</a>
</g>
</g>
</g>
</svg>
