<?xml version="1.0" encoding="UTF-8" standalone="no"?>
<!DOCTYPE svg PUBLIC "-//W3C//DTD SVG 1.1//EN"
 "http://www.w3.org/Graphics/SVG/1.1/DTD/svg11.dtd">
<!-- Generated by graphviz version 2.40.1 (0)
 -->
<!-- Title: add Pages: 1 -->
<svg width="218pt" height="64pt"
 viewBox="0.00 0.00 218.00 64.00" xmlns="http://www.w3.org/2000/svg" xmlns:xlink="http://www.w3.org/1999/xlink">
<g id="graph0" class="graph" transform="scale(1 1) rotate(0) translate(4 60)">
<title>add</title>
<!-- Node1 -->
<g id="Node000001" class="node">
<title>Node1</title>
<g id="a_Node000001"><a xlink:title="2 つの整数を加算します。">
<polygon fill="#999999" stroke="#666666" points="210,-37 178,-37 178,-18 210,-18 210,-37"/>
<text text-anchor="middle" x="194" y="-25" font-family="Helvetica,sans-Serif" font-size="10.00" fill="#000000">add</text>
</a>
</g>
</g>
<!-- Node2 -->
<g id="Node000002" class="node">
<title>Node2</title>
<g id="a_Node000002"><a xlink:href="calcHandler_8c.html#ab0b0cfaa323f14dab216e9c7bbf08ff1" target="_top" xlink:title="指定された演算種別に基づいて計算を実行します。">
<polygon fill="#ffffff" stroke="#666666" points="142,-56 74,-56 74,-37 142,-37 142,-56"/>
<text text-anchor="middle" x="108" y="-44" font-family="Helvetica,sans-Serif" font-size="10.00" fill="#000000">calcHandler</text>
</a>
</g>
</g>
<!-- Node1&#45;&gt;Node2 -->
<g id="edge1_Node000001_Node000002" class="edge">
<title>Node1&#45;&gt;Node2</title>
<g id="a_edge1_Node000001_Node000002"><a xlink:title=" ">
<path fill="none" stroke="#63b8ff" d="M167.8801,-33.2707C159.8119,-35.0532 150.8013,-37.0439 142.2694,-38.9288"/>
<polygon fill="#63b8ff" stroke="#63b8ff" points="168.8146,-36.6487 177.8241,-31.0738 167.3044,-29.8135 168.8146,-36.6487"/>
</a>
</g>
</g>
<!-- Node4 -->
<g id="Node000004" class="node">
<title>Node4</title>
<g id="a_Node000004"><a xlink:href="src_2add_2add_8c.html#a0ddf1224851353fc92bfbff6f499fa97" target="_top" xlink:title="プログラムのエントリーポイント。">
<polygon fill="#ffffff" stroke="#666666" points="127,-19 89,-19 89,0 127,0 127,-19"/>
<text text-anchor="middle" x="108" y="-7" font-family="Helvetica,sans-Serif" font-size="10.00" fill="#000000">main</text>
</a>
</g>
</g>
<!-- Node1&#45;&gt;Node4 -->
<g id="edge3_Node000001_Node000004" class="edge">
<title>Node1&#45;&gt;Node4</title>
<g id="a_edge3_Node000001_Node000004"><a xlink:title=" ">
<path fill="none" stroke="#63b8ff" d="M167.9355,-22.0446C154.7864,-19.2925 139.1226,-16.014 127.1062,-13.499"/>
<polygon fill="#63b8ff" stroke="#63b8ff" points="167.3191,-25.4914 177.8241,-24.1143 168.7532,-18.6399 167.3191,-25.4914"/>
</a>
</g>
</g>
<!-- Node3 -->
<g id="Node000003" class="node">
<title>Node3</title>
<g id="a_Node000003"><a xlink:href="calc_8c.html#a0ddf1224851353fc92bfbff6f499fa97" target="_top" xlink:title="プログラムのエントリーポイント。">
<polygon fill="#ffffff" stroke="#666666" points="38,-56 0,-56 0,-37 38,-37 38,-56"/>
<text text-anchor="middle" x="19" y="-44" font-family="Helvetica,sans-Serif" font-size="10.00" fill="#000000">main</text>
</a>
</g>
</g>
<!-- Node2&#45;&gt;Node3 -->
<g id="edge2_Node000002_Node000003" class="edge">
<title>Node2&#45;&gt;Node3</title>
<g id="a_edge2_Node000002_Node000003"><a xlink:title=" ">
<path fill="none" stroke="#63b8ff" d="M63.7075,-46.5C54.6537,-46.5 45.5884,-46.5 38.0108,-46.5"/>
<polygon fill="#63b8ff" stroke="#63b8ff" points="63.8448,-50.0001 73.8448,-46.5 63.8448,-43.0001 63.8448,-50.0001"/>
</a>
</g>
</g>
</g>
</svg>
