<?xml version="1.0" encoding="UTF-8" standalone="no"?>
<!DOCTYPE svg PUBLIC "-//W3C//DTD SVG 1.1//EN"
 "http://www.w3.org/Graphics/SVG/1.1/DTD/svg11.dtd">
<!-- Generated by graphviz version 2.40.1 (0)
 -->
<!-- Title: calc/src/shared&#45;and&#45;static&#45;add/shared&#45;and&#45;static&#45;add.c Pages: 1 -->
<svg width="284pt" height="159pt"
 viewBox="0.00 0.00 284.00 159.00" xmlns="http://www.w3.org/2000/svg" xmlns:xlink="http://www.w3.org/1999/xlink">
<g id="graph0" class="graph" transform="scale(1 1) rotate(0) translate(4 155)">
<title>calc/src/shared&#45;and&#45;static&#45;add/shared&#45;and&#45;static&#45;add.c</title>
<!-- Node1 -->
<g id="Node000001" class="node">
<title>Node1</title>
<g id="a_Node000001"><a xlink:title="動的リンク、静的リンクを使った関数の呼び出しコマンド。">
<polygon fill="#999999" stroke="#666666" points="209.5,-151 96.5,-151 96.5,-110 209.5,-110 209.5,-151"/>
<text text-anchor="start" x="104.5" y="-139" font-family="Helvetica,sans-Serif" font-size="10.00" fill="#000000">calc/src/shared&#45;and</text>
<text text-anchor="start" x="104.5" y="-128" font-family="Helvetica,sans-Serif" font-size="10.00" fill="#000000">&#45;static&#45;add/shared&#45;and</text>
<text text-anchor="middle" x="153" y="-117" font-family="Helvetica,sans-Serif" font-size="10.00" fill="#000000">&#45;static&#45;add.c</text>
</a>
</g>
</g>
<!-- Node2 -->
<g id="Node000002" class="node">
<title>Node2</title>
<g id="a_Node000002"><a xlink:href="libcalcbase_8h.html" target="_top" xlink:title="計算ライブラリ (静的リンク用) のヘッダーファイル。">
<polygon fill="#ffffff" stroke="#666666" points="74,-74 0,-74 0,-55 74,-55 74,-74"/>
<text text-anchor="middle" x="37" y="-62" font-family="Helvetica,sans-Serif" font-size="10.00" fill="#000000">libcalcbase.h</text>
</a>
</g>
</g>
<!-- Node1&#45;&gt;Node2 -->
<g id="edge1_Node000001_Node000002" class="edge">
<title>Node1&#45;&gt;Node2</title>
<g id="a_edge1_Node000001_Node000002"><a xlink:title=" ">
<path fill="none" stroke="#63b8ff" d="M116.9327,-109.979C99.3643,-99.9831 78.6472,-88.1958 62.7069,-79.1263"/>
<polygon fill="#63b8ff" stroke="#63b8ff" points="64.3559,-76.0377 53.9334,-74.1345 60.8941,-82.1219 64.3559,-76.0377"/>
</a>
</g>
</g>
<!-- Node4 -->
<g id="Node000004" class="node">
<title>Node4</title>
<g id="a_Node000004"><a xlink:href="libcalc_8h.html" target="_top" xlink:title="計算ライブラリ (動的リンク用) のヘッダーファイル。">
<polygon fill="#ffffff" stroke="#666666" points="145.5,-74 92.5,-74 92.5,-55 145.5,-55 145.5,-74"/>
<text text-anchor="middle" x="119" y="-62" font-family="Helvetica,sans-Serif" font-size="10.00" fill="#000000">libcalc.h</text>
</a>
</g>
</g>
<!-- Node1&#45;&gt;Node4 -->
<g id="edge3_Node000001_Node000004" class="edge">
<title>Node1&#45;&gt;Node4</title>
<g id="a_edge3_Node000001_Node000004"><a xlink:title=" ">
<path fill="none" stroke="#63b8ff" d="M142.4286,-109.979C138.0011,-101.3844 132.8913,-91.4655 128.5758,-83.0884"/>
<polygon fill="#63b8ff" stroke="#63b8ff" points="131.6543,-81.4214 123.9632,-74.1345 125.4314,-84.6271 131.6543,-81.4214"/>
</a>
</g>
</g>
<!-- Node5 -->
<g id="Node000005" class="node">
<title>Node5</title>
<g id="a_Node000005"><a xlink:title=" ">
<polygon fill="#e0e0e0" stroke="#999999" points="210,-74 164,-74 164,-55 210,-55 210,-74"/>
<text text-anchor="middle" x="187" y="-62" font-family="Helvetica,sans-Serif" font-size="10.00" fill="#000000">stdio.h</text>
</a>
</g>
</g>
<!-- Node1&#45;&gt;Node5 -->
<g id="edge5_Node000001_Node000005" class="edge">
<title>Node1&#45;&gt;Node5</title>
<g id="a_edge5_Node000001_Node000005"><a xlink:title=" ">
<path fill="none" stroke="#63b8ff" d="M163.5714,-109.979C167.9989,-101.3844 173.1087,-91.4655 177.4242,-83.0884"/>
<polygon fill="#63b8ff" stroke="#63b8ff" points="180.5686,-84.6271 182.0368,-74.1345 174.3457,-81.4214 180.5686,-84.6271"/>
</a>
</g>
</g>
<!-- Node6 -->
<g id="Node000006" class="node">
<title>Node6</title>
<g id="a_Node000006"><a xlink:title=" ">
<polygon fill="#e0e0e0" stroke="#999999" points="276,-74 228,-74 228,-55 276,-55 276,-74"/>
<text text-anchor="middle" x="252" y="-62" font-family="Helvetica,sans-Serif" font-size="10.00" fill="#000000">stdlib.h</text>
</a>
</g>
</g>
<!-- Node1&#45;&gt;Node6 -->
<g id="edge6_Node000001_Node000006" class="edge">
<title>Node1&#45;&gt;Node6</title>
<g id="a_edge6_Node000001_Node000006"><a xlink:title=" ">
<path fill="none" stroke="#63b8ff" d="M183.7815,-109.979C198.3549,-100.2634 215.4669,-88.8554 228.9068,-79.8955"/>
<polygon fill="#63b8ff" stroke="#63b8ff" points="231.1692,-82.5937 237.5483,-74.1345 227.2863,-76.7694 231.1692,-82.5937"/>
</a>
</g>
</g>
<!-- Node3 -->
<g id="Node000003" class="node">
<title>Node3</title>
<g id="a_Node000003"><a xlink:href="libcalc__const_8h.html" target="_top" xlink:title="計算ライブラリの定数ファイル。">
<polygon fill="#ffffff" stroke="#666666" points="119,-19 37,-19 37,0 119,0 119,-19"/>
<text text-anchor="middle" x="78" y="-7" font-family="Helvetica,sans-Serif" font-size="10.00" fill="#000000">libcalc_const.h</text>
</a>
</g>
</g>
<!-- Node2&#45;&gt;Node3 -->
<g id="edge2_Node000002_Node000003" class="edge">
<title>Node2&#45;&gt;Node3</title>
<g id="a_edge2_Node000002_Node000003"><a xlink:title=" ">
<path fill="none" stroke="#63b8ff" d="M44.1417,-54.9197C49.7749,-47.363 57.7917,-36.6087 64.6105,-27.4616"/>
<polygon fill="#63b8ff" stroke="#63b8ff" points="67.4935,-29.4501 70.6641,-19.3408 61.8813,-25.2665 67.4935,-29.4501"/>
</a>
</g>
</g>
<!-- Node4&#45;&gt;Node3 -->
<g id="edge4_Node000004_Node000003" class="edge">
<title>Node4&#45;&gt;Node3</title>
<g id="a_edge4_Node000004_Node000003"><a xlink:title=" ">
<path fill="none" stroke="#63b8ff" d="M111.8583,-54.9197C106.2251,-47.363 98.2083,-36.6087 91.3895,-27.4616"/>
<polygon fill="#63b8ff" stroke="#63b8ff" points="94.1187,-25.2665 85.3359,-19.3408 88.5065,-29.4501 94.1187,-25.2665"/>
</a>
</g>
</g>
</g>
</svg>
