<?xml version="1.0" encoding="UTF-8" standalone="no"?>
<!DOCTYPE svg PUBLIC "-//W3C//DTD SVG 1.1//EN"
 "http://www.w3.org/Graphics/SVG/1.1/DTD/svg11.dtd">
<!-- Generated by graphviz version 2.40.1 (0)
 -->
<!-- Title: main Pages: 1 -->
<svg width="306pt" height="157pt"
 viewBox="0.00 0.00 306.00 156.56" xmlns="http://www.w3.org/2000/svg" xmlns:xlink="http://www.w3.org/1999/xlink">
<g id="graph0" class="graph" transform="scale(1 1) rotate(0) translate(4 152.5633)">
<title>main</title>
<!-- Node1 -->
<g id="Node000001" class="node">
<title>Node1</title>
<g id="a_Node000001"><a xlink:title="プログラムのエントリーポイント。">
<polygon fill="#999999" stroke="#666666" points="38,-94 0,-94 0,-75 38,-75 38,-94"/>
<text text-anchor="middle" x="19" y="-82" font-family="Helvetica,sans-Serif" font-size="10.00" fill="#000000">main</text>
</a>
</g>
</g>
<!-- Node2 -->
<g id="Node000002" class="node">
<title>Node2</title>
<g id="a_Node000002"><a xlink:href="libsrc_2calcbase_2add_8c.html#ae0a73dcc2e58d59cbc0f200e50736260" target="_top" xlink:title="2 つの整数を加算します。">
<polygon fill="#ffffff" stroke="#666666" points="298,-132 266,-132 266,-113 298,-113 298,-132"/>
<text text-anchor="middle" x="282" y="-120" font-family="Helvetica,sans-Serif" font-size="10.00" fill="#000000">add</text>
</a>
</g>
</g>
<!-- Node1&#45;&gt;Node2 -->
<g id="edge1_Node000001_Node000002" class="edge">
<title>Node1&#45;&gt;Node2</title>
<g id="a_edge1_Node000001_Node000002"><a xlink:title=" ">
<path fill="none" stroke="#63b8ff" d="M29.5013,-94.148C39.9747,-103.2071 56.9229,-116.3986 74,-123.5 138.4434,-150.2984 161.2746,-153.6624 230,-141.5 238.7472,-139.952 247.9561,-137.0453 256.1532,-133.9627"/>
<polygon fill="#63b8ff" stroke="#63b8ff" points="257.5717,-137.1649 265.5511,-130.1949 254.9668,-130.6676 257.5717,-137.1649"/>
</a>
</g>
</g>
<!-- Node3 -->
<g id="Node000003" class="node">
<title>Node3</title>
<g id="a_Node000003"><a xlink:href="calcHandler_8c.html#a642fe53112def0e783784459698b3318" target="_top" xlink:title="指定された演算種別に基づいて計算を実行します。">
<polygon fill="#ffffff" stroke="#666666" points="142,-94 74,-94 74,-75 142,-75 142,-94"/>
<text text-anchor="middle" x="108" y="-82" font-family="Helvetica,sans-Serif" font-size="10.00" fill="#000000">calcHandler</text>
</a>
</g>
</g>
<!-- Node1&#45;&gt;Node3 -->
<g id="edge2_Node000001_Node000003" class="edge">
<title>Node1&#45;&gt;Node3</title>
<g id="a_edge2_Node000001_Node000003"><a xlink:title=" ">
<path fill="none" stroke="#63b8ff" d="M38.3117,-84.5C45.7343,-84.5 54.551,-84.5 63.3743,-84.5"/>
<polygon fill="#63b8ff" stroke="#63b8ff" points="63.652,-88.0001 73.652,-84.5 63.6519,-81.0001 63.652,-88.0001"/>
</a>
</g>
</g>
<!-- Node4 -->
<g id="Node000004" class="node">
<title>Node4</title>
<g id="a_Node000004"><a xlink:href="divide_8c.html#a457d7ab9fae4d04f0083aeeee6c700bb" target="_top" xlink:title="2 つの整数を除算します。">
<polygon fill="#ffffff" stroke="#666666" points="225,-56 183,-56 183,-37 225,-37 225,-56"/>
<text text-anchor="middle" x="204" y="-44" font-family="Helvetica,sans-Serif" font-size="10.00" fill="#000000">divide</text>
</a>
</g>
</g>
<!-- Node1&#45;&gt;Node4 -->
<g id="edge8_Node000001_Node000004" class="edge">
<title>Node1&#45;&gt;Node4</title>
<g id="a_edge8_Node000001_Node000004"><a xlink:title=" ">
<path fill="none" stroke="#63b8ff" d="M38.0808,-76.9189C48.5444,-73.0143 61.8288,-68.464 74,-65.5 107.1125,-57.4364 145.8568,-52.3131 172.3793,-49.4448"/>
<polygon fill="#63b8ff" stroke="#63b8ff" points="173.0132,-52.8979 182.5992,-48.3858 172.2917,-45.9352 173.0132,-52.8979"/>
</a>
</g>
</g>
<!-- Node5 -->
<g id="Node000005" class="node">
<title>Node5</title>
<g id="a_Node000005"><a xlink:href="multiply_8c.html#aa2620c22f253b878c0356f0df6ac6d61" target="_top" xlink:title="2 つの整数を乗算します。">
<polygon fill="#ffffff" stroke="#666666" points="229,-19 179,-19 179,0 229,0 229,-19"/>
<text text-anchor="middle" x="204" y="-7" font-family="Helvetica,sans-Serif" font-size="10.00" fill="#000000">multiply</text>
</a>
</g>
</g>
<!-- Node1&#45;&gt;Node5 -->
<g id="edge9_Node000001_Node000005" class="edge">
<title>Node1&#45;&gt;Node5</title>
<g id="a_edge9_Node000001_Node000005"><a xlink:title=" ">
<path fill="none" stroke="#63b8ff" d="M31.9873,-74.8178C42.7861,-67.1234 58.7925,-56.5227 74,-49.5 104.8492,-35.2542 142.0924,-24.3852 168.7942,-17.5979"/>
<polygon fill="#63b8ff" stroke="#63b8ff" points="169.9654,-20.9137 178.8308,-15.1124 168.2827,-14.1189 169.9654,-20.9137"/>
</a>
</g>
</g>
<!-- Node6 -->
<g id="Node000006" class="node">
<title>Node6</title>
<g id="a_Node000006"><a xlink:href="subtract_8c.html#a1bf275b5894cc190077fcae5246956ac" target="_top" xlink:title="2 つの整数を減算します。">
<polygon fill="#ffffff" stroke="#666666" points="230,-132 178,-132 178,-113 230,-113 230,-132"/>
<text text-anchor="middle" x="204" y="-120" font-family="Helvetica,sans-Serif" font-size="10.00" fill="#000000">subtract</text>
</a>
</g>
</g>
<!-- Node1&#45;&gt;Node6 -->
<g id="edge10_Node000001_Node000006" class="edge">
<title>Node1&#45;&gt;Node6</title>
<g id="a_edge10_Node000001_Node000006"><a xlink:title=" ">
<path fill="none" stroke="#63b8ff" d="M38.0808,-92.0811C48.5444,-95.9857 61.8288,-100.536 74,-103.5 105.1647,-111.0893 141.3181,-116.074 167.5756,-119.0255"/>
<polygon fill="#63b8ff" stroke="#63b8ff" points="167.5085,-122.5385 177.8262,-120.1311 168.2593,-115.5788 167.5085,-122.5385"/>
</a>
</g>
</g>
<!-- Node3&#45;&gt;Node2 -->
<g id="edge3_Node000003_Node000002" class="edge">
<title>Node3&#45;&gt;Node2</title>
<g id="a_edge3_Node000003_Node000002"><a xlink:title=" ">
<path fill="none" stroke="#63b8ff" d="M142.2404,-88.5219C166.8727,-91.7999 200.7657,-97.1017 230,-104.5 238.6912,-106.6995 247.9981,-109.7052 256.3014,-112.6306"/>
<polygon fill="#63b8ff" stroke="#63b8ff" points="255.229,-115.9649 265.823,-116.0993 257.6252,-109.3877 255.229,-115.9649"/>
</a>
</g>
</g>
<!-- Node3&#45;&gt;Node4 -->
<g id="edge4_Node000003_Node000004" class="edge">
<title>Node3&#45;&gt;Node4</title>
<g id="a_edge4_Node000003_Node000004"><a xlink:title=" ">
<path fill="none" stroke="#63b8ff" d="M132.2249,-74.911C144.6184,-70.0052 159.8411,-63.9796 173.0733,-58.7418"/>
<polygon fill="#63b8ff" stroke="#63b8ff" points="174.7144,-61.8565 182.7243,-54.9216 172.138,-55.3479 174.7144,-61.8565"/>
</a>
</g>
</g>
<!-- Node3&#45;&gt;Node5 -->
<g id="edge5_Node000003_Node000005" class="edge">
<title>Node3&#45;&gt;Node5</title>
<g id="a_edge5_Node000003_Node000005"><a xlink:title=" ">
<path fill="none" stroke="#63b8ff" d="M119.1807,-74.943C132.8214,-63.39 156.7013,-43.5062 178,-27.5 179.1795,-26.6136 180.3979,-25.7149 181.634,-24.8163"/>
<polygon fill="#63b8ff" stroke="#63b8ff" points="183.6849,-27.6528 189.8245,-19.0182 179.6404,-21.9394 183.6849,-27.6528"/>
</a>
</g>
</g>
<!-- Node3&#45;&gt;Node6 -->
<g id="edge6_Node000003_Node000006" class="edge">
<title>Node3&#45;&gt;Node6</title>
<g id="a_edge6_Node000003_Node000006"><a xlink:title=" ">
<path fill="none" stroke="#63b8ff" d="M132.2249,-94.089C143.708,-98.6344 157.6198,-104.1412 170.1269,-109.0919"/>
<polygon fill="#63b8ff" stroke="#63b8ff" points="169.1966,-112.4878 179.7829,-112.9141 171.773,-105.9792 169.1966,-112.4878"/>
</a>
</g>
</g>
<!-- Node6&#45;&gt;Node2 -->
<g id="edge7_Node000006_Node000002" class="edge">
<title>Node6&#45;&gt;Node2</title>
<g id="a_edge7_Node000006_Node000002"><a xlink:title=" ">
<path fill="none" stroke="#63b8ff" d="M230.4072,-122.5C238.52,-122.5 247.4471,-122.5 255.5619,-122.5"/>
<polygon fill="#63b8ff" stroke="#63b8ff" points="255.6249,-126.0001 265.6249,-122.5 255.6248,-119.0001 255.6249,-126.0001"/>
</a>
</g>
</g>
</g>
</svg>
