<?xml version="1.0" encoding="UTF-8" standalone="no"?>
<!DOCTYPE svg PUBLIC "-//W3C//DTD SVG 1.1//EN"
 "http://www.w3.org/Graphics/SVG/1.1/DTD/svg11.dtd">
<!-- Generated by graphviz version 2.40.1 (0)
 -->
<!-- Title: main Pages: 1 -->
<svg width="218pt" height="46pt"
 viewBox="0.00 0.00 218.00 46.00" xmlns="http://www.w3.org/2000/svg" xmlns:xlink="http://www.w3.org/1999/xlink">
<g id="graph0" class="graph" transform="scale(1 1) rotate(0) translate(4 42)">
<title>main</title>
<!-- Node1 -->
<g id="Node000001" class="node">
<title>Node1</title>
<g id="a_Node000001"><a xlink:title="プログラムのエントリーポイント。">
<polygon fill="#999999" stroke="#666666" points="38,-38 0,-38 0,-19 38,-19 38,-38"/>
<text text-anchor="middle" x="19" y="-26" font-family="Helvetica,sans-Serif" font-size="10.00" fill="#000000">main</text>
</a>
</g>
</g>
<!-- Node2 -->
<g id="Node000002" class="node">
<title>Node2</title>
<g id="a_Node000002"><a xlink:href="libsrc_2calcbase_2add_8c.html#aa99823a0fc8313c9c32541ce768fb801" target="_top" xlink:title="2 つの整数を加算します。">
<polygon fill="#ffffff" stroke="#666666" points="210,-38 178,-38 178,-19 210,-19 210,-38"/>
<text text-anchor="middle" x="194" y="-26" font-family="Helvetica,sans-Serif" font-size="10.00" fill="#000000">add</text>
</a>
</g>
</g>
<!-- Node1&#45;&gt;Node2 -->
<g id="edge1_Node000001_Node000002" class="edge">
<title>Node1&#45;&gt;Node2</title>
<g id="a_edge1_Node000001_Node000002"><a xlink:title=" ">
<path fill="none" stroke="#63b8ff" d="M38.0612,-28.5C69.4512,-28.5 132.0828,-28.5 167.6779,-28.5"/>
<polygon fill="#63b8ff" stroke="#63b8ff" points="167.7921,-32.0001 177.7921,-28.5 167.7921,-25.0001 167.7921,-32.0001"/>
</a>
</g>
</g>
<!-- Node3 -->
<g id="Node000003" class="node">
<title>Node3</title>
<g id="a_Node000003"><a xlink:href="calcHandler_8c.html#ab0b0cfaa323f14dab216e9c7bbf08ff1" target="_top" xlink:title="指定された演算種別に基づいて計算を実行します。">
<polygon fill="#ffffff" stroke="#666666" points="142,-19 74,-19 74,0 142,0 142,-19"/>
<text text-anchor="middle" x="108" y="-7" font-family="Helvetica,sans-Serif" font-size="10.00" fill="#000000">calcHandler</text>
</a>
</g>
</g>
<!-- Node1&#45;&gt;Node3 -->
<g id="edge2_Node000001_Node000003" class="edge">
<title>Node1&#45;&gt;Node3</title>
<g id="a_edge2_Node000001_Node000003"><a xlink:title=" ">
<path fill="none" stroke="#63b8ff" d="M38.3117,-24.3773C45.815,-22.7755 54.7428,-20.8695 63.662,-18.9654"/>
<polygon fill="#63b8ff" stroke="#63b8ff" points="64.6031,-22.3435 73.652,-16.8327 63.1416,-15.4977 64.6031,-22.3435"/>
</a>
</g>
</g>
<!-- Node3&#45;&gt;Node2 -->
<g id="edge3_Node000003_Node000002" class="edge">
<title>Node3&#45;&gt;Node2</title>
<g id="a_edge3_Node000003_Node000002"><a xlink:title=" ">
<path fill="none" stroke="#63b8ff" d="M142.484,-17.1185C150.9319,-18.985 159.8367,-20.9523 167.8225,-22.7166"/>
<polygon fill="#63b8ff" stroke="#63b8ff" points="167.1559,-26.1537 177.6755,-24.8934 168.666,-19.3185 167.1559,-26.1537"/>
</a>
</g>
</g>
</g>
</svg>
