<?xml version="1.0" encoding="UTF-8" standalone="no"?>
<!DOCTYPE svg PUBLIC "-//W3C//DTD SVG 1.1//EN"
 "http://www.w3.org/Graphics/SVG/1.1/DTD/svg11.dtd">
<!-- Generated by graphviz version 2.40.1 (0)
 -->
<!-- Title: calc/libsrc/calcbase/subtract.c Pages: 1 -->
<svg width="156pt" height="148pt"
 viewBox="0.00 0.00 156.00 148.00" xmlns="http://www.w3.org/2000/svg" xmlns:xlink="http://www.w3.org/1999/xlink">
<g id="graph0" class="graph" transform="scale(1 1) rotate(0) translate(4 144)">
<title>calc/libsrc/calcbase/subtract.c</title>
<!-- Node1 -->
<g id="Node000001" class="node">
<title>Node1</title>
<g id="a_Node000001"><a xlink:title="subtract 関数の実装ファイル。">
<polygon fill="#999999" stroke="#666666" points="117.5,-140 14.5,-140 14.5,-110 117.5,-110 117.5,-140"/>
<text text-anchor="start" x="22.5" y="-128" font-family="Helvetica,sans-Serif" font-size="10.00" fill="#000000">calc/libsrc/calcbase</text>
<text text-anchor="middle" x="66" y="-117" font-family="Helvetica,sans-Serif" font-size="10.00" fill="#000000">/subtract.c</text>
</a>
</g>
</g>
<!-- Node2 -->
<g id="Node000002" class="node">
<title>Node2</title>
<g id="a_Node000002"><a xlink:title=" ">
<polygon fill="#e0e0e0" stroke="#999999" points="52,-74 0,-74 0,-55 52,-55 52,-74"/>
<text text-anchor="middle" x="26" y="-62" font-family="Helvetica,sans-Serif" font-size="10.00" fill="#000000">stddef.h</text>
</a>
</g>
</g>
<!-- Node1&#45;&gt;Node2 -->
<g id="edge1_Node000001_Node000002" class="edge">
<title>Node1&#45;&gt;Node2</title>
<g id="a_edge1_Node000001_Node000002"><a xlink:title=" ">
<path fill="none" stroke="#63b8ff" d="M55.9063,-109.7333C50.4675,-101.5071 43.7211,-91.3031 38.0132,-82.6699"/>
<polygon fill="#63b8ff" stroke="#63b8ff" points="40.7729,-80.4978 32.3381,-74.0864 34.9337,-84.3584 40.7729,-80.4978"/>
</a>
</g>
</g>
<!-- Node3 -->
<g id="Node000003" class="node">
<title>Node3</title>
<g id="a_Node000003"><a xlink:href="libcalcbase_8h.html" target="_top" xlink:title="計算ライブラリ (静的リンク用) のヘッダーファイル。">
<polygon fill="#ffffff" stroke="#666666" points="144,-74 70,-74 70,-55 144,-55 144,-74"/>
<text text-anchor="middle" x="107" y="-62" font-family="Helvetica,sans-Serif" font-size="10.00" fill="#000000">libcalcbase.h</text>
</a>
</g>
</g>
<!-- Node1&#45;&gt;Node3 -->
<g id="edge2_Node000001_Node000003" class="edge">
<title>Node1&#45;&gt;Node3</title>
<g id="a_edge2_Node000001_Node000003"><a xlink:title=" ">
<path fill="none" stroke="#63b8ff" d="M76.346,-109.7333C81.9801,-101.4196 88.9832,-91.0858 94.8728,-82.3949"/>
<polygon fill="#63b8ff" stroke="#63b8ff" points="97.7908,-84.3281 100.5034,-74.0864 91.996,-80.4011 97.7908,-84.3281"/>
</a>
</g>
</g>
<!-- Node4 -->
<g id="Node000004" class="node">
<title>Node4</title>
<g id="a_Node000004"><a xlink:href="libcalc__const_8h.html" target="_top" xlink:title="計算ライブラリの定数ファイル。">
<polygon fill="#ffffff" stroke="#666666" points="148,-19 66,-19 66,0 148,0 148,-19"/>
<text text-anchor="middle" x="107" y="-7" font-family="Helvetica,sans-Serif" font-size="10.00" fill="#000000">libcalc_const.h</text>
</a>
</g>
</g>
<!-- Node3&#45;&gt;Node4 -->
<g id="edge3_Node000003_Node000004" class="edge">
<title>Node3&#45;&gt;Node4</title>
<g id="a_edge3_Node000003_Node000004"><a xlink:title=" ">
<path fill="none" stroke="#63b8ff" d="M107,-54.9197C107,-47.9083 107,-38.1442 107,-29.4652"/>
<polygon fill="#63b8ff" stroke="#63b8ff" points="110.5001,-29.3408 107,-19.3408 103.5001,-29.3409 110.5001,-29.3408"/>
</a>
</g>
</g>
</g>
</svg>
