<svg xmlns="http://www.w3.org/2000/svg" xmlns:xlink="http://www.w3.org/1999/xlink" contentStyleType="text/css" data-diagram-type="DESCRIPTION" height="264px" preserveAspectRatio="none" style="width:246px;height:264px;" version="1.1" viewBox="0 0 246 264" width="246px" zoomAndPan="magnify"><defs/><g><!--entity n0--><g class="entity" data-entity="n0" data-source-line="5" data-uid="ent0002" id="entity_n0"><rect fill="#ADD8E6" height="37.7799" rx="2.5" ry="2.5" style="stroke:#181818;stroke-width:0.5;" width="64.6248" x="30" y="221"/><text fill="#000000" font-family="'Segoe UI', 'メイリオ', 'UDEV Gothic HSRFJPDOC', 'Hiragino Kaku Gothic ProN', 'ヒラギノ角ゴ ProN', 'Noto Sans JP', 'Helvetica Neue', Helvetica, Arial, sans-serif" font-size="14" font-weight="bold" lengthAdjust="spacing" textLength="44.6248" x="40" y="244.9999">onLoad</text></g><!--entity n1--><g class="entity" data-entity="n1" data-source-line="6" data-uid="ent0003" id="entity_n1"><rect fill="#F1F1F1" height="37.7799" rx="2.5" ry="2.5" style="stroke:#181818;stroke-width:0.5;" width="110.9996" x="7" y="7"/><text fill="#000000" font-family="'Segoe UI', 'メイリオ', 'UDEV Gothic HSRFJPDOC', 'Hiragino Kaku Gothic ProN', 'ヒラギノ角ゴ ProN', 'Noto Sans JP', 'Helvetica Neue', Helvetica, Arial, sans-serif" font-size="14" lengthAdjust="spacing" textLength="90.9996" x="17" y="30.9999">__attribute__</text></g><!--entity n2--><g class="entity" data-entity="n2" data-source-line="7" data-uid="ent0004" id="entity_n2"><rect fill="#F1F1F1" height="55.5598" rx="2.5" ry="2.5" style="stroke:#181818;stroke-width:0.5;" width="152.9994" x="51" y="105"/><text fill="#000000" font-family="'Segoe UI', 'メイリオ', 'UDEV Gothic HSRFJPDOC', 'Hiragino Kaku Gothic ProN', 'ヒラギノ角ゴ ProN', 'Noto Sans JP', 'Helvetica Neue', Helvetica, Arial, sans-serif" font-size="14" lengthAdjust="spacing" textLength="41.9998" x="61" y="128.9999">onLoad</text><text fill="#000000" font-family="'Segoe UI', 'メイリオ', 'UDEV Gothic HSRFJPDOC', 'Hiragino Kaku Gothic ProN', 'ヒラギノ角ゴ ProN', 'Noto Sans JP', 'Helvetica Neue', Helvetica, Arial, sans-serif" font-size="14" lengthAdjust="spacing" textLength="132.9994" x="61" y="146.7799">(dllmain_libbase.c)</text></g><!--link n1 to n0--><g class="link" data-entity-1="n1" data-entity-2="n0" data-source-line="8" data-uid="lnk5" id="link_n1_n0"><path d="M53.2489,45.2693 C46.2627,60.9448 37.2585,83.8545 33.5,105 C29.1444,129.5048 29.1444,136.4952 33.5,161 C37.2585,182.1455 43.8202,199.5748 50.8064,215.2503" fill="none" id="n1-to-n0" style="stroke:#181818;stroke-width:1;"/><polygon fill="#181818" points="53.2489,220.7307,53.2388,210.8818,51.2135,216.1637,45.9316,214.1385,53.2489,220.7307" style="stroke:#181818;stroke-width:1;"/></g><!--link n2 to n0--><g class="link" data-entity-1="n2" data-entity-2="n0" data-source-line="9" data-uid="lnk6" id="link_n2_n0"><path d="M110.422,161.113 C98.9874,179.9362 87.3521,199.0896 77.2545,215.7117" fill="none" id="n2-to-n0" style="stroke:#181818;stroke-width:1;"/><polygon fill="#181818" points="74.1394,220.8397,82.2307,215.2245,76.7353,216.5664,75.3935,211.071,74.1394,220.8397" style="stroke:#181818;stroke-width:1;"/></g><!--link n1 to n2--><g class="link" data-entity-1="n1" data-entity-2="n2" data-source-line="10" data-uid="lnk7" id="link_n1_n2"><path d="M74.1207,45.1295 C84.1992,61.7202 95.8081,80.8302 107.2405,99.6497" fill="none" id="n1-to-n2" style="stroke:#181818;stroke-width:1;"/><polygon fill="#181818" points="110.3556,104.7777,109.1016,95.009,107.7597,100.5044,102.2643,99.1625,110.3556,104.7777" style="stroke:#181818;stroke-width:1;"/></g><!--link n2 to n2--><g class="link" data-entity-1="n2" data-entity-2="n2" data-source-line="11" data-uid="lnk8" id="link_n2_n2"><path d="M204.1068,113.33 C223.9997,114.539 239,121.0957 239,133 C239,144.9043 229.9886,151.097 210.0957,152.306" fill="none" id="n2-to-n2" style="stroke:#181818;stroke-width:1;"/><polygon fill="#181818" points="204.1068,152.67,213.3329,156.1167,209.0976,152.3667,212.8476,148.1314,204.1068,152.67" style="stroke:#181818;stroke-width:1;"/></g><!--SRC=[JOrD2eCm48NtESLWDst0jcOjBjgjHoZ8H8CDZfEIZ8jkF7ijYhXxFn_lbKc-v2fLtZQH1iyVZ3Y2nNReOvYuUmOA4IGYfwLoB2gwLf1xSf1f7RWEs6cT0IRWEvngtx_bGPCxSdCpDoWIlPt4_SsA5qTcNNhnkICQqND3tbfCxjfULjeeBY3Fg-L6iTdLbfazCpy0]--></g></svg>