<svg xmlns="http://www.w3.org/2000/svg" xmlns:xlink="http://www.w3.org/1999/xlink" contentStyleType="text/css" data-diagram-type="DESCRIPTION" height="246px" preserveAspectRatio="none" style="width:915px;height:246px;" version="1.1" viewBox="0 0 915 246" width="915px" zoomAndPan="magnify"><defs/><g><!--entity n2--><g class="entity" data-entity="n2" data-source-line="5" data-uid="ent0002" id="entity_n2"><rect fill="#F1F1F1" height="37.7799" rx="2.5" ry="2.5" style="stroke:#181818;stroke-width:0.5;" width="82.9997" x="95" y="105"/><text fill="#000000" font-family="'Segoe UI', 'メイリオ', 'UDEV Gothic HSRFJPDOC', 'Hiragino Kaku Gothic ProN', 'ヒラギノ角ゴ ProN', 'Noto Sans JP', 'Helvetica Neue', Helvetica, Arial, sans-serif" font-size="14" lengthAdjust="spacing" textLength="62.9997" x="105" y="128.9999">libbase.h</text></g><!--entity n1--><g class="entity" data-entity="n1" data-source-line="6" data-uid="ent0003" id="entity_n1"><rect fill="#ADD8E6" height="37.7799" rx="2.5" ry="2.5" style="stroke:#181818;stroke-width:0.5;" width="124.1246" x="371.5" y="203"/><text fill="#000000" font-family="'Segoe UI', 'メイリオ', 'UDEV Gothic HSRFJPDOC', 'Hiragino Kaku Gothic ProN', 'ヒラギノ角ゴ ProN', 'Noto Sans JP', 'Helvetica Neue', Helvetica, Arial, sans-serif" font-size="14" font-weight="bold" lengthAdjust="spacing" textLength="104.1246" x="381.5" y="226.9999">get_lib_info.c</text></g><!--entity n4--><g class="entity" data-entity="n4" data-source-line="7" data-uid="ent0004" id="entity_n4"><rect fill="#F1F1F1" height="37.7799" rx="2.5" ry="2.5" style="stroke:#181818;stroke-width:0.5;" width="68.9998" x="7" y="7"/><text fill="#000000" font-family="'Segoe UI', 'メイリオ', 'UDEV Gothic HSRFJPDOC', 'Hiragino Kaku Gothic ProN', 'ヒラギノ角ゴ ProN', 'Noto Sans JP', 'Helvetica Neue', Helvetica, Arial, sans-serif" font-size="14" lengthAdjust="spacing" textLength="48.9998" x="17" y="30.9999">dlfcn.h</text></g><!--entity n6--><g class="entity" data-entity="n6" data-source-line="8" data-uid="ent0005" id="entity_n6"><rect fill="#F1F1F1" height="37.7799" rx="2.5" ry="2.5" style="stroke:#181818;stroke-width:0.5;" width="75.9998" x="213.5" y="105"/><text fill="#000000" font-family="'Segoe UI', 'メイリオ', 'UDEV Gothic HSRFJPDOC', 'Hiragino Kaku Gothic ProN', 'ヒラギノ角ゴ ProN', 'Noto Sans JP', 'Helvetica Neue', Helvetica, Arial, sans-serif" font-size="14" lengthAdjust="spacing" textLength="55.9998" x="223.5" y="128.9999">limits.h</text></g><!--entity n5--><g class="entity" data-entity="n5" data-source-line="9" data-uid="ent0006" id="entity_n5"><rect fill="#F1F1F1" height="37.7799" rx="2.5" ry="2.5" style="stroke:#181818;stroke-width:0.5;" width="82.9997" x="111" y="7"/><text fill="#000000" font-family="'Segoe UI', 'メイリオ', 'UDEV Gothic HSRFJPDOC', 'Hiragino Kaku Gothic ProN', 'ヒラギノ角ゴ ProN', 'Noto Sans JP', 'Helvetica Neue', Helvetica, Arial, sans-serif" font-size="14" lengthAdjust="spacing" textLength="62.9997" x="121" y="30.9999">pthread.h</text></g><!--entity n3--><g class="entity" data-entity="n3" data-source-line="10" data-uid="ent0007" id="entity_n3"><rect fill="#F1F1F1" height="37.7799" rx="2.5" ry="2.5" style="stroke:#181818;stroke-width:0.5;" width="75.9998" x="266.5" y="7"/><text fill="#000000" font-family="'Segoe UI', 'メイリオ', 'UDEV Gothic HSRFJPDOC', 'Hiragino Kaku Gothic ProN', 'ヒラギノ角ゴ ProN', 'Noto Sans JP', 'Helvetica Neue', Helvetica, Arial, sans-serif" font-size="14" lengthAdjust="spacing" textLength="55.9998" x="276.5" y="30.9999">stddef.h</text></g><!--entity n7--><g class="entity" data-entity="n7" data-source-line="11" data-uid="ent0008" id="entity_n7"><rect fill="#F1F1F1" height="37.7799" rx="2.5" ry="2.5" style="stroke:#181818;stroke-width:0.5;" width="75.9998" x="395.5" y="105"/><text fill="#000000" font-family="'Segoe UI', 'メイリオ', 'UDEV Gothic HSRFJPDOC', 'Hiragino Kaku Gothic ProN', 'ヒラギノ角ゴ ProN', 'Noto Sans JP', 'Helvetica Neue', Helvetica, Arial, sans-serif" font-size="14" lengthAdjust="spacing" textLength="55.9998" x="405.5" y="128.9999">stdint.h</text></g><!--entity n8--><g class="entity" data-entity="n8" data-source-line="12" data-uid="ent0009" id="entity_n8"><rect fill="#F1F1F1" height="37.7799" rx="2.5" ry="2.5" style="stroke:#181818;stroke-width:0.5;" width="68.9998" x="507" y="105"/><text fill="#000000" font-family="'Segoe UI', 'メイリオ', 'UDEV Gothic HSRFJPDOC', 'Hiragino Kaku Gothic ProN', 'ヒラギノ角ゴ ProN', 'Noto Sans JP', 'Helvetica Neue', Helvetica, Arial, sans-serif" font-size="14" lengthAdjust="spacing" textLength="48.9998" x="517" y="128.9999">stdio.h</text></g><!--entity n9--><g class="entity" data-entity="n9" data-source-line="13" data-uid="ent0010" id="entity_n9"><rect fill="#F1F1F1" height="37.7799" rx="2.5" ry="2.5" style="stroke:#181818;stroke-width:0.5;" width="75.9998" x="611.5" y="105"/><text fill="#000000" font-family="'Segoe UI', 'メイリオ', 'UDEV Gothic HSRFJPDOC', 'Hiragino Kaku Gothic ProN', 'ヒラギノ角ゴ ProN', 'Noto Sans JP', 'Helvetica Neue', Helvetica, Arial, sans-serif" font-size="14" lengthAdjust="spacing" textLength="55.9998" x="621.5" y="128.9999">stdlib.h</text></g><!--entity n10--><g class="entity" data-entity="n10" data-source-line="14" data-uid="ent0011" id="entity_n10"><rect fill="#F1F1F1" height="37.7799" rx="2.5" ry="2.5" style="stroke:#181818;stroke-width:0.5;" width="75.9998" x="722.5" y="105"/><text fill="#000000" font-family="'Segoe UI', 'メイリオ', 'UDEV Gothic HSRFJPDOC', 'Hiragino Kaku Gothic ProN', 'ヒラギノ角ゴ ProN', 'Noto Sans JP', 'Helvetica Neue', Helvetica, Arial, sans-serif" font-size="14" lengthAdjust="spacing" textLength="55.9998" x="732.5" y="128.9999">string.h</text></g><!--entity n11--><g class="entity" data-entity="n11" data-source-line="15" data-uid="ent0012" id="entity_n11"><rect fill="#F1F1F1" height="37.7799" rx="2.5" ry="2.5" style="stroke:#181818;stroke-width:0.5;" width="75.9998" x="833.5" y="105"/><text fill="#000000" font-family="'Segoe UI', 'メイリオ', 'UDEV Gothic HSRFJPDOC', 'Hiragino Kaku Gothic ProN', 'ヒラギノ角ゴ ProN', 'Noto Sans JP', 'Helvetica Neue', Helvetica, Arial, sans-serif" font-size="14" lengthAdjust="spacing" textLength="55.9998" x="843.5" y="128.9999">unistd.h</text></g><!--link n3 to n2--><g class="link" data-entity-1="n3" data-entity-2="n2" data-source-line="16" data-uid="lnk13" id="link_n3_n2"><path d="M271.7091,45.128 C242.1071,62.3959 203.9673,84.6441 174.3909,101.897" fill="none" id="n3-to-n2" style="stroke:#181818;stroke-width:1;"/><polygon fill="#181818" points="169.2082,104.9202,178.9977,103.8405,173.5271,102.4008,174.9667,96.9302,169.2082,104.9202" style="stroke:#181818;stroke-width:1;"/></g><!--link n4 to n2--><g class="link" data-entity-1="n4" data-entity-2="n2" data-source-line="17" data-uid="lnk14" id="link_n4_n2"><path d="M60.2689,45.3616 C76.9237,62.5424 96.9508,83.2019 113.5938,100.3705" fill="none" id="n4-to-n2" style="stroke:#181818;stroke-width:1;"/><polygon fill="#181818" points="117.77,104.6786,114.3778,95.4324,114.2898,101.0885,108.6337,101.0006,117.77,104.6786" style="stroke:#181818;stroke-width:1;"/></g><!--link n5 to n2--><g class="link" data-entity-1="n5" data-entity-2="n2" data-source-line="18" data-uid="lnk15" id="link_n5_n2"><path d="M149.3389,45.3616 C146.5339,62.5424 143.4244,81.5884 140.6213,98.757" fill="none" id="n5-to-n2" style="stroke:#181818;stroke-width:1;"/><polygon fill="#181818" points="139.6545,104.6786,145.0524,96.4408,140.4602,99.7439,137.157,95.1517,139.6545,104.6786" style="stroke:#181818;stroke-width:1;"/></g><!--link n2 to n1--><g class="link" data-entity-1="n2" data-entity-2="n1" data-source-line="19" data-uid="lnk16" id="link_n2_n1"><path d="M178.1093,137.7297 C229.6749,154.7446 312.1227,181.9496 370.1724,201.104" fill="none" id="n2-to-n1" style="stroke:#181818;stroke-width:1;"/><polygon fill="#181818" points="375.8702,202.9841,368.5768,196.3654,371.122,201.4174,366.0701,203.9625,375.8702,202.9841" style="stroke:#181818;stroke-width:1;"/></g><!--link n4 to n1--><g class="link" data-entity-1="n4" data-entity-2="n1" data-source-line="20" data-uid="lnk17" id="link_n4_n1"><path d="M41.7716,45.2605 C43.2296,71.3232 49.857,117.4878 77.5,143 C119.7199,181.9656 275.0588,204.7072 365.3648,215.0404" fill="none" id="n4-to-n1" style="stroke:#181818;stroke-width:1;"/><polygon fill="#181818" points="371.3259,215.7225,362.839,210.7253,366.3583,215.1541,361.9295,218.6734,371.3259,215.7225" style="stroke:#181818;stroke-width:1;"/></g><!--link n6 to n1--><g class="link" data-entity-1="n6" data-entity-2="n1" data-source-line="21" data-uid="lnk18" id="link_n6_n1"><path d="M287.0235,143.128 C319.0923,160.3959 360.7422,182.8227 392.7833,200.0756" fill="none" id="n6-to-n1" style="stroke:#181818;stroke-width:1;"/><polygon fill="#181818" points="398.0661,202.9202,392.0383,195.1314,393.6637,200.5497,388.2455,202.1752,398.0661,202.9202" style="stroke:#181818;stroke-width:1;"/></g><!--link n3 to n1--><g class="link" data-entity-1="n3" data-entity-2="n1" data-source-line="22" data-uid="lnk19" id="link_n3_n1"><path d="M316.2917,45.2157 C330.6844,68.5348 355.9017,108.96 378.5,143 C392.1798,163.606 404.954,181.8962 416.2261,197.7906" fill="none" id="n3-to-n1" style="stroke:#181818;stroke-width:1;"/><polygon fill="#181818" points="419.697,202.6848,417.7535,193.0296,416.8046,198.6063,411.2279,197.6575,419.697,202.6848" style="stroke:#181818;stroke-width:1;"/></g><!--link n7 to n1--><g class="link" data-entity-1="n7" data-entity-2="n1" data-source-line="23" data-uid="lnk20" id="link_n7_n1"><path d="M433.5,143.3616 C433.5,160.5424 433.5,179.51 433.5,196.6786" fill="none" id="n7-to-n1" style="stroke:#181818;stroke-width:1;"/><polygon fill="#181818" points="433.5,202.6786,437.5,193.6786,433.5,197.6786,429.5,193.6786,433.5,202.6786" style="stroke:#181818;stroke-width:1;"/></g><!--link n8 to n1--><g class="link" data-entity-1="n8" data-entity-2="n1" data-source-line="24" data-uid="lnk21" id="link_n8_n1"><path d="M520.4201,143.128 C501.3903,160.3959 477.9835,181.6354 458.9701,198.8883" fill="none" id="n8-to-n1" style="stroke:#181818;stroke-width:1;"/><polygon fill="#181818" points="454.5267,202.9202,463.8797,199.8345,458.2295,199.5603,458.5038,193.91,454.5267,202.9202" style="stroke:#181818;stroke-width:1;"/></g><!--link n9 to n1--><g class="link" data-entity-1="n9" data-entity-2="n1" data-source-line="25" data-uid="lnk22" id="link_n9_n1"><path d="M611.3807,141.2948 C573.3516,158.5488 520.5281,182.515 481.1337,200.3884" fill="none" id="n9-to-n1" style="stroke:#181818;stroke-width:1;"/><polygon fill="#181818" points="475.6698,202.8674,485.5184,202.7915,480.2231,200.8016,482.213,195.5063,475.6698,202.8674" style="stroke:#181818;stroke-width:1;"/></g><!--link n10 to n1--><g class="link" data-entity-1="n10" data-entity-2="n1" data-source-line="26" data-uid="lnk23" id="link_n10_n1"><path d="M722.4143,137.4327 C716.7587,139.3472 710.988,141.2563 705.5,143 C633.9138,165.7451 556.6954,187.8598 501.3911,203.3" fill="none" id="n10-to-n1" style="stroke:#181818;stroke-width:1;"/><polygon fill="#181818" points="495.6121,204.9134,505.3562,206.3459,500.4279,203.5689,503.205,198.6406,495.6121,204.9134" style="stroke:#181818;stroke-width:1;"/></g><!--link n11 to n1--><g class="link" data-entity-1="n11" data-entity-2="n1" data-source-line="27" data-uid="lnk24" id="link_n11_n1"><path d="M833.2331,137.927 C827.6558,139.7499 821.9553,141.5018 816.5,143 C704.8755,173.6548 577.9607,197.4967 501.6876,210.6858" fill="none" id="n11-to-n1" style="stroke:#181818;stroke-width:1;"/><polygon fill="#181818" points="495.7753,211.7081,505.3253,214.1161,500.7022,210.8561,503.9621,206.2331,495.7753,211.7081" style="stroke:#181818;stroke-width:1;"/></g><!--SRC=[NT3DZi8W4C3nUv-2kBScVc3zJ8o7tUk-Ww5bIeau69WUV7lPABFOsp_vpK3W5EdXu5oTbk-8Lujt5THDjAgxck17r3_U-I0eA8o90AaAq952uq3Cd6rR5M4np8IA0jUbrRK1kgI9YyNUBxgwVWr9yVLhpK3VReHoNhk-mtpIvlEMcwMOQLVIdOO0IcVRbXP9Q-WpDHEoI9dsK_9P3XD9hybq_AHWqMIIgz96j6cJJLROYFdy_FTRkE7QSgrV9LbJxRWQhZtNWUl89LV_AT_v1000]--></g></svg>