<svg xmlns="http://www.w3.org/2000/svg" xmlns:xlink="http://www.w3.org/1999/xlink" contentStyleType="text/css" data-diagram-type="DESCRIPTION" height="254px" preserveAspectRatio="none" style="width:633px;height:254px;" version="1.1" viewBox="0 0 633 254" width="633px" zoomAndPan="magnify"><defs/><g><!--entity H--><g class="entity" data-entity="H" data-source-line="5" data-uid="ent0002" id="entity_H"><path d="M214,8.5 L214,41.2799 A2.5,2.5 0 0 0 216.5,43.7799 L287.4998,43.7799 A2.5,2.5 0 0 0 289.9998,41.2799 L289.9998,16 L279.9998,6 L216.5,6 A2.5,2.5 0 0 0 214,8.5" fill="#F1F1F1" style="stroke:#181818;stroke-width:0.5;"/><path d="M279.9998,6 L279.9998,13.5 A2.5,2.5 0 0 0 282.4998,16 L289.9998,16" fill="#F1F1F1" style="stroke:#181818;stroke-width:0.5;"/><text fill="#000000" font-family="'Segoe UI', 'メイリオ', 'UDEV Gothic HSRFJPDOC', 'Hiragino Kaku Gothic ProN', 'ヒラギノ角ゴ ProN', 'Noto Sans JP', 'Helvetica Neue', Helvetica, Arial, sans-serif" font-size="14" lengthAdjust="spacing" textLength="55.9998" x="224" y="29.9999">header.h</text></g><g class="entity" data-entity="GMN3" data-source-line="7" data-uid="ent0004" id="entity_GMN3"><path d="M325,11.5 L325,21 L290.2734,25 L325,29 L325,38.01 A0,0 0 0 0 325,38.01 L463,38.01 A0,0 0 0 0 463,38.01 L463,21.5 L453,11.5 L325,11.5 A0,0 0 0 0 325,11.5" fill="#FEFFDD" style="stroke:#181818;stroke-width:0.5;"/><path d="M453,11.5 L453,21.5 L463,21.5 L453,11.5" fill="#FEFFDD" style="stroke:#181818;stroke-width:0.5;"/><text fill="#000000" font-family="'Segoe UI', 'メイリオ', 'UDEV Gothic HSRFJPDOC', 'Hiragino Kaku Gothic ProN', 'ヒラギノ角ゴ ProN', 'Noto Sans JP', 'Helvetica Neue', Helvetica, Arial, sans-serif" font-size="13" lengthAdjust="spacing" textLength="117" x="331" y="29.5">&#12288;int counter = 0;</text></g><!--entity F1--><g class="entity" data-entity="F1" data-source-line="9" data-uid="ent0006" id="entity_F1"><path d="M66.5,124.5 L66.5,157.2799 A2.5,2.5 0 0 0 69,159.7799 L132.9998,159.7799 A2.5,2.5 0 0 0 135.4998,157.2799 L135.4998,132 L125.4998,122 L69,122 A2.5,2.5 0 0 0 66.5,124.5" fill="#F1F1F1" style="stroke:#181818;stroke-width:0.5;"/><path d="M125.4998,122 L125.4998,129.5 A2.5,2.5 0 0 0 127.9998,132 L135.4998,132" fill="#F1F1F1" style="stroke:#181818;stroke-width:0.5;"/><text fill="#000000" font-family="'Segoe UI', 'メイリオ', 'UDEV Gothic HSRFJPDOC', 'Hiragino Kaku Gothic ProN', 'ヒラギノ角ゴ ProN', 'Noto Sans JP', 'Helvetica Neue', Helvetica, Arial, sans-serif" font-size="14" lengthAdjust="spacing" textLength="48.9998" x="76.5" y="145.9999">file1.c</text></g><g class="entity" data-entity="GMN7" data-source-line="11" data-uid="ent0008" id="entity_GMN7"><path d="M171,127.5 L171,137 L135.6309,141 L171,145 L171,154.01 A0,0 0 0 0 171,154.01 L328.5,154.01 A0,0 0 0 0 328.5,154.01 L328.5,137.5 L318.5,127.5 L171,127.5 A0,0 0 0 0 171,127.5" fill="#FEFFDD" style="stroke:#181818;stroke-width:0.5;"/><path d="M318.5,127.5 L318.5,137.5 L328.5,137.5 L318.5,127.5" fill="#FEFFDD" style="stroke:#181818;stroke-width:0.5;"/><text fill="#000000" font-family="'Segoe UI', 'メイリオ', 'UDEV Gothic HSRFJPDOC', 'Hiragino Kaku Gothic ProN', 'ヒラギノ角ゴ ProN', 'Noto Sans JP', 'Helvetica Neue', Helvetica, Arial, sans-serif" font-size="13" lengthAdjust="spacing" textLength="136.5" x="177" y="145.5">&#12288;#include "header.h"</text></g><!--entity F2--><g class="entity" data-entity="F2" data-source-line="13" data-uid="ent0010" id="entity_F2"><path d="M364.5,124.5 L364.5,157.2799 A2.5,2.5 0 0 0 367,159.7799 L430.9998,159.7799 A2.5,2.5 0 0 0 433.4998,157.2799 L433.4998,132 L423.4998,122 L367,122 A2.5,2.5 0 0 0 364.5,124.5" fill="#F1F1F1" style="stroke:#181818;stroke-width:0.5;"/><path d="M423.4998,122 L423.4998,129.5 A2.5,2.5 0 0 0 425.9998,132 L433.4998,132" fill="#F1F1F1" style="stroke:#181818;stroke-width:0.5;"/><text fill="#000000" font-family="'Segoe UI', 'メイリオ', 'UDEV Gothic HSRFJPDOC', 'Hiragino Kaku Gothic ProN', 'ヒラギノ角ゴ ProN', 'Noto Sans JP', 'Helvetica Neue', Helvetica, Arial, sans-serif" font-size="14" lengthAdjust="spacing" textLength="48.9998" x="374.5" y="145.9999">file2.c</text></g><g class="entity" data-entity="GMN11" data-source-line="15" data-uid="ent0012" id="entity_GMN11"><path d="M469,127.5 L469,137 L433.6309,141 L469,145 L469,154.01 A0,0 0 0 0 469,154.01 L626.5,154.01 A0,0 0 0 0 626.5,154.01 L626.5,137.5 L616.5,127.5 L469,127.5 A0,0 0 0 0 469,127.5" fill="#FEFFDD" style="stroke:#181818;stroke-width:0.5;"/><path d="M616.5,127.5 L616.5,137.5 L626.5,137.5 L616.5,127.5" fill="#FEFFDD" style="stroke:#181818;stroke-width:0.5;"/><text fill="#000000" font-family="'Segoe UI', 'メイリオ', 'UDEV Gothic HSRFJPDOC', 'Hiragino Kaku Gothic ProN', 'ヒラギノ角ゴ ProN', 'Noto Sans JP', 'Helvetica Neue', Helvetica, Arial, sans-serif" font-size="13" lengthAdjust="spacing" textLength="136.5" x="475" y="145.5">&#12288;#include "header.h"</text></g><g class="entity" data-entity="GMN16" data-source-line="20" data-uid="ent0017" id="entity_GMN16"><path d="M6,221 L6,247.51 A0,0 0 0 0 6,247.51 L196.0001,247.51 A0,0 0 0 0 196.0001,247.51 L196.0001,231 L186.0001,221 L105,221 L101,160.3733 L97,221 L6,221 A0,0 0 0 0 6,221" fill="#FEFFDD" style="stroke:#181818;stroke-width:0.5;"/><path d="M186.0001,221 L186.0001,231 L196.0001,231 L186.0001,221" fill="#FEFFDD" style="stroke:#181818;stroke-width:0.5;"/><text fill="#000000" font-family="'Segoe UI', 'メイリオ', 'UDEV Gothic HSRFJPDOC', 'Hiragino Kaku Gothic ProN', 'ヒラギノ角ゴ ProN', 'Noto Sans JP', 'Helvetica Neue', Helvetica, Arial, sans-serif" font-size="13" lengthAdjust="spacing" textLength="169.0001" x="12" y="239">counter &#12398;&#23455;&#20307;&#12364;&#29983;&#25104;&#12373;&#12428;&#12427;</text></g><g class="entity" data-entity="GMN19" data-source-line="23" data-uid="ent0020" id="entity_GMN19"><path d="M268,221 L268,247.51 A0,0 0 0 0 268,247.51 L529.5002,247.51 A0,0 0 0 0 529.5002,247.51 L529.5002,231 L519.5002,221 L403,221 L399,160.3733 L395,221 L268,221 A0,0 0 0 0 268,221" fill="#FEFFDD" style="stroke:#181818;stroke-width:0.5;"/><path d="M519.5002,221 L519.5002,231 L529.5002,231 L519.5002,221" fill="#FEFFDD" style="stroke:#181818;stroke-width:0.5;"/><text fill="#000000" font-family="'Segoe UI', 'メイリオ', 'UDEV Gothic HSRFJPDOC', 'Hiragino Kaku Gothic ProN', 'ヒラギノ角ゴ ProN', 'Noto Sans JP', 'Helvetica Neue', Helvetica, Arial, sans-serif" font-size="13" lengthAdjust="spacing" textLength="240.5002" x="274" y="239">&#12418;&#12358;&#19968;&#12388;&#12398; counter &#12364;&#29983;&#25104;&#12373;&#12428;&#12390;&#12375;&#12414;&#12358;</text></g><!--link F1 to H--><g class="link" data-entity-1="F1" data-entity-2="H" data-source-line="17" data-uid="lnk14" id="link_F1_H"><path d="M135.7166,128.6711 C156.0984,120.3439 181.5824,107.9574 201,92 C217.3763,78.542 228.352,63.9032 237.5757,49.3434" fill="none" id="F1-to-H" style="stroke:#181818;stroke-width:1;"/><polygon fill="#181818" points="240.7866,44.2749,232.5912,49.7371,238.1108,48.4987,239.3492,54.0183,240.7866,44.2749" style="stroke:#181818;stroke-width:1;"/></g><!--link H to F1--><g class="link" data-entity-1="H" data-entity-2="F1" data-source-line="25" data-uid="lnk22" id="link_H_F1"><path d="M213.8729,32.0129 C173.4376,40.3173 113.548,55.3979 100,74 C90.0694,87.6352 90.3824,101.4675 93.6713,115.9735" fill="none" id="H-to-F1" style="stroke:#181818;stroke-width:1;"/><polygon fill="#181818" points="94.998,121.825,96.909,112.1633,93.8924,116.9488,89.107,113.9322,94.998,121.825" style="stroke:#181818;stroke-width:1;"/><text fill="#000000" font-family="'Segoe UI', 'メイリオ', 'UDEV Gothic HSRFJPDOC', 'Hiragino Kaku Gothic ProN', 'ヒラギノ角ゴ ProN', 'Noto Sans JP', 'Helvetica Neue', Helvetica, Arial, sans-serif" font-size="13" lengthAdjust="spacing" textLength="91.0001" x="101" y="88">&#23455;&#20307;&#12434;&#22475;&#12417;&#36796;&#12416;</text></g><!--link F2 to H--><g class="link" data-entity-1="F2" data-entity-2="H" data-source-line="18" data-uid="lnk15" id="link_F2_H"><path d="M396.7799,121.711 C394.14,106.9493 388.4033,86.9829 376,74 C369.7039,67.4097 329.8718,52.3936 295.8021,40.2655" fill="none" id="F2-to-H" style="stroke:#181818;stroke-width:1;"/><polygon fill="#181818" points="290.1496,38.2533,297.2869,45.0399,294.86,39.9301,299.9699,37.5032,290.1496,38.2533" style="stroke:#181818;stroke-width:1;"/></g><!--link H to F2--><g class="link" data-entity-1="H" data-entity-2="F2" data-source-line="26" data-uid="lnk23" id="link_H_F2"><path d="M254.2201,44.289 C256.86,59.0507 262.5967,79.0171 275,92 C278.2979,95.452 323.239,112.7026 358.7664,126.0285" fill="none" id="H-to-F2" style="stroke:#181818;stroke-width:1;"/><polygon fill="#181818" points="364.3842,128.1357,357.3623,121.2297,359.7027,126.3797,354.5527,128.7201,364.3842,128.1357" style="stroke:#181818;stroke-width:1;"/><text fill="#000000" font-family="'Segoe UI', 'メイリオ', 'UDEV Gothic HSRFJPDOC', 'Hiragino Kaku Gothic ProN', 'ヒラギノ角ゴ ProN', 'Noto Sans JP', 'Helvetica Neue', Helvetica, Arial, sans-serif" font-size="13" lengthAdjust="spacing" textLength="91.0001" x="276" y="88">&#23455;&#20307;&#12434;&#22475;&#12417;&#36796;&#12416;</text></g><!--SRC=[dS-zRi8m50NWdQUueZEKU6mfIwM8rp298HR1hXmpiCKU418CLN_KCKlLaRb3oyjSQFiODIwaf8AbYtLrVVJvk9tfISewjVRvRiY6NDnGHKVGez5meEHOnDSobGgqeY9pLqpe6a2Vfmpg2QCnKysa3ZI3hbiBgHaeFaYs6SnpBZH4pj1CmHMqBjsMYTZ7IcHx1it86s5m13dZ8ah7yU5xfnooTyX_d320HgFZFnAISlHCJsejHo3xFnMX_1MQvMPPhD_lqIm-7ugFsIsQHxGBjFCg_fSXda5hqKpNhpcQPqSTi5NDlA1vGhDouIhRzJrTymlOzR1tcsAErdojtj3cln5oAl8D]--></g></svg>