<svg xmlns="http://www.w3.org/2000/svg" xmlns:xlink="http://www.w3.org/1999/xlink" contentStyleType="text/css" data-diagram-type="ACTIVITY" height="314px" preserveAspectRatio="none" style="width:471px;height:314px;" version="1.1" viewBox="0 0 471 314" width="471px" zoomAndPan="magnify"><defs/><g><ellipse cx="239.4995" cy="20" fill="#222222" rx="10" ry="10" style="stroke:#222222;stroke-width:1;"/><rect fill="#F1F1F1" height="35.2401" rx="12.5" ry="12.5" style="stroke:#181818;stroke-width:0.5;" width="92.0005" x="193.4992" y="111.9699"/><text fill="#000000" font-family="'Segoe UI', 'メイリオ', 'UDEV Gothic HSRFJPDOC', 'Hiragino Kaku Gothic ProN', 'ヒラギノ角ゴ ProN', 'Noto Sans JP', 'Helvetica Neue', Helvetica, Arial, sans-serif" font-size="12" lengthAdjust="spacing" textLength="72.0005" x="203.4992" y="133.97">&#34892;&#12434;&#35501;&#12415;&#21462;&#12426;</text><polygon fill="#F1F1F1" points="57,167.21,155.9992,167.21,167.9992,179.21,155.9992,191.21,57,191.21,45,179.21,57,167.21" style="stroke:#181818;stroke-width:0.5;"/><text fill="#000000" font-family="'Segoe UI', 'メイリオ', 'UDEV Gothic HSRFJPDOC', 'Hiragino Kaku Gothic ProN', 'ヒラギノ角ゴ ProN', 'Noto Sans JP', 'Helvetica Neue', Helvetica, Arial, sans-serif" font-size="11" lengthAdjust="spacing" textLength="16.4999" x="110.4996" y="202.2099">yes</text><text fill="#000000" font-family="'Segoe UI', 'メイリオ', 'UDEV Gothic HSRFJPDOC', 'Hiragino Kaku Gothic ProN', 'ヒラギノ角ゴ ProN', 'Noto Sans JP', 'Helvetica Neue', Helvetica, Arial, sans-serif" font-size="11" lengthAdjust="spacing" textLength="98.9992" x="57" y="183.225">' error: ' &#12434;&#21547;&#12416;?</text><rect fill="#F1F1F1" height="35.2401" rx="12.5" ry="12.5" style="stroke:#181818;stroke-width:0.5;" width="80.0005" x="66.4994" y="225.1799"/><text fill="#000000" font-family="'Segoe UI', 'メイリオ', 'UDEV Gothic HSRFJPDOC', 'Hiragino Kaku Gothic ProN', 'ヒラギノ角ゴ ProN', 'Noto Sans JP', 'Helvetica Neue', Helvetica, Arial, sans-serif" font-size="12" lengthAdjust="spacing" textLength="60.0005" x="76.4994" y="247.18">&#36196;&#33394;&#12391;&#20986;&#21147;</text><polygon fill="#F1F1F1" points="199.9992,167.21,309.9984,167.21,321.9984,179.21,309.9984,191.21,199.9992,191.21,187.9992,179.21,199.9992,167.21" style="stroke:#181818;stroke-width:0.5;"/><text fill="#000000" font-family="'Segoe UI', 'メイリオ', 'UDEV Gothic HSRFJPDOC', 'Hiragino Kaku Gothic ProN', 'ヒラギノ角ゴ ProN', 'Noto Sans JP', 'Helvetica Neue', Helvetica, Arial, sans-serif" font-size="11" lengthAdjust="spacing" textLength="16.4999" x="258.9988" y="202.2099">yes</text><text fill="#000000" font-family="'Segoe UI', 'メイリオ', 'UDEV Gothic HSRFJPDOC', 'Hiragino Kaku Gothic ProN', 'ヒラギノ角ゴ ProN', 'Noto Sans JP', 'Helvetica Neue', Helvetica, Arial, sans-serif" font-size="11" lengthAdjust="spacing" textLength="109.9991" x="199.9992" y="183.225">' warning: ' &#12434;&#21547;&#12416;?</text><text fill="#000000" font-family="'Segoe UI', 'メイリオ', 'UDEV Gothic HSRFJPDOC', 'Hiragino Kaku Gothic ProN', 'ヒラギノ角ゴ ProN', 'Noto Sans JP', 'Helvetica Neue', Helvetica, Arial, sans-serif" font-size="11" lengthAdjust="spacing" textLength="10.9999" x="321.9984" y="176.24">no</text><rect fill="#F1F1F1" height="35.2401" rx="12.5" ry="12.5" style="stroke:#181818;stroke-width:0.5;" width="80.0005" x="214.9986" y="225.1799"/><text fill="#000000" font-family="'Segoe UI', 'メイリオ', 'UDEV Gothic HSRFJPDOC', 'Hiragino Kaku Gothic ProN', 'ヒラギノ角ゴ ProN', 'Noto Sans JP', 'Helvetica Neue', Helvetica, Arial, sans-serif" font-size="12" lengthAdjust="spacing" textLength="60.0005" x="224.9986" y="247.18">&#40644;&#33394;&#12391;&#20986;&#21147;</text><rect fill="#F1F1F1" height="35.2401" rx="12.5" ry="12.5" style="stroke:#181818;stroke-width:0.5;" width="92.0005" x="341.9984" y="221.195"/><text fill="#000000" font-family="'Segoe UI', 'メイリオ', 'UDEV Gothic HSRFJPDOC', 'Hiragino Kaku Gothic ProN', 'ヒラギノ角ゴ ProN', 'Noto Sans JP', 'Helvetica Neue', Helvetica, Arial, sans-serif" font-size="12" lengthAdjust="spacing" textLength="72.0005" x="351.9984" y="243.195">&#12381;&#12398;&#12414;&#12414;&#20986;&#21147;</text><polygon fill="#F1F1F1" points="187.2498,50,291.7491,50,303.7491,62,291.7491,74,187.2498,74,175.2498,62,187.2498,50" style="stroke:#181818;stroke-width:0.5;"/><text fill="#000000" font-family="'Segoe UI', 'メイリオ', 'UDEV Gothic HSRFJPDOC', 'Hiragino Kaku Gothic ProN', 'ヒラギノ角ゴ ProN', 'Noto Sans JP', 'Helvetica Neue', Helvetica, Arial, sans-serif" font-size="11" lengthAdjust="spacing" textLength="16.4999" x="243.4995" y="84.9999">yes</text><text fill="#000000" font-family="'Segoe UI', 'メイリオ', 'UDEV Gothic HSRFJPDOC', 'Hiragino Kaku Gothic ProN', 'ヒラギノ角ゴ ProN', 'Noto Sans JP', 'Helvetica Neue', Helvetica, Arial, sans-serif" font-size="11" lengthAdjust="spacing" textLength="104.4993" x="187.2498" y="66.015">&#27161;&#28310;&#20837;&#21147;&#12395;&#34892;&#12364;&#12354;&#12427;?</text><text fill="#000000" font-family="'Segoe UI', 'メイリオ', 'UDEV Gothic HSRFJPDOC', 'Hiragino Kaku Gothic ProN', 'ヒラギノ角ゴ ProN', 'Noto Sans JP', 'Helvetica Neue', Helvetica, Arial, sans-serif" font-size="11" lengthAdjust="spacing" textLength="10.9999" x="164.2499" y="59.03">no</text><ellipse cx="24" cy="109" fill="none" rx="11" ry="11" style="stroke:#222222;stroke-width:1;"/><ellipse cx="24" cy="109" fill="#222222" rx="6" ry="6" style="stroke:#222222;stroke-width:1;"/><line style="stroke:#181818;stroke-width:1;" x1="106.4996" x2="106.4996" y1="191.21" y2="225.1799"/><polygon fill="#181818" points="102.4996,215.1799,106.4996,225.1799,110.4996,215.1799,106.4996,219.1799" style="stroke:#181818;stroke-width:1;"/><line style="stroke:#181818;stroke-width:1;" x1="106.4996" x2="106.4996" y1="260.42" y2="280.42"/><polygon fill="#181818" points="102.4996,270.42,106.4996,280.42,110.4996,270.42,106.4996,274.42" style="stroke:#181818;stroke-width:1;"/><line style="stroke:#181818;stroke-width:1;" x1="254.9988" x2="254.9988" y1="191.21" y2="225.1799"/><polygon fill="#181818" points="250.9988,215.1799,254.9988,225.1799,258.9988,215.1799,254.9988,219.1799" style="stroke:#181818;stroke-width:1;"/><line style="stroke:#181818;stroke-width:1;" x1="254.9988" x2="254.9988" y1="260.42" y2="280.42"/><polygon fill="#181818" points="250.9988,270.42,254.9988,280.42,258.9988,270.42,254.9988,274.42" style="stroke:#181818;stroke-width:1;"/><line style="stroke:#181818;stroke-width:1;" x1="167.9992" x2="187.9992" y1="179.21" y2="179.21"/><polygon fill="#181818" points="177.9992,175.21,187.9992,179.21,177.9992,183.21,181.9992,179.21" style="stroke:#181818;stroke-width:1;"/><line style="stroke:#181818;stroke-width:1;" x1="239.4995" x2="239.4995" y1="147.21" y2="152.21"/><line style="stroke:#181818;stroke-width:1;" x1="239.4995" x2="106.4996" y1="152.21" y2="152.21"/><line style="stroke:#181818;stroke-width:1;" x1="106.4996" x2="106.4996" y1="152.21" y2="167.21"/><polygon fill="#181818" points="102.4996,157.21,106.4996,167.21,110.4996,157.21,106.4996,161.21" style="stroke:#181818;stroke-width:1;"/><line style="stroke:#181818;stroke-width:1;" x1="321.9984" x2="387.9986" y1="179.21" y2="179.21"/><line style="stroke:#181818;stroke-width:1;" x1="387.9986" x2="387.9986" y1="179.21" y2="221.195"/><polygon fill="#181818" points="383.9986,211.195,387.9986,221.195,391.9986,211.195,387.9986,215.195" style="stroke:#181818;stroke-width:1;"/><line style="stroke:#181818;stroke-width:1;" x1="387.9986" x2="387.9986" y1="256.4351" y2="280.42"/><polygon fill="#181818" points="383.9986,270.42,387.9986,280.42,391.9986,270.42,387.9986,274.42" style="stroke:#181818;stroke-width:1;"/><line style="stroke:#181818;stroke-width:1;" x1="106.4996" x2="387.9986" y1="280.42" y2="280.42"/><line style="stroke:#181818;stroke-width:1;" x1="239.4995" x2="239.4995" y1="74" y2="111.9699"/><polygon fill="#181818" points="235.4995,101.9699,239.4995,111.9699,243.4995,101.9699,239.4995,105.9699" style="stroke:#181818;stroke-width:1;"/><line style="stroke:#181818;stroke-width:1;" x1="239.4995" x2="239.4995" y1="280.42" y2="290.42"/><line style="stroke:#181818;stroke-width:1;" x1="239.4995" x2="445.9989" y1="290.42" y2="290.42"/><polygon fill="#181818" points="441.9989,194.71,445.9989,184.71,449.9989,194.71,445.9989,190.71" style="stroke:#181818;stroke-width:1;"/><line style="stroke:#181818;stroke-width:1;" x1="445.9989" x2="445.9989" y1="62" y2="290.42"/><line style="stroke:#181818;stroke-width:1;" x1="445.9989" x2="303.7491" y1="62" y2="62"/><polygon fill="#181818" points="313.7491,58,303.7491,62,313.7491,66,309.7491,62" style="stroke:#181818;stroke-width:1;"/><line style="stroke:#181818;stroke-width:1;" x1="175.2498" x2="24" y1="62" y2="62"/><line style="stroke:#181818;stroke-width:1;" x1="24" x2="24" y1="62" y2="98"/><polygon fill="#181818" points="20,88,24,98,28,88,24,92" style="stroke:#181818;stroke-width:1;"/><line style="stroke:#181818;stroke-width:1;" x1="239.4995" x2="239.4995" y1="30" y2="50"/><polygon fill="#181818" points="235.4995,40,239.4995,50,243.4995,40,239.4995,44" style="stroke:#181818;stroke-width:1;"/><!--SRC=[ioakgSn9jUEoqOSoYhCpymeIYn9p5P8IaxFJY_9ByrASytFoYnHAYXBpYe5IgNabNCKbYKKbNEKPcJcf2XhFLinyjclQqzQbJxjcFsvS_M9Xp-D686fwtDHjhwcGMQoWKPbQhCcbe605acgQz6BLsiUD-v_sJtlSr6KD5CvCKz1GLqWjAielib9GLm2gU3fXzUEc1g3caepKFBXsa05RbxpetFIuSVdJzbr0sq2wKtEAKo4cb2SMvMNcfHCou-Nk5cncA6ZavKDLF6wS-xXntUF6VK24f2Wl9JED2qX2lGrINboINm00]--></g></svg>