<svg xmlns="http://www.w3.org/2000/svg" xmlns:xlink="http://www.w3.org/1999/xlink" contentStyleType="text/css" data-diagram-type="DESCRIPTION" height="885px" preserveAspectRatio="none" style="width:900px;height:885px;" version="1.1" viewBox="0 0 900 885" width="900px" zoomAndPan="magnify"><defs/><g><!--entity src--><g class="entity" data-entity="src" data-source-line="5" data-uid="ent0002" id="entity_src"><path d="M374.5,6 L415.5,6 A3.75,3.75 0 0 1 418,8.5 L425,27 L511.4995,27 A2.5,2.5 0 0 1 513.9995,29.5 L513.9995,59.2799 A2.5,2.5 0 0 1 511.4995,61.7799 L374.5,61.7799 A2.5,2.5 0 0 1 372,59.2799 L372,8.5 A2.5,2.5 0 0 1 374.5,6" fill="#FFC0C0" style="stroke:#181818;stroke-width:0.5;"/><line style="stroke:#181818;stroke-width:0.5;" x1="372" x2="425" y1="27" y2="27"/><text fill="#000000" font-family="'Segoe UI', 'メイリオ', 'UDEV Gothic HSRFJPDOC', 'Hiragino Kaku Gothic ProN', 'ヒラギノ角ゴ ProN', 'Noto Sans JP', 'Helvetica Neue', Helvetica, Arial, sans-serif" font-size="14" lengthAdjust="spacing" textLength="111.9995" x="382" y="47.9999">&#35069;&#21697;&#12477;&#12540;&#12473;&#12467;&#12540;&#12489;</text></g><!--entity Doxygen--><g class="entity" data-entity="Doxygen" data-source-line="6" data-uid="ent0003" id="entity_Doxygen"><rect fill="#F1F1F1" height="47.7799" rx="2.5" ry="2.5" style="stroke:#181818;stroke-width:0.5;" width="88.9998" x="312.5" y="132"/><rect fill="#F1F1F1" height="10" style="stroke:#181818;stroke-width:0.5;" width="15" x="381.4998" y="137"/><rect fill="#F1F1F1" height="2" style="stroke:#181818;stroke-width:0.5;" width="4" x="379.4998" y="139"/><rect fill="#F1F1F1" height="2" style="stroke:#181818;stroke-width:0.5;" width="4" x="379.4998" y="143"/><text fill="#000000" font-family="'Segoe UI', 'メイリオ', 'UDEV Gothic HSRFJPDOC', 'Hiragino Kaku Gothic ProN', 'ヒラギノ角ゴ ProN', 'Noto Sans JP', 'Helvetica Neue', Helvetica, Arial, sans-serif" font-size="14" lengthAdjust="spacing" textLength="48.9998" x="327.5" y="165.9999">Doxygen</text></g><!--entity Doxybook2--><g class="entity" data-entity="Doxybook2" data-source-line="7" data-uid="ent0004" id="entity_Doxybook2"><rect fill="#F1F1F1" height="47.7799" rx="2.5" ry="2.5" style="stroke:#181818;stroke-width:0.5;" width="102.9997" x="305.5" y="250"/><rect fill="#F1F1F1" height="10" style="stroke:#181818;stroke-width:0.5;" width="15" x="388.4997" y="255"/><rect fill="#F1F1F1" height="2" style="stroke:#181818;stroke-width:0.5;" width="4" x="386.4997" y="257"/><rect fill="#F1F1F1" height="2" style="stroke:#181818;stroke-width:0.5;" width="4" x="386.4997" y="261"/><text fill="#000000" font-family="'Segoe UI', 'メイリオ', 'UDEV Gothic HSRFJPDOC', 'Hiragino Kaku Gothic ProN', 'ヒラギノ角ゴ ProN', 'Noto Sans JP', 'Helvetica Neue', Helvetica, Arial, sans-serif" font-size="14" lengthAdjust="spacing" textLength="62.9997" x="320.5" y="283.9999">Doxybook2</text></g><!--entity src_md--><g class="entity" data-entity="src_md" data-source-line="8" data-uid="ent0005" id="entity_src_md"><path d="M288.5,359 L329.5,359 A3.75,3.75 0 0 1 332,361.5 L339,380 L425.4995,380 A2.5,2.5 0 0 1 427.9995,382.5 L427.9995,430.0598 A2.5,2.5 0 0 1 425.4995,432.5598 L288.5,432.5598 A2.5,2.5 0 0 1 286,430.0598 L286,361.5 A2.5,2.5 0 0 1 288.5,359" fill="#F1F1F1" style="stroke:#181818;stroke-width:0.5;"/><line style="stroke:#181818;stroke-width:0.5;" x1="286" x2="339" y1="380" y2="380"/><text fill="#000000" font-family="'Segoe UI', 'メイリオ', 'UDEV Gothic HSRFJPDOC', 'Hiragino Kaku Gothic ProN', 'ヒラギノ角ゴ ProN', 'Noto Sans JP', 'Helvetica Neue', Helvetica, Arial, sans-serif" font-size="14" lengthAdjust="spacing" textLength="111.9995" x="296" y="400.9999">&#35069;&#21697;&#12489;&#12461;&#12517;&#12513;&#12531;&#12488;</text><text fill="#000000" font-family="'Segoe UI', 'メイリオ', 'UDEV Gothic HSRFJPDOC', 'Hiragino Kaku Gothic ProN', 'ヒラギノ角ゴ ProN', 'Noto Sans JP', 'Helvetica Neue', Helvetica, Arial, sans-serif" font-size="14" lengthAdjust="spacing" textLength="69.9997" x="296" y="418.7799">(Markdown)</text></g><!--entity test_src--><g class="entity" data-entity="test_src" data-source-line="9" data-uid="ent0006" id="entity_test_src"><path d="M707.5,6 L748.5,6 A3.75,3.75 0 0 1 751,8.5 L758,27 L872.4994,27 A2.5,2.5 0 0 1 874.9994,29.5 L874.9994,59.2799 A2.5,2.5 0 0 1 872.4994,61.7799 L707.5,61.7799 A2.5,2.5 0 0 1 705,59.2799 L705,8.5 A2.5,2.5 0 0 1 707.5,6" fill="#FFC0C0" style="stroke:#181818;stroke-width:0.5;"/><line style="stroke:#181818;stroke-width:0.5;" x1="705" x2="758" y1="27" y2="27"/><text fill="#000000" font-family="'Segoe UI', 'メイリオ', 'UDEV Gothic HSRFJPDOC', 'Hiragino Kaku Gothic ProN', 'ヒラギノ角ゴ ProN', 'Noto Sans JP', 'Helvetica Neue', Helvetica, Arial, sans-serif" font-size="14" lengthAdjust="spacing" textLength="139.9994" x="715" y="47.9999">&#12486;&#12473;&#12488;&#12398;&#12477;&#12540;&#12473;&#12467;&#12540;&#12489;</text></g><!--entity test_evi--><g class="entity" data-entity="test_evi" data-source-line="10" data-uid="ent0007" id="entity_test_evi"><path d="M667.5,668 L708.5,668 A3.75,3.75 0 0 1 711,670.5 L718,689 L818.4995,689 A2.5,2.5 0 0 1 820.9995,691.5 L820.9995,739.0598 A2.5,2.5 0 0 1 818.4995,741.5598 L667.5,741.5598 A2.5,2.5 0 0 1 665,739.0598 L665,670.5 A2.5,2.5 0 0 1 667.5,668" fill="#F1F1F1" style="stroke:#181818;stroke-width:0.5;"/><line style="stroke:#181818;stroke-width:0.5;" x1="665" x2="718" y1="689" y2="689"/><text fill="#000000" font-family="'Segoe UI', 'メイリオ', 'UDEV Gothic HSRFJPDOC', 'Hiragino Kaku Gothic ProN', 'ヒラギノ角ゴ ProN', 'Noto Sans JP', 'Helvetica Neue', Helvetica, Arial, sans-serif" font-size="14" lengthAdjust="spacing" textLength="83.9996" x="675" y="709.9999">&#21336;&#20307;&#35430;&#39443;&#32080;&#26524;</text><text fill="#000000" font-family="'Segoe UI', 'メイリオ', 'UDEV Gothic HSRFJPDOC', 'Hiragino Kaku Gothic ProN', 'ヒラギノ角ゴ ProN', 'Noto Sans JP', 'Helvetica Neue', Helvetica, Arial, sans-serif" font-size="14" lengthAdjust="spacing" textLength="125.9995" x="675" y="727.7799">(&#12486;&#12473;&#12488;&#12456;&#12499;&#12487;&#12531;&#12473;)</text></g><!--entity gcov--><g class="entity" data-entity="gcov" data-source-line="11" data-uid="ent0008" id="entity_gcov"><rect fill="#F1F1F1" height="47.7799" rx="2.5" ry="2.5" style="stroke:#181818;stroke-width:0.5;" width="186.9994" x="640.5" y="372"/><rect fill="#F1F1F1" height="10" style="stroke:#181818;stroke-width:0.5;" width="15" x="807.4994" y="377"/><rect fill="#F1F1F1" height="2" style="stroke:#181818;stroke-width:0.5;" width="4" x="805.4994" y="379"/><rect fill="#F1F1F1" height="2" style="stroke:#181818;stroke-width:0.5;" width="4" x="805.4994" y="383"/><text fill="#000000" font-family="'Segoe UI', 'メイリオ', 'UDEV Gothic HSRFJPDOC', 'Hiragino Kaku Gothic ProN', 'ヒラギノ角ゴ ProN', 'Noto Sans JP', 'Helvetica Neue', Helvetica, Arial, sans-serif" font-size="14" lengthAdjust="spacing" textLength="146.9994" x="655.5" y="405.9999">gcov / OpenCppCovrage</text></g><!--entity lcov--><g class="entity" data-entity="lcov" data-source-line="12" data-uid="ent0009" id="entity_lcov"><rect fill="#F1F1F1" height="47.7799" rx="2.5" ry="2.5" style="stroke:#181818;stroke-width:0.5;" width="193.9993" x="646" y="494"/><rect fill="#F1F1F1" height="10" style="stroke:#181818;stroke-width:0.5;" width="15" x="819.9993" y="499"/><rect fill="#F1F1F1" height="2" style="stroke:#181818;stroke-width:0.5;" width="4" x="817.9993" y="501"/><rect fill="#F1F1F1" height="2" style="stroke:#181818;stroke-width:0.5;" width="4" x="817.9993" y="505"/><text fill="#000000" font-family="'Segoe UI', 'メイリオ', 'UDEV Gothic HSRFJPDOC', 'Hiragino Kaku Gothic ProN', 'ヒラギノ角ゴ ProN', 'Noto Sans JP', 'Helvetica Neue', Helvetica, Arial, sans-serif" font-size="14" lengthAdjust="spacing" textLength="153.9993" x="661" y="527.9999">lcov / ReportGenerator</text></g><!--entity gtest--><g class="entity" data-entity="gtest" data-source-line="13" data-uid="ent0010" id="entity_gtest"><rect fill="#F1F1F1" height="65.5598" rx="2.5" ry="2.5" style="stroke:#181818;stroke-width:0.5;" width="144.9995" x="717.5" y="123"/><rect fill="#F1F1F1" height="10" style="stroke:#181818;stroke-width:0.5;" width="15" x="842.4995" y="128"/><rect fill="#F1F1F1" height="2" style="stroke:#181818;stroke-width:0.5;" width="4" x="840.4995" y="130"/><rect fill="#F1F1F1" height="2" style="stroke:#181818;stroke-width:0.5;" width="4" x="840.4995" y="134"/><text fill="#000000" font-family="'Segoe UI', 'メイリオ', 'UDEV Gothic HSRFJPDOC', 'Hiragino Kaku Gothic ProN', 'ヒラギノ角ゴ ProN', 'Noto Sans JP', 'Helvetica Neue', Helvetica, Arial, sans-serif" font-size="14" lengthAdjust="spacing" textLength="76.9997" x="732.5" y="156.9999">Google Test</text><text fill="#000000" font-family="'Segoe UI', 'メイリオ', 'UDEV Gothic HSRFJPDOC', 'Hiragino Kaku Gothic ProN', 'ヒラギノ角ゴ ProN', 'Noto Sans JP', 'Helvetica Neue', Helvetica, Arial, sans-serif" font-size="14" lengthAdjust="spacing" textLength="104.9995" x="732.5" y="174.7799">(w/Google Mock)</text></g><!--entity docs_md--><g class="entity" data-entity="docs_md" data-source-line="14" data-uid="ent0011" id="entity_docs_md"><path d="M465.5,359 L506.5,359 A3.75,3.75 0 0 1 509,361.5 L516,380 L602.4995,380 A2.5,2.5 0 0 1 604.9995,382.5 L604.9995,430.0598 A2.5,2.5 0 0 1 602.4995,432.5598 L465.5,432.5598 A2.5,2.5 0 0 1 463,430.0598 L463,361.5 A2.5,2.5 0 0 1 465.5,359" fill="#FFC0C0" style="stroke:#181818;stroke-width:0.5;"/><line style="stroke:#181818;stroke-width:0.5;" x1="463" x2="516" y1="380" y2="380"/><text fill="#000000" font-family="'Segoe UI', 'メイリオ', 'UDEV Gothic HSRFJPDOC', 'Hiragino Kaku Gothic ProN', 'ヒラギノ角ゴ ProN', 'Noto Sans JP', 'Helvetica Neue', Helvetica, Arial, sans-serif" font-size="14" lengthAdjust="spacing" textLength="111.9995" x="473" y="400.9999">&#38306;&#36899;&#12489;&#12461;&#12517;&#12513;&#12531;&#12488;</text><text fill="#000000" font-family="'Segoe UI', 'メイリオ', 'UDEV Gothic HSRFJPDOC', 'Hiragino Kaku Gothic ProN', 'ヒラギノ角ゴ ProN', 'Noto Sans JP', 'Helvetica Neue', Helvetica, Arial, sans-serif" font-size="14" lengthAdjust="spacing" textLength="69.9997" x="473" y="418.7799">(Markdown)</text></g><!--entity Pandoc--><g class="entity" data-entity="Pandoc" data-source-line="15" data-uid="ent0012" id="entity_Pandoc"><rect fill="#F1F1F1" height="47.7799" rx="2.5" ry="2.5" style="stroke:#181818;stroke-width:0.5;" width="81.9998" x="316" y="494"/><rect fill="#F1F1F1" height="10" style="stroke:#181818;stroke-width:0.5;" width="15" x="377.9998" y="499"/><rect fill="#F1F1F1" height="2" style="stroke:#181818;stroke-width:0.5;" width="4" x="375.9998" y="501"/><rect fill="#F1F1F1" height="2" style="stroke:#181818;stroke-width:0.5;" width="4" x="375.9998" y="505"/><text fill="#000000" font-family="'Segoe UI', 'メイリオ', 'UDEV Gothic HSRFJPDOC', 'Hiragino Kaku Gothic ProN', 'ヒラギノ角ゴ ProN', 'Noto Sans JP', 'Helvetica Neue', Helvetica, Arial, sans-serif" font-size="14" lengthAdjust="spacing" textLength="41.9998" x="331" y="527.9999">Pandoc</text></g><!--entity html--><g class="entity" data-entity="html" data-source-line="16" data-uid="ent0013" id="entity_html"><path d="M156.5,668 L197.5,668 A3.75,3.75 0 0 1 200,670.5 L207,689 L265.4996,689 A2.5,2.5 0 0 1 267.9996,691.5 L267.9996,739.0598 A2.5,2.5 0 0 1 265.4996,741.5598 L156.5,741.5598 A2.5,2.5 0 0 1 154,739.0598 L154,670.5 A2.5,2.5 0 0 1 156.5,668" fill="#F1F1F1" style="stroke:#181818;stroke-width:0.5;"/><line style="stroke:#181818;stroke-width:0.5;" x1="154" x2="207" y1="689" y2="689"/><text fill="#000000" font-family="'Segoe UI', 'メイリオ', 'UDEV Gothic HSRFJPDOC', 'Hiragino Kaku Gothic ProN', 'ヒラギノ角ゴ ProN', 'Noto Sans JP', 'Helvetica Neue', Helvetica, Arial, sans-serif" font-size="14" lengthAdjust="spacing" textLength="83.9996" x="164" y="709.9999">&#12489;&#12461;&#12517;&#12513;&#12531;&#12488;</text><text fill="#000000" font-family="'Segoe UI', 'メイリオ', 'UDEV Gothic HSRFJPDOC', 'Hiragino Kaku Gothic ProN', 'ヒラギノ角ゴ ProN', 'Noto Sans JP', 'Helvetica Neue', Helvetica, Arial, sans-serif" font-size="14" lengthAdjust="spacing" textLength="41.9998" x="164" y="727.7799">(HTML)</text></g><!--entity docx--><g class="entity" data-entity="docx" data-source-line="17" data-uid="ent0014" id="entity_docx"><path d="M305.5,668 L346.5,668 A3.75,3.75 0 0 1 349,670.5 L356,689 L414.4996,689 A2.5,2.5 0 0 1 416.9996,691.5 L416.9996,739.0598 A2.5,2.5 0 0 1 414.4996,741.5598 L305.5,741.5598 A2.5,2.5 0 0 1 303,739.0598 L303,670.5 A2.5,2.5 0 0 1 305.5,668" fill="#F1F1F1" style="stroke:#181818;stroke-width:0.5;"/><line style="stroke:#181818;stroke-width:0.5;" x1="303" x2="356" y1="689" y2="689"/><text fill="#000000" font-family="'Segoe UI', 'メイリオ', 'UDEV Gothic HSRFJPDOC', 'Hiragino Kaku Gothic ProN', 'ヒラギノ角ゴ ProN', 'Noto Sans JP', 'Helvetica Neue', Helvetica, Arial, sans-serif" font-size="14" lengthAdjust="spacing" textLength="83.9996" x="313" y="709.9999">&#12489;&#12461;&#12517;&#12513;&#12531;&#12488;</text><text fill="#000000" font-family="'Segoe UI', 'メイリオ', 'UDEV Gothic HSRFJPDOC', 'Hiragino Kaku Gothic ProN', 'ヒラギノ角ゴ ProN', 'Noto Sans JP', 'Helvetica Neue', Helvetica, Arial, sans-serif" font-size="14" lengthAdjust="spacing" textLength="41.9998" x="313" y="727.7799">(DOCX)</text></g><g class="entity" data-entity="GMN15" data-source-line="19" data-uid="ent0016" id="entity_GMN15"><path d="M330,828.5 L330,855.01 A0,0 0 0 0 330,855.01 L390,855.01 A0,0 0 0 0 390,855.01 L390,838.5 L380,828.5 L364,828.5 L360,742.0742 L356,828.5 L330,828.5 A0,0 0 0 0 330,828.5" fill="#FEFFDD" style="stroke:#181818;stroke-width:0.5;"/><path d="M380,828.5 L380,838.5 L390,838.5 L380,828.5" fill="#FEFFDD" style="stroke:#181818;stroke-width:0.5;"/><text fill="#000000" font-family="'Segoe UI', 'メイリオ', 'UDEV Gothic HSRFJPDOC', 'Hiragino Kaku Gothic ProN', 'ヒラギノ角ゴ ProN', 'Noto Sans JP', 'Helvetica Neue', Helvetica, Arial, sans-serif" font-size="13" lengthAdjust="spacing" textLength="39" x="336" y="846.5">&#32013;&#21697;&#29992;</text></g><!--entity developer--><g class="entity" data-entity="developer" data-source-line="21" data-uid="ent0018" id="entity_developer"><ellipse cx="138.9999" cy="811.5" fill="#F1F1F1" rx="8" ry="8" style="stroke:#181818;stroke-width:0.5;"/><path d="M138.9999,819.5 L138.9999,846.5 M125.9999,827.5 L151.9999,827.5 M138.9999,846.5 L125.9999,861.5 M138.9999,846.5 L151.9999,861.5" fill="none" style="stroke:#181818;stroke-width:0.5;"/><text fill="#000000" font-family="'Segoe UI', 'メイリオ', 'UDEV Gothic HSRFJPDOC', 'Hiragino Kaku Gothic ProN', 'ヒラギノ角ゴ ProN', 'Noto Sans JP', 'Helvetica Neue', Helvetica, Arial, sans-serif" font-size="14" lengthAdjust="spacing" textLength="41.9998" x="118" y="876.9999">&#38283;&#30330;&#32773;</text></g><!--entity vscode--><g class="entity" data-entity="vscode" data-source-line="22" data-uid="ent0019" id="entity_vscode"><rect fill="#F1F1F1" height="65.5598" rx="2.5" ry="2.5" style="stroke:#181818;stroke-width:0.5;" width="151.9995" x="7" y="572"/><rect fill="#F1F1F1" height="10" style="stroke:#181818;stroke-width:0.5;" width="15" x="138.9995" y="577"/><rect fill="#F1F1F1" height="2" style="stroke:#181818;stroke-width:0.5;" width="4" x="136.9995" y="579"/><rect fill="#F1F1F1" height="2" style="stroke:#181818;stroke-width:0.5;" width="4" x="136.9995" y="583"/><text fill="#000000" font-family="'Segoe UI', 'メイリオ', 'UDEV Gothic HSRFJPDOC', 'Hiragino Kaku Gothic ProN', 'ヒラギノ角ゴ ProN', 'Noto Sans JP', 'Helvetica Neue', Helvetica, Arial, sans-serif" font-size="14" lengthAdjust="spacing" textLength="48.9998" x="22" y="605.9999">VS Code</text><text fill="#000000" font-family="'Segoe UI', 'メイリオ', 'UDEV Gothic HSRFJPDOC', 'Hiragino Kaku Gothic ProN', 'ヒラギノ角ゴ ProN', 'Noto Sans JP', 'Helvetica Neue', Helvetica, Arial, sans-serif" font-size="14" lengthAdjust="spacing" textLength="111.9995" x="22" y="623.7799">(&#12452;&#12531;&#12486;&#12522;&#12475;&#12531;&#12473;)</text></g><!--entity llm--><g class="entity" data-entity="llm" data-source-line="23" data-uid="ent0020" id="entity_llm"><rect fill="#F1F1F1" height="47.7799" rx="2.5" ry="2.5" style="stroke:#181818;stroke-width:0.5;" width="130.9996" x="455.5" y="681"/><rect fill="#F1F1F1" height="10" style="stroke:#181818;stroke-width:0.5;" width="15" x="566.4996" y="686"/><rect fill="#F1F1F1" height="2" style="stroke:#181818;stroke-width:0.5;" width="4" x="564.4996" y="688"/><rect fill="#F1F1F1" height="2" style="stroke:#181818;stroke-width:0.5;" width="4" x="564.4996" y="692"/><text fill="#000000" font-family="'Segoe UI', 'メイリオ', 'UDEV Gothic HSRFJPDOC', 'Hiragino Kaku Gothic ProN', 'ヒラギノ角ゴ ProN', 'Noto Sans JP', 'Helvetica Neue', Helvetica, Arial, sans-serif" font-size="14" lengthAdjust="spacing" textLength="90.9996" x="470.5" y="714.9999">AI (LLM, RAG)</text></g><g class="entity" data-entity="GMN21" data-source-line="25" data-uid="ent0022" id="entity_GMN21"><path d="M439,820.5 L439,863.52 A0,0 0 0 0 439,863.52 L603.0001,863.52 A0,0 0 0 0 603.0001,863.52 L603.0001,830.5 L593.0001,820.5 L525,820.5 L521,729.1775 L517,820.5 L439,820.5 A0,0 0 0 0 439,820.5" fill="#FEFFDD" style="stroke:#181818;stroke-width:0.5;"/><path d="M593.0001,820.5 L593.0001,830.5 L603.0001,830.5 L593.0001,820.5" fill="#FEFFDD" style="stroke:#181818;stroke-width:0.5;"/><text fill="#000000" font-family="'Segoe UI', 'メイリオ', 'UDEV Gothic HSRFJPDOC', 'Hiragino Kaku Gothic ProN', 'ヒラギノ角ゴ ProN', 'Noto Sans JP', 'Helvetica Neue', Helvetica, Arial, sans-serif" font-size="13" lengthAdjust="spacing" textLength="143.0001" x="445" y="838.5">AI &#12398;&#20837;&#21147;&#12487;&#12540;&#12479; &#12392;&#12375;&#12390;</text><text fill="#000000" font-family="'Segoe UI', 'メイリオ', 'UDEV Gothic HSRFJPDOC', 'Hiragino Kaku Gothic ProN', 'ヒラギノ角ゴ ProN', 'Noto Sans JP', 'Helvetica Neue', Helvetica, Arial, sans-serif" font-size="13" lengthAdjust="spacing" textLength="97.5" x="445" y="855.01">Markdown &#12434;&#27963;&#29992;</text></g><!--link src to Doxygen--><g class="link" data-entity-1="src" data-entity-2="Doxygen" data-source-line="28" data-uid="lnk24" id="link_src_Doxygen"><path d="M423.0537,62.2959 C408.1678,83.4131 391.5055,107.0503 377.3964,127.0655" fill="none" id="src-to-Doxygen" style="stroke:#181818;stroke-width:1;"/><polygon fill="#181818" points="373.9395,131.9695,382.3943,126.9181,376.8203,127.8828,375.8556,122.3088,373.9395,131.9695" style="stroke:#181818;stroke-width:1;"/></g><!--link Doxygen to Doxybook2--><g class="link" data-entity-1="Doxygen" data-entity-2="Doxybook2" data-source-line="29" data-uid="lnk25" id="link_Doxygen_Doxybook2"><path d="M357,180.1638 C357,200.5267 357,223.5148 357,243.8685" fill="none" id="Doxygen-to-Doxybook2" style="stroke:#181818;stroke-width:1;"/><polygon fill="#181818" points="357,249.8685,361,240.8685,357,244.8685,353,240.8685,357,249.8685" style="stroke:#181818;stroke-width:1;"/></g><!--link Doxybook2 to src_md--><g class="link" data-entity-1="Doxybook2" data-entity-2="src_md" data-source-line="30" data-uid="lnk26" id="link_Doxybook2_src_md"><path d="M357,298.1033 C357,315.4639 357,354.2112 357,373.9691" fill="none" id="Doxybook2-to-src_md" style="stroke:#181818;stroke-width:1;"/><polygon fill="#181818" points="357,379.9691,361,370.9691,357,374.9691,353,370.9691,357,379.9691" style="stroke:#181818;stroke-width:1;"/></g><!--link Doxygen to html--><g class="link" data-entity-1="Doxygen" data-entity-2="html" data-source-line="31" data-uid="lnk27" id="link_Doxygen_html"><path d="M312.2332,176.236 C276.7148,195.6994 233,228.8295 233,274 C233,274 233,274 233,518 C233,570.3027 225.4194,645.3601 218.974,682.9834" fill="none" id="Doxygen-to-html" style="stroke:#181818;stroke-width:1;"/><polygon fill="#181818" points="217.9609,688.8972,223.4232,680.7018,218.8052,683.969,215.538,679.351,217.9609,688.8972" style="stroke:#181818;stroke-width:1;"/></g><!--link src to gtest--><g class="link" data-entity-1="src" data-entity-2="gtest" data-source-line="32" data-uid="lnk28" id="link_src_gtest"><path d="M514.2238,46.9177 C560.6611,56.5391 622.0597,71.55 674,92 C695.2946,100.3841 712.3457,108.95 731.6099,119.92" fill="none" id="src-to-gtest" style="stroke:#181818;stroke-width:1;"/><polygon fill="#181818" points="736.8238,122.8891,730.9823,114.9596,732.4789,120.4149,727.0236,121.9115,736.8238,122.8891" style="stroke:#181818;stroke-width:1;"/></g><!--link src to gcov--><g class="link" data-entity-1="src" data-entity-2="gcov" data-source-line="33" data-uid="lnk29" id="link_src_gcov"><path d="M465.5921,62.1043 C520.8771,130.878 658.4882,302.0643 710.581,366.8671" fill="none" id="src-to-gcov" style="stroke:#181818;stroke-width:1;"/><polygon fill="#181818" points="714.3402,371.5435,711.819,362.0228,711.2075,367.6465,705.5838,367.0351,714.3402,371.5435" style="stroke:#181818;stroke-width:1;"/></g><!--link gcov to lcov--><g class="link" data-entity-1="gcov" data-entity-2="lcov" data-source-line="34" data-uid="lnk30" id="link_gcov_lcov"><path d="M735.7781,420.1033 C737.3559,441.4915 739.2075,466.59 740.7842,487.9631" fill="none" id="gcov-to-lcov" style="stroke:#181818;stroke-width:1;"/><polygon fill="#181818" points="741.2256,493.9468,744.5526,484.6769,740.8577,488.9603,736.5743,485.2655,741.2256,493.9468" style="stroke:#181818;stroke-width:1;"/></g><!--link gcov to test_evi--><g class="link" data-entity-1="gcov" data-entity-2="test_evi" data-source-line="35" data-uid="lnk31" id="link_gcov_test_evi"><path d="M694.698,420.0172 C670.5073,437.2538 641.6082,462.8859 628,494 C619.4514,513.5457 621.5488,521.6655 628,542 C643.3953,590.5265 675.031,632.5948 702.584,663.4312" fill="none" id="gcov-to-test_evi" style="stroke:#181818;stroke-width:1;"/><polygon fill="#181818" points="706.5817,667.9053,703.5678,658.5289,703.2502,664.1768,697.6023,663.8592,706.5817,667.9053" style="stroke:#181818;stroke-width:1;"/></g><!--link lcov to test_evi--><g class="link" data-entity-1="lcov" data-entity-2="test_evi" data-source-line="36" data-uid="lnk32" id="link_lcov_test_evi"><path d="M743,542.0642 C743,573.9262 743,645.4331 743,682.8094" fill="none" id="lcov-to-test_evi" style="stroke:#181818;stroke-width:1;"/><polygon fill="#181818" points="743,688.8094,747,679.8094,743,683.8094,739,679.8094,743,688.8094" style="stroke:#181818;stroke-width:1;"/></g><!--link test_src to gtest--><g class="link" data-entity-1="test_src" data-entity-2="gtest" data-source-line="37" data-uid="lnk33" id="link_test_src_gtest"><path d="M790,62.2959 C790,80.3159 790,97.7419 790,116.663" fill="none" id="test_src-to-gtest" style="stroke:#181818;stroke-width:1;"/><polygon fill="#181818" points="790,122.663,794,113.663,790,117.663,786,113.663,790,122.663" style="stroke:#181818;stroke-width:1;"/></g><!--link gtest to test_evi--><g class="link" data-entity-1="gtest" data-entity-2="test_evi" data-source-line="38" data-uid="lnk34" id="link_gtest_test_evi"><path d="M841.8018,189.1391 C867.4508,209.9239 893,239.3293 893,274 C893,274 893,274 893,518 C893,580.637 845.8765,651.5509 803.1471,685.1073" fill="none" id="gtest-to-test_evi" style="stroke:#181818;stroke-width:1;"/><polygon fill="#181818" points="798.4283,688.8131,807.977,686.4003,802.3606,685.7249,803.036,680.1085,798.4283,688.8131" style="stroke:#181818;stroke-width:1;"/></g><!--link docs_md to Pandoc--><g class="link" data-entity-1="docs_md" data-entity-2="Pandoc" data-source-line="39" data-uid="lnk35" id="link_docs_md_Pandoc"><path d="M479.9324,433.2669 C451.3645,452.9578 422.0658,473.1524 396.9857,490.4392" fill="none" id="docs_md-to-Pandoc" style="stroke:#181818;stroke-width:1;"/><polygon fill="#181818" points="392.0455,493.8443,401.7258,492.0301,396.1623,491.0067,397.1857,485.4432,392.0455,493.8443" style="stroke:#181818;stroke-width:1;"/></g><!--link src_md to Pandoc--><g class="link" data-entity-1="src_md" data-entity-2="Pandoc" data-source-line="40" data-uid="lnk36" id="link_src_md_Pandoc"><path d="M357,433.2669 C357,452.8877 357,470.3896 357,487.6595" fill="none" id="src_md-to-Pandoc" style="stroke:#181818;stroke-width:1;"/><polygon fill="#181818" points="357,493.6595,361,484.6595,357,488.6595,353,484.6595,357,493.6595" style="stroke:#181818;stroke-width:1;"/></g><!--link Pandoc to html--><g class="link" data-entity-1="Pandoc" data-entity-2="html" data-source-line="41" data-uid="lnk37" id="link_Pandoc_html"><path d="M338.2119,542.0642 C313.3357,573.9262 272.9104,646.7038 243.7289,684.0801" fill="none" id="Pandoc-to-html" style="stroke:#181818;stroke-width:1;"/><polygon fill="#181818" points="240.0365,688.8094,248.728,684.1771,243.1135,684.8683,242.4222,679.2539,240.0365,688.8094" style="stroke:#181818;stroke-width:1;"/></g><!--link Pandoc to docx--><g class="link" data-entity-1="Pandoc" data-entity-2="docx" data-source-line="42" data-uid="lnk38" id="link_Pandoc_docx"><path d="M357.3861,542.0642 C357.8972,573.9262 358.7074,645.4339 359.3071,682.8102" fill="none" id="Pandoc-to-docx" style="stroke:#181818;stroke-width:1;"/><polygon fill="#181818" points="359.4034,688.8094,363.2585,679.7464,359.3232,683.81,355.2595,679.8747,359.4034,688.8094" style="stroke:#181818;stroke-width:1;"/></g><!--link html to developer--><g class="link" data-entity-1="html" data-entity-2="developer" data-source-line="43" data-uid="lnk39" id="link_html_developer"><path d="M191.5158,742.0742 C181.6039,760.9343 172.3506,778.5412 162.2979,797.6693" fill="none" id="html-to-developer" style="stroke:#181818;stroke-width:1;"/><polygon fill="#181818" points="159.5066,802.9805,167.2343,796.8746,161.8327,798.5545,160.1527,793.1529,159.5066,802.9805" style="stroke:#181818;stroke-width:1;"/></g><!--link docs_md to llm--><g class="link" data-entity-1="docs_md" data-entity-2="llm" data-source-line="44" data-uid="lnk40" id="link_docs_md_llm"><path d="M532.4319,433.2726 C529.7306,497.4793 524.5248,621.2176 522.2662,674.9034" fill="none" id="docs_md-to-llm" style="stroke:#181818;stroke-width:1;"/><polygon fill="#181818" points="522.014,680.8981,526.3888,672.0742,522.2242,675.9025,518.3958,671.7379,522.014,680.8981" style="stroke:#181818;stroke-width:1;"/></g><!--link src_md to llm--><g class="link" data-entity-1="src_md" data-entity-2="llm" data-source-line="45" data-uid="lnk41" id="link_src_md_llm"><path d="M379.9214,433.3466 C390.843,451.4855 403.9109,473.7 415,494 C451.4559,560.737 488.1462,636.1323 507.0159,675.5784" fill="none" id="src_md-to-llm" style="stroke:#181818;stroke-width:1;"/><polygon fill="#181818" points="509.6051,680.991,509.3297,671.146,507.4474,676.4805,502.1129,674.5983,509.6051,680.991" style="stroke:#181818;stroke-width:1;"/></g><!--link src to vscode--><g class="link" data-entity-1="src" data-entity-2="vscode" data-source-line="46" data-uid="lnk42" id="link_src_vscode"><path d="M371.8531,42.7921 C264.626,58.0573 74,93.9247 74,156 C74,156 74,156 74,463.5 C74,500.6696 76.5955,537.2447 79.1641,565.897" fill="none" id="src-to-vscode" style="stroke:#181818;stroke-width:1;"/><polygon fill="#181818" points="79.6998,571.873,82.8802,562.5518,79.2534,566.893,74.9122,563.2661,79.6998,571.873" style="stroke:#181818;stroke-width:1;"/><text fill="#000000" font-family="'Segoe UI', 'メイリオ', 'UDEV Gothic HSRFJPDOC', 'Hiragino Kaku Gothic ProN', 'ヒラギノ角ゴ ProN', 'Noto Sans JP', 'Helvetica Neue', Helvetica, Arial, sans-serif" font-size="13" lengthAdjust="spacing" textLength="52.0001" x="101" y="270.5">&#12504;&#12483;&#12480;&#12398;</text><text fill="#000000" font-family="'Segoe UI', 'メイリオ', 'UDEV Gothic HSRFJPDOC', 'Hiragino Kaku Gothic ProN', 'ヒラギノ角ゴ ProN', 'Noto Sans JP', 'Helvetica Neue', Helvetica, Arial, sans-serif" font-size="13" lengthAdjust="spacing" textLength="104.0001" x="75" y="287.01">Doxygen &#12467;&#12513;&#12531;&#12488;</text></g><!--link vscode to developer--><g class="link" data-entity-1="vscode" data-entity-2="developer" data-source-line="47" data-uid="lnk43" id="link_vscode_developer"><path d="M90.8455,638.2034 C101.0499,681.39 117.4722,750.891 128.3373,796.8739" fill="none" id="vscode-to-developer" style="stroke:#181818;stroke-width:1;"/><polygon fill="#181818" points="129.717,802.7131,131.5402,793.0345,128.5672,797.8471,123.7546,794.8741,129.717,802.7131" style="stroke:#181818;stroke-width:1;"/></g><!--SRC=[ZLHDQnD16BxtLmprqe8XnQEKGaaX2WcLMiH3eMns9sl9xBpBx9gsjsI7rbOfY16jA8BMbYZenNgeDVXZnZJ9lt1cDhlPtMxGFRtppFD-FxEBdhzByDBCOd5iU8qjwXhCS53DC1isWyVKAW41XdncK4zUOUhF8FdLWLYOeTdXIQ_VQOkW9_Wl4Lo8uBio-E4iCZpaCHFTgDVD1ND1EvdWk41b2BG2ExisfZbe3Q1nAoy5FnJ1Ly5F1VyWkCnoi47dgWPhMB1DvwDqcuwLyXLyNrN53qJxsvGYVUpvczbA8__-qV6VNcVu-MpKxGn-FBzw_qvcdGGDke9t17-Y2WekvYVnS7ChqzkiRK8J5T6gYsd9TKlGP8QDjOUwoR99o5x3BZ2_Z2bcXWzCqqaElGnW4upMPMvPu7PnVAw2sGYhibLPgTP6hpwEMYV_CLOBJ4_ETSecxnbK4Z93pubvPxrQ2UCzyXtoR_xAQkbXd7z7yodu6DN0zy7HP_KDpe-aE0Olknh1rD8iVJ1CEJ7LvxF1cv_3rbuO33Sn0HUpx0GVt4SbiB1QR_19Lx4l-1SHN2Pts_HCoScwBjz5SvLAzIPQMow7F4ASgHLBjXHZV- -q__IjbewKv6y9TKNxjMYVnRne2KW4BwxEBtDRLB8j59PIpsbin_ZaGSKdVPTuBKcNU3jHx8boOYGIe9QqGiWr9FKAI2uQFxnq5cr9h73D8HAYkaZ8BcmaYuPckgK45ejANOP8IXd9ND4suqHfBAer50UwZGG_5fmBtf9xtg3HSFLVPwnlxJhc9rF_1G00]--></g></svg>