<svg xmlns="http://www.w3.org/2000/svg" xmlns:xlink="http://www.w3.org/1999/xlink" contentStyleType="text/css" data-diagram-type="DESCRIPTION" height="365px" preserveAspectRatio="none" style="width:456px;height:365px;" version="1.1" viewBox="0 0 456 365" width="456px" zoomAndPan="magnify"><defs/><g><!--entity Mock--><g class="entity" data-entity="Mock" data-source-line="5" data-uid="ent0002" id="entity_Mock"><path d="M47,303.5 L47,336.2799 A2.5,2.5 0 0 0 49.5,338.7799 L106.4998,338.7799 A2.5,2.5 0 0 0 108.9998,336.2799 L108.9998,311 L98.9998,301 L49.5,301 A2.5,2.5 0 0 0 47,303.5" fill="#F1F1F1" style="stroke:#181818;stroke-width:0.5;"/><path d="M98.9998,301 L98.9998,308.5 A2.5,2.5 0 0 0 101.4998,311 L108.9998,311" fill="#F1F1F1" style="stroke:#181818;stroke-width:0.5;"/><text fill="#000000" font-family="'Segoe UI', 'メイリオ', 'UDEV Gothic HSRFJPDOC', 'Hiragino Kaku Gothic ProN', 'ヒラギノ角ゴ ProN', 'Noto Sans JP', 'Helvetica Neue', Helvetica, Arial, sans-serif" font-size="14" lengthAdjust="spacing" textLength="41.9998" x="57" y="324.9999">mock.c</text></g><g class="entity" data-entity="GMN3" data-source-line="7" data-uid="ent0004" id="entity_GMN3"><path d="M144.5,282 L144.5,316 L109.1816,320 L144.5,324 L144.5,358.0401 A0,0 0 0 0 144.5,358.0401 L321.5,358.0401 A0,0 0 0 0 321.5,358.0401 L321.5,292 L311.5,282 L144.5,282 A0,0 0 0 0 144.5,282" fill="#FEFFDD" style="stroke:#181818;stroke-width:0.5;"/><path d="M311.5,282 L311.5,292 L321.5,292 L311.5,282" fill="#FEFFDD" style="stroke:#181818;stroke-width:0.5;"/><text fill="#000000" font-family="'Segoe UI', 'メイリオ', 'UDEV Gothic HSRFJPDOC', 'Hiragino Kaku Gothic ProN', 'ヒラギノ角ゴ ProN', 'Noto Sans JP', 'Helvetica Neue', Helvetica, Arial, sans-serif" font-size="13" lengthAdjust="spacing" textLength="156" x="150.5" y="300">&#12288;#pragma weak real_func</text><text fill="#000000" font-family="'Segoe UI', 'メイリオ', 'UDEV Gothic HSRFJPDOC', 'Hiragino Kaku Gothic ProN', 'ヒラギノ角ゴ ProN', 'Noto Sans JP', 'Helvetica Neue', Helvetica, Arial, sans-serif" font-size="13" lengthAdjust="spacing" textLength="130" x="150.5" y="316.51">&#12288;void real_func() {</text><text fill="#000000" font-family="'Segoe UI', 'メイリオ', 'UDEV Gothic HSRFJPDOC', 'Hiragino Kaku Gothic ProN', 'ヒラギノ角ゴ ProN', 'Noto Sans JP', 'Helvetica Neue', Helvetica, Arial, sans-serif" font-size="13" lengthAdjust="spacing" textLength="110.5001" x="150.5" y="333.02">&#12288;&#12288;// &#12514;&#12483;&#12463;&#23455;&#35013;</text><text fill="#000000" font-family="'Segoe UI', 'メイリオ', 'UDEV Gothic HSRFJPDOC', 'Hiragino Kaku Gothic ProN', 'ヒラギノ角ゴ ProN', 'Noto Sans JP', 'Helvetica Neue', Helvetica, Arial, sans-serif" font-size="13" lengthAdjust="spacing" textLength="19.5" x="150.5" y="349.5301">&#12288;}</text></g><!--entity Real--><g class="entity" data-entity="Real" data-source-line="12" data-uid="ent0006" id="entity_Real"><path d="M201,157.5 L201,190.2799 A2.5,2.5 0 0 0 203.5,192.7799 L260.4998,192.7799 A2.5,2.5 0 0 0 262.9998,190.2799 L262.9998,165 L252.9998,155 L203.5,155 A2.5,2.5 0 0 0 201,157.5" fill="#F1F1F1" style="stroke:#181818;stroke-width:0.5;"/><path d="M252.9998,155 L252.9998,162.5 A2.5,2.5 0 0 0 255.4998,165 L262.9998,165" fill="#F1F1F1" style="stroke:#181818;stroke-width:0.5;"/><text fill="#000000" font-family="'Segoe UI', 'メイリオ', 'UDEV Gothic HSRFJPDOC', 'Hiragino Kaku Gothic ProN', 'ヒラギノ角ゴ ProN', 'Noto Sans JP', 'Helvetica Neue', Helvetica, Arial, sans-serif" font-size="14" lengthAdjust="spacing" textLength="41.9998" x="211" y="178.9999">real.c</text></g><g class="entity" data-entity="GMN7" data-source-line="14" data-uid="ent0008" id="entity_GMN7"><path d="M298.5,144 L298.5,170 L263.0625,174 L298.5,178 L298.5,203.53 A0,0 0 0 0 298.5,203.53 L449.5,203.53 A0,0 0 0 0 449.5,203.53 L449.5,154 L439.5,144 L298.5,144 A0,0 0 0 0 298.5,144" fill="#FEFFDD" style="stroke:#181818;stroke-width:0.5;"/><path d="M439.5,144 L439.5,154 L449.5,154 L439.5,144" fill="#FEFFDD" style="stroke:#181818;stroke-width:0.5;"/><text fill="#000000" font-family="'Segoe UI', 'メイリオ', 'UDEV Gothic HSRFJPDOC', 'Hiragino Kaku Gothic ProN', 'ヒラギノ角ゴ ProN', 'Noto Sans JP', 'Helvetica Neue', Helvetica, Arial, sans-serif" font-size="13" lengthAdjust="spacing" textLength="130" x="304.5" y="162">&#12288;void real_func() {</text><text fill="#000000" font-family="'Segoe UI', 'メイリオ', 'UDEV Gothic HSRFJPDOC', 'Hiragino Kaku Gothic ProN', 'ヒラギノ角ゴ ProN', 'Noto Sans JP', 'Helvetica Neue', Helvetica, Arial, sans-serif" font-size="13" lengthAdjust="spacing" textLength="110.5001" x="304.5" y="178.51">&#12288;&#12288;// &#26412;&#29289;&#12398;&#23455;&#35013;</text><text fill="#000000" font-family="'Segoe UI', 'メイリオ', 'UDEV Gothic HSRFJPDOC', 'Hiragino Kaku Gothic ProN', 'ヒラギノ角ゴ ProN', 'Noto Sans JP', 'Helvetica Neue', Helvetica, Arial, sans-serif" font-size="13" lengthAdjust="spacing" textLength="19.5" x="304.5" y="195.02">&#12288;}</text></g><!--entity Main--><g class="entity" data-entity="Main" data-source-line="18" data-uid="ent0010" id="entity_Main"><path d="M6,19.5 L6,52.2799 A2.5,2.5 0 0 0 8.5,54.7799 L65.4998,54.7799 A2.5,2.5 0 0 0 67.9998,52.2799 L67.9998,27 L57.9998,17 L8.5,17 A2.5,2.5 0 0 0 6,19.5" fill="#F1F1F1" style="stroke:#181818;stroke-width:0.5;"/><path d="M57.9998,17 L57.9998,24.5 A2.5,2.5 0 0 0 60.4998,27 L67.9998,27" fill="#F1F1F1" style="stroke:#181818;stroke-width:0.5;"/><text fill="#000000" font-family="'Segoe UI', 'メイリオ', 'UDEV Gothic HSRFJPDOC', 'Hiragino Kaku Gothic ProN', 'ヒラギノ角ゴ ProN', 'Noto Sans JP', 'Helvetica Neue', Helvetica, Arial, sans-serif" font-size="14" lengthAdjust="spacing" textLength="41.9998" x="16" y="40.9999">main.c</text></g><g class="entity" data-entity="GMN11" data-source-line="20" data-uid="ent0012" id="entity_GMN11"><path d="M103.5,6 L103.5,32 L68.2422,36 L103.5,40 L103.5,65.53 A0,0 0 0 0 103.5,65.53 L228.5,65.53 A0,0 0 0 0 228.5,65.53 L228.5,16 L218.5,6 L103.5,6 A0,0 0 0 0 103.5,6" fill="#FEFFDD" style="stroke:#181818;stroke-width:0.5;"/><path d="M218.5,6 L218.5,16 L228.5,16 L218.5,6" fill="#FEFFDD" style="stroke:#181818;stroke-width:0.5;"/><text fill="#000000" font-family="'Segoe UI', 'メイリオ', 'UDEV Gothic HSRFJPDOC', 'Hiragino Kaku Gothic ProN', 'ヒラギノ角ゴ ProN', 'Noto Sans JP', 'Helvetica Neue', Helvetica, Arial, sans-serif" font-size="13" lengthAdjust="spacing" textLength="91" x="109.5" y="24">&#12288;int main() {</text><text fill="#000000" font-family="'Segoe UI', 'メイリオ', 'UDEV Gothic HSRFJPDOC', 'Hiragino Kaku Gothic ProN', 'ヒラギノ角ゴ ProN', 'Noto Sans JP', 'Helvetica Neue', Helvetica, Arial, sans-serif" font-size="13" lengthAdjust="spacing" textLength="104" x="109.5" y="40.51">&#12288;&#12288;real_func();</text><text fill="#000000" font-family="'Segoe UI', 'メイリオ', 'UDEV Gothic HSRFJPDOC', 'Hiragino Kaku Gothic ProN', 'ヒラギノ角ゴ ProN', 'Noto Sans JP', 'Helvetica Neue', Helvetica, Arial, sans-serif" font-size="13" lengthAdjust="spacing" textLength="19.5" x="109.5" y="57.02">&#12288;}</text></g><!--link Main to Mock--><g class="link" data-entity-1="Main" data-entity-2="Mock" data-source-line="24" data-uid="lnk14" id="link_Main_Mock"><path d="M32.3766,55.1425 C25.5296,86.5873 14.6597,150.9792 26,204 C33.7087,240.0414 50.5013,273.2207 63.3228,295.5525" fill="none" id="Main-to-Mock" style="stroke:#181818;stroke-width:1;"/><polygon fill="#181818" points="66.3102,300.7559,65.2979,290.9592,63.8207,296.4198,58.3601,294.9425,66.3102,300.7559" style="stroke:#181818;stroke-width:1;"/><text fill="#000000" font-family="'Segoe UI', 'メイリオ', 'UDEV Gothic HSRFJPDOC', 'Hiragino Kaku Gothic ProN', 'ヒラギノ角ゴ ProN', 'Noto Sans JP', 'Helvetica Neue', Helvetica, Arial, sans-serif" font-size="13" lengthAdjust="spacing" textLength="156.0001" x="27" y="179">weak symbol &#12392;&#12375;&#12390;&#21442;&#29031;&#21487;</text></g><!--link Main to Real--><g class="link" data-entity-1="Main" data-entity-2="Real" data-source-line="25" data-uid="lnk15" id="link_Main_Real"><path d="M64.1139,55.1883 C101.3692,81.5536 163.0849,125.2293 200.2188,151.5087" fill="none" id="Main-to-Real" style="stroke:#181818;stroke-width:1;"/><polygon fill="#181818" points="205.1164,154.9747,200.0806,146.5106,201.035,152.0864,195.4593,153.0408,205.1164,154.9747" style="stroke:#181818;stroke-width:1;"/><text fill="#000000" font-family="'Segoe UI', 'メイリオ', 'UDEV Gothic HSRFJPDOC', 'Hiragino Kaku Gothic ProN', 'ヒラギノ角ゴ ProN', 'Noto Sans JP', 'Helvetica Neue', Helvetica, Arial, sans-serif" font-size="13" lengthAdjust="spacing" textLength="156.0002" x="147" y="110">&#23455;&#20307;&#12364;&#12354;&#12428;&#12400;&#12371;&#12385;&#12425;&#12434;&#20778;&#20808;</text></g><!--link Real to Mock--><g class="link" data-entity-1="Real" data-entity-2="Mock" data-source-line="26" data-uid="lnk16" id="link_Real_Mock"><path d="M211.8672,193.087 C182.3532,221.0677 132.0087,268.7969 102.492,296.7804" fill="none" id="Real-to-Mock" style="stroke:#181818;stroke-width:1;stroke-dasharray:7,7;"/><polygon fill="#181818" points="98.1378,300.9084,107.4212,297.6191,101.7663,297.4684,101.9171,291.8135,98.1378,300.9084" style="stroke:#181818;stroke-width:1;"/><text fill="#000000" font-family="'Segoe UI', 'メイリオ', 'UDEV Gothic HSRFJPDOC', 'Hiragino Kaku Gothic ProN', 'ヒラギノ角ゴ ProN', 'Noto Sans JP', 'Helvetica Neue', Helvetica, Arial, sans-serif" font-size="13" lengthAdjust="spacing" textLength="130.0001" x="165" y="248">weak symbol &#12398;&#19978;&#26360;&#12365;</text></g><!--SRC=[XL31IiD04BttAuPuqKEJkvPUF7ln1sIRR6D8ibisgL94w2O6h2W5FNXG41MiYgGUU_5hfcdz33T9rGfHOTbzE_Dctfjf167FeyrQmrY0m7LOXmZYGukOhYrubrcRtEC2Ga5Oe5AKXJM0jkDHq7nkkhgf0GbWIq4LPpoa81nxDoTXlx_I4SJs2UnJueAWnDjfTvbPvlQuOtt7LjVWe8ohOnY0yHt6CKRZBBrvlq_ArA5wABCAcIyNUOk5Ysq5ArpyhJIxVfaFdb2c_ohvn66VyofOeUIm47BM3uqbvOtAxdapgDURnHPX7RHYNK7FRt4FK3wYl4Jva0sZUJBAXcDjkIGVMPKexzEt2vIdA2ECrFsAKdrlCHfWT9uTFMV9iIehsBh-cr8wdPpChYOepxGF]--></g></svg>