<svg xmlns="http://www.w3.org/2000/svg" xmlns:xlink="http://www.w3.org/1999/xlink" contentStyleType="text/css" data-diagram-type="DESCRIPTION" height="320px" preserveAspectRatio="none" style="width:502px;height:320px;" version="1.1" viewBox="0 0 502 320" width="502px" zoomAndPan="magnify"><defs/><g><!--entity H--><g class="entity" data-entity="H" data-source-line="5" data-uid="ent0002" id="entity_H"><path d="M29,278.5 L29,311.2799 A2.5,2.5 0 0 0 31.5,313.7799 L102.4998,313.7799 A2.5,2.5 0 0 0 104.9998,311.2799 L104.9998,286 L94.9998,276 L31.5,276 A2.5,2.5 0 0 0 29,278.5" fill="#F1F1F1" style="stroke:#181818;stroke-width:0.5;"/><path d="M94.9998,276 L94.9998,283.5 A2.5,2.5 0 0 0 97.4998,286 L104.9998,286" fill="#F1F1F1" style="stroke:#181818;stroke-width:0.5;"/><text fill="#000000" font-family="'Segoe UI', 'メイリオ', 'UDEV Gothic HSRFJPDOC', 'Hiragino Kaku Gothic ProN', 'ヒラギノ角ゴ ProN', 'Noto Sans JP', 'Helvetica Neue', Helvetica, Arial, sans-serif" font-size="14" lengthAdjust="spacing" textLength="55.9998" x="39" y="299.9999">global.h</text></g><g class="entity" data-entity="GMN3" data-source-line="7" data-uid="ent0004" id="entity_GMN3"><path d="M140.5,281.5 L140.5,291 L105.2813,295 L140.5,299 L140.5,308.01 A0,0 0 0 0 140.5,308.01 L343.5,308.01 A0,0 0 0 0 343.5,308.01 L343.5,291.5 L333.5,281.5 L140.5,281.5 A0,0 0 0 0 140.5,281.5" fill="#FEFFDD" style="stroke:#181818;stroke-width:0.5;"/><path d="M333.5,281.5 L333.5,291.5 L343.5,291.5 L333.5,281.5" fill="#FEFFDD" style="stroke:#181818;stroke-width:0.5;"/><text fill="#000000" font-family="'Segoe UI', 'メイリオ', 'UDEV Gothic HSRFJPDOC', 'Hiragino Kaku Gothic ProN', 'ヒラギノ角ゴ ProN', 'Noto Sans JP', 'Helvetica Neue', Helvetica, Arial, sans-serif" font-size="13" lengthAdjust="spacing" textLength="182" x="146.5" y="299.5">&#12288;extern int global_counter;</text></g><!--entity G--><g class="entity" data-entity="G" data-source-line="9" data-uid="ent0006" id="entity_G"><path d="M149,162.5 L149,195.2799 A2.5,2.5 0 0 0 151.5,197.7799 L222.4998,197.7799 A2.5,2.5 0 0 0 224.9998,195.2799 L224.9998,170 L214.9998,160 L151.5,160 A2.5,2.5 0 0 0 149,162.5" fill="#F1F1F1" style="stroke:#181818;stroke-width:0.5;"/><path d="M214.9998,160 L214.9998,167.5 A2.5,2.5 0 0 0 217.4998,170 L224.9998,170" fill="#F1F1F1" style="stroke:#181818;stroke-width:0.5;"/><text fill="#000000" font-family="'Segoe UI', 'メイリオ', 'UDEV Gothic HSRFJPDOC', 'Hiragino Kaku Gothic ProN', 'ヒラギノ角ゴ ProN', 'Noto Sans JP', 'Helvetica Neue', Helvetica, Arial, sans-serif" font-size="14" lengthAdjust="spacing" textLength="55.9998" x="159" y="183.9999">global.c</text></g><g class="entity" data-entity="GMN7" data-source-line="11" data-uid="ent0008" id="entity_GMN7"><path d="M260,165.5 L260,175 L225.0508,179 L260,183 L260,192.01 A0,0 0 0 0 260,192.01 L495.5,192.01 A0,0 0 0 0 495.5,192.01 L495.5,175.5 L485.5,165.5 L260,165.5 A0,0 0 0 0 260,165.5" fill="#FEFFDD" style="stroke:#181818;stroke-width:0.5;"/><path d="M485.5,165.5 L485.5,175.5 L495.5,175.5 L485.5,165.5" fill="#FEFFDD" style="stroke:#181818;stroke-width:0.5;"/><text fill="#000000" font-family="'Segoe UI', 'メイリオ', 'UDEV Gothic HSRFJPDOC', 'Hiragino Kaku Gothic ProN', 'ヒラギノ角ゴ ProN', 'Noto Sans JP', 'Helvetica Neue', Helvetica, Arial, sans-serif" font-size="13" lengthAdjust="spacing" textLength="214.5" x="266" y="183.5">&#12288;int global_counter = 0; // &#23455;&#20307;</text></g><!--entity M--><g class="entity" data-entity="M" data-source-line="13" data-uid="ent0010" id="entity_M"><path d="M6,27.5 L6,60.2799 A2.5,2.5 0 0 0 8.5,62.7799 L65.4998,62.7799 A2.5,2.5 0 0 0 67.9998,60.2799 L67.9998,35 L57.9998,25 L8.5,25 A2.5,2.5 0 0 0 6,27.5" fill="#F1F1F1" style="stroke:#181818;stroke-width:0.5;"/><path d="M57.9998,25 L57.9998,32.5 A2.5,2.5 0 0 0 60.4998,35 L67.9998,35" fill="#F1F1F1" style="stroke:#181818;stroke-width:0.5;"/><text fill="#000000" font-family="'Segoe UI', 'メイリオ', 'UDEV Gothic HSRFJPDOC', 'Hiragino Kaku Gothic ProN', 'ヒラギノ角ゴ ProN', 'Noto Sans JP', 'Helvetica Neue', Helvetica, Arial, sans-serif" font-size="14" lengthAdjust="spacing" textLength="41.9998" x="16" y="48.9999">main.c</text></g><g class="entity" data-entity="GMN11" data-source-line="15" data-uid="ent0012" id="entity_GMN11"><path d="M103,6 L103,40 L68.1309,44 L103,48 L103,82.0401 A0,0 0 0 0 103,82.0401 L293,82.0401 A0,0 0 0 0 293,82.0401 L293,16 L283,6 L103,6 A0,0 0 0 0 103,6" fill="#FEFFDD" style="stroke:#181818;stroke-width:0.5;"/><path d="M283,6 L283,16 L293,16 L283,6" fill="#FEFFDD" style="stroke:#181818;stroke-width:0.5;"/><text fill="#000000" font-family="'Segoe UI', 'メイリオ', 'UDEV Gothic HSRFJPDOC', 'Hiragino Kaku Gothic ProN', 'ヒラギノ角ゴ ProN', 'Noto Sans JP', 'Helvetica Neue', Helvetica, Arial, sans-serif" font-size="13" lengthAdjust="spacing" textLength="136.5" x="109" y="24">&#12288;#include "global.h"</text><text fill="#000000" font-family="'Segoe UI', 'メイリオ', 'UDEV Gothic HSRFJPDOC', 'Hiragino Kaku Gothic ProN', 'ヒラギノ角ゴ ProN', 'Noto Sans JP', 'Helvetica Neue', Helvetica, Arial, sans-serif" font-size="13" lengthAdjust="spacing" textLength="91" x="109" y="40.51">&#12288;int main() {</text><text fill="#000000" font-family="'Segoe UI', 'メイリオ', 'UDEV Gothic HSRFJPDOC', 'Hiragino Kaku Gothic ProN', 'ヒラギノ角ゴ ProN', 'Noto Sans JP', 'Helvetica Neue', Helvetica, Arial, sans-serif" font-size="13" lengthAdjust="spacing" textLength="169" x="109" y="57.02">&#12288;&#12288;return global_counter;</text><text fill="#000000" font-family="'Segoe UI', 'メイリオ', 'UDEV Gothic HSRFJPDOC', 'Hiragino Kaku Gothic ProN', 'ヒラギノ角ゴ ProN', 'Noto Sans JP', 'Helvetica Neue', Helvetica, Arial, sans-serif" font-size="13" lengthAdjust="spacing" textLength="19.5" x="109" y="73.5301">&#12288;}</text></g><!--link M to H--><g class="link" data-entity-1="M" data-entity-2="H" data-source-line="20" data-uid="lnk14" id="link_M_H"><path d="M32.3451,63.1792 C25.958,92.5223 16.3105,150.1883 26,198 C31.7376,226.3113 43.2041,251.3219 53.291,270.3821" fill="none" id="M-to-H" style="stroke:#181818;stroke-width:1;"/><polygon fill="#181818" points="56.0975,275.6853,55.4232,265.8596,53.7587,271.266,48.3523,269.6016,56.0975,275.6853" style="stroke:#181818;stroke-width:1;"/><text fill="#000000" font-family="'Segoe UI', 'メイリオ', 'UDEV Gothic HSRFJPDOC', 'Hiragino Kaku Gothic ProN', 'ヒラギノ角ゴ ProN', 'Noto Sans JP', 'Helvetica Neue', Helvetica, Arial, sans-serif" font-size="13" lengthAdjust="spacing" textLength="104.0001" x="27" y="184">&#22793;&#25968;&#12398;&#23459;&#35328;&#12434;&#21442;&#29031;</text></g><!--link G to H--><g class="link" data-entity-1="G" data-entity-2="H" data-source-line="21" data-uid="lnk15" id="link_G_H"><path d="M167.1844,198.155 C144.9504,219.648 113.405,250.1418 91.1589,271.6464" fill="none" id="G-to-H" style="stroke:#181818;stroke-width:1;"/><polygon fill="#181818" points="86.845,275.8165,96.096,272.4372,90.4399,272.3414,90.5358,266.6853,86.845,275.8165" style="stroke:#181818;stroke-width:1;"/><text fill="#000000" font-family="'Segoe UI', 'メイリオ', 'UDEV Gothic HSRFJPDOC', 'Hiragino Kaku Gothic ProN', 'ヒラギノ角ゴ ProN', 'Noto Sans JP', 'Helvetica Neue', Helvetica, Arial, sans-serif" font-size="13" lengthAdjust="spacing" textLength="104.0001" x="135" y="242">&#23459;&#35328;&#12392;&#23450;&#32681;&#12434;&#19968;&#33268;</text></g><!--link M to G--><g class="link" data-entity-1="M" data-entity-2="G" data-source-line="22" data-uid="lnk16" id="link_M_G"><path d="M58.1732,63.0559 C86.5997,88.6397 132.3707,129.8337 160.989,155.5901" fill="none" id="M-to-G" style="stroke:#181818;stroke-width:1;"/><polygon fill="#181818" points="165.4488,159.6039,161.435,150.61,161.7323,156.2591,156.0833,156.5564,165.4488,159.6039" style="stroke:#181818;stroke-width:1;"/><text fill="#000000" font-family="'Segoe UI', 'メイリオ', 'UDEV Gothic HSRFJPDOC', 'Hiragino Kaku Gothic ProN', 'ヒラギノ角ゴ ProN', 'Noto Sans JP', 'Helvetica Neue', Helvetica, Arial, sans-serif" font-size="13" lengthAdjust="spacing" textLength="91.0001" x="130" y="126">&#12522;&#12531;&#12463;&#26178;&#12395;&#35299;&#27770;</text></g><!--SRC=[ioakgSn9jUEoqOSoYhCpymeIYn9p5P8IaxFJY_9ByrASytFoYnHAYXBpYe5IgNabN0eAQPavgGfAwJdvIOavUXbA2ed52Xv0uRpyabI5eipq392QnmqDgHKbgKLv2fbv9GeGjV79G1E1OjP0-TIy5B06TEEImSQvOp4Eqnm5MmK3QmLzVOMdw-O_sJiPcwcvYPbvK3DziPYfd9cNd5EQWkmRX6KWlHgQ2jKG4I0gIYqf1Ne8qpD0kLfKstqLT7Nj53mKh1IUBkbyDdN3uyPrJzSjVh6YuN7JfAVzJSzRbmCLkICKGUGQLpnTD-lvlfL0HKzsDBnetm8toHsew77pgiVDcnythNysi-bnu-eNonS_sxWB0000]--></g></svg>