<svg xmlns="http://www.w3.org/2000/svg" xmlns:xlink="http://www.w3.org/1999/xlink" contentStyleType="text/css" data-diagram-type="DESCRIPTION" height="209px" preserveAspectRatio="none" style="width:340px;height:209px;" version="1.1" viewBox="0 0 340 209" width="340px" zoomAndPan="magnify"><defs/><g><!--cluster C++?--><g class="cluster" data-entity="C..." data-source-line="5" data-uid="ent0002" id="cluster_C..."><path d="M26.5,6.28 L64.2498,6.28 A3.75,3.75 0 0 1 66.7498,8.78 L73.7498,30.0599 L294.5,30.0599 A2.5,2.5 0 0 1 297,32.5599 L297,77.78 A2.5,2.5 0 0 1 294.5,80.28 L26.5,80.28 A2.5,2.5 0 0 1 24,77.78 L24,8.78 A2.5,2.5 0 0 1 26.5,6.28" fill="none" style="stroke:#000000;stroke-width:1.5;"/><line style="stroke:#000000;stroke-width:1.5;" x1="24" x2="73.7498" y1="30.0599" y2="30.0599"/><text fill="#000000" font-family="'Segoe UI', 'メイリオ', 'UDEV Gothic HSRFJPDOC', 'Hiragino Kaku Gothic ProN', 'ヒラギノ角ゴ ProN', 'Noto Sans JP', 'Helvetica Neue', Helvetica, Arial, sans-serif" font-size="14" font-weight="bold" lengthAdjust="spacing" textLength="36.7498" x="28" y="22.2799">C++&#20596;</text></g><!--cluster C?--><g class="cluster" data-entity="C." data-source-line="11" data-uid="ent0007" id="cluster_C."><path d="M8.5,128.28 L31.3749,128.28 A3.75,3.75 0 0 1 33.8749,130.78 L40.8749,152.0599 L330.5,152.0599 A2.5,2.5 0 0 1 333,154.5599 L333,199.78 A2.5,2.5 0 0 1 330.5,202.28 L8.5,202.28 A2.5,2.5 0 0 1 6,199.78 L6,130.78 A2.5,2.5 0 0 1 8.5,128.28" fill="none" style="stroke:#000000;stroke-width:1.5;"/><line style="stroke:#000000;stroke-width:1.5;" x1="6" x2="40.8749" y1="152.0599" y2="152.0599"/><text fill="#000000" font-family="'Segoe UI', 'メイリオ', 'UDEV Gothic HSRFJPDOC', 'Hiragino Kaku Gothic ProN', 'ヒラギノ角ゴ ProN', 'Noto Sans JP', 'Helvetica Neue', Helvetica, Arial, sans-serif" font-size="14" font-weight="bold" lengthAdjust="spacing" textLength="21.8749" x="10" y="144.2799">C&#20596;</text></g><!--entity cpp--><g class="entity" data-entity="cpp" data-source-line="6" data-uid="ent0003" id="entity_cpp"><path d="M32,36.78 L32,69.5599 A2.5,2.5 0 0 0 34.5,72.0599 L105.4998,72.0599 A2.5,2.5 0 0 0 107.9998,69.5599 L107.9998,44.28 L97.9998,34.28 L34.5,34.28 A2.5,2.5 0 0 0 32,36.78" fill="#F1F1F1" style="stroke:#181818;stroke-width:0.5;"/><path d="M97.9998,34.28 L97.9998,41.78 A2.5,2.5 0 0 0 100.4998,44.28 L107.9998,44.28" fill="#F1F1F1" style="stroke:#181818;stroke-width:0.5;"/><text fill="#000000" font-family="'Segoe UI', 'メイリオ', 'UDEV Gothic HSRFJPDOC', 'Hiragino Kaku Gothic ProN', 'ヒラギノ角ゴ ProN', 'Noto Sans JP', 'Helvetica Neue', Helvetica, Arial, sans-serif" font-size="14" lengthAdjust="spacing" textLength="55.9998" x="42" y="58.2799">main.cpp</text></g><g class="entity" data-entity="GMN4" data-source-line="8" data-uid="ent0005" id="entity_GMN4"><path d="M143.5,39.78 L143.5,49.28 L108.2109,53.28 L143.5,57.28 L143.5,66.29 A0,0 0 0 0 143.5,66.29 L288.0001,66.29 A0,0 0 0 0 288.0001,66.29 L288.0001,49.78 L278.0001,39.78 L143.5,39.78 A0,0 0 0 0 143.5,39.78" fill="#FEFFDD" style="stroke:#181818;stroke-width:0.5;"/><path d="M278.0001,39.78 L278.0001,49.78 L288.0001,49.78 L278.0001,39.78" fill="#FEFFDD" style="stroke:#181818;stroke-width:0.5;"/><text fill="#000000" font-family="'Segoe UI', 'メイリオ', 'UDEV Gothic HSRFJPDOC', 'Hiragino Kaku Gothic ProN', 'ヒラギノ角ゴ ProN', 'Noto Sans JP', 'Helvetica Neue', Helvetica, Arial, sans-serif" font-size="13" lengthAdjust="spacing" textLength="123.5001" x="149.5" y="57.78">&#12288;extern "C" &#12391;&#23459;&#35328;</text></g><!--entity c--><g class="entity" data-entity="c" data-source-line="12" data-uid="ent0008" id="entity_c"><path d="M14.5,158.78 L14.5,191.5599 A2.5,2.5 0 0 0 17,194.0599 L122.9996,194.0599 A2.5,2.5 0 0 0 125.4996,191.5599 L125.4996,166.28 L115.4996,156.28 L17,156.28 A2.5,2.5 0 0 0 14.5,158.78" fill="#F1F1F1" style="stroke:#181818;stroke-width:0.5;"/><path d="M115.4996,156.28 L115.4996,163.78 A2.5,2.5 0 0 0 117.9996,166.28 L125.4996,166.28" fill="#F1F1F1" style="stroke:#181818;stroke-width:0.5;"/><text fill="#000000" font-family="'Segoe UI', 'メイリオ', 'UDEV Gothic HSRFJPDOC', 'Hiragino Kaku Gothic ProN', 'ヒラギノ角ゴ ProN', 'Noto Sans JP', 'Helvetica Neue', Helvetica, Arial, sans-serif" font-size="14" lengthAdjust="spacing" textLength="90.9996" x="24.5" y="180.2799">my_function.c</text></g><g class="entity" data-entity="GMN9" data-source-line="14" data-uid="ent0010" id="entity_GMN9"><path d="M161,161.78 L161,171.28 L125.752,175.28 L161,179.28 L161,188.29 A0,0 0 0 0 161,188.29 L325.0002,188.29 A0,0 0 0 0 325.0002,188.29 L325.0002,171.78 L315.0002,161.78 L161,161.78 A0,0 0 0 0 161,161.78" fill="#FEFFDD" style="stroke:#181818;stroke-width:0.5;"/><path d="M315.0002,161.78 L315.0002,171.78 L325.0002,171.78 L315.0002,161.78" fill="#FEFFDD" style="stroke:#181818;stroke-width:0.5;"/><text fill="#000000" font-family="'Segoe UI', 'メイリオ', 'UDEV Gothic HSRFJPDOC', 'Hiragino Kaku Gothic ProN', 'ヒラギノ角ゴ ProN', 'Noto Sans JP', 'Helvetica Neue', Helvetica, Arial, sans-serif" font-size="13" lengthAdjust="spacing" textLength="143.0002" x="167" y="179.78">&#12288;C &#12398;&#26041;&#24335;&#12391;&#38306;&#25968;&#12434;&#23450;&#32681;</text></g><!--link cpp to c--><g class="link" data-entity-1="cpp" data-entity-2="c" data-source-line="17" data-uid="lnk12" id="link_cpp_c"><path d="M70,72.3425 C70,95.1281 70,127.0449 70,149.9487" fill="none" id="cpp-to-c" style="stroke:#181818;stroke-width:1;"/><polygon fill="#181818" points="70,155.9487,74,146.9487,70,150.9487,66,146.9487,70,155.9487" style="stroke:#181818;stroke-width:1;"/><text fill="#000000" font-family="'Segoe UI', 'メイリオ', 'UDEV Gothic HSRFJPDOC', 'Hiragino Kaku Gothic ProN', 'ヒラギノ角ゴ ProN', 'Noto Sans JP', 'Helvetica Neue', Helvetica, Arial, sans-serif" font-size="13" lengthAdjust="spacing" textLength="156.0002" x="71" y="116.28">&#21517;&#21069;&#20462;&#39166;&#12394;&#12375;&#12391;&#12522;&#12531;&#12463;&#21487;&#33021;</text></g><!--SRC=[TOxFQi904CRlFiMGgrZlHRpaGMIDQxeOPyDc1KCf9ERKWrWAjU1H3xOUOa4lWdyUPbshRz4XxQMqdcQ-xnk-tzGY7GUyNgfLVvQe8p1aYdMXoRoEhsGFMwuCf0Aj64OKSTGbW91IvdDmt7BPfci7xia4Q8k0l2uJUEE5eGCi0ff5X59pKCA_quKqISBxcYka2WTCEhVvxFoM51d7Ld5Euk4NwoyfRhHxw6aX2VYDkm9pYP6VnXkx7H7iCfwUNZxCuDdcay_z-tzK-XigbJfuS0lsQMWVXyT3VfdjJRemwIjrc6nXifKPBEreUSvsNm00]--></g></svg>