<svg xmlns="http://www.w3.org/2000/svg" xmlns:xlink="http://www.w3.org/1999/xlink" contentStyleType="text/css" data-diagram-type="MINDMAP" height="79px" preserveAspectRatio="none" style="width:1539px;height:79px;" version="1.1" viewBox="0 0 1539 79" width="1539px" zoomAndPan="magnify"><defs/><g><rect fill="#F1F1F1" height="37.7799" rx="12.5" ry="12.5" style="stroke:#181818;stroke-width:1.5;" width="47.9999" x="10" y="20"/><text fill="#000000" font-family="'Segoe UI', 'メイリオ', 'UDEV Gothic HSRFJPDOC', 'Hiragino Kaku Gothic ProN', 'ヒラギノ角ゴ ProN', 'Noto Sans JP', 'Helvetica Neue', Helvetica, Arial, sans-serif" font-size="14" lengthAdjust="spacing" textLength="27.9999" x="20" y="43.9999">test</text><rect fill="#F1F1F1" height="37.7799" rx="12.5" ry="12.5" style="stroke:#181818;stroke-width:1.5;" width="47.9999" x="107.9999" y="20"/><text fill="#000000" font-family="'Segoe UI', 'メイリオ', 'UDEV Gothic HSRFJPDOC', 'Hiragino Kaku Gothic ProN', 'ヒラギノ角ゴ ProN', 'Noto Sans JP', 'Helvetica Neue', Helvetica, Arial, sans-serif" font-size="14" lengthAdjust="spacing" textLength="27.9999" x="117.9999" y="43.9999">test</text><rect fill="#F1F1F1" height="37.7799" rx="12.5" ry="12.5" style="stroke:#181818;stroke-width:1.5;" width="47.9999" x="205.9998" y="20"/><text fill="#000000" font-family="'Segoe UI', 'メイリオ', 'UDEV Gothic HSRFJPDOC', 'Hiragino Kaku Gothic ProN', 'ヒラギノ角ゴ ProN', 'Noto Sans JP', 'Helvetica Neue', Helvetica, Arial, sans-serif" font-size="14" lengthAdjust="spacing" textLength="27.9999" x="215.9998" y="43.9999">test</text><rect fill="#F1F1F1" height="37.7799" rx="12.5" ry="12.5" style="stroke:#181818;stroke-width:1.5;" width="47.9999" x="303.9996" y="20"/><text fill="#000000" font-family="'Segoe UI', 'メイリオ', 'UDEV Gothic HSRFJPDOC', 'Hiragino Kaku Gothic ProN', 'ヒラギノ角ゴ ProN', 'Noto Sans JP', 'Helvetica Neue', Helvetica, Arial, sans-serif" font-size="14" lengthAdjust="spacing" textLength="27.9999" x="313.9996" y="43.9999">test</text><rect fill="#F1F1F1" height="37.7799" rx="12.5" ry="12.5" style="stroke:#181818;stroke-width:1.5;" width="47.9999" x="401.9995" y="20"/><text fill="#000000" font-family="'Segoe UI', 'メイリオ', 'UDEV Gothic HSRFJPDOC', 'Hiragino Kaku Gothic ProN', 'ヒラギノ角ゴ ProN', 'Noto Sans JP', 'Helvetica Neue', Helvetica, Arial, sans-serif" font-size="14" lengthAdjust="spacing" textLength="27.9999" x="411.9995" y="43.9999">test</text><rect fill="#F1F1F1" height="37.7799" rx="12.5" ry="12.5" style="stroke:#181818;stroke-width:1.5;" width="47.9999" x="499.9994" y="20"/><text fill="#000000" font-family="'Segoe UI', 'メイリオ', 'UDEV Gothic HSRFJPDOC', 'Hiragino Kaku Gothic ProN', 'ヒラギノ角ゴ ProN', 'Noto Sans JP', 'Helvetica Neue', Helvetica, Arial, sans-serif" font-size="14" lengthAdjust="spacing" textLength="27.9999" x="509.9994" y="43.9999">test</text><rect fill="#F1F1F1" height="37.7799" rx="12.5" ry="12.5" style="stroke:#181818;stroke-width:1.5;" width="47.9999" x="597.9993" y="20"/><text fill="#000000" font-family="'Segoe UI', 'メイリオ', 'UDEV Gothic HSRFJPDOC', 'Hiragino Kaku Gothic ProN', 'ヒラギノ角ゴ ProN', 'Noto Sans JP', 'Helvetica Neue', Helvetica, Arial, sans-serif" font-size="14" lengthAdjust="spacing" textLength="27.9999" x="607.9993" y="43.9999">test</text><rect fill="#F1F1F1" height="37.7799" rx="12.5" ry="12.5" style="stroke:#181818;stroke-width:1.5;" width="47.9999" x="695.9991" y="20"/><text fill="#000000" font-family="'Segoe UI', 'メイリオ', 'UDEV Gothic HSRFJPDOC', 'Hiragino Kaku Gothic ProN', 'ヒラギノ角ゴ ProN', 'Noto Sans JP', 'Helvetica Neue', Helvetica, Arial, sans-serif" font-size="14" lengthAdjust="spacing" textLength="27.9999" x="705.9991" y="43.9999">test</text><rect fill="#F1F1F1" height="37.7799" rx="12.5" ry="12.5" style="stroke:#181818;stroke-width:1.5;" width="47.9999" x="793.999" y="20"/><text fill="#000000" font-family="'Segoe UI', 'メイリオ', 'UDEV Gothic HSRFJPDOC', 'Hiragino Kaku Gothic ProN', 'ヒラギノ角ゴ ProN', 'Noto Sans JP', 'Helvetica Neue', Helvetica, Arial, sans-serif" font-size="14" lengthAdjust="spacing" textLength="27.9999" x="803.999" y="43.9999">test</text><rect fill="#F1F1F1" height="37.7799" rx="12.5" ry="12.5" style="stroke:#181818;stroke-width:1.5;" width="47.9999" x="891.9989" y="20"/><text fill="#000000" font-family="'Segoe UI', 'メイリオ', 'UDEV Gothic HSRFJPDOC', 'Hiragino Kaku Gothic ProN', 'ヒラギノ角ゴ ProN', 'Noto Sans JP', 'Helvetica Neue', Helvetica, Arial, sans-serif" font-size="14" lengthAdjust="spacing" textLength="27.9999" x="901.9989" y="43.9999">test</text><rect fill="#F1F1F1" height="37.7799" rx="12.5" ry="12.5" style="stroke:#181818;stroke-width:1.5;" width="47.9999" x="989.9988" y="20"/><text fill="#000000" font-family="'Segoe UI', 'メイリオ', 'UDEV Gothic HSRFJPDOC', 'Hiragino Kaku Gothic ProN', 'ヒラギノ角ゴ ProN', 'Noto Sans JP', 'Helvetica Neue', Helvetica, Arial, sans-serif" font-size="14" lengthAdjust="spacing" textLength="27.9999" x="999.9988" y="43.9999">test</text><rect fill="#F1F1F1" height="37.7799" rx="12.5" ry="12.5" style="stroke:#181818;stroke-width:1.5;" width="47.9999" x="1087.9987" y="20"/><text fill="#000000" font-family="'Segoe UI', 'メイリオ', 'UDEV Gothic HSRFJPDOC', 'Hiragino Kaku Gothic ProN', 'ヒラギノ角ゴ ProN', 'Noto Sans JP', 'Helvetica Neue', Helvetica, Arial, sans-serif" font-size="14" lengthAdjust="spacing" textLength="27.9999" x="1097.9987" y="43.9999">test</text><rect fill="#F1F1F1" height="37.7799" rx="12.5" ry="12.5" style="stroke:#181818;stroke-width:1.5;" width="47.9999" x="1185.9985" y="20"/><text fill="#000000" font-family="'Segoe UI', 'メイリオ', 'UDEV Gothic HSRFJPDOC', 'Hiragino Kaku Gothic ProN', 'ヒラギノ角ゴ ProN', 'Noto Sans JP', 'Helvetica Neue', Helvetica, Arial, sans-serif" font-size="14" lengthAdjust="spacing" textLength="27.9999" x="1195.9985" y="43.9999">test</text><rect fill="#F1F1F1" height="37.7799" rx="12.5" ry="12.5" style="stroke:#181818;stroke-width:1.5;" width="47.9999" x="1283.9984" y="20"/><text fill="#000000" font-family="'Segoe UI', 'メイリオ', 'UDEV Gothic HSRFJPDOC', 'Hiragino Kaku Gothic ProN', 'ヒラギノ角ゴ ProN', 'Noto Sans JP', 'Helvetica Neue', Helvetica, Arial, sans-serif" font-size="14" lengthAdjust="spacing" textLength="27.9999" x="1293.9984" y="43.9999">test</text><rect fill="#F1F1F1" height="37.7799" rx="12.5" ry="12.5" style="stroke:#181818;stroke-width:1.5;" width="47.9999" x="1381.9983" y="20"/><text fill="#000000" font-family="'Segoe UI', 'メイリオ', 'UDEV Gothic HSRFJPDOC', 'Hiragino Kaku Gothic ProN', 'ヒラギノ角ゴ ProN', 'Noto Sans JP', 'Helvetica Neue', Helvetica, Arial, sans-serif" font-size="14" lengthAdjust="spacing" textLength="27.9999" x="1391.9983" y="43.9999">test</text><rect fill="#F1F1F1" height="37.7799" rx="12.5" ry="12.5" style="stroke:#181818;stroke-width:1.5;" width="47.9999" x="1479.9982" y="20"/><text fill="#000000" font-family="'Segoe UI', 'メイリオ', 'UDEV Gothic HSRFJPDOC', 'Hiragino Kaku Gothic ProN', 'ヒラギノ角ゴ ProN', 'Noto Sans JP', 'Helvetica Neue', Helvetica, Arial, sans-serif" font-size="14" lengthAdjust="spacing" textLength="27.9999" x="1489.9982" y="43.9999">test</text><path d="M1429.9982,38.89 L1439.9982,38.89 C1454.9982,38.89 1454.9982,38.89 1469.9982,38.89 L1479.9982,38.89" fill="none" style="stroke:#181818;stroke-width:1;"/><path d="M1331.9983,38.89 L1341.9983,38.89 C1356.9983,38.89 1356.9983,38.89 1371.9983,38.89 L1381.9983,38.89" fill="none" style="stroke:#181818;stroke-width:1;"/><path d="M1233.9984,38.89 L1243.9984,38.89 C1258.9984,38.89 1258.9984,38.89 1273.9984,38.89 L1283.9984,38.89" fill="none" style="stroke:#181818;stroke-width:1;"/><path d="M1135.9985,38.89 L1145.9985,38.89 C1160.9985,38.89 1160.9985,38.89 1175.9985,38.89 L1185.9985,38.89" fill="none" style="stroke:#181818;stroke-width:1;"/><path d="M1037.9987,38.89 L1047.9987,38.89 C1062.9987,38.89 1062.9987,38.89 1077.9987,38.89 L1087.9987,38.89" fill="none" style="stroke:#181818;stroke-width:1;"/><path d="M939.9988,38.89 L949.9988,38.89 C964.9988,38.89 964.9988,38.89 979.9988,38.89 L989.9988,38.89" fill="none" style="stroke:#181818;stroke-width:1;"/><path d="M841.9989,38.89 L851.9989,38.89 C866.9989,38.89 866.9989,38.89 881.9989,38.89 L891.9989,38.89" fill="none" style="stroke:#181818;stroke-width:1;"/><path d="M743.999,38.89 L753.999,38.89 C768.999,38.89 768.999,38.89 783.999,38.89 L793.999,38.89" fill="none" style="stroke:#181818;stroke-width:1;"/><path d="M645.9991,38.89 L655.9991,38.89 C670.9991,38.89 670.9991,38.89 685.9991,38.89 L695.9991,38.89" fill="none" style="stroke:#181818;stroke-width:1;"/><path d="M547.9993,38.89 L557.9993,38.89 C572.9993,38.89 572.9993,38.89 587.9993,38.89 L597.9993,38.89" fill="none" style="stroke:#181818;stroke-width:1;"/><path d="M449.9994,38.89 L459.9994,38.89 C474.9994,38.89 474.9994,38.89 489.9994,38.89 L499.9994,38.89" fill="none" style="stroke:#181818;stroke-width:1;"/><path d="M351.9995,38.89 L361.9995,38.89 C376.9995,38.89 376.9995,38.89 391.9995,38.89 L401.9995,38.89" fill="none" style="stroke:#181818;stroke-width:1;"/><path d="M253.9996,38.89 L263.9996,38.89 C278.9996,38.89 278.9996,38.89 293.9996,38.89 L303.9996,38.89" fill="none" style="stroke:#181818;stroke-width:1;"/><path d="M155.9998,38.89 L165.9998,38.89 C180.9998,38.89 180.9998,38.89 195.9998,38.89 L205.9998,38.89" fill="none" style="stroke:#181818;stroke-width:1;"/><path d="M57.9999,38.89 L67.9999,38.89 C82.9999,38.89 82.9999,38.89 97.9999,38.89 L107.9999,38.89" fill="none" style="stroke:#181818;stroke-width:1;"/><!--SRC=[hPDDJm8n48Rl_HLp19D5s8313J54K9CL8X7XQWQshfNjTDDEr_3lBL4Z1p_uiAVflEypxU6TlcEqh1Lb6ajG6dCPlQgCdoE7kYpaOon4p_6wa1UYT_fHk9MY4YrgME1obLlZAHkOmbXWY-I298d52R1qB22ShVARwm-jNzf_I3l8ErhsiErfFS1-8784TYJw3_ZMYBuC8NqFgX2J0ebdun5KqZfb25gDk1bt6ktQ51bIJn1teTLAckT9t87Pmm0sSbtKRYOZSCRRfOHCERPguJdmTP5YXN3lYPMM2ToLajBXxMS3hgXIrf3U13kTZxyCP-teKZ5CfGq_WVbO3EKJ-e83iJIPeZm9hrz7NJ52odrOhmHUK0p2oh1T9v1EtW00]--></g></svg>