<svg xmlns="http://www.w3.org/2000/svg" xmlns:xlink="http://www.w3.org/1999/xlink" contentStyleType="text/css" data-diagram-type="MINDMAP" height="79px" preserveAspectRatio="none" style="width:3107px;height:79px;" version="1.1" viewBox="0 0 3107 79" width="3107px" zoomAndPan="magnify"><defs/><g><rect fill="#F1F1F1" height="37.7799" rx="12.5" ry="12.5" style="stroke:#181818;stroke-width:1.5;" width="47.9999" x="10" y="20"/><text fill="#000000" font-family="'Segoe UI', 'メイリオ', 'UDEV Gothic HSRFJPDOC', 'Hiragino Kaku Gothic ProN', 'ヒラギノ角ゴ ProN', 'Noto Sans JP', 'Helvetica Neue', Helvetica, Arial, sans-serif" font-size="14" lengthAdjust="spacing" textLength="27.9999" x="20" y="43.9999">test</text><rect fill="#F1F1F1" height="37.7799" rx="12.5" ry="12.5" style="stroke:#181818;stroke-width:1.5;" width="47.9999" x="107.9999" y="20"/><text fill="#000000" font-family="'Segoe UI', 'メイリオ', 'UDEV Gothic HSRFJPDOC', 'Hiragino Kaku Gothic ProN', 'ヒラギノ角ゴ ProN', 'Noto Sans JP', 'Helvetica Neue', Helvetica, Arial, sans-serif" font-size="14" lengthAdjust="spacing" textLength="27.9999" x="117.9999" y="43.9999">test</text><rect fill="#F1F1F1" height="37.7799" rx="12.5" ry="12.5" style="stroke:#181818;stroke-width:1.5;" width="47.9999" x="205.9998" y="20"/><text fill="#000000" font-family="'Segoe UI', 'メイリオ', 'UDEV Gothic HSRFJPDOC', 'Hiragino Kaku Gothic ProN', 'ヒラギノ角ゴ ProN', 'Noto Sans JP', 'Helvetica Neue', Helvetica, Arial, sans-serif" font-size="14" lengthAdjust="spacing" textLength="27.9999" x="215.9998" y="43.9999">test</text><rect fill="#F1F1F1" height="37.7799" rx="12.5" ry="12.5" style="stroke:#181818;stroke-width:1.5;" width="47.9999" x="303.9996" y="20"/><text fill="#000000" font-family="'Segoe UI', 'メイリオ', 'UDEV Gothic HSRFJPDOC', 'Hiragino Kaku Gothic ProN', 'ヒラギノ角ゴ ProN', 'Noto Sans JP', 'Helvetica Neue', Helvetica, Arial, sans-serif" font-size="14" lengthAdjust="spacing" textLength="27.9999" x="313.9996" y="43.9999">test</text><rect fill="#F1F1F1" height="37.7799" rx="12.5" ry="12.5" style="stroke:#181818;stroke-width:1.5;" width="47.9999" x="401.9995" y="20"/><text fill="#000000" font-family="'Segoe UI', 'メイリオ', 'UDEV Gothic HSRFJPDOC', 'Hiragino Kaku Gothic ProN', 'ヒラギノ角ゴ ProN', 'Noto Sans JP', 'Helvetica Neue', Helvetica, Arial, sans-serif" font-size="14" lengthAdjust="spacing" textLength="27.9999" x="411.9995" y="43.9999">test</text><rect fill="#F1F1F1" height="37.7799" rx="12.5" ry="12.5" style="stroke:#181818;stroke-width:1.5;" width="47.9999" x="499.9994" y="20"/><text fill="#000000" font-family="'Segoe UI', 'メイリオ', 'UDEV Gothic HSRFJPDOC', 'Hiragino Kaku Gothic ProN', 'ヒラギノ角ゴ ProN', 'Noto Sans JP', 'Helvetica Neue', Helvetica, Arial, sans-serif" font-size="14" lengthAdjust="spacing" textLength="27.9999" x="509.9994" y="43.9999">test</text><rect fill="#F1F1F1" height="37.7799" rx="12.5" ry="12.5" style="stroke:#181818;stroke-width:1.5;" width="47.9999" x="597.9993" y="20"/><text fill="#000000" font-family="'Segoe UI', 'メイリオ', 'UDEV Gothic HSRFJPDOC', 'Hiragino Kaku Gothic ProN', 'ヒラギノ角ゴ ProN', 'Noto Sans JP', 'Helvetica Neue', Helvetica, Arial, sans-serif" font-size="14" lengthAdjust="spacing" textLength="27.9999" x="607.9993" y="43.9999">test</text><rect fill="#F1F1F1" height="37.7799" rx="12.5" ry="12.5" style="stroke:#181818;stroke-width:1.5;" width="47.9999" x="695.9991" y="20"/><text fill="#000000" font-family="'Segoe UI', 'メイリオ', 'UDEV Gothic HSRFJPDOC', 'Hiragino Kaku Gothic ProN', 'ヒラギノ角ゴ ProN', 'Noto Sans JP', 'Helvetica Neue', Helvetica, Arial, sans-serif" font-size="14" lengthAdjust="spacing" textLength="27.9999" x="705.9991" y="43.9999">test</text><rect fill="#F1F1F1" height="37.7799" rx="12.5" ry="12.5" style="stroke:#181818;stroke-width:1.5;" width="47.9999" x="793.999" y="20"/><text fill="#000000" font-family="'Segoe UI', 'メイリオ', 'UDEV Gothic HSRFJPDOC', 'Hiragino Kaku Gothic ProN', 'ヒラギノ角ゴ ProN', 'Noto Sans JP', 'Helvetica Neue', Helvetica, Arial, sans-serif" font-size="14" lengthAdjust="spacing" textLength="27.9999" x="803.999" y="43.9999">test</text><rect fill="#F1F1F1" height="37.7799" rx="12.5" ry="12.5" style="stroke:#181818;stroke-width:1.5;" width="47.9999" x="891.9989" y="20"/><text fill="#000000" font-family="'Segoe UI', 'メイリオ', 'UDEV Gothic HSRFJPDOC', 'Hiragino Kaku Gothic ProN', 'ヒラギノ角ゴ ProN', 'Noto Sans JP', 'Helvetica Neue', Helvetica, Arial, sans-serif" font-size="14" lengthAdjust="spacing" textLength="27.9999" x="901.9989" y="43.9999">test</text><rect fill="#F1F1F1" height="37.7799" rx="12.5" ry="12.5" style="stroke:#181818;stroke-width:1.5;" width="47.9999" x="989.9988" y="20"/><text fill="#000000" font-family="'Segoe UI', 'メイリオ', 'UDEV Gothic HSRFJPDOC', 'Hiragino Kaku Gothic ProN', 'ヒラギノ角ゴ ProN', 'Noto Sans JP', 'Helvetica Neue', Helvetica, Arial, sans-serif" font-size="14" lengthAdjust="spacing" textLength="27.9999" x="999.9988" y="43.9999">test</text><rect fill="#F1F1F1" height="37.7799" rx="12.5" ry="12.5" style="stroke:#181818;stroke-width:1.5;" width="47.9999" x="1087.9987" y="20"/><text fill="#000000" font-family="'Segoe UI', 'メイリオ', 'UDEV Gothic HSRFJPDOC', 'Hiragino Kaku Gothic ProN', 'ヒラギノ角ゴ ProN', 'Noto Sans JP', 'Helvetica Neue', Helvetica, Arial, sans-serif" font-size="14" lengthAdjust="spacing" textLength="27.9999" x="1097.9987" y="43.9999">test</text><rect fill="#F1F1F1" height="37.7799" rx="12.5" ry="12.5" style="stroke:#181818;stroke-width:1.5;" width="47.9999" x="1185.9985" y="20"/><text fill="#000000" font-family="'Segoe UI', 'メイリオ', 'UDEV Gothic HSRFJPDOC', 'Hiragino Kaku Gothic ProN', 'ヒラギノ角ゴ ProN', 'Noto Sans JP', 'Helvetica Neue', Helvetica, Arial, sans-serif" font-size="14" lengthAdjust="spacing" textLength="27.9999" x="1195.9985" y="43.9999">test</text><rect fill="#F1F1F1" height="37.7799" rx="12.5" ry="12.5" style="stroke:#181818;stroke-width:1.5;" width="47.9999" x="1283.9984" y="20"/><text fill="#000000" font-family="'Segoe UI', 'メイリオ', 'UDEV Gothic HSRFJPDOC', 'Hiragino Kaku Gothic ProN', 'ヒラギノ角ゴ ProN', 'Noto Sans JP', 'Helvetica Neue', Helvetica, Arial, sans-serif" font-size="14" lengthAdjust="spacing" textLength="27.9999" x="1293.9984" y="43.9999">test</text><rect fill="#F1F1F1" height="37.7799" rx="12.5" ry="12.5" style="stroke:#181818;stroke-width:1.5;" width="47.9999" x="1381.9983" y="20"/><text fill="#000000" font-family="'Segoe UI', 'メイリオ', 'UDEV Gothic HSRFJPDOC', 'Hiragino Kaku Gothic ProN', 'ヒラギノ角ゴ ProN', 'Noto Sans JP', 'Helvetica Neue', Helvetica, Arial, sans-serif" font-size="14" lengthAdjust="spacing" textLength="27.9999" x="1391.9983" y="43.9999">test</text><rect fill="#F1F1F1" height="37.7799" rx="12.5" ry="12.5" style="stroke:#181818;stroke-width:1.5;" width="47.9999" x="1479.9982" y="20"/><text fill="#000000" font-family="'Segoe UI', 'メイリオ', 'UDEV Gothic HSRFJPDOC', 'Hiragino Kaku Gothic ProN', 'ヒラギノ角ゴ ProN', 'Noto Sans JP', 'Helvetica Neue', Helvetica, Arial, sans-serif" font-size="14" lengthAdjust="spacing" textLength="27.9999" x="1489.9982" y="43.9999">test</text><rect fill="#F1F1F1" height="37.7799" rx="12.5" ry="12.5" style="stroke:#181818;stroke-width:1.5;" width="47.9999" x="1577.998" y="20"/><text fill="#000000" font-family="'Segoe UI', 'メイリオ', 'UDEV Gothic HSRFJPDOC', 'Hiragino Kaku Gothic ProN', 'ヒラギノ角ゴ ProN', 'Noto Sans JP', 'Helvetica Neue', Helvetica, Arial, sans-serif" font-size="14" lengthAdjust="spacing" textLength="27.9999" x="1587.998" y="43.9999">test</text><rect fill="#F1F1F1" height="37.7799" rx="12.5" ry="12.5" style="stroke:#181818;stroke-width:1.5;" width="47.9999" x="1675.9979" y="20"/><text fill="#000000" font-family="'Segoe UI', 'メイリオ', 'UDEV Gothic HSRFJPDOC', 'Hiragino Kaku Gothic ProN', 'ヒラギノ角ゴ ProN', 'Noto Sans JP', 'Helvetica Neue', Helvetica, Arial, sans-serif" font-size="14" lengthAdjust="spacing" textLength="27.9999" x="1685.9979" y="43.9999">test</text><rect fill="#F1F1F1" height="37.7799" rx="12.5" ry="12.5" style="stroke:#181818;stroke-width:1.5;" width="47.9999" x="1773.9978" y="20"/><text fill="#000000" font-family="'Segoe UI', 'メイリオ', 'UDEV Gothic HSRFJPDOC', 'Hiragino Kaku Gothic ProN', 'ヒラギノ角ゴ ProN', 'Noto Sans JP', 'Helvetica Neue', Helvetica, Arial, sans-serif" font-size="14" lengthAdjust="spacing" textLength="27.9999" x="1783.9978" y="43.9999">test</text><rect fill="#F1F1F1" height="37.7799" rx="12.5" ry="12.5" style="stroke:#181818;stroke-width:1.5;" width="47.9999" x="1871.9977" y="20"/><text fill="#000000" font-family="'Segoe UI', 'メイリオ', 'UDEV Gothic HSRFJPDOC', 'Hiragino Kaku Gothic ProN', 'ヒラギノ角ゴ ProN', 'Noto Sans JP', 'Helvetica Neue', Helvetica, Arial, sans-serif" font-size="14" lengthAdjust="spacing" textLength="27.9999" x="1881.9977" y="43.9999">test</text><rect fill="#F1F1F1" height="37.7799" rx="12.5" ry="12.5" style="stroke:#181818;stroke-width:1.5;" width="47.9999" x="1969.9976" y="20"/><text fill="#000000" font-family="'Segoe UI', 'メイリオ', 'UDEV Gothic HSRFJPDOC', 'Hiragino Kaku Gothic ProN', 'ヒラギノ角ゴ ProN', 'Noto Sans JP', 'Helvetica Neue', Helvetica, Arial, sans-serif" font-size="14" lengthAdjust="spacing" textLength="27.9999" x="1979.9976" y="43.9999">test</text><rect fill="#F1F1F1" height="37.7799" rx="12.5" ry="12.5" style="stroke:#181818;stroke-width:1.5;" width="47.9999" x="2067.9974" y="20"/><text fill="#000000" font-family="'Segoe UI', 'メイリオ', 'UDEV Gothic HSRFJPDOC', 'Hiragino Kaku Gothic ProN', 'ヒラギノ角ゴ ProN', 'Noto Sans JP', 'Helvetica Neue', Helvetica, Arial, sans-serif" font-size="14" lengthAdjust="spacing" textLength="27.9999" x="2077.9974" y="43.9999">test</text><rect fill="#F1F1F1" height="37.7799" rx="12.5" ry="12.5" style="stroke:#181818;stroke-width:1.5;" width="47.9999" x="2165.9973" y="20"/><text fill="#000000" font-family="'Segoe UI', 'メイリオ', 'UDEV Gothic HSRFJPDOC', 'Hiragino Kaku Gothic ProN', 'ヒラギノ角ゴ ProN', 'Noto Sans JP', 'Helvetica Neue', Helvetica, Arial, sans-serif" font-size="14" lengthAdjust="spacing" textLength="27.9999" x="2175.9973" y="43.9999">test</text><rect fill="#F1F1F1" height="37.7799" rx="12.5" ry="12.5" style="stroke:#181818;stroke-width:1.5;" width="47.9999" x="2263.9972" y="20"/><text fill="#000000" font-family="'Segoe UI', 'メイリオ', 'UDEV Gothic HSRFJPDOC', 'Hiragino Kaku Gothic ProN', 'ヒラギノ角ゴ ProN', 'Noto Sans JP', 'Helvetica Neue', Helvetica, Arial, sans-serif" font-size="14" lengthAdjust="spacing" textLength="27.9999" x="2273.9972" y="43.9999">test</text><rect fill="#F1F1F1" height="37.7799" rx="12.5" ry="12.5" style="stroke:#181818;stroke-width:1.5;" width="47.9999" x="2361.9971" y="20"/><text fill="#000000" font-family="'Segoe UI', 'メイリオ', 'UDEV Gothic HSRFJPDOC', 'Hiragino Kaku Gothic ProN', 'ヒラギノ角ゴ ProN', 'Noto Sans JP', 'Helvetica Neue', Helvetica, Arial, sans-serif" font-size="14" lengthAdjust="spacing" textLength="27.9999" x="2371.9971" y="43.9999">test</text><rect fill="#F1F1F1" height="37.7799" rx="12.5" ry="12.5" style="stroke:#181818;stroke-width:1.5;" width="47.9999" x="2459.9969" y="20"/><text fill="#000000" font-family="'Segoe UI', 'メイリオ', 'UDEV Gothic HSRFJPDOC', 'Hiragino Kaku Gothic ProN', 'ヒラギノ角ゴ ProN', 'Noto Sans JP', 'Helvetica Neue', Helvetica, Arial, sans-serif" font-size="14" lengthAdjust="spacing" textLength="27.9999" x="2469.9969" y="43.9999">test</text><rect fill="#F1F1F1" height="37.7799" rx="12.5" ry="12.5" style="stroke:#181818;stroke-width:1.5;" width="47.9999" x="2557.9968" y="20"/><text fill="#000000" font-family="'Segoe UI', 'メイリオ', 'UDEV Gothic HSRFJPDOC', 'Hiragino Kaku Gothic ProN', 'ヒラギノ角ゴ ProN', 'Noto Sans JP', 'Helvetica Neue', Helvetica, Arial, sans-serif" font-size="14" lengthAdjust="spacing" textLength="27.9999" x="2567.9968" y="43.9999">test</text><rect fill="#F1F1F1" height="37.7799" rx="12.5" ry="12.5" style="stroke:#181818;stroke-width:1.5;" width="47.9999" x="2655.9967" y="20"/><text fill="#000000" font-family="'Segoe UI', 'メイリオ', 'UDEV Gothic HSRFJPDOC', 'Hiragino Kaku Gothic ProN', 'ヒラギノ角ゴ ProN', 'Noto Sans JP', 'Helvetica Neue', Helvetica, Arial, sans-serif" font-size="14" lengthAdjust="spacing" textLength="27.9999" x="2665.9967" y="43.9999">test</text><rect fill="#F1F1F1" height="37.7799" rx="12.5" ry="12.5" style="stroke:#181818;stroke-width:1.5;" width="47.9999" x="2753.9966" y="20"/><text fill="#000000" font-family="'Segoe UI', 'メイリオ', 'UDEV Gothic HSRFJPDOC', 'Hiragino Kaku Gothic ProN', 'ヒラギノ角ゴ ProN', 'Noto Sans JP', 'Helvetica Neue', Helvetica, Arial, sans-serif" font-size="14" lengthAdjust="spacing" textLength="27.9999" x="2763.9966" y="43.9999">test</text><rect fill="#F1F1F1" height="37.7799" rx="12.5" ry="12.5" style="stroke:#181818;stroke-width:1.5;" width="47.9999" x="2851.9965" y="20"/><text fill="#000000" font-family="'Segoe UI', 'メイリオ', 'UDEV Gothic HSRFJPDOC', 'Hiragino Kaku Gothic ProN', 'ヒラギノ角ゴ ProN', 'Noto Sans JP', 'Helvetica Neue', Helvetica, Arial, sans-serif" font-size="14" lengthAdjust="spacing" textLength="27.9999" x="2861.9965" y="43.9999">test</text><rect fill="#F1F1F1" height="37.7799" rx="12.5" ry="12.5" style="stroke:#181818;stroke-width:1.5;" width="47.9999" x="2949.9963" y="20"/><text fill="#000000" font-family="'Segoe UI', 'メイリオ', 'UDEV Gothic HSRFJPDOC', 'Hiragino Kaku Gothic ProN', 'ヒラギノ角ゴ ProN', 'Noto Sans JP', 'Helvetica Neue', Helvetica, Arial, sans-serif" font-size="14" lengthAdjust="spacing" textLength="27.9999" x="2959.9963" y="43.9999">test</text><rect fill="#F1F1F1" height="37.7799" rx="12.5" ry="12.5" style="stroke:#181818;stroke-width:1.5;" width="47.9999" x="3047.9962" y="20"/><text fill="#000000" font-family="'Segoe UI', 'メイリオ', 'UDEV Gothic HSRFJPDOC', 'Hiragino Kaku Gothic ProN', 'ヒラギノ角ゴ ProN', 'Noto Sans JP', 'Helvetica Neue', Helvetica, Arial, sans-serif" font-size="14" lengthAdjust="spacing" textLength="27.9999" x="3057.9962" y="43.9999">test</text><path d="M2997.9962,38.89 L3007.9962,38.89 C3022.9962,38.89 3022.9962,38.89 3037.9962,38.89 L3047.9962,38.89" fill="none" style="stroke:#181818;stroke-width:1;"/><path d="M2899.9963,38.89 L2909.9963,38.89 C2924.9963,38.89 2924.9963,38.89 2939.9963,38.89 L2949.9963,38.89" fill="none" style="stroke:#181818;stroke-width:1;"/><path d="M2801.9965,38.89 L2811.9965,38.89 C2826.9965,38.89 2826.9965,38.89 2841.9965,38.89 L2851.9965,38.89" fill="none" style="stroke:#181818;stroke-width:1;"/><path d="M2703.9966,38.89 L2713.9966,38.89 C2728.9966,38.89 2728.9966,38.89 2743.9966,38.89 L2753.9966,38.89" fill="none" style="stroke:#181818;stroke-width:1;"/><path d="M2605.9967,38.89 L2615.9967,38.89 C2630.9967,38.89 2630.9967,38.89 2645.9967,38.89 L2655.9967,38.89" fill="none" style="stroke:#181818;stroke-width:1;"/><path d="M2507.9968,38.89 L2517.9968,38.89 C2532.9968,38.89 2532.9968,38.89 2547.9968,38.89 L2557.9968,38.89" fill="none" style="stroke:#181818;stroke-width:1;"/><path d="M2409.9969,38.89 L2419.9969,38.89 C2434.9969,38.89 2434.9969,38.89 2449.9969,38.89 L2459.9969,38.89" fill="none" style="stroke:#181818;stroke-width:1;"/><path d="M2311.9971,38.89 L2321.9971,38.89 C2336.9971,38.89 2336.9971,38.89 2351.9971,38.89 L2361.9971,38.89" fill="none" style="stroke:#181818;stroke-width:1;"/><path d="M2213.9972,38.89 L2223.9972,38.89 C2238.9972,38.89 2238.9972,38.89 2253.9972,38.89 L2263.9972,38.89" fill="none" style="stroke:#181818;stroke-width:1;"/><path d="M2115.9973,38.89 L2125.9973,38.89 C2140.9973,38.89 2140.9973,38.89 2155.9973,38.89 L2165.9973,38.89" fill="none" style="stroke:#181818;stroke-width:1;"/><path d="M2017.9974,38.89 L2027.9974,38.89 C2042.9974,38.89 2042.9974,38.89 2057.9974,38.89 L2067.9974,38.89" fill="none" style="stroke:#181818;stroke-width:1;"/><path d="M1919.9976,38.89 L1929.9976,38.89 C1944.9976,38.89 1944.9976,38.89 1959.9976,38.89 L1969.9976,38.89" fill="none" style="stroke:#181818;stroke-width:1;"/><path d="M1821.9977,38.89 L1831.9977,38.89 C1846.9977,38.89 1846.9977,38.89 1861.9977,38.89 L1871.9977,38.89" fill="none" style="stroke:#181818;stroke-width:1;"/><path d="M1723.9978,38.89 L1733.9978,38.89 C1748.9978,38.89 1748.9978,38.89 1763.9978,38.89 L1773.9978,38.89" fill="none" style="stroke:#181818;stroke-width:1;"/><path d="M1625.9979,38.89 L1635.9979,38.89 C1650.9979,38.89 1650.9979,38.89 1665.9979,38.89 L1675.9979,38.89" fill="none" style="stroke:#181818;stroke-width:1;"/><path d="M1527.998,38.89 L1537.998,38.89 C1552.998,38.89 1552.998,38.89 1567.998,38.89 L1577.998,38.89" fill="none" style="stroke:#181818;stroke-width:1;"/><path d="M1429.9982,38.89 L1439.9982,38.89 C1454.9982,38.89 1454.9982,38.89 1469.9982,38.89 L1479.9982,38.89" fill="none" style="stroke:#181818;stroke-width:1;"/><path d="M1331.9983,38.89 L1341.9983,38.89 C1356.9983,38.89 1356.9983,38.89 1371.9983,38.89 L1381.9983,38.89" fill="none" style="stroke:#181818;stroke-width:1;"/><path d="M1233.9984,38.89 L1243.9984,38.89 C1258.9984,38.89 1258.9984,38.89 1273.9984,38.89 L1283.9984,38.89" fill="none" style="stroke:#181818;stroke-width:1;"/><path d="M1135.9985,38.89 L1145.9985,38.89 C1160.9985,38.89 1160.9985,38.89 1175.9985,38.89 L1185.9985,38.89" fill="none" style="stroke:#181818;stroke-width:1;"/><path d="M1037.9987,38.89 L1047.9987,38.89 C1062.9987,38.89 1062.9987,38.89 1077.9987,38.89 L1087.9987,38.89" fill="none" style="stroke:#181818;stroke-width:1;"/><path d="M939.9988,38.89 L949.9988,38.89 C964.9988,38.89 964.9988,38.89 979.9988,38.89 L989.9988,38.89" fill="none" style="stroke:#181818;stroke-width:1;"/><path d="M841.9989,38.89 L851.9989,38.89 C866.9989,38.89 866.9989,38.89 881.9989,38.89 L891.9989,38.89" fill="none" style="stroke:#181818;stroke-width:1;"/><path d="M743.999,38.89 L753.999,38.89 C768.999,38.89 768.999,38.89 783.999,38.89 L793.999,38.89" fill="none" style="stroke:#181818;stroke-width:1;"/><path d="M645.9991,38.89 L655.9991,38.89 C670.9991,38.89 670.9991,38.89 685.9991,38.89 L695.9991,38.89" fill="none" style="stroke:#181818;stroke-width:1;"/><path d="M547.9993,38.89 L557.9993,38.89 C572.9993,38.89 572.9993,38.89 587.9993,38.89 L597.9993,38.89" fill="none" style="stroke:#181818;stroke-width:1;"/><path d="M449.9994,38.89 L459.9994,38.89 C474.9994,38.89 474.9994,38.89 489.9994,38.89 L499.9994,38.89" fill="none" style="stroke:#181818;stroke-width:1;"/><path d="M351.9995,38.89 L361.9995,38.89 C376.9995,38.89 376.9995,38.89 391.9995,38.89 L401.9995,38.89" fill="none" style="stroke:#181818;stroke-width:1;"/><path d="M253.9996,38.89 L263.9996,38.89 C278.9996,38.89 278.9996,38.89 293.9996,38.89 L303.9996,38.89" fill="none" style="stroke:#181818;stroke-width:1;"/><path d="M155.9998,38.89 L165.9998,38.89 C180.9998,38.89 180.9998,38.89 195.9998,38.89 L205.9998,38.89" fill="none" style="stroke:#181818;stroke-width:1;"/><path d="M57.9999,38.89 L67.9999,38.89 C82.9999,38.89 82.9999,38.89 97.9999,38.89 L107.9999,38.89" fill="none" style="stroke:#181818;stroke-width:1;"/><!--SRC=[pPPBJm8n58Nt_HLt2IQ3C8B12J54K9CH0X5XQovC7IipxQIzW-7VMw965ZvupCEksdlFEL-Nfsi8DSL21Z4c868CkVCg0dfs3CP9n1_F6EiOMaVyadLEFovcAMI26cEOus8PQfNAeASYfO4qIcDNN18x0UA66DYpTVtc-SFeb_4VgntMEqhsaEqfFK1-eEK8sv7M3EmPHMGOat5K3d4vHUOOctDq0V458Gh458mg0LSIiaHioUX_WD_wGfVRqlDUV1WRHoXfEXp0YciZb8H6pQsxhLgpCa42FvNWjg7HyEeNdjk2wKCFDkiggzoE1s1KgXSS0c58YtbArbzbFguGxbD98kOUZ18k_VxTvm2kvKfe9UDDKV9dmo_1UTEv4WGJhkrFO3PaVVw4QKJMiL21aA5dwJTEcmrGXgcjQnwy8ElP2aPwxO4_VWC0]--></g></svg>