<svg xmlns="http://www.w3.org/2000/svg" xmlns:xlink="http://www.w3.org/1999/xlink" contentStyleType="text/css" data-diagram-type="DESCRIPTION" height="442px" preserveAspectRatio="none" style="width:725px;height:442px;" version="1.1" viewBox="0 0 725 442" width="725px" zoomAndPan="magnify"><defs/><g><!--entity n6--><g class="entity" data-entity="n6" data-source-line="5" data-uid="ent0002" id="entity_n6"><rect fill="#F1F1F1" height="37.7799" rx="2.5" ry="2.5" style="stroke:#181818;stroke-width:0.5;" width="117.9996" x="233.7951" y="7"/><text fill="#000000" font-family="'Segoe UI', 'メイリオ', 'UDEV Gothic HSRFJPDOC', 'Hiragino Kaku Gothic ProN', 'ヒラギノ角ゴ ProN', 'Noto Sans JP', 'Helvetica Neue', Helvetica, Arial, sans-serif" font-size="14" lengthAdjust="spacing" textLength="97.9996" x="243.7951" y="30.9999">porter_const.h</text></g><!--entity n3--><g class="entity" data-entity="n3" data-source-line="6" data-uid="ent0003" id="entity_n3"><rect fill="#F1F1F1" height="37.7799" rx="2.5" ry="2.5" style="stroke:#181818;stroke-width:0.5;" width="110.9996" x="105.2951" y="105"/><text fill="#000000" font-family="'Segoe UI', 'メイリオ', 'UDEV Gothic HSRFJPDOC', 'Hiragino Kaku Gothic ProN', 'ヒラギノ角ゴ ProN', 'Noto Sans JP', 'Helvetica Neue', Helvetica, Arial, sans-serif" font-size="14" lengthAdjust="spacing" textLength="90.9996" x="115.2951" y="128.9999">porter_type.h</text></g><!--entity n8--><g class="entity" data-entity="n8" data-source-line="7" data-uid="ent0004" id="entity_n8"><rect fill="#F1F1F1" height="37.7799" rx="2.5" ry="2.5" style="stroke:#181818;stroke-width:0.5;" width="89.9997" x="251.7951" y="105"/><text fill="#000000" font-family="'Segoe UI', 'メイリオ', 'UDEV Gothic HSRFJPDOC', 'Hiragino Kaku Gothic ProN', 'ヒラギノ角ゴ ProN', 'Noto Sans JP', 'Helvetica Neue', Helvetica, Arial, sans-serif" font-size="14" lengthAdjust="spacing" textLength="69.9997" x="261.7951" y="128.9999">compress.h</text></g><!--entity n9--><g class="entity" data-entity="n9" data-source-line="8" data-uid="ent0005" id="entity_n9"><rect fill="#F1F1F1" height="37.7799" rx="2.5" ry="2.5" style="stroke:#181818;stroke-width:0.5;" width="75.9998" x="376.7951" y="105"/><text fill="#000000" font-family="'Segoe UI', 'メイリオ', 'UDEV Gothic HSRFJPDOC', 'Hiragino Kaku Gothic ProN', 'ヒラギノ角ゴ ProN', 'Noto Sans JP', 'Helvetica Neue', Helvetica, Arial, sans-serif" font-size="14" lengthAdjust="spacing" textLength="55.9998" x="386.7951" y="128.9999">crypto.h</text></g><!--entity n10--><g class="entity" data-entity="n10" data-source-line="9" data-uid="ent0006" id="entity_n10"><rect fill="#F1F1F1" height="37.7799" rx="2.5" ry="2.5" style="stroke:#181818;stroke-width:0.5;" width="124.9995" x="421.2951" y="203"/><text fill="#000000" font-family="'Segoe UI', 'メイリオ', 'UDEV Gothic HSRFJPDOC', 'Hiragino Kaku Gothic ProN', 'ヒラギノ角ゴ ProN', 'Noto Sans JP', 'Helvetica Neue', Helvetica, Arial, sans-serif" font-size="14" lengthAdjust="spacing" textLength="104.9995" x="431.2951" y="226.9999">potrSendQueue.h</text></g><!--entity n2--><g class="entity" data-entity="n2" data-source-line="10" data-uid="ent0007" id="entity_n2"><rect fill="#F1F1F1" height="37.7799" rx="2.5" ry="2.5" style="stroke:#181818;stroke-width:0.5;" width="110.9996" x="312.2951" y="301"/><text fill="#000000" font-family="'Segoe UI', 'メイリオ', 'UDEV Gothic HSRFJPDOC', 'Hiragino Kaku Gothic ProN', 'ヒラギノ角ゴ ProN', 'Noto Sans JP', 'Helvetica Neue', Helvetica, Arial, sans-serif" font-size="14" lengthAdjust="spacing" textLength="90.9996" x="322.2951" y="324.9999">potrContext.h</text></g><!--entity n7--><g class="entity" data-entity="n7" data-source-line="11" data-uid="ent0008" id="entity_n7"><rect fill="#F1F1F1" height="37.7799" rx="2.5" ry="2.5" style="stroke:#181818;stroke-width:0.5;" width="75.9998" x="54.7951" y="203"/><text fill="#000000" font-family="'Segoe UI', 'メイリオ', 'UDEV Gothic HSRFJPDOC', 'Hiragino Kaku Gothic ProN', 'ヒラギノ角ゴ ProN', 'Noto Sans JP', 'Helvetica Neue', Helvetica, Arial, sans-serif" font-size="14" lengthAdjust="spacing" textLength="55.9998" x="64.7951" y="226.9999">window.h</text></g><!--entity n1--><g class="entity" data-entity="n1" data-source-line="12" data-uid="ent0009" id="entity_n1"><rect fill="#ADD8E6" height="37.7799" rx="2.5" ry="2.5" style="stroke:#181818;stroke-width:0.5;" width="138.9995" x="298.2951" y="399"/><text fill="#000000" font-family="'Segoe UI', 'メイリオ', 'UDEV Gothic HSRFJPDOC', 'Hiragino Kaku Gothic ProN', 'ヒラギノ角ゴ ProN', 'Noto Sans JP', 'Helvetica Neue', Helvetica, Arial, sans-serif" font-size="14" font-weight="bold" lengthAdjust="spacing" textLength="118.9995" x="308.2951" y="422.9999">potrRecvThread.h</text></g><!--entity n12--><g class="entity" data-entity="n12" data-source-line="13" data-uid="ent0010" id="entity_n12"><rect fill="#F1F1F1" height="37.7799" rx="2.5" ry="2.5" style="stroke:#181818;stroke-width:0.5;" width="47.9999" x="581.7951" y="203"/><text fill="#000000" font-family="'Segoe UI', 'メイリオ', 'UDEV Gothic HSRFJPDOC', 'Hiragino Kaku Gothic ProN', 'ヒラギノ角ゴ ProN', 'Noto Sans JP', 'Helvetica Neue', Helvetica, Arial, sans-serif" font-size="14" lengthAdjust="spacing" textLength="27.9999" x="591.7951" y="226.9999">in.h</text></g><!--entity n11--><g class="entity" data-entity="n11" data-source-line="14" data-uid="ent0011" id="entity_n11"><rect fill="#F1F1F1" height="37.7799" rx="2.5" ry="2.5" style="stroke:#181818;stroke-width:0.5;" width="82.9997" x="636.2951" y="105"/><text fill="#000000" font-family="'Segoe UI', 'メイリオ', 'UDEV Gothic HSRFJPDOC', 'Hiragino Kaku Gothic ProN', 'ヒラギノ角ゴ ProN', 'Noto Sans JP', 'Helvetica Neue', Helvetica, Arial, sans-serif" font-size="14" lengthAdjust="spacing" textLength="62.9997" x="646.2951" y="128.9999">pthread.h</text></g><!--entity n4--><g class="entity" data-entity="n4" data-source-line="15" data-uid="ent0012" id="entity_n4"><rect fill="#F1F1F1" height="37.7799" rx="2.5" ry="2.5" style="stroke:#181818;stroke-width:0.5;" width="75.9998" x="386.7951" y="7"/><text fill="#000000" font-family="'Segoe UI', 'メイリオ', 'UDEV Gothic HSRFJPDOC', 'Hiragino Kaku Gothic ProN', 'ヒラギノ角ゴ ProN', 'Noto Sans JP', 'Helvetica Neue', Helvetica, Arial, sans-serif" font-size="14" lengthAdjust="spacing" textLength="55.9998" x="396.7951" y="30.9999">stddef.h</text></g><!--entity n5--><g class="entity" data-entity="n5" data-source-line="16" data-uid="ent0013" id="entity_n5"><rect fill="#F1F1F1" height="37.7799" rx="2.5" ry="2.5" style="stroke:#181818;stroke-width:0.5;" width="75.9998" x="122.7951" y="7"/><text fill="#000000" font-family="'Segoe UI', 'メイリオ', 'UDEV Gothic HSRFJPDOC', 'Hiragino Kaku Gothic ProN', 'ヒラギノ角ゴ ProN', 'Noto Sans JP', 'Helvetica Neue', Helvetica, Arial, sans-serif" font-size="14" lengthAdjust="spacing" textLength="55.9998" x="132.7951" y="30.9999">stdint.h</text></g><!--link n4 to n3--><g class="link" data-entity-1="n4" data-entity-2="n3" data-source-line="17" data-uid="lnk14" id="link_n4_n3"><path d="M386.6892,40.1454 C340.7101,57.2134 268.8426,83.8914 217.6606,102.8908" fill="none" id="n4-to-n3" style="stroke:#181818;stroke-width:1;"/><polygon fill="#181818" points="212.0357,104.9789,221.8652,105.5968,216.7232,103.2389,219.0811,98.0969,212.0357,104.9789" style="stroke:#181818;stroke-width:1;"/></g><!--link n5 to n3--><g class="link" data-entity-1="n5" data-entity-2="n3" data-source-line="18" data-uid="lnk15" id="link_n5_n3"><path d="M160.7951,45.3616 C160.7951,62.5424 160.7951,81.51 160.7951,98.6786" fill="none" id="n5-to-n3" style="stroke:#181818;stroke-width:1;"/><polygon fill="#181818" points="160.7951,104.6786,164.7951,95.6786,160.7951,99.6786,156.7951,95.6786,160.7951,104.6786" style="stroke:#181818;stroke-width:1;"/></g><!--link n6 to n3--><g class="link" data-entity-1="n6" data-entity-2="n3" data-source-line="19" data-uid="lnk16" id="link_n6_n3"><path d="M267.0308,45.128 C243.7721,62.3959 214.5506,84.0907 191.3119,101.3436" fill="none" id="n6-to-n3" style="stroke:#181818;stroke-width:1;"/><polygon fill="#181818" points="186.4944,104.9202,196.105,102.767,190.509,101.9397,191.3362,96.3437,186.4944,104.9202" style="stroke:#181818;stroke-width:1;"/></g><!--link n4 to n8--><g class="link" data-entity-1="n4" data-entity-2="n8" data-source-line="20" data-uid="lnk17" id="link_n4_n8"><path d="M399.8116,45.128 C377.2577,62.3959 349.0141,84.0198 326.4797,101.2727" fill="none" id="n4-to-n8" style="stroke:#181818;stroke-width:1;"/><polygon fill="#181818" points="321.7157,104.9202,331.2934,102.625,325.6857,101.8806,326.4301,96.273,321.7157,104.9202" style="stroke:#181818;stroke-width:1;"/></g><!--link n5 to n8--><g class="link" data-entity-1="n5" data-entity-2="n8" data-source-line="21" data-uid="lnk18" id="link_n5_n8"><path d="M187.3402,45.128 C211.3037,62.3959 241.5063,84.1596 265.4492,101.4125" fill="none" id="n5-to-n8" style="stroke:#181818;stroke-width:1;"/><polygon fill="#181818" points="270.3171,104.9202,265.3538,96.4134,266.2606,101.9971,260.6768,102.9039,270.3171,104.9202" style="stroke:#181818;stroke-width:1;"/></g><!--link n6 to n8--><g class="link" data-entity-1="n6" data-entity-2="n8" data-source-line="22" data-uid="lnk19" id="link_n6_n8"><path d="M293.5854,45.3616 C294.2867,62.5424 295.061,81.515 295.7618,98.6836" fill="none" id="n6-to-n8" style="stroke:#181818;stroke-width:1;"/><polygon fill="#181818" points="296.0065,104.6786,299.6361,95.5229,295.8026,99.6828,291.6428,95.8492,296.0065,104.6786" style="stroke:#181818;stroke-width:1;"/></g><!--link n4 to n9--><g class="link" data-entity-1="n4" data-entity-2="n9" data-source-line="23" data-uid="lnk20" id="link_n4_n9"><path d="M422.8195,45.3616 C421.0663,62.5424 419.1277,81.541 417.3758,98.7096" fill="none" id="n4-to-n9" style="stroke:#181818;stroke-width:1;"/><polygon fill="#181818" points="416.7667,104.6786,421.6597,96.1311,417.2743,99.7044,413.701,95.319,416.7667,104.6786" style="stroke:#181818;stroke-width:1;"/></g><!--link n5 to n9--><g class="link" data-entity-1="n5" data-entity-2="n9" data-source-line="24" data-uid="lnk21" id="link_n5_n9"><path d="M198.8215,40.6716 C246.7057,59.1466 322.9045,88.5461 370.911,107.0683" fill="none" id="n5-to-n9" style="stroke:#181818;stroke-width:1;"/><polygon fill="#181818" points="376.5088,109.2281,369.552,102.2566,371.844,107.4283,366.6722,109.7203,376.5088,109.2281" style="stroke:#181818;stroke-width:1;"/></g><!--link n6 to n9--><g class="link" data-entity-1="n6" data-entity-2="n9" data-source-line="25" data-uid="lnk22" id="link_n6_n9"><path d="M316.6076,45.128 C338.1043,62.3959 364.8869,83.9098 386.365,101.1627" fill="none" id="n6-to-n9" style="stroke:#181818;stroke-width:1;"/><polygon fill="#181818" points="391.0427,104.9202,386.5311,96.1654,387.1446,101.7889,381.5211,102.4024,391.0427,104.9202" style="stroke:#181818;stroke-width:1;"/></g><!--link n4 to n10--><g class="link" data-entity-1="n4" data-entity-2="n10" data-source-line="26" data-uid="lnk23" id="link_n4_n10"><path d="M462.8869,42.7483 C487.4662,55.8184 517.4374,76.5524 531.7951,105 C548.7114,138.5169 525.4853,174.8785 505.6246,198.3727" fill="none" id="n4-to-n10" style="stroke:#181818;stroke-width:1;"/><polygon fill="#181818" points="501.7511,202.9548,510.6161,198.6639,504.979,199.1363,504.5066,193.4993,501.7511,202.9548" style="stroke:#181818;stroke-width:1;"/></g><!--link n6 to n10--><g class="link" data-entity-1="n6" data-entity-2="n10" data-source-line="27" data-uid="lnk24" id="link_n6_n10"><path d="M351.4595,45.1274 C397.016,61.2092 454.8733,84.7498 469.7951,105 C491.0325,133.8209 490.4724,171.9529 487.5515,196.9692" fill="none" id="n6-to-n10" style="stroke:#181818;stroke-width:1;"/><polygon fill="#181818" points="486.8557,202.9287,491.8725,194.4533,487.4356,197.9624,483.9264,193.5255,486.8557,202.9287" style="stroke:#181818;stroke-width:1;"/></g><!--link n3 to n10--><g class="link" data-entity-1="n3" data-entity-2="n10" data-source-line="28" data-uid="lnk25" id="link_n3_n10"><path d="M216.3208,140.8468 C273.3184,158.1402 356.1045,183.258 415.5307,201.2882" fill="none" id="n3-to-n10" style="stroke:#181818;stroke-width:1;"/><polygon fill="#181818" points="421.2722,203.0302,413.8212,196.5895,416.4876,201.5785,411.4985,204.2449,421.2722,203.0302" style="stroke:#181818;stroke-width:1;"/></g><!--link n11 to n10--><g class="link" data-entity-1="n11" data-entity-2="n10" data-source-line="29" data-uid="lnk26" id="link_n11_n10"><path d="M639.9294,143.128 C605.7462,160.3959 561.0745,182.962 526.9208,200.2149" fill="none" id="n11-to-n10" style="stroke:#181818;stroke-width:1;"/><polygon fill="#181818" points="521.5653,202.9202,531.4021,202.4325,526.0282,200.6657,527.795,195.2919,521.5653,202.9202" style="stroke:#181818;stroke-width:1;"/></g><!--link n3 to n2--><g class="link" data-entity-1="n3" data-entity-2="n2" data-source-line="30" data-uid="lnk27" id="link_n3_n2"><path d="M181.0201,143.1502 C220.5936,180.6208 303.4919,259.1138 343.1313,296.6468" fill="none" id="n3-to-n2" style="stroke:#181818;stroke-width:1;"/><polygon fill="#181818" points="347.4881,300.7721,343.7031,291.6796,343.8574,297.3343,338.2027,297.4887,347.4881,300.7721" style="stroke:#181818;stroke-width:1;"/></g><!--link n7 to n2--><g class="link" data-entity-1="n7" data-entity-2="n2" data-source-line="31" data-uid="lnk28" id="link_n7_n2"><path d="M131.0327,235.6265 C178.702,252.6141 254.8018,279.7333 308.6618,298.927" fill="none" id="n7-to-n2" style="stroke:#181818;stroke-width:1;"/><polygon fill="#181818" points="314.3136,300.9411,307.1786,294.152,309.6037,299.2627,304.4931,301.6878,314.3136,300.9411" style="stroke:#181818;stroke-width:1;"/></g><!--link n8 to n2--><g class="link" data-entity-1="n8" data-entity-2="n2" data-source-line="32" data-uid="lnk29" id="link_n8_n2"><path d="M303.7322,143.1502 C317.3057,180.6208 345.1903,257.5978 358.7864,295.1308" fill="none" id="n8-to-n2" style="stroke:#181818;stroke-width:1;"/><polygon fill="#181818" points="360.8299,300.7721,361.5255,290.9478,359.127,296.071,354.0038,293.6725,360.8299,300.7721" style="stroke:#181818;stroke-width:1;"/></g><!--link n9 to n2--><g class="link" data-entity-1="n9" data-entity-2="n2" data-source-line="33" data-uid="lnk30" id="link_n9_n2"><path d="M410.203,143.1502 C401.2177,180.6208 382.8053,257.4045 373.805,294.9375" fill="none" id="n9-to-n2" style="stroke:#181818;stroke-width:1;"/><polygon fill="#181818" points="372.4059,300.7721,378.3943,292.953,373.5718,295.9099,370.6148,291.0875,372.4059,300.7721" style="stroke:#181818;stroke-width:1;"/></g><!--link n10 to n2--><g class="link" data-entity-1="n10" data-entity-2="n2" data-source-line="34" data-uid="lnk31" id="link_n10_n2"><path d="M461.1538,241.128 C440.7143,258.3959 415.3845,279.7952 394.9627,297.0481" fill="none" id="n10-to-n2" style="stroke:#181818;stroke-width:1;"/><polygon fill="#181818" points="390.3794,300.9202,399.8358,298.1676,394.1988,297.6934,394.673,292.0565,390.3794,300.9202" style="stroke:#181818;stroke-width:1;"/></g><!--link n11 to n2--><g class="link" data-entity-1="n11" data-entity-2="n2" data-source-line="35" data-uid="lnk32" id="link_n11_n2"><path d="M678.2016,143.4101 C677.6532,169.2169 672.7242,214.6283 646.7951,241 C615.7359,272.5894 501.419,297.0306 429.3122,309.8793" fill="none" id="n11-to-n2" style="stroke:#181818;stroke-width:1;"/><polygon fill="#181818" points="423.4052,310.9319,432.9673,313.291,428.3277,310.0548,431.5639,305.4151,423.4052,310.9319" style="stroke:#181818;stroke-width:1;"/></g><!--link n12 to n2--><g class="link" data-entity-1="n12" data-entity-2="n2" data-source-line="36" data-uid="lnk33" id="link_n12_n2"><path d="M581.4413,233.2243 C575.6762,235.8238 569.535,238.5462 563.7951,241 C514.0367,262.2718 462.1332,283.0595 422.3425,298.7221" fill="none" id="n12-to-n2" style="stroke:#181818;stroke-width:1;"/><polygon fill="#181818" points="416.7595,300.9197,426.5992,301.3453,421.412,299.0883,423.669,293.9012,416.7595,300.9197" style="stroke:#181818;stroke-width:1;"/></g><!--link n5 to n7--><g class="link" data-entity-1="n5" data-entity-2="n7" data-source-line="37" data-uid="lnk34" id="link_n5_n7"><path d="M122.5404,36.6814 C90.3594,47.9175 46.3962,69.0755 25.7951,105 C6,139.5193 37.5267,175.8346 63.9757,198.9939" fill="none" id="n5-to-n7" style="stroke:#181818;stroke-width:1;"/><polygon fill="#181818" points="68.4898,202.9465,64.3538,194.0082,64.7281,199.6527,59.0836,200.027,68.4898,202.9465" style="stroke:#181818;stroke-width:1;"/></g><!--link n6 to n7--><g class="link" data-entity-1="n6" data-entity-2="n7" data-source-line="38" data-uid="lnk35" id="link_n6_n7"><path d="M233.6808,40.8039 C179.4077,55.7328 104.8997,80.0778 87.7951,105 C67.777,134.1674 75.4173,172.0331 83.5596,196.952" fill="none" id="n6-to-n7" style="stroke:#181818;stroke-width:1;"/><polygon fill="#181818" points="85.4232,202.6553,86.43,192.858,83.8702,197.9026,78.8257,195.3428,85.4232,202.6553" style="stroke:#181818;stroke-width:1;"/></g><!--link n3 to n7--><g class="link" data-entity-1="n3" data-entity-2="n7" data-source-line="39" data-uid="lnk36" id="link_n3_n7"><path d="M147.3605,143.3616 C135.4392,160.5424 121.5352,180.5805 109.6223,197.7491" fill="none" id="n3-to-n7" style="stroke:#181818;stroke-width:1;"/><polygon fill="#181818" points="106.2018,202.6786,114.6189,197.5646,109.0522,198.5707,108.0462,193.004,106.2018,202.6786" style="stroke:#181818;stroke-width:1;"/></g><!--link n2 to n1--><g class="link" data-entity-1="n2" data-entity-2="n1" data-source-line="40" data-uid="lnk37" id="link_n2_n1"><path d="M367.7951,339.3616 C367.7951,356.5424 367.7951,375.51 367.7951,392.6786" fill="none" id="n2-to-n1" style="stroke:#181818;stroke-width:1;"/><polygon fill="#181818" points="367.7951,398.6786,371.7951,389.6786,367.7951,393.6786,363.7951,389.6786,367.7951,398.6786" style="stroke:#181818;stroke-width:1;"/></g><!--SRC=[RP3BReCm44NtV8MLxf2InkG1I54MpRQRFlQLYwU0GiR87fhozmN9da3QtT6SULpDmL7Vm34wF7fmvnfRPTL5VAhYN5hJeJwPnbX1Lg4R52155WfIM3OW5gsn1FQZCEXeLIs4SWBt_pHGtqBmcwalpAMru5oGsKpQlYKJL3xVI_ODKBzqqF5ckRvlEHaa-E5eoTHVQzJc6bGwLN4y3hz2yVrUML1wLSMnFo4UdkkoegUcW-b4ZHnYTgGbly1BEPMEj8QluBPtgaRElOjmAvRBu_Wyt37jcRpDs6PiCxOvsvnjpdPuNYYEkBcXb7_AIOGfKyQKCydr3UKD4qQV9EMZAIyVoFV9Nm00]--></g></svg>