<svg xmlns="http://www.w3.org/2000/svg" xmlns:xlink="http://www.w3.org/1999/xlink" contentStyleType="text/css" data-diagram-type="DESCRIPTION" height="344px" preserveAspectRatio="none" style="width:771px;height:344px;" version="1.1" viewBox="0 0 771 344" width="771px" zoomAndPan="magnify"><defs/><g><!--entity n2--><g class="entity" data-entity="n2" data-source-line="5" data-uid="ent0002" id="entity_n2"><rect fill="#F1F1F1" height="37.7799" rx="2.5" ry="2.5" style="stroke:#181818;stroke-width:0.5;" width="75.9998" x="7" y="105"/><text fill="#000000" font-family="'Segoe UI', 'メイリオ', 'UDEV Gothic HSRFJPDOC', 'Hiragino Kaku Gothic ProN', 'ヒラギノ角ゴ ProN', 'Noto Sans JP', 'Helvetica Neue', Helvetica, Arial, sans-serif" font-size="14" lengthAdjust="spacing" textLength="55.9998" x="17" y="128.9999">porter.h</text></g><!--entity n1--><g class="entity" data-entity="n1" data-source-line="6" data-uid="ent0003" id="entity_n1"><rect fill="#ADD8E6" height="37.7799" rx="2.5" ry="2.5" style="stroke:#181818;stroke-width:0.5;" width="116.6871" x="356.5" y="7"/><text fill="#000000" font-family="'Segoe UI', 'メイリオ', 'UDEV Gothic HSRFJPDOC', 'Hiragino Kaku Gothic ProN', 'ヒラギノ角ゴ ProN', 'Noto Sans JP', 'Helvetica Neue', Helvetica, Arial, sans-serif" font-size="14" font-weight="bold" lengthAdjust="spacing" textLength="96.6871" x="366.5" y="30.9999">porter_type.h</text></g><!--entity n10--><g class="entity" data-entity="n10" data-source-line="7" data-uid="ent0004" id="entity_n10"><rect fill="#F1F1F1" height="37.7799" rx="2.5" ry="2.5" style="stroke:#181818;stroke-width:0.5;" width="82.9997" x="118.5" y="105"/><text fill="#000000" font-family="'Segoe UI', 'メイリオ', 'UDEV Gothic HSRFJPDOC', 'Hiragino Kaku Gothic ProN', 'ヒラギノ角ゴ ProN', 'Noto Sans JP', 'Helvetica Neue', Helvetica, Arial, sans-serif" font-size="14" lengthAdjust="spacing" textLength="62.9997" x="128.5" y="128.9999">potrLog.h</text></g><!--entity n14--><g class="entity" data-entity="n14" data-source-line="8" data-uid="ent0005" id="entity_n14"><rect fill="#F1F1F1" height="37.7799" rx="2.5" ry="2.5" style="stroke:#181818;stroke-width:0.5;" width="124.9995" x="236.5" y="105"/><text fill="#000000" font-family="'Segoe UI', 'メイリオ', 'UDEV Gothic HSRFJPDOC', 'Hiragino Kaku Gothic ProN', 'ヒラギノ角ゴ ProN', 'Noto Sans JP', 'Helvetica Neue', Helvetica, Arial, sans-serif" font-size="14" lengthAdjust="spacing" textLength="104.9995" x="246.5" y="128.9999">potrSendQueue.h</text></g><!--entity n16--><g class="entity" data-entity="n16" data-source-line="9" data-uid="ent0006" id="entity_n16"><rect fill="#F1F1F1" height="37.7799" rx="2.5" ry="2.5" style="stroke:#181818;stroke-width:0.5;" width="110.9996" x="359.5" y="203"/><text fill="#000000" font-family="'Segoe UI', 'メイリオ', 'UDEV Gothic HSRFJPDOC', 'Hiragino Kaku Gothic ProN', 'ヒラギノ角ゴ ProN', 'Noto Sans JP', 'Helvetica Neue', Helvetica, Arial, sans-serif" font-size="14" lengthAdjust="spacing" textLength="90.9996" x="369.5" y="226.9999">potrContext.h</text></g><!--entity n20--><g class="entity" data-entity="n20" data-source-line="10" data-uid="ent0007" id="entity_n20"><rect fill="#F1F1F1" height="37.7799" rx="2.5" ry="2.5" style="stroke:#181818;stroke-width:0.5;" width="75.9998" x="468" y="105"/><text fill="#000000" font-family="'Segoe UI', 'メイリオ', 'UDEV Gothic HSRFJPDOC', 'Hiragino Kaku Gothic ProN', 'ヒラギノ角ゴ ProN', 'Noto Sans JP', 'Helvetica Neue', Helvetica, Arial, sans-serif" font-size="14" lengthAdjust="spacing" textLength="55.9998" x="478" y="128.9999">config.h</text></g><!--entity n22--><g class="entity" data-entity="n22" data-source-line="11" data-uid="ent0008" id="entity_n22"><rect fill="#F1F1F1" height="37.7799" rx="2.5" ry="2.5" style="stroke:#181818;stroke-width:0.5;" width="75.9998" x="579" y="105"/><text fill="#000000" font-family="'Segoe UI', 'メイリオ', 'UDEV Gothic HSRFJPDOC', 'Hiragino Kaku Gothic ProN', 'ヒラギノ角ゴ ProN', 'Noto Sans JP', 'Helvetica Neue', Helvetica, Arial, sans-serif" font-size="14" lengthAdjust="spacing" textLength="55.9998" x="589" y="128.9999">packet.h</text></g><!--entity n23--><g class="entity" data-entity="n23" data-source-line="12" data-uid="ent0009" id="entity_n23"><rect fill="#F1F1F1" height="37.7799" rx="2.5" ry="2.5" style="stroke:#181818;stroke-width:0.5;" width="75.9998" x="690" y="105"/><text fill="#000000" font-family="'Segoe UI', 'メイリオ', 'UDEV Gothic HSRFJPDOC', 'Hiragino Kaku Gothic ProN', 'ヒラギノ角ゴ ProN', 'Noto Sans JP', 'Helvetica Neue', Helvetica, Arial, sans-serif" font-size="14" lengthAdjust="spacing" textLength="55.9998" x="700" y="128.9999">window.h</text></g><!--entity n17--><g class="entity" data-entity="n17" data-source-line="13" data-uid="ent0010" id="entity_n17"><rect fill="#F1F1F1" height="37.7799" rx="2.5" ry="2.5" style="stroke:#181818;stroke-width:0.5;" width="145.9995" x="168" y="301"/><text fill="#000000" font-family="'Segoe UI', 'メイリオ', 'UDEV Gothic HSRFJPDOC', 'Hiragino Kaku Gothic ProN', 'ヒラギノ角ゴ ProN', 'Noto Sans JP', 'Helvetica Neue', Helvetica, Arial, sans-serif" font-size="14" lengthAdjust="spacing" textLength="125.9995" x="178" y="324.9999">potrHealthThread.h</text></g><!--entity n18--><g class="entity" data-entity="n18" data-source-line="14" data-uid="ent0011" id="entity_n18"><rect fill="#F1F1F1" height="37.7799" rx="2.5" ry="2.5" style="stroke:#181818;stroke-width:0.5;" width="131.9995" x="349" y="301"/><text fill="#000000" font-family="'Segoe UI', 'メイリオ', 'UDEV Gothic HSRFJPDOC', 'Hiragino Kaku Gothic ProN', 'ヒラギノ角ゴ ProN', 'Noto Sans JP', 'Helvetica Neue', Helvetica, Arial, sans-serif" font-size="14" lengthAdjust="spacing" textLength="111.9995" x="359" y="324.9999">potrRecvThread.h</text></g><!--entity n19--><g class="entity" data-entity="n19" data-source-line="15" data-uid="ent0012" id="entity_n19"><rect fill="#F1F1F1" height="37.7799" rx="2.5" ry="2.5" style="stroke:#181818;stroke-width:0.5;" width="131.9995" x="516" y="301"/><text fill="#000000" font-family="'Segoe UI', 'メイリオ', 'UDEV Gothic HSRFJPDOC', 'Hiragino Kaku Gothic ProN', 'ヒラギノ角ゴ ProN', 'Noto Sans JP', 'Helvetica Neue', Helvetica, Arial, sans-serif" font-size="14" lengthAdjust="spacing" textLength="111.9995" x="526" y="324.9999">potrSendThread.h</text></g><!--link n1 to n2--><g class="link" data-entity-1="n1" data-entity-2="n2" data-source-line="16" data-uid="lnk13" id="link_n1_n2"><path d="M356.4579,39.2386 C293.1032,53.9115 189.2889,78.9621 101,105 C95.1901,106.7134 94.7832,106.7711 88.8256,108.7312" fill="none" id="n1-to-n2" style="stroke:#181818;stroke-width:1;"/><polygon fill="#181818" points="83.1261,110.6064,92.9254,111.5933,87.8756,109.0438,90.4252,103.994,83.1261,110.6064" style="stroke:#181818;stroke-width:1;"/></g><!--link n1 to n10--><g class="link" data-entity-1="n1" data-entity-2="n10" data-source-line="17" data-uid="lnk14" id="link_n1_n10"><path d="M365.5311,45.0116 C317.8804,63.3244 252.2038,88.5648 207.339,105.8069" fill="none" id="n1-to-n10" style="stroke:#181818;stroke-width:1;"/><polygon fill="#181818" points="201.7384,107.9593,211.5743,108.4645,206.4056,106.1656,208.7044,100.9969,201.7384,107.9593" style="stroke:#181818;stroke-width:1;"/></g><!--link n1 to n14--><g class="link" data-entity-1="n1" data-entity-2="n14" data-source-line="18" data-uid="lnk15" id="link_n1_n14"><path d="M392.3587,45.128 C371.9192,62.3959 346.5894,83.7952 326.1675,101.0481" fill="none" id="n1-to-n14" style="stroke:#181818;stroke-width:1;"/><polygon fill="#181818" points="321.5842,104.9202,331.0406,102.1676,325.4036,101.6935,325.8778,96.0565,321.5842,104.9202" style="stroke:#181818;stroke-width:1;"/></g><!--link n1 to n16--><g class="link" data-entity-1="n1" data-entity-2="n16" data-source-line="19" data-uid="lnk16" id="link_n1_n16"><path d="M415,45.1502 C415,82.6208 415,159.2391 415,196.7721" fill="none" id="n1-to-n16" style="stroke:#181818;stroke-width:1;"/><polygon fill="#181818" points="415,202.7721,419,193.7721,415,197.7721,411,193.7721,415,202.7721" style="stroke:#181818;stroke-width:1;"/></g><!--link n1 to n20--><g class="link" data-entity-1="n1" data-entity-2="n20" data-source-line="20" data-uid="lnk17" id="link_n1_n20"><path d="M432.9787,45.3616 C448.9322,62.5424 468.0337,83.1132 483.976,100.2818" fill="none" id="n1-to-n20" style="stroke:#181818;stroke-width:1;"/><polygon fill="#181818" points="488.0587,104.6786,484.8658,95.3617,484.6564,101.0146,479.0035,100.8053,488.0587,104.6786" style="stroke:#181818;stroke-width:1;"/></g><!--link n1 to n22--><g class="link" data-entity-1="n1" data-entity-2="n22" data-source-line="21" data-uid="lnk18" id="link_n1_n22"><path d="M454.4272,45.128 C490.3645,62.563 537.7216,85.5383 573.3018,102.7999" fill="none" id="n1-to-n22" style="stroke:#181818;stroke-width:1;"/><polygon fill="#181818" points="578.7001,105.4188,572.3487,97.8916,574.2016,103.2363,568.8568,105.0892,578.7001,105.4188" style="stroke:#181818;stroke-width:1;"/></g><!--link n1 to n23--><g class="link" data-entity-1="n1" data-entity-2="n23" data-source-line="22" data-uid="lnk19" id="link_n1_n23"><path d="M473.592,43.2952 C526.0062,58.9202 604.8518,82.8031 673,105 C678.4752,106.7834 678.5592,106.7805 684.2115,108.7052" fill="none" id="n1-to-n23" style="stroke:#181818;stroke-width:1;"/><polygon fill="#181818" points="689.8912,110.6392,682.6609,103.9516,685.1581,109.0275,680.0822,111.5246,689.8912,110.6392" style="stroke:#181818;stroke-width:1;"/></g><!--link n14 to n16--><g class="link" data-entity-1="n14" data-entity-2="n16" data-source-line="23" data-uid="lnk20" id="link_n14_n16"><path d="M321.6413,143.128 C342.0808,160.3959 367.4106,181.7952 387.8325,199.0481" fill="none" id="n14-to-n16" style="stroke:#181818;stroke-width:1;"/><polygon fill="#181818" points="392.4158,202.9202,388.1222,194.0565,388.5964,199.6935,382.9594,200.1676,392.4158,202.9202" style="stroke:#181818;stroke-width:1;"/></g><!--link n16 to n17--><g class="link" data-entity-1="n16" data-entity-2="n17" data-source-line="24" data-uid="lnk21" id="link_n16_n17"><path d="M381.038,241.128 C350.3788,258.3959 310.7369,280.7229 280.1042,297.9758" fill="none" id="n16-to-n17" style="stroke:#181818;stroke-width:1;"/><polygon fill="#181818" points="274.8764,300.9202,284.6811,299.9888,279.2329,298.4665,280.7552,293.0183,274.8764,300.9202" style="stroke:#181818;stroke-width:1;"/></g><!--link n16 to n18--><g class="link" data-entity-1="n16" data-entity-2="n18" data-source-line="25" data-uid="lnk22" id="link_n16_n18"><path d="M415,241.3616 C415,258.5424 415,277.51 415,294.6786" fill="none" id="n16-to-n18" style="stroke:#181818;stroke-width:1;"/><polygon fill="#181818" points="415,300.6786,419,291.6786,415,295.6786,411,291.6786,415,300.6786" style="stroke:#181818;stroke-width:1;"/></g><!--link n16 to n19--><g class="link" data-entity-1="n16" data-entity-2="n19" data-source-line="26" data-uid="lnk23" id="link_n16_n19"><path d="M447.5957,241.128 C477.0215,258.3959 514.9113,280.6306 544.3117,297.8835" fill="none" id="n16-to-n19" style="stroke:#181818;stroke-width:1;"/><polygon fill="#181818" points="549.4865,300.9202,543.7488,292.9153,545.1742,298.3896,539.6998,299.815,549.4865,300.9202" style="stroke:#181818;stroke-width:1;"/></g><!--link n23 to n16--><g class="link" data-entity-1="n23" data-entity-2="n16" data-source-line="27" data-uid="lnk24" id="link_n23_n16"><path d="M689.8912,137.3608 C684.2389,139.2855 678.4752,141.2166 673,143 C603.5156,165.6321 528.6605,188.3044 476.29,203.9018" fill="none" id="n23-to-n16" style="stroke:#181818;stroke-width:1;"/><polygon fill="#181818" points="470.5396,205.6144,480.3069,206.8791,475.3316,204.1872,478.0234,199.2119,470.5396,205.6144" style="stroke:#181818;stroke-width:1;"/></g><!--SRC=[RP3BRi8m44Nt-GeBTf5u6HH0GYpAXWMRFlQLcmnnX3kE9XCeVrzN4CUnkZlIFRxZcLt3TmFxP3TxGdEfi5QaliMNoYybsHQBWpMM19F2naM0d13ahB0q84Qr9GQQwf5GZK0PHcdw23_vNiDKf-d3MOZngIerlvWMXarC9rjsLOjv7Bu35gyjjE2LLQmSB3Byi1UoKCWjdYlVBuVzRblmx-HWZrk5XRtvR1aFFO8oh3yqWIhyv7LilK5-ZPpDVnj6pZPn1vjCzd-txSYTnkEgnwnNUq7spzpFdH_8sPFN0My2ThFbilD_0G00]--></g></svg>