<svg xmlns="http://www.w3.org/2000/svg" xmlns:xlink="http://www.w3.org/1999/xlink" contentStyleType="text/css" data-diagram-type="DESCRIPTION" height="344px" preserveAspectRatio="none" style="width:742px;height:344px;" version="1.1" viewBox="0 0 742 344" width="742px" zoomAndPan="magnify"><defs/><g><!--entity n6--><g class="entity" data-entity="n6" data-source-line="5" data-uid="ent0002" id="entity_n6"><rect fill="#F1F1F1" height="37.7799" rx="2.5" ry="2.5" style="stroke:#181818;stroke-width:0.5;" width="117.9996" x="229" y="7"/><text fill="#000000" font-family="'Segoe UI', 'メイリオ', 'UDEV Gothic HSRFJPDOC', 'Hiragino Kaku Gothic ProN', 'ヒラギノ角ゴ ProN', 'Noto Sans JP', 'Helvetica Neue', Helvetica, Arial, sans-serif" font-size="14" lengthAdjust="spacing" textLength="97.9996" x="239" y="30.9999">porter_const.h</text></g><!--entity n7--><g class="entity" data-entity="n7" data-source-line="6" data-uid="ent0003" id="entity_n7"><rect fill="#F1F1F1" height="37.7799" rx="2.5" ry="2.5" style="stroke:#181818;stroke-width:0.5;" width="110.9996" x="100.5" y="105"/><text fill="#000000" font-family="'Segoe UI', 'メイリオ', 'UDEV Gothic HSRFJPDOC', 'Hiragino Kaku Gothic ProN', 'ヒラギノ角ゴ ProN', 'Noto Sans JP', 'Helvetica Neue', Helvetica, Arial, sans-serif" font-size="14" lengthAdjust="spacing" textLength="90.9996" x="110.5" y="128.9999">porter_type.h</text></g><!--entity n1--><g class="entity" data-entity="n1" data-source-line="7" data-uid="ent0004" id="entity_n1"><rect fill="#ADD8E6" height="37.7799" rx="2.5" ry="2.5" style="stroke:#181818;stroke-width:0.5;" width="79.4998" x="336.5" y="301"/><text fill="#000000" font-family="'Segoe UI', 'メイリオ', 'UDEV Gothic HSRFJPDOC', 'Hiragino Kaku Gothic ProN', 'ヒラギノ角ゴ ProN', 'Noto Sans JP', 'Helvetica Neue', Helvetica, Arial, sans-serif" font-size="14" font-weight="bold" lengthAdjust="spacing" textLength="59.4998" x="346.5" y="324.9999">config.c</text></g><!--entity n10--><g class="entity" data-entity="n10" data-source-line="8" data-uid="ent0005" id="entity_n10"><rect fill="#F1F1F1" height="37.7799" rx="2.5" ry="2.5" style="stroke:#181818;stroke-width:0.5;" width="75.9998" x="159" y="203"/><text fill="#000000" font-family="'Segoe UI', 'メイリオ', 'UDEV Gothic HSRFJPDOC', 'Hiragino Kaku Gothic ProN', 'ヒラギノ角ゴ ProN', 'Noto Sans JP', 'Helvetica Neue', Helvetica, Arial, sans-serif" font-size="14" lengthAdjust="spacing" textLength="55.9998" x="169" y="226.9999">config.h</text></g><!--entity n2--><g class="entity" data-entity="n2" data-source-line="9" data-uid="ent0006" id="entity_n2"><rect fill="#F1F1F1" height="37.7799" rx="2.5" ry="2.5" style="stroke:#181818;stroke-width:0.5;" width="68.9998" x="341.5" y="203"/><text fill="#000000" font-family="'Segoe UI', 'メイリオ', 'UDEV Gothic HSRFJPDOC', 'Hiragino Kaku Gothic ProN', 'ヒラギノ角ゴ ProN', 'Noto Sans JP', 'Helvetica Neue', Helvetica, Arial, sans-serif" font-size="14" lengthAdjust="spacing" textLength="48.9998" x="351.5" y="226.9999">ctype.h</text></g><!--entity n8--><g class="entity" data-entity="n8" data-source-line="10" data-uid="ent0007" id="entity_n8"><rect fill="#F1F1F1" height="37.7799" rx="2.5" ry="2.5" style="stroke:#181818;stroke-width:0.5;" width="75.9998" x="7" y="7"/><text fill="#000000" font-family="'Segoe UI', 'メイリオ', 'UDEV Gothic HSRFJPDOC', 'Hiragino Kaku Gothic ProN', 'ヒラギノ角ゴ ProN', 'Noto Sans JP', 'Helvetica Neue', Helvetica, Arial, sans-serif" font-size="14" lengthAdjust="spacing" textLength="55.9998" x="17" y="30.9999">stddef.h</text></g><!--entity n9--><g class="entity" data-entity="n9" data-source-line="11" data-uid="ent0008" id="entity_n9"><rect fill="#F1F1F1" height="37.7799" rx="2.5" ry="2.5" style="stroke:#181818;stroke-width:0.5;" width="75.9998" x="118" y="7"/><text fill="#000000" font-family="'Segoe UI', 'メイリオ', 'UDEV Gothic HSRFJPDOC', 'Hiragino Kaku Gothic ProN', 'ヒラギノ角ゴ ProN', 'Noto Sans JP', 'Helvetica Neue', Helvetica, Arial, sans-serif" font-size="14" lengthAdjust="spacing" textLength="55.9998" x="128" y="30.9999">stdint.h</text></g><!--entity n3--><g class="entity" data-entity="n3" data-source-line="12" data-uid="ent0009" id="entity_n3"><rect fill="#F1F1F1" height="37.7799" rx="2.5" ry="2.5" style="stroke:#181818;stroke-width:0.5;" width="68.9998" x="445.5" y="203"/><text fill="#000000" font-family="'Segoe UI', 'メイリオ', 'UDEV Gothic HSRFJPDOC', 'Hiragino Kaku Gothic ProN', 'ヒラギノ角ゴ ProN', 'Noto Sans JP', 'Helvetica Neue', Helvetica, Arial, sans-serif" font-size="14" lengthAdjust="spacing" textLength="48.9998" x="455.5" y="226.9999">stdio.h</text></g><!--entity n4--><g class="entity" data-entity="n4" data-source-line="13" data-uid="ent0010" id="entity_n4"><rect fill="#F1F1F1" height="37.7799" rx="2.5" ry="2.5" style="stroke:#181818;stroke-width:0.5;" width="75.9998" x="550" y="203"/><text fill="#000000" font-family="'Segoe UI', 'メイリオ', 'UDEV Gothic HSRFJPDOC', 'Hiragino Kaku Gothic ProN', 'ヒラギノ角ゴ ProN', 'Noto Sans JP', 'Helvetica Neue', Helvetica, Arial, sans-serif" font-size="14" lengthAdjust="spacing" textLength="55.9998" x="560" y="226.9999">stdlib.h</text></g><!--entity n5--><g class="entity" data-entity="n5" data-source-line="14" data-uid="ent0011" id="entity_n5"><rect fill="#F1F1F1" height="37.7799" rx="2.5" ry="2.5" style="stroke:#181818;stroke-width:0.5;" width="75.9998" x="661" y="203"/><text fill="#000000" font-family="'Segoe UI', 'メイリオ', 'UDEV Gothic HSRFJPDOC', 'Hiragino Kaku Gothic ProN', 'ヒラギノ角ゴ ProN', 'Noto Sans JP', 'Helvetica Neue', Helvetica, Arial, sans-serif" font-size="14" lengthAdjust="spacing" textLength="55.9998" x="671" y="226.9999">string.h</text></g><!--link n8 to n7--><g class="link" data-entity-1="n8" data-entity-2="n7" data-source-line="15" data-uid="lnk12" id="link_n8_n7"><path d="M66.6654,45.128 C86.2239,62.3959 110.3499,83.6962 129.8914,100.9491" fill="none" id="n8-to-n7" style="stroke:#181818;stroke-width:1;"/><polygon fill="#181818" points="134.3892,104.9202,130.2898,95.965,130.641,101.611,124.9951,101.9621,134.3892,104.9202" style="stroke:#181818;stroke-width:1;"/></g><!--link n9 to n7--><g class="link" data-entity-1="n9" data-entity-2="n7" data-source-line="16" data-uid="lnk13" id="link_n9_n7"><path d="M156,45.3616 C156,62.5424 156,81.51 156,98.6786" fill="none" id="n9-to-n7" style="stroke:#181818;stroke-width:1;"/><polygon fill="#181818" points="156,104.6786,160,95.6786,156,99.6786,152,95.6786,156,104.6786" style="stroke:#181818;stroke-width:1;"/></g><!--link n6 to n7--><g class="link" data-entity-1="n6" data-entity-2="n7" data-source-line="17" data-uid="lnk14" id="link_n6_n7"><path d="M262.2357,45.128 C238.977,62.3959 209.7554,84.0907 186.5168,101.3436" fill="none" id="n6-to-n7" style="stroke:#181818;stroke-width:1;"/><polygon fill="#181818" points="181.6993,104.9202,191.3099,102.7669,185.7139,101.9397,186.5411,96.3437,181.6993,104.9202" style="stroke:#181818;stroke-width:1;"/></g><!--link n2 to n1--><g class="link" data-entity-1="n2" data-entity-2="n1" data-source-line="18" data-uid="lnk15" id="link_n2_n1"><path d="M376,241.3616 C376,258.5424 376,277.51 376,294.6786" fill="none" id="n2-to-n1" style="stroke:#181818;stroke-width:1;"/><polygon fill="#181818" points="376,300.6786,380,291.6786,376,295.6786,372,291.6786,376,300.6786" style="stroke:#181818;stroke-width:1;"/></g><!--link n3 to n1--><g class="link" data-entity-1="n3" data-entity-2="n1" data-source-line="19" data-uid="lnk16" id="link_n3_n1"><path d="M459.4529,241.3616 C441.2203,258.5424 419.0908,279.3952 400.8711,296.5638" fill="none" id="n3-to-n1" style="stroke:#181818;stroke-width:1;"/><polygon fill="#181818" points="396.5044,300.6786,405.7977,297.4175,400.1433,297.2496,400.3113,291.5952,396.5044,300.6786" style="stroke:#181818;stroke-width:1;"/></g><!--link n4 to n1--><g class="link" data-entity-1="n4" data-entity-2="n1" data-source-line="20" data-uid="lnk17" id="link_n4_n1"><path d="M549.6084,239.7471 C511.6642,257.2873 459.3294,281.4799 420.9898,299.2029" fill="none" id="n4-to-n1" style="stroke:#181818;stroke-width:1;"/><polygon fill="#181818" points="415.5435,301.7205,425.3913,301.5749,420.082,299.6225,422.0345,294.3133,415.5435,301.7205" style="stroke:#181818;stroke-width:1;"/></g><!--link n5 to n1--><g class="link" data-entity-1="n5" data-entity-2="n1" data-source-line="21" data-uid="lnk18" id="link_n5_n1"><path d="M660.908,235.4128 C655.2533,237.3301 649.4845,239.2454 644,241 C563.3804,266.7925 473.921,292.5006 421.4545,307.2919" fill="none" id="n5-to-n1" style="stroke:#181818;stroke-width:1;"/><polygon fill="#181818" points="415.6796,308.92,425.4273,310.3279,420.492,307.5633,423.2566,302.628,415.6796,308.92" style="stroke:#181818;stroke-width:1;"/></g><!--link n6 to n1--><g class="link" data-entity-1="n6" data-entity-2="n1" data-source-line="22" data-uid="lnk19" id="link_n6_n1"><path d="M288.5651,45.1027 C290.2624,83.5149 297.0365,172.3023 324,241 C332.6988,263.1627 344.5498,280.8218 356.3793,296.081" fill="none" id="n6-to-n1" style="stroke:#181818;stroke-width:1;"/><polygon fill="#181818" points="360.0554,300.8229,357.7025,291.2592,356.992,296.8713,351.3799,296.1607,360.0554,300.8229" style="stroke:#181818;stroke-width:1;"/></g><!--link n7 to n1--><g class="link" data-entity-1="n7" data-entity-2="n1" data-source-line="23" data-uid="lnk20" id="link_n7_n1"><path d="M145.9673,143.4167 C134.6058,168.4133 120.2019,212.0664 141,241 C164.1129,273.1538 269.5254,298.6892 330.2974,311.1894" fill="none" id="n7-to-n1" style="stroke:#181818;stroke-width:1;"/><polygon fill="#181818" points="336.1744,312.3982,328.1648,306.667,331.2769,311.3908,326.5531,314.5029,336.1744,312.3982" style="stroke:#181818;stroke-width:1;"/></g><!--link n10 to n1--><g class="link" data-entity-1="n10" data-entity-2="n1" data-source-line="24" data-uid="lnk21" id="link_n10_n1"><path d="M231.9379,241.128 C263.4782,258.3959 304.3743,280.786 335.8873,298.0389" fill="none" id="n10-to-n1" style="stroke:#181818;stroke-width:1;"/><polygon fill="#181818" points="341.1502,300.9202,335.1768,293.0896,336.7645,298.5191,331.335,300.1068,341.1502,300.9202" style="stroke:#181818;stroke-width:1;"/></g><!--link n7 to n10--><g class="link" data-entity-1="n7" data-entity-2="n10" data-source-line="25" data-uid="lnk22" id="link_n7_n10"><path d="M164.1003,143.3616 C171.2881,160.5424 179.4181,179.9749 186.6008,197.1435" fill="none" id="n7-to-n10" style="stroke:#181818;stroke-width:1;"/><polygon fill="#181818" points="188.9165,202.6786,189.133,192.8321,186.9868,198.066,181.7529,195.9197,188.9165,202.6786" style="stroke:#181818;stroke-width:1;"/></g><!--SRC=[RSzB3e8m483XFQTeT4S2WZo4XB3GhNSm1Gesr2bfnuMtLmDC0DtzwJUTj8N5bnAbKnociBs4WHl-O1Ml-yxe9pGNhRHXQ3ZO3mb0nuWQENHAiDsW3GfpgpLOzEyxnYs3zCy0lWOn-sdfhlkvsyhEhrrtv93jhxAxuraznN9ocfkMXC7AblkFIx7ODAATATkG17frlYKzIxGH9QkPuZKP2VJ0n86CULxv_I_aL2dLSQpGWOWgfageKgeJLHZy70Pl]--></g></svg>