<svg xmlns="http://www.w3.org/2000/svg" xmlns:xlink="http://www.w3.org/1999/xlink" contentStyleType="text/css" data-diagram-type="DESCRIPTION" height="246px" preserveAspectRatio="none" style="width:398px;height:246px;" version="1.1" viewBox="0 0 398 246" width="398px" zoomAndPan="magnify"><defs/><g><!--entity n3--><g class="entity" data-entity="n3" data-source-line="5" data-uid="ent0002" id="entity_n3"><rect fill="#F1F1F1" height="37.7799" rx="2.5" ry="2.5" style="stroke:#181818;stroke-width:0.5;" width="117.9996" x="7" y="7"/><text fill="#000000" font-family="'Segoe UI', 'メイリオ', 'UDEV Gothic HSRFJPDOC', 'Hiragino Kaku Gothic ProN', 'ヒラギノ角ゴ ProN', 'Noto Sans JP', 'Helvetica Neue', Helvetica, Arial, sans-serif" font-size="14" lengthAdjust="spacing" textLength="97.9996" x="17" y="30.9999">porter_const.h</text></g><!--entity n4--><g class="entity" data-entity="n4" data-source-line="6" data-uid="ent0003" id="entity_n4"><rect fill="#F1F1F1" height="37.7799" rx="2.5" ry="2.5" style="stroke:#181818;stroke-width:0.5;" width="110.9996" x="119.5" y="105"/><text fill="#000000" font-family="'Segoe UI', 'メイリオ', 'UDEV Gothic HSRFJPDOC', 'Hiragino Kaku Gothic ProN', 'ヒラギノ角ゴ ProN', 'Noto Sans JP', 'Helvetica Neue', Helvetica, Arial, sans-serif" font-size="14" lengthAdjust="spacing" textLength="90.9996" x="129.5" y="128.9999">porter_type.h</text></g><!--entity n1--><g class="entity" data-entity="n1" data-source-line="7" data-uid="ent0004" id="entity_n1"><rect fill="#ADD8E6" height="37.7799" rx="2.5" ry="2.5" style="stroke:#181818;stroke-width:0.5;" width="131.562" x="175" y="203"/><text fill="#000000" font-family="'Segoe UI', 'メイリオ', 'UDEV Gothic HSRFJPDOC', 'Hiragino Kaku Gothic ProN', 'ヒラギノ角ゴ ProN', 'Noto Sans JP', 'Helvetica Neue', Helvetica, Arial, sans-serif" font-size="14" font-weight="bold" lengthAdjust="spacing" textLength="111.562" x="185" y="226.9999">potrSendQueue.h</text></g><!--entity n6--><g class="entity" data-entity="n6" data-source-line="8" data-uid="ent0005" id="entity_n6"><rect fill="#F1F1F1" height="37.7799" rx="2.5" ry="2.5" style="stroke:#181818;stroke-width:0.5;" width="82.9997" x="265.5" y="105"/><text fill="#000000" font-family="'Segoe UI', 'メイリオ', 'UDEV Gothic HSRFJPDOC', 'Hiragino Kaku Gothic ProN', 'ヒラギノ角ゴ ProN', 'Noto Sans JP', 'Helvetica Neue', Helvetica, Arial, sans-serif" font-size="14" lengthAdjust="spacing" textLength="62.9997" x="275.5" y="128.9999">pthread.h</text></g><!--entity n2--><g class="entity" data-entity="n2" data-source-line="9" data-uid="ent0006" id="entity_n2"><rect fill="#F1F1F1" height="37.7799" rx="2.5" ry="2.5" style="stroke:#181818;stroke-width:0.5;" width="75.9998" x="317" y="7"/><text fill="#000000" font-family="'Segoe UI', 'メイリオ', 'UDEV Gothic HSRFJPDOC', 'Hiragino Kaku Gothic ProN', 'ヒラギノ角ゴ ProN', 'Noto Sans JP', 'Helvetica Neue', Helvetica, Arial, sans-serif" font-size="14" lengthAdjust="spacing" textLength="55.9998" x="327" y="30.9999">stddef.h</text></g><!--entity n5--><g class="entity" data-entity="n5" data-source-line="10" data-uid="ent0007" id="entity_n5"><rect fill="#F1F1F1" height="37.7799" rx="2.5" ry="2.5" style="stroke:#181818;stroke-width:0.5;" width="75.9998" x="160" y="7"/><text fill="#000000" font-family="'Segoe UI', 'メイリオ', 'UDEV Gothic HSRFJPDOC', 'Hiragino Kaku Gothic ProN', 'ヒラギノ角ゴ ProN', 'Noto Sans JP', 'Helvetica Neue', Helvetica, Arial, sans-serif" font-size="14" lengthAdjust="spacing" textLength="55.9998" x="170" y="30.9999">stdint.h</text></g><!--link n2 to n4--><g class="link" data-entity-1="n2" data-entity-2="n4" data-source-line="11" data-uid="lnk8" id="link_n2_n4"><path d="M319.8669,45.128 C288.1504,62.3959 247.0031,84.7983 215.3141,102.0512" fill="none" id="n2-to-n4" style="stroke:#181818;stroke-width:1;"/><polygon fill="#181818" points="210.0445,104.9202,219.8616,104.1298,214.4358,102.5294,216.0362,97.1036,210.0445,104.9202" style="stroke:#181818;stroke-width:1;"/></g><!--link n5 to n4--><g class="link" data-entity-1="n5" data-entity-2="n4" data-source-line="12" data-uid="lnk9" id="link_n5_n4"><path d="M193.4559,45.3616 C189.4237,62.5424 184.9349,81.6687 180.9055,98.8373" fill="none" id="n5-to-n4" style="stroke:#181818;stroke-width:1;"/><polygon fill="#181818" points="179.5346,104.6786,185.4852,96.8306,180.677,99.8109,177.6968,95.0027,179.5346,104.6786" style="stroke:#181818;stroke-width:1;"/></g><!--link n3 to n4--><g class="link" data-entity-1="n3" data-entity-2="n4" data-source-line="13" data-uid="lnk10" id="link_n3_n4"><path d="M87.2751,45.128 C106.4811,62.3959 130.1273,83.6558 149.3168,100.9087" fill="none" id="n3-to-n4" style="stroke:#181818;stroke-width:1;"/><polygon fill="#181818" points="153.7786,104.9202,149.7602,95.9284,150.0604,101.5773,144.4115,101.8775,153.7786,104.9202" style="stroke:#181818;stroke-width:1;"/></g><!--link n2 to n1--><g class="link" data-entity-1="n2" data-entity-2="n1" data-source-line="14" data-uid="lnk11" id="link_n2_n1"><path d="M363.0904,45.1726 C372.0211,69.5227 383.0327,112.0861 366,143 C350.638,170.8815 326.2551,187.7235 299.6004,200.3234" fill="none" id="n2-to-n1" style="stroke:#181818;stroke-width:1;"/><polygon fill="#181818" points="294.1759,202.8876,304.0221,202.6576,298.6963,200.7508,300.6031,195.425,294.1759,202.8876" style="stroke:#181818;stroke-width:1;"/></g><!--link n3 to n1--><g class="link" data-entity-1="n3" data-entity-2="n1" data-source-line="15" data-uid="lnk12" id="link_n3_n1"><path d="M67.5406,45.0155 C70.4473,69.9699 78.7232,113.9931 102,143 C124.0627,170.4939 152.9557,187.7272 182.0036,200.5569" fill="none" id="n3-to-n1" style="stroke:#181818;stroke-width:1;"/><polygon fill="#181818" points="187.4921,202.981,180.8754,195.6858,182.9184,200.9609,177.6433,203.0038,187.4921,202.981" style="stroke:#181818;stroke-width:1;"/></g><!--link n4 to n1--><g class="link" data-entity-1="n4" data-entity-2="n1" data-source-line="16" data-uid="lnk13" id="link_n4_n1"><path d="M188.0395,143.3616 C199.6102,160.5424 213.0735,180.5334 224.636,197.702" fill="none" id="n4-to-n1" style="stroke:#181818;stroke-width:1;"/><polygon fill="#181818" points="227.9876,202.6786,226.278,192.9793,225.1946,198.5314,219.6425,197.4481,227.9876,202.6786" style="stroke:#181818;stroke-width:1;"/></g><!--link n6 to n1--><g class="link" data-entity-1="n6" data-entity-2="n1" data-source-line="17" data-uid="lnk14" id="link_n6_n1"><path d="M293.9605,143.3616 C282.3898,160.5424 268.9265,180.5334 257.364,197.702" fill="none" id="n6-to-n1" style="stroke:#181818;stroke-width:1;"/><polygon fill="#181818" points="254.0124,202.6786,262.3575,197.4481,256.8054,198.5314,255.722,192.9793,254.0124,202.6786" style="stroke:#181818;stroke-width:1;"/></g><!--SRC=[ROwz3e9048HxdkA2tILe-Aq8XROsnWSm9xS20VSkUql1suiHBcZilimtcKpfU1gW2ih30gxlq2fIJt5NTT-G6L6Vp618C2bqimBaWA1cXSq08hI66EXM6tIyRqEXdC3qJu4d2wlFjbvAQvYkWFeomZXtfFoqOh4xTqtBns64hq5k2PHUnugjSwmrF5QL_AWE_SKym4H4KVK-WxcdrDDYOv_Db7ag5de1]--></g></svg>