<svg xmlns="http://www.w3.org/2000/svg" xmlns:xlink="http://www.w3.org/1999/xlink" contentStyleType="text/css" data-diagram-type="DESCRIPTION" height="540px" preserveAspectRatio="none" style="width:1946px;height:540px;" version="1.1" viewBox="0 0 1946 540" width="1946px" zoomAndPan="magnify"><defs/><g><!--entity n10--><g class="entity" data-entity="n10" data-source-line="5" data-uid="ent0002" id="entity_n10"><rect fill="#F1F1F1" height="37.7799" rx="2.5" ry="2.5" style="stroke:#181818;stroke-width:0.5;" width="75.9998" x="360" y="301"/><text fill="#000000" font-family="'Segoe UI', 'メイリオ', 'UDEV Gothic HSRFJPDOC', 'Hiragino Kaku Gothic ProN', 'ヒラギノ角ゴ ProN', 'Noto Sans JP', 'Helvetica Neue', Helvetica, Arial, sans-serif" font-size="14" lengthAdjust="spacing" textLength="55.9998" x="370" y="324.9999">porter.h</text></g><!--entity n9--><g class="entity" data-entity="n9" data-source-line="6" data-uid="ent0003" id="entity_n9"><rect fill="#F1F1F1" height="37.7799" rx="2.5" ry="2.5" style="stroke:#181818;stroke-width:0.5;" width="117.9996" x="361" y="7"/><text fill="#000000" font-family="'Segoe UI', 'メイリオ', 'UDEV Gothic HSRFJPDOC', 'Hiragino Kaku Gothic ProN', 'ヒラギノ角ゴ ProN', 'Noto Sans JP', 'Helvetica Neue', Helvetica, Arial, sans-serif" font-size="14" lengthAdjust="spacing" textLength="97.9996" x="371" y="30.9999">porter_const.h</text></g><!--entity n11--><g class="entity" data-entity="n11" data-source-line="7" data-uid="ent0004" id="entity_n11"><rect fill="#F1F1F1" height="37.7799" rx="2.5" ry="2.5" style="stroke:#181818;stroke-width:0.5;" width="110.9996" x="330.5" y="105"/><text fill="#000000" font-family="'Segoe UI', 'メイリオ', 'UDEV Gothic HSRFJPDOC', 'Hiragino Kaku Gothic ProN', 'ヒラギノ角ゴ ProN', 'Noto Sans JP', 'Helvetica Neue', Helvetica, Arial, sans-serif" font-size="14" lengthAdjust="spacing" textLength="90.9996" x="340.5" y="128.9999">porter_type.h</text></g><!--entity n1--><g class="entity" data-entity="n1" data-source-line="8" data-uid="ent0005" id="entity_n1"><rect fill="#ADD8E6" height="37.7799" rx="2.5" ry="2.5" style="stroke:#181818;stroke-width:0.5;" width="146.437" x="897" y="497"/><text fill="#000000" font-family="'Segoe UI', 'メイリオ', 'UDEV Gothic HSRFJPDOC', 'Hiragino Kaku Gothic ProN', 'ヒラギノ角ゴ ProN', 'Noto Sans JP', 'Helvetica Neue', Helvetica, Arial, sans-serif" font-size="14" font-weight="bold" lengthAdjust="spacing" textLength="126.437" x="907" y="520.9999">potrOpenService.c</text></g><!--entity n18--><g class="entity" data-entity="n18" data-source-line="9" data-uid="ent0006" id="entity_n18"><rect fill="#F1F1F1" height="37.7799" rx="2.5" ry="2.5" style="stroke:#181818;stroke-width:0.5;" width="89.9997" x="849" y="105"/><text fill="#000000" font-family="'Segoe UI', 'メイリオ', 'UDEV Gothic HSRFJPDOC', 'Hiragino Kaku Gothic ProN', 'ヒラギノ角ゴ ProN', 'Noto Sans JP', 'Helvetica Neue', Helvetica, Arial, sans-serif" font-size="14" lengthAdjust="spacing" textLength="69.9997" x="859" y="128.9999">compress.h</text></g><!--entity n19--><g class="entity" data-entity="n19" data-source-line="10" data-uid="ent0007" id="entity_n19"><rect fill="#F1F1F1" height="37.7799" rx="2.5" ry="2.5" style="stroke:#181818;stroke-width:0.5;" width="75.9998" x="548" y="105"/><text fill="#000000" font-family="'Segoe UI', 'メイリオ', 'UDEV Gothic HSRFJPDOC', 'Hiragino Kaku Gothic ProN', 'ヒラギノ角ゴ ProN', 'Noto Sans JP', 'Helvetica Neue', Helvetica, Arial, sans-serif" font-size="14" lengthAdjust="spacing" textLength="55.9998" x="558" y="128.9999">crypto.h</text></g><!--entity n26--><g class="entity" data-entity="n26" data-source-line="11" data-uid="ent0008" id="entity_n26"><rect fill="#F1F1F1" height="37.7799" rx="2.5" ry="2.5" style="stroke:#181818;stroke-width:0.5;" width="82.9997" x="130.5" y="301"/><text fill="#000000" font-family="'Segoe UI', 'メイリオ', 'UDEV Gothic HSRFJPDOC', 'Hiragino Kaku Gothic ProN', 'ヒラギノ角ゴ ProN', 'Noto Sans JP', 'Helvetica Neue', Helvetica, Arial, sans-serif" font-size="14" lengthAdjust="spacing" textLength="62.9997" x="140.5" y="324.9999">potrLog.h</text></g><!--entity n20--><g class="entity" data-entity="n20" data-source-line="12" data-uid="ent0009" id="entity_n20"><rect fill="#F1F1F1" height="37.7799" rx="2.5" ry="2.5" style="stroke:#181818;stroke-width:0.5;" width="124.9995" x="522.5" y="203"/><text fill="#000000" font-family="'Segoe UI', 'メイリオ', 'UDEV Gothic HSRFJPDOC', 'Hiragino Kaku Gothic ProN', 'ヒラギノ角ゴ ProN', 'Noto Sans JP', 'Helvetica Neue', Helvetica, Arial, sans-serif" font-size="14" lengthAdjust="spacing" textLength="104.9995" x="532.5" y="226.9999">potrSendQueue.h</text></g><!--entity n17--><g class="entity" data-entity="n17" data-source-line="13" data-uid="ent0010" id="entity_n17"><rect fill="#F1F1F1" height="37.7799" rx="2.5" ry="2.5" style="stroke:#181818;stroke-width:0.5;" width="110.9996" x="645.5" y="301"/><text fill="#000000" font-family="'Segoe UI', 'メイリオ', 'UDEV Gothic HSRFJPDOC', 'Hiragino Kaku Gothic ProN', 'ヒラギノ角ゴ ProN', 'Noto Sans JP', 'Helvetica Neue', Helvetica, Arial, sans-serif" font-size="14" lengthAdjust="spacing" textLength="90.9996" x="655.5" y="324.9999">potrContext.h</text></g><!--entity n14--><g class="entity" data-entity="n14" data-source-line="14" data-uid="ent0011" id="entity_n14"><rect fill="#F1F1F1" height="37.7799" rx="2.5" ry="2.5" style="stroke:#181818;stroke-width:0.5;" width="75.9998" x="249" y="301"/><text fill="#000000" font-family="'Segoe UI', 'メイリオ', 'UDEV Gothic HSRFJPDOC', 'Hiragino Kaku Gothic ProN', 'ヒラギノ角ゴ ProN', 'Noto Sans JP', 'Helvetica Neue', Helvetica, Arial, sans-serif" font-size="14" lengthAdjust="spacing" textLength="55.9998" x="259" y="324.9999">config.h</text></g><!--entity n15--><g class="entity" data-entity="n15" data-source-line="15" data-uid="ent0012" id="entity_n15"><rect fill="#F1F1F1" height="37.7799" rx="2.5" ry="2.5" style="stroke:#181818;stroke-width:0.5;" width="75.9998" x="1063" y="203"/><text fill="#000000" font-family="'Segoe UI', 'メイリオ', 'UDEV Gothic HSRFJPDOC', 'Hiragino Kaku Gothic ProN', 'ヒラギノ角ゴ ProN', 'Noto Sans JP', 'Helvetica Neue', Helvetica, Arial, sans-serif" font-size="14" lengthAdjust="spacing" textLength="55.9998" x="1073" y="226.9999">packet.h</text></g><!--entity n16--><g class="entity" data-entity="n16" data-source-line="16" data-uid="ent0013" id="entity_n16"><rect fill="#F1F1F1" height="37.7799" rx="2.5" ry="2.5" style="stroke:#181818;stroke-width:0.5;" width="75.9998" x="127" y="203"/><text fill="#000000" font-family="'Segoe UI', 'メイリオ', 'UDEV Gothic HSRFJPDOC', 'Hiragino Kaku Gothic ProN', 'ヒラギノ角ゴ ProN', 'Noto Sans JP', 'Helvetica Neue', Helvetica, Arial, sans-serif" font-size="14" lengthAdjust="spacing" textLength="55.9998" x="137" y="226.9999">window.h</text></g><!--entity n23--><g class="entity" data-entity="n23" data-source-line="17" data-uid="ent0014" id="entity_n23"><rect fill="#F1F1F1" height="37.7799" rx="2.5" ry="2.5" style="stroke:#181818;stroke-width:0.5;" width="145.9995" x="497" y="399"/><text fill="#000000" font-family="'Segoe UI', 'メイリオ', 'UDEV Gothic HSRFJPDOC', 'Hiragino Kaku Gothic ProN', 'ヒラギノ角ゴ ProN', 'Noto Sans JP', 'Helvetica Neue', Helvetica, Arial, sans-serif" font-size="14" lengthAdjust="spacing" textLength="125.9995" x="507" y="422.9999">potrHealthThread.h</text></g><!--entity n22--><g class="entity" data-entity="n22" data-source-line="18" data-uid="ent0015" id="entity_n22"><rect fill="#F1F1F1" height="37.7799" rx="2.5" ry="2.5" style="stroke:#181818;stroke-width:0.5;" width="131.9995" x="678" y="399"/><text fill="#000000" font-family="'Segoe UI', 'メイリオ', 'UDEV Gothic HSRFJPDOC', 'Hiragino Kaku Gothic ProN', 'ヒラギノ角ゴ ProN', 'Noto Sans JP', 'Helvetica Neue', Helvetica, Arial, sans-serif" font-size="14" lengthAdjust="spacing" textLength="111.9995" x="688" y="422.9999">potrRecvThread.h</text></g><!--entity n24--><g class="entity" data-entity="n24" data-source-line="19" data-uid="ent0016" id="entity_n24"><rect fill="#F1F1F1" height="37.7799" rx="2.5" ry="2.5" style="stroke:#181818;stroke-width:0.5;" width="131.9995" x="845" y="399"/><text fill="#000000" font-family="'Segoe UI', 'メイリオ', 'UDEV Gothic HSRFJPDOC', 'Hiragino Kaku Gothic ProN', 'ヒラギノ角ゴ ProN', 'Noto Sans JP', 'Helvetica Neue', Helvetica, Arial, sans-serif" font-size="14" lengthAdjust="spacing" textLength="111.9995" x="855" y="422.9999">potrSendThread.h</text></g><!--entity n25--><g class="entity" data-entity="n25" data-source-line="20" data-uid="ent0017" id="entity_n25"><rect fill="#F1F1F1" height="37.7799" rx="2.5" ry="2.5" style="stroke:#181818;stroke-width:0.5;" width="103.9996" x="1154" y="399"/><text fill="#000000" font-family="'Segoe UI', 'メイリオ', 'UDEV Gothic HSRFJPDOC', 'Hiragino Kaku Gothic ProN', 'ヒラギノ角ゴ ProN', 'Noto Sans JP', 'Helvetica Neue', Helvetica, Arial, sans-serif" font-size="14" lengthAdjust="spacing" textLength="83.9996" x="1164" y="422.9999">potrIpAddr.h</text></g><!--entity n6--><g class="entity" data-entity="n6" data-source-line="21" data-uid="ent0018" id="entity_n6"><rect fill="#F1F1F1" height="37.7799" rx="2.5" ry="2.5" style="stroke:#181818;stroke-width:0.5;" width="61.9998" x="1263" y="301"/><text fill="#000000" font-family="'Segoe UI', 'メイリオ', 'UDEV Gothic HSRFJPDOC', 'Hiragino Kaku Gothic ProN', 'ヒラギノ角ゴ ProN', 'Noto Sans JP', 'Helvetica Neue', Helvetica, Arial, sans-serif" font-size="14" lengthAdjust="spacing" textLength="41.9998" x="1273" y="324.9999">inet.h</text></g><!--entity n5--><g class="entity" data-entity="n5" data-source-line="22" data-uid="ent0019" id="entity_n5"><rect fill="#F1F1F1" height="37.7799" rx="2.5" ry="2.5" style="stroke:#181818;stroke-width:0.5;" width="47.9999" x="1182" y="203"/><text fill="#000000" font-family="'Segoe UI', 'メイリオ', 'UDEV Gothic HSRFJPDOC', 'Hiragino Kaku Gothic ProN', 'ヒラギノ角ゴ ProN', 'Noto Sans JP', 'Helvetica Neue', Helvetica, Arial, sans-serif" font-size="14" lengthAdjust="spacing" textLength="27.9999" x="1192" y="226.9999">in.h</text></g><!--entity n21--><g class="entity" data-entity="n21" data-source-line="23" data-uid="ent0020" id="entity_n21"><rect fill="#F1F1F1" height="37.7799" rx="2.5" ry="2.5" style="stroke:#181818;stroke-width:0.5;" width="82.9997" x="730.5" y="105"/><text fill="#000000" font-family="'Segoe UI', 'メイリオ', 'UDEV Gothic HSRFJPDOC', 'Hiragino Kaku Gothic ProN', 'ヒラギノ角ゴ ProN', 'Noto Sans JP', 'Helvetica Neue', Helvetica, Arial, sans-serif" font-size="14" lengthAdjust="spacing" textLength="62.9997" x="740.5" y="128.9999">pthread.h</text></g><!--entity n12--><g class="entity" data-entity="n12" data-source-line="24" data-uid="ent0021" id="entity_n12"><rect fill="#F1F1F1" height="37.7799" rx="2.5" ry="2.5" style="stroke:#181818;stroke-width:0.5;" width="75.9998" x="649" y="7"/><text fill="#000000" font-family="'Segoe UI', 'メイリオ', 'UDEV Gothic HSRFJPDOC', 'Hiragino Kaku Gothic ProN', 'ヒラギノ角ゴ ProN', 'Noto Sans JP', 'Helvetica Neue', Helvetica, Arial, sans-serif" font-size="14" lengthAdjust="spacing" textLength="55.9998" x="659" y="30.9999">stddef.h</text></g><!--entity n13--><g class="entity" data-entity="n13" data-source-line="25" data-uid="ent0022" id="entity_n13"><rect fill="#F1F1F1" height="37.7799" rx="2.5" ry="2.5" style="stroke:#181818;stroke-width:0.5;" width="75.9998" x="538" y="7"/><text fill="#000000" font-family="'Segoe UI', 'メイリオ', 'UDEV Gothic HSRFJPDOC', 'Hiragino Kaku Gothic ProN', 'ヒラギノ角ゴ ProN', 'Noto Sans JP', 'Helvetica Neue', Helvetica, Arial, sans-serif" font-size="14" lengthAdjust="spacing" textLength="55.9998" x="548" y="30.9999">stdint.h</text></g><!--entity n2--><g class="entity" data-entity="n2" data-source-line="26" data-uid="ent0023" id="entity_n2"><rect fill="#F1F1F1" height="37.7799" rx="2.5" ry="2.5" style="stroke:#181818;stroke-width:0.5;" width="75.9998" x="1435" y="399"/><text fill="#000000" font-family="'Segoe UI', 'メイリオ', 'UDEV Gothic HSRFJPDOC', 'Hiragino Kaku Gothic ProN', 'ヒラギノ角ゴ ProN', 'Noto Sans JP', 'Helvetica Neue', Helvetica, Arial, sans-serif" font-size="14" lengthAdjust="spacing" textLength="55.9998" x="1445" y="422.9999">stdlib.h</text></g><!--entity n3--><g class="entity" data-entity="n3" data-source-line="27" data-uid="ent0024" id="entity_n3"><rect fill="#F1F1F1" height="37.7799" rx="2.5" ry="2.5" style="stroke:#181818;stroke-width:0.5;" width="75.9998" x="1546" y="399"/><text fill="#000000" font-family="'Segoe UI', 'メイリオ', 'UDEV Gothic HSRFJPDOC', 'Hiragino Kaku Gothic ProN', 'ヒラギノ角ゴ ProN', 'Noto Sans JP', 'Helvetica Neue', Helvetica, Arial, sans-serif" font-size="14" lengthAdjust="spacing" textLength="55.9998" x="1556" y="422.9999">string.h</text></g><!--entity n4--><g class="entity" data-entity="n4" data-source-line="28" data-uid="ent0025" id="entity_n4"><rect fill="#F1F1F1" height="37.7799" rx="2.5" ry="2.5" style="stroke:#181818;stroke-width:0.5;" width="75.9998" x="1657" y="399"/><text fill="#000000" font-family="'Segoe UI', 'メイリオ', 'UDEV Gothic HSRFJPDOC', 'Hiragino Kaku Gothic ProN', 'ヒラギノ角ゴ ProN', 'Noto Sans JP', 'Helvetica Neue', Helvetica, Arial, sans-serif" font-size="14" lengthAdjust="spacing" textLength="55.9998" x="1667" y="422.9999">socket.h</text></g><!--entity n8--><g class="entity" data-entity="n8" data-source-line="29" data-uid="ent0026" id="entity_n8"><rect fill="#F1F1F1" height="37.7799" rx="2.5" ry="2.5" style="stroke:#181818;stroke-width:0.5;" width="61.9998" x="1768" y="399"/><text fill="#000000" font-family="'Segoe UI', 'メイリオ', 'UDEV Gothic HSRFJPDOC', 'Hiragino Kaku Gothic ProN', 'ヒラギノ角ゴ ProN', 'Noto Sans JP', 'Helvetica Neue', Helvetica, Arial, sans-serif" font-size="14" lengthAdjust="spacing" textLength="41.9998" x="1778" y="422.9999">time.h</text></g><!--entity n7--><g class="entity" data-entity="n7" data-source-line="30" data-uid="ent0027" id="entity_n7"><rect fill="#F1F1F1" height="37.7799" rx="2.5" ry="2.5" style="stroke:#181818;stroke-width:0.5;" width="75.9998" x="1865" y="399"/><text fill="#000000" font-family="'Segoe UI', 'メイリオ', 'UDEV Gothic HSRFJPDOC', 'Hiragino Kaku Gothic ProN', 'ヒラギノ角ゴ ProN', 'Noto Sans JP', 'Helvetica Neue', Helvetica, Arial, sans-serif" font-size="14" lengthAdjust="spacing" textLength="55.9998" x="1875" y="422.9999">unistd.h</text></g><!--link n11 to n10--><g class="link" data-entity-1="n11" data-entity-2="n10" data-source-line="31" data-uid="lnk28" id="link_n11_n10"><path d="M387.1725,143.1502 C389.4666,180.6208 394.1581,257.2503 396.4561,294.7833" fill="none" id="n11-to-n10" style="stroke:#181818;stroke-width:1;"/><polygon fill="#181818" points="396.8228,300.7721,400.2653,291.5445,396.5172,295.7814,392.2803,292.0334,396.8228,300.7721" style="stroke:#181818;stroke-width:1;"/></g><!--link n12 to n11--><g class="link" data-entity-1="n12" data-entity-2="n11" data-source-line="32" data-uid="lnk29" id="link_n12_n11"><path d="M648.7688,39.0575 C642.8252,41.0626 636.7507,43.0974 631,45 C566.083,66.4776 496.9661,88.6778 447.2576,104.5323" fill="none" id="n12-to-n11" style="stroke:#181818;stroke-width:1;"/><polygon fill="#181818" points="441.5413,106.3555,451.3312,107.4315,446.3049,104.8362,448.9003,99.8098,441.5413,106.3555" style="stroke:#181818;stroke-width:1;"/></g><!--link n13 to n11--><g class="link" data-entity-1="n13" data-entity-2="n11" data-source-line="33" data-uid="lnk30" id="link_n13_n11"><path d="M538.915,45.128 C505.4366,62.3959 461.7734,84.9169 428.3239,102.1698" fill="none" id="n13-to-n11" style="stroke:#181818;stroke-width:1;"/><polygon fill="#181818" points="422.9914,104.9202,432.8237,104.3495,427.4351,102.6282,429.1565,97.2396,422.9914,104.9202" style="stroke:#181818;stroke-width:1;"/></g><!--link n9 to n11--><g class="link" data-entity-1="n9" data-entity-2="n11" data-source-line="34" data-uid="lnk31" id="link_n9_n11"><path d="M413.2827,45.3616 C407.322,62.5424 400.6264,81.8415 394.67,99.0101" fill="none" id="n9-to-n11" style="stroke:#181818;stroke-width:1;"/><polygon fill="#181818" points="392.7034,104.6786,399.4324,97.4869,394.3423,99.9548,391.8743,94.8647,392.7034,104.6786" style="stroke:#181818;stroke-width:1;"/></g><!--link n2 to n1--><g class="link" data-entity-1="n2" data-entity-2="n1" data-source-line="35" data-uid="lnk32" id="link_n2_n1"><path d="M1434.684,429.9311 C1425.959,432.4435 1416.6971,434.9506 1408,437 C1280.897,466.9502 1136.657,490.8747 1049.2676,504.2958" fill="none" id="n2-to-n1" style="stroke:#181818;stroke-width:1;"/><polygon fill="#181818" points="1043.3371,505.2066,1052.84,507.7941,1048.2792,504.4476,1051.6256,499.8868,1043.3371,505.2066" style="stroke:#181818;stroke-width:1;"/></g><!--link n3 to n1--><g class="link" data-entity-1="n3" data-entity-2="n1" data-source-line="36" data-uid="lnk33" id="link_n3_n1"><path d="M1545.8145,432.2431 C1540.2253,434.0196 1534.4998,435.6744 1529,437 C1357.4879,478.3374 1156.78,500.0687 1049.1774,509.6441" fill="none" id="n3-to-n1" style="stroke:#181818;stroke-width:1;"/><polygon fill="#181818" points="1043.201,510.1759,1052.5201,513.3624,1048.1813,509.7327,1051.811,505.3939,1043.201,510.1759" style="stroke:#181818;stroke-width:1;"/></g><!--link n4 to n1--><g class="link" data-entity-1="n4" data-entity-2="n1" data-source-line="37" data-uid="lnk34" id="link_n4_n1"><path d="M1656.8418,432.3592 C1651.2486,434.1187 1645.5147,435.7379 1640,437 C1426.4962,485.8644 1173.3968,505.1549 1049.2417,512.1867" fill="none" id="n4-to-n1" style="stroke:#181818;stroke-width:1;"/><polygon fill="#181818" points="1043.2513,512.526,1052.4631,516.0107,1048.2433,512.2433,1052.0107,508.0235,1043.2513,512.526" style="stroke:#181818;stroke-width:1;"/></g><!--link n5 to n1--><g class="link" data-entity-1="n5" data-entity-2="n1" data-source-line="38" data-uid="lnk35" id="link_n5_n1"><path d="M1230.1424,227.9046 C1262.5046,237.2636 1318.6904,258.9204 1343,301 C1365.1312,339.3088 1323.1318,425.891 1311,437 C1272.4004,472.3454 1137.3122,495.1076 1049.1636,506.7312" fill="none" id="n5-to-n1" style="stroke:#181818;stroke-width:1;"/><polygon fill="#181818" points="1043.2151,507.5156,1052.6608,510.3047,1048.1722,506.8619,1051.6149,502.3733,1043.2151,507.5156" style="stroke:#181818;stroke-width:1;"/></g><!--link n6 to n1--><g class="link" data-entity-1="n6" data-entity-2="n1" data-source-line="39" data-uid="lnk36" id="link_n6_n1"><path d="M1296.9344,339.278 C1299.6742,364.9349 1300.2662,410.1771 1276,437 C1245.1263,471.1265 1129.2567,493.5614 1048.9477,505.5863" fill="none" id="n6-to-n1" style="stroke:#181818;stroke-width:1;"/><polygon fill="#181818" points="1043.0138,506.4748,1052.5069,509.098,1047.9587,505.7344,1051.3222,501.1862,1043.0138,506.4748" style="stroke:#181818;stroke-width:1;"/></g><!--link n7 to n1--><g class="link" data-entity-1="n7" data-entity-2="n1" data-source-line="40" data-uid="lnk37" id="link_n7_n1"><path d="M1864.8728,432.4989 C1859.275,434.238 1853.5316,435.8142 1848,437 C1694.7995,469.8422 1231.0033,500.3219 1049.0457,511.3548" fill="none" id="n7-to-n1" style="stroke:#181818;stroke-width:1;"/><polygon fill="#181818" points="1043.0567,511.7179,1052.2823,515.1659,1048.0475,511.4153,1051.7981,507.1805,1043.0567,511.7179" style="stroke:#181818;stroke-width:1;"/></g><!--link n8 to n1--><g class="link" data-entity-1="n8" data-entity-2="n1" data-source-line="41" data-uid="lnk38" id="link_n8_n1"><path d="M1767.9046,431.7411 C1762.3597,433.7769 1756.5731,435.6429 1751,437 C1617.6767,469.4653 1216.8278,499.3292 1049.2781,510.7701" fill="none" id="n8-to-n1" style="stroke:#181818;stroke-width:1;"/><polygon fill="#181818" points="1043.292,511.1788,1052.5436,514.5564,1048.2804,510.8382,1051.9986,506.575,1043.292,511.1788" style="stroke:#181818;stroke-width:1;"/></g><!--link n9 to n1--><g class="link" data-entity-1="n9" data-entity-2="n1" data-source-line="42" data-uid="lnk39" id="link_n9_n1"><path d="M360.6839,40.8752 C246.2092,71.3275 6,144.4651 6,222 C6,222 6,222 6,320 C6,402.4621 73.7044,405.7114 150,437 C284.3928,492.1142 715.7688,509.3375 890.7085,514.1695" fill="none" id="n9-to-n1" style="stroke:#181818;stroke-width:1;"/><polygon fill="#181818" points="896.7062,514.3352,887.8201,510.0882,891.7081,514.1971,887.5992,518.0852,896.7062,514.3352" style="stroke:#181818;stroke-width:1;"/></g><!--link n10 to n1--><g class="link" data-entity-1="n10" data-entity-2="n1" data-source-line="43" data-uid="lnk40" id="link_n10_n1"><path d="M377.8083,339.4187 C354.2309,364.4176 321.5095,408.0731 347,437 C382.8828,477.7203 733.8833,502.54 890.7358,511.714" fill="none" id="n10-to-n1" style="stroke:#181818;stroke-width:1;"/><polygon fill="#181818" points="896.7256,512.0643,887.9745,507.5456,891.7341,511.7724,887.5074,515.532,896.7256,512.0643" style="stroke:#181818;stroke-width:1;"/></g><!--link n14 to n1--><g class="link" data-entity-1="n14" data-entity-2="n1" data-source-line="44" data-uid="lnk41" id="link_n14_n1"><path d="M288.1388,339.2981 C290.8224,365.8455 299.8235,413.0578 330,437 C373.7693,471.7268 732.453,499.9197 890.9417,510.8341" fill="none" id="n14-to-n1" style="stroke:#181818;stroke-width:1;"/><polygon fill="#181818" points="896.9275,511.2463,888.2236,506.6374,891.9393,510.9028,887.674,514.6185,896.9275,511.2463" style="stroke:#181818;stroke-width:1;"/></g><!--link n15 to n1--><g class="link" data-entity-1="n15" data-entity-2="n1" data-source-line="45" data-uid="lnk42" id="link_n15_n1"><path d="M1100.8319,241.1874 C1099.6978,280.5144 1092.9485,372.0259 1056,437 C1042.0695,461.4968 1022.7283,479.103 1003.5571,493.3508" fill="none" id="n15-to-n1" style="stroke:#181818;stroke-width:1;"/><polygon fill="#181818" points="998.7414,496.9298,1008.3509,494.7718,1002.7545,493.9473,1003.579,488.3509,998.7414,496.9298" style="stroke:#181818;stroke-width:1;"/></g><!--link n16 to n1--><g class="link" data-entity-1="n16" data-entity-2="n1" data-source-line="46" data-uid="lnk43" id="link_n16_n1"><path d="M145.8303,241.1928 C125.0016,264.4894 96.7332,304.8923 113,339 C142.7904,401.4633 170.0946,410.4438 234,437 C352.673,486.3151 729.1432,506.5484 890.793,513.1478" fill="none" id="n16-to-n1" style="stroke:#181818;stroke-width:1;"/><polygon fill="#181818" points="896.788,513.3925,887.9587,509.0287,891.7922,513.1885,887.6323,517.022,896.788,513.3925" style="stroke:#181818;stroke-width:1;"/></g><!--link n17 to n1--><g class="link" data-entity-1="n17" data-entity-2="n1" data-source-line="47" data-uid="lnk44" id="link_n17_n1"><path d="M645.1945,328.1943 C563.6974,342.4175 427.1544,376.1459 479,437 C505.7714,468.4231 760.6038,496.4162 890.8218,508.8551" fill="none" id="n17-to-n1" style="stroke:#181818;stroke-width:1;"/><polygon fill="#181818" points="896.7946,509.4256,888.2157,504.5879,891.8173,508.9501,887.455,512.5517,896.7946,509.4256" style="stroke:#181818;stroke-width:1;"/></g><!--link n22 to n1--><g class="link" data-entity-1="n22" data-entity-2="n1" data-source-line="48" data-uid="lnk45" id="link_n22_n1"><path d="M787.843,437.0116 C827.6357,454.2668 880.5146,477.1966 920.389,494.4872" fill="none" id="n22-to-n1" style="stroke:#181818;stroke-width:1;"/><polygon fill="#181818" points="925.8937,496.8742,919.2279,489.6239,921.3064,494.885,916.0452,496.9635,925.8937,496.8742" style="stroke:#181818;stroke-width:1;"/></g><!--link n23 to n1--><g class="link" data-entity-1="n23" data-entity-2="n1" data-source-line="49" data-uid="lnk46" id="link_n23_n1"><path d="M643.3662,435.9747 C715.4263,453.6294 818.9173,478.9847 890.9335,496.6287" fill="none" id="n23-to-n1" style="stroke:#181818;stroke-width:1;"/><polygon fill="#181818" points="896.7611,498.0565,888.9715,492.0297,891.9047,496.8667,887.0678,499.7999,896.7611,498.0565" style="stroke:#181818;stroke-width:1;"/></g><!--link n18 to n1--><g class="link" data-entity-1="n18" data-entity-2="n1" data-source-line="50" data-uid="lnk47" id="link_n18_n1"><path d="M903.5705,143.0271 C924.9966,186.8182 976.3275,298.6875 994,399 C1000.08,433.5114 989.8749,467.8649 980.7399,491.0223" fill="none" id="n18-to-n1" style="stroke:#181818;stroke-width:1;"/><polygon fill="#181818" points="978.5382,496.6037,985.5618,489.6994,980.373,491.9525,978.1198,486.7637,978.5382,496.6037" style="stroke:#181818;stroke-width:1;"/></g><!--link n20 to n1--><g class="link" data-entity-1="n20" data-entity-2="n1" data-source-line="51" data-uid="lnk48" id="link_n20_n1"><path d="M558.9341,241.0041 C507.983,280.3817 404.7901,372.5795 460,437 C488.0774,469.7615 756.6709,497.416 890.8945,509.3639" fill="none" id="n20-to-n1" style="stroke:#181818;stroke-width:1;"/><polygon fill="#181818" points="896.8709,509.8959,888.261,505.1137,891.8906,509.4526,887.5517,513.0822,896.8709,509.8959" style="stroke:#181818;stroke-width:1;"/></g><!--link n24 to n1--><g class="link" data-entity-1="n24" data-entity-2="n1" data-source-line="52" data-uid="lnk49" id="link_n24_n1"><path d="M922.6565,437.3616 C933,454.5424 944.9368,474.3697 955.273,491.5383" fill="none" id="n24-to-n1" style="stroke:#181818;stroke-width:1;"/><polygon fill="#181818" points="958.3677,496.6786,957.1526,486.905,955.7888,492.395,950.2988,491.0312,958.3677,496.6786" style="stroke:#181818;stroke-width:1;"/></g><!--link n25 to n1--><g class="link" data-entity-1="n25" data-entity-2="n1" data-source-line="53" data-uid="lnk50" id="link_n25_n1"><path d="M1160.217,437.0116 C1118.6636,454.2668 1063.2379,477.2826 1021.5991,494.5732" fill="none" id="n25-to-n1" style="stroke:#181818;stroke-width:1;"/><polygon fill="#181818" points="1016.0579,496.8742,1025.9038,497.1168,1020.6756,494.9567,1022.8358,489.7285,1016.0579,496.8742" style="stroke:#181818;stroke-width:1;"/></g><!--link n26 to n1--><g class="link" data-entity-1="n26" data-entity-2="n1" data-source-line="54" data-uid="lnk51" id="link_n26_n1"><path d="M185.7254,339.3086 C206.131,366.3249 247.2353,414.6034 295,437 C400.4914,486.4644 738.9706,506.3649 890.897,512.9967" fill="none" id="n26-to-n1" style="stroke:#181818;stroke-width:1;"/><polygon fill="#181818" points="896.8913,513.2584,888.0743,508.8697,891.8961,513.0404,887.7254,516.8621,896.8913,513.2584" style="stroke:#181818;stroke-width:1;"/></g><!--link n12 to n18--><g class="link" data-entity-1="n12" data-entity-2="n18" data-source-line="55" data-uid="lnk52" id="link_n12_n18"><path d="M725.45,44.2034 C761.9289,61.4736 811.1152,84.7598 848.2124,102.3228" fill="none" id="n12-to-n18" style="stroke:#181818;stroke-width:1;"/><polygon fill="#181818" points="853.6354,104.8902,847.2126,97.4238,849.1163,102.7507,843.7894,104.6544,853.6354,104.8902" style="stroke:#181818;stroke-width:1;"/></g><!--link n13 to n18--><g class="link" data-entity-1="n13" data-entity-2="n18" data-source-line="56" data-uid="lnk53" id="link_n13_n18"><path d="M614.0997,39.389 C619.7533,41.3097 625.5197,43.2322 631,45 C719.3213,73.4904 742.1305,78.2686 831,105 C836.7981,106.744 837.151,106.849 843.1756,108.6646" fill="none" id="n13-to-n18" style="stroke:#181818;stroke-width:1;"/><polygon fill="#181818" points="848.9204,110.3959,841.4574,103.9691,844.1331,108.9532,839.149,111.6288,848.9204,110.3959" style="stroke:#181818;stroke-width:1;"/></g><!--link n9 to n18--><g class="link" data-entity-1="n9" data-entity-2="n18" data-source-line="57" data-uid="lnk54" id="link_n9_n18"><path d="M479.1392,37.2861 C590.8274,58.6117 822.4454,102.8938 831,105 C836.7683,106.4202 837.022,106.4038 842.9603,108.0952" fill="none" id="n9-to-n18" style="stroke:#181818;stroke-width:1;"/><polygon fill="#181818" points="848.7308,109.7388,841.1708,103.4264,843.9221,108.3691,838.9793,111.1204,848.7308,109.7388" style="stroke:#181818;stroke-width:1;"/></g><!--link n12 to n19--><g class="link" data-entity-1="n12" data-entity-2="n19" data-source-line="58" data-uid="lnk55" id="link_n12_n19"><path d="M667.0457,45.3616 C649.339,62.5424 627.9131,83.3318 610.219,100.5004" fill="none" id="n12-to-n19" style="stroke:#181818;stroke-width:1;"/><polygon fill="#181818" points="605.9129,104.6786,615.1575,101.282,609.5013,101.1968,609.5866,95.5405,605.9129,104.6786" style="stroke:#181818;stroke-width:1;"/></g><!--link n13 to n19--><g class="link" data-entity-1="n13" data-entity-2="n19" data-source-line="59" data-uid="lnk56" id="link_n13_n19"><path d="M577.9757,45.3616 C579.7288,62.5424 581.6674,81.541 583.4193,98.7096" fill="none" id="n13-to-n19" style="stroke:#181818;stroke-width:1;"/><polygon fill="#181818" points="584.0284,104.6786,587.0941,95.319,583.5208,99.7044,579.1354,96.1311,584.0284,104.6786" style="stroke:#181818;stroke-width:1;"/></g><!--link n9 to n19--><g class="link" data-entity-1="n9" data-entity-2="n19" data-source-line="60" data-uid="lnk57" id="link_n9_n19"><path d="M452.4005,45.128 C481.6501,62.3959 519.2901,84.617 548.5144,101.8699" fill="none" id="n9-to-n19" style="stroke:#181818;stroke-width:1;"/><polygon fill="#181818" points="553.6812,104.9202,547.9645,96.9003,549.3755,102.3783,543.8975,103.7893,553.6812,104.9202" style="stroke:#181818;stroke-width:1;"/></g><!--link n11 to n26--><g class="link" data-entity-1="n11" data-entity-2="n26" data-source-line="61" data-uid="lnk58" id="link_n11_n26"><path d="M365.0911,143.1502 C324.1793,180.6208 238.3982,259.1866 197.4183,296.7196" fill="none" id="n11-to-n26" style="stroke:#181818;stroke-width:1;"/><polygon fill="#181818" points="192.9937,300.7721,202.3323,297.6431,196.6809,297.395,196.929,291.7436,192.9937,300.7721" style="stroke:#181818;stroke-width:1;"/></g><!--link n12 to n20--><g class="link" data-entity-1="n12" data-entity-2="n20" data-source-line="62" data-uid="lnk59" id="link_n12_n20"><path d="M681.0243,45.2719 C673.3114,68.9944 658.7498,110.1684 641,143 C629.3269,164.5915 616.4458,182.5207 604.3587,198.0067" fill="none" id="n12-to-n20" style="stroke:#181818;stroke-width:1;"/><polygon fill="#181818" points="600.667,202.7365,609.3578,198.1029,603.7434,198.795,603.0514,193.1806,600.667,202.7365" style="stroke:#181818;stroke-width:1;"/></g><!--link n9 to n20--><g class="link" data-entity-1="n9" data-entity-2="n20" data-source-line="63" data-uid="lnk60" id="link_n9_n20"><path d="M436.1213,45.1502 C467.6655,82.6208 533.3525,160.649 564.9491,198.182" fill="none" id="n9-to-n20" style="stroke:#181818;stroke-width:1;"/><polygon fill="#181818" points="568.8132,202.7721,566.0771,193.3109,565.5931,198.947,559.957,198.463,568.8132,202.7721" style="stroke:#181818;stroke-width:1;"/></g><!--link n11 to n20--><g class="link" data-entity-1="n11" data-entity-2="n20" data-source-line="64" data-uid="lnk61" id="link_n11_n20"><path d="M424.8416,143.128 C459.9059,160.3959 505.8397,183.0165 540.8737,200.2694" fill="none" id="n11-to-n20" style="stroke:#181818;stroke-width:1;"/><polygon fill="#181818" points="546.2564,202.9202,539.9495,195.3556,541.7708,200.7112,536.4152,202.5325,546.2564,202.9202" style="stroke:#181818;stroke-width:1;"/></g><!--link n21 to n20--><g class="link" data-entity-1="n21" data-entity-2="n20" data-source-line="65" data-uid="lnk62" id="link_n21_n20"><path d="M735.5006,143.128 C702.5507,160.3959 659.6431,182.8822 626.7217,200.1351" fill="none" id="n21-to-n20" style="stroke:#181818;stroke-width:1;"/><polygon fill="#181818" points="621.4073,202.9202,631.2357,202.2855,625.836,200.5993,627.5222,195.1996,621.4073,202.9202" style="stroke:#181818;stroke-width:1;"/></g><!--link n11 to n17--><g class="link" data-entity-1="n11" data-entity-2="n17" data-source-line="66" data-uid="lnk63" id="link_n11_n17"><path d="M401.4641,143.3817 C422.5539,168.7416 462.5903,213.2125 505,241 C548.7295,269.6522 598.7964,289.0408 639.6588,302.2358" fill="none" id="n11-to-n17" style="stroke:#181818;stroke-width:1;"/><polygon fill="#181818" points="645.3685,304.0795,638.0331,297.5074,640.6104,302.5431,635.5748,305.1204,645.3685,304.0795" style="stroke:#181818;stroke-width:1;"/></g><!--link n16 to n17--><g class="link" data-entity-1="n16" data-entity-2="n17" data-source-line="67" data-uid="lnk64" id="link_n16_n17"><path d="M203.1181,228.9694 C296.274,246.0016 529.931,288.7225 639.2312,308.7065" fill="none" id="n16-to-n17" style="stroke:#181818;stroke-width:1;"/><polygon fill="#181818" points="645.1334,309.7856,636.9996,304.2321,640.2149,308.8863,635.5607,312.1017,645.1334,309.7856" style="stroke:#181818;stroke-width:1;"/></g><!--link n18 to n17--><g class="link" data-entity-1="n18" data-entity-2="n17" data-source-line="68" data-uid="lnk65" id="link_n18_n17"><path d="M875.1429,143.1502 C838.2458,180.6208 761.1019,258.9639 724.1434,296.4969" fill="none" id="n18-to-n17" style="stroke:#181818;stroke-width:1;"/><polygon fill="#181818" points="719.9336,300.7721,729.0984,297.1658,723.4418,297.2094,723.3981,291.5527,719.9336,300.7721" style="stroke:#181818;stroke-width:1;"/></g><!--link n19 to n17--><g class="link" data-entity-1="n19" data-entity-2="n17" data-source-line="69" data-uid="lnk66" id="link_n19_n17"><path d="M610.5936,143.0079 C628.0405,157.6782 650.7933,179.4039 665,203 C683.8548,234.316 692.5565,270.4626 696.9378,294.6868" fill="none" id="n19-to-n17" style="stroke:#181818;stroke-width:1;"/><polygon fill="#181818" points="698.0057,300.591,700.34,291.0228,697.1158,295.6708,692.4678,292.4466,698.0057,300.591" style="stroke:#181818;stroke-width:1;"/></g><!--link n20 to n17--><g class="link" data-entity-1="n20" data-entity-2="n17" data-source-line="70" data-uid="lnk67" id="link_n20_n17"><path d="M607.6413,241.128 C628.0808,258.3959 653.4106,279.7952 673.8325,297.0481" fill="none" id="n20-to-n17" style="stroke:#181818;stroke-width:1;"/><polygon fill="#181818" points="678.4158,300.9202,674.1222,292.0565,674.5964,297.6935,668.9594,298.1676,678.4158,300.9202" style="stroke:#181818;stroke-width:1;"/></g><!--link n21 to n17--><g class="link" data-entity-1="n21" data-entity-2="n17" data-source-line="71" data-uid="lnk68" id="link_n21_n17"><path d="M765.0629,143.1502 C751.4894,180.6208 723.6048,257.5978 710.0087,295.1308" fill="none" id="n21-to-n17" style="stroke:#181818;stroke-width:1;"/><polygon fill="#181818" points="707.9652,300.7721,714.7913,293.6725,709.6681,296.071,707.2696,290.9478,707.9652,300.7721" style="stroke:#181818;stroke-width:1;"/></g><!--link n5 to n17--><g class="link" data-entity-1="n5" data-entity-2="n17" data-source-line="72" data-uid="lnk69" id="link_n5_n17"><path d="M1181.8956,232.2266 C1173.7782,235.3824 1164.5976,238.6434 1156,241 C1014.6926,279.7324 849.2209,302.709 762.6872,313.0959" fill="none" id="n5-to-n17" style="stroke:#181818;stroke-width:1;"/><polygon fill="#181818" points="756.73,313.811,766.1426,316.7099,761.6944,313.2151,765.1891,308.7669,756.73,313.811" style="stroke:#181818;stroke-width:1;"/></g><!--link n11 to n14--><g class="link" data-entity-1="n11" data-entity-2="n14" data-source-line="73" data-uid="lnk70" id="link_n11_n14"><path d="M376.3272,143.1502 C357.4007,180.6208 318.3751,257.8835 299.4172,295.4165" fill="none" id="n11-to-n14" style="stroke:#181818;stroke-width:1;"/><polygon fill="#181818" points="296.7121,300.7721,304.3402,294.5421,298.9664,296.3091,297.1994,290.9353,296.7121,300.7721" style="stroke:#181818;stroke-width:1;"/></g><!--link n12 to n15--><g class="link" data-entity-1="n12" data-entity-2="n15" data-source-line="74" data-uid="lnk71" id="link_n12_n15"><path d="M725.0135,30.9158 C803.8876,41.7165 982.0587,69.4146 1031,105 C1065.0775,129.7779 1083.5968,171.011 1092.9441,197.2818" fill="none" id="n12-to-n15" style="stroke:#181818;stroke-width:1;"/><polygon fill="#181818" points="1094.9554,202.9346,1095.707,193.1145,1093.2793,198.2239,1088.1699,195.7962,1094.9554,202.9346" style="stroke:#181818;stroke-width:1;"/></g><!--link n13 to n15--><g class="link" data-entity-1="n13" data-entity-2="n15" data-source-line="75" data-uid="lnk72" id="link_n13_n15"><path d="M614.2389,40.0313 C619.8203,41.8389 625.5294,43.5588 631,45 C773.0391,82.4191 822.532,43.6682 956,105 C1008.3177,129.0412 1053.8314,171.8828 1079.2392,198.3974" fill="none" id="n13-to-n15" style="stroke:#181818;stroke-width:1;"/><polygon fill="#181818" points="1083.3905,202.7295,1080.0517,193.4639,1079.9311,199.1194,1074.2755,198.9989,1083.3905,202.7295" style="stroke:#181818;stroke-width:1;"/></g><!--link n11 to n15--><g class="link" data-entity-1="n11" data-entity-2="n15" data-source-line="76" data-uid="lnk73" id="link_n11_n15"><path d="M441.5099,131.6083 C581.1208,150.7438 938.2168,199.6884 1056.8999,215.9555" fill="none" id="n11-to-n15" style="stroke:#181818;stroke-width:1;"/><polygon fill="#181818" points="1062.8443,216.7703,1054.4708,211.5852,1057.8906,216.0913,1053.3845,219.5111,1062.8443,216.7703" style="stroke:#181818;stroke-width:1;"/></g><!--link n13 to n16--><g class="link" data-entity-1="n13" data-entity-2="n16" data-source-line="77" data-uid="lnk74" id="link_n13_n16"><path d="M537.8485,35.5697 C474.9692,51.6552 352.584,84.3732 313,105 C261.8779,131.6391 215.4206,172.7915 188.674,198.5095" fill="none" id="n13-to-n16" style="stroke:#181818;stroke-width:1;"/><polygon fill="#181818" points="184.349,202.6682,193.6089,199.3135,187.9532,199.2026,188.064,193.5469,184.349,202.6682" style="stroke:#181818;stroke-width:1;"/></g><!--link n9 to n16--><g class="link" data-entity-1="n9" data-entity-2="n16" data-source-line="78" data-uid="lnk75" id="link_n9_n16"><path d="M360.8057,39.8431 C320.4945,51.6932 267.9499,72.1615 231,105 C200.3196,132.2666 182.6865,171.7061 173.3763,197.2157" fill="none" id="n9-to-n16" style="stroke:#181818;stroke-width:1;"/><polygon fill="#181818" points="171.3192,202.852,178.1624,195.7689,173.0334,198.155,170.6473,193.0261,171.3192,202.852" style="stroke:#181818;stroke-width:1;"/></g><!--link n11 to n16--><g class="link" data-entity-1="n11" data-entity-2="n16" data-source-line="79" data-uid="lnk76" id="link_n11_n16"><path d="M343.1269,143.0116 C302.5829,160.9904 247.7873,185.2889 208.8081,202.5738" fill="none" id="n11-to-n16" style="stroke:#181818;stroke-width:1;"/><polygon fill="#181818" points="203.3232,205.006,213.1721,205.0143,207.894,202.9791,209.9291,197.7011,203.3232,205.006" style="stroke:#181818;stroke-width:1;"/></g><!--link n17 to n23--><g class="link" data-entity-1="n17" data-entity-2="n23" data-source-line="80" data-uid="lnk77" id="link_n17_n23"><path d="M675.4309,339.128 C652.3484,356.3959 623.3716,378.0732 600.309,395.3261" fill="none" id="n17-to-n23" style="stroke:#181818;stroke-width:1;"/><polygon fill="#181818" points="595.5046,398.9202,605.1073,396.7319,599.5083,395.9251,600.3151,390.3261,595.5046,398.9202" style="stroke:#181818;stroke-width:1;"/></g><!--link n17 to n22--><g class="link" data-entity-1="n17" data-entity-2="n22" data-source-line="81" data-uid="lnk78" id="link_n17_n22"><path d="M709.4954,339.3616 C717.0339,356.5424 725.5783,376.0156 733.1114,393.1842" fill="none" id="n17-to-n22" style="stroke:#181818;stroke-width:1;"/><polygon fill="#181818" points="735.5222,398.6786,735.569,388.8299,733.5132,394.1,728.2431,392.0442,735.5222,398.6786" style="stroke:#181818;stroke-width:1;"/></g><!--link n17 to n24--><g class="link" data-entity-1="n17" data-entity-2="n24" data-source-line="82" data-uid="lnk79" id="link_n17_n24"><path d="M741.7391,339.0116 C778.7146,356.2668 827.5277,379.0463 864.5791,396.3369" fill="none" id="n17-to-n24" style="stroke:#181818;stroke-width:1;"/><polygon fill="#181818" points="870.0162,398.8742,863.5521,391.4435,865.4853,396.7598,860.169,398.693,870.0162,398.8742" style="stroke:#181818;stroke-width:1;"/></g><!--link n6 to n25--><g class="link" data-entity-1="n6" data-entity-2="n25" data-source-line="83" data-uid="lnk80" id="link_n6_n25"><path d="M1276.614,339.3616 C1261.1864,356.5424 1242.7752,377.0457 1227.3586,394.2143" fill="none" id="n6-to-n25" style="stroke:#181818;stroke-width:1;"/><polygon fill="#181818" points="1223.3499,398.6786,1232.3392,394.6546,1226.6905,394.9583,1226.3868,389.3097,1223.3499,398.6786" style="stroke:#181818;stroke-width:1;"/></g><!--link n5 to n25--><g class="link" data-entity-1="n5" data-entity-2="n25" data-source-line="84" data-uid="lnk81" id="link_n5_n25"><path d="M1206,241.1502 C1206,278.6208 1206,355.2391 1206,392.7721" fill="none" id="n5-to-n25" style="stroke:#181818;stroke-width:1;"/><polygon fill="#181818" points="1206,398.7721,1210,389.7721,1206,393.7721,1202,389.7721,1206,398.7721" style="stroke:#181818;stroke-width:1;"/></g><!--SRC=[RLDDRniX5BpxLwpIcwMa1k-d54LgSacbI5MRtglDxekDiWR4iadzxuihyzu3vpPYXc661xUpFqvmjxhzUWRpczAsT_sXUEc7jvqpYnuVp6HSuLslvq21zYi7W-_rReBYoXhdmTtihuf-BhJON79_1gDd7nNT9m9_j80EWWlMQsky-s51FuDxLmFS3ElrMLXyULAxlR-V5k1R1dEm3kOP3Tk4TKVh3N9P6k-Up2wIiix9Pz3ZpmKM32itkUJ1Q0z_iQreqcZwLQ6_A9FDuRg1zbMS-r1wD1_8NUHwX7xo-zzx1_s8qRQvwXSCxvb6VjOmqvIvvhlzDeuuSPaaLPewr2aHbnEzzUbXoV1dFuxmYhLbnYbDrxNDk4cze6TAEQLn0kakmmUGjFRgW2DFNjEYLJWiKiqglDxY-lhk_py8WSzO1Bmbt16CYfNU8YeHLOXgH0sY5b67I6m8aeyW8q5EWgmavP0KHD09admb-KhobSmtchMiTaifMoRfcAGZIKSN6JuXoiDlYv8JH4d0KbokYuRrRLYV4-u8Oxc6V4wuOlAuNBBm5GjVCGrVhwbKpIGrNN_ufuGbmoMEFNon64PM_m00]--></g></svg>