<svg xmlns="http://www.w3.org/2000/svg" xmlns:xlink="http://www.w3.org/1999/xlink" contentStyleType="text/css" data-diagram-type="DESCRIPTION" height="442px" preserveAspectRatio="none" style="width:1221px;height:442px;" version="1.1" viewBox="0 0 1221 442" width="1221px" zoomAndPan="magnify"><defs/><g><!--entity n7--><g class="entity" data-entity="n7" data-source-line="5" data-uid="ent0002" id="entity_n7"><rect fill="#F1F1F1" height="37.7799" rx="2.5" ry="2.5" style="stroke:#181818;stroke-width:0.5;" width="75.9998" x="187.1391" y="301"/><text fill="#000000" font-family="'Segoe UI', 'メイリオ', 'UDEV Gothic HSRFJPDOC', 'Hiragino Kaku Gothic ProN', 'ヒラギノ角ゴ ProN', 'Noto Sans JP', 'Helvetica Neue', Helvetica, Arial, sans-serif" font-size="14" lengthAdjust="spacing" textLength="55.9998" x="197.1391" y="324.9999">porter.h</text></g><!--entity n6--><g class="entity" data-entity="n6" data-source-line="6" data-uid="ent0003" id="entity_n6"><rect fill="#F1F1F1" height="37.7799" rx="2.5" ry="2.5" style="stroke:#181818;stroke-width:0.5;" width="117.9996" x="27.1391" y="7"/><text fill="#000000" font-family="'Segoe UI', 'メイリオ', 'UDEV Gothic HSRFJPDOC', 'Hiragino Kaku Gothic ProN', 'ヒラギノ角ゴ ProN', 'Noto Sans JP', 'Helvetica Neue', Helvetica, Arial, sans-serif" font-size="14" lengthAdjust="spacing" textLength="97.9996" x="37.1391" y="30.9999">porter_const.h</text></g><!--entity n8--><g class="entity" data-entity="n8" data-source-line="7" data-uid="ent0004" id="entity_n8"><rect fill="#F1F1F1" height="37.7799" rx="2.5" ry="2.5" style="stroke:#181818;stroke-width:0.5;" width="110.9996" x="296.6391" y="105"/><text fill="#000000" font-family="'Segoe UI', 'メイリオ', 'UDEV Gothic HSRFJPDOC', 'Hiragino Kaku Gothic ProN', 'ヒラギノ角ゴ ProN', 'Noto Sans JP', 'Helvetica Neue', Helvetica, Arial, sans-serif" font-size="14" lengthAdjust="spacing" textLength="90.9996" x="306.6391" y="128.9999">porter_type.h</text></g><!--entity n16--><g class="entity" data-entity="n16" data-source-line="8" data-uid="ent0005" id="entity_n16"><rect fill="#F1F1F1" height="37.7799" rx="2.5" ry="2.5" style="stroke:#181818;stroke-width:0.5;" width="89.9997" x="696.1391" y="105"/><text fill="#000000" font-family="'Segoe UI', 'メイリオ', 'UDEV Gothic HSRFJPDOC', 'Hiragino Kaku Gothic ProN', 'ヒラギノ角ゴ ProN', 'Noto Sans JP', 'Helvetica Neue', Helvetica, Arial, sans-serif" font-size="14" lengthAdjust="spacing" textLength="69.9997" x="706.1391" y="128.9999">compress.h</text></g><!--entity n14--><g class="entity" data-entity="n14" data-source-line="9" data-uid="ent0006" id="entity_n14"><rect fill="#F1F1F1" height="37.7799" rx="2.5" ry="2.5" style="stroke:#181818;stroke-width:0.5;" width="110.9996" x="313.6391" y="301"/><text fill="#000000" font-family="'Segoe UI', 'メイリオ', 'UDEV Gothic HSRFJPDOC', 'Hiragino Kaku Gothic ProN', 'ヒラギノ角ゴ ProN', 'Noto Sans JP', 'Helvetica Neue', Helvetica, Arial, sans-serif" font-size="14" lengthAdjust="spacing" textLength="90.9996" x="323.6391" y="324.9999">potrContext.h</text></g><!--entity n1--><g class="entity" data-entity="n1" data-source-line="10" data-uid="ent0007" id="entity_n1"><rect fill="#ADD8E6" height="37.7799" rx="2.5" ry="2.5" style="stroke:#181818;stroke-width:0.5;" width="94.3747" x="611.1391" y="399"/><text fill="#000000" font-family="'Segoe UI', 'メイリオ', 'UDEV Gothic HSRFJPDOC', 'Hiragino Kaku Gothic ProN', 'ヒラギノ角ゴ ProN', 'Noto Sans JP', 'Helvetica Neue', Helvetica, Arial, sans-serif" font-size="14" font-weight="bold" lengthAdjust="spacing" textLength="74.3747" x="621.1391" y="422.9999">potrSend.c</text></g><!--entity n11--><g class="entity" data-entity="n11" data-source-line="11" data-uid="ent0008" id="entity_n11"><rect fill="#F1F1F1" height="37.7799" rx="2.5" ry="2.5" style="stroke:#181818;stroke-width:0.5;" width="75.9998" x="494.1391" y="203"/><text fill="#000000" font-family="'Segoe UI', 'メイリオ', 'UDEV Gothic HSRFJPDOC', 'Hiragino Kaku Gothic ProN', 'ヒラギノ角ゴ ProN', 'Noto Sans JP', 'Helvetica Neue', Helvetica, Arial, sans-serif" font-size="14" lengthAdjust="spacing" textLength="55.9998" x="504.1391" y="226.9999">packet.h</text></g><!--entity n15--><g class="entity" data-entity="n15" data-source-line="12" data-uid="ent0009" id="entity_n15"><rect fill="#F1F1F1" height="37.7799" rx="2.5" ry="2.5" style="stroke:#181818;stroke-width:0.5;" width="103.9996" x="86.1391" y="105"/><text fill="#000000" font-family="'Segoe UI', 'メイリオ', 'UDEV Gothic HSRFJPDOC', 'Hiragino Kaku Gothic ProN', 'ヒラギノ角ゴ ProN', 'Noto Sans JP', 'Helvetica Neue', Helvetica, Arial, sans-serif" font-size="14" lengthAdjust="spacing" textLength="83.9996" x="96.1391" y="128.9999">retransmit.h</text></g><!--entity n12--><g class="entity" data-entity="n12" data-source-line="13" data-uid="ent0010" id="entity_n12"><rect fill="#F1F1F1" height="37.7799" rx="2.5" ry="2.5" style="stroke:#181818;stroke-width:0.5;" width="75.9998" x="585.1391" y="105"/><text fill="#000000" font-family="'Segoe UI', 'メイリオ', 'UDEV Gothic HSRFJPDOC', 'Hiragino Kaku Gothic ProN', 'ヒラギノ角ゴ ProN', 'Noto Sans JP', 'Helvetica Neue', Helvetica, Arial, sans-serif" font-size="14" lengthAdjust="spacing" textLength="55.9998" x="595.1391" y="128.9999">seqnum.h</text></g><!--entity n13--><g class="entity" data-entity="n13" data-source-line="14" data-uid="ent0011" id="entity_n13"><rect fill="#F1F1F1" height="37.7799" rx="2.5" ry="2.5" style="stroke:#181818;stroke-width:0.5;" width="75.9998" x="51.1391" y="203"/><text fill="#000000" font-family="'Segoe UI', 'メイリオ', 'UDEV Gothic HSRFJPDOC', 'Hiragino Kaku Gothic ProN', 'ヒラギノ角ゴ ProN', 'Noto Sans JP', 'Helvetica Neue', Helvetica, Arial, sans-serif" font-size="14" lengthAdjust="spacing" textLength="55.9998" x="61.1391" y="226.9999">window.h</text></g><!--entity n18--><g class="entity" data-entity="n18" data-source-line="15" data-uid="ent0012" id="entity_n18"><rect fill="#F1F1F1" height="37.7799" rx="2.5" ry="2.5" style="stroke:#181818;stroke-width:0.5;" width="103.9996" x="818.1391" y="301"/><text fill="#000000" font-family="'Segoe UI', 'メイリオ', 'UDEV Gothic HSRFJPDOC', 'Hiragino Kaku Gothic ProN', 'ヒラギノ角ゴ ProN', 'Noto Sans JP', 'Helvetica Neue', Helvetica, Arial, sans-serif" font-size="14" lengthAdjust="spacing" textLength="83.9996" x="828.1391" y="324.9999">potrIpAddr.h</text></g><!--entity n5--><g class="entity" data-entity="n5" data-source-line="16" data-uid="ent0013" id="entity_n5"><rect fill="#F1F1F1" height="37.7799" rx="2.5" ry="2.5" style="stroke:#181818;stroke-width:0.5;" width="61.9998" x="829.1391" y="203"/><text fill="#000000" font-family="'Segoe UI', 'メイリオ', 'UDEV Gothic HSRFJPDOC', 'Hiragino Kaku Gothic ProN', 'ヒラギノ角ゴ ProN', 'Noto Sans JP', 'Helvetica Neue', Helvetica, Arial, sans-serif" font-size="14" lengthAdjust="spacing" textLength="41.9998" x="839.1391" y="226.9999">inet.h</text></g><!--entity n4--><g class="entity" data-entity="n4" data-source-line="17" data-uid="ent0014" id="entity_n4"><rect fill="#F1F1F1" height="37.7799" rx="2.5" ry="2.5" style="stroke:#181818;stroke-width:0.5;" width="47.9999" x="939.1391" y="203"/><text fill="#000000" font-family="'Segoe UI', 'メイリオ', 'UDEV Gothic HSRFJPDOC', 'Hiragino Kaku Gothic ProN', 'ヒラギノ角ゴ ProN', 'Noto Sans JP', 'Helvetica Neue', Helvetica, Arial, sans-serif" font-size="14" lengthAdjust="spacing" textLength="27.9999" x="949.1391" y="226.9999">in.h</text></g><!--entity n17--><g class="entity" data-entity="n17" data-source-line="18" data-uid="ent0015" id="entity_n17"><rect fill="#F1F1F1" height="37.7799" rx="2.5" ry="2.5" style="stroke:#181818;stroke-width:0.5;" width="82.9997" x="375.6391" y="203"/><text fill="#000000" font-family="'Segoe UI', 'メイリオ', 'UDEV Gothic HSRFJPDOC', 'Hiragino Kaku Gothic ProN', 'ヒラギノ角ゴ ProN', 'Noto Sans JP', 'Helvetica Neue', Helvetica, Arial, sans-serif" font-size="14" lengthAdjust="spacing" textLength="62.9997" x="385.6391" y="226.9999">pthread.h</text></g><!--entity n9--><g class="entity" data-entity="n9" data-source-line="19" data-uid="ent0016" id="entity_n9"><rect fill="#F1F1F1" height="37.7799" rx="2.5" ry="2.5" style="stroke:#181818;stroke-width:0.5;" width="75.9998" x="494.1391" y="7"/><text fill="#000000" font-family="'Segoe UI', 'メイリオ', 'UDEV Gothic HSRFJPDOC', 'Hiragino Kaku Gothic ProN', 'ヒラギノ角ゴ ProN', 'Noto Sans JP', 'Helvetica Neue', Helvetica, Arial, sans-serif" font-size="14" lengthAdjust="spacing" textLength="55.9998" x="504.1391" y="30.9999">stddef.h</text></g><!--entity n10--><g class="entity" data-entity="n10" data-source-line="20" data-uid="ent0017" id="entity_n10"><rect fill="#F1F1F1" height="37.7799" rx="2.5" ry="2.5" style="stroke:#181818;stroke-width:0.5;" width="75.9998" x="348.1391" y="7"/><text fill="#000000" font-family="'Segoe UI', 'メイリオ', 'UDEV Gothic HSRFJPDOC', 'Hiragino Kaku Gothic ProN', 'ヒラギノ角ゴ ProN', 'Noto Sans JP', 'Helvetica Neue', Helvetica, Arial, sans-serif" font-size="14" lengthAdjust="spacing" textLength="55.9998" x="358.1391" y="30.9999">stdint.h</text></g><!--entity n2--><g class="entity" data-entity="n2" data-source-line="21" data-uid="ent0018" id="entity_n2"><rect fill="#F1F1F1" height="37.7799" rx="2.5" ry="2.5" style="stroke:#181818;stroke-width:0.5;" width="75.9998" x="1028.1391" y="301"/><text fill="#000000" font-family="'Segoe UI', 'メイリオ', 'UDEV Gothic HSRFJPDOC', 'Hiragino Kaku Gothic ProN', 'ヒラギノ角ゴ ProN', 'Noto Sans JP', 'Helvetica Neue', Helvetica, Arial, sans-serif" font-size="14" lengthAdjust="spacing" textLength="55.9998" x="1038.1391" y="324.9999">string.h</text></g><!--entity n3--><g class="entity" data-entity="n3" data-source-line="22" data-uid="ent0019" id="entity_n3"><rect fill="#F1F1F1" height="37.7799" rx="2.5" ry="2.5" style="stroke:#181818;stroke-width:0.5;" width="75.9998" x="1139.1391" y="301"/><text fill="#000000" font-family="'Segoe UI', 'メイリオ', 'UDEV Gothic HSRFJPDOC', 'Hiragino Kaku Gothic ProN', 'ヒラギノ角ゴ ProN', 'Noto Sans JP', 'Helvetica Neue', Helvetica, Arial, sans-serif" font-size="14" lengthAdjust="spacing" textLength="55.9998" x="1149.1391" y="324.9999">socket.h</text></g><!--link n8 to n7--><g class="link" data-entity-1="n8" data-entity-2="n7" data-source-line="23" data-uid="lnk20" id="link_n8_n7"><path d="M339.7306,143.1502 C315.4512,180.6208 265.1806,258.2038 240.8607,295.7368" fill="none" id="n8-to-n7" style="stroke:#181818;stroke-width:1;"/><polygon fill="#181818" points="237.598,300.7721,245.849,295.3942,240.3169,296.576,239.1352,291.0439,237.598,300.7721" style="stroke:#181818;stroke-width:1;"/></g><!--link n9 to n8--><g class="link" data-entity-1="n9" data-entity-2="n8" data-source-line="24" data-uid="lnk21" id="link_n9_n8"><path d="M497.006,45.128 C465.2896,62.3959 424.1423,84.7983 392.4533,102.0512" fill="none" id="n9-to-n8" style="stroke:#181818;stroke-width:1;"/><polygon fill="#181818" points="387.1837,104.9202,397.0008,104.1298,391.575,102.5294,393.1754,97.1036,387.1837,104.9202" style="stroke:#181818;stroke-width:1;"/></g><!--link n10 to n8--><g class="link" data-entity-1="n10" data-entity-2="n8" data-source-line="25" data-uid="lnk22" id="link_n10_n8"><path d="M379.4218,45.3616 C373.4612,62.5424 366.7655,81.8415 360.8091,99.0101" fill="none" id="n10-to-n8" style="stroke:#181818;stroke-width:1;"/><polygon fill="#181818" points="358.8425,104.6786,365.5715,97.4869,360.4814,99.9548,358.0134,94.8647,358.8425,104.6786" style="stroke:#181818;stroke-width:1;"/></g><!--link n6 to n8--><g class="link" data-entity-1="n6" data-entity-2="n8" data-source-line="26" data-uid="lnk23" id="link_n6_n8"><path d="M137.742,45.0116 C184.5776,62.2668 247.6645,85.5094 294.5963,102.8" fill="none" id="n6-to-n8" style="stroke:#181818;stroke-width:1;"/><polygon fill="#181818" points="300.2264,104.8742,293.1641,98.0095,295.5347,103.1457,290.3985,105.5162,300.2264,104.8742" style="stroke:#181818;stroke-width:1;"/></g><!--link n9 to n16--><g class="link" data-entity-1="n9" data-entity-2="n16" data-source-line="27" data-uid="lnk24" id="link_n9_n16"><path d="M570.473,43.9747 C607.3584,61.2703 657.4949,84.7792 695.119,102.4211" fill="none" id="n9-to-n16" style="stroke:#181818;stroke-width:1;"/><polygon fill="#181818" points="700.5514,104.9684,694.1009,97.5259,696.0244,102.8457,690.7046,104.7691,700.5514,104.9684" style="stroke:#181818;stroke-width:1;"/></g><!--link n10 to n16--><g class="link" data-entity-1="n10" data-entity-2="n16" data-source-line="28" data-uid="lnk25" id="link_n10_n16"><path d="M424.5001,36.0032 C480.4117,50.668 587.5051,79.0783 678.1391,105 C683.9605,106.6649 684.3202,106.7463 690.3518,108.5381" fill="none" id="n10-to-n16" style="stroke:#181818;stroke-width:1;"/><polygon fill="#181818" points="696.1034,110.2467,688.6151,103.8494,691.3104,108.8229,686.337,111.5182,696.1034,110.2467" style="stroke:#181818;stroke-width:1;"/></g><!--link n8 to n14--><g class="link" data-entity-1="n8" data-entity-2="n14" data-source-line="29" data-uid="lnk26" id="link_n8_n14"><path d="M352.6075,143.0866 C353.2944,166.2786 354.8664,206.5786 358.1391,241 C360.0921,261.5403 362.5678,279.0051 365.0737,294.9711" fill="none" id="n8-to-n14" style="stroke:#181818;stroke-width:1;"/><polygon fill="#181818" points="366.004,300.8985,368.5601,291.3871,365.2287,295.959,360.6569,292.6276,366.004,300.8985" style="stroke:#181818;stroke-width:1;"/></g><!--link n15 to n14--><g class="link" data-entity-1="n15" data-entity-2="n14" data-source-line="30" data-uid="lnk27" id="link_n15_n14"><path d="M160.709,143.1502 C204.8708,180.6208 297.6673,259.3572 341.9026,296.8902" fill="none" id="n15-to-n14" style="stroke:#181818;stroke-width:1;"/><polygon fill="#181818" points="346.4777,300.7721,342.203,291.8993,342.6652,297.5372,337.0272,297.9993,346.4777,300.7721" style="stroke:#181818;stroke-width:1;"/></g><!--link n13 to n14--><g class="link" data-entity-1="n13" data-entity-2="n14" data-source-line="31" data-uid="lnk28" id="link_n13_n14"><path d="M127.1926,235.3187 C175.6389,252.2749 253.9951,279.6996 309.1649,299.009" fill="none" id="n13-to-n14" style="stroke:#181818;stroke-width:1;"/><polygon fill="#181818" points="314.8281,300.9911,307.6548,294.2425,310.1088,299.3394,305.012,301.7934,314.8281,300.9911" style="stroke:#181818;stroke-width:1;"/></g><!--link n16 to n14--><g class="link" data-entity-1="n16" data-entity-2="n14" data-source-line="32" data-uid="lnk29" id="link_n16_n14"><path d="M720.1418,143.2869 C691.7588,168.5418 638.7427,212.8968 587.1391,241 C534.8167,269.4947 475.8817,289.7374 430.6148,303.1878" fill="none" id="n16-to-n14" style="stroke:#181818;stroke-width:1;"/><polygon fill="#181818" points="424.8633,304.8968,434.6298,306.1677,429.6562,303.4727,432.3512,298.499,424.8633,304.8968" style="stroke:#181818;stroke-width:1;"/></g><!--link n17 to n14--><g class="link" data-entity-1="n17" data-entity-2="n14" data-source-line="33" data-uid="lnk30" id="link_n17_n14"><path d="M407.6559,241.3616 C399.2408,258.5424 389.651,278.1216 381.2419,295.2902" fill="none" id="n17-to-n14" style="stroke:#181818;stroke-width:1;"/><polygon fill="#181818" points="378.6027,300.6786,386.1538,294.3555,380.802,296.1883,378.9693,290.8366,378.6027,300.6786" style="stroke:#181818;stroke-width:1;"/></g><!--link n2 to n1--><g class="link" data-entity-1="n2" data-entity-2="n1" data-source-line="34" data-uid="lnk31" id="link_n2_n1"><path d="M1028.0905,331.5231 C1019.2689,334.0831 1009.8984,336.7131 1001.1391,339 C896.043,366.4384 777.3967,392.6034 711.0975,406.8033" fill="none" id="n2-to-n1" style="stroke:#181818;stroke-width:1;"/><polygon fill="#181818" points="705.2306,408.0599,714.8687,410.0863,710.1197,407.0128,713.1933,402.2637,705.2306,408.0599" style="stroke:#181818;stroke-width:1;"/></g><!--link n3 to n1--><g class="link" data-entity-1="n3" data-entity-2="n1" data-source-line="35" data-uid="lnk32" id="link_n3_n1"><path d="M1139.1232,333.7956 C1133.1508,335.702 1127.011,337.5129 1121.1391,339 C971.3434,376.9379 795.5705,401.259 711.2654,411.7184" fill="none" id="n3-to-n1" style="stroke:#181818;stroke-width:1;"/><polygon fill="#181818" points="705.3111,412.4571,714.7351,415.3186,710.2731,411.8415,713.7501,407.3794,705.3111,412.4571" style="stroke:#181818;stroke-width:1;"/></g><!--link n4 to n1--><g class="link" data-entity-1="n4" data-entity-2="n1" data-source-line="36" data-uid="lnk33" id="link_n4_n1"><path d="M964.8569,241.3098 C966.0225,267.0028 964.0025,312.2857 939.1391,339 C907.4623,373.035 782.7385,397.8819 711.2825,409.7839" fill="none" id="n4-to-n1" style="stroke:#181818;stroke-width:1;"/><polygon fill="#181818" points="705.364,410.7697,714.8989,413.2366,710.2961,409.9482,713.5845,405.3454,705.364,410.7697" style="stroke:#181818;stroke-width:1;"/></g><!--link n5 to n1--><g class="link" data-entity-1="n5" data-entity-2="n1" data-source-line="37" data-uid="lnk34" id="link_n5_n1"><path d="M840.4027,241.1502 C801.785,278.6208 720.9437,357.0609 682.2618,394.5939" fill="none" id="n5-to-n1" style="stroke:#181818;stroke-width:1;"/><polygon fill="#181818" points="677.9557,398.7721,687.2003,395.3755,681.5441,395.2903,681.6294,389.634,677.9557,398.7721" style="stroke:#181818;stroke-width:1;"/></g><!--link n6 to n1--><g class="link" data-entity-1="n6" data-entity-2="n1" data-source-line="38" data-uid="lnk35" id="link_n6_n1"><path d="M73.7337,45.1996 C50.6935,83.4163 6,171.3258 33.1391,241 C54.6028,296.1035 70.8854,311.3118 123.1391,339 C207.6567,383.7841 490.5512,406.9187 604.9525,414.6621" fill="none" id="n6-to-n1" style="stroke:#181818;stroke-width:1;"/><polygon fill="#181818" points="610.9388,415.0673,602.2295,410.4686,605.9502,414.7296,601.6892,418.4504,610.9388,415.0673" style="stroke:#181818;stroke-width:1;"/></g><!--link n7 to n1--><g class="link" data-entity-1="n7" data-entity-2="n1" data-source-line="39" data-uid="lnk36" id="link_n7_n1"><path d="M263.377,330.5829 C273.9635,333.4173 285.4752,336.411 296.1391,339 C408.6581,366.3172 536.0368,393.0706 605.241,407.2635" fill="none" id="n7-to-n1" style="stroke:#181818;stroke-width:1;"/><polygon fill="#181818" points="611.1187,408.4689,603.1058,402.7423,606.2206,407.4644,601.4986,410.5792,611.1187,408.4689" style="stroke:#181818;stroke-width:1;"/></g><!--link n11 to n1--><g class="link" data-entity-1="n11" data-entity-2="n1" data-source-line="40" data-uid="lnk37" id="link_n11_n1"><path d="M541.6509,241.1546 C553.6259,264.759 575.2868,305.8139 597.1391,339 C611.1478,360.2743 625.378,378.5246 638.1954,394.1605" fill="none" id="n11-to-n1" style="stroke:#181818;stroke-width:1;"/><polygon fill="#181818" points="641.9992,398.8007,639.387,389.3046,638.8294,394.9339,633.2001,394.3762,641.9992,398.8007" style="stroke:#181818;stroke-width:1;"/></g><!--link n12 to n1--><g class="link" data-entity-1="n12" data-entity-2="n1" data-source-line="41" data-uid="lnk38" id="link_n12_n1"><path d="M625.4356,143.2902 C631.7774,196.5612 648.7731,339.3252 655.1249,392.6809" fill="none" id="n12-to-n1" style="stroke:#181818;stroke-width:1;"/><polygon fill="#181818" points="655.8342,398.6388,658.7422,389.2291,655.2431,393.6739,650.7983,390.1748,655.8342,398.6388" style="stroke:#181818;stroke-width:1;"/></g><!--link n13 to n1--><g class="link" data-entity-1="n13" data-entity-2="n1" data-source-line="42" data-uid="lnk39" id="link_n13_n1"><path d="M96.595,241.4285 C107.9284,268.1308 132.1603,315.526 169.1391,339 C242.2872,385.434 497.2539,407.3046 605.0474,414.6867" fill="none" id="n13-to-n1" style="stroke:#181818;stroke-width:1;"/><polygon fill="#181818" points="611.0334,415.0966,602.3277,410.491,606.0451,414.755,601.7811,418.4723,611.0334,415.0966" style="stroke:#181818;stroke-width:1;"/></g><!--link n14 to n1--><g class="link" data-entity-1="n14" data-entity-2="n1" data-source-line="43" data-uid="lnk40" id="link_n14_n1"><path d="M424.8613,338.8954 C478.825,357.1945 554.0767,382.7124 605.0379,399.9934" fill="none" id="n14-to-n1" style="stroke:#181818;stroke-width:1;"/><polygon fill="#181818" points="610.7201,401.9202,603.4814,395.2418,605.9849,400.3145,600.9123,402.8181,610.7201,401.9202" style="stroke:#181818;stroke-width:1;"/></g><!--link n16 to n1--><g class="link" data-entity-1="n16" data-entity-2="n1" data-source-line="44" data-uid="lnk41" id="link_n16_n1"><path d="M735.6933,143.2902 C720.6542,196.5612 680.2983,339.5088 665.2353,392.8645" fill="none" id="n16-to-n1" style="stroke:#181818;stroke-width:1;"/><polygon fill="#181818" points="663.6051,398.6388,669.8999,391.0641,664.9636,393.8269,662.2008,388.8906,663.6051,398.6388" style="stroke:#181818;stroke-width:1;"/></g><!--link n18 to n1--><g class="link" data-entity-1="n18" data-entity-2="n1" data-source-line="45" data-uid="lnk42" id="link_n18_n1"><path d="M829.012,339.0116 C791.6844,356.2668 742.3638,379.066 704.9595,396.3566" fill="none" id="n18-to-n1" style="stroke:#181818;stroke-width:1;"/><polygon fill="#181818" points="699.5132,398.8742,709.361,398.7286,704.0517,396.7762,706.0042,391.467,699.5132,398.8742" style="stroke:#181818;stroke-width:1;"/></g><!--link n9 to n11--><g class="link" data-entity-1="n9" data-entity-2="n11" data-source-line="46" data-uid="lnk43" id="link_n9_n11"><path d="M532.1391,45.1502 C532.1391,82.6208 532.1391,159.2391 532.1391,196.7721" fill="none" id="n9-to-n11" style="stroke:#181818;stroke-width:1;"/><polygon fill="#181818" points="532.1391,202.7721,536.1391,193.7721,532.1391,197.7721,528.1391,193.7721,532.1391,202.7721" style="stroke:#181818;stroke-width:1;"/></g><!--link n10 to n11--><g class="link" data-entity-1="n10" data-entity-2="n11" data-source-line="47" data-uid="lnk44" id="link_n10_n11"><path d="M400.4041,45.1502 C428.3159,82.6208 486.2738,160.4273 514.232,197.9603" fill="none" id="n10-to-n11" style="stroke:#181818;stroke-width:1;"/><polygon fill="#181818" points="517.8163,202.7721,515.6477,193.1649,514.8294,198.7623,509.2321,197.944,517.8163,202.7721" style="stroke:#181818;stroke-width:1;"/></g><!--link n8 to n11--><g class="link" data-entity-1="n8" data-entity-2="n11" data-source-line="48" data-uid="lnk45" id="link_n8_n11"><path d="M387.2723,143.128 C418.9887,160.3959 460.136,182.7983 491.825,200.0512" fill="none" id="n8-to-n11" style="stroke:#181818;stroke-width:1;"/><polygon fill="#181818" points="497.0946,202.9202,491.1029,195.1036,492.7033,200.5294,487.2775,202.1298,497.0946,202.9202" style="stroke:#181818;stroke-width:1;"/></g><!--link n10 to n15--><g class="link" data-entity-1="n10" data-entity-2="n15" data-source-line="49" data-uid="lnk46" id="link_n10_n15"><path d="M347.9326,41.0977 C304.5898,58.2252 239.3971,83.9867 192.1998,102.6373" fill="none" id="n10-to-n15" style="stroke:#181818;stroke-width:1;"/><polygon fill="#181818" points="186.6197,104.8424,196.4599,105.2549,191.2698,103.0049,193.5198,97.8147,186.6197,104.8424" style="stroke:#181818;stroke-width:1;"/></g><!--link n6 to n15--><g class="link" data-entity-1="n6" data-entity-2="n15" data-source-line="50" data-uid="lnk47" id="link_n6_n15"><path d="M96.4127,45.3616 C105.529,62.5424 115.9648,82.2099 125.0747,99.3785" fill="none" id="n6-to-n15" style="stroke:#181818;stroke-width:1;"/><polygon fill="#181818" points="127.887,104.6786,127.2019,94.8536,125.5434,100.2619,120.1352,98.6033,127.887,104.6786" style="stroke:#181818;stroke-width:1;"/></g><!--link n10 to n12--><g class="link" data-entity-1="n10" data-entity-2="n12" data-source-line="51" data-uid="lnk48" id="link_n10_n12"><path d="M424.2173,41.7454 C468.3132,59.9792 534.9955,87.5525 579.2179,105.8385" fill="none" id="n10-to-n12" style="stroke:#181818;stroke-width:1;"/><polygon fill="#181818" points="584.7626,108.1312,577.9741,100.9957,580.142,106.2206,574.9171,108.3886,584.7626,108.1312" style="stroke:#181818;stroke-width:1;"/></g><!--link n10 to n13--><g class="link" data-entity-1="n10" data-entity-2="n13" data-source-line="52" data-uid="lnk49" id="link_n10_n13"><path d="M357.1208,45.1502 C300.3413,82.6208 180.1571,161.9343 123.2831,199.4673" fill="none" id="n10-to-n13" style="stroke:#181818;stroke-width:1;"/><polygon fill="#181818" points="118.2753,202.7721,127.9902,201.1534,122.4485,200.0181,123.5838,194.4763,118.2753,202.7721" style="stroke:#181818;stroke-width:1;"/></g><!--link n6 to n13--><g class="link" data-entity-1="n6" data-entity-2="n13" data-source-line="53" data-uid="lnk50" id="link_n6_n13"><path d="M79.8776,45.0115 C73.0359,68.1296 63.6133,108.3569 68.1391,143 C70.86,163.8266 75.6202,181.2635 80.6993,197.0895" fill="none" id="n6-to-n13" style="stroke:#181818;stroke-width:1;"/><polygon fill="#181818" points="82.5328,202.8025,83.5912,193.0107,81.0049,198.0417,75.9739,195.4553,82.5328,202.8025" style="stroke:#181818;stroke-width:1;"/></g><!--link n8 to n13--><g class="link" data-entity-1="n8" data-entity-2="n13" data-source-line="54" data-uid="lnk51" id="link_n8_n13"><path d="M301.1183,143.0116 C250.1802,161.9923 178.6866,188.6326 132.8574,205.7096" fill="none" id="n8-to-n13" style="stroke:#181818;stroke-width:1;"/><polygon fill="#181818" points="127.235,207.8046,137.0652,208.4103,131.9203,206.0588,134.2719,200.9138,127.235,207.8046" style="stroke:#181818;stroke-width:1;"/></g><!--link n5 to n18--><g class="link" data-entity-1="n5" data-entity-2="n18" data-source-line="55" data-uid="lnk52" id="link_n5_n18"><path d="M862.1148,241.3616 C863.868,258.5424 865.8066,277.541 867.5585,294.7096" fill="none" id="n5-to-n18" style="stroke:#181818;stroke-width:1;"/><polygon fill="#181818" points="868.1676,300.6786,871.2333,291.319,867.66,295.7044,863.2746,292.1311,868.1676,300.6786" style="stroke:#181818;stroke-width:1;"/></g><!--link n4 to n18--><g class="link" data-entity-1="n4" data-entity-2="n18" data-source-line="56" data-uid="lnk53" id="link_n4_n18"><path d="M944.7653,241.3616 C928.4612,258.5424 908.8976,279.1578 892.605,296.3264" fill="none" id="n4-to-n18" style="stroke:#181818;stroke-width:1;"/><polygon fill="#181818" points="888.4748,300.6786,897.5715,296.9037,891.9166,297.0517,891.7686,291.3968,888.4748,300.6786" style="stroke:#181818;stroke-width:1;"/></g><!--SRC=[RPBBJiCm44Nt-Gghx2AruAPvLAegGLT8xFW0PE8XjPgCW-sgzEz98FOuXTsHp_WgTvoTTTSMzidkVW9xKjWB8phsBkfJO_GPvK6tsZ1d1Df10Rh4GEq4DYsmHQ-D0xCwBfYm3Ck_wgtMQ9qVAFuPSDSUlAzYN-kkDs2jb_pcjZC7ZGw-GZhVn0DfEewy0ifLdQRJ1BjxKStHFRLdc8KDRO5oUEmC_7Jl5FayzXO-yTm5juxTHQ7Kb-2osmBF_QEKONryLbyXVL4-5_vurhTtHmD2Xh3POrWd9NnujxrH2gdRmzmPXOrtisfMnolB4gpOShaV_m7S_bAL36a1Yq2J7fup-96d-yCZ3WkEE8kuYBWaNa-OO1Pe4oWFL0Gg0t5EI3cSWZWbSGhWLK3VXqTzEFM9ZtFwXZmwNaUSqGWjTKHVew9krJS0]--></g></svg>