<svg xmlns="http://www.w3.org/2000/svg" xmlns:xlink="http://www.w3.org/1999/xlink" contentStyleType="text/css" data-diagram-type="ACTIVITY" height="383px" preserveAspectRatio="none" style="width:953px;height:383px;" version="1.1" viewBox="0 0 953 383" width="953px" zoomAndPan="magnify"><defs/><g><ellipse cx="480.0029" cy="20" fill="#222222" rx="10" ry="10" style="stroke:#222222;stroke-width:1;"/><rect fill="#F1F1F1" height="35.2401" rx="12.5" ry="12.5" style="stroke:#181818;stroke-width:0.5;" width="92.0005" x="434.0026" y="111.9699"/><text fill="#000000" font-family="'Segoe UI', 'メイリオ', 'UDEV Gothic HSRFJPDOC', 'Hiragino Kaku Gothic ProN', 'ヒラギノ角ゴ ProN', 'Noto Sans JP', 'Helvetica Neue', Helvetica, Arial, sans-serif" font-size="12" lengthAdjust="spacing" textLength="72.0005" x="444.0026" y="133.97">&#34892;&#12434;&#35501;&#12415;&#21462;&#12426;</text><polygon fill="#F1F1F1" points="83.0009,167.21,171.0002,167.21,183.0002,179.21,171.0002,191.21,83.0009,191.21,71.0009,179.21,83.0009,167.21" style="stroke:#181818;stroke-width:0.5;"/><text fill="#000000" font-family="'Segoe UI', 'メイリオ', 'UDEV Gothic HSRFJPDOC', 'Hiragino Kaku Gothic ProN', 'ヒラギノ角ゴ ProN', 'Noto Sans JP', 'Helvetica Neue', Helvetica, Arial, sans-serif" font-size="11" lengthAdjust="spacing" textLength="16.4999" x="131.0005" y="202.2099">yes</text><text fill="#000000" font-family="'Segoe UI', 'メイリオ', 'UDEV Gothic HSRFJPDOC', 'Hiragino Kaku Gothic ProN', 'ヒラギノ角ゴ ProN', 'Noto Sans JP', 'Helvetica Neue', Helvetica, Arial, sans-serif" font-size="11" lengthAdjust="spacing" textLength="87.9993" x="83.0009" y="183.225">'[info]' &#12434;&#21547;&#12416;?</text><rect fill="#F1F1F1" height="35.2401" rx="12.5" ry="12.5" style="stroke:#181818;stroke-width:0.5;" width="164.0011" x="45" y="223.7099"/><text fill="#000000" font-family="'Segoe UI', 'メイリオ', 'UDEV Gothic HSRFJPDOC', 'Hiragino Kaku Gothic ProN', 'ヒラギノ角ゴ ProN', 'Noto Sans JP', 'Helvetica Neue', Helvetica, Arial, sans-serif" font-size="12" lengthAdjust="spacing" textLength="144.0011" x="55" y="245.71">&#20840;&#12390;&#12398; ANSI &#12467;&#12540;&#12489;&#12434;&#21066;&#38500;</text><rect fill="#F1F1F1" height="35.2401" rx="12.5" ry="12.5" style="stroke:#181818;stroke-width:0.5;" width="92.0005" x="81.0003" y="293.95"/><text fill="#000000" font-family="'Segoe UI', 'メイリオ', 'UDEV Gothic HSRFJPDOC', 'Hiragino Kaku Gothic ProN', 'ヒラギノ角ゴ ProN', 'Noto Sans JP', 'Helvetica Neue', Helvetica, Arial, sans-serif" font-size="12" lengthAdjust="spacing" textLength="72.0005" x="91.0003" y="315.9501">&#33073;&#33394;&#12375;&#12390;&#20986;&#21147;</text><polygon fill="#F1F1F1" points="309.0026,167.21,419.0017,167.21,431.0017,179.21,419.0017,191.21,309.0026,191.21,297.0026,179.21,309.0026,167.21" style="stroke:#181818;stroke-width:0.5;"/><text fill="#000000" font-family="'Segoe UI', 'メイリオ', 'UDEV Gothic HSRFJPDOC', 'Hiragino Kaku Gothic ProN', 'ヒラギノ角ゴ ProN', 'Noto Sans JP', 'Helvetica Neue', Helvetica, Arial, sans-serif" font-size="11" lengthAdjust="spacing" textLength="16.4999" x="368.0021" y="202.2099">yes</text><text fill="#000000" font-family="'Segoe UI', 'メイリオ', 'UDEV Gothic HSRFJPDOC', 'Hiragino Kaku Gothic ProN', 'ヒラギノ角ゴ ProN', 'Noto Sans JP', 'Helvetica Neue', Helvetica, Arial, sans-serif" font-size="11" lengthAdjust="spacing" textLength="109.9991" x="309.0026" y="183.225">'[critical]' &#12434;&#21547;&#12416;?</text><rect fill="#F1F1F1" height="35.2401" rx="12.5" ry="12.5" style="stroke:#181818;stroke-width:0.5;" width="290.0021" x="219.0011" y="223.7099"/><text fill="#000000" font-family="'Segoe UI', 'メイリオ', 'UDEV Gothic HSRFJPDOC', 'Hiragino Kaku Gothic ProN', 'ヒラギノ角ゴ ProN', 'Noto Sans JP', 'Helvetica Neue', Helvetica, Arial, sans-serif" font-size="12" lengthAdjust="spacing" textLength="270.0021" x="229.0011" y="245.71">&#22826;&#23383;&#12392;&#32972;&#26223;&#33394;&#12434;&#38500;&#21435; (\033[1;41m &#8594; \033[0;31m)</text><rect fill="#F1F1F1" height="35.2401" rx="12.5" ry="12.5" style="stroke:#181818;stroke-width:0.5;" width="92.0005" x="318.0019" y="293.95"/><text fill="#000000" font-family="'Segoe UI', 'メイリオ', 'UDEV Gothic HSRFJPDOC', 'Hiragino Kaku Gothic ProN', 'ヒラギノ角ゴ ProN', 'Noto Sans JP', 'Helvetica Neue', Helvetica, Arial, sans-serif" font-size="12" lengthAdjust="spacing" textLength="72.0005" x="328.0019" y="315.9501">&#35519;&#25972;&#12375;&#12390;&#20986;&#21147;</text><polygon fill="#F1F1F1" points="572.005,167.21,770.0034,167.21,782.0034,179.21,770.0034,191.21,572.005,191.21,560.005,179.21,572.005,167.21" style="stroke:#181818;stroke-width:0.5;"/><text fill="#000000" font-family="'Segoe UI', 'メイリオ', 'UDEV Gothic HSRFJPDOC', 'Hiragino Kaku Gothic ProN', 'ヒラギノ角ゴ ProN', 'Noto Sans JP', 'Helvetica Neue', Helvetica, Arial, sans-serif" font-size="11" lengthAdjust="spacing" textLength="16.4999" x="675.0042" y="202.2099">yes</text><text fill="#000000" font-family="'Segoe UI', 'メイリオ', 'UDEV Gothic HSRFJPDOC', 'Hiragino Kaku Gothic ProN', 'ヒラギノ角ゴ ProN', 'Noto Sans JP', 'Helvetica Neue', Helvetica, Arial, sans-serif" font-size="11" lengthAdjust="spacing" textLength="197.9984" x="572.005" y="183.225">'[warning]' &#12414;&#12383;&#12399; '[error]' &#12434;&#21547;&#12416;?</text><text fill="#000000" font-family="'Segoe UI', 'メイリオ', 'UDEV Gothic HSRFJPDOC', 'Hiragino Kaku Gothic ProN', 'ヒラギノ角ゴ ProN', 'Noto Sans JP', 'Helvetica Neue', Helvetica, Arial, sans-serif" font-size="11" lengthAdjust="spacing" textLength="10.9999" x="782.0034" y="176.24">no</text><rect fill="#F1F1F1" height="35.2401" rx="12.5" ry="12.5" style="stroke:#181818;stroke-width:0.5;" width="284.002" x="529.0032" y="223.7099"/><text fill="#000000" font-family="'Segoe UI', 'メイリオ', 'UDEV Gothic HSRFJPDOC', 'Hiragino Kaku Gothic ProN', 'ヒラギノ角ゴ ProN', 'Noto Sans JP', 'Helvetica Neue', Helvetica, Arial, sans-serif" font-size="12" lengthAdjust="spacing" textLength="264.002" x="539.0032" y="245.71">&#22826;&#23383;&#12467;&#12540;&#12489; (\033[1;) &#12434;&#36890;&#24120; (\033[0;) &#12395;&#22793;&#25563;</text><rect fill="#F1F1F1" height="35.2401" rx="12.5" ry="12.5" style="stroke:#181818;stroke-width:0.5;" width="92.0005" x="625.0039" y="293.95"/><text fill="#000000" font-family="'Segoe UI', 'メイリオ', 'UDEV Gothic HSRFJPDOC', 'Hiragino Kaku Gothic ProN', 'ヒラギノ角ゴ ProN', 'Noto Sans JP', 'Helvetica Neue', Helvetica, Arial, sans-serif" font-size="12" lengthAdjust="spacing" textLength="72.0005" x="635.0039" y="315.9501">&#35519;&#25972;&#12375;&#12390;&#20986;&#21147;</text><rect fill="#F1F1F1" height="35.2401" rx="12.5" ry="12.5" style="stroke:#181818;stroke-width:0.5;" width="92.0005" x="823.0052" y="254.845"/><text fill="#000000" font-family="'Segoe UI', 'メイリオ', 'UDEV Gothic HSRFJPDOC', 'Hiragino Kaku Gothic ProN', 'ヒラギノ角ゴ ProN', 'Noto Sans JP', 'Helvetica Neue', Helvetica, Arial, sans-serif" font-size="12" lengthAdjust="spacing" textLength="72.0005" x="833.0052" y="276.8451">&#12381;&#12398;&#12414;&#12414;&#20986;&#21147;</text><polygon fill="#F1F1F1" points="427.7532,50,532.2525,50,544.2525,62,532.2525,74,427.7532,74,415.7532,62,427.7532,50" style="stroke:#181818;stroke-width:0.5;"/><text fill="#000000" font-family="'Segoe UI', 'メイリオ', 'UDEV Gothic HSRFJPDOC', 'Hiragino Kaku Gothic ProN', 'ヒラギノ角ゴ ProN', 'Noto Sans JP', 'Helvetica Neue', Helvetica, Arial, sans-serif" font-size="11" lengthAdjust="spacing" textLength="16.4999" x="484.0029" y="84.9999">yes</text><text fill="#000000" font-family="'Segoe UI', 'メイリオ', 'UDEV Gothic HSRFJPDOC', 'Hiragino Kaku Gothic ProN', 'ヒラギノ角ゴ ProN', 'Noto Sans JP', 'Helvetica Neue', Helvetica, Arial, sans-serif" font-size="11" lengthAdjust="spacing" textLength="104.4993" x="427.7532" y="66.015">&#27161;&#28310;&#20837;&#21147;&#12395;&#34892;&#12364;&#12354;&#12427;?</text><text fill="#000000" font-family="'Segoe UI', 'メイリオ', 'UDEV Gothic HSRFJPDOC', 'Hiragino Kaku Gothic ProN', 'ヒラギノ角ゴ ProN', 'Noto Sans JP', 'Helvetica Neue', Helvetica, Arial, sans-serif" font-size="11" lengthAdjust="spacing" textLength="10.9999" x="404.7533" y="59.03">no</text><ellipse cx="24" cy="109" fill="none" rx="11" ry="11" style="stroke:#222222;stroke-width:1;"/><ellipse cx="24" cy="109" fill="#222222" rx="6" ry="6" style="stroke:#222222;stroke-width:1;"/><line style="stroke:#181818;stroke-width:1;" x1="127.0005" x2="127.0005" y1="258.95" y2="293.95"/><polygon fill="#181818" points="123.0005,283.95,127.0005,293.95,131.0005,283.95,127.0005,287.95" style="stroke:#181818;stroke-width:1;"/><line style="stroke:#181818;stroke-width:1;" x1="364.0021" x2="364.0021" y1="258.95" y2="293.95"/><polygon fill="#181818" points="360.0021,283.95,364.0021,293.95,368.0021,283.95,364.0021,287.95" style="stroke:#181818;stroke-width:1;"/><line style="stroke:#181818;stroke-width:1;" x1="671.0042" x2="671.0042" y1="258.95" y2="293.95"/><polygon fill="#181818" points="667.0042,283.95,671.0042,293.95,675.0042,283.95,671.0042,287.95" style="stroke:#181818;stroke-width:1;"/><line style="stroke:#181818;stroke-width:1;" x1="127.0005" x2="127.0005" y1="191.21" y2="223.7099"/><polygon fill="#181818" points="123.0005,213.7099,127.0005,223.7099,131.0005,213.7099,127.0005,217.7099" style="stroke:#181818;stroke-width:1;"/><line style="stroke:#181818;stroke-width:1;" x1="127.0005" x2="127.0005" y1="329.1901" y2="349.1901"/><polygon fill="#181818" points="123.0005,339.1901,127.0005,349.1901,131.0005,339.1901,127.0005,343.1901" style="stroke:#181818;stroke-width:1;"/><line style="stroke:#181818;stroke-width:1;" x1="364.0021" x2="364.0021" y1="191.21" y2="223.7099"/><polygon fill="#181818" points="360.0021,213.7099,364.0021,223.7099,368.0021,213.7099,364.0021,217.7099" style="stroke:#181818;stroke-width:1;"/><line style="stroke:#181818;stroke-width:1;" x1="364.0021" x2="364.0021" y1="329.1901" y2="349.1901"/><polygon fill="#181818" points="360.0021,339.1901,364.0021,349.1901,368.0021,339.1901,364.0021,343.1901" style="stroke:#181818;stroke-width:1;"/><line style="stroke:#181818;stroke-width:1;" x1="671.0042" x2="671.0042" y1="191.21" y2="223.7099"/><polygon fill="#181818" points="667.0042,213.7099,671.0042,223.7099,675.0042,213.7099,671.0042,217.7099" style="stroke:#181818;stroke-width:1;"/><line style="stroke:#181818;stroke-width:1;" x1="671.0042" x2="671.0042" y1="329.1901" y2="349.1901"/><polygon fill="#181818" points="667.0042,339.1901,671.0042,349.1901,675.0042,339.1901,671.0042,343.1901" style="stroke:#181818;stroke-width:1;"/><line style="stroke:#181818;stroke-width:1;" x1="183.0002" x2="297.0026" y1="179.21" y2="179.21"/><polygon fill="#181818" points="287.0026,175.21,297.0026,179.21,287.0026,183.21,291.0026,179.21" style="stroke:#181818;stroke-width:1;"/><line style="stroke:#181818;stroke-width:1;" x1="431.0017" x2="560.005" y1="179.21" y2="179.21"/><polygon fill="#181818" points="550.005,175.21,560.005,179.21,550.005,183.21,554.005,179.21" style="stroke:#181818;stroke-width:1;"/><line style="stroke:#181818;stroke-width:1;" x1="480.0029" x2="480.0029" y1="147.21" y2="152.21"/><line style="stroke:#181818;stroke-width:1;" x1="480.0029" x2="127.0005" y1="152.21" y2="152.21"/><line style="stroke:#181818;stroke-width:1;" x1="127.0005" x2="127.0005" y1="152.21" y2="167.21"/><polygon fill="#181818" points="123.0005,157.21,127.0005,167.21,131.0005,157.21,127.0005,161.21" style="stroke:#181818;stroke-width:1;"/><line style="stroke:#181818;stroke-width:1;" x1="782.0034" x2="869.0055" y1="179.21" y2="179.21"/><line style="stroke:#181818;stroke-width:1;" x1="869.0055" x2="869.0055" y1="179.21" y2="254.845"/><polygon fill="#181818" points="865.0055,244.845,869.0055,254.845,873.0055,244.845,869.0055,248.845" style="stroke:#181818;stroke-width:1;"/><line style="stroke:#181818;stroke-width:1;" x1="869.0055" x2="869.0055" y1="290.0851" y2="349.1901"/><polygon fill="#181818" points="865.0055,339.1901,869.0055,349.1901,873.0055,339.1901,869.0055,343.1901" style="stroke:#181818;stroke-width:1;"/><line style="stroke:#181818;stroke-width:1;" x1="127.0005" x2="869.0055" y1="349.1901" y2="349.1901"/><line style="stroke:#181818;stroke-width:1;" x1="480.0029" x2="480.0029" y1="74" y2="111.9699"/><polygon fill="#181818" points="476.0029,101.9699,480.0029,111.9699,484.0029,101.9699,480.0029,105.9699" style="stroke:#181818;stroke-width:1;"/><line style="stroke:#181818;stroke-width:1;" x1="480.0029" x2="480.0029" y1="349.1901" y2="359.1901"/><line style="stroke:#181818;stroke-width:1;" x1="480.0029" x2="927.0057" y1="359.1901" y2="359.1901"/><polygon fill="#181818" points="923.0057,228.3601,927.0057,218.3601,931.0057,228.3601,927.0057,224.3601" style="stroke:#181818;stroke-width:1;"/><line style="stroke:#181818;stroke-width:1;" x1="927.0057" x2="927.0057" y1="62" y2="359.1901"/><line style="stroke:#181818;stroke-width:1;" x1="927.0057" x2="544.2525" y1="62" y2="62"/><polygon fill="#181818" points="554.2525,58,544.2525,62,554.2525,66,550.2525,62" style="stroke:#181818;stroke-width:1;"/><line style="stroke:#181818;stroke-width:1;" x1="415.7532" x2="24" y1="62" y2="62"/><line style="stroke:#181818;stroke-width:1;" x1="24" x2="24" y1="62" y2="98"/><polygon fill="#181818" points="20,88,24,98,28,88,24,92" style="stroke:#181818;stroke-width:1;"/><line style="stroke:#181818;stroke-width:1;" x1="480.0029" x2="480.0029" y1="30" y2="50"/><polygon fill="#181818" points="476.0029,40,480.0029,50,484.0029,40,480.0029,44" style="stroke:#181818;stroke-width:1;"/><!--SRC=[ZP5FIm916CRl-odcvkufnKwj5D6fIvUEsc7JKGVNMPdT46_EceKc6KA6IKHW8Of9VmvYeT-bOPRrMpIJMbt2O1XctkTvvltDJCHs2YRSL29hYuMTGJXd42CB3eru9aMi8vpOiKoB08SOs1OIn8vYEmPnb7mQcH2eNhVbZPkyVC-hRKRx_bsDKJ5SvfvjQG3PG2r0MrC0s92Is_1x0qQdlDvaRbKNPPG4QY2ASD8w202Xyui-SuiYwgGX_WwBE2zt6NrWz15ix-tl2kiBAxspKaLcAjLPgwFFVVxnarzvPlHAkFdfM6190PesdBUA4-IWk66kQjVfyO4ue-kNQbvhA8zq6w8BFty3QYmM38UZ8Nqzb0KV9mqmtmVrS2YhBJ5wK-_ozM-Cl44mmYb9GIUCtZ8w184e9CGY_oDRtl-7HfEnMV6QZqRBOb0MQPztAbwzlP8CgDXQD67qHZpr5zhabmadK58Hy-BpfTrshDmd]--></g></svg>