<svg xmlns="http://www.w3.org/2000/svg" xmlns:xlink="http://www.w3.org/1999/xlink" contentStyleType="text/css" data-diagram-type="DESCRIPTION" height="246px" preserveAspectRatio="none" style="width:753px;height:246px;" version="1.1" viewBox="0 0 753 246" width="753px" zoomAndPan="magnify"><defs/><g><!--entity n2--><g class="entity" data-entity="n2" data-source-line="5" data-uid="ent0002" id="entity_n2"><rect fill="#F1F1F1" height="37.7799" rx="2.5" ry="2.5" style="stroke:#181818;stroke-width:0.5;" width="96.9997" x="161.5" y="105"/><text fill="#000000" font-family="'Segoe UI', 'メイリオ', 'UDEV Gothic HSRFJPDOC', 'Hiragino Kaku Gothic ProN', 'ヒラギノ角ゴ ProN', 'Noto Sans JP', 'Helvetica Neue', Helvetica, Arial, sans-serif" font-size="14" lengthAdjust="spacing" textLength="76.9997" x="171.5" y="128.9999">file-util.h</text></g><!--entity n1--><g class="entity" data-entity="n1" data-source-line="6" data-uid="ent0003" id="entity_n1"><rect fill="#ADD8E6" height="37.7799" rx="2.5" ry="2.5" style="stroke:#181818;stroke-width:0.5;" width="101.8122" x="440" y="7"/><text fill="#000000" font-family="'Segoe UI', 'メイリオ', 'UDEV Gothic HSRFJPDOC', 'Hiragino Kaku Gothic ProN', 'ヒラギノ角ゴ ProN', 'Noto Sans JP', 'Helvetica Neue', Helvetica, Arial, sans-serif" font-size="14" font-weight="bold" lengthAdjust="spacing" textLength="81.8122" x="450" y="30.9999">file-util.c</text></g><!--entity n10--><g class="entity" data-entity="n10" data-source-line="7" data-uid="ent0004" id="entity_n10"><rect fill="#F1F1F1" height="37.7799" rx="2.5" ry="2.5" style="stroke:#181818;stroke-width:0.5;" width="68.9998" x="293.5" y="105"/><text fill="#000000" font-family="'Segoe UI', 'メイリオ', 'UDEV Gothic HSRFJPDOC', 'Hiragino Kaku Gothic ProN', 'ヒラギノ角ゴ ProN', 'Noto Sans JP', 'Helvetica Neue', Helvetica, Arial, sans-serif" font-size="14" lengthAdjust="spacing" textLength="48.9998" x="303.5" y="128.9999">errno.h</text></g><!--entity n11--><g class="entity" data-entity="n11" data-source-line="8" data-uid="ent0005" id="entity_n11"><rect fill="#F1F1F1" height="37.7799" rx="2.5" ry="2.5" style="stroke:#181818;stroke-width:0.5;" width="75.9998" x="398" y="105"/><text fill="#000000" font-family="'Segoe UI', 'メイリオ', 'UDEV Gothic HSRFJPDOC', 'Hiragino Kaku Gothic ProN', 'ヒラギノ角ゴ ProN', 'Noto Sans JP', 'Helvetica Neue', Helvetica, Arial, sans-serif" font-size="14" lengthAdjust="spacing" textLength="55.9998" x="408" y="128.9999">limits.h</text></g><!--entity n3--><g class="entity" data-entity="n3" data-source-line="9" data-uid="ent0006" id="entity_n3"><rect fill="#F1F1F1" height="37.7799" rx="2.5" ry="2.5" style="stroke:#181818;stroke-width:0.5;" width="75.9998" x="7" y="203"/><text fill="#000000" font-family="'Segoe UI', 'メイリオ', 'UDEV Gothic HSRFJPDOC', 'Hiragino Kaku Gothic ProN', 'ヒラギノ角ゴ ProN', 'Noto Sans JP', 'Helvetica Neue', Helvetica, Arial, sans-serif" font-size="14" lengthAdjust="spacing" textLength="55.9998" x="17" y="226.9999">stdarg.h</text></g><!--entity n4--><g class="entity" data-entity="n4" data-source-line="10" data-uid="ent0007" id="entity_n4"><rect fill="#F1F1F1" height="37.7799" rx="2.5" ry="2.5" style="stroke:#181818;stroke-width:0.5;" width="75.9998" x="118" y="203"/><text fill="#000000" font-family="'Segoe UI', 'メイリオ', 'UDEV Gothic HSRFJPDOC', 'Hiragino Kaku Gothic ProN', 'ヒラギノ角ゴ ProN', 'Noto Sans JP', 'Helvetica Neue', Helvetica, Arial, sans-serif" font-size="14" lengthAdjust="spacing" textLength="55.9998" x="128" y="226.9999">stdint.h</text></g><!--entity n5--><g class="entity" data-entity="n5" data-source-line="11" data-uid="ent0008" id="entity_n5"><rect fill="#F1F1F1" height="37.7799" rx="2.5" ry="2.5" style="stroke:#181818;stroke-width:0.5;" width="68.9998" x="229.5" y="203"/><text fill="#000000" font-family="'Segoe UI', 'メイリオ', 'UDEV Gothic HSRFJPDOC', 'Hiragino Kaku Gothic ProN', 'ヒラギノ角ゴ ProN', 'Noto Sans JP', 'Helvetica Neue', Helvetica, Arial, sans-serif" font-size="14" lengthAdjust="spacing" textLength="48.9998" x="239.5" y="226.9999">stdio.h</text></g><!--entity n8--><g class="entity" data-entity="n8" data-source-line="12" data-uid="ent0009" id="entity_n8"><rect fill="#F1F1F1" height="37.7799" rx="2.5" ry="2.5" style="stroke:#181818;stroke-width:0.5;" width="75.9998" x="509" y="105"/><text fill="#000000" font-family="'Segoe UI', 'メイリオ', 'UDEV Gothic HSRFJPDOC', 'Hiragino Kaku Gothic ProN', 'ヒラギノ角ゴ ProN', 'Noto Sans JP', 'Helvetica Neue', Helvetica, Arial, sans-serif" font-size="14" lengthAdjust="spacing" textLength="55.9998" x="519" y="128.9999">stdlib.h</text></g><!--entity n9--><g class="entity" data-entity="n9" data-source-line="13" data-uid="ent0010" id="entity_n9"><rect fill="#F1F1F1" height="37.7799" rx="2.5" ry="2.5" style="stroke:#181818;stroke-width:0.5;" width="75.9998" x="620" y="105"/><text fill="#000000" font-family="'Segoe UI', 'メイリオ', 'UDEV Gothic HSRFJPDOC', 'Hiragino Kaku Gothic ProN', 'ヒラギノ角ゴ ProN', 'Noto Sans JP', 'Helvetica Neue', Helvetica, Arial, sans-serif" font-size="14" lengthAdjust="spacing" textLength="55.9998" x="630" y="128.9999">string.h</text></g><!--entity n6--><g class="entity" data-entity="n6" data-source-line="14" data-uid="ent0011" id="entity_n6"><rect fill="#F1F1F1" height="37.7799" rx="2.5" ry="2.5" style="stroke:#181818;stroke-width:0.5;" width="61.9998" x="547" y="203"/><text fill="#000000" font-family="'Segoe UI', 'メイリオ', 'UDEV Gothic HSRFJPDOC', 'Hiragino Kaku Gothic ProN', 'ヒラギノ角ゴ ProN', 'Noto Sans JP', 'Helvetica Neue', Helvetica, Arial, sans-serif" font-size="14" lengthAdjust="spacing" textLength="41.9998" x="557" y="226.9999">stat.h</text></g><!--entity n7--><g class="entity" data-entity="n7" data-source-line="15" data-uid="ent0012" id="entity_n7"><rect fill="#F1F1F1" height="37.7799" rx="2.5" ry="2.5" style="stroke:#181818;stroke-width:0.5;" width="61.9998" x="334" y="203"/><text fill="#000000" font-family="'Segoe UI', 'メイリオ', 'UDEV Gothic HSRFJPDOC', 'Hiragino Kaku Gothic ProN', 'ヒラギノ角ゴ ProN', 'Noto Sans JP', 'Helvetica Neue', Helvetica, Arial, sans-serif" font-size="14" lengthAdjust="spacing" textLength="41.9998" x="344" y="226.9999">time.h</text></g><!--link n2 to n3--><g class="link" data-entity-1="n2" data-entity-2="n3" data-source-line="16" data-uid="lnk13" id="link_n2_n3"><path d="M177.7946,143.128 C148.7212,160.3959 111.3311,182.6033 82.2828,199.8562" fill="none" id="n2-to-n3" style="stroke:#181818;stroke-width:1;"/><polygon fill="#181818" points="77.1241,202.9202,86.9048,201.7634,81.423,200.3669,82.8195,194.8851,77.1241,202.9202" style="stroke:#181818;stroke-width:1;"/></g><!--link n2 to n4--><g class="link" data-entity-1="n2" data-entity-2="n4" data-source-line="17" data-uid="lnk14" id="link_n2_n4"><path d="M199.3313,143.3616 C189.8644,160.5424 179.0023,180.255 169.5421,197.4236" fill="none" id="n2-to-n4" style="stroke:#181818;stroke-width:1;"/><polygon fill="#181818" points="166.6465,202.6786,174.4933,196.7265,169.0595,198.2994,167.4866,192.8656,166.6465,202.6786" style="stroke:#181818;stroke-width:1;"/></g><!--link n2 to n5--><g class="link" data-entity-1="n2" data-entity-2="n5" data-source-line="18" data-uid="lnk15" id="link_n2_n5"><path d="M220.6687,143.3616 C230.1356,160.5424 240.9977,180.255 250.4579,197.4236" fill="none" id="n2-to-n5" style="stroke:#181818;stroke-width:1;"/><polygon fill="#181818" points="253.3535,202.6786,252.5134,192.8656,250.9405,198.2994,245.5067,196.7265,253.3535,202.6786" style="stroke:#181818;stroke-width:1;"/></g><!--link n2 to n6--><g class="link" data-entity-1="n2" data-entity-2="n6" data-source-line="19" data-uid="lnk16" id="link_n2_n6"><path d="M258.6209,138.1427 C264.4709,139.8012 270.3661,141.4524 276,143 C374.5083,170.0592 485.8706,198.6241 540.8149,212.5855" fill="none" id="n2-to-n6" style="stroke:#181818;stroke-width:1;"/><polygon fill="#181818" points="546.6301,214.0631,538.8924,207.9698,541.7841,212.8317,536.9222,215.7234,546.6301,214.0631" style="stroke:#181818;stroke-width:1;"/></g><!--link n2 to n7--><g class="link" data-entity-1="n2" data-entity-2="n7" data-source-line="20" data-uid="lnk17" id="link_n2_n7"><path d="M240.2535,143.128 C267.5649,160.3959 302.4636,182.4609 329.7514,199.7138" fill="none" id="n2-to-n7" style="stroke:#181818;stroke-width:1;"/><polygon fill="#181818" points="334.8228,202.9202,329.3533,194.7297,330.5966,200.2482,325.0781,201.4915,334.8228,202.9202" style="stroke:#181818;stroke-width:1;"/></g><!--link n1 to n2--><g class="link" data-entity-1="n1" data-entity-2="n2" data-source-line="21" data-uid="lnk18" id="link_n1_n2"><path d="M439.787,43.8608 C388.1809,61.8586 314.7991,87.4508 264.1771,105.1055" fill="none" id="n1-to-n2" style="stroke:#181818;stroke-width:1;"/><polygon fill="#181818" points="258.5118,107.0813,268.327,107.8945,263.2329,105.4348,265.6926,100.3407,258.5118,107.0813" style="stroke:#181818;stroke-width:1;"/></g><!--link n1 to n8--><g class="link" data-entity-1="n1" data-entity-2="n8" data-source-line="22" data-uid="lnk19" id="link_n1_n8"><path d="M502.0638,45.3616 C511.8814,62.5424 523.1718,82.3005 532.9824,99.4691" fill="none" id="n1-to-n8" style="stroke:#181818;stroke-width:1;"/><polygon fill="#181818" points="535.9592,104.6786,534.9669,94.8799,533.4785,100.3374,528.021,98.849,535.9592,104.6786" style="stroke:#181818;stroke-width:1;"/></g><!--link n1 to n9--><g class="link" data-entity-1="n1" data-entity-2="n9" data-source-line="23" data-uid="lnk20" id="link_n1_n9"><path d="M523.5957,45.128 C553.0215,62.3959 590.9113,84.6306 620.3117,101.8835" fill="none" id="n1-to-n9" style="stroke:#181818;stroke-width:1;"/><polygon fill="#181818" points="625.4865,104.9202,619.7488,96.9153,621.1742,102.3896,615.6998,103.815,625.4865,104.9202" style="stroke:#181818;stroke-width:1;"/></g><!--link n1 to n10--><g class="link" data-entity-1="n1" data-entity-2="n10" data-source-line="24" data-uid="lnk21" id="link_n1_n10"><path d="M459.185,45.128 C430.464,62.3959 393.5731,84.5757 364.8769,101.8286" fill="none" id="n1-to-n10" style="stroke:#181818;stroke-width:1;"/><polygon fill="#181818" points="359.7347,104.9202,369.509,103.7109,364.0198,102.3439,365.3869,96.8547,359.7347,104.9202" style="stroke:#181818;stroke-width:1;"/></g><!--link n1 to n11--><g class="link" data-entity-1="n1" data-entity-2="n11" data-source-line="25" data-uid="lnk22" id="link_n1_n11"><path d="M480.1338,45.3616 C470.4915,62.5424 459.4156,82.2777 449.7802,99.4463" fill="none" id="n1-to-n11" style="stroke:#181818;stroke-width:1;"/><polygon fill="#181818" points="446.8437,104.6786,454.7366,98.7878,449.2908,100.3183,447.7602,94.8725,446.8437,104.6786" style="stroke:#181818;stroke-width:1;"/></g><!--link n1 to n6--><g class="link" data-entity-1="n1" data-entity-2="n6" data-source-line="26" data-uid="lnk23" id="link_n1_n6"><path d="M542.0201,37.0143 C601.0957,50.923 692.8939,76.504 713,105 C746.5259,152.5157 664.1471,191.1047 614.6509,209.4709" fill="none" id="n1-to-n6" style="stroke:#181818;stroke-width:1;"/><polygon fill="#181818" points="609.0257,211.5582,618.8551,212.1774,613.7134,209.8188,616.072,204.6771,609.0257,211.5582" style="stroke:#181818;stroke-width:1;"/></g><!--SRC=[NT313e8m383XEq-nw8q4TQYe2U6WLrzYuiI6KKnN3hwz65sTtFxawzPbfUUdirLIBh_XMy278TEfYwdRXle1hwVUzQIO3FgHB792jcQ3ZRDgTWDdiu71BUupPRp2FDOq_NcTffy9hUPdQEvyT8EDXoqHzk4QlOh9GGVinNHidg-6cc3h2G5oeCsKPDbs8WukWVR_H82owl1FHXOLCJ1qDi0kmLnbMVL-PgYDr5Qga1fFw4_bKdkfWzJuNP9QidW1]--></g></svg>