<svg xmlns="http://www.w3.org/2000/svg" xmlns:xlink="http://www.w3.org/1999/xlink" contentStyleType="text/css" data-diagram-type="ACTIVITY" height="605px" preserveAspectRatio="none" style="width:932px;height:605px;" version="1.1" viewBox="0 0 932 605" width="932px" zoomAndPan="magnify"><defs/><g><ellipse cx="396.6272" cy="20" fill="#222222" rx="10" ry="10" style="stroke:#222222;stroke-width:1;"/><rect fill="#F1F1F1" height="35.2401" rx="12.5" ry="12.5" style="stroke:#181818;stroke-width:0.5;" width="218.0015" x="287.6264" y="50"/><text fill="#000000" font-family="メイリオ, `UDEV Gothic HSRFJPDOC`, Helvetica Neue, Helvetica, Arial, sans-serif" font-size="12" lengthAdjust="spacing" textLength="198.0015" x="297.6264" y="72.0001">&#26368;&#32066;&#38542;&#23652; Makefile (__template.mk)</text><rect fill="#F1F1F1" height="35.2401" rx="12.5" ry="12.5" style="stroke:#181818;stroke-width:0.5;" width="242.0017" x="275.6263" y="105.2401"/><text fill="#000000" font-family="メイリオ, `UDEV Gothic HSRFJPDOC`, Helvetica Neue, Helvetica, Arial, sans-serif" font-size="12" lengthAdjust="spacing" textLength="222.0017" x="285.6263" y="127.2402">(1) &#12527;&#12540;&#12463;&#12473;&#12506;&#12540;&#12473;&#26908;&#32034; (find-up &#38306;&#25968;)</text><path d="M501.6277,156.5903 L501.6277,174.1003 L481.6277,178.1003 L501.6277,182.1003 L501.6277,199.6103 A0,0 0 0 0 501.6277,199.6103 L795.6279,199.6103 A0,0 0 0 0 795.6279,199.6103 L795.6279,166.5903 L785.6279,156.5903 L501.6277,156.5903 A0,0 0 0 0 501.6277,156.5903" fill="#FEFFDD" style="stroke:#181818;stroke-width:0.5;"/><path d="M785.6279,156.5903 L785.6279,166.5903 L795.6279,166.5903 L785.6279,156.5903" fill="#FEFFDD" style="stroke:#181818;stroke-width:0.5;"/><text fill="#000000" font-family="メイリオ, `UDEV Gothic HSRFJPDOC`, Helvetica Neue, Helvetica, Arial, sans-serif" font-size="13" lengthAdjust="spacing" textLength="221.0001" x="507.6277" y="174.5903">- &#12467;&#12531;&#12497;&#12452;&#12521;&#35373;&#23450; (CC, CXX, LD, AR)</text><text fill="#000000" font-family="メイリオ, `UDEV Gothic HSRFJPDOC`, Helvetica Neue, Helvetica, Arial, sans-serif" font-size="13" lengthAdjust="spacing" textLength="273.0002" x="507.6277" y="191.1003">- makepart.mk &#12398;&#35501;&#12415;&#36796;&#12415;&#65288;&#35242;&#38542;&#23652;&#12363;&#12425;&#38918;&#27425;&#65289;</text><rect fill="#F1F1F1" height="35.2401" rx="12.5" ry="12.5" style="stroke:#181818;stroke-width:0.5;" width="170.0011" x="311.6266" y="160.4802"/><text fill="#000000" font-family="メイリオ, `UDEV Gothic HSRFJPDOC`, Helvetica Neue, Helvetica, Arial, sans-serif" font-size="12" lengthAdjust="spacing" textLength="150.0011" x="321.6266" y="182.4803">(2) prepare.mk &#12434; include</text><rect fill="#F1F1F1" height="35.2401" rx="12.5" ry="12.5" style="stroke:#181818;stroke-width:0.5;" width="176.0012" x="308.6266" y="219.6103"/><text fill="#000000" font-family="メイリオ, `UDEV Gothic HSRFJPDOC`, Helvetica Neue, Helvetica, Arial, sans-serif" font-size="12" lengthAdjust="spacing" textLength="156.0012" x="318.6266" y="241.6104">(3) makemain.mk &#12434; include</text><rect fill="#F1F1F1" height="35.2401" rx="12.5" ry="12.5" style="stroke:#181818;stroke-width:0.5;" width="152.001" x="320.6267" y="274.8504"/><text fill="#000000" font-family="メイリオ, `UDEV Gothic HSRFJPDOC`, Helvetica Neue, Helvetica, Arial, sans-serif" font-size="12" lengthAdjust="spacing" textLength="132.001" x="330.6267" y="296.8505">(4) &#12497;&#12473;&#21028;&#23450;&#12395;&#12424;&#12427;&#20998;&#23696;</text><polygon fill="#F1F1F1" points="333.3776,330.0905,459.8767,330.0905,471.8767,342.0905,459.8767,354.0905,333.3776,354.0905,321.3776,342.0905,333.3776,330.0905" style="stroke:#181818;stroke-width:0.5;"/><text fill="#000000" font-family="メイリオ, `UDEV Gothic HSRFJPDOC`, Helvetica Neue, Helvetica, Arial, sans-serif" font-size="11" lengthAdjust="spacing" textLength="126.499" x="333.3776" y="346.1055">&#12497;&#12473;&#12395; /libsrc/ &#12434;&#21547;&#12416;?</text><text fill="#000000" font-family="メイリオ, `UDEV Gothic HSRFJPDOC`, Helvetica Neue, Helvetica, Arial, sans-serif" font-size="11" lengthAdjust="spacing" textLength="16.4999" x="304.8778" y="339.1205">yes</text><text fill="#000000" font-family="メイリオ, `UDEV Gothic HSRFJPDOC`, Helvetica Neue, Helvetica, Arial, sans-serif" font-size="11" lengthAdjust="spacing" textLength="10.9999" x="471.8767" y="339.1205">no</text><rect fill="#F1F1F1" height="35.2401" rx="12.5" ry="12.5" style="stroke:#181818;stroke-width:0.5;" width="80.0005" x="119.5007" y="364.0905"/><text fill="#000000" font-family="メイリオ, `UDEV Gothic HSRFJPDOC`, Helvetica Neue, Helvetica, Arial, sans-serif" font-size="12" lengthAdjust="spacing" textLength="60.0005" x="129.5007" y="386.0906">&#12521;&#12452;&#12502;&#12521;&#12522;</text><polygon fill="#F1F1F1" points="118.2512,434.3306,200.7506,434.3306,212.7506,446.3306,200.7506,458.3306,118.2512,458.3306,106.2512,446.3306,118.2512,434.3306" style="stroke:#181818;stroke-width:0.5;"/><text fill="#000000" font-family="メイリオ, `UDEV Gothic HSRFJPDOC`, Helvetica Neue, Helvetica, Arial, sans-serif" font-size="11" lengthAdjust="spacing" textLength="82.4994" x="118.2512" y="450.3456">.csproj &#12364;&#23384;&#22312;?</text><text fill="#000000" font-family="メイリオ, `UDEV Gothic HSRFJPDOC`, Helvetica Neue, Helvetica, Arial, sans-serif" font-size="11" lengthAdjust="spacing" textLength="16.4999" x="89.7514" y="443.3606">yes</text><text fill="#000000" font-family="メイリオ, `UDEV Gothic HSRFJPDOC`, Helvetica Neue, Helvetica, Arial, sans-serif" font-size="11" lengthAdjust="spacing" textLength="10.9999" x="212.7506" y="443.3606">no</text><rect fill="#F1F1F1" height="35.2401" rx="12.5" ry="12.5" style="stroke:#181818;stroke-width:0.5;" width="140.0009" x="11" y="468.3306"/><text fill="#000000" font-family="メイリオ, `UDEV Gothic HSRFJPDOC`, Helvetica Neue, Helvetica, Arial, sans-serif" font-size="12" lengthAdjust="spacing" textLength="120.0009" x="21" y="490.3307">makelibsrc_dotnet.mk</text><ellipse cx="81.0005" cy="549.5707" fill="none" rx="11" ry="11" style="stroke:#222222;stroke-width:1;"/><ellipse cx="81.0005" cy="549.5707" fill="#222222" rx="6" ry="6" style="stroke:#222222;stroke-width:1;"/><rect fill="#F1F1F1" height="35.2401" rx="12.5" ry="12.5" style="stroke:#181818;stroke-width:0.5;" width="134.0009" x="171.0009" y="468.3306"/><text fill="#000000" font-family="メイリオ, `UDEV Gothic HSRFJPDOC`, Helvetica Neue, Helvetica, Arial, sans-serif" font-size="12" lengthAdjust="spacing" textLength="114.0009" x="181.0009" y="490.3307">makelibsrc_c_cpp.mk</text><ellipse cx="238.0014" cy="549.5707" fill="none" rx="11" ry="11" style="stroke:#222222;stroke-width:1;"/><ellipse cx="238.0014" cy="549.5707" fill="#222222" rx="6" ry="6" style="stroke:#222222;stroke-width:1;"/><polygon fill="#F1F1F1" points="578.7538,364.0905,688.753,364.0905,700.753,376.0905,688.753,388.0905,578.7538,388.0905,566.7538,376.0905,578.7538,364.0905" style="stroke:#181818;stroke-width:0.5;"/><text fill="#000000" font-family="メイリオ, `UDEV Gothic HSRFJPDOC`, Helvetica Neue, Helvetica, Arial, sans-serif" font-size="11" lengthAdjust="spacing" textLength="109.9992" x="578.7538" y="380.1055">&#12497;&#12473;&#12395; /src/ &#12434;&#21547;&#12416;?</text><text fill="#000000" font-family="メイリオ, `UDEV Gothic HSRFJPDOC`, Helvetica Neue, Helvetica, Arial, sans-serif" font-size="11" lengthAdjust="spacing" textLength="16.4999" x="550.254" y="373.1205">yes</text><text fill="#000000" font-family="メイリオ, `UDEV Gothic HSRFJPDOC`, Helvetica Neue, Helvetica, Arial, sans-serif" font-size="11" lengthAdjust="spacing" textLength="10.9999" x="700.753" y="373.1205">no</text><rect fill="#F1F1F1" height="35.2401" rx="12.5" ry="12.5" style="stroke:#181818;stroke-width:0.5;" width="56.0003" x="457.5024" y="398.0905"/><text fill="#000000" font-family="メイリオ, `UDEV Gothic HSRFJPDOC`, Helvetica Neue, Helvetica, Arial, sans-serif" font-size="12" lengthAdjust="spacing" textLength="36.0003" x="467.5024" y="420.0906">&#23455;&#34892;&#20307;</text><polygon fill="#F1F1F1" points="444.2529,468.3306,526.7522,468.3306,538.7522,480.3306,526.7522,492.3306,444.2529,492.3306,432.2529,480.3306,444.2529,468.3306" style="stroke:#181818;stroke-width:0.5;"/><text fill="#000000" font-family="メイリオ, `UDEV Gothic HSRFJPDOC`, Helvetica Neue, Helvetica, Arial, sans-serif" font-size="11" lengthAdjust="spacing" textLength="82.4994" x="444.2529" y="484.3456">.csproj &#12364;&#23384;&#22312;?</text><text fill="#000000" font-family="メイリオ, `UDEV Gothic HSRFJPDOC`, Helvetica Neue, Helvetica, Arial, sans-serif" font-size="11" lengthAdjust="spacing" textLength="16.4999" x="415.753" y="477.3606">yes</text><text fill="#000000" font-family="メイリオ, `UDEV Gothic HSRFJPDOC`, Helvetica Neue, Helvetica, Arial, sans-serif" font-size="11" lengthAdjust="spacing" textLength="10.9999" x="538.7522" y="477.3606">no</text><rect fill="#F1F1F1" height="35.2401" rx="12.5" ry="12.5" style="stroke:#181818;stroke-width:0.5;" width="122.0008" x="355.0018" y="502.3306"/><text fill="#000000" font-family="メイリオ, `UDEV Gothic HSRFJPDOC`, Helvetica Neue, Helvetica, Arial, sans-serif" font-size="12" lengthAdjust="spacing" textLength="102.0008" x="365.0018" y="524.3307">makesrc_dotnet.mk</text><ellipse cx="416.0022" cy="583.5707" fill="none" rx="11" ry="11" style="stroke:#222222;stroke-width:1;"/><ellipse cx="416.0022" cy="583.5707" fill="#222222" rx="6" ry="6" style="stroke:#222222;stroke-width:1;"/><rect fill="#F1F1F1" height="35.2401" rx="12.5" ry="12.5" style="stroke:#181818;stroke-width:0.5;" width="116.0007" x="497.0026" y="502.3306"/><text fill="#000000" font-family="メイリオ, `UDEV Gothic HSRFJPDOC`, Helvetica Neue, Helvetica, Arial, sans-serif" font-size="12" lengthAdjust="spacing" textLength="96.0007" x="507.0026" y="524.3307">makesrc_c_cpp.mk</text><ellipse cx="555.0029" cy="583.5707" fill="none" rx="11" ry="11" style="stroke:#222222;stroke-width:1;"/><ellipse cx="555.0029" cy="583.5707" fill="#222222" rx="6" ry="6" style="stroke:#222222;stroke-width:1;"/><rect fill="#F1F1F1" height="35.2401" rx="12.5" ry="12.5" style="stroke:#181818;stroke-width:0.5;" width="278.002" x="643.0033" y="398.0905"/><text fill="#000000" font-family="メイリオ, `UDEV Gothic HSRFJPDOC`, Helvetica Neue, Helvetica, Arial, sans-serif" font-size="12" lengthAdjust="spacing" textLength="258.002" x="653.0033" y="420.0906">&#12456;&#12521;&#12540;: &#12497;&#12473;&#12395; /libsrc/ &#12414;&#12383;&#12399; /src/ &#12364;&#24517;&#35201;</text><ellipse cx="782.0043" cy="479.3306" fill="none" rx="11" ry="11" style="stroke:#222222;stroke-width:1;"/><ellipse cx="782.0043" cy="479.3306" fill="#222222" rx="6" ry="6" style="stroke:#222222;stroke-width:1;"/><line style="stroke:#181818;stroke-width:1;" x1="396.6272" x2="396.6272" y1="30" y2="50"/><polygon fill="#181818" points="392.6272,40,396.6272,50,400.6272,40,396.6272,44" style="stroke:#181818;stroke-width:1;"/><line style="stroke:#181818;stroke-width:1;" x1="396.6272" x2="396.6272" y1="85.2401" y2="105.2401"/><polygon fill="#181818" points="392.6272,95.2401,396.6272,105.2401,400.6272,95.2401,396.6272,99.2401" style="stroke:#181818;stroke-width:1;"/><line style="stroke:#181818;stroke-width:1;" x1="396.6272" x2="396.6272" y1="140.4802" y2="160.4802"/><polygon fill="#181818" points="392.6272,150.4802,396.6272,160.4802,400.6272,150.4802,396.6272,154.4802" style="stroke:#181818;stroke-width:1;"/><line style="stroke:#181818;stroke-width:1;" x1="396.6272" x2="396.6272" y1="195.7203" y2="219.6103"/><polygon fill="#181818" points="392.6272,209.6103,396.6272,219.6103,400.6272,209.6103,396.6272,213.6103" style="stroke:#181818;stroke-width:1;"/><line style="stroke:#181818;stroke-width:1;" x1="396.6272" x2="396.6272" y1="254.8504" y2="274.8504"/><polygon fill="#181818" points="392.6272,264.8504,396.6272,274.8504,400.6272,264.8504,396.6272,268.8504" style="stroke:#181818;stroke-width:1;"/><line style="stroke:#181818;stroke-width:1;" x1="81.0005" x2="81.0005" y1="503.5707" y2="538.5707"/><polygon fill="#181818" points="77.0005,528.5707,81.0005,538.5707,85.0005,528.5707,81.0005,532.5707" style="stroke:#181818;stroke-width:1;"/><line style="stroke:#181818;stroke-width:1;" x1="238.0014" x2="238.0014" y1="503.5707" y2="538.5707"/><polygon fill="#181818" points="234.0014,528.5707,238.0014,538.5707,242.0014,528.5707,238.0014,532.5707" style="stroke:#181818;stroke-width:1;"/><line style="stroke:#181818;stroke-width:1;" x1="106.2512" x2="81.0005" y1="446.3306" y2="446.3306"/><line style="stroke:#181818;stroke-width:1;" x1="81.0005" x2="81.0005" y1="446.3306" y2="468.3306"/><polygon fill="#181818" points="77.0005,458.3306,81.0005,468.3306,85.0005,458.3306,81.0005,462.3306" style="stroke:#181818;stroke-width:1;"/><line style="stroke:#181818;stroke-width:1;" x1="212.7506" x2="238.0014" y1="446.3306" y2="446.3306"/><line style="stroke:#181818;stroke-width:1;" x1="238.0014" x2="238.0014" y1="446.3306" y2="468.3306"/><polygon fill="#181818" points="234.0014,458.3306,238.0014,468.3306,242.0014,458.3306,238.0014,462.3306" style="stroke:#181818;stroke-width:1;"/><line style="stroke:#181818;stroke-width:1;" x1="159.5009" x2="159.5009" y1="399.3306" y2="434.3306"/><polygon fill="#181818" points="155.5009,424.3306,159.5009,434.3306,163.5009,424.3306,159.5009,428.3306" style="stroke:#181818;stroke-width:1;"/><line style="stroke:#181818;stroke-width:1;" x1="416.0022" x2="416.0022" y1="537.5707" y2="572.5707"/><polygon fill="#181818" points="412.0022,562.5707,416.0022,572.5707,420.0022,562.5707,416.0022,566.5707" style="stroke:#181818;stroke-width:1;"/><line style="stroke:#181818;stroke-width:1;" x1="555.0029" x2="555.0029" y1="537.5707" y2="572.5707"/><polygon fill="#181818" points="551.0029,562.5707,555.0029,572.5707,559.0029,562.5707,555.0029,566.5707" style="stroke:#181818;stroke-width:1;"/><line style="stroke:#181818;stroke-width:1;" x1="432.2529" x2="416.0022" y1="480.3306" y2="480.3306"/><line style="stroke:#181818;stroke-width:1;" x1="416.0022" x2="416.0022" y1="480.3306" y2="502.3306"/><polygon fill="#181818" points="412.0022,492.3306,416.0022,502.3306,420.0022,492.3306,416.0022,496.3306" style="stroke:#181818;stroke-width:1;"/><line style="stroke:#181818;stroke-width:1;" x1="538.7522" x2="555.0029" y1="480.3306" y2="480.3306"/><line style="stroke:#181818;stroke-width:1;" x1="555.0029" x2="555.0029" y1="480.3306" y2="502.3306"/><polygon fill="#181818" points="551.0029,492.3306,555.0029,502.3306,559.0029,492.3306,555.0029,496.3306" style="stroke:#181818;stroke-width:1;"/><line style="stroke:#181818;stroke-width:1;" x1="485.5026" x2="485.5026" y1="433.3306" y2="468.3306"/><polygon fill="#181818" points="481.5026,458.3306,485.5026,468.3306,489.5026,458.3306,485.5026,462.3306" style="stroke:#181818;stroke-width:1;"/><line style="stroke:#181818;stroke-width:1;" x1="782.0043" x2="782.0043" y1="433.3306" y2="468.3306"/><polygon fill="#181818" points="778.0043,458.3306,782.0043,468.3306,786.0043,458.3306,782.0043,462.3306" style="stroke:#181818;stroke-width:1;"/><line style="stroke:#181818;stroke-width:1;" x1="566.7538" x2="485.5026" y1="376.0905" y2="376.0905"/><line style="stroke:#181818;stroke-width:1;" x1="485.5026" x2="485.5026" y1="376.0905" y2="398.0905"/><polygon fill="#181818" points="481.5026,388.0905,485.5026,398.0905,489.5026,388.0905,485.5026,392.0905" style="stroke:#181818;stroke-width:1;"/><line style="stroke:#181818;stroke-width:1;" x1="700.753" x2="782.0043" y1="376.0905" y2="376.0905"/><line style="stroke:#181818;stroke-width:1;" x1="782.0043" x2="782.0043" y1="376.0905" y2="398.0905"/><polygon fill="#181818" points="778.0043,388.0905,782.0043,398.0905,786.0043,388.0905,782.0043,392.0905" style="stroke:#181818;stroke-width:1;"/><line style="stroke:#181818;stroke-width:1;" x1="321.3776" x2="159.5009" y1="342.0905" y2="342.0905"/><line style="stroke:#181818;stroke-width:1;" x1="159.5009" x2="159.5009" y1="342.0905" y2="364.0905"/><polygon fill="#181818" points="155.5009,354.0905,159.5009,364.0905,163.5009,354.0905,159.5009,358.0905" style="stroke:#181818;stroke-width:1;"/><line style="stroke:#181818;stroke-width:1;" x1="471.8767" x2="633.7534" y1="342.0905" y2="342.0905"/><line style="stroke:#181818;stroke-width:1;" x1="633.7534" x2="633.7534" y1="342.0905" y2="364.0905"/><polygon fill="#181818" points="629.7534,354.0905,633.7534,364.0905,637.7534,354.0905,633.7534,358.0905" style="stroke:#181818;stroke-width:1;"/><line style="stroke:#181818;stroke-width:1;" x1="396.6272" x2="396.6272" y1="310.0905" y2="330.0905"/><polygon fill="#181818" points="392.6272,320.0905,396.6272,330.0905,400.6272,320.0905,396.6272,324.0905" style="stroke:#181818;stroke-width:1;"/><!--SRC=[ZP71Jjj048Rl-nHpjAL0HDkJZLgXzDXUUk8McNW3RkorPMyEtB2jeY1GHLiLeIWI1KKef4q2j3r4Sk5XjWxEYLVeh4EhD8cgojPgj3Fpp__DhWPyswPFoMhn8GXg5lCCtt1WmwZKDdstpioIQxi-SDzW0QOeuoJWXi-9Dchjt7sFnistwLKRNXerMhLi2agvpAdZsGQdoqvDrOcchAWWue684n4DH3GKSJEFXwDsw-xR6IXLYvbBTG_6HsUZZvTvooCLF9_AUIW28deF5glOTPFgXBcSWczjRd42i8IvhoB6_vs8sYA-o3gzjDy4fLGgG6bzlG0ldXTWxPMQrpfe4ZLvhXdsisvFXBVPJOBdVTB8phiJ617kYsXl_6btzENqFjaZb9aWfwAlnsekuXWMcpEcAKyaA1ePfeqskX3XPn4rHBIVDdRJwqETM5LG9WMOWg9jRGH-fIXLqaCitNcc0j-Y39Hj6aZ76WBbM4SoYBiwtacDvKhW-UvhP3X8UyTfgpFRYAtIvcH0sNGven9QprC1TpqCg1tWQp5tlXu_pvihPwPL9TDDCpJ_Hi49QVyaEptu-UF3HFS_GHwiBU3uOssMPQhbRvJfZXndRWiYwkIhJZHOz53XZGXFH3ZuJOksRzzav-6YJSdp5m00]--></g></svg>