<?xml version="1.0" encoding="UTF-8" standalone="no"?>
<!DOCTYPE svg PUBLIC "-//W3C//DTD SVG 1.1//EN"
 "http://www.w3.org/Graphics/SVG/1.1/DTD/svg11.dtd">
<!-- Generated by graphviz version 2.40.1 (0)
 -->
<!-- Title: porter/libsrc/porter/compress/compress.h Pages: 1 -->
<svg width="386pt" height="236pt"
 viewBox="0.00 0.00 386.01 236.00" xmlns="http://www.w3.org/2000/svg" xmlns:xlink="http://www.w3.org/1999/xlink">
<g id="graph0" class="graph" transform="scale(1 1) rotate(0) translate(4 232)">
<title>porter/libsrc/porter/compress/compress.h</title>
<!-- Node1 -->
<g id="Node000001" class="node">
<title>Node1</title>
<g id="a_Node000001"><a xlink:title="データ圧縮・解凍モジュールの内部ヘッダー。">
<polygon fill="#999999" stroke="#666666" points="336.5,-228 220.5,-228 220.5,-198 336.5,-198 336.5,-228"/>
<text text-anchor="start" x="228.5" y="-216" font-family="Helvetica,sans-Serif" font-size="10.00" fill="#000000">porter/libsrc/porter</text>
<text text-anchor="middle" x="278.5" y="-205" font-family="Helvetica,sans-Serif" font-size="10.00" fill="#000000">/compress/compress.h</text>
</a>
</g>
</g>
<!-- Node2 -->
<g id="Node000002" class="node">
<title>Node2</title>
<g id="a_Node000002"><a xlink:href="compress__linux_8c.html" target="_top" xlink:title="Linux 向け圧縮・解凍モジュール (zlib)。">
<polygon fill="#ffffff" stroke="#666666" points="174.5,-162 32.5,-162 32.5,-132 174.5,-132 174.5,-162"/>
<text text-anchor="start" x="40.5" y="-150" font-family="Helvetica,sans-Serif" font-size="10.00" fill="#000000">porter/libsrc/porter</text>
<text text-anchor="middle" x="103.5" y="-139" font-family="Helvetica,sans-Serif" font-size="10.00" fill="#000000">/compress/compress_linux.c</text>
</a>
</g>
</g>
<!-- Node1&#45;&gt;Node2 -->
<g id="edge1_Node000001_Node000002" class="edge">
<title>Node1&#45;&gt;Node2</title>
<g id="a_edge1_Node000001_Node000002"><a xlink:title=" ">
<path fill="none" stroke="#63b8ff" d="M228.696,-194.2168C201.6932,-184.0329 168.7685,-171.6156 143.4617,-162.0713"/>
<polygon fill="#63b8ff" stroke="#63b8ff" points="227.7597,-197.6042 238.3515,-197.8583 230.2299,-191.0546 227.7597,-197.6042"/>
</a>
</g>
</g>
<!-- Node3 -->
<g id="Node000003" class="node">
<title>Node3</title>
<g id="a_Node000003"><a xlink:href="potrContext_8h.html" target="_top" xlink:title="セッションコンテキスト内部定義ヘッダー。">
<polygon fill="#ffffff" stroke="#666666" points="288,-162 193,-162 193,-132 288,-132 288,-162"/>
<text text-anchor="start" x="201" y="-150" font-family="Helvetica,sans-Serif" font-size="10.00" fill="#000000">porter/libsrc/porter</text>
<text text-anchor="middle" x="240.5" y="-139" font-family="Helvetica,sans-Serif" font-size="10.00" fill="#000000">/potrContext.h</text>
</a>
</g>
</g>
<!-- Node1&#45;&gt;Node3 -->
<g id="edge2_Node000001_Node000003" class="edge">
<title>Node1&#45;&gt;Node3</title>
<g id="a_edge2_Node000001_Node000003"><a xlink:title=" ">
<path fill="none" stroke="#63b8ff" d="M264.6059,-188.8682C259.478,-179.9619 253.8142,-170.1246 249.2657,-162.2246"/>
<polygon fill="#63b8ff" stroke="#63b8ff" points="261.6636,-190.7725 269.6865,-197.6924 267.73,-187.2798 261.6636,-190.7725"/>
</a>
</g>
</g>
<!-- Node6 -->
<g id="Node000006" class="node">
<title>Node6</title>
<g id="a_Node000006"><a xlink:href="potrRecvThread_8c.html" target="_top" xlink:title="受信スレッドモジュール。">
<polygon fill="#ffffff" stroke="#666666" points="329,-30 232,-30 232,0 329,0 329,-30"/>
<text text-anchor="start" x="240" y="-18" font-family="Helvetica,sans-Serif" font-size="10.00" fill="#000000">porter/libsrc/porter</text>
<text text-anchor="middle" x="280.5" y="-7" font-family="Helvetica,sans-Serif" font-size="10.00" fill="#000000">/potrRecvThread.c</text>
</a>
</g>
</g>
<!-- Node1&#45;&gt;Node6 -->
<g id="edge11_Node000001_Node000006" class="edge">
<title>Node1&#45;&gt;Node6</title>
<g id="a_edge11_Node000001_Node000006"><a xlink:title=" ">
<path fill="none" stroke="#63b8ff" d="M304.268,-191.1336C327.4225,-169.6466 359.8207,-134.5484 373.5,-96 377.959,-83.4344 380.2932,-77.473 373.5,-66 363.649,-49.3628 346.2336,-37.7936 329.1163,-29.934"/>
<polygon fill="#63b8ff" stroke="#63b8ff" points="301.8755,-188.5784 296.8104,-197.8841 306.5731,-193.7681 301.8755,-188.5784"/>
</a>
</g>
</g>
<!-- Node8 -->
<g id="Node000008" class="node">
<title>Node8</title>
<g id="a_Node000008"><a xlink:href="potrSend_8c.html" target="_top" xlink:title="potrSend 関数の実装。">
<polygon fill="#ffffff" stroke="#666666" points="364,-96 269,-96 269,-66 364,-66 364,-96"/>
<text text-anchor="start" x="277" y="-84" font-family="Helvetica,sans-Serif" font-size="10.00" fill="#000000">porter/libsrc/porter</text>
<text text-anchor="middle" x="316.5" y="-73" font-family="Helvetica,sans-Serif" font-size="10.00" fill="#000000">/potrSend.c</text>
</a>
</g>
</g>
<!-- Node1&#45;&gt;Node8 -->
<g id="edge12_Node000001_Node000008" class="edge">
<title>Node1&#45;&gt;Node8</title>
<g id="a_edge12_Node000001_Node000008"><a xlink:title=" ">
<path fill="none" stroke="#63b8ff" d="M288.3456,-188.4897C291.5001,-180.1592 294.8569,-170.745 297.5,-162 304.3534,-139.3246 310.2235,-112.4596 313.5575,-96.079"/>
<polygon fill="#63b8ff" stroke="#63b8ff" points="285.0117,-187.4068 284.6599,-197.9958 291.5383,-189.9374 285.0117,-187.4068"/>
</a>
</g>
</g>
<!-- Node4 -->
<g id="Node000004" class="node">
<title>Node4</title>
<g id="a_Node000004"><a xlink:href="potrClose_8c.html" target="_top" xlink:title="potrClose 関数の実装。">
<polygon fill="#ffffff" stroke="#666666" points="95,-30 0,-30 0,0 95,0 95,-30"/>
<text text-anchor="start" x="8" y="-18" font-family="Helvetica,sans-Serif" font-size="10.00" fill="#000000">porter/libsrc/porter</text>
<text text-anchor="middle" x="47.5" y="-7" font-family="Helvetica,sans-Serif" font-size="10.00" fill="#000000">/potrClose.c</text>
</a>
</g>
</g>
<!-- Node3&#45;&gt;Node4 -->
<g id="edge3_Node000003_Node000004" class="edge">
<title>Node3&#45;&gt;Node4</title>
<g id="a_edge3_Node000003_Node000004"><a xlink:title=" ">
<path fill="none" stroke="#63b8ff" d="M183.2225,-130.8113C149.6474,-120.5179 111.2087,-107.0896 97.5,-96 75.6579,-78.3309 60.7759,-48.4093 53.242,-30.2997"/>
<polygon fill="#63b8ff" stroke="#63b8ff" points="182.4098,-134.222 192.9947,-133.7627 184.4337,-127.5209 182.4098,-134.222"/>
</a>
</g>
</g>
<!-- Node5 -->
<g id="Node000005" class="node">
<title>Node5</title>
<g id="a_Node000005"><a xlink:href="potrOpenService_8c.html" target="_top" xlink:title="potrOpenService 関数の実装。">
<polygon fill="#ffffff" stroke="#666666" points="214,-30 113,-30 113,0 214,0 214,-30"/>
<text text-anchor="start" x="121" y="-18" font-family="Helvetica,sans-Serif" font-size="10.00" fill="#000000">porter/libsrc/porter</text>
<text text-anchor="middle" x="163.5" y="-7" font-family="Helvetica,sans-Serif" font-size="10.00" fill="#000000">/potrOpenService.c</text>
</a>
</g>
</g>
<!-- Node3&#45;&gt;Node5 -->
<g id="edge4_Node000003_Node000005" class="edge">
<title>Node3&#45;&gt;Node5</title>
<g id="a_edge4_Node000003_Node000005"><a xlink:title=" ">
<path fill="none" stroke="#63b8ff" d="M183.3531,-128.7887C148.7602,-117.1911 110.383,-103.0646 105.5,-96 89.47,-72.8085 117.367,-46.3117 139.7515,-30.1207"/>
<polygon fill="#63b8ff" stroke="#63b8ff" points="182.3852,-132.1551 192.9787,-131.9847 184.5911,-125.5118 182.3852,-132.1551"/>
</a>
</g>
</g>
<!-- Node3&#45;&gt;Node6 -->
<g id="edge5_Node000003_Node000006" class="edge">
<title>Node3&#45;&gt;Node6</title>
<g id="a_edge5_Node000003_Node000006"><a xlink:title=" ">
<path fill="none" stroke="#63b8ff" d="M245.8506,-121.6769C249.472,-105.5841 254.6507,-84.3934 260.5,-66 264.3622,-53.8551 269.6609,-40.451 273.8341,-30.4336"/>
<polygon fill="#63b8ff" stroke="#63b8ff" points="242.3306,-121.3884 243.6032,-131.9065 249.1675,-122.8905 242.3306,-121.3884"/>
</a>
</g>
</g>
<!-- Node7 -->
<g id="Node000007" class="node">
<title>Node7</title>
<g id="a_Node000007"><a xlink:href="potrRecvThread_8h.html" target="_top" xlink:title="受信スレッド内部ヘッダー。">
<polygon fill="#ffffff" stroke="#666666" points="212,-96 115,-96 115,-66 212,-66 212,-96"/>
<text text-anchor="start" x="123" y="-84" font-family="Helvetica,sans-Serif" font-size="10.00" fill="#000000">porter/libsrc/porter</text>
<text text-anchor="middle" x="163.5" y="-73" font-family="Helvetica,sans-Serif" font-size="10.00" fill="#000000">/potrRecvThread.h</text>
</a>
</g>
</g>
<!-- Node3&#45;&gt;Node7 -->
<g id="edge6_Node000003_Node000007" class="edge">
<title>Node3&#45;&gt;Node7</title>
<g id="a_edge6_Node000003_Node000007"><a xlink:title=" ">
<path fill="none" stroke="#63b8ff" d="M214.9462,-125.0967C203.9045,-115.6324 191.2549,-104.7899 181.262,-96.2246"/>
<polygon fill="#63b8ff" stroke="#63b8ff" points="212.7707,-127.8418 222.6411,-131.6924 217.3263,-122.527 212.7707,-127.8418"/>
</a>
</g>
</g>
<!-- Node3&#45;&gt;Node8 -->
<g id="edge10_Node000003_Node000008" class="edge">
<title>Node3&#45;&gt;Node8</title>
<g id="a_edge10_Node000003_Node000008"><a xlink:title=" ">
<path fill="none" stroke="#63b8ff" d="M265.7219,-125.0967C276.6203,-115.6324 289.1056,-104.7899 298.9686,-96.2246"/>
<polygon fill="#63b8ff" stroke="#63b8ff" points="263.3824,-122.4929 258.127,-131.6924 267.9722,-127.7781 263.3824,-122.4929"/>
</a>
</g>
</g>
<!-- Node7&#45;&gt;Node4 -->
<g id="edge7_Node000007_Node000004" class="edge">
<title>Node7&#45;&gt;Node4</title>
<g id="a_edge7_Node000007_Node000004"><a xlink:title=" ">
<path fill="none" stroke="#63b8ff" d="M128.1101,-60.8643C110.6833,-50.9491 90.028,-39.197 73.9889,-30.0713"/>
<polygon fill="#63b8ff" stroke="#63b8ff" points="126.4648,-63.9551 136.8873,-65.8583 129.9265,-57.8709 126.4648,-63.9551"/>
</a>
</g>
</g>
<!-- Node7&#45;&gt;Node5 -->
<g id="edge8_Node000007_Node000005" class="edge">
<title>Node7&#45;&gt;Node5</title>
<g id="a_edge8_Node000007_Node000005"><a xlink:title=" ">
<path fill="none" stroke="#63b8ff" d="M163.5,-55.4546C163.5,-46.9317 163.5,-37.7088 163.5,-30.2246"/>
<polygon fill="#63b8ff" stroke="#63b8ff" points="160.0001,-55.6923 163.5,-65.6924 167.0001,-55.6924 160.0001,-55.6923"/>
</a>
</g>
</g>
<!-- Node7&#45;&gt;Node6 -->
<g id="edge9_Node000007_Node000006" class="edge">
<title>Node7&#45;&gt;Node6</title>
<g id="a_edge9_Node000007_Node000006"><a xlink:title=" ">
<path fill="none" stroke="#63b8ff" d="M199.195,-60.8643C216.772,-50.9491 237.6054,-39.197 253.7827,-30.0713"/>
<polygon fill="#63b8ff" stroke="#63b8ff" points="197.3323,-57.8966 190.3422,-65.8583 200.7716,-63.9934 197.3323,-57.8966"/>
</a>
</g>
</g>
</g>
</svg>
