<?xml version="1.0" encoding="UTF-8" standalone="no"?>
<!DOCTYPE svg PUBLIC "-//W3C//DTD SVG 1.1//EN"
 "http://www.w3.org/Graphics/SVG/1.1/DTD/svg11.dtd">
<!-- Generated by graphviz version 2.40.1 (0)
 -->
<!-- Title: porter/libsrc/porter/infra/compress/compress_linux.c Pages: 1 -->
<svg width="369pt" height="159pt"
 viewBox="0.00 0.00 369.00 159.00" xmlns="http://www.w3.org/2000/svg" xmlns:xlink="http://www.w3.org/1999/xlink">
<g id="graph0" class="graph" transform="scale(1 1) rotate(0) translate(4 155)">
<title>porter/libsrc/porter/infra/compress/compress_linux.c</title>
<!-- Node1 -->
<g id="Node000001" class="node">
<title>Node1</title>
<g id="a_Node000001"><a xlink:title="Linux 向け圧縮・解凍モジュール (zlib)。">
<polygon fill="#999999" stroke="#666666" points="197.5,-151 67.5,-151 67.5,-110 197.5,-110 197.5,-151"/>
<text text-anchor="start" x="75.5" y="-139" font-family="Helvetica,sans-Serif" font-size="10.00" fill="#000000">porter/libsrc/porter</text>
<text text-anchor="start" x="75.5" y="-128" font-family="Helvetica,sans-Serif" font-size="10.00" fill="#000000">/infra/compress/compress</text>
<text text-anchor="middle" x="132.5" y="-117" font-family="Helvetica,sans-Serif" font-size="10.00" fill="#000000">_linux.c</text>
</a>
</g>
</g>
<!-- Node2 -->
<g id="Node000002" class="node">
<title>Node2</title>
<g id="a_Node000002"><a xlink:title=" ">
<polygon fill="#e0e0e0" stroke="#999999" points="49,-74 0,-74 0,-55 49,-55 49,-74"/>
<text text-anchor="middle" x="24.5" y="-62" font-family="Helvetica,sans-Serif" font-size="10.00" fill="#000000">string.h</text>
</a>
</g>
</g>
<!-- Node1&#45;&gt;Node2 -->
<g id="edge1_Node000001_Node000002" class="edge">
<title>Node1&#45;&gt;Node2</title>
<g id="a_edge1_Node000001_Node000002"><a xlink:title=" ">
<path fill="none" stroke="#63b8ff" d="M98.9201,-109.979C82.7161,-100.0765 63.6352,-88.416 48.8512,-79.3813"/>
<polygon fill="#63b8ff" stroke="#63b8ff" points="50.6235,-76.3625 40.2655,-74.1345 46.9733,-82.3355 50.6235,-76.3625"/>
</a>
</g>
</g>
<!-- Node3 -->
<g id="Node000003" class="node">
<title>Node3</title>
<g id="a_Node000003"><a xlink:title=" ">
<polygon fill="#e0e0e0" stroke="#999999" points="129.5,-74 67.5,-74 67.5,-55 129.5,-55 129.5,-74"/>
<text text-anchor="middle" x="98.5" y="-62" font-family="Helvetica,sans-Serif" font-size="10.00" fill="#000000">arpa/inet.h</text>
</a>
</g>
</g>
<!-- Node1&#45;&gt;Node3 -->
<g id="edge2_Node000001_Node000003" class="edge">
<title>Node1&#45;&gt;Node3</title>
<g id="a_edge2_Node000001_Node000003"><a xlink:title=" ">
<path fill="none" stroke="#63b8ff" d="M121.9286,-109.979C117.5011,-101.3844 112.3913,-91.4655 108.0758,-83.0884"/>
<polygon fill="#63b8ff" stroke="#63b8ff" points="111.1543,-81.4214 103.4632,-74.1345 104.9314,-84.6271 111.1543,-81.4214"/>
</a>
</g>
</g>
<!-- Node4 -->
<g id="Node000004" class="node">
<title>Node4</title>
<g id="a_Node000004"><a xlink:title=" ">
<polygon fill="#e0e0e0" stroke="#999999" points="187.5,-74 147.5,-74 147.5,-55 187.5,-55 187.5,-74"/>
<text text-anchor="middle" x="167.5" y="-62" font-family="Helvetica,sans-Serif" font-size="10.00" fill="#000000">zlib.h</text>
</a>
</g>
</g>
<!-- Node1&#45;&gt;Node4 -->
<g id="edge3_Node000001_Node000004" class="edge">
<title>Node1&#45;&gt;Node4</title>
<g id="a_edge3_Node000001_Node000004"><a xlink:title=" ">
<path fill="none" stroke="#63b8ff" d="M143.3824,-109.979C147.9401,-101.3844 153.2001,-91.4655 157.6425,-83.0884"/>
<polygon fill="#63b8ff" stroke="#63b8ff" points="160.7978,-84.6089 162.3908,-74.1345 154.6136,-81.3293 160.7978,-84.6089"/>
</a>
</g>
</g>
<!-- Node5 -->
<g id="Node000005" class="node">
<title>Node5</title>
<g id="a_Node000005"><a xlink:href="compress_8h.html" target="_top" xlink:title="データ圧縮・解凍モジュールの内部ヘッダー。">
<polygon fill="#ffffff" stroke="#666666" points="273.5,-74 205.5,-74 205.5,-55 273.5,-55 273.5,-74"/>
<text text-anchor="middle" x="239.5" y="-62" font-family="Helvetica,sans-Serif" font-size="10.00" fill="#000000">compress.h</text>
</a>
</g>
</g>
<!-- Node1&#45;&gt;Node5 -->
<g id="edge4_Node000001_Node000005" class="edge">
<title>Node1&#45;&gt;Node5</title>
<g id="a_edge4_Node000001_Node000005"><a xlink:title=" ">
<path fill="none" stroke="#63b8ff" d="M165.7689,-109.979C181.6714,-100.1699 200.3707,-88.6358 214.9586,-79.6377"/>
<polygon fill="#63b8ff" stroke="#63b8ff" points="217.2068,-82.3633 223.8804,-74.1345 213.5319,-76.4055 217.2068,-82.3633"/>
</a>
</g>
</g>
<!-- Node6 -->
<g id="Node000006" class="node">
<title>Node6</title>
<g id="a_Node000006"><a xlink:title=" ">
<polygon fill="#e0e0e0" stroke="#999999" points="196.5,-19 144.5,-19 144.5,0 196.5,0 196.5,-19"/>
<text text-anchor="middle" x="170.5" y="-7" font-family="Helvetica,sans-Serif" font-size="10.00" fill="#000000">stddef.h</text>
</a>
</g>
</g>
<!-- Node5&#45;&gt;Node6 -->
<g id="edge5_Node000005_Node000006" class="edge">
<title>Node5&#45;&gt;Node6</title>
<g id="a_edge5_Node000005_Node000006"><a xlink:title=" ">
<path fill="none" stroke="#63b8ff" d="M227.4811,-54.9197C217.4144,-46.8956 202.8247,-35.2661 190.9287,-25.7837"/>
<polygon fill="#63b8ff" stroke="#63b8ff" points="192.8471,-22.8371 182.8458,-19.3408 188.4839,-28.3109 192.8471,-22.8371"/>
</a>
</g>
</g>
<!-- Node7 -->
<g id="Node000007" class="node">
<title>Node7</title>
<g id="a_Node000007"><a xlink:title=" ">
<polygon fill="#e0e0e0" stroke="#999999" points="264,-19 215,-19 215,0 264,0 264,-19"/>
<text text-anchor="middle" x="239.5" y="-7" font-family="Helvetica,sans-Serif" font-size="10.00" fill="#000000">stdint.h</text>
</a>
</g>
</g>
<!-- Node5&#45;&gt;Node7 -->
<g id="edge6_Node000005_Node000007" class="edge">
<title>Node5&#45;&gt;Node7</title>
<g id="a_edge6_Node000005_Node000007"><a xlink:title=" ">
<path fill="none" stroke="#63b8ff" d="M239.5,-54.9197C239.5,-47.9083 239.5,-38.1442 239.5,-29.4652"/>
<polygon fill="#63b8ff" stroke="#63b8ff" points="243.0001,-29.3408 239.5,-19.3408 236.0001,-29.3409 243.0001,-29.3408"/>
</a>
</g>
</g>
<!-- Node8 -->
<g id="Node000008" class="node">
<title>Node8</title>
<g id="a_Node000008"><a xlink:href="porter__const_8h.html" target="_top" xlink:title="通信ライブラリの定数ファイル。">
<polygon fill="#ffffff" stroke="#666666" points="361,-19 282,-19 282,0 361,0 361,-19"/>
<text text-anchor="middle" x="321.5" y="-7" font-family="Helvetica,sans-Serif" font-size="10.00" fill="#000000">porter_const.h</text>
</a>
</g>
</g>
<!-- Node5&#45;&gt;Node8 -->
<g id="edge7_Node000005_Node000008" class="edge">
<title>Node5&#45;&gt;Node8</title>
<g id="a_edge7_Node000005_Node000008"><a xlink:title=" ">
<path fill="none" stroke="#63b8ff" d="M253.7833,-54.9197C266.1711,-46.6109 284.3222,-34.4363 298.7147,-24.7828"/>
<polygon fill="#63b8ff" stroke="#63b8ff" points="300.75,-27.6321 307.1052,-19.155 296.8507,-21.8187 300.75,-27.6321"/>
</a>
</g>
</g>
</g>
</svg>
