<?xml version="1.0" encoding="UTF-8" standalone="no"?>
<!DOCTYPE svg PUBLIC "-//W3C//DTD SVG 1.1//EN"
 "http://www.w3.org/Graphics/SVG/1.1/DTD/svg11.dtd">
<!-- Generated by graphviz version 2.40.1 (0)
 -->
<!-- Title: porter/libsrc/porter/infra/compress/compress.h Pages: 1 -->
<svg width="957pt" height="247pt"
 viewBox="0.00 0.00 957.00 247.00" xmlns="http://www.w3.org/2000/svg" xmlns:xlink="http://www.w3.org/1999/xlink">
<g id="graph0" class="graph" transform="scale(1 1) rotate(0) translate(4 243)">
<title>porter/libsrc/porter/infra/compress/compress.h</title>
<!-- Node1 -->
<g id="Node000001" class="node">
<title>Node1</title>
<g id="a_Node000001"><a xlink:title="データ圧縮・解凍モジュールの内部ヘッダー。">
<polygon fill="#999999" stroke="#666666" points="784,-239 646,-239 646,-209 784,-209 784,-239"/>
<text text-anchor="start" x="654" y="-227" font-family="Helvetica,sans-Serif" font-size="10.00" fill="#000000">porter/libsrc/porter</text>
<text text-anchor="middle" x="715" y="-216" font-family="Helvetica,sans-Serif" font-size="10.00" fill="#000000">/infra/compress/compress.h</text>
</a>
</g>
</g>
<!-- Node2 -->
<g id="Node000002" class="node">
<title>Node2</title>
<g id="a_Node000002"><a xlink:href="potrOpenService_8c.html" target="_top" xlink:title="potrOpenService 関数の実装。">
<polygon fill="#ffffff" stroke="#666666" points="281,-30 165,-30 165,0 281,0 281,-30"/>
<text text-anchor="start" x="173" y="-18" font-family="Helvetica,sans-Serif" font-size="10.00" fill="#000000">porter/libsrc/porter</text>
<text text-anchor="middle" x="223" y="-7" font-family="Helvetica,sans-Serif" font-size="10.00" fill="#000000">/api/potrOpenService.c</text>
</a>
</g>
</g>
<!-- Node1&#45;&gt;Node2 -->
<g id="edge1_Node000001_Node000002" class="edge">
<title>Node1&#45;&gt;Node2</title>
<g id="a_edge1_Node000001_Node000002"><a xlink:title=" ">
<path fill="none" stroke="#63b8ff" d="M635.6686,-220.7909C478.0295,-212.5408 134.536,-184.5811 65,-96 56.767,-85.5121 57.1524,-76.7793 65,-66 77.1299,-49.3385 125.0087,-35.3776 164.9133,-26.2991"/>
<polygon fill="#63b8ff" stroke="#63b8ff" points="635.6131,-224.2925 645.7783,-221.3062 635.9695,-217.3016 635.6131,-224.2925"/>
</a>
</g>
</g>
<!-- Node3 -->
<g id="Node000003" class="node">
<title>Node3</title>
<g id="a_Node000003"><a xlink:href="potrSend_8c.html" target="_top" xlink:title="potrSend 関数の実装。">
<polygon fill="#ffffff" stroke="#666666" points="762.5,-96 667.5,-96 667.5,-66 762.5,-66 762.5,-96"/>
<text text-anchor="start" x="675.5" y="-84" font-family="Helvetica,sans-Serif" font-size="10.00" fill="#000000">porter/libsrc/porter</text>
<text text-anchor="middle" x="715" y="-73" font-family="Helvetica,sans-Serif" font-size="10.00" fill="#000000">/api/potrSend.c</text>
</a>
</g>
</g>
<!-- Node1&#45;&gt;Node3 -->
<g id="edge2_Node000001_Node000003" class="edge">
<title>Node1&#45;&gt;Node3</title>
<g id="a_edge2_Node000001_Node000003"><a xlink:title=" ">
<path fill="none" stroke="#63b8ff" d="M715,-198.5768C715,-168.8773 715,-120.7009 715,-96.2622"/>
<polygon fill="#63b8ff" stroke="#63b8ff" points="711.5001,-198.9667 715,-208.9668 718.5001,-198.9668 711.5001,-198.9667"/>
</a>
</g>
</g>
<!-- Node4 -->
<g id="Node000004" class="node">
<title>Node4</title>
<g id="a_Node000004"><a xlink:href="compress__linux_8c.html" target="_top" xlink:title="Linux 向け圧縮・解凍モジュール (zlib)。">
<polygon fill="#ffffff" stroke="#666666" points="949,-173 819,-173 819,-132 949,-132 949,-173"/>
<text text-anchor="start" x="827" y="-161" font-family="Helvetica,sans-Serif" font-size="10.00" fill="#000000">porter/libsrc/porter</text>
<text text-anchor="start" x="827" y="-150" font-family="Helvetica,sans-Serif" font-size="10.00" fill="#000000">/infra/compress/compress</text>
<text text-anchor="middle" x="884" y="-139" font-family="Helvetica,sans-Serif" font-size="10.00" fill="#000000">_linux.c</text>
</a>
</g>
</g>
<!-- Node1&#45;&gt;Node4 -->
<g id="edge3_Node000001_Node000004" class="edge">
<title>Node1&#45;&gt;Node4</title>
<g id="a_edge3_Node000001_Node000004"><a xlink:title=" ">
<path fill="none" stroke="#63b8ff" d="M760.1231,-204.9095C783.3466,-195.0841 811.6812,-183.0964 835.3874,-173.0669"/>
<polygon fill="#63b8ff" stroke="#63b8ff" points="758.6865,-201.7168 750.8406,-208.8367 761.414,-208.1636 758.6865,-201.7168"/>
</a>
</g>
</g>
<!-- Node5 -->
<g id="Node000005" class="node">
<title>Node5</title>
<g id="a_Node000005"><a xlink:href="potrContext_8h.html" target="_top" xlink:title="セッションコンテキスト内部定義ヘッダー。">
<polygon fill="#ffffff" stroke="#666666" points="484.5,-167.5 389.5,-167.5 389.5,-137.5 484.5,-137.5 484.5,-167.5"/>
<text text-anchor="start" x="397.5" y="-155.5" font-family="Helvetica,sans-Serif" font-size="10.00" fill="#000000">porter/libsrc/porter</text>
<text text-anchor="middle" x="437" y="-144.5" font-family="Helvetica,sans-Serif" font-size="10.00" fill="#000000">/potrContext.h</text>
</a>
</g>
</g>
<!-- Node1&#45;&gt;Node5 -->
<g id="edge4_Node000001_Node000005" class="edge">
<title>Node1&#45;&gt;Node5</title>
<g id="a_edge4_Node000001_Node000005"><a xlink:title=" ">
<path fill="none" stroke="#63b8ff" d="M646.579,-206.4025C596.387,-193.4934 529.4827,-176.286 484.9086,-164.8218"/>
<polygon fill="#63b8ff" stroke="#63b8ff" points="645.8264,-209.8228 656.383,-208.9241 647.5701,-203.0434 645.8264,-209.8228"/>
</a>
</g>
</g>
<!-- Node9 -->
<g id="Node000009" class="node">
<title>Node9</title>
<g id="a_Node000009"><a xlink:href="potrRecvThread_8c.html" target="_top" xlink:title="受信スレッドモジュール。">
<polygon fill="#ffffff" stroke="#666666" points="707.5,-30 580.5,-30 580.5,0 707.5,0 707.5,-30"/>
<text text-anchor="start" x="588.5" y="-18" font-family="Helvetica,sans-Serif" font-size="10.00" fill="#000000">porter/libsrc/porter</text>
<text text-anchor="middle" x="644" y="-7" font-family="Helvetica,sans-Serif" font-size="10.00" fill="#000000">/thread/potrRecvThread.c</text>
</a>
</g>
</g>
<!-- Node1&#45;&gt;Node9 -->
<g id="edge23_Node000001_Node000009" class="edge">
<title>Node1&#45;&gt;Node9</title>
<g id="a_edge23_Node000001_Node000009"><a xlink:title=" ">
<path fill="none" stroke="#63b8ff" d="M735.7245,-200.9467C762.1558,-168.6244 801.1433,-108.9832 772,-66 757.3676,-44.4187 731.9905,-31.9695 707.6712,-24.7883"/>
<polygon fill="#63b8ff" stroke="#63b8ff" points="732.7671,-199.0246 728.997,-208.926 738.1188,-203.5367 732.7671,-199.0246"/>
</a>
</g>
</g>
<!-- Node5&#45;&gt;Node2 -->
<g id="edge6_Node000005_Node000002" class="edge">
<title>Node5&#45;&gt;Node2</title>
<g id="a_edge6_Node000005_Node000002"><a xlink:title=" ">
<path fill="none" stroke="#63b8ff" d="M379.6644,-140.007C348.8706,-131.2937 311.4955,-117.3245 283,-96 259.1807,-78.1749 240.5377,-48.3045 230.7,-30.2469"/>
<polygon fill="#63b8ff" stroke="#63b8ff" points="378.8438,-143.4108 389.4116,-142.6539 380.6784,-136.6555 378.8438,-143.4108"/>
</a>
</g>
</g>
<!-- Node5&#45;&gt;Node3 -->
<g id="edge7_Node000005_Node000003" class="edge">
<title>Node5&#45;&gt;Node3</title>
<g id="a_edge7_Node000005_Node000003"><a xlink:title=" ">
<path fill="none" stroke="#63b8ff" d="M494.6968,-137.6607C545.811,-124.5144 619.5441,-105.5507 667.3694,-93.2503"/>
<polygon fill="#63b8ff" stroke="#63b8ff" points="493.6029,-134.3281 484.7899,-140.2087 495.3465,-141.1074 493.6029,-134.3281"/>
</a>
</g>
</g>
<!-- Node6 -->
<g id="Node000006" class="node">
<title>Node6</title>
<g id="a_Node000006"><a xlink:href="potrCloseService_8c.html" target="_top" xlink:title=" ">
<polygon fill="#ffffff" stroke="#666666" points="417,-30 299,-30 299,0 417,0 417,-30"/>
<text text-anchor="start" x="307" y="-18" font-family="Helvetica,sans-Serif" font-size="10.00" fill="#000000">porter/libsrc/porter</text>
<text text-anchor="middle" x="358" y="-7" font-family="Helvetica,sans-Serif" font-size="10.00" fill="#000000">/api/potrCloseService.c</text>
</a>
</g>
</g>
<!-- Node5&#45;&gt;Node6 -->
<g id="edge5_Node000005_Node000006" class="edge">
<title>Node5&#45;&gt;Node6</title>
<g id="a_edge5_Node000005_Node000006"><a xlink:title=" ">
<path fill="none" stroke="#63b8ff" d="M379.3127,-137.4195C343.2129,-126.6845 301.6029,-111.4723 291,-96 274.3907,-71.7627 305.1728,-45.974 330.3062,-30.1717"/>
<polygon fill="#63b8ff" stroke="#63b8ff" points="378.7389,-140.8974 389.3182,-140.3251 380.6911,-134.1751 378.7389,-140.8974"/>
</a>
</g>
</g>
<!-- Node7 -->
<g id="Node000007" class="node">
<title>Node7</title>
<g id="a_Node000007"><a xlink:href="potrHealthThread_8c.html" target="_top" xlink:title="ヘルスチェックスレッドモジュール。">
<polygon fill="#ffffff" stroke="#666666" points="132,-30 0,-30 0,0 132,0 132,-30"/>
<text text-anchor="start" x="8" y="-18" font-family="Helvetica,sans-Serif" font-size="10.00" fill="#000000">porter/libsrc/porter</text>
<text text-anchor="middle" x="66" y="-7" font-family="Helvetica,sans-Serif" font-size="10.00" fill="#000000">/thread/potrHealthThread.c</text>
</a>
</g>
</g>
<!-- Node5&#45;&gt;Node7 -->
<g id="edge8_Node000005_Node000007" class="edge">
<title>Node5&#45;&gt;Node7</title>
<g id="a_edge8_Node000005_Node000007"><a xlink:title=" ">
<path fill="none" stroke="#63b8ff" d="M379.2656,-147.8328C279.8986,-139.2106 85.2034,-119.5037 65,-96 49.4153,-77.8695 54.97,-48.0993 60.4609,-30.1435"/>
<polygon fill="#63b8ff" stroke="#63b8ff" points="379.1824,-151.3384 389.445,-148.7062 379.7809,-144.364 379.1824,-151.3384"/>
</a>
</g>
</g>
<!-- Node8 -->
<g id="Node000008" class="node">
<title>Node8</title>
<g id="a_Node000008"><a xlink:href="potrHealthThread_8h.html" target="_top" xlink:title="ヘルスチェックスレッド内部ヘッダー。">
<polygon fill="#ffffff" stroke="#666666" points="206,-96 74,-96 74,-66 206,-66 206,-96"/>
<text text-anchor="start" x="82" y="-84" font-family="Helvetica,sans-Serif" font-size="10.00" fill="#000000">porter/libsrc/porter</text>
<text text-anchor="middle" x="140" y="-73" font-family="Helvetica,sans-Serif" font-size="10.00" fill="#000000">/thread/potrHealthThread.h</text>
</a>
</g>
</g>
<!-- Node5&#45;&gt;Node8 -->
<g id="edge9_Node000005_Node000008" class="edge">
<title>Node5&#45;&gt;Node8</title>
<g id="a_edge9_Node000005_Node000008"><a xlink:title=" ">
<path fill="none" stroke="#63b8ff" d="M379.431,-138.6408C328.5678,-126.396 254.5645,-108.5803 202.3217,-96.0034"/>
<polygon fill="#63b8ff" stroke="#63b8ff" points="378.7404,-142.0745 389.2818,-141.0123 380.3788,-135.2689 378.7404,-142.0745"/>
</a>
</g>
</g>
<!-- Node5&#45;&gt;Node9 -->
<g id="edge13_Node000005_Node000009" class="edge">
<title>Node5&#45;&gt;Node9</title>
<g id="a_edge13_Node000005_Node000009"><a xlink:title=" ">
<path fill="none" stroke="#63b8ff" d="M494.7951,-142.6946C527.9316,-134.6838 568.6406,-120.5245 598,-96 619.0996,-78.3751 632.4613,-48.439 639.0576,-30.3147"/>
<polygon fill="#63b8ff" stroke="#63b8ff" points="493.7424,-139.345 484.7754,-144.988 495.3043,-146.1685 493.7424,-139.345"/>
</a>
</g>
</g>
<!-- Node10 -->
<g id="Node000010" class="node">
<title>Node10</title>
<g id="a_Node000010"><a xlink:href="potrRecvThread_8h.html" target="_top" xlink:title="受信スレッド内部ヘッダー。">
<polygon fill="#ffffff" stroke="#666666" points="572.5,-96 445.5,-96 445.5,-66 572.5,-66 572.5,-96"/>
<text text-anchor="start" x="453.5" y="-84" font-family="Helvetica,sans-Serif" font-size="10.00" fill="#000000">porter/libsrc/porter</text>
<text text-anchor="middle" x="509" y="-73" font-family="Helvetica,sans-Serif" font-size="10.00" fill="#000000">/thread/potrRecvThread.h</text>
</a>
</g>
</g>
<!-- Node5&#45;&gt;Node10 -->
<g id="edge14_Node000005_Node000010" class="edge">
<title>Node5&#45;&gt;Node10</title>
<g id="a_edge14_Node000005_Node000010"><a xlink:title=" ">
<path fill="none" stroke="#63b8ff" d="M459.5883,-130.0685C470.7123,-119.0218 483.8297,-105.9955 493.7527,-96.1415"/>
<polygon fill="#63b8ff" stroke="#63b8ff" points="456.8988,-127.8068 452.2693,-137.3367 461.8313,-132.7738 456.8988,-127.8068"/>
</a>
</g>
</g>
<!-- Node11 -->
<g id="Node000011" class="node">
<title>Node11</title>
<g id="a_Node000011"><a xlink:href="potrSendThread_8c.html" target="_top" xlink:title="非同期送信スレッドの実装。">
<polygon fill="#ffffff" stroke="#666666" points="562.5,-30 435.5,-30 435.5,0 562.5,0 562.5,-30"/>
<text text-anchor="start" x="443.5" y="-18" font-family="Helvetica,sans-Serif" font-size="10.00" fill="#000000">porter/libsrc/porter</text>
<text text-anchor="middle" x="499" y="-7" font-family="Helvetica,sans-Serif" font-size="10.00" fill="#000000">/thread/potrSendThread.c</text>
</a>
</g>
</g>
<!-- Node5&#45;&gt;Node11 -->
<g id="edge18_Node000005_Node000011" class="edge">
<title>Node5&#45;&gt;Node11</title>
<g id="a_edge18_Node000005_Node000011"><a xlink:title=" ">
<path fill="none" stroke="#63b8ff" d="M494.6539,-137.2616C530.4257,-126.5101 571.5129,-111.3414 582,-96 589.5244,-84.9927 588.5079,-77.6372 582,-66 573.0021,-49.9103 556.6194,-38.2763 540.7718,-30.2204"/>
<polygon fill="#63b8ff" stroke="#63b8ff" points="493.3443,-133.9982 484.7351,-140.1734 495.3161,-140.7148 493.3443,-133.9982"/>
</a>
</g>
</g>
<!-- Node12 -->
<g id="Node000012" class="node">
<title>Node12</title>
<g id="a_Node000012"><a xlink:href="potrSendThread_8h.html" target="_top" xlink:title="非同期送信スレッドの内部ヘッダー。">
<polygon fill="#ffffff" stroke="#666666" points="427.5,-96 300.5,-96 300.5,-66 427.5,-66 427.5,-96"/>
<text text-anchor="start" x="308.5" y="-84" font-family="Helvetica,sans-Serif" font-size="10.00" fill="#000000">porter/libsrc/porter</text>
<text text-anchor="middle" x="364" y="-73" font-family="Helvetica,sans-Serif" font-size="10.00" fill="#000000">/thread/potrSendThread.h</text>
</a>
</g>
</g>
<!-- Node5&#45;&gt;Node12 -->
<g id="edge19_Node000005_Node000012" class="edge">
<title>Node5&#45;&gt;Node12</title>
<g id="a_edge19_Node000005_Node000012"><a xlink:title=" ">
<path fill="none" stroke="#63b8ff" d="M414.0979,-130.0685C402.8195,-119.0218 389.5199,-105.9955 379.4591,-96.1415"/>
<polygon fill="#63b8ff" stroke="#63b8ff" points="411.9254,-132.8398 421.5186,-137.3367 416.8235,-127.8389 411.9254,-132.8398"/>
</a>
</g>
</g>
<!-- Node8&#45;&gt;Node2 -->
<g id="edge11_Node000008_Node000002" class="edge">
<title>Node8&#45;&gt;Node2</title>
<g id="a_edge11_Node000008_Node000002"><a xlink:title=" ">
<path fill="none" stroke="#63b8ff" d="M167.1989,-59.372C179.1821,-49.8432 192.9778,-38.873 203.8539,-30.2246"/>
<polygon fill="#63b8ff" stroke="#63b8ff" points="164.8992,-56.7289 159.2505,-65.6924 169.256,-62.2079 164.8992,-56.7289"/>
</a>
</g>
</g>
<!-- Node8&#45;&gt;Node6 -->
<g id="edge10_Node000008_Node000006" class="edge">
<title>Node8&#45;&gt;Node6</title>
<g id="a_edge10_Node000008_Node000006"><a xlink:title=" ">
<path fill="none" stroke="#63b8ff" d="M199.5652,-62.9665C233.6064,-52.6604 275.8092,-39.8835 308.0964,-30.1084"/>
<polygon fill="#63b8ff" stroke="#63b8ff" points="198.2971,-59.6934 189.7404,-65.941 200.3255,-66.3931 198.2971,-59.6934"/>
</a>
</g>
</g>
<!-- Node8&#45;&gt;Node7 -->
<g id="edge12_Node000008_Node000007" class="edge">
<title>Node8&#45;&gt;Node7</title>
<g id="a_edge12_Node000008_Node000007"><a xlink:title=" ">
<path fill="none" stroke="#63b8ff" d="M115.1323,-58.8207C104.5945,-49.4221 92.5803,-38.7067 83.07,-30.2246"/>
<polygon fill="#63b8ff" stroke="#63b8ff" points="113.0443,-61.6482 122.8369,-65.6924 117.7036,-56.4242 113.0443,-61.6482"/>
</a>
</g>
</g>
<!-- Node10&#45;&gt;Node2 -->
<g id="edge16_Node000010_Node000002" class="edge">
<title>Node10&#45;&gt;Node2</title>
<g id="a_edge16_Node000010_Node000002"><a xlink:title=" ">
<path fill="none" stroke="#63b8ff" d="M435.1692,-63.9621C387.2717,-52.9089 325.736,-38.7083 281.2818,-28.4496"/>
<polygon fill="#63b8ff" stroke="#63b8ff" points="434.641,-67.4322 445.172,-66.2705 436.2151,-60.6114 434.641,-67.4322"/>
</a>
</g>
</g>
<!-- Node10&#45;&gt;Node6 -->
<g id="edge15_Node000010_Node000006" class="edge">
<title>Node10&#45;&gt;Node6</title>
<g id="a_edge15_Node000010_Node000006"><a xlink:title=" ">
<path fill="none" stroke="#63b8ff" d="M465.104,-61.8136C441.9802,-51.7066 414.0301,-39.49 392.4813,-30.0713"/>
<polygon fill="#63b8ff" stroke="#63b8ff" points="463.7928,-65.0602 474.3575,-65.8583 466.5963,-58.6462 463.7928,-65.0602"/>
</a>
</g>
</g>
<!-- Node10&#45;&gt;Node9 -->
<g id="edge17_Node000010_Node000009" class="edge">
<title>Node10&#45;&gt;Node9</title>
<g id="a_edge17_Node000010_Node000009"><a xlink:title=" ">
<path fill="none" stroke="#63b8ff" d="M549.074,-61.4083C569.5837,-51.3813 594.1637,-39.3644 613.1724,-30.0713"/>
<polygon fill="#63b8ff" stroke="#63b8ff" points="547.4183,-58.3218 539.9717,-65.8583 550.4928,-64.6105 547.4183,-58.3218"/>
</a>
</g>
</g>
<!-- Node12&#45;&gt;Node2 -->
<g id="edge21_Node000012_Node000002" class="edge">
<title>Node12&#45;&gt;Node2</title>
<g id="a_edge21_Node000012_Node000002"><a xlink:title=" ">
<path fill="none" stroke="#63b8ff" d="M322.4341,-61.5436C300.9551,-51.4896 275.1406,-39.4063 255.1977,-30.0713"/>
<polygon fill="#63b8ff" stroke="#63b8ff" points="321.111,-64.7887 331.6518,-65.8583 324.0787,-58.4489 321.111,-64.7887"/>
</a>
</g>
</g>
<!-- Node12&#45;&gt;Node6 -->
<g id="edge20_Node000012_Node000006" class="edge">
<title>Node12&#45;&gt;Node6</title>
<g id="a_edge20_Node000012_Node000006"><a xlink:title=" ">
<path fill="none" stroke="#63b8ff" d="M361.6777,-55.4546C360.9029,-46.9317 360.0644,-37.7088 359.3841,-30.2246"/>
<polygon fill="#63b8ff" stroke="#63b8ff" points="358.2173,-56.0504 362.6084,-65.6924 365.1886,-55.4165 358.2173,-56.0504"/>
</a>
</g>
</g>
<!-- Node12&#45;&gt;Node11 -->
<g id="edge22_Node000012_Node000011" class="edge">
<title>Node12&#45;&gt;Node11</title>
<g id="a_edge22_Node000012_Node000011"><a xlink:title=" ">
<path fill="none" stroke="#63b8ff" d="M404.074,-61.4083C424.5837,-51.3813 449.1637,-39.3644 468.1724,-30.0713"/>
<polygon fill="#63b8ff" stroke="#63b8ff" points="402.4183,-58.3218 394.9717,-65.8583 405.4928,-64.6105 402.4183,-58.3218"/>
</a>
</g>
</g>
</g>
</svg>
