<?xml version="1.0" encoding="UTF-8" standalone="no"?>
<!DOCTYPE svg PUBLIC "-//W3C//DTD SVG 1.1//EN"
 "http://www.w3.org/Graphics/SVG/1.1/DTD/svg11.dtd">
<!-- Generated by graphviz version 2.40.1 (0)
 -->
<!-- Title: trim Pages: 1 -->
<!--zoomable 125 -->

<svg id="main" version="1.1" xmlns="http://www.w3.org/2000/svg" xmlns:xlink="http://www.w3.org/1999/xlink" xml:space="preserve" onload="init(evt)">

<style type="text/css"><![CDATA[
.node, .edge {opacity: 0.7;}
.node.selected, .edge.selected {opacity: 1;}
.edge:hover path { stroke: red; }
.edge:hover polygon { stroke: red; fill: red; }
]]></style>

<defs>
  <circle id="rim" cx="0" cy="0" r="7"/>
  <circle id="rim2" cx="0" cy="0" r="3.5"/>
  <g id="zoomPlus">
    <use xlink:href="#rim" fill="#404040"><set attributeName="fill" to="#808080" begin="zoomplus.mouseover" end="zoomplus.mouseout"/></use>
    <path d="M-4,0h8M0,-4v8" fill="none" stroke="white" stroke-width="1.5" pointer-events="none"/>
  </g>
  <g id="zoomMin">
    <use xlink:href="#rim" fill="#404040"><set attributeName="fill" to="#808080" begin="zoomminus.mouseover" end="zoomminus.mouseout"/></use>
    <path d="M-4,0h8" fill="none" stroke="white" stroke-width="1.5" pointer-events="none"/>
  </g>
  <g id="arrowUp" transform="translate(30 24)">
    <use xlink:href="#rim"/>
    <path pointer-events="none" fill="none" stroke="white" stroke-width="1.5" d="M0,-3.0v7 M-2.5,-0.5L0,-3.0L2.5,-0.5"/>
  </g>
  <g id="arrowRight" transform="rotate(90) translate(36 -43)">
    <use xlink:href="#rim"/>
    <path pointer-events="none" fill="none" stroke="white" stroke-width="1.5" d="M0,-3.0v7 M-2.5,-0.5L0,-3.0L2.5,-0.5"/>
  </g>
  <g id="arrowDown" transform="rotate(180) translate(-30 -48)">
    <use xlink:href="#rim"/>
    <path pointer-events="none" fill="none" stroke="white" stroke-width="1.5" d="M0,-3.0v7 M-2.5,-0.5L0,-3.0L2.5,-0.5"/>
  </g>
  <g id="arrowLeft" transform="rotate(270) translate(-36 17)">
    <use xlink:href="#rim"/>
    <path pointer-events="none" fill="none" stroke="white" stroke-width="1.5" d="M0,-3.0v7 M-2.5,-0.5L0,-3.0L2.5,-0.5"/>
  </g>
  <g id="resetDef">
    <use xlink:href="#rim2" fill="#404040"><set attributeName="fill" to="#808080" begin="reset.mouseover" end="reset.mouseout"/></use>
  </g>
</defs>
<script type="application/ecmascript">
var viewWidth = 531;
var viewHeight = 125;
var sectionId = 'dynsection-3';
</script>
<script type="application/ecmascript" xlink:href="svg.min.js"/>
<svg id="graph" class="graph">
<g id="viewport">
<title>trim</title>
<!-- Node1 -->
<g id="Node000001" class="node">
<title>Node1</title>
<g id="a_Node000001"><a xlink:title=" ">
<polygon fill="#999999" stroke="#666666" points="523,-60.0967 490,-60.0967 490,-41.0967 523,-41.0967 523,-60.0967"/>
<text text-anchor="middle" x="506.5" y="-48.0967" font-family="Helvetica,sans-Serif" font-size="10.00" fill="#000000">trim</text>
</a>
</g>
</g>
<!-- Node2 -->
<g id="Node000002" class="node">
<title>Node2</title>
<g id="a_Node000002"><a xlink:href="config_8c.html#a7a7aec613b4ed41a5f5070fdd599d89a" target="_top" xlink:title="設定ファイルに登録されているすべてのサービス ID を列挙します。">
<polygon fill="#ffffff" stroke="#666666" points="454,-117.0967 338,-117.0967 338,-98.0967 454,-98.0967 454,-117.0967"/>
<text text-anchor="middle" x="396" y="-105.0967" font-family="Helvetica,sans-Serif" font-size="10.00" fill="#000000">config_list_service_ids</text>
</a>
</g>
</g>
<!-- Node1&#45;&gt;Node2 -->
<g id="edge1_Node000001_Node000002" class="edge">
<title>Node1&#45;&gt;Node2</title>
<g id="a_edge1_Node000001_Node000002"><a xlink:title=" ">
<path fill="none" stroke="#63b8ff" d="M484.1208,-65.8318C474.9841,-71.7403 464.1869,-78.3353 454,-83.5967 443.7368,-88.8976 432.0288,-93.9234 421.8321,-97.9931"/>
<polygon fill="#63b8ff" stroke="#63b8ff" points="486.1985,-68.6542 492.6198,-60.227 482.3448,-62.8105 486.1985,-68.6542"/>
</a>
</g>
</g>
<!-- Node3 -->
<g id="Node000003" class="node">
<title>Node3</title>
<g id="a_Node000003"><a xlink:href="config_8c.html#afd290b0c734dce1335e786e638c67a12" target="_top" xlink:title="設定ファイルから [global] セクションを読み込みます。">
<polygon fill="#ffffff" stroke="#666666" points="299,-59.0967 202,-59.0967 202,-40.0967 299,-40.0967 299,-59.0967"/>
<text text-anchor="middle" x="250.5" y="-47.0967" font-family="Helvetica,sans-Serif" font-size="10.00" fill="#000000">config_load_global</text>
</a>
</g>
</g>
<!-- Node1&#45;&gt;Node3 -->
<g id="edge2_Node000001_Node000003" class="edge">
<title>Node1&#45;&gt;Node3</title>
<g id="a_edge2_Node000001_Node000003"><a xlink:title=" ">
<path fill="none" stroke="#63b8ff" d="M479.4778,-50.6917C446.1972,-50.7869 387.9358,-50.882 338,-50.5967 325.3909,-50.5247 311.7602,-50.3942 299.0958,-50.2508"/>
<polygon fill="#63b8ff" stroke="#63b8ff" points="479.7694,-54.191 489.7585,-50.66 479.7478,-47.191 479.7694,-54.191"/>
</a>
</g>
</g>
<!-- Node6 -->
<g id="Node000006" class="node">
<title>Node6</title>
<g id="a_Node000006"><a xlink:href="config_8c.html#a4b72d1221265c0c8c3748a30ac0fd48f" target="_top" xlink:title="設定ファイルから指定サービスの定義を読み込みます。">
<polygon fill="#ffffff" stroke="#666666" points="302,-22.0967 199,-22.0967 199,-3.0967 302,-3.0967 302,-22.0967"/>
<text text-anchor="middle" x="250.5" y="-10.0967" font-family="Helvetica,sans-Serif" font-size="10.00" fill="#000000">config_load_service</text>
</a>
</g>
</g>
<!-- Node1&#45;&gt;Node6 -->
<g id="edge5_Node000001_Node000006" class="edge">
<title>Node1&#45;&gt;Node6</title>
<g id="a_edge5_Node000001_Node000006"><a xlink:title=" ">
<path fill="none" stroke="#63b8ff" d="M489.5485,-34.0862C479.9539,-25.9096 467.2462,-16.8876 454,-12.5967 404.2565,3.5167 344.0134,.999 302.0366,-3.9932"/>
<polygon fill="#63b8ff" stroke="#63b8ff" points="487.3451,-36.8123 497.1139,-40.9137 492.035,-31.6156 487.3451,-36.8123"/>
</a>
</g>
</g>
<!-- Node7 -->
<g id="Node000007" class="node">
<title>Node7</title>
<g id="a_Node000007"><a xlink:href="config_8c.html#a5f2de03809866bfac8920bc13a97aaca" target="_top" xlink:title=" ">
<polygon fill="#ffffff" stroke="#666666" points="424,-41.0967 368,-41.0967 368,-22.0967 424,-22.0967 424,-41.0967"/>
<text text-anchor="middle" x="396" y="-29.0967" font-family="Helvetica,sans-Serif" font-size="10.00" fill="#000000">parse_kv</text>
</a>
</g>
</g>
<!-- Node1&#45;&gt;Node7 -->
<g id="edge7_Node000001_Node000007" class="edge">
<title>Node1&#45;&gt;Node7</title>
<g id="a_edge7_Node000001_Node000007"><a xlink:title=" ">
<path fill="none" stroke="#63b8ff" d="M479.4645,-45.9481C462.6724,-43.0607 441.1277,-39.3562 424.1339,-36.4342"/>
<polygon fill="#63b8ff" stroke="#63b8ff" points="479.2689,-49.4657 489.7174,-47.711 480.4552,-42.567 479.2689,-49.4657"/>
</a>
</g>
</g>
<!-- Node4 -->
<g id="Node000004" class="node">
<title>Node4</title>
<g id="a_Node000004"><a xlink:href="potrOpenService_8c.html#a8ce1599677086e0c54400b696ed28680" target="_top" xlink:title="設定ファイルから指定サービスを開きます。">
<polygon fill="#ffffff" stroke="#666666" points="163,-40.0967 74,-40.0967 74,-21.0967 163,-21.0967 163,-40.0967"/>
<text text-anchor="middle" x="118.5" y="-28.0967" font-family="Helvetica,sans-Serif" font-size="10.00" fill="#000000">potrOpenService</text>
</a>
</g>
</g>
<!-- Node3&#45;&gt;Node4 -->
<g id="edge3_Node000003_Node000004" class="edge">
<title>Node3&#45;&gt;Node4</title>
<g id="a_edge3_Node000003_Node000004"><a xlink:title=" ">
<path fill="none" stroke="#63b8ff" d="M191.8075,-41.1485C182.1863,-39.7637 172.3553,-38.3486 163.146,-37.023"/>
<polygon fill="#63b8ff" stroke="#63b8ff" points="191.3264,-44.6153 201.7231,-42.5758 192.3238,-37.6867 191.3264,-44.6153"/>
</a>
</g>
</g>
<!-- Node5 -->
<g id="Node000005" class="node">
<title>Node5</title>
<g id="a_Node000005"><a xlink:href="recv_8c.html#a0ddf1224851353fc92bfbff6f499fa97" target="_top" xlink:title="メインエントリーポイント。">
<polygon fill="#ffffff" stroke="#666666" points="38,-40.0967 0,-40.0967 0,-21.0967 38,-21.0967 38,-40.0967"/>
<text text-anchor="middle" x="19" y="-28.0967" font-family="Helvetica,sans-Serif" font-size="10.00" fill="#000000">main</text>
</a>
</g>
</g>
<!-- Node4&#45;&gt;Node5 -->
<g id="edge4_Node000004_Node000005" class="edge">
<title>Node4&#45;&gt;Node5</title>
<g id="a_edge4_Node000004_Node000005"><a xlink:title=" ">
<path fill="none" stroke="#63b8ff" d="M63.8932,-30.5967C54.615,-30.5967 45.5643,-30.5967 38.0485,-30.5967"/>
<polygon fill="#63b8ff" stroke="#63b8ff" points="63.9885,-34.0968 73.9884,-30.5967 63.9884,-27.0968 63.9885,-34.0968"/>
</a>
</g>
</g>
<!-- Node6&#45;&gt;Node4 -->
<g id="edge6_Node000006_Node000004" class="edge">
<title>Node6&#45;&gt;Node4</title>
<g id="a_edge6_Node000006_Node000004"><a xlink:title=" ">
<path fill="none" stroke="#63b8ff" d="M188.7228,-21.0209C180.149,-22.19 171.4798,-23.3722 163.2971,-24.488"/>
<polygon fill="#63b8ff" stroke="#63b8ff" points="189.2736,-24.4782 198.709,-19.6591 188.3277,-17.5424 189.2736,-24.4782"/>
</a>
</g>
</g>
<!-- Node7&#45;&gt;Node3 -->
<g id="edge8_Node000007_Node000003" class="edge">
<title>Node7&#45;&gt;Node3</title>
<g id="a_edge8_Node000007_Node000003"><a xlink:title=" ">
<path fill="none" stroke="#63b8ff" d="M357.8366,-36.318C339.8669,-38.541 318.228,-41.218 299.1011,-43.5842"/>
<polygon fill="#63b8ff" stroke="#63b8ff" points="358.4515,-39.7686 367.9461,-35.0673 357.592,-32.8216 358.4515,-39.7686"/>
</a>
</g>
</g>
<!-- Node7&#45;&gt;Node6 -->
<g id="edge9_Node000007_Node000006" class="edge">
<title>Node7&#45;&gt;Node6</title>
<g id="a_edge9_Node000007_Node000006"><a xlink:title=" ">
<path fill="none" stroke="#63b8ff" d="M357.8024,-26.6087C340.7506,-24.382 320.4,-21.7245 302.0282,-19.3255"/>
<polygon fill="#63b8ff" stroke="#63b8ff" points="357.5771,-30.1089 367.9461,-27.9333 358.4835,-23.1678 357.5771,-30.1089"/>
</a>
</g>
</g>
</g>
</svg>

<g id="navigator" transform="translate(0 0)" fill="#404254">
  <rect fill="#f2f5e9" fill-opacity="0.5" stroke="#606060" stroke-width=".5" x="0" y="0" width="60" height="60"/>
  <use id="zoomplus" xlink:href="#zoomPlus" x="17" y="9" onmousedown="handleZoom(evt,'in')"/>
  <use id="zoomminus" xlink:href="#zoomMin" x="42" y="9" onmousedown="handleZoom(evt,'out')"/>
  <use id="reset" xlink:href="#resetDef" x="30" y="36" onmousedown="handleReset()"/>
   <use id="arrowup" xlink:href="#arrowUp" x="0" y="0" onmousedown="handlePan(0,-1)"/>
  <use id="arrowright" xlink:href="#arrowRight" x="0" y="0" onmousedown="handlePan(1,0)"/>
  <use id="arrowdown" xlink:href="#arrowDown" x="0" y="0" onmousedown="handlePan(0,1)"/>
  <use id="arrowleft" xlink:href="#arrowLeft" x="0" y="0" onmousedown="handlePan(-1,0)"/>
</g>
<svg viewBox="0 0 15 15" width="100%" height="30px" preserveAspectRatio="xMaxYMin meet">
 <g id="arrow_out" transform="scale(0.3 0.3)">
  <a xlink:href="config_8c_a2c8b5f7a0223db682d3326ce74f794f4_icgraph_org.svg" target="_base">
   <rect id="button" ry="5" rx="5" y="6" x="6" height="38" width="38"
        fill="#f2f5e9" fill-opacity="0.5" stroke="#606060" stroke-width="1.0"/>
   <path id="arrow"
     d="M 11.500037,31.436501 C 11.940474,20.09759 22.043105,11.32322 32.158766,21.979434 L 37.068811,17.246167 C 37.068811,17.246167 37.088388,32 37.088388,32 L 22.160133,31.978069 C 22.160133,31.978069 26.997745,27.140456 26.997745,27.140456 C 18.528582,18.264221 13.291696,25.230495 11.500037,31.436501 z"
     style="fill:#404040;"/>
  </a>
 </g>
</svg>

<style type='text/css'>
<![CDATA[
[data-mouse-over-selected='false'] { opacity: 0.7; }
[data-mouse-over-selected='true']  { opacity: 1.0; }
]]>
</style>
<script type="application/ecmascript"><![CDATA[
document.addEventListener('DOMContentLoaded', (event) => {
  highlightEdges();
  highlightAdjacentNodes();
});
]]></script>
</svg>
