<?xml version="1.0" encoding="UTF-8" standalone="no"?>
<!DOCTYPE svg PUBLIC "-//W3C//DTD SVG 1.1//EN"
 "http://www.w3.org/Graphics/SVG/1.1/DTD/svg11.dtd">
<!-- Generated by graphviz version 2.40.1 (0)
 -->
<!-- Title: config_load_global Pages: 1 -->
<svg width="321pt" height="83pt"
 viewBox="0.00 0.00 321.00 83.00" xmlns="http://www.w3.org/2000/svg" xmlns:xlink="http://www.w3.org/1999/xlink">
<g id="graph0" class="graph" transform="scale(1 1) rotate(0) translate(4 79)">
<title>config_load_global</title>
<!-- Node1 -->
<g id="Node000001" class="node">
<title>Node1</title>
<g id="a_Node000001"><a xlink:title="設定ファイルから [global] セクションを読み込みます。">
<polygon fill="#999999" stroke="#666666" points="97,-38 0,-38 0,-19 97,-19 97,-38"/>
<text text-anchor="middle" x="48.5" y="-26" font-family="Helvetica,sans-Serif" font-size="10.00" fill="#000000">config_load_global</text>
</a>
</g>
</g>
<!-- Node2 -->
<g id="Node000002" class="node">
<title>Node2</title>
<g id="a_Node000002"><a xlink:href="config_8c.html#a613c87799141fafda471fdd4069f8343" target="_top" xlink:title=" ">
<polygon fill="#ffffff" stroke="#666666" points="244,-75 133,-75 133,-56 244,-56 244,-75"/>
<text text-anchor="middle" x="188.5" y="-63" font-family="Helvetica,sans-Serif" font-size="10.00" fill="#000000">open_config_file_read</text>
</a>
</g>
</g>
<!-- Node1&#45;&gt;Node2 -->
<g id="edge1_Node000001_Node000002" class="edge">
<title>Node1&#45;&gt;Node2</title>
<g id="a_edge1_Node000001_Node000002"><a xlink:title=" ">
<path fill="none" stroke="#63b8ff" d="M84.5535,-38.0284C102.1343,-42.6748 123.4846,-48.3173 142.251,-53.2771"/>
<polygon fill="#63b8ff" stroke="#63b8ff" points="141.5197,-56.7039 152.0821,-55.8753 143.3084,-49.9363 141.5197,-56.7039"/>
</a>
</g>
</g>
<!-- Node3 -->
<g id="Node000003" class="node">
<title>Node3</title>
<g id="a_Node000003"><a xlink:href="config_8c.html#a5f2de03809866bfac8920bc13a97aaca" target="_top" xlink:title=" ">
<polygon fill="#ffffff" stroke="#666666" points="216.5,-38 160.5,-38 160.5,-19 216.5,-19 216.5,-38"/>
<text text-anchor="middle" x="188.5" y="-26" font-family="Helvetica,sans-Serif" font-size="10.00" fill="#000000">parse_kv</text>
</a>
</g>
</g>
<!-- Node1&#45;&gt;Node3 -->
<g id="edge2_Node000001_Node000003" class="edge">
<title>Node1&#45;&gt;Node3</title>
<g id="a_edge2_Node000001_Node000003"><a xlink:title=" ">
<path fill="none" stroke="#63b8ff" d="M97.0723,-28.5C114.4345,-28.5 133.7431,-28.5 150.1256,-28.5"/>
<polygon fill="#63b8ff" stroke="#63b8ff" points="150.4188,-32.0001 160.4188,-28.5 150.4187,-25.0001 150.4188,-32.0001"/>
</a>
</g>
</g>
<!-- Node4 -->
<g id="Node000004" class="node">
<title>Node4</title>
<g id="a_Node000004"><a xlink:href="config_8c.html#a2c8b5f7a0223db682d3326ce74f794f4" target="_top" xlink:title=" ">
<polygon fill="#ffffff" stroke="#666666" points="313,-19 280,-19 280,0 313,0 313,-19"/>
<text text-anchor="middle" x="296.5" y="-7" font-family="Helvetica,sans-Serif" font-size="10.00" fill="#000000">trim</text>
</a>
</g>
</g>
<!-- Node1&#45;&gt;Node4 -->
<g id="edge4_Node000001_Node000004" class="edge">
<title>Node1&#45;&gt;Node4</title>
<g id="a_edge4_Node000001_Node000004"><a xlink:title=" ">
<path fill="none" stroke="#63b8ff" d="M85.255,-18.9677C99.9893,-15.5944 117.1934,-12.2138 133,-10.5 180.9198,-5.3045 237.2038,-6.5614 269.6729,-7.9968"/>
<polygon fill="#63b8ff" stroke="#63b8ff" points="269.5677,-11.4957 279.7247,-8.4813 269.9048,-4.5038 269.5677,-11.4957"/>
</a>
</g>
</g>
<!-- Node3&#45;&gt;Node4 -->
<g id="edge3_Node000003_Node000004" class="edge">
<title>Node3&#45;&gt;Node4</title>
<g id="a_edge3_Node000003_Node000004"><a xlink:title=" ">
<path fill="none" stroke="#63b8ff" d="M216.5938,-23.5576C233.1025,-20.6533 253.8448,-17.0042 270.0586,-14.1517"/>
<polygon fill="#63b8ff" stroke="#63b8ff" points="270.7271,-17.588 279.9694,-12.4082 269.5142,-10.6938 270.7271,-17.588"/>
</a>
</g>
</g>
</g>
</svg>
