<?xml version="1.0" encoding="UTF-8" standalone="no"?>
<!DOCTYPE svg PUBLIC "-//W3C//DTD SVG 1.1//EN"
 "http://www.w3.org/Graphics/SVG/1.1/DTD/svg11.dtd">
<!-- Generated by graphviz version 2.40.1 (0)
 -->
<!-- Title: config_list_service_ids Pages: 1 -->
<svg width="271pt" height="64pt"
 viewBox="0.00 0.00 271.00 64.00" xmlns="http://www.w3.org/2000/svg" xmlns:xlink="http://www.w3.org/1999/xlink">
<g id="graph0" class="graph" transform="scale(1 1) rotate(0) translate(4 60)">
<title>config_list_service_ids</title>
<!-- Node1 -->
<g id="Node000001" class="node">
<title>Node1</title>
<g id="a_Node000001"><a xlink:title="設定ファイルに登録されているすべてのサービス ID を列挙します。">
<polygon fill="#999999" stroke="#666666" points="116,-37 0,-37 0,-18 116,-18 116,-37"/>
<text text-anchor="middle" x="58" y="-25" font-family="Helvetica,sans-Serif" font-size="10.00" fill="#000000">config_list_service_ids</text>
</a>
</g>
</g>
<!-- Node2 -->
<g id="Node000002" class="node">
<title>Node2</title>
<g id="a_Node000002"><a xlink:href="config_8c.html#a613c87799141fafda471fdd4069f8343" target="_top" xlink:title=" ">
<polygon fill="#ffffff" stroke="#666666" points="263,-56 152,-56 152,-37 263,-37 263,-56"/>
<text text-anchor="middle" x="207.5" y="-44" font-family="Helvetica,sans-Serif" font-size="10.00" fill="#000000">open_config_file_read</text>
</a>
</g>
</g>
<!-- Node1&#45;&gt;Node2 -->
<g id="edge1_Node000001_Node000002" class="edge">
<title>Node1&#45;&gt;Node2</title>
<g id="a_edge1_Node000001_Node000002"><a xlink:title=" ">
<path fill="none" stroke="#63b8ff" d="M116.2287,-34.9003C124.5055,-35.9522 133.0667,-37.0403 141.4785,-38.1093"/>
<polygon fill="#63b8ff" stroke="#63b8ff" points="141.2742,-41.6114 151.6357,-39.4002 142.1568,-34.6673 141.2742,-41.6114"/>
</a>
</g>
</g>
<!-- Node3 -->
<g id="Node000003" class="node">
<title>Node3</title>
<g id="a_Node000003"><a xlink:href="config_8c.html#a2c8b5f7a0223db682d3326ce74f794f4" target="_top" xlink:title=" ">
<polygon fill="#ffffff" stroke="#666666" points="224,-19 191,-19 191,0 224,0 224,-19"/>
<text text-anchor="middle" x="207.5" y="-7" font-family="Helvetica,sans-Serif" font-size="10.00" fill="#000000">trim</text>
</a>
</g>
</g>
<!-- Node1&#45;&gt;Node3 -->
<g id="edge2_Node000001_Node000003" class="edge">
<title>Node1&#45;&gt;Node3</title>
<g id="a_edge2_Node000001_Node000003"><a xlink:title=" ">
<path fill="none" stroke="#63b8ff" d="M116.2287,-20.4892C138.4669,-17.8117 162.7587,-14.8869 180.6869,-12.7283"/>
<polygon fill="#63b8ff" stroke="#63b8ff" points="181.1877,-16.1934 190.6976,-11.523 180.3509,-9.2436 181.1877,-16.1934"/>
</a>
</g>
</g>
</g>
</svg>
