<?xml version="1.0" encoding="UTF-8" standalone="no"?>
<!DOCTYPE svg PUBLIC "-//W3C//DTD SVG 1.1//EN"
 "http://www.w3.org/Graphics/SVG/1.1/DTD/svg11.dtd">
<!-- Generated by graphviz version 2.40.1 (0)
 -->
<!-- Title: porter/libsrc/porter/protocol/config.h Pages: 1 -->
<svg width="222pt" height="104pt"
 viewBox="0.00 0.00 222.00 104.00" xmlns="http://www.w3.org/2000/svg" xmlns:xlink="http://www.w3.org/1999/xlink">
<g id="graph0" class="graph" transform="scale(1 1) rotate(0) translate(4 100)">
<title>porter/libsrc/porter/protocol/config.h</title>
<!-- Node1 -->
<g id="Node000001" class="node">
<title>Node1</title>
<g id="a_Node000001"><a xlink:title="設定ファイル解析モジュールの内部ヘッダー。">
<polygon fill="#999999" stroke="#666666" points="156,-96 61,-96 61,-66 156,-66 156,-96"/>
<text text-anchor="start" x="69" y="-84" font-family="Helvetica,sans-Serif" font-size="10.00" fill="#000000">porter/libsrc/porter</text>
<text text-anchor="middle" x="108.5" y="-73" font-family="Helvetica,sans-Serif" font-size="10.00" fill="#000000">/protocol/config.h</text>
</a>
</g>
</g>
<!-- Node2 -->
<g id="Node000002" class="node">
<title>Node2</title>
<g id="a_Node000002"><a xlink:href="potrOpenService_8c.html" target="_top" xlink:title="potrOpenService 関数の実装。">
<polygon fill="#ffffff" stroke="#666666" points="101,-30 0,-30 0,0 101,0 101,-30"/>
<text text-anchor="start" x="8" y="-18" font-family="Helvetica,sans-Serif" font-size="10.00" fill="#000000">porter/libsrc/porter</text>
<text text-anchor="middle" x="50.5" y="-7" font-family="Helvetica,sans-Serif" font-size="10.00" fill="#000000">/potrOpenService.c</text>
</a>
</g>
</g>
<!-- Node1&#45;&gt;Node2 -->
<g id="edge1_Node000001_Node000002" class="edge">
<title>Node1&#45;&gt;Node2</title>
<g id="a_edge1_Node000001_Node000002"><a xlink:title=" ">
<path fill="none" stroke="#63b8ff" d="M88.2774,-57.9881C80.1975,-48.7937 71.114,-38.4573 63.8792,-30.2246"/>
<polygon fill="#63b8ff" stroke="#63b8ff" points="85.8176,-60.4911 95.0479,-65.6924 91.0758,-55.8703 85.8176,-60.4911"/>
</a>
</g>
</g>
<!-- Node3 -->
<g id="Node000003" class="node">
<title>Node3</title>
<g id="a_Node000003"><a xlink:href="config_8c.html" target="_top" xlink:title="設定ファイル (INI 形式) 解析モジュール。">
<polygon fill="#ffffff" stroke="#666666" points="214,-30 119,-30 119,0 214,0 214,-30"/>
<text text-anchor="start" x="127" y="-18" font-family="Helvetica,sans-Serif" font-size="10.00" fill="#000000">porter/libsrc/porter</text>
<text text-anchor="middle" x="166.5" y="-7" font-family="Helvetica,sans-Serif" font-size="10.00" fill="#000000">/protocol/config.c</text>
</a>
</g>
</g>
<!-- Node1&#45;&gt;Node3 -->
<g id="edge2_Node000001_Node000003" class="edge">
<title>Node1&#45;&gt;Node3</title>
<g id="a_edge2_Node000001_Node000003"><a xlink:title=" ">
<path fill="none" stroke="#63b8ff" d="M128.7226,-57.9881C136.8025,-48.7937 145.886,-38.4573 153.1208,-30.2246"/>
<polygon fill="#63b8ff" stroke="#63b8ff" points="125.9242,-55.8703 121.9521,-65.6924 131.1824,-60.4911 125.9242,-55.8703"/>
</a>
</g>
</g>
</g>
</svg>
