<?xml version="1.0" encoding="UTF-8" standalone="no"?>
<!DOCTYPE svg PUBLIC "-//W3C//DTD SVG 1.1//EN"
 "http://www.w3.org/Graphics/SVG/1.1/DTD/svg11.dtd">
<!-- Generated by graphviz version 2.40.1 (0)
 -->
<!-- Title: config_load_service Pages: 1 -->
<svg width="417pt" height="126pt"
 viewBox="0.00 0.00 417.00 126.18" xmlns="http://www.w3.org/2000/svg" xmlns:xlink="http://www.w3.org/1999/xlink">
<g id="graph0" class="graph" transform="scale(1 1) rotate(0) translate(4 122.1753)">
<title>config_load_service</title>
<!-- Node1 -->
<g id="Node000001" class="node">
<title>Node1</title>
<g id="a_Node000001"><a xlink:title="設定ファイルから指定サービスの定義を読み込みます。">
<polygon fill="#999999" stroke="#666666" points="103,-53.1753 0,-53.1753 0,-34.1753 103,-34.1753 103,-53.1753"/>
<text text-anchor="middle" x="51.5" y="-41.1753" font-family="Helvetica,sans-Serif" font-size="10.00" fill="#000000">config_load_service</text>
</a>
</g>
</g>
<!-- Node2 -->
<g id="Node000002" class="node">
<title>Node2</title>
<g id="a_Node000002"><a xlink:href="config_8c.html#af598a3e207900d3f07fc6afa897ff37f" target="_top" xlink:title=" ">
<polygon fill="#ffffff" stroke="#666666" points="240.5,-109.1753 148.5,-109.1753 148.5,-90.1753 240.5,-90.1753 240.5,-109.1753"/>
<text text-anchor="middle" x="194.5" y="-97.1753" font-family="Helvetica,sans-Serif" font-size="10.00" fill="#000000">apply_service_kv</text>
</a>
</g>
</g>
<!-- Node1&#45;&gt;Node2 -->
<g id="edge1_Node000001_Node000002" class="edge">
<title>Node1&#45;&gt;Node2</title>
<g id="a_edge1_Node000001_Node000002"><a xlink:title=" ">
<path fill="none" stroke="#63b8ff" d="M72.1308,-53.304C89.7174,-61.3497 115.7646,-72.8852 139,-81.6753 143.6128,-83.4203 148.4784,-85.1526 153.3339,-86.814"/>
<polygon fill="#63b8ff" stroke="#63b8ff" points="152.6084,-90.2615 163.2021,-90.1058 154.8235,-83.6212 152.6084,-90.2615"/>
</a>
</g>
</g>
<!-- Node5 -->
<g id="Node000005" class="node">
<title>Node5</title>
<g id="a_Node000005"><a xlink:href="config_8c.html#a613c87799141fafda471fdd4069f8343" target="_top" xlink:title=" ">
<polygon fill="#ffffff" stroke="#666666" points="250,-72.1753 139,-72.1753 139,-53.1753 250,-53.1753 250,-72.1753"/>
<text text-anchor="middle" x="194.5" y="-60.1753" font-family="Helvetica,sans-Serif" font-size="10.00" fill="#000000">open_config_file_read</text>
</a>
</g>
</g>
<!-- Node1&#45;&gt;Node5 -->
<g id="edge4_Node000001_Node000005" class="edge">
<title>Node1&#45;&gt;Node5</title>
<g id="a_edge4_Node000001_Node000005"><a xlink:title=" ">
<path fill="none" stroke="#63b8ff" d="M103.1263,-50.5347C111.4064,-51.6349 120.0728,-52.7864 128.6309,-53.9234"/>
<polygon fill="#63b8ff" stroke="#63b8ff" points="128.2242,-57.4001 138.5981,-55.2478 129.1462,-50.4611 128.2242,-57.4001"/>
</a>
</g>
</g>
<!-- Node6 -->
<g id="Node000006" class="node">
<title>Node6</title>
<g id="a_Node000006"><a xlink:href="config_8c.html#a5f2de03809866bfac8920bc13a97aaca" target="_top" xlink:title=" ">
<polygon fill="#ffffff" stroke="#666666" points="222.5,-35.1753 166.5,-35.1753 166.5,-16.1753 222.5,-16.1753 222.5,-35.1753"/>
<text text-anchor="middle" x="194.5" y="-23.1753" font-family="Helvetica,sans-Serif" font-size="10.00" fill="#000000">parse_kv</text>
</a>
</g>
</g>
<!-- Node1&#45;&gt;Node6 -->
<g id="edge5_Node000001_Node000006" class="edge">
<title>Node1&#45;&gt;Node6</title>
<g id="a_edge5_Node000001_Node000006"><a xlink:title=" ">
<path fill="none" stroke="#63b8ff" d="M103.1263,-37.1769C120.5828,-34.9795 139.7561,-32.5661 156.0124,-30.5199"/>
<polygon fill="#63b8ff" stroke="#63b8ff" points="156.7419,-33.9558 166.2264,-29.2342 155.8676,-27.0106 156.7419,-33.9558"/>
</a>
</g>
</g>
<!-- Node7 -->
<g id="Node000007" class="node">
<title>Node7</title>
<g id="a_Node000007"><a xlink:href="config_8c.html#a2c8b5f7a0223db682d3326ce74f794f4" target="_top" xlink:title=" ">
<polygon fill="#ffffff" stroke="#666666" points="364,-25.1753 331,-25.1753 331,-6.1753 364,-6.1753 364,-25.1753"/>
<text text-anchor="middle" x="347.5" y="-13.1753" font-family="Helvetica,sans-Serif" font-size="10.00" fill="#000000">trim</text>
</a>
</g>
</g>
<!-- Node1&#45;&gt;Node7 -->
<g id="edge7_Node000001_Node000007" class="edge">
<title>Node1&#45;&gt;Node7</title>
<g id="a_edge7_Node000001_Node000007"><a xlink:title=" ">
<path fill="none" stroke="#63b8ff" d="M68.5973,-34.0089C85.7694,-24.897 113.2986,-11.8859 139,-6.6753 203.2408,6.3488 280.8124,-3.5299 320.7905,-10.4453"/>
<polygon fill="#63b8ff" stroke="#63b8ff" points="320.3365,-13.9199 330.7994,-12.2528 321.5805,-7.0313 320.3365,-13.9199"/>
</a>
</g>
</g>
<!-- Node3 -->
<g id="Node000003" class="node">
<title>Node3</title>
<g id="a_Node000003"><a xlink:href="config_8c.html#a07c7ea9e8c66fbaa3d3c8c848a8a4975" target="_top" xlink:title=" ">
<polygon fill="#ffffff" stroke="#666666" points="390.5,-118.1753 304.5,-118.1753 304.5,-99.1753 390.5,-99.1753 390.5,-118.1753"/>
<text text-anchor="middle" x="347.5" y="-106.1753" font-family="Helvetica,sans-Serif" font-size="10.00" fill="#000000">copy_cstr_trunc</text>
</a>
</g>
</g>
<!-- Node2&#45;&gt;Node3 -->
<g id="edge2_Node000002_Node000003" class="edge">
<title>Node2&#45;&gt;Node3</title>
<g id="a_edge2_Node000002_Node000003"><a xlink:title=" ">
<path fill="none" stroke="#63b8ff" d="M240.8202,-102.4C257.7306,-103.3947 276.984,-104.5273 294.4361,-105.5539"/>
<polygon fill="#63b8ff" stroke="#63b8ff" points="294.2839,-109.0509 304.4722,-106.1442 294.695,-102.063 294.2839,-109.0509"/>
</a>
</g>
</g>
<!-- Node4 -->
<g id="Node000004" class="node">
<title>Node4</title>
<g id="a_Node000004"><a xlink:href="crypto__linux_8c.html#a18a79e6026c6028958e55b9abe15cff0" target="_top" xlink:title="任意のパスフレーズを SHA&#45;256 ハッシュにより AES&#45;256 鍵に変換します。">
<polygon fill="#ffffff" stroke="#666666" points="409,-81.1753 286,-81.1753 286,-62.1753 409,-62.1753 409,-81.1753"/>
<text text-anchor="middle" x="347.5" y="-69.1753" font-family="Helvetica,sans-Serif" font-size="10.00" fill="#000000">potr_passphrase_to_key</text>
</a>
</g>
</g>
<!-- Node2&#45;&gt;Node4 -->
<g id="edge3_Node000002_Node000004" class="edge">
<title>Node2&#45;&gt;Node4</title>
<g id="a_edge3_Node000002_Node000004"><a xlink:title=" ">
<path fill="none" stroke="#63b8ff" d="M240.8202,-91.1984C254.8267,-88.6351 270.4407,-85.7776 285.3072,-83.057"/>
<polygon fill="#63b8ff" stroke="#63b8ff" points="286.2444,-86.4437 295.451,-81.2006 284.9843,-79.558 286.2444,-86.4437"/>
</a>
</g>
</g>
<!-- Node6&#45;&gt;Node7 -->
<g id="edge6_Node000006_Node000007" class="edge">
<title>Node6&#45;&gt;Node7</title>
<g id="a_edge6_Node000006_Node000007"><a xlink:title=" ">
<path fill="none" stroke="#63b8ff" d="M222.5626,-23.8411C250.5892,-22.0093 293.3509,-19.2144 320.8641,-17.4162"/>
<polygon fill="#63b8ff" stroke="#63b8ff" points="321.1941,-20.9022 330.9445,-16.7573 320.7375,-13.9171 321.1941,-20.9022"/>
</a>
</g>
</g>
</g>
</svg>
