<?xml version="1.0" encoding="UTF-8" standalone="no"?>
<!DOCTYPE svg PUBLIC "-//W3C//DTD SVG 1.1//EN"
 "http://www.w3.org/Graphics/SVG/1.1/DTD/svg11.dtd">
<!-- Generated by graphviz version 2.40.1 (0)
 -->
<!-- Title: apply_service_kv Pages: 1 -->
<svg width="259pt" height="64pt"
 viewBox="0.00 0.00 259.00 64.00" xmlns="http://www.w3.org/2000/svg" xmlns:xlink="http://www.w3.org/1999/xlink">
<g id="graph0" class="graph" transform="scale(1 1) rotate(0) translate(4 60)">
<title>apply_service_kv</title>
<!-- Node1 -->
<g id="Node000001" class="node">
<title>Node1</title>
<g id="a_Node000001"><a xlink:title=" ">
<polygon fill="#999999" stroke="#666666" points="92,-37 0,-37 0,-18 92,-18 92,-37"/>
<text text-anchor="middle" x="46" y="-25" font-family="Helvetica,sans-Serif" font-size="10.00" fill="#000000">apply_service_kv</text>
</a>
</g>
</g>
<!-- Node2 -->
<g id="Node000002" class="node">
<title>Node2</title>
<g id="a_Node000002"><a xlink:href="config_8c.html#a07c7ea9e8c66fbaa3d3c8c848a8a4975" target="_top" xlink:title=" ">
<polygon fill="#ffffff" stroke="#666666" points="232.5,-56 146.5,-56 146.5,-37 232.5,-37 232.5,-56"/>
<text text-anchor="middle" x="189.5" y="-44" font-family="Helvetica,sans-Serif" font-size="10.00" fill="#000000">copy_cstr_trunc</text>
</a>
</g>
</g>
<!-- Node1&#45;&gt;Node2 -->
<g id="edge1_Node000001_Node000002" class="edge">
<title>Node1&#45;&gt;Node2</title>
<g id="a_edge1_Node000001_Node000002"><a xlink:title=" ">
<path fill="none" stroke="#63b8ff" d="M92.1942,-33.6163C106.1714,-35.4669 121.637,-37.5147 136.0474,-39.4227"/>
<polygon fill="#63b8ff" stroke="#63b8ff" points="135.9447,-42.9395 146.3176,-40.7825 136.8635,-36.0001 135.9447,-42.9395"/>
</a>
</g>
</g>
<!-- Node3 -->
<g id="Node000003" class="node">
<title>Node3</title>
<g id="a_Node000003"><a xlink:href="crypto__linux_8c.html#a18a79e6026c6028958e55b9abe15cff0" target="_top" xlink:title="任意のパスフレーズを SHA&#45;256 ハッシュにより AES&#45;256 鍵に変換します。">
<polygon fill="#ffffff" stroke="#666666" points="251,-19 128,-19 128,0 251,0 251,-19"/>
<text text-anchor="middle" x="189.5" y="-7" font-family="Helvetica,sans-Serif" font-size="10.00" fill="#000000">potr_passphrase_to_key</text>
</a>
</g>
</g>
<!-- Node1&#45;&gt;Node3 -->
<g id="edge2_Node000001_Node000003" class="edge">
<title>Node1&#45;&gt;Node3</title>
<g id="a_edge2_Node000001_Node000003"><a xlink:title=" ">
<path fill="none" stroke="#63b8ff" d="M92.1942,-21.7056C100.3798,-20.6788 109.0759,-19.588 117.7715,-18.4973"/>
<polygon fill="#63b8ff" stroke="#63b8ff" points="118.462,-21.9382 127.9486,-17.2207 117.5907,-14.9926 118.462,-21.9382"/>
</a>
</g>
</g>
</g>
</svg>
