<?xml version="1.0" encoding="UTF-8" standalone="no"?>
<!DOCTYPE svg PUBLIC "-//W3C//DTD SVG 1.1//EN"
 "http://www.w3.org/Graphics/SVG/1.1/DTD/svg11.dtd">
<!-- Generated by graphviz version 2.40.1 (0)
 -->
<!-- Title: config_load_service Pages: 1 -->
<svg width="380pt" height="120pt"
 viewBox="0.00 0.00 380.00 120.00" xmlns="http://www.w3.org/2000/svg" xmlns:xlink="http://www.w3.org/1999/xlink">
<g id="graph0" class="graph" transform="scale(1 1) rotate(0) translate(4 116)">
<title>config_load_service</title>
<!-- Node1 -->
<g id="Node000001" class="node">
<title>Node1</title>
<g id="a_Node000001"><a xlink:title="設定ファイルから指定サービスの定義を読み込みます。">
<polygon fill="#999999" stroke="#666666" points="103,-56 0,-56 0,-37 103,-37 103,-56"/>
<text text-anchor="middle" x="51.5" y="-44" font-family="Helvetica,sans-Serif" font-size="10.00" fill="#000000">config_load_service</text>
</a>
</g>
</g>
<!-- Node2 -->
<g id="Node000002" class="node">
<title>Node2</title>
<g id="a_Node000002"><a xlink:href="config_8c.html#af598a3e207900d3f07fc6afa897ff37f" target="_top" xlink:title=" ">
<polygon fill="#ffffff" stroke="#666666" points="240.5,-112 148.5,-112 148.5,-93 240.5,-93 240.5,-112"/>
<text text-anchor="middle" x="194.5" y="-100" font-family="Helvetica,sans-Serif" font-size="10.00" fill="#000000">apply_service_kv</text>
</a>
</g>
</g>
<!-- Node1&#45;&gt;Node2 -->
<g id="edge1_Node000001_Node000002" class="edge">
<title>Node1&#45;&gt;Node2</title>
<g id="a_edge1_Node000001_Node000002"><a xlink:title=" ">
<path fill="none" stroke="#63b8ff" d="M72.1308,-56.1287C89.7174,-64.1745 115.7646,-75.7099 139,-84.5 143.6128,-86.245 148.4784,-87.9774 153.3339,-89.6387"/>
<polygon fill="#63b8ff" stroke="#63b8ff" points="152.6084,-93.0862 163.2021,-92.9305 154.8235,-86.4459 152.6084,-93.0862"/>
</a>
</g>
</g>
<!-- Node4 -->
<g id="Node000004" class="node">
<title>Node4</title>
<g id="a_Node000004"><a xlink:href="config_8c.html#a613c87799141fafda471fdd4069f8343" target="_top" xlink:title=" ">
<polygon fill="#ffffff" stroke="#666666" points="250,-75 139,-75 139,-56 250,-56 250,-75"/>
<text text-anchor="middle" x="194.5" y="-63" font-family="Helvetica,sans-Serif" font-size="10.00" fill="#000000">open_config_file_read</text>
</a>
</g>
</g>
<!-- Node1&#45;&gt;Node4 -->
<g id="edge3_Node000001_Node000004" class="edge">
<title>Node1&#45;&gt;Node4</title>
<g id="a_edge3_Node000001_Node000004"><a xlink:title=" ">
<path fill="none" stroke="#63b8ff" d="M103.1263,-53.3594C111.4064,-54.4596 120.0728,-55.6111 128.6309,-56.7482"/>
<polygon fill="#63b8ff" stroke="#63b8ff" points="128.2242,-60.2248 138.5981,-58.0725 129.1462,-53.2858 128.2242,-60.2248"/>
</a>
</g>
</g>
<!-- Node5 -->
<g id="Node000005" class="node">
<title>Node5</title>
<g id="a_Node000005"><a xlink:href="config_8c.html#a5f2de03809866bfac8920bc13a97aaca" target="_top" xlink:title=" ">
<polygon fill="#ffffff" stroke="#666666" points="222.5,-38 166.5,-38 166.5,-19 222.5,-19 222.5,-38"/>
<text text-anchor="middle" x="194.5" y="-26" font-family="Helvetica,sans-Serif" font-size="10.00" fill="#000000">parse_kv</text>
</a>
</g>
</g>
<!-- Node1&#45;&gt;Node5 -->
<g id="edge4_Node000001_Node000005" class="edge">
<title>Node1&#45;&gt;Node5</title>
<g id="a_edge4_Node000001_Node000005"><a xlink:title=" ">
<path fill="none" stroke="#63b8ff" d="M103.1263,-40.0016C120.5828,-37.8043 139.7561,-35.3908 156.0124,-33.3446"/>
<polygon fill="#63b8ff" stroke="#63b8ff" points="156.7419,-36.7805 166.2264,-32.0589 155.8676,-29.8353 156.7419,-36.7805"/>
</a>
</g>
</g>
<!-- Node6 -->
<g id="Node000006" class="node">
<title>Node6</title>
<g id="a_Node000006"><a xlink:href="config_8c.html#a2c8b5f7a0223db682d3326ce74f794f4" target="_top" xlink:title=" ">
<polygon fill="#ffffff" stroke="#666666" points="345.5,-19 312.5,-19 312.5,0 345.5,0 345.5,-19"/>
<text text-anchor="middle" x="329" y="-7" font-family="Helvetica,sans-Serif" font-size="10.00" fill="#000000">trim</text>
</a>
</g>
</g>
<!-- Node1&#45;&gt;Node6 -->
<g id="edge6_Node000001_Node000006" class="edge">
<title>Node1&#45;&gt;Node6</title>
<g id="a_edge6_Node000001_Node000006"><a xlink:title=" ">
<path fill="none" stroke="#63b8ff" d="M68.5973,-36.8336C85.7694,-27.7217 113.2986,-14.7107 139,-9.5 196.2295,2.1026 265.1641,-2.3413 302.2496,-6.1874"/>
<polygon fill="#63b8ff" stroke="#63b8ff" points="301.9352,-9.6739 312.259,-7.2929 302.7037,-2.7162 301.9352,-9.6739"/>
</a>
</g>
</g>
<!-- Node3 -->
<g id="Node000003" class="node">
<title>Node3</title>
<g id="a_Node000003"><a xlink:href="config_8c.html#a07c7ea9e8c66fbaa3d3c8c848a8a4975" target="_top" xlink:title=" ">
<polygon fill="#ffffff" stroke="#666666" points="372,-112 286,-112 286,-93 372,-93 372,-112"/>
<text text-anchor="middle" x="329" y="-100" font-family="Helvetica,sans-Serif" font-size="10.00" fill="#000000">copy_cstr_trunc</text>
</a>
</g>
</g>
<!-- Node2&#45;&gt;Node3 -->
<g id="edge2_Node000002_Node000003" class="edge">
<title>Node2&#45;&gt;Node3</title>
<g id="a_edge2_Node000002_Node000003"><a xlink:title=" ">
<path fill="none" stroke="#63b8ff" d="M240.7873,-102.5C251.9576,-102.5 263.9852,-102.5 275.4571,-102.5"/>
<polygon fill="#63b8ff" stroke="#63b8ff" points="275.7957,-106.0001 285.7957,-102.5 275.7957,-99.0001 275.7957,-106.0001"/>
</a>
</g>
</g>
<!-- Node5&#45;&gt;Node6 -->
<g id="edge5_Node000005_Node000006" class="edge">
<title>Node5&#45;&gt;Node6</title>
<g id="a_edge5_Node000005_Node000006"><a xlink:title=" ">
<path fill="none" stroke="#63b8ff" d="M222.6956,-24.517C246.1033,-21.2103 279.1714,-16.539 302.1876,-13.2876"/>
<polygon fill="#63b8ff" stroke="#63b8ff" points="302.8761,-16.7252 312.2882,-11.8608 301.8969,-9.794 302.8761,-16.7252"/>
</a>
</g>
</g>
</g>
</svg>
