<?xml version="1.0" encoding="UTF-8" standalone="no"?>
<!DOCTYPE svg PUBLIC "-//W3C//DTD SVG 1.1//EN"
 "http://www.w3.org/Graphics/SVG/1.1/DTD/svg11.dtd">
<!-- Generated by graphviz version 2.40.1 (0)
 -->
<!-- Title: open_config_file_read Pages: 1 -->
<svg width="470pt" height="101pt"
 viewBox="0.00 0.00 470.00 101.00" xmlns="http://www.w3.org/2000/svg" xmlns:xlink="http://www.w3.org/1999/xlink">
<g id="graph0" class="graph" transform="scale(1 1) rotate(0) translate(4 97)">
<title>open_config_file_read</title>
<!-- Node1 -->
<g id="Node000001" class="node">
<title>Node1</title>
<g id="a_Node000001"><a xlink:title=" ">
<polygon fill="#999999" stroke="#666666" points="462,-56 351,-56 351,-37 462,-37 462,-56"/>
<text text-anchor="middle" x="406.5" y="-44" font-family="Helvetica,sans-Serif" font-size="10.00" fill="#000000">open_config_file_read</text>
</a>
</g>
</g>
<!-- Node2 -->
<g id="Node000002" class="node">
<title>Node2</title>
<g id="a_Node000002"><a xlink:href="config_8c.html#a7a7aec613b4ed41a5f5070fdd599d89a" target="_top" xlink:title="設定ファイルに登録されているすべてのサービス ID を列挙します。">
<polygon fill="#ffffff" stroke="#666666" points="315,-93 199,-93 199,-74 315,-74 315,-93"/>
<text text-anchor="middle" x="257" y="-81" font-family="Helvetica,sans-Serif" font-size="10.00" fill="#000000">config_list_service_ids</text>
</a>
</g>
</g>
<!-- Node1&#45;&gt;Node2 -->
<g id="edge1_Node000001_Node000002" class="edge">
<title>Node1&#45;&gt;Node2</title>
<g id="a_edge1_Node000001_Node000002"><a xlink:title=" ">
<path fill="none" stroke="#63b8ff" d="M358.0395,-58.4936C337.8239,-63.4968 314.6685,-69.2275 295.629,-73.9396"/>
<polygon fill="#63b8ff" stroke="#63b8ff" points="359.1338,-61.8284 368,-56.0284 357.452,-55.0334 359.1338,-61.8284"/>
</a>
</g>
</g>
<!-- Node3 -->
<g id="Node000003" class="node">
<title>Node3</title>
<g id="a_Node000003"><a xlink:href="config_8c.html#afd290b0c734dce1335e786e638c67a12" target="_top" xlink:title="設定ファイルから [global] セクションを読み込みます。">
<polygon fill="#ffffff" stroke="#666666" points="305.5,-56 208.5,-56 208.5,-37 305.5,-37 305.5,-56"/>
<text text-anchor="middle" x="257" y="-44" font-family="Helvetica,sans-Serif" font-size="10.00" fill="#000000">config_load_global</text>
</a>
</g>
</g>
<!-- Node1&#45;&gt;Node3 -->
<g id="edge2_Node000001_Node000003" class="edge">
<title>Node1&#45;&gt;Node3</title>
<g id="a_edge2_Node000001_Node000003"><a xlink:title=" ">
<path fill="none" stroke="#63b8ff" d="M340.6531,-46.5C328.9506,-46.5 316.9528,-46.5 305.829,-46.5"/>
<polygon fill="#63b8ff" stroke="#63b8ff" points="340.8318,-50.0001 350.8317,-46.5 340.8317,-43.0001 340.8318,-50.0001"/>
</a>
</g>
</g>
<!-- Node6 -->
<g id="Node000006" class="node">
<title>Node6</title>
<g id="a_Node000006"><a xlink:href="config_8c.html#a4b72d1221265c0c8c3748a30ac0fd48f" target="_top" xlink:title="設定ファイルから指定サービスの定義を読み込みます。">
<polygon fill="#ffffff" stroke="#666666" points="308.5,-19 205.5,-19 205.5,0 308.5,0 308.5,-19"/>
<text text-anchor="middle" x="257" y="-7" font-family="Helvetica,sans-Serif" font-size="10.00" fill="#000000">config_load_service</text>
</a>
</g>
</g>
<!-- Node1&#45;&gt;Node6 -->
<g id="edge5_Node000001_Node000006" class="edge">
<title>Node1&#45;&gt;Node6</title>
<g id="a_edge5_Node000001_Node000006"><a xlink:title=" ">
<path fill="none" stroke="#63b8ff" d="M358.0395,-34.5064C337.8239,-29.5032 314.6685,-23.7725 295.629,-19.0604"/>
<polygon fill="#63b8ff" stroke="#63b8ff" points="357.452,-37.9666 368,-36.9716 359.1338,-31.1716 357.452,-37.9666"/>
</a>
</g>
</g>
<!-- Node4 -->
<g id="Node000004" class="node">
<title>Node4</title>
<g id="a_Node000004"><a xlink:href="potrOpenService_8c.html#a8ce1599677086e0c54400b696ed28680" target="_top" xlink:title="設定ファイルから指定サービスを開きます。">
<polygon fill="#ffffff" stroke="#666666" points="163,-37 74,-37 74,-18 163,-18 163,-37"/>
<text text-anchor="middle" x="118.5" y="-25" font-family="Helvetica,sans-Serif" font-size="10.00" fill="#000000">potrOpenService</text>
</a>
</g>
</g>
<!-- Node3&#45;&gt;Node4 -->
<g id="edge3_Node000003_Node000004" class="edge">
<title>Node3&#45;&gt;Node4</title>
<g id="a_edge3_Node000003_Node000004"><a xlink:title=" ">
<path fill="none" stroke="#63b8ff" d="M198.0468,-38.4126C186.3711,-36.8108 174.2959,-35.1543 163.1891,-33.6306"/>
<polygon fill="#63b8ff" stroke="#63b8ff" points="197.7872,-41.9096 208.1701,-39.8013 198.7386,-34.9746 197.7872,-41.9096"/>
</a>
</g>
</g>
<!-- Node5 -->
<g id="Node000005" class="node">
<title>Node5</title>
<g id="a_Node000005"><a xlink:href="recv_8c.html#a0ddf1224851353fc92bfbff6f499fa97" target="_top" xlink:title="メインエントリーポイント。">
<polygon fill="#ffffff" stroke="#666666" points="38,-37 0,-37 0,-18 38,-18 38,-37"/>
<text text-anchor="middle" x="19" y="-25" font-family="Helvetica,sans-Serif" font-size="10.00" fill="#000000">main</text>
</a>
</g>
</g>
<!-- Node4&#45;&gt;Node5 -->
<g id="edge4_Node000004_Node000005" class="edge">
<title>Node4&#45;&gt;Node5</title>
<g id="a_edge4_Node000004_Node000005"><a xlink:title=" ">
<path fill="none" stroke="#63b8ff" d="M63.8932,-27.5C54.615,-27.5 45.5643,-27.5 38.0485,-27.5"/>
<polygon fill="#63b8ff" stroke="#63b8ff" points="63.9885,-31.0001 73.9884,-27.5 63.9884,-24.0001 63.9885,-31.0001"/>
</a>
</g>
</g>
<!-- Node6&#45;&gt;Node4 -->
<g id="edge6_Node000006_Node000004" class="edge">
<title>Node6&#45;&gt;Node4</title>
<g id="a_edge6_Node000006_Node000004"><a xlink:title=" ">
<path fill="none" stroke="#63b8ff" d="M195.2261,-17.5284C184.472,-18.926 173.4747,-20.3553 163.2877,-21.6792"/>
<polygon fill="#63b8ff" stroke="#63b8ff" points="195.9622,-20.9622 205.4277,-16.2025 195.06,-14.0206 195.9622,-20.9622"/>
</a>
</g>
</g>
</g>
</svg>
