<?xml version="1.0" encoding="UTF-8" standalone="no"?>
<!DOCTYPE svg PUBLIC "-//W3C//DTD SVG 1.1//EN"
 "http://www.w3.org/Graphics/SVG/1.1/DTD/svg11.dtd">
<!-- Generated by graphviz version 2.40.1 (0)
 -->
<!-- Title: porter/libsrc/porter/infra/crypto/crypto_linux.c Pages: 1 -->
<svg width="318pt" height="159pt"
 viewBox="0.00 0.00 318.00 159.00" xmlns="http://www.w3.org/2000/svg" xmlns:xlink="http://www.w3.org/1999/xlink">

<svg id="main" version="1.1" xmlns="http://www.w3.org/2000/svg" xmlns:xlink="http://www.w3.org/1999/xlink" xml:space="preserve">

<style type="text/css"><![CDATA[
.node, .edge {opacity: 0.7;}
.node.selected, .edge.selected {opacity: 1;}
.edge:hover path { stroke: red; }
.edge:hover polygon { stroke: red; fill: red; }
]]></style>
<script type="application/ecmascript" xlink:href="svg.min.js"/>
<svg id="graph" class="graph">
<g id="graph0" class="graph" transform="scale(1 1) rotate(0) translate(4 155)">
<title>porter/libsrc/porter/infra/crypto/crypto_linux.c</title>
<!-- Node1 -->
<g id="Node000001" class="node">
<title>Node1</title>
<g id="a_Node000001"><a xlink:title="Linux 向け暗号化・復号モジュール (OpenSSL AES&#45;256&#45;GCM)。">
<polygon fill="#999999" stroke="#666666" points="154.5,-151 56.5,-151 56.5,-110 154.5,-110 154.5,-151"/>
<text text-anchor="start" x="64.5" y="-139" font-family="Helvetica,sans-Serif" font-size="10.00" fill="#000000">porter/libsrc/porter</text>
<text text-anchor="start" x="64.5" y="-128" font-family="Helvetica,sans-Serif" font-size="10.00" fill="#000000">/infra/crypto/crypto</text>
<text text-anchor="middle" x="105.5" y="-117" font-family="Helvetica,sans-Serif" font-size="10.00" fill="#000000">_linux.c</text>
</a>
</g>
</g>
<!-- Node2 -->
<g id="Node000002" class="node">
<title>Node2</title>
<g id="a_Node000002"><a xlink:title=" ">
<polygon fill="#e0e0e0" stroke="#999999" points="49,-74 0,-74 0,-55 49,-55 49,-74"/>
<text text-anchor="middle" x="24.5" y="-62" font-family="Helvetica,sans-Serif" font-size="10.00" fill="#000000">string.h</text>
</a>
</g>
</g>
<!-- Node1&#45;&gt;Node2 -->
<g id="edge1_Node000001_Node000002" class="edge">
<title>Node1&#45;&gt;Node2</title>
<g id="a_edge1_Node000001_Node000002"><a xlink:title=" ">
<path fill="none" stroke="#63b8ff" d="M80.3151,-109.979C68.7354,-100.5436 55.1967,-89.5121 44.3534,-80.6769"/>
<polygon fill="#63b8ff" stroke="#63b8ff" points="46.2874,-77.7379 36.3241,-74.1345 41.8657,-83.1646 46.2874,-77.7379"/>
</a>
</g>
</g>
<!-- Node3 -->
<g id="Node000003" class="node">
<title>Node3</title>
<g id="a_Node000003"><a xlink:title=" ">
<polygon fill="#e0e0e0" stroke="#999999" points="144,-74 67,-74 67,-55 144,-55 144,-74"/>
<text text-anchor="middle" x="105.5" y="-62" font-family="Helvetica,sans-Serif" font-size="10.00" fill="#000000">openssl/evp.h</text>
</a>
</g>
</g>
<!-- Node1&#45;&gt;Node3 -->
<g id="edge2_Node000001_Node000003" class="edge">
<title>Node1&#45;&gt;Node3</title>
<g id="a_edge2_Node000001_Node000003"><a xlink:title=" ">
<path fill="none" stroke="#63b8ff" d="M105.5,-109.979C105.5,-101.7581 105.5,-92.3255 105.5,-84.1896"/>
<polygon fill="#63b8ff" stroke="#63b8ff" points="109.0001,-84.1345 105.5,-74.1345 102.0001,-84.1345 109.0001,-84.1345"/>
</a>
</g>
</g>
<!-- Node4 -->
<g id="Node000004" class="node">
<title>Node4</title>
<g id="a_Node000004"><a xlink:href="crypto_8h.html" target="_top" xlink:title="データ暗号化・復号モジュールの内部ヘッダー。">
<polygon fill="#ffffff" stroke="#666666" points="214.5,-74 162.5,-74 162.5,-55 214.5,-55 214.5,-74"/>
<text text-anchor="middle" x="188.5" y="-62" font-family="Helvetica,sans-Serif" font-size="10.00" fill="#000000">crypto.h</text>
</a>
</g>
</g>
<!-- Node1&#45;&gt;Node4 -->
<g id="edge3_Node000001_Node000004" class="edge">
<title>Node1&#45;&gt;Node4</title>
<g id="a_edge3_Node000001_Node000004"><a xlink:title=" ">
<path fill="none" stroke="#63b8ff" d="M131.3067,-109.979C143.2899,-100.4502 157.3203,-89.2935 168.4856,-80.4151"/>
<polygon fill="#63b8ff" stroke="#63b8ff" points="170.7352,-83.0979 176.3839,-74.1345 166.3784,-77.619 170.7352,-83.0979"/>
</a>
</g>
</g>
<!-- Node5 -->
<g id="Node000005" class="node">
<title>Node5</title>
<g id="a_Node000005"><a xlink:title=" ">
<polygon fill="#e0e0e0" stroke="#999999" points="145.5,-19 93.5,-19 93.5,0 145.5,0 145.5,-19"/>
<text text-anchor="middle" x="119.5" y="-7" font-family="Helvetica,sans-Serif" font-size="10.00" fill="#000000">stddef.h</text>
</a>
</g>
</g>
<!-- Node4&#45;&gt;Node5 -->
<g id="edge4_Node000004_Node000005" class="edge">
<title>Node4&#45;&gt;Node5</title>
<g id="a_edge4_Node000004_Node000005"><a xlink:title=" ">
<path fill="none" stroke="#63b8ff" d="M176.4811,-54.9197C166.4144,-46.8956 151.8247,-35.2661 139.9287,-25.7837"/>
<polygon fill="#63b8ff" stroke="#63b8ff" points="141.8471,-22.8371 131.8458,-19.3408 137.4839,-28.3109 141.8471,-22.8371"/>
</a>
</g>
</g>
<!-- Node6 -->
<g id="Node000006" class="node">
<title>Node6</title>
<g id="a_Node000006"><a xlink:title=" ">
<polygon fill="#e0e0e0" stroke="#999999" points="213,-19 164,-19 164,0 213,0 213,-19"/>
<text text-anchor="middle" x="188.5" y="-7" font-family="Helvetica,sans-Serif" font-size="10.00" fill="#000000">stdint.h</text>
</a>
</g>
</g>
<!-- Node4&#45;&gt;Node6 -->
<g id="edge5_Node000004_Node000006" class="edge">
<title>Node4&#45;&gt;Node6</title>
<g id="a_edge5_Node000004_Node000006"><a xlink:title=" ">
<path fill="none" stroke="#63b8ff" d="M188.5,-54.9197C188.5,-47.9083 188.5,-38.1442 188.5,-29.4652"/>
<polygon fill="#63b8ff" stroke="#63b8ff" points="192.0001,-29.3408 188.5,-19.3408 185.0001,-29.3409 192.0001,-29.3408"/>
</a>
</g>
</g>
<!-- Node7 -->
<g id="Node000007" class="node">
<title>Node7</title>
<g id="a_Node000007"><a xlink:href="porter__const_8h.html" target="_top" xlink:title="通信ライブラリの定数ファイル。">
<polygon fill="#ffffff" stroke="#666666" points="310,-19 231,-19 231,0 310,0 310,-19"/>
<text text-anchor="middle" x="270.5" y="-7" font-family="Helvetica,sans-Serif" font-size="10.00" fill="#000000">porter_const.h</text>
</a>
</g>
</g>
<!-- Node4&#45;&gt;Node7 -->
<g id="edge6_Node000004_Node000007" class="edge">
<title>Node4&#45;&gt;Node7</title>
<g id="a_edge6_Node000004_Node000007"><a xlink:title=" ">
<path fill="none" stroke="#63b8ff" d="M202.7833,-54.9197C215.1711,-46.6109 233.3222,-34.4363 247.7147,-24.7828"/>
<polygon fill="#63b8ff" stroke="#63b8ff" points="249.75,-27.6321 256.1052,-19.155 245.8507,-21.8187 249.75,-27.6321"/>
</a>
</g>
</g>
</g>
</svg>
</svg>

<style type='text/css'>
<![CDATA[
[data-mouse-over-selected='false'] { opacity: 0.7; }
[data-mouse-over-selected='true']  { opacity: 1.0; }
]]>
</style>
<script type="application/ecmascript"><![CDATA[
document.addEventListener('DOMContentLoaded', (event) => {
  highlightEdges();
  highlightAdjacentNodes();
});
]]></script>
</svg>
