<?xml version="1.0" encoding="UTF-8" standalone="no"?>
<!DOCTYPE svg PUBLIC "-//W3C//DTD SVG 1.1//EN"
 "http://www.w3.org/Graphics/SVG/1.1/DTD/svg11.dtd">
<!-- Generated by graphviz version 2.40.1 (0)
 -->
<!-- Title: porter/libsrc/porter/infra/crypto/crypto.h Pages: 1 -->
<!--zoomable 247 -->

<svg id="main" version="1.1" xmlns="http://www.w3.org/2000/svg" xmlns:xlink="http://www.w3.org/1999/xlink" xml:space="preserve" onload="init(evt)">

<style type="text/css"><![CDATA[
.node, .edge {opacity: 0.7;}
.node.selected, .edge.selected {opacity: 1;}
.edge:hover path { stroke: red; }
.edge:hover polygon { stroke: red; fill: red; }
]]></style>

<defs>
  <circle id="rim" cx="0" cy="0" r="7"/>
  <circle id="rim2" cx="0" cy="0" r="3.5"/>
  <g id="zoomPlus">
    <use xlink:href="#rim" fill="#404040"><set attributeName="fill" to="#808080" begin="zoomplus.mouseover" end="zoomplus.mouseout"/></use>
    <path d="M-4,0h8M0,-4v8" fill="none" stroke="white" stroke-width="1.5" pointer-events="none"/>
  </g>
  <g id="zoomMin">
    <use xlink:href="#rim" fill="#404040"><set attributeName="fill" to="#808080" begin="zoomminus.mouseover" end="zoomminus.mouseout"/></use>
    <path d="M-4,0h8" fill="none" stroke="white" stroke-width="1.5" pointer-events="none"/>
  </g>
  <g id="arrowUp" transform="translate(30 24)">
    <use xlink:href="#rim"/>
    <path pointer-events="none" fill="none" stroke="white" stroke-width="1.5" d="M0,-3.0v7 M-2.5,-0.5L0,-3.0L2.5,-0.5"/>
  </g>
  <g id="arrowRight" transform="rotate(90) translate(36 -43)">
    <use xlink:href="#rim"/>
    <path pointer-events="none" fill="none" stroke="white" stroke-width="1.5" d="M0,-3.0v7 M-2.5,-0.5L0,-3.0L2.5,-0.5"/>
  </g>
  <g id="arrowDown" transform="rotate(180) translate(-30 -48)">
    <use xlink:href="#rim"/>
    <path pointer-events="none" fill="none" stroke="white" stroke-width="1.5" d="M0,-3.0v7 M-2.5,-0.5L0,-3.0L2.5,-0.5"/>
  </g>
  <g id="arrowLeft" transform="rotate(270) translate(-36 17)">
    <use xlink:href="#rim"/>
    <path pointer-events="none" fill="none" stroke="white" stroke-width="1.5" d="M0,-3.0v7 M-2.5,-0.5L0,-3.0L2.5,-0.5"/>
  </g>
  <g id="resetDef">
    <use xlink:href="#rim2" fill="#404040"><set attributeName="fill" to="#808080" begin="reset.mouseover" end="reset.mouseout"/></use>
  </g>
</defs>
<script type="application/ecmascript">
var viewWidth = 925;
var viewHeight = 247;
var sectionId = 'dynsection-1';
</script>
<script type="application/ecmascript" xlink:href="svg.min.js"/>
<svg id="graph" class="graph">
<g id="viewport">
<title>porter/libsrc/porter/infra/crypto/crypto.h</title>
<!-- Node1 -->
<g id="Node000001" class="node">
<title>Node1</title>
<g id="a_Node000001"><a xlink:title="データ暗号化・復号モジュールの内部ヘッダー。">
<polygon fill="#999999" stroke="#666666" points="809,-239 702,-239 702,-209 809,-209 809,-239"/>
<text text-anchor="start" x="710" y="-227" font-family="Helvetica,sans-Serif" font-size="10.00" fill="#000000">porter/libsrc/porter</text>
<text text-anchor="middle" x="755.5" y="-216" font-family="Helvetica,sans-Serif" font-size="10.00" fill="#000000">/infra/crypto/crypto.h</text>
</a>
</g>
</g>
<!-- Node2 -->
<g id="Node000002" class="node">
<title>Node2</title>
<g id="a_Node000002"><a xlink:href="crypto__linux_8c.html" target="_top" xlink:title="Linux 向け暗号化・復号モジュール (OpenSSL AES&#45;256&#45;GCM)。">
<polygon fill="#ffffff" stroke="#666666" points="429.5,-173 331.5,-173 331.5,-132 429.5,-132 429.5,-173"/>
<text text-anchor="start" x="339.5" y="-161" font-family="Helvetica,sans-Serif" font-size="10.00" fill="#000000">porter/libsrc/porter</text>
<text text-anchor="start" x="339.5" y="-150" font-family="Helvetica,sans-Serif" font-size="10.00" fill="#000000">/infra/crypto/crypto</text>
<text text-anchor="middle" x="380.5" y="-139" font-family="Helvetica,sans-Serif" font-size="10.00" fill="#000000">_linux.c</text>
</a>
</g>
</g>
<!-- Node1&#45;&gt;Node2 -->
<g id="edge1_Node000001_Node000002" class="edge">
<title>Node1&#45;&gt;Node2</title>
<g id="a_edge1_Node000001_Node000002"><a xlink:title=" ">
<path fill="none" stroke="#63b8ff" d="M691.8775,-217.1847C627.3765,-209.4795 525.021,-195.0583 438.5,-173 435.6023,-172.2612 432.6447,-171.4388 429.6748,-170.56"/>
<polygon fill="#63b8ff" stroke="#63b8ff" points="691.5557,-220.6709 701.8962,-218.3639 692.3739,-213.7189 691.5557,-220.6709"/>
</a>
</g>
</g>
<!-- Node3 -->
<g id="Node000003" class="node">
<title>Node3</title>
<g id="a_Node000003"><a xlink:href="potrContext_8h.html" target="_top" xlink:title="セッションコンテキスト内部定義ヘッダー。">
<polygon fill="#ffffff" stroke="#666666" points="543,-167.5 448,-167.5 448,-137.5 543,-137.5 543,-167.5"/>
<text text-anchor="start" x="456" y="-155.5" font-family="Helvetica,sans-Serif" font-size="10.00" fill="#000000">porter/libsrc/porter</text>
<text text-anchor="middle" x="495.5" y="-144.5" font-family="Helvetica,sans-Serif" font-size="10.00" fill="#000000">/potrContext.h</text>
</a>
</g>
</g>
<!-- Node1&#45;&gt;Node3 -->
<g id="edge2_Node000001_Node000003" class="edge">
<title>Node1&#45;&gt;Node3</title>
<g id="a_edge2_Node000001_Node000003"><a xlink:title=" ">
<path fill="none" stroke="#63b8ff" d="M692.0982,-206.5645C646.1991,-193.9423 585.1257,-177.1471 543.3004,-165.6451"/>
<polygon fill="#63b8ff" stroke="#63b8ff" points="691.373,-209.9949 701.9431,-209.2718 693.2291,-203.2455 691.373,-209.9949"/>
</a>
</g>
</g>
<!-- Node9 -->
<g id="Node000009" class="node">
<title>Node9</title>
<g id="a_Node000009"><a xlink:href="potrRecvThread_8c.html" target="_top" xlink:title="受信スレッドモジュール。">
<polygon fill="#ffffff" stroke="#666666" points="674,-30 547,-30 547,0 674,0 674,-30"/>
<text text-anchor="start" x="555" y="-18" font-family="Helvetica,sans-Serif" font-size="10.00" fill="#000000">porter/libsrc/porter</text>
<text text-anchor="middle" x="610.5" y="-7" font-family="Helvetica,sans-Serif" font-size="10.00" fill="#000000">/thread/potrRecvThread.c</text>
</a>
</g>
</g>
<!-- Node1&#45;&gt;Node9 -->
<g id="edge22_Node000001_Node000009" class="edge">
<title>Node1&#45;&gt;Node9</title>
<g id="a_edge22_Node000001_Node000009"><a xlink:title=" ">
<path fill="none" stroke="#63b8ff" d="M747.0283,-199.0365C735.0054,-166.1009 710.602,-107.4641 676.5,-66 664.9102,-51.9081 648.7407,-39.3333 635.3073,-30.1959"/>
<polygon fill="#63b8ff" stroke="#63b8ff" points="743.8429,-200.5249 750.4934,-208.7724 750.4377,-198.1777 743.8429,-200.5249"/>
</a>
</g>
</g>
<!-- Node11 -->
<g id="Node000011" class="node">
<title>Node11</title>
<g id="a_Node000011"><a xlink:href="potrSendThread_8c.html" target="_top" xlink:title="非同期送信スレッドの実装。">
<polygon fill="#ffffff" stroke="#666666" points="819,-30 692,-30 692,0 819,0 819,-30"/>
<text text-anchor="start" x="700" y="-18" font-family="Helvetica,sans-Serif" font-size="10.00" fill="#000000">porter/libsrc/porter</text>
<text text-anchor="middle" x="755.5" y="-7" font-family="Helvetica,sans-Serif" font-size="10.00" fill="#000000">/thread/potrSendThread.c</text>
</a>
</g>
</g>
<!-- Node1&#45;&gt;Node11 -->
<g id="edge23_Node000001_Node000011" class="edge">
<title>Node1&#45;&gt;Node11</title>
<g id="a_edge23_Node000001_Node000011"><a xlink:title=" ">
<path fill="none" stroke="#63b8ff" d="M763.8225,-198.9115C766.1433,-190.7443 768.3446,-181.5734 769.5,-173 775.8513,-125.8705 775.8513,-113.1295 769.5,-66 767.8568,-53.8067 764.098,-40.405 760.8886,-30.4006"/>
<polygon fill="#63b8ff" stroke="#63b8ff" points="760.4373,-198.0141 760.8886,-208.5994 767.1369,-200.0431 760.4373,-198.0141"/>
</a>
</g>
</g>
<!-- Node13 -->
<g id="Node000013" class="node">
<title>Node13</title>
<g id="a_Node000013"><a xlink:href="config_8c.html" target="_top" xlink:title="設定ファイル (INI 形式) 解析モジュール。">
<polygon fill="#ffffff" stroke="#666666" points="917,-167.5 822,-167.5 822,-137.5 917,-137.5 917,-167.5"/>
<text text-anchor="start" x="830" y="-155.5" font-family="Helvetica,sans-Serif" font-size="10.00" fill="#000000">porter/libsrc/porter</text>
<text text-anchor="middle" x="869.5" y="-144.5" font-family="Helvetica,sans-Serif" font-size="10.00" fill="#000000">/protocol/config.c</text>
</a>
</g>
</g>
<!-- Node1&#45;&gt;Node13 -->
<g id="edge21_Node000001_Node000013" class="edge">
<title>Node1&#45;&gt;Node13</title>
<g id="a_edge21_Node000001_Node000013"><a xlink:title=" ">
<path fill="none" stroke="#63b8ff" d="M788.2495,-203.4597C806.4645,-192.0354 828.7407,-178.064 845.3584,-167.6415"/>
<polygon fill="#63b8ff" stroke="#63b8ff" points="786.2884,-200.5582 779.6765,-208.8367 790.0078,-206.4884 786.2884,-200.5582"/>
</a>
</g>
</g>
<!-- Node4 -->
<g id="Node000004" class="node">
<title>Node4</title>
<g id="a_Node000004"><a xlink:href="potrCloseService_8c.html" target="_top" xlink:title=" ">
<polygon fill="#ffffff" stroke="#666666" points="341.5,-30 223.5,-30 223.5,0 341.5,0 341.5,-30"/>
<text text-anchor="start" x="231.5" y="-18" font-family="Helvetica,sans-Serif" font-size="10.00" fill="#000000">porter/libsrc/porter</text>
<text text-anchor="middle" x="282.5" y="-7" font-family="Helvetica,sans-Serif" font-size="10.00" fill="#000000">/api/potrCloseService.c</text>
</a>
</g>
</g>
<!-- Node3&#45;&gt;Node4 -->
<g id="edge3_Node000003_Node000004" class="edge">
<title>Node3&#45;&gt;Node4</title>
<g id="a_edge3_Node000003_Node000004"><a xlink:title=" ">
<path fill="none" stroke="#63b8ff" d="M447.0917,-134.3293C444.2026,-133.4824 441.3237,-132.6968 438.5,-132 382.2973,-118.1305 218.5,-139.6705 180.5,-96 157.2695,-69.303 200.5616,-44.9758 237.7237,-30.0982"/>
<polygon fill="#63b8ff" stroke="#63b8ff" points="446.2998,-137.749 456.889,-137.4057 448.3969,-131.0705 446.2998,-137.749"/>
</a>
</g>
</g>
<!-- Node5 -->
<g id="Node000005" class="node">
<title>Node5</title>
<g id="a_Node000005"><a xlink:href="potrOpenService_8c.html" target="_top" xlink:title="potrOpenService 関数の実装。">
<polygon fill="#ffffff" stroke="#666666" points="475.5,-30 359.5,-30 359.5,0 475.5,0 475.5,-30"/>
<text text-anchor="start" x="367.5" y="-18" font-family="Helvetica,sans-Serif" font-size="10.00" fill="#000000">porter/libsrc/porter</text>
<text text-anchor="middle" x="417.5" y="-7" font-family="Helvetica,sans-Serif" font-size="10.00" fill="#000000">/api/potrOpenService.c</text>
</a>
</g>
</g>
<!-- Node3&#45;&gt;Node5 -->
<g id="edge4_Node000003_Node000005" class="edge">
<title>Node3&#45;&gt;Node5</title>
<g id="a_edge4_Node000003_Node000005"><a xlink:title=" ">
<path fill="none" stroke="#63b8ff" d="M493.785,-127.2835C491.61,-109.1582 486.6787,-84.7177 475.5,-66 466.9061,-51.6102 452.8764,-39.1136 440.7682,-30.0922"/>
<polygon fill="#63b8ff" stroke="#63b8ff" points="490.3178,-127.7868 494.794,-137.3896 497.2831,-127.0913 490.3178,-127.7868"/>
</a>
</g>
</g>
<!-- Node6 -->
<g id="Node000006" class="node">
<title>Node6</title>
<g id="a_Node000006"><a xlink:href="potrSend_8c.html" target="_top" xlink:title="potrSend 関数の実装。">
<polygon fill="#ffffff" stroke="#666666" points="95,-96 0,-96 0,-66 95,-66 95,-96"/>
<text text-anchor="start" x="8" y="-84" font-family="Helvetica,sans-Serif" font-size="10.00" fill="#000000">porter/libsrc/porter</text>
<text text-anchor="middle" x="47.5" y="-73" font-family="Helvetica,sans-Serif" font-size="10.00" fill="#000000">/api/potrSend.c</text>
</a>
</g>
</g>
<!-- Node3&#45;&gt;Node6 -->
<g id="edge5_Node000003_Node000006" class="edge">
<title>Node3&#45;&gt;Node6</title>
<g id="a_edge5_Node000003_Node000006"><a xlink:title=" ">
<path fill="none" stroke="#63b8ff" d="M447.7095,-134.3986C444.6154,-133.5109 441.5275,-132.6997 438.5,-132 295.1825,-98.8787 254.3947,-121.347 109.5,-96 104.8092,-95.1794 99.945,-94.2113 95.098,-93.1684"/>
<polygon fill="#63b8ff" stroke="#63b8ff" points="446.9581,-137.8301 457.5462,-137.4514 449.033,-131.1446 446.9581,-137.8301"/>
</a>
</g>
</g>
<!-- Node7 -->
<g id="Node000007" class="node">
<title>Node7</title>
<g id="a_Node000007"><a xlink:href="potrHealthThread_8c.html" target="_top" xlink:title="ヘルスチェックスレッドモジュール。">
<polygon fill="#ffffff" stroke="#666666" points="204.5,-30 72.5,-30 72.5,0 204.5,0 204.5,-30"/>
<text text-anchor="start" x="80.5" y="-18" font-family="Helvetica,sans-Serif" font-size="10.00" fill="#000000">porter/libsrc/porter</text>
<text text-anchor="middle" x="138.5" y="-7" font-family="Helvetica,sans-Serif" font-size="10.00" fill="#000000">/thread/potrHealthThread.c</text>
</a>
</g>
</g>
<!-- Node3&#45;&gt;Node7 -->
<g id="edge6_Node000003_Node000007" class="edge">
<title>Node3&#45;&gt;Node7</title>
<g id="a_edge6_Node000003_Node000007"><a xlink:title=" ">
<path fill="none" stroke="#63b8ff" d="M447.5369,-134.4411C444.4988,-133.549 441.4692,-132.7247 438.5,-132 380.1231,-117.7521 217.8217,-133.034 170.5,-96 150.0196,-79.972 142.6144,-48.9169 139.9598,-30.2627"/>
<polygon fill="#63b8ff" stroke="#63b8ff" points="446.6159,-137.8203 457.2053,-137.4814 448.7158,-131.1427 446.6159,-137.8203"/>
</a>
</g>
</g>
<!-- Node8 -->
<g id="Node000008" class="node">
<title>Node8</title>
<g id="a_Node000008"><a xlink:href="potrHealthThread_8h.html" target="_top" xlink:title="ヘルスチェックスレッド内部ヘッダー。">
<polygon fill="#ffffff" stroke="#666666" points="321.5,-96 189.5,-96 189.5,-66 321.5,-66 321.5,-96"/>
<text text-anchor="start" x="197.5" y="-84" font-family="Helvetica,sans-Serif" font-size="10.00" fill="#000000">porter/libsrc/porter</text>
<text text-anchor="middle" x="255.5" y="-73" font-family="Helvetica,sans-Serif" font-size="10.00" fill="#000000">/thread/potrHealthThread.h</text>
</a>
</g>
</g>
<!-- Node3&#45;&gt;Node8 -->
<g id="edge7_Node000003_Node000008" class="edge">
<title>Node3&#45;&gt;Node8</title>
<g id="a_edge7_Node000003_Node000008"><a xlink:title=" ">
<path fill="none" stroke="#63b8ff" d="M445.3268,-134.226C443.0242,-133.4597 440.7404,-132.714 438.5,-132 397.0199,-118.7805 349.6621,-105.6343 313.5163,-96.0004"/>
<polygon fill="#63b8ff" stroke="#63b8ff" points="444.2411,-137.5536 454.8355,-137.4648 446.4981,-130.9274 444.2411,-137.5536"/>
</a>
</g>
</g>
<!-- Node3&#45;&gt;Node9 -->
<g id="edge11_Node000003_Node000009" class="edge">
<title>Node3&#45;&gt;Node9</title>
<g id="a_edge11_Node000003_Node000009"><a xlink:title=" ">
<path fill="none" stroke="#63b8ff" d="M553.0114,-140.1414C594.9953,-129.8177 646.7116,-113.9318 659.5,-96 675.2459,-73.9212 650.3388,-46.6543 630.6417,-30.0591"/>
<polygon fill="#63b8ff" stroke="#63b8ff" points="552.033,-136.7768 543.1268,-142.5152 553.6676,-143.5832 552.033,-136.7768"/>
</a>
</g>
</g>
<!-- Node10 -->
<g id="Node000010" class="node">
<title>Node10</title>
<g id="a_Node000010"><a xlink:href="potrRecvThread_8h.html" target="_top" xlink:title="受信スレッド内部ヘッダー。">
<polygon fill="#ffffff" stroke="#666666" points="467,-96 340,-96 340,-66 467,-66 467,-96"/>
<text text-anchor="start" x="348" y="-84" font-family="Helvetica,sans-Serif" font-size="10.00" fill="#000000">porter/libsrc/porter</text>
<text text-anchor="middle" x="403.5" y="-73" font-family="Helvetica,sans-Serif" font-size="10.00" fill="#000000">/thread/potrRecvThread.h</text>
</a>
</g>
</g>
<!-- Node3&#45;&gt;Node10 -->
<g id="edge12_Node000003_Node000010" class="edge">
<title>Node3&#45;&gt;Node10</title>
<g id="a_edge12_Node000003_Node000010"><a xlink:title=" ">
<path fill="none" stroke="#63b8ff" d="M467.8607,-131.0194C453.3935,-119.776 436.0278,-106.2797 422.9827,-96.1415"/>
<polygon fill="#63b8ff" stroke="#63b8ff" points="465.9455,-133.9638 475.9892,-137.3367 470.2411,-128.4367 465.9455,-133.9638"/>
</a>
</g>
</g>
<!-- Node3&#45;&gt;Node11 -->
<g id="edge16_Node000003_Node000011" class="edge">
<title>Node3&#45;&gt;Node11</title>
<g id="a_edge16_Node000003_Node000011"><a xlink:title=" ">
<path fill="none" stroke="#63b8ff" d="M553.3403,-142.106C590.4814,-133.6412 638.668,-119.2072 676.5,-96 705.1324,-78.4361 730.7621,-48.1957 744.6252,-30.0505"/>
<polygon fill="#63b8ff" stroke="#63b8ff" points="552.1921,-138.7746 543.1753,-144.3375 553.6932,-145.6118 552.1921,-138.7746"/>
</a>
</g>
</g>
<!-- Node12 -->
<g id="Node000012" class="node">
<title>Node12</title>
<g id="a_Node000012"><a xlink:href="potrSendThread_8h.html" target="_top" xlink:title="非同期送信スレッドの内部ヘッダー。">
<polygon fill="#ffffff" stroke="#666666" points="651,-96 524,-96 524,-66 651,-66 651,-96"/>
<text text-anchor="start" x="532" y="-84" font-family="Helvetica,sans-Serif" font-size="10.00" fill="#000000">porter/libsrc/porter</text>
<text text-anchor="middle" x="587.5" y="-73" font-family="Helvetica,sans-Serif" font-size="10.00" fill="#000000">/thread/potrSendThread.h</text>
</a>
</g>
</g>
<!-- Node3&#45;&gt;Node12 -->
<g id="edge17_Node000003_Node000012" class="edge">
<title>Node3&#45;&gt;Node12</title>
<g id="a_edge17_Node000003_Node000012"><a xlink:title=" ">
<path fill="none" stroke="#63b8ff" d="M523.1393,-131.0194C537.6065,-119.776 554.9722,-106.2797 568.0173,-96.1415"/>
<polygon fill="#63b8ff" stroke="#63b8ff" points="520.7589,-128.4367 515.0108,-137.3367 525.0545,-133.9638 520.7589,-128.4367"/>
</a>
</g>
</g>
<!-- Node8&#45;&gt;Node4 -->
<g id="edge8_Node000008_Node000004" class="edge">
<title>Node8&#45;&gt;Node4</title>
<g id="a_edge8_Node000008_Node000004"><a xlink:title=" ">
<path fill="none" stroke="#63b8ff" d="M265.6027,-56.3045C269.1847,-47.5485 273.108,-37.9583 276.2718,-30.2246"/>
<polygon fill="#63b8ff" stroke="#63b8ff" points="262.3092,-55.1117 261.7622,-65.6924 268.788,-57.7621 262.3092,-55.1117"/>
</a>
</g>
</g>
<!-- Node8&#45;&gt;Node5 -->
<g id="edge9_Node000008_Node000005" class="edge">
<title>Node8&#45;&gt;Node5</title>
<g id="a_edge9_Node000008_Node000005"><a xlink:title=" ">
<path fill="none" stroke="#63b8ff" d="M301.9335,-62.0827C326.8684,-51.924 357.1827,-39.5737 380.5069,-30.0713"/>
<polygon fill="#63b8ff" stroke="#63b8ff" points="300.6064,-58.8439 292.6661,-65.8583 303.2476,-65.3266 300.6064,-58.8439"/>
</a>
</g>
</g>
<!-- Node8&#45;&gt;Node7 -->
<g id="edge10_Node000008_Node000007" class="edge">
<title>Node8&#45;&gt;Node7</title>
<g id="a_edge10_Node000008_Node000007"><a xlink:title=" ">
<path fill="none" stroke="#63b8ff" d="M219.805,-60.8643C202.228,-50.9491 181.3946,-39.197 165.2173,-30.0713"/>
<polygon fill="#63b8ff" stroke="#63b8ff" points="218.2284,-63.9934 228.6578,-65.8583 221.6677,-57.8966 218.2284,-63.9934"/>
</a>
</g>
</g>
<!-- Node10&#45;&gt;Node4 -->
<g id="edge13_Node000010_Node000004" class="edge">
<title>Node10&#45;&gt;Node4</title>
<g id="a_edge13_Node000010_Node000004"><a xlink:title=" ">
<path fill="none" stroke="#63b8ff" d="M366.5846,-60.8643C348.4068,-50.9491 326.8611,-39.197 310.1307,-30.0713"/>
<polygon fill="#63b8ff" stroke="#63b8ff" points="365.2852,-64.1423 375.7402,-65.8583 368.6372,-57.9971 365.2852,-64.1423"/>
</a>
</g>
</g>
<!-- Node10&#45;&gt;Node5 -->
<g id="edge14_Node000010_Node000005" class="edge">
<title>Node10&#45;&gt;Node5</title>
<g id="a_edge14_Node000010_Node000005"><a xlink:title=" ">
<path fill="none" stroke="#63b8ff" d="M408.8585,-55.7385C410.6831,-47.1369 412.6653,-37.792 414.2705,-30.2246"/>
<polygon fill="#63b8ff" stroke="#63b8ff" points="405.3984,-55.1837 406.7471,-65.6924 412.246,-56.6363 405.3984,-55.1837"/>
</a>
</g>
</g>
<!-- Node10&#45;&gt;Node9 -->
<g id="edge15_Node000010_Node000009" class="edge">
<title>Node10&#45;&gt;Node9</title>
<g id="a_edge15_Node000010_Node000009"><a xlink:title=" ">
<path fill="none" stroke="#63b8ff" d="M460.4763,-62.8337C492.727,-52.5508 532.588,-39.8415 563.1145,-30.1084"/>
<polygon fill="#63b8ff" stroke="#63b8ff" points="459.1947,-59.5686 450.7305,-65.941 461.3212,-66.2378 459.1947,-59.5686"/>
</a>
</g>
</g>
<!-- Node12&#45;&gt;Node4 -->
<g id="edge18_Node000012_Node000004" class="edge">
<title>Node12&#45;&gt;Node4</title>
<g id="a_edge18_Node000012_Node000004"><a xlink:title=" ">
<path fill="none" stroke="#63b8ff" d="M513.809,-65.2446C467.0186,-55.2154 405.19,-41.9163 350.5,-30 347.6651,-29.3823 344.764,-28.7486 341.8342,-28.1073"/>
<polygon fill="#63b8ff" stroke="#63b8ff" points="513.3458,-68.7248 523.8572,-67.3977 514.8125,-61.8801 513.3458,-68.7248"/>
</a>
</g>
</g>
<!-- Node12&#45;&gt;Node5 -->
<g id="edge19_Node000012_Node000005" class="edge">
<title>Node12&#45;&gt;Node5</title>
<g id="a_edge19_Node000012_Node000005"><a xlink:title=" ">
<path fill="none" stroke="#63b8ff" d="M539.119,-62.2168C512.8877,-52.0329 480.9037,-39.6156 456.32,-30.0713"/>
<polygon fill="#63b8ff" stroke="#63b8ff" points="537.9097,-65.5018 548.4986,-65.8583 540.4432,-58.9763 537.9097,-65.5018"/>
</a>
</g>
</g>
<!-- Node12&#45;&gt;Node11 -->
<g id="edge20_Node000012_Node000011" class="edge">
<title>Node12&#45;&gt;Node11</title>
<g id="a_edge20_Node000012_Node000011"><a xlink:title=" ">
<path fill="none" stroke="#63b8ff" d="M635.6532,-62.0827C661.5117,-51.924 692.9488,-39.5737 717.1368,-30.0713"/>
<polygon fill="#63b8ff" stroke="#63b8ff" points="634.0703,-58.944 626.0426,-65.8583 636.6299,-65.4593 634.0703,-58.944"/>
</a>
</g>
</g>
</g>
</svg>

<g id="navigator" transform="translate(0 0)" fill="#404254">
  <rect fill="#f2f5e9" fill-opacity="0.5" stroke="#606060" stroke-width=".5" x="0" y="0" width="60" height="60"/>
  <use id="zoomplus" xlink:href="#zoomPlus" x="17" y="9" onmousedown="handleZoom(evt,'in')"/>
  <use id="zoomminus" xlink:href="#zoomMin" x="42" y="9" onmousedown="handleZoom(evt,'out')"/>
  <use id="reset" xlink:href="#resetDef" x="30" y="36" onmousedown="handleReset()"/>
   <use id="arrowup" xlink:href="#arrowUp" x="0" y="0" onmousedown="handlePan(0,-1)"/>
  <use id="arrowright" xlink:href="#arrowRight" x="0" y="0" onmousedown="handlePan(1,0)"/>
  <use id="arrowdown" xlink:href="#arrowDown" x="0" y="0" onmousedown="handlePan(0,1)"/>
  <use id="arrowleft" xlink:href="#arrowLeft" x="0" y="0" onmousedown="handlePan(-1,0)"/>
</g>
<svg viewBox="0 0 15 15" width="100%" height="30px" preserveAspectRatio="xMaxYMin meet">
 <g id="arrow_out" transform="scale(0.3 0.3)">
  <a xlink:href="crypto_8h__dep__incl_org.svg" target="_base">
   <rect id="button" ry="5" rx="5" y="6" x="6" height="38" width="38"
        fill="#f2f5e9" fill-opacity="0.5" stroke="#606060" stroke-width="1.0"/>
   <path id="arrow"
     d="M 11.500037,31.436501 C 11.940474,20.09759 22.043105,11.32322 32.158766,21.979434 L 37.068811,17.246167 C 37.068811,17.246167 37.088388,32 37.088388,32 L 22.160133,31.978069 C 22.160133,31.978069 26.997745,27.140456 26.997745,27.140456 C 18.528582,18.264221 13.291696,25.230495 11.500037,31.436501 z"
     style="fill:#404040;"/>
  </a>
 </g>
</svg>

<style type='text/css'>
<![CDATA[
[data-mouse-over-selected='false'] { opacity: 0.7; }
[data-mouse-over-selected='true']  { opacity: 1.0; }
]]>
</style>
<script type="application/ecmascript"><![CDATA[
document.addEventListener('DOMContentLoaded', (event) => {
  highlightEdges();
  highlightAdjacentNodes();
});
]]></script>
</svg>
