<?xml version="1.0" encoding="UTF-8" standalone="no"?>
<!DOCTYPE svg PUBLIC "-//W3C//DTD SVG 1.1//EN"
 "http://www.w3.org/Graphics/SVG/1.1/DTD/svg11.dtd">
<!-- Generated by graphviz version 2.40.1 (0)
 -->
<!-- Title: porter/libsrc/porter/infra/crypto/crypto.h Pages: 1 -->
<svg width="225pt" height="93pt"
 viewBox="0.00 0.00 224.50 93.00" xmlns="http://www.w3.org/2000/svg" xmlns:xlink="http://www.w3.org/1999/xlink">
<g id="graph0" class="graph" transform="scale(1 1) rotate(0) translate(4 89)">
<title>porter/libsrc/porter/infra/crypto/crypto.h</title>
<!-- Node1 -->
<g id="Node000001" class="node">
<title>Node1</title>
<g id="a_Node000001"><a xlink:title="データ暗号化・復号モジュールの内部ヘッダー。">
<polygon fill="#999999" stroke="#666666" points="148.5,-85 41.5,-85 41.5,-55 148.5,-55 148.5,-85"/>
<text text-anchor="start" x="49.5" y="-73" font-family="Helvetica,sans-Serif" font-size="10.00" fill="#000000">porter/libsrc/porter</text>
<text text-anchor="middle" x="95" y="-62" font-family="Helvetica,sans-Serif" font-size="10.00" fill="#000000">/infra/crypto/crypto.h</text>
</a>
</g>
</g>
<!-- Node2 -->
<g id="Node000002" class="node">
<title>Node2</title>
<g id="a_Node000002"><a xlink:title=" ">
<polygon fill="#e0e0e0" stroke="#999999" points="52,-19 0,-19 0,0 52,0 52,-19"/>
<text text-anchor="middle" x="26" y="-7" font-family="Helvetica,sans-Serif" font-size="10.00" fill="#000000">stddef.h</text>
</a>
</g>
</g>
<!-- Node1&#45;&gt;Node2 -->
<g id="edge1_Node000001_Node000002" class="edge">
<title>Node1&#45;&gt;Node2</title>
<g id="a_edge1_Node000001_Node000002"><a xlink:title=" ">
<path fill="none" stroke="#63b8ff" d="M77.5884,-54.7333C67.5078,-45.8945 54.8231,-34.7724 44.5545,-25.7688"/>
<polygon fill="#63b8ff" stroke="#63b8ff" points="46.7598,-23.0475 36.9333,-19.0864 42.1448,-28.3109 46.7598,-23.0475"/>
</a>
</g>
</g>
<!-- Node3 -->
<g id="Node000003" class="node">
<title>Node3</title>
<g id="a_Node000003"><a xlink:title=" ">
<polygon fill="#e0e0e0" stroke="#999999" points="119.5,-19 70.5,-19 70.5,0 119.5,0 119.5,-19"/>
<text text-anchor="middle" x="95" y="-7" font-family="Helvetica,sans-Serif" font-size="10.00" fill="#000000">stdint.h</text>
</a>
</g>
</g>
<!-- Node1&#45;&gt;Node3 -->
<g id="edge2_Node000001_Node000003" class="edge">
<title>Node1&#45;&gt;Node3</title>
<g id="a_edge2_Node000001_Node000003"><a xlink:title=" ">
<path fill="none" stroke="#63b8ff" d="M95,-54.7333C95,-47.0322 95,-37.5977 95,-29.3414"/>
<polygon fill="#63b8ff" stroke="#63b8ff" points="98.5001,-29.0864 95,-19.0864 91.5001,-29.0864 98.5001,-29.0864"/>
</a>
</g>
</g>
<!-- Node4 -->
<g id="Node000004" class="node">
<title>Node4</title>
<g id="a_Node000004"><a xlink:href="porter__const_8h.html" target="_top" xlink:title="通信ライブラリの定数ファイル。">
<polygon fill="#ffffff" stroke="#666666" points="216.5,-19 137.5,-19 137.5,0 216.5,0 216.5,-19"/>
<text text-anchor="middle" x="177" y="-7" font-family="Helvetica,sans-Serif" font-size="10.00" fill="#000000">porter_const.h</text>
</a>
</g>
</g>
<!-- Node1&#45;&gt;Node4 -->
<g id="edge3_Node000001_Node000004" class="edge">
<title>Node1&#45;&gt;Node4</title>
<g id="a_edge3_Node000001_Node000004"><a xlink:title=" ">
<path fill="none" stroke="#63b8ff" d="M115.6921,-54.7333C127.9091,-45.7195 143.3447,-34.3311 155.6712,-25.2365"/>
<polygon fill="#63b8ff" stroke="#63b8ff" points="158.0379,-27.8399 164.0069,-19.0864 153.882,-22.207 158.0379,-27.8399"/>
</a>
</g>
</g>
</g>
</svg>
