<?xml version="1.0" encoding="UTF-8" standalone="no"?>
<!DOCTYPE svg PUBLIC "-//W3C//DTD SVG 1.1//EN"
 "http://www.w3.org/Graphics/SVG/1.1/DTD/svg11.dtd">
<!-- Generated by graphviz version 2.40.1 (0)
 -->
<!-- Title: porter/libsrc/porter Pages: 1 -->
<svg width="263pt" height="290pt"
 viewBox="0.00 0.00 262.96 290.00" xmlns="http://www.w3.org/2000/svg" xmlns:xlink="http://www.w3.org/1999/xlink">
<g id="graph0" class="graph" transform="scale(1 1) rotate(0) translate(4 286)">
<title>porter/libsrc/porter</title>
<g id="clust1" class="cluster">
<title>clusterdir_67ba40f6444fab6a6a1bd995386ad277</title>
<g id="a_clust1"><a xlink:href="dir_67ba40f6444fab6a6a1bd995386ad277.html" target="_top" xlink:title="libsrc">
<polygon fill="#edf0f7" stroke="#7f7f7f" stroke-dasharray="5,2" points="8,-39 8,-274 232,-274 232,-39 8,-39"/>
<text text-anchor="middle" x="120" y="-262" font-family="Helvetica,sans-Serif" font-size="10.00" fill="#000000">libsrc</text>
</a>
</g>
</g>
<g id="clust2" class="cluster">
<title>clusterdir_cb19616e52b0f3ba5d8daf8ba9075195</title>
<g id="a_clust2"><a xlink:href="dir_cb19616e52b0f3ba5d8daf8ba9075195.html" target="_top">
<polygon fill="#edf0f7" stroke="#404040" stroke-width="2" points="16,-47 16,-247 224,-247 224,-47 16,-47"/>
</a>
</g>
</g>
<!-- dir_cb19616e52b0f3ba5d8daf8ba9075195 -->
<g id="node1" class="node">
<title>dir_cb19616e52b0f3ba5d8daf8ba9075195</title>
<text text-anchor="middle" x="85" y="-172" font-family="Helvetica,sans-Serif" font-size="10.00" fill="#000000">porter</text>
</g>
<!-- dir_e6fbb223465ff4fa62321c24fc032170 -->
<g id="node3" class="node">
<title>dir_e6fbb223465ff4fa62321c24fc032170</title>
<g id="a_node3"><a xlink:href="dir_e6fbb223465ff4fa62321c24fc032170.html" target="_top" xlink:title="infra">
<polygon fill="#a2b4d6" stroke="#404040" points="97.5,-74 62.5,-74 62.5,-55 97.5,-55 97.5,-74"/>
<text text-anchor="middle" x="80" y="-62" font-family="Helvetica,sans-Serif" font-size="10.00" fill="#000000">infra</text>
</a>
</g>
</g>
<!-- dir_cb19616e52b0f3ba5d8daf8ba9075195&#45;&gt;dir_e6fbb223465ff4fa62321c24fc032170 -->
<g id="edge3" class="edge">
<title>dir_cb19616e52b0f3ba5d8daf8ba9075195&#45;&gt;dir_e6fbb223465ff4fa62321c24fc032170</title>
<g id="a_edge3"><a xlink:href="dir_000008_000005.html" target="_top">
<path fill="none" stroke="#63b8ff" d="M76.2154,-164.8939C68.9339,-156.233 59.1326,-142.7754 55,-129 50.2237,-113.0789 57.9195,-95.5198 65.9975,-82.7477"/>
<polygon fill="#63b8ff" stroke="#63b8ff" points="68.9701,-84.6025 71.7742,-74.3854 63.2107,-80.6238 68.9701,-84.6025"/>
</a>
</g>
<g id="a_edge3&#45;headlabel"><a xlink:href="dir_000008_000005.html" target="_top" xlink:title="20">
<text text-anchor="middle" x="69.2631" y="-86.6737" font-family="Helvetica,sans-Serif" font-size="10.00" fill="#63b8ff">20</text>
</a>
</g>
</g>
<!-- dir_d993ac7669cfe3def177e8c85bc6ec08 -->
<g id="node4" class="node">
<title>dir_d993ac7669cfe3def177e8c85bc6ec08</title>
<g id="a_node4"><a xlink:href="dir_d993ac7669cfe3def177e8c85bc6ec08.html" target="_top" xlink:title="protocol">
<polygon fill="#a2b4d6" stroke="#404040" points="115.5,-129 64.5,-129 64.5,-110 115.5,-110 115.5,-129"/>
<text text-anchor="middle" x="90" y="-117" font-family="Helvetica,sans-Serif" font-size="10.00" fill="#000000">protocol</text>
</a>
</g>
</g>
<!-- dir_cb19616e52b0f3ba5d8daf8ba9075195&#45;&gt;dir_d993ac7669cfe3def177e8c85bc6ec08 -->
<g id="edge2" class="edge">
<title>dir_cb19616e52b0f3ba5d8daf8ba9075195&#45;&gt;dir_d993ac7669cfe3def177e8c85bc6ec08</title>
<g id="a_edge2"><a xlink:href="dir_000008_000009.html" target="_top">
<path fill="none" stroke="#63b8ff" d="M85.8709,-164.9197C86.5083,-157.9083 87.396,-148.1442 88.185,-139.4652"/>
<polygon fill="#63b8ff" stroke="#63b8ff" points="91.6856,-139.6167 89.1054,-129.3408 84.7143,-138.9829 91.6856,-139.6167"/>
</a>
</g>
<g id="a_edge2&#45;headlabel"><a xlink:href="dir_000008_000009.html" target="_top" xlink:title="13">
<text text-anchor="middle" x="94.1878" y="-140.9535" font-family="Helvetica,sans-Serif" font-size="10.00" fill="#63b8ff">13</text>
</a>
</g>
</g>
<!-- dir_1e5ea896c89a57fb533cc05a7d6bb751 -->
<g id="node7" class="node">
<title>dir_1e5ea896c89a57fb533cc05a7d6bb751</title>
<g id="a_node7"><a xlink:href="dir_1e5ea896c89a57fb533cc05a7d6bb751.html" target="_top" xlink:title="include">
<polygon fill="#edf0f7" stroke="#7f7f7f" points="206.5,-19 159.5,-19 159.5,0 206.5,0 206.5,-19"/>
<text text-anchor="middle" x="183" y="-7" font-family="Helvetica,sans-Serif" font-size="10.00" fill="#000000">include</text>
</a>
</g>
</g>
<!-- dir_cb19616e52b0f3ba5d8daf8ba9075195&#45;&gt;dir_1e5ea896c89a57fb533cc05a7d6bb751 -->
<g id="edge1" class="edge">
<title>dir_cb19616e52b0f3ba5d8daf8ba9075195&#45;&gt;dir_1e5ea896c89a57fb533cc05a7d6bb751</title>
<g id="a_edge1"><a xlink:href="dir_000008_000004.html" target="_top">
<path fill="none" stroke="#63b8ff" d="M94.4354,-164.9539C102.8512,-156.1197 115.171,-142.3701 124,-129 145.9905,-95.699 165.1307,-53.0267 175.2794,-28.7266"/>
<polygon fill="#63b8ff" stroke="#63b8ff" points="178.6157,-29.8157 179.1742,-19.2356 172.1397,-27.1581 178.6157,-29.8157"/>
</a>
</g>
<g id="a_edge1&#45;headlabel"><a xlink:href="dir_000008_000004.html" target="_top" xlink:title="29">
<text text-anchor="middle" x="179.8777" y="-31.7191" font-family="Helvetica,sans-Serif" font-size="10.00" fill="#63b8ff">29</text>
</a>
</g>
</g>
<!-- dir_7824ef3598e1b069cc72e7e4663c3e6f -->
<g id="node2" class="node">
<title>dir_7824ef3598e1b069cc72e7e4663c3e6f</title>
<g id="a_node2"><a xlink:href="dir_7824ef3598e1b069cc72e7e4663c3e6f.html" target="_top" xlink:title="api">
<polygon fill="#a2b4d6" stroke="#404040" points="160.5,-239 131.5,-239 131.5,-220 160.5,-220 160.5,-239"/>
<text text-anchor="middle" x="146" y="-227" font-family="Helvetica,sans-Serif" font-size="10.00" fill="#000000">api</text>
</a>
</g>
</g>
<!-- dir_7824ef3598e1b069cc72e7e4663c3e6f&#45;&gt;dir_e6fbb223465ff4fa62321c24fc032170 -->
<g id="edge8" class="edge">
<title>dir_7824ef3598e1b069cc72e7e4663c3e6f&#45;&gt;dir_e6fbb223465ff4fa62321c24fc032170</title>
<g id="a_edge8"><a xlink:href="dir_000000_000005.html" target="_top">
<path fill="none" stroke="#63b8ff" d="M131.1435,-227.5694C108.6108,-223.7533 66.4682,-212.9362 48,-184 42.7209,-175.7286 37.6818,-148.5041 50,-110 53.184,-100.0475 59.204,-90.2143 65.0205,-82.2496"/>
<polygon fill="#63b8ff" stroke="#63b8ff" points="67.9511,-84.183 71.3391,-74.1444 62.4305,-79.8792 67.9511,-84.183"/>
</a>
</g>
<g id="a_edge8&#45;headlabel"><a xlink:href="dir_000000_000005.html" target="_top" xlink:title="8">
<text text-anchor="middle" x="67.9804" y="-86.2636" font-family="Helvetica,sans-Serif" font-size="10.00" fill="#63b8ff">8</text>
</a>
</g>
</g>
<!-- dir_7824ef3598e1b069cc72e7e4663c3e6f&#45;&gt;dir_d993ac7669cfe3def177e8c85bc6ec08 -->
<g id="edge7" class="edge">
<title>dir_7824ef3598e1b069cc72e7e4663c3e6f&#45;&gt;dir_d993ac7669cfe3def177e8c85bc6ec08</title>
<g id="a_edge7"><a xlink:href="dir_000000_000009.html" target="_top">
<path fill="none" stroke="#63b8ff" d="M131.4727,-227.0751C110.3387,-222.6803 71.808,-211.1959 55,-184 45.2576,-168.2364 57.8848,-149.5637 70.607,-136.3764"/>
<polygon fill="#63b8ff" stroke="#63b8ff" points="73.1684,-138.7688 77.9402,-129.3093 68.3109,-133.7284 73.1684,-138.7688"/>
</a>
</g>
<g id="a_edge7&#45;headlabel"><a xlink:href="dir_000000_000009.html" target="_top" xlink:title="5">
<text text-anchor="middle" x="72.5504" y="-140.8075" font-family="Helvetica,sans-Serif" font-size="10.00" fill="#63b8ff">5</text>
</a>
</g>
</g>
<!-- dir_0a3b865ba5de158f53f0489273cc2368 -->
<g id="node5" class="node">
<title>dir_0a3b865ba5de158f53f0489273cc2368</title>
<g id="a_node5"><a xlink:href="dir_0a3b865ba5de158f53f0489273cc2368.html" target="_top" xlink:title="thread">
<polygon fill="#a2b4d6" stroke="#404040" points="168,-184 124,-184 124,-165 168,-165 168,-184"/>
<text text-anchor="middle" x="146" y="-172" font-family="Helvetica,sans-Serif" font-size="10.00" fill="#000000">thread</text>
</a>
</g>
</g>
<!-- dir_7824ef3598e1b069cc72e7e4663c3e6f&#45;&gt;dir_0a3b865ba5de158f53f0489273cc2368 -->
<g id="edge4" class="edge">
<title>dir_7824ef3598e1b069cc72e7e4663c3e6f&#45;&gt;dir_0a3b865ba5de158f53f0489273cc2368</title>
<g id="a_edge4"><a xlink:href="dir_000000_000013.html" target="_top">
<path fill="none" stroke="#63b8ff" d="M146,-219.9197C146,-212.9083 146,-203.1442 146,-194.4652"/>
<polygon fill="#63b8ff" stroke="#63b8ff" points="149.5001,-194.3408 146,-184.3408 142.5001,-194.3409 149.5001,-194.3408"/>
</a>
</g>
<g id="a_edge4&#45;headlabel"><a xlink:href="dir_000000_000013.html" target="_top" xlink:title="6">
<text text-anchor="middle" x="152.3393" y="-195.4354" font-family="Helvetica,sans-Serif" font-size="10.00" fill="#63b8ff">6</text>
</a>
</g>
</g>
<!-- dir_73360a8c3810217557a8a196134bea06 -->
<g id="node6" class="node">
<title>dir_73360a8c3810217557a8a196134bea06</title>
<g id="a_node6"><a xlink:href="dir_73360a8c3810217557a8a196134bea06.html" target="_top" xlink:title="util">
<polygon fill="#a2b4d6" stroke="#404040" points="215.5,-184 186.5,-184 186.5,-165 215.5,-165 215.5,-184"/>
<text text-anchor="middle" x="201" y="-172" font-family="Helvetica,sans-Serif" font-size="10.00" fill="#000000">util</text>
</a>
</g>
</g>
<!-- dir_7824ef3598e1b069cc72e7e4663c3e6f&#45;&gt;dir_73360a8c3810217557a8a196134bea06 -->
<g id="edge6" class="edge">
<title>dir_7824ef3598e1b069cc72e7e4663c3e6f&#45;&gt;dir_73360a8c3810217557a8a196134bea06</title>
<g id="a_edge6"><a xlink:href="dir_000000_000014.html" target="_top">
<path fill="none" stroke="#63b8ff" d="M155.5803,-219.9197C163.3707,-212.1293 174.5595,-200.9405 183.8824,-191.6176"/>
<polygon fill="#63b8ff" stroke="#63b8ff" points="186.563,-193.8868 191.1592,-184.3408 181.6132,-188.937 186.563,-193.8868"/>
</a>
</g>
<g id="a_edge6&#45;headlabel"><a xlink:href="dir_000000_000014.html" target="_top" xlink:title="2">
<text text-anchor="middle" x="186.0289" y="-195.9362" font-family="Helvetica,sans-Serif" font-size="10.00" fill="#63b8ff">2</text>
</a>
</g>
</g>
<!-- dir_7824ef3598e1b069cc72e7e4663c3e6f&#45;&gt;dir_1e5ea896c89a57fb533cc05a7d6bb751 -->
<g id="edge5" class="edge">
<title>dir_7824ef3598e1b069cc72e7e4663c3e6f&#45;&gt;dir_1e5ea896c89a57fb533cc05a7d6bb751</title>
<g id="a_edge5"><a xlink:href="dir_000000_000004.html" target="_top">
<path fill="none" stroke="#63b8ff" d="M160.6786,-225.3972C178.9506,-219.4695 209.622,-206.6553 225,-184 261.2485,-130.598 265.0072,-95.047 233,-39 228.9585,-31.9231 222.4818,-26.3736 215.5115,-22.0928"/>
<polygon fill="#63b8ff" stroke="#63b8ff" points="217.0362,-18.9395 206.5645,-17.3294 213.7466,-25.1184 217.0362,-18.9395"/>
</a>
</g>
<g id="a_edge5&#45;headlabel"><a xlink:href="dir_000000_000004.html" target="_top" xlink:title="6">
<text text-anchor="middle" x="221.5435" y="-15.6225" font-family="Helvetica,sans-Serif" font-size="10.00" fill="#63b8ff">6</text>
</a>
</g>
</g>
<!-- dir_e6fbb223465ff4fa62321c24fc032170&#45;&gt;dir_1e5ea896c89a57fb533cc05a7d6bb751 -->
<g id="edge9" class="edge">
<title>dir_e6fbb223465ff4fa62321c24fc032170&#45;&gt;dir_1e5ea896c89a57fb533cc05a7d6bb751</title>
<g id="a_edge9"><a xlink:href="dir_000005_000004.html" target="_top">
<path fill="none" stroke="#63b8ff" d="M90.4121,-54.9715C96.4199,-49.7989 104.2923,-43.5504 112,-39 123.7907,-32.0391 137.532,-25.9201 149.7676,-21.0861"/>
<polygon fill="#63b8ff" stroke="#63b8ff" points="151.0944,-24.326 159.1915,-17.4931 148.6007,-17.7853 151.0944,-24.326"/>
</a>
</g>
<g id="a_edge9&#45;headlabel"><a xlink:href="dir_000005_000004.html" target="_top" xlink:title="8">
<text text-anchor="middle" x="148.7471" y="-25.7595" font-family="Helvetica,sans-Serif" font-size="10.00" fill="#63b8ff">8</text>
</a>
</g>
</g>
<!-- dir_d993ac7669cfe3def177e8c85bc6ec08&#45;&gt;dir_e6fbb223465ff4fa62321c24fc032170 -->
<g id="edge11" class="edge">
<title>dir_d993ac7669cfe3def177e8c85bc6ec08&#45;&gt;dir_e6fbb223465ff4fa62321c24fc032170</title>
<g id="a_edge11"><a xlink:href="dir_000009_000005.html" target="_top">
<path fill="none" stroke="#63b8ff" d="M88.2581,-109.9197C86.9833,-102.9083 85.208,-93.1442 83.63,-84.4652"/>
<polygon fill="#63b8ff" stroke="#63b8ff" points="87.0217,-83.5534 81.7892,-74.3408 80.1346,-84.8057 87.0217,-83.5534"/>
</a>
</g>
<g id="a_edge11&#45;headlabel"><a xlink:href="dir_000009_000005.html" target="_top" xlink:title="2">
<text text-anchor="middle" x="90.4581" y="-84.0822" font-family="Helvetica,sans-Serif" font-size="10.00" fill="#63b8ff">2</text>
</a>
</g>
</g>
<!-- dir_d993ac7669cfe3def177e8c85bc6ec08&#45;&gt;dir_1e5ea896c89a57fb533cc05a7d6bb751 -->
<g id="edge10" class="edge">
<title>dir_d993ac7669cfe3def177e8c85bc6ec08&#45;&gt;dir_1e5ea896c89a57fb533cc05a7d6bb751</title>
<g id="a_edge10"><a xlink:href="dir_000009_000004.html" target="_top">
<path fill="none" stroke="#63b8ff" d="M96.4314,-109.5945C106.8269,-93.8976 128.3521,-62.6644 150,-39 154.0847,-34.5348 158.7791,-30.0253 163.3215,-25.9211"/>
<polygon fill="#63b8ff" stroke="#63b8ff" points="165.9387,-28.2824 171.1693,-19.0687 161.3346,-23.0095 165.9387,-28.2824"/>
</a>
</g>
<g id="a_edge10&#45;headlabel"><a xlink:href="dir_000009_000004.html" target="_top" xlink:title="9">
<text text-anchor="middle" x="165.0985" y="-30.2853" font-family="Helvetica,sans-Serif" font-size="10.00" fill="#63b8ff">9</text>
</a>
</g>
</g>
<!-- dir_0a3b865ba5de158f53f0489273cc2368&#45;&gt;dir_e6fbb223465ff4fa62321c24fc032170 -->
<g id="edge14" class="edge">
<title>dir_0a3b865ba5de158f53f0489273cc2368&#45;&gt;dir_e6fbb223465ff4fa62321c24fc032170</title>
<g id="a_edge14"><a xlink:href="dir_000013_000005.html" target="_top">
<path fill="none" stroke="#63b8ff" d="M144.0793,-164.7454C141.1863,-151.5905 134.8605,-127.7667 124,-110 117.418,-99.2325 107.8865,-88.969 99.3765,-80.9242"/>
<polygon fill="#63b8ff" stroke="#63b8ff" points="101.7237,-78.3279 91.9622,-74.209 97.0246,-83.5162 101.7237,-78.3279"/>
</a>
</g>
<g id="a_edge14&#45;headlabel"><a xlink:href="dir_000013_000005.html" target="_top" xlink:title="7">
<text text-anchor="middle" x="106.2939" y="-76.1365" font-family="Helvetica,sans-Serif" font-size="10.00" fill="#63b8ff">7</text>
</a>
</g>
</g>
<!-- dir_0a3b865ba5de158f53f0489273cc2368&#45;&gt;dir_d993ac7669cfe3def177e8c85bc6ec08 -->
<g id="edge13" class="edge">
<title>dir_0a3b865ba5de158f53f0489273cc2368&#45;&gt;dir_d993ac7669cfe3def177e8c85bc6ec08</title>
<g id="a_edge13"><a xlink:href="dir_000013_000009.html" target="_top">
<path fill="none" stroke="#63b8ff" d="M136.2455,-164.9197C128.3135,-157.1293 116.9212,-145.9405 107.4288,-136.6176"/>
<polygon fill="#63b8ff" stroke="#63b8ff" points="109.6068,-133.8509 100.0198,-129.3408 104.7018,-138.845 109.6068,-133.8509"/>
</a>
</g>
<g id="a_edge13&#45;headlabel"><a xlink:href="dir_000013_000009.html" target="_top" xlink:title="7">
<text text-anchor="middle" x="114.1608" y="-131.8439" font-family="Helvetica,sans-Serif" font-size="10.00" fill="#63b8ff">7</text>
</a>
</g>
</g>
<!-- dir_0a3b865ba5de158f53f0489273cc2368&#45;&gt;dir_1e5ea896c89a57fb533cc05a7d6bb751 -->
<g id="edge12" class="edge">
<title>dir_0a3b865ba5de158f53f0489273cc2368&#45;&gt;dir_1e5ea896c89a57fb533cc05a7d6bb751</title>
<g id="a_edge12"><a xlink:href="dir_000013_000004.html" target="_top">
<path fill="none" stroke="#63b8ff" d="M155.2157,-164.9553C162.8836,-156.3338 173.2798,-142.8995 178,-129 189.4131,-95.3921 187.8144,-53.3888 185.4915,-29.1842"/>
<polygon fill="#63b8ff" stroke="#63b8ff" points="188.9576,-28.6835 184.3822,-19.1276 181.9998,-29.4511 188.9576,-28.6835"/>
</a>
</g>
<g id="a_edge12&#45;headlabel"><a xlink:href="dir_000013_000004.html" target="_top" xlink:title="4">
<text text-anchor="middle" x="192.1738" y="-29.4452" font-family="Helvetica,sans-Serif" font-size="10.00" fill="#63b8ff">4</text>
</a>
</g>
</g>
<!-- dir_73360a8c3810217557a8a196134bea06&#45;&gt;dir_1e5ea896c89a57fb533cc05a7d6bb751 -->
<g id="edge15" class="edge">
<title>dir_73360a8c3810217557a8a196134bea06&#45;&gt;dir_1e5ea896c89a57fb533cc05a7d6bb751</title>
<g id="a_edge15"><a xlink:href="dir_000014_000004.html" target="_top">
<path fill="none" stroke="#63b8ff" d="M205.3268,-164.7818C214.8974,-141.7761 235.524,-82.6411 216,-39 213.7817,-34.0415 210.2724,-29.5722 206.3542,-25.6998"/>
<polygon fill="#63b8ff" stroke="#63b8ff" points="208.4204,-22.8613 198.5474,-19.0175 203.8684,-28.1792 208.4204,-22.8613"/>
</a>
</g>
<g id="a_edge15&#45;headlabel"><a xlink:href="dir_000014_000004.html" target="_top" xlink:title="1">
<text text-anchor="middle" x="212.9975" y="-20.5418" font-family="Helvetica,sans-Serif" font-size="10.00" fill="#63b8ff">1</text>
</a>
</g>
</g>
</g>
</svg>
