<svg xmlns="http://www.w3.org/2000/svg" xmlns:xlink="http://www.w3.org/1999/xlink" contentStyleType="text/css" data-diagram-type="SEQUENCE" height="825px" preserveAspectRatio="none" style="width:907px;height:825px;background:#FFFFFF;" version="1.1" viewBox="0 0 907 825" width="907px" zoomAndPan="magnify"><defs/><g><text fill="#000000" font-family="sans-serif" font-size="14" lengthAdjust="spacing" textLength="174.9992" x="365.5005" y="812.8299">&#12504;&#12523;&#12473;&#12481;&#12455;&#12483;&#12463; (&#27491;&#24120;&#30094;&#36890;)</text><g><title>.......</title><rect fill="#000000" fill-opacity="0.00000" height="691.7103" width="8" x="111.9998" y="55.5598"/><line style="stroke:#181818;stroke-width:0.5;stroke-dasharray:5,5;" x1="115" x2="115" y1="55.5598" y2="747.2701"/></g><g><title>......</title><rect fill="#000000" fill-opacity="0.00000" height="691.7103" width="8" x="386" y="55.5598"/><line style="stroke:#181818;stroke-width:0.5;stroke-dasharray:5,5;" x1="389.0002" x2="389.0002" y1="55.5598" y2="747.2701"/></g><g><title>UDP</title><rect fill="#000000" fill-opacity="0.00000" height="691.7103" width="8" x="514.0001" y="55.5598"/><line style="stroke:#181818;stroke-width:0.5;stroke-dasharray:5,5;" x1="517.5001" x2="517.5001" y1="55.5598" y2="747.2701"/></g><g><title>......</title><rect fill="#000000" fill-opacity="0.00000" height="691.7103" width="8" x="642.0001" y="55.5598"/><line style="stroke:#181818;stroke-width:0.5;stroke-dasharray:5,5;" x1="645.0003" x2="645.0003" y1="55.5598" y2="747.2701"/></g><g class="participant participant-head" data-participant="HT"><rect fill="#E2E2F0" height="49.5598" rx="2.5" ry="2.5" style="stroke:#181818;stroke-width:0.5;" width="111.9996" x="60" y="5"/><text fill="#000000" font-family="sans-serif" font-size="14" lengthAdjust="spacing" textLength="97.9996" x="67" y="25.9999">&#12504;&#12523;&#12473;&#12481;&#12455;&#12483;&#12463;</text><text fill="#000000" font-family="sans-serif" font-size="14" lengthAdjust="spacing" textLength="55.9998" x="87.9999" y="43.7799">&#12473;&#12524;&#12483;&#12489;</text></g><g class="participant participant-tail" data-participant="HT"><rect fill="#E2E2F0" height="49.5598" rx="2.5" ry="2.5" style="stroke:#181818;stroke-width:0.5;" width="111.9996" x="60" y="746.2701"/><text fill="#000000" font-family="sans-serif" font-size="14" lengthAdjust="spacing" textLength="97.9996" x="67" y="767.2701">&#12504;&#12523;&#12473;&#12481;&#12455;&#12483;&#12463;</text><text fill="#000000" font-family="sans-serif" font-size="14" lengthAdjust="spacing" textLength="55.9998" x="87.9999" y="785.05">&#12473;&#12524;&#12483;&#12489;</text></g><g class="participant participant-head" data-participant="ST"><rect fill="#E2E2F0" height="31.7799" rx="2.5" ry="2.5" style="stroke:#181818;stroke-width:0.5;" width="97.9996" x="341.0002" y="22.7799"/><text fill="#000000" font-family="sans-serif" font-size="14" lengthAdjust="spacing" textLength="83.9996" x="348.0002" y="43.7799">&#36865;&#20449;&#12473;&#12524;&#12483;&#12489;</text></g><g class="participant participant-tail" data-participant="ST"><rect fill="#E2E2F0" height="31.7799" rx="2.5" ry="2.5" style="stroke:#181818;stroke-width:0.5;" width="97.9996" x="341.0002" y="746.2701"/><text fill="#000000" font-family="sans-serif" font-size="14" lengthAdjust="spacing" textLength="83.9996" x="348.0002" y="767.2701">&#36865;&#20449;&#12473;&#12524;&#12483;&#12489;</text></g><g class="participant participant-head" data-participant="UDP"><rect fill="#E2E2F0" height="31.7799" rx="2.5" ry="2.5" style="stroke:#181818;stroke-width:0.5;" width="34.9999" x="500.5001" y="22.7799"/><text fill="#000000" font-family="sans-serif" font-size="14" lengthAdjust="spacing" textLength="20.9999" x="507.5001" y="43.7799">UDP</text></g><g class="participant participant-tail" data-participant="UDP"><rect fill="#E2E2F0" height="31.7799" rx="2.5" ry="2.5" style="stroke:#181818;stroke-width:0.5;" width="34.9999" x="500.5001" y="746.2701"/><text fill="#000000" font-family="sans-serif" font-size="14" lengthAdjust="spacing" textLength="20.9999" x="507.5001" y="767.2701">UDP</text></g><g class="participant participant-head" data-participant="RRT"><rect fill="#E2E2F0" height="49.5598" rx="2.5" ry="2.5" style="stroke:#181818;stroke-width:0.5;" width="97.9996" x="597.0003" y="5"/><text fill="#000000" font-family="sans-serif" font-size="14" lengthAdjust="spacing" textLength="83.9996" x="604.0003" y="25.9999">&#21463;&#20449;&#12473;&#12524;&#12483;&#12489;</text><text fill="#000000" font-family="sans-serif" font-size="14" lengthAdjust="spacing" textLength="55.9998" x="618.0002" y="43.7799">(&#21463;&#20449;&#32773;)</text></g><g class="participant participant-tail" data-participant="RRT"><rect fill="#E2E2F0" height="49.5598" rx="2.5" ry="2.5" style="stroke:#181818;stroke-width:0.5;" width="97.9996" x="597.0003" y="746.2701"/><text fill="#000000" font-family="sans-serif" font-size="14" lengthAdjust="spacing" textLength="83.9996" x="604.0003" y="767.2701">&#21463;&#20449;&#12473;&#12524;&#12483;&#12489;</text><text fill="#000000" font-family="sans-serif" font-size="14" lengthAdjust="spacing" textLength="55.9998" x="618.0002" y="785.05">(&#21463;&#20449;&#32773;)</text></g><path d="M17,70.5598 L17,96.5598 L213,96.5598 L213,80.5598 L203,70.5598 L17,70.5598" fill="#FEFFDD" style="stroke:#181818;stroke-width:0.5;"/><path d="M203,70.5598 L203,80.5598 L213,80.5598 L203,70.5598" fill="#FEFFDD" style="stroke:#181818;stroke-width:0.5;"/><text fill="#000000" font-family="sans-serif" font-size="13" lengthAdjust="spacing" textLength="175.5" x="23" y="88.5599">health_interval_ms = 3000ms</text><g class="message" data-participant-1="HT" data-participant-2="HT"><line style="stroke:#181818;stroke-width:1;" x1="115.9998" x2="157.9998" y1="124.5799" y2="124.5799"/><line style="stroke:#181818;stroke-width:1;" x1="157.9998" x2="157.9998" y1="124.5799" y2="137.5799"/><line style="stroke:#181818;stroke-width:1;" x1="116.9998" x2="157.9998" y1="137.5799" y2="137.5799"/><polygon fill="#181818" points="126.9998,133.5799,116.9998,137.5799,126.9998,141.5799,122.9998,137.5799" style="stroke:#181818;stroke-width:1;"/><text fill="#000000" font-family="sans-serif" font-size="13" lengthAdjust="spacing" textLength="227.5001" x="122.9998" y="119.0699">last_send_ms &#12363;&#12425; 3000ms &#32076;&#36942;&#12434;&#30906;&#35469;</text></g><path d="M5,150.5799 L5,193.5799 L227,193.5799 L227,160.5799 L217,150.5799 L5,150.5799" fill="#FEFFDD" style="stroke:#181818;stroke-width:0.5;"/><path d="M217,150.5799 L217,160.5799 L227,160.5799 L217,150.5799" fill="#FEFFDD" style="stroke:#181818;stroke-width:0.5;"/><text fill="#000000" font-family="sans-serif" font-size="13" lengthAdjust="spacing" textLength="201.5001" x="11" y="168.5799">send_window.next_seq &#12434;&#35501;&#12415;&#21462;&#12427;</text><text fill="#000000" font-family="sans-serif" font-size="13" lengthAdjust="spacing" textLength="169.0002" x="11" y="185.0899">(&#12454;&#12451;&#12531;&#12489;&#12454;&#12395;&#12399;&#30331;&#37682;&#12375;&#12394;&#12356;)</text><g class="message" data-participant-1="HT" data-participant-2="UDP"><polygon fill="#181818" points="506.0001,217.1099,516.0001,221.1099,506.0001,225.1099,510.0001,221.1099" style="stroke:#181818;stroke-width:1;"/><line style="stroke:#181818;stroke-width:1;" x1="115.9998" x2="512.0001" y1="221.1099" y2="221.1099"/><text fill="#000000" font-family="sans-serif" font-size="13" lengthAdjust="spacing" textLength="162.5001" x="122.9998" y="215.5999">PING[seq=N] &#36865;&#20449; (&#20840;&#12497;&#12473;)</text></g><g class="message" data-participant-1="HT" data-participant-2="HT"><line style="stroke:#181818;stroke-width:1;" x1="115.9998" x2="157.9998" y1="251.6199" y2="251.6199"/><line style="stroke:#181818;stroke-width:1;" x1="157.9998" x2="157.9998" y1="251.6199" y2="264.6199"/><line style="stroke:#181818;stroke-width:1;" x1="116.9998" x2="157.9998" y1="264.6199" y2="264.6199"/><polygon fill="#181818" points="126.9998,260.6199,116.9998,264.6199,126.9998,268.6199,122.9998,264.6199" style="stroke:#181818;stroke-width:1;"/><text fill="#000000" font-family="sans-serif" font-size="13" lengthAdjust="spacing" textLength="123.5" x="122.9998" y="246.1099">last_send_ms &#12434;&#26356;&#26032;</text></g><g class="message" data-participant-1="UDP" data-participant-2="RRT"><polygon fill="#181818" points="634.0001,291.1299,644.0001,295.1299,634.0001,299.1299,638.0001,295.1299" style="stroke:#181818;stroke-width:1;"/><line style="stroke:#181818;stroke-width:1;" x1="518.0001" x2="640.0001" y1="295.1299" y2="295.1299"/><text fill="#000000" font-family="sans-serif" font-size="13" lengthAdjust="spacing" textLength="104" x="525.0001" y="289.6199">PING[seq=N] &#21463;&#20449;</text></g><g class="message" data-participant-1="RRT" data-participant-2="RRT"><line style="stroke:#181818;stroke-width:1;" x1="646.0001" x2="688.0001" y1="342.15" y2="342.15"/><line style="stroke:#181818;stroke-width:1;" x1="688.0001" x2="688.0001" y1="342.15" y2="355.15"/><line style="stroke:#181818;stroke-width:1;" x1="647.0001" x2="688.0001" y1="355.15" y2="355.15"/><polygon fill="#181818" points="657.0001,351.15,647.0001,355.15,657.0001,359.15,653.0001,355.15" style="stroke:#181818;stroke-width:1;"/><text fill="#000000" font-family="sans-serif" font-size="13" lengthAdjust="spacing" textLength="123.5" x="653.0001" y="320.13">last_recv_tv &#12434;&#26356;&#26032;</text><text fill="#000000" font-family="sans-serif" font-size="13" lengthAdjust="spacing" textLength="195.0002" x="653.0001" y="336.64">(&#12479;&#12452;&#12512;&#12450;&#12454;&#12488;&#12459;&#12454;&#12531;&#12479;&#12522;&#12475;&#12483;&#12488;)</text></g><g class="message" data-participant-1="RRT" data-participant-2="RRT"><line style="stroke:#181818;stroke-width:1;" x1="646.0001" x2="688.0001" y1="402.17" y2="402.17"/><line style="stroke:#181818;stroke-width:1;" x1="688.0001" x2="688.0001" y1="402.17" y2="415.17"/><line style="stroke:#181818;stroke-width:1;" x1="647.0001" x2="688.0001" y1="415.17" y2="415.17"/><polygon fill="#181818" points="657.0001,411.17,647.0001,415.17,657.0001,419.17,653.0001,415.17" style="stroke:#181818;stroke-width:1;"/><text fill="#000000" font-family="sans-serif" font-size="13" lengthAdjust="spacing" textLength="136.5" x="653.0001" y="380.15">notify_health_alive()</text><text fill="#000000" font-family="sans-serif" font-size="13" lengthAdjust="spacing" textLength="247.0001" x="653.0001" y="396.66">(health_alive=0 &#12398;&#12392;&#12365; CONNECTED &#30330;&#28779;)</text></g><g class="message" data-participant-1="RRT" data-participant-2="RRT"><line style="stroke:#181818;stroke-width:1;" x1="646.0001" x2="688.0001" y1="462.19" y2="462.19"/><line style="stroke:#181818;stroke-width:1;" x1="688.0001" x2="688.0001" y1="462.19" y2="475.19"/><line style="stroke:#181818;stroke-width:1;" x1="647.0001" x2="688.0001" y1="475.19" y2="475.19"/><polygon fill="#181818" points="657.0001,471.19,647.0001,475.19,657.0001,479.19,653.0001,475.19" style="stroke:#181818;stroke-width:1;"/><text fill="#000000" font-family="sans-serif" font-size="13" lengthAdjust="spacing" textLength="169.0001" x="653.0001" y="440.17">next_seq&#12316;N-1 &#12434;&#20840;&#12473;&#12461;&#12515;&#12531;</text><text fill="#000000" font-family="sans-serif" font-size="13" lengthAdjust="spacing" textLength="130.0001" x="653.0001" y="456.68">&#27424;&#30058;&#12434;&#19968;&#25324; NACK &#12377;&#12427;</text></g><path d="M570,488.19 L570,514.19 L721,514.19 L721,498.19 L711,488.19 L570,488.19" fill="#FEFFDD" style="stroke:#181818;stroke-width:0.5;"/><path d="M711,488.19 L711,498.19 L721,498.19 L711,488.19" fill="#FEFFDD" style="stroke:#181818;stroke-width:0.5;"/><text fill="#000000" font-family="sans-serif" font-size="13" lengthAdjust="spacing" textLength="130.0002" x="576" y="506.19">&#27424;&#30058;&#12394;&#12369;&#12428;&#12400;&#36820;&#20449;&#12394;&#12375;</text><g class="message" data-participant-1="HT" data-participant-2="HT"><line style="stroke:#181818;stroke-width:1;" x1="115.9998" x2="157.9998" y1="542.21" y2="542.21"/><line style="stroke:#181818;stroke-width:1;" x1="157.9998" x2="157.9998" y1="542.21" y2="555.21"/><line style="stroke:#181818;stroke-width:1;" x1="116.9998" x2="157.9998" y1="555.21" y2="555.21"/><polygon fill="#181818" points="126.9998,551.21,116.9998,555.21,126.9998,559.21,122.9998,555.21" style="stroke:#181818;stroke-width:1;"/><text fill="#000000" font-family="sans-serif" font-size="13" lengthAdjust="spacing" textLength="71.5" x="122.9998" y="536.7">3000ms &#24453;&#27231;</text></g><path d="M301,568.21 L301,594.21 L478,594.21 L478,578.21 L468,568.21 L301,568.21" fill="#FEFFDD" style="stroke:#181818;stroke-width:0.5;"/><path d="M468,568.21 L468,578.21 L478,578.21 L468,568.21" fill="#FEFFDD" style="stroke:#181818;stroke-width:0.5;"/><text fill="#000000" font-family="sans-serif" font-size="13" lengthAdjust="spacing" textLength="156.0002" x="307" y="586.2101">&#12487;&#12540;&#12479;&#36865;&#20449;&#12364;&#30330;&#29983;&#12375;&#12383;&#22580;&#21512;</text><g class="message" data-participant-1="ST" data-participant-2="UDP"><polygon fill="#181818" points="506.0001,618.2301,516.0001,622.2301,506.0001,626.2301,510.0001,622.2301" style="stroke:#181818;stroke-width:1;"/><line style="stroke:#181818;stroke-width:1;" x1="390" x2="512.0001" y1="622.2301" y2="622.2301"/><text fill="#000000" font-family="sans-serif" font-size="13" lengthAdjust="spacing" textLength="104" x="397" y="616.7201">DATA[seq=M] &#36865;&#20449;</text></g><g class="message" data-participant-1="ST" data-participant-2="HT"><polygon fill="#181818" points="126.9998,648.7401,116.9998,652.7401,126.9998,656.7401,122.9998,652.7401" style="stroke:#181818;stroke-width:1;"/><line style="stroke:#181818;stroke-width:1;" x1="120.9998" x2="389" y1="652.7401" y2="652.7401"/><text fill="#000000" font-family="sans-serif" font-size="13" lengthAdjust="spacing" textLength="110.5" x="132.9998" y="647.2301">last_send_ms &#26356;&#26032;</text></g><g class="message" data-participant-1="HT" data-participant-2="HT"><line style="stroke:#181818;stroke-width:1;" x1="115.9998" x2="157.9998" y1="716.2701" y2="716.2701"/><line style="stroke:#181818;stroke-width:1;" x1="157.9998" x2="157.9998" y1="716.2701" y2="729.2701"/><line style="stroke:#181818;stroke-width:1;" x1="116.9998" x2="157.9998" y1="729.2701" y2="729.2701"/><polygon fill="#181818" points="126.9998,725.2701,116.9998,729.2701,126.9998,733.2701,122.9998,729.2701" style="stroke:#181818;stroke-width:1;"/><text fill="#000000" font-family="sans-serif" font-size="13" lengthAdjust="spacing" textLength="240.5001" x="122.9998" y="677.7401">last_send_ms &#12363;&#12425; 3000ms &#26410;&#32076;&#36942;&#12434;&#30906;&#35469;</text><text fill="#000000" font-family="sans-serif" font-size="13" lengthAdjust="spacing" textLength="253.5002" x="122.9998" y="694.2501">&#8594; PING &#12479;&#12452;&#12510;&#12540;&#12434;&#12522;&#12475;&#12483;&#12488; (&#36865;&#20449;&#35211;&#36865;&#12426;)</text><text fill="#000000" font-family="sans-serif" font-size="13" lengthAdjust="spacing" textLength="240.5003" x="122.9998" y="710.7601">&#8594; &#27531;&#12426;&#26178;&#38291;&#12434;&#20877;&#35336;&#31639;&#12375;&#12390;&#12473;&#12522;&#12540;&#12503;&#12375;&#30452;&#12377;</text></g><!--SRC=[ZLDRRn9167tVNp7f4_jGW_6jIKr8QQmnhat19p5aGzTq4xeWRAY-CJEsqa9RnGfY6wcjgRZGIomcs1hvBtxT2__2cM5hWMhYqyv-bvCpvvn9g6bJJna8w3kWJI3VWM8Wdu5I8CSeu1pksvsEMzdevT_BafHMCwQUqDEgOQAnlwx4355eyJ-wEeRKB9g93k_rylYY-_7QM6Hax65uLjJPTxXXRrP7zcD6e5_qyikoM9gRYqgIaJ8rbCff6KPX0YreQj9SYEk6gMLoQZA-c4MJw5Om65pCIj9C58tV5cD9DMl6ivenpmS05u6i-bF8_LRguGqWPNVlpBFMH_35pf9kpAUMRXZQCmxo5B5Xppe4tBKtAq2AZ2YG0o3xG4yPRtx6JS37RksyL_eAk0hO0ln2zlcmgq-WsRlAdKSCQr9vZFhIeO2zt03wcaaW_vCvAJlRRQTo8aaCXOymIOR1-f99hFwdBI0oMY8NDtDN489r5yWdeBj0zZXhMW3I58TJtg8Ma7FXHK4U0cGIwK-UnttjrQIUqm8omniiJ0QPpaU06u3NqTG3HPcUYaw7aLixSt5p1CxN5V8xolXDpf0hmP903e5oKME6qzfrtp8wvOjEtYcsa1AQkiVmQqpz0SC4cZ_A9MTQbW2VUDqj7YrUgGw6mW-0_NFP-L8V35Q4DO6-1Fg3oU076vSuzQswiBDkxxRjLmL9Ybmv6Wv5GyA4-vUE-jrhBbvQ-5_nT7QiaOJ6Z5yhPU4vkZJmWw1Q7dGC1Veal8CYEm1Par5_qJbYy6jEZVGgRxZKA-jUe-0ULSN53iG3j3WSvHLtkyrK_Wq0]--></g></svg>