<svg xmlns="http://www.w3.org/2000/svg" xmlns:xlink="http://www.w3.org/1999/xlink" contentStyleType="text/css" data-diagram-type="SEQUENCE" height="559px" preserveAspectRatio="none" style="width:832px;height:559px;background:#FFFFFF;" version="1.1" viewBox="0 0 832 559" width="832px" zoomAndPan="magnify"><defs/><g><text fill="#000000" font-family="sans-serif" font-size="14" lengthAdjust="spacing" textLength="174.9992" x="327.5004" y="546.7498">&#27491;&#24120;&#36865;&#21463;&#20449; (&#12502;&#12525;&#12483;&#12461;&#12531;&#12464;)</text><g><title>...</title><rect fill="#FFFFFF" height="338.6101" style="stroke:#181818;stroke-width:1;" width="10" x="84.9999" y="88.0699"/></g><g><title>...</title><rect fill="#000000" fill-opacity="0.00000" height="425.6302" width="8" x="85.9999" y="55.5598"/><line style="stroke:#181818;stroke-width:0.5;stroke-dasharray:5,5;" x1="89" x2="89" y1="55.5598" y2="481.19"/></g><g><title>.....</title><rect fill="#000000" fill-opacity="0.00000" height="425.6302" width="8" x="415.4999" y="55.5598"/><line style="stroke:#181818;stroke-width:0.5;stroke-dasharray:5,5;" x1="418.5" x2="418.5" y1="55.5598" y2="481.19"/></g><g><title>......</title><rect fill="#000000" fill-opacity="0.00000" height="425.6302" width="8" x="683.0001" y="55.5598"/><line style="stroke:#181818;stroke-width:0.5;stroke-dasharray:5,5;" x1="686.0003" x2="686.0003" y1="55.5598" y2="481.19"/></g><g><title>UDP</title><rect fill="#000000" fill-opacity="0.00000" height="425.6302" width="8" x="804.5001" y="55.5598"/><line style="stroke:#181818;stroke-width:0.5;stroke-dasharray:5,5;" x1="808.0002" x2="808.0002" y1="55.5598" y2="481.19"/></g><g class="participant participant-head" data-participant="SAPP"><rect fill="#E2E2F0" height="49.5598" rx="2.5" ry="2.5" style="stroke:#181818;stroke-width:0.5;" width="69.9998" x="55" y="5"/><text fill="#000000" font-family="sans-serif" font-size="14" lengthAdjust="spacing" textLength="41.9998" x="69" y="25.9999">&#12450;&#12503;&#12522;</text><text fill="#000000" font-family="sans-serif" font-size="14" lengthAdjust="spacing" textLength="55.9998" x="62" y="43.7799">(&#36865;&#20449;&#20596;)</text></g><g class="participant participant-tail" data-participant="SAPP"><rect fill="#E2E2F0" height="49.5598" rx="2.5" ry="2.5" style="stroke:#181818;stroke-width:0.5;" width="69.9998" x="55" y="480.19"/><text fill="#000000" font-family="sans-serif" font-size="14" lengthAdjust="spacing" textLength="41.9998" x="69" y="501.19">&#12450;&#12503;&#12522;</text><text fill="#000000" font-family="sans-serif" font-size="14" lengthAdjust="spacing" textLength="55.9998" x="62" y="518.9699">(&#36865;&#20449;&#20596;)</text></g><g class="participant participant-head" data-participant="Q"><rect fill="#E2E2F0" height="31.7799" rx="2.5" ry="2.5" style="stroke:#181818;stroke-width:0.5;" width="83.9997" x="377.5" y="22.7799"/><text fill="#000000" font-family="sans-serif" font-size="14" lengthAdjust="spacing" textLength="69.9997" x="384.5" y="43.7799">&#36865;&#20449;&#12461;&#12517;&#12540;</text></g><g class="participant participant-tail" data-participant="Q"><rect fill="#E2E2F0" height="31.7799" rx="2.5" ry="2.5" style="stroke:#181818;stroke-width:0.5;" width="83.9997" x="377.5" y="480.19"/><text fill="#000000" font-family="sans-serif" font-size="14" lengthAdjust="spacing" textLength="69.9997" x="384.5" y="501.19">&#36865;&#20449;&#12461;&#12517;&#12540;</text></g><g class="participant participant-head" data-participant="ST"><rect fill="#E2E2F0" height="31.7799" rx="2.5" ry="2.5" style="stroke:#181818;stroke-width:0.5;" width="97.9996" x="638.0003" y="22.7799"/><text fill="#000000" font-family="sans-serif" font-size="14" lengthAdjust="spacing" textLength="83.9996" x="645.0003" y="43.7799">&#36865;&#20449;&#12473;&#12524;&#12483;&#12489;</text></g><g class="participant participant-tail" data-participant="ST"><rect fill="#E2E2F0" height="31.7799" rx="2.5" ry="2.5" style="stroke:#181818;stroke-width:0.5;" width="97.9996" x="638.0003" y="480.19"/><text fill="#000000" font-family="sans-serif" font-size="14" lengthAdjust="spacing" textLength="83.9996" x="645.0003" y="501.19">&#36865;&#20449;&#12473;&#12524;&#12483;&#12489;</text></g><g class="participant participant-head" data-participant="UDP"><rect fill="#E2E2F0" height="31.7799" rx="2.5" ry="2.5" style="stroke:#181818;stroke-width:0.5;" width="34.9999" x="791.0002" y="22.7799"/><text fill="#000000" font-family="sans-serif" font-size="14" lengthAdjust="spacing" textLength="20.9999" x="798.0002" y="43.7799">UDP</text></g><g class="participant participant-tail" data-participant="UDP"><rect fill="#E2E2F0" height="31.7799" rx="2.5" ry="2.5" style="stroke:#181818;stroke-width:0.5;" width="34.9999" x="791.0002" y="480.19"/><text fill="#000000" font-family="sans-serif" font-size="14" lengthAdjust="spacing" textLength="20.9999" x="798.0002" y="501.19">UDP</text></g><g><title>...</title><rect fill="#FFFFFF" height="338.6101" style="stroke:#181818;stroke-width:1;" width="10" x="84.9999" y="88.0699"/></g><g class="message" data-participant-1="SAPP" data-participant-2="Q"><polygon fill="#181818" points="407.4999,84.0699,417.4999,88.0699,407.4999,92.0699,411.4999,88.0699" style="stroke:#181818;stroke-width:1;"/><line style="stroke:#181818;stroke-width:1;" x1="94.9999" x2="413.4999" y1="88.0699" y2="88.0699"/><text fill="#000000" font-family="sans-serif" font-size="13" lengthAdjust="spacing" textLength="305.5" x="101.9999" y="82.5599">potrSend(handle, data, len, POTR_SEND_BLOCKING)</text></g><g class="message" data-participant-1="Q" data-participant-2="Q"><line style="stroke:#181818;stroke-width:1;" x1="419.4999" x2="461.4999" y1="135.0899" y2="135.0899"/><line style="stroke:#181818;stroke-width:1;" x1="461.4999" x2="461.4999" y1="135.0899" y2="148.0899"/><line style="stroke:#181818;stroke-width:1;" x1="420.4999" x2="461.4999" y1="148.0899" y2="148.0899"/><polygon fill="#181818" points="430.4999,144.0899,420.4999,148.0899,430.4999,152.0899,426.4999,148.0899" style="stroke:#181818;stroke-width:1;"/><text fill="#000000" font-family="sans-serif" font-size="13" lengthAdjust="spacing" textLength="253.5002" x="426.4999" y="113.0699">(1) &#26082;&#23384;&#12461;&#12517;&#12540;&#12364; drained &#12395;&#12394;&#12427;&#12414;&#12391;&#24453;&#27231;</text><text fill="#000000" font-family="sans-serif" font-size="13" lengthAdjust="spacing" textLength="175.5" x="432.9999" y="129.5799">count == 0 &amp;&amp; inflight == 0</text></g><path d="M424,161.0899 L424,187.0899 L614,187.0899 L614,171.0899 L604,161.0899 L424,161.0899" fill="#FEFFDD" style="stroke:#181818;stroke-width:0.5;"/><path d="M604,161.0899 L604,171.0899 L614,171.0899 L604,161.0899" fill="#FEFFDD" style="stroke:#181818;stroke-width:0.5;"/><text fill="#000000" font-family="sans-serif" font-size="13" lengthAdjust="spacing" textLength="169.0002" x="430" y="179.0899">&#21069;&#12398;&#36865;&#20449;&#12364;&#23436;&#20102;&#12377;&#12427;&#12414;&#12391;&#24453;&#12388;</text><g class="message" data-participant-1="Q" data-participant-2="Q"><line style="stroke:#181818;stroke-width:1;" x1="419.4999" x2="461.4999" y1="231.6199" y2="231.6199"/><line style="stroke:#181818;stroke-width:1;" x1="461.4999" x2="461.4999" y1="231.6199" y2="244.6199"/><line style="stroke:#181818;stroke-width:1;" x1="420.4999" x2="461.4999" y1="244.6199" y2="244.6199"/><polygon fill="#181818" points="430.4999,240.6199,420.4999,244.6199,430.4999,248.6199,426.4999,244.6199" style="stroke:#181818;stroke-width:1;"/><text fill="#000000" font-family="sans-serif" font-size="13" lengthAdjust="spacing" textLength="136.5001" x="426.4999" y="209.5999">(2) &#12456;&#12524;&#12513;&#12531;&#12488;&#12434; push</text><text fill="#000000" font-family="sans-serif" font-size="13" lengthAdjust="spacing" textLength="162.5001" x="432.9999" y="226.1099">inflight &#12434;&#12452;&#12531;&#12463;&#12522;&#12513;&#12531;&#12488;</text></g><g class="message" data-participant-1="Q" data-participant-2="ST"><polygon fill="#181818" points="675.0001,271.1299,685.0001,275.1299,675.0001,279.1299,679.0001,275.1299" style="stroke:#181818;stroke-width:1;"/><line style="stroke:#181818;stroke-width:1;" x1="419.4999" x2="681.0001" y1="275.1299" y2="275.1299"/><text fill="#000000" font-family="sans-serif" font-size="13" lengthAdjust="spacing" textLength="188.5001" x="426.4999" y="269.6199">pop &#8594; &#12497;&#12465;&#12483;&#12488;&#27083;&#31689; &#8594; sendto</text></g><g class="message" data-participant-1="ST" data-participant-2="UDP"><polygon fill="#181818" points="796.5001,301.64,806.5001,305.64,796.5001,309.64,800.5001,305.64" style="stroke:#181818;stroke-width:1;"/><line style="stroke:#181818;stroke-width:1;" x1="687.0001" x2="802.5001" y1="305.64" y2="305.64"/><text fill="#000000" font-family="sans-serif" font-size="13" lengthAdjust="spacing" textLength="97.5" x="694.0001" y="300.13">sendto (&#20840;&#12497;&#12473;)</text></g><g class="message" data-participant-1="ST" data-participant-2="Q"><polygon fill="#181818" points="430.4999,332.15,420.4999,336.15,430.4999,340.15,426.4999,336.15" style="stroke:#181818;stroke-width:1;"/><line style="stroke:#181818;stroke-width:1;" x1="424.4999" x2="686.0001" y1="336.15" y2="336.15"/><text fill="#000000" font-family="sans-serif" font-size="13" lengthAdjust="spacing" textLength="221.0001" x="436.4999" y="330.64">complete() (inflight &#12487;&#12463;&#12522;&#12513;&#12531;&#12488;)</text></g><g class="message" data-participant-1="Q" data-participant-2="Q"><line style="stroke:#181818;stroke-width:1;" x1="419.4999" x2="461.4999" y1="383.17" y2="383.17"/><line style="stroke:#181818;stroke-width:1;" x1="461.4999" x2="461.4999" y1="383.17" y2="396.17"/><line style="stroke:#181818;stroke-width:1;" x1="420.4999" x2="461.4999" y1="396.17" y2="396.17"/><polygon fill="#181818" points="430.4999,392.17,420.4999,396.17,430.4999,400.17,426.4999,396.17" style="stroke:#181818;stroke-width:1;"/><text fill="#000000" font-family="sans-serif" font-size="13" lengthAdjust="spacing" textLength="104" x="426.4999" y="361.15">(3) drained &#24453;&#27231;</text><text fill="#000000" font-family="sans-serif" font-size="13" lengthAdjust="spacing" textLength="175.5" x="432.9999" y="377.66">count == 0 &amp;&amp; inflight == 0</text></g><g class="message" data-participant-1="Q" data-participant-2="SAPP"><polygon fill="#181818" points="100.9999,422.68,90.9999,426.68,100.9999,430.68,96.9999,426.68" style="stroke:#181818;stroke-width:1;"/><line style="stroke:#181818;stroke-width:1;stroke-dasharray:2,2;" x1="94.9999" x2="418.4999" y1="426.68" y2="426.68"/><text fill="#000000" font-family="sans-serif" font-size="13" lengthAdjust="spacing" textLength="78" x="106.9999" y="421.17">POTR_SUCCESS</text></g><path d="M5,439.68 L5,465.68 L175,465.68 L175,449.68 L165,439.68 L5,439.68" fill="#FEFFDD" style="stroke:#181818;stroke-width:0.5;"/><path d="M165,439.68 L165,449.68 L175,449.68 L165,439.68" fill="#FEFFDD" style="stroke:#181818;stroke-width:0.5;"/><text fill="#000000" font-family="sans-serif" font-size="13" lengthAdjust="spacing" textLength="149.5001" x="11" y="457.68">&#36820;&#21364;&#26178;&#28857;&#12391; UDP &#36865;&#20449;&#28168;&#12415;</text><!--SRC=[ZL9TJnD157tVNt730zb9QkB7MnDCj11ZDD2wvOs4J7ONkqcTtMm7dfsTW6qeCH93uSc0c29QqCX3COR-5o-xwBzmPdPJ2_71bvtidNFlEVUSSMd4Wv11DdYV3eU_NuhqTUzoj0ysoXsK0vGI4_NzXiaNObaHZNdW1X5b7AOmEK3PGtcyn6pLgBfISKQcWBR0UL2jNWVd03Fh0yeV1bNxD-GSvMVDAplvhFfrsE9irTJLQLcQ26xTXrePef37Ziyykq6Pr_HBu55EIz3qMGcg2_LdoyxS_EpomwSBbIUFvnyHYxeyMAFSpyLQjMACVOT0rZj81xjZiIYwuCKqOBu7A3wXECPa4yK5YdvwiPvzVBV4m0rNbRYP6RWDqzCGi9LcyBoH5omMAfRO_8ShcYFjRA4uAVOLtVIaU_bz0yNUv5WKXnEYxXB0vCWOiw_Ja6rCjY5QRJKKzvXDrJ0vD6cTgbp6s6AGKzSkHV1pOnjGli7agx6vdVKthquxfjnI1lBGSkeQhnmk5nMmq_KZqtDEYbibomrVH4sV-pO1-wy8-Ue6FPbOv1uPM_bVtkbEBLrbL2vYNAnKvXp7ylmR2HgRmpK_Bj2_Hc_JhRDiBxbIJqhqzJgGUvuDsoX6Vm00]--></g></svg>