<svg xmlns="http://www.w3.org/2000/svg" xmlns:xlink="http://www.w3.org/1999/xlink" contentStyleType="text/css" data-diagram-type="SEQUENCE" height="726px" preserveAspectRatio="none" style="width:923px;height:726px;background:#FFFFFF;" version="1.1" viewBox="0 0 923 726" width="923px" zoomAndPan="magnify"><defs/><g><text fill="#000000" font-family="sans-serif" font-size="14" lengthAdjust="spacing" textLength="160.9993" x="380.5003" y="713.2999">REJECT &#12395;&#12424;&#12427;&#20999;&#26029;&#12392;&#24489;&#24112;</text><g><title>......</title><rect fill="#000000" fill-opacity="0.00000" height="592.1802" width="8" x="117.9998" y="55.5598"/><line style="stroke:#181818;stroke-width:0.5;stroke-dasharray:5,5;" x1="121" x2="121" y1="55.5598" y2="647.7401"/></g><g><title>UDP</title><rect fill="#000000" fill-opacity="0.00000" height="592.1802" width="8" x="415" y="55.5598"/><line style="stroke:#181818;stroke-width:0.5;stroke-dasharray:5,5;" x1="418.5" x2="418.5" y1="55.5598" y2="647.7401"/></g><g><title>......</title><rect fill="#000000" fill-opacity="0.00000" height="592.1802" width="8" x="582" y="55.5598"/><line style="stroke:#181818;stroke-width:0.5;stroke-dasharray:5,5;" x1="585.0002" x2="585.0002" y1="55.5598" y2="647.7401"/></g><g><title>...</title><rect fill="#000000" fill-opacity="0.00000" height="592.1802" width="8" x="879" y="55.5598"/><line style="stroke:#181818;stroke-width:0.5;stroke-dasharray:5,5;" x1="882.0001" x2="882.0001" y1="55.5598" y2="647.7401"/></g><g class="participant participant-head" data-participant="ST"><rect fill="#E2E2F0" height="31.7799" rx="2.5" ry="2.5" style="stroke:#181818;stroke-width:0.5;" width="97.9996" x="73" y="22.7799"/><text fill="#000000" font-family="sans-serif" font-size="14" lengthAdjust="spacing" textLength="83.9996" x="80" y="43.7799">&#36865;&#20449;&#12473;&#12524;&#12483;&#12489;</text></g><g class="participant participant-tail" data-participant="ST"><rect fill="#E2E2F0" height="31.7799" rx="2.5" ry="2.5" style="stroke:#181818;stroke-width:0.5;" width="97.9996" x="73" y="646.7401"/><text fill="#000000" font-family="sans-serif" font-size="14" lengthAdjust="spacing" textLength="83.9996" x="80" y="667.74">&#36865;&#20449;&#12473;&#12524;&#12483;&#12489;</text></g><g class="participant participant-head" data-participant="UDP"><rect fill="#E2E2F0" height="31.7799" rx="2.5" ry="2.5" style="stroke:#181818;stroke-width:0.5;" width="34.9999" x="401.5" y="22.7799"/><text fill="#000000" font-family="sans-serif" font-size="14" lengthAdjust="spacing" textLength="20.9999" x="408.5" y="43.7799">UDP</text></g><g class="participant participant-tail" data-participant="UDP"><rect fill="#E2E2F0" height="31.7799" rx="2.5" ry="2.5" style="stroke:#181818;stroke-width:0.5;" width="34.9999" x="401.5" y="646.7401"/><text fill="#000000" font-family="sans-serif" font-size="14" lengthAdjust="spacing" textLength="20.9999" x="408.5" y="667.74">UDP</text></g><g class="participant participant-head" data-participant="RRT"><rect fill="#E2E2F0" height="31.7799" rx="2.5" ry="2.5" style="stroke:#181818;stroke-width:0.5;" width="97.9996" x="537.0002" y="22.7799"/><text fill="#000000" font-family="sans-serif" font-size="14" lengthAdjust="spacing" textLength="83.9996" x="544.0002" y="43.7799">&#21463;&#20449;&#12473;&#12524;&#12483;&#12489;</text></g><g class="participant participant-tail" data-participant="RRT"><rect fill="#E2E2F0" height="31.7799" rx="2.5" ry="2.5" style="stroke:#181818;stroke-width:0.5;" width="97.9996" x="537.0002" y="646.7401"/><text fill="#000000" font-family="sans-serif" font-size="14" lengthAdjust="spacing" textLength="83.9996" x="544.0002" y="667.74">&#21463;&#20449;&#12473;&#12524;&#12483;&#12489;</text></g><g class="participant participant-head" data-participant="RAPP"><rect fill="#E2E2F0" height="49.5598" rx="2.5" ry="2.5" style="stroke:#181818;stroke-width:0.5;" width="69.9998" x="848.0001" y="5"/><text fill="#000000" font-family="sans-serif" font-size="14" lengthAdjust="spacing" textLength="41.9998" x="862.0001" y="25.9999">&#12450;&#12503;&#12522;</text><text fill="#000000" font-family="sans-serif" font-size="14" lengthAdjust="spacing" textLength="55.9998" x="855.0001" y="43.7799">(&#21463;&#20449;&#20596;)</text></g><g class="participant participant-tail" data-participant="RAPP"><rect fill="#E2E2F0" height="49.5598" rx="2.5" ry="2.5" style="stroke:#181818;stroke-width:0.5;" width="69.9998" x="848.0001" y="646.7401"/><text fill="#000000" font-family="sans-serif" font-size="14" lengthAdjust="spacing" textLength="41.9998" x="862.0001" y="667.74">&#12450;&#12503;&#12522;</text><text fill="#000000" font-family="sans-serif" font-size="14" lengthAdjust="spacing" textLength="55.9998" x="855.0001" y="685.52">(&#21463;&#20449;&#20596;)</text></g><g class="message" data-participant-1="ST" data-participant-2="UDP"><polygon fill="#181818" points="407,84.0699,417,88.0699,407,92.0699,411,88.0699" style="stroke:#181818;stroke-width:1;"/><line style="stroke:#181818;stroke-width:1;" x1="121.9998" x2="413" y1="88.0699" y2="88.0699"/><text fill="#000000" font-family="sans-serif" font-size="13" lengthAdjust="spacing" textLength="273.0002" x="128.9998" y="82.5599">DATA[seq=0..15] &#36865;&#20449; (&#12454;&#12451;&#12531;&#12489;&#12454;&#12469;&#12452;&#12474; 16)</text></g><path d="M5,101.0699 L5,127.0699 L240,127.0699 L240,111.0699 L230,101.0699 L5,101.0699" fill="#FEFFDD" style="stroke:#181818;stroke-width:0.5;"/><path d="M230,101.0699 L230,111.0699 L240,111.0699 L230,101.0699" fill="#FEFFDD" style="stroke:#181818;stroke-width:0.5;"/><text fill="#000000" font-family="sans-serif" font-size="13" lengthAdjust="spacing" textLength="214.5002" x="11" y="119.0699">&#12454;&#12451;&#12531;&#12489;&#12454;&#12364;&#28288;&#26479;&#8594; seq=0 &#12434; evict</text><g class="message" data-participant-1="ST" data-participant-2="UDP"><polygon fill="#181818" points="407,151.0899,417,155.0899,407,159.0899,411,155.0899" style="stroke:#181818;stroke-width:1;"/><line style="stroke:#181818;stroke-width:1;" x1="121.9998" x2="413" y1="155.0899" y2="155.0899"/><text fill="#000000" font-family="sans-serif" font-size="13" lengthAdjust="spacing" textLength="266.5001" x="128.9998" y="149.5799">DATA[seq=16] &#36865;&#20449; (seq=0 &#12364; evict &#12373;&#12428;&#12427;)</text></g><g class="message" data-participant-1="UDP" data-participant-2="RRT"><polygon fill="#FF0000" points="574,181.5999,584,185.5999,574,189.5999,578,185.5999" style="stroke:#FF0000;stroke-width:1;"/><line style="stroke:#FF0000;stroke-width:1;" x1="419" x2="580" y1="185.5999" y2="185.5999"/><text fill="#000000" font-family="sans-serif" font-size="13" lengthAdjust="spacing" textLength="117" x="426" y="180.0899">DATA[seq=0] &#12525;&#12473;&#12488;</text></g><g class="message" data-participant-1="RRT" data-participant-2="RRT"><line style="stroke:#181818;stroke-width:1;" x1="586" x2="628" y1="216.1099" y2="216.1099"/><line style="stroke:#181818;stroke-width:1;" x1="628" x2="628" y1="216.1099" y2="229.1099"/><line style="stroke:#181818;stroke-width:1;" x1="587" x2="628" y1="229.1099" y2="229.1099"/><polygon fill="#181818" points="597,225.1099,587,229.1099,597,233.1099,593,229.1099" style="stroke:#181818;stroke-width:1;"/><text fill="#000000" font-family="sans-serif" font-size="13" lengthAdjust="spacing" textLength="117.0001" x="593" y="210.5999">seq=0 &#12398;&#27424;&#30058;&#12434;&#26908;&#20986;</text></g><g class="message" data-participant-1="RRT" data-participant-2="UDP"><polygon fill="#181818" points="430,255.6199,420,259.6199,430,263.6199,426,259.6199" style="stroke:#181818;stroke-width:1;"/><line style="stroke:#181818;stroke-width:1;" x1="424" x2="585" y1="259.6199" y2="259.6199"/><text fill="#000000" font-family="sans-serif" font-size="13" lengthAdjust="spacing" textLength="130" x="436" y="254.1099">NACK[ack_num=0] &#36865;&#20449;</text></g><g class="message" data-participant-1="UDP" data-participant-2="ST"><polygon fill="#181818" points="132.9998,286.1299,122.9998,290.1299,132.9998,294.1299,128.9998,290.1299" style="stroke:#181818;stroke-width:1;"/><line style="stroke:#181818;stroke-width:1;" x1="126.9998" x2="418" y1="290.1299" y2="290.1299"/><text fill="#000000" font-family="sans-serif" font-size="13" lengthAdjust="spacing" textLength="130" x="138.9998" y="284.6199">NACK[ack_num=0] &#21463;&#20449;</text></g><g class="message" data-participant-1="ST" data-participant-2="ST"><line style="stroke:#181818;stroke-width:1;" x1="121.9998" x2="163.9998" y1="337.15" y2="337.15"/><line style="stroke:#181818;stroke-width:1;" x1="163.9998" x2="163.9998" y1="337.15" y2="350.15"/><line style="stroke:#181818;stroke-width:1;" x1="122.9998" x2="163.9998" y1="350.15" y2="350.15"/><polygon fill="#181818" points="132.9998,346.15,122.9998,350.15,132.9998,354.15,128.9998,350.15" style="stroke:#181818;stroke-width:1;"/><text fill="#000000" font-family="sans-serif" font-size="13" lengthAdjust="spacing" textLength="201.5002" x="128.9998" y="315.13">&#36865;&#20449;&#12454;&#12451;&#12531;&#12489;&#12454;&#12363;&#12425; seq=0 &#12434;&#26908;&#32034;</text><text fill="#000000" font-family="sans-serif" font-size="13" lengthAdjust="spacing" textLength="175.5002" x="128.9998" y="331.64">&#8594; evict &#28168;&#12415;&#12391;&#35211;&#12388;&#12363;&#12425;&#12394;&#12356;</text></g><g class="message" data-participant-1="ST" data-participant-2="UDP"><polygon fill="#181818" points="407,376.66,417,380.66,407,384.66,411,380.66" style="stroke:#181818;stroke-width:1;"/><line style="stroke:#181818;stroke-width:1;" x1="121.9998" x2="413" y1="380.66" y2="380.66"/><text fill="#000000" font-family="sans-serif" font-size="13" lengthAdjust="spacing" textLength="143" x="128.9998" y="375.15">REJECT[ack_num=0] &#36865;&#20449;</text></g><g class="message" data-participant-1="UDP" data-participant-2="RRT"><polygon fill="#181818" points="574,407.17,584,411.17,574,415.17,578,411.17" style="stroke:#181818;stroke-width:1;"/><line style="stroke:#181818;stroke-width:1;" x1="419" x2="580" y1="411.17" y2="411.17"/><text fill="#000000" font-family="sans-serif" font-size="13" lengthAdjust="spacing" textLength="143" x="426" y="405.66">REJECT[ack_num=0] &#21463;&#20449;</text></g><g class="message" data-participant-1="RRT" data-participant-2="RAPP"><polygon fill="#181818" points="871,437.68,881,441.68,871,445.68,875,441.68" style="stroke:#181818;stroke-width:1;"/><line style="stroke:#181818;stroke-width:1;" x1="586" x2="877" y1="441.68" y2="441.68"/><text fill="#000000" font-family="sans-serif" font-size="13" lengthAdjust="spacing" textLength="273" x="593" y="436.17">callback(POTR_EVENT_DISCONNECTED, NULL, 0)</text></g><g class="message" data-participant-1="RRT" data-participant-2="RRT"><line style="stroke:#181818;stroke-width:1;" x1="586" x2="628" y1="488.7" y2="488.7"/><line style="stroke:#181818;stroke-width:1;" x1="628" x2="628" y1="488.7" y2="501.7"/><line style="stroke:#181818;stroke-width:1;" x1="587" x2="628" y1="501.7" y2="501.7"/><polygon fill="#181818" points="597,497.7,587,501.7,597,505.7,593,501.7" style="stroke:#181818;stroke-width:1;"/><text fill="#000000" font-family="sans-serif" font-size="13" lengthAdjust="spacing" textLength="136.5001" x="593" y="466.68">&#27424;&#33853; seq=0 &#12434;&#12473;&#12461;&#12483;&#12503;</text><text fill="#000000" font-family="sans-serif" font-size="13" lengthAdjust="spacing" textLength="149.5001" x="593" y="483.19">&#27425;&#12398;&#36890;&#30058; seq=1 &#12363;&#12425;&#20877;&#38283;</text></g><path d="M503,514.7 L503,540.7 L667,540.7 L667,524.7 L657,514.7 L503,514.7" fill="#FEFFDD" style="stroke:#181818;stroke-width:0.5;"/><path d="M657,514.7 L657,524.7 L667,524.7 L657,514.7" fill="#FEFFDD" style="stroke:#181818;stroke-width:0.5;"/><text fill="#000000" font-family="sans-serif" font-size="13" lengthAdjust="spacing" textLength="143.0002" x="509" y="532.7">&#27425;&#12398;&#12497;&#12465;&#12483;&#12488;&#21040;&#30528;&#12391;&#24489;&#24112;</text><g class="message" data-participant-1="UDP" data-participant-2="RRT"><polygon fill="#181818" points="574,564.7201,584,568.7201,574,572.7201,578,568.7201" style="stroke:#181818;stroke-width:1;"/><line style="stroke:#181818;stroke-width:1;" x1="419" x2="580" y1="568.7201" y2="568.7201"/><text fill="#000000" font-family="sans-serif" font-size="13" lengthAdjust="spacing" textLength="110.5" x="426" y="563.2101">DATA[seq=17] &#21463;&#20449;</text></g><g class="message" data-participant-1="RRT" data-participant-2="RAPP"><polygon fill="#181818" points="871,595.2301,881,599.2301,871,603.2301,875,599.2301" style="stroke:#181818;stroke-width:1;"/><line style="stroke:#181818;stroke-width:1;" x1="586" x2="877" y1="599.2301" y2="599.2301"/><text fill="#000000" font-family="sans-serif" font-size="13" lengthAdjust="spacing" textLength="253.5" x="593" y="593.7201">callback(POTR_EVENT_CONNECTED, NULL, 0)</text></g><g class="message" data-participant-1="RRT" data-participant-2="RAPP"><polygon fill="#181818" points="871,625.7401,881,629.7401,871,633.7401,875,629.7401" style="stroke:#181818;stroke-width:1;"/><line style="stroke:#181818;stroke-width:1;" x1="586" x2="877" y1="629.7401" y2="629.7401"/><text fill="#000000" font-family="sans-serif" font-size="13" lengthAdjust="spacing" textLength="195" x="593" y="624.2301">callback(POTR_EVENT_DATA, ...)</text></g><!--SRC=[XLDTRz9G6BxlhtWpRo1XpRXm9YII4E12NJe2dJT0IAsz8Cw2hEwQSsgsBc3SbcmanYLkaga8EkDC9edkl_ZQClw5f-UKyU7ShdhIypplyz6tkbQroXKJikdxwQGAI3uXTP0sN6VJs-yX-U3- -kYUdKXILQjPPRrSrKmBvePrykVy4EaFjBjessXlpO6s1Zbr6hQIol3tx3bzuRvgNSNFPcS683r2kuLsfs261CSbfs61JMGoafHJOJxkpuz1Ag4cycl6ixiBiXozNGJX4K98Zv6-G_iRK-7dxqZRIFiGNGnBabcn3AYi6pLcFWQpMDBq-dNluCllZLtWenbY5upricvThHrT70i71D8K17RQGzfatJ9PneBv_AsQyRWOzsDFsYy2sZtUZID9xCvNuP3HmCzUz-rWhyEiUEqtxcP_1E9Mb4JoGLxJdvJCvq_zMS9De1ZdAMSXejaWZmyOVTwPCXf8jyOrCEt1wL71zBiH0Rqp1yavalSNnmqaRK50qa7oOgejiMlNcEHf_qK5FYyxOHiG0rrRNNt4GA7CifejfH-c5RMKkfTBBYiAewTJ4L1MbfOYi12Uwf9LUB7zSvp6xvls-2ws2gRNFMGr3-klMSqS4mMHnjruETnlJAvDCCt7exs3z2kVuRZEoU2WpheO_J-JqSRhSkSorOsXhalq_oQOKWHaMGx_1G00]--></g></svg>