<svg xmlns="http://www.w3.org/2000/svg" xmlns:xlink="http://www.w3.org/1999/xlink" contentStyleType="text/css" data-diagram-type="SEQUENCE" height="738px" preserveAspectRatio="none" style="width:808px;height:738px;background:#FFFFFF;" version="1.1" viewBox="0 0 808 738" width="808px" zoomAndPan="magnify"><defs/><g><text fill="#000000" font-family="sans-serif" font-size="14" lengthAdjust="spacing" textLength="146.9994" x="329.9997" y="725.2999">&#12469;&#12540;&#12499;&#12473;&#38283;&#22987; (&#36865;&#20449;&#32773;)</text><g><title>potrOpenService</title><rect fill="#FFFFFF" height="413.66" style="stroke:#181818;stroke-width:1;" width="10" x="279.4999" y="86.7999"/></g><g><title>......</title><rect fill="#FFFFFF" height="168.0601" style="stroke:#181818;stroke-width:1;" width="10" x="463" y="500.4599"/></g><g><title>......</title><rect fill="#FFFFFF" height="168.0601" style="stroke:#181818;stroke-width:1;" width="10" x="570.9996" y="500.4599"/></g><g><title>...........</title><rect fill="#FFFFFF" height="168.0601" style="stroke:#181818;stroke-width:1;" width="10" x="713.9991" y="500.4599"/></g><g><title>...</title><rect fill="#000000" fill-opacity="0.00000" height="639.7401" width="8" x="28.9999" y="37.7799"/><line style="stroke:#181818;stroke-width:0.5;stroke-dasharray:5,5;" x1="32" x2="32" y1="37.7799" y2="677.52"/></g><g><title>potrOpenService</title><rect fill="#000000" fill-opacity="0.00000" height="639.7401" width="8" x="280.4999" y="37.7799"/><line style="stroke:#181818;stroke-width:0.5;stroke-dasharray:5,5;" x1="284.0001" x2="284.0001" y1="37.7799" y2="677.52"/></g><g><title>......</title><rect fill="#000000" fill-opacity="0.00000" height="300.76" width="8" x="464" y="376.76"/><line style="stroke:#181818;stroke-width:0.5;stroke-dasharray:5,5;" x1="467.0002" x2="467.0002" y1="376.76" y2="677.52"/></g><g><title>......</title><rect fill="#000000" fill-opacity="0.00000" height="257.9801" width="8" x="571.9996" y="419.5399"/><line style="stroke:#181818;stroke-width:0.5;stroke-dasharray:5,5;" x1="574.9998" x2="574.9998" y1="419.5399" y2="677.52"/></g><g><title>...........</title><rect fill="#000000" fill-opacity="0.00000" height="213.0801" width="8" x="714.9991" y="464.4399"/><line style="stroke:#181818;stroke-width:0.5;stroke-dasharray:5,5;" x1="717.9994" x2="717.9994" y1="464.4399" y2="677.52"/></g><g class="participant participant-head" data-participant="APP"><rect fill="#E2E2F0" height="31.7799" rx="2.5" ry="2.5" style="stroke:#181818;stroke-width:0.5;" width="55.9998" x="5" y="5"/><text fill="#000000" font-family="sans-serif" font-size="14" lengthAdjust="spacing" textLength="41.9998" x="12" y="25.9999">&#12450;&#12503;&#12522;</text></g><g class="participant participant-tail" data-participant="APP"><rect fill="#E2E2F0" height="31.7799" rx="2.5" ry="2.5" style="stroke:#181818;stroke-width:0.5;" width="55.9998" x="5" y="676.52"/><text fill="#000000" font-family="sans-serif" font-size="14" lengthAdjust="spacing" textLength="41.9998" x="12" y="697.52">&#12450;&#12503;&#12522;</text></g><g class="participant participant-head" data-participant="OPEN"><rect fill="#E2E2F0" height="31.7799" rx="2.5" ry="2.5" style="stroke:#181818;stroke-width:0.5;" width="118.9995" x="225.0001" y="5"/><text fill="#000000" font-family="sans-serif" font-size="14" lengthAdjust="spacing" textLength="104.9995" x="232.0001" y="25.9999">potrOpenService</text></g><g class="participant participant-tail" data-participant="OPEN"><rect fill="#E2E2F0" height="31.7799" rx="2.5" ry="2.5" style="stroke:#181818;stroke-width:0.5;" width="118.9995" x="225.0001" y="676.52"/><text fill="#000000" font-family="sans-serif" font-size="14" lengthAdjust="spacing" textLength="104.9995" x="232.0001" y="697.52">potrOpenService</text></g><g class="participant participant-tail" data-participant="RT"><rect fill="#E2E2F0" height="31.7799" rx="2.5" ry="2.5" style="stroke:#181818;stroke-width:0.5;" width="97.9996" x="419.0002" y="676.52"/><text fill="#000000" font-family="sans-serif" font-size="14" lengthAdjust="spacing" textLength="83.9996" x="426.0002" y="697.52">&#21463;&#20449;&#12473;&#12524;&#12483;&#12489;</text></g><g class="participant participant-tail" data-participant="ST"><rect fill="#E2E2F0" height="31.7799" rx="2.5" ry="2.5" style="stroke:#181818;stroke-width:0.5;" width="97.9996" x="526.9998" y="676.52"/><text fill="#000000" font-family="sans-serif" font-size="14" lengthAdjust="spacing" textLength="83.9996" x="533.9998" y="697.52">&#36865;&#20449;&#12473;&#12524;&#12483;&#12489;</text></g><g class="participant participant-tail" data-participant="HT"><rect fill="#E2E2F0" height="31.7799" rx="2.5" ry="2.5" style="stroke:#181818;stroke-width:0.5;" width="167.9993" x="634.9994" y="676.52"/><text fill="#000000" font-family="sans-serif" font-size="14" lengthAdjust="spacing" textLength="153.9993" x="641.9994" y="697.52">&#12504;&#12523;&#12473;&#12481;&#12455;&#12483;&#12463;&#12473;&#12524;&#12483;&#12489;</text></g><g><title>potrOpenService</title><rect fill="#FFFFFF" height="413.66" style="stroke:#181818;stroke-width:1;" width="10" x="279.4999" y="86.7999"/></g><g><title>......</title><rect fill="#FFFFFF" height="168.0601" style="stroke:#181818;stroke-width:1;" width="10" x="463" y="500.4599"/></g><g><title>......</title><rect fill="#FFFFFF" height="168.0601" style="stroke:#181818;stroke-width:1;" width="10" x="570.9996" y="500.4599"/></g><g><title>...........</title><rect fill="#FFFFFF" height="168.0601" style="stroke:#181818;stroke-width:1;" width="10" x="713.9991" y="500.4599"/></g><g class="message" data-participant-1="APP" data-participant-2="OPEN"><polygon fill="#181818" points="267.4999,82.7999,277.4999,86.7999,267.4999,90.7999,271.4999,86.7999" style="stroke:#181818;stroke-width:1;"/><line style="stroke:#181818;stroke-width:1;" x1="32.9999" x2="273.4999" y1="86.7999" y2="86.7999"/><text fill="#000000" font-family="sans-serif" font-size="13" lengthAdjust="spacing" textLength="227.5" x="39.9999" y="64.7799">potrOpenService(config, service_id,</text><text fill="#000000" font-family="sans-serif" font-size="13" lengthAdjust="spacing" textLength="208" x="39.9999" y="81.2899">POTR_ROLE_SENDER, NULL, &amp;handle)</text></g><g class="message" data-participant-1="OPEN" data-participant-2="OPEN"><line style="stroke:#181818;stroke-width:1;" x1="289.4999" x2="331.4999" y1="117.31" y2="117.31"/><line style="stroke:#181818;stroke-width:1;" x1="331.4999" x2="331.4999" y1="117.31" y2="130.31"/><line style="stroke:#181818;stroke-width:1;" x1="290.4999" x2="331.4999" y1="130.31" y2="130.31"/><polygon fill="#181818" points="300.4999,126.31,290.4999,130.31,300.4999,134.31,296.4999,130.31" style="stroke:#181818;stroke-width:1;"/><text fill="#000000" font-family="sans-serif" font-size="13" lengthAdjust="spacing" textLength="104.0001" x="296.4999" y="111.8">&#35373;&#23450;&#12501;&#12449;&#12452;&#12523;&#35299;&#26512;</text></g><g class="message" data-participant-1="OPEN" data-participant-2="OPEN"><line style="stroke:#181818;stroke-width:1;" x1="289.4999" x2="331.4999" y1="177.33" y2="177.33"/><line style="stroke:#181818;stroke-width:1;" x1="331.4999" x2="331.4999" y1="177.33" y2="190.33"/><line style="stroke:#181818;stroke-width:1;" x1="290.4999" x2="331.4999" y1="190.33" y2="190.33"/><polygon fill="#181818" points="300.4999,186.33,290.4999,190.33,300.4999,194.33,296.4999,190.33" style="stroke:#181818;stroke-width:1;"/><text fill="#000000" font-family="sans-serif" font-size="13" lengthAdjust="spacing" textLength="130.0002" x="296.4999" y="155.31">&#12475;&#12483;&#12471;&#12519;&#12531;&#35672;&#21029;&#23376;&#29983;&#25104;</text><text fill="#000000" font-family="sans-serif" font-size="13" lengthAdjust="spacing" textLength="149.5001" x="296.4999" y="171.82">(session_id + &#29694;&#22312;&#26178;&#21051;)</text></g><g class="message" data-participant-1="OPEN" data-participant-2="OPEN"><line style="stroke:#181818;stroke-width:1;" x1="289.4999" x2="331.4999" y1="237.35" y2="237.35"/><line style="stroke:#181818;stroke-width:1;" x1="331.4999" x2="331.4999" y1="237.35" y2="250.35"/><line style="stroke:#181818;stroke-width:1;" x1="290.4999" x2="331.4999" y1="250.35" y2="250.35"/><polygon fill="#181818" points="300.4999,246.35,290.4999,250.35,300.4999,254.35,296.4999,250.35" style="stroke:#181818;stroke-width:1;"/><text fill="#000000" font-family="sans-serif" font-size="13" lengthAdjust="spacing" textLength="143.3121" x="296.4999" y="215.33">UDP &#12477;&#12465;&#12483;&#12488;&#20316;&#25104;&#12539;bind</text><text fill="#000000" font-family="sans-serif" font-size="13" lengthAdjust="spacing" textLength="130" x="296.4999" y="231.84">(src_addr, src_port)</text></g><g class="message" data-participant-1="OPEN" data-participant-2="OPEN"><line style="stroke:#181818;stroke-width:1;" x1="289.4999" x2="331.4999" y1="280.86" y2="280.86"/><line style="stroke:#181818;stroke-width:1;" x1="331.4999" x2="331.4999" y1="280.86" y2="293.86"/><line style="stroke:#181818;stroke-width:1;" x1="290.4999" x2="331.4999" y1="293.86" y2="293.86"/><polygon fill="#181818" points="300.4999,289.86,290.4999,293.86,300.4999,297.86,296.4999,293.86" style="stroke:#181818;stroke-width:1;"/><text fill="#000000" font-family="sans-serif" font-size="13" lengthAdjust="spacing" textLength="104.0001" x="296.4999" y="275.35">&#36865;&#20449;&#12461;&#12517;&#12540;&#21021;&#26399;&#21270;</text></g><g class="message" data-participant-1="OPEN" data-participant-2="OPEN"><line style="stroke:#181818;stroke-width:1;" x1="289.4999" x2="331.4999" y1="324.37" y2="324.37"/><line style="stroke:#181818;stroke-width:1;" x1="331.4999" x2="331.4999" y1="324.37" y2="337.37"/><line style="stroke:#181818;stroke-width:1;" x1="290.4999" x2="331.4999" y1="337.37" y2="337.37"/><polygon fill="#181818" points="300.4999,333.37,290.4999,337.37,300.4999,341.37,296.4999,337.37" style="stroke:#181818;stroke-width:1;"/><text fill="#000000" font-family="sans-serif" font-size="13" lengthAdjust="spacing" textLength="130.0002" x="296.4999" y="318.86">&#36865;&#20449;&#12454;&#12451;&#12531;&#12489;&#12454;&#21021;&#26399;&#21270;</text></g><g class="message" data-participant-1="OPEN" data-participant-2="RT"><polygon fill="#181818" points="407.0002,363.8801,417.0002,367.8801,407.0002,371.8801,411.0002,367.8801" style="stroke:#181818;stroke-width:1;"/><line style="stroke:#181818;stroke-width:1;" x1="289.4999" x2="413.0002" y1="367.8801" y2="367.8801"/><text fill="#000000" font-family="sans-serif" font-size="13" lengthAdjust="spacing" textLength="104.0001" x="296.4999" y="362.3701">&#21463;&#20449;&#12473;&#12524;&#12483;&#12489;&#36215;&#21205;</text></g><rect fill="#E2E2F0" height="31.7799" rx="2.5" ry="2.5" style="stroke:#181818;stroke-width:0.5;" width="97.9996" x="419.0002" y="345.37"/><text fill="#000000" font-family="sans-serif" font-size="14" lengthAdjust="spacing" textLength="83.9996" x="426.0002" y="366.37">&#21463;&#20449;&#12473;&#12524;&#12483;&#12489;</text><g class="message" data-participant-1="OPEN" data-participant-2="ST"><polygon fill="#181818" points="514.9998,406.66,524.9998,410.66,514.9998,414.66,518.9998,410.66" style="stroke:#181818;stroke-width:1;"/><line style="stroke:#181818;stroke-width:1;" x1="289.4999" x2="520.9998" y1="410.66" y2="410.66"/><text fill="#000000" font-family="sans-serif" font-size="13" lengthAdjust="spacing" textLength="104.0001" x="296.4999" y="405.15">&#36865;&#20449;&#12473;&#12524;&#12483;&#12489;&#36215;&#21205;</text></g><rect fill="#E2E2F0" height="31.7799" rx="2.5" ry="2.5" style="stroke:#181818;stroke-width:0.5;" width="97.9996" x="526.9998" y="388.15"/><text fill="#000000" font-family="sans-serif" font-size="14" lengthAdjust="spacing" textLength="83.9996" x="533.9998" y="409.1499">&#36865;&#20449;&#12473;&#12524;&#12483;&#12489;</text><g class="message" data-participant-1="OPEN" data-participant-2="HT"><polygon fill="#181818" points="622.9994,465.9499,632.9994,469.9499,622.9994,473.9499,626.9994,469.9499" style="stroke:#181818;stroke-width:1;"/><line style="stroke:#181818;stroke-width:1;" x1="289.4999" x2="628.9994" y1="469.9499" y2="469.9499"/><text fill="#000000" font-family="sans-serif" font-size="13" lengthAdjust="spacing" textLength="169.0002" x="296.4999" y="447.9299">&#12504;&#12523;&#12473;&#12481;&#12455;&#12483;&#12463;&#12473;&#12524;&#12483;&#12489;&#36215;&#21205;</text><text fill="#000000" font-family="sans-serif" font-size="13" lengthAdjust="spacing" textLength="188.5" x="296.4999" y="464.4399">(health_interval_ms &gt; 0 &#12398;&#12415;)</text></g><rect fill="#E2E2F0" height="31.7799" rx="2.5" ry="2.5" style="stroke:#181818;stroke-width:0.5;" width="167.9993" x="634.9994" y="435.17"/><text fill="#000000" font-family="sans-serif" font-size="14" lengthAdjust="spacing" textLength="153.9993" x="641.9994" y="456.1699">&#12504;&#12523;&#12473;&#12481;&#12455;&#12483;&#12463;&#12473;&#12524;&#12483;&#12489;</text><g class="message" data-participant-1="OPEN" data-participant-2="APP"><polygon fill="#181818" points="43.9999,496.4599,33.9999,500.4599,43.9999,504.4599,39.9999,500.4599" style="stroke:#181818;stroke-width:1;"/><line style="stroke:#181818;stroke-width:1;stroke-dasharray:2,2;" x1="37.9999" x2="283.4999" y1="500.4599" y2="500.4599"/><text fill="#000000" font-family="sans-serif" font-size="13" lengthAdjust="spacing" textLength="136.5" x="49.9999" y="494.9499">POTR_SUCCESS, *handle</text></g><path d="M379,513.4599 L379,556.4599 L556,556.4599 L556,523.4599 L546,513.4599 L379,513.4599" fill="#FEFFDD" style="stroke:#181818;stroke-width:0.5;"/><path d="M546,513.4599 L546,523.4599 L556,523.4599 L546,513.4599" fill="#FEFFDD" style="stroke:#181818;stroke-width:0.5;"/><text fill="#000000" font-family="sans-serif" font-size="13" lengthAdjust="spacing" textLength="117" x="385" y="531.4599">NACK/REJECT/FIN &#12434;</text><text fill="#000000" font-family="sans-serif" font-size="13" lengthAdjust="spacing" textLength="156.0002" x="385" y="547.97">&#24453;&#27231;&#12377;&#12427;&#12509;&#12540;&#12522;&#12531;&#12464;&#12523;&#12540;&#12503;</text><path d="M487,566.48 L487,609.48 L664,609.48 L664,576.48 L654,566.48 L487,566.48" fill="#FEFFDD" style="stroke:#181818;stroke-width:0.5;"/><path d="M654,566.48 L654,576.48 L664,576.48 L654,566.48" fill="#FEFFDD" style="stroke:#181818;stroke-width:0.5;"/><text fill="#000000" font-family="sans-serif" font-size="13" lengthAdjust="spacing" textLength="78.0001" x="493" y="584.48">&#36865;&#20449;&#12461;&#12517;&#12540;&#12434;</text><text fill="#000000" font-family="sans-serif" font-size="13" lengthAdjust="spacing" textLength="156.0002" x="493" y="600.99">&#24453;&#27231;&#12377;&#12427;&#12509;&#12540;&#12522;&#12531;&#12464;&#12523;&#12540;&#12503;</text><path d="M643,619.5 L643,662.5 L794,662.5 L794,629.5 L784,619.5 L643,619.5" fill="#FEFFDD" style="stroke:#181818;stroke-width:0.5;"/><path d="M784,619.5 L784,629.5 L794,629.5 L784,619.5" fill="#FEFFDD" style="stroke:#181818;stroke-width:0.5;"/><text fill="#000000" font-family="sans-serif" font-size="13" lengthAdjust="spacing" textLength="130.0001" x="649" y="637.5">&#27425;&#22238; PING &#36865;&#20449;&#26178;&#21051;&#12434;</text><text fill="#000000" font-family="sans-serif" font-size="13" lengthAdjust="spacing" textLength="104.0001" x="649" y="654.01">&#35336;&#31639;&#12375;&#12390;&#12473;&#12522;&#12540;&#12503;</text><!--SRC=[dPDHQzfW58Rl_HKVlHZg7Dsr5uLYizbDL99u9qYMP3FWeYJ1wvgFGeQ3ohRMThELhcjrhhgDKSfmRN_CwQVflzX9icfLnc0GmWbvydxlEU-9B5KihQmJiC-0_WBw5koVDpjrrgcJyCr6xVhgqDtOZ8H25ScmD5chIBf5bi3-2BG9jBT499EiPhEphojboyXKL5rGZQecgpwKoNBfMOfjDL4TZmDw2fG2VUM3l3YB1IOMC64E0xeBz8kFrS3kUAJzTU6hf1WAeLtoOCKt52TpLiDoMN-klOWHCtWkQ4eihsSp8b_WCock873fDOwFaNGkbOgHUqL9LqegJaUIBQqgMMhGfdUR7k5s-spm7kWssDZ69tJfTev61uqv3EoXR_eSABh_uVPtcNFC-etnk_R8QUJriAcQ9YQ5biXzCjwwPAtkQCzcpZ0ofvHRowBQ1TZV_SwTwuiMAW0TFjDqnHCov8AaA0PsYLMbR5Zp2hSpxmCzngrWplwerMQlT_w2dO1zX9Pno5XFuGdDYz5ed2pcxPwTi_hs11DyR37lEIpfO__CE_WAsosgKiag5ZJTmaobKk6bILR8GmAr0TIk8hSkKHWN8qxyh8LS8i49Gen4WuH3YZgRy3HmNDT9BToflKtJorYKgwg1L9oaLnDFbtdk2PSGbn-jfp6YDtcTNMwEFhUXjWTs7UY-_mlsl5dQtxpslCVc7Hr1N0ZdVsIIA3CwFMGV3aXsFVtuZsImJRwUstN6WoRKy3hnXzeBD7u3]--></g></svg>