<?xml version="1.0" encoding="UTF-8" standalone="no"?>
<!DOCTYPE svg PUBLIC "-//W3C//DTD SVG 1.1//EN"
 "http://www.w3.org/Graphics/SVG/1.1/DTD/svg11.dtd">
<!-- Generated by graphviz version 2.40.1 (0)
 -->
<!-- Title: porter/libsrc/porter/protocol/packet.h Pages: 1 -->
<svg width="815pt" height="104pt"
 viewBox="0.00 0.00 814.50 104.00" xmlns="http://www.w3.org/2000/svg" xmlns:xlink="http://www.w3.org/1999/xlink">
<g id="graph0" class="graph" transform="scale(1 1) rotate(0) translate(4 100)">
<title>porter/libsrc/porter/protocol/packet.h</title>
<!-- Node1 -->
<g id="Node000001" class="node">
<title>Node1</title>
<g id="a_Node000001"><a xlink:title="パケット構築・解析モジュールの内部ヘッダー。">
<polygon fill="#999999" stroke="#666666" points="431.5,-96 336.5,-96 336.5,-66 431.5,-66 431.5,-96"/>
<text text-anchor="start" x="344.5" y="-84" font-family="Helvetica,sans-Serif" font-size="10.00" fill="#000000">porter/libsrc/porter</text>
<text text-anchor="middle" x="384" y="-73" font-family="Helvetica,sans-Serif" font-size="10.00" fill="#000000">/protocol/packet.h</text>
</a>
</g>
</g>
<!-- Node2 -->
<g id="Node000002" class="node">
<title>Node2</title>
<g id="a_Node000002"><a xlink:href="potrCloseService_8c.html" target="_top" xlink:title=" ">
<polygon fill="#ffffff" stroke="#666666" points="118,-30 0,-30 0,0 118,0 118,-30"/>
<text text-anchor="start" x="8" y="-18" font-family="Helvetica,sans-Serif" font-size="10.00" fill="#000000">porter/libsrc/porter</text>
<text text-anchor="middle" x="59" y="-7" font-family="Helvetica,sans-Serif" font-size="10.00" fill="#000000">/api/potrCloseService.c</text>
</a>
</g>
</g>
<!-- Node1&#45;&gt;Node2 -->
<g id="edge1_Node000001_Node000002" class="edge">
<title>Node1&#45;&gt;Node2</title>
<g id="a_edge1_Node000001_Node000002"><a xlink:title=" ">
<path fill="none" stroke="#63b8ff" d="M326.036,-69.8616C273.901,-59.7566 195.2433,-44.2964 127,-30 124.1602,-29.4051 121.2552,-28.7899 118.3222,-28.1634"/>
<polygon fill="#63b8ff" stroke="#63b8ff" points="325.6155,-73.3451 336.0984,-71.8092 326.9458,-66.4726 325.6155,-73.3451"/>
</a>
</g>
</g>
<!-- Node3 -->
<g id="Node000003" class="node">
<title>Node3</title>
<g id="a_Node000003"><a xlink:href="potrOpenService_8c.html" target="_top" xlink:title="potrOpenService 関数の実装。">
<polygon fill="#ffffff" stroke="#666666" points="252,-30 136,-30 136,0 252,0 252,-30"/>
<text text-anchor="start" x="144" y="-18" font-family="Helvetica,sans-Serif" font-size="10.00" fill="#000000">porter/libsrc/porter</text>
<text text-anchor="middle" x="194" y="-7" font-family="Helvetica,sans-Serif" font-size="10.00" fill="#000000">/api/potrOpenService.c</text>
</a>
</g>
</g>
<!-- Node1&#45;&gt;Node3 -->
<g id="edge2_Node000001_Node000003" class="edge">
<title>Node1&#45;&gt;Node3</title>
<g id="a_edge2_Node000001_Node000003"><a xlink:title=" ">
<path fill="none" stroke="#63b8ff" d="M330.6971,-62.4843C301.2375,-52.2509 265.104,-39.6993 237.387,-30.0713"/>
<polygon fill="#63b8ff" stroke="#63b8ff" points="329.8154,-65.8831 340.4102,-65.8583 332.1123,-59.2706 329.8154,-65.8831"/>
</a>
</g>
</g>
<!-- Node4 -->
<g id="Node000004" class="node">
<title>Node4</title>
<g id="a_Node000004"><a xlink:href="packet_8c.html" target="_top" xlink:title="パケット構築・解析モジュール。">
<polygon fill="#ffffff" stroke="#666666" points="365.5,-30 270.5,-30 270.5,0 365.5,0 365.5,-30"/>
<text text-anchor="start" x="278.5" y="-18" font-family="Helvetica,sans-Serif" font-size="10.00" fill="#000000">porter/libsrc/porter</text>
<text text-anchor="middle" x="318" y="-7" font-family="Helvetica,sans-Serif" font-size="10.00" fill="#000000">/protocol/packet.c</text>
</a>
</g>
</g>
<!-- Node1&#45;&gt;Node4 -->
<g id="edge3_Node000001_Node000004" class="edge">
<title>Node1&#45;&gt;Node4</title>
<g id="a_edge3_Node000001_Node000004"><a xlink:title=" ">
<path fill="none" stroke="#63b8ff" d="M361.5439,-58.5439C352.2122,-49.2122 341.6236,-38.6236 333.2246,-30.2246"/>
<polygon fill="#63b8ff" stroke="#63b8ff" points="359.1464,-61.0962 368.6924,-65.6924 364.0962,-56.1464 359.1464,-61.0962"/>
</a>
</g>
</g>
<!-- Node5 -->
<g id="Node000005" class="node">
<title>Node5</title>
<g id="a_Node000005"><a xlink:href="potrHealthThread_8c.html" target="_top" xlink:title="ヘルスチェックスレッドモジュール。">
<polygon fill="#ffffff" stroke="#666666" points="516,-30 384,-30 384,0 516,0 516,-30"/>
<text text-anchor="start" x="392" y="-18" font-family="Helvetica,sans-Serif" font-size="10.00" fill="#000000">porter/libsrc/porter</text>
<text text-anchor="middle" x="450" y="-7" font-family="Helvetica,sans-Serif" font-size="10.00" fill="#000000">/thread/potrHealthThread.c</text>
</a>
</g>
</g>
<!-- Node1&#45;&gt;Node5 -->
<g id="edge4_Node000001_Node000005" class="edge">
<title>Node1&#45;&gt;Node5</title>
<g id="a_edge4_Node000001_Node000005"><a xlink:title=" ">
<path fill="none" stroke="#63b8ff" d="M406.4561,-58.5439C415.7878,-49.2122 426.3764,-38.6236 434.7754,-30.2246"/>
<polygon fill="#63b8ff" stroke="#63b8ff" points="403.9038,-56.1464 399.3076,-65.6924 408.8536,-61.0962 403.9038,-56.1464"/>
</a>
</g>
</g>
<!-- Node6 -->
<g id="Node000006" class="node">
<title>Node6</title>
<g id="a_Node000006"><a xlink:href="potrRecvThread_8c.html" target="_top" xlink:title="受信スレッドモジュール。">
<polygon fill="#ffffff" stroke="#666666" points="661.5,-30 534.5,-30 534.5,0 661.5,0 661.5,-30"/>
<text text-anchor="start" x="542.5" y="-18" font-family="Helvetica,sans-Serif" font-size="10.00" fill="#000000">porter/libsrc/porter</text>
<text text-anchor="middle" x="598" y="-7" font-family="Helvetica,sans-Serif" font-size="10.00" fill="#000000">/thread/potrRecvThread.c</text>
</a>
</g>
</g>
<!-- Node1&#45;&gt;Node6 -->
<g id="edge5_Node000001_Node000006" class="edge">
<title>Node1&#45;&gt;Node6</title>
<g id="a_edge5_Node000001_Node000006"><a xlink:title=" ">
<path fill="none" stroke="#63b8ff" d="M441.4699,-63.2756C475.1494,-52.8885 517.2294,-39.9106 549.2749,-30.0274"/>
<polygon fill="#63b8ff" stroke="#63b8ff" points="440.2838,-59.9787 431.7594,-66.2705 442.3468,-66.6678 440.2838,-59.9787"/>
</a>
</g>
</g>
<!-- Node7 -->
<g id="Node000007" class="node">
<title>Node7</title>
<g id="a_Node000007"><a xlink:href="potrSendThread_8c.html" target="_top" xlink:title="非同期送信スレッドの実装。">
<polygon fill="#ffffff" stroke="#666666" points="806.5,-30 679.5,-30 679.5,0 806.5,0 806.5,-30"/>
<text text-anchor="start" x="687.5" y="-18" font-family="Helvetica,sans-Serif" font-size="10.00" fill="#000000">porter/libsrc/porter</text>
<text text-anchor="middle" x="743" y="-7" font-family="Helvetica,sans-Serif" font-size="10.00" fill="#000000">/thread/potrSendThread.c</text>
</a>
</g>
</g>
<!-- Node1&#45;&gt;Node7 -->
<g id="edge6_Node000001_Node000007" class="edge">
<title>Node1&#45;&gt;Node7</title>
<g id="a_edge6_Node000001_Node000007"><a xlink:title=" ">
<path fill="none" stroke="#63b8ff" d="M441.634,-71.2732C499.6502,-61.3609 591.6628,-45.31 671,-30 673.7582,-29.4677 676.574,-28.9162 679.4172,-28.3526"/>
<polygon fill="#63b8ff" stroke="#63b8ff" points="440.831,-67.8595 431.5616,-72.9908 442.0077,-74.7599 440.831,-67.8595"/>
</a>
</g>
</g>
</g>
</svg>
