<?xml version="1.0" encoding="UTF-8" standalone="no"?>
<!DOCTYPE svg PUBLIC "-//W3C//DTD SVG 1.1//EN"
 "http://www.w3.org/Graphics/SVG/1.1/DTD/svg11.dtd">
<!-- Generated by graphviz version 2.40.1 (0)
 -->
<!-- Title: packet_wire_size Pages: 1 -->
<svg width="861pt" height="216pt"
 viewBox="0.00 0.00 861.00 216.00" xmlns="http://www.w3.org/2000/svg" xmlns:xlink="http://www.w3.org/1999/xlink">
<g id="graph0" class="graph" transform="scale(1 1) rotate(0) translate(4 212)">
<title>packet_wire_size</title>
<!-- Node1 -->
<g id="Node000001" class="node">
<title>Node1</title>
<g id="a_Node000001"><a xlink:title="パケットのヘッダー + ペイロードの合計バイト数を返します。">
<polygon fill="#999999" stroke="#666666" points="853,-95 761,-95 761,-76 853,-76 853,-95"/>
<text text-anchor="middle" x="807" y="-83" font-family="Helvetica,sans-Serif" font-size="10.00" fill="#000000">packet_wire_size</text>
</a>
</g>
</g>
<!-- Node2 -->
<g id="Node000002" class="node">
<title>Node2</title>
<g id="a_Node000002"><a xlink:href="potrHealthThread_8c.html#a7c706d98a6a4d22f8cc94b60698533c6" target="_top" xlink:title=" ">
<polygon fill="#ffffff" stroke="#666666" points="725,-57 626,-57 626,-38 725,-38 725,-57"/>
<text text-anchor="middle" x="675.5" y="-45" font-family="Helvetica,sans-Serif" font-size="10.00" fill="#000000">health_thread_func</text>
</a>
</g>
</g>
<!-- Node1&#45;&gt;Node2 -->
<g id="edge1_Node000001_Node000002" class="edge">
<title>Node1&#45;&gt;Node2</title>
<g id="a_edge1_Node000001_Node000002"><a xlink:title=" ">
<path fill="none" stroke="#63b8ff" d="M764.1222,-73.1094C746.1138,-67.9055 725.4904,-61.9459 708.6724,-57.0859"/>
<polygon fill="#63b8ff" stroke="#63b8ff" points="763.2384,-76.4972 773.817,-75.911 765.1817,-69.7724 763.2384,-76.4972"/>
</a>
</g>
</g>
<!-- Node6 -->
<g id="Node000006" class="node">
<title>Node6</title>
<g id="a_Node000006"><a xlink:href="potrRecvThread_8c.html#a300c2d6c99e3491d0ee4c7cb4de36146" target="_top" xlink:title=" ">
<polygon fill="#ffffff" stroke="#666666" points="454.5,-133 362.5,-133 362.5,-114 454.5,-114 454.5,-133"/>
<text text-anchor="middle" x="408.5" y="-121" font-family="Helvetica,sans-Serif" font-size="10.00" fill="#000000">recv_thread_func</text>
</a>
</g>
</g>
<!-- Node1&#45;&gt;Node6 -->
<g id="edge5_Node000001_Node000006" class="edge">
<title>Node1&#45;&gt;Node6</title>
<g id="a_edge5_Node000001_Node000006"><a xlink:title=" ">
<path fill="none" stroke="#63b8ff" d="M750.6109,-90.8771C671.2896,-98.441 528.2603,-112.0799 454.802,-119.0847"/>
<polygon fill="#63b8ff" stroke="#63b8ff" points="751.2751,-94.3298 760.8977,-89.8962 750.6106,-87.3614 751.2751,-94.3298"/>
</a>
</g>
</g>
<!-- Node8 -->
<g id="Node000008" class="node">
<title>Node8</title>
<g id="a_Node000008"><a xlink:href="potrCloseService_8c.html#ad8dcefd0034dccd341e783b0bb242a5c" target="_top" xlink:title=" ">
<polygon fill="#ffffff" stroke="#666666" points="568,-19 515,-19 515,0 568,0 568,-19"/>
<text text-anchor="middle" x="541.5" y="-7" font-family="Helvetica,sans-Serif" font-size="10.00" fill="#000000">send_fin</text>
</a>
</g>
</g>
<!-- Node1&#45;&gt;Node8 -->
<g id="edge8_Node000001_Node000008" class="edge">
<title>Node1&#45;&gt;Node8</title>
<g id="a_edge8_Node000001_Node000008"><a xlink:title=" ">
<path fill="none" stroke="#63b8ff" d="M789.0657,-68.9788C773.4038,-55.6066 749.4126,-37.5585 725,-28.5 672.0015,-8.8345 604.8571,-7.2543 568.2652,-8.1694"/>
<polygon fill="#63b8ff" stroke="#63b8ff" points="787.0409,-71.8593 796.8596,-75.8399 791.6663,-66.6051 787.0409,-71.8593"/>
</a>
</g>
</g>
<!-- Node10 -->
<g id="Node000010" class="node">
<title>Node10</title>
<g id="a_Node000010"><a xlink:href="potrRecvThread_8c.html#aeab28b0e8d42c5c5e28e69bf70074990" target="_top" xlink:title=" ">
<polygon fill="#ffffff" stroke="#666666" points="707.5,-133 643.5,-133 643.5,-114 707.5,-114 707.5,-133"/>
<text text-anchor="middle" x="675.5" y="-121" font-family="Helvetica,sans-Serif" font-size="10.00" fill="#000000">send_nack</text>
</a>
</g>
</g>
<!-- Node1&#45;&gt;Node10 -->
<g id="edge11_Node000001_Node000010" class="edge">
<title>Node1&#45;&gt;Node10</title>
<g id="a_edge11_Node000001_Node000010"><a xlink:title=" ">
<path fill="none" stroke="#63b8ff" d="M763.9694,-97.9347C745.6711,-103.2224 724.6961,-109.2836 707.7632,-114.1768"/>
<polygon fill="#63b8ff" stroke="#63b8ff" points="765.1817,-101.2276 773.817,-95.089 763.2384,-94.5028 765.1817,-101.2276"/>
</a>
</g>
</g>
<!-- Node12 -->
<g id="Node000012" class="node">
<title>Node12</title>
<g id="a_Node000012"><a xlink:href="potrRecvThread_8c.html#a1794de2bc67170db1366ab5024329605" target="_top" xlink:title=" ">
<polygon fill="#ffffff" stroke="#666666" points="575,-208 508,-208 508,-189 575,-189 575,-208"/>
<text text-anchor="middle" x="541.5" y="-196" font-family="Helvetica,sans-Serif" font-size="10.00" fill="#000000">send_reject</text>
</a>
</g>
</g>
<!-- Node1&#45;&gt;Node12 -->
<g id="edge15_Node000001_Node000012" class="edge">
<title>Node1&#45;&gt;Node12</title>
<g id="a_edge15_Node000001_Node000012"><a xlink:title=" ">
<path fill="none" stroke="#63b8ff" d="M787.7456,-101.4808C771.774,-114.0766 748.0312,-131.3228 725,-142.5 675.2569,-166.6406 612.8679,-183.0202 575.1487,-191.5535"/>
<polygon fill="#63b8ff" stroke="#63b8ff" points="790.1672,-104.0247 795.7653,-95.0296 785.7796,-98.5704 790.1672,-104.0247"/>
</a>
</g>
</g>
<!-- Node3 -->
<g id="Node000003" class="node">
<title>Node3</title>
<g id="a_Node000003"><a xlink:href="potrHealthThread_8c.html#a8545c91db5b627eed4bf0b82280d661c" target="_top" xlink:title="ヘルスチェックスレッドを起動します。">
<polygon fill="#ffffff" stroke="#666666" points="457,-67.5 360,-67.5 360,-37.5 457,-37.5 457,-67.5"/>
<text text-anchor="start" x="368" y="-55.5" font-family="Helvetica,sans-Serif" font-size="10.00" fill="#000000">potr_health_thread</text>
<text text-anchor="middle" x="408.5" y="-44.5" font-family="Helvetica,sans-Serif" font-size="10.00" fill="#000000">_start</text>
</a>
</g>
</g>
<!-- Node2&#45;&gt;Node3 -->
<g id="edge2_Node000002_Node000003" class="edge">
<title>Node2&#45;&gt;Node3</title>
<g id="a_edge2_Node000002_Node000003"><a xlink:title=" ">
<path fill="none" stroke="#63b8ff" d="M615.7121,-48.6196C567.9927,-49.5132 501.9702,-50.7496 457.3785,-51.5847"/>
<polygon fill="#63b8ff" stroke="#63b8ff" points="615.9724,-52.1155 625.9051,-48.4287 615.8413,-45.1167 615.9724,-52.1155"/>
</a>
</g>
</g>
<!-- Node4 -->
<g id="Node000004" class="node">
<title>Node4</title>
<g id="a_Node000004"><a xlink:href="potrOpenService_8c.html#a8ce1599677086e0c54400b696ed28680" target="_top" xlink:title="設定ファイルから指定サービスを開きます。">
<polygon fill="#ffffff" stroke="#666666" points="163,-62 74,-62 74,-43 163,-43 163,-62"/>
<text text-anchor="middle" x="118.5" y="-50" font-family="Helvetica,sans-Serif" font-size="10.00" fill="#000000">potrOpenService</text>
</a>
</g>
</g>
<!-- Node3&#45;&gt;Node4 -->
<g id="edge3_Node000003_Node000004" class="edge">
<title>Node3&#45;&gt;Node4</title>
<g id="a_edge3_Node000003_Node000004"><a xlink:title=" ">
<path fill="none" stroke="#63b8ff" d="M349.6476,-52.5C294.5517,-52.5 213.4226,-52.5 163.3802,-52.5"/>
<polygon fill="#63b8ff" stroke="#63b8ff" points="349.9606,-56.0001 359.9605,-52.5 349.9605,-49.0001 349.9606,-56.0001"/>
</a>
</g>
</g>
<!-- Node5 -->
<g id="Node000005" class="node">
<title>Node5</title>
<g id="a_Node000005"><a xlink:href="recv_8c.html#a0ddf1224851353fc92bfbff6f499fa97" target="_top" xlink:title="メインエントリーポイント。">
<polygon fill="#ffffff" stroke="#666666" points="38,-42 0,-42 0,-23 38,-23 38,-42"/>
<text text-anchor="middle" x="19" y="-30" font-family="Helvetica,sans-Serif" font-size="10.00" fill="#000000">main</text>
</a>
</g>
</g>
<!-- Node4&#45;&gt;Node5 -->
<g id="edge4_Node000004_Node000005" class="edge">
<title>Node4&#45;&gt;Node5</title>
<g id="a_edge4_Node000004_Node000005"><a xlink:title=" ">
<path fill="none" stroke="#63b8ff" d="M63.8932,-41.5238C54.615,-39.6588 45.5643,-37.8396 38.0485,-36.3288"/>
<polygon fill="#63b8ff" stroke="#63b8ff" points="63.4948,-45.0136 73.9884,-43.5529 64.8743,-38.1509 63.4948,-45.0136"/>
</a>
</g>
</g>
<!-- Node7 -->
<g id="Node000007" class="node">
<title>Node7</title>
<g id="a_Node000007"><a xlink:href="potrRecvThread_8c.html#a1006d5ccaf47db6c24908eb7ae366505" target="_top" xlink:title="受信スレッドを起動します。">
<polygon fill="#ffffff" stroke="#666666" points="324,-116 199,-116 199,-97 324,-97 324,-116"/>
<text text-anchor="middle" x="261.5" y="-104" font-family="Helvetica,sans-Serif" font-size="10.00" fill="#000000">comm_recv_thread_start</text>
</a>
</g>
</g>
<!-- Node6&#45;&gt;Node7 -->
<g id="edge6_Node000006_Node000007" class="edge">
<title>Node6&#45;&gt;Node7</title>
<g id="a_edge6_Node000006_Node000007"><a xlink:title=" ">
<path fill="none" stroke="#63b8ff" d="M352.2182,-116.9912C343.0352,-115.9292 333.4723,-114.8233 324.1477,-113.745"/>
<polygon fill="#63b8ff" stroke="#63b8ff" points="352.0557,-120.4957 362.3916,-118.1677 352.8599,-113.542 352.0557,-120.4957"/>
</a>
</g>
</g>
<!-- Node7&#45;&gt;Node4 -->
<g id="edge7_Node000007_Node000004" class="edge">
<title>Node7&#45;&gt;Node4</title>
<g id="a_edge7_Node000007_Node000004"><a xlink:title=" ">
<path fill="none" stroke="#63b8ff" d="M226.5881,-93.3165C201.0446,-83.6707 166.9729,-70.8044 143.9651,-62.1162"/>
<polygon fill="#63b8ff" stroke="#63b8ff" points="225.672,-96.7117 236.2636,-96.9702 228.1449,-90.1631 225.672,-96.7117"/>
</a>
</g>
</g>
<!-- Node9 -->
<g id="Node000009" class="node">
<title>Node9</title>
<g id="a_Node000009"><a xlink:href="potrCloseService_8c.html#a69faa7ad17883d282cfbbabfe2d4913f" target="_top" xlink:title="サービスを閉じます。">
<polygon fill="#ffffff" stroke="#666666" points="307,-21 216,-21 216,-2 307,-2 307,-21"/>
<text text-anchor="middle" x="261.5" y="-9" font-family="Helvetica,sans-Serif" font-size="10.00" fill="#000000">potrCloseService</text>
</a>
</g>
</g>
<!-- Node8&#45;&gt;Node9 -->
<g id="edge9_Node000008_Node000009" class="edge">
<title>Node8&#45;&gt;Node9</title>
<g id="a_edge9_Node000008_Node000009"><a xlink:title=" ">
<path fill="none" stroke="#63b8ff" d="M504.7129,-9.7628C453.9149,-10.1256 362.3332,-10.7798 307.204,-11.1735"/>
<polygon fill="#63b8ff" stroke="#63b8ff" points="504.9311,-13.2614 514.9058,-9.69 504.8811,-6.2616 504.9311,-13.2614"/>
</a>
</g>
</g>
<!-- Node9&#45;&gt;Node5 -->
<g id="edge10_Node000009_Node000005" class="edge">
<title>Node9&#45;&gt;Node5</title>
<g id="a_edge10_Node000009_Node000005"><a xlink:title=" ">
<path fill="none" stroke="#63b8ff" d="M205.8265,-16.3212C152.1144,-20.9726 73.8463,-27.7504 38.095,-30.8464"/>
<polygon fill="#63b8ff" stroke="#63b8ff" points="206.2269,-19.7997 215.8876,-15.4499 205.6229,-12.8258 206.2269,-19.7997"/>
</a>
</g>
</g>
<!-- Node10&#45;&gt;Node6 -->
<g id="edge14_Node000010_Node000006" class="edge">
<title>Node10&#45;&gt;Node6</title>
<g id="a_edge14_Node000010_Node000006"><a xlink:title=" ">
<path fill="none" stroke="#63b8ff" d="M633.1047,-123.5C584.4442,-123.5 504.9044,-123.5 454.6995,-123.5"/>
<polygon fill="#63b8ff" stroke="#63b8ff" points="633.2936,-127.0001 643.2936,-123.5 633.2935,-120.0001 633.2936,-127.0001"/>
</a>
</g>
</g>
<!-- Node11 -->
<g id="Node000011" class="node">
<title>Node11</title>
<g id="a_Node000011"><a xlink:href="potrRecvThread_8c.html#a69c2cb6947b8a810bb95585972a60e09" target="_top" xlink:title=" ">
<polygon fill="#ffffff" stroke="#666666" points="590,-171 493,-171 493,-152 590,-152 590,-171"/>
<text text-anchor="middle" x="541.5" y="-159" font-family="Helvetica,sans-Serif" font-size="10.00" fill="#000000">process_outer_pkt</text>
</a>
</g>
</g>
<!-- Node10&#45;&gt;Node11 -->
<g id="edge12_Node000010_Node000011" class="edge">
<title>Node10&#45;&gt;Node11</title>
<g id="a_edge12_Node000010_Node000011"><a xlink:title=" ">
<path fill="none" stroke="#63b8ff" d="M633.6078,-135.3799C614.8073,-140.7114 592.923,-146.9174 575.2044,-151.942"/>
<polygon fill="#63b8ff" stroke="#63b8ff" points="634.7379,-138.6975 643.4037,-132.6019 632.8281,-131.963 634.7379,-138.6975"/>
</a>
</g>
</g>
<!-- Node11&#45;&gt;Node6 -->
<g id="edge13_Node000011_Node000006" class="edge">
<title>Node11&#45;&gt;Node6</title>
<g id="a_edge13_Node000011_Node000006"><a xlink:title=" ">
<path fill="none" stroke="#63b8ff" d="M498.1331,-149.1094C479.9193,-143.9055 459.0607,-137.9459 442.0508,-133.0859"/>
<polygon fill="#63b8ff" stroke="#63b8ff" points="497.3617,-152.529 507.9385,-151.911 499.2848,-145.7984 497.3617,-152.529"/>
</a>
</g>
</g>
<!-- Node12&#45;&gt;Node6 -->
<g id="edge16_Node000012_Node000006" class="edge">
<title>Node12&#45;&gt;Node6</title>
<g id="a_edge16_Node000012_Node000006"><a xlink:title=" ">
<path fill="none" stroke="#63b8ff" d="M502.7986,-185.0959C499.4397,-183.6451 496.1309,-182.1078 493,-180.5 465.7672,-166.5152 436.7518,-145.401 420.7997,-133.1797"/>
<polygon fill="#63b8ff" stroke="#63b8ff" points="501.7088,-188.4307 512.2913,-188.942 504.3374,-181.943 501.7088,-188.4307"/>
</a>
</g>
</g>
</g>
</svg>
