<?xml version="1.0" encoding="UTF-8" standalone="no"?>
<!DOCTYPE svg PUBLIC "-//W3C//DTD SVG 1.1//EN"
 "http://www.w3.org/Graphics/SVG/1.1/DTD/svg11.dtd">
<!-- Generated by graphviz version 2.40.1 (0)
 -->
<!-- Title: porter/libsrc/porter/protocol/packet.c Pages: 1 -->
<svg width="356pt" height="203pt"
 viewBox="0.00 0.00 356.00 203.00" xmlns="http://www.w3.org/2000/svg" xmlns:xlink="http://www.w3.org/1999/xlink">
<g id="graph0" class="graph" transform="scale(1 1) rotate(0) translate(4 199)">
<title>porter/libsrc/porter/protocol/packet.c</title>
<!-- Node1 -->
<g id="Node000001" class="node">
<title>Node1</title>
<g id="a_Node000001"><a xlink:title="パケット構築・解析モジュール。">
<polygon fill="#999999" stroke="#666666" points="205,-195 110,-195 110,-165 205,-165 205,-195"/>
<text text-anchor="start" x="118" y="-183" font-family="Helvetica,sans-Serif" font-size="10.00" fill="#000000">porter/libsrc/porter</text>
<text text-anchor="middle" x="157.5" y="-172" font-family="Helvetica,sans-Serif" font-size="10.00" fill="#000000">/protocol/packet.c</text>
</a>
</g>
</g>
<!-- Node2 -->
<g id="Node000002" class="node">
<title>Node2</title>
<g id="a_Node000002"><a xlink:title=" ">
<polygon fill="#e0e0e0" stroke="#999999" points="49,-129 0,-129 0,-110 49,-110 49,-129"/>
<text text-anchor="middle" x="24.5" y="-117" font-family="Helvetica,sans-Serif" font-size="10.00" fill="#000000">string.h</text>
</a>
</g>
</g>
<!-- Node1&#45;&gt;Node2 -->
<g id="edge1_Node000001_Node000002" class="edge">
<title>Node1&#45;&gt;Node2</title>
<g id="a_edge1_Node000001_Node000002"><a xlink:title=" ">
<path fill="none" stroke="#63b8ff" d="M124.2816,-164.8894C103.0267,-155.2208 75.6601,-142.7721 54.9645,-133.3579"/>
<polygon fill="#63b8ff" stroke="#63b8ff" points="56.2362,-130.0914 45.6845,-129.1366 53.3378,-136.4631 56.2362,-130.0914"/>
</a>
</g>
</g>
<!-- Node3 -->
<g id="Node000003" class="node">
<title>Node3</title>
<g id="a_Node000003"><a xlink:title=" ">
<polygon fill="#e0e0e0" stroke="#999999" points="129.5,-129 67.5,-129 67.5,-110 129.5,-110 129.5,-129"/>
<text text-anchor="middle" x="98.5" y="-117" font-family="Helvetica,sans-Serif" font-size="10.00" fill="#000000">arpa/inet.h</text>
</a>
</g>
</g>
<!-- Node1&#45;&gt;Node3 -->
<g id="edge2_Node000001_Node000003" class="edge">
<title>Node1&#45;&gt;Node3</title>
<g id="a_edge2_Node000001_Node000003"><a xlink:title=" ">
<path fill="none" stroke="#63b8ff" d="M142.6118,-164.7333C134.1628,-156.0695 123.5745,-145.212 114.8895,-136.3062"/>
<polygon fill="#63b8ff" stroke="#63b8ff" points="117.3363,-133.8021 107.8487,-129.0864 112.3248,-138.6893 117.3363,-133.8021"/>
</a>
</g>
</g>
<!-- Node4 -->
<g id="Node000004" class="node">
<title>Node4</title>
<g id="a_Node000004"><a xlink:href="porter__const_8h.html" target="_top" xlink:title="通信ライブラリの定数ファイル。">
<polygon fill="#ffffff" stroke="#666666" points="204,-19 125,-19 125,0 204,0 204,-19"/>
<text text-anchor="middle" x="164.5" y="-7" font-family="Helvetica,sans-Serif" font-size="10.00" fill="#000000">porter_const.h</text>
</a>
</g>
</g>
<!-- Node1&#45;&gt;Node4 -->
<g id="edge3_Node000001_Node000004" class="edge">
<title>Node1&#45;&gt;Node4</title>
<g id="a_edge3_Node000001_Node000004"><a xlink:title=" ">
<path fill="none" stroke="#63b8ff" d="M158.1212,-164.8693C159.3898,-133.9695 162.2774,-63.6355 163.6906,-29.2141"/>
<polygon fill="#63b8ff" stroke="#63b8ff" points="167.1956,-29.1616 164.1089,-19.0264 160.2015,-28.8744 167.1956,-29.1616"/>
</a>
</g>
</g>
<!-- Node5 -->
<g id="Node000005" class="node">
<title>Node5</title>
<g id="a_Node000005"><a xlink:href="porter__type_8h.html" target="_top" xlink:title="通信ライブラリの型定義ファイル。">
<polygon fill="#ffffff" stroke="#666666" points="259.5,-74 185.5,-74 185.5,-55 259.5,-55 259.5,-74"/>
<text text-anchor="middle" x="222.5" y="-62" font-family="Helvetica,sans-Serif" font-size="10.00" fill="#000000">porter_type.h</text>
</a>
</g>
</g>
<!-- Node1&#45;&gt;Node5 -->
<g id="edge4_Node000001_Node000005" class="edge">
<title>Node1&#45;&gt;Node5</title>
<g id="a_edge4_Node000001_Node000005"><a xlink:title=" ">
<path fill="none" stroke="#63b8ff" d="M165.9976,-164.9004C177.8082,-143.9138 199.1739,-105.9486 211.9775,-83.1977"/>
<polygon fill="#63b8ff" stroke="#63b8ff" points="215.186,-84.6327 217.0403,-74.2014 209.0857,-81.1996 215.186,-84.6327"/>
</a>
</g>
</g>
<!-- Node8 -->
<g id="Node000008" class="node">
<title>Node8</title>
<g id="a_Node000008"><a xlink:href="packet_8h.html" target="_top" xlink:title="パケット構築・解析モジュールの内部ヘッダー。">
<polygon fill="#ffffff" stroke="#666666" points="296.5,-129 242.5,-129 242.5,-110 296.5,-110 296.5,-129"/>
<text text-anchor="middle" x="269.5" y="-117" font-family="Helvetica,sans-Serif" font-size="10.00" fill="#000000">packet.h</text>
</a>
</g>
</g>
<!-- Node1&#45;&gt;Node8 -->
<g id="edge8_Node000001_Node000008" class="edge">
<title>Node1&#45;&gt;Node8</title>
<g id="a_edge8_Node000001_Node000008"><a xlink:title=" ">
<path fill="none" stroke="#63b8ff" d="M185.4734,-164.8894C202.9673,-155.4395 225.3777,-143.3339 242.6543,-134.0015"/>
<polygon fill="#63b8ff" stroke="#63b8ff" points="244.5255,-136.9688 251.6604,-129.1366 241.1985,-130.8099 244.5255,-136.9688"/>
</a>
</g>
</g>
<!-- Node5&#45;&gt;Node4 -->
<g id="edge7_Node000005_Node000004" class="edge">
<title>Node5&#45;&gt;Node4</title>
<g id="a_edge7_Node000005_Node000004"><a xlink:title=" ">
<path fill="none" stroke="#63b8ff" d="M212.3972,-54.9197C204.0996,-47.0514 192.1463,-35.7164 182.2569,-26.3385"/>
<polygon fill="#63b8ff" stroke="#63b8ff" points="184.5422,-23.6821 174.8776,-19.3408 179.7255,-28.7615 184.5422,-23.6821"/>
</a>
</g>
</g>
<!-- Node6 -->
<g id="Node000006" class="node">
<title>Node6</title>
<g id="a_Node000006"><a xlink:title=" ">
<polygon fill="#e0e0e0" stroke="#999999" points="278.5,-19 226.5,-19 226.5,0 278.5,0 278.5,-19"/>
<text text-anchor="middle" x="252.5" y="-7" font-family="Helvetica,sans-Serif" font-size="10.00" fill="#000000">stddef.h</text>
</a>
</g>
</g>
<!-- Node5&#45;&gt;Node6 -->
<g id="edge5_Node000005_Node000006" class="edge">
<title>Node5&#45;&gt;Node6</title>
<g id="a_edge5_Node000005_Node000006"><a xlink:title=" ">
<path fill="none" stroke="#63b8ff" d="M227.7256,-54.9197C231.72,-47.5967 237.3522,-37.2709 242.2374,-28.3147"/>
<polygon fill="#63b8ff" stroke="#63b8ff" points="245.4163,-29.7958 247.1323,-19.3408 239.2711,-26.4438 245.4163,-29.7958"/>
</a>
</g>
</g>
<!-- Node7 -->
<g id="Node000007" class="node">
<title>Node7</title>
<g id="a_Node000007"><a xlink:title=" ">
<polygon fill="#e0e0e0" stroke="#999999" points="348,-19 299,-19 299,0 348,0 348,-19"/>
<text text-anchor="middle" x="323.5" y="-7" font-family="Helvetica,sans-Serif" font-size="10.00" fill="#000000">stdint.h</text>
</a>
</g>
</g>
<!-- Node5&#45;&gt;Node7 -->
<g id="edge6_Node000005_Node000007" class="edge">
<title>Node5&#45;&gt;Node7</title>
<g id="a_edge6_Node000005_Node000007"><a xlink:title=" ">
<path fill="none" stroke="#63b8ff" d="M240.0929,-54.9197C255.7828,-46.3757 278.979,-33.7441 296.9289,-23.9694"/>
<polygon fill="#63b8ff" stroke="#63b8ff" points="298.6614,-27.0113 305.7699,-19.155 295.3137,-20.8637 298.6614,-27.0113"/>
</a>
</g>
</g>
<!-- Node8&#45;&gt;Node5 -->
<g id="edge11_Node000008_Node000005" class="edge">
<title>Node8&#45;&gt;Node5</title>
<g id="a_edge11_Node000008_Node000005"><a xlink:title=" ">
<path fill="none" stroke="#63b8ff" d="M261.3132,-109.9197C254.7891,-102.2851 245.4759,-91.3867 237.6077,-82.1792"/>
<polygon fill="#63b8ff" stroke="#63b8ff" points="240.0668,-79.6694 230.9094,-74.3408 234.7452,-84.217 240.0668,-79.6694"/>
</a>
</g>
</g>
<!-- Node8&#45;&gt;Node6 -->
<g id="edge9_Node000008_Node000006" class="edge">
<title>Node8&#45;&gt;Node6</title>
<g id="a_edge9_Node000008_Node000006"><a xlink:title=" ">
<path fill="none" stroke="#63b8ff" d="M270.313,-109.7908C271.1579,-97.0864 271.9278,-74.1829 268.5,-55 266.9023,-46.059 263.7861,-36.5263 260.725,-28.5084"/>
<polygon fill="#63b8ff" stroke="#63b8ff" points="263.8747,-26.9624 256.865,-19.0179 257.3905,-29.5997 263.8747,-26.9624"/>
</a>
</g>
</g>
<!-- Node8&#45;&gt;Node7 -->
<g id="edge10_Node000008_Node000007" class="edge">
<title>Node8&#45;&gt;Node7</title>
<g id="a_edge10_Node000008_Node000007"><a xlink:title=" ">
<path fill="none" stroke="#63b8ff" d="M274.2921,-109.7382C283.2812,-91.4271 302.8075,-51.6514 314.3779,-28.082"/>
<polygon fill="#63b8ff" stroke="#63b8ff" points="317.5308,-29.6019 318.7957,-19.0828 311.2471,-26.5171 317.5308,-29.6019"/>
</a>
</g>
</g>
</g>
</svg>
