<?xml version="1.0" encoding="UTF-8" standalone="no"?>
<!DOCTYPE svg PUBLIC "-//W3C//DTD SVG 1.1//EN"
 "http://www.w3.org/Graphics/SVG/1.1/DTD/svg11.dtd">
<!-- Generated by graphviz version 2.40.1 (0)
 -->
<!-- Title: fill_session_hdr Pages: 1 -->
<svg width="1020pt" height="213pt"
 viewBox="0.00 0.00 1020.00 213.00" xmlns="http://www.w3.org/2000/svg" xmlns:xlink="http://www.w3.org/1999/xlink">
<g id="graph0" class="graph" transform="scale(1 1) rotate(0) translate(4 209)">
<title>fill_session_hdr</title>
<!-- Node1 -->
<g id="Node000001" class="node">
<title>Node1</title>
<g id="a_Node000001"><a xlink:title=" ">
<polygon fill="#999999" stroke="#666666" points="1012,-126 928,-126 928,-107 1012,-107 1012,-126"/>
<text text-anchor="middle" x="970" y="-114" font-family="Helvetica,sans-Serif" font-size="10.00" fill="#000000">fill_session_hdr</text>
</a>
</g>
</g>
<!-- Node2 -->
<g id="Node000002" class="node">
<title>Node2</title>
<g id="a_Node000002"><a xlink:href="packet_8c.html#a062c5f9f3ce1273c5ac873ed39537537" target="_top" xlink:title="正常終了通知 (FIN) パケットを構築します。">
<polygon fill="#ffffff" stroke="#666666" points="881.5,-202 794.5,-202 794.5,-183 881.5,-183 881.5,-202"/>
<text text-anchor="middle" x="838" y="-190" font-family="Helvetica,sans-Serif" font-size="10.00" fill="#000000">packet_build_fin</text>
</a>
</g>
</g>
<!-- Node1&#45;&gt;Node2 -->
<g id="edge1_Node000001_Node000002" class="edge">
<title>Node1&#45;&gt;Node2</title>
<g id="a_edge1_Node000001_Node000002"><a xlink:title=" ">
<path fill="none" stroke="#63b8ff" d="M951.7854,-132.6829C936.6508,-145.4548 914.0949,-162.9812 892,-174.5 885.7784,-177.7435 878.8542,-180.5725 872.0957,-182.9673"/>
<polygon fill="#63b8ff" stroke="#63b8ff" points="954.0848,-135.3217 959.3799,-126.145 949.5178,-130.0167 954.0848,-135.3217"/>
</a>
</g>
</g>
<!-- Node6 -->
<g id="Node000006" class="node">
<title>Node6</title>
<g id="a_Node000006"><a xlink:href="packet_8c.html#a3f4ec3e4fc9c07b3704ecd8ae082af10" target="_top" xlink:title="NACK パケットを構築します。">
<polygon fill="#ffffff" stroke="#666666" points="887,-126 789,-126 789,-107 887,-107 887,-126"/>
<text text-anchor="middle" x="838" y="-114" font-family="Helvetica,sans-Serif" font-size="10.00" fill="#000000">packet_build_nack</text>
</a>
</g>
</g>
<!-- Node1&#45;&gt;Node6 -->
<g id="edge5_Node000001_Node000006" class="edge">
<title>Node1&#45;&gt;Node6</title>
<g id="a_edge5_Node000001_Node000006"><a xlink:title=" ">
<path fill="none" stroke="#63b8ff" d="M917.5919,-116.5C907.5349,-116.5 897.0379,-116.5 887.0904,-116.5"/>
<polygon fill="#63b8ff" stroke="#63b8ff" points="917.8715,-120.0001 927.8715,-116.5 917.8714,-113.0001 917.8715,-120.0001"/>
</a>
</g>
</g>
<!-- Node12 -->
<g id="Node000012" class="node">
<title>Node12</title>
<g id="a_Node000012"><a xlink:href="packet_8c.html#a0f1ece40d194d02905f9ebfa68cac012" target="_top" xlink:title="データパケット (パックコンテナ) を構築します。">
<polygon fill="#ffffff" stroke="#666666" points="892,-37 784,-37 784,-18 892,-18 892,-37"/>
<text text-anchor="middle" x="838" y="-25" font-family="Helvetica,sans-Serif" font-size="10.00" fill="#000000">packet_build_packed</text>
</a>
</g>
</g>
<!-- Node1&#45;&gt;Node12 -->
<g id="edge13_Node000001_Node000012" class="edge">
<title>Node1&#45;&gt;Node12</title>
<g id="a_edge13_Node000001_Node000012"><a xlink:title=" ">
<path fill="none" stroke="#63b8ff" d="M948.87,-100.6825C933.3452,-89.221 911.6266,-73.5166 892,-60.5 879.5475,-52.2413 865.0855,-43.444 854.2636,-37.0112"/>
<polygon fill="#63b8ff" stroke="#63b8ff" points="947.1162,-103.7394 957.2323,-106.8882 951.2877,-98.1182 947.1162,-103.7394"/>
</a>
</g>
</g>
<!-- Node16 -->
<g id="Node000016" class="node">
<title>Node16</title>
<g id="a_Node000016"><a xlink:href="packet_8c.html#a208f7dc4daa3e772a3f46ed3ab649a6f" target="_top" xlink:title="PING パケットを構築します。">
<polygon fill="#ffffff" stroke="#666666" points="885.5,-165 790.5,-165 790.5,-146 885.5,-146 885.5,-165"/>
<text text-anchor="middle" x="838" y="-153" font-family="Helvetica,sans-Serif" font-size="10.00" fill="#000000">packet_build_ping</text>
</a>
</g>
</g>
<!-- Node1&#45;&gt;Node16 -->
<g id="edge18_Node000001_Node000016" class="edge">
<title>Node1&#45;&gt;Node16</title>
<g id="a_edge18_Node000001_Node000016"><a xlink:title=" ">
<path fill="none" stroke="#63b8ff" d="M927.9911,-128.9117C909.3589,-134.4167 887.7741,-140.794 870.415,-145.9229"/>
<polygon fill="#63b8ff" stroke="#63b8ff" points="929.1107,-132.2306 937.7092,-126.0405 927.1272,-125.5174 929.1107,-132.2306"/>
</a>
</g>
</g>
<!-- Node19 -->
<g id="Node000019" class="node">
<title>Node19</title>
<g id="a_Node000019"><a xlink:href="packet_8c.html#a43aeeb2f7222107832ecb58a92598d12" target="_top" xlink:title="再送不能通知 (REJECT) パケットを構築します。">
<polygon fill="#ffffff" stroke="#666666" points="748,-70 647,-70 647,-51 748,-51 748,-70"/>
<text text-anchor="middle" x="697.5" y="-58" font-family="Helvetica,sans-Serif" font-size="10.00" fill="#000000">packet_build_reject</text>
</a>
</g>
</g>
<!-- Node1&#45;&gt;Node19 -->
<g id="edge22_Node000001_Node000019" class="edge">
<title>Node1&#45;&gt;Node19</title>
<g id="a_edge22_Node000001_Node000019"><a xlink:title=" ">
<path fill="none" stroke="#63b8ff" d="M922.5501,-104.533C912.486,-102.1096 901.9095,-99.648 892,-97.5 843.2905,-86.9416 787.361,-76.4737 748.0172,-69.3811"/>
<polygon fill="#63b8ff" stroke="#63b8ff" points="921.8556,-107.9661 932.3997,-106.9308 923.5113,-101.1647 921.8556,-107.9661"/>
</a>
</g>
</g>
<!-- Node3 -->
<g id="Node000003" class="node">
<title>Node3</title>
<g id="a_Node000003"><a xlink:href="potrCloseService_8c.html#ad8dcefd0034dccd341e783b0bb242a5c" target="_top" xlink:title=" ">
<polygon fill="#ffffff" stroke="#666666" points="724,-205 671,-205 671,-186 724,-186 724,-205"/>
<text text-anchor="middle" x="697.5" y="-193" font-family="Helvetica,sans-Serif" font-size="10.00" fill="#000000">send_fin</text>
</a>
</g>
</g>
<!-- Node2&#45;&gt;Node3 -->
<g id="edge2_Node000002_Node000003" class="edge">
<title>Node2&#45;&gt;Node3</title>
<g id="a_edge2_Node000002_Node000003"><a xlink:title=" ">
<path fill="none" stroke="#63b8ff" d="M784.1553,-193.6497C763.7074,-194.0863 741.2952,-194.5649 724.3873,-194.9259"/>
<polygon fill="#63b8ff" stroke="#63b8ff" points="784.3921,-197.1455 794.3151,-193.4328 784.2426,-190.1471 784.3921,-197.1455"/>
</a>
</g>
</g>
<!-- Node4 -->
<g id="Node000004" class="node">
<title>Node4</title>
<g id="a_Node000004"><a xlink:href="potrCloseService_8c.html#a69faa7ad17883d282cfbbabfe2d4913f" target="_top" xlink:title="サービスを閉じます。">
<polygon fill="#ffffff" stroke="#666666" points="307,-198 216,-198 216,-179 307,-179 307,-198"/>
<text text-anchor="middle" x="261.5" y="-186" font-family="Helvetica,sans-Serif" font-size="10.00" fill="#000000">potrCloseService</text>
</a>
</g>
</g>
<!-- Node3&#45;&gt;Node4 -->
<g id="edge3_Node000003_Node000004" class="edge">
<title>Node3&#45;&gt;Node4</title>
<g id="a_edge3_Node000003_Node000004"><a xlink:title=" ">
<path fill="none" stroke="#63b8ff" d="M660.8719,-194.9119C581.5532,-193.6385 394.063,-190.6283 307.1737,-189.2333"/>
<polygon fill="#63b8ff" stroke="#63b8ff" points="660.8276,-198.4116 670.8826,-195.0727 660.9401,-191.4125 660.8276,-198.4116"/>
</a>
</g>
</g>
<!-- Node5 -->
<g id="Node000005" class="node">
<title>Node5</title>
<g id="a_Node000005"><a xlink:href="recv_8c.html#a0ddf1224851353fc92bfbff6f499fa97" target="_top" xlink:title="メインエントリーポイント。">
<polygon fill="#ffffff" stroke="#666666" points="38,-147 0,-147 0,-128 38,-128 38,-147"/>
<text text-anchor="middle" x="19" y="-135" font-family="Helvetica,sans-Serif" font-size="10.00" fill="#000000">main</text>
</a>
</g>
</g>
<!-- Node4&#45;&gt;Node5 -->
<g id="edge4_Node000004_Node000005" class="edge">
<title>Node4&#45;&gt;Node5</title>
<g id="a_edge4_Node000004_Node000005"><a xlink:title=" ">
<path fill="none" stroke="#63b8ff" d="M206.1165,-176.8523C152.4207,-165.5596 73.9813,-149.0631 38.1433,-141.526"/>
<polygon fill="#63b8ff" stroke="#63b8ff" points="205.6658,-180.334 216.1721,-178.9671 207.1065,-173.4839 205.6658,-180.334"/>
</a>
</g>
</g>
<!-- Node7 -->
<g id="Node000007" class="node">
<title>Node7</title>
<g id="a_Node000007"><a xlink:href="potrRecvThread_8c.html#aeab28b0e8d42c5c5e28e69bf70074990" target="_top" xlink:title=" ">
<polygon fill="#ffffff" stroke="#666666" points="729.5,-126 665.5,-126 665.5,-107 729.5,-107 729.5,-126"/>
<text text-anchor="middle" x="697.5" y="-114" font-family="Helvetica,sans-Serif" font-size="10.00" fill="#000000">send_nack</text>
</a>
</g>
</g>
<!-- Node6&#45;&gt;Node7 -->
<g id="edge6_Node000006_Node000007" class="edge">
<title>Node6&#45;&gt;Node7</title>
<g id="a_edge6_Node000006_Node000007"><a xlink:title=" ">
<path fill="none" stroke="#63b8ff" d="M778.5613,-116.5C761.7897,-116.5 744.1757,-116.5 729.6675,-116.5"/>
<polygon fill="#63b8ff" stroke="#63b8ff" points="778.86,-120.0001 788.8599,-116.5 778.8599,-113.0001 778.86,-120.0001"/>
</a>
</g>
</g>
<!-- Node8 -->
<g id="Node000008" class="node">
<title>Node8</title>
<g id="a_Node000008"><a xlink:href="potrRecvThread_8c.html#a69c2cb6947b8a810bb95585972a60e09" target="_top" xlink:title=" ">
<polygon fill="#ffffff" stroke="#666666" points="610,-93 513,-93 513,-74 610,-74 610,-93"/>
<text text-anchor="middle" x="561.5" y="-81" font-family="Helvetica,sans-Serif" font-size="10.00" fill="#000000">process_outer_pkt</text>
</a>
</g>
</g>
<!-- Node7&#45;&gt;Node8 -->
<g id="edge7_Node000007_Node000008" class="edge">
<title>Node7&#45;&gt;Node8</title>
<g id="a_edge7_Node000007_Node000008"><a xlink:title=" ">
<path fill="none" stroke="#63b8ff" d="M655.3669,-106.2765C637.9533,-102.0512 617.8801,-97.1805 600.7769,-93.0304"/>
<polygon fill="#63b8ff" stroke="#63b8ff" points="654.7265,-109.7226 665.2699,-108.6795 656.3772,-102.92 654.7265,-109.7226"/>
</a>
</g>
</g>
<!-- Node9 -->
<g id="Node000009" class="node">
<title>Node9</title>
<g id="a_Node000009"><a xlink:href="potrRecvThread_8c.html#a300c2d6c99e3491d0ee4c7cb4de36146" target="_top" xlink:title=" ">
<polygon fill="#ffffff" stroke="#666666" points="464,-94 372,-94 372,-75 464,-75 464,-94"/>
<text text-anchor="middle" x="418" y="-82" font-family="Helvetica,sans-Serif" font-size="10.00" fill="#000000">recv_thread_func</text>
</a>
</g>
</g>
<!-- Node7&#45;&gt;Node9 -->
<g id="edge12_Node000007_Node000009" class="edge">
<title>Node7&#45;&gt;Node9</title>
<g id="a_edge12_Node000007_Node000009"><a xlink:title=" ">
<path fill="none" stroke="#63b8ff" d="M655.1227,-114.2611C617.4433,-111.9879 560.9058,-107.884 512,-101.5 496.3776,-99.4607 479.4051,-96.5939 464.236,-93.7945"/>
<polygon fill="#63b8ff" stroke="#63b8ff" points="655.0402,-117.7622 665.2281,-114.8541 655.4503,-110.7742 655.0402,-117.7622"/>
</a>
</g>
</g>
<!-- Node8&#45;&gt;Node9 -->
<g id="edge8_Node000008_Node000009" class="edge">
<title>Node8&#45;&gt;Node9</title>
<g id="a_edge8_Node000008_Node000009"><a xlink:title=" ">
<path fill="none" stroke="#63b8ff" d="M502.7452,-83.9094C489.8654,-83.9992 476.4077,-84.093 464.1076,-84.1787"/>
<polygon fill="#63b8ff" stroke="#63b8ff" points="502.9421,-87.4083 512.9174,-83.8386 502.8933,-80.4084 502.9421,-87.4083"/>
</a>
</g>
</g>
<!-- Node10 -->
<g id="Node000010" class="node">
<title>Node10</title>
<g id="a_Node000010"><a xlink:href="potrRecvThread_8c.html#a1006d5ccaf47db6c24908eb7ae366505" target="_top" xlink:title="受信スレッドを起動します。">
<polygon fill="#ffffff" stroke="#666666" points="324,-109 199,-109 199,-90 324,-90 324,-109"/>
<text text-anchor="middle" x="261.5" y="-97" font-family="Helvetica,sans-Serif" font-size="10.00" fill="#000000">comm_recv_thread_start</text>
</a>
</g>
</g>
<!-- Node9&#45;&gt;Node10 -->
<g id="edge9_Node000009_Node000010" class="edge">
<title>Node9&#45;&gt;Node10</title>
<g id="a_edge9_Node000009_Node000010"><a xlink:title=" ">
<path fill="none" stroke="#63b8ff" d="M361.8259,-89.8841C349.5887,-91.057 336.5669,-92.3051 324.098,-93.5002"/>
<polygon fill="#63b8ff" stroke="#63b8ff" points="362.2709,-93.3576 371.8913,-88.9194 361.6029,-86.3895 362.2709,-93.3576"/>
</a>
</g>
</g>
<!-- Node11 -->
<g id="Node000011" class="node">
<title>Node11</title>
<g id="a_Node000011"><a xlink:href="potrOpenService_8c.html#a8ce1599677086e0c54400b696ed28680" target="_top" xlink:title="設定ファイルから指定サービスを開きます。">
<polygon fill="#ffffff" stroke="#666666" points="163,-128 74,-128 74,-109 163,-109 163,-128"/>
<text text-anchor="middle" x="118.5" y="-116" font-family="Helvetica,sans-Serif" font-size="10.00" fill="#000000">potrOpenService</text>
</a>
</g>
</g>
<!-- Node10&#45;&gt;Node11 -->
<g id="edge10_Node000010_Node000011" class="edge">
<title>Node10&#45;&gt;Node11</title>
<g id="a_edge10_Node000010_Node000011"><a xlink:title=" ">
<path fill="none" stroke="#63b8ff" d="M188.5984,-109.1862C179.9114,-110.3404 171.252,-111.491 163.1334,-112.5697"/>
<polygon fill="#63b8ff" stroke="#63b8ff" points="189.3262,-112.6204 198.7781,-107.8337 188.4042,-105.6813 189.3262,-112.6204"/>
</a>
</g>
</g>
<!-- Node11&#45;&gt;Node5 -->
<g id="edge11_Node000011_Node000005" class="edge">
<title>Node11&#45;&gt;Node5</title>
<g id="a_edge11_Node000011_Node000005"><a xlink:title=" ">
<path fill="none" stroke="#63b8ff" d="M63.8932,-128.9274C54.615,-130.6991 45.5643,-132.4274 38.0485,-133.8626"/>
<polygon fill="#63b8ff" stroke="#63b8ff" points="64.8224,-132.3133 73.9884,-126.9997 63.5094,-125.4376 64.8224,-132.3133"/>
</a>
</g>
</g>
<!-- Node13 -->
<g id="Node000013" class="node">
<title>Node13</title>
<g id="a_Node000013"><a xlink:href="potrSendThread_8c.html#a260e2ab6373553aa61c9a71e9901ff46" target="_top" xlink:title=" ">
<polygon fill="#ffffff" stroke="#666666" points="734.5,-19 660.5,-19 660.5,0 734.5,0 734.5,-19"/>
<text text-anchor="middle" x="697.5" y="-7" font-family="Helvetica,sans-Serif" font-size="10.00" fill="#000000">flush_packed</text>
</a>
</g>
</g>
<!-- Node12&#45;&gt;Node13 -->
<g id="edge14_Node000012_Node000013" class="edge">
<title>Node12&#45;&gt;Node13</title>
<g id="a_edge14_Node000012_Node000013"><a xlink:title=" ">
<path fill="none" stroke="#63b8ff" d="M773.5843,-19.2475C760.27,-17.5417 746.6743,-15.7999 734.7279,-14.2694"/>
<polygon fill="#63b8ff" stroke="#63b8ff" points="773.3153,-22.7415 783.679,-20.5407 774.2049,-15.7983 773.3153,-22.7415"/>
</a>
</g>
</g>
<!-- Node14 -->
<g id="Node000014" class="node">
<title>Node14</title>
<g id="a_Node000014"><a xlink:href="potrSendThread_8c.html#a73c68e6c27f4228dd3e7bfdf470d9a6f" target="_top" xlink:title=" ">
<polygon fill="#ffffff" stroke="#666666" points="608.5,-19 514.5,-19 514.5,0 608.5,0 608.5,-19"/>
<text text-anchor="middle" x="561.5" y="-7" font-family="Helvetica,sans-Serif" font-size="10.00" fill="#000000">send_thread_func</text>
</a>
</g>
</g>
<!-- Node13&#45;&gt;Node14 -->
<g id="edge15_Node000013_Node000014" class="edge">
<title>Node13&#45;&gt;Node14</title>
<g id="a_edge15_Node000013_Node000014"><a xlink:title=" ">
<path fill="none" stroke="#63b8ff" d="M650.2926,-9.5C636.7963,-9.5 622.091,-9.5 608.6011,-9.5"/>
<polygon fill="#63b8ff" stroke="#63b8ff" points="650.3374,-13.0001 660.3374,-9.5 650.3374,-6.0001 650.3374,-13.0001"/>
</a>
</g>
</g>
<!-- Node15 -->
<g id="Node000015" class="node">
<title>Node15</title>
<g id="a_Node000015"><a xlink:href="potrSendThread_8c.html#a43c9d922d9a3e693d9327f34beee30bf" target="_top" xlink:title=" ">
<polygon fill="#ffffff" stroke="#666666" points="476,-49 360,-49 360,-30 476,-30 476,-49"/>
<text text-anchor="middle" x="418" y="-37" font-family="Helvetica,sans-Serif" font-size="10.00" fill="#000000">potr_send_thread_start</text>
</a>
</g>
</g>
<!-- Node14&#45;&gt;Node15 -->
<g id="edge16_Node000014_Node000015" class="edge">
<title>Node14&#45;&gt;Node15</title>
<g id="a_edge16_Node000014_Node000015"><a xlink:title=" ">
<path fill="none" stroke="#63b8ff" d="M505.7804,-21.1487C491.9078,-24.0489 477.1926,-27.1252 463.8559,-29.9134"/>
<polygon fill="#63b8ff" stroke="#63b8ff" points="506.629,-24.547 515.7012,-19.0747 505.1965,-17.6952 506.629,-24.547"/>
</a>
</g>
</g>
<!-- Node15&#45;&gt;Node11 -->
<g id="edge17_Node000015_Node000011" class="edge">
<title>Node15&#45;&gt;Node11</title>
<g id="a_edge17_Node000015_Node000011"><a xlink:title=" ">
<path fill="none" stroke="#63b8ff" d="M349.8493,-47.6754C306.055,-54.0429 248.335,-64.5303 199,-80.5 176.2097,-87.8772 151.5063,-100.2516 135.5613,-108.8675"/>
<polygon fill="#63b8ff" stroke="#63b8ff" points="350.4097,-51.131 359.8193,-46.2617 349.427,-44.2003 350.4097,-51.131"/>
</a>
</g>
</g>
<!-- Node17 -->
<g id="Node000017" class="node">
<title>Node17</title>
<g id="a_Node000017"><a xlink:href="potrHealthThread_8c.html#a7c706d98a6a4d22f8cc94b60698533c6" target="_top" xlink:title=" ">
<polygon fill="#ffffff" stroke="#666666" points="611,-169 512,-169 512,-150 611,-150 611,-169"/>
<text text-anchor="middle" x="561.5" y="-157" font-family="Helvetica,sans-Serif" font-size="10.00" fill="#000000">health_thread_func</text>
</a>
</g>
</g>
<!-- Node16&#45;&gt;Node17 -->
<g id="edge19_Node000016_Node000017" class="edge">
<title>Node16&#45;&gt;Node17</title>
<g id="a_edge19_Node000016_Node000017"><a xlink:title=" ">
<path fill="none" stroke="#63b8ff" d="M780.4561,-156.3325C730.4487,-157.0559 658.7623,-158.0929 611.207,-158.7809"/>
<polygon fill="#63b8ff" stroke="#63b8ff" points="780.5197,-159.832 790.468,-156.1876 780.4183,-152.8327 780.5197,-159.832"/>
</a>
</g>
</g>
<!-- Node18 -->
<g id="Node000018" class="node">
<title>Node18</title>
<g id="a_Node000018"><a xlink:href="potrHealthThread_8c.html#a8545c91db5b627eed4bf0b82280d661c" target="_top" xlink:title="ヘルスチェックスレッドを起動します。">
<polygon fill="#ffffff" stroke="#666666" points="466.5,-157.5 369.5,-157.5 369.5,-127.5 466.5,-127.5 466.5,-157.5"/>
<text text-anchor="start" x="377.5" y="-145.5" font-family="Helvetica,sans-Serif" font-size="10.00" fill="#000000">potr_health_thread</text>
<text text-anchor="middle" x="418" y="-134.5" font-family="Helvetica,sans-Serif" font-size="10.00" fill="#000000">_start</text>
</a>
</g>
</g>
<!-- Node17&#45;&gt;Node18 -->
<g id="edge20_Node000017_Node000018" class="edge">
<title>Node17&#45;&gt;Node18</title>
<g id="a_edge20_Node000017_Node000018"><a xlink:title=" ">
<path fill="none" stroke="#63b8ff" d="M501.6356,-152.4081C490.006,-151.0303 477.9479,-149.6018 466.7296,-148.2728"/>
<polygon fill="#63b8ff" stroke="#63b8ff" points="501.371,-155.9011 511.7134,-153.6019 502.1946,-148.9497 501.371,-155.9011"/>
</a>
</g>
</g>
<!-- Node18&#45;&gt;Node11 -->
<g id="edge21_Node000018_Node000011" class="edge">
<title>Node18&#45;&gt;Node11</title>
<g id="a_edge21_Node000018_Node000011"><a xlink:title=" ">
<path fill="none" stroke="#63b8ff" d="M359.1864,-137.7871C301.7162,-133.1818 215.4876,-126.272 163.3483,-122.0939"/>
<polygon fill="#63b8ff" stroke="#63b8ff" points="358.9659,-141.2805 369.2136,-138.5906 359.5251,-134.3029 358.9659,-141.2805"/>
</a>
</g>
</g>
<!-- Node20 -->
<g id="Node000020" class="node">
<title>Node20</title>
<g id="a_Node000020"><a xlink:href="potrRecvThread_8c.html#a1794de2bc67170db1366ab5024329605" target="_top" xlink:title=" ">
<polygon fill="#ffffff" stroke="#666666" points="595,-56 528,-56 528,-37 595,-37 595,-56"/>
<text text-anchor="middle" x="561.5" y="-44" font-family="Helvetica,sans-Serif" font-size="10.00" fill="#000000">send_reject</text>
</a>
</g>
</g>
<!-- Node19&#45;&gt;Node20 -->
<g id="edge23_Node000019_Node000020" class="edge">
<title>Node19&#45;&gt;Node20</title>
<g id="a_edge23_Node000019_Node000020"><a xlink:title=" ">
<path fill="none" stroke="#63b8ff" d="M636.6234,-54.2333C622.4157,-52.7707 607.7887,-51.265 595.2599,-49.9753"/>
<polygon fill="#63b8ff" stroke="#63b8ff" points="636.5528,-57.7444 646.8586,-55.2869 637.2696,-50.7812 636.5528,-57.7444"/>
</a>
</g>
</g>
<!-- Node20&#45;&gt;Node9 -->
<g id="edge24_Node000020_Node000009" class="edge">
<title>Node20&#45;&gt;Node9</title>
<g id="a_edge24_Node000020_Node000009"><a xlink:title=" ">
<path fill="none" stroke="#63b8ff" d="M518.1196,-57.9875C497.6084,-63.419 473.4104,-69.8269 453.942,-74.9822"/>
<polygon fill="#63b8ff" stroke="#63b8ff" points="519.0848,-61.3526 527.8556,-55.4093 517.2928,-54.5859 519.0848,-61.3526"/>
</a>
</g>
</g>
</g>
</svg>
