<?xml version="1.0" encoding="UTF-8" standalone="no"?>
<!DOCTYPE svg PUBLIC "-//W3C//DTD SVG 1.1//EN"
 "http://www.w3.org/Graphics/SVG/1.1/DTD/svg11.dtd">
<!-- Generated by graphviz version 2.40.1 (0)
 -->
<!-- Title: porter/libsrc/porter/protocol/packet.c Pages: 1 -->
<svg width="360pt" height="203pt"
 viewBox="0.00 0.00 360.00 203.00" xmlns="http://www.w3.org/2000/svg" xmlns:xlink="http://www.w3.org/1999/xlink">
<g id="graph0" class="graph" transform="scale(1 1) rotate(0) translate(4 199)">
<title>porter/libsrc/porter/protocol/packet.c</title>
<!-- Node1 -->
<g id="Node000001" class="node">
<title>Node1</title>
<g id="a_Node000001"><a xlink:title="パケット構築・解析モジュール。">
<polygon fill="#999999" stroke="#666666" points="221.5,-195 126.5,-195 126.5,-165 221.5,-165 221.5,-195"/>
<text text-anchor="start" x="134.5" y="-183" font-family="Helvetica,sans-Serif" font-size="10.00" fill="#000000">porter/libsrc/porter</text>
<text text-anchor="middle" x="174" y="-172" font-family="Helvetica,sans-Serif" font-size="10.00" fill="#000000">/protocol/packet.c</text>
</a>
</g>
</g>
<!-- Node2 -->
<g id="Node000002" class="node">
<title>Node2</title>
<g id="a_Node000002"><a xlink:title=" ">
<polygon fill="#e0e0e0" stroke="#999999" points="52,-19 0,-19 0,0 52,0 52,-19"/>
<text text-anchor="middle" x="26" y="-7" font-family="Helvetica,sans-Serif" font-size="10.00" fill="#000000">stddef.h</text>
</a>
</g>
</g>
<!-- Node1&#45;&gt;Node2 -->
<g id="edge1_Node000001_Node000002" class="edge">
<title>Node1&#45;&gt;Node2</title>
<g id="a_edge1_Node000001_Node000002"><a xlink:title=" ">
<path fill="none" stroke="#63b8ff" d="M126.3211,-172.8425C98.7299,-166.1746 65.6734,-153.3916 46,-129 22.8777,-100.3324 22.0285,-54.9792 23.8015,-29.1745"/>
<polygon fill="#63b8ff" stroke="#63b8ff" points="27.2959,-29.3915 24.6972,-19.1203 20.3235,-28.7703 27.2959,-29.3915"/>
</a>
</g>
</g>
<!-- Node3 -->
<g id="Node000003" class="node">
<title>Node3</title>
<g id="a_Node000003"><a xlink:title=" ">
<polygon fill="#e0e0e0" stroke="#999999" points="271.5,-129 222.5,-129 222.5,-110 271.5,-110 271.5,-129"/>
<text text-anchor="middle" x="247" y="-117" font-family="Helvetica,sans-Serif" font-size="10.00" fill="#000000">string.h</text>
</a>
</g>
</g>
<!-- Node1&#45;&gt;Node3 -->
<g id="edge2_Node000001_Node000003" class="edge">
<title>Node1&#45;&gt;Node3</title>
<g id="a_edge2_Node000001_Node000003"><a xlink:title=" ">
<path fill="none" stroke="#63b8ff" d="M192.421,-164.7333C203.1916,-155.807 216.772,-144.552 227.6918,-135.502"/>
<polygon fill="#63b8ff" stroke="#63b8ff" points="229.9668,-138.1623 235.4329,-129.0864 225.5,-132.7727 229.9668,-138.1623"/>
</a>
</g>
</g>
<!-- Node4 -->
<g id="Node000004" class="node">
<title>Node4</title>
<g id="a_Node000004"><a xlink:title=" ">
<polygon fill="#e0e0e0" stroke="#999999" points="352,-129 290,-129 290,-110 352,-110 352,-129"/>
<text text-anchor="middle" x="321" y="-117" font-family="Helvetica,sans-Serif" font-size="10.00" fill="#000000">arpa/inet.h</text>
</a>
</g>
</g>
<!-- Node1&#45;&gt;Node4 -->
<g id="edge3_Node000001_Node000004" class="edge">
<title>Node1&#45;&gt;Node4</title>
<g id="a_edge3_Node000001_Node000004"><a xlink:title=" ">
<path fill="none" stroke="#63b8ff" d="M210.7151,-164.8894C234.5263,-155.0895 265.2771,-142.4336 288.2561,-132.9762"/>
<polygon fill="#63b8ff" stroke="#63b8ff" points="289.6702,-136.1791 297.5855,-129.1366 287.006,-129.7059 289.6702,-136.1791"/>
</a>
</g>
</g>
<!-- Node5 -->
<g id="Node000005" class="node">
<title>Node5</title>
<g id="a_Node000005"><a xlink:href="porter__const_8h.html" target="_top" xlink:title="通信ライブラリの定数ファイル。">
<polygon fill="#ffffff" stroke="#666666" points="228.5,-19 149.5,-19 149.5,0 228.5,0 228.5,-19"/>
<text text-anchor="middle" x="189" y="-7" font-family="Helvetica,sans-Serif" font-size="10.00" fill="#000000">porter_const.h</text>
</a>
</g>
</g>
<!-- Node1&#45;&gt;Node5 -->
<g id="edge4_Node000001_Node000005" class="edge">
<title>Node1&#45;&gt;Node5</title>
<g id="a_edge4_Node000001_Node000005"><a xlink:title=" ">
<path fill="none" stroke="#63b8ff" d="M175.3311,-164.8693C178.0496,-133.9695 184.2373,-63.6355 187.2656,-29.2141"/>
<polygon fill="#63b8ff" stroke="#63b8ff" points="190.772,-29.2947 188.1619,-19.0264 183.7989,-28.6812 190.772,-29.2947"/>
</a>
</g>
</g>
<!-- Node6 -->
<g id="Node000006" class="node">
<title>Node6</title>
<g id="a_Node000006"><a xlink:href="porter__type_8h.html" target="_top" xlink:title="通信ライブラリの型定義ファイル。">
<polygon fill="#ffffff" stroke="#666666" points="166,-74 92,-74 92,-55 166,-55 166,-74"/>
<text text-anchor="middle" x="129" y="-62" font-family="Helvetica,sans-Serif" font-size="10.00" fill="#000000">porter_type.h</text>
</a>
</g>
</g>
<!-- Node1&#45;&gt;Node6 -->
<g id="edge5_Node000001_Node000006" class="edge">
<title>Node1&#45;&gt;Node6</title>
<g id="a_edge5_Node000001_Node000006"><a xlink:title=" ">
<path fill="none" stroke="#63b8ff" d="M168.117,-164.9004C160.0138,-144.102 145.4136,-106.6282 136.5247,-83.8135"/>
<polygon fill="#63b8ff" stroke="#63b8ff" points="139.6714,-82.2486 132.7798,-74.2014 133.1489,-84.7898 139.6714,-82.2486"/>
</a>
</g>
</g>
<!-- Node8 -->
<g id="Node000008" class="node">
<title>Node8</title>
<g id="a_Node000008"><a xlink:href="packet_8h.html" target="_top" xlink:title="パケット構築・解析モジュールの内部ヘッダー。">
<polygon fill="#ffffff" stroke="#666666" points="109,-129 55,-129 55,-110 109,-110 109,-129"/>
<text text-anchor="middle" x="82" y="-117" font-family="Helvetica,sans-Serif" font-size="10.00" fill="#000000">packet.h</text>
</a>
</g>
</g>
<!-- Node1&#45;&gt;Node8 -->
<g id="edge9_Node000001_Node000008" class="edge">
<title>Node1&#45;&gt;Node8</title>
<g id="a_edge9_Node000001_Node000008"><a xlink:title=" ">
<path fill="none" stroke="#63b8ff" d="M150.7845,-164.7333C136.8114,-155.5444 119.0857,-143.8879 105.1283,-134.7093"/>
<polygon fill="#63b8ff" stroke="#63b8ff" points="106.856,-131.6566 96.5777,-129.0864 103.0099,-137.5053 106.856,-131.6566"/>
</a>
</g>
</g>
<!-- Node6&#45;&gt;Node2 -->
<g id="edge6_Node000006_Node000002" class="edge">
<title>Node6&#45;&gt;Node2</title>
<g id="a_edge6_Node000006_Node000002"><a xlink:title=" ">
<path fill="none" stroke="#63b8ff" d="M111.0588,-54.9197C95.0582,-46.3757 71.4026,-33.7441 53.0972,-23.9694"/>
<polygon fill="#63b8ff" stroke="#63b8ff" points="54.551,-20.778 44.0812,-19.155 51.2538,-26.9528 54.551,-20.778"/>
</a>
</g>
</g>
<!-- Node6&#45;&gt;Node5 -->
<g id="edge8_Node000006_Node000005" class="edge">
<title>Node6&#45;&gt;Node5</title>
<g id="a_edge8_Node000006_Node000005"><a xlink:title=" ">
<path fill="none" stroke="#63b8ff" d="M139.4512,-54.9197C148.0349,-47.0514 160.4003,-35.7164 170.6307,-26.3385"/>
<polygon fill="#63b8ff" stroke="#63b8ff" points="173.258,-28.6782 178.2645,-19.3408 168.5279,-23.5181 173.258,-28.6782"/>
</a>
</g>
</g>
<!-- Node7 -->
<g id="Node000007" class="node">
<title>Node7</title>
<g id="a_Node000007"><a xlink:title=" ">
<polygon fill="#e0e0e0" stroke="#999999" points="127.5,-19 78.5,-19 78.5,0 127.5,0 127.5,-19"/>
<text text-anchor="middle" x="103" y="-7" font-family="Helvetica,sans-Serif" font-size="10.00" fill="#000000">stdint.h</text>
</a>
</g>
</g>
<!-- Node6&#45;&gt;Node7 -->
<g id="edge7_Node000006_Node000007" class="edge">
<title>Node6&#45;&gt;Node7</title>
<g id="a_edge7_Node000006_Node000007"><a xlink:title=" ">
<path fill="none" stroke="#63b8ff" d="M124.4711,-54.9197C121.0462,-47.6746 116.2318,-37.4903 112.0296,-28.601"/>
<polygon fill="#63b8ff" stroke="#63b8ff" points="115.0901,-26.8857 107.652,-19.3408 108.7616,-29.8774 115.0901,-26.8857"/>
</a>
</g>
</g>
<!-- Node8&#45;&gt;Node2 -->
<g id="edge10_Node000008_Node000002" class="edge">
<title>Node8&#45;&gt;Node2</title>
<g id="a_edge10_Node000008_Node000002"><a xlink:title=" ">
<path fill="none" stroke="#63b8ff" d="M77.0304,-109.7382C67.7084,-91.4271 47.4589,-51.6514 35.4599,-28.082"/>
<polygon fill="#63b8ff" stroke="#63b8ff" points="38.5345,-26.4066 30.8785,-19.0828 32.2963,-29.5824 38.5345,-26.4066"/>
</a>
</g>
</g>
<!-- Node8&#45;&gt;Node6 -->
<g id="edge12_Node000008_Node000006" class="edge">
<title>Node8&#45;&gt;Node6</title>
<g id="a_edge12_Node000008_Node000006"><a xlink:title=" ">
<path fill="none" stroke="#63b8ff" d="M90.1868,-109.9197C96.7109,-102.2851 106.0241,-91.3867 113.8923,-82.1792"/>
<polygon fill="#63b8ff" stroke="#63b8ff" points="116.7548,-84.217 120.5906,-74.3408 111.4332,-79.6694 116.7548,-84.217"/>
</a>
</g>
</g>
<!-- Node8&#45;&gt;Node7 -->
<g id="edge11_Node000008_Node000007" class="edge">
<title>Node8&#45;&gt;Node7</title>
<g id="a_edge11_Node000008_Node000007"><a xlink:title=" ">
<path fill="none" stroke="#63b8ff" d="M80.9635,-109.7465C79.8769,-96.9941 78.846,-74.0388 83,-55 84.9917,-45.8714 88.8767,-36.3249 92.697,-28.3471"/>
<polygon fill="#63b8ff" stroke="#63b8ff" points="95.9217,-29.7281 97.3541,-19.2305 89.688,-26.5437 95.9217,-29.7281"/>
</a>
</g>
</g>
</g>
</svg>
