<?xml version="1.0" encoding="UTF-8" standalone="no"?>
<!DOCTYPE svg PUBLIC "-//W3C//DTD SVG 1.1//EN"
 "http://www.w3.org/Graphics/SVG/1.1/DTD/svg11.dtd">
<!-- Generated by graphviz version 2.40.1 (0)
 -->
<!-- Title: hton64 Pages: 1 -->
<svg width="1102pt" height="253pt"
 viewBox="0.00 0.00 1102.00 253.00" xmlns="http://www.w3.org/2000/svg" xmlns:xlink="http://www.w3.org/1999/xlink">
<g id="graph0" class="graph" transform="scale(1 1) rotate(0) translate(4 249)">
<title>hton64</title>
<!-- Node1 -->
<g id="Node000001" class="node">
<title>Node1</title>
<g id="a_Node000001"><a xlink:title=" ">
<polygon fill="#999999" stroke="#666666" points="1094,-113 1048,-113 1048,-94 1094,-94 1094,-113"/>
<text text-anchor="middle" x="1071" y="-101" font-family="Helvetica,sans-Serif" font-size="10.00" fill="#000000">hton64</text>
</a>
</g>
</g>
<!-- Node2 -->
<g id="Node000002" class="node">
<title>Node2</title>
<g id="a_Node000002"><a xlink:href="packet_8c.html#a479088cf3b9ccf5ebe8891ad2881b196" target="_top" xlink:title=" ">
<polygon fill="#ffffff" stroke="#666666" points="1012,-151 928,-151 928,-132 1012,-132 1012,-151"/>
<text text-anchor="middle" x="970" y="-139" font-family="Helvetica,sans-Serif" font-size="10.00" fill="#000000">fill_session_hdr</text>
</a>
</g>
</g>
<!-- Node1&#45;&gt;Node2 -->
<g id="edge1_Node000001_Node000002" class="edge">
<title>Node1&#45;&gt;Node2</title>
<g id="a_edge1_Node000001_Node000002"><a xlink:title=" ">
<path fill="none" stroke="#63b8ff" d="M1038.1835,-115.8468C1024.3485,-121.052 1008.4869,-127.0198 995.5457,-131.8887"/>
<polygon fill="#63b8ff" stroke="#63b8ff" points="1039.7016,-119.0152 1047.8286,-112.218 1037.2366,-112.4636 1039.7016,-119.0152"/>
</a>
</g>
</g>
<!-- Node22 -->
<g id="Node000022" class="node">
<title>Node22</title>
<g id="a_Node000022"><a xlink:href="packet_8c.html#a1890f684720279e482a7731dd14ff5b7" target="_top" xlink:title=" ">
<polygon fill="#ffffff" stroke="#666666" points="993,-95 947,-95 947,-76 993,-76 993,-95"/>
<text text-anchor="middle" x="970" y="-83" font-family="Helvetica,sans-Serif" font-size="10.00" fill="#000000">ntoh64</text>
</a>
</g>
</g>
<!-- Node1&#45;&gt;Node22 -->
<g id="edge26_Node000001_Node000022" class="edge">
<title>Node1&#45;&gt;Node22</title>
<g id="a_edge26_Node000001_Node000022"><a xlink:title=" ">
<path fill="none" stroke="#63b8ff" d="M1037.6563,-97.5576C1023.0453,-94.9536 1006.26,-91.9622 993.0636,-89.6103"/>
<polygon fill="#63b8ff" stroke="#63b8ff" points="1037.3696,-101.0615 1047.8286,-99.3704 1038.5978,-94.1701 1037.3696,-101.0615"/>
</a>
</g>
</g>
<!-- Node3 -->
<g id="Node000003" class="node">
<title>Node3</title>
<g id="a_Node000003"><a xlink:href="packet_8c.html#a062c5f9f3ce1273c5ac873ed39537537" target="_top" xlink:title="正常終了通知 (FIN) パケットを構築します。">
<polygon fill="#ffffff" stroke="#666666" points="881.5,-244 794.5,-244 794.5,-225 881.5,-225 881.5,-244"/>
<text text-anchor="middle" x="838" y="-232" font-family="Helvetica,sans-Serif" font-size="10.00" fill="#000000">packet_build_fin</text>
</a>
</g>
</g>
<!-- Node2&#45;&gt;Node3 -->
<g id="edge2_Node000002_Node000003" class="edge">
<title>Node2&#45;&gt;Node3</title>
<g id="a_edge2_Node000002_Node000003"><a xlink:title=" ">
<path fill="none" stroke="#63b8ff" d="M955.7342,-159.1816C941.2768,-176.0501 917.4636,-201.1055 892,-216.5 886.5031,-219.8232 880.3163,-222.6193 874.1443,-224.9417"/>
<polygon fill="#63b8ff" stroke="#63b8ff" points="958.6757,-161.1196 962.4008,-151.2012 953.3036,-156.6318 958.6757,-161.1196"/>
</a>
</g>
</g>
<!-- Node7 -->
<g id="Node000007" class="node">
<title>Node7</title>
<g id="a_Node000007"><a xlink:href="packet_8c.html#a3f4ec3e4fc9c07b3704ecd8ae082af10" target="_top" xlink:title="NACK パケットを構築します。">
<polygon fill="#ffffff" stroke="#666666" points="887,-94 789,-94 789,-75 887,-75 887,-94"/>
<text text-anchor="middle" x="838" y="-82" font-family="Helvetica,sans-Serif" font-size="10.00" fill="#000000">packet_build_nack</text>
</a>
</g>
</g>
<!-- Node2&#45;&gt;Node7 -->
<g id="edge6_Node000002_Node000007" class="edge">
<title>Node2&#45;&gt;Node7</title>
<g id="a_edge6_Node000002_Node000007"><a xlink:title=" ">
<path fill="none" stroke="#63b8ff" d="M938.4633,-127.8819C914.3134,-117.4535 881.607,-103.3303 860.1659,-94.0716"/>
<polygon fill="#63b8ff" stroke="#63b8ff" points="937.338,-131.2083 947.9062,-131.9595 940.1131,-124.7818 937.338,-131.2083"/>
</a>
</g>
</g>
<!-- Node13 -->
<g id="Node000013" class="node">
<title>Node13</title>
<g id="a_Node000013"><a xlink:href="packet_8c.html#a0f1ece40d194d02905f9ebfa68cac012" target="_top" xlink:title="データパケット (パックコンテナ) を構築します。">
<polygon fill="#ffffff" stroke="#666666" points="892,-170 784,-170 784,-151 892,-151 892,-170"/>
<text text-anchor="middle" x="838" y="-158" font-family="Helvetica,sans-Serif" font-size="10.00" fill="#000000">packet_build_packed</text>
</a>
</g>
</g>
<!-- Node2&#45;&gt;Node13 -->
<g id="edge14_Node000002_Node000013" class="edge">
<title>Node2&#45;&gt;Node13</title>
<g id="a_edge14_Node000002_Node000013"><a xlink:title=" ">
<path fill="none" stroke="#63b8ff" d="M917.8244,-149.0101C909.4289,-150.2186 900.7208,-151.472 892.2773,-152.6874"/>
<polygon fill="#63b8ff" stroke="#63b8ff" points="918.4721,-152.453 927.8715,-147.564 917.4748,-145.5245 918.4721,-152.453"/>
</a>
</g>
</g>
<!-- Node17 -->
<g id="Node000017" class="node">
<title>Node17</title>
<g id="a_Node000017"><a xlink:href="packet_8c.html#a208f7dc4daa3e772a3f46ed3ab649a6f" target="_top" xlink:title="PING パケットを構築します。">
<polygon fill="#ffffff" stroke="#666666" points="885.5,-207 790.5,-207 790.5,-188 885.5,-188 885.5,-207"/>
<text text-anchor="middle" x="838" y="-195" font-family="Helvetica,sans-Serif" font-size="10.00" fill="#000000">packet_build_ping</text>
</a>
</g>
</g>
<!-- Node2&#45;&gt;Node17 -->
<g id="edge19_Node000002_Node000017" class="edge">
<title>Node2&#45;&gt;Node17</title>
<g id="a_edge19_Node000002_Node000017"><a xlink:title=" ">
<path fill="none" stroke="#63b8ff" d="M942.2396,-155.5367C927.484,-162.7756 908.9393,-171.5246 892,-178.5 883.913,-181.8301 875.005,-185.1159 866.796,-187.9943"/>
<polygon fill="#63b8ff" stroke="#63b8ff" points="943.9268,-158.6069 951.334,-151.0316 940.8195,-152.3343 943.9268,-158.6069"/>
</a>
</g>
</g>
<!-- Node20 -->
<g id="Node000020" class="node">
<title>Node20</title>
<g id="a_Node000020"><a xlink:href="packet_8c.html#a43aeeb2f7222107832ecb58a92598d12" target="_top" xlink:title="再送不能通知 (REJECT) パケットを構築します。">
<polygon fill="#ffffff" stroke="#666666" points="748,-132 647,-132 647,-113 748,-113 748,-132"/>
<text text-anchor="middle" x="697.5" y="-120" font-family="Helvetica,sans-Serif" font-size="10.00" fill="#000000">packet_build_reject</text>
</a>
</g>
</g>
<!-- Node2&#45;&gt;Node20 -->
<g id="edge23_Node000002_Node000020" class="edge">
<title>Node2&#45;&gt;Node20</title>
<g id="a_edge23_Node000002_Node000020"><a xlink:title=" ">
<path fill="none" stroke="#63b8ff" d="M917.68,-137.852C868.8714,-134.4488 796.5238,-129.4044 748.2336,-126.0374"/>
<polygon fill="#63b8ff" stroke="#63b8ff" points="917.5016,-141.348 927.7209,-138.5521 917.9886,-134.3649 917.5016,-141.348"/>
</a>
</g>
</g>
<!-- Node4 -->
<g id="Node000004" class="node">
<title>Node4</title>
<g id="a_Node000004"><a xlink:href="potrCloseService_8c.html#ad8dcefd0034dccd341e783b0bb242a5c" target="_top" xlink:title=" ">
<polygon fill="#ffffff" stroke="#666666" points="724,-245 671,-245 671,-226 724,-226 724,-245"/>
<text text-anchor="middle" x="697.5" y="-233" font-family="Helvetica,sans-Serif" font-size="10.00" fill="#000000">send_fin</text>
</a>
</g>
</g>
<!-- Node3&#45;&gt;Node4 -->
<g id="edge3_Node000003_Node000004" class="edge">
<title>Node3&#45;&gt;Node4</title>
<g id="a_edge3_Node000003_Node000004"><a xlink:title=" ">
<path fill="none" stroke="#63b8ff" d="M784.1553,-234.8832C763.7074,-235.0288 741.2952,-235.1883 724.3873,-235.3086"/>
<polygon fill="#63b8ff" stroke="#63b8ff" points="784.3403,-238.3821 794.3151,-234.8109 784.2904,-231.3823 784.3403,-238.3821"/>
</a>
</g>
</g>
<!-- Node5 -->
<g id="Node000005" class="node">
<title>Node5</title>
<g id="a_Node000005"><a xlink:href="potrCloseService_8c.html#a69faa7ad17883d282cfbbabfe2d4913f" target="_top" xlink:title="サービスを閉じます。">
<polygon fill="#ffffff" stroke="#666666" points="307,-243 216,-243 216,-224 307,-224 307,-243"/>
<text text-anchor="middle" x="261.5" y="-231" font-family="Helvetica,sans-Serif" font-size="10.00" fill="#000000">potrCloseService</text>
</a>
</g>
</g>
<!-- Node4&#45;&gt;Node5 -->
<g id="edge4_Node000004_Node000005" class="edge">
<title>Node4&#45;&gt;Node5</title>
<g id="a_edge4_Node000004_Node000005"><a xlink:title=" ">
<path fill="none" stroke="#63b8ff" d="M660.8719,-235.332C581.5532,-234.9681 394.063,-234.1081 307.1737,-233.7095"/>
<polygon fill="#63b8ff" stroke="#63b8ff" points="660.8666,-238.8319 670.8826,-235.3779 660.8988,-231.832 660.8666,-238.8319"/>
</a>
</g>
</g>
<!-- Node6 -->
<g id="Node000006" class="node">
<title>Node6</title>
<g id="a_Node000006"><a xlink:href="recv_8c.html#a0ddf1224851353fc92bfbff6f499fa97" target="_top" xlink:title="メインエントリーポイント。">
<polygon fill="#ffffff" stroke="#666666" points="38,-201 0,-201 0,-182 38,-182 38,-201"/>
<text text-anchor="middle" x="19" y="-189" font-family="Helvetica,sans-Serif" font-size="10.00" fill="#000000">main</text>
</a>
</g>
</g>
<!-- Node5&#45;&gt;Node6 -->
<g id="edge5_Node000005_Node000006" class="edge">
<title>Node5&#45;&gt;Node6</title>
<g id="a_edge5_Node000005_Node000006"><a xlink:title=" ">
<path fill="none" stroke="#63b8ff" d="M205.8265,-223.8576C152.1144,-214.5549 73.8463,-200.9992 38.095,-194.8072"/>
<polygon fill="#63b8ff" stroke="#63b8ff" points="205.437,-227.3421 215.8876,-225.6001 206.6316,-220.4448 205.437,-227.3421"/>
</a>
</g>
</g>
<!-- Node8 -->
<g id="Node000008" class="node">
<title>Node8</title>
<g id="a_Node000008"><a xlink:href="potrRecvThread_8c.html#aeab28b0e8d42c5c5e28e69bf70074990" target="_top" xlink:title=" ">
<polygon fill="#ffffff" stroke="#666666" points="729.5,-94 665.5,-94 665.5,-75 729.5,-75 729.5,-94"/>
<text text-anchor="middle" x="697.5" y="-82" font-family="Helvetica,sans-Serif" font-size="10.00" fill="#000000">send_nack</text>
</a>
</g>
</g>
<!-- Node7&#45;&gt;Node8 -->
<g id="edge7_Node000007_Node000008" class="edge">
<title>Node7&#45;&gt;Node8</title>
<g id="a_edge7_Node000007_Node000008"><a xlink:title=" ">
<path fill="none" stroke="#63b8ff" d="M778.5613,-84.5C761.7897,-84.5 744.1757,-84.5 729.6675,-84.5"/>
<polygon fill="#63b8ff" stroke="#63b8ff" points="778.86,-88.0001 788.8599,-84.5 778.8599,-81.0001 778.86,-88.0001"/>
</a>
</g>
</g>
<!-- Node9 -->
<g id="Node000009" class="node">
<title>Node9</title>
<g id="a_Node000009"><a xlink:href="potrRecvThread_8c.html#a69c2cb6947b8a810bb95585972a60e09" target="_top" xlink:title=" ">
<polygon fill="#ffffff" stroke="#666666" points="610,-56 513,-56 513,-37 610,-37 610,-56"/>
<text text-anchor="middle" x="561.5" y="-44" font-family="Helvetica,sans-Serif" font-size="10.00" fill="#000000">process_outer_pkt</text>
</a>
</g>
</g>
<!-- Node8&#45;&gt;Node9 -->
<g id="edge8_Node000008_Node000009" class="edge">
<title>Node8&#45;&gt;Node9</title>
<g id="a_edge8_Node000008_Node000009"><a xlink:title=" ">
<path fill="none" stroke="#63b8ff" d="M655.589,-72.7896C636.4328,-67.4371 614.0205,-61.1748 595.8762,-56.1051"/>
<polygon fill="#63b8ff" stroke="#63b8ff" points="654.6969,-76.1743 665.2699,-75.4945 656.5807,-69.4325 654.6969,-76.1743"/>
</a>
</g>
</g>
<!-- Node10 -->
<g id="Node000010" class="node">
<title>Node10</title>
<g id="a_Node000010"><a xlink:href="potrRecvThread_8c.html#a300c2d6c99e3491d0ee4c7cb4de36146" target="_top" xlink:title=" ">
<polygon fill="#ffffff" stroke="#666666" points="464,-94 372,-94 372,-75 464,-75 464,-94"/>
<text text-anchor="middle" x="418" y="-82" font-family="Helvetica,sans-Serif" font-size="10.00" fill="#000000">recv_thread_func</text>
</a>
</g>
</g>
<!-- Node8&#45;&gt;Node10 -->
<g id="edge13_Node000008_Node000010" class="edge">
<title>Node8&#45;&gt;Node10</title>
<g id="a_edge13_Node000008_Node000010"><a xlink:title=" ">
<path fill="none" stroke="#63b8ff" d="M655.3256,-84.5C603.8622,-84.5 517.1575,-84.5 464.0118,-84.5"/>
<polygon fill="#63b8ff" stroke="#63b8ff" points="655.4378,-88.0001 665.4378,-84.5 655.4378,-81.0001 655.4378,-88.0001"/>
</a>
</g>
</g>
<!-- Node9&#45;&gt;Node10 -->
<g id="edge9_Node000009_Node000010" class="edge">
<title>Node9&#45;&gt;Node10</title>
<g id="a_edge9_Node000009_Node000010"><a xlink:title=" ">
<path fill="none" stroke="#63b8ff" d="M515.5265,-58.6742C495.6836,-63.9287 472.8072,-69.9866 454.1995,-74.9141"/>
<polygon fill="#63b8ff" stroke="#63b8ff" points="516.5181,-62.0323 525.2889,-56.089 514.7261,-55.2655 516.5181,-62.0323"/>
</a>
</g>
</g>
<!-- Node11 -->
<g id="Node000011" class="node">
<title>Node11</title>
<g id="a_Node000011"><a xlink:href="potrRecvThread_8c.html#a1006d5ccaf47db6c24908eb7ae366505" target="_top" xlink:title="受信スレッドを起動します。">
<polygon fill="#ffffff" stroke="#666666" points="324,-110 199,-110 199,-91 324,-91 324,-110"/>
<text text-anchor="middle" x="261.5" y="-98" font-family="Helvetica,sans-Serif" font-size="10.00" fill="#000000">comm_recv_thread_start</text>
</a>
</g>
</g>
<!-- Node10&#45;&gt;Node11 -->
<g id="edge10_Node000010_Node000011" class="edge">
<title>Node10&#45;&gt;Node11</title>
<g id="a_edge10_Node000010_Node000011"><a xlink:title=" ">
<path fill="none" stroke="#63b8ff" d="M361.8259,-90.243C349.5887,-91.4941 336.5669,-92.8254 324.098,-94.1002"/>
<polygon fill="#63b8ff" stroke="#63b8ff" points="362.2992,-93.713 371.8913,-89.214 361.5871,-86.7493 362.2992,-93.713"/>
</a>
</g>
</g>
<!-- Node12 -->
<g id="Node000012" class="node">
<title>Node12</title>
<g id="a_Node000012"><a xlink:href="potrOpenService_8c.html#a8ce1599677086e0c54400b696ed28680" target="_top" xlink:title="設定ファイルから指定サービスを開きます。">
<polygon fill="#ffffff" stroke="#666666" points="163,-182 74,-182 74,-163 163,-163 163,-182"/>
<text text-anchor="middle" x="118.5" y="-170" font-family="Helvetica,sans-Serif" font-size="10.00" fill="#000000">potrOpenService</text>
</a>
</g>
</g>
<!-- Node11&#45;&gt;Node12 -->
<g id="edge11_Node000011_Node000012" class="edge">
<title>Node11&#45;&gt;Node12</title>
<g id="a_edge11_Node000011_Node000012"><a xlink:title=" ">
<path fill="none" stroke="#63b8ff" d="M233.5181,-114.5888C205.1988,-128.8475 162.18,-150.5073 137.5678,-162.8994"/>
<polygon fill="#63b8ff" stroke="#63b8ff" points="235.153,-117.6843 242.5107,-110.061 232.0049,-111.4321 235.153,-117.6843"/>
</a>
</g>
</g>
<!-- Node12&#45;&gt;Node6 -->
<g id="edge12_Node000012_Node000006" class="edge">
<title>Node12&#45;&gt;Node6</title>
<g id="a_edge12_Node000012_Node000006"><a xlink:title=" ">
<path fill="none" stroke="#63b8ff" d="M63.8932,-182.9274C54.615,-184.6991 45.5643,-186.4274 38.0485,-187.8626"/>
<polygon fill="#63b8ff" stroke="#63b8ff" points="64.8224,-186.3133 73.9884,-180.9997 63.5094,-179.4376 64.8224,-186.3133"/>
</a>
</g>
</g>
<!-- Node14 -->
<g id="Node000014" class="node">
<title>Node14</title>
<g id="a_Node000014"><a xlink:href="potrSendThread_8c.html#a260e2ab6373553aa61c9a71e9901ff46" target="_top" xlink:title=" ">
<polygon fill="#ffffff" stroke="#666666" points="734.5,-169 660.5,-169 660.5,-150 734.5,-150 734.5,-169"/>
<text text-anchor="middle" x="697.5" y="-157" font-family="Helvetica,sans-Serif" font-size="10.00" fill="#000000">flush_packed</text>
</a>
</g>
</g>
<!-- Node13&#45;&gt;Node14 -->
<g id="edge15_Node000013_Node000014" class="edge">
<title>Node13&#45;&gt;Node14</title>
<g id="a_edge15_Node000013_Node000014"><a xlink:title=" ">
<path fill="none" stroke="#63b8ff" d="M773.5843,-160.0415C760.27,-159.9468 746.6743,-159.85 734.7279,-159.765"/>
<polygon fill="#63b8ff" stroke="#63b8ff" points="773.6543,-163.542 783.679,-160.1134 773.7042,-156.5422 773.6543,-163.542"/>
</a>
</g>
</g>
<!-- Node15 -->
<g id="Node000015" class="node">
<title>Node15</title>
<g id="a_Node000015"><a xlink:href="potrSendThread_8c.html#a73c68e6c27f4228dd3e7bfdf470d9a6f" target="_top" xlink:title=" ">
<polygon fill="#ffffff" stroke="#666666" points="608.5,-169 514.5,-169 514.5,-150 608.5,-150 608.5,-169"/>
<text text-anchor="middle" x="561.5" y="-157" font-family="Helvetica,sans-Serif" font-size="10.00" fill="#000000">send_thread_func</text>
</a>
</g>
</g>
<!-- Node14&#45;&gt;Node15 -->
<g id="edge16_Node000014_Node000015" class="edge">
<title>Node14&#45;&gt;Node15</title>
<g id="a_edge16_Node000014_Node000015"><a xlink:title=" ">
<path fill="none" stroke="#63b8ff" d="M650.2926,-159.5C636.7963,-159.5 622.091,-159.5 608.6011,-159.5"/>
<polygon fill="#63b8ff" stroke="#63b8ff" points="650.3374,-163.0001 660.3374,-159.5 650.3374,-156.0001 650.3374,-163.0001"/>
</a>
</g>
</g>
<!-- Node16 -->
<g id="Node000016" class="node">
<title>Node16</title>
<g id="a_Node000016"><a xlink:href="potrSendThread_8c.html#a43c9d922d9a3e693d9327f34beee30bf" target="_top" xlink:title=" ">
<polygon fill="#ffffff" stroke="#666666" points="476,-161 360,-161 360,-142 476,-142 476,-161"/>
<text text-anchor="middle" x="418" y="-149" font-family="Helvetica,sans-Serif" font-size="10.00" fill="#000000">potr_send_thread_start</text>
</a>
</g>
</g>
<!-- Node15&#45;&gt;Node16 -->
<g id="edge17_Node000015_Node000016" class="edge">
<title>Node15&#45;&gt;Node16</title>
<g id="a_edge17_Node000015_Node000016"><a xlink:title=" ">
<path fill="none" stroke="#63b8ff" d="M503.9326,-156.2907C494.763,-155.7795 485.2714,-155.2503 476.0898,-154.7385"/>
<polygon fill="#63b8ff" stroke="#63b8ff" points="503.9357,-159.7962 514.115,-156.8583 504.3254,-152.807 503.9357,-159.7962"/>
</a>
</g>
</g>
<!-- Node16&#45;&gt;Node12 -->
<g id="edge18_Node000016_Node000012" class="edge">
<title>Node16&#45;&gt;Node12</title>
<g id="a_edge18_Node000016_Node000012"><a xlink:title=" ">
<path fill="none" stroke="#63b8ff" d="M349.8579,-156.2779C292.6804,-160.287 212.6504,-165.8985 163.2686,-169.361"/>
<polygon fill="#63b8ff" stroke="#63b8ff" points="350.1676,-159.7649 359.8983,-155.5739 349.6779,-152.782 350.1676,-159.7649"/>
</a>
</g>
</g>
<!-- Node18 -->
<g id="Node000018" class="node">
<title>Node18</title>
<g id="a_Node000018"><a xlink:href="potrHealthThread_8c.html#a7c706d98a6a4d22f8cc94b60698533c6" target="_top" xlink:title=" ">
<polygon fill="#ffffff" stroke="#666666" points="611,-207 512,-207 512,-188 611,-188 611,-207"/>
<text text-anchor="middle" x="561.5" y="-195" font-family="Helvetica,sans-Serif" font-size="10.00" fill="#000000">health_thread_func</text>
</a>
</g>
</g>
<!-- Node17&#45;&gt;Node18 -->
<g id="edge20_Node000017_Node000018" class="edge">
<title>Node17&#45;&gt;Node18</title>
<g id="a_edge20_Node000017_Node000018"><a xlink:title=" ">
<path fill="none" stroke="#63b8ff" d="M780.4561,-197.5C730.4487,-197.5 658.7623,-197.5 611.207,-197.5"/>
<polygon fill="#63b8ff" stroke="#63b8ff" points="780.468,-201.0001 790.468,-197.5 780.4679,-194.0001 780.468,-201.0001"/>
</a>
</g>
</g>
<!-- Node19 -->
<g id="Node000019" class="node">
<title>Node19</title>
<g id="a_Node000019"><a xlink:href="potrHealthThread_8c.html#a8545c91db5b627eed4bf0b82280d661c" target="_top" xlink:title="ヘルスチェックスレッドを起動します。">
<polygon fill="#ffffff" stroke="#666666" points="466.5,-209.5 369.5,-209.5 369.5,-179.5 466.5,-179.5 466.5,-209.5"/>
<text text-anchor="start" x="377.5" y="-197.5" font-family="Helvetica,sans-Serif" font-size="10.00" fill="#000000">potr_health_thread</text>
<text text-anchor="middle" x="418" y="-186.5" font-family="Helvetica,sans-Serif" font-size="10.00" fill="#000000">_start</text>
</a>
</g>
</g>
<!-- Node18&#45;&gt;Node19 -->
<g id="edge21_Node000018_Node000019" class="edge">
<title>Node18&#45;&gt;Node19</title>
<g id="a_edge21_Node000018_Node000019"><a xlink:title=" ">
<path fill="none" stroke="#63b8ff" d="M501.6356,-196.2485C490.006,-196.0054 477.9479,-195.7533 466.7296,-195.5187"/>
<polygon fill="#63b8ff" stroke="#63b8ff" points="501.6424,-199.7493 511.7134,-196.4592 501.7888,-192.7508 501.6424,-199.7493"/>
</a>
</g>
</g>
<!-- Node19&#45;&gt;Node12 -->
<g id="edge22_Node000019_Node000012" class="edge">
<title>Node19&#45;&gt;Node12</title>
<g id="a_edge22_Node000019_Node000012"><a xlink:title=" ">
<path fill="none" stroke="#63b8ff" d="M359.1864,-190.1798C301.7162,-185.9583 215.4876,-179.6243 163.3483,-175.7944"/>
<polygon fill="#63b8ff" stroke="#63b8ff" points="358.984,-193.6743 369.2136,-190.9164 359.4969,-186.6931 358.984,-193.6743"/>
</a>
</g>
</g>
<!-- Node21 -->
<g id="Node000021" class="node">
<title>Node21</title>
<g id="a_Node000021"><a xlink:href="potrRecvThread_8c.html#a1794de2bc67170db1366ab5024329605" target="_top" xlink:title=" ">
<polygon fill="#ffffff" stroke="#666666" points="595,-132 528,-132 528,-113 595,-113 595,-132"/>
<text text-anchor="middle" x="561.5" y="-120" font-family="Helvetica,sans-Serif" font-size="10.00" fill="#000000">send_reject</text>
</a>
</g>
</g>
<!-- Node20&#45;&gt;Node21 -->
<g id="edge24_Node000020_Node000021" class="edge">
<title>Node20&#45;&gt;Node21</title>
<g id="a_edge24_Node000020_Node000021"><a xlink:title=" ">
<path fill="none" stroke="#63b8ff" d="M636.6234,-122.5C622.4157,-122.5 607.7887,-122.5 595.2599,-122.5"/>
<polygon fill="#63b8ff" stroke="#63b8ff" points="636.8587,-126.0001 646.8586,-122.5 636.8586,-119.0001 636.8587,-126.0001"/>
</a>
</g>
</g>
<!-- Node21&#45;&gt;Node10 -->
<g id="edge25_Node000021_Node000010" class="edge">
<title>Node21&#45;&gt;Node10</title>
<g id="a_edge25_Node000021_Node000010"><a xlink:title=" ">
<path fill="none" stroke="#63b8ff" d="M518.1196,-111.0125C497.6084,-105.581 473.4104,-99.1731 453.942,-94.0178"/>
<polygon fill="#63b8ff" stroke="#63b8ff" points="517.2928,-114.4141 527.8556,-113.5907 519.0848,-107.6474 517.2928,-114.4141"/>
</a>
</g>
</g>
<!-- Node23 -->
<g id="Node000023" class="node">
<title>Node23</title>
<g id="a_Node000023"><a xlink:href="packet_8c.html#a15889622b4af9f2ad1d7f3269532dc6f" target="_top" xlink:title="受信バイト列をパケット構造体に解析します。">
<polygon fill="#ffffff" stroke="#666666" points="599,-19 524,-19 524,0 599,0 599,-19"/>
<text text-anchor="middle" x="561.5" y="-7" font-family="Helvetica,sans-Serif" font-size="10.00" fill="#000000">packet_parse</text>
</a>
</g>
</g>
<!-- Node22&#45;&gt;Node23 -->
<g id="edge27_Node000022_Node000023" class="edge">
<title>Node22&#45;&gt;Node23</title>
<g id="a_edge27_Node000022_Node000023"><a xlink:title=" ">
<path fill="none" stroke="#63b8ff" d="M936.8851,-76.3604C923.0705,-72.717 906.8195,-68.6498 892,-65.5 786.6892,-43.1172 660.9877,-23.8395 599.3631,-14.8681"/>
<polygon fill="#63b8ff" stroke="#63b8ff" points="936.3455,-79.8391 946.9103,-79.0418 938.1542,-73.0768 936.3455,-79.8391"/>
</a>
</g>
</g>
<!-- Node23&#45;&gt;Node10 -->
<g id="edge28_Node000023_Node000010" class="edge">
<title>Node23&#45;&gt;Node10</title>
<g id="a_edge28_Node000023_Node000010"><a xlink:title=" ">
<path fill="none" stroke="#63b8ff" d="M522.6719,-22.7866C519.0247,-24.2832 515.417,-25.8623 512,-27.5 482.2254,-41.7704 449.7651,-62.7842 431.8464,-74.9103"/>
<polygon fill="#63b8ff" stroke="#63b8ff" points="524.2646,-25.9225 532.3144,-19.0341 521.7259,-19.3991 524.2646,-25.9225"/>
</a>
</g>
</g>
</g>
</svg>
