<?xml version="1.0" encoding="UTF-8" standalone="no"?>
<!DOCTYPE svg PUBLIC "-//W3C//DTD SVG 1.1//EN"
 "http://www.w3.org/Graphics/SVG/1.1/DTD/svg11.dtd">
<!-- Generated by graphviz version 2.40.1 (0)
 -->
<!-- Title: porter/include/porter_const.h Pages: 1 -->
<svg width="1211pt" height="368pt"
 viewBox="0.00 0.00 1210.50 368.00" xmlns="http://www.w3.org/2000/svg" xmlns:xlink="http://www.w3.org/1999/xlink">
<g id="graph0" class="graph" transform="scale(1 1) rotate(0) translate(4 364)">
<title>porter/include/porter_const.h</title>
<!-- Node1 -->
<g id="Node000001" class="node">
<title>Node1</title>
<g id="a_Node000001"><a xlink:title="通信ライブラリの定数ファイル。">
<polygon fill="#999999" stroke="#666666" points="815.5,-360 712.5,-360 712.5,-330 815.5,-330 815.5,-360"/>
<text text-anchor="start" x="720.5" y="-348" font-family="Helvetica,sans-Serif" font-size="10.00" fill="#000000">porter/include/porter</text>
<text text-anchor="middle" x="764" y="-337" font-family="Helvetica,sans-Serif" font-size="10.00" fill="#000000">_const.h</text>
</a>
</g>
</g>
<!-- Node2 -->
<g id="Node000002" class="node">
<title>Node2</title>
<g id="a_Node000002"><a xlink:href="porter__type_8h.html" target="_top" xlink:title="通信ライブラリの型定義ファイル。">
<polygon fill="#ffffff" stroke="#666666" points="549.5,-294 446.5,-294 446.5,-264 549.5,-264 549.5,-294"/>
<text text-anchor="start" x="454.5" y="-282" font-family="Helvetica,sans-Serif" font-size="10.00" fill="#000000">porter/include/porter</text>
<text text-anchor="middle" x="498" y="-271" font-family="Helvetica,sans-Serif" font-size="10.00" fill="#000000">_type.h</text>
</a>
</g>
</g>
<!-- Node1&#45;&gt;Node2 -->
<g id="edge1_Node000001_Node000002" class="edge">
<title>Node1&#45;&gt;Node2</title>
<g id="a_edge1_Node000001_Node000002"><a xlink:title=" ">
<path fill="none" stroke="#63b8ff" d="M702.4994,-329.7404C656.2684,-318.2696 593.6363,-302.7293 549.9128,-291.8806"/>
<polygon fill="#63b8ff" stroke="#63b8ff" points="701.8485,-333.185 712.3971,-332.1963 703.5343,-326.391 701.8485,-333.185"/>
</a>
</g>
</g>
<!-- Node4 -->
<g id="Node000004" class="node">
<title>Node4</title>
<g id="a_Node000004"><a xlink:href="potrClose_8c.html" target="_top" xlink:title="potrClose 関数の実装。">
<polygon fill="#ffffff" stroke="#666666" points="244.5,-30 149.5,-30 149.5,0 244.5,0 244.5,-30"/>
<text text-anchor="start" x="157.5" y="-18" font-family="Helvetica,sans-Serif" font-size="10.00" fill="#000000">porter/libsrc/porter</text>
<text text-anchor="middle" x="197" y="-7" font-family="Helvetica,sans-Serif" font-size="10.00" fill="#000000">/potrClose.c</text>
</a>
</g>
</g>
<!-- Node1&#45;&gt;Node4 -->
<g id="edge32_Node000001_Node000004" class="edge">
<title>Node1&#45;&gt;Node4</title>
<g id="a_edge32_Node000001_Node000004"><a xlink:title=" ">
<path fill="none" stroke="#63b8ff" d="M702.0584,-342.4336C571.2296,-336.5623 270.6813,-320.5717 172,-294 90.4091,-272.0302 0,-297.4971 0,-213 0,-213 0,-213 0,-147 0,-75.3655 91.0091,-40.1284 149.3118,-24.9044"/>
<polygon fill="#63b8ff" stroke="#63b8ff" points="702.1612,-345.9416 712.3066,-342.8884 702.4716,-338.9484 702.1612,-345.9416"/>
</a>
</g>
</g>
<!-- Node5 -->
<g id="Node000005" class="node">
<title>Node5</title>
<g id="a_Node000005"><a xlink:href="potrOpenService_8c.html" target="_top" xlink:title="potrOpenService 関数の実装。">
<polygon fill="#ffffff" stroke="#666666" points="901.5,-30 800.5,-30 800.5,0 901.5,0 901.5,-30"/>
<text text-anchor="start" x="808.5" y="-18" font-family="Helvetica,sans-Serif" font-size="10.00" fill="#000000">porter/libsrc/porter</text>
<text text-anchor="middle" x="851" y="-7" font-family="Helvetica,sans-Serif" font-size="10.00" fill="#000000">/potrOpenService.c</text>
</a>
</g>
</g>
<!-- Node1&#45;&gt;Node5 -->
<g id="edge33_Node000001_Node000005" class="edge">
<title>Node1&#45;&gt;Node5</title>
<g id="a_edge33_Node000001_Node000005"><a xlink:title=" ">
<path fill="none" stroke="#63b8ff" d="M825.6407,-338.8625C871.5489,-332.414 934.7121,-319.4828 985,-294 1034.1932,-269.0719 1079,-268.1487 1079,-213 1079,-213 1079,-213 1079,-147 1079,-65.5854 968.7712,-33.5713 901.6006,-21.6208"/>
<polygon fill="#63b8ff" stroke="#63b8ff" points="824.9802,-335.4196 815.5337,-340.2169 825.91,-342.3576 824.9802,-335.4196"/>
</a>
</g>
</g>
<!-- Node6 -->
<g id="Node000006" class="node">
<title>Node6</title>
<g id="a_Node000006"><a xlink:href="potrSend_8c.html" target="_top" xlink:title="potrSend 関数の実装。">
<polygon fill="#ffffff" stroke="#666666" points="630.5,-96 535.5,-96 535.5,-66 630.5,-66 630.5,-96"/>
<text text-anchor="start" x="543.5" y="-84" font-family="Helvetica,sans-Serif" font-size="10.00" fill="#000000">porter/libsrc/porter</text>
<text text-anchor="middle" x="583" y="-73" font-family="Helvetica,sans-Serif" font-size="10.00" fill="#000000">/potrSend.c</text>
</a>
</g>
</g>
<!-- Node1&#45;&gt;Node6 -->
<g id="edge35_Node000001_Node000006" class="edge">
<title>Node1&#45;&gt;Node6</title>
<g id="a_edge35_Node000001_Node000006"><a xlink:title=" ">
<path fill="none" stroke="#63b8ff" d="M770.9181,-319.7428C777.8668,-288.9533 784.8464,-236.2977 764,-198 735.5571,-145.7463 672.6235,-113.2679 629.0152,-96.1574"/>
<polygon fill="#63b8ff" stroke="#63b8ff" points="767.468,-319.1184 768.5072,-329.6622 774.27,-320.7717 767.468,-319.1184"/>
</a>
</g>
</g>
<!-- Node10 -->
<g id="Node000010" class="node">
<title>Node10</title>
<g id="a_Node000010"><a xlink:href="potrRecvThread_8c.html" target="_top" xlink:title="受信スレッドモジュール。">
<polygon fill="#ffffff" stroke="#666666" points="517.5,-30 420.5,-30 420.5,0 517.5,0 517.5,-30"/>
<text text-anchor="start" x="428.5" y="-18" font-family="Helvetica,sans-Serif" font-size="10.00" fill="#000000">porter/libsrc/porter</text>
<text text-anchor="middle" x="469" y="-7" font-family="Helvetica,sans-Serif" font-size="10.00" fill="#000000">/potrRecvThread.c</text>
</a>
</g>
</g>
<!-- Node1&#45;&gt;Node10 -->
<g id="edge34_Node000001_Node000010" class="edge">
<title>Node1&#45;&gt;Node10</title>
<g id="a_edge34_Node000001_Node000010"><a xlink:title=" ">
<path fill="none" stroke="#63b8ff" d="M702.3047,-339.6533C533.4067,-324.1938 76,-276.4677 76,-213 76,-213 76,-213 76,-147 76,-110.0229 67.6428,-90.8775 95,-66 118.696,-44.4518 324.3149,-26.0722 420.1785,-18.5884"/>
<polygon fill="#63b8ff" stroke="#63b8ff" points="702.0125,-343.1411 712.2882,-340.5602 702.6459,-336.1698 702.0125,-343.1411"/>
</a>
</g>
</g>
<!-- Node12 -->
<g id="Node000012" class="node">
<title>Node12</title>
<g id="a_Node000012"><a xlink:href="config_8c.html" target="_top" xlink:title="設定ファイル (INI 形式) 解析モジュール。">
<polygon fill="#ffffff" stroke="#666666" points="327.5,-162 232.5,-162 232.5,-132 327.5,-132 327.5,-162"/>
<text text-anchor="start" x="240.5" y="-150" font-family="Helvetica,sans-Serif" font-size="10.00" fill="#000000">porter/libsrc/porter</text>
<text text-anchor="middle" x="280" y="-139" font-family="Helvetica,sans-Serif" font-size="10.00" fill="#000000">/protocol/config.c</text>
</a>
</g>
</g>
<!-- Node1&#45;&gt;Node12 -->
<g id="edge36_Node000001_Node000012" class="edge">
<title>Node1&#45;&gt;Node12</title>
<g id="a_edge36_Node000001_Node000012"><a xlink:title=" ">
<path fill="none" stroke="#63b8ff" d="M702.3711,-342.2701C610.3933,-337.2525 442.5025,-324.1736 391,-294 336.9185,-262.3155 300.5831,-192.9792 286.5217,-162.2183"/>
<polygon fill="#63b8ff" stroke="#63b8ff" points="702.2136,-345.7666 712.3849,-342.8009 702.5842,-338.7764 702.2136,-345.7666"/>
</a>
</g>
</g>
<!-- Node14 -->
<g id="Node000014" class="node">
<title>Node14</title>
<g id="a_Node000014"><a xlink:href="packet_8c.html" target="_top" xlink:title="パケット構築・解析モジュール。">
<polygon fill="#ffffff" stroke="#666666" points="440.5,-162 345.5,-162 345.5,-132 440.5,-132 440.5,-162"/>
<text text-anchor="start" x="353.5" y="-150" font-family="Helvetica,sans-Serif" font-size="10.00" fill="#000000">porter/libsrc/porter</text>
<text text-anchor="middle" x="393" y="-139" font-family="Helvetica,sans-Serif" font-size="10.00" fill="#000000">/protocol/packet.c</text>
</a>
</g>
</g>
<!-- Node1&#45;&gt;Node14 -->
<g id="edge37_Node000001_Node000014" class="edge">
<title>Node1&#45;&gt;Node14</title>
<g id="a_edge37_Node000001_Node000014"><a xlink:title=" ">
<path fill="none" stroke="#63b8ff" d="M702.2479,-340.1196C620.6504,-332.866 481.9855,-317.5163 437,-294 401.0624,-275.2135 389.0819,-265.6428 374,-228 365.1361,-205.8767 375.5913,-178.6227 384.1444,-162.0422"/>
<polygon fill="#63b8ff" stroke="#63b8ff" points="702.126,-343.6222 712.3927,-341.0059 702.7353,-336.6488 702.126,-343.6222"/>
</a>
</g>
</g>
<!-- Node16 -->
<g id="Node000016" class="node">
<title>Node16</title>
<g id="a_Node000016"><a xlink:href="window_8h.html" target="_top" xlink:title="スライディングウィンドウ管理モジュールの内部ヘッダー。">
<polygon fill="#ffffff" stroke="#666666" points="755,-228 659,-228 659,-198 755,-198 755,-228"/>
<text text-anchor="start" x="667" y="-216" font-family="Helvetica,sans-Serif" font-size="10.00" fill="#000000">porter/libsrc/porter</text>
<text text-anchor="middle" x="707" y="-205" font-family="Helvetica,sans-Serif" font-size="10.00" fill="#000000">/protocol/window.h</text>
</a>
</g>
</g>
<!-- Node1&#45;&gt;Node16 -->
<g id="edge44_Node000001_Node000016" class="edge">
<title>Node1&#45;&gt;Node16</title>
<g id="a_edge44_Node000001_Node000016"><a xlink:title=" ">
<path fill="none" stroke="#63b8ff" d="M753.3549,-320.3482C741.7062,-293.3723 723.3941,-250.9652 713.6379,-228.3721"/>
<polygon fill="#63b8ff" stroke="#63b8ff" points="750.2837,-322.0648 757.4614,-329.8579 756.7102,-319.2897 750.2837,-322.0648"/>
</a>
</g>
</g>
<!-- Node17 -->
<g id="Node000017" class="node">
<title>Node17</title>
<g id="a_Node000017"><a xlink:href="window_8c.html" target="_top" xlink:title="スライディングウィンドウ管理モジュール。">
<polygon fill="#ffffff" stroke="#666666" points="1051,-162 955,-162 955,-132 1051,-132 1051,-162"/>
<text text-anchor="start" x="963" y="-150" font-family="Helvetica,sans-Serif" font-size="10.00" fill="#000000">porter/libsrc/porter</text>
<text text-anchor="middle" x="1003" y="-139" font-family="Helvetica,sans-Serif" font-size="10.00" fill="#000000">/protocol/window.c</text>
</a>
</g>
</g>
<!-- Node1&#45;&gt;Node17 -->
<g id="edge43_Node000001_Node000017" class="edge">
<title>Node1&#45;&gt;Node17</title>
<g id="a_edge43_Node000001_Node000017"><a xlink:title=" ">
<path fill="none" stroke="#63b8ff" d="M825.767,-336.9115C863.9306,-329.8621 912.7478,-317.0047 951,-294 985.4895,-273.2581 998.1811,-265.4186 1013,-228 1021.6084,-206.2633 1014.9658,-178.8975 1009.1556,-162.1887"/>
<polygon fill="#63b8ff" stroke="#63b8ff" points="825.0478,-333.4842 815.8062,-338.6653 826.2617,-340.3782 825.0478,-333.4842"/>
</a>
</g>
</g>
<!-- Node18 -->
<g id="Node000018" class="node">
<title>Node18</title>
<g id="a_Node000018"><a xlink:href="retransmit_8c.html" target="_top" xlink:title="再送制御モジュール。">
<polygon fill="#ffffff" stroke="#666666" points="1003.5,-228 894.5,-228 894.5,-198 1003.5,-198 1003.5,-228"/>
<text text-anchor="start" x="902.5" y="-216" font-family="Helvetica,sans-Serif" font-size="10.00" fill="#000000">porter/libsrc/porter</text>
<text text-anchor="middle" x="949" y="-205" font-family="Helvetica,sans-Serif" font-size="10.00" fill="#000000">/protocol/retransmit.c</text>
</a>
</g>
</g>
<!-- Node1&#45;&gt;Node18 -->
<g id="edge38_Node000001_Node000018" class="edge">
<title>Node1&#45;&gt;Node18</title>
<g id="a_edge38_Node000001_Node000018"><a xlink:title=" ">
<path fill="none" stroke="#63b8ff" d="M825.7146,-332.7497C866.6842,-323.4006 915.4995,-309.5166 930,-294 946.7658,-276.0594 949.6431,-246.2269 949.6842,-228.2078"/>
<polygon fill="#63b8ff" stroke="#63b8ff" points="824.7628,-329.3758 815.7641,-334.9681 826.2861,-336.2081 824.7628,-329.3758"/>
</a>
</g>
</g>
<!-- Node19 -->
<g id="Node000019" class="node">
<title>Node19</title>
<g id="a_Node000019"><a xlink:href="retransmit_8h.html" target="_top" xlink:title="再送制御モジュールの内部ヘッダー。">
<polygon fill="#ffffff" stroke="#666666" points="920.5,-294 811.5,-294 811.5,-264 920.5,-264 920.5,-294"/>
<text text-anchor="start" x="819.5" y="-282" font-family="Helvetica,sans-Serif" font-size="10.00" fill="#000000">porter/libsrc/porter</text>
<text text-anchor="middle" x="866" y="-271" font-family="Helvetica,sans-Serif" font-size="10.00" fill="#000000">/protocol/retransmit.h</text>
</a>
</g>
</g>
<!-- Node1&#45;&gt;Node19 -->
<g id="edge39_Node000001_Node000019" class="edge">
<title>Node1&#45;&gt;Node19</title>
<g id="a_edge39_Node000001_Node000019"><a xlink:title=" ">
<path fill="none" stroke="#63b8ff" d="M795.9651,-324.3167C811.1074,-314.5188 828.8635,-303.0295 842.708,-294.0713"/>
<polygon fill="#63b8ff" stroke="#63b8ff" points="793.8952,-321.4872 787.4009,-329.8583 797.698,-327.3642 793.8952,-321.4872"/>
</a>
</g>
</g>
<!-- Node20 -->
<g id="Node000020" class="node">
<title>Node20</title>
<g id="a_Node000020"><a xlink:href="potrIpAddr_8c.html" target="_top" xlink:title="IPv4 アドレス変換ユーティリティ (内部用)。">
<polygon fill="#ffffff" stroke="#666666" points="1202.5,-294 1107.5,-294 1107.5,-264 1202.5,-264 1202.5,-294"/>
<text text-anchor="start" x="1115.5" y="-282" font-family="Helvetica,sans-Serif" font-size="10.00" fill="#000000">porter/libsrc/porter</text>
<text text-anchor="middle" x="1155" y="-271" font-family="Helvetica,sans-Serif" font-size="10.00" fill="#000000">/util/potrIpAddr.c</text>
</a>
</g>
</g>
<!-- Node1&#45;&gt;Node20 -->
<g id="edge45_Node000001_Node000020" class="edge">
<title>Node1&#45;&gt;Node20</title>
<g id="a_edge45_Node000001_Node000020"><a xlink:title=" ">
<path fill="none" stroke="#63b8ff" d="M825.7966,-336.9912C892.1199,-328.03 1000.4312,-312.3393 1093,-294 1097.6712,-293.0746 1102.5224,-292.0368 1107.3614,-290.9506"/>
<polygon fill="#63b8ff" stroke="#63b8ff" points="824.9667,-333.5711 815.5215,-338.371 825.8984,-340.5089 824.9667,-333.5711"/>
</a>
</g>
</g>
<!-- Node3 -->
<g id="Node000003" class="node">
<title>Node3</title>
<g id="a_Node000003"><a xlink:href="porter_8h.html" target="_top" xlink:title="通信ライブラリ (動的リンク用) のヘッダーファイル。">
<polygon fill="#ffffff" stroke="#666666" points="214,-156.5 104,-156.5 104,-137.5 214,-137.5 214,-156.5"/>
<text text-anchor="middle" x="159" y="-144.5" font-family="Helvetica,sans-Serif" font-size="10.00" fill="#000000">porter/include/porter.h</text>
</a>
</g>
</g>
<!-- Node2&#45;&gt;Node3 -->
<g id="edge2_Node000002_Node000003" class="edge">
<title>Node2&#45;&gt;Node3</title>
<g id="a_edge2_Node000002_Node000003"><a xlink:title=" ">
<path fill="none" stroke="#63b8ff" d="M436.1738,-262.237C404.6388,-253.1269 365.8869,-241.0649 332,-228 274.1354,-205.6906 208.4972,-172.7535 177.3178,-156.619"/>
<polygon fill="#63b8ff" stroke="#63b8ff" points="435.5666,-265.7036 446.1436,-265.0886 437.4916,-258.9734 435.5666,-265.7036"/>
</a>
</g>
</g>
<!-- Node9 -->
<g id="Node000009" class="node">
<title>Node9</title>
<g id="a_Node000009"><a xlink:href="potrContext_8h.html" target="_top" xlink:title="セッションコンテキスト内部定義ヘッダー。">
<polygon fill="#ffffff" stroke="#666666" points="860.5,-162 765.5,-162 765.5,-132 860.5,-132 860.5,-162"/>
<text text-anchor="start" x="773.5" y="-150" font-family="Helvetica,sans-Serif" font-size="10.00" fill="#000000">porter/libsrc/porter</text>
<text text-anchor="middle" x="813" y="-139" font-family="Helvetica,sans-Serif" font-size="10.00" fill="#000000">/potrContext.h</text>
</a>
</g>
</g>
<!-- Node2&#45;&gt;Node9 -->
<g id="edge8_Node000002_Node000009" class="edge">
<title>Node2&#45;&gt;Node9</title>
<g id="a_edge8_Node000002_Node000009"><a xlink:title=" ">
<path fill="none" stroke="#63b8ff" d="M546.7251,-259.9442C567.1281,-251.2231 590.7579,-240.1289 611,-228 629.7586,-216.76 630.5975,-208.0879 650,-198 686.6997,-178.9187 731.8036,-165.4891 765.2549,-157.2177"/>
<polygon fill="#63b8ff" stroke="#63b8ff" points="545.164,-256.8036 537.3004,-263.9038 547.8754,-263.2572 545.164,-256.8036"/>
</a>
</g>
</g>
<!-- Node2&#45;&gt;Node12 -->
<g id="edge17_Node000002_Node000012" class="edge">
<title>Node2&#45;&gt;Node12</title>
<g id="a_edge17_Node000002_Node000012"><a xlink:title=" ">
<path fill="none" stroke="#63b8ff" d="M441.9987,-260.3546C420.0277,-251.9318 395.0802,-240.9454 374,-228 342.9761,-208.9481 311.9477,-179.7504 294.4411,-162.1054"/>
<polygon fill="#63b8ff" stroke="#63b8ff" points="440.9426,-263.6964 451.535,-263.9236 443.3962,-257.1405 440.9426,-263.6964"/>
</a>
</g>
</g>
<!-- Node13 -->
<g id="Node000013" class="node">
<title>Node13</title>
<g id="a_Node000013"><a xlink:href="config_8h.html" target="_top" xlink:title="設定ファイル解析モジュールの内部ヘッダー。">
<polygon fill="#ffffff" stroke="#666666" points="489.5,-228 394.5,-228 394.5,-198 489.5,-198 489.5,-228"/>
<text text-anchor="start" x="402.5" y="-216" font-family="Helvetica,sans-Serif" font-size="10.00" fill="#000000">porter/libsrc/porter</text>
<text text-anchor="middle" x="442" y="-205" font-family="Helvetica,sans-Serif" font-size="10.00" fill="#000000">/protocol/config.h</text>
</a>
</g>
</g>
<!-- Node2&#45;&gt;Node13 -->
<g id="edge18_Node000002_Node000013" class="edge">
<title>Node2&#45;&gt;Node13</title>
<g id="a_edge18_Node000002_Node000013"><a xlink:title=" ">
<path fill="none" stroke="#63b8ff" d="M478.4747,-255.9881C470.6734,-246.7937 461.9031,-236.4573 454.9178,-228.2246"/>
<polygon fill="#63b8ff" stroke="#63b8ff" points="475.8731,-258.3317 485.0117,-263.6924 481.2107,-253.8028 475.8731,-258.3317"/>
</a>
</g>
</g>
<!-- Node2&#45;&gt;Node14 -->
<g id="edge21_Node000002_Node000014" class="edge">
<title>Node2&#45;&gt;Node14</title>
<g id="a_edge21_Node000002_Node000014"><a xlink:title=" ">
<path fill="none" stroke="#63b8ff" d="M436.8607,-265.636C416.8717,-258.0531 396.7939,-246.2624 385,-228 372.1209,-208.0572 379.5909,-179.4056 386.2484,-162.0641"/>
<polygon fill="#63b8ff" stroke="#63b8ff" points="435.723,-268.9459 446.3178,-268.9311 438.0262,-262.3356 435.723,-268.9459"/>
</a>
</g>
</g>
<!-- Node15 -->
<g id="Node000015" class="node">
<title>Node15</title>
<g id="a_Node000015"><a xlink:href="packet_8h.html" target="_top" xlink:title="パケット構築・解析モジュールの内部ヘッダー。">
<polygon fill="#ffffff" stroke="#666666" points="602.5,-228 507.5,-228 507.5,-198 602.5,-198 602.5,-228"/>
<text text-anchor="start" x="515.5" y="-216" font-family="Helvetica,sans-Serif" font-size="10.00" fill="#000000">porter/libsrc/porter</text>
<text text-anchor="middle" x="555" y="-205" font-family="Helvetica,sans-Serif" font-size="10.00" fill="#000000">/protocol/packet.h</text>
</a>
</g>
</g>
<!-- Node2&#45;&gt;Node15 -->
<g id="edge22_Node000002_Node000015" class="edge">
<title>Node2&#45;&gt;Node15</title>
<g id="a_edge22_Node000002_Node000015"><a xlink:title=" ">
<path fill="none" stroke="#63b8ff" d="M517.8739,-255.9881C525.8145,-246.7937 534.7415,-236.4573 541.8515,-228.2246"/>
<polygon fill="#63b8ff" stroke="#63b8ff" points="515.1076,-253.8364 511.2202,-263.6924 520.4053,-258.4118 515.1076,-253.8364"/>
</a>
</g>
</g>
<!-- Node2&#45;&gt;Node16 -->
<g id="edge26_Node000002_Node000016" class="edge">
<title>Node2&#45;&gt;Node16</title>
<g id="a_edge26_Node000002_Node000016"><a xlink:title=" ">
<path fill="none" stroke="#63b8ff" d="M555.5268,-260.8337C588.0891,-250.5508 628.3352,-237.8415 659.1566,-228.1084"/>
<polygon fill="#63b8ff" stroke="#63b8ff" points="554.1687,-257.5921 545.6869,-263.941 556.2767,-264.2672 554.1687,-257.5921"/>
</a>
</g>
</g>
<!-- Node3&#45;&gt;Node4 -->
<g id="edge3_Node000003_Node000004" class="edge">
<title>Node3&#45;&gt;Node4</title>
<g id="a_edge3_Node000003_Node000004"><a xlink:title=" ">
<path fill="none" stroke="#63b8ff" d="M130.0817,-131.9958C116.7891,-123.4111 102.3654,-111.2873 95,-96 89.2127,-83.9881 87.9903,-77.342 95,-66 107.022,-46.5479 128.9588,-34.2669 149.4166,-26.6459"/>
<polygon fill="#63b8ff" stroke="#63b8ff" points="128.6308,-135.2078 139.0029,-137.369 132.2424,-129.2114 128.6308,-135.2078"/>
</a>
</g>
</g>
<!-- Node3&#45;&gt;Node5 -->
<g id="edge4_Node000003_Node000005" class="edge">
<title>Node3&#45;&gt;Node5</title>
<g id="a_edge4_Node000003_Node000005"><a xlink:title=" ">
<path fill="none" stroke="#63b8ff" d="M203.0828,-134.8698C266.7068,-117.6919 388.1548,-86.1327 493,-66 601.8191,-45.1042 730.7606,-28.7791 800.3509,-20.6549"/>
<polygon fill="#63b8ff" stroke="#63b8ff" points="202.1158,-131.5055 193.3794,-137.4993 203.9467,-138.2618 202.1158,-131.5055"/>
</a>
</g>
</g>
<!-- Node3&#45;&gt;Node6 -->
<g id="edge5_Node000003_Node000006" class="edge">
<title>Node3&#45;&gt;Node6</title>
<g id="a_edge5_Node000003_Node000006"><a xlink:title=" ">
<path fill="none" stroke="#63b8ff" d="M207.231,-135.2108C212.538,-134.0584 217.8737,-132.9619 223,-132 334.2092,-111.1337 466.1805,-94.4844 535.316,-86.3769"/>
<polygon fill="#63b8ff" stroke="#63b8ff" points="206.1163,-131.8736 197.1233,-137.4751 207.6466,-138.7043 206.1163,-131.8736"/>
</a>
</g>
</g>
<!-- Node7 -->
<g id="Node000007" class="node">
<title>Node7</title>
<g id="a_Node000007"><a xlink:href="recv_8c.html" target="_top" xlink:title="受信テストコマンド。">
<polygon fill="#ffffff" stroke="#666666" points="213.5,-90.5 104.5,-90.5 104.5,-71.5 213.5,-71.5 213.5,-90.5"/>
<text text-anchor="middle" x="159" y="-78.5" font-family="Helvetica,sans-Serif" font-size="10.00" fill="#000000">porter/src/recv/recv.c</text>
</a>
</g>
</g>
<!-- Node3&#45;&gt;Node7 -->
<g id="edge6_Node000003_Node000007" class="edge">
<title>Node3&#45;&gt;Node7</title>
<g id="a_edge6_Node000003_Node000007"><a xlink:title=" ">
<path fill="none" stroke="#63b8ff" d="M159,-127.232C159,-115.1966 159,-100.347 159,-90.7785"/>
<polygon fill="#63b8ff" stroke="#63b8ff" points="155.5001,-127.2614 159,-137.2615 162.5001,-127.2615 155.5001,-127.2614"/>
</a>
</g>
</g>
<!-- Node8 -->
<g id="Node000008" class="node">
<title>Node8</title>
<g id="a_Node000008"><a xlink:href="send_8c.html" target="_top" xlink:title="送信テストコマンド。">
<polygon fill="#ffffff" stroke="#666666" points="346,-90.5 232,-90.5 232,-71.5 346,-71.5 346,-90.5"/>
<text text-anchor="middle" x="289" y="-78.5" font-family="Helvetica,sans-Serif" font-size="10.00" fill="#000000">porter/src/send/send.c</text>
</a>
</g>
</g>
<!-- Node3&#45;&gt;Node8 -->
<g id="edge7_Node000003_Node000008" class="edge">
<title>Node3&#45;&gt;Node8</title>
<g id="a_edge7_Node000003_Node000008"><a xlink:title=" ">
<path fill="none" stroke="#63b8ff" d="M186.9277,-132.8213C212.0283,-120.0779 248.2091,-101.7092 270.0741,-90.6085"/>
<polygon fill="#63b8ff" stroke="#63b8ff" points="185.2354,-129.7552 177.9031,-137.403 188.4042,-135.9969 185.2354,-129.7552"/>
</a>
</g>
</g>
<!-- Node9&#45;&gt;Node4 -->
<g id="edge9_Node000009_Node000004" class="edge">
<title>Node9&#45;&gt;Node4</title>
<g id="a_edge9_Node000009_Node000004"><a xlink:title=" ">
<path fill="none" stroke="#63b8ff" d="M755.8066,-129.3763C731.408,-120.8168 703.0732,-109.4555 679,-96 659.9112,-85.3305 660.2662,-74.216 640,-66 603.9476,-51.3842 351.4124,-28.2798 244.5652,-19.0267"/>
<polygon fill="#63b8ff" stroke="#63b8ff" points="754.701,-132.6972 765.2956,-132.6351 756.9747,-126.0767 754.701,-132.6972"/>
</a>
</g>
</g>
<!-- Node9&#45;&gt;Node5 -->
<g id="edge10_Node000009_Node000005" class="edge">
<title>Node9&#45;&gt;Node5</title>
<g id="a_edge10_Node000009_Node000005"><a xlink:title=" ">
<path fill="none" stroke="#63b8ff" d="M820.1996,-121.9908C827.97,-94.9991 840.0993,-52.8657 846.5747,-30.3721"/>
<polygon fill="#63b8ff" stroke="#63b8ff" points="816.7622,-121.2799 817.3591,-131.8579 823.489,-123.2165 816.7622,-121.2799"/>
</a>
</g>
</g>
<!-- Node9&#45;&gt;Node6 -->
<g id="edge16_Node000009_Node000006" class="edge">
<title>Node9&#45;&gt;Node6</title>
<g id="a_edge16_Node000009_Node000006"><a xlink:title=" ">
<path fill="none" stroke="#63b8ff" d="M755.3177,-130.4477C716.8226,-119.4013 666.8152,-105.0513 630.5951,-94.6577"/>
<polygon fill="#63b8ff" stroke="#63b8ff" points="754.7664,-133.9307 765.3439,-133.3248 756.6972,-127.2022 754.7664,-133.9307"/>
</a>
</g>
</g>
<!-- Node9&#45;&gt;Node10 -->
<g id="edge11_Node000009_Node000010" class="edge">
<title>Node9&#45;&gt;Node10</title>
<g id="a_edge11_Node000009_Node000010"><a xlink:title=" ">
<path fill="none" stroke="#63b8ff" d="M814.0013,-121.5236C813.2529,-103.4387 809.0645,-79.9785 794,-66 754.6977,-29.531 598.2351,-19.1231 517.6022,-16.1656"/>
<polygon fill="#63b8ff" stroke="#63b8ff" points="810.503,-121.7297 814.0952,-131.697 817.5027,-121.6651 810.503,-121.7297"/>
</a>
</g>
</g>
<!-- Node11 -->
<g id="Node000011" class="node">
<title>Node11</title>
<g id="a_Node000011"><a xlink:href="potrRecvThread_8h.html" target="_top" xlink:title="受信スレッド内部ヘッダー。">
<polygon fill="#ffffff" stroke="#666666" points="784.5,-96 687.5,-96 687.5,-66 784.5,-66 784.5,-96"/>
<text text-anchor="start" x="695.5" y="-84" font-family="Helvetica,sans-Serif" font-size="10.00" fill="#000000">porter/libsrc/porter</text>
<text text-anchor="middle" x="736" y="-73" font-family="Helvetica,sans-Serif" font-size="10.00" fill="#000000">/potrRecvThread.h</text>
</a>
</g>
</g>
<!-- Node9&#45;&gt;Node11 -->
<g id="edge12_Node000009_Node000011" class="edge">
<title>Node9&#45;&gt;Node11</title>
<g id="a_edge12_Node000009_Node000011"><a xlink:title=" ">
<path fill="none" stroke="#63b8ff" d="M787.4462,-125.0967C776.4045,-115.6324 763.7549,-104.7899 753.762,-96.2246"/>
<polygon fill="#63b8ff" stroke="#63b8ff" points="785.2707,-127.8418 795.1411,-131.6924 789.8263,-122.527 785.2707,-127.8418"/>
</a>
</g>
</g>
<!-- Node11&#45;&gt;Node4 -->
<g id="edge13_Node000011_Node000004" class="edge">
<title>Node11&#45;&gt;Node4</title>
<g id="a_edge13_Node000011_Node000004"><a xlink:title=" ">
<path fill="none" stroke="#63b8ff" d="M677.4069,-66.7893C675.9252,-66.5138 674.4543,-66.25 673,-66 517.3702,-39.2467 330.5525,-24.1124 244.5688,-18.087"/>
<polygon fill="#63b8ff" stroke="#63b8ff" points="676.7962,-70.2364 687.2871,-68.7559 678.1628,-63.371 676.7962,-70.2364"/>
</a>
</g>
</g>
<!-- Node11&#45;&gt;Node5 -->
<g id="edge14_Node000011_Node000005" class="edge">
<title>Node11&#45;&gt;Node5</title>
<g id="a_edge14_Node000011_Node000005"><a xlink:title=" ">
<path fill="none" stroke="#63b8ff" d="M771.0849,-60.8643C788.3613,-50.9491 808.8386,-39.197 824.7394,-30.0713"/>
<polygon fill="#63b8ff" stroke="#63b8ff" points="769.3143,-57.845 762.3833,-65.8583 772.7987,-63.9162 769.3143,-57.845"/>
</a>
</g>
</g>
<!-- Node11&#45;&gt;Node10 -->
<g id="edge15_Node000011_Node000010" class="edge">
<title>Node11&#45;&gt;Node10</title>
<g id="a_edge15_Node000011_Node000010"><a xlink:title=" ">
<path fill="none" stroke="#63b8ff" d="M677.432,-66.5225C629.5875,-54.6958 562.7517,-38.1746 517.7778,-27.0574"/>
<polygon fill="#63b8ff" stroke="#63b8ff" points="676.7908,-69.9693 687.3385,-68.9713 678.4707,-63.1738 676.7908,-69.9693"/>
</a>
</g>
</g>
<!-- Node13&#45;&gt;Node5 -->
<g id="edge19_Node000013_Node000005" class="edge">
<title>Node13&#45;&gt;Node5</title>
<g id="a_edge19_Node000013_Node000005"><a xlink:title=" ">
<path fill="none" stroke="#63b8ff" d="M448.8495,-188.0007C459.4468,-154.4061 483.2021,-95.5097 526,-66 569.5525,-35.9701 720.2574,-22.6956 800.2307,-17.6519"/>
<polygon fill="#63b8ff" stroke="#63b8ff" points="445.3859,-187.3656 445.8637,-197.9496 452.0905,-189.3778 445.3859,-187.3656"/>
</a>
</g>
</g>
<!-- Node13&#45;&gt;Node12 -->
<g id="edge20_Node000013_Node000012" class="edge">
<title>Node13&#45;&gt;Node12</title>
<g id="a_edge20_Node000013_Node000012"><a xlink:title=" ">
<path fill="none" stroke="#63b8ff" d="M395.5665,-194.0827C370.6316,-183.924 340.3173,-171.5737 316.9931,-162.0713"/>
<polygon fill="#63b8ff" stroke="#63b8ff" points="394.2524,-197.3266 404.8339,-197.8583 396.8936,-190.8439 394.2524,-197.3266"/>
</a>
</g>
</g>
<!-- Node15&#45;&gt;Node6 -->
<g id="edge24_Node000015_Node000006" class="edge">
<title>Node15&#45;&gt;Node6</title>
<g id="a_edge24_Node000015_Node000006"><a xlink:title=" ">
<path fill="none" stroke="#63b8ff" d="M560.305,-187.9908C566.0305,-160.9991 574.9679,-118.8657 579.7393,-96.3721"/>
<polygon fill="#63b8ff" stroke="#63b8ff" points="556.8633,-187.3493 558.212,-197.8579 563.7109,-188.8019 556.8633,-187.3493"/>
</a>
</g>
</g>
<!-- Node15&#45;&gt;Node10 -->
<g id="edge23_Node000015_Node000010" class="edge">
<title>Node15&#45;&gt;Node10</title>
<g id="a_edge23_Node000015_Node000010"><a xlink:title=" ">
<path fill="none" stroke="#63b8ff" d="M527.4849,-191.0562C503.1628,-169.7426 469.382,-134.9626 455,-96 446.846,-73.9097 455.0189,-46.6461 461.8596,-30.0547"/>
<polygon fill="#63b8ff" stroke="#63b8ff" points="525.4515,-193.9223 535.329,-197.7546 529.9973,-188.5991 525.4515,-193.9223"/>
</a>
</g>
</g>
<!-- Node15&#45;&gt;Node14 -->
<g id="edge25_Node000015_Node000014" class="edge">
<title>Node15&#45;&gt;Node14</title>
<g id="a_edge25_Node000015_Node000014"><a xlink:title=" ">
<path fill="none" stroke="#63b8ff" d="M508.5665,-194.0827C483.6316,-183.924 453.3173,-171.5737 429.9931,-162.0713"/>
<polygon fill="#63b8ff" stroke="#63b8ff" points="507.2524,-197.3266 517.8339,-197.8583 509.8936,-190.8439 507.2524,-197.3266"/>
</a>
</g>
</g>
<!-- Node16&#45;&gt;Node5 -->
<g id="edge28_Node000016_Node000005" class="edge">
<title>Node16&#45;&gt;Node5</title>
<g id="a_edge28_Node000016_Node000005"><a xlink:title=" ">
<path fill="none" stroke="#63b8ff" d="M764.8807,-202.3844C806.4243,-193.4508 857.2389,-179.3639 870,-162 899.4114,-121.9803 873.6768,-58.7517 859.2293,-30.0551"/>
<polygon fill="#63b8ff" stroke="#63b8ff" points="764.1634,-198.9586 755.0923,-204.4327 765.5972,-205.8102 764.1634,-198.9586"/>
</a>
</g>
</g>
<!-- Node16&#45;&gt;Node6 -->
<g id="edge30_Node000016_Node000006" class="edge">
<title>Node16&#45;&gt;Node6</title>
<g id="a_edge30_Node000016_Node000006"><a xlink:title=" ">
<path fill="none" stroke="#63b8ff" d="M685.8207,-190.4543C660.6202,-163.628 619.2253,-119.5624 597.4404,-96.3721"/>
<polygon fill="#63b8ff" stroke="#63b8ff" points="683.3779,-192.9658 692.7756,-197.8579 688.4798,-188.173 683.3779,-192.9658"/>
</a>
</g>
</g>
<!-- Node16&#45;&gt;Node9 -->
<g id="edge27_Node000016_Node000009" class="edge">
<title>Node16&#45;&gt;Node9</title>
<g id="a_edge27_Node000016_Node000009"><a xlink:title=" ">
<path fill="none" stroke="#63b8ff" d="M740.2186,-192.3167C755.9547,-182.5188 774.4071,-171.0295 788.7946,-162.0713"/>
<polygon fill="#63b8ff" stroke="#63b8ff" points="737.9576,-189.6015 731.3185,-197.8583 741.6575,-195.5438 737.9576,-189.6015"/>
</a>
</g>
</g>
<!-- Node16&#45;&gt;Node10 -->
<g id="edge29_Node000016_Node000010" class="edge">
<title>Node16&#45;&gt;Node10</title>
<g id="a_edge29_Node000016_Node000010"><a xlink:title=" ">
<path fill="none" stroke="#63b8ff" d="M667.3782,-193.187C628.4982,-172.4834 568.951,-137.2928 526,-96 505.1749,-75.9789 487.1349,-47.3517 477.1932,-30.0363"/>
<polygon fill="#63b8ff" stroke="#63b8ff" points="665.8312,-196.3279 676.3113,-197.8827 669.0882,-190.1318 665.8312,-196.3279"/>
</a>
</g>
</g>
<!-- Node16&#45;&gt;Node17 -->
<g id="edge31_Node000016_Node000017" class="edge">
<title>Node16&#45;&gt;Node17</title>
<g id="a_edge31_Node000016_Node000017"><a xlink:title=" ">
<path fill="none" stroke="#63b8ff" d="M765.233,-200.0156C820.6305,-187.6635 902.9946,-169.2985 954.8043,-157.7463"/>
<polygon fill="#63b8ff" stroke="#63b8ff" points="764.2149,-196.6566 755.2163,-202.2491 765.7383,-203.4888 764.2149,-196.6566"/>
</a>
</g>
</g>
<!-- Node19&#45;&gt;Node5 -->
<g id="edge41_Node000019_Node000005" class="edge">
<title>Node19&#45;&gt;Node5</title>
<g id="a_edge41_Node000019_Node000005"><a xlink:title=" ">
<path fill="none" stroke="#63b8ff" d="M871.8969,-253.798C882.8158,-205.1606 904.0208,-100.1382 892,-66 887.1703,-52.2839 876.9203,-39.5339 867.8777,-30.2129"/>
<polygon fill="#63b8ff" stroke="#63b8ff" points="868.4246,-253.283 869.6148,-263.8108 875.2495,-254.8386 868.4246,-253.283"/>
</a>
</g>
</g>
<!-- Node19&#45;&gt;Node9 -->
<g id="edge40_Node000019_Node000009" class="edge">
<title>Node19&#45;&gt;Node9</title>
<g id="a_edge40_Node000019_Node000009"><a xlink:title=" ">
<path fill="none" stroke="#63b8ff" d="M856.1019,-254.3482C845.2707,-227.3723 828.2436,-184.9652 819.1721,-162.3721"/>
<polygon fill="#63b8ff" stroke="#63b8ff" points="852.9462,-255.8821 859.9202,-263.8579 859.4421,-253.2739 852.9462,-255.8821"/>
</a>
</g>
</g>
<!-- Node19&#45;&gt;Node18 -->
<g id="edge42_Node000019_Node000018" class="edge">
<title>Node19&#45;&gt;Node18</title>
<g id="a_edge42_Node000019_Node000018"><a xlink:title=" ">
<path fill="none" stroke="#63b8ff" d="M893.1989,-257.372C905.1821,-247.8432 918.9778,-236.873 929.8539,-228.2246"/>
<polygon fill="#63b8ff" stroke="#63b8ff" points="890.8992,-254.7289 885.2505,-263.6924 895.256,-260.2079 890.8992,-254.7289"/>
</a>
</g>
</g>
</g>
</svg>
