<?xml version="1.0" encoding="UTF-8" standalone="no"?>
<!DOCTYPE svg PUBLIC "-//W3C//DTD SVG 1.1//EN"
 "http://www.w3.org/Graphics/SVG/1.1/DTD/svg11.dtd">
<!-- Generated by graphviz version 2.40.1 (0)
 -->
<!-- Title: porter/include/porter_type.h Pages: 1 -->
<!--zoomable 302 -->

<svg id="main" version="1.1" xmlns="http://www.w3.org/2000/svg" xmlns:xlink="http://www.w3.org/1999/xlink" xml:space="preserve" onload="init(evt)">

<style type="text/css"><![CDATA[
.node, .edge {opacity: 0.7;}
.node.selected, .edge.selected {opacity: 1;}
.edge:hover path { stroke: red; }
.edge:hover polygon { stroke: red; fill: red; }
]]></style>

<defs>
  <circle id="rim" cx="0" cy="0" r="7"/>
  <circle id="rim2" cx="0" cy="0" r="3.5"/>
  <g id="zoomPlus">
    <use xlink:href="#rim" fill="#404040"><set attributeName="fill" to="#808080" begin="zoomplus.mouseover" end="zoomplus.mouseout"/></use>
    <path d="M-4,0h8M0,-4v8" fill="none" stroke="white" stroke-width="1.5" pointer-events="none"/>
  </g>
  <g id="zoomMin">
    <use xlink:href="#rim" fill="#404040"><set attributeName="fill" to="#808080" begin="zoomminus.mouseover" end="zoomminus.mouseout"/></use>
    <path d="M-4,0h8" fill="none" stroke="white" stroke-width="1.5" pointer-events="none"/>
  </g>
  <g id="arrowUp" transform="translate(30 24)">
    <use xlink:href="#rim"/>
    <path pointer-events="none" fill="none" stroke="white" stroke-width="1.5" d="M0,-3.0v7 M-2.5,-0.5L0,-3.0L2.5,-0.5"/>
  </g>
  <g id="arrowRight" transform="rotate(90) translate(36 -43)">
    <use xlink:href="#rim"/>
    <path pointer-events="none" fill="none" stroke="white" stroke-width="1.5" d="M0,-3.0v7 M-2.5,-0.5L0,-3.0L2.5,-0.5"/>
  </g>
  <g id="arrowDown" transform="rotate(180) translate(-30 -48)">
    <use xlink:href="#rim"/>
    <path pointer-events="none" fill="none" stroke="white" stroke-width="1.5" d="M0,-3.0v7 M-2.5,-0.5L0,-3.0L2.5,-0.5"/>
  </g>
  <g id="arrowLeft" transform="rotate(270) translate(-36 17)">
    <use xlink:href="#rim"/>
    <path pointer-events="none" fill="none" stroke="white" stroke-width="1.5" d="M0,-3.0v7 M-2.5,-0.5L0,-3.0L2.5,-0.5"/>
  </g>
  <g id="resetDef">
    <use xlink:href="#rim2" fill="#404040"><set attributeName="fill" to="#808080" begin="reset.mouseover" end="reset.mouseout"/></use>
  </g>
</defs>
<script type="application/ecmascript">
var viewWidth = 898;
var viewHeight = 302;
var sectionId = 'dynsection-1';
</script>
<script type="application/ecmascript" xlink:href="svg.min.js"/>
<svg id="graph" class="graph">
<g id="viewport">
<title>porter/include/porter_type.h</title>
<!-- Node1 -->
<g id="Node000001" class="node">
<title>Node1</title>
<g id="a_Node000001"><a xlink:title="通信ライブラリの型定義ファイル。">
<polygon fill="#999999" stroke="#666666" points="492.5,-294 389.5,-294 389.5,-264 492.5,-264 492.5,-294"/>
<text text-anchor="start" x="397.5" y="-282" font-family="Helvetica,sans-Serif" font-size="10.00" fill="#000000">porter/include/porter</text>
<text text-anchor="middle" x="441" y="-271" font-family="Helvetica,sans-Serif" font-size="10.00" fill="#000000">_type.h</text>
</a>
</g>
</g>
<!-- Node2 -->
<g id="Node000002" class="node">
<title>Node2</title>
<g id="a_Node000002"><a xlink:href="porter_8h.html" target="_top" xlink:title="通信ライブラリ (動的リンク用) のヘッダーファイル。">
<polygon fill="#ffffff" stroke="#666666" points="223,-156.5 113,-156.5 113,-137.5 223,-137.5 223,-156.5"/>
<text text-anchor="middle" x="168" y="-144.5" font-family="Helvetica,sans-Serif" font-size="10.00" fill="#000000">porter/include/porter.h</text>
</a>
</g>
</g>
<!-- Node1&#45;&gt;Node2 -->
<g id="edge1_Node000001_Node000002" class="edge">
<title>Node1&#45;&gt;Node2</title>
<g id="a_edge1_Node000001_Node000002"><a xlink:title=" ">
<path fill="none" stroke="#63b8ff" d="M379.5672,-262.4664C351.2877,-253.8342 317.7145,-242.1128 289,-228 246.348,-207.037 201.085,-173.1796 180.0484,-156.6719"/>
<polygon fill="#63b8ff" stroke="#63b8ff" points="378.7489,-265.8748 389.3326,-265.3897 380.7564,-259.1689 378.7489,-265.8748"/>
</a>
</g>
</g>
<!-- Node8 -->
<g id="Node000008" class="node">
<title>Node8</title>
<g id="a_Node000008"><a xlink:href="potrContext_8h.html" target="_top" xlink:title="セッションコンテキスト内部定義ヘッダー。">
<polygon fill="#ffffff" stroke="#666666" points="716.5,-162 621.5,-162 621.5,-132 716.5,-132 716.5,-162"/>
<text text-anchor="start" x="629.5" y="-150" font-family="Helvetica,sans-Serif" font-size="10.00" fill="#000000">porter/libsrc/porter</text>
<text text-anchor="middle" x="669" y="-139" font-family="Helvetica,sans-Serif" font-size="10.00" fill="#000000">/potrContext.h</text>
</a>
</g>
</g>
<!-- Node1&#45;&gt;Node8 -->
<g id="edge7_Node000001_Node000008" class="edge">
<title>Node1&#45;&gt;Node8</title>
<g id="a_edge7_Node000001_Node000008"><a xlink:title=" ">
<path fill="none" stroke="#63b8ff" d="M501.6183,-260.6554C525.0554,-252.3237 551.5769,-241.3222 574,-228 582.4783,-222.9628 626.9176,-184.1479 651.9006,-162.1289"/>
<polygon fill="#63b8ff" stroke="#63b8ff" points="500.4273,-257.3638 492.1254,-263.9462 502.7202,-263.9777 500.4273,-257.3638"/>
</a>
</g>
</g>
<!-- Node11 -->
<g id="Node000011" class="node">
<title>Node11</title>
<g id="a_Node000011"><a xlink:href="config_8c.html" target="_top" xlink:title="設定ファイル (INI 形式) 解析モジュール。">
<polygon fill="#ffffff" stroke="#666666" points="336.5,-162 241.5,-162 241.5,-132 336.5,-132 336.5,-162"/>
<text text-anchor="start" x="249.5" y="-150" font-family="Helvetica,sans-Serif" font-size="10.00" fill="#000000">porter/libsrc/porter</text>
<text text-anchor="middle" x="289" y="-139" font-family="Helvetica,sans-Serif" font-size="10.00" fill="#000000">/protocol/config.c</text>
</a>
</g>
</g>
<!-- Node1&#45;&gt;Node11 -->
<g id="edge16_Node000001_Node000011" class="edge">
<title>Node1&#45;&gt;Node11</title>
<g id="a_edge16_Node000001_Node000011"><a xlink:title=" ">
<path fill="none" stroke="#63b8ff" d="M379.4348,-268.1922C354.3495,-260.8223 327.0623,-248.5075 309,-228 292.7246,-209.5213 289.2454,-179.8653 288.7445,-162.0256"/>
<polygon fill="#63b8ff" stroke="#63b8ff" points="378.7132,-271.6231 389.2815,-270.8734 380.5523,-264.869 378.7132,-271.6231"/>
</a>
</g>
</g>
<!-- Node12 -->
<g id="Node000012" class="node">
<title>Node12</title>
<g id="a_Node000012"><a xlink:href="config_8h.html" target="_top" xlink:title="設定ファイル解析モジュールの内部ヘッダー。">
<polygon fill="#ffffff" stroke="#666666" points="412.5,-228 317.5,-228 317.5,-198 412.5,-198 412.5,-228"/>
<text text-anchor="start" x="325.5" y="-216" font-family="Helvetica,sans-Serif" font-size="10.00" fill="#000000">porter/libsrc/porter</text>
<text text-anchor="middle" x="365" y="-205" font-family="Helvetica,sans-Serif" font-size="10.00" fill="#000000">/protocol/config.h</text>
</a>
</g>
</g>
<!-- Node1&#45;&gt;Node12 -->
<g id="edge17_Node000001_Node000012" class="edge">
<title>Node1&#45;&gt;Node12</title>
<g id="a_edge17_Node000001_Node000012"><a xlink:title=" ">
<path fill="none" stroke="#63b8ff" d="M415.7781,-257.0967C404.8797,-247.6324 392.3944,-236.7899 382.5314,-228.2246"/>
<polygon fill="#63b8ff" stroke="#63b8ff" points="413.5278,-259.7781 423.373,-263.6924 418.1176,-254.4929 413.5278,-259.7781"/>
</a>
</g>
</g>
<!-- Node13 -->
<g id="Node000013" class="node">
<title>Node13</title>
<g id="a_Node000013"><a xlink:href="packet_8c.html" target="_top" xlink:title="パケット構築・解析モジュール。">
<polygon fill="#ffffff" stroke="#666666" points="488.5,-162 393.5,-162 393.5,-132 488.5,-132 488.5,-162"/>
<text text-anchor="start" x="401.5" y="-150" font-family="Helvetica,sans-Serif" font-size="10.00" fill="#000000">porter/libsrc/porter</text>
<text text-anchor="middle" x="441" y="-139" font-family="Helvetica,sans-Serif" font-size="10.00" fill="#000000">/protocol/packet.c</text>
</a>
</g>
</g>
<!-- Node1&#45;&gt;Node13 -->
<g id="edge20_Node000001_Node000013" class="edge">
<title>Node1&#45;&gt;Node13</title>
<g id="a_edge20_Node000001_Node000013"><a xlink:title=" ">
<path fill="none" stroke="#63b8ff" d="M441,-253.6316C441,-226.6266 441,-184.7661 441,-162.3721"/>
<polygon fill="#63b8ff" stroke="#63b8ff" points="437.5001,-253.8579 441,-263.8579 444.5001,-253.858 437.5001,-253.8579"/>
</a>
</g>
</g>
<!-- Node14 -->
<g id="Node000014" class="node">
<title>Node14</title>
<g id="a_Node000014"><a xlink:href="packet_8h.html" target="_top" xlink:title="パケット構築・解析モジュールの内部ヘッダー。">
<polygon fill="#ffffff" stroke="#666666" points="564.5,-228 469.5,-228 469.5,-198 564.5,-198 564.5,-228"/>
<text text-anchor="start" x="477.5" y="-216" font-family="Helvetica,sans-Serif" font-size="10.00" fill="#000000">porter/libsrc/porter</text>
<text text-anchor="middle" x="517" y="-205" font-family="Helvetica,sans-Serif" font-size="10.00" fill="#000000">/protocol/packet.h</text>
</a>
</g>
</g>
<!-- Node1&#45;&gt;Node14 -->
<g id="edge21_Node000001_Node000014" class="edge">
<title>Node1&#45;&gt;Node14</title>
<g id="a_edge21_Node000001_Node000014"><a xlink:title=" ">
<path fill="none" stroke="#63b8ff" d="M466.2219,-257.0967C477.1203,-247.6324 489.6056,-236.7899 499.4686,-228.2246"/>
<polygon fill="#63b8ff" stroke="#63b8ff" points="463.8824,-254.4929 458.627,-263.6924 468.4722,-259.7781 463.8824,-254.4929"/>
</a>
</g>
</g>
<!-- Node15 -->
<g id="Node000015" class="node">
<title>Node15</title>
<g id="a_Node000015"><a xlink:href="window_8h.html" target="_top" xlink:title="スライディングウィンドウ管理モジュールの内部ヘッダー。">
<polygon fill="#ffffff" stroke="#666666" points="717,-228 621,-228 621,-198 717,-198 717,-228"/>
<text text-anchor="start" x="629" y="-216" font-family="Helvetica,sans-Serif" font-size="10.00" fill="#000000">porter/libsrc/porter</text>
<text text-anchor="middle" x="669" y="-205" font-family="Helvetica,sans-Serif" font-size="10.00" fill="#000000">/protocol/window.h</text>
</a>
</g>
</g>
<!-- Node1&#45;&gt;Node15 -->
<g id="edge25_Node000001_Node000015" class="edge">
<title>Node1&#45;&gt;Node15</title>
<g id="a_edge25_Node000001_Node000015"><a xlink:title=" ">
<path fill="none" stroke="#63b8ff" d="M502.4706,-261.2059C539.6922,-250.4312 586.4756,-236.8886 620.9713,-226.903"/>
<polygon fill="#63b8ff" stroke="#63b8ff" points="501.3691,-257.881 492.7367,-264.0236 503.3156,-264.6049 501.3691,-257.881"/>
</a>
</g>
</g>
<!-- Node3 -->
<g id="Node000003" class="node">
<title>Node3</title>
<g id="a_Node000003"><a xlink:href="potrClose_8c.html" target="_top" xlink:title="potrClose 関数の実装。">
<polygon fill="#ffffff" stroke="#666666" points="726.5,-30 631.5,-30 631.5,0 726.5,0 726.5,-30"/>
<text text-anchor="start" x="639.5" y="-18" font-family="Helvetica,sans-Serif" font-size="10.00" fill="#000000">porter/libsrc/porter</text>
<text text-anchor="middle" x="679" y="-7" font-family="Helvetica,sans-Serif" font-size="10.00" fill="#000000">/potrClose.c</text>
</a>
</g>
</g>
<!-- Node2&#45;&gt;Node3 -->
<g id="edge2_Node000002_Node000003" class="edge">
<title>Node2&#45;&gt;Node3</title>
<g id="a_edge2_Node000002_Node000003"><a xlink:title=" ">
<path fill="none" stroke="#63b8ff" d="M208.4566,-134.4198C263.1594,-117.6399 363.9004,-87.5498 451,-66 526.8149,-47.2422 547.0279,-48.1107 623,-30 625.7414,-29.3465 628.553,-28.6565 631.3867,-27.9458"/>
<polygon fill="#63b8ff" stroke="#63b8ff" points="207.3206,-131.1073 198.7918,-137.393 209.3789,-137.7979 207.3206,-131.1073"/>
</a>
</g>
</g>
<!-- Node4 -->
<g id="Node000004" class="node">
<title>Node4</title>
<g id="a_Node000004"><a xlink:href="potrOpenService_8c.html" target="_top" xlink:title="potrOpenService 関数の実装。">
<polygon fill="#ffffff" stroke="#666666" points="613.5,-30 512.5,-30 512.5,0 613.5,0 613.5,-30"/>
<text text-anchor="start" x="520.5" y="-18" font-family="Helvetica,sans-Serif" font-size="10.00" fill="#000000">porter/libsrc/porter</text>
<text text-anchor="middle" x="563" y="-7" font-family="Helvetica,sans-Serif" font-size="10.00" fill="#000000">/potrOpenService.c</text>
</a>
</g>
</g>
<!-- Node2&#45;&gt;Node4 -->
<g id="edge3_Node000002_Node000004" class="edge">
<title>Node2&#45;&gt;Node4</title>
<g id="a_edge3_Node000002_Node000004"><a xlink:title=" ">
<path fill="none" stroke="#63b8ff" d="M195.7103,-132.8414C231.0232,-115.2437 294.2964,-85.194 351,-66 404.9648,-47.733 468.7493,-33.3176 512.1566,-24.5386"/>
<polygon fill="#63b8ff" stroke="#63b8ff" points="193.8868,-129.8404 186.5203,-137.4552 197.0277,-136.0963 193.8868,-129.8404"/>
</a>
</g>
</g>
<!-- Node5 -->
<g id="Node000005" class="node">
<title>Node5</title>
<g id="a_Node000005"><a xlink:href="potrSend_8c.html" target="_top" xlink:title="potrSend 関数の実装。">
<polygon fill="#ffffff" stroke="#666666" points="554.5,-96 459.5,-96 459.5,-66 554.5,-66 554.5,-96"/>
<text text-anchor="start" x="467.5" y="-84" font-family="Helvetica,sans-Serif" font-size="10.00" fill="#000000">porter/libsrc/porter</text>
<text text-anchor="middle" x="507" y="-73" font-family="Helvetica,sans-Serif" font-size="10.00" fill="#000000">/potrSend.c</text>
</a>
</g>
</g>
<!-- Node2&#45;&gt;Node5 -->
<g id="edge4_Node000002_Node000005" class="edge">
<title>Node2&#45;&gt;Node5</title>
<g id="a_edge4_Node000002_Node000005"><a xlink:title=" ">
<path fill="none" stroke="#63b8ff" d="M217.508,-135.1501C222.3976,-134.0539 227.2911,-132.9859 232,-132 318.2608,-113.9395 340.3557,-112.1208 427,-96 437.4194,-94.0614 448.6001,-91.9712 459.2018,-89.9847"/>
<polygon fill="#63b8ff" stroke="#63b8ff" points="216.5092,-131.7879 207.5371,-137.4228 218.0649,-138.6129 216.5092,-131.7879"/>
</a>
</g>
</g>
<!-- Node6 -->
<g id="Node000006" class="node">
<title>Node6</title>
<g id="a_Node000006"><a xlink:href="recv_8c.html" target="_top" xlink:title="受信テストコマンド。">
<polygon fill="#ffffff" stroke="#666666" points="241.5,-90.5 132.5,-90.5 132.5,-71.5 241.5,-71.5 241.5,-90.5"/>
<text text-anchor="middle" x="187" y="-78.5" font-family="Helvetica,sans-Serif" font-size="10.00" fill="#000000">porter/src/recv/recv.c</text>
</a>
</g>
</g>
<!-- Node2&#45;&gt;Node6 -->
<g id="edge5_Node000002_Node000006" class="edge">
<title>Node2&#45;&gt;Node6</title>
<g id="a_edge5_Node000002_Node000006"><a xlink:title=" ">
<path fill="none" stroke="#63b8ff" d="M173.585,-127.5995C177.0681,-115.5002 181.4023,-100.4446 184.185,-90.7785"/>
<polygon fill="#63b8ff" stroke="#63b8ff" points="170.2066,-126.6835 170.8035,-137.2615 176.9334,-128.62 170.2066,-126.6835"/>
</a>
</g>
</g>
<!-- Node7 -->
<g id="Node000007" class="node">
<title>Node7</title>
<g id="a_Node000007"><a xlink:href="send_8c.html" target="_top" xlink:title="送信テストコマンド。">
<polygon fill="#ffffff" stroke="#666666" points="114,-90.5 0,-90.5 0,-71.5 114,-71.5 114,-90.5"/>
<text text-anchor="middle" x="57" y="-78.5" font-family="Helvetica,sans-Serif" font-size="10.00" fill="#000000">porter/src/send/send.c</text>
</a>
</g>
</g>
<!-- Node2&#45;&gt;Node7 -->
<g id="edge6_Node000002_Node000007" class="edge">
<title>Node2&#45;&gt;Node7</title>
<g id="a_edge6_Node000002_Node000007"><a xlink:title=" ">
<path fill="none" stroke="#63b8ff" d="M142.7595,-131.9922C121.3707,-119.2745 91.3458,-101.4218 73.0847,-90.5639"/>
<polygon fill="#63b8ff" stroke="#63b8ff" points="141.2374,-135.1591 151.6216,-137.2615 144.815,-129.1423 141.2374,-135.1591"/>
</a>
</g>
</g>
<!-- Node8&#45;&gt;Node3 -->
<g id="edge8_Node000008_Node000003" class="edge">
<title>Node8&#45;&gt;Node3</title>
<g id="a_edge8_Node000008_Node000003"><a xlink:title=" ">
<path fill="none" stroke="#63b8ff" d="M670.9218,-121.6316C672.9677,-94.6266 676.1389,-52.7661 677.8354,-30.3721"/>
<polygon fill="#63b8ff" stroke="#63b8ff" points="667.4126,-121.6221 670.1471,-131.8579 674.3926,-122.1509 667.4126,-121.6221"/>
</a>
</g>
</g>
<!-- Node8&#45;&gt;Node4 -->
<g id="edge9_Node000008_Node000004" class="edge">
<title>Node8&#45;&gt;Node4</title>
<g id="a_edge9_Node000008_Node000004"><a xlink:title=" ">
<path fill="none" stroke="#63b8ff" d="M650.3373,-123.7597C628.7465,-96.873 593.8069,-53.3633 575.3442,-30.3721"/>
<polygon fill="#63b8ff" stroke="#63b8ff" points="647.8501,-126.2522 656.8405,-131.8579 653.3081,-121.8693 647.8501,-126.2522"/>
</a>
</g>
</g>
<!-- Node8&#45;&gt;Node5 -->
<g id="edge15_Node000008_Node000005" class="edge">
<title>Node8&#45;&gt;Node5</title>
<g id="a_edge15_Node000008_Node000005"><a xlink:title=" ">
<path fill="none" stroke="#63b8ff" d="M622.5665,-128.0827C597.6316,-117.924 567.3173,-105.5737 543.9931,-96.0713"/>
<polygon fill="#63b8ff" stroke="#63b8ff" points="621.2524,-131.3266 631.8339,-131.8583 623.8936,-124.8439 621.2524,-131.3266"/>
</a>
</g>
</g>
<!-- Node9 -->
<g id="Node000009" class="node">
<title>Node9</title>
<g id="a_Node000009"><a xlink:href="potrRecvThread_8c.html" target="_top" xlink:title="受信スレッドモジュール。">
<polygon fill="#ffffff" stroke="#666666" points="880.5,-30 783.5,-30 783.5,0 880.5,0 880.5,-30"/>
<text text-anchor="start" x="791.5" y="-18" font-family="Helvetica,sans-Serif" font-size="10.00" fill="#000000">porter/libsrc/porter</text>
<text text-anchor="middle" x="832" y="-7" font-family="Helvetica,sans-Serif" font-size="10.00" fill="#000000">/potrRecvThread.c</text>
</a>
</g>
</g>
<!-- Node8&#45;&gt;Node9 -->
<g id="edge10_Node000008_Node000009" class="edge">
<title>Node8&#45;&gt;Node9</title>
<g id="a_edge10_Node000008_Node000009"><a xlink:title=" ">
<path fill="none" stroke="#63b8ff" d="M726.4766,-133.4436C749.6883,-125.63 775.34,-113.7271 794,-96 813.1445,-77.8127 823.6199,-48.0611 828.4976,-30.1243"/>
<polygon fill="#63b8ff" stroke="#63b8ff" points="725.177,-130.184 716.7056,-136.547 727.296,-136.8556 725.177,-130.184"/>
</a>
</g>
</g>
<!-- Node10 -->
<g id="Node000010" class="node">
<title>Node10</title>
<g id="a_Node000010"><a xlink:href="potrRecvThread_8h.html" target="_top" xlink:title="受信スレッド内部ヘッダー。">
<polygon fill="#ffffff" stroke="#666666" points="784.5,-96 687.5,-96 687.5,-66 784.5,-66 784.5,-96"/>
<text text-anchor="start" x="695.5" y="-84" font-family="Helvetica,sans-Serif" font-size="10.00" fill="#000000">porter/libsrc/porter</text>
<text text-anchor="middle" x="736" y="-73" font-family="Helvetica,sans-Serif" font-size="10.00" fill="#000000">/potrRecvThread.h</text>
</a>
</g>
</g>
<!-- Node8&#45;&gt;Node10 -->
<g id="edge11_Node000008_Node000010" class="edge">
<title>Node8&#45;&gt;Node10</title>
<g id="a_edge11_Node000008_Node000010"><a xlink:title=" ">
<path fill="none" stroke="#63b8ff" d="M691.7964,-124.5439C701.2694,-115.2122 712.0185,-104.6236 720.5447,-96.2246"/>
<polygon fill="#63b8ff" stroke="#63b8ff" points="689.2074,-122.1812 684.5396,-131.6924 694.1198,-127.1681 689.2074,-122.1812"/>
</a>
</g>
</g>
<!-- Node10&#45;&gt;Node3 -->
<g id="edge12_Node000010_Node000003" class="edge">
<title>Node10&#45;&gt;Node3</title>
<g id="a_edge12_Node000010_Node000003"><a xlink:title=" ">
<path fill="none" stroke="#63b8ff" d="M716.1261,-57.9881C708.1855,-48.7937 699.2585,-38.4573 692.1485,-30.2246"/>
<polygon fill="#63b8ff" stroke="#63b8ff" points="713.5947,-60.4118 722.7798,-65.6924 718.8924,-55.8364 713.5947,-60.4118"/>
</a>
</g>
</g>
<!-- Node10&#45;&gt;Node4 -->
<g id="edge13_Node000010_Node000004" class="edge">
<title>Node10&#45;&gt;Node4</title>
<g id="a_edge13_Node000010_Node000004"><a xlink:title=" ">
<path fill="none" stroke="#63b8ff" d="M686.7652,-62.2168C660.071,-52.0329 627.5226,-39.6156 602.505,-30.0713"/>
<polygon fill="#63b8ff" stroke="#63b8ff" points="685.7196,-65.5639 696.3103,-65.8583 688.2147,-59.0236 685.7196,-65.5639"/>
</a>
</g>
</g>
<!-- Node10&#45;&gt;Node9 -->
<g id="edge14_Node000010_Node000009" class="edge">
<title>Node10&#45;&gt;Node9</title>
<g id="a_edge14_Node000010_Node000009"><a xlink:title=" ">
<path fill="none" stroke="#63b8ff" d="M766.6617,-59.9201C780.7041,-50.2659 797.0337,-39.0394 809.8551,-30.2246"/>
<polygon fill="#63b8ff" stroke="#63b8ff" points="764.5232,-57.1429 758.2656,-65.6924 768.4889,-62.9112 764.5232,-57.1429"/>
</a>
</g>
</g>
<!-- Node12&#45;&gt;Node4 -->
<g id="edge18_Node000012_Node000004" class="edge">
<title>Node12&#45;&gt;Node4</title>
<g id="a_edge18_Node000012_Node000004"><a xlink:title=" ">
<path fill="none" stroke="#63b8ff" d="M367.6724,-187.6643C370.2669,-170.9996 375.3068,-149.1782 385,-132 414.1686,-80.3075 476.729,-47.4434 519.3457,-30.1173"/>
<polygon fill="#63b8ff" stroke="#63b8ff" points="364.1777,-187.3892 366.2963,-197.77 371.1136,-188.3337 364.1777,-187.3892"/>
</a>
</g>
</g>
<!-- Node12&#45;&gt;Node11 -->
<g id="edge19_Node000012_Node000011" class="edge">
<title>Node12&#45;&gt;Node11</title>
<g id="a_edge19_Node000012_Node000011"><a xlink:title=" ">
<path fill="none" stroke="#63b8ff" d="M339.7781,-191.0967C328.8797,-181.6324 316.3944,-170.7899 306.5314,-162.2246"/>
<polygon fill="#63b8ff" stroke="#63b8ff" points="337.5278,-193.7781 347.373,-197.6924 342.1176,-188.4929 337.5278,-193.7781"/>
</a>
</g>
</g>
<!-- Node14&#45;&gt;Node5 -->
<g id="edge23_Node000014_Node000005" class="edge">
<title>Node14&#45;&gt;Node5</title>
<g id="a_edge23_Node000014_Node000005"><a xlink:title=" ">
<path fill="none" stroke="#63b8ff" d="M515.0782,-187.6316C513.0323,-160.6266 509.8611,-118.7661 508.1646,-96.3721"/>
<polygon fill="#63b8ff" stroke="#63b8ff" points="511.6074,-188.1509 515.8529,-197.8579 518.5874,-187.6221 511.6074,-188.1509"/>
</a>
</g>
</g>
<!-- Node14&#45;&gt;Node9 -->
<g id="edge22_Node000014_Node000009" class="edge">
<title>Node14&#45;&gt;Node9</title>
<g id="a_edge22_Node000014_Node000009"><a xlink:title=" ">
<path fill="none" stroke="#63b8ff" d="M574.3779,-201.7833C626.6169,-191.0691 699.5076,-174.7163 726,-162 745.7148,-152.5369 747.2807,-144.816 765,-132 788.0731,-115.3118 802.5703,-119.933 818,-96 830.9138,-75.9694 832.9369,-47.6027 832.7827,-30.3"/>
<polygon fill="#63b8ff" stroke="#63b8ff" points="573.6544,-198.3587 564.5529,-203.7821 575.05,-205.2182 573.6544,-198.3587"/>
</a>
</g>
</g>
<!-- Node14&#45;&gt;Node13 -->
<g id="edge24_Node000014_Node000013" class="edge">
<title>Node14&#45;&gt;Node13</title>
<g id="a_edge24_Node000014_Node000013"><a xlink:title=" ">
<path fill="none" stroke="#63b8ff" d="M491.7781,-191.0967C480.8797,-181.6324 468.3944,-170.7899 458.5314,-162.2246"/>
<polygon fill="#63b8ff" stroke="#63b8ff" points="489.5278,-193.7781 499.373,-197.6924 494.1176,-188.4929 489.5278,-193.7781"/>
</a>
</g>
</g>
<!-- Node15&#45;&gt;Node4 -->
<g id="edge27_Node000015_Node000004" class="edge">
<title>Node15&#45;&gt;Node4</title>
<g id="a_edge27_Node000015_Node000004"><a xlink:title=" ">
<path fill="none" stroke="#63b8ff" d="M639.7603,-191.3242C630.1695,-183.0284 620.1499,-172.9136 613,-162 584.7847,-118.9321 570.8391,-58.3012 565.5764,-30.2885"/>
<polygon fill="#63b8ff" stroke="#63b8ff" points="637.7064,-194.1674 647.6434,-197.8425 642.1671,-188.7728 637.7064,-194.1674"/>
</a>
</g>
</g>
<!-- Node15&#45;&gt;Node5 -->
<g id="edge29_Node000015_Node000005" class="edge">
<title>Node15&#45;&gt;Node5</title>
<g id="a_edge29_Node000015_Node000005"><a xlink:title=" ">
<path fill="none" stroke="#63b8ff" d="M627.4565,-193.1544C611.5514,-184.6319 593.7105,-173.8922 579,-162 554.4186,-142.128 531.0925,-113.4542 517.9604,-96.0891"/>
<polygon fill="#63b8ff" stroke="#63b8ff" points="626.075,-196.3814 636.5593,-197.9081 629.3153,-190.1765 626.075,-196.3814"/>
</a>
</g>
</g>
<!-- Node15&#45;&gt;Node8 -->
<g id="edge26_Node000015_Node000008" class="edge">
<title>Node15&#45;&gt;Node8</title>
<g id="a_edge26_Node000015_Node000008"><a xlink:title=" ">
<path fill="none" stroke="#63b8ff" d="M669,-187.4546C669,-178.9317 669,-169.7088 669,-162.2246"/>
<polygon fill="#63b8ff" stroke="#63b8ff" points="665.5001,-187.6923 669,-197.6924 672.5001,-187.6924 665.5001,-187.6923"/>
</a>
</g>
</g>
<!-- Node15&#45;&gt;Node9 -->
<g id="edge28_Node000015_Node000009" class="edge">
<title>Node15&#45;&gt;Node9</title>
<g id="a_edge28_Node000015_Node000009"><a xlink:title=" ">
<path fill="none" stroke="#63b8ff" d="M727.09,-206.8861C782.5619,-199.7076 860.3901,-185.6704 879,-162 910.7954,-121.5587 868.4602,-59.0918 845.3054,-30.386"/>
<polygon fill="#63b8ff" stroke="#63b8ff" points="726.4996,-203.4326 717.0117,-208.1475 727.3689,-210.3784 726.4996,-203.4326"/>
</a>
</g>
</g>
<!-- Node16 -->
<g id="Node000016" class="node">
<title>Node16</title>
<g id="a_Node000016"><a xlink:href="window_8c.html" target="_top" xlink:title="スライディングウィンドウ管理モジュール。">
<polygon fill="#ffffff" stroke="#666666" points="870,-162 774,-162 774,-132 870,-132 870,-162"/>
<text text-anchor="start" x="782" y="-150" font-family="Helvetica,sans-Serif" font-size="10.00" fill="#000000">porter/libsrc/porter</text>
<text text-anchor="middle" x="822" y="-139" font-family="Helvetica,sans-Serif" font-size="10.00" fill="#000000">/protocol/window.c</text>
</a>
</g>
</g>
<!-- Node15&#45;&gt;Node16 -->
<g id="edge30_Node000015_Node000016" class="edge">
<title>Node15&#45;&gt;Node16</title>
<g id="a_edge30_Node000015_Node000016"><a xlink:title=" ">
<path fill="none" stroke="#63b8ff" d="M713.4775,-193.8136C736.9075,-183.7066 765.2278,-171.49 787.062,-162.0713"/>
<polygon fill="#63b8ff" stroke="#63b8ff" points="711.8971,-190.6836 704.1013,-197.8583 714.6698,-197.111 711.8971,-190.6836"/>
</a>
</g>
</g>
</g>
</svg>

<g id="navigator" transform="translate(0 0)" fill="#404254">
  <rect fill="#f2f5e9" fill-opacity="0.5" stroke="#606060" stroke-width=".5" x="0" y="0" width="60" height="60"/>
  <use id="zoomplus" xlink:href="#zoomPlus" x="17" y="9" onmousedown="handleZoom(evt,'in')"/>
  <use id="zoomminus" xlink:href="#zoomMin" x="42" y="9" onmousedown="handleZoom(evt,'out')"/>
  <use id="reset" xlink:href="#resetDef" x="30" y="36" onmousedown="handleReset()"/>
   <use id="arrowup" xlink:href="#arrowUp" x="0" y="0" onmousedown="handlePan(0,-1)"/>
  <use id="arrowright" xlink:href="#arrowRight" x="0" y="0" onmousedown="handlePan(1,0)"/>
  <use id="arrowdown" xlink:href="#arrowDown" x="0" y="0" onmousedown="handlePan(0,1)"/>
  <use id="arrowleft" xlink:href="#arrowLeft" x="0" y="0" onmousedown="handlePan(-1,0)"/>
</g>
<svg viewBox="0 0 15 15" width="100%" height="30px" preserveAspectRatio="xMaxYMin meet">
 <g id="arrow_out" transform="scale(0.3 0.3)">
  <a xlink:href="porter__type_8h__dep__incl_org.svg" target="_base">
   <rect id="button" ry="5" rx="5" y="6" x="6" height="38" width="38"
        fill="#f2f5e9" fill-opacity="0.5" stroke="#606060" stroke-width="1.0"/>
   <path id="arrow"
     d="M 11.500037,31.436501 C 11.940474,20.09759 22.043105,11.32322 32.158766,21.979434 L 37.068811,17.246167 C 37.068811,17.246167 37.088388,32 37.088388,32 L 22.160133,31.978069 C 22.160133,31.978069 26.997745,27.140456 26.997745,27.140456 C 18.528582,18.264221 13.291696,25.230495 11.500037,31.436501 z"
     style="fill:#404040;"/>
  </a>
 </g>
</svg>

<style type='text/css'>
<![CDATA[
[data-mouse-over-selected='false'] { opacity: 0.7; }
[data-mouse-over-selected='true']  { opacity: 1.0; }
]]>
</style>
<script type="application/ecmascript"><![CDATA[
document.addEventListener('DOMContentLoaded', (event) => {
  highlightEdges();
  highlightAdjacentNodes();
});
]]></script>
</svg>
