<?xml version="1.0" encoding="UTF-8" standalone="no"?>
<!DOCTYPE svg PUBLIC "-//W3C//DTD SVG 1.1//EN"
 "http://www.w3.org/Graphics/SVG/1.1/DTD/svg11.dtd">
<!-- Generated by graphviz version 2.40.1 (0)
 -->
<!-- Title: potrSend Pages: 1 -->
<svg width="240pt" height="113pt"
 viewBox="0.00 0.00 240.00 112.50" xmlns="http://www.w3.org/2000/svg" xmlns:xlink="http://www.w3.org/1999/xlink">

<svg id="main" version="1.1" xmlns="http://www.w3.org/2000/svg" xmlns:xlink="http://www.w3.org/1999/xlink" xml:space="preserve">

<style type="text/css"><![CDATA[
.node, .edge {opacity: 0.7;}
.node.selected, .edge.selected {opacity: 1;}
.edge:hover path { stroke: red; }
.edge:hover polygon { stroke: red; fill: red; }
]]></style>
<script type="application/ecmascript" xlink:href="svg.min.js"/>
<svg id="graph" class="graph">
<g id="graph0" class="graph" transform="scale(1 1) rotate(0) translate(4 108.5)">
<title>potrSend</title>
<!-- Node1 -->
<g id="Node000001" class="node">
<title>Node1</title>
<g id="a_Node000001"><a xlink:title="メッセージを送信します。">
<polygon fill="#999999" stroke="#666666" points="56,-67.5 0,-67.5 0,-48.5 56,-48.5 56,-67.5"/>
<text text-anchor="middle" x="28" y="-55.5" font-family="Helvetica,sans-Serif" font-size="10.00" fill="#000000">potrSend</text>
</a>
</g>
</g>
<!-- Node2 -->
<g id="Node000002" class="node">
<title>Node2</title>
<g id="a_Node000002"><a xlink:href="compress__linux_8c.html#ae3eac2a4f0aae5db6c833f63dbaae78b" target="_top" xlink:title="データを圧縮します。">
<polygon fill="#ffffff" stroke="#666666" points="202.5,-104.5 121.5,-104.5 121.5,-85.5 202.5,-85.5 202.5,-104.5"/>
<text text-anchor="middle" x="162" y="-92.5" font-family="Helvetica,sans-Serif" font-size="10.00" fill="#000000">potr_compress</text>
</a>
</g>
</g>
<!-- Node1&#45;&gt;Node2 -->
<g id="edge1_Node000001_Node000002" class="edge">
<title>Node1&#45;&gt;Node2</title>
<g id="a_edge1_Node000001_Node000002"><a xlink:title=" ">
<path fill="none" stroke="#63b8ff" d="M56.2905,-66.6432C67.3973,-69.9724 80.2714,-73.7523 92,-77 99.0669,-78.9569 106.555,-80.9583 113.9038,-82.8819"/>
<polygon fill="#63b8ff" stroke="#63b8ff" points="113.2273,-86.3223 123.7858,-85.4454 114.985,-79.5465 113.2273,-86.3223"/>
</a>
</g>
</g>
<!-- Node3 -->
<g id="Node000003" class="node">
<title>Node3</title>
<g id="a_Node000003"><a xlink:href="potrSendQueue_8c.html#a79cf500ec000bd504ec76b9b2085812d" target="_top" xlink:title=" ">
<polygon fill="#ffffff" stroke="#666666" points="232,-67.5 92,-67.5 92,-48.5 232,-48.5 232,-67.5"/>
<text text-anchor="middle" x="162" y="-55.5" font-family="Helvetica,sans-Serif" font-size="10.00" fill="#000000">potr_send_queue_push_wait</text>
</a>
</g>
</g>
<!-- Node1&#45;&gt;Node3 -->
<g id="edge2_Node000001_Node000003" class="edge">
<title>Node1&#45;&gt;Node3</title>
<g id="a_edge2_Node000001_Node000003"><a xlink:title=" ">
<path fill="none" stroke="#63b8ff" d="M56.0908,-58C63.8683,-58 72.7164,-58 81.9064,-58"/>
<polygon fill="#63b8ff" stroke="#63b8ff" points="81.9784,-61.5001 91.9784,-58 81.9783,-54.5001 81.9784,-61.5001"/>
</a>
</g>
</g>
<!-- Node4 -->
<g id="Node000004" class="node">
<title>Node4</title>
<g id="a_Node000004"><a xlink:href="potrSendQueue_8c.html#afff20ee110f71f775687505b8dda79f2" target="_top" xlink:title=" ">
<polygon fill="#ffffff" stroke="#666666" points="218.5,-30 105.5,-30 105.5,0 218.5,0 218.5,-30"/>
<text text-anchor="start" x="113.5" y="-18" font-family="Helvetica,sans-Serif" font-size="10.00" fill="#000000">potr_send_queue_wait</text>
<text text-anchor="middle" x="162" y="-7" font-family="Helvetica,sans-Serif" font-size="10.00" fill="#000000">_drained</text>
</a>
</g>
</g>
<!-- Node1&#45;&gt;Node4 -->
<g id="edge3_Node000001_Node000004" class="edge">
<title>Node1&#45;&gt;Node4</title>
<g id="a_edge3_Node000001_Node000004"><a xlink:title=" ">
<path fill="none" stroke="#63b8ff" d="M56.0908,-48.9858C70.397,-44.395 88.3252,-38.6419 105.3415,-33.1815"/>
<polygon fill="#63b8ff" stroke="#63b8ff" points="106.7684,-36.3994 115.2208,-30.0112 104.6296,-29.7342 106.7684,-36.3994"/>
</a>
</g>
</g>
</g>
</svg>
</svg>

<style type='text/css'>
<![CDATA[
[data-mouse-over-selected='false'] { opacity: 0.7; }
[data-mouse-over-selected='true']  { opacity: 1.0; }
]]>
</style>
<script type="application/ecmascript"><![CDATA[
document.addEventListener('DOMContentLoaded', (event) => {
  highlightEdges();
  highlightAdjacentNodes();
});
]]></script>
</svg>
