<?xml version="1.0" encoding="UTF-8" standalone="no"?>
<!DOCTYPE svg PUBLIC "-//W3C//DTD SVG 1.1//EN"
 "http://www.w3.org/Graphics/SVG/1.1/DTD/svg11.dtd">
<!-- Generated by graphviz version 2.40.1 (0)
 -->
<!-- Title: porter/include/porter.h Pages: 1 -->
<svg width="897pt" height="93pt"
 viewBox="0.00 0.00 897.00 93.00" xmlns="http://www.w3.org/2000/svg" xmlns:xlink="http://www.w3.org/1999/xlink">
<g id="graph0" class="graph" transform="scale(1 1) rotate(0) translate(4 89)">
<title>porter/include/porter.h</title>
<!-- Node1 -->
<g id="Node000001" class="node">
<title>Node1</title>
<g id="a_Node000001"><a xlink:title="通信ライブラリ (動的リンク用) のヘッダーファイル。">
<polygon fill="#999999" stroke="#666666" points="486,-85 376,-85 376,-66 486,-66 486,-85"/>
<text text-anchor="middle" x="431" y="-73" font-family="Helvetica,sans-Serif" font-size="10.00" fill="#000000">porter/include/porter.h</text>
</a>
</g>
</g>
<!-- Node2 -->
<g id="Node000002" class="node">
<title>Node2</title>
<g id="a_Node000002"><a xlink:href="potrCloseService_8c.html" target="_top" xlink:title=" ">
<polygon fill="#ffffff" stroke="#666666" points="118,-30 0,-30 0,0 118,0 118,-30"/>
<text text-anchor="start" x="8" y="-18" font-family="Helvetica,sans-Serif" font-size="10.00" fill="#000000">porter/libsrc/porter</text>
<text text-anchor="middle" x="59" y="-7" font-family="Helvetica,sans-Serif" font-size="10.00" fill="#000000">/api/potrCloseService.c</text>
</a>
</g>
</g>
<!-- Node1&#45;&gt;Node2 -->
<g id="edge1_Node000001_Node000002" class="edge">
<title>Node1&#45;&gt;Node2</title>
<g id="a_edge1_Node000001_Node000002"><a xlink:title=" ">
<path fill="none" stroke="#63b8ff" d="M365.9075,-67.0725C304.2059,-58.7736 209.0196,-45.1658 127,-30 124.1469,-29.4725 121.2311,-28.912 118.2895,-28.3294"/>
<polygon fill="#63b8ff" stroke="#63b8ff" points="365.5171,-70.5514 375.893,-68.4085 366.4455,-63.6132 365.5171,-70.5514"/>
</a>
</g>
</g>
<!-- Node3 -->
<g id="Node000003" class="node">
<title>Node3</title>
<g id="a_Node000003"><a xlink:href="potrOpenService_8c.html" target="_top" xlink:title="potrOpenService 関数の実装。">
<polygon fill="#ffffff" stroke="#666666" points="252,-30 136,-30 136,0 252,0 252,-30"/>
<text text-anchor="start" x="144" y="-18" font-family="Helvetica,sans-Serif" font-size="10.00" fill="#000000">porter/libsrc/porter</text>
<text text-anchor="middle" x="194" y="-7" font-family="Helvetica,sans-Serif" font-size="10.00" fill="#000000">/api/potrOpenService.c</text>
</a>
</g>
</g>
<!-- Node1&#45;&gt;Node3 -->
<g id="edge2_Node000001_Node000003" class="edge">
<title>Node1&#45;&gt;Node3</title>
<g id="a_edge2_Node000001_Node000003"><a xlink:title=" ">
<path fill="none" stroke="#63b8ff" d="M383.9611,-63.4922C346.1433,-53.8383 292.8269,-40.228 252.301,-29.8828"/>
<polygon fill="#63b8ff" stroke="#63b8ff" points="383.153,-66.8981 393.708,-65.9803 384.8845,-60.1156 383.153,-66.8981"/>
</a>
</g>
</g>
<!-- Node4 -->
<g id="Node000004" class="node">
<title>Node4</title>
<g id="a_Node000004"><a xlink:href="potrSend_8c.html" target="_top" xlink:title="potrSend 関数の実装。">
<polygon fill="#ffffff" stroke="#666666" points="365.5,-30 270.5,-30 270.5,0 365.5,0 365.5,-30"/>
<text text-anchor="start" x="278.5" y="-18" font-family="Helvetica,sans-Serif" font-size="10.00" fill="#000000">porter/libsrc/porter</text>
<text text-anchor="middle" x="318" y="-7" font-family="Helvetica,sans-Serif" font-size="10.00" fill="#000000">/api/potrSend.c</text>
</a>
</g>
</g>
<!-- Node1&#45;&gt;Node4 -->
<g id="edge3_Node000001_Node000004" class="edge">
<title>Node1&#45;&gt;Node4</title>
<g id="a_edge3_Node000001_Node000004"><a xlink:title=" ">
<path fill="none" stroke="#63b8ff" d="M404.0307,-61.0607C386.6381,-51.7487 364.0523,-39.6563 346.387,-30.1984"/>
<polygon fill="#63b8ff" stroke="#63b8ff" points="402.6268,-64.2791 413.0948,-65.9136 405.9309,-58.1079 402.6268,-64.2791"/>
</a>
</g>
</g>
<!-- Node5 -->
<g id="Node000005" class="node">
<title>Node5</title>
<g id="a_Node000005"><a xlink:href="potrLog_8c.html" target="_top" xlink:title="porter ロガー実装。">
<polygon fill="#ffffff" stroke="#666666" points="478.5,-30 383.5,-30 383.5,0 478.5,0 478.5,-30"/>
<text text-anchor="start" x="391.5" y="-18" font-family="Helvetica,sans-Serif" font-size="10.00" fill="#000000">porter/libsrc/porter</text>
<text text-anchor="middle" x="431" y="-7" font-family="Helvetica,sans-Serif" font-size="10.00" fill="#000000">/infra/potrLog.c</text>
</a>
</g>
</g>
<!-- Node1&#45;&gt;Node5 -->
<g id="edge4_Node000001_Node000005" class="edge">
<title>Node1&#45;&gt;Node5</title>
<g id="a_edge4_Node000001_Node000005"><a xlink:title=" ">
<path fill="none" stroke="#63b8ff" d="M431,-55.7788C431,-47.4451 431,-37.8934 431,-30.1301"/>
<polygon fill="#63b8ff" stroke="#63b8ff" points="427.5001,-55.7796 431,-65.7796 434.5001,-55.7797 427.5001,-55.7796"/>
</a>
</g>
</g>
<!-- Node6 -->
<g id="Node000006" class="node">
<title>Node6</title>
<g id="a_Node000006"><a xlink:href="potrHealthThread_8c.html" target="_top" xlink:title="ヘルスチェックスレッドモジュール。">
<polygon fill="#ffffff" stroke="#666666" points="629,-30 497,-30 497,0 629,0 629,-30"/>
<text text-anchor="start" x="505" y="-18" font-family="Helvetica,sans-Serif" font-size="10.00" fill="#000000">porter/libsrc/porter</text>
<text text-anchor="middle" x="563" y="-7" font-family="Helvetica,sans-Serif" font-size="10.00" fill="#000000">/thread/potrHealthThread.c</text>
</a>
</g>
</g>
<!-- Node1&#45;&gt;Node6 -->
<g id="edge5_Node000001_Node000006" class="edge">
<title>Node1&#45;&gt;Node6</title>
<g id="a_edge5_Node000001_Node000006"><a xlink:title=" ">
<path fill="none" stroke="#63b8ff" d="M461.1367,-61.6873C481.7088,-52.2585 508.9566,-39.7699 530.0944,-30.0817"/>
<polygon fill="#63b8ff" stroke="#63b8ff" points="459.5481,-58.5653 451.9158,-65.9136 462.4648,-64.9287 459.5481,-58.5653"/>
</a>
</g>
</g>
<!-- Node7 -->
<g id="Node000007" class="node">
<title>Node7</title>
<g id="a_Node000007"><a xlink:href="recv_8c.html" target="_top" xlink:title="受信テストコマンド。">
<polygon fill="#ffffff" stroke="#666666" points="756.5,-24.5 647.5,-24.5 647.5,-5.5 756.5,-5.5 756.5,-24.5"/>
<text text-anchor="middle" x="702" y="-12.5" font-family="Helvetica,sans-Serif" font-size="10.00" fill="#000000">porter/src/recv/recv.c</text>
</a>
</g>
</g>
<!-- Node1&#45;&gt;Node7 -->
<g id="edge6_Node000001_Node000007" class="edge">
<title>Node1&#45;&gt;Node7</title>
<g id="a_edge6_Node000001_Node000007"><a xlink:title=" ">
<path fill="none" stroke="#63b8ff" d="M485.423,-63.753C527.1966,-54.6841 586.288,-41.7427 638,-30 645.6789,-28.2563 653.8678,-26.3628 661.734,-24.527"/>
<polygon fill="#63b8ff" stroke="#63b8ff" points="484.488,-60.3743 475.4571,-65.9144 485.9717,-67.2152 484.488,-60.3743"/>
</a>
</g>
</g>
<!-- Node8 -->
<g id="Node000008" class="node">
<title>Node8</title>
<g id="a_Node000008"><a xlink:href="send_8c.html" target="_top" xlink:title="送信テストコマンド。">
<polygon fill="#ffffff" stroke="#666666" points="889,-24.5 775,-24.5 775,-5.5 889,-5.5 889,-24.5"/>
<text text-anchor="middle" x="832" y="-12.5" font-family="Helvetica,sans-Serif" font-size="10.00" fill="#000000">porter/src/send/send.c</text>
</a>
</g>
</g>
<!-- Node1&#45;&gt;Node8 -->
<g id="edge7_Node000001_Node000008" class="edge">
<title>Node1&#45;&gt;Node8</title>
<g id="a_edge7_Node000001_Node000008"><a xlink:title=" ">
<path fill="none" stroke="#63b8ff" d="M496.1641,-68.3799C563.8667,-60.5779 672.7504,-46.895 766,-30 774.6717,-28.4289 783.9272,-26.4908 792.68,-24.5358"/>
<polygon fill="#63b8ff" stroke="#63b8ff" points="495.6082,-64.9205 486.0708,-69.5345 496.4039,-71.8752 495.6082,-64.9205"/>
</a>
</g>
</g>
</g>
</svg>
