<?xml version="1.0" encoding="UTF-8" standalone="no"?>
<!DOCTYPE svg PUBLIC "-//W3C//DTD SVG 1.1//EN"
 "http://www.w3.org/Graphics/SVG/1.1/DTD/svg11.dtd">
<!-- Generated by graphviz version 2.40.1 (0)
 -->
<!-- Title: porter/include/porter.h Pages: 1 -->
<svg width="595pt" height="93pt"
 viewBox="0.00 0.00 594.50 93.00" xmlns="http://www.w3.org/2000/svg" xmlns:xlink="http://www.w3.org/1999/xlink">
<g id="graph0" class="graph" transform="scale(1 1) rotate(0) translate(4 89)">
<title>porter/include/porter.h</title>
<!-- Node1 -->
<g id="Node000001" class="node">
<title>Node1</title>
<g id="a_Node000001"><a xlink:title="通信ライブラリ (動的リンク用) のヘッダーファイル。">
<polygon fill="#999999" stroke="#666666" points="334.5,-85 224.5,-85 224.5,-66 334.5,-66 334.5,-85"/>
<text text-anchor="middle" x="279.5" y="-73" font-family="Helvetica,sans-Serif" font-size="10.00" fill="#000000">porter/include/porter.h</text>
</a>
</g>
</g>
<!-- Node2 -->
<g id="Node000002" class="node">
<title>Node2</title>
<g id="a_Node000002"><a xlink:href="potrClose_8c.html" target="_top" xlink:title="potrClose 関数の実装。">
<polygon fill="#ffffff" stroke="#666666" points="95,-30 0,-30 0,0 95,0 95,-30"/>
<text text-anchor="start" x="8" y="-18" font-family="Helvetica,sans-Serif" font-size="10.00" fill="#000000">porter/libsrc/porter</text>
<text text-anchor="middle" x="47.5" y="-7" font-family="Helvetica,sans-Serif" font-size="10.00" fill="#000000">/potrClose.c</text>
</a>
</g>
</g>
<!-- Node1&#45;&gt;Node2 -->
<g id="edge1_Node000001_Node000002" class="edge">
<title>Node1&#45;&gt;Node2</title>
<g id="a_edge1_Node000001_Node000002"><a xlink:title=" ">
<path fill="none" stroke="#63b8ff" d="M231.9914,-63.3376C196.5565,-54.237 146.9736,-41.4416 103.5,-30 100.7746,-29.2827 97.9755,-28.5429 95.1514,-27.7941"/>
<polygon fill="#63b8ff" stroke="#63b8ff" points="231.4957,-66.8237 242.0519,-65.9197 233.236,-60.0435 231.4957,-66.8237"/>
</a>
</g>
</g>
<!-- Node3 -->
<g id="Node000003" class="node">
<title>Node3</title>
<g id="a_Node000003"><a xlink:href="potrOpenService_8c.html" target="_top" xlink:title="potrOpenService 関数の実装。">
<polygon fill="#ffffff" stroke="#666666" points="214,-30 113,-30 113,0 214,0 214,-30"/>
<text text-anchor="start" x="121" y="-18" font-family="Helvetica,sans-Serif" font-size="10.00" fill="#000000">porter/libsrc/porter</text>
<text text-anchor="middle" x="163.5" y="-7" font-family="Helvetica,sans-Serif" font-size="10.00" fill="#000000">/potrOpenService.c</text>
</a>
</g>
</g>
<!-- Node1&#45;&gt;Node3 -->
<g id="edge2_Node000001_Node000003" class="edge">
<title>Node1&#45;&gt;Node3</title>
<g id="a_edge2_Node000001_Node000003"><a xlink:title=" ">
<path fill="none" stroke="#63b8ff" d="M251.8147,-61.0607C233.9603,-51.7487 210.775,-39.6563 192.6407,-30.1984"/>
<polygon fill="#63b8ff" stroke="#63b8ff" points="250.6344,-64.3925 261.1195,-65.9136 253.8715,-58.1859 250.6344,-64.3925"/>
</a>
</g>
</g>
<!-- Node4 -->
<g id="Node000004" class="node">
<title>Node4</title>
<g id="a_Node000004"><a xlink:href="potrSend_8c.html" target="_top" xlink:title="potrSend 関数の実装。">
<polygon fill="#ffffff" stroke="#666666" points="327,-30 232,-30 232,0 327,0 327,-30"/>
<text text-anchor="start" x="240" y="-18" font-family="Helvetica,sans-Serif" font-size="10.00" fill="#000000">porter/libsrc/porter</text>
<text text-anchor="middle" x="279.5" y="-7" font-family="Helvetica,sans-Serif" font-size="10.00" fill="#000000">/potrSend.c</text>
</a>
</g>
</g>
<!-- Node1&#45;&gt;Node4 -->
<g id="edge3_Node000001_Node000004" class="edge">
<title>Node1&#45;&gt;Node4</title>
<g id="a_edge3_Node000001_Node000004"><a xlink:title=" ">
<path fill="none" stroke="#63b8ff" d="M279.5,-55.7788C279.5,-47.4451 279.5,-37.8934 279.5,-30.1301"/>
<polygon fill="#63b8ff" stroke="#63b8ff" points="276.0001,-55.7796 279.5,-65.7796 283.0001,-55.7797 276.0001,-55.7796"/>
</a>
</g>
</g>
<!-- Node5 -->
<g id="Node000005" class="node">
<title>Node5</title>
<g id="a_Node000005"><a xlink:href="recv_8c.html" target="_top" xlink:title="受信テストコマンド。">
<polygon fill="#ffffff" stroke="#666666" points="454,-24.5 345,-24.5 345,-5.5 454,-5.5 454,-24.5"/>
<text text-anchor="middle" x="399.5" y="-12.5" font-family="Helvetica,sans-Serif" font-size="10.00" fill="#000000">porter/src/recv/recv.c</text>
</a>
</g>
</g>
<!-- Node1&#45;&gt;Node5 -->
<g id="edge4_Node000001_Node000005" class="edge">
<title>Node1&#45;&gt;Node5</title>
<g id="a_edge4_Node000001_Node000005"><a xlink:title=" ">
<path fill="none" stroke="#63b8ff" d="M307.5716,-61.3472C330.0439,-50.0175 360.9476,-34.4368 380.5746,-24.5416"/>
<polygon fill="#63b8ff" stroke="#63b8ff" points="305.868,-58.2864 298.5144,-65.9136 309.0194,-64.5369 305.868,-58.2864"/>
</a>
</g>
</g>
<!-- Node6 -->
<g id="Node000006" class="node">
<title>Node6</title>
<g id="a_Node000006"><a xlink:href="send_8c.html" target="_top" xlink:title="送信テストコマンド。">
<polygon fill="#ffffff" stroke="#666666" points="586.5,-24.5 472.5,-24.5 472.5,-5.5 586.5,-5.5 586.5,-24.5"/>
<text text-anchor="middle" x="529.5" y="-12.5" font-family="Helvetica,sans-Serif" font-size="10.00" fill="#000000">porter/src/send/send.c</text>
</a>
</g>
</g>
<!-- Node1&#45;&gt;Node6 -->
<g id="edge5_Node000001_Node000006" class="edge">
<title>Node1&#45;&gt;Node6</title>
<g id="a_edge5_Node000001_Node000006"><a xlink:title=" ">
<path fill="none" stroke="#63b8ff" d="M328.8376,-63.5603C376.0497,-52.135 446.3484,-35.1227 489.9795,-24.564"/>
<polygon fill="#63b8ff" stroke="#63b8ff" points="327.7337,-60.2263 318.8375,-65.9803 329.3802,-67.0299 327.7337,-60.2263"/>
</a>
</g>
</g>
</g>
</svg>
