<?xml version="1.0" encoding="UTF-8" standalone="no"?>
<!DOCTYPE svg PUBLIC "-//W3C//DTD SVG 1.1//EN"
 "http://www.w3.org/Graphics/SVG/1.1/DTD/svg11.dtd">
<!-- Generated by graphviz version 2.40.1 (0)
 -->
<!-- Title: potrCloseService Pages: 1 -->
<svg width="638pt" height="298pt"
 viewBox="0.00 0.00 638.00 298.00" xmlns="http://www.w3.org/2000/svg" xmlns:xlink="http://www.w3.org/1999/xlink">
<g id="graph0" class="graph" transform="scale(1 1) rotate(0) translate(4 294)">
<title>potrCloseService</title>
<!-- Node1 -->
<g id="Node000001" class="node">
<title>Node1</title>
<g id="a_Node000001"><a xlink:title="サービスを閉じます。">
<polygon fill="#999999" stroke="#666666" points="91,-157 0,-157 0,-138 91,-138 91,-157"/>
<text text-anchor="middle" x="45.5" y="-145" font-family="Helvetica,sans-Serif" font-size="10.00" fill="#000000">potrCloseService</text>
</a>
</g>
</g>
<!-- Node2 -->
<g id="Node000002" class="node">
<title>Node2</title>
<g id="a_Node000002"><a xlink:href="potrRecvThread_8c.html#a7c78b3cb3453065cd140eb118741ad45" target="_top" xlink:title="受信スレッドを停止します。">
<polygon fill="#ffffff" stroke="#666666" points="253,-290 129,-290 129,-271 253,-271 253,-290"/>
<text text-anchor="middle" x="191" y="-278" font-family="Helvetica,sans-Serif" font-size="10.00" fill="#000000">comm_recv_thread_stop</text>
</a>
</g>
</g>
<!-- Node1&#45;&gt;Node2 -->
<g id="edge1_Node000001_Node000002" class="edge">
<title>Node1&#45;&gt;Node2</title>
<g id="a_edge1_Node000001_Node000002"><a xlink:title=" ">
<path fill="none" stroke="#63b8ff" d="M49.6031,-157.2183C59.4858,-179.4257 86.8038,-234.1533 127,-262.5 129.1046,-263.9842 131.3286,-265.3464 133.6351,-266.5967"/>
<polygon fill="#63b8ff" stroke="#63b8ff" points="132.3189,-269.8445 142.8625,-270.8848 135.269,-263.4964 132.3189,-269.8445"/>
</a>
</g>
</g>
<!-- Node3 -->
<g id="Node000003" class="node">
<title>Node3</title>
<g id="a_Node000003"><a xlink:href="potrIpAddr_8c.html#a3cec4d9d1cf322295151f0f4319db29e" target="_top" xlink:title=" ">
<polygon fill="#ffffff" stroke="#666666" points="235,-253 147,-253 147,-234 235,-234 235,-253"/>
<text text-anchor="middle" x="191" y="-241" font-family="Helvetica,sans-Serif" font-size="10.00" fill="#000000">parse_ipv4_addr</text>
</a>
</g>
</g>
<!-- Node1&#45;&gt;Node3 -->
<g id="edge2_Node000001_Node000003" class="edge">
<title>Node1&#45;&gt;Node3</title>
<g id="a_edge2_Node000001_Node000003"><a xlink:title=" ">
<path fill="none" stroke="#63b8ff" d="M52.9281,-157.2221C66.0598,-173.7349 95.0251,-207.2427 127,-225.5 130.2482,-227.3547 133.6996,-229.0282 137.2507,-230.5368"/>
<polygon fill="#63b8ff" stroke="#63b8ff" points="136.2209,-233.8893 146.8124,-234.1558 138.6988,-227.3425 136.2209,-233.8893"/>
</a>
</g>
</g>
<!-- Node4 -->
<g id="Node000004" class="node">
<title>Node4</title>
<g id="a_Node000004"><a xlink:href="potrHealthThread_8c.html#a9085235a42bd376127ac3853c9796c21" target="_top" xlink:title="ヘルスチェックスレッドを停止します。">
<polygon fill="#ffffff" stroke="#666666" points="251.5,-216 130.5,-216 130.5,-197 251.5,-197 251.5,-216"/>
<text text-anchor="middle" x="191" y="-204" font-family="Helvetica,sans-Serif" font-size="10.00" fill="#000000">potr_health_thread_stop</text>
</a>
</g>
</g>
<!-- Node1&#45;&gt;Node4 -->
<g id="edge3_Node000001_Node000004" class="edge">
<title>Node1&#45;&gt;Node4</title>
<g id="a_edge3_Node000001_Node000004"><a xlink:title=" ">
<path fill="none" stroke="#63b8ff" d="M62.2372,-157.1166C78.4161,-166.122 103.817,-179.5046 127,-188.5 132.044,-190.4572 137.3866,-192.3011 142.7494,-194.0076"/>
<polygon fill="#63b8ff" stroke="#63b8ff" points="141.7784,-197.3705 152.3639,-196.9258 143.8115,-190.6722 141.7784,-197.3705"/>
</a>
</g>
</g>
<!-- Node5 -->
<g id="Node000005" class="node">
<title>Node5</title>
<g id="a_Node000005"><a xlink:href="potrSendQueue_8c.html#ab6e0398d27a36e07a7c892494e2a9531" target="_top" xlink:title=" ">
<polygon fill="#ffffff" stroke="#666666" points="255,-179 127,-179 127,-160 255,-160 255,-179"/>
<text text-anchor="middle" x="191" y="-167" font-family="Helvetica,sans-Serif" font-size="10.00" fill="#000000">potr_send_queue_destroy</text>
</a>
</g>
</g>
<!-- Node1&#45;&gt;Node5 -->
<g id="edge4_Node000001_Node000005" class="edge">
<title>Node1&#45;&gt;Node5</title>
<g id="a_edge4_Node000001_Node000005"><a xlink:title=" ">
<path fill="none" stroke="#63b8ff" d="M91.1379,-154.4006C99.7064,-155.6961 108.8604,-157.0803 118.0192,-158.4651"/>
<polygon fill="#63b8ff" stroke="#63b8ff" points="117.5211,-161.9295 127.932,-159.9639 118.5677,-155.0082 117.5211,-161.9295"/>
</a>
</g>
</g>
<!-- Node6 -->
<g id="Node000006" class="node">
<title>Node6</title>
<g id="a_Node000006"><a xlink:href="potrSendQueue_8c.html#afff20ee110f71f775687505b8dda79f2" target="_top" xlink:title=" ">
<polygon fill="#ffffff" stroke="#666666" points="247.5,-141.5 134.5,-141.5 134.5,-111.5 247.5,-111.5 247.5,-141.5"/>
<text text-anchor="start" x="142.5" y="-129.5" font-family="Helvetica,sans-Serif" font-size="10.00" fill="#000000">potr_send_queue_wait</text>
<text text-anchor="middle" x="191" y="-118.5" font-family="Helvetica,sans-Serif" font-size="10.00" fill="#000000">_drained</text>
</a>
</g>
</g>
<!-- Node1&#45;&gt;Node6 -->
<g id="edge5_Node000001_Node000006" class="edge">
<title>Node1&#45;&gt;Node6</title>
<g id="a_edge5_Node000001_Node000006"><a xlink:title=" ">
<path fill="none" stroke="#63b8ff" d="M91.1379,-140.9131C101.6024,-139.4028 112.9402,-137.7664 124.0936,-136.1566"/>
<polygon fill="#63b8ff" stroke="#63b8ff" points="124.8569,-139.5828 134.2544,-134.6901 123.8569,-132.6546 124.8569,-139.5828"/>
</a>
</g>
</g>
<!-- Node7 -->
<g id="Node000007" class="node">
<title>Node7</title>
<g id="a_Node000007"><a xlink:href="potrSendThread_8c.html#ae7190d12d6dc1dddf97b338b417628d2" target="_top" xlink:title=" ">
<polygon fill="#ffffff" stroke="#666666" points="249,-93 133,-93 133,-74 249,-74 249,-93"/>
<text text-anchor="middle" x="191" y="-81" font-family="Helvetica,sans-Serif" font-size="10.00" fill="#000000">potr_send_thread_stop</text>
</a>
</g>
</g>
<!-- Node1&#45;&gt;Node7 -->
<g id="edge6_Node000001_Node000007" class="edge">
<title>Node1&#45;&gt;Node7</title>
<g id="a_edge6_Node000001_Node000007"><a xlink:title=" ">
<path fill="none" stroke="#63b8ff" d="M60.6265,-137.8445C76.6265,-127.947 102.8479,-112.6129 127,-102.5 132.4792,-100.2058 138.3295,-98.0686 144.1828,-96.1177"/>
<polygon fill="#63b8ff" stroke="#63b8ff" points="145.4962,-99.3731 153.9714,-93.0152 143.3812,-92.7002 145.4962,-99.3731"/>
</a>
</g>
</g>
<!-- Node9 -->
<g id="Node000009" class="node">
<title>Node9</title>
<g id="a_Node000009"><a xlink:href="potrCloseService_8c.html#ad8dcefd0034dccd341e783b0bb242a5c" target="_top" xlink:title=" ">
<polygon fill="#ffffff" stroke="#666666" points="217.5,-56 164.5,-56 164.5,-37 217.5,-37 217.5,-56"/>
<text text-anchor="middle" x="191" y="-44" font-family="Helvetica,sans-Serif" font-size="10.00" fill="#000000">send_fin</text>
</a>
</g>
</g>
<!-- Node1&#45;&gt;Node9 -->
<g id="edge8_Node000001_Node000009" class="edge">
<title>Node1&#45;&gt;Node9</title>
<g id="a_edge8_Node000001_Node000009"><a xlink:title=" ">
<path fill="none" stroke="#63b8ff" d="M52.4299,-137.8594C65.2255,-120.754 94.2614,-85.0588 127,-65.5 135.33,-60.5235 145.0563,-56.7699 154.3748,-53.9716"/>
<polygon fill="#63b8ff" stroke="#63b8ff" points="155.5048,-57.2916 164.2409,-51.2974 153.6735,-50.5354 155.5048,-57.2916"/>
</a>
</g>
</g>
<!-- Node14 -->
<g id="Node000014" class="node">
<title>Node14</title>
<g id="a_Node000014"><a xlink:href="window_8c.html#a4e7e88f824efef8f1e6c7fcd82e1b350" target="_top" xlink:title="ウィンドウが保持する動的確保バッファを解放します。">
<polygon fill="#ffffff" stroke="#666666" points="234,-19 148,-19 148,0 234,0 234,-19"/>
<text text-anchor="middle" x="191" y="-7" font-family="Helvetica,sans-Serif" font-size="10.00" fill="#000000">window_destroy</text>
</a>
</g>
</g>
<!-- Node1&#45;&gt;Node14 -->
<g id="edge13_Node000001_Node000014" class="edge">
<title>Node1&#45;&gt;Node14</title>
<g id="a_edge13_Node000001_Node000014"><a xlink:title=" ">
<path fill="none" stroke="#63b8ff" d="M49.3912,-137.824C59.0068,-115.154 86.1118,-58.2772 127,-28.5 130.4783,-25.9669 134.2937,-23.7689 138.2754,-21.8621"/>
<polygon fill="#63b8ff" stroke="#63b8ff" points="139.8886,-24.9823 147.787,-17.9207 137.2088,-18.5155 139.8886,-24.9823"/>
</a>
</g>
</g>
<!-- Node8 -->
<g id="Node000008" class="node">
<title>Node8</title>
<g id="a_Node000008"><a xlink:href="potrSendQueue_8c.html#a943096663ca82e553e28f0fbe6ea42f5" target="_top" xlink:title=" ">
<polygon fill="#ffffff" stroke="#666666" points="428,-93 291,-93 291,-74 428,-74 428,-93"/>
<text text-anchor="middle" x="359.5" y="-81" font-family="Helvetica,sans-Serif" font-size="10.00" fill="#000000">potr_send_queue_shutdown</text>
</a>
</g>
</g>
<!-- Node7&#45;&gt;Node8 -->
<g id="edge7_Node000007_Node000008" class="edge">
<title>Node7&#45;&gt;Node8</title>
<g id="a_edge7_Node000007_Node000008"><a xlink:title=" ">
<path fill="none" stroke="#63b8ff" d="M249.4602,-83.5C259.5447,-83.5 270.1747,-83.5 280.6912,-83.5"/>
<polygon fill="#63b8ff" stroke="#63b8ff" points="280.7178,-87.0001 290.7178,-83.5 280.7177,-80.0001 280.7178,-87.0001"/>
</a>
</g>
</g>
<!-- Node10 -->
<g id="Node000010" class="node">
<title>Node10</title>
<g id="a_Node000010"><a xlink:href="packet_8c.html#a062c5f9f3ce1273c5ac873ed39537537" target="_top" xlink:title="正常終了通知 (FIN) パケットを構築します。">
<polygon fill="#ffffff" stroke="#666666" points="403,-56 316,-56 316,-37 403,-37 403,-56"/>
<text text-anchor="middle" x="359.5" y="-44" font-family="Helvetica,sans-Serif" font-size="10.00" fill="#000000">packet_build_fin</text>
</a>
</g>
</g>
<!-- Node9&#45;&gt;Node10 -->
<g id="edge9_Node000009_Node000010" class="edge">
<title>Node9&#45;&gt;Node10</title>
<g id="a_edge9_Node000009_Node000010"><a xlink:title=" ">
<path fill="none" stroke="#63b8ff" d="M217.6993,-46.5C241.2743,-46.5 276.3655,-46.5 305.7403,-46.5"/>
<polygon fill="#63b8ff" stroke="#63b8ff" points="305.864,-50.0001 315.8639,-46.5 305.8639,-43.0001 305.864,-50.0001"/>
</a>
</g>
</g>
<!-- Node13 -->
<g id="Node000013" class="node">
<title>Node13</title>
<g id="a_Node000013"><a xlink:href="packet_8c.html#aee7ebc74dbbe67fa4c9bcdced8dca70c" target="_top" xlink:title="パケットのヘッダー + ペイロードの合計バイト数を返します。">
<polygon fill="#ffffff" stroke="#666666" points="405.5,-19 313.5,-19 313.5,0 405.5,0 405.5,-19"/>
<text text-anchor="middle" x="359.5" y="-7" font-family="Helvetica,sans-Serif" font-size="10.00" fill="#000000">packet_wire_size</text>
</a>
</g>
</g>
<!-- Node9&#45;&gt;Node13 -->
<g id="edge12_Node000009_Node000013" class="edge">
<title>Node9&#45;&gt;Node13</title>
<g id="a_edge12_Node000009_Node000013"><a xlink:title=" ">
<path fill="none" stroke="#63b8ff" d="M217.6993,-40.6372C241.3573,-35.4423 276.6127,-27.7008 306.0504,-21.2367"/>
<polygon fill="#63b8ff" stroke="#63b8ff" points="307.1751,-24.5732 316.1917,-19.0098 305.6737,-17.7361 307.1751,-24.5732"/>
</a>
</g>
</g>
<!-- Node11 -->
<g id="Node000011" class="node">
<title>Node11</title>
<g id="a_Node000011"><a xlink:href="packet_8c.html#a479088cf3b9ccf5ebe8891ad2881b196" target="_top" xlink:title=" ">
<polygon fill="#ffffff" stroke="#666666" points="548,-56 464,-56 464,-37 548,-37 548,-56"/>
<text text-anchor="middle" x="506" y="-44" font-family="Helvetica,sans-Serif" font-size="10.00" fill="#000000">fill_session_hdr</text>
</a>
</g>
</g>
<!-- Node10&#45;&gt;Node11 -->
<g id="edge10_Node000010_Node000011" class="edge">
<title>Node10&#45;&gt;Node11</title>
<g id="a_edge10_Node000010_Node000011"><a xlink:title=" ">
<path fill="none" stroke="#63b8ff" d="M403.0582,-46.5C418.9834,-46.5 437.1625,-46.5 453.7675,-46.5"/>
<polygon fill="#63b8ff" stroke="#63b8ff" points="453.8687,-50.0001 463.8687,-46.5 453.8687,-43.0001 453.8687,-50.0001"/>
</a>
</g>
</g>
<!-- Node12 -->
<g id="Node000012" class="node">
<title>Node12</title>
<g id="a_Node000012"><a xlink:href="packet_8c.html#a6564ae80f665edd6931ef662818e19b0" target="_top" xlink:title=" ">
<polygon fill="#ffffff" stroke="#666666" points="630,-56 584,-56 584,-37 630,-37 630,-56"/>
<text text-anchor="middle" x="607" y="-44" font-family="Helvetica,sans-Serif" font-size="10.00" fill="#000000">hton64</text>
</a>
</g>
</g>
<!-- Node11&#45;&gt;Node12 -->
<g id="edge11_Node000011_Node000012" class="edge">
<title>Node11&#45;&gt;Node12</title>
<g id="a_edge11_Node000011_Node000012"><a xlink:title=" ">
<path fill="none" stroke="#63b8ff" d="M548.2479,-46.5C556.7423,-46.5 565.5568,-46.5 573.6948,-46.5"/>
<polygon fill="#63b8ff" stroke="#63b8ff" points="573.9196,-50.0001 583.9196,-46.5 573.9195,-43.0001 573.9196,-50.0001"/>
</a>
</g>
</g>
</g>
</svg>
