<?xml version="1.0" encoding="UTF-8" standalone="no"?>
<!DOCTYPE svg PUBLIC "-//W3C//DTD SVG 1.1//EN"
 "http://www.w3.org/Graphics/SVG/1.1/DTD/svg11.dtd">
<!-- Generated by graphviz version 2.40.1 (0)
 -->
<!-- Title: porter/include/porter_type.h Pages: 1 -->
<svg width="1659pt" height="302pt"
 viewBox="0.00 0.00 1659.00 302.00" xmlns="http://www.w3.org/2000/svg" xmlns:xlink="http://www.w3.org/1999/xlink">
<g id="graph0" class="graph" transform="scale(1 1) rotate(0) translate(4 298)">
<title>porter/include/porter_type.h</title>
<!-- Node1 -->
<g id="Node000001" class="node">
<title>Node1</title>
<g id="a_Node000001"><a xlink:title="通信ライブラリの型定義ファイル。">
<polygon fill="#999999" stroke="#666666" points="742,-294 639,-294 639,-264 742,-264 742,-294"/>
<text text-anchor="start" x="647" y="-282" font-family="Helvetica,sans-Serif" font-size="10.00" fill="#000000">porter/include/porter</text>
<text text-anchor="middle" x="690.5" y="-271" font-family="Helvetica,sans-Serif" font-size="10.00" fill="#000000">_type.h</text>
</a>
</g>
</g>
<!-- Node2 -->
<g id="Node000002" class="node">
<title>Node2</title>
<g id="a_Node000002"><a xlink:href="porter_8h.html" target="_top" xlink:title="通信ライブラリ (動的リンク用) のヘッダーファイル。">
<polygon fill="#ffffff" stroke="#666666" points="388.5,-90.5 278.5,-90.5 278.5,-71.5 388.5,-71.5 388.5,-90.5"/>
<text text-anchor="middle" x="333.5" y="-78.5" font-family="Helvetica,sans-Serif" font-size="10.00" fill="#000000">porter/include/porter.h</text>
</a>
</g>
</g>
<!-- Node1&#45;&gt;Node2 -->
<g id="edge1_Node000001_Node000002" class="edge">
<title>Node1&#45;&gt;Node2</title>
<g id="a_edge1_Node000001_Node000002"><a xlink:title=" ">
<path fill="none" stroke="#63b8ff" d="M645.6515,-259.7189C625.2237,-250.6002 600.8835,-239.2594 579.5,-228 489.2534,-180.481 385.7947,-114.8028 348.1546,-90.5201"/>
<polygon fill="#63b8ff" stroke="#63b8ff" points="644.4746,-263.0256 655.0353,-263.875 647.3093,-256.6252 644.4746,-263.0256"/>
</a>
</g>
</g>
<!-- Node10 -->
<g id="Node000010" class="node">
<title>Node10</title>
<g id="a_Node000010"><a xlink:href="potrLog_8h.html" target="_top" xlink:title="porter 内部ログマクロ定義ヘッダー。">
<polygon fill="#ffffff" stroke="#666666" points="502,-96 407,-96 407,-66 502,-66 502,-96"/>
<text text-anchor="start" x="415" y="-84" font-family="Helvetica,sans-Serif" font-size="10.00" fill="#000000">porter/libsrc/porter</text>
<text text-anchor="middle" x="454.5" y="-73" font-family="Helvetica,sans-Serif" font-size="10.00" fill="#000000">/infra/potrLog.h</text>
</a>
</g>
</g>
<!-- Node1&#45;&gt;Node10 -->
<g id="edge9_Node000001_Node000010" class="edge">
<title>Node1&#45;&gt;Node10</title>
<g id="a_edge9_Node000001_Node000010"><a xlink:title=" ">
<path fill="none" stroke="#63b8ff" d="M662.2075,-257.6156C650.2343,-248.5266 636.155,-237.7871 623.5,-228 585.9427,-198.9539 575.3932,-193.079 539.5,-162 514.0731,-139.9835 486.1123,-112.6986 469.4468,-96.0827"/>
<polygon fill="#63b8ff" stroke="#63b8ff" points="660.4199,-260.6525 670.5032,-263.9049 664.6489,-255.0743 660.4199,-260.6525"/>
</a>
</g>
</g>
<!-- Node11 -->
<g id="Node000011" class="node">
<title>Node11</title>
<g id="a_Node000011"><a xlink:href="config_8c.html" target="_top" xlink:title="設定ファイル (INI 形式) 解析モジュール。">
<polygon fill="#ffffff" stroke="#666666" points="95,-30 0,-30 0,0 95,0 95,-30"/>
<text text-anchor="start" x="8" y="-18" font-family="Helvetica,sans-Serif" font-size="10.00" fill="#000000">porter/libsrc/porter</text>
<text text-anchor="middle" x="47.5" y="-7" font-family="Helvetica,sans-Serif" font-size="10.00" fill="#000000">/protocol/config.c</text>
</a>
</g>
</g>
<!-- Node1&#45;&gt;Node11 -->
<g id="edge44_Node000001_Node000011" class="edge">
<title>Node1&#45;&gt;Node11</title>
<g id="a_edge44_Node000001_Node000011"><a xlink:title=" ">
<path fill="none" stroke="#63b8ff" d="M628.5653,-269.5868C576.0939,-260.9296 499.1422,-246.6205 433.5,-228 271.9583,-182.1761 199.3761,-213.581 79.5,-96 61.1496,-78.0009 53.0595,-48.1876 49.6949,-30.188"/>
<polygon fill="#63b8ff" stroke="#63b8ff" points="628.2897,-273.088 638.7226,-271.2425 629.416,-266.1792 628.2897,-273.088"/>
</a>
</g>
</g>
<!-- Node14 -->
<g id="Node000014" class="node">
<title>Node14</title>
<g id="a_Node000014"><a xlink:href="potrSendQueue_8h.html" target="_top" xlink:title="非同期送信キューの型定義と操作関数。">
<polygon fill="#ffffff" stroke="#666666" points="749,-228 632,-228 632,-198 749,-198 749,-228"/>
<text text-anchor="start" x="640" y="-216" font-family="Helvetica,sans-Serif" font-size="10.00" fill="#000000">porter/libsrc/porter</text>
<text text-anchor="middle" x="690.5" y="-205" font-family="Helvetica,sans-Serif" font-size="10.00" fill="#000000">/infra/potrSendQueue.h</text>
</a>
</g>
</g>
<!-- Node1&#45;&gt;Node14 -->
<g id="edge18_Node000001_Node000014" class="edge">
<title>Node1&#45;&gt;Node14</title>
<g id="a_edge18_Node000001_Node000014"><a xlink:title=" ">
<path fill="none" stroke="#63b8ff" d="M690.5,-253.4546C690.5,-244.9317 690.5,-235.7088 690.5,-228.2246"/>
<polygon fill="#63b8ff" stroke="#63b8ff" points="687.0001,-253.6923 690.5,-263.6924 694.0001,-253.6924 687.0001,-253.6923"/>
</a>
</g>
</g>
<!-- Node16 -->
<g id="Node000016" class="node">
<title>Node16</title>
<g id="a_Node000016"><a xlink:href="potrContext_8h.html" target="_top" xlink:title="セッションコンテキスト内部定義ヘッダー。">
<polygon fill="#ffffff" stroke="#666666" points="899,-162 804,-162 804,-132 899,-132 899,-162"/>
<text text-anchor="start" x="812" y="-150" font-family="Helvetica,sans-Serif" font-size="10.00" fill="#000000">porter/libsrc/porter</text>
<text text-anchor="middle" x="851.5" y="-139" font-family="Helvetica,sans-Serif" font-size="10.00" fill="#000000">/potrContext.h</text>
</a>
</g>
</g>
<!-- Node1&#45;&gt;Node16 -->
<g id="edge43_Node000001_Node000016" class="edge">
<title>Node1&#45;&gt;Node16</title>
<g id="a_edge43_Node000001_Node000016"><a xlink:title=" ">
<path fill="none" stroke="#63b8ff" d="M719.413,-258.0392C731.6297,-248.9972 745.914,-238.1782 758.5,-228 785.9701,-205.7851 816.6636,-178.5575 835.0137,-162.0074"/>
<polygon fill="#63b8ff" stroke="#63b8ff" points="717.312,-255.2397 711.3318,-263.9855 721.4607,-260.8779 717.312,-255.2397"/>
</a>
</g>
</g>
<!-- Node20 -->
<g id="Node000020" class="node">
<title>Node20</title>
<g id="a_Node000020"><a xlink:href="config_8h.html" target="_top" xlink:title="設定ファイル解析モジュールの内部ヘッダー。">
<polygon fill="#ffffff" stroke="#666666" points="184,-96 89,-96 89,-66 184,-66 184,-96"/>
<text text-anchor="start" x="97" y="-84" font-family="Helvetica,sans-Serif" font-size="10.00" fill="#000000">porter/libsrc/porter</text>
<text text-anchor="middle" x="136.5" y="-73" font-family="Helvetica,sans-Serif" font-size="10.00" fill="#000000">/protocol/config.h</text>
</a>
</g>
</g>
<!-- Node1&#45;&gt;Node20 -->
<g id="edge45_Node000001_Node000020" class="edge">
<title>Node1&#45;&gt;Node20</title>
<g id="a_edge45_Node000001_Node000020"><a xlink:title=" ">
<path fill="none" stroke="#63b8ff" d="M629.0485,-261.7575C596.5857,-252.349 556.1821,-240.1634 520.5,-228 391.2786,-183.9506 240.8163,-123.6745 172.9703,-96.0012"/>
<polygon fill="#63b8ff" stroke="#63b8ff" points="628.2759,-265.1772 638.8542,-264.5851 630.2155,-258.4513 628.2759,-265.1772"/>
</a>
</g>
</g>
<!-- Node21 -->
<g id="Node000021" class="node">
<title>Node21</title>
<g id="a_Node000021"><a xlink:href="packet_8c.html" target="_top" xlink:title="パケット構築・解析モジュール。">
<polygon fill="#ffffff" stroke="#666666" points="1651,-30 1556,-30 1556,0 1651,0 1651,-30"/>
<text text-anchor="start" x="1564" y="-18" font-family="Helvetica,sans-Serif" font-size="10.00" fill="#000000">porter/libsrc/porter</text>
<text text-anchor="middle" x="1603.5" y="-7" font-family="Helvetica,sans-Serif" font-size="10.00" fill="#000000">/protocol/packet.c</text>
</a>
</g>
</g>
<!-- Node1&#45;&gt;Node21 -->
<g id="edge48_Node000001_Node000021" class="edge">
<title>Node1&#45;&gt;Node21</title>
<g id="a_edge48_Node000001_Node000021"><a xlink:title=" ">
<path fill="none" stroke="#63b8ff" d="M752.3703,-276.2951C894.1156,-269.7644 1238.8731,-251.8928 1352.5,-228 1439.1598,-209.7777 1475.8119,-222.4766 1540.5,-162 1579.8481,-125.2136 1595.7389,-59.7625 1601.128,-30.2173"/>
<polygon fill="#63b8ff" stroke="#63b8ff" points="751.9466,-272.8107 742.117,-276.764 752.2664,-279.8034 751.9466,-272.8107"/>
</a>
</g>
</g>
<!-- Node22 -->
<g id="Node000022" class="node">
<title>Node22</title>
<g id="a_Node000022"><a xlink:href="packet_8h.html" target="_top" xlink:title="パケット構築・解析モジュールの内部ヘッダー。">
<polygon fill="#ffffff" stroke="#666666" points="1361,-96 1266,-96 1266,-66 1361,-66 1361,-96"/>
<text text-anchor="start" x="1274" y="-84" font-family="Helvetica,sans-Serif" font-size="10.00" fill="#000000">porter/libsrc/porter</text>
<text text-anchor="middle" x="1313.5" y="-73" font-family="Helvetica,sans-Serif" font-size="10.00" fill="#000000">/protocol/packet.h</text>
</a>
</g>
</g>
<!-- Node1&#45;&gt;Node22 -->
<g id="edge49_Node000001_Node000022" class="edge">
<title>Node1&#45;&gt;Node22</title>
<g id="a_edge49_Node000001_Node000022"><a xlink:title=" ">
<path fill="none" stroke="#63b8ff" d="M752.3504,-274.9923C936.7061,-262.4149 1472.7802,-221.0205 1522.5,-162 1569.3839,-106.3459 1436.2542,-88.7786 1361.0829,-83.3518"/>
<polygon fill="#63b8ff" stroke="#63b8ff" points="752.0178,-271.5068 742.2772,-275.6747 752.491,-278.4907 752.0178,-271.5068"/>
</a>
</g>
</g>
<!-- Node23 -->
<g id="Node000023" class="node">
<title>Node23</title>
<g id="a_Node000023"><a xlink:href="window_8h.html" target="_top" xlink:title="スライディングウィンドウ管理モジュールの内部ヘッダー。">
<polygon fill="#ffffff" stroke="#666666" points="1130.5,-228 1034.5,-228 1034.5,-198 1130.5,-198 1130.5,-228"/>
<text text-anchor="start" x="1042.5" y="-216" font-family="Helvetica,sans-Serif" font-size="10.00" fill="#000000">porter/libsrc/porter</text>
<text text-anchor="middle" x="1082.5" y="-205" font-family="Helvetica,sans-Serif" font-size="10.00" fill="#000000">/protocol/window.h</text>
</a>
</g>
</g>
<!-- Node1&#45;&gt;Node23 -->
<g id="edge56_Node000001_Node000023" class="edge">
<title>Node1&#45;&gt;Node23</title>
<g id="a_edge56_Node000001_Node000023"><a xlink:title=" ">
<path fill="none" stroke="#63b8ff" d="M752.3379,-268.5885C830.5098,-255.4269 963.4255,-233.0483 1034.4277,-221.0938"/>
<polygon fill="#63b8ff" stroke="#63b8ff" points="751.4303,-265.192 742.1503,-270.3038 752.5926,-272.0948 751.4303,-265.192"/>
</a>
</g>
</g>
<!-- Node3 -->
<g id="Node000003" class="node">
<title>Node3</title>
<g id="a_Node000003"><a xlink:href="potrCloseService_8c.html" target="_top" xlink:title=" ">
<polygon fill="#ffffff" stroke="#666666" points="1001.5,-30 883.5,-30 883.5,0 1001.5,0 1001.5,-30"/>
<text text-anchor="start" x="891.5" y="-18" font-family="Helvetica,sans-Serif" font-size="10.00" fill="#000000">porter/libsrc/porter</text>
<text text-anchor="middle" x="942.5" y="-7" font-family="Helvetica,sans-Serif" font-size="10.00" fill="#000000">/api/potrCloseService.c</text>
</a>
</g>
</g>
<!-- Node2&#45;&gt;Node3 -->
<g id="edge2_Node000002_Node000003" class="edge">
<title>Node2&#45;&gt;Node3</title>
<g id="a_edge2_Node000002_Node000003"><a xlink:title=" ">
<path fill="none" stroke="#63b8ff" d="M379.7386,-69.2709C385.6882,-68.0249 391.7194,-66.8901 397.5,-66 607.6267,-33.646 664.1658,-60.9762 874.5,-30 877.3705,-29.5773 880.3004,-29.1019 883.2534,-28.5876"/>
<polygon fill="#63b8ff" stroke="#63b8ff" points="378.8729,-65.8776 369.8613,-71.4491 380.3804,-72.7134 378.8729,-65.8776"/>
</a>
</g>
</g>
<!-- Node4 -->
<g id="Node000004" class="node">
<title>Node4</title>
<g id="a_Node000004"><a xlink:href="potrOpenService_8c.html" target="_top" xlink:title="potrOpenService 関数の実装。">
<polygon fill="#ffffff" stroke="#666666" points="715.5,-30 599.5,-30 599.5,0 715.5,0 715.5,-30"/>
<text text-anchor="start" x="607.5" y="-18" font-family="Helvetica,sans-Serif" font-size="10.00" fill="#000000">porter/libsrc/porter</text>
<text text-anchor="middle" x="657.5" y="-7" font-family="Helvetica,sans-Serif" font-size="10.00" fill="#000000">/api/potrOpenService.c</text>
</a>
</g>
</g>
<!-- Node2&#45;&gt;Node4 -->
<g id="edge3_Node000002_Node000004" class="edge">
<title>Node2&#45;&gt;Node4</title>
<g id="a_edge3_Node000002_Node000004"><a xlink:title=" ">
<path fill="none" stroke="#63b8ff" d="M383.0099,-69.1592C387.8992,-68.0611 392.7921,-66.9903 397.5,-66 482.8888,-48.0396 505.0227,-47.5345 590.5,-30 593.4192,-29.4012 596.4072,-28.7762 599.4227,-28.136"/>
<polygon fill="#63b8ff" stroke="#63b8ff" points="382.0102,-65.7973 373.0395,-71.4343 383.5676,-72.6219 382.0102,-65.7973"/>
</a>
</g>
</g>
<!-- Node5 -->
<g id="Node000005" class="node">
<title>Node5</title>
<g id="a_Node000005"><a xlink:href="potrSend_8c.html" target="_top" xlink:title="potrSend 関数の実装。">
<polygon fill="#ffffff" stroke="#666666" points="208,-30 113,-30 113,0 208,0 208,-30"/>
<text text-anchor="start" x="121" y="-18" font-family="Helvetica,sans-Serif" font-size="10.00" fill="#000000">porter/libsrc/porter</text>
<text text-anchor="middle" x="160.5" y="-7" font-family="Helvetica,sans-Serif" font-size="10.00" fill="#000000">/api/potrSend.c</text>
</a>
</g>
</g>
<!-- Node2&#45;&gt;Node5 -->
<g id="edge4_Node000002_Node000005" class="edge">
<title>Node2&#45;&gt;Node5</title>
<g id="a_edge4_Node000002_Node000005"><a xlink:title=" ">
<path fill="none" stroke="#63b8ff" d="M298.7905,-67.7582C270.2746,-56.8793 229.8733,-41.4661 200.099,-30.1071"/>
<polygon fill="#63b8ff" stroke="#63b8ff" points="297.7536,-71.1086 308.3443,-71.403 300.2487,-64.5684 297.7536,-71.1086"/>
</a>
</g>
</g>
<!-- Node6 -->
<g id="Node000006" class="node">
<title>Node6</title>
<g id="a_Node000006"><a xlink:href="potrLog_8c.html" target="_top" xlink:title="porter ロガー実装。">
<polygon fill="#ffffff" stroke="#666666" points="581,-30 486,-30 486,0 581,0 581,-30"/>
<text text-anchor="start" x="494" y="-18" font-family="Helvetica,sans-Serif" font-size="10.00" fill="#000000">porter/libsrc/porter</text>
<text text-anchor="middle" x="533.5" y="-7" font-family="Helvetica,sans-Serif" font-size="10.00" fill="#000000">/infra/potrLog.c</text>
</a>
</g>
</g>
<!-- Node2&#45;&gt;Node6 -->
<g id="edge5_Node000002_Node000006" class="edge">
<title>Node2&#45;&gt;Node6</title>
<g id="a_edge5_Node000002_Node000006"><a xlink:title=" ">
<path fill="none" stroke="#63b8ff" d="M372.3381,-68.1834C405.3671,-57.2838 452.8487,-41.6149 487.7208,-30.1071"/>
<polygon fill="#63b8ff" stroke="#63b8ff" points="370.9812,-64.9455 362.5817,-71.403 373.1749,-71.5929 370.9812,-64.9455"/>
</a>
</g>
</g>
<!-- Node7 -->
<g id="Node000007" class="node">
<title>Node7</title>
<g id="a_Node000007"><a xlink:href="potrHealthThread_8c.html" target="_top" xlink:title="ヘルスチェックスレッドモジュール。">
<polygon fill="#ffffff" stroke="#666666" points="865.5,-30 733.5,-30 733.5,0 865.5,0 865.5,-30"/>
<text text-anchor="start" x="741.5" y="-18" font-family="Helvetica,sans-Serif" font-size="10.00" fill="#000000">porter/libsrc/porter</text>
<text text-anchor="middle" x="799.5" y="-7" font-family="Helvetica,sans-Serif" font-size="10.00" fill="#000000">/thread/potrHealthThread.c</text>
</a>
</g>
</g>
<!-- Node2&#45;&gt;Node7 -->
<g id="edge6_Node000002_Node000007" class="edge">
<title>Node2&#45;&gt;Node7</title>
<g id="a_edge6_Node000002_Node000007"><a xlink:title=" ">
<path fill="none" stroke="#63b8ff" d="M380.8577,-69.2283C386.4474,-68.0385 392.087,-66.9288 397.5,-66 541.6054,-41.273 580.0083,-52.3587 724.5,-30 727.387,-29.5533 730.3316,-29.0725 733.3027,-28.567"/>
<polygon fill="#63b8ff" stroke="#63b8ff" points="379.9149,-65.8522 370.9099,-71.4345 381.4306,-72.6862 379.9149,-65.8522"/>
</a>
</g>
</g>
<!-- Node8 -->
<g id="Node000008" class="node">
<title>Node8</title>
<g id="a_Node000008"><a xlink:href="recv_8c.html" target="_top" xlink:title="受信テストコマンド。">
<polygon fill="#ffffff" stroke="#666666" points="468,-24.5 359,-24.5 359,-5.5 468,-5.5 468,-24.5"/>
<text text-anchor="middle" x="413.5" y="-12.5" font-family="Helvetica,sans-Serif" font-size="10.00" fill="#000000">porter/src/recv/recv.c</text>
</a>
</g>
</g>
<!-- Node2&#45;&gt;Node8 -->
<g id="edge7_Node000002_Node000008" class="edge">
<title>Node2&#45;&gt;Node8</title>
<g id="a_edge7_Node000002_Node000008"><a xlink:title=" ">
<path fill="none" stroke="#63b8ff" d="M353.1609,-64.7797C368.4569,-52.1606 389.1594,-35.081 401.9074,-24.5639"/>
<polygon fill="#63b8ff" stroke="#63b8ff" points="350.7907,-62.1978 345.3043,-71.2615 355.2454,-67.5974 350.7907,-62.1978"/>
</a>
</g>
</g>
<!-- Node9 -->
<g id="Node000009" class="node">
<title>Node9</title>
<g id="a_Node000009"><a xlink:href="send_8c.html" target="_top" xlink:title="送信テストコマンド。">
<polygon fill="#ffffff" stroke="#666666" points="340.5,-24.5 226.5,-24.5 226.5,-5.5 340.5,-5.5 340.5,-24.5"/>
<text text-anchor="middle" x="283.5" y="-12.5" font-family="Helvetica,sans-Serif" font-size="10.00" fill="#000000">porter/src/send/send.c</text>
</a>
</g>
</g>
<!-- Node2&#45;&gt;Node9 -->
<g id="edge8_Node000002_Node000009" class="edge">
<title>Node2&#45;&gt;Node9</title>
<g id="a_edge8_Node000002_Node000009"><a xlink:title=" ">
<path fill="none" stroke="#63b8ff" d="M319.9023,-63.0511C310.5648,-50.7256 298.5266,-34.8352 290.9079,-24.7785"/>
<polygon fill="#63b8ff" stroke="#63b8ff" points="317.2939,-65.404 326.1223,-71.2615 322.8735,-61.177 317.2939,-65.404"/>
</a>
</g>
</g>
<!-- Node10&#45;&gt;Node3 -->
<g id="edge10_Node000010_Node000003" class="edge">
<title>Node10&#45;&gt;Node3</title>
<g id="a_edge10_Node000010_Node000003"><a xlink:title=" ">
<path fill="none" stroke="#63b8ff" d="M512.2939,-75.7595C593.5062,-67.9922 745.8691,-51.9445 874.5,-30 877.3601,-29.5121 880.2816,-28.9838 883.2279,-28.427"/>
<polygon fill="#63b8ff" stroke="#63b8ff" points="511.8961,-72.2814 502.2715,-76.7105 512.5574,-79.2501 511.8961,-72.2814"/>
</a>
</g>
</g>
<!-- Node10&#45;&gt;Node4 -->
<g id="edge11_Node000010_Node000004" class="edge">
<title>Node10&#45;&gt;Node4</title>
<g id="a_edge11_Node000010_Node000004"><a xlink:title=" ">
<path fill="none" stroke="#63b8ff" d="M510.3753,-62.8337C542.0028,-52.5508 581.0936,-39.8415 611.0301,-30.1084"/>
<polygon fill="#63b8ff" stroke="#63b8ff" points="509.2457,-59.5205 500.8179,-65.941 511.41,-66.1775 509.2457,-59.5205"/>
</a>
</g>
</g>
<!-- Node10&#45;&gt;Node5 -->
<g id="edge12_Node000010_Node000005" class="edge">
<title>Node10&#45;&gt;Node5</title>
<g id="a_edge12_Node000010_Node000005"><a xlink:title=" ">
<path fill="none" stroke="#63b8ff" d="M396.8465,-65.939C316.2831,-47.642 293.8799,-47.6712 217.5,-30 214.4095,-29.285 211.2316,-28.5232 208.0329,-27.7364"/>
<polygon fill="#63b8ff" stroke="#63b8ff" points="396.4374,-69.4361 406.9671,-68.2636 398.0044,-62.6138 396.4374,-69.4361"/>
</a>
</g>
</g>
<!-- Node10&#45;&gt;Node6 -->
<g id="edge13_Node000010_Node000006" class="edge">
<title>Node10&#45;&gt;Node6</title>
<g id="a_edge13_Node000010_Node000006"><a xlink:title=" ">
<path fill="none" stroke="#63b8ff" d="M480.7175,-59.0967C492.0461,-49.6324 505.0242,-38.7899 515.2766,-30.2246"/>
<polygon fill="#63b8ff" stroke="#63b8ff" points="478.253,-56.595 472.8228,-65.6924 482.741,-61.9669 478.253,-56.595"/>
</a>
</g>
</g>
<!-- Node10&#45;&gt;Node7 -->
<g id="edge15_Node000010_Node000007" class="edge">
<title>Node10&#45;&gt;Node7</title>
<g id="a_edge15_Node000010_Node000007"><a xlink:title=" ">
<path fill="none" stroke="#63b8ff" d="M512.1827,-70.2893C566.873,-60.0904 651.3219,-44.2286 724.5,-30 727.3676,-29.4424 730.2962,-28.8699 733.2542,-28.2891"/>
<polygon fill="#63b8ff" stroke="#63b8ff" points="511.5161,-66.8532 502.3266,-72.1261 512.7985,-73.7347 511.5161,-66.8532"/>
</a>
</g>
</g>
<!-- Node10&#45;&gt;Node11 -->
<g id="edge14_Node000010_Node000011" class="edge">
<title>Node10&#45;&gt;Node11</title>
<g id="a_edge14_Node000010_Node000011"><a xlink:title=" ">
<path fill="none" stroke="#63b8ff" d="M396.7512,-66.036C266.4274,-41.8475 229.5742,-54.4791 103.5,-30 100.7335,-29.4628 97.9022,-28.8637 95.0535,-28.2227"/>
<polygon fill="#63b8ff" stroke="#63b8ff" points="396.2372,-69.5008 406.7137,-67.9223 397.5395,-62.623 396.2372,-69.5008"/>
</a>
</g>
</g>
<!-- Node12 -->
<g id="Node000012" class="node">
<title>Node12</title>
<g id="a_Node000012"><a xlink:href="potrRecvThread_8c.html" target="_top" xlink:title="受信スレッドモジュール。">
<polygon fill="#ffffff" stroke="#666666" points="1377,-30 1250,-30 1250,0 1377,0 1377,-30"/>
<text text-anchor="start" x="1258" y="-18" font-family="Helvetica,sans-Serif" font-size="10.00" fill="#000000">porter/libsrc/porter</text>
<text text-anchor="middle" x="1313.5" y="-7" font-family="Helvetica,sans-Serif" font-size="10.00" fill="#000000">/thread/potrRecvThread.c</text>
</a>
</g>
</g>
<!-- Node10&#45;&gt;Node12 -->
<g id="edge16_Node000010_Node000012" class="edge">
<title>Node10&#45;&gt;Node12</title>
<g id="a_edge16_Node000010_Node000012"><a xlink:title=" ">
<path fill="none" stroke="#63b8ff" d="M512.0081,-75.7605C545.177,-72.7874 587.6779,-69.0606 625.5,-66 855.3102,-47.4038 1128.5257,-27.9374 1249.9266,-19.4245"/>
<polygon fill="#63b8ff" stroke="#63b8ff" points="511.6758,-72.2762 502.0294,-76.6575 512.3026,-79.2481 511.6758,-72.2762"/>
</a>
</g>
</g>
<!-- Node13 -->
<g id="Node000013" class="node">
<title>Node13</title>
<g id="a_Node000013"><a xlink:href="potrSendThread_8c.html" target="_top" xlink:title="非同期送信スレッドの実装。">
<polygon fill="#ffffff" stroke="#666666" points="1525,-30 1398,-30 1398,0 1525,0 1525,-30"/>
<text text-anchor="start" x="1406" y="-18" font-family="Helvetica,sans-Serif" font-size="10.00" fill="#000000">porter/libsrc/porter</text>
<text text-anchor="middle" x="1461.5" y="-7" font-family="Helvetica,sans-Serif" font-size="10.00" fill="#000000">/thread/potrSendThread.c</text>
</a>
</g>
</g>
<!-- Node10&#45;&gt;Node13 -->
<g id="edge17_Node000010_Node000013" class="edge">
<title>Node10&#45;&gt;Node13</title>
<g id="a_edge17_Node000010_Node000013"><a xlink:title=" ">
<path fill="none" stroke="#63b8ff" d="M511.9796,-75.3773C545.1393,-72.2791 587.6404,-68.555 625.5,-66 963.332,-43.2013 1050.43,-71.3189 1386.5,-30 1390.1902,-29.5463 1393.9705,-29.0124 1397.7768,-28.4213"/>
<polygon fill="#63b8ff" stroke="#63b8ff" points="511.6318,-71.8945 502.0041,-76.3168 512.2882,-78.8637 511.6318,-71.8945"/>
</a>
</g>
</g>
<!-- Node14&#45;&gt;Node3 -->
<g id="edge19_Node000014_Node000003" class="edge">
<title>Node14&#45;&gt;Node3</title>
<g id="a_edge19_Node000014_Node000003"><a xlink:title=" ">
<path fill="none" stroke="#63b8ff" d="M717.8595,-191.5032C769.1485,-151.2048 878.5804,-65.2226 923.0785,-30.2598"/>
<polygon fill="#63b8ff" stroke="#63b8ff" points="715.5564,-188.8617 709.8556,-197.792 719.8812,-194.3659 715.5564,-188.8617"/>
</a>
</g>
</g>
<!-- Node14&#45;&gt;Node4 -->
<g id="edge20_Node000014_Node000004" class="edge">
<title>Node14&#45;&gt;Node4</title>
<g id="a_edge20_Node000014_Node000004"><a xlink:title=" ">
<path fill="none" stroke="#63b8ff" d="M621.838,-195.9841C590.9606,-186.8085 559.4349,-174.7642 550.5,-162 541.0917,-148.5596 539.9038,-87.9998 554.5,-66 565.5868,-49.2897 583.8428,-37.8396 601.9305,-30.0949"/>
<polygon fill="#63b8ff" stroke="#63b8ff" points="621.2326,-199.452 631.8109,-198.8596 623.172,-192.726 621.2326,-199.452"/>
</a>
</g>
</g>
<!-- Node14&#45;&gt;Node5 -->
<g id="edge21_Node000014_Node000005" class="edge">
<title>Node14&#45;&gt;Node5</title>
<g id="a_edge21_Node000014_Node000005"><a xlink:title=" ">
<path fill="none" stroke="#63b8ff" d="M621.5064,-209.0907C525.9099,-200.8333 350.9046,-175.222 226.5,-96 200.1829,-79.241 179.4359,-48.4372 168.6542,-30.0266"/>
<polygon fill="#63b8ff" stroke="#63b8ff" points="621.3797,-212.5921 631.6336,-209.926 621.9552,-205.6158 621.3797,-212.5921"/>
</a>
</g>
</g>
<!-- Node14&#45;&gt;Node13 -->
<g id="edge42_Node000014_Node000013" class="edge">
<title>Node14&#45;&gt;Node13</title>
<g id="a_edge42_Node000014_Node000013"><a xlink:title=" ">
<path fill="none" stroke="#63b8ff" d="M759.3829,-209.7414C920.1425,-200.9265 1314.4093,-171.9476 1419.5,-96 1441.5827,-80.0412 1452.9512,-48.9623 1458.0343,-30.285"/>
<polygon fill="#63b8ff" stroke="#63b8ff" points="758.9345,-206.2604 749.1372,-210.2931 759.311,-213.2502 758.9345,-206.2604"/>
</a>
</g>
</g>
<!-- Node15 -->
<g id="Node000015" class="node">
<title>Node15</title>
<g id="a_Node000015"><a xlink:href="potrSendQueue_8c.html" target="_top" xlink:title="非同期送信キューの実装。">
<polygon fill="#ffffff" stroke="#666666" points="676,-162 559,-162 559,-132 676,-132 676,-162"/>
<text text-anchor="start" x="567" y="-150" font-family="Helvetica,sans-Serif" font-size="10.00" fill="#000000">porter/libsrc/porter</text>
<text text-anchor="middle" x="617.5" y="-139" font-family="Helvetica,sans-Serif" font-size="10.00" fill="#000000">/infra/potrSendQueue.c</text>
</a>
</g>
</g>
<!-- Node14&#45;&gt;Node15 -->
<g id="edge22_Node000014_Node000015" class="edge">
<title>Node14&#45;&gt;Node15</title>
<g id="a_edge22_Node000014_Node000015"><a xlink:title=" ">
<path fill="none" stroke="#63b8ff" d="M665.9683,-190.8207C655.5729,-181.4221 643.7211,-170.7067 634.3393,-162.2246"/>
<polygon fill="#63b8ff" stroke="#63b8ff" points="663.8038,-193.5821 673.5688,-197.6924 668.4983,-188.3897 663.8038,-193.5821"/>
</a>
</g>
</g>
<!-- Node14&#45;&gt;Node16 -->
<g id="edge23_Node000014_Node000016" class="edge">
<title>Node14&#45;&gt;Node16</title>
<g id="a_edge23_Node000014_Node000016"><a xlink:title=" ">
<path fill="none" stroke="#63b8ff" d="M736.9746,-193.9483C761.6932,-183.8152 791.6572,-171.5318 814.7352,-162.0713"/>
<polygon fill="#63b8ff" stroke="#63b8ff" points="735.3618,-190.8267 727.4367,-197.8583 738.017,-197.3036 735.3618,-190.8267"/>
</a>
</g>
</g>
<!-- Node16&#45;&gt;Node3 -->
<g id="edge24_Node000016_Node000003" class="edge">
<title>Node16&#45;&gt;Node3</title>
<g id="a_edge24_Node000016_Node000003"><a xlink:title=" ">
<path fill="none" stroke="#63b8ff" d="M867.7631,-123.4096C886.3167,-96.4967 916.1212,-53.2638 931.9026,-30.3721"/>
<polygon fill="#63b8ff" stroke="#63b8ff" points="864.7332,-121.6382 861.9389,-131.8579 870.4964,-125.6113 864.7332,-121.6382"/>
</a>
</g>
</g>
<!-- Node16&#45;&gt;Node4 -->
<g id="edge25_Node000016_Node000004" class="edge">
<title>Node16&#45;&gt;Node4</title>
<g id="a_edge25_Node000016_Node000004"><a xlink:title=" ">
<path fill="none" stroke="#63b8ff" d="M793.6822,-142.0409C733.8194,-135.5666 646.1865,-121.8748 625.5,-96 609.6379,-76.1595 628.376,-47.4759 643.1329,-30.1003"/>
<polygon fill="#63b8ff" stroke="#63b8ff" points="793.4654,-145.5372 803.7744,-143.0931 794.1913,-138.5749 793.4654,-145.5372"/>
</a>
</g>
</g>
<!-- Node16&#45;&gt;Node5 -->
<g id="edge26_Node000016_Node000005" class="edge">
<title>Node16&#45;&gt;Node5</title>
<g id="a_edge26_Node000016_Node000005"><a xlink:title=" ">
<path fill="none" stroke="#63b8ff" d="M793.8675,-141.7381C761.9359,-138.8364 721.5231,-135.1862 685.5,-132 593.0709,-123.8247 356.2531,-128.9221 269.5,-96 264.4302,-94.076 210.3386,-53.073 180.3132,-30.161"/>
<polygon fill="#63b8ff" stroke="#63b8ff" points="793.6446,-145.2322 803.9205,-142.6524 794.2786,-138.261 793.6446,-145.2322"/>
</a>
</g>
</g>
<!-- Node16&#45;&gt;Node7 -->
<g id="edge27_Node000016_Node000007" class="edge">
<title>Node16&#45;&gt;Node7</title>
<g id="a_edge27_Node000016_Node000007"><a xlink:title=" ">
<path fill="none" stroke="#63b8ff" d="M841.7887,-122.3482C831.1618,-95.3723 814.456,-52.9652 805.5557,-30.3721"/>
<polygon fill="#63b8ff" stroke="#63b8ff" points="838.6132,-123.8367 845.5349,-131.8579 845.1261,-121.271 838.6132,-123.8367"/>
</a>
</g>
</g>
<!-- Node16&#45;&gt;Node12 -->
<g id="edge32_Node000016_Node000012" class="edge">
<title>Node16&#45;&gt;Node12</title>
<g id="a_edge32_Node000016_Node000012"><a xlink:title=" ">
<path fill="none" stroke="#63b8ff" d="M909.2046,-145.6064C1037.9885,-141.9003 1339.972,-129.6749 1370.5,-96 1389.6716,-74.8522 1360.0132,-47.0723 1336.79,-30.1533"/>
<polygon fill="#63b8ff" stroke="#63b8ff" points="909.0295,-142.1098 899.1316,-145.889 909.2259,-149.1071 909.0295,-142.1098"/>
</a>
</g>
</g>
<!-- Node16&#45;&gt;Node13 -->
<g id="edge37_Node000016_Node000013" class="edge">
<title>Node16&#45;&gt;Node13</title>
<g id="a_edge37_Node000016_Node000013"><a xlink:title=" ">
<path fill="none" stroke="#63b8ff" d="M909.1639,-143.8587C1038.8427,-136.4597 1345.4558,-116.9721 1387.5,-96 1417.1577,-81.2064 1440.6856,-49.1029 1452.7153,-30.0544"/>
<polygon fill="#63b8ff" stroke="#63b8ff" points="908.8123,-140.3729 899.0263,-144.4331 909.2083,-147.3617 908.8123,-140.3729"/>
</a>
</g>
</g>
<!-- Node17 -->
<g id="Node000017" class="node">
<title>Node17</title>
<g id="a_Node000017"><a xlink:href="potrHealthThread_8h.html" target="_top" xlink:title="ヘルスチェックスレッド内部ヘッダー。">
<polygon fill="#ffffff" stroke="#666666" points="766.5,-96 634.5,-96 634.5,-66 766.5,-66 766.5,-96"/>
<text text-anchor="start" x="642.5" y="-84" font-family="Helvetica,sans-Serif" font-size="10.00" fill="#000000">porter/libsrc/porter</text>
<text text-anchor="middle" x="700.5" y="-73" font-family="Helvetica,sans-Serif" font-size="10.00" fill="#000000">/thread/potrHealthThread.h</text>
</a>
</g>
</g>
<!-- Node16&#45;&gt;Node17 -->
<g id="edge28_Node000016_Node000017" class="edge">
<title>Node16&#45;&gt;Node17</title>
<g id="a_edge28_Node000016_Node000017"><a xlink:title=" ">
<path fill="none" stroke="#63b8ff" d="M807.604,-127.8136C784.4802,-117.7066 756.5301,-105.49 734.9813,-96.0713"/>
<polygon fill="#63b8ff" stroke="#63b8ff" points="806.2928,-131.0602 816.8575,-131.8583 809.0963,-124.6462 806.2928,-131.0602"/>
</a>
</g>
</g>
<!-- Node18 -->
<g id="Node000018" class="node">
<title>Node18</title>
<g id="a_Node000018"><a xlink:href="potrRecvThread_8h.html" target="_top" xlink:title="受信スレッド内部ヘッダー。">
<polygon fill="#ffffff" stroke="#666666" points="1064,-96 937,-96 937,-66 1064,-66 1064,-96"/>
<text text-anchor="start" x="945" y="-84" font-family="Helvetica,sans-Serif" font-size="10.00" fill="#000000">porter/libsrc/porter</text>
<text text-anchor="middle" x="1000.5" y="-73" font-family="Helvetica,sans-Serif" font-size="10.00" fill="#000000">/thread/potrRecvThread.h</text>
</a>
</g>
</g>
<!-- Node16&#45;&gt;Node18 -->
<g id="edge33_Node000016_Node000018" class="edge">
<title>Node16&#45;&gt;Node18</title>
<g id="a_edge33_Node000016_Node000018"><a xlink:title=" ">
<path fill="none" stroke="#63b8ff" d="M895.1192,-127.6788C917.8771,-117.598 945.3065,-105.4481 966.4755,-96.0713"/>
<polygon fill="#63b8ff" stroke="#63b8ff" points="893.4093,-124.6081 885.6836,-131.8583 896.2443,-131.0083 893.4093,-124.6081"/>
</a>
</g>
</g>
<!-- Node19 -->
<g id="Node000019" class="node">
<title>Node19</title>
<g id="a_Node000019"><a xlink:href="potrSendThread_8h.html" target="_top" xlink:title="非同期送信スレッドの内部ヘッダー。">
<polygon fill="#ffffff" stroke="#666666" points="1209,-96 1082,-96 1082,-66 1209,-66 1209,-96"/>
<text text-anchor="start" x="1090" y="-84" font-family="Helvetica,sans-Serif" font-size="10.00" fill="#000000">porter/libsrc/porter</text>
<text text-anchor="middle" x="1145.5" y="-73" font-family="Helvetica,sans-Serif" font-size="10.00" fill="#000000">/thread/potrSendThread.h</text>
</a>
</g>
</g>
<!-- Node16&#45;&gt;Node19 -->
<g id="edge38_Node000016_Node000019" class="edge">
<title>Node16&#45;&gt;Node19</title>
<g id="a_edge38_Node000016_Node000019"><a xlink:title=" ">
<path fill="none" stroke="#63b8ff" d="M909.0042,-134.0909C958.6879,-122.9374 1030.3917,-106.8406 1081.8029,-95.2993"/>
<polygon fill="#63b8ff" stroke="#63b8ff" points="908.0534,-130.7171 899.0629,-136.3226 909.5868,-137.5472 908.0534,-130.7171"/>
</a>
</g>
</g>
<!-- Node17&#45;&gt;Node3 -->
<g id="edge29_Node000017_Node000003" class="edge">
<title>Node17&#45;&gt;Node3</title>
<g id="a_edge29_Node000017_Node000003"><a xlink:title=" ">
<path fill="none" stroke="#63b8ff" d="M765.6518,-63.2313C803.6066,-52.88 850.953,-39.9674 887.1024,-30.1084"/>
<polygon fill="#63b8ff" stroke="#63b8ff" points="764.4431,-59.9331 755.7164,-65.941 766.2849,-66.6864 764.4431,-59.9331"/>
</a>
</g>
</g>
<!-- Node17&#45;&gt;Node4 -->
<g id="edge30_Node000017_Node000004" class="edge">
<title>Node17&#45;&gt;Node4</title>
<g id="a_edge30_Node000017_Node000004"><a xlink:title=" ">
<path fill="none" stroke="#63b8ff" d="M684.9608,-57.1492C679.1102,-48.1692 672.6202,-38.2078 667.4191,-30.2246"/>
<polygon fill="#63b8ff" stroke="#63b8ff" points="682.1355,-59.2243 690.5269,-65.6924 688.0005,-55.4031 682.1355,-59.2243"/>
</a>
</g>
</g>
<!-- Node17&#45;&gt;Node7 -->
<g id="edge31_Node000017_Node000007" class="edge">
<title>Node17&#45;&gt;Node7</title>
<g id="a_edge31_Node000017_Node000007"><a xlink:title=" ">
<path fill="none" stroke="#63b8ff" d="M732.1198,-59.9201C746.6011,-50.2659 763.441,-39.0394 776.6631,-30.2246"/>
<polygon fill="#63b8ff" stroke="#63b8ff" points="729.8405,-57.2332 723.4614,-65.6924 733.7234,-63.0575 729.8405,-57.2332"/>
</a>
</g>
</g>
<!-- Node18&#45;&gt;Node3 -->
<g id="edge34_Node000018_Node000003" class="edge">
<title>Node18&#45;&gt;Node3</title>
<g id="a_edge34_Node000018_Node000003"><a xlink:title=" ">
<path fill="none" stroke="#63b8ff" d="M980.2774,-57.9881C972.1975,-48.7937 963.114,-38.4573 955.8792,-30.2246"/>
<polygon fill="#63b8ff" stroke="#63b8ff" points="977.8176,-60.4911 987.0479,-65.6924 983.0758,-55.8703 977.8176,-60.4911"/>
</a>
</g>
</g>
<!-- Node18&#45;&gt;Node4 -->
<g id="edge35_Node000018_Node000004" class="edge">
<title>Node18&#45;&gt;Node4</title>
<g id="a_edge35_Node000018_Node000004"><a xlink:title=" ">
<path fill="none" stroke="#63b8ff" d="M926.662,-68.1324C870.9926,-58.2428 792.816,-43.954 724.5,-30 721.5803,-29.4036 718.5919,-28.7807 715.5761,-28.1421"/>
<polygon fill="#63b8ff" stroke="#63b8ff" points="926.33,-71.628 936.7873,-69.9267 927.5515,-64.7354 926.33,-71.628"/>
</a>
</g>
</g>
<!-- Node18&#45;&gt;Node12 -->
<g id="edge36_Node000018_Node000012" class="edge">
<title>Node18&#45;&gt;Node12</title>
<g id="a_edge36_Node000018_Node000012"><a xlink:title=" ">
<path fill="none" stroke="#63b8ff" d="M1074.2999,-65.4384C1127.6595,-54.1868 1199.0156,-39.1405 1249.8717,-28.4168"/>
<polygon fill="#63b8ff" stroke="#63b8ff" points="1073.2802,-62.0763 1064.2175,-67.5644 1074.7245,-68.9257 1073.2802,-62.0763"/>
</a>
</g>
</g>
<!-- Node19&#45;&gt;Node3 -->
<g id="edge39_Node000019_Node000003" class="edge">
<title>Node19&#45;&gt;Node3</title>
<g id="a_edge39_Node000019_Node000003"><a xlink:title=" ">
<path fill="none" stroke="#63b8ff" d="M1089.6247,-62.8337C1057.9972,-52.5508 1018.9064,-39.8415 988.9699,-30.1084"/>
<polygon fill="#63b8ff" stroke="#63b8ff" points="1088.59,-66.1775 1099.1821,-65.941 1090.7543,-59.5205 1088.59,-66.1775"/>
</a>
</g>
</g>
<!-- Node19&#45;&gt;Node4 -->
<g id="edge40_Node000019_Node000004" class="edge">
<title>Node19&#45;&gt;Node4</title>
<g id="a_edge40_Node000019_Node000004"><a xlink:title=" ">
<path fill="none" stroke="#63b8ff" d="M1071.6506,-65.8139C917.5993,-42.6082 875.098,-54.5381 724.5,-30 721.5588,-29.5208 718.5531,-28.9921 715.5236,-28.4282"/>
<polygon fill="#63b8ff" stroke="#63b8ff" points="1071.5465,-69.3387 1081.9614,-67.394 1072.6069,-62.4195 1071.5465,-69.3387"/>
</a>
</g>
</g>
<!-- Node19&#45;&gt;Node13 -->
<g id="edge41_Node000019_Node000013" class="edge">
<title>Node19&#45;&gt;Node13</title>
<g id="a_edge41_Node000019_Node000013"><a xlink:title=" ">
<path fill="none" stroke="#63b8ff" d="M1218.9516,-65.6588C1273.1093,-54.3474 1346.0536,-39.1122 1397.764,-28.3119"/>
<polygon fill="#63b8ff" stroke="#63b8ff" points="1218.1404,-62.2527 1209.0672,-67.7233 1219.5716,-69.1048 1218.1404,-62.2527"/>
</a>
</g>
</g>
<!-- Node20&#45;&gt;Node4 -->
<g id="edge46_Node000020_Node000004" class="edge">
<title>Node20&#45;&gt;Node4</title>
<g id="a_edge46_Node000020_Node000004"><a xlink:title=" ">
<path fill="none" stroke="#63b8ff" d="M194.2996,-74.4733C217.6526,-71.8384 244.8597,-68.7712 269.5,-66 412.1617,-49.9555 448.9116,-53.717 590.5,-30 593.439,-29.5077 596.443,-28.9685 599.4712,-28.3962"/>
<polygon fill="#63b8ff" stroke="#63b8ff" points="193.7507,-71.0129 184.2062,-75.6123 194.5357,-77.9688 193.7507,-71.0129"/>
</a>
</g>
</g>
<!-- Node20&#45;&gt;Node11 -->
<g id="edge47_Node000020_Node000011" class="edge">
<title>Node20&#45;&gt;Node11</title>
<g id="a_edge47_Node000020_Node000011"><a xlink:title=" ">
<path fill="none" stroke="#63b8ff" d="M107.7051,-59.6465C94.7702,-50.0543 79.8046,-38.9562 68.0301,-30.2246"/>
<polygon fill="#63b8ff" stroke="#63b8ff" points="105.7407,-62.5471 115.8579,-65.6924 109.9103,-56.9244 105.7407,-62.5471"/>
</a>
</g>
</g>
<!-- Node22&#45;&gt;Node3 -->
<g id="edge50_Node000022_Node000003" class="edge">
<title>Node22&#45;&gt;Node3</title>
<g id="a_edge50_Node000022_Node000003"><a xlink:title=" ">
<path fill="none" stroke="#63b8ff" d="M1255.9223,-66.9178C1254.4344,-66.6029 1252.9583,-66.2963 1251.5,-66 1165.0489,-48.4328 1064.0595,-32.6473 1001.6867,-23.4416"/>
<polygon fill="#63b8ff" stroke="#63b8ff" points="1255.334,-70.3719 1265.8519,-69.0968 1256.8346,-63.5346 1255.334,-70.3719"/>
</a>
</g>
</g>
<!-- Node22&#45;&gt;Node4 -->
<g id="edge51_Node000022_Node000004" class="edge">
<title>Node22&#45;&gt;Node4</title>
<g id="a_edge51_Node000022_Node000004"><a xlink:title=" ">
<path fill="none" stroke="#63b8ff" d="M1255.6584,-71.0749C1243.4152,-69.1966 1230.552,-67.3881 1218.5,-66 999.8081,-40.8112 942.2798,-62.1344 724.5,-30 721.5519,-29.565 718.5407,-29.0719 715.5068,-28.5362"/>
<polygon fill="#63b8ff" stroke="#63b8ff" points="1255.3436,-74.5683 1265.7654,-72.6615 1256.4292,-67.653 1255.3436,-74.5683"/>
</a>
</g>
</g>
<!-- Node22&#45;&gt;Node7 -->
<g id="edge53_Node000022_Node000007" class="edge">
<title>Node22&#45;&gt;Node7</title>
<g id="a_edge53_Node000022_Node000007"><a xlink:title=" ">
<path fill="none" stroke="#63b8ff" d="M1255.6224,-71.367C1243.3818,-69.4684 1230.5286,-67.5779 1218.5,-66 1066.082,-46.0056 1026.4785,-53.0989 874.5,-30 871.6119,-29.561 868.6662,-29.0867 865.6943,-28.5864"/>
<polygon fill="#63b8ff" stroke="#63b8ff" points="1255.3066,-74.8603 1265.729,-72.957 1256.3945,-67.9453 1255.3066,-74.8603"/>
</a>
</g>
</g>
<!-- Node22&#45;&gt;Node12 -->
<g id="edge54_Node000022_Node000012" class="edge">
<title>Node22&#45;&gt;Node12</title>
<g id="a_edge54_Node000022_Node000012"><a xlink:title=" ">
<path fill="none" stroke="#63b8ff" d="M1313.5,-55.4546C1313.5,-46.9317 1313.5,-37.7088 1313.5,-30.2246"/>
<polygon fill="#63b8ff" stroke="#63b8ff" points="1310.0001,-55.6923 1313.5,-65.6924 1317.0001,-55.6924 1310.0001,-55.6923"/>
</a>
</g>
</g>
<!-- Node22&#45;&gt;Node13 -->
<g id="edge55_Node000022_Node000013" class="edge">
<title>Node22&#45;&gt;Node13</title>
<g id="a_edge55_Node000022_Node000013"><a xlink:title=" ">
<path fill="none" stroke="#63b8ff" d="M1356.8264,-61.6788C1379.4317,-51.598 1406.6769,-39.4481 1427.7038,-30.0713"/>
<polygon fill="#63b8ff" stroke="#63b8ff" points="1355.1617,-58.5888 1347.4542,-65.8583 1358.0127,-64.9819 1355.1617,-58.5888"/>
</a>
</g>
</g>
<!-- Node22&#45;&gt;Node21 -->
<g id="edge52_Node000022_Node000021" class="edge">
<title>Node22&#45;&gt;Node21</title>
<g id="a_edge52_Node000022_Node000021"><a xlink:title=" ">
<path fill="none" stroke="#63b8ff" d="M1370.8553,-67.9467C1424.9949,-55.6253 1505.2247,-37.3661 1555.9112,-25.8306"/>
<polygon fill="#63b8ff" stroke="#63b8ff" points="1370.0368,-64.5434 1361.0629,-70.1753 1371.5903,-71.3689 1370.0368,-64.5434"/>
</a>
</g>
</g>
<!-- Node23&#45;&gt;Node3 -->
<g id="edge57_Node000023_Node000003" class="edge">
<title>Node23&#45;&gt;Node3</title>
<g id="a_edge57_Node000023_Node000003"><a xlink:title=" ">
<path fill="none" stroke="#63b8ff" d="M1124.3845,-193.2728C1177.5577,-165.6122 1257.9179,-113.3689 1218.5,-66 1191.4613,-33.5072 1074.2993,-21.6319 1001.5929,-17.3524"/>
<polygon fill="#63b8ff" stroke="#63b8ff" points="1122.7789,-190.1627 1115.4575,-197.8209 1125.9567,-196.3999 1122.7789,-190.1627"/>
</a>
</g>
</g>
<!-- Node23&#45;&gt;Node4 -->
<g id="edge58_Node000023_Node000004" class="edge">
<title>Node23&#45;&gt;Node4</title>
<g id="a_edge58_Node000023_Node000004"><a xlink:title=" ">
<path fill="none" stroke="#63b8ff" d="M1024.3096,-205.6854C965.8641,-197.6343 873.5275,-182.9879 795.5,-162 774.8283,-156.4397 626.773,-113.5387 614.5,-96 599.4385,-74.4764 621.6553,-47.049 639.3532,-30.2695"/>
<polygon fill="#63b8ff" stroke="#63b8ff" points="1024.08,-209.1863 1034.4601,-207.0642 1025.0223,-202.25 1024.08,-209.1863"/>
</a>
</g>
</g>
<!-- Node23&#45;&gt;Node7 -->
<g id="edge61_Node000023_Node000007" class="edge">
<title>Node23&#45;&gt;Node7</title>
<g id="a_edge61_Node000023_Node000007"><a xlink:title=" ">
<path fill="none" stroke="#63b8ff" d="M1052.484,-191.9994C995.1913,-151.9148 871.4888,-65.3667 821.3107,-30.2598"/>
<polygon fill="#63b8ff" stroke="#63b8ff" points="1050.5632,-194.9271 1060.7634,-197.792 1054.5761,-189.1915 1050.5632,-194.9271"/>
</a>
</g>
</g>
<!-- Node23&#45;&gt;Node12 -->
<g id="edge62_Node000023_Node000012" class="edge">
<title>Node23&#45;&gt;Node12</title>
<g id="a_edge62_Node000023_Node000012"><a xlink:title=" ">
<path fill="none" stroke="#63b8ff" d="M1140.7548,-198.9965C1220.9466,-178.4054 1358.7307,-137.8495 1387.5,-96 1395.0533,-85.0125 1393.7006,-77.8039 1387.5,-66 1379.2282,-50.2532 1363.6491,-38.4174 1348.911,-30.1321"/>
<polygon fill="#63b8ff" stroke="#63b8ff" points="1139.6245,-195.6724 1130.7945,-201.5275 1141.3485,-202.4568 1139.6245,-195.6724"/>
</a>
</g>
</g>
<!-- Node23&#45;&gt;Node13 -->
<g id="edge63_Node000023_Node000013" class="edge">
<title>Node23&#45;&gt;Node13</title>
<g id="a_edge63_Node000023_Node000013"><a xlink:title=" ">
<path fill="none" stroke="#63b8ff" d="M1141.0178,-210.4745C1254.9303,-204.9556 1497.5439,-190.0158 1522.5,-162 1532.1565,-151.1596 1531.1312,-93.9434 1517.5,-66 1510.351,-51.3449 1496.9889,-38.9214 1485.11,-30.0059"/>
<polygon fill="#63b8ff" stroke="#63b8ff" points="1140.5584,-206.9923 1130.7361,-210.9639 1140.8913,-213.9844 1140.5584,-206.9923"/>
</a>
</g>
</g>
<!-- Node23&#45;&gt;Node16 -->
<g id="edge59_Node000023_Node000016" class="edge">
<title>Node23&#45;&gt;Node16</title>
<g id="a_edge59_Node000023_Node000016"><a xlink:title=" ">
<path fill="none" stroke="#63b8ff" d="M1024.2832,-196.3666C985.6178,-185.3194 935.484,-170.9954 899.186,-160.6246"/>
<polygon fill="#63b8ff" stroke="#63b8ff" points="1023.7792,-199.8626 1034.356,-199.2446 1025.7023,-193.132 1023.7792,-199.8626"/>
</a>
</g>
</g>
<!-- Node24 -->
<g id="Node000024" class="node">
<title>Node24</title>
<g id="a_Node000024"><a xlink:href="window_8c.html" target="_top" xlink:title="スライディングウィンドウ管理モジュール。">
<polygon fill="#ffffff" stroke="#666666" points="1513.5,-162 1417.5,-162 1417.5,-132 1513.5,-132 1513.5,-162"/>
<text text-anchor="start" x="1425.5" y="-150" font-family="Helvetica,sans-Serif" font-size="10.00" fill="#000000">porter/libsrc/porter</text>
<text text-anchor="middle" x="1465.5" y="-139" font-family="Helvetica,sans-Serif" font-size="10.00" fill="#000000">/protocol/window.c</text>
</a>
</g>
</g>
<!-- Node23&#45;&gt;Node24 -->
<g id="edge60_Node000023_Node000024" class="edge">
<title>Node23&#45;&gt;Node24</title>
<g id="a_edge60_Node000023_Node000024"><a xlink:title=" ">
<path fill="none" stroke="#63b8ff" d="M1140.5459,-205.1998C1205.0308,-196.2043 1312.1122,-180.2844 1403.5,-162 1407.9523,-161.1092 1412.5687,-160.119 1417.1826,-159.0841"/>
<polygon fill="#63b8ff" stroke="#63b8ff" points="1139.9954,-201.7425 1130.5711,-206.5834 1140.9572,-208.6762 1139.9954,-201.7425"/>
</a>
</g>
</g>
</g>
</svg>
