<?xml version="1.0" encoding="UTF-8" standalone="no"?>
<!DOCTYPE svg PUBLIC "-//W3C//DTD SVG 1.1//EN"
 "http://www.w3.org/Graphics/SVG/1.1/DTD/svg11.dtd">
<!-- Generated by graphviz version 2.40.1 (0)
 -->
<!-- Title: potrOpenService Pages: 1 -->
<!--zoomable 462 -->

<svg id="main" version="1.1" xmlns="http://www.w3.org/2000/svg" xmlns:xlink="http://www.w3.org/1999/xlink" xml:space="preserve" onload="init(evt)">

<style type="text/css"><![CDATA[
.node, .edge {opacity: 0.7;}
.node.selected, .edge.selected {opacity: 1;}
.edge:hover path { stroke: red; }
.edge:hover polygon { stroke: red; fill: red; }
]]></style>

<defs>
  <circle id="rim" cx="0" cy="0" r="7"/>
  <circle id="rim2" cx="0" cy="0" r="3.5"/>
  <g id="zoomPlus">
    <use xlink:href="#rim" fill="#404040"><set attributeName="fill" to="#808080" begin="zoomplus.mouseover" end="zoomplus.mouseout"/></use>
    <path d="M-4,0h8M0,-4v8" fill="none" stroke="white" stroke-width="1.5" pointer-events="none"/>
  </g>
  <g id="zoomMin">
    <use xlink:href="#rim" fill="#404040"><set attributeName="fill" to="#808080" begin="zoomminus.mouseover" end="zoomminus.mouseout"/></use>
    <path d="M-4,0h8" fill="none" stroke="white" stroke-width="1.5" pointer-events="none"/>
  </g>
  <g id="arrowUp" transform="translate(30 24)">
    <use xlink:href="#rim"/>
    <path pointer-events="none" fill="none" stroke="white" stroke-width="1.5" d="M0,-3.0v7 M-2.5,-0.5L0,-3.0L2.5,-0.5"/>
  </g>
  <g id="arrowRight" transform="rotate(90) translate(36 -43)">
    <use xlink:href="#rim"/>
    <path pointer-events="none" fill="none" stroke="white" stroke-width="1.5" d="M0,-3.0v7 M-2.5,-0.5L0,-3.0L2.5,-0.5"/>
  </g>
  <g id="arrowDown" transform="rotate(180) translate(-30 -48)">
    <use xlink:href="#rim"/>
    <path pointer-events="none" fill="none" stroke="white" stroke-width="1.5" d="M0,-3.0v7 M-2.5,-0.5L0,-3.0L2.5,-0.5"/>
  </g>
  <g id="arrowLeft" transform="rotate(270) translate(-36 17)">
    <use xlink:href="#rim"/>
    <path pointer-events="none" fill="none" stroke="white" stroke-width="1.5" d="M0,-3.0v7 M-2.5,-0.5L0,-3.0L2.5,-0.5"/>
  </g>
  <g id="resetDef">
    <use xlink:href="#rim2" fill="#404040"><set attributeName="fill" to="#808080" begin="reset.mouseover" end="reset.mouseout"/></use>
  </g>
</defs>
<script type="application/ecmascript">
var viewWidth = 708;
var viewHeight = 462;
var sectionId = 'dynsection-2';
</script>
<script type="application/ecmascript" xlink:href="svg.min.js"/>
<svg id="graph" class="graph">
<g id="viewport">
<title>potrOpenService</title>
<!-- Node1 -->
<g id="Node000001" class="node">
<title>Node1</title>
<g id="a_Node000001"><a xlink:title="設定ファイルから指定サービスを開きます。">
<polygon fill="#999999" stroke="#666666" points="89,-148 0,-148 0,-129 89,-129 89,-148"/>
<text text-anchor="middle" x="44.5" y="-136" font-family="Helvetica,sans-Serif" font-size="10.00" fill="#000000">potrOpenService</text>
</a>
</g>
</g>
<!-- Node2 -->
<g id="Node000002" class="node">
<title>Node2</title>
<g id="a_Node000002"><a xlink:href="potrRecvThread_8c.html#a1006d5ccaf47db6c24908eb7ae366505" target="_top" xlink:title="受信スレッドを起動します。">
<polygon fill="#ffffff" stroke="#666666" points="250,-306 125,-306 125,-287 250,-287 250,-306"/>
<text text-anchor="middle" x="187.5" y="-294" font-family="Helvetica,sans-Serif" font-size="10.00" fill="#000000">comm_recv_thread_start</text>
</a>
</g>
</g>
<!-- Node1&#45;&gt;Node2 -->
<g id="edge1_Node000001_Node000002" class="edge">
<title>Node1&#45;&gt;Node2</title>
<g id="a_edge1_Node000001_Node000002"><a xlink:title=" ">
<path fill="none" stroke="#63b8ff" d="M50.0714,-148.2596C62.0413,-168.7142 91.832,-216.9557 125,-250.5 136.5102,-262.1408 151.1742,-273.0942 163.4051,-281.3903"/>
<polygon fill="#63b8ff" stroke="#63b8ff" points="161.5274,-284.3447 171.8012,-286.9334 165.3842,-278.5029 161.5274,-284.3447"/>
</a>
</g>
</g>
<!-- Node15 -->
<g id="Node000015" class="node">
<title>Node15</title>
<g id="a_Node000015"><a xlink:href="config_8c.html#afd290b0c734dce1335e786e638c67a12" target="_top" xlink:title="設定ファイルから [global] セクションを読み込みます。">
<polygon fill="#ffffff" stroke="#666666" points="236,-241 139,-241 139,-222 236,-222 236,-241"/>
<text text-anchor="middle" x="187.5" y="-229" font-family="Helvetica,sans-Serif" font-size="10.00" fill="#000000">config_load_global</text>
</a>
</g>
</g>
<!-- Node1&#45;&gt;Node15 -->
<g id="edge18_Node000001_Node000015" class="edge">
<title>Node1&#45;&gt;Node15</title>
<g id="a_edge18_Node000001_Node000015"><a xlink:title=" ">
<path fill="none" stroke="#63b8ff" d="M52.1176,-148.0727C65.291,-163.9936 93.9175,-195.8998 125,-213.5 128.1842,-215.303 131.5637,-216.938 135.0382,-218.4186"/>
<polygon fill="#63b8ff" stroke="#63b8ff" points="133.797,-221.6911 144.3878,-221.9866 136.2929,-215.1511 133.797,-221.6911"/>
</a>
</g>
</g>
<!-- Node19 -->
<g id="Node000019" class="node">
<title>Node19</title>
<g id="a_Node000019"><a xlink:href="config_8c.html#a4b72d1221265c0c8c3748a30ac0fd48f" target="_top" xlink:title="設定ファイルから指定サービスの定義を読み込みます。">
<polygon fill="#ffffff" stroke="#666666" points="239,-204 136,-204 136,-185 239,-185 239,-204"/>
<text text-anchor="middle" x="187.5" y="-192" font-family="Helvetica,sans-Serif" font-size="10.00" fill="#000000">config_load_service</text>
</a>
</g>
</g>
<!-- Node1&#45;&gt;Node19 -->
<g id="edge23_Node000001_Node000019" class="edge">
<title>Node1&#45;&gt;Node19</title>
<g id="a_edge23_Node000001_Node000019"><a xlink:title=" ">
<path fill="none" stroke="#63b8ff" d="M62.6801,-148.1138C78.7626,-156.3669 103.0209,-168.2088 125,-176.5 130.0844,-178.418 135.4659,-180.251 140.8532,-181.9631"/>
<polygon fill="#63b8ff" stroke="#63b8ff" points="139.9072,-185.3338 150.4934,-184.9068 141.9515,-178.6389 139.9072,-185.3338"/>
</a>
</g>
</g>
<!-- Node22 -->
<g id="Node000022" class="node">
<title>Node22</title>
<g id="a_Node000022"><a xlink:href="potrOpenService_8c.html#aafa846f610c7badee584434e161be459" target="_top" xlink:title=" ">
<polygon fill="#ffffff" stroke="#666666" points="247.5,-167 127.5,-167 127.5,-148 247.5,-148 247.5,-167"/>
<text text-anchor="middle" x="187.5" y="-155" font-family="Helvetica,sans-Serif" font-size="10.00" fill="#000000">open_socket_broadcast</text>
</a>
</g>
</g>
<!-- Node1&#45;&gt;Node22 -->
<g id="edge29_Node000001_Node000022" class="edge">
<title>Node1&#45;&gt;Node22</title>
<g id="a_edge29_Node000001_Node000022"><a xlink:title=" ">
<path fill="none" stroke="#63b8ff" d="M89.3537,-144.4596C98.196,-145.6344 107.6728,-146.8936 117.1234,-148.1493"/>
<polygon fill="#63b8ff" stroke="#63b8ff" points="116.9628,-151.6586 127.3367,-149.5063 117.8849,-144.7196 116.9628,-151.6586"/>
</a>
</g>
</g>
<!-- Node23 -->
<g id="Node000023" class="node">
<title>Node23</title>
<g id="a_Node000023"><a xlink:href="potrOpenService_8c.html#a946841991d9b2b7998aa8137584b34b7" target="_top" xlink:title=" ">
<polygon fill="#ffffff" stroke="#666666" points="246,-130 129,-130 129,-111 246,-111 246,-130"/>
<text text-anchor="middle" x="187.5" y="-118" font-family="Helvetica,sans-Serif" font-size="10.00" fill="#000000">open_socket_multicast</text>
</a>
</g>
</g>
<!-- Node1&#45;&gt;Node23 -->
<g id="edge30_Node000001_Node000023" class="edge">
<title>Node1&#45;&gt;Node23</title>
<g id="a_edge30_Node000001_Node000023"><a xlink:title=" ">
<path fill="none" stroke="#63b8ff" d="M89.3537,-132.8541C98.7528,-131.671 108.8687,-130.3977 118.908,-129.134"/>
<polygon fill="#63b8ff" stroke="#63b8ff" points="119.4078,-132.5988 128.8924,-127.8772 118.5335,-125.6536 119.4078,-132.5988"/>
</a>
</g>
</g>
<!-- Node25 -->
<g id="Node000025" class="node">
<title>Node25</title>
<g id="a_Node000025"><a xlink:href="potrOpenService_8c.html#a4a8bf6df6f3ab1ea5a6ce77fba8d2d34" target="_top" xlink:title=" ">
<polygon fill="#ffffff" stroke="#666666" points="242,-93 133,-93 133,-74 242,-74 242,-93"/>
<text text-anchor="middle" x="187.5" y="-81" font-family="Helvetica,sans-Serif" font-size="10.00" fill="#000000">open_socket_unicast</text>
</a>
</g>
</g>
<!-- Node1&#45;&gt;Node25 -->
<g id="edge32_Node000001_Node000025" class="edge">
<title>Node1&#45;&gt;Node25</title>
<g id="a_edge32_Node000001_Node000025"><a xlink:title=" ">
<path fill="none" stroke="#63b8ff" d="M63.3509,-128.8543C79.4516,-120.8553 103.3717,-109.533 125,-101.5 130.1603,-99.5834 135.6217,-97.744 141.0824,-96.0219"/>
<polygon fill="#63b8ff" stroke="#63b8ff" points="142.294,-99.3119 150.8458,-93.0576 140.2602,-92.6139 142.294,-99.3119"/>
</a>
</g>
</g>
<!-- Node26 -->
<g id="Node000026" class="node">
<title>Node26</title>
<g id="a_Node000026"><a xlink:href="retransmit_8c.html#a5b35cc6aee4a37fc60b71abd175527e0" target="_top" xlink:title="再送制御管理構造体を初期化します。">
<polygon fill="#ffffff" stroke="#666666" points="226.5,-56 148.5,-56 148.5,-37 226.5,-37 226.5,-56"/>
<text text-anchor="middle" x="187.5" y="-44" font-family="Helvetica,sans-Serif" font-size="10.00" fill="#000000">retransmit_init</text>
</a>
</g>
</g>
<!-- Node1&#45;&gt;Node26 -->
<g id="edge33_Node000001_Node000026" class="edge">
<title>Node1&#45;&gt;Node26</title>
<g id="a_edge33_Node000001_Node000026"><a xlink:title=" ">
<path fill="none" stroke="#63b8ff" d="M52.3601,-128.8066C65.6699,-113.0223 94.2166,-81.7951 125,-64.5 129.2669,-62.1027 133.8806,-60.0012 138.6014,-58.164"/>
<polygon fill="#63b8ff" stroke="#63b8ff" points="140.078,-61.3557 148.3648,-54.7542 137.77,-54.7471 140.078,-61.3557"/>
</a>
</g>
</g>
<!-- Node27 -->
<g id="Node000027" class="node">
<title>Node27</title>
<g id="a_Node000027"><a xlink:href="window_8c.html#ac2fe725387be874649c2557619abf841" target="_top" xlink:title="ウィンドウを初期化します。">
<polygon fill="#ffffff" stroke="#666666" points="220.5,-19 154.5,-19 154.5,0 220.5,0 220.5,-19"/>
<text text-anchor="middle" x="187.5" y="-7" font-family="Helvetica,sans-Serif" font-size="10.00" fill="#000000">window_init</text>
</a>
</g>
</g>
<!-- Node1&#45;&gt;Node27 -->
<g id="edge34_Node000001_Node000027" class="edge">
<title>Node1&#45;&gt;Node27</title>
<g id="a_edge34_Node000001_Node000027"><a xlink:title=" ">
<path fill="none" stroke="#63b8ff" d="M48.7762,-128.8151C58.8163,-107.2136 86.0276,-54.8476 125,-27.5 130.7755,-23.4473 137.455,-20.3005 144.2533,-17.859"/>
<polygon fill="#63b8ff" stroke="#63b8ff" points="145.6976,-21.0752 154.2069,-14.7631 143.6186,-14.3911 145.6976,-21.0752"/>
</a>
</g>
</g>
<!-- Node3 -->
<g id="Node000003" class="node">
<title>Node3</title>
<g id="a_Node000003"><a xlink:href="potrRecvThread_8c.html#a300c2d6c99e3491d0ee4c7cb4de36146" target="_top" xlink:title=" ">
<polygon fill="#ffffff" stroke="#666666" points="387.5,-334 295.5,-334 295.5,-315 387.5,-315 387.5,-334"/>
<text text-anchor="middle" x="341.5" y="-322" font-family="Helvetica,sans-Serif" font-size="10.00" fill="#000000">recv_thread_func</text>
</a>
</g>
</g>
<!-- Node2&#45;&gt;Node3 -->
<g id="edge2_Node000002_Node000003" class="edge">
<title>Node2&#45;&gt;Node3</title>
<g id="a_edge2_Node000002_Node000003"><a xlink:title=" ">
<path fill="none" stroke="#63b8ff" d="M240.0673,-306.0577C254.6514,-308.7093 270.54,-311.5982 285.3217,-314.2858"/>
<polygon fill="#63b8ff" stroke="#63b8ff" points="284.8839,-317.7635 295.3487,-316.1089 286.1362,-310.8764 284.8839,-317.7635"/>
</a>
</g>
</g>
<!-- Node4 -->
<g id="Node000004" class="node">
<title>Node4</title>
<g id="a_Node000004"><a xlink:href="packet_8c.html#a15889622b4af9f2ad1d7f3269532dc6f" target="_top" xlink:title="受信バイト列をパケット構造体に解析します。">
<polygon fill="#ffffff" stroke="#666666" points="535.5,-232 460.5,-232 460.5,-213 535.5,-213 535.5,-232"/>
<text text-anchor="middle" x="498" y="-220" font-family="Helvetica,sans-Serif" font-size="10.00" fill="#000000">packet_parse</text>
</a>
</g>
</g>
<!-- Node3&#45;&gt;Node4 -->
<g id="edge3_Node000003_Node000004" class="edge">
<title>Node3&#45;&gt;Node4</title>
<g id="a_edge3_Node000003_Node000004"><a xlink:title=" ">
<path fill="none" stroke="#63b8ff" d="M356.3415,-314.8936C367.9426,-307.0722 384.1933,-295.4118 397,-283.5 415.0021,-266.7558 412.3451,-254.8349 433,-241.5 438.3801,-238.0266 444.4133,-235.1712 450.5782,-232.8279"/>
<polygon fill="#63b8ff" stroke="#63b8ff" points="451.9406,-236.0623 460.2993,-229.5521 449.7052,-229.4288 451.9406,-236.0623"/>
</a>
</g>
</g>
<!-- Node5 -->
<g id="Node000005" class="node">
<title>Node5</title>
<g id="a_Node000005"><a xlink:href="potrRecvThread_8c.html#a6c210bf450de8b4bc7b00a665ab436f9" target="_top" xlink:title=" ">
<polygon fill="#ffffff" stroke="#666666" points="532.5,-454 463.5,-454 463.5,-435 532.5,-435 532.5,-454"/>
<text text-anchor="middle" x="498" y="-442" font-family="Helvetica,sans-Serif" font-size="10.00" fill="#000000">recv_deliver</text>
</a>
</g>
</g>
<!-- Node3&#45;&gt;Node5 -->
<g id="edge4_Node000003_Node000005" class="edge">
<title>Node3&#45;&gt;Node5</title>
<g id="a_edge4_Node000003_Node000005"><a xlink:title=" ">
<path fill="none" stroke="#63b8ff" d="M347.2969,-334.0133C360.123,-354.2384 392.9643,-401.6842 433,-426.5 439.295,-430.4019 446.4472,-433.4745 453.6488,-435.8894"/>
<polygon fill="#63b8ff" stroke="#63b8ff" points="452.8413,-439.3006 463.4239,-438.7909 454.8333,-432.59 452.8413,-439.3006"/>
</a>
</g>
</g>
<!-- Node7 -->
<g id="Node000007" class="node">
<title>Node7</title>
<g id="a_Node000007"><a xlink:href="potrRecvThread_8c.html#abc16a3b58a39e0842eab75e0e4a2ff82" target="_top" xlink:title=" ">
<polygon fill="#ffffff" stroke="#666666" points="530,-269 466,-269 466,-250 530,-250 530,-269"/>
<text text-anchor="middle" x="498" y="-257" font-family="Helvetica,sans-Serif" font-size="10.00" fill="#000000">send_nack</text>
</a>
</g>
</g>
<!-- Node3&#45;&gt;Node7 -->
<g id="edge6_Node000003_Node000007" class="edge">
<title>Node3&#45;&gt;Node7</title>
<g id="a_edge6_Node000003_Node000007"><a xlink:title=" ">
<path fill="none" stroke="#63b8ff" d="M358.2766,-314.9023C376.3124,-304.8635 406.0339,-289.1179 433,-278.5 440.3841,-275.5925 448.3933,-272.8973 456.1845,-270.5046"/>
<polygon fill="#63b8ff" stroke="#63b8ff" points="457.2746,-273.8322 465.8733,-267.6424 455.2914,-267.119 457.2746,-273.8322"/>
</a>
</g>
</g>
<!-- Node9 -->
<g id="Node000009" class="node">
<title>Node9</title>
<g id="a_Node000009"><a xlink:href="window_8c.html#a6ecfb9f52ac33918ba6f8cd0386b17c2" target="_top" xlink:title="受信ウィンドウで欠番が発生しているか確認し、NACK 番号を返します。">
<polygon fill="#ffffff" stroke="#666666" points="563,-380 433,-380 433,-361 563,-361 563,-380"/>
<text text-anchor="middle" x="498" y="-368" font-family="Helvetica,sans-Serif" font-size="10.00" fill="#000000">window_recv_needs_nack</text>
</a>
</g>
</g>
<!-- Node3&#45;&gt;Node9 -->
<g id="edge8_Node000003_Node000009" class="edge">
<title>Node3&#45;&gt;Node9</title>
<g id="a_edge8_Node000003_Node000009"><a xlink:title=" ">
<path fill="none" stroke="#63b8ff" d="M371.9388,-334.0382C389.7101,-339.5509 412.5851,-346.5509 433,-352.5 439.4957,-354.3929 446.3704,-356.3483 453.1223,-358.2416"/>
<polygon fill="#63b8ff" stroke="#63b8ff" points="452.2956,-361.6445 462.8681,-360.9565 454.1741,-354.9012 452.2956,-361.6445"/>
</a>
</g>
</g>
<!-- Node11 -->
<g id="Node000011" class="node">
<title>Node11</title>
<g id="a_Node000011"><a xlink:href="window_8c.html#a883a182a547ff084957069939b131527" target="_top" xlink:title="受信ウィンドウから順序整列済みパケットを取り出します。">
<polygon fill="#ffffff" stroke="#666666" points="544.5,-417 451.5,-417 451.5,-398 544.5,-398 544.5,-417"/>
<text text-anchor="middle" x="498" y="-405" font-family="Helvetica,sans-Serif" font-size="10.00" fill="#000000">window_recv_pop</text>
</a>
</g>
</g>
<!-- Node3&#45;&gt;Node11 -->
<g id="edge10_Node000003_Node000011" class="edge">
<title>Node3&#45;&gt;Node11</title>
<g id="a_edge10_Node000003_Node000011"><a xlink:title=" ">
<path fill="none" stroke="#63b8ff" d="M352.2575,-334.0678C368.5972,-348.1317 401.1492,-374.353 433,-389.5 437.0349,-391.4188 441.3109,-393.1655 445.6667,-394.7488"/>
<polygon fill="#63b8ff" stroke="#63b8ff" points="444.673,-398.1069 455.2668,-397.9571 446.8918,-391.4679 444.673,-398.1069"/>
</a>
</g>
</g>
<!-- Node12 -->
<g id="Node000012" class="node">
<title>Node12</title>
<g id="a_Node000012"><a xlink:href="window_8c.html#ac134e864859663f32389cf30fe55bc6e" target="_top" xlink:title="受信ウィンドウにパケットを格納します。">
<polygon fill="#ffffff" stroke="#666666" points="547,-343 449,-343 449,-324 547,-324 547,-343"/>
<text text-anchor="middle" x="498" y="-331" font-family="Helvetica,sans-Serif" font-size="10.00" fill="#000000">window_recv_push</text>
</a>
</g>
</g>
<!-- Node3&#45;&gt;Node12 -->
<g id="edge12_Node000003_Node000012" class="edge">
<title>Node3&#45;&gt;Node12</title>
<g id="a_edge12_Node000003_Node000012"><a xlink:title=" ">
<path fill="none" stroke="#63b8ff" d="M387.6087,-327.1516C403.5873,-328.0705 421.7302,-329.1139 438.6246,-330.0854"/>
<polygon fill="#63b8ff" stroke="#63b8ff" points="438.7675,-333.5994 448.952,-330.6793 439.1695,-326.6109 438.7675,-333.5994"/>
</a>
</g>
</g>
<!-- Node14 -->
<g id="Node000014" class="node">
<title>Node14</title>
<g id="a_Node000014"><a xlink:href="window_8c.html#aa3c39809a6b6c7275a2539d6edf95036" target="_top" xlink:title="ACK を処理して送信ウィンドウを前進させます。">
<polygon fill="#ffffff" stroke="#666666" points="545.5,-306 450.5,-306 450.5,-287 545.5,-287 545.5,-306"/>
<text text-anchor="middle" x="498" y="-294" font-family="Helvetica,sans-Serif" font-size="10.00" fill="#000000">window_send_ack</text>
</a>
</g>
</g>
<!-- Node3&#45;&gt;Node14 -->
<g id="edge15_Node000003_Node000014" class="edge">
<title>Node3&#45;&gt;Node14</title>
<g id="a_edge15_Node000003_Node000014"><a xlink:title=" ">
<path fill="none" stroke="#63b8ff" d="M387.6087,-316.2505C404.1149,-313.2973 422.9306,-309.9309 440.2939,-306.8244"/>
<polygon fill="#63b8ff" stroke="#63b8ff" points="441.0937,-310.237 450.3209,-305.0304 439.8608,-303.3464 441.0937,-310.237"/>
</a>
</g>
</g>
<!-- Node6 -->
<g id="Node000006" class="node">
<title>Node6</title>
<g id="a_Node000006"><a xlink:href="compress__linux_8c.html#a9b4c1ab5034e8a243544747d2efdcd21" target="_top" xlink:title="圧縮データを解凍します。">
<polygon fill="#ffffff" stroke="#666666" points="695.5,-454 603.5,-454 603.5,-435 695.5,-435 695.5,-454"/>
<text text-anchor="middle" x="649.5" y="-442" font-family="Helvetica,sans-Serif" font-size="10.00" fill="#000000">potr_decompress</text>
</a>
</g>
</g>
<!-- Node5&#45;&gt;Node6 -->
<g id="edge5_Node000005_Node000006" class="edge">
<title>Node5&#45;&gt;Node6</title>
<g id="a_edge5_Node000005_Node000006"><a xlink:title=" ">
<path fill="none" stroke="#63b8ff" d="M532.7572,-444.5C550.6931,-444.5 573.0169,-444.5 593.3252,-444.5"/>
<polygon fill="#63b8ff" stroke="#63b8ff" points="593.4151,-448.0001 603.4151,-444.5 593.415,-441.0001 593.4151,-448.0001"/>
</a>
</g>
</g>
<!-- Node8 -->
<g id="Node000008" class="node">
<title>Node8</title>
<g id="a_Node000008"><a xlink:href="packet_8c.html#aaf155f7d2936ffa8015eddaddd1d96be" target="_top" xlink:title="NACK パケットを構築します。">
<polygon fill="#ffffff" stroke="#666666" points="698.5,-269 600.5,-269 600.5,-250 698.5,-250 698.5,-269"/>
<text text-anchor="middle" x="649.5" y="-257" font-family="Helvetica,sans-Serif" font-size="10.00" fill="#000000">packet_build_nack</text>
</a>
</g>
</g>
<!-- Node7&#45;&gt;Node8 -->
<g id="edge7_Node000007_Node000008" class="edge">
<title>Node7&#45;&gt;Node8</title>
<g id="a_edge7_Node000007_Node000008"><a xlink:title=" ">
<path fill="none" stroke="#63b8ff" d="M530.1293,-259.5C547.5908,-259.5 569.7435,-259.5 590.2113,-259.5"/>
<polygon fill="#63b8ff" stroke="#63b8ff" points="590.4104,-263.0001 600.4104,-259.5 590.4104,-256.0001 590.4104,-263.0001"/>
</a>
</g>
</g>
<!-- Node10 -->
<g id="Node000010" class="node">
<title>Node10</title>
<g id="a_Node000010"><a xlink:href="window_8c.html#ad5f53882d6cd6075a78e83b94fb62cc3" target="_top" xlink:title=" ">
<polygon fill="#ffffff" stroke="#666666" points="679,-362 620,-362 620,-343 679,-343 679,-362"/>
<text text-anchor="middle" x="649.5" y="-350" font-family="Helvetica,sans-Serif" font-size="10.00" fill="#000000">win_index</text>
</a>
</g>
</g>
<!-- Node9&#45;&gt;Node10 -->
<g id="edge9_Node000009_Node000010" class="edge">
<title>Node9&#45;&gt;Node10</title>
<g id="a_edge9_Node000009_Node000010"><a xlink:title=" ">
<path fill="none" stroke="#63b8ff" d="M563.1289,-362.7619C579.0044,-360.8757 595.515,-358.9141 609.7964,-357.2173"/>
<polygon fill="#63b8ff" stroke="#63b8ff" points="610.2433,-360.6889 619.7605,-356.0334 609.4174,-353.7378 610.2433,-360.6889"/>
</a>
</g>
</g>
<!-- Node11&#45;&gt;Node10 -->
<g id="edge11_Node000011_Node000010" class="edge">
<title>Node11&#45;&gt;Node10</title>
<g id="a_edge11_Node000011_Node000010"><a xlink:title=" ">
<path fill="none" stroke="#63b8ff" d="M535.7312,-397.9733C544.7387,-395.4459 554.2704,-392.5602 563,-389.5 582.3275,-382.7246 603.4738,-373.7097 620.0203,-366.2747"/>
<polygon fill="#63b8ff" stroke="#63b8ff" points="621.5282,-369.434 629.1826,-362.1086 618.6307,-363.0618 621.5282,-369.434"/>
</a>
</g>
</g>
<!-- Node12&#45;&gt;Node10 -->
<g id="edge14_Node000012_Node000010" class="edge">
<title>Node12&#45;&gt;Node10</title>
<g id="a_edge14_Node000012_Node000010"><a xlink:title=" ">
<path fill="none" stroke="#63b8ff" d="M547.1877,-339.6688C567.5478,-342.2222 590.8393,-345.1432 610.051,-347.5526"/>
<polygon fill="#63b8ff" stroke="#63b8ff" points="609.6154,-351.0253 619.9733,-348.797 610.4865,-344.0797 609.6154,-351.0253"/>
</a>
</g>
</g>
<!-- Node13 -->
<g id="Node000013" class="node">
<title>Node13</title>
<g id="a_Node000013"><a xlink:href="seqnum_8c.html#a45fcfa48b2d66889a5b9b8f63650336a" target="_top" xlink:title="通番 seq がウィンドウ [base, base + window_size) に含まれるか判定します。">
<polygon fill="#ffffff" stroke="#666666" points="700,-315 599,-315 599,-296 700,-296 700,-315"/>
<text text-anchor="middle" x="649.5" y="-303" font-family="Helvetica,sans-Serif" font-size="10.00" fill="#000000">seqnum_in_window</text>
</a>
</g>
</g>
<!-- Node12&#45;&gt;Node13 -->
<g id="edge13_Node000012_Node000013" class="edge">
<title>Node12&#45;&gt;Node13</title>
<g id="a_edge13_Node000012_Node000013"><a xlink:title=" ">
<path fill="none" stroke="#63b8ff" d="M547.1877,-324.4092C560.4671,-321.9549 574.9934,-319.2702 588.8214,-316.7145"/>
<polygon fill="#63b8ff" stroke="#63b8ff" points="589.5418,-320.1407 598.7391,-314.8815 588.2696,-313.2573 589.5418,-320.1407"/>
</a>
</g>
</g>
<!-- Node14&#45;&gt;Node10 -->
<g id="edge17_Node000014_Node000010" class="edge">
<title>Node14&#45;&gt;Node10</title>
<g id="a_edge17_Node000014_Node000010"><a xlink:title=" ">
<path fill="none" stroke="#63b8ff" d="M533.6692,-306.092C543.267,-308.8992 553.5931,-312.1269 563,-315.5 582.2788,-322.4128 603.4241,-331.4304 619.9823,-338.8325"/>
<polygon fill="#63b8ff" stroke="#63b8ff" points="618.5985,-342.0479 629.1526,-342.9759 621.4808,-335.6688 618.5985,-342.0479"/>
</a>
</g>
</g>
<!-- Node14&#45;&gt;Node13 -->
<g id="edge16_Node000014_Node000013" class="edge">
<title>Node14&#45;&gt;Node13</title>
<g id="a_edge16_Node000014_Node000013"><a xlink:title=" ">
<path fill="none" stroke="#63b8ff" d="M545.5199,-299.323C559.1365,-300.1319 574.1732,-301.0251 588.4807,-301.8751"/>
<polygon fill="#63b8ff" stroke="#63b8ff" points="588.5492,-305.3852 598.7391,-302.4845 588.9643,-298.3976 588.5492,-305.3852"/>
</a>
</g>
</g>
<!-- Node16 -->
<g id="Node000016" class="node">
<title>Node16</title>
<g id="a_Node000016"><a xlink:href="config_8c.html#a613c87799141fafda471fdd4069f8343" target="_top" xlink:title=" ">
<polygon fill="#ffffff" stroke="#666666" points="397,-241 286,-241 286,-222 397,-222 397,-241"/>
<text text-anchor="middle" x="341.5" y="-229" font-family="Helvetica,sans-Serif" font-size="10.00" fill="#000000">open_config_file_read</text>
</a>
</g>
</g>
<!-- Node15&#45;&gt;Node16 -->
<g id="edge19_Node000015_Node000016" class="edge">
<title>Node15&#45;&gt;Node16</title>
<g id="a_edge19_Node000015_Node000016"><a xlink:title=" ">
<path fill="none" stroke="#63b8ff" d="M236.2266,-231.5C248.796,-231.5 262.5327,-231.5 275.8106,-231.5"/>
<polygon fill="#63b8ff" stroke="#63b8ff" points="275.8481,-235.0001 285.848,-231.5 275.848,-228.0001 275.8481,-235.0001"/>
</a>
</g>
</g>
<!-- Node17 -->
<g id="Node000017" class="node">
<title>Node17</title>
<g id="a_Node000017"><a xlink:href="config_8c.html#a5f2de03809866bfac8920bc13a97aaca" target="_top" xlink:title=" ">
<polygon fill="#ffffff" stroke="#666666" points="369.5,-204 313.5,-204 313.5,-185 369.5,-185 369.5,-204"/>
<text text-anchor="middle" x="341.5" y="-192" font-family="Helvetica,sans-Serif" font-size="10.00" fill="#000000">parse_kv</text>
</a>
</g>
</g>
<!-- Node15&#45;&gt;Node17 -->
<g id="edge20_Node000015_Node000017" class="edge">
<title>Node15&#45;&gt;Node17</title>
<g id="a_edge20_Node000015_Node000017"><a xlink:title=" ">
<path fill="none" stroke="#63b8ff" d="M227.1588,-221.9716C250.6035,-216.3388 280.142,-209.2418 303.3229,-203.6724"/>
<polygon fill="#63b8ff" stroke="#63b8ff" points="304.2503,-207.0493 313.1559,-201.3099 302.615,-200.243 304.2503,-207.0493"/>
</a>
</g>
</g>
<!-- Node18 -->
<g id="Node000018" class="node">
<title>Node18</title>
<g id="a_Node000018"><a xlink:href="config_8c.html#a2c8b5f7a0223db682d3326ce74f794f4" target="_top" xlink:title=" ">
<polygon fill="#ffffff" stroke="#666666" points="514.5,-195 481.5,-195 481.5,-176 514.5,-176 514.5,-195"/>
<text text-anchor="middle" x="498" y="-183" font-family="Helvetica,sans-Serif" font-size="10.00" fill="#000000">trim</text>
</a>
</g>
</g>
<!-- Node15&#45;&gt;Node18 -->
<g id="edge22_Node000015_Node000018" class="edge">
<title>Node15&#45;&gt;Node18</title>
<g id="a_edge22_Node000015_Node000018"><a xlink:title=" ">
<path fill="none" stroke="#63b8ff" d="M210.6067,-241.0551C250.7778,-256.0995 335.1131,-280.6528 397,-250.5 420.3383,-239.129 411.5087,-219.0636 433,-204.5 444.4056,-196.771 458.9896,-192.1367 471.4522,-189.3834"/>
<polygon fill="#63b8ff" stroke="#63b8ff" points="472.1474,-192.814 481.3054,-187.4865 470.824,-185.9402 472.1474,-192.814"/>
</a>
</g>
</g>
<!-- Node17&#45;&gt;Node18 -->
<g id="edge21_Node000017_Node000018" class="edge">
<title>Node17&#45;&gt;Node18</title>
<g id="a_edge21_Node000017_Node000018"><a xlink:title=" ">
<path fill="none" stroke="#63b8ff" d="M369.841,-192.8702C398.6128,-191.2156 442.8349,-188.6724 471.0834,-187.0479"/>
<polygon fill="#63b8ff" stroke="#63b8ff" points="471.6324,-190.5222 481.4149,-186.4538 471.2305,-183.5338 471.6324,-190.5222"/>
</a>
</g>
</g>
<!-- Node19&#45;&gt;Node16 -->
<g id="edge26_Node000019_Node000016" class="edge">
<title>Node19&#45;&gt;Node16</title>
<g id="a_edge26_Node000019_Node000016"><a xlink:title=" ">
<path fill="none" stroke="#63b8ff" d="M227.1588,-204.0284C246.8417,-208.7574 270.8197,-214.5184 291.7248,-219.541"/>
<polygon fill="#63b8ff" stroke="#63b8ff" points="291.1672,-223.0066 301.7082,-221.9396 292.8026,-216.2003 291.1672,-223.0066"/>
</a>
</g>
</g>
<!-- Node19&#45;&gt;Node17 -->
<g id="edge27_Node000019_Node000017" class="edge">
<title>Node19&#45;&gt;Node17</title>
<g id="a_edge27_Node000019_Node000017"><a xlink:title=" ">
<path fill="none" stroke="#63b8ff" d="M239.2082,-194.5C260.1466,-194.5 283.892,-194.5 303.2306,-194.5"/>
<polygon fill="#63b8ff" stroke="#63b8ff" points="303.475,-198.0001 313.475,-194.5 303.475,-191.0001 303.475,-198.0001"/>
</a>
</g>
</g>
<!-- Node19&#45;&gt;Node18 -->
<g id="edge28_Node000019_Node000018" class="edge">
<title>Node19&#45;&gt;Node18</title>
<g id="a_edge28_Node000019_Node000018"><a xlink:title=" ">
<path fill="none" stroke="#63b8ff" d="M230.4205,-184.9154C247.6065,-181.5349 267.6483,-178.163 286,-176.5 352.5421,-170.4699 431.209,-177.5017 471.4198,-182.114"/>
<polygon fill="#63b8ff" stroke="#63b8ff" points="471.1277,-185.6039 481.4711,-183.3097 471.9546,-178.6529 471.1277,-185.6039"/>
</a>
</g>
</g>
<!-- Node20 -->
<g id="Node000020" class="node">
<title>Node20</title>
<g id="a_Node000020"><a xlink:href="config_8c.html#af598a3e207900d3f07fc6afa897ff37f" target="_top" xlink:title=" ">
<polygon fill="#ffffff" stroke="#666666" points="387.5,-128 295.5,-128 295.5,-109 387.5,-109 387.5,-128"/>
<text text-anchor="middle" x="341.5" y="-116" font-family="Helvetica,sans-Serif" font-size="10.00" fill="#000000">apply_service_kv</text>
</a>
</g>
</g>
<!-- Node19&#45;&gt;Node20 -->
<g id="edge24_Node000019_Node000020" class="edge">
<title>Node19&#45;&gt;Node20</title>
<g id="a_edge24_Node000019_Node000020"><a xlink:title=" ">
<path fill="none" stroke="#63b8ff" d="M230.9621,-184.9085C237.5567,-182.6311 244.1159,-179.8583 250,-176.5 269.1139,-165.591 267.6214,-154.6067 286,-142.5 291.8312,-138.6588 298.3789,-135.1935 304.8773,-132.168"/>
<polygon fill="#63b8ff" stroke="#63b8ff" points="306.5146,-135.272 314.2735,-128.0575 303.709,-128.8588 306.5146,-135.272"/>
</a>
</g>
</g>
<!-- Node21 -->
<g id="Node000021" class="node">
<title>Node21</title>
<g id="a_Node000021"><a xlink:href="config_8c.html#a07c7ea9e8c66fbaa3d3c8c848a8a4975" target="_top" xlink:title=" ">
<polygon fill="#ffffff" stroke="#666666" points="541,-128 455,-128 455,-109 541,-109 541,-128"/>
<text text-anchor="middle" x="498" y="-116" font-family="Helvetica,sans-Serif" font-size="10.00" fill="#000000">copy_cstr_trunc</text>
</a>
</g>
</g>
<!-- Node20&#45;&gt;Node21 -->
<g id="edge25_Node000020_Node000021" class="edge">
<title>Node20&#45;&gt;Node21</title>
<g id="a_edge25_Node000020_Node000021"><a xlink:title=" ">
<path fill="none" stroke="#63b8ff" d="M387.6087,-118.5C405.5625,-118.5 426.2485,-118.5 444.826,-118.5"/>
<polygon fill="#63b8ff" stroke="#63b8ff" points="444.8992,-122.0001 454.8992,-118.5 444.8991,-115.0001 444.8992,-122.0001"/>
</a>
</g>
</g>
<!-- Node24 -->
<g id="Node000024" class="node">
<title>Node24</title>
<g id="a_Node000024"><a xlink:href="potrIpAddr_8c.html#a3cec4d9d1cf322295151f0f4319db29e" target="_top" xlink:title=" ">
<polygon fill="#ffffff" stroke="#666666" points="385.5,-91 297.5,-91 297.5,-72 385.5,-72 385.5,-91"/>
<text text-anchor="middle" x="341.5" y="-79" font-family="Helvetica,sans-Serif" font-size="10.00" fill="#000000">parse_ipv4_addr</text>
</a>
</g>
</g>
<!-- Node23&#45;&gt;Node24 -->
<g id="edge31_Node000023_Node000024" class="edge">
<title>Node23&#45;&gt;Node24</title>
<g id="a_edge31_Node000023_Node000024"><a xlink:title=" ">
<path fill="none" stroke="#63b8ff" d="M225.1726,-110.9595C245.9447,-105.6991 271.9362,-99.1168 294.0793,-93.5091"/>
<polygon fill="#63b8ff" stroke="#63b8ff" points="295.115,-96.8574 303.9497,-91.0095 293.3965,-90.0716 295.115,-96.8574"/>
</a>
</g>
</g>
</g>
</svg>

<g id="navigator" transform="translate(0 0)" fill="#404254">
  <rect fill="#f2f5e9" fill-opacity="0.5" stroke="#606060" stroke-width=".5" x="0" y="0" width="60" height="60"/>
  <use id="zoomplus" xlink:href="#zoomPlus" x="17" y="9" onmousedown="handleZoom(evt,'in')"/>
  <use id="zoomminus" xlink:href="#zoomMin" x="42" y="9" onmousedown="handleZoom(evt,'out')"/>
  <use id="reset" xlink:href="#resetDef" x="30" y="36" onmousedown="handleReset()"/>
   <use id="arrowup" xlink:href="#arrowUp" x="0" y="0" onmousedown="handlePan(0,-1)"/>
  <use id="arrowright" xlink:href="#arrowRight" x="0" y="0" onmousedown="handlePan(1,0)"/>
  <use id="arrowdown" xlink:href="#arrowDown" x="0" y="0" onmousedown="handlePan(0,1)"/>
  <use id="arrowleft" xlink:href="#arrowLeft" x="0" y="0" onmousedown="handlePan(-1,0)"/>
</g>
<svg viewBox="0 0 15 15" width="100%" height="30px" preserveAspectRatio="xMaxYMin meet">
 <g id="arrow_out" transform="scale(0.3 0.3)">
  <a xlink:href="porter_8h_a7b5bb6c02c8f7ca7eaa193b07bbe7cba_cgraph_org.svg" target="_base">
   <rect id="button" ry="5" rx="5" y="6" x="6" height="38" width="38"
        fill="#f2f5e9" fill-opacity="0.5" stroke="#606060" stroke-width="1.0"/>
   <path id="arrow"
     d="M 11.500037,31.436501 C 11.940474,20.09759 22.043105,11.32322 32.158766,21.979434 L 37.068811,17.246167 C 37.068811,17.246167 37.088388,32 37.088388,32 L 22.160133,31.978069 C 22.160133,31.978069 26.997745,27.140456 26.997745,27.140456 C 18.528582,18.264221 13.291696,25.230495 11.500037,31.436501 z"
     style="fill:#404040;"/>
  </a>
 </g>
</svg>

<style type='text/css'>
<![CDATA[
[data-mouse-over-selected='false'] { opacity: 0.7; }
[data-mouse-over-selected='true']  { opacity: 1.0; }
]]>
</style>
<script type="application/ecmascript"><![CDATA[
document.addEventListener('DOMContentLoaded', (event) => {
  highlightEdges();
  highlightAdjacentNodes();
});
]]></script>
</svg>
