<?xml version="1.0" encoding="UTF-8" standalone="no"?>
<!DOCTYPE svg PUBLIC "-//W3C//DTD SVG 1.1//EN"
 "http://www.w3.org/Graphics/SVG/1.1/DTD/svg11.dtd">
<!-- Generated by graphviz version 2.40.1 (0)
 -->
<!-- Title: process_outer_pkt Pages: 1 -->
<!--zoomable 326 -->

<svg id="main" version="1.1" xmlns="http://www.w3.org/2000/svg" xmlns:xlink="http://www.w3.org/1999/xlink" xml:space="preserve" onload="init(evt)">

<style type="text/css"><![CDATA[
.node, .edge {opacity: 0.7;}
.node.selected, .edge.selected {opacity: 1;}
.edge:hover path { stroke: red; }
.edge:hover polygon { stroke: red; fill: red; }
]]></style>

<defs>
  <circle id="rim" cx="0" cy="0" r="7"/>
  <circle id="rim2" cx="0" cy="0" r="3.5"/>
  <g id="zoomPlus">
    <use xlink:href="#rim" fill="#404040"><set attributeName="fill" to="#808080" begin="zoomplus.mouseover" end="zoomplus.mouseout"/></use>
    <path d="M-4,0h8M0,-4v8" fill="none" stroke="white" stroke-width="1.5" pointer-events="none"/>
  </g>
  <g id="zoomMin">
    <use xlink:href="#rim" fill="#404040"><set attributeName="fill" to="#808080" begin="zoomminus.mouseover" end="zoomminus.mouseout"/></use>
    <path d="M-4,0h8" fill="none" stroke="white" stroke-width="1.5" pointer-events="none"/>
  </g>
  <g id="arrowUp" transform="translate(30 24)">
    <use xlink:href="#rim"/>
    <path pointer-events="none" fill="none" stroke="white" stroke-width="1.5" d="M0,-3.0v7 M-2.5,-0.5L0,-3.0L2.5,-0.5"/>
  </g>
  <g id="arrowRight" transform="rotate(90) translate(36 -43)">
    <use xlink:href="#rim"/>
    <path pointer-events="none" fill="none" stroke="white" stroke-width="1.5" d="M0,-3.0v7 M-2.5,-0.5L0,-3.0L2.5,-0.5"/>
  </g>
  <g id="arrowDown" transform="rotate(180) translate(-30 -48)">
    <use xlink:href="#rim"/>
    <path pointer-events="none" fill="none" stroke="white" stroke-width="1.5" d="M0,-3.0v7 M-2.5,-0.5L0,-3.0L2.5,-0.5"/>
  </g>
  <g id="arrowLeft" transform="rotate(270) translate(-36 17)">
    <use xlink:href="#rim"/>
    <path pointer-events="none" fill="none" stroke="white" stroke-width="1.5" d="M0,-3.0v7 M-2.5,-0.5L0,-3.0L2.5,-0.5"/>
  </g>
  <g id="resetDef">
    <use xlink:href="#rim2" fill="#404040"><set attributeName="fill" to="#808080" begin="reset.mouseover" end="reset.mouseout"/></use>
  </g>
</defs>
<script type="application/ecmascript">
var viewWidth = 665;
var viewHeight = 326;
var sectionId = 'dynsection-21';
</script>
<script type="application/ecmascript" xlink:href="svg.min.js"/>
<svg id="graph" class="graph">
<g id="viewport">
<title>process_outer_pkt</title>
<!-- Node1 -->
<g id="Node000001" class="node">
<title>Node1</title>
<g id="a_Node000001"><a xlink:title=" ">
<polygon fill="#999999" stroke="#666666" points="97,-150 0,-150 0,-131 97,-131 97,-150"/>
<text text-anchor="middle" x="48.5" y="-138" font-family="Helvetica,sans-Serif" font-size="10.00" fill="#000000">process_outer_pkt</text>
</a>
</g>
</g>
<!-- Node2 -->
<g id="Node000002" class="node">
<title>Node2</title>
<g id="a_Node000002"><a xlink:href="potrRecvThread_8c.html#a25a97682fd79b97dfa94ebc3a374a326" target="_top" xlink:title=" ">
<polygon fill="#ffffff" stroke="#666666" points="247,-244 149,-244 149,-225 247,-225 247,-244"/>
<text text-anchor="middle" x="198" y="-232" font-family="Helvetica,sans-Serif" font-size="10.00" fill="#000000">drain_recv_window</text>
</a>
</g>
</g>
<!-- Node1&#45;&gt;Node2 -->
<g id="edge1_Node000001_Node000002" class="edge">
<title>Node1&#45;&gt;Node2</title>
<g id="a_edge1_Node000001_Node000002"><a xlink:title=" ">
<path fill="none" stroke="#63b8ff" d="M63.6576,-150.0305C89.7371,-166.4283 143.2793,-200.0937 174.3169,-219.6089"/>
<polygon fill="#63b8ff" stroke="#63b8ff" points="172.4736,-222.5843 182.8023,-224.9443 176.1997,-216.6584 172.4736,-222.5843"/>
</a>
</g>
</g>
<!-- Node10 -->
<g id="Node000010" class="node">
<title>Node10</title>
<g id="a_Node000010"><a xlink:href="potrRecvThread_8c.html#aeab28b0e8d42c5c5e28e69bf70074990" target="_top" xlink:title=" ">
<polygon fill="#ffffff" stroke="#666666" points="230,-56 166,-56 166,-37 230,-37 230,-56"/>
<text text-anchor="middle" x="198" y="-44" font-family="Helvetica,sans-Serif" font-size="10.00" fill="#000000">send_nack</text>
</a>
</g>
</g>
<!-- Node1&#45;&gt;Node10 -->
<g id="edge9_Node000001_Node000010" class="edge">
<title>Node1&#45;&gt;Node10</title>
<g id="a_edge9_Node000001_Node000010"><a xlink:title=" ">
<path fill="none" stroke="#63b8ff" d="M63.6576,-130.9695C89.7371,-114.5717 143.2793,-80.9063 174.3169,-61.3911"/>
<polygon fill="#63b8ff" stroke="#63b8ff" points="176.1997,-64.3416 182.8023,-56.0557 172.4736,-58.4157 176.1997,-64.3416"/>
</a>
</g>
</g>
<!-- Node15 -->
<g id="Node000015" class="node">
<title>Node15</title>
<g id="a_Node000015"><a xlink:href="window_8c.html#a6ecfb9f52ac33918ba6f8cd0386b17c2" target="_top" xlink:title="受信ウィンドウで欠番が発生しているか確認し、NACK 番号を返します。">
<polygon fill="#ffffff" stroke="#666666" points="263,-169 133,-169 133,-150 263,-150 263,-169"/>
<text text-anchor="middle" x="198" y="-157" font-family="Helvetica,sans-Serif" font-size="10.00" fill="#000000">window_recv_needs_nack</text>
</a>
</g>
</g>
<!-- Node1&#45;&gt;Node15 -->
<g id="edge14_Node000001_Node000015" class="edge">
<title>Node1&#45;&gt;Node15</title>
<g id="a_edge14_Node000001_Node000015"><a xlink:title=" ">
<path fill="none" stroke="#63b8ff" d="M97.0384,-146.6688C105.25,-147.7124 113.9448,-148.8174 122.6504,-149.9238"/>
<polygon fill="#63b8ff" stroke="#63b8ff" points="122.4852,-153.4309 132.8467,-151.2197 123.3678,-146.4867 122.4852,-153.4309"/>
</a>
</g>
</g>
<!-- Node16 -->
<g id="Node000016" class="node">
<title>Node16</title>
<g id="a_Node000016"><a xlink:href="window_8c.html#ac134e864859663f32389cf30fe55bc6e" target="_top" xlink:title="受信ウィンドウにパケットを格納します。">
<polygon fill="#ffffff" stroke="#666666" points="247,-131 149,-131 149,-112 247,-112 247,-131"/>
<text text-anchor="middle" x="198" y="-119" font-family="Helvetica,sans-Serif" font-size="10.00" fill="#000000">window_recv_push</text>
</a>
</g>
</g>
<!-- Node1&#45;&gt;Node16 -->
<g id="edge16_Node000001_Node000016" class="edge">
<title>Node1&#45;&gt;Node16</title>
<g id="a_edge16_Node000001_Node000016"><a xlink:title=" ">
<path fill="none" stroke="#63b8ff" d="M97.0384,-134.3312C110.4168,-132.631 125.0779,-130.7677 138.9788,-129.001"/>
<polygon fill="#63b8ff" stroke="#63b8ff" points="139.4584,-132.4683 148.9373,-127.7354 138.5758,-125.5242 139.4584,-132.4683"/>
</a>
</g>
</g>
<!-- Node3 -->
<g id="Node000003" class="node">
<title>Node3</title>
<g id="a_Node000003"><a xlink:href="potrRecvThread_8c.html#ae3c092bf9cdbee7a84a5ee97cb550930" target="_top" xlink:title=" ">
<polygon fill="#ffffff" stroke="#666666" points="409,-318 299,-318 299,-299 409,-299 409,-318"/>
<text text-anchor="middle" x="354" y="-306" font-family="Helvetica,sans-Serif" font-size="10.00" fill="#000000">deliver_payload_elem</text>
</a>
</g>
</g>
<!-- Node2&#45;&gt;Node3 -->
<g id="edge2_Node000002_Node000003" class="edge">
<title>Node2&#45;&gt;Node3</title>
<g id="a_edge2_Node000002_Node000003"><a xlink:title=" ">
<path fill="none" stroke="#63b8ff" d="M213.2767,-244.1782C232.6631,-256.1734 267.3902,-276.7136 299,-290.5 303.0995,-292.288 307.4364,-293.9984 311.8041,-295.6042"/>
<polygon fill="#63b8ff" stroke="#63b8ff" points="310.74,-298.9399 321.3348,-298.9419 313.0537,-292.3333 310.74,-298.9399"/>
</a>
</g>
</g>
<!-- Node6 -->
<g id="Node000006" class="node">
<title>Node6</title>
<g id="a_Node000006"><a xlink:href="potrRecvThread_8c.html#adbd11557ab385826d115d2a5eea41e7a" target="_top" xlink:title=" ">
<polygon fill="#ffffff" stroke="#666666" points="403,-281 305,-281 305,-262 403,-262 403,-281"/>
<text text-anchor="middle" x="354" y="-269" font-family="Helvetica,sans-Serif" font-size="10.00" fill="#000000">notify_health_alive</text>
</a>
</g>
</g>
<!-- Node2&#45;&gt;Node6 -->
<g id="edge5_Node000002_Node000006" class="edge">
<title>Node2&#45;&gt;Node6</title>
<g id="a_edge5_Node000002_Node000006"><a xlink:title=" ">
<path fill="none" stroke="#63b8ff" d="M238.1739,-244.0284C258.203,-248.7789 282.6227,-254.5708 303.867,-259.6095"/>
<polygon fill="#63b8ff" stroke="#63b8ff" points="303.1536,-263.0373 313.6914,-261.9396 304.7691,-256.2263 303.1536,-263.0373"/>
</a>
</g>
</g>
<!-- Node7 -->
<g id="Node000007" class="node">
<title>Node7</title>
<g id="a_Node000007"><a xlink:href="packet_8c.html#a794632611e7b50ce887e971786a0d5a3" target="_top" xlink:title="データパケットから次のペイロードエレメントを取り出します。">
<polygon fill="#ffffff" stroke="#666666" points="407.5,-244 300.5,-244 300.5,-225 407.5,-225 407.5,-244"/>
<text text-anchor="middle" x="354" y="-232" font-family="Helvetica,sans-Serif" font-size="10.00" fill="#000000">packet_unpack_next</text>
</a>
</g>
</g>
<!-- Node2&#45;&gt;Node7 -->
<g id="edge6_Node000002_Node000007" class="edge">
<title>Node2&#45;&gt;Node7</title>
<g id="a_edge6_Node000002_Node000007"><a xlink:title=" ">
<path fill="none" stroke="#63b8ff" d="M247.3594,-234.5C260.9352,-234.5 275.8551,-234.5 290.1229,-234.5"/>
<polygon fill="#63b8ff" stroke="#63b8ff" points="290.3683,-238.0001 300.3682,-234.5 290.3682,-231.0001 290.3683,-238.0001"/>
</a>
</g>
</g>
<!-- Node8 -->
<g id="Node000008" class="node">
<title>Node8</title>
<g id="a_Node000008"><a xlink:href="window_8c.html#a883a182a547ff084957069939b131527" target="_top" xlink:title="受信ウィンドウから順序整列済みパケットを取り出します。">
<polygon fill="#ffffff" stroke="#666666" points="400.5,-207 307.5,-207 307.5,-188 400.5,-188 400.5,-207"/>
<text text-anchor="middle" x="354" y="-195" font-family="Helvetica,sans-Serif" font-size="10.00" fill="#000000">window_recv_pop</text>
</a>
</g>
</g>
<!-- Node2&#45;&gt;Node8 -->
<g id="edge7_Node000002_Node000008" class="edge">
<title>Node2&#45;&gt;Node8</title>
<g id="a_edge7_Node000002_Node000008"><a xlink:title=" ">
<path fill="none" stroke="#63b8ff" d="M238.1739,-224.9716C258.203,-220.2211 282.6227,-214.4292 303.867,-209.3905"/>
<polygon fill="#63b8ff" stroke="#63b8ff" points="304.7691,-212.7737 313.6914,-207.0604 303.1536,-205.9627 304.7691,-212.7737"/>
</a>
</g>
</g>
<!-- Node4 -->
<g id="Node000004" class="node">
<title>Node4</title>
<g id="a_Node000004"><a xlink:href="potrRecvThread_8c.html#a6c210bf450de8b4bc7b00a665ab436f9" target="_top" xlink:title=" ">
<polygon fill="#ffffff" stroke="#666666" points="521.5,-318 452.5,-318 452.5,-299 521.5,-299 521.5,-318"/>
<text text-anchor="middle" x="487" y="-306" font-family="Helvetica,sans-Serif" font-size="10.00" fill="#000000">recv_deliver</text>
</a>
</g>
</g>
<!-- Node3&#45;&gt;Node4 -->
<g id="edge3_Node000003_Node000004" class="edge">
<title>Node3&#45;&gt;Node4</title>
<g id="a_edge3_Node000003_Node000004"><a xlink:title=" ">
<path fill="none" stroke="#63b8ff" d="M409.2485,-308.5C420.1682,-308.5 431.5047,-308.5 442.0339,-308.5"/>
<polygon fill="#63b8ff" stroke="#63b8ff" points="442.2486,-312.0001 452.2485,-308.5 442.2485,-305.0001 442.2486,-312.0001"/>
</a>
</g>
</g>
<!-- Node5 -->
<g id="Node000005" class="node">
<title>Node5</title>
<g id="a_Node000005"><a xlink:href="compress__linux_8c.html#a9b4c1ab5034e8a243544747d2efdcd21" target="_top" xlink:title="圧縮データを解凍します。">
<polygon fill="#ffffff" stroke="#666666" points="657,-318 565,-318 565,-299 657,-299 657,-318"/>
<text text-anchor="middle" x="611" y="-306" font-family="Helvetica,sans-Serif" font-size="10.00" fill="#000000">potr_decompress</text>
</a>
</g>
</g>
<!-- Node4&#45;&gt;Node5 -->
<g id="edge4_Node000004_Node000005" class="edge">
<title>Node4&#45;&gt;Node5</title>
<g id="a_edge4_Node000004_Node000005"><a xlink:title=" ">
<path fill="none" stroke="#63b8ff" d="M521.5409,-308.5C531.7459,-308.5 543.1947,-308.5 554.406,-308.5"/>
<polygon fill="#63b8ff" stroke="#63b8ff" points="554.5928,-312.0001 564.5928,-308.5 554.5927,-305.0001 554.5928,-312.0001"/>
</a>
</g>
</g>
<!-- Node9 -->
<g id="Node000009" class="node">
<title>Node9</title>
<g id="a_Node000009"><a xlink:href="window_8c.html#ad5f53882d6cd6075a78e83b94fb62cc3" target="_top" xlink:title=" ">
<polygon fill="#ffffff" stroke="#666666" points="516.5,-169 457.5,-169 457.5,-150 516.5,-150 516.5,-169"/>
<text text-anchor="middle" x="487" y="-157" font-family="Helvetica,sans-Serif" font-size="10.00" fill="#000000">win_index</text>
</a>
</g>
</g>
<!-- Node8&#45;&gt;Node9 -->
<g id="edge8_Node000008_Node000009" class="edge">
<title>Node8&#45;&gt;Node9</title>
<g id="a_edge8_Node000008_Node000009"><a xlink:title=" ">
<path fill="none" stroke="#63b8ff" d="M387.5615,-187.911C405.6955,-182.7299 428.2012,-176.2996 447.2132,-170.8677"/>
<polygon fill="#63b8ff" stroke="#63b8ff" points="448.426,-174.1613 457.0797,-168.0487 446.5029,-167.4306 448.426,-174.1613"/>
</a>
</g>
</g>
<!-- Node11 -->
<g id="Node000011" class="node">
<title>Node11</title>
<g id="a_Node000011"><a xlink:href="packet_8c.html#a3f4ec3e4fc9c07b3704ecd8ae082af10" target="_top" xlink:title="NACK パケットを構築します。">
<polygon fill="#ffffff" stroke="#666666" points="403,-56 305,-56 305,-37 403,-37 403,-56"/>
<text text-anchor="middle" x="354" y="-44" font-family="Helvetica,sans-Serif" font-size="10.00" fill="#000000">packet_build_nack</text>
</a>
</g>
</g>
<!-- Node10&#45;&gt;Node11 -->
<g id="edge10_Node000010_Node000011" class="edge">
<title>Node10&#45;&gt;Node11</title>
<g id="a_edge10_Node000010_Node000011"><a xlink:title=" ">
<path fill="none" stroke="#63b8ff" d="M230.3233,-46.5C248.8908,-46.5 272.7899,-46.5 294.6219,-46.5"/>
<polygon fill="#63b8ff" stroke="#63b8ff" points="294.8096,-50.0001 304.8096,-46.5 294.8096,-43.0001 294.8096,-50.0001"/>
</a>
</g>
</g>
<!-- Node14 -->
<g id="Node000014" class="node">
<title>Node14</title>
<g id="a_Node000014"><a xlink:href="packet_8c.html#aee7ebc74dbbe67fa4c9bcdced8dca70c" target="_top" xlink:title="パケットのヘッダー + ペイロードの合計バイト数を返します。">
<polygon fill="#ffffff" stroke="#666666" points="400,-19 308,-19 308,0 400,0 400,-19"/>
<text text-anchor="middle" x="354" y="-7" font-family="Helvetica,sans-Serif" font-size="10.00" fill="#000000">packet_wire_size</text>
</a>
</g>
</g>
<!-- Node10&#45;&gt;Node14 -->
<g id="edge13_Node000010_Node000014" class="edge">
<title>Node10&#45;&gt;Node14</title>
<g id="a_edge13_Node000010_Node000014"><a xlink:title=" ">
<path fill="none" stroke="#63b8ff" d="M230.3233,-38.8336C251.4855,-33.8143 279.5737,-27.1524 303.6334,-21.4459"/>
<polygon fill="#63b8ff" stroke="#63b8ff" points="304.7437,-24.7798 313.6661,-19.0664 303.1283,-17.9687 304.7437,-24.7798"/>
</a>
</g>
</g>
<!-- Node12 -->
<g id="Node000012" class="node">
<title>Node12</title>
<g id="a_Node000012"><a xlink:href="packet_8c.html#a479088cf3b9ccf5ebe8891ad2881b196" target="_top" xlink:title=" ">
<polygon fill="#ffffff" stroke="#666666" points="529,-56 445,-56 445,-37 529,-37 529,-56"/>
<text text-anchor="middle" x="487" y="-44" font-family="Helvetica,sans-Serif" font-size="10.00" fill="#000000">fill_session_hdr</text>
</a>
</g>
</g>
<!-- Node11&#45;&gt;Node12 -->
<g id="edge11_Node000011_Node000012" class="edge">
<title>Node11&#45;&gt;Node12</title>
<g id="a_edge11_Node000011_Node000012"><a xlink:title=" ">
<path fill="none" stroke="#63b8ff" d="M403.1464,-46.5C413.3581,-46.5 424.1567,-46.5 434.4841,-46.5"/>
<polygon fill="#63b8ff" stroke="#63b8ff" points="434.6152,-50.0001 444.6152,-46.5 434.6152,-43.0001 434.6152,-50.0001"/>
</a>
</g>
</g>
<!-- Node13 -->
<g id="Node000013" class="node">
<title>Node13</title>
<g id="a_Node000013"><a xlink:href="packet_8c.html#a6564ae80f665edd6931ef662818e19b0" target="_top" xlink:title=" ">
<polygon fill="#ffffff" stroke="#666666" points="634,-56 588,-56 588,-37 634,-37 634,-56"/>
<text text-anchor="middle" x="611" y="-44" font-family="Helvetica,sans-Serif" font-size="10.00" fill="#000000">hton64</text>
</a>
</g>
</g>
<!-- Node12&#45;&gt;Node13 -->
<g id="edge12_Node000012_Node000013" class="edge">
<title>Node12&#45;&gt;Node13</title>
<g id="a_edge12_Node000012_Node000013"><a xlink:title=" ">
<path fill="none" stroke="#63b8ff" d="M529.3269,-46.5C545.1348,-46.5 562.8462,-46.5 577.7245,-46.5"/>
<polygon fill="#63b8ff" stroke="#63b8ff" points="577.9898,-50.0001 587.9898,-46.5 577.9898,-43.0001 577.9898,-50.0001"/>
</a>
</g>
</g>
<!-- Node15&#45;&gt;Node9 -->
<g id="edge15_Node000015_Node000009" class="edge">
<title>Node15&#45;&gt;Node9</title>
<g id="a_edge15_Node000015_Node000009"><a xlink:title=" ">
<path fill="none" stroke="#63b8ff" d="M263.2176,-159.5C319.7101,-159.5 399.6183,-159.5 447.0891,-159.5"/>
<polygon fill="#63b8ff" stroke="#63b8ff" points="447.2791,-163.0001 457.2791,-159.5 447.279,-156.0001 447.2791,-163.0001"/>
</a>
</g>
</g>
<!-- Node16&#45;&gt;Node9 -->
<g id="edge18_Node000016_Node000009" class="edge">
<title>Node16&#45;&gt;Node9</title>
<g id="a_edge18_Node000016_Node000009"><a xlink:title=" ">
<path fill="none" stroke="#63b8ff" d="M247.0249,-127.9462C303.3723,-135.3552 394.7783,-147.374 447.0104,-154.2419"/>
<polygon fill="#63b8ff" stroke="#63b8ff" points="446.8527,-157.7512 457.2237,-155.5848 447.7654,-150.8109 446.8527,-157.7512"/>
</a>
</g>
</g>
<!-- Node17 -->
<g id="Node000017" class="node">
<title>Node17</title>
<g id="a_Node000017"><a xlink:href="seqnum_8c.html#a45fcfa48b2d66889a5b9b8f63650336a" target="_top" xlink:title="通番 seq がウィンドウ [base, base + window_size) に含まれるか判定します。">
<polygon fill="#ffffff" stroke="#666666" points="404.5,-93 303.5,-93 303.5,-74 404.5,-74 404.5,-93"/>
<text text-anchor="middle" x="354" y="-81" font-family="Helvetica,sans-Serif" font-size="10.00" fill="#000000">seqnum_in_window</text>
</a>
</g>
</g>
<!-- Node16&#45;&gt;Node17 -->
<g id="edge17_Node000016_Node000017" class="edge">
<title>Node16&#45;&gt;Node17</title>
<g id="a_edge17_Node000016_Node000017"><a xlink:title=" ">
<path fill="none" stroke="#63b8ff" d="M237.3654,-111.911C257.9513,-106.8965 283.3405,-100.7119 305.169,-95.3947"/>
<polygon fill="#63b8ff" stroke="#63b8ff" points="306.0302,-98.7874 314.9177,-93.0201 304.3734,-91.9863 306.0302,-98.7874"/>
</a>
</g>
</g>
</g>
</svg>

<g id="navigator" transform="translate(0 0)" fill="#404254">
  <rect fill="#f2f5e9" fill-opacity="0.5" stroke="#606060" stroke-width=".5" x="0" y="0" width="60" height="60"/>
  <use id="zoomplus" xlink:href="#zoomPlus" x="17" y="9" onmousedown="handleZoom(evt,'in')"/>
  <use id="zoomminus" xlink:href="#zoomMin" x="42" y="9" onmousedown="handleZoom(evt,'out')"/>
  <use id="reset" xlink:href="#resetDef" x="30" y="36" onmousedown="handleReset()"/>
   <use id="arrowup" xlink:href="#arrowUp" x="0" y="0" onmousedown="handlePan(0,-1)"/>
  <use id="arrowright" xlink:href="#arrowRight" x="0" y="0" onmousedown="handlePan(1,0)"/>
  <use id="arrowdown" xlink:href="#arrowDown" x="0" y="0" onmousedown="handlePan(0,1)"/>
  <use id="arrowleft" xlink:href="#arrowLeft" x="0" y="0" onmousedown="handlePan(-1,0)"/>
</g>
<svg viewBox="0 0 15 15" width="100%" height="30px" preserveAspectRatio="xMaxYMin meet">
 <g id="arrow_out" transform="scale(0.3 0.3)">
  <a xlink:href="potrRecvThread_8c_a69c2cb6947b8a810bb95585972a60e09_cgraph_org.svg" target="_base">
   <rect id="button" ry="5" rx="5" y="6" x="6" height="38" width="38"
        fill="#f2f5e9" fill-opacity="0.5" stroke="#606060" stroke-width="1.0"/>
   <path id="arrow"
     d="M 11.500037,31.436501 C 11.940474,20.09759 22.043105,11.32322 32.158766,21.979434 L 37.068811,17.246167 C 37.068811,17.246167 37.088388,32 37.088388,32 L 22.160133,31.978069 C 22.160133,31.978069 26.997745,27.140456 26.997745,27.140456 C 18.528582,18.264221 13.291696,25.230495 11.500037,31.436501 z"
     style="fill:#404040;"/>
  </a>
 </g>
</svg>

<style type='text/css'>
<![CDATA[
[data-mouse-over-selected='false'] { opacity: 0.7; }
[data-mouse-over-selected='true']  { opacity: 1.0; }
]]>
</style>
<script type="application/ecmascript"><![CDATA[
document.addEventListener('DOMContentLoaded', (event) => {
  highlightEdges();
  highlightAdjacentNodes();
});
]]></script>
</svg>
