<?xml version="1.0" encoding="UTF-8" standalone="no"?>
<!DOCTYPE svg PUBLIC "-//W3C//DTD SVG 1.1//EN"
 "http://www.w3.org/Graphics/SVG/1.1/DTD/svg11.dtd">
<!-- Generated by graphviz version 2.40.1 (0)
 -->
<!-- Title: porter/libsrc/porter/thread/potrRecvThread.c Pages: 1 -->
<!--zoomable 313 -->

<svg id="main" version="1.1" xmlns="http://www.w3.org/2000/svg" xmlns:xlink="http://www.w3.org/1999/xlink" xml:space="preserve" onload="init(evt)">

<style type="text/css"><![CDATA[
.node, .edge {opacity: 0.7;}
.node.selected, .edge.selected {opacity: 1;}
.edge:hover path { stroke: red; }
.edge:hover polygon { stroke: red; fill: red; }
]]></style>

<defs>
  <circle id="rim" cx="0" cy="0" r="7"/>
  <circle id="rim2" cx="0" cy="0" r="3.5"/>
  <g id="zoomPlus">
    <use xlink:href="#rim" fill="#404040"><set attributeName="fill" to="#808080" begin="zoomplus.mouseover" end="zoomplus.mouseout"/></use>
    <path d="M-4,0h8M0,-4v8" fill="none" stroke="white" stroke-width="1.5" pointer-events="none"/>
  </g>
  <g id="zoomMin">
    <use xlink:href="#rim" fill="#404040"><set attributeName="fill" to="#808080" begin="zoomminus.mouseover" end="zoomminus.mouseout"/></use>
    <path d="M-4,0h8" fill="none" stroke="white" stroke-width="1.5" pointer-events="none"/>
  </g>
  <g id="arrowUp" transform="translate(30 24)">
    <use xlink:href="#rim"/>
    <path pointer-events="none" fill="none" stroke="white" stroke-width="1.5" d="M0,-3.0v7 M-2.5,-0.5L0,-3.0L2.5,-0.5"/>
  </g>
  <g id="arrowRight" transform="rotate(90) translate(36 -43)">
    <use xlink:href="#rim"/>
    <path pointer-events="none" fill="none" stroke="white" stroke-width="1.5" d="M0,-3.0v7 M-2.5,-0.5L0,-3.0L2.5,-0.5"/>
  </g>
  <g id="arrowDown" transform="rotate(180) translate(-30 -48)">
    <use xlink:href="#rim"/>
    <path pointer-events="none" fill="none" stroke="white" stroke-width="1.5" d="M0,-3.0v7 M-2.5,-0.5L0,-3.0L2.5,-0.5"/>
  </g>
  <g id="arrowLeft" transform="rotate(270) translate(-36 17)">
    <use xlink:href="#rim"/>
    <path pointer-events="none" fill="none" stroke="white" stroke-width="1.5" d="M0,-3.0v7 M-2.5,-0.5L0,-3.0L2.5,-0.5"/>
  </g>
  <g id="resetDef">
    <use xlink:href="#rim2" fill="#404040"><set attributeName="fill" to="#808080" begin="reset.mouseover" end="reset.mouseout"/></use>
  </g>
</defs>
<script type="application/ecmascript">
var viewWidth = 1204;
var viewHeight = 313;
var sectionId = 'dynsection-0';
</script>
<script type="application/ecmascript" xlink:href="svg.min.js"/>
<svg id="graph" class="graph">
<g id="viewport">
<title>porter/libsrc/porter/thread/potrRecvThread.c</title>
<!-- Node1 -->
<g id="Node000001" class="node">
<title>Node1</title>
<g id="a_Node000001"><a xlink:title="受信スレッドモジュール。">
<polygon fill="#999999" stroke="#666666" points="636,-305 509,-305 509,-275 636,-275 636,-305"/>
<text text-anchor="start" x="517" y="-293" font-family="Helvetica,sans-Serif" font-size="10.00" fill="#000000">porter/libsrc/porter</text>
<text text-anchor="middle" x="572.5" y="-282" font-family="Helvetica,sans-Serif" font-size="10.00" fill="#000000">/thread/potrRecvThread.c</text>
</a>
</g>
</g>
<!-- Node2 -->
<g id="Node000002" class="node">
<title>Node2</title>
<g id="a_Node000002"><a xlink:title=" ">
<polygon fill="#e0e0e0" stroke="#999999" points="49,-239 0,-239 0,-220 49,-220 49,-239"/>
<text text-anchor="middle" x="24.5" y="-227" font-family="Helvetica,sans-Serif" font-size="10.00" fill="#000000">string.h</text>
</a>
</g>
</g>
<!-- Node1&#45;&gt;Node2 -->
<g id="edge1_Node000001_Node000002" class="edge">
<title>Node1&#45;&gt;Node2</title>
<g id="a_edge1_Node000001_Node000002"><a xlink:title=" ">
<path fill="none" stroke="#63b8ff" d="M508.9413,-287.4206C413.0797,-282.7137 225.812,-270.3411 59.1818,-239.0403"/>
<polygon fill="#63b8ff" stroke="#63b8ff" points="59.7278,-235.5815 49.2493,-237.1472 58.4171,-242.4577 59.7278,-235.5815"/>
</a>
</g>
</g>
<!-- Node3 -->
<g id="Node000003" class="node">
<title>Node3</title>
<g id="a_Node000003"><a xlink:title=" ">
<polygon fill="#e0e0e0" stroke="#999999" points="140,-239 67,-239 67,-220 140,-220 140,-239"/>
<text text-anchor="middle" x="103.5" y="-227" font-family="Helvetica,sans-Serif" font-size="10.00" fill="#000000">sys/socket.h</text>
</a>
</g>
</g>
<!-- Node1&#45;&gt;Node3 -->
<g id="edge2_Node000001_Node000003" class="edge">
<title>Node1&#45;&gt;Node3</title>
<g id="a_edge2_Node000001_Node000003"><a xlink:title=" ">
<path fill="none" stroke="#63b8ff" d="M508.8441,-284.0018C427.8866,-275.9993 283.6036,-260.4882 150.1078,-238.9744"/>
<polygon fill="#63b8ff" stroke="#63b8ff" points="150.5392,-235.4987 140.107,-237.348 149.4155,-242.4079 150.5392,-235.4987"/>
</a>
</g>
</g>
<!-- Node4 -->
<g id="Node000004" class="node">
<title>Node4</title>
<g id="a_Node000004"><a xlink:title=" ">
<polygon fill="#e0e0e0" stroke="#999999" points="228.5,-239 158.5,-239 158.5,-220 228.5,-220 228.5,-239"/>
<text text-anchor="middle" x="193.5" y="-227" font-family="Helvetica,sans-Serif" font-size="10.00" fill="#000000">sys/select.h</text>
</a>
</g>
</g>
<!-- Node1&#45;&gt;Node4 -->
<g id="edge3_Node000001_Node000004" class="edge">
<title>Node1&#45;&gt;Node4</title>
<g id="a_edge3_Node000001_Node000004"><a xlink:title=" ">
<path fill="none" stroke="#63b8ff" d="M508.811,-280.8934C442.2628,-271.2057 334.8791,-255.0875 242.5,-239 241.2275,-238.7784 239.937,-238.5504 238.635,-238.3175"/>
<polygon fill="#63b8ff" stroke="#63b8ff" points="239.0018,-234.8263 228.5338,-236.4607 237.7363,-241.711 239.0018,-234.8263"/>
</a>
</g>
</g>
<!-- Node5 -->
<g id="Node000005" class="node">
<title>Node5</title>
<g id="a_Node000005"><a xlink:title=" ">
<polygon fill="#e0e0e0" stroke="#999999" points="650,-129 585,-129 585,-110 650,-110 650,-129"/>
<text text-anchor="middle" x="617.5" y="-117" font-family="Helvetica,sans-Serif" font-size="10.00" fill="#000000">netinet/in.h</text>
</a>
</g>
</g>
<!-- Node1&#45;&gt;Node5 -->
<g id="edge4_Node000001_Node000005" class="edge">
<title>Node1&#45;&gt;Node5</title>
<g id="a_edge4_Node000001_Node000005"><a xlink:title=" ">
<path fill="none" stroke="#63b8ff" d="M583.9307,-274.8826C598.0013,-255.2011 621.0675,-219.1506 629.5,-184 633.1119,-168.9438 629.5043,-151.6906 625.326,-138.819"/>
<polygon fill="#63b8ff" stroke="#63b8ff" points="628.5299,-137.3875 621.8279,-129.1817 621.95,-139.7759 628.5299,-137.3875"/>
</a>
</g>
</g>
<!-- Node6 -->
<g id="Node000006" class="node">
<title>Node6</title>
<g id="a_Node000006"><a xlink:title=" ">
<polygon fill="#e0e0e0" stroke="#999999" points="346.5,-239 284.5,-239 284.5,-220 346.5,-220 346.5,-239"/>
<text text-anchor="middle" x="315.5" y="-227" font-family="Helvetica,sans-Serif" font-size="10.00" fill="#000000">arpa/inet.h</text>
</a>
</g>
</g>
<!-- Node1&#45;&gt;Node6 -->
<g id="edge5_Node000001_Node000006" class="edge">
<title>Node1&#45;&gt;Node6</title>
<g id="a_edge5_Node000001_Node000006"><a xlink:title=" ">
<path fill="none" stroke="#63b8ff" d="M508.8727,-275.0875C467.9832,-265.4945 413.4535,-252.6838 356.4272,-239.2154"/>
<polygon fill="#63b8ff" stroke="#63b8ff" points="357.044,-235.7648 346.5072,-236.8718 355.4345,-242.5773 357.044,-235.7648"/>
</a>
</g>
</g>
<!-- Node7 -->
<g id="Node000007" class="node">
<title>Node7</title>
<g id="a_Node000007"><a xlink:title=" ">
<polygon fill="#e0e0e0" stroke="#999999" points="416,-239 365,-239 365,-220 416,-220 416,-239"/>
<text text-anchor="middle" x="390.5" y="-227" font-family="Helvetica,sans-Serif" font-size="10.00" fill="#000000">unistd.h</text>
</a>
</g>
</g>
<!-- Node1&#45;&gt;Node7 -->
<g id="edge6_Node000001_Node000007" class="edge">
<title>Node1&#45;&gt;Node7</title>
<g id="a_edge6_Node000001_Node000007"><a xlink:title=" ">
<path fill="none" stroke="#63b8ff" d="M527.0432,-274.8894C495.6803,-264.4638 454.5931,-250.8057 425.7126,-241.2053"/>
<polygon fill="#63b8ff" stroke="#63b8ff" points="426.6357,-237.8239 416.0422,-237.9907 424.4276,-244.4665 426.6357,-237.8239"/>
</a>
</g>
</g>
<!-- Node8 -->
<g id="Node000008" class="node">
<title>Node8</title>
<g id="a_Node000008"><a xlink:title=" ">
<polygon fill="#e0e0e0" stroke="#999999" points="478.5,-239 434.5,-239 434.5,-220 478.5,-220 478.5,-239"/>
<text text-anchor="middle" x="456.5" y="-227" font-family="Helvetica,sans-Serif" font-size="10.00" fill="#000000">time.h</text>
</a>
</g>
</g>
<!-- Node1&#45;&gt;Node8 -->
<g id="edge7_Node000001_Node000008" class="edge">
<title>Node1&#45;&gt;Node8</title>
<g id="a_edge7_Node000001_Node000008"><a xlink:title=" ">
<path fill="none" stroke="#63b8ff" d="M543.5275,-274.8894C525.4088,-265.4395 502.1981,-253.3339 484.3045,-244.0015"/>
<polygon fill="#63b8ff" stroke="#63b8ff" points="485.4618,-240.6577 474.9767,-239.1366 482.2247,-246.8643 485.4618,-240.6577"/>
</a>
</g>
</g>
<!-- Node9 -->
<g id="Node000009" class="node">
<title>Node9</title>
<g id="a_Node000009"><a xlink:title=" ">
<polygon fill="#e0e0e0" stroke="#999999" points="544,-239 497,-239 497,-220 544,-220 544,-239"/>
<text text-anchor="middle" x="520.5" y="-227" font-family="Helvetica,sans-Serif" font-size="10.00" fill="#000000">errno.h</text>
</a>
</g>
</g>
<!-- Node1&#45;&gt;Node9 -->
<g id="edge8_Node000001_Node000009" class="edge">
<title>Node1&#45;&gt;Node9</title>
<g id="a_edge8_Node000001_Node000009"><a xlink:title=" ">
<path fill="none" stroke="#63b8ff" d="M559.3782,-274.7333C552.0821,-266.2446 542.9759,-255.6498 535.4109,-246.8483"/>
<polygon fill="#63b8ff" stroke="#63b8ff" points="537.9121,-244.3887 528.7396,-239.0864 532.6035,-248.9515 537.9121,-244.3887"/>
</a>
</g>
</g>
<!-- Node10 -->
<g id="Node000010" class="node">
<title>Node10</title>
<g id="a_Node000010"><a xlink:href="porter__const_8h.html" target="_top" xlink:title="通信ライブラリの定数ファイル。">
<polygon fill="#ffffff" stroke="#666666" points="974,-19 895,-19 895,0 974,0 974,-19"/>
<text text-anchor="middle" x="934.5" y="-7" font-family="Helvetica,sans-Serif" font-size="10.00" fill="#000000">porter_const.h</text>
</a>
</g>
</g>
<!-- Node1&#45;&gt;Node10 -->
<g id="edge9_Node000001_Node000010" class="edge">
<title>Node1&#45;&gt;Node10</title>
<g id="a_edge9_Node000001_Node000010"><a xlink:title=" ">
<path fill="none" stroke="#63b8ff" d="M636.2442,-284.8371C795.0259,-271.1248 1195.5,-230.9452 1195.5,-174.5 1195.5,-174.5 1195.5,-174.5 1195.5,-119.5 1195.5,-89.6154 1198.6676,-75.0421 1176.5,-55 1148.8645,-30.0142 1046.6803,-17.9598 984.2705,-12.8104"/>
<polygon fill="#63b8ff" stroke="#63b8ff" points="984.4827,-9.3163 974.2369,-12.0135 983.9284,-16.2943 984.4827,-9.3163"/>
</a>
</g>
</g>
<!-- Node11 -->
<g id="Node000011" class="node">
<title>Node11</title>
<g id="a_Node000011"><a xlink:href="packet_8h.html" target="_top" xlink:title="パケット構築・解析モジュールの内部ヘッダー。">
<polygon fill="#ffffff" stroke="#666666" points="528,-129 427,-129 427,-110 528,-110 528,-129"/>
<text text-anchor="middle" x="477.5" y="-117" font-family="Helvetica,sans-Serif" font-size="10.00" fill="#000000">../protocol/packet.h</text>
</a>
</g>
</g>
<!-- Node1&#45;&gt;Node11 -->
<g id="edge10_Node000001_Node000011" class="edge">
<title>Node1&#45;&gt;Node11</title>
<g id="a_edge10_Node000001_Node000011"><a xlink:title=" ">
<path fill="none" stroke="#63b8ff" d="M569.9915,-274.8739C567.1544,-260.2386 561.6899,-237.7295 552.5,-220 543.0451,-201.7592 535.9146,-200.3707 523.5,-184 511.8636,-168.6555 499.1956,-150.8014 490.1052,-137.7731"/>
<polygon fill="#63b8ff" stroke="#63b8ff" points="492.7622,-135.4628 484.1843,-129.2442 487.012,-139.4548 492.7622,-135.4628"/>
</a>
</g>
</g>
<!-- Node15 -->
<g id="Node000015" class="node">
<title>Node15</title>
<g id="a_Node000015"><a xlink:href="seqnum_8h.html" target="_top" xlink:title="通番管理モジュールの内部ヘッダー。">
<polygon fill="#ffffff" stroke="#666666" points="345.5,-184 239.5,-184 239.5,-165 345.5,-165 345.5,-184"/>
<text text-anchor="middle" x="292.5" y="-172" font-family="Helvetica,sans-Serif" font-size="10.00" fill="#000000">../protocol/seqnum.h</text>
</a>
</g>
</g>
<!-- Node1&#45;&gt;Node15 -->
<g id="edge17_Node000001_Node000015" class="edge">
<title>Node1&#45;&gt;Node15</title>
<g id="a_edge17_Node000001_Node000015"><a xlink:title=" ">
<path fill="none" stroke="#63b8ff" d="M508.6667,-283.4063C425.9184,-274.2055 290.3782,-256.6509 275.5,-239 264.7059,-226.1944 271.5336,-207.2719 279.5175,-193.2309"/>
<polygon fill="#63b8ff" stroke="#63b8ff" points="282.69,-194.759 285.0272,-184.4252 276.7558,-191.046 282.69,-194.759"/>
</a>
</g>
</g>
<!-- Node16 -->
<g id="Node000016" class="node">
<title>Node16</title>
<g id="a_Node000016"><a xlink:href="window_8h.html" target="_top" xlink:title="スライディングウィンドウ管理モジュールの内部ヘッダー。">
<polygon fill="#ffffff" stroke="#666666" points="770.5,-129 668.5,-129 668.5,-110 770.5,-110 770.5,-129"/>
<text text-anchor="middle" x="719.5" y="-117" font-family="Helvetica,sans-Serif" font-size="10.00" fill="#000000">../protocol/window.h</text>
</a>
</g>
</g>
<!-- Node1&#45;&gt;Node16 -->
<g id="edge19_Node000001_Node000016" class="edge">
<title>Node1&#45;&gt;Node16</title>
<g id="a_edge19_Node000001_Node000016"><a xlink:title=" ">
<path fill="none" stroke="#63b8ff" d="M590.1771,-274.5614C601.0529,-264.7626 615.0521,-251.597 626.5,-239 657.5418,-204.8425 689.748,-161.3299 706.9209,-137.3601"/>
<polygon fill="#63b8ff" stroke="#63b8ff" points="709.7878,-139.3679 712.7327,-129.1906 704.0839,-135.3101 709.7878,-139.3679"/>
</a>
</g>
</g>
<!-- Node17 -->
<g id="Node000017" class="node">
<title>Node17</title>
<g id="a_Node000017"><a xlink:href="potrContext_8h.html" target="_top" xlink:title="セッションコンテキスト内部定義ヘッダー。">
<polygon fill="#ffffff" stroke="#666666" points="841.5,-184 757.5,-184 757.5,-165 841.5,-165 841.5,-184"/>
<text text-anchor="middle" x="799.5" y="-172" font-family="Helvetica,sans-Serif" font-size="10.00" fill="#000000">../potrContext.h</text>
</a>
</g>
</g>
<!-- Node1&#45;&gt;Node17 -->
<g id="edge23_Node000001_Node000017" class="edge">
<title>Node1&#45;&gt;Node17</title>
<g id="a_edge23_Node000001_Node000017"><a xlink:title=" ">
<path fill="none" stroke="#63b8ff" d="M616.4084,-274.9615C641.5669,-265.7434 673.4232,-253.038 700.5,-239 728.6111,-224.4258 758.8154,-203.9769 778.3683,-190.0366"/>
<polygon fill="#63b8ff" stroke="#63b8ff" points="780.4913,-192.8208 786.5568,-184.134 776.398,-187.1423 780.4913,-192.8208"/>
</a>
</g>
</g>
<!-- Node18 -->
<g id="Node000018" class="node">
<title>Node18</title>
<g id="a_Node000018"><a xlink:href="compress_8h.html" target="_top" xlink:title="データ圧縮・解凍モジュールの内部ヘッダー。">
<polygon fill="#ffffff" stroke="#666666" points="893,-74 758,-74 758,-55 893,-55 893,-74"/>
<text text-anchor="middle" x="825.5" y="-62" font-family="Helvetica,sans-Serif" font-size="10.00" fill="#000000">infra/compress/compress.h</text>
</a>
</g>
</g>
<!-- Node1&#45;&gt;Node18 -->
<g id="edge43_Node000001_Node000018" class="edge">
<title>Node1&#45;&gt;Node18</title>
<g id="a_edge43_Node000001_Node000018"><a xlink:title=" ">
<path fill="none" stroke="#63b8ff" d="M636.3255,-287.6977C711.0514,-283.5032 828.1245,-271.7498 855.5,-239 893.5231,-193.5122 857.2262,-117.5193 837.0111,-82.8042"/>
<polygon fill="#63b8ff" stroke="#63b8ff" points="839.9675,-80.9289 831.811,-74.167 833.9705,-84.5395 839.9675,-80.9289"/>
</a>
</g>
</g>
<!-- Node19 -->
<g id="Node000019" class="node">
<title>Node19</title>
<g id="a_Node000019"><a xlink:href="crypto_8h.html" target="_top" xlink:title="データ暗号化・復号モジュールの内部ヘッダー。">
<polygon fill="#ffffff" stroke="#666666" points="1167.5,-74 1063.5,-74 1063.5,-55 1167.5,-55 1167.5,-74"/>
<text text-anchor="middle" x="1115.5" y="-62" font-family="Helvetica,sans-Serif" font-size="10.00" fill="#000000">infra/crypto/crypto.h</text>
</a>
</g>
</g>
<!-- Node1&#45;&gt;Node19 -->
<g id="edge44_Node000001_Node000019" class="edge">
<title>Node1&#45;&gt;Node19</title>
<g id="a_edge44_Node000001_Node000019"><a xlink:title=" ">
<path fill="none" stroke="#63b8ff" d="M636.2621,-285.623C698.5025,-279.8795 795.1528,-267.0107 874.5,-239 968.6953,-205.7477 996.4992,-196.0995 1070.5,-129 1084.988,-115.8632 1097.3509,-97.2349 1105.4313,-83.3728"/>
<polygon fill="#63b8ff" stroke="#63b8ff" points="1108.6974,-84.7036 1110.5274,-74.268 1102.589,-81.2847 1108.6974,-84.7036"/>
</a>
</g>
</g>
<!-- Node22 -->
<g id="Node000022" class="node">
<title>Node22</title>
<g id="a_Node000022"><a xlink:href="potrRecvThread_8h.html" target="_top" xlink:title="受信スレッド内部ヘッダー。">
<polygon fill="#ffffff" stroke="#666666" points="846.5,-239 752.5,-239 752.5,-220 846.5,-220 846.5,-239"/>
<text text-anchor="middle" x="799.5" y="-227" font-family="Helvetica,sans-Serif" font-size="10.00" fill="#000000">potrRecvThread.h</text>
</a>
</g>
</g>
<!-- Node1&#45;&gt;Node22 -->
<g id="edge41_Node000001_Node000022" class="edge">
<title>Node1&#45;&gt;Node22</title>
<g id="a_edge41_Node000001_Node000022"><a xlink:title=" ">
<path fill="none" stroke="#63b8ff" d="M628.904,-274.9672C667.4312,-264.699 717.8267,-251.2676 753.8347,-241.6707"/>
<polygon fill="#63b8ff" stroke="#63b8ff" points="754.8261,-245.0287 763.5875,-239.0714 753.0234,-238.2648 754.8261,-245.0287"/>
</a>
</g>
</g>
<!-- Node23 -->
<g id="Node000023" class="node">
<title>Node23</title>
<g id="a_Node000023"><a xlink:href="potrLog_8h.html" target="_top" xlink:title="porter 内部ログマクロ定義ヘッダー。">
<polygon fill="#ffffff" stroke="#666666" points="620.5,-184 532.5,-184 532.5,-165 620.5,-165 620.5,-184"/>
<text text-anchor="middle" x="576.5" y="-172" font-family="Helvetica,sans-Serif" font-size="10.00" fill="#000000">../infra/potrLog.h</text>
</a>
</g>
</g>
<!-- Node1&#45;&gt;Node23 -->
<g id="edge45_Node000001_Node000023" class="edge">
<title>Node1&#45;&gt;Node23</title>
<g id="a_edge45_Node000001_Node000023"><a xlink:title=" ">
<path fill="none" stroke="#63b8ff" d="M577.8886,-274.5994C581.098,-264.595 584.8568,-251.1933 586.5,-239 587.6278,-230.6312 587.4117,-228.3951 586.5,-220 585.5635,-211.3765 583.6566,-201.9926 581.7567,-193.999"/>
<polygon fill="#63b8ff" stroke="#63b8ff" points="585.1129,-192.9951 579.262,-184.1624 578.3277,-194.7159 585.1129,-192.9951"/>
</a>
</g>
</g>
<!-- Node12 -->
<g id="Node000012" class="node">
<title>Node12</title>
<g id="a_Node000012"><a xlink:title=" ">
<polygon fill="#e0e0e0" stroke="#999999" points="851.5,-19 799.5,-19 799.5,0 851.5,0 851.5,-19"/>
<text text-anchor="middle" x="825.5" y="-7" font-family="Helvetica,sans-Serif" font-size="10.00" fill="#000000">stddef.h</text>
</a>
</g>
</g>
<!-- Node11&#45;&gt;Node12 -->
<g id="edge11_Node000011_Node000012" class="edge">
<title>Node11&#45;&gt;Node12</title>
<g id="a_edge11_Node000011_Node000012"><a xlink:title=" ">
<path fill="none" stroke="#63b8ff" d="M495.2523,-109.884C521.5072,-96.0114 572.5471,-70.366 618.5,-55 676.8884,-35.4757 747.3796,-22.0364 789.2103,-15.0684"/>
<polygon fill="#63b8ff" stroke="#63b8ff" points="789.8978,-18.5025 799.2029,-13.4365 788.7695,-11.5941 789.8978,-18.5025"/>
</a>
</g>
</g>
<!-- Node13 -->
<g id="Node000013" class="node">
<title>Node13</title>
<g id="a_Node000013"><a xlink:title=" ">
<polygon fill="#e0e0e0" stroke="#999999" points="657,-19 608,-19 608,0 657,0 657,-19"/>
<text text-anchor="middle" x="632.5" y="-7" font-family="Helvetica,sans-Serif" font-size="10.00" fill="#000000">stdint.h</text>
</a>
</g>
</g>
<!-- Node11&#45;&gt;Node13 -->
<g id="edge12_Node000011_Node000013" class="edge">
<title>Node11&#45;&gt;Node13</title>
<g id="a_edge12_Node000011_Node000013"><a xlink:title=" ">
<path fill="none" stroke="#63b8ff" d="M482.2984,-109.9156C489.6562,-96.0823 504.9501,-70.4854 524.5,-55 546.2142,-37.8003 575.3789,-26.0258 597.9276,-18.7709"/>
<polygon fill="#63b8ff" stroke="#63b8ff" points="599.2372,-22.0302 607.7717,-15.7523 597.185,-15.3378 599.2372,-22.0302"/>
</a>
</g>
</g>
<!-- Node14 -->
<g id="Node000014" class="node">
<title>Node14</title>
<g id="a_Node000014"><a xlink:href="porter__type_8h.html" target="_top" xlink:title="通信ライブラリの型定義ファイル。">
<polygon fill="#ffffff" stroke="#666666" points="701.5,-74 627.5,-74 627.5,-55 701.5,-55 701.5,-74"/>
<text text-anchor="middle" x="664.5" y="-62" font-family="Helvetica,sans-Serif" font-size="10.00" fill="#000000">porter_type.h</text>
</a>
</g>
</g>
<!-- Node11&#45;&gt;Node14 -->
<g id="edge13_Node000011_Node000014" class="edge">
<title>Node11&#45;&gt;Node14</title>
<g id="a_edge13_Node000011_Node000014"><a xlink:title=" ">
<path fill="none" stroke="#63b8ff" d="M510.0729,-109.9197C541.2166,-100.7598 588.334,-86.9018 622.3309,-76.9027"/>
<polygon fill="#63b8ff" stroke="#63b8ff" points="623.3811,-80.2421 631.9872,-74.0626 621.4059,-73.5265 623.3811,-80.2421"/>
</a>
</g>
</g>
<!-- Node14&#45;&gt;Node10 -->
<g id="edge16_Node000014_Node000010" class="edge">
<title>Node14&#45;&gt;Node10</title>
<g id="a_edge16_Node000014_Node000010"><a xlink:title=" ">
<path fill="none" stroke="#63b8ff" d="M701.7589,-56.9102C749.4616,-47.193 832.2574,-30.3272 885.1571,-19.5513"/>
<polygon fill="#63b8ff" stroke="#63b8ff" points="885.8951,-22.973 894.9952,-17.5473 884.4978,-16.1138 885.8951,-22.973"/>
</a>
</g>
</g>
<!-- Node14&#45;&gt;Node12 -->
<g id="edge14_Node000014_Node000012" class="edge">
<title>Node14&#45;&gt;Node12</title>
<g id="a_edge14_Node000014_Node000012"><a xlink:title=" ">
<path fill="none" stroke="#63b8ff" d="M692.5441,-54.9197C719.4614,-45.7244 760.2383,-31.7944 789.5335,-21.7867"/>
<polygon fill="#63b8ff" stroke="#63b8ff" points="791.0436,-24.9695 799.3752,-18.4246 788.7807,-18.3453 791.0436,-24.9695"/>
</a>
</g>
</g>
<!-- Node14&#45;&gt;Node13 -->
<g id="edge15_Node000014_Node000013" class="edge">
<title>Node14&#45;&gt;Node13</title>
<g id="a_edge15_Node000014_Node000013"><a xlink:title=" ">
<path fill="none" stroke="#63b8ff" d="M658.926,-54.9197C654.62,-47.5188 648.5296,-37.0509 643.2807,-28.0294"/>
<polygon fill="#63b8ff" stroke="#63b8ff" points="646.2798,-26.2242 638.2256,-19.3408 640.2293,-29.7445 646.2798,-26.2242"/>
</a>
</g>
</g>
<!-- Node15&#45;&gt;Node13 -->
<g id="edge18_Node000015_Node000013" class="edge">
<title>Node15&#45;&gt;Node13</title>
<g id="a_edge18_Node000015_Node000013"><a xlink:title=" ">
<path fill="none" stroke="#63b8ff" d="M307.2879,-164.8349C340.9175,-143.1383 426.1374,-89.7457 502.5,-55 533.9578,-40.6864 571.3331,-28.0318 597.9165,-19.7255"/>
<polygon fill="#63b8ff" stroke="#63b8ff" points="599.0152,-23.0494 607.5416,-16.7605 596.9544,-16.3596 599.0152,-23.0494"/>
</a>
</g>
</g>
<!-- Node16&#45;&gt;Node10 -->
<g id="edge21_Node000016_Node000010" class="edge">
<title>Node16&#45;&gt;Node10</title>
<g id="a_edge21_Node000016_Node000010"><a xlink:title=" ">
<path fill="none" stroke="#63b8ff" d="M721.1588,-109.5591C724.077,-95.2816 731.5132,-69.1369 748.5,-55 768.9729,-37.9618 836.6923,-24.4263 884.4892,-16.6842"/>
<polygon fill="#63b8ff" stroke="#63b8ff" points="885.3322,-20.0945 894.6623,-15.0745 884.2381,-13.1805 885.3322,-20.0945"/>
</a>
</g>
</g>
<!-- Node16&#45;&gt;Node13 -->
<g id="edge20_Node000016_Node000013" class="edge">
<title>Node16&#45;&gt;Node13</title>
<g id="a_edge20_Node000016_Node000013"><a xlink:title=" ">
<path fill="none" stroke="#63b8ff" d="M671.4692,-109.9419C651.5438,-103.3533 630.3483,-92.3327 618.5,-74 609.5912,-60.2155 615.0342,-41.6644 621.558,-27.9958"/>
<polygon fill="#63b8ff" stroke="#63b8ff" points="624.7127,-29.5176 626.3096,-19.0438 618.5297,-26.2357 624.7127,-29.5176"/>
</a>
</g>
</g>
<!-- Node16&#45;&gt;Node14 -->
<g id="edge22_Node000016_Node000014" class="edge">
<title>Node16&#45;&gt;Node14</title>
<g id="a_edge22_Node000016_Node000014"><a xlink:title=" ">
<path fill="none" stroke="#63b8ff" d="M709.9197,-109.9197C702.1293,-102.1293 690.9405,-90.9405 681.6176,-81.6176"/>
<polygon fill="#63b8ff" stroke="#63b8ff" points="683.8868,-78.937 674.3408,-74.3408 678.937,-83.8868 683.8868,-78.937"/>
</a>
</g>
</g>
<!-- Node17&#45;&gt;Node5 -->
<g id="edge40_Node000017_Node000005" class="edge">
<title>Node17&#45;&gt;Node5</title>
<g id="a_edge40_Node000017_Node000005"><a xlink:title=" ">
<path fill="none" stroke="#63b8ff" d="M767.798,-164.9197C737.6171,-155.7991 692.0228,-142.0206 658.9683,-132.0316"/>
<polygon fill="#63b8ff" stroke="#63b8ff" points="659.7284,-128.6051 649.1435,-129.0626 657.7035,-135.3058 659.7284,-128.6051"/>
</a>
</g>
</g>
<!-- Node17&#45;&gt;Node14 -->
<g id="edge24_Node000017_Node000014" class="edge">
<title>Node17&#45;&gt;Node14</title>
<g id="a_edge24_Node000017_Node000014"><a xlink:title=" ">
<path fill="none" stroke="#63b8ff" d="M799.0511,-164.9139C797.9043,-151.0783 793.8438,-125.4788 779.5,-110 761.6861,-90.7766 734.7152,-79.5407 711.3693,-73.0457"/>
<polygon fill="#63b8ff" stroke="#63b8ff" points="712.1795,-69.6402 701.6232,-70.5429 710.4384,-76.4203 712.1795,-69.6402"/>
</a>
</g>
</g>
<!-- Node17&#45;&gt;Node16 -->
<g id="edge25_Node000017_Node000016" class="edge">
<title>Node17&#45;&gt;Node16</title>
<g id="a_edge25_Node000017_Node000016"><a xlink:title=" ">
<path fill="none" stroke="#63b8ff" d="M785.5651,-164.9197C773.5935,-156.6893 756.1047,-144.6657 742.1279,-135.0567"/>
<polygon fill="#63b8ff" stroke="#63b8ff" points="743.767,-131.9362 733.5437,-129.155 739.8012,-137.7045 743.767,-131.9362"/>
</a>
</g>
</g>
<!-- Node17&#45;&gt;Node18 -->
<g id="edge26_Node000017_Node000018" class="edge">
<title>Node17&#45;&gt;Node18</title>
<g id="a_edge26_Node000017_Node000018"><a xlink:title=" ">
<path fill="none" stroke="#63b8ff" d="M802.5147,-164.7963C805.3063,-155.6248 809.4711,-141.453 812.5,-129 816.1332,-114.0625 819.5391,-97.0052 821.9526,-84.1849"/>
<polygon fill="#63b8ff" stroke="#63b8ff" points="825.428,-84.6379 823.7989,-74.1691 818.544,-83.3689 825.428,-84.6379"/>
</a>
</g>
</g>
<!-- Node17&#45;&gt;Node19 -->
<g id="edge30_Node000017_Node000019" class="edge">
<title>Node17&#45;&gt;Node19</title>
<g id="a_edge30_Node000017_Node000019"><a xlink:title=" ">
<path fill="none" stroke="#63b8ff" d="M841.8568,-169.3334C901.756,-161.5611 1007.7909,-145.9543 1042.5,-129 1065.8353,-117.6015 1087.4422,-96.6692 1100.9977,-81.7423"/>
<polygon fill="#63b8ff" stroke="#63b8ff" points="1103.6847,-83.9869 1107.6601,-74.1661 1098.4281,-79.3643 1103.6847,-83.9869"/>
</a>
</g>
</g>
<!-- Node20 -->
<g id="Node000020" class="node">
<title>Node20</title>
<g id="a_Node000020"><a xlink:href="potrSendQueue_8h.html" target="_top" xlink:title="非同期送信キューの型定義と操作関数。">
<polygon fill="#ffffff" stroke="#666666" points="1016.5,-129 902.5,-129 902.5,-110 1016.5,-110 1016.5,-129"/>
<text text-anchor="middle" x="959.5" y="-117" font-family="Helvetica,sans-Serif" font-size="10.00" fill="#000000">infra/potrSendQueue.h</text>
</a>
</g>
</g>
<!-- Node17&#45;&gt;Node20 -->
<g id="edge34_Node000017_Node000020" class="edge">
<title>Node17&#45;&gt;Node20</title>
<g id="a_edge34_Node000017_Node000020"><a xlink:title=" ">
<path fill="none" stroke="#63b8ff" d="M827.3699,-164.9197C853.5594,-155.9171 892.9511,-142.3762 921.9116,-132.421"/>
<polygon fill="#63b8ff" stroke="#63b8ff" points="923.3625,-135.6234 931.6815,-129.0626 921.0869,-129.0036 923.3625,-135.6234"/>
</a>
</g>
</g>
<!-- Node21 -->
<g id="Node000021" class="node">
<title>Node21</title>
<g id="a_Node000021"><a xlink:title=" ">
<polygon fill="#e0e0e0" stroke="#999999" points="1045,-74 988,-74 988,-55 1045,-55 1045,-74"/>
<text text-anchor="middle" x="1016.5" y="-62" font-family="Helvetica,sans-Serif" font-size="10.00" fill="#000000">pthread.h</text>
</a>
</g>
</g>
<!-- Node17&#45;&gt;Node21 -->
<g id="edge39_Node000017_Node000021" class="edge">
<title>Node17&#45;&gt;Node21</title>
<g id="a_edge39_Node000017_Node000021"><a xlink:title=" ">
<path fill="none" stroke="#63b8ff" d="M841.8865,-172.1849C900.7888,-167.9808 1002.7442,-156.7937 1025.5,-129 1035.8745,-116.3286 1031.6282,-97.348 1025.9847,-83.2541"/>
<polygon fill="#63b8ff" stroke="#63b8ff" points="1029.1197,-81.6918 1021.8175,-74.0152 1022.7387,-84.57 1029.1197,-81.6918"/>
</a>
</g>
</g>
<!-- Node18&#45;&gt;Node10 -->
<g id="edge29_Node000018_Node000010" class="edge">
<title>Node18&#45;&gt;Node10</title>
<g id="a_edge29_Node000018_Node000010"><a xlink:title=" ">
<path fill="none" stroke="#63b8ff" d="M844.4864,-54.9197C861.5744,-46.2973 886.9126,-33.512 906.356,-23.7011"/>
<polygon fill="#63b8ff" stroke="#63b8ff" points="908.0144,-26.7847 915.3655,-19.155 904.8609,-20.5352 908.0144,-26.7847"/>
</a>
</g>
</g>
<!-- Node18&#45;&gt;Node12 -->
<g id="edge27_Node000018_Node000012" class="edge">
<title>Node18&#45;&gt;Node12</title>
<g id="a_edge27_Node000018_Node000012"><a xlink:title=" ">
<path fill="none" stroke="#63b8ff" d="M825.5,-54.9197C825.5,-47.9083 825.5,-38.1442 825.5,-29.4652"/>
<polygon fill="#63b8ff" stroke="#63b8ff" points="829.0001,-29.3408 825.5,-19.3408 822.0001,-29.3409 829.0001,-29.3408"/>
</a>
</g>
</g>
<!-- Node18&#45;&gt;Node13 -->
<g id="edge28_Node000018_Node000013" class="edge">
<title>Node18&#45;&gt;Node13</title>
<g id="a_edge28_Node000018_Node000013"><a xlink:title=" ">
<path fill="none" stroke="#63b8ff" d="M791.882,-54.9197C756.8884,-44.9475 702.3548,-29.4068 667.0273,-19.3394"/>
<polygon fill="#63b8ff" stroke="#63b8ff" points="667.7405,-15.9034 657.1642,-16.5286 665.822,-22.6353 667.7405,-15.9034"/>
</a>
</g>
</g>
<!-- Node19&#45;&gt;Node10 -->
<g id="edge33_Node000019_Node000010" class="edge">
<title>Node19&#45;&gt;Node10</title>
<g id="a_edge33_Node000019_Node000010"><a xlink:title=" ">
<path fill="none" stroke="#63b8ff" d="M1083.9722,-54.9197C1053.9572,-45.7991 1008.6133,-32.0206 975.7404,-22.0316"/>
<polygon fill="#63b8ff" stroke="#63b8ff" points="976.5553,-18.6213 965.9696,-19.0626 974.52,-25.3189 976.5553,-18.6213"/>
</a>
</g>
</g>
<!-- Node19&#45;&gt;Node12 -->
<g id="edge31_Node000019_Node000012" class="edge">
<title>Node19&#45;&gt;Node12</title>
<g id="a_edge31_Node000019_Node000012"><a xlink:title=" ">
<path fill="none" stroke="#63b8ff" d="M1065.3169,-54.9825C1007.2296,-43.966 912.9909,-26.0931 861.6499,-16.356"/>
<polygon fill="#63b8ff" stroke="#63b8ff" points="862.1524,-12.889 851.6754,-14.4643 860.848,-19.7664 862.1524,-12.889"/>
</a>
</g>
</g>
<!-- Node19&#45;&gt;Node13 -->
<g id="edge32_Node000019_Node000013" class="edge">
<title>Node19&#45;&gt;Node13</title>
<g id="a_edge32_Node000019_Node000013"><a xlink:title=" ">
<path fill="none" stroke="#63b8ff" d="M1063.2799,-56.2018C1060.3115,-55.7817 1057.3691,-55.3779 1054.5,-55 911.3499,-36.1465 740.1121,-19.4985 667.6448,-12.7248"/>
<polygon fill="#63b8ff" stroke="#63b8ff" points="667.5638,-9.2022 657.2826,-11.7607 666.9153,-16.1721 667.5638,-9.2022"/>
</a>
</g>
</g>
<!-- Node20&#45;&gt;Node10 -->
<g id="edge36_Node000020_Node000010" class="edge">
<title>Node20&#45;&gt;Node10</title>
<g id="a_edge36_Node000020_Node000010"><a xlink:title=" ">
<path fill="none" stroke="#63b8ff" d="M957.2814,-109.7382C953.1755,-91.6724 944.3211,-52.713 938.9404,-29.0376"/>
<polygon fill="#63b8ff" stroke="#63b8ff" points="942.3072,-28.0585 936.6779,-19.0828 935.4812,-29.6099 942.3072,-28.0585"/>
</a>
</g>
</g>
<!-- Node20&#45;&gt;Node12 -->
<g id="edge35_Node000020_Node000012" class="edge">
<title>Node20&#45;&gt;Node12</title>
<g id="a_edge35_Node000020_Node000012"><a xlink:title=" ">
<path fill="none" stroke="#63b8ff" d="M952.5616,-109.9031C942.5548,-96.5058 923.0089,-71.9398 902.5,-55 887.8271,-42.8806 869.5545,-31.9366 854.4922,-23.8205"/>
<polygon fill="#63b8ff" stroke="#63b8ff" points="856.0706,-20.6962 845.5896,-19.1473 852.8171,-26.8942 856.0706,-20.6962"/>
</a>
</g>
</g>
<!-- Node20&#45;&gt;Node14 -->
<g id="edge37_Node000020_Node000014" class="edge">
<title>Node20&#45;&gt;Node14</title>
<g id="a_edge37_Node000020_Node000014"><a xlink:title=" ">
<path fill="none" stroke="#63b8ff" d="M908.4517,-109.9825C853.1441,-99.6709 765.618,-83.3525 711.8146,-73.3214"/>
<polygon fill="#63b8ff" stroke="#63b8ff" points="712.3218,-69.8557 701.8497,-71.4635 711.0388,-76.7371 712.3218,-69.8557"/>
</a>
</g>
</g>
<!-- Node20&#45;&gt;Node21 -->
<g id="edge38_Node000020_Node000021" class="edge">
<title>Node20&#45;&gt;Node21</title>
<g id="a_edge38_Node000020_Node000021"><a xlink:title=" ">
<path fill="none" stroke="#63b8ff" d="M969.4286,-109.9197C977.5831,-102.0514 989.3303,-90.7164 999.0492,-81.3385"/>
<polygon fill="#63b8ff" stroke="#63b8ff" points="1001.5354,-83.8032 1006.3013,-74.3408 996.6748,-78.7659 1001.5354,-83.8032"/>
</a>
</g>
</g>
<!-- Node22&#45;&gt;Node17 -->
<g id="edge42_Node000022_Node000017" class="edge">
<title>Node22&#45;&gt;Node17</title>
<g id="a_edge42_Node000022_Node000017"><a xlink:title=" ">
<path fill="none" stroke="#63b8ff" d="M799.5,-219.9197C799.5,-212.9083 799.5,-203.1442 799.5,-194.4652"/>
<polygon fill="#63b8ff" stroke="#63b8ff" points="803.0001,-194.3408 799.5,-184.3408 796.0001,-194.3409 803.0001,-194.3408"/>
</a>
</g>
</g>
<!-- Node23&#45;&gt;Node14 -->
<g id="edge46_Node000023_Node000014" class="edge">
<title>Node23&#45;&gt;Node14</title>
<g id="a_edge46_Node000023_Node000014"><a xlink:title=" ">
<path fill="none" stroke="#63b8ff" d="M573.3804,-164.9211C569.6433,-151.5451 565.0957,-127.0042 575.5,-110 584.964,-94.5326 601.53,-84.1114 617.8235,-77.1939"/>
<polygon fill="#63b8ff" stroke="#63b8ff" points="619.2673,-80.3882 627.3296,-73.5142 616.7404,-73.8602 619.2673,-80.3882"/>
</a>
</g>
</g>
</g>
</svg>

<g id="navigator" transform="translate(0 0)" fill="#404254">
  <rect fill="#f2f5e9" fill-opacity="0.5" stroke="#606060" stroke-width=".5" x="0" y="0" width="60" height="60"/>
  <use id="zoomplus" xlink:href="#zoomPlus" x="17" y="9" onmousedown="handleZoom(evt,'in')"/>
  <use id="zoomminus" xlink:href="#zoomMin" x="42" y="9" onmousedown="handleZoom(evt,'out')"/>
  <use id="reset" xlink:href="#resetDef" x="30" y="36" onmousedown="handleReset()"/>
   <use id="arrowup" xlink:href="#arrowUp" x="0" y="0" onmousedown="handlePan(0,-1)"/>
  <use id="arrowright" xlink:href="#arrowRight" x="0" y="0" onmousedown="handlePan(1,0)"/>
  <use id="arrowdown" xlink:href="#arrowDown" x="0" y="0" onmousedown="handlePan(0,1)"/>
  <use id="arrowleft" xlink:href="#arrowLeft" x="0" y="0" onmousedown="handlePan(-1,0)"/>
</g>
<svg viewBox="0 0 15 15" width="100%" height="30px" preserveAspectRatio="xMaxYMin meet">
 <g id="arrow_out" transform="scale(0.3 0.3)">
  <a xlink:href="potrRecvThread_8c__incl_org.svg" target="_base">
   <rect id="button" ry="5" rx="5" y="6" x="6" height="38" width="38"
        fill="#f2f5e9" fill-opacity="0.5" stroke="#606060" stroke-width="1.0"/>
   <path id="arrow"
     d="M 11.500037,31.436501 C 11.940474,20.09759 22.043105,11.32322 32.158766,21.979434 L 37.068811,17.246167 C 37.068811,17.246167 37.088388,32 37.088388,32 L 22.160133,31.978069 C 22.160133,31.978069 26.997745,27.140456 26.997745,27.140456 C 18.528582,18.264221 13.291696,25.230495 11.500037,31.436501 z"
     style="fill:#404040;"/>
  </a>
 </g>
</svg>

<style type='text/css'>
<![CDATA[
[data-mouse-over-selected='false'] { opacity: 0.7; }
[data-mouse-over-selected='true']  { opacity: 1.0; }
]]>
</style>
<script type="application/ecmascript"><![CDATA[
document.addEventListener('DOMContentLoaded', (event) => {
  highlightEdges();
  highlightAdjacentNodes();
});
]]></script>
</svg>
