<?xml version="1.0" encoding="UTF-8" standalone="no"?>
<!DOCTYPE svg PUBLIC "-//W3C//DTD SVG 1.1//EN"
 "http://www.w3.org/Graphics/SVG/1.1/DTD/svg11.dtd">
<!-- Generated by graphviz version 2.40.1 (0)
 -->
<!-- Title: porter/libsrc/porter/potrContext.h Pages: 1 -->
<svg width="392pt" height="170pt"
 viewBox="0.00 0.00 392.00 170.00" xmlns="http://www.w3.org/2000/svg" xmlns:xlink="http://www.w3.org/1999/xlink">
<g id="graph0" class="graph" transform="scale(1 1) rotate(0) translate(4 166)">
<title>porter/libsrc/porter/potrContext.h</title>
<!-- Node1 -->
<g id="Node000001" class="node">
<title>Node1</title>
<g id="a_Node000001"><a xlink:title="セッションコンテキスト内部定義ヘッダー。">
<polygon fill="#999999" stroke="#666666" points="231,-162 136,-162 136,-132 231,-132 231,-162"/>
<text text-anchor="start" x="144" y="-150" font-family="Helvetica,sans-Serif" font-size="10.00" fill="#000000">porter/libsrc/porter</text>
<text text-anchor="middle" x="183.5" y="-139" font-family="Helvetica,sans-Serif" font-size="10.00" fill="#000000">/potrContext.h</text>
</a>
</g>
</g>
<!-- Node2 -->
<g id="Node000002" class="node">
<title>Node2</title>
<g id="a_Node000002"><a xlink:href="potrClose_8c.html" target="_top" xlink:title="potrClose 関数の実装。">
<polygon fill="#ffffff" stroke="#666666" points="95,-30 0,-30 0,0 95,0 95,-30"/>
<text text-anchor="start" x="8" y="-18" font-family="Helvetica,sans-Serif" font-size="10.00" fill="#000000">porter/libsrc/porter</text>
<text text-anchor="middle" x="47.5" y="-7" font-family="Helvetica,sans-Serif" font-size="10.00" fill="#000000">/potrClose.c</text>
</a>
</g>
</g>
<!-- Node1&#45;&gt;Node2 -->
<g id="edge1_Node000001_Node000002" class="edge">
<title>Node1&#45;&gt;Node2</title>
<g id="a_edge1_Node000001_Node000002"><a xlink:title=" ">
<path fill="none" stroke="#63b8ff" d="M154.1451,-125.8127C142.6349,-117.0388 129.5623,-106.4762 118.5,-96 95.9609,-74.6551 72.7987,-46.9337 59.2986,-30.0802"/>
<polygon fill="#63b8ff" stroke="#63b8ff" points="152.1004,-128.6542 162.1991,-131.8584 156.3028,-123.0559 152.1004,-128.6542"/>
</a>
</g>
</g>
<!-- Node3 -->
<g id="Node000003" class="node">
<title>Node3</title>
<g id="a_Node000003"><a xlink:href="potrOpenService_8c.html" target="_top" xlink:title="potrOpenService 関数の実装。">
<polygon fill="#ffffff" stroke="#666666" points="214,-30 113,-30 113,0 214,0 214,-30"/>
<text text-anchor="start" x="121" y="-18" font-family="Helvetica,sans-Serif" font-size="10.00" fill="#000000">porter/libsrc/porter</text>
<text text-anchor="middle" x="163.5" y="-7" font-family="Helvetica,sans-Serif" font-size="10.00" fill="#000000">/potrOpenService.c</text>
</a>
</g>
</g>
<!-- Node1&#45;&gt;Node3 -->
<g id="edge2_Node000001_Node000003" class="edge">
<title>Node1&#45;&gt;Node3</title>
<g id="a_edge2_Node000001_Node000003"><a xlink:title=" ">
<path fill="none" stroke="#63b8ff" d="M150.4261,-125.6008C140.8864,-117.574 131.6659,-107.554 126.5,-96 116.2141,-72.9947 134.0268,-46.4469 148.3264,-30.1944"/>
<polygon fill="#63b8ff" stroke="#63b8ff" points="148.3999,-128.4594 158.4327,-131.8644 152.713,-122.9461 148.3999,-128.4594"/>
</a>
</g>
</g>
<!-- Node4 -->
<g id="Node000004" class="node">
<title>Node4</title>
<g id="a_Node000004"><a xlink:href="potrRecvThread_8c.html" target="_top" xlink:title="受信スレッドモジュール。">
<polygon fill="#ffffff" stroke="#666666" points="329,-30 232,-30 232,0 329,0 329,-30"/>
<text text-anchor="start" x="240" y="-18" font-family="Helvetica,sans-Serif" font-size="10.00" fill="#000000">porter/libsrc/porter</text>
<text text-anchor="middle" x="280.5" y="-7" font-family="Helvetica,sans-Serif" font-size="10.00" fill="#000000">/potrRecvThread.c</text>
</a>
</g>
</g>
<!-- Node1&#45;&gt;Node4 -->
<g id="edge3_Node000001_Node000004" class="edge">
<title>Node1&#45;&gt;Node4</title>
<g id="a_edge3_Node000001_Node000004"><a xlink:title=" ">
<path fill="none" stroke="#63b8ff" d="M212.3017,-125.6128C222.3906,-117.1619 233.2496,-106.8725 241.5,-96 257.2559,-75.2365 269.0518,-47.0931 275.3493,-30.0343"/>
<polygon fill="#63b8ff" stroke="#63b8ff" points="210.0137,-122.9618 204.4403,-131.9723 214.4162,-128.4041 210.0137,-122.9618"/>
</a>
</g>
</g>
<!-- Node5 -->
<g id="Node000005" class="node">
<title>Node5</title>
<g id="a_Node000005"><a xlink:href="potrRecvThread_8h.html" target="_top" xlink:title="受信スレッド内部ヘッダー。">
<polygon fill="#ffffff" stroke="#666666" points="232,-96 135,-96 135,-66 232,-66 232,-96"/>
<text text-anchor="start" x="143" y="-84" font-family="Helvetica,sans-Serif" font-size="10.00" fill="#000000">porter/libsrc/porter</text>
<text text-anchor="middle" x="183.5" y="-73" font-family="Helvetica,sans-Serif" font-size="10.00" fill="#000000">/potrRecvThread.h</text>
</a>
</g>
</g>
<!-- Node1&#45;&gt;Node5 -->
<g id="edge4_Node000001_Node000005" class="edge">
<title>Node1&#45;&gt;Node5</title>
<g id="a_edge4_Node000001_Node000005"><a xlink:title=" ">
<path fill="none" stroke="#63b8ff" d="M183.5,-121.4546C183.5,-112.9317 183.5,-103.7088 183.5,-96.2246"/>
<polygon fill="#63b8ff" stroke="#63b8ff" points="180.0001,-121.6923 183.5,-131.6924 187.0001,-121.6924 180.0001,-121.6923"/>
</a>
</g>
</g>
<!-- Node6 -->
<g id="Node000006" class="node">
<title>Node6</title>
<g id="a_Node000006"><a xlink:href="potrSend_8c.html" target="_top" xlink:title="potrSend 関数の実装。">
<polygon fill="#ffffff" stroke="#666666" points="384,-96 289,-96 289,-66 384,-66 384,-96"/>
<text text-anchor="start" x="297" y="-84" font-family="Helvetica,sans-Serif" font-size="10.00" fill="#000000">porter/libsrc/porter</text>
<text text-anchor="middle" x="336.5" y="-73" font-family="Helvetica,sans-Serif" font-size="10.00" fill="#000000">/potrSend.c</text>
</a>
</g>
</g>
<!-- Node1&#45;&gt;Node6 -->
<g id="edge8_Node000001_Node000006" class="edge">
<title>Node1&#45;&gt;Node6</title>
<g id="a_edge8_Node000001_Node000006"><a xlink:title=" ">
<path fill="none" stroke="#63b8ff" d="M227.9775,-127.8136C251.4075,-117.7066 279.7278,-105.49 301.562,-96.0713"/>
<polygon fill="#63b8ff" stroke="#63b8ff" points="226.3971,-124.6836 218.6013,-131.8583 229.1698,-131.111 226.3971,-124.6836"/>
</a>
</g>
</g>
<!-- Node5&#45;&gt;Node2 -->
<g id="edge5_Node000005_Node000002" class="edge">
<title>Node5&#45;&gt;Node2</title>
<g id="a_edge5_Node000005_Node000002"><a xlink:title=" ">
<path fill="none" stroke="#63b8ff" d="M143.1291,-61.4083C122.4675,-51.3813 97.7054,-39.3644 78.556,-30.0713"/>
<polygon fill="#63b8ff" stroke="#63b8ff" points="141.7742,-64.641 152.2989,-65.8583 144.8304,-58.3434 141.7742,-64.641"/>
</a>
</g>
</g>
<!-- Node5&#45;&gt;Node3 -->
<g id="edge6_Node000005_Node000003" class="edge">
<title>Node5&#45;&gt;Node3</title>
<g id="a_edge6_Node000005_Node000003"><a xlink:title=" ">
<path fill="none" stroke="#63b8ff" d="M175.9308,-56.0218C173.3008,-47.3425 170.4319,-37.8752 168.1135,-30.2246"/>
<polygon fill="#63b8ff" stroke="#63b8ff" points="172.6116,-57.1372 178.8613,-65.6924 179.3108,-55.1071 172.6116,-57.1372"/>
</a>
</g>
</g>
<!-- Node5&#45;&gt;Node4 -->
<g id="edge7_Node000005_Node000004" class="edge">
<title>Node5&#45;&gt;Node4</title>
<g id="a_edge7_Node000005_Node000004"><a xlink:title=" ">
<path fill="none" stroke="#63b8ff" d="M214.481,-59.9201C228.6698,-50.2659 245.1694,-39.0394 258.1244,-30.2246"/>
<polygon fill="#63b8ff" stroke="#63b8ff" points="212.2963,-57.1732 205.9976,-65.6924 216.2342,-62.9606 212.2963,-57.1732"/>
</a>
</g>
</g>
</g>
</svg>
