<?xml version="1.0" encoding="UTF-8" standalone="no"?>
<!DOCTYPE svg PUBLIC "-//W3C//DTD SVG 1.1//EN"
 "http://www.w3.org/Graphics/SVG/1.1/DTD/svg11.dtd">
<!-- Generated by graphviz version 2.40.1 (0)
 -->
<!-- Title: parse_ipv4_addr Pages: 1 -->
<svg width="448pt" height="101pt"
 viewBox="0.00 0.00 448.00 101.00" xmlns="http://www.w3.org/2000/svg" xmlns:xlink="http://www.w3.org/1999/xlink">

<svg id="main" version="1.1" xmlns="http://www.w3.org/2000/svg" xmlns:xlink="http://www.w3.org/1999/xlink" xml:space="preserve">

<style type="text/css"><![CDATA[
.node, .edge {opacity: 0.7;}
.node.selected, .edge.selected {opacity: 1;}
.edge:hover path { stroke: red; }
.edge:hover polygon { stroke: red; fill: red; }
]]></style>
<script type="application/ecmascript" xlink:href="svg.min.js"/>
<svg id="graph" class="graph">
<g id="graph0" class="graph" transform="scale(1 1) rotate(0) translate(4 97)">
<title>parse_ipv4_addr</title>
<!-- Node1 -->
<g id="Node000001" class="node">
<title>Node1</title>
<g id="a_Node000001"><a xlink:title=" ">
<polygon fill="#999999" stroke="#666666" points="440,-56 352,-56 352,-37 440,-37 440,-56"/>
<text text-anchor="middle" x="396" y="-44" font-family="Helvetica,sans-Serif" font-size="10.00" fill="#000000">parse_ipv4_addr</text>
</a>
</g>
</g>
<!-- Node2 -->
<g id="Node000002" class="node">
<title>Node2</title>
<g id="a_Node000002"><a xlink:href="potrSend_8c.html#a9ebacd64367cd4c5f9965da30ab0d622" target="_top" xlink:title=" ">
<polygon fill="#ffffff" stroke="#666666" points="300,-93 215,-93 215,-74 300,-74 300,-93"/>
<text text-anchor="middle" x="257.5" y="-81" font-family="Helvetica,sans-Serif" font-size="10.00" fill="#000000">build_dest_addr</text>
</a>
</g>
</g>
<!-- Node1&#45;&gt;Node2 -->
<g id="edge1_Node000001_Node000002" class="edge">
<title>Node1&#45;&gt;Node2</title>
<g id="a_edge1_Node000001_Node000002"><a xlink:title=" ">
<path fill="none" stroke="#63b8ff" d="M350.6304,-58.6204C332.1006,-63.5706 310.9713,-69.2152 293.5277,-73.8753"/>
<polygon fill="#63b8ff" stroke="#63b8ff" points="351.575,-61.9909 360.3328,-56.0284 349.7682,-55.228 351.575,-61.9909"/>
</a>
</g>
</g>
<!-- Node5 -->
<g id="Node000005" class="node">
<title>Node5</title>
<g id="a_Node000005"><a xlink:href="potrOpenService_8c.html#a946841991d9b2b7998aa8137584b34b7" target="_top" xlink:title=" ">
<polygon fill="#ffffff" stroke="#666666" points="316,-56 199,-56 199,-37 316,-37 316,-56"/>
<text text-anchor="middle" x="257.5" y="-44" font-family="Helvetica,sans-Serif" font-size="10.00" fill="#000000">open_socket_multicast</text>
</a>
</g>
</g>
<!-- Node1&#45;&gt;Node5 -->
<g id="edge4_Node000001_Node000005" class="edge">
<title>Node1&#45;&gt;Node5</title>
<g id="a_edge4_Node000001_Node000005"><a xlink:title=" ">
<path fill="none" stroke="#63b8ff" d="M341.7563,-46.5C333.3704,-46.5 324.6762,-46.5 316.198,-46.5"/>
<polygon fill="#63b8ff" stroke="#63b8ff" points="341.797,-50.0001 351.7969,-46.5 341.7969,-43.0001 341.797,-50.0001"/>
</a>
</g>
</g>
<!-- Node8 -->
<g id="Node000008" class="node">
<title>Node8</title>
<g id="a_Node000008"><a xlink:href="potrClose_8c.html#a51c433a52d99667ce32f68845db2379e" target="_top" xlink:title="サービスを閉じます。">
<polygon fill="#ffffff" stroke="#666666" points="147.5,-19 89.5,-19 89.5,0 147.5,0 147.5,-19"/>
<text text-anchor="middle" x="118.5" y="-7" font-family="Helvetica,sans-Serif" font-size="10.00" fill="#000000">potrClose</text>
</a>
</g>
</g>
<!-- Node1&#45;&gt;Node8 -->
<g id="edge7_Node000001_Node000008" class="edge">
<title>Node1&#45;&gt;Node8</title>
<g id="a_edge7_Node000001_Node000008"><a xlink:title=" ">
<path fill="none" stroke="#63b8ff" d="M351.0453,-34.6387C339.6742,-31.966 327.4412,-29.3703 316,-27.5 256.7061,-17.8074 186.4813,-12.9651 147.7774,-10.8643"/>
<polygon fill="#63b8ff" stroke="#63b8ff" points="350.2321,-38.0428 360.7746,-36.9909 351.8771,-31.2389 350.2321,-38.0428"/>
</a>
</g>
</g>
<!-- Node3 -->
<g id="Node000003" class="node">
<title>Node3</title>
<g id="a_Node000003"><a xlink:href="potrSend_8c.html#a50f796e2c18751b09924b8251fbd81aa" target="_top" xlink:title="データを送信します。">
<polygon fill="#ffffff" stroke="#666666" points="146.5,-93 90.5,-93 90.5,-74 146.5,-74 146.5,-93"/>
<text text-anchor="middle" x="118.5" y="-81" font-family="Helvetica,sans-Serif" font-size="10.00" fill="#000000">potrSend</text>
</a>
</g>
</g>
<!-- Node2&#45;&gt;Node3 -->
<g id="edge2_Node000002_Node000003" class="edge">
<title>Node2&#45;&gt;Node3</title>
<g id="a_edge2_Node000002_Node000003"><a xlink:title=" ">
<path fill="none" stroke="#63b8ff" d="M204.5405,-83.5C184.7871,-83.5 163.1411,-83.5 146.502,-83.5"/>
<polygon fill="#63b8ff" stroke="#63b8ff" points="204.6613,-87.0001 214.6612,-83.5 204.6612,-80.0001 204.6613,-87.0001"/>
</a>
</g>
</g>
<!-- Node4 -->
<g id="Node000004" class="node">
<title>Node4</title>
<g id="a_Node000004"><a xlink:href="send_8c.html#a0ddf1224851353fc92bfbff6f499fa97" target="_top" xlink:title="メインエントリーポイント。">
<polygon fill="#ffffff" stroke="#666666" points="38,-93 0,-93 0,-74 38,-74 38,-93"/>
<text text-anchor="middle" x="19" y="-81" font-family="Helvetica,sans-Serif" font-size="10.00" fill="#000000">main</text>
</a>
</g>
</g>
<!-- Node3&#45;&gt;Node4 -->
<g id="edge3_Node000003_Node000004" class="edge">
<title>Node3&#45;&gt;Node4</title>
<g id="a_edge3_Node000003_Node000004"><a xlink:title=" ">
<path fill="none" stroke="#63b8ff" d="M80.1082,-83.5C65.7508,-83.5 50.0602,-83.5 38.1736,-83.5"/>
<polygon fill="#63b8ff" stroke="#63b8ff" points="80.2535,-87.0001 90.2534,-83.5 80.2534,-80.0001 80.2535,-87.0001"/>
</a>
</g>
</g>
<!-- Node6 -->
<g id="Node000006" class="node">
<title>Node6</title>
<g id="a_Node000006"><a xlink:href="potrOpenService_8c.html#a7b5bb6c02c8f7ca7eaa193b07bbe7cba" target="_top" xlink:title="設定ファイルから指定サービスを開きます。">
<polygon fill="#ffffff" stroke="#666666" points="163,-56 74,-56 74,-37 163,-37 163,-56"/>
<text text-anchor="middle" x="118.5" y="-44" font-family="Helvetica,sans-Serif" font-size="10.00" fill="#000000">potrOpenService</text>
</a>
</g>
</g>
<!-- Node5&#45;&gt;Node6 -->
<g id="edge5_Node000005_Node000006" class="edge">
<title>Node5&#45;&gt;Node6</title>
<g id="a_edge5_Node000005_Node000006"><a xlink:title=" ">
<path fill="none" stroke="#63b8ff" d="M188.7395,-46.5C180.0037,-46.5 171.2524,-46.5 163.0376,-46.5"/>
<polygon fill="#63b8ff" stroke="#63b8ff" points="188.9544,-50.0001 198.9543,-46.5 188.9543,-43.0001 188.9544,-50.0001"/>
</a>
</g>
</g>
<!-- Node7 -->
<g id="Node000007" class="node">
<title>Node7</title>
<g id="a_Node000007"><a xlink:href="recv_8c.html#a0ddf1224851353fc92bfbff6f499fa97" target="_top" xlink:title="メインエントリーポイント。">
<polygon fill="#ffffff" stroke="#666666" points="38,-38 0,-38 0,-19 38,-19 38,-38"/>
<text text-anchor="middle" x="19" y="-26" font-family="Helvetica,sans-Serif" font-size="10.00" fill="#000000">main</text>
</a>
</g>
</g>
<!-- Node6&#45;&gt;Node7 -->
<g id="edge6_Node000006_Node000007" class="edge">
<title>Node6&#45;&gt;Node7</title>
<g id="a_edge6_Node000006_Node000007"><a xlink:title=" ">
<path fill="none" stroke="#63b8ff" d="M63.8932,-36.6214C54.615,-34.9429 45.5643,-33.3056 38.0485,-31.946"/>
<polygon fill="#63b8ff" stroke="#63b8ff" points="63.5251,-40.1115 73.9884,-38.4477 64.7712,-33.2233 63.5251,-40.1115"/>
</a>
</g>
</g>
<!-- Node8&#45;&gt;Node7 -->
<g id="edge8_Node000008_Node000007" class="edge">
<title>Node8&#45;&gt;Node7</title>
<g id="a_edge8_Node000008_Node000007"><a xlink:title=" ">
<path fill="none" stroke="#63b8ff" d="M79.4191,-16.9627C65.249,-19.6685 49.8671,-22.6058 38.1699,-24.8394"/>
<polygon fill="#63b8ff" stroke="#63b8ff" points="80.287,-20.3603 89.453,-15.0467 78.974,-13.4845 80.287,-20.3603"/>
</a>
</g>
</g>
</g>
</svg>
</svg>

<style type='text/css'>
<![CDATA[
[data-mouse-over-selected='false'] { opacity: 0.7; }
[data-mouse-over-selected='true']  { opacity: 1.0; }
]]>
</style>
<script type="application/ecmascript"><![CDATA[
document.addEventListener('DOMContentLoaded', (event) => {
  highlightEdges();
  highlightAdjacentNodes();
});
]]></script>
</svg>
