<?xml version="1.0" encoding="UTF-8" standalone="no"?>
<!DOCTYPE svg PUBLIC "-//W3C//DTD SVG 1.1//EN"
 "http://www.w3.org/Graphics/SVG/1.1/DTD/svg11.dtd">
<!-- Generated by graphviz version 2.40.1 (0)
 -->
<!-- Title: potr_send_queue_wait_drained Pages: 1 -->
<svg width="322pt" height="64pt"
 viewBox="0.00 0.00 322.00 64.00" xmlns="http://www.w3.org/2000/svg" xmlns:xlink="http://www.w3.org/1999/xlink">
<g id="graph0" class="graph" transform="scale(1 1) rotate(0) translate(4 60)">
<title>potr_send_queue_wait_drained</title>
<!-- Node1 -->
<g id="Node000001" class="node">
<title>Node1</title>
<g id="a_Node000001"><a xlink:title=" ">
<polygon fill="#999999" stroke="#666666" points="314,-42.5 201,-42.5 201,-12.5 314,-12.5 314,-42.5"/>
<text text-anchor="start" x="209" y="-30.5" font-family="Helvetica,sans-Serif" font-size="10.00" fill="#000000">potr_send_queue_wait</text>
<text text-anchor="middle" x="257.5" y="-19.5" font-family="Helvetica,sans-Serif" font-size="10.00" fill="#000000">_drained</text>
</a>
</g>
</g>
<!-- Node2 -->
<g id="Node000002" class="node">
<title>Node2</title>
<g id="a_Node000002"><a xlink:href="potrCloseService_8c.html#a69faa7ad17883d282cfbbabfe2d4913f" target="_top" xlink:title="サービスを閉じます。">
<polygon fill="#ffffff" stroke="#666666" points="165,-56 74,-56 74,-37 165,-37 165,-56"/>
<text text-anchor="middle" x="119.5" y="-44" font-family="Helvetica,sans-Serif" font-size="10.00" fill="#000000">potrCloseService</text>
</a>
</g>
</g>
<!-- Node1&#45;&gt;Node2 -->
<g id="edge1_Node000001_Node000002" class="edge">
<title>Node1&#45;&gt;Node2</title>
<g id="a_edge1_Node000001_Node000002"><a xlink:title=" ">
<path fill="none" stroke="#63b8ff" d="M190.8346,-36.6786C182.1516,-37.8741 173.4193,-39.0763 165.1885,-40.2096"/>
<polygon fill="#63b8ff" stroke="#63b8ff" points="191.5428,-40.1142 200.9719,-35.2828 190.588,-33.1796 191.5428,-40.1142"/>
</a>
</g>
</g>
<!-- Node4 -->
<g id="Node000004" class="node">
<title>Node4</title>
<g id="a_Node000004"><a xlink:href="potrSend_8c.html#a5d883711e303ecdb4b2050151de82d68" target="_top" xlink:title="メッセージを送信します。">
<polygon fill="#ffffff" stroke="#666666" points="147.5,-19 91.5,-19 91.5,0 147.5,0 147.5,-19"/>
<text text-anchor="middle" x="119.5" y="-7" font-family="Helvetica,sans-Serif" font-size="10.00" fill="#000000">potrSend</text>
</a>
</g>
</g>
<!-- Node1&#45;&gt;Node4 -->
<g id="edge3_Node000001_Node000004" class="edge">
<title>Node1&#45;&gt;Node4</title>
<g id="a_edge3_Node000001_Node000004"><a xlink:title=" ">
<path fill="none" stroke="#63b8ff" d="M191.0151,-18.8281C175.7798,-16.8408 160.3809,-14.8323 147.7946,-13.1906"/>
<polygon fill="#63b8ff" stroke="#63b8ff" points="190.6032,-22.3039 200.9719,-20.1268 191.5087,-15.3627 190.6032,-22.3039"/>
</a>
</g>
</g>
<!-- Node3 -->
<g id="Node000003" class="node">
<title>Node3</title>
<g id="a_Node000003"><a xlink:href="recv_8c.html#a0ddf1224851353fc92bfbff6f499fa97" target="_top" xlink:title="メインエントリーポイント。">
<polygon fill="#ffffff" stroke="#666666" points="38,-56 0,-56 0,-37 38,-37 38,-56"/>
<text text-anchor="middle" x="19" y="-44" font-family="Helvetica,sans-Serif" font-size="10.00" fill="#000000">main</text>
</a>
</g>
</g>
<!-- Node2&#45;&gt;Node3 -->
<g id="edge2_Node000002_Node000003" class="edge">
<title>Node2&#45;&gt;Node3</title>
<g id="a_edge2_Node000002_Node000003"><a xlink:title=" ">
<path fill="none" stroke="#63b8ff" d="M63.9152,-46.5C54.6956,-46.5 45.7183,-46.5 38.2437,-46.5"/>
<polygon fill="#63b8ff" stroke="#63b8ff" points="63.9548,-50.0001 73.9548,-46.5 63.9548,-43.0001 63.9548,-50.0001"/>
</a>
</g>
</g>
<!-- Node5 -->
<g id="Node000005" class="node">
<title>Node5</title>
<g id="a_Node000005"><a xlink:href="send_8c.html#a0ddf1224851353fc92bfbff6f499fa97" target="_top" xlink:title="メインエントリーポイント。">
<polygon fill="#ffffff" stroke="#666666" points="38,-19 0,-19 0,0 38,0 38,-19"/>
<text text-anchor="middle" x="19" y="-7" font-family="Helvetica,sans-Serif" font-size="10.00" fill="#000000">main</text>
</a>
</g>
</g>
<!-- Node4&#45;&gt;Node5 -->
<g id="edge4_Node000004_Node000005" class="edge">
<title>Node4&#45;&gt;Node5</title>
<g id="a_edge4_Node000004_Node000005"><a xlink:title=" ">
<path fill="none" stroke="#63b8ff" d="M80.9049,-9.5C66.2708,-9.5 50.2409,-9.5 38.1602,-9.5"/>
<polygon fill="#63b8ff" stroke="#63b8ff" points="81.2377,-13.0001 91.2377,-9.5 81.2377,-6.0001 81.2377,-13.0001"/>
</a>
</g>
</g>
</g>
</svg>
