<?xml version="1.0" encoding="UTF-8" standalone="no"?>
<!DOCTYPE svg PUBLIC "-//W3C//DTD SVG 1.1//EN"
 "http://www.w3.org/Graphics/SVG/1.1/DTD/svg11.dtd">
<!-- Generated by graphviz version 2.40.1 (0)
 -->
<!-- Title: send_thread_func Pages: 1 -->
<svg width="628pt" height="300pt"
 viewBox="0.00 0.00 628.00 300.00" xmlns="http://www.w3.org/2000/svg" xmlns:xlink="http://www.w3.org/1999/xlink">
<g id="graph0" class="graph" transform="scale(1 1) rotate(0) translate(4 296)">
<title>send_thread_func</title>
<!-- Node1 -->
<g id="Node000001" class="node">
<title>Node1</title>
<g id="a_Node000001"><a xlink:title=" ">
<polygon fill="#999999" stroke="#666666" points="94,-160 0,-160 0,-141 94,-141 94,-160"/>
<text text-anchor="middle" x="47" y="-148" font-family="Helvetica,sans-Serif" font-size="10.00" fill="#000000">send_thread_func</text>
</a>
</g>
</g>
<!-- Node2 -->
<g id="Node000002" class="node">
<title>Node2</title>
<g id="a_Node000002"><a xlink:href="potrSendThread_8c.html#a071263257ea1725404c4a69fa37735da" target="_top" xlink:title=" ">
<polygon fill="#ffffff" stroke="#666666" points="254.5,-292 141.5,-292 141.5,-273 254.5,-273 254.5,-292"/>
<text text-anchor="middle" x="198" y="-280" font-family="Helvetica,sans-Serif" font-size="10.00" fill="#000000">append_payload_elem</text>
</a>
</g>
</g>
<!-- Node1&#45;&gt;Node2 -->
<g id="edge1_Node000001_Node000002" class="edge">
<title>Node1&#45;&gt;Node2</title>
<g id="a_edge1_Node000001_Node000002"><a xlink:title=" ">
<path fill="none" stroke="#63b8ff" d="M51.8461,-160.0695C62.8816,-180.9373 91.9041,-230.8739 130,-258.5 135.8529,-262.7444 142.5256,-266.2951 149.3504,-269.2492"/>
<polygon fill="#63b8ff" stroke="#63b8ff" points="148.1011,-272.5188 158.6884,-272.9168 150.6601,-266.0033 148.1011,-272.5188"/>
</a>
</g>
</g>
<!-- Node3 -->
<g id="Node000003" class="node">
<title>Node3</title>
<g id="a_Node000003"><a xlink:href="potrSendThread_8c.html#a260e2ab6373553aa61c9a71e9901ff46" target="_top" xlink:title=" ">
<polygon fill="#ffffff" stroke="#666666" points="235,-216 161,-216 161,-197 235,-197 235,-216"/>
<text text-anchor="middle" x="198" y="-204" font-family="Helvetica,sans-Serif" font-size="10.00" fill="#000000">flush_packed</text>
</a>
</g>
</g>
<!-- Node1&#45;&gt;Node3 -->
<g id="edge2_Node000001_Node000003" class="edge">
<title>Node1&#45;&gt;Node3</title>
<g id="a_edge2_Node000001_Node000003"><a xlink:title=" ">
<path fill="none" stroke="#63b8ff" d="M66.4552,-160.1506C83.0674,-168.1526 107.7367,-179.4765 130,-187.5 136.8181,-189.9572 144.1141,-192.2929 151.3034,-194.4321"/>
<polygon fill="#63b8ff" stroke="#63b8ff" points="150.4081,-197.8164 160.9861,-197.2203 152.3452,-191.0897 150.4081,-197.8164"/>
</a>
</g>
</g>
<!-- Node4 -->
<g id="Node000004" class="node">
<title>Node4</title>
<g id="a_Node000004"><a xlink:href="potrSendThread_8c.html#add6449980c94371f0df31387da6fa642" target="_top" xlink:title=" ">
<polygon fill="#ffffff" stroke="#666666" points="380.5,-254 331.5,-254 331.5,-235 380.5,-235 380.5,-254"/>
<text text-anchor="middle" x="356" y="-242" font-family="Helvetica,sans-Serif" font-size="10.00" fill="#000000">get_ms</text>
</a>
</g>
</g>
<!-- Node1&#45;&gt;Node4 -->
<g id="edge11_Node000001_Node000004" class="edge">
<title>Node1&#45;&gt;Node4</title>
<g id="a_edge11_Node000001_Node000004"><a xlink:title=" ">
<path fill="none" stroke="#63b8ff" d="M54.1602,-160.2207C67.1341,-176.9736 96.3265,-210.8908 130,-225.5 193.1686,-252.9056 275.4967,-251.735 321.3304,-248.2413"/>
<polygon fill="#63b8ff" stroke="#63b8ff" points="321.6805,-251.7243 331.3505,-247.395 321.0913,-244.7491 321.6805,-251.7243"/>
</a>
</g>
</g>
<!-- Node12 -->
<g id="Node000012" class="node">
<title>Node12</title>
<g id="a_Node000012"><a xlink:href="potrSendQueue_8c.html#a458ccbc2cfa29875c0cdd383dc02ec07" target="_top" xlink:title=" ">
<polygon fill="#ffffff" stroke="#666666" points="266,-179 130,-179 130,-160 266,-160 266,-179"/>
<text text-anchor="middle" x="198" y="-167" font-family="Helvetica,sans-Serif" font-size="10.00" fill="#000000">potr_send_queue_complete</text>
</a>
</g>
</g>
<!-- Node1&#45;&gt;Node12 -->
<g id="edge12_Node000001_Node000012" class="edge">
<title>Node1&#45;&gt;Node12</title>
<g id="a_edge12_Node000001_Node000012"><a xlink:title=" ">
<path fill="none" stroke="#63b8ff" d="M94.363,-156.4596C102.4445,-157.4765 111.0279,-158.5565 119.6609,-159.6428"/>
<polygon fill="#63b8ff" stroke="#63b8ff" points="119.4322,-163.1415 129.7909,-160.9174 120.3061,-156.1963 119.4322,-163.1415"/>
</a>
</g>
</g>
<!-- Node13 -->
<g id="Node000013" class="node">
<title>Node13</title>
<g id="a_Node000013"><a xlink:href="potrSendQueue_8c.html#a85bee3d59492ac3b4ed8f2dabd101d6a" target="_top" xlink:title=" ">
<polygon fill="#ffffff" stroke="#666666" points="256.5,-142 139.5,-142 139.5,-123 256.5,-123 256.5,-142"/>
<text text-anchor="middle" x="198" y="-130" font-family="Helvetica,sans-Serif" font-size="10.00" fill="#000000">potr_send_queue_peek</text>
</a>
</g>
</g>
<!-- Node1&#45;&gt;Node13 -->
<g id="edge13_Node000001_Node000013" class="edge">
<title>Node1&#45;&gt;Node13</title>
<g id="a_edge13_Node000001_Node000013"><a xlink:title=" ">
<path fill="none" stroke="#63b8ff" d="M94.363,-144.8541C105.4008,-143.5383 117.3748,-142.111 129.1326,-140.7094"/>
<polygon fill="#63b8ff" stroke="#63b8ff" points="129.8651,-144.1469 139.3805,-139.4878 129.0365,-137.1961 129.8651,-144.1469"/>
</a>
</g>
</g>
<!-- Node14 -->
<g id="Node000014" class="node">
<title>Node14</title>
<g id="a_Node000014"><a xlink:href="potrSendQueue_8c.html#a5ed67f7c2e47cd353cba9332312d0434" target="_top" xlink:title=" ">
<polygon fill="#ffffff" stroke="#666666" points="256.5,-104.5 139.5,-104.5 139.5,-74.5 256.5,-74.5 256.5,-104.5"/>
<text text-anchor="start" x="147.5" y="-92.5" font-family="Helvetica,sans-Serif" font-size="10.00" fill="#000000">potr_send_queue_peek</text>
<text text-anchor="middle" x="198" y="-81.5" font-family="Helvetica,sans-Serif" font-size="10.00" fill="#000000">_timed</text>
</a>
</g>
</g>
<!-- Node1&#45;&gt;Node14 -->
<g id="edge14_Node000001_Node000014" class="edge">
<title>Node1&#45;&gt;Node14</title>
<g id="a_edge14_Node000001_Node000014"><a xlink:title=" ">
<path fill="none" stroke="#63b8ff" d="M67.2717,-140.917C83.9583,-133.1615 108.3103,-122.146 130,-113.5 134.4882,-111.7109 139.1686,-109.9158 143.8813,-108.1571"/>
<polygon fill="#63b8ff" stroke="#63b8ff" points="145.3652,-111.341 153.5488,-104.612 142.9551,-104.7689 145.3652,-111.341"/>
</a>
</g>
</g>
<!-- Node15 -->
<g id="Node000015" class="node">
<title>Node15</title>
<g id="a_Node000015"><a xlink:href="potrSendQueue_8c.html#a527d9e5acbec5ca38349cfcef5fffafa" target="_top" xlink:title=" ">
<polygon fill="#ffffff" stroke="#666666" points="254,-56 142,-56 142,-37 254,-37 254,-56"/>
<text text-anchor="middle" x="198" y="-44" font-family="Helvetica,sans-Serif" font-size="10.00" fill="#000000">potr_send_queue_pop</text>
</a>
</g>
</g>
<!-- Node1&#45;&gt;Node15 -->
<g id="edge15_Node000001_Node000015" class="edge">
<title>Node1&#45;&gt;Node15</title>
<g id="a_edge15_Node000001_Node000015"><a xlink:title=" ">
<path fill="none" stroke="#63b8ff" d="M53.7805,-140.727C66.5867,-123.0131 96.1078,-85.581 130,-65.5 133.6778,-63.3209 137.6155,-61.3829 141.6741,-59.6608"/>
<polygon fill="#63b8ff" stroke="#63b8ff" points="143.182,-62.8326 151.2981,-56.0223 140.7065,-56.2849 143.182,-62.8326"/>
</a>
</g>
</g>
<!-- Node16 -->
<g id="Node000016" class="node">
<title>Node16</title>
<g id="a_Node000016"><a xlink:href="potrSendQueue_8c.html#a9c6fa4e2e1a8775e220623020d191611" target="_top" xlink:title=" ">
<polygon fill="#ffffff" stroke="#666666" points="262,-19 134,-19 134,0 262,0 262,-19"/>
<text text-anchor="middle" x="198" y="-7" font-family="Helvetica,sans-Serif" font-size="10.00" fill="#000000">potr_send_queue_try_pop</text>
</a>
</g>
</g>
<!-- Node1&#45;&gt;Node16 -->
<g id="edge16_Node000001_Node000016" class="edge">
<title>Node1&#45;&gt;Node16</title>
<g id="a_edge16_Node000001_Node000016"><a xlink:title=" ">
<path fill="none" stroke="#63b8ff" d="M50.7188,-140.7629C60.1609,-117.3881 87.3767,-57.7993 130,-27.5 132.0902,-26.0141 134.2951,-24.6509 136.5818,-23.4002"/>
<polygon fill="#63b8ff" stroke="#63b8ff" points="138.1657,-26.5233 145.7375,-19.1126 135.1969,-20.184 138.1657,-26.5233"/>
</a>
</g>
</g>
<!-- Node3&#45;&gt;Node4 -->
<g id="edge3_Node000003_Node000004" class="edge">
<title>Node3&#45;&gt;Node4</title>
<g id="a_edge3_Node000003_Node000004"><a xlink:title=" ">
<path fill="none" stroke="#63b8ff" d="M235.044,-215.4093C261.1781,-221.6947 295.9419,-230.0556 321.4923,-236.2007"/>
<polygon fill="#63b8ff" stroke="#63b8ff" points="320.9406,-239.6677 331.4818,-238.6032 322.5775,-232.8618 320.9406,-239.6677"/>
</a>
</g>
</g>
<!-- Node5 -->
<g id="Node000005" class="node">
<title>Node5</title>
<g id="a_Node000005"><a xlink:href="packet_8c.html#a0f1ece40d194d02905f9ebfa68cac012" target="_top" xlink:title="データパケット (パックコンテナ) を構築します。">
<polygon fill="#ffffff" stroke="#666666" points="410,-217 302,-217 302,-198 410,-198 410,-217"/>
<text text-anchor="middle" x="356" y="-205" font-family="Helvetica,sans-Serif" font-size="10.00" fill="#000000">packet_build_packed</text>
</a>
</g>
</g>
<!-- Node3&#45;&gt;Node5 -->
<g id="edge4_Node000003_Node000005" class="edge">
<title>Node3&#45;&gt;Node5</title>
<g id="a_edge4_Node000003_Node000005"><a xlink:title=" ">
<path fill="none" stroke="#63b8ff" d="M235.044,-206.7345C251.8988,-206.8411 272.343,-206.9705 291.5902,-207.0923"/>
<polygon fill="#63b8ff" stroke="#63b8ff" points="291.802,-210.5937 301.824,-207.1571 291.8464,-203.5938 291.802,-210.5937"/>
</a>
</g>
</g>
<!-- Node8 -->
<g id="Node000008" class="node">
<title>Node8</title>
<g id="a_Node000008"><a xlink:href="crypto__linux_8c.html#a379b176a834b6fb61d80039e32eebf73" target="_top" xlink:title="AES&#45;256&#45;GCM でデータを暗号化します。">
<polygon fill="#ffffff" stroke="#666666" points="391.5,-180 320.5,-180 320.5,-161 391.5,-161 391.5,-180"/>
<text text-anchor="middle" x="356" y="-168" font-family="Helvetica,sans-Serif" font-size="10.00" fill="#000000">potr_encrypt</text>
</a>
</g>
</g>
<!-- Node3&#45;&gt;Node8 -->
<g id="edge7_Node000003_Node000008" class="edge">
<title>Node3&#45;&gt;Node8</title>
<g id="a_edge7_Node000003_Node000008"><a xlink:title=" ">
<path fill="none" stroke="#63b8ff" d="M235.044,-198.0596C257.5503,-192.9316 286.4568,-186.3453 310.3672,-180.8974"/>
<polygon fill="#63b8ff" stroke="#63b8ff" points="311.3028,-184.274 320.2754,-178.6398 309.7477,-177.4489 311.3028,-184.274"/>
</a>
</g>
</g>
<!-- Node9 -->
<g id="Node000009" class="node">
<title>Node9</title>
<g id="a_Node000009"><a xlink:href="window_8c.html#a194f99cfb5f1631fb7643c1838a5278a" target="_top" xlink:title="送信ウィンドウにパケットを積みます。">
<polygon fill="#ffffff" stroke="#666666" points="406.5,-143 305.5,-143 305.5,-124 406.5,-124 406.5,-143"/>
<text text-anchor="middle" x="356" y="-131" font-family="Helvetica,sans-Serif" font-size="10.00" fill="#000000">window_send_push</text>
</a>
</g>
</g>
<!-- Node3&#45;&gt;Node9 -->
<g id="edge8_Node000003_Node000009" class="edge">
<title>Node3&#45;&gt;Node9</title>
<g id="a_edge8_Node000003_Node000009"><a xlink:title=" ">
<path fill="none" stroke="#63b8ff" d="M235.0339,-199.8205C245.4929,-196.9787 256.5814,-193.005 266,-187.5 285.5353,-176.082 282.752,-163.3959 302,-151.5 304.6059,-149.8894 307.3726,-148.405 310.2228,-147.0397"/>
<polygon fill="#63b8ff" stroke="#63b8ff" points="311.6907,-150.2188 319.5162,-143.0765 308.9448,-143.7798 311.6907,-150.2188"/>
</a>
</g>
</g>
<!-- Node6 -->
<g id="Node000006" class="node">
<title>Node6</title>
<g id="a_Node000006"><a xlink:href="packet_8c.html#a479088cf3b9ccf5ebe8891ad2881b196" target="_top" xlink:title=" ">
<polygon fill="#ffffff" stroke="#666666" points="534,-217 450,-217 450,-198 534,-198 534,-217"/>
<text text-anchor="middle" x="492" y="-205" font-family="Helvetica,sans-Serif" font-size="10.00" fill="#000000">fill_session_hdr</text>
</a>
</g>
</g>
<!-- Node5&#45;&gt;Node6 -->
<g id="edge5_Node000005_Node000006" class="edge">
<title>Node5&#45;&gt;Node6</title>
<g id="a_edge5_Node000005_Node000006"><a xlink:title=" ">
<path fill="none" stroke="#63b8ff" d="M410.1416,-207.5C419.8245,-207.5 429.8989,-207.5 439.5337,-207.5"/>
<polygon fill="#63b8ff" stroke="#63b8ff" points="439.7767,-211.0001 449.7767,-207.5 439.7767,-204.0001 439.7767,-211.0001"/>
</a>
</g>
</g>
<!-- Node7 -->
<g id="Node000007" class="node">
<title>Node7</title>
<g id="a_Node000007"><a xlink:href="packet_8c.html#a6564ae80f665edd6931ef662818e19b0" target="_top" xlink:title=" ">
<polygon fill="#ffffff" stroke="#666666" points="620,-217 574,-217 574,-198 620,-198 620,-217"/>
<text text-anchor="middle" x="597" y="-205" font-family="Helvetica,sans-Serif" font-size="10.00" fill="#000000">hton64</text>
</a>
</g>
</g>
<!-- Node6&#45;&gt;Node7 -->
<g id="edge6_Node000006_Node000007" class="edge">
<title>Node6&#45;&gt;Node7</title>
<g id="a_edge6_Node000006_Node000007"><a xlink:title=" ">
<path fill="none" stroke="#63b8ff" d="M534.1025,-207.5C543.9684,-207.5 554.3447,-207.5 563.7612,-207.5"/>
<polygon fill="#63b8ff" stroke="#63b8ff" points="563.9066,-211.0001 573.9066,-207.5 563.9065,-204.0001 563.9066,-211.0001"/>
</a>
</g>
</g>
<!-- Node10 -->
<g id="Node000010" class="node">
<title>Node10</title>
<g id="a_Node000010"><a xlink:href="window_8c.html#ad5f53882d6cd6075a78e83b94fb62cc3" target="_top" xlink:title=" ">
<polygon fill="#ffffff" stroke="#666666" points="521.5,-162 462.5,-162 462.5,-143 521.5,-143 521.5,-162"/>
<text text-anchor="middle" x="492" y="-150" font-family="Helvetica,sans-Serif" font-size="10.00" fill="#000000">win_index</text>
</a>
</g>
</g>
<!-- Node9&#45;&gt;Node10 -->
<g id="edge9_Node000009_Node000010" class="edge">
<title>Node9&#45;&gt;Node10</title>
<g id="a_edge9_Node000009_Node000010"><a xlink:title=" ">
<path fill="none" stroke="#63b8ff" d="M406.6414,-140.5749C421.7125,-142.6804 438.0029,-144.9563 452.2724,-146.9498"/>
<polygon fill="#63b8ff" stroke="#63b8ff" points="451.8712,-150.4277 462.2593,-148.345 452.8398,-143.495 451.8712,-150.4277"/>
</a>
</g>
</g>
<!-- Node11 -->
<g id="Node000011" class="node">
<title>Node11</title>
<g id="a_Node000011"><a xlink:href="window_8c.html#aa49e58851242a05b75813c79490da396" target="_top" xlink:title="送信ウィンドウが満杯かどうかを返します。">
<polygon fill="#ffffff" stroke="#666666" points="538,-125 446,-125 446,-106 538,-106 538,-125"/>
<text text-anchor="middle" x="492" y="-113" font-family="Helvetica,sans-Serif" font-size="10.00" fill="#000000">window_send_full</text>
</a>
</g>
</g>
<!-- Node9&#45;&gt;Node11 -->
<g id="edge10_Node000009_Node000011" class="edge">
<title>Node9&#45;&gt;Node11</title>
<g id="a_edge10_Node000009_Node000011"><a xlink:title=" ">
<path fill="none" stroke="#63b8ff" d="M406.6414,-126.7975C416.17,-125.5363 426.186,-124.2107 435.8704,-122.9289"/>
<polygon fill="#63b8ff" stroke="#63b8ff" points="436.3541,-126.3955 445.8084,-121.6136 435.4356,-119.456 436.3541,-126.3955"/>
</a>
</g>
</g>
</g>
</svg>
