<?xml version="1.0" encoding="UTF-8" standalone="no"?>
<!DOCTYPE svg PUBLIC "-//W3C//DTD SVG 1.1//EN"
 "http://www.w3.org/Graphics/SVG/1.1/DTD/svg11.dtd">
<!-- Generated by graphviz version 2.40.1 (0)
 -->
<!-- Title: porter/libsrc/porter/infra/potrSendQueue.c Pages: 1 -->
<svg width="348pt" height="203pt"
 viewBox="0.00 0.00 347.75 203.00" xmlns="http://www.w3.org/2000/svg" xmlns:xlink="http://www.w3.org/1999/xlink">
<g id="graph0" class="graph" transform="scale(1 1) rotate(0) translate(4 199)">
<title>porter/libsrc/porter/infra/potrSendQueue.c</title>
<!-- Node1 -->
<g id="Node000001" class="node">
<title>Node1</title>
<g id="a_Node000001"><a xlink:title="非同期送信キューの実装。">
<polygon fill="#999999" stroke="#666666" points="214.5,-195 97.5,-195 97.5,-165 214.5,-165 214.5,-195"/>
<text text-anchor="start" x="105.5" y="-183" font-family="Helvetica,sans-Serif" font-size="10.00" fill="#000000">porter/libsrc/porter</text>
<text text-anchor="middle" x="156" y="-172" font-family="Helvetica,sans-Serif" font-size="10.00" fill="#000000">/infra/potrSendQueue.c</text>
</a>
</g>
</g>
<!-- Node2 -->
<g id="Node000002" class="node">
<title>Node2</title>
<g id="a_Node000002"><a xlink:title=" ">
<polygon fill="#e0e0e0" stroke="#999999" points="48,-129 0,-129 0,-110 48,-110 48,-129"/>
<text text-anchor="middle" x="24" y="-117" font-family="Helvetica,sans-Serif" font-size="10.00" fill="#000000">stdlib.h</text>
</a>
</g>
</g>
<!-- Node1&#45;&gt;Node2 -->
<g id="edge1_Node000001_Node000002" class="edge">
<title>Node1&#45;&gt;Node2</title>
<g id="a_edge1_Node000001_Node000002"><a xlink:title=" ">
<path fill="none" stroke="#63b8ff" d="M123.0313,-164.8894C101.9363,-155.2208 74.7754,-142.7721 54.2354,-133.3579"/>
<polygon fill="#63b8ff" stroke="#63b8ff" points="55.5742,-130.1214 45.0252,-129.1366 52.6576,-136.4849 55.5742,-130.1214"/>
</a>
</g>
</g>
<!-- Node3 -->
<g id="Node000003" class="node">
<title>Node3</title>
<g id="a_Node000003"><a xlink:title=" ">
<polygon fill="#e0e0e0" stroke="#999999" points="115.5,-129 66.5,-129 66.5,-110 115.5,-110 115.5,-129"/>
<text text-anchor="middle" x="91" y="-117" font-family="Helvetica,sans-Serif" font-size="10.00" fill="#000000">string.h</text>
</a>
</g>
</g>
<!-- Node1&#45;&gt;Node3 -->
<g id="edge2_Node000001_Node000003" class="edge">
<title>Node1&#45;&gt;Node3</title>
<g id="a_edge2_Node000001_Node000003"><a xlink:title=" ">
<path fill="none" stroke="#63b8ff" d="M139.5978,-164.7333C130.1956,-155.982 118.3886,-144.9924 108.7669,-136.0369"/>
<polygon fill="#63b8ff" stroke="#63b8ff" points="111.004,-133.3376 101.2994,-129.0864 106.2348,-138.4616 111.004,-133.3376"/>
</a>
</g>
</g>
<!-- Node4 -->
<g id="Node000004" class="node">
<title>Node4</title>
<g id="a_Node000004"><a xlink:title=" ">
<polygon fill="#e0e0e0" stroke="#999999" points="178,-129 134,-129 134,-110 178,-110 178,-129"/>
<text text-anchor="middle" x="156" y="-117" font-family="Helvetica,sans-Serif" font-size="10.00" fill="#000000">time.h</text>
</a>
</g>
</g>
<!-- Node1&#45;&gt;Node4 -->
<g id="edge3_Node000001_Node000004" class="edge">
<title>Node1&#45;&gt;Node4</title>
<g id="a_edge3_Node000001_Node000004"><a xlink:title=" ">
<path fill="none" stroke="#63b8ff" d="M156,-164.7333C156,-157.0322 156,-147.5977 156,-139.3414"/>
<polygon fill="#63b8ff" stroke="#63b8ff" points="159.5001,-139.0864 156,-129.0864 152.5001,-139.0864 159.5001,-139.0864"/>
</a>
</g>
</g>
<!-- Node5 -->
<g id="Node000005" class="node">
<title>Node5</title>
<g id="a_Node000005"><a xlink:href="porter__const_8h.html" target="_top" xlink:title="通信ライブラリの定数ファイル。">
<polygon fill="#ffffff" stroke="#666666" points="299.5,-19 220.5,-19 220.5,0 299.5,0 299.5,-19"/>
<text text-anchor="middle" x="260" y="-7" font-family="Helvetica,sans-Serif" font-size="10.00" fill="#000000">porter_const.h</text>
</a>
</g>
</g>
<!-- Node1&#45;&gt;Node5 -->
<g id="edge4_Node000001_Node000005" class="edge">
<title>Node1&#45;&gt;Node5</title>
<g id="a_edge4_Node000001_Node000005"><a xlink:title=" ">
<path fill="none" stroke="#63b8ff" d="M214.7277,-167.2024C241.6483,-159.3149 272.8617,-147.1426 297,-129 321.1617,-110.8398 327.6529,-102.7439 337,-74 339.6114,-65.9695 341.1852,-62.3344 337,-55 328.8564,-40.7288 314.2885,-30.4814 299.9989,-23.3698"/>
<polygon fill="#63b8ff" stroke="#63b8ff" points="301.27,-20.1027 290.7191,-19.1385 298.3658,-26.4719 301.27,-20.1027"/>
</a>
</g>
</g>
<!-- Node6 -->
<g id="Node000006" class="node">
<title>Node6</title>
<g id="a_Node000006"><a xlink:href="potrSendQueue_8h.html" target="_top" xlink:title="非同期送信キューの型定義と操作関数。">
<polygon fill="#ffffff" stroke="#666666" points="288,-129 196,-129 196,-110 288,-110 288,-129"/>
<text text-anchor="middle" x="242" y="-117" font-family="Helvetica,sans-Serif" font-size="10.00" fill="#000000">potrSendQueue.h</text>
</a>
</g>
</g>
<!-- Node1&#45;&gt;Node6 -->
<g id="edge5_Node000001_Node000006" class="edge">
<title>Node1&#45;&gt;Node6</title>
<g id="a_edge5_Node000001_Node000006"><a xlink:title=" ">
<path fill="none" stroke="#63b8ff" d="M177.7014,-164.7333C190.6389,-155.632 207.0176,-144.1097 220.0064,-134.9723"/>
<polygon fill="#63b8ff" stroke="#63b8ff" points="222.208,-137.7028 228.373,-129.0864 218.1803,-131.9776 222.208,-137.7028"/>
</a>
</g>
</g>
<!-- Node6&#45;&gt;Node5 -->
<g id="edge7_Node000006_Node000005" class="edge">
<title>Node6&#45;&gt;Node5</title>
<g id="a_edge7_Node000006_Node000005"><a xlink:title=" ">
<path fill="none" stroke="#63b8ff" d="M243.5974,-109.7382C246.5536,-91.6724 252.9288,-52.713 256.8029,-29.0376"/>
<polygon fill="#63b8ff" stroke="#63b8ff" points="260.271,-29.5168 258.4319,-19.0828 253.3629,-28.3863 260.271,-29.5168"/>
</a>
</g>
</g>
<!-- Node7 -->
<g id="Node000007" class="node">
<title>Node7</title>
<g id="a_Node000007"><a xlink:title=" ">
<polygon fill="#e0e0e0" stroke="#999999" points="135,-19 83,-19 83,0 135,0 135,-19"/>
<text text-anchor="middle" x="109" y="-7" font-family="Helvetica,sans-Serif" font-size="10.00" fill="#000000">stddef.h</text>
</a>
</g>
</g>
<!-- Node6&#45;&gt;Node7 -->
<g id="edge6_Node000006_Node000007" class="edge">
<title>Node6&#45;&gt;Node7</title>
<g id="a_edge6_Node000006_Node000007"><a xlink:title=" ">
<path fill="none" stroke="#63b8ff" d="M195.8085,-110.0271C173.5918,-103.332 148.1314,-92.1971 131,-74 119.4813,-61.7647 113.972,-43.252 111.3497,-29.1935"/>
<polygon fill="#63b8ff" stroke="#63b8ff" points="114.7747,-28.4363 109.8059,-19.0789 107.8549,-29.4926 114.7747,-28.4363"/>
</a>
</g>
</g>
<!-- Node8 -->
<g id="Node000008" class="node">
<title>Node8</title>
<g id="a_Node000008"><a xlink:href="porter__type_8h.html" target="_top" xlink:title="通信ライブラリの型定義ファイル。">
<polygon fill="#ffffff" stroke="#666666" points="214,-74 140,-74 140,-55 214,-55 214,-74"/>
<text text-anchor="middle" x="177" y="-62" font-family="Helvetica,sans-Serif" font-size="10.00" fill="#000000">porter_type.h</text>
</a>
</g>
</g>
<!-- Node6&#45;&gt;Node8 -->
<g id="edge8_Node000006_Node000008" class="edge">
<title>Node6&#45;&gt;Node8</title>
<g id="a_edge8_Node000006_Node000008"><a xlink:title=" ">
<path fill="none" stroke="#63b8ff" d="M230.6779,-109.9197C221.2868,-101.9735 207.7173,-90.4916 196.5715,-81.0605"/>
<polygon fill="#63b8ff" stroke="#63b8ff" points="198.5248,-78.1284 188.6301,-74.3408 194.0031,-83.4721 198.5248,-78.1284"/>
</a>
</g>
</g>
<!-- Node10 -->
<g id="Node000010" class="node">
<title>Node10</title>
<g id="a_Node000010"><a xlink:title=" ">
<polygon fill="#e0e0e0" stroke="#999999" points="327.5,-74 270.5,-74 270.5,-55 327.5,-55 327.5,-74"/>
<text text-anchor="middle" x="299" y="-62" font-family="Helvetica,sans-Serif" font-size="10.00" fill="#000000">pthread.h</text>
</a>
</g>
</g>
<!-- Node6&#45;&gt;Node10 -->
<g id="edge12_Node000006_Node000010" class="edge">
<title>Node6&#45;&gt;Node10</title>
<g id="a_edge12_Node000006_Node000010"><a xlink:title=" ">
<path fill="none" stroke="#63b8ff" d="M251.9286,-109.9197C260.0831,-102.0514 271.8303,-90.7164 281.5492,-81.3385"/>
<polygon fill="#63b8ff" stroke="#63b8ff" points="284.0354,-83.8032 288.8013,-74.3408 279.1748,-78.7659 284.0354,-83.8032"/>
</a>
</g>
</g>
<!-- Node8&#45;&gt;Node5 -->
<g id="edge11_Node000008_Node000005" class="edge">
<title>Node8&#45;&gt;Node5</title>
<g id="a_edge11_Node000008_Node000005"><a xlink:title=" ">
<path fill="none" stroke="#63b8ff" d="M191.4575,-54.9197C203.9963,-46.6109 222.3688,-34.4363 236.9368,-24.7828"/>
<polygon fill="#63b8ff" stroke="#63b8ff" points="239.0271,-27.5964 245.4297,-19.155 235.1604,-21.7613 239.0271,-27.5964"/>
</a>
</g>
</g>
<!-- Node8&#45;&gt;Node7 -->
<g id="edge9_Node000008_Node000007" class="edge">
<title>Node8&#45;&gt;Node7</title>
<g id="a_edge9_Node000008_Node000007"><a xlink:title=" ">
<path fill="none" stroke="#63b8ff" d="M165.1553,-54.9197C155.2345,-46.8956 140.8562,-35.2661 129.1326,-25.7837"/>
<polygon fill="#63b8ff" stroke="#63b8ff" points="131.143,-22.9083 121.1668,-19.3408 126.7409,-28.3509 131.143,-22.9083"/>
</a>
</g>
</g>
<!-- Node9 -->
<g id="Node000009" class="node">
<title>Node9</title>
<g id="a_Node000009"><a xlink:title=" ">
<polygon fill="#e0e0e0" stroke="#999999" points="202.5,-19 153.5,-19 153.5,0 202.5,0 202.5,-19"/>
<text text-anchor="middle" x="178" y="-7" font-family="Helvetica,sans-Serif" font-size="10.00" fill="#000000">stdint.h</text>
</a>
</g>
</g>
<!-- Node8&#45;&gt;Node9 -->
<g id="edge10_Node000008_Node000009" class="edge">
<title>Node8&#45;&gt;Node9</title>
<g id="a_edge10_Node000008_Node000009"><a xlink:title=" ">
<path fill="none" stroke="#63b8ff" d="M177.1742,-54.9197C177.3017,-47.9083 177.4792,-38.1442 177.637,-29.4652"/>
<polygon fill="#63b8ff" stroke="#63b8ff" points="181.1386,-29.4028 177.8211,-19.3408 174.1398,-29.2755 181.1386,-29.4028"/>
</a>
</g>
</g>
</g>
</svg>
