<?xml version="1.0" encoding="UTF-8" standalone="no"?>
<!DOCTYPE svg PUBLIC "-//W3C//DTD SVG 1.1//EN"
 "http://www.w3.org/Graphics/SVG/1.1/DTD/svg11.dtd">
<!-- Generated by graphviz version 2.40.1 (0)
 -->
<!-- Title: send_fin Pages: 1 -->
<svg width="391pt" height="64pt"
 viewBox="0.00 0.00 391.00 64.00" xmlns="http://www.w3.org/2000/svg" xmlns:xlink="http://www.w3.org/1999/xlink">
<g id="graph0" class="graph" transform="scale(1 1) rotate(0) translate(4 60)">
<title>send_fin</title>
<!-- Node1 -->
<g id="Node000001" class="node">
<title>Node1</title>
<g id="a_Node000001"><a xlink:title=" ">
<polygon fill="#999999" stroke="#666666" points="53,-37 0,-37 0,-18 53,-18 53,-37"/>
<text text-anchor="middle" x="26.5" y="-25" font-family="Helvetica,sans-Serif" font-size="10.00" fill="#000000">send_fin</text>
</a>
</g>
</g>
<!-- Node2 -->
<g id="Node000002" class="node">
<title>Node2</title>
<g id="a_Node000002"><a xlink:href="packet_8c.html#a062c5f9f3ce1273c5ac873ed39537537" target="_top" xlink:title="正常終了通知 (FIN) パケットを構築します。">
<polygon fill="#ffffff" stroke="#666666" points="178.5,-56 91.5,-56 91.5,-37 178.5,-37 178.5,-56"/>
<text text-anchor="middle" x="135" y="-44" font-family="Helvetica,sans-Serif" font-size="10.00" fill="#000000">packet_build_fin</text>
</a>
</g>
</g>
<!-- Node1&#45;&gt;Node2 -->
<g id="edge1_Node000001_Node000002" class="edge">
<title>Node1&#45;&gt;Node2</title>
<g id="a_edge1_Node000001_Node000002"><a xlink:title=" ">
<path fill="none" stroke="#63b8ff" d="M53.0421,-32.1479C61.6096,-33.6482 71.4374,-35.3692 81.2437,-37.0865"/>
<polygon fill="#63b8ff" stroke="#63b8ff" points="80.9475,-40.5878 91.4014,-38.8652 82.155,-33.6927 80.9475,-40.5878"/>
</a>
</g>
</g>
<!-- Node5 -->
<g id="Node000005" class="node">
<title>Node5</title>
<g id="a_Node000005"><a xlink:href="packet_8c.html#aee7ebc74dbbe67fa4c9bcdced8dca70c" target="_top" xlink:title="パケットのヘッダー + ペイロードの合計バイト数を返します。">
<polygon fill="#ffffff" stroke="#666666" points="181,-19 89,-19 89,0 181,0 181,-19"/>
<text text-anchor="middle" x="135" y="-7" font-family="Helvetica,sans-Serif" font-size="10.00" fill="#000000">packet_wire_size</text>
</a>
</g>
</g>
<!-- Node1&#45;&gt;Node5 -->
<g id="edge4_Node000001_Node000005" class="edge">
<title>Node1&#45;&gt;Node5</title>
<g id="a_edge4_Node000001_Node000005"><a xlink:title=" ">
<path fill="none" stroke="#63b8ff" d="M53.0421,-23.0967C60.8822,-21.796 69.7778,-20.3203 78.7464,-18.8324"/>
<polygon fill="#63b8ff" stroke="#63b8ff" points="79.5587,-22.2456 88.851,-17.156 78.413,-15.3399 79.5587,-22.2456"/>
</a>
</g>
</g>
<!-- Node3 -->
<g id="Node000003" class="node">
<title>Node3</title>
<g id="a_Node000003"><a xlink:href="packet_8c.html#a479088cf3b9ccf5ebe8891ad2881b196" target="_top" xlink:title=" ">
<polygon fill="#ffffff" stroke="#666666" points="301,-56 217,-56 217,-37 301,-37 301,-56"/>
<text text-anchor="middle" x="259" y="-44" font-family="Helvetica,sans-Serif" font-size="10.00" fill="#000000">fill_session_hdr</text>
</a>
</g>
</g>
<!-- Node2&#45;&gt;Node3 -->
<g id="edge2_Node000002_Node000003" class="edge">
<title>Node2&#45;&gt;Node3</title>
<g id="a_edge2_Node000002_Node000003"><a xlink:title=" ">
<path fill="none" stroke="#63b8ff" d="M178.7178,-46.5C187.8324,-46.5 197.526,-46.5 206.9088,-46.5"/>
<polygon fill="#63b8ff" stroke="#63b8ff" points="206.926,-50.0001 216.926,-46.5 206.926,-43.0001 206.926,-50.0001"/>
</a>
</g>
</g>
<!-- Node4 -->
<g id="Node000004" class="node">
<title>Node4</title>
<g id="a_Node000004"><a xlink:href="packet_8c.html#a6564ae80f665edd6931ef662818e19b0" target="_top" xlink:title=" ">
<polygon fill="#ffffff" stroke="#666666" points="383,-56 337,-56 337,-37 383,-37 383,-56"/>
<text text-anchor="middle" x="360" y="-44" font-family="Helvetica,sans-Serif" font-size="10.00" fill="#000000">hton64</text>
</a>
</g>
</g>
<!-- Node3&#45;&gt;Node4 -->
<g id="edge3_Node000003_Node000004" class="edge">
<title>Node3&#45;&gt;Node4</title>
<g id="a_edge3_Node000003_Node000004"><a xlink:title=" ">
<path fill="none" stroke="#63b8ff" d="M301.2479,-46.5C309.7423,-46.5 318.5568,-46.5 326.6948,-46.5"/>
<polygon fill="#63b8ff" stroke="#63b8ff" points="326.9196,-50.0001 336.9196,-46.5 326.9195,-43.0001 326.9196,-50.0001"/>
</a>
</g>
</g>
</g>
</svg>
