<?xml version="1.0" encoding="UTF-8" standalone="no"?>
<!DOCTYPE svg PUBLIC "-//W3C//DTD SVG 1.1//EN"
 "http://www.w3.org/Graphics/SVG/1.1/DTD/svg11.dtd">
<!-- Generated by graphviz version 2.40.1 (0)
 -->
<!-- Title: check_health_timeout Pages: 1 -->
<svg width="236pt" height="64pt"
 viewBox="0.00 0.00 236.00 64.00" xmlns="http://www.w3.org/2000/svg" xmlns:xlink="http://www.w3.org/1999/xlink">
<g id="graph0" class="graph" transform="scale(1 1) rotate(0) translate(4 60)">
<title>check_health_timeout</title>
<!-- Node1 -->
<g id="Node000001" class="node">
<title>Node1</title>
<g id="a_Node000001"><a xlink:title=" ">
<polygon fill="#999999" stroke="#666666" points="112,-37 0,-37 0,-18 112,-18 112,-37"/>
<text text-anchor="middle" x="56" y="-25" font-family="Helvetica,sans-Serif" font-size="10.00" fill="#000000">check_health_timeout</text>
</a>
</g>
</g>
<!-- Node2 -->
<g id="Node000002" class="node">
<title>Node2</title>
<g id="a_Node000002"><a xlink:href="potrRecvThread_8c.html#a019adce8e207841015b8f2a83e5d0a07" target="_top" xlink:title=" ">
<polygon fill="#ffffff" stroke="#666666" points="228,-56 148,-56 148,-37 228,-37 228,-56"/>
<text text-anchor="middle" x="188" y="-44" font-family="Helvetica,sans-Serif" font-size="10.00" fill="#000000">get_monotonic</text>
</a>
</g>
</g>
<!-- Node1&#45;&gt;Node2 -->
<g id="edge1_Node000001_Node000002" class="edge">
<title>Node1&#45;&gt;Node2</title>
<g id="a_edge1_Node000001_Node000002"><a xlink:title=" ">
<path fill="none" stroke="#63b8ff" d="M112.3628,-35.6128C120.8317,-36.8318 129.517,-38.082 137.8446,-39.2807"/>
<polygon fill="#63b8ff" stroke="#63b8ff" points="137.3898,-42.7512 147.7865,-40.7117 138.3872,-35.8226 137.3898,-42.7512"/>
</a>
</g>
</g>
<!-- Node3 -->
<g id="Node000003" class="node">
<title>Node3</title>
<g id="a_Node000003"><a xlink:href="window_8c.html#a2589115bd38c8d2dcbc47ef7ef87e8a7" target="_top" xlink:title="ウィンドウを初期化します。">
<polygon fill="#ffffff" stroke="#666666" points="221,-19 155,-19 155,0 221,0 221,-19"/>
<text text-anchor="middle" x="188" y="-7" font-family="Helvetica,sans-Serif" font-size="10.00" fill="#000000">window_init</text>
</a>
</g>
</g>
<!-- Node1&#45;&gt;Node3 -->
<g id="edge2_Node000001_Node000003" class="edge">
<title>Node1&#45;&gt;Node3</title>
<g id="a_edge2_Node000001_Node000003"><a xlink:title=" ">
<path fill="none" stroke="#63b8ff" d="M112.3628,-19.8142C123.189,-18.3379 134.3688,-16.8133 144.7029,-15.4041"/>
<polygon fill="#63b8ff" stroke="#63b8ff" points="145.2754,-18.8586 154.7108,-14.0394 144.3296,-11.9227 145.2754,-18.8586"/>
</a>
</g>
</g>
</g>
</svg>
