<?xml version="1.0" encoding="UTF-8" standalone="no"?>
<!DOCTYPE svg PUBLIC "-//W3C//DTD SVG 1.1//EN"
 "http://www.w3.org/Graphics/SVG/1.1/DTD/svg11.dtd">
<!-- Generated by graphviz version 2.40.1 (0)
 -->
<!-- Title: flush_packed Pages: 1 -->
<svg width="436pt" height="156pt"
 viewBox="0.00 0.00 436.00 156.00" xmlns="http://www.w3.org/2000/svg" xmlns:xlink="http://www.w3.org/1999/xlink">
<g id="graph0" class="graph" transform="scale(1 1) rotate(0) translate(4 152)">
<title>flush_packed</title>
<!-- Node1 -->
<g id="Node000001" class="node">
<title>Node1</title>
<g id="a_Node000001"><a xlink:title=" ">
<polygon fill="#999999" stroke="#666666" points="74,-92 0,-92 0,-73 74,-73 74,-92"/>
<text text-anchor="middle" x="37" y="-80" font-family="Helvetica,sans-Serif" font-size="10.00" fill="#000000">flush_packed</text>
</a>
</g>
</g>
<!-- Node2 -->
<g id="Node000002" class="node">
<title>Node2</title>
<g id="a_Node000002"><a xlink:href="potrSendThread_8c.html#add6449980c94371f0df31387da6fa642" target="_top" xlink:title=" ">
<polygon fill="#ffffff" stroke="#666666" points="188.5,-148 139.5,-148 139.5,-129 188.5,-129 188.5,-148"/>
<text text-anchor="middle" x="164" y="-136" font-family="Helvetica,sans-Serif" font-size="10.00" fill="#000000">get_ms</text>
</a>
</g>
</g>
<!-- Node1&#45;&gt;Node2 -->
<g id="edge1_Node000001_Node000002" class="edge">
<title>Node1&#45;&gt;Node2</title>
<g id="a_edge1_Node000001_Node000002"><a xlink:title=" ">
<path fill="none" stroke="#63b8ff" d="M53.4543,-92.0231C68.0179,-100.2182 90.004,-112.0258 110,-120.5 116.1502,-123.1064 122.8173,-125.5914 129.2995,-127.8372"/>
<polygon fill="#63b8ff" stroke="#63b8ff" points="128.6392,-131.3066 139.233,-131.1528 130.8555,-124.6667 128.6392,-131.3066"/>
</a>
</g>
</g>
<!-- Node3 -->
<g id="Node000003" class="node">
<title>Node3</title>
<g id="a_Node000003"><a xlink:href="packet_8c.html#a0f1ece40d194d02905f9ebfa68cac012" target="_top" xlink:title="データパケット (パックコンテナ) を構築します。">
<polygon fill="#ffffff" stroke="#666666" points="218,-111 110,-111 110,-92 218,-92 218,-111"/>
<text text-anchor="middle" x="164" y="-99" font-family="Helvetica,sans-Serif" font-size="10.00" fill="#000000">packet_build_packed</text>
</a>
</g>
</g>
<!-- Node1&#45;&gt;Node3 -->
<g id="edge2_Node000001_Node000003" class="edge">
<title>Node1&#45;&gt;Node3</title>
<g id="a_edge2_Node000001_Node000003"><a xlink:title=" ">
<path fill="none" stroke="#63b8ff" d="M74.0751,-88.0467C82.1607,-89.2563 90.942,-90.5701 99.7427,-91.8867"/>
<polygon fill="#63b8ff" stroke="#63b8ff" points="99.2434,-95.3509 109.6513,-93.3691 100.2792,-88.4279 99.2434,-95.3509"/>
</a>
</g>
</g>
<!-- Node6 -->
<g id="Node000006" class="node">
<title>Node6</title>
<g id="a_Node000006"><a xlink:href="crypto__linux_8c.html#a379b176a834b6fb61d80039e32eebf73" target="_top" xlink:title="AES&#45;256&#45;GCM でデータを暗号化します。">
<polygon fill="#ffffff" stroke="#666666" points="199.5,-74 128.5,-74 128.5,-55 199.5,-55 199.5,-74"/>
<text text-anchor="middle" x="164" y="-62" font-family="Helvetica,sans-Serif" font-size="10.00" fill="#000000">potr_encrypt</text>
</a>
</g>
</g>
<!-- Node1&#45;&gt;Node6 -->
<g id="edge5_Node000001_Node000006" class="edge">
<title>Node1&#45;&gt;Node6</title>
<g id="a_edge5_Node000001_Node000006"><a xlink:title=" ">
<path fill="none" stroke="#63b8ff" d="M74.0751,-77.2453C87.8611,-75.2913 103.6696,-73.0508 118.1485,-70.9986"/>
<polygon fill="#63b8ff" stroke="#63b8ff" points="118.9985,-74.4132 128.4083,-69.5445 118.0161,-67.4825 118.9985,-74.4132"/>
</a>
</g>
</g>
<!-- Node7 -->
<g id="Node000007" class="node">
<title>Node7</title>
<g id="a_Node000007"><a xlink:href="window_8c.html#a194f99cfb5f1631fb7643c1838a5278a" target="_top" xlink:title="送信ウィンドウにパケットを積みます。">
<polygon fill="#ffffff" stroke="#666666" points="214.5,-37 113.5,-37 113.5,-18 214.5,-18 214.5,-37"/>
<text text-anchor="middle" x="164" y="-25" font-family="Helvetica,sans-Serif" font-size="10.00" fill="#000000">window_send_push</text>
</a>
</g>
</g>
<!-- Node1&#45;&gt;Node7 -->
<g id="edge6_Node000001_Node000007" class="edge">
<title>Node1&#45;&gt;Node7</title>
<g id="a_edge6_Node000001_Node000007"><a xlink:title=" ">
<path fill="none" stroke="#63b8ff" d="M54.0663,-72.9452C68.6498,-65.0017 90.3319,-53.7098 110,-45.5 114.2178,-43.7394 118.6741,-42.0275 123.1451,-40.4041"/>
<polygon fill="#63b8ff" stroke="#63b8ff" points="124.5831,-43.6092 132.8694,-37.007 122.2745,-37.0008 124.5831,-43.6092"/>
</a>
</g>
</g>
<!-- Node4 -->
<g id="Node000004" class="node">
<title>Node4</title>
<g id="a_Node000004"><a xlink:href="packet_8c.html#a479088cf3b9ccf5ebe8891ad2881b196" target="_top" xlink:title=" ">
<polygon fill="#ffffff" stroke="#666666" points="342,-111 258,-111 258,-92 342,-92 342,-111"/>
<text text-anchor="middle" x="300" y="-99" font-family="Helvetica,sans-Serif" font-size="10.00" fill="#000000">fill_session_hdr</text>
</a>
</g>
</g>
<!-- Node3&#45;&gt;Node4 -->
<g id="edge3_Node000003_Node000004" class="edge">
<title>Node3&#45;&gt;Node4</title>
<g id="a_edge3_Node000003_Node000004"><a xlink:title=" ">
<path fill="none" stroke="#63b8ff" d="M218.1416,-101.5C227.8245,-101.5 237.8989,-101.5 247.5337,-101.5"/>
<polygon fill="#63b8ff" stroke="#63b8ff" points="247.7767,-105.0001 257.7767,-101.5 247.7767,-98.0001 247.7767,-105.0001"/>
</a>
</g>
</g>
<!-- Node5 -->
<g id="Node000005" class="node">
<title>Node5</title>
<g id="a_Node000005"><a xlink:href="packet_8c.html#a6564ae80f665edd6931ef662818e19b0" target="_top" xlink:title=" ">
<polygon fill="#ffffff" stroke="#666666" points="428,-111 382,-111 382,-92 428,-92 428,-111"/>
<text text-anchor="middle" x="405" y="-99" font-family="Helvetica,sans-Serif" font-size="10.00" fill="#000000">hton64</text>
</a>
</g>
</g>
<!-- Node4&#45;&gt;Node5 -->
<g id="edge4_Node000004_Node000005" class="edge">
<title>Node4&#45;&gt;Node5</title>
<g id="a_edge4_Node000004_Node000005"><a xlink:title=" ">
<path fill="none" stroke="#63b8ff" d="M342.1025,-101.5C351.9684,-101.5 362.3447,-101.5 371.7612,-101.5"/>
<polygon fill="#63b8ff" stroke="#63b8ff" points="371.9066,-105.0001 381.9066,-101.5 371.9065,-98.0001 371.9066,-105.0001"/>
</a>
</g>
</g>
<!-- Node8 -->
<g id="Node000008" class="node">
<title>Node8</title>
<g id="a_Node000008"><a xlink:href="window_8c.html#ad5f53882d6cd6075a78e83b94fb62cc3" target="_top" xlink:title=" ">
<polygon fill="#ffffff" stroke="#666666" points="329.5,-56 270.5,-56 270.5,-37 329.5,-37 329.5,-56"/>
<text text-anchor="middle" x="300" y="-44" font-family="Helvetica,sans-Serif" font-size="10.00" fill="#000000">win_index</text>
</a>
</g>
</g>
<!-- Node7&#45;&gt;Node8 -->
<g id="edge7_Node000007_Node000008" class="edge">
<title>Node7&#45;&gt;Node8</title>
<g id="a_edge7_Node000007_Node000008"><a xlink:title=" ">
<path fill="none" stroke="#63b8ff" d="M214.6414,-34.5749C229.7125,-36.6804 246.0029,-38.9563 260.2724,-40.9498"/>
<polygon fill="#63b8ff" stroke="#63b8ff" points="259.8712,-44.4277 270.2593,-42.345 260.8398,-37.495 259.8712,-44.4277"/>
</a>
</g>
</g>
<!-- Node9 -->
<g id="Node000009" class="node">
<title>Node9</title>
<g id="a_Node000009"><a xlink:href="window_8c.html#aa49e58851242a05b75813c79490da396" target="_top" xlink:title="送信ウィンドウが満杯かどうかを返します。">
<polygon fill="#ffffff" stroke="#666666" points="346,-19 254,-19 254,0 346,0 346,-19"/>
<text text-anchor="middle" x="300" y="-7" font-family="Helvetica,sans-Serif" font-size="10.00" fill="#000000">window_send_full</text>
</a>
</g>
</g>
<!-- Node7&#45;&gt;Node9 -->
<g id="edge8_Node000007_Node000009" class="edge">
<title>Node7&#45;&gt;Node9</title>
<g id="a_edge8_Node000007_Node000009"><a xlink:title=" ">
<path fill="none" stroke="#63b8ff" d="M214.6414,-20.7975C224.17,-19.5363 234.186,-18.2107 243.8704,-16.9289"/>
<polygon fill="#63b8ff" stroke="#63b8ff" points="244.3541,-20.3955 253.8084,-15.6136 243.4356,-13.456 244.3541,-20.3955"/>
</a>
</g>
</g>
</g>
</svg>
