<?xml version="1.0" encoding="UTF-8" standalone="no"?>
<!DOCTYPE svg PUBLIC "-//W3C//DTD SVG 1.1//EN"
 "http://www.w3.org/Graphics/SVG/1.1/DTD/svg11.dtd">
<!-- Generated by graphviz version 2.40.1 (0)
 -->
<!-- Title: porter/libsrc/porter/potrContext.h Pages: 1 -->
<svg width="788pt" height="170pt"
 viewBox="0.00 0.00 787.50 170.00" xmlns="http://www.w3.org/2000/svg" xmlns:xlink="http://www.w3.org/1999/xlink">
<g id="graph0" class="graph" transform="scale(1 1) rotate(0) translate(4 166)">
<title>porter/libsrc/porter/potrContext.h</title>
<!-- Node1 -->
<g id="Node000001" class="node">
<title>Node1</title>
<g id="a_Node000001"><a xlink:title="セッションコンテキスト内部定義ヘッダー。">
<polygon fill="#999999" stroke="#666666" points="399.5,-162 304.5,-162 304.5,-132 399.5,-132 399.5,-162"/>
<text text-anchor="start" x="312.5" y="-150" font-family="Helvetica,sans-Serif" font-size="10.00" fill="#000000">porter/libsrc/porter</text>
<text text-anchor="middle" x="352" y="-139" font-family="Helvetica,sans-Serif" font-size="10.00" fill="#000000">/potrContext.h</text>
</a>
</g>
</g>
<!-- Node2 -->
<g id="Node000002" class="node">
<title>Node2</title>
<g id="a_Node000002"><a xlink:href="potrCloseService_8c.html" target="_top" xlink:title=" ">
<polygon fill="#ffffff" stroke="#666666" points="474,-30 356,-30 356,0 474,0 474,-30"/>
<text text-anchor="start" x="364" y="-18" font-family="Helvetica,sans-Serif" font-size="10.00" fill="#000000">porter/libsrc/porter</text>
<text text-anchor="middle" x="415" y="-7" font-family="Helvetica,sans-Serif" font-size="10.00" fill="#000000">/api/potrCloseService.c</text>
</a>
</g>
</g>
<!-- Node1&#45;&gt;Node2 -->
<g id="edge1_Node000001_Node000002" class="edge">
<title>Node1&#45;&gt;Node2</title>
<g id="a_edge1_Node000001_Node000002"><a xlink:title=" ">
<path fill="none" stroke="#63b8ff" d="M354.7235,-121.893C357.2666,-105.3254 362.0725,-83.5262 371,-66 377.9001,-52.454 389.1387,-39.5141 398.5302,-30.0579"/>
<polygon fill="#63b8ff" stroke="#63b8ff" points="351.2384,-121.5468 353.3585,-131.9273 358.1746,-122.4904 351.2384,-121.5468"/>
</a>
</g>
</g>
<!-- Node3 -->
<g id="Node000003" class="node">
<title>Node3</title>
<g id="a_Node000003"><a xlink:href="potrOpenService_8c.html" target="_top" xlink:title="potrOpenService 関数の実装。">
<polygon fill="#ffffff" stroke="#666666" points="318,-30 202,-30 202,0 318,0 318,-30"/>
<text text-anchor="start" x="210" y="-18" font-family="Helvetica,sans-Serif" font-size="10.00" fill="#000000">porter/libsrc/porter</text>
<text text-anchor="middle" x="260" y="-7" font-family="Helvetica,sans-Serif" font-size="10.00" fill="#000000">/api/potrOpenService.c</text>
</a>
</g>
</g>
<!-- Node1&#45;&gt;Node3 -->
<g id="edge2_Node000001_Node000003" class="edge">
<title>Node1&#45;&gt;Node3</title>
<g id="a_edge2_Node000001_Node000003"><a xlink:title=" ">
<path fill="none" stroke="#63b8ff" d="M294.281,-145.029C220,-141.1379 97.1334,-129.6565 69,-96 60.4487,-85.77 60.8786,-76.5745 69,-66 85.2017,-44.9045 151.8033,-30.6581 201.8343,-22.7005"/>
<polygon fill="#63b8ff" stroke="#63b8ff" points="294.2647,-148.5324 304.4249,-145.5292 294.6095,-141.5409 294.2647,-148.5324"/>
</a>
</g>
</g>
<!-- Node4 -->
<g id="Node000004" class="node">
<title>Node4</title>
<g id="a_Node000004"><a xlink:href="potrSend_8c.html" target="_top" xlink:title="potrSend 関数の実装。">
<polygon fill="#ffffff" stroke="#666666" points="173.5,-96 78.5,-96 78.5,-66 173.5,-66 173.5,-96"/>
<text text-anchor="start" x="86.5" y="-84" font-family="Helvetica,sans-Serif" font-size="10.00" fill="#000000">porter/libsrc/porter</text>
<text text-anchor="middle" x="126" y="-73" font-family="Helvetica,sans-Serif" font-size="10.00" fill="#000000">/api/potrSend.c</text>
</a>
</g>
</g>
<!-- Node1&#45;&gt;Node4 -->
<g id="edge3_Node000001_Node000004" class="edge">
<title>Node1&#45;&gt;Node4</title>
<g id="a_edge3_Node000001_Node000004"><a xlink:title=" ">
<path fill="none" stroke="#63b8ff" d="M294.5883,-130.2337C257.1534,-119.3014 208.8789,-105.2036 173.5874,-94.8972"/>
<polygon fill="#63b8ff" stroke="#63b8ff" points="293.7671,-133.6401 304.3474,-133.0837 295.7295,-126.9207 293.7671,-133.6401"/>
</a>
</g>
</g>
<!-- Node5 -->
<g id="Node000005" class="node">
<title>Node5</title>
<g id="a_Node000005"><a xlink:href="potrHealthThread_8c.html" target="_top" xlink:title="ヘルスチェックスレッドモジュール。">
<polygon fill="#ffffff" stroke="#666666" points="132,-30 0,-30 0,0 132,0 132,-30"/>
<text text-anchor="start" x="8" y="-18" font-family="Helvetica,sans-Serif" font-size="10.00" fill="#000000">porter/libsrc/porter</text>
<text text-anchor="middle" x="66" y="-7" font-family="Helvetica,sans-Serif" font-size="10.00" fill="#000000">/thread/potrHealthThread.c</text>
</a>
</g>
</g>
<!-- Node1&#45;&gt;Node5 -->
<g id="edge4_Node000001_Node000005" class="edge">
<title>Node1&#45;&gt;Node5</title>
<g id="a_edge4_Node000001_Node000005"><a xlink:title=" ">
<path fill="none" stroke="#63b8ff" d="M294.2927,-145.4354C217.6408,-142.0005 88.4589,-131.0295 59,-96 43.5559,-77.6355 51.7103,-47.942 58.932,-30.0643"/>
<polygon fill="#63b8ff" stroke="#63b8ff" points="294.1481,-148.9324 304.2858,-145.854 294.4411,-141.9385 294.1481,-148.9324"/>
</a>
</g>
</g>
<!-- Node6 -->
<g id="Node000006" class="node">
<title>Node6</title>
<g id="a_Node000006"><a xlink:href="potrHealthThread_8h.html" target="_top" xlink:title="ヘルスチェックスレッド内部ヘッダー。">
<polygon fill="#ffffff" stroke="#666666" points="324,-96 192,-96 192,-66 324,-66 324,-96"/>
<text text-anchor="start" x="200" y="-84" font-family="Helvetica,sans-Serif" font-size="10.00" fill="#000000">porter/libsrc/porter</text>
<text text-anchor="middle" x="258" y="-73" font-family="Helvetica,sans-Serif" font-size="10.00" fill="#000000">/thread/potrHealthThread.h</text>
</a>
</g>
</g>
<!-- Node1&#45;&gt;Node6 -->
<g id="edge5_Node000001_Node000006" class="edge">
<title>Node1&#45;&gt;Node6</title>
<g id="a_edge5_Node000001_Node000006"><a xlink:title=" ">
<path fill="none" stroke="#63b8ff" d="M321.9771,-125.9201C308.2273,-116.2659 292.2379,-105.0394 279.6835,-96.2246"/>
<polygon fill="#63b8ff" stroke="#63b8ff" points="320.0029,-128.8105 330.1982,-131.6924 324.0253,-123.0816 320.0029,-128.8105"/>
</a>
</g>
</g>
<!-- Node7 -->
<g id="Node000007" class="node">
<title>Node7</title>
<g id="a_Node000007"><a xlink:href="potrRecvThread_8c.html" target="_top" xlink:title="受信スレッドモジュール。">
<polygon fill="#ffffff" stroke="#666666" points="629.5,-30 502.5,-30 502.5,0 629.5,0 629.5,-30"/>
<text text-anchor="start" x="510.5" y="-18" font-family="Helvetica,sans-Serif" font-size="10.00" fill="#000000">porter/libsrc/porter</text>
<text text-anchor="middle" x="566" y="-7" font-family="Helvetica,sans-Serif" font-size="10.00" fill="#000000">/thread/potrRecvThread.c</text>
</a>
</g>
</g>
<!-- Node1&#45;&gt;Node7 -->
<g id="edge9_Node000001_Node000007" class="edge">
<title>Node1&#45;&gt;Node7</title>
<g id="a_edge9_Node000001_Node000007"><a xlink:title=" ">
<path fill="none" stroke="#63b8ff" d="M409.5601,-141.5388C494.68,-132.8746 645.8669,-115.0042 662,-96 684.2275,-69.8169 642.7675,-45.1917 607.572,-30.1181"/>
<polygon fill="#63b8ff" stroke="#63b8ff" points="409.1198,-138.0653 399.5206,-142.5492 409.8209,-145.0301 409.1198,-138.0653"/>
</a>
</g>
</g>
<!-- Node8 -->
<g id="Node000008" class="node">
<title>Node8</title>
<g id="a_Node000008"><a xlink:href="potrRecvThread_8h.html" target="_top" xlink:title="受信スレッド内部ヘッダー。">
<polygon fill="#ffffff" stroke="#666666" points="507.5,-96 380.5,-96 380.5,-66 507.5,-66 507.5,-96"/>
<text text-anchor="start" x="388.5" y="-84" font-family="Helvetica,sans-Serif" font-size="10.00" fill="#000000">porter/libsrc/porter</text>
<text text-anchor="middle" x="444" y="-73" font-family="Helvetica,sans-Serif" font-size="10.00" fill="#000000">/thread/potrRecvThread.h</text>
</a>
</g>
</g>
<!-- Node1&#45;&gt;Node8 -->
<g id="edge10_Node000001_Node000008" class="edge">
<title>Node1&#45;&gt;Node8</title>
<g id="a_edge10_Node000001_Node000008"><a xlink:title=" ">
<path fill="none" stroke="#63b8ff" d="M381.7655,-125.6465C395.1364,-116.0543 410.6065,-104.9562 422.7778,-96.2246"/>
<polygon fill="#63b8ff" stroke="#63b8ff" points="379.4231,-123.0194 373.3379,-131.6924 383.5035,-128.7072 379.4231,-123.0194"/>
</a>
</g>
</g>
<!-- Node9 -->
<g id="Node000009" class="node">
<title>Node9</title>
<g id="a_Node000009"><a xlink:href="potrSendThread_8c.html" target="_top" xlink:title="非同期送信スレッドの実装。">
<polygon fill="#ffffff" stroke="#666666" points="779.5,-30 652.5,-30 652.5,0 779.5,0 779.5,-30"/>
<text text-anchor="start" x="660.5" y="-18" font-family="Helvetica,sans-Serif" font-size="10.00" fill="#000000">porter/libsrc/porter</text>
<text text-anchor="middle" x="716" y="-7" font-family="Helvetica,sans-Serif" font-size="10.00" fill="#000000">/thread/potrSendThread.c</text>
</a>
</g>
</g>
<!-- Node1&#45;&gt;Node9 -->
<g id="edge14_Node000001_Node000009" class="edge">
<title>Node1&#45;&gt;Node9</title>
<g id="a_edge14_Node000001_Node000009"><a xlink:title=" ">
<path fill="none" stroke="#63b8ff" d="M409.7266,-144.4836C492.0135,-139.8321 637.6658,-127.3256 679,-96 700.1929,-79.9387 709.6103,-48.8951 713.5086,-30.2519"/>
<polygon fill="#63b8ff" stroke="#63b8ff" points="409.3244,-141.0003 399.5293,-145.0382 409.7046,-147.9899 409.3244,-141.0003"/>
</a>
</g>
</g>
<!-- Node10 -->
<g id="Node000010" class="node">
<title>Node10</title>
<g id="a_Node000010"><a xlink:href="potrSendThread_8h.html" target="_top" xlink:title="非同期送信スレッドの内部ヘッダー。">
<polygon fill="#ffffff" stroke="#666666" points="652.5,-96 525.5,-96 525.5,-66 652.5,-66 652.5,-96"/>
<text text-anchor="start" x="533.5" y="-84" font-family="Helvetica,sans-Serif" font-size="10.00" fill="#000000">porter/libsrc/porter</text>
<text text-anchor="middle" x="589" y="-73" font-family="Helvetica,sans-Serif" font-size="10.00" fill="#000000">/thread/potrSendThread.h</text>
</a>
</g>
</g>
<!-- Node1&#45;&gt;Node10 -->
<g id="edge15_Node000001_Node000010" class="edge">
<title>Node1&#45;&gt;Node10</title>
<g id="a_edge15_Node000001_Node000010"><a xlink:title=" ">
<path fill="none" stroke="#63b8ff" d="M409.5994,-130.9597C447.7123,-120.3459 497.3671,-106.518 534.7719,-96.1015"/>
<polygon fill="#63b8ff" stroke="#63b8ff" points="408.3698,-127.6688 399.6754,-133.7233 410.2478,-134.4122 408.3698,-127.6688"/>
</a>
</g>
</g>
<!-- Node6&#45;&gt;Node2 -->
<g id="edge6_Node000006_Node000002" class="edge">
<title>Node6&#45;&gt;Node2</title>
<g id="a_edge6_Node000006_Node000002"><a xlink:title=" ">
<path fill="none" stroke="#63b8ff" d="M303.32,-61.9483C327.4244,-51.8152 356.6439,-39.5318 379.1486,-30.0713"/>
<polygon fill="#63b8ff" stroke="#63b8ff" points="301.8812,-58.7564 294.019,-65.8583 304.5939,-65.2094 301.8812,-58.7564"/>
</a>
</g>
</g>
<!-- Node6&#45;&gt;Node3 -->
<g id="edge7_Node000006_Node000003" class="edge">
<title>Node6&#45;&gt;Node3</title>
<g id="a_edge7_Node000006_Node000003"><a xlink:title=" ">
<path fill="none" stroke="#63b8ff" d="M258.7741,-55.4546C259.0324,-46.9317 259.3119,-37.7088 259.5386,-30.2246"/>
<polygon fill="#63b8ff" stroke="#63b8ff" points="255.2685,-55.5909 258.4639,-65.6924 262.2652,-55.803 255.2685,-55.5909"/>
</a>
</g>
</g>
<!-- Node6&#45;&gt;Node5 -->
<g id="edge8_Node000006_Node000005" class="edge">
<title>Node6&#45;&gt;Node5</title>
<g id="a_edge8_Node000006_Node000005"><a xlink:title=" ">
<path fill="none" stroke="#63b8ff" d="M204.1361,-62.4843C174.3663,-52.2509 137.8525,-39.6993 109.8437,-30.0713"/>
<polygon fill="#63b8ff" stroke="#63b8ff" points="203.3566,-65.9173 213.9513,-65.8583 205.6323,-59.2975 203.3566,-65.9173"/>
</a>
</g>
</g>
<!-- Node8&#45;&gt;Node2 -->
<g id="edge11_Node000008_Node000002" class="edge">
<title>Node8&#45;&gt;Node2</title>
<g id="a_edge11_Node000008_Node000002"><a xlink:title=" ">
<path fill="none" stroke="#63b8ff" d="M433.1489,-56.3045C429.3016,-47.5485 425.0877,-37.9583 421.6896,-30.2246"/>
<polygon fill="#63b8ff" stroke="#63b8ff" points="430.0468,-57.9452 437.2739,-65.6924 436.4555,-55.1292 430.0468,-57.9452"/>
</a>
</g>
</g>
<!-- Node8&#45;&gt;Node3 -->
<g id="edge12_Node000008_Node000003" class="edge">
<title>Node8&#45;&gt;Node3</title>
<g id="a_edge12_Node000008_Node000003"><a xlink:title=" ">
<path fill="none" stroke="#63b8ff" d="M392.0079,-62.3507C363.5469,-52.1418 328.7419,-39.6574 302.0169,-30.0713"/>
<polygon fill="#63b8ff" stroke="#63b8ff" points="391.1922,-65.7764 401.7867,-65.8583 393.5556,-59.1874 391.1922,-65.7764"/>
</a>
</g>
</g>
<!-- Node8&#45;&gt;Node7 -->
<g id="edge13_Node000008_Node000007" class="edge">
<title>Node8&#45;&gt;Node7</title>
<g id="a_edge13_Node000008_Node000007"><a xlink:title=" ">
<path fill="none" stroke="#63b8ff" d="M480.9684,-61.0007C499.3491,-51.057 521.1949,-39.2388 538.141,-30.0713"/>
<polygon fill="#63b8ff" stroke="#63b8ff" points="479.1193,-58.0216 471.9893,-65.8583 482.4501,-64.1784 479.1193,-58.0216"/>
</a>
</g>
</g>
<!-- Node10&#45;&gt;Node2 -->
<g id="edge16_Node000010_Node000002" class="edge">
<title>Node10&#45;&gt;Node2</title>
<g id="a_edge16_Node000010_Node000002"><a xlink:title=" ">
<path fill="none" stroke="#63b8ff" d="M539.4806,-62.2168C512.6321,-52.0329 479.8956,-39.6156 454.7334,-30.0713"/>
<polygon fill="#63b8ff" stroke="#63b8ff" points="538.4896,-65.5842 549.0809,-65.8583 540.9722,-59.0392 538.4896,-65.5842"/>
</a>
</g>
</g>
<!-- Node10&#45;&gt;Node3 -->
<g id="edge17_Node000010_Node000003" class="edge">
<title>Node10&#45;&gt;Node3</title>
<g id="a_edge17_Node000010_Node000003"><a xlink:title=" ">
<path fill="none" stroke="#63b8ff" d="M515.3554,-65.8761C441.4952,-50.9486 367.8982,-36.327 318.2278,-26.4965"/>
<polygon fill="#63b8ff" stroke="#63b8ff" points="514.8079,-69.3361 525.3034,-67.8882 516.1957,-62.4751 514.8079,-69.3361"/>
</a>
</g>
</g>
<!-- Node10&#45;&gt;Node9 -->
<g id="edge18_Node000010_Node000009" class="edge">
<title>Node10&#45;&gt;Node9</title>
<g id="a_edge18_Node000010_Node000009"><a xlink:title=" ">
<path fill="none" stroke="#63b8ff" d="M627.2217,-61.1368C646.4098,-51.165 669.2781,-39.2807 686.9992,-30.0713"/>
<polygon fill="#63b8ff" stroke="#63b8ff" points="625.3957,-58.1412 618.1364,-65.8583 628.6237,-64.3525 625.3957,-58.1412"/>
</a>
</g>
</g>
</g>
</svg>
