<?xml version="1.0" encoding="UTF-8" standalone="no"?>
<!DOCTYPE svg PUBLIC "-//W3C//DTD SVG 1.1//EN"
 "http://www.w3.org/Graphics/SVG/1.1/DTD/svg11.dtd">
<!-- Generated by graphviz version 2.40.1 (0)
 -->
<!-- Title: porter/libsrc/porter/api/potrCloseService.c Pages: 1 -->
<svg width="1206pt" height="313pt"
 viewBox="0.00 0.00 1205.50 313.00" xmlns="http://www.w3.org/2000/svg" xmlns:xlink="http://www.w3.org/1999/xlink">
<g id="graph0" class="graph" transform="scale(1 1) rotate(0) translate(4 309)">
<title>porter/libsrc/porter/api/potrCloseService.c</title>
<!-- Node1 -->
<g id="Node000001" class="node">
<title>Node1</title>
<g id="a_Node000001"><a xlink:title=" ">
<polygon fill="#999999" stroke="#666666" points="680,-305 562,-305 562,-275 680,-275 680,-305"/>
<text text-anchor="start" x="570" y="-293" font-family="Helvetica,sans-Serif" font-size="10.00" fill="#000000">porter/libsrc/porter</text>
<text text-anchor="middle" x="621" y="-282" font-family="Helvetica,sans-Serif" font-size="10.00" fill="#000000">/api/potrCloseService.c</text>
</a>
</g>
</g>
<!-- Node2 -->
<g id="Node000002" class="node">
<title>Node2</title>
<g id="a_Node000002"><a xlink:title=" ">
<polygon fill="#e0e0e0" stroke="#999999" points="48,-239 0,-239 0,-220 48,-220 48,-239"/>
<text text-anchor="middle" x="24" y="-227" font-family="Helvetica,sans-Serif" font-size="10.00" fill="#000000">stdlib.h</text>
</a>
</g>
</g>
<!-- Node1&#45;&gt;Node2 -->
<g id="edge1_Node000001_Node000002" class="edge">
<title>Node1&#45;&gt;Node2</title>
<g id="a_edge1_Node000001_Node000002"><a xlink:title=" ">
<path fill="none" stroke="#63b8ff" d="M561.6257,-288.3373C460.0818,-284.6861 246.5896,-273.4915 58.1157,-238.8689"/>
<polygon fill="#63b8ff" stroke="#63b8ff" points="58.4957,-235.3795 48.0236,-236.9878 57.213,-242.261 58.4957,-235.3795"/>
</a>
</g>
</g>
<!-- Node3 -->
<g id="Node000003" class="node">
<title>Node3</title>
<g id="a_Node000003"><a xlink:title=" ">
<polygon fill="#e0e0e0" stroke="#999999" points="115.5,-239 66.5,-239 66.5,-220 115.5,-220 115.5,-239"/>
<text text-anchor="middle" x="91" y="-227" font-family="Helvetica,sans-Serif" font-size="10.00" fill="#000000">string.h</text>
</a>
</g>
</g>
<!-- Node1&#45;&gt;Node3 -->
<g id="edge2_Node000001_Node000003" class="edge">
<title>Node1&#45;&gt;Node3</title>
<g id="a_edge2_Node000001_Node000003"><a xlink:title=" ">
<path fill="none" stroke="#63b8ff" d="M561.6932,-286.4426C469.0383,-280.3008 284.5408,-265.7217 130,-239 128.5408,-238.7477 127.0551,-238.4718 125.5574,-238.178"/>
<polygon fill="#63b8ff" stroke="#63b8ff" points="126.1653,-234.7287 115.6518,-236.0389 124.6877,-241.571 126.1653,-234.7287"/>
</a>
</g>
</g>
<!-- Node4 -->
<g id="Node000004" class="node">
<title>Node4</title>
<g id="a_Node000004"><a xlink:title=" ">
<polygon fill="#e0e0e0" stroke="#999999" points="201,-184 139,-184 139,-165 201,-165 201,-184"/>
<text text-anchor="middle" x="170" y="-172" font-family="Helvetica,sans-Serif" font-size="10.00" fill="#000000">arpa/inet.h</text>
</a>
</g>
</g>
<!-- Node1&#45;&gt;Node4 -->
<g id="edge3_Node000001_Node000004" class="edge">
<title>Node1&#45;&gt;Node4</title>
<g id="a_edge3_Node000001_Node000004"><a xlink:title=" ">
<path fill="none" stroke="#63b8ff" d="M561.6251,-287.723C443.7251,-282.5894 189.1416,-268.2141 163,-239 152.1208,-226.8421 155.7933,-207.794 161.0336,-193.5445"/>
<polygon fill="#63b8ff" stroke="#63b8ff" points="164.3187,-194.7605 164.9408,-184.184 157.8588,-192.0641 164.3187,-194.7605"/>
</a>
</g>
</g>
<!-- Node5 -->
<g id="Node000005" class="node">
<title>Node5</title>
<g id="a_Node000005"><a xlink:title=" ">
<polygon fill="#e0e0e0" stroke="#999999" points="303.5,-129 238.5,-129 238.5,-110 303.5,-110 303.5,-129"/>
<text text-anchor="middle" x="271" y="-117" font-family="Helvetica,sans-Serif" font-size="10.00" fill="#000000">netinet/in.h</text>
</a>
</g>
</g>
<!-- Node1&#45;&gt;Node5 -->
<g id="edge4_Node000001_Node000005" class="edge">
<title>Node1&#45;&gt;Node5</title>
<g id="a_edge4_Node000001_Node000005"><a xlink:title=" ">
<path fill="none" stroke="#63b8ff" d="M561.7352,-286.8565C484.3703,-281.623 354.5115,-268.6109 318,-239 287.2443,-214.057 276.5412,-166.1971 272.8703,-139.2301"/>
<polygon fill="#63b8ff" stroke="#63b8ff" points="276.3217,-138.6083 271.6897,-129.0797 269.3686,-139.4171 276.3217,-138.6083"/>
</a>
</g>
</g>
<!-- Node6 -->
<g id="Node000006" class="node">
<title>Node6</title>
<g id="a_Node000006"><a xlink:title=" ">
<polygon fill="#e0e0e0" stroke="#999999" points="1128.5,-239 1055.5,-239 1055.5,-220 1128.5,-220 1128.5,-239"/>
<text text-anchor="middle" x="1092" y="-227" font-family="Helvetica,sans-Serif" font-size="10.00" fill="#000000">sys/socket.h</text>
</a>
</g>
</g>
<!-- Node1&#45;&gt;Node6 -->
<g id="edge5_Node000001_Node000006" class="edge">
<title>Node1&#45;&gt;Node6</title>
<g id="a_edge5_Node000001_Node000006"><a xlink:title=" ">
<path fill="none" stroke="#63b8ff" d="M680.2837,-283.9974C761.7687,-275.4745 912.8613,-258.6941 1041,-239 1042.4466,-238.7777 1043.915,-238.5453 1045.3966,-238.305"/>
<polygon fill="#63b8ff" stroke="#63b8ff" points="1046.0031,-241.7522 1055.2763,-236.628 1044.8316,-234.851 1046.0031,-241.7522"/>
</a>
</g>
</g>
<!-- Node7 -->
<g id="Node000007" class="node">
<title>Node7</title>
<g id="a_Node000007"><a xlink:title=" ">
<polygon fill="#e0e0e0" stroke="#999999" points="1197.5,-239 1146.5,-239 1146.5,-220 1197.5,-220 1197.5,-239"/>
<text text-anchor="middle" x="1172" y="-227" font-family="Helvetica,sans-Serif" font-size="10.00" fill="#000000">unistd.h</text>
</a>
</g>
</g>
<!-- Node1&#45;&gt;Node7 -->
<g id="edge6_Node000001_Node000007" class="edge">
<title>Node1&#45;&gt;Node7</title>
<g id="a_edge6_Node000001_Node000007"><a xlink:title=" ">
<path fill="none" stroke="#63b8ff" d="M680.0088,-287.5243C774.669,-282.8209 966.3046,-270.2886 1136.6,-238.9853"/>
<polygon fill="#63b8ff" stroke="#63b8ff" points="1137.3036,-242.4145 1146.4927,-237.1409 1136.0206,-235.5331 1137.3036,-242.4145"/>
</a>
</g>
</g>
<!-- Node8 -->
<g id="Node000008" class="node">
<title>Node8</title>
<g id="a_Node000008"><a xlink:href="porter__const_8h.html" target="_top" xlink:title="通信ライブラリの定数ファイル。">
<polygon fill="#ffffff" stroke="#666666" points="630.5,-19 551.5,-19 551.5,0 630.5,0 630.5,-19"/>
<text text-anchor="middle" x="591" y="-7" font-family="Helvetica,sans-Serif" font-size="10.00" fill="#000000">porter_const.h</text>
</a>
</g>
</g>
<!-- Node1&#45;&gt;Node8 -->
<g id="edge7_Node000001_Node000008" class="edge">
<title>Node1&#45;&gt;Node8</title>
<g id="a_edge7_Node000001_Node000008"><a xlink:title=" ">
<path fill="none" stroke="#63b8ff" d="M561.9975,-282.6262C500.1083,-274.0226 407.7651,-258.4619 378,-239 348.5303,-219.7312 332,-209.7101 332,-174.5 332,-174.5 332,-174.5 332,-119.5 332,-85.7683 344.3571,-74.3312 372,-55 398.8129,-36.2492 485.2176,-22.469 541.1437,-15.2402"/>
<polygon fill="#63b8ff" stroke="#63b8ff" points="541.7287,-18.6942 551.2104,-13.967 540.8503,-11.7495 541.7287,-18.6942"/>
</a>
</g>
</g>
<!-- Node9 -->
<g id="Node000009" class="node">
<title>Node9</title>
<g id="a_Node000009"><a xlink:href="porter_8h.html" target="_top" xlink:title="通信ライブラリ (動的リンク用) のヘッダーファイル。">
<polygon fill="#ffffff" stroke="#666666" points="998.5,-184 949.5,-184 949.5,-165 998.5,-165 998.5,-184"/>
<text text-anchor="middle" x="974" y="-172" font-family="Helvetica,sans-Serif" font-size="10.00" fill="#000000">porter.h</text>
</a>
</g>
</g>
<!-- Node1&#45;&gt;Node9 -->
<g id="edge8_Node000001_Node000009" class="edge">
<title>Node1&#45;&gt;Node9</title>
<g id="a_edge8_Node000001_Node000009"><a xlink:title=" ">
<path fill="none" stroke="#63b8ff" d="M680.241,-286.3796C759.6687,-280.5303 895.4054,-266.7397 936,-239 951.7155,-228.2611 961.8864,-208.6998 967.7134,-193.925"/>
<polygon fill="#63b8ff" stroke="#63b8ff" points="971.1174,-194.8017 971.2057,-184.2072 964.5299,-192.4342 971.1174,-194.8017"/>
</a>
</g>
</g>
<!-- Node13 -->
<g id="Node000013" class="node">
<title>Node13</title>
<g id="a_Node000013"><a xlink:href="potrContext_8h.html" target="_top" xlink:title="セッションコンテキスト内部定義ヘッダー。">
<polygon fill="#ffffff" stroke="#666666" points="681,-184 597,-184 597,-165 681,-165 681,-184"/>
<text text-anchor="middle" x="639" y="-172" font-family="Helvetica,sans-Serif" font-size="10.00" fill="#000000">../potrContext.h</text>
</a>
</g>
</g>
<!-- Node1&#45;&gt;Node13 -->
<g id="edge13_Node000001_Node000013" class="edge">
<title>Node1&#45;&gt;Node13</title>
<g id="a_edge13_Node000001_Node000013"><a xlink:title=" ">
<path fill="none" stroke="#63b8ff" d="M657.7406,-274.8692C672.7536,-266.6373 688.5515,-254.8438 697,-239 707.3846,-219.5254 686.8708,-201.2097 667.4326,-189.1084"/>
<polygon fill="#63b8ff" stroke="#63b8ff" points="669.0924,-186.0246 658.692,-184.0038 665.5622,-192.0693 669.0924,-186.0246"/>
</a>
</g>
</g>
<!-- Node14 -->
<g id="Node000014" class="node">
<title>Node14</title>
<g id="a_Node000014"><a xlink:href="window_8h.html" target="_top" xlink:title="スライディングウィンドウ管理モジュールの内部ヘッダー。">
<polygon fill="#ffffff" stroke="#666666" points="858.5,-129 765.5,-129 765.5,-110 858.5,-110 858.5,-129"/>
<text text-anchor="middle" x="812" y="-117" font-family="Helvetica,sans-Serif" font-size="10.00" fill="#000000">protocol/window.h</text>
</a>
</g>
</g>
<!-- Node1&#45;&gt;Node14 -->
<g id="edge45_Node000001_Node000014" class="edge">
<title>Node1&#45;&gt;Node14</title>
<g id="a_edge45_Node000001_Node000014"><a xlink:title=" ">
<path fill="none" stroke="#63b8ff" d="M680.1084,-287.1779C750.3402,-282.4421 861.2754,-270.1253 887,-239 914.1147,-206.1928 847.7819,-202.0757 834,-184 823.9245,-170.7854 818.2825,-152.6558 815.242,-138.9821"/>
<polygon fill="#63b8ff" stroke="#63b8ff" points="818.6743,-138.2965 813.3263,-129.1505 811.8035,-139.6353 818.6743,-138.2965"/>
</a>
</g>
</g>
<!-- Node17 -->
<g id="Node000017" class="node">
<title>Node17</title>
<g id="a_Node000017"><a xlink:href="potrSendQueue_8h.html" target="_top" xlink:title="非同期送信キューの型定義と操作関数。">
<polygon fill="#ffffff" stroke="#666666" points="557,-129 443,-129 443,-110 557,-110 557,-129"/>
<text text-anchor="middle" x="500" y="-117" font-family="Helvetica,sans-Serif" font-size="10.00" fill="#000000">infra/potrSendQueue.h</text>
</a>
</g>
</g>
<!-- Node1&#45;&gt;Node17 -->
<g id="edge38_Node000001_Node000017" class="edge">
<title>Node1&#45;&gt;Node17</title>
<g id="a_edge38_Node000001_Node000017"><a xlink:title=" ">
<path fill="none" stroke="#63b8ff" d="M561.9775,-285.2997C500.5341,-279.0368 410.3191,-265.5147 389,-239 356.6834,-198.8076 426.5379,-155.3171 469.5389,-133.5664"/>
<polygon fill="#63b8ff" stroke="#63b8ff" points="471.0977,-136.7002 478.5198,-129.1395 468.0028,-130.4215 471.0977,-136.7002"/>
</a>
</g>
</g>
<!-- Node19 -->
<g id="Node000019" class="node">
<title>Node19</title>
<g id="a_Node000019"><a xlink:href="potrRecvThread_8h.html" target="_top" xlink:title="受信スレッド内部ヘッダー。">
<polygon fill="#ffffff" stroke="#666666" points="877.5,-239 744.5,-239 744.5,-220 877.5,-220 877.5,-239"/>
<text text-anchor="middle" x="811" y="-227" font-family="Helvetica,sans-Serif" font-size="10.00" fill="#000000">../thread/potrRecvThread.h</text>
</a>
</g>
</g>
<!-- Node1&#45;&gt;Node19 -->
<g id="edge34_Node000001_Node000019" class="edge">
<title>Node1&#45;&gt;Node19</title>
<g id="a_edge34_Node000001_Node000019"><a xlink:title=" ">
<path fill="none" stroke="#63b8ff" d="M668.4549,-274.8894C700.1543,-264.7956 741.3696,-251.6718 771.3229,-242.134"/>
<polygon fill="#63b8ff" stroke="#63b8ff" points="772.5526,-245.4157 781.0192,-239.0465 770.4287,-238.7457 772.5526,-245.4157"/>
</a>
</g>
</g>
<!-- Node20 -->
<g id="Node000020" class="node">
<title>Node20</title>
<g id="a_Node000020"><a xlink:href="potrHealthThread_8h.html" target="_top" xlink:title="ヘルスチェックスレッド内部ヘッダー。">
<polygon fill="#ffffff" stroke="#666666" points="536,-239 398,-239 398,-220 536,-220 536,-239"/>
<text text-anchor="middle" x="467" y="-227" font-family="Helvetica,sans-Serif" font-size="10.00" fill="#000000">../thread/potrHealthThread.h</text>
</a>
</g>
</g>
<!-- Node1&#45;&gt;Node20 -->
<g id="edge36_Node000001_Node000020" class="edge">
<title>Node1&#45;&gt;Node20</title>
<g id="a_edge36_Node000001_Node000020"><a xlink:title=" ">
<path fill="none" stroke="#63b8ff" d="M582.5365,-274.8894C557.4802,-265.0458 525.0886,-252.3205 500.9812,-242.8498"/>
<polygon fill="#63b8ff" stroke="#63b8ff" points="502.1168,-239.5355 491.5294,-239.1366 499.5571,-246.0508 502.1168,-239.5355"/>
</a>
</g>
</g>
<!-- Node21 -->
<g id="Node000021" class="node">
<title>Node21</title>
<g id="a_Node000021"><a xlink:href="potrSendThread_8h.html" target="_top" xlink:title="非同期送信スレッドの内部ヘッダー。">
<polygon fill="#ffffff" stroke="#666666" points="687.5,-239 554.5,-239 554.5,-220 687.5,-220 687.5,-239"/>
<text text-anchor="middle" x="621" y="-227" font-family="Helvetica,sans-Serif" font-size="10.00" fill="#000000">../thread/potrSendThread.h</text>
</a>
</g>
</g>
<!-- Node1&#45;&gt;Node21 -->
<g id="edge39_Node000001_Node000021" class="edge">
<title>Node1&#45;&gt;Node21</title>
<g id="a_edge39_Node000001_Node000021"><a xlink:title=" ">
<path fill="none" stroke="#63b8ff" d="M621,-274.7333C621,-267.0322 621,-257.5977 621,-249.3414"/>
<polygon fill="#63b8ff" stroke="#63b8ff" points="624.5001,-249.0864 621,-239.0864 617.5001,-249.0864 624.5001,-249.0864"/>
</a>
</g>
</g>
<!-- Node22 -->
<g id="Node000022" class="node">
<title>Node22</title>
<g id="a_Node000022"><a xlink:href="packet_8h.html" target="_top" xlink:title="パケット構築・解析モジュールの内部ヘッダー。">
<polygon fill="#ffffff" stroke="#666666" points="1071.5,-129 970.5,-129 970.5,-110 1071.5,-110 1071.5,-129"/>
<text text-anchor="middle" x="1021" y="-117" font-family="Helvetica,sans-Serif" font-size="10.00" fill="#000000">../protocol/packet.h</text>
</a>
</g>
</g>
<!-- Node1&#45;&gt;Node22 -->
<g id="edge41_Node000001_Node000022" class="edge">
<title>Node1&#45;&gt;Node22</title>
<g id="a_edge41_Node000001_Node000022"><a xlink:title=" ">
<path fill="none" stroke="#63b8ff" d="M680.2636,-285.9099C764.0131,-279.3168 912.036,-264.437 959,-239 987.7871,-223.4081 993.3683,-213.2868 1008,-184 1014.9496,-170.0897 1018.1841,-152.7356 1019.6896,-139.5332"/>
<polygon fill="#63b8ff" stroke="#63b8ff" points="1023.2098,-139.4634 1020.6173,-129.1907 1016.2378,-138.838 1023.2098,-139.4634"/>
</a>
</g>
</g>
<!-- Node23 -->
<g id="Node000023" class="node">
<title>Node23</title>
<g id="a_Node000023"><a xlink:href="potrIpAddr_8h.html" target="_top" xlink:title="IPv4 アドレス変換ユーティリティ (内部用)。">
<polygon fill="#ffffff" stroke="#666666" points="266,-239 172,-239 172,-220 266,-220 266,-239"/>
<text text-anchor="middle" x="219" y="-227" font-family="Helvetica,sans-Serif" font-size="10.00" fill="#000000">../util/potrIpAddr.h</text>
</a>
</g>
</g>
<!-- Node1&#45;&gt;Node23 -->
<g id="edge46_Node000001_Node000023" class="edge">
<title>Node1&#45;&gt;Node23</title>
<g id="a_edge46_Node000001_Node000023"><a xlink:title=" ">
<path fill="none" stroke="#63b8ff" d="M561.8445,-281.2633C493.825,-271.1918 378.8212,-254.0848 280,-239 278.7484,-238.809 277.4825,-238.6153 276.2062,-238.4197"/>
<polygon fill="#63b8ff" stroke="#63b8ff" points="276.7002,-234.9546 266.2842,-236.8928 275.6354,-241.8732 276.7002,-234.9546"/>
</a>
</g>
</g>
<!-- Node24 -->
<g id="Node000024" class="node">
<title>Node24</title>
<g id="a_Node000024"><a xlink:href="potrLog_8h.html" target="_top" xlink:title="porter 内部ログマクロ定義ヘッダー。">
<polygon fill="#ffffff" stroke="#666666" points="931,-184 843,-184 843,-165 931,-165 931,-184"/>
<text text-anchor="middle" x="887" y="-172" font-family="Helvetica,sans-Serif" font-size="10.00" fill="#000000">../infra/potrLog.h</text>
</a>
</g>
</g>
<!-- Node1&#45;&gt;Node24 -->
<g id="edge49_Node000001_Node000024" class="edge">
<title>Node1&#45;&gt;Node24</title>
<g id="a_edge49_Node000001_Node000024"><a xlink:title=" ">
<path fill="none" stroke="#63b8ff" d="M680.025,-284.0101C762.7113,-275.0161 904.6961,-257.1353 920,-239 932.1834,-224.5625 918.7136,-204.8654 905.4971,-191.0491"/>
<polygon fill="#63b8ff" stroke="#63b8ff" points="907.94,-188.5426 898.3453,-184.0491 903.0437,-193.5452 907.94,-188.5426"/>
</a>
</g>
</g>
<!-- Node10 -->
<g id="Node000010" class="node">
<title>Node10</title>
<g id="a_Node000010"><a xlink:href="porter__type_8h.html" target="_top" xlink:title="通信ライブラリの型定義ファイル。">
<polygon fill="#ffffff" stroke="#666666" points="921,-74 847,-74 847,-55 921,-55 921,-74"/>
<text text-anchor="middle" x="884" y="-62" font-family="Helvetica,sans-Serif" font-size="10.00" fill="#000000">porter_type.h</text>
</a>
</g>
</g>
<!-- Node9&#45;&gt;Node10 -->
<g id="edge9_Node000009_Node000010" class="edge">
<title>Node9&#45;&gt;Node10</title>
<g id="a_edge9_Node000009_Node000010"><a xlink:title=" ">
<path fill="none" stroke="#63b8ff" d="M966.0131,-164.7382C950.7638,-146.1002 917.3197,-105.224 898.1832,-81.835"/>
<polygon fill="#63b8ff" stroke="#63b8ff" points="900.8818,-79.6061 891.8405,-74.0828 895.4641,-84.0388 900.8818,-79.6061"/>
</a>
</g>
</g>
<!-- Node10&#45;&gt;Node8 -->
<g id="edge12_Node000010_Node000008" class="edge">
<title>Node10&#45;&gt;Node8</title>
<g id="a_edge12_Node000010_Node000008"><a xlink:title=" ">
<path fill="none" stroke="#63b8ff" d="M846.8567,-56.7577C843.8618,-56.1552 840.8812,-55.5628 838,-55 769.738,-41.6655 690.6474,-27.2833 640.7245,-18.3359"/>
<polygon fill="#63b8ff" stroke="#63b8ff" points="641.295,-14.8825 630.8349,-16.5662 640.0619,-21.773 641.295,-14.8825"/>
</a>
</g>
</g>
<!-- Node11 -->
<g id="Node000011" class="node">
<title>Node11</title>
<g id="a_Node000011"><a xlink:title=" ">
<polygon fill="#e0e0e0" stroke="#999999" points="803,-19 751,-19 751,0 803,0 803,-19"/>
<text text-anchor="middle" x="777" y="-7" font-family="Helvetica,sans-Serif" font-size="10.00" fill="#000000">stddef.h</text>
</a>
</g>
</g>
<!-- Node10&#45;&gt;Node11 -->
<g id="edge10_Node000010_Node000011" class="edge">
<title>Node10&#45;&gt;Node11</title>
<g id="a_edge10_Node000010_Node000011"><a xlink:title=" ">
<path fill="none" stroke="#63b8ff" d="M865.362,-54.9197C848.6638,-46.3365 823.9402,-33.6281 804.8882,-23.8351"/>
<polygon fill="#63b8ff" stroke="#63b8ff" points="806.2773,-20.6138 795.7834,-19.155 803.0772,-26.8395 806.2773,-20.6138"/>
</a>
</g>
</g>
<!-- Node12 -->
<g id="Node000012" class="node">
<title>Node12</title>
<g id="a_Node000012"><a xlink:title=" ">
<polygon fill="#e0e0e0" stroke="#999999" points="908.5,-19 859.5,-19 859.5,0 908.5,0 908.5,-19"/>
<text text-anchor="middle" x="884" y="-7" font-family="Helvetica,sans-Serif" font-size="10.00" fill="#000000">stdint.h</text>
</a>
</g>
</g>
<!-- Node10&#45;&gt;Node12 -->
<g id="edge11_Node000010_Node000012" class="edge">
<title>Node10&#45;&gt;Node12</title>
<g id="a_edge11_Node000010_Node000012"><a xlink:title=" ">
<path fill="none" stroke="#63b8ff" d="M884,-54.9197C884,-47.9083 884,-38.1442 884,-29.4652"/>
<polygon fill="#63b8ff" stroke="#63b8ff" points="887.5001,-29.3408 884,-19.3408 880.5001,-29.3409 887.5001,-29.3408"/>
</a>
</g>
</g>
<!-- Node13&#45;&gt;Node5 -->
<g id="edge33_Node000013_Node000005" class="edge">
<title>Node13&#45;&gt;Node5</title>
<g id="a_edge33_Node000013_Node000005"><a xlink:title=" ">
<path fill="none" stroke="#63b8ff" d="M596.7857,-168.1908C526.0682,-157.6216 384.4522,-136.4562 313.5266,-125.8559"/>
<polygon fill="#63b8ff" stroke="#63b8ff" points="313.9995,-122.3878 303.5919,-124.3711 312.9647,-129.3109 313.9995,-122.3878"/>
</a>
</g>
</g>
<!-- Node13&#45;&gt;Node10 -->
<g id="edge14_Node000013_Node000010" class="edge">
<title>Node13&#45;&gt;Node10</title>
<g id="a_edge14_Node000013_Node000010"><a xlink:title=" ">
<path fill="none" stroke="#63b8ff" d="M654.6301,-164.9272C676.8508,-151.5585 719.0906,-127.0262 757,-110 785.292,-97.2933 818.2961,-85.5577 843.5674,-77.1886"/>
<polygon fill="#63b8ff" stroke="#63b8ff" points="844.7774,-80.4754 853.1933,-74.0393 842.6007,-73.8224 844.7774,-80.4754"/>
</a>
</g>
</g>
<!-- Node13&#45;&gt;Node14 -->
<g id="edge15_Node000013_Node000014" class="edge">
<title>Node13&#45;&gt;Node14</title>
<g id="a_edge15_Node000013_Node000014"><a xlink:title=" ">
<path fill="none" stroke="#63b8ff" d="M669.1343,-164.9197C697.6991,-155.8384 740.789,-142.1393 772.1754,-132.161"/>
<polygon fill="#63b8ff" stroke="#63b8ff" points="773.4517,-135.4279 781.9213,-129.0626 771.3309,-128.7569 773.4517,-135.4279"/>
</a>
</g>
</g>
<!-- Node15 -->
<g id="Node000015" class="node">
<title>Node15</title>
<g id="a_Node000015"><a xlink:href="compress_8h.html" target="_top" xlink:title="データ圧縮・解凍モジュールの内部ヘッダー。">
<polygon fill="#ffffff" stroke="#666666" points="706.5,-74 571.5,-74 571.5,-55 706.5,-55 706.5,-74"/>
<text text-anchor="middle" x="639" y="-62" font-family="Helvetica,sans-Serif" font-size="10.00" fill="#000000">infra/compress/compress.h</text>
</a>
</g>
</g>
<!-- Node13&#45;&gt;Node15 -->
<g id="edge19_Node000013_Node000015" class="edge">
<title>Node13&#45;&gt;Node15</title>
<g id="a_edge19_Node000013_Node000015"><a xlink:title=" ">
<path fill="none" stroke="#63b8ff" d="M639,-164.7382C639,-146.7541 639,-108.0652 639,-84.3599"/>
<polygon fill="#63b8ff" stroke="#63b8ff" points="642.5001,-84.0828 639,-74.0828 635.5001,-84.0829 642.5001,-84.0828"/>
</a>
</g>
</g>
<!-- Node16 -->
<g id="Node000016" class="node">
<title>Node16</title>
<g id="a_Node000016"><a xlink:href="crypto_8h.html" target="_top" xlink:title="データ暗号化・復号モジュールの内部ヘッダー。">
<polygon fill="#ffffff" stroke="#666666" points="829,-74 725,-74 725,-55 829,-55 829,-74"/>
<text text-anchor="middle" x="777" y="-62" font-family="Helvetica,sans-Serif" font-size="10.00" fill="#000000">infra/crypto/crypto.h</text>
</a>
</g>
</g>
<!-- Node13&#45;&gt;Node16 -->
<g id="edge23_Node000013_Node000016" class="edge">
<title>Node13&#45;&gt;Node16</title>
<g id="a_edge23_Node000013_Node000016"><a xlink:title=" ">
<path fill="none" stroke="#63b8ff" d="M650.4322,-164.9993C665.7239,-152.3296 693.7285,-129.2612 718,-110 730.5958,-100.0043 744.8711,-88.9873 756.2246,-80.2979"/>
<polygon fill="#63b8ff" stroke="#63b8ff" points="758.4366,-83.0125 764.2609,-74.1622 754.1887,-77.4488 758.4366,-83.0125"/>
</a>
</g>
</g>
<!-- Node13&#45;&gt;Node17 -->
<g id="edge27_Node000013_Node000017" class="edge">
<title>Node13&#45;&gt;Node17</title>
<g id="a_edge27_Node000013_Node000017"><a xlink:title=" ">
<path fill="none" stroke="#63b8ff" d="M614.788,-164.9197C592.4026,-156.0622 558.9146,-142.8115 533.8785,-132.9052"/>
<polygon fill="#63b8ff" stroke="#63b8ff" points="534.9872,-129.5799 524.4009,-129.155 532.4117,-136.0889 534.9872,-129.5799"/>
</a>
</g>
</g>
<!-- Node18 -->
<g id="Node000018" class="node">
<title>Node18</title>
<g id="a_Node000018"><a xlink:title=" ">
<polygon fill="#e0e0e0" stroke="#999999" points="438.5,-74 381.5,-74 381.5,-55 438.5,-55 438.5,-74"/>
<text text-anchor="middle" x="410" y="-62" font-family="Helvetica,sans-Serif" font-size="10.00" fill="#000000">pthread.h</text>
</a>
</g>
</g>
<!-- Node13&#45;&gt;Node18 -->
<g id="edge32_Node000013_Node000018" class="edge">
<title>Node13&#45;&gt;Node18</title>
<g id="a_edge32_Node000013_Node000018"><a xlink:title=" ">
<path fill="none" stroke="#63b8ff" d="M596.7373,-169.8972C544.0275,-163.3641 457.9182,-149.83 434,-129 421.0761,-117.7448 415.1002,-98.8531 412.3437,-84.416"/>
<polygon fill="#63b8ff" stroke="#63b8ff" points="415.7889,-83.7919 410.8016,-74.4443 408.8712,-84.8618 415.7889,-83.7919"/>
</a>
</g>
</g>
<!-- Node14&#45;&gt;Node8 -->
<g id="edge17_Node000014_Node000008" class="edge">
<title>Node14&#45;&gt;Node8</title>
<g id="a_edge17_Node000014_Node000008"><a xlink:title=" ">
<path fill="none" stroke="#63b8ff" d="M765.4361,-117.8972C700.3854,-114.567 587.4023,-104.4429 562,-74 550.2955,-59.973 561.9945,-40.4616 573.8452,-26.58"/>
<polygon fill="#63b8ff" stroke="#63b8ff" points="576.4869,-28.8778 580.6645,-19.1414 571.327,-24.1476 576.4869,-28.8778"/>
</a>
</g>
</g>
<!-- Node14&#45;&gt;Node10 -->
<g id="edge18_Node000014_Node000010" class="edge">
<title>Node14&#45;&gt;Node10</title>
<g id="a_edge18_Node000014_Node000010"><a xlink:title=" ">
<path fill="none" stroke="#63b8ff" d="M824.5414,-109.9197C835.1478,-101.8177 850.5659,-90.0399 863.0439,-80.5082"/>
<polygon fill="#63b8ff" stroke="#63b8ff" points="865.2954,-83.1926 871.1175,-74.3408 861.0461,-77.6299 865.2954,-83.1926"/>
</a>
</g>
</g>
<!-- Node14&#45;&gt;Node12 -->
<g id="edge16_Node000014_Node000012" class="edge">
<title>Node14&#45;&gt;Node12</title>
<g id="a_edge16_Node000014_Node000012"><a xlink:title=" ">
<path fill="none" stroke="#63b8ff" d="M849.6225,-109.9712C880.4671,-101.3084 920.5278,-87.8044 930,-74 941.5304,-57.196 924.3031,-38.2364 907.745,-25.2459"/>
<polygon fill="#63b8ff" stroke="#63b8ff" points="909.4332,-22.143 899.303,-19.0398 905.287,-27.7829 909.4332,-22.143"/>
</a>
</g>
</g>
<!-- Node15&#45;&gt;Node8 -->
<g id="edge22_Node000015_Node000008" class="edge">
<title>Node15&#45;&gt;Node8</title>
<g id="a_edge22_Node000015_Node000008"><a xlink:title=" ">
<path fill="none" stroke="#63b8ff" d="M630.639,-54.9197C623.9081,-47.2072 614.2703,-36.1639 606.1836,-26.8978"/>
<polygon fill="#63b8ff" stroke="#63b8ff" points="608.8007,-24.5737 599.5884,-19.3408 603.5267,-29.1765 608.8007,-24.5737"/>
</a>
</g>
</g>
<!-- Node15&#45;&gt;Node11 -->
<g id="edge20_Node000015_Node000011" class="edge">
<title>Node15&#45;&gt;Node11</title>
<g id="a_edge20_Node000015_Node000011"><a xlink:title=" ">
<path fill="none" stroke="#63b8ff" d="M663.0378,-54.9197C685.2622,-46.0622 718.5093,-32.8115 743.3652,-22.9052"/>
<polygon fill="#63b8ff" stroke="#63b8ff" points="744.7811,-26.1087 752.7747,-19.155 742.1894,-19.6061 744.7811,-26.1087"/>
</a>
</g>
</g>
<!-- Node15&#45;&gt;Node12 -->
<g id="edge21_Node000015_Node000012" class="edge">
<title>Node15&#45;&gt;Node12</title>
<g id="a_edge21_Node000015_Node000012"><a xlink:title=" ">
<path fill="none" stroke="#63b8ff" d="M681.396,-54.9825C728.9433,-44.3087 805.1615,-27.1984 849.3085,-17.2879"/>
<polygon fill="#63b8ff" stroke="#63b8ff" points="850.286,-20.6556 859.2765,-15.0502 848.7526,-13.8256 850.286,-20.6556"/>
</a>
</g>
</g>
<!-- Node16&#45;&gt;Node8 -->
<g id="edge26_Node000016_Node000008" class="edge">
<title>Node16&#45;&gt;Node8</title>
<g id="a_edge26_Node000016_Node000008"><a xlink:title=" ">
<path fill="none" stroke="#63b8ff" d="M744.6013,-54.9197C713.6241,-45.7598 666.7587,-31.9018 632.9435,-21.9027"/>
<polygon fill="#63b8ff" stroke="#63b8ff" points="633.921,-18.5419 623.339,-19.0626 631.936,-25.2546 633.921,-18.5419"/>
</a>
</g>
</g>
<!-- Node16&#45;&gt;Node11 -->
<g id="edge24_Node000016_Node000011" class="edge">
<title>Node16&#45;&gt;Node11</title>
<g id="a_edge24_Node000016_Node000011"><a xlink:title=" ">
<path fill="none" stroke="#63b8ff" d="M777,-54.9197C777,-47.9083 777,-38.1442 777,-29.4652"/>
<polygon fill="#63b8ff" stroke="#63b8ff" points="780.5001,-29.3408 777,-19.3408 773.5001,-29.3409 780.5001,-29.3408"/>
</a>
</g>
</g>
<!-- Node16&#45;&gt;Node12 -->
<g id="edge25_Node000016_Node000012" class="edge">
<title>Node16&#45;&gt;Node12</title>
<g id="a_edge25_Node000016_Node000012"><a xlink:title=" ">
<path fill="none" stroke="#63b8ff" d="M795.638,-54.9197C812.3362,-46.3365 837.0598,-33.6281 856.1118,-23.8351"/>
<polygon fill="#63b8ff" stroke="#63b8ff" points="857.9228,-26.8395 865.2166,-19.155 854.7227,-20.6138 857.9228,-26.8395"/>
</a>
</g>
</g>
<!-- Node17&#45;&gt;Node8 -->
<g id="edge29_Node000017_Node000008" class="edge">
<title>Node17&#45;&gt;Node8</title>
<g id="a_edge29_Node000017_Node000008"><a xlink:title=" ">
<path fill="none" stroke="#63b8ff" d="M494.969,-109.8985C488.7136,-96.4956 480.1076,-71.923 491,-55 502.3922,-37.3005 522.5453,-26.4055 541.789,-19.7376"/>
<polygon fill="#63b8ff" stroke="#63b8ff" points="542.9299,-23.0479 551.4182,-16.7075 540.8287,-16.3707 542.9299,-23.0479"/>
</a>
</g>
</g>
<!-- Node17&#45;&gt;Node10 -->
<g id="edge30_Node000017_Node000010" class="edge">
<title>Node17&#45;&gt;Node10</title>
<g id="a_edge30_Node000017_Node000010"><a xlink:title=" ">
<path fill="none" stroke="#63b8ff" d="M557.2979,-113.024C622.5717,-105.3696 732.646,-91.623 836.8234,-74.104"/>
<polygon fill="#63b8ff" stroke="#63b8ff" points="837.6114,-77.5205 846.885,-72.397 836.4404,-70.6191 837.6114,-77.5205"/>
</a>
</g>
</g>
<!-- Node17&#45;&gt;Node11 -->
<g id="edge28_Node000017_Node000011" class="edge">
<title>Node17&#45;&gt;Node11</title>
<g id="a_edge28_Node000017_Node000011"><a xlink:title=" ">
<path fill="none" stroke="#63b8ff" d="M506.3513,-109.8873C516.3749,-95.5337 537.2852,-68.7226 562,-55 592.3334,-38.1578 688.0848,-22.2811 740.9915,-14.4989"/>
<polygon fill="#63b8ff" stroke="#63b8ff" points="741.575,-17.951 750.9694,-13.0525 740.5707,-11.0234 741.575,-17.951"/>
</a>
</g>
</g>
<!-- Node17&#45;&gt;Node18 -->
<g id="edge31_Node000017_Node000018" class="edge">
<title>Node17&#45;&gt;Node18</title>
<g id="a_edge31_Node000017_Node000018"><a xlink:title=" ">
<path fill="none" stroke="#63b8ff" d="M484.3232,-109.9197C470.5986,-101.5325 450.4285,-89.2063 434.5623,-79.5103"/>
<polygon fill="#63b8ff" stroke="#63b8ff" points="436.1571,-76.3831 425.7991,-74.155 432.5069,-82.3561 436.1571,-76.3831"/>
</a>
</g>
</g>
<!-- Node19&#45;&gt;Node13 -->
<g id="edge35_Node000019_Node000013" class="edge">
<title>Node19&#45;&gt;Node13</title>
<g id="a_edge35_Node000019_Node000013"><a xlink:title=" ">
<path fill="none" stroke="#63b8ff" d="M781.0399,-219.9197C752.6402,-210.8384 709.7993,-197.1393 678.5944,-187.161"/>
<polygon fill="#63b8ff" stroke="#63b8ff" points="679.4958,-183.7747 668.9048,-184.0626 677.3637,-190.4421 679.4958,-183.7747"/>
</a>
</g>
</g>
<!-- Node20&#45;&gt;Node13 -->
<g id="edge37_Node000020_Node000013" class="edge">
<title>Node20&#45;&gt;Node13</title>
<g id="a_edge37_Node000020_Node000013"><a xlink:title=" ">
<path fill="none" stroke="#63b8ff" d="M496.9601,-219.9197C525.3598,-210.8384 568.2007,-197.1393 599.4056,-187.161"/>
<polygon fill="#63b8ff" stroke="#63b8ff" points="600.6363,-190.4421 609.0952,-184.0626 598.5042,-183.7747 600.6363,-190.4421"/>
</a>
</g>
</g>
<!-- Node21&#45;&gt;Node13 -->
<g id="edge40_Node000021_Node000013" class="edge">
<title>Node21&#45;&gt;Node13</title>
<g id="a_edge40_Node000021_Node000013"><a xlink:title=" ">
<path fill="none" stroke="#63b8ff" d="M624.1354,-219.9197C626.481,-212.7525 629.768,-202.7089 632.6548,-193.8882"/>
<polygon fill="#63b8ff" stroke="#63b8ff" points="635.9953,-194.9335 635.7794,-184.3408 629.3425,-192.7561 635.9953,-194.9335"/>
</a>
</g>
</g>
<!-- Node22&#45;&gt;Node10 -->
<g id="edge44_Node000022_Node000010" class="edge">
<title>Node22&#45;&gt;Node10</title>
<g id="a_edge44_Node000022_Node000010"><a xlink:title=" ">
<path fill="none" stroke="#63b8ff" d="M997.1364,-109.9197C975.0731,-101.0622 942.0669,-87.8115 917.391,-77.9052"/>
<polygon fill="#63b8ff" stroke="#63b8ff" points="918.6339,-74.6326 908.0498,-74.155 916.0259,-81.1287 918.6339,-74.6326"/>
</a>
</g>
</g>
<!-- Node22&#45;&gt;Node11 -->
<g id="edge42_Node000022_Node000011" class="edge">
<title>Node22&#45;&gt;Node11</title>
<g id="a_edge42_Node000022_Node000011"><a xlink:title=" ">
<path fill="none" stroke="#63b8ff" d="M1009.9885,-109.8534C993.5991,-95.9425 961.3433,-70.2501 930,-55 892.0518,-36.5363 845.1106,-23.9386 813.3041,-16.7616"/>
<polygon fill="#63b8ff" stroke="#63b8ff" points="813.6497,-13.2545 803.1326,-14.5348 812.1527,-20.0925 813.6497,-13.2545"/>
</a>
</g>
</g>
<!-- Node22&#45;&gt;Node12 -->
<g id="edge43_Node000022_Node000012" class="edge">
<title>Node22&#45;&gt;Node12</title>
<g id="a_edge43_Node000022_Node000012"><a xlink:title=" ">
<path fill="none" stroke="#63b8ff" d="M1020.5631,-109.9027C1019.4312,-96.0533 1015.3891,-70.4367 1001,-55 979.3535,-31.7776 944.4607,-20.2512 918.4041,-14.6292"/>
<polygon fill="#63b8ff" stroke="#63b8ff" points="919.0341,-11.1861 908.5464,-12.6889 917.6822,-18.0544 919.0341,-11.1861"/>
</a>
</g>
</g>
<!-- Node23&#45;&gt;Node4 -->
<g id="edge47_Node000023_Node000004" class="edge">
<title>Node23&#45;&gt;Node4</title>
<g id="a_edge47_Node000023_Node000004"><a xlink:title=" ">
<path fill="none" stroke="#63b8ff" d="M210.4649,-219.9197C203.5937,-212.2072 193.7551,-201.1639 185.4999,-191.8978"/>
<polygon fill="#63b8ff" stroke="#63b8ff" points="188.0327,-189.4792 178.7673,-184.3408 182.8061,-194.1357 188.0327,-189.4792"/>
</a>
</g>
</g>
<!-- Node23&#45;&gt;Node5 -->
<g id="edge48_Node000023_Node000005" class="edge">
<title>Node23&#45;&gt;Node5</title>
<g id="a_edge48_Node000023_Node000005"><a xlink:title=" ">
<path fill="none" stroke="#63b8ff" d="M223.6147,-219.7382C232.2322,-201.5089 250.9062,-162.0062 262.0661,-138.3986"/>
<polygon fill="#63b8ff" stroke="#63b8ff" points="265.3603,-139.6194 266.4699,-129.0828 259.0318,-136.6277 265.3603,-139.6194"/>
</a>
</g>
</g>
<!-- Node24&#45;&gt;Node10 -->
<g id="edge50_Node000024_Node000010" class="edge">
<title>Node24&#45;&gt;Node10</title>
<g id="a_edge50_Node000024_Node000010"><a xlink:title=" ">
<path fill="none" stroke="#63b8ff" d="M886.7338,-164.7382C886.2433,-146.7541 885.1881,-108.0652 884.5416,-84.3599"/>
<polygon fill="#63b8ff" stroke="#63b8ff" points="888.0328,-83.9837 884.2613,-74.0828 881.0354,-84.1746 888.0328,-83.9837"/>
</a>
</g>
</g>
</g>
</svg>
