<?xml version="1.0" encoding="UTF-8" standalone="no"?>
<!DOCTYPE svg PUBLIC "-//W3C//DTD SVG 1.1//EN"
 "http://www.w3.org/Graphics/SVG/1.1/DTD/svg11.dtd">
<!-- Generated by graphviz version 2.40.1 (0)
 -->
<!-- Title: porter/libsrc/porter/thread/potrSendThread.h Pages: 1 -->
<!--zoomable 258 -->

<svg id="main" version="1.1" xmlns="http://www.w3.org/2000/svg" xmlns:xlink="http://www.w3.org/1999/xlink" xml:space="preserve" onload="init(evt)">

<style type="text/css"><![CDATA[
.node, .edge {opacity: 0.7;}
.node.selected, .edge.selected {opacity: 1;}
.edge:hover path { stroke: red; }
.edge:hover polygon { stroke: red; fill: red; }
]]></style>

<defs>
  <circle id="rim" cx="0" cy="0" r="7"/>
  <circle id="rim2" cx="0" cy="0" r="3.5"/>
  <g id="zoomPlus">
    <use xlink:href="#rim" fill="#404040"><set attributeName="fill" to="#808080" begin="zoomplus.mouseover" end="zoomplus.mouseout"/></use>
    <path d="M-4,0h8M0,-4v8" fill="none" stroke="white" stroke-width="1.5" pointer-events="none"/>
  </g>
  <g id="zoomMin">
    <use xlink:href="#rim" fill="#404040"><set attributeName="fill" to="#808080" begin="zoomminus.mouseover" end="zoomminus.mouseout"/></use>
    <path d="M-4,0h8" fill="none" stroke="white" stroke-width="1.5" pointer-events="none"/>
  </g>
  <g id="arrowUp" transform="translate(30 24)">
    <use xlink:href="#rim"/>
    <path pointer-events="none" fill="none" stroke="white" stroke-width="1.5" d="M0,-3.0v7 M-2.5,-0.5L0,-3.0L2.5,-0.5"/>
  </g>
  <g id="arrowRight" transform="rotate(90) translate(36 -43)">
    <use xlink:href="#rim"/>
    <path pointer-events="none" fill="none" stroke="white" stroke-width="1.5" d="M0,-3.0v7 M-2.5,-0.5L0,-3.0L2.5,-0.5"/>
  </g>
  <g id="arrowDown" transform="rotate(180) translate(-30 -48)">
    <use xlink:href="#rim"/>
    <path pointer-events="none" fill="none" stroke="white" stroke-width="1.5" d="M0,-3.0v7 M-2.5,-0.5L0,-3.0L2.5,-0.5"/>
  </g>
  <g id="arrowLeft" transform="rotate(270) translate(-36 17)">
    <use xlink:href="#rim"/>
    <path pointer-events="none" fill="none" stroke="white" stroke-width="1.5" d="M0,-3.0v7 M-2.5,-0.5L0,-3.0L2.5,-0.5"/>
  </g>
  <g id="resetDef">
    <use xlink:href="#rim2" fill="#404040"><set attributeName="fill" to="#808080" begin="reset.mouseover" end="reset.mouseout"/></use>
  </g>
</defs>
<script type="application/ecmascript">
var viewWidth = 618;
var viewHeight = 258;
var sectionId = 'dynsection-0';
</script>
<script type="application/ecmascript" xlink:href="svg.min.js"/>
<svg id="graph" class="graph">
<g id="viewport">
<title>porter/libsrc/porter/thread/potrSendThread.h</title>
<!-- Node1 -->
<g id="Node000001" class="node">
<title>Node1</title>
<g id="a_Node000001"><a xlink:title="非同期送信スレッドの内部ヘッダー。">
<polygon fill="#999999" stroke="#666666" points="409.5109,-250 282.5109,-250 282.5109,-220 409.5109,-220 409.5109,-250"/>
<text text-anchor="start" x="290.5109" y="-238" font-family="Helvetica,sans-Serif" font-size="10.00" fill="#000000">porter/libsrc/porter</text>
<text text-anchor="middle" x="346.0109" y="-227" font-family="Helvetica,sans-Serif" font-size="10.00" fill="#000000">/thread/potrSendThread.h</text>
</a>
</g>
</g>
<!-- Node2 -->
<g id="Node000002" class="node">
<title>Node2</title>
<g id="a_Node000002"><a xlink:href="potrContext_8h.html" target="_top" xlink:title="セッションコンテキスト内部定義ヘッダー。">
<polygon fill="#ffffff" stroke="#666666" points="388.0109,-184 304.0109,-184 304.0109,-165 388.0109,-165 388.0109,-184"/>
<text text-anchor="middle" x="346.0109" y="-172" font-family="Helvetica,sans-Serif" font-size="10.00" fill="#000000">../potrContext.h</text>
</a>
</g>
</g>
<!-- Node1&#45;&gt;Node2 -->
<g id="edge1_Node000001_Node000002" class="edge">
<title>Node1&#45;&gt;Node2</title>
<g id="a_edge1_Node000001_Node000002"><a xlink:title=" ">
<path fill="none" stroke="#63b8ff" d="M346.0109,-219.7333C346.0109,-212.0322 346.0109,-202.5977 346.0109,-194.3414"/>
<polygon fill="#63b8ff" stroke="#63b8ff" points="349.511,-194.0864 346.0109,-184.0864 342.511,-194.0864 349.511,-194.0864"/>
</a>
</g>
</g>
<!-- Node3 -->
<g id="Node000003" class="node">
<title>Node3</title>
<g id="a_Node000003"><a xlink:href="porter__type_8h.html" target="_top" xlink:title="通信ライブラリの型定義ファイル。">
<polygon fill="#ffffff" stroke="#666666" points="281.0109,-74 207.0109,-74 207.0109,-55 281.0109,-55 281.0109,-74"/>
<text text-anchor="middle" x="244.0109" y="-62" font-family="Helvetica,sans-Serif" font-size="10.00" fill="#000000">porter_type.h</text>
</a>
</g>
</g>
<!-- Node2&#45;&gt;Node3 -->
<g id="edge2_Node000002_Node000003" class="edge">
<title>Node2&#45;&gt;Node3</title>
<g id="a_edge2_Node000002_Node000003"><a xlink:title=" ">
<path fill="none" stroke="#63b8ff" d="M336.9591,-164.7382C319.6007,-146.0184 281.4403,-104.865 259.8008,-81.5283"/>
<polygon fill="#63b8ff" stroke="#63b8ff" points="262.2627,-79.0357 252.8968,-74.0828 257.1298,-83.7953 262.2627,-79.0357"/>
</a>
</g>
</g>
<!-- Node7 -->
<g id="Node000007" class="node">
<title>Node7</title>
<g id="a_Node000007"><a xlink:href="window_8h.html" target="_top" xlink:title="スライディングウィンドウ管理モジュールの内部ヘッダー。">
<polygon fill="#ffffff" stroke="#666666" points="238.5109,-129 145.5109,-129 145.5109,-110 238.5109,-110 238.5109,-129"/>
<text text-anchor="middle" x="192.0109" y="-117" font-family="Helvetica,sans-Serif" font-size="10.00" fill="#000000">protocol/window.h</text>
</a>
</g>
</g>
<!-- Node2&#45;&gt;Node7 -->
<g id="edge6_Node000002_Node000007" class="edge">
<title>Node2&#45;&gt;Node7</title>
<g id="a_edge6_Node000002_Node000007"><a xlink:title=" ">
<path fill="none" stroke="#63b8ff" d="M319.1862,-164.9197C294.0888,-155.9564 256.3951,-142.4944 228.5555,-132.5516"/>
<polygon fill="#63b8ff" stroke="#63b8ff" points="229.3808,-129.1299 218.7862,-129.0626 227.0264,-135.7221 229.3808,-129.1299"/>
</a>
</g>
</g>
<!-- Node8 -->
<g id="Node000008" class="node">
<title>Node8</title>
<g id="a_Node000008"><a xlink:href="compress_8h.html" target="_top" xlink:title="データ圧縮・解凍モジュールの内部ヘッダー。">
<polygon fill="#ffffff" stroke="#666666" points="150.5109,-74 15.5109,-74 15.5109,-55 150.5109,-55 150.5109,-74"/>
<text text-anchor="middle" x="83.0109" y="-62" font-family="Helvetica,sans-Serif" font-size="10.00" fill="#000000">infra/compress/compress.h</text>
</a>
</g>
</g>
<!-- Node2&#45;&gt;Node8 -->
<g id="edge10_Node000002_Node000008" class="edge">
<title>Node2&#45;&gt;Node8</title>
<g id="a_edge10_Node000002_Node000008"><a xlink:title=" ">
<path fill="none" stroke="#63b8ff" d="M303.7017,-168.6915C250.7707,-160.8547 163.7105,-145.9128 136.0109,-129 117.5431,-117.7239 102.5899,-97.6628 93.333,-82.8985"/>
<polygon fill="#63b8ff" stroke="#63b8ff" points="96.2193,-80.9047 88.0929,-74.1068 90.2063,-84.4887 96.2193,-80.9047"/>
</a>
</g>
</g>
<!-- Node9 -->
<g id="Node000009" class="node">
<title>Node9</title>
<g id="a_Node000009"><a xlink:href="crypto_8h.html" target="_top" xlink:title="データ暗号化・復号モジュールの内部ヘッダー。">
<polygon fill="#ffffff" stroke="#666666" points="403.0109,-74 299.0109,-74 299.0109,-55 403.0109,-55 403.0109,-74"/>
<text text-anchor="middle" x="351.0109" y="-62" font-family="Helvetica,sans-Serif" font-size="10.00" fill="#000000">infra/crypto/crypto.h</text>
</a>
</g>
</g>
<!-- Node2&#45;&gt;Node9 -->
<g id="edge14_Node000002_Node000009" class="edge">
<title>Node2&#45;&gt;Node9</title>
<g id="a_edge14_Node000002_Node000009"><a xlink:title=" ">
<path fill="none" stroke="#63b8ff" d="M346.4546,-164.7382C347.2721,-146.7541 349.0307,-108.0652 350.1082,-84.3599"/>
<polygon fill="#63b8ff" stroke="#63b8ff" points="353.6176,-84.2315 350.5753,-74.0828 346.6248,-83.9136 353.6176,-84.2315"/>
</a>
</g>
</g>
<!-- Node10 -->
<g id="Node000010" class="node">
<title>Node10</title>
<g id="a_Node000010"><a xlink:href="potrSendQueue_8h.html" target="_top" xlink:title="非同期送信キューの型定義と操作関数。">
<polygon fill="#ffffff" stroke="#666666" points="488.0109,-129 374.0109,-129 374.0109,-110 488.0109,-110 488.0109,-129"/>
<text text-anchor="middle" x="431.0109" y="-117" font-family="Helvetica,sans-Serif" font-size="10.00" fill="#000000">infra/potrSendQueue.h</text>
</a>
</g>
</g>
<!-- Node2&#45;&gt;Node10 -->
<g id="edge18_Node000002_Node000010" class="edge">
<title>Node2&#45;&gt;Node10</title>
<g id="a_edge18_Node000002_Node000010"><a xlink:title=" ">
<path fill="none" stroke="#63b8ff" d="M360.8168,-164.9197C373.6577,-156.6109 392.4729,-144.4363 407.392,-134.7828"/>
<polygon fill="#63b8ff" stroke="#63b8ff" points="409.5952,-137.5261 416.0895,-129.155 405.7924,-131.6491 409.5952,-137.5261"/>
</a>
</g>
</g>
<!-- Node11 -->
<g id="Node000011" class="node">
<title>Node11</title>
<g id="a_Node000011"><a xlink:title=" ">
<polygon fill="#e0e0e0" stroke="#999999" points="554.5109,-74 497.5109,-74 497.5109,-55 554.5109,-55 554.5109,-74"/>
<text text-anchor="middle" x="526.0109" y="-62" font-family="Helvetica,sans-Serif" font-size="10.00" fill="#000000">pthread.h</text>
</a>
</g>
</g>
<!-- Node2&#45;&gt;Node11 -->
<g id="edge23_Node000002_Node000011" class="edge">
<title>Node2&#45;&gt;Node11</title>
<g id="a_edge23_Node000002_Node000011"><a xlink:title=" ">
<path fill="none" stroke="#63b8ff" d="M388.3078,-165.8752C427.0469,-157.2573 480.7562,-143.27 497.0109,-129 510.2454,-117.3815 517.7535,-98.5337 521.7974,-84.2053"/>
<polygon fill="#63b8ff" stroke="#63b8ff" points="525.2379,-84.8726 524.252,-74.3238 518.4444,-83.185 525.2379,-84.8726"/>
</a>
</g>
</g>
<!-- Node12 -->
<g id="Node000012" class="node">
<title>Node12</title>
<g id="a_Node000012"><a xlink:title=" ">
<polygon fill="#e0e0e0" stroke="#999999" points="609.5109,-129 544.5109,-129 544.5109,-110 609.5109,-110 609.5109,-129"/>
<text text-anchor="middle" x="577.0109" y="-117" font-family="Helvetica,sans-Serif" font-size="10.00" fill="#000000">netinet/in.h</text>
</a>
</g>
</g>
<!-- Node2&#45;&gt;Node12 -->
<g id="edge24_Node000002_Node000012" class="edge">
<title>Node2&#45;&gt;Node12</title>
<g id="a_edge24_Node000002_Node000012"><a xlink:title=" ">
<path fill="none" stroke="#63b8ff" d="M385.9843,-164.9825C427.4673,-155.1056 492.0966,-139.7177 534.496,-129.6226"/>
<polygon fill="#63b8ff" stroke="#63b8ff" points="535.324,-133.0234 544.2414,-127.3023 533.7026,-126.2137 535.324,-133.0234"/>
</a>
</g>
</g>
<!-- Node4 -->
<g id="Node000004" class="node">
<title>Node4</title>
<g id="a_Node000004"><a xlink:title=" ">
<polygon fill="#e0e0e0" stroke="#999999" points="365.0109,-19 313.0109,-19 313.0109,0 365.0109,0 365.0109,-19"/>
<text text-anchor="middle" x="339.0109" y="-7" font-family="Helvetica,sans-Serif" font-size="10.00" fill="#000000">stddef.h</text>
</a>
</g>
</g>
<!-- Node3&#45;&gt;Node4 -->
<g id="edge3_Node000003_Node000004" class="edge">
<title>Node3&#45;&gt;Node4</title>
<g id="a_edge3_Node000003_Node000004"><a xlink:title=" ">
<path fill="none" stroke="#63b8ff" d="M260.5587,-54.9197C275.1811,-46.4541 296.735,-33.9755 313.5524,-24.2391"/>
<polygon fill="#63b8ff" stroke="#63b8ff" points="315.4334,-27.1944 322.3341,-19.155 311.9261,-21.1364 315.4334,-27.1944"/>
</a>
</g>
</g>
<!-- Node5 -->
<g id="Node000005" class="node">
<title>Node5</title>
<g id="a_Node000005"><a xlink:title=" ">
<polygon fill="#e0e0e0" stroke="#999999" points="147.5109,-19 98.5109,-19 98.5109,0 147.5109,0 147.5109,-19"/>
<text text-anchor="middle" x="123.0109" y="-7" font-family="Helvetica,sans-Serif" font-size="10.00" fill="#000000">stdint.h</text>
</a>
</g>
</g>
<!-- Node3&#45;&gt;Node5 -->
<g id="edge4_Node000003_Node000005" class="edge">
<title>Node3&#45;&gt;Node5</title>
<g id="a_edge4_Node000003_Node000005"><a xlink:title=" ">
<path fill="none" stroke="#63b8ff" d="M222.9343,-54.9197C203.7064,-46.1798 175.0685,-33.1625 153.374,-23.3014"/>
<polygon fill="#63b8ff" stroke="#63b8ff" points="154.804,-20.1068 144.252,-19.155 151.9073,-26.4794 154.804,-20.1068"/>
</a>
</g>
</g>
<!-- Node6 -->
<g id="Node000006" class="node">
<title>Node6</title>
<g id="a_Node000006"><a xlink:href="porter__const_8h.html" target="_top" xlink:title="通信ライブラリの定数ファイル。">
<polygon fill="#ffffff" stroke="#666666" points="283.5109,-19 204.5109,-19 204.5109,0 283.5109,0 283.5109,-19"/>
<text text-anchor="middle" x="244.0109" y="-7" font-family="Helvetica,sans-Serif" font-size="10.00" fill="#000000">porter_const.h</text>
</a>
</g>
</g>
<!-- Node3&#45;&gt;Node6 -->
<g id="edge5_Node000003_Node000006" class="edge">
<title>Node3&#45;&gt;Node6</title>
<g id="a_edge5_Node000003_Node000006"><a xlink:title=" ">
<path fill="none" stroke="#63b8ff" d="M244.0109,-54.9197C244.0109,-47.9083 244.0109,-38.1442 244.0109,-29.4652"/>
<polygon fill="#63b8ff" stroke="#63b8ff" points="247.511,-29.3408 244.0109,-19.3408 240.511,-29.3409 247.511,-29.3408"/>
</a>
</g>
</g>
<!-- Node7&#45;&gt;Node3 -->
<g id="edge9_Node000007_Node000003" class="edge">
<title>Node7&#45;&gt;Node3</title>
<g id="a_edge9_Node000007_Node000003"><a xlink:title=" ">
<path fill="none" stroke="#63b8ff" d="M201.0686,-109.9197C208.4342,-102.1293 219.0127,-90.9405 227.827,-81.6176"/>
<polygon fill="#63b8ff" stroke="#63b8ff" points="230.38,-84.0119 234.7069,-74.3408 225.2935,-79.2028 230.38,-84.0119"/>
</a>
</g>
</g>
<!-- Node7&#45;&gt;Node5 -->
<g id="edge7_Node000007_Node000005" class="edge">
<title>Node7&#45;&gt;Node5</title>
<g id="a_edge7_Node000007_Node000005"><a xlink:title=" ">
<path fill="none" stroke="#63b8ff" d="M145.0786,-114.5748C95.7567,-108.3165 22.9953,-95.64 6.0109,-74 -19.1787,-41.9057 45.4844,-23.4645 88.4163,-15.0662"/>
<polygon fill="#63b8ff" stroke="#63b8ff" points="89.0719,-18.5044 98.2652,-13.2382 87.7944,-11.6219 89.0719,-18.5044"/>
</a>
</g>
</g>
<!-- Node7&#45;&gt;Node6 -->
<g id="edge8_Node000007_Node000006" class="edge">
<title>Node7&#45;&gt;Node6</title>
<g id="a_edge8_Node000007_Node000006"><a xlink:title=" ">
<path fill="none" stroke="#63b8ff" d="M190.9231,-109.7823C189.8855,-96.6694 189.5477,-72.8928 198.0109,-55 203.3797,-43.6494 212.8303,-33.5362 221.7745,-25.7439"/>
<polygon fill="#63b8ff" stroke="#63b8ff" points="224.1751,-28.3025 229.7145,-19.2712 219.7521,-22.8769 224.1751,-28.3025"/>
</a>
</g>
</g>
<!-- Node8&#45;&gt;Node4 -->
<g id="edge11_Node000008_Node000004" class="edge">
<title>Node8&#45;&gt;Node4</title>
<g id="a_edge11_Node000008_Node000004"><a xlink:title=" ">
<path fill="none" stroke="#63b8ff" d="M127.3105,-54.9825C177.069,-44.2922 256.8783,-27.1457 302.9749,-17.2421"/>
<polygon fill="#63b8ff" stroke="#63b8ff" points="303.786,-20.6478 312.8277,-15.1253 302.3156,-13.804 303.786,-20.6478"/>
</a>
</g>
</g>
<!-- Node8&#45;&gt;Node5 -->
<g id="edge12_Node000008_Node000005" class="edge">
<title>Node8&#45;&gt;Node5</title>
<g id="a_edge12_Node000008_Node000005"><a xlink:title=" ">
<path fill="none" stroke="#63b8ff" d="M89.9784,-54.9197C95.4742,-47.363 103.2955,-36.6087 109.948,-27.4616"/>
<polygon fill="#63b8ff" stroke="#63b8ff" points="112.8028,-29.4868 115.854,-19.3408 107.1416,-25.3696 112.8028,-29.4868"/>
</a>
</g>
</g>
<!-- Node8&#45;&gt;Node6 -->
<g id="edge13_Node000008_Node000006" class="edge">
<title>Node8&#45;&gt;Node6</title>
<g id="a_edge13_Node000008_Node000006"><a xlink:title=" ">
<path fill="none" stroke="#63b8ff" d="M111.055,-54.9197C137.4082,-45.9171 177.0461,-32.3762 206.1876,-22.421"/>
<polygon fill="#63b8ff" stroke="#63b8ff" points="207.687,-25.6075 216.0186,-19.0626 205.4241,-18.9833 207.687,-25.6075"/>
</a>
</g>
</g>
<!-- Node9&#45;&gt;Node4 -->
<g id="edge15_Node000009_Node000004" class="edge">
<title>Node9&#45;&gt;Node4</title>
<g id="a_edge15_Node000009_Node000004"><a xlink:title=" ">
<path fill="none" stroke="#63b8ff" d="M348.9207,-54.9197C347.3739,-47.8304 345.2132,-37.9269 343.3039,-29.1763"/>
<polygon fill="#63b8ff" stroke="#63b8ff" points="346.7093,-28.3649 341.158,-19.3408 339.8702,-29.8571 346.7093,-28.3649"/>
</a>
</g>
</g>
<!-- Node9&#45;&gt;Node5 -->
<g id="edge16_Node000009_Node000005" class="edge">
<title>Node9&#45;&gt;Node5</title>
<g id="a_edge16_Node000009_Node000005"><a xlink:title=" ">
<path fill="none" stroke="#63b8ff" d="M311.5567,-54.9825C268.0828,-44.4954 198.8529,-27.7952 157.4788,-17.8146"/>
<polygon fill="#63b8ff" stroke="#63b8ff" points="158.1347,-14.3725 147.5928,-15.4298 156.4932,-21.1773 158.1347,-14.3725"/>
</a>
</g>
</g>
<!-- Node9&#45;&gt;Node6 -->
<g id="edge17_Node000009_Node000006" class="edge">
<title>Node9&#45;&gt;Node6</title>
<g id="a_edge17_Node000009_Node000006"><a xlink:title=" ">
<path fill="none" stroke="#63b8ff" d="M332.3729,-54.9197C315.6747,-46.3365 290.9511,-33.6281 271.8991,-23.8351"/>
<polygon fill="#63b8ff" stroke="#63b8ff" points="273.2883,-20.6138 262.7943,-19.155 270.0881,-26.8395 273.2883,-20.6138"/>
</a>
</g>
</g>
<!-- Node10&#45;&gt;Node3 -->
<g id="edge21_Node000010_Node000003" class="edge">
<title>Node10&#45;&gt;Node3</title>
<g id="a_edge21_Node000010_Node000003"><a xlink:title=" ">
<path fill="none" stroke="#63b8ff" d="M398.438,-109.9197C367.2943,-100.7598 320.1769,-86.9018 286.18,-76.9027"/>
<polygon fill="#63b8ff" stroke="#63b8ff" points="287.105,-73.5265 276.5237,-74.0626 285.1298,-80.2421 287.105,-73.5265"/>
</a>
</g>
</g>
<!-- Node10&#45;&gt;Node4 -->
<g id="edge19_Node000010_Node000004" class="edge">
<title>Node10&#45;&gt;Node4</title>
<g id="a_edge19_Node000010_Node000004"><a xlink:title=" ">
<path fill="none" stroke="#63b8ff" d="M437.2437,-109.9285C445.0816,-96.5614 456.2341,-72.031 445.0109,-55 429.5834,-31.5891 399.3281,-20.1761 375.0768,-14.6398"/>
<polygon fill="#63b8ff" stroke="#63b8ff" points="375.6092,-11.1764 365.1117,-12.6091 374.2114,-18.0355 375.6092,-11.1764"/>
</a>
</g>
</g>
<!-- Node10&#45;&gt;Node6 -->
<g id="edge20_Node000010_Node000006" class="edge">
<title>Node10&#45;&gt;Node6</title>
<g id="a_edge20_Node000010_Node000006"><a xlink:title=" ">
<path fill="none" stroke="#63b8ff" d="M430.953,-109.7063C430.3227,-95.6123 427.0315,-69.6939 412.0109,-55 395.2631,-38.6164 337.163,-25.3864 293.9527,-17.5009"/>
<polygon fill="#63b8ff" stroke="#63b8ff" points="294.3348,-14.014 283.8764,-15.7086 293.1089,-20.9058 294.3348,-14.014"/>
</a>
</g>
</g>
<!-- Node10&#45;&gt;Node11 -->
<g id="edge22_Node000010_Node000011" class="edge">
<title>Node10&#45;&gt;Node11</title>
<g id="a_edge22_Node000010_Node000011"><a xlink:title=" ">
<path fill="none" stroke="#63b8ff" d="M447.5587,-109.9197C462.1811,-101.4541 483.735,-88.9755 500.5524,-79.2391"/>
<polygon fill="#63b8ff" stroke="#63b8ff" points="502.4334,-82.1944 509.3341,-74.155 498.9261,-76.1364 502.4334,-82.1944"/>
</a>
</g>
</g>
</g>
</svg>

<g id="navigator" transform="translate(0 0)" fill="#404254">
  <rect fill="#f2f5e9" fill-opacity="0.5" stroke="#606060" stroke-width=".5" x="0" y="0" width="60" height="60"/>
  <use id="zoomplus" xlink:href="#zoomPlus" x="17" y="9" onmousedown="handleZoom(evt,'in')"/>
  <use id="zoomminus" xlink:href="#zoomMin" x="42" y="9" onmousedown="handleZoom(evt,'out')"/>
  <use id="reset" xlink:href="#resetDef" x="30" y="36" onmousedown="handleReset()"/>
   <use id="arrowup" xlink:href="#arrowUp" x="0" y="0" onmousedown="handlePan(0,-1)"/>
  <use id="arrowright" xlink:href="#arrowRight" x="0" y="0" onmousedown="handlePan(1,0)"/>
  <use id="arrowdown" xlink:href="#arrowDown" x="0" y="0" onmousedown="handlePan(0,1)"/>
  <use id="arrowleft" xlink:href="#arrowLeft" x="0" y="0" onmousedown="handlePan(-1,0)"/>
</g>
<svg viewBox="0 0 15 15" width="100%" height="30px" preserveAspectRatio="xMaxYMin meet">
 <g id="arrow_out" transform="scale(0.3 0.3)">
  <a xlink:href="potrSendThread_8h__incl_org.svg" target="_base">
   <rect id="button" ry="5" rx="5" y="6" x="6" height="38" width="38"
        fill="#f2f5e9" fill-opacity="0.5" stroke="#606060" stroke-width="1.0"/>
   <path id="arrow"
     d="M 11.500037,31.436501 C 11.940474,20.09759 22.043105,11.32322 32.158766,21.979434 L 37.068811,17.246167 C 37.068811,17.246167 37.088388,32 37.088388,32 L 22.160133,31.978069 C 22.160133,31.978069 26.997745,27.140456 26.997745,27.140456 C 18.528582,18.264221 13.291696,25.230495 11.500037,31.436501 z"
     style="fill:#404040;"/>
  </a>
 </g>
</svg>

<style type='text/css'>
<![CDATA[
[data-mouse-over-selected='false'] { opacity: 0.7; }
[data-mouse-over-selected='true']  { opacity: 1.0; }
]]>
</style>
<script type="application/ecmascript"><![CDATA[
document.addEventListener('DOMContentLoaded', (event) => {
  highlightEdges();
  highlightAdjacentNodes();
});
]]></script>
</svg>
