<?xml version="1.0" encoding="UTF-8" standalone="no"?>
<!DOCTYPE svg PUBLIC "-//W3C//DTD SVG 1.1//EN"
 "http://www.w3.org/Graphics/SVG/1.1/DTD/svg11.dtd">
<!-- Generated by graphviz version 2.40.1 (0)
 -->
<!-- Title: log_lock Pages: 1 -->
<svg width="248pt" height="64pt"
 viewBox="0.00 0.00 248.00 64.00" xmlns="http://www.w3.org/2000/svg" xmlns:xlink="http://www.w3.org/1999/xlink">
<g id="graph0" class="graph" transform="scale(1 1) rotate(0) translate(4 60)">
<title>log_lock</title>
<!-- Node1 -->
<g id="Node000001" class="node">
<title>Node1</title>
<g id="a_Node000001"><a xlink:title=" ">
<polygon fill="#999999" stroke="#666666" points="240,-37 187,-37 187,-18 240,-18 240,-37"/>
<text text-anchor="middle" x="213.5" y="-25" font-family="Helvetica,sans-Serif" font-size="10.00" fill="#000000">log_lock</text>
</a>
</g>
</g>
<!-- Node2 -->
<g id="Node000002" class="node">
<title>Node2</title>
<g id="a_Node000002"><a xlink:href="potrLog_8c.html#a569f064227175571bb7a9c98e9032f44" target="_top" xlink:title="ログメッセージを書き込みます (内部関数)。">
<polygon fill="#ffffff" stroke="#666666" points="151,-56 74,-56 74,-37 151,-37 151,-56"/>
<text text-anchor="middle" x="112.5" y="-44" font-family="Helvetica,sans-Serif" font-size="10.00" fill="#000000">potr_log_write</text>
</a>
</g>
</g>
<!-- Node1&#45;&gt;Node2 -->
<g id="edge1_Node000001_Node000002" class="edge">
<title>Node1&#45;&gt;Node2</title>
<g id="a_edge1_Node000001_Node000002"><a xlink:title=" ">
<path fill="none" stroke="#63b8ff" d="M177.0117,-34.3641C168.564,-35.9533 159.5484,-37.6493 151.0169,-39.2542"/>
<polygon fill="#63b8ff" stroke="#63b8ff" points="177.7829,-37.7805 186.9634,-32.492 176.4887,-30.9012 177.7829,-37.7805"/>
</a>
</g>
</g>
<!-- Node3 -->
<g id="Node000003" class="node">
<title>Node3</title>
<g id="a_Node000003"><a xlink:href="potrLog_8c.html#aeae805e3776ba2eb58743ea2178c9970" target="_top" xlink:title="ロガーを設定します。">
<polygon fill="#ffffff" stroke="#666666" points="151,-19 74,-19 74,0 151,0 151,-19"/>
<text text-anchor="middle" x="112.5" y="-7" font-family="Helvetica,sans-Serif" font-size="10.00" fill="#000000">potrLogConfig</text>
</a>
</g>
</g>
<!-- Node1&#45;&gt;Node3 -->
<g id="edge2_Node000001_Node000003" class="edge">
<title>Node1&#45;&gt;Node3</title>
<g id="a_edge2_Node000001_Node000003"><a xlink:title=" ">
<path fill="none" stroke="#63b8ff" d="M177.0117,-20.9971C168.564,-19.4916 159.5484,-17.8849 151.0169,-16.3644"/>
<polygon fill="#63b8ff" stroke="#63b8ff" points="176.5044,-24.4618 186.9634,-22.7707 177.7327,-17.5704 176.5044,-24.4618"/>
</a>
</g>
</g>
<!-- Node4 -->
<g id="Node000004" class="node">
<title>Node4</title>
<g id="a_Node000004"><a xlink:href="recv_8c.html#a0ddf1224851353fc92bfbff6f499fa97" target="_top" xlink:title="メインエントリーポイント。">
<polygon fill="#ffffff" stroke="#666666" points="38,-19 0,-19 0,0 38,0 38,-19"/>
<text text-anchor="middle" x="19" y="-7" font-family="Helvetica,sans-Serif" font-size="10.00" fill="#000000">main</text>
</a>
</g>
</g>
<!-- Node3&#45;&gt;Node4 -->
<g id="edge3_Node000003_Node000004" class="edge">
<title>Node3&#45;&gt;Node4</title>
<g id="a_edge3_Node000003_Node000004"><a xlink:title=" ">
<path fill="none" stroke="#63b8ff" d="M63.6758,-9.5C54.5676,-9.5 45.5645,-9.5 38.0532,-9.5"/>
<polygon fill="#63b8ff" stroke="#63b8ff" points="63.9302,-13.0001 73.9302,-9.5 63.9301,-6.0001 63.9302,-13.0001"/>
</a>
</g>
</g>
</g>
</svg>
