<?xml version="1.0" encoding="UTF-8" standalone="no"?>
<!DOCTYPE svg PUBLIC "-//W3C//DTD SVG 1.1//EN"
 "http://www.w3.org/Graphics/SVG/1.1/DTD/svg11.dtd">
<!-- Generated by graphviz version 2.40.1 (0)
 -->
<!-- Title: porter/libsrc/porter/thread/potrSendThread.c Pages: 1 -->
<!--zoomable 313 -->

<svg id="main" version="1.1" xmlns="http://www.w3.org/2000/svg" xmlns:xlink="http://www.w3.org/1999/xlink" xml:space="preserve" onload="init(evt)">

<style type="text/css"><![CDATA[
.node, .edge {opacity: 0.7;}
.node.selected, .edge.selected {opacity: 1;}
.edge:hover path { stroke: red; }
.edge:hover polygon { stroke: red; fill: red; }
]]></style>

<defs>
  <circle id="rim" cx="0" cy="0" r="7"/>
  <circle id="rim2" cx="0" cy="0" r="3.5"/>
  <g id="zoomPlus">
    <use xlink:href="#rim" fill="#404040"><set attributeName="fill" to="#808080" begin="zoomplus.mouseover" end="zoomplus.mouseout"/></use>
    <path d="M-4,0h8M0,-4v8" fill="none" stroke="white" stroke-width="1.5" pointer-events="none"/>
  </g>
  <g id="zoomMin">
    <use xlink:href="#rim" fill="#404040"><set attributeName="fill" to="#808080" begin="zoomminus.mouseover" end="zoomminus.mouseout"/></use>
    <path d="M-4,0h8" fill="none" stroke="white" stroke-width="1.5" pointer-events="none"/>
  </g>
  <g id="arrowUp" transform="translate(30 24)">
    <use xlink:href="#rim"/>
    <path pointer-events="none" fill="none" stroke="white" stroke-width="1.5" d="M0,-3.0v7 M-2.5,-0.5L0,-3.0L2.5,-0.5"/>
  </g>
  <g id="arrowRight" transform="rotate(90) translate(36 -43)">
    <use xlink:href="#rim"/>
    <path pointer-events="none" fill="none" stroke="white" stroke-width="1.5" d="M0,-3.0v7 M-2.5,-0.5L0,-3.0L2.5,-0.5"/>
  </g>
  <g id="arrowDown" transform="rotate(180) translate(-30 -48)">
    <use xlink:href="#rim"/>
    <path pointer-events="none" fill="none" stroke="white" stroke-width="1.5" d="M0,-3.0v7 M-2.5,-0.5L0,-3.0L2.5,-0.5"/>
  </g>
  <g id="arrowLeft" transform="rotate(270) translate(-36 17)">
    <use xlink:href="#rim"/>
    <path pointer-events="none" fill="none" stroke="white" stroke-width="1.5" d="M0,-3.0v7 M-2.5,-0.5L0,-3.0L2.5,-0.5"/>
  </g>
  <g id="resetDef">
    <use xlink:href="#rim2" fill="#404040"><set attributeName="fill" to="#808080" begin="reset.mouseover" end="reset.mouseout"/></use>
  </g>
</defs>
<script type="application/ecmascript">
var viewWidth = 794;
var viewHeight = 313;
var sectionId = 'dynsection-0';
</script>
<script type="application/ecmascript" xlink:href="svg.min.js"/>
<svg id="graph" class="graph">
<g id="viewport">
<title>porter/libsrc/porter/thread/potrSendThread.c</title>
<!-- Node1 -->
<g id="Node000001" class="node">
<title>Node1</title>
<g id="a_Node000001"><a xlink:title="非同期送信スレッドの実装。">
<polygon fill="#999999" stroke="#666666" points="469.5,-305 342.5,-305 342.5,-275 469.5,-275 469.5,-305"/>
<text text-anchor="start" x="350.5" y="-293" font-family="Helvetica,sans-Serif" font-size="10.00" fill="#000000">porter/libsrc/porter</text>
<text text-anchor="middle" x="406" y="-282" font-family="Helvetica,sans-Serif" font-size="10.00" fill="#000000">/thread/potrSendThread.c</text>
</a>
</g>
</g>
<!-- Node2 -->
<g id="Node000002" class="node">
<title>Node2</title>
<g id="a_Node000002"><a xlink:title=" ">
<polygon fill="#e0e0e0" stroke="#999999" points="107.5,-74 50.5,-74 50.5,-55 107.5,-55 107.5,-74"/>
<text text-anchor="middle" x="79" y="-62" font-family="Helvetica,sans-Serif" font-size="10.00" fill="#000000">pthread.h</text>
</a>
</g>
</g>
<!-- Node1&#45;&gt;Node2 -->
<g id="edge1_Node000001_Node000002" class="edge">
<title>Node1&#45;&gt;Node2</title>
<g id="a_edge1_Node000001_Node000002"><a xlink:title=" ">
<path fill="none" stroke="#63b8ff" d="M342.4349,-282.3339C298.7155,-275.2837 240.2465,-262.2645 193,-239 123.2559,-204.6575 90.4887,-199.1581 57,-129 49.8639,-114.05 57.1148,-96.159 65.1499,-83.0161"/>
<polygon fill="#63b8ff" stroke="#63b8ff" points="68.2708,-84.647 70.9448,-74.3952 62.4613,-80.7419 68.2708,-84.647"/>
</a>
</g>
</g>
<!-- Node3 -->
<g id="Node000003" class="node">
<title>Node3</title>
<g id="a_Node000003"><a xlink:title=" ">
<polygon fill="#e0e0e0" stroke="#999999" points="655.5,-239 582.5,-239 582.5,-220 655.5,-220 655.5,-239"/>
<text text-anchor="middle" x="619" y="-227" font-family="Helvetica,sans-Serif" font-size="10.00" fill="#000000">sys/socket.h</text>
</a>
</g>
</g>
<!-- Node1&#45;&gt;Node3 -->
<g id="edge2_Node000001_Node000003" class="edge">
<title>Node1&#45;&gt;Node3</title>
<g id="a_edge2_Node000001_Node000003"><a xlink:title=" ">
<path fill="none" stroke="#63b8ff" d="M458.9254,-274.9672C494.7674,-264.7867 541.5563,-251.4969 575.2818,-241.9176"/>
<polygon fill="#63b8ff" stroke="#63b8ff" points="576.6392,-245.1706 585.3023,-239.0714 574.7265,-238.4369 576.6392,-245.1706"/>
</a>
</g>
</g>
<!-- Node4 -->
<g id="Node000004" class="node">
<title>Node4</title>
<g id="a_Node000004"><a xlink:title=" ">
<polygon fill="#e0e0e0" stroke="#999999" points="131.5,-129 66.5,-129 66.5,-110 131.5,-110 131.5,-129"/>
<text text-anchor="middle" x="99" y="-117" font-family="Helvetica,sans-Serif" font-size="10.00" fill="#000000">netinet/in.h</text>
</a>
</g>
</g>
<!-- Node1&#45;&gt;Node4 -->
<g id="edge3_Node000001_Node000004" class="edge">
<title>Node1&#45;&gt;Node4</title>
<g id="a_edge3_Node000001_Node000004"><a xlink:title=" ">
<path fill="none" stroke="#63b8ff" d="M342.3242,-279.8963C306.2279,-272.2975 261.1894,-259.5666 225,-239 177.4303,-211.9659 133.983,-163.2046 112.7204,-137.1086"/>
<polygon fill="#63b8ff" stroke="#63b8ff" points="115.3665,-134.8134 106.3862,-129.1916 109.9007,-139.1866 115.3665,-134.8134"/>
</a>
</g>
</g>
<!-- Node5 -->
<g id="Node000005" class="node">
<title>Node5</title>
<g id="a_Node000005"><a xlink:title=" ">
<polygon fill="#e0e0e0" stroke="#999999" points="718,-239 674,-239 674,-220 718,-220 718,-239"/>
<text text-anchor="middle" x="696" y="-227" font-family="Helvetica,sans-Serif" font-size="10.00" fill="#000000">time.h</text>
</a>
</g>
</g>
<!-- Node1&#45;&gt;Node5 -->
<g id="edge4_Node000001_Node000005" class="edge">
<title>Node1&#45;&gt;Node5</title>
<g id="a_edge4_Node000001_Node000005"><a xlink:title=" ">
<path fill="none" stroke="#63b8ff" d="M469.7369,-279.3373C520.0458,-270.4903 592.1595,-256.8592 663.6455,-239.1516"/>
<polygon fill="#63b8ff" stroke="#63b8ff" points="664.8764,-242.4514 673.726,-236.626 663.1752,-235.6613 664.8764,-242.4514"/>
</a>
</g>
</g>
<!-- Node6 -->
<g id="Node000006" class="node">
<title>Node6</title>
<g id="a_Node000006"><a xlink:title=" ">
<polygon fill="#e0e0e0" stroke="#999999" points="785.5,-239 736.5,-239 736.5,-220 785.5,-220 785.5,-239"/>
<text text-anchor="middle" x="761" y="-227" font-family="Helvetica,sans-Serif" font-size="10.00" fill="#000000">string.h</text>
</a>
</g>
</g>
<!-- Node1&#45;&gt;Node6 -->
<g id="edge5_Node000001_Node000006" class="edge">
<title>Node1&#45;&gt;Node6</title>
<g id="a_edge5_Node000001_Node000006"><a xlink:title=" ">
<path fill="none" stroke="#63b8ff" d="M469.7453,-282.0706C532.5849,-273.7578 631.4739,-259.3507 726.1646,-238.9704"/>
<polygon fill="#63b8ff" stroke="#63b8ff" points="727.1743,-242.3327 736.2001,-236.7843 725.6843,-235.4931 727.1743,-242.3327"/>
</a>
</g>
</g>
<!-- Node7 -->
<g id="Node000007" class="node">
<title>Node7</title>
<g id="a_Node000007"><a xlink:href="porter__const_8h.html" target="_top" xlink:title="通信ライブラリの定数ファイル。">
<polygon fill="#ffffff" stroke="#666666" points="299.5,-19 220.5,-19 220.5,0 299.5,0 299.5,-19"/>
<text text-anchor="middle" x="260" y="-7" font-family="Helvetica,sans-Serif" font-size="10.00" fill="#000000">porter_const.h</text>
</a>
</g>
</g>
<!-- Node1&#45;&gt;Node7 -->
<g id="edge6_Node000001_Node000007" class="edge">
<title>Node1&#45;&gt;Node7</title>
<g id="a_edge6_Node000001_Node000007"><a xlink:title=" ">
<path fill="none" stroke="#63b8ff" d="M342.1159,-285.1029C227.7807,-274.5669 0,-244.7599 0,-174.5 0,-174.5 0,-174.5 0,-119.5 0,-85.532 13.0556,-74.3116 41,-55 67.9168,-36.3986 154.2885,-22.5711 210.1801,-15.2926"/>
<polygon fill="#63b8ff" stroke="#63b8ff" points="210.7633,-18.7466 220.2404,-14.01 209.878,-11.8028 210.7633,-18.7466"/>
</a>
</g>
</g>
<!-- Node8 -->
<g id="Node000008" class="node">
<title>Node8</title>
<g id="a_Node000008"><a xlink:href="potrContext_8h.html" target="_top" xlink:title="セッションコンテキスト内部定義ヘッダー。">
<polygon fill="#ffffff" stroke="#666666" points="372,-184 288,-184 288,-165 372,-165 372,-184"/>
<text text-anchor="middle" x="330" y="-172" font-family="Helvetica,sans-Serif" font-size="10.00" fill="#000000">../potrContext.h</text>
</a>
</g>
</g>
<!-- Node1&#45;&gt;Node8 -->
<g id="edge7_Node000001_Node000008" class="edge">
<title>Node1&#45;&gt;Node8</title>
<g id="a_edge7_Node000001_Node000008"><a xlink:title=" ">
<path fill="none" stroke="#63b8ff" d="M396.0643,-274.9004C382.1311,-253.7256 356.8245,-215.2662 341.9029,-192.5893"/>
<polygon fill="#63b8ff" stroke="#63b8ff" points="344.8043,-190.6313 336.3836,-184.2014 338.9567,-194.4791 344.8043,-190.6313"/>
</a>
</g>
</g>
<!-- Node12 -->
<g id="Node000012" class="node">
<title>Node12</title>
<g id="a_Node000012"><a xlink:href="window_8h.html" target="_top" xlink:title="スライディングウィンドウ管理モジュールの内部ヘッダー。">
<polygon fill="#ffffff" stroke="#666666" points="565.5,-129 472.5,-129 472.5,-110 565.5,-110 565.5,-129"/>
<text text-anchor="middle" x="519" y="-117" font-family="Helvetica,sans-Serif" font-size="10.00" fill="#000000">protocol/window.h</text>
</a>
</g>
</g>
<!-- Node1&#45;&gt;Node12 -->
<g id="edge38_Node000001_Node000012" class="edge">
<title>Node1&#45;&gt;Node12</title>
<g id="a_edge38_Node000001_Node000012"><a xlink:title=" ">
<path fill="none" stroke="#63b8ff" d="M410.3682,-274.9454C418.0706,-250.1801 435.8649,-200.0966 463,-165 471.9479,-153.4267 484.3856,-142.9439 495.2672,-134.9651"/>
<polygon fill="#63b8ff" stroke="#63b8ff" points="497.3977,-137.7457 503.5639,-129.1301 493.3708,-132.0199 497.3977,-137.7457"/>
</a>
</g>
</g>
<!-- Node14 -->
<g id="Node000014" class="node">
<title>Node14</title>
<g id="a_Node000014"><a xlink:href="crypto_8h.html" target="_top" xlink:title="データ暗号化・復号モジュールの内部ヘッダー。">
<polygon fill="#ffffff" stroke="#666666" points="498,-74 394,-74 394,-55 498,-55 498,-74"/>
<text text-anchor="middle" x="446" y="-62" font-family="Helvetica,sans-Serif" font-size="10.00" fill="#000000">infra/crypto/crypto.h</text>
</a>
</g>
</g>
<!-- Node1&#45;&gt;Node14 -->
<g id="edge41_Node000001_Node000014" class="edge">
<title>Node1&#45;&gt;Node14</title>
<g id="a_edge41_Node000001_Node000014"><a xlink:title=" ">
<path fill="none" stroke="#63b8ff" d="M408.6866,-274.8542C415.7123,-235.247 434.6287,-128.606 442.4946,-84.2616"/>
<polygon fill="#63b8ff" stroke="#63b8ff" points="445.982,-84.6403 444.2825,-74.1827 439.0896,-83.4176 445.982,-84.6403"/>
</a>
</g>
</g>
<!-- Node15 -->
<g id="Node000015" class="node">
<title>Node15</title>
<g id="a_Node000015"><a xlink:href="potrSendQueue_8h.html" target="_top" xlink:title="非同期送信キューの型定義と操作関数。">
<polygon fill="#ffffff" stroke="#666666" points="302,-129 188,-129 188,-110 302,-110 302,-129"/>
<text text-anchor="middle" x="245" y="-117" font-family="Helvetica,sans-Serif" font-size="10.00" fill="#000000">infra/potrSendQueue.h</text>
</a>
</g>
</g>
<!-- Node1&#45;&gt;Node15 -->
<g id="edge31_Node000001_Node000015" class="edge">
<title>Node1&#45;&gt;Node15</title>
<g id="a_edge31_Node000001_Node000015"><a xlink:title=" ">
<path fill="none" stroke="#63b8ff" d="M342.1282,-278.872C299.8427,-270.0548 249.8833,-256.345 237,-239 215.097,-209.5116 227.2333,-163.8149 236.8596,-138.3225"/>
<polygon fill="#63b8ff" stroke="#63b8ff" points="240.1122,-139.6151 240.6,-129.0315 233.6187,-137.0009 240.1122,-139.6151"/>
</a>
</g>
</g>
<!-- Node16 -->
<g id="Node000016" class="node">
<title>Node16</title>
<g id="a_Node000016"><a xlink:href="potrSendThread_8h.html" target="_top" xlink:title="非同期送信スレッドの内部ヘッダー。">
<polygon fill="#ffffff" stroke="#666666" points="340,-239 246,-239 246,-220 340,-220 340,-239"/>
<text text-anchor="middle" x="293" y="-227" font-family="Helvetica,sans-Serif" font-size="10.00" fill="#000000">potrSendThread.h</text>
</a>
</g>
</g>
<!-- Node1&#45;&gt;Node16 -->
<g id="edge32_Node000001_Node000016" class="edge">
<title>Node1&#45;&gt;Node16</title>
<g id="a_edge32_Node000001_Node000016"><a xlink:title=" ">
<path fill="none" stroke="#63b8ff" d="M377.7768,-274.8894C360.1267,-265.4395 337.5163,-253.3339 320.0854,-244.0015"/>
<polygon fill="#63b8ff" stroke="#63b8ff" points="321.4669,-240.7711 310.9989,-239.1366 318.1628,-246.9423 321.4669,-240.7711"/>
</a>
</g>
</g>
<!-- Node17 -->
<g id="Node000017" class="node">
<title>Node17</title>
<g id="a_Node000017"><a xlink:href="packet_8h.html" target="_top" xlink:title="パケット構築・解析モジュールの内部ヘッダー。">
<polygon fill="#ffffff" stroke="#666666" points="723.5,-129 622.5,-129 622.5,-110 723.5,-110 723.5,-129"/>
<text text-anchor="middle" x="673" y="-117" font-family="Helvetica,sans-Serif" font-size="10.00" fill="#000000">../protocol/packet.h</text>
</a>
</g>
</g>
<!-- Node1&#45;&gt;Node17 -->
<g id="edge34_Node000001_Node000017" class="edge">
<title>Node1&#45;&gt;Node17</title>
<g id="a_edge34_Node000001_Node000017"><a xlink:title=" ">
<path fill="none" stroke="#63b8ff" d="M429.6945,-274.8693C480.3972,-242.4917 598.9012,-166.8177 649.4631,-134.5301"/>
<polygon fill="#63b8ff" stroke="#63b8ff" points="651.5374,-137.3583 658.0818,-129.0264 647.7699,-131.4586 651.5374,-137.3583"/>
</a>
</g>
</g>
<!-- Node18 -->
<g id="Node000018" class="node">
<title>Node18</title>
<g id="a_Node000018"><a xlink:href="potrLog_8h.html" target="_top" xlink:title="porter 内部ログマクロ定義ヘッダー。">
<polygon fill="#ffffff" stroke="#666666" points="560,-184 472,-184 472,-165 560,-165 560,-184"/>
<text text-anchor="middle" x="516" y="-172" font-family="Helvetica,sans-Serif" font-size="10.00" fill="#000000">../infra/potrLog.h</text>
</a>
</g>
</g>
<!-- Node1&#45;&gt;Node18 -->
<g id="edge39_Node000001_Node000018" class="edge">
<title>Node1&#45;&gt;Node18</title>
<g id="a_edge39_Node000001_Node000018"><a xlink:title=" ">
<path fill="none" stroke="#63b8ff" d="M422.1885,-274.6299C432.5828,-264.6377 446.2807,-251.2381 458,-239 472.8666,-223.4752 489.1857,-205.2113 500.716,-192.0888"/>
<polygon fill="#63b8ff" stroke="#63b8ff" points="503.5894,-194.1199 507.5381,-184.2884 498.3202,-189.5116 503.5894,-194.1199"/>
</a>
</g>
</g>
<!-- Node8&#45;&gt;Node2 -->
<g id="edge29_Node000008_Node000002" class="edge">
<title>Node8&#45;&gt;Node2</title>
<g id="a_edge29_Node000008_Node000002"><a xlink:title=" ">
<path fill="none" stroke="#63b8ff" d="M287.8345,-165.1676C256.8938,-157.521 214.2947,-145.305 179,-129 149.7252,-115.476 118.9721,-94.4642 99.4273,-80.1238"/>
<polygon fill="#63b8ff" stroke="#63b8ff" points="101.3918,-77.2229 91.2816,-74.0553 97.2098,-82.8364 101.3918,-77.2229"/>
</a>
</g>
</g>
<!-- Node8&#45;&gt;Node4 -->
<g id="edge30_Node000008_Node000004" class="edge">
<title>Node8&#45;&gt;Node4</title>
<g id="a_edge30_Node000008_Node000004"><a xlink:title=" ">
<path fill="none" stroke="#63b8ff" d="M290.0266,-164.9825C248.5437,-155.1056 183.9143,-139.7177 141.5149,-129.6226"/>
<polygon fill="#63b8ff" stroke="#63b8ff" points="142.3083,-126.2137 131.7696,-127.3023 140.6869,-133.0234 142.3083,-126.2137"/>
</a>
</g>
</g>
<!-- Node9 -->
<g id="Node000009" class="node">
<title>Node9</title>
<g id="a_Node000009"><a xlink:href="porter__type_8h.html" target="_top" xlink:title="通信ライブラリの型定義ファイル。">
<polygon fill="#ffffff" stroke="#666666" points="590,-74 516,-74 516,-55 590,-55 590,-74"/>
<text text-anchor="middle" x="553" y="-62" font-family="Helvetica,sans-Serif" font-size="10.00" fill="#000000">porter_type.h</text>
</a>
</g>
</g>
<!-- Node8&#45;&gt;Node9 -->
<g id="edge8_Node000008_Node000009" class="edge">
<title>Node8&#45;&gt;Node9</title>
<g id="a_edge8_Node000008_Node000009"><a xlink:title=" ">
<path fill="none" stroke="#63b8ff" d="M349.3997,-164.9306C388.7735,-145.5086 478.2293,-101.3824 524.3387,-78.6379"/>
<polygon fill="#63b8ff" stroke="#63b8ff" points="526.0664,-81.6883 533.4864,-74.1256 522.9697,-75.4105 526.0664,-81.6883"/>
</a>
</g>
</g>
<!-- Node8&#45;&gt;Node12 -->
<g id="edge12_Node000008_Node000012" class="edge">
<title>Node8&#45;&gt;Node12</title>
<g id="a_edge12_Node000008_Node000012"><a xlink:title=" ">
<path fill="none" stroke="#63b8ff" d="M362.9213,-164.9197C394.3981,-155.7598 442.0194,-141.9018 476.3799,-131.9027"/>
<polygon fill="#63b8ff" stroke="#63b8ff" points="477.5157,-135.2174 486.1394,-129.0626 475.5598,-128.4962 477.5157,-135.2174"/>
</a>
</g>
</g>
<!-- Node13 -->
<g id="Node000013" class="node">
<title>Node13</title>
<g id="a_Node000013"><a xlink:href="compress_8h.html" target="_top" xlink:title="データ圧縮・解凍モジュールの内部ヘッダー。">
<polygon fill="#ffffff" stroke="#666666" points="375.5,-74 240.5,-74 240.5,-55 375.5,-55 375.5,-74"/>
<text text-anchor="middle" x="308" y="-62" font-family="Helvetica,sans-Serif" font-size="10.00" fill="#000000">infra/compress/compress.h</text>
</a>
</g>
</g>
<!-- Node8&#45;&gt;Node13 -->
<g id="edge16_Node000008_Node000013" class="edge">
<title>Node8&#45;&gt;Node13</title>
<g id="a_edge16_Node000008_Node000013"><a xlink:title=" ">
<path fill="none" stroke="#63b8ff" d="M328.0476,-164.7382C324.4345,-146.6724 316.6426,-107.713 311.9075,-84.0376"/>
<polygon fill="#63b8ff" stroke="#63b8ff" points="315.3098,-83.2022 309.9166,-74.0828 308.4458,-84.5751 315.3098,-83.2022"/>
</a>
</g>
</g>
<!-- Node8&#45;&gt;Node14 -->
<g id="edge20_Node000008_Node000014" class="edge">
<title>Node8&#45;&gt;Node14</title>
<g id="a_edge20_Node000008_Node000014"><a xlink:title=" ">
<path fill="none" stroke="#63b8ff" d="M338.9369,-164.5729C350.7208,-151.6329 372.2744,-128.4749 392,-110 402.7651,-99.9175 415.3388,-89.2622 425.6433,-80.7995"/>
<polygon fill="#63b8ff" stroke="#63b8ff" points="428.1258,-83.292 433.6759,-74.2673 423.7092,-77.8611 428.1258,-83.292"/>
</a>
</g>
</g>
<!-- Node8&#45;&gt;Node15 -->
<g id="edge24_Node000008_Node000015" class="edge">
<title>Node8&#45;&gt;Node15</title>
<g id="a_edge24_Node000008_Node000015"><a xlink:title=" ">
<path fill="none" stroke="#63b8ff" d="M315.1941,-164.9197C302.3532,-156.6109 283.538,-144.4363 268.6189,-134.7828"/>
<polygon fill="#63b8ff" stroke="#63b8ff" points="270.2185,-131.6491 259.9214,-129.155 266.4157,-137.5261 270.2185,-131.6491"/>
</a>
</g>
</g>
<!-- Node9&#45;&gt;Node7 -->
<g id="edge11_Node000009_Node000007" class="edge">
<title>Node9&#45;&gt;Node7</title>
<g id="a_edge11_Node000009_Node000007"><a xlink:title=" ">
<path fill="none" stroke="#63b8ff" d="M515.8567,-56.7577C512.8618,-56.1552 509.8812,-55.5628 507,-55 438.738,-41.6655 359.6474,-27.2833 309.7245,-18.3359"/>
<polygon fill="#63b8ff" stroke="#63b8ff" points="310.295,-14.8825 299.8349,-16.5662 309.0619,-21.773 310.295,-14.8825"/>
</a>
</g>
</g>
<!-- Node10 -->
<g id="Node000010" class="node">
<title>Node10</title>
<g id="a_Node000010"><a xlink:title=" ">
<polygon fill="#e0e0e0" stroke="#999999" points="472,-19 420,-19 420,0 472,0 472,-19"/>
<text text-anchor="middle" x="446" y="-7" font-family="Helvetica,sans-Serif" font-size="10.00" fill="#000000">stddef.h</text>
</a>
</g>
</g>
<!-- Node9&#45;&gt;Node10 -->
<g id="edge9_Node000009_Node000010" class="edge">
<title>Node9&#45;&gt;Node10</title>
<g id="a_edge9_Node000009_Node000010"><a xlink:title=" ">
<path fill="none" stroke="#63b8ff" d="M534.362,-54.9197C517.6638,-46.3365 492.9402,-33.6281 473.8882,-23.8351"/>
<polygon fill="#63b8ff" stroke="#63b8ff" points="475.2773,-20.6138 464.7834,-19.155 472.0772,-26.8395 475.2773,-20.6138"/>
</a>
</g>
</g>
<!-- Node11 -->
<g id="Node000011" class="node">
<title>Node11</title>
<g id="a_Node000011"><a xlink:title=" ">
<polygon fill="#e0e0e0" stroke="#999999" points="577.5,-19 528.5,-19 528.5,0 577.5,0 577.5,-19"/>
<text text-anchor="middle" x="553" y="-7" font-family="Helvetica,sans-Serif" font-size="10.00" fill="#000000">stdint.h</text>
</a>
</g>
</g>
<!-- Node9&#45;&gt;Node11 -->
<g id="edge10_Node000009_Node000011" class="edge">
<title>Node9&#45;&gt;Node11</title>
<g id="a_edge10_Node000009_Node000011"><a xlink:title=" ">
<path fill="none" stroke="#63b8ff" d="M553,-54.9197C553,-47.9083 553,-38.1442 553,-29.4652"/>
<polygon fill="#63b8ff" stroke="#63b8ff" points="556.5001,-29.3408 553,-19.3408 549.5001,-29.3409 556.5001,-29.3408"/>
</a>
</g>
</g>
<!-- Node12&#45;&gt;Node7 -->
<g id="edge14_Node000012_Node000007" class="edge">
<title>Node12&#45;&gt;Node7</title>
<g id="a_edge14_Node000012_Node000007"><a xlink:title=" ">
<path fill="none" stroke="#63b8ff" d="M472.4147,-115.4321C394.9247,-108.1905 246.4754,-92.1122 231,-74 219.1326,-60.1106 230.8581,-40.5768 242.7595,-26.6524"/>
<polygon fill="#63b8ff" stroke="#63b8ff" points="245.4276,-28.9215 249.6102,-19.1872 240.2701,-24.1886 245.4276,-28.9215"/>
</a>
</g>
</g>
<!-- Node12&#45;&gt;Node9 -->
<g id="edge15_Node000012_Node000009" class="edge">
<title>Node12&#45;&gt;Node9</title>
<g id="a_edge15_Node000012_Node000009"><a xlink:title=" ">
<path fill="none" stroke="#63b8ff" d="M524.9223,-109.9197C529.4975,-102.5188 535.9686,-92.0509 541.5455,-83.0294"/>
<polygon fill="#63b8ff" stroke="#63b8ff" points="544.6354,-84.6872 546.9166,-74.3408 538.6812,-81.0064 544.6354,-84.6872"/>
</a>
</g>
</g>
<!-- Node12&#45;&gt;Node11 -->
<g id="edge13_Node000012_Node000011" class="edge">
<title>Node12&#45;&gt;Node11</title>
<g id="a_edge13_Node000012_Node000011"><a xlink:title=" ">
<path fill="none" stroke="#63b8ff" d="M551.6965,-109.8452C569.0286,-102.8756 588.7971,-91.5406 599,-74 609.129,-56.5864 592.6095,-37.985 576.6193,-25.2553"/>
<polygon fill="#63b8ff" stroke="#63b8ff" points="578.5605,-22.337 568.4497,-19.1711 574.3794,-27.9511 578.5605,-22.337"/>
</a>
</g>
</g>
<!-- Node13&#45;&gt;Node7 -->
<g id="edge19_Node000013_Node000007" class="edge">
<title>Node13&#45;&gt;Node7</title>
<g id="a_edge19_Node000013_Node000007"><a xlink:title=" ">
<path fill="none" stroke="#63b8ff" d="M299.639,-54.9197C292.9081,-47.2072 283.2703,-36.1639 275.1836,-26.8978"/>
<polygon fill="#63b8ff" stroke="#63b8ff" points="277.8007,-24.5737 268.5884,-19.3408 272.5267,-29.1765 277.8007,-24.5737"/>
</a>
</g>
</g>
<!-- Node13&#45;&gt;Node10 -->
<g id="edge17_Node000013_Node000010" class="edge">
<title>Node13&#45;&gt;Node10</title>
<g id="a_edge17_Node000013_Node000010"><a xlink:title=" ">
<path fill="none" stroke="#63b8ff" d="M332.0378,-54.9197C354.2622,-46.0622 387.5093,-32.8115 412.3652,-22.9052"/>
<polygon fill="#63b8ff" stroke="#63b8ff" points="413.7811,-26.1087 421.7747,-19.155 411.1894,-19.6061 413.7811,-26.1087"/>
</a>
</g>
</g>
<!-- Node13&#45;&gt;Node11 -->
<g id="edge18_Node000013_Node000011" class="edge">
<title>Node13&#45;&gt;Node11</title>
<g id="a_edge18_Node000013_Node000011"><a xlink:title=" ">
<path fill="none" stroke="#63b8ff" d="M350.396,-54.9825C397.9433,-44.3087 474.1615,-27.1984 518.3085,-17.2879"/>
<polygon fill="#63b8ff" stroke="#63b8ff" points="519.286,-20.6556 528.2765,-15.0502 517.7526,-13.8256 519.286,-20.6556"/>
</a>
</g>
</g>
<!-- Node14&#45;&gt;Node7 -->
<g id="edge23_Node000014_Node000007" class="edge">
<title>Node14&#45;&gt;Node7</title>
<g id="a_edge23_Node000014_Node000007"><a xlink:title=" ">
<path fill="none" stroke="#63b8ff" d="M413.6013,-54.9197C382.6241,-45.7598 335.7587,-31.9018 301.9435,-21.9027"/>
<polygon fill="#63b8ff" stroke="#63b8ff" points="302.921,-18.5419 292.339,-19.0626 300.936,-25.2546 302.921,-18.5419"/>
</a>
</g>
</g>
<!-- Node14&#45;&gt;Node10 -->
<g id="edge21_Node000014_Node000010" class="edge">
<title>Node14&#45;&gt;Node10</title>
<g id="a_edge21_Node000014_Node000010"><a xlink:title=" ">
<path fill="none" stroke="#63b8ff" d="M446,-54.9197C446,-47.9083 446,-38.1442 446,-29.4652"/>
<polygon fill="#63b8ff" stroke="#63b8ff" points="449.5001,-29.3408 446,-19.3408 442.5001,-29.3409 449.5001,-29.3408"/>
</a>
</g>
</g>
<!-- Node14&#45;&gt;Node11 -->
<g id="edge22_Node000014_Node000011" class="edge">
<title>Node14&#45;&gt;Node11</title>
<g id="a_edge22_Node000014_Node000011"><a xlink:title=" ">
<path fill="none" stroke="#63b8ff" d="M464.638,-54.9197C481.3362,-46.3365 506.0598,-33.6281 525.1118,-23.8351"/>
<polygon fill="#63b8ff" stroke="#63b8ff" points="526.9228,-26.8395 534.2166,-19.155 523.7227,-20.6138 526.9228,-26.8395"/>
</a>
</g>
</g>
<!-- Node15&#45;&gt;Node2 -->
<g id="edge28_Node000015_Node000002" class="edge">
<title>Node15&#45;&gt;Node2</title>
<g id="a_edge28_Node000015_Node000002"><a xlink:title=" ">
<path fill="none" stroke="#63b8ff" d="M216.085,-109.9197C188.7112,-100.8501 147.4358,-87.1745 117.3293,-77.1995"/>
<polygon fill="#63b8ff" stroke="#63b8ff" points="118.177,-73.7933 107.5836,-73.9705 115.9754,-80.4381 118.177,-73.7933"/>
</a>
</g>
</g>
<!-- Node15&#45;&gt;Node7 -->
<g id="edge26_Node000015_Node000007" class="edge">
<title>Node15&#45;&gt;Node7</title>
<g id="a_edge26_Node000015_Node000007"><a xlink:title=" ">
<path fill="none" stroke="#63b8ff" d="M212.1844,-109.9055C181.8743,-99.2426 143.808,-80.1567 160,-55 171.3922,-37.3005 191.5453,-26.4055 210.789,-19.7376"/>
<polygon fill="#63b8ff" stroke="#63b8ff" points="211.9299,-23.0479 220.4182,-16.7075 209.8287,-16.3707 211.9299,-23.0479"/>
</a>
</g>
</g>
<!-- Node15&#45;&gt;Node9 -->
<g id="edge27_Node000015_Node000009" class="edge">
<title>Node15&#45;&gt;Node9</title>
<g id="a_edge27_Node000015_Node000009"><a xlink:title=" ">
<path fill="none" stroke="#63b8ff" d="M302.0808,-110.123C352.936,-101.6472 429.6458,-88.5657 505.6345,-74.2152"/>
<polygon fill="#63b8ff" stroke="#63b8ff" points="506.6905,-77.5774 515.863,-72.2749 505.3859,-70.7 506.6905,-77.5774"/>
</a>
</g>
</g>
<!-- Node15&#45;&gt;Node10 -->
<g id="edge25_Node000015_Node000010" class="edge">
<title>Node15&#45;&gt;Node10</title>
<g id="a_edge25_Node000015_Node000010"><a xlink:title=" ">
<path fill="none" stroke="#63b8ff" d="M238.3161,-109.5983C229.9423,-95.8389 218.1571,-70.8453 231,-55 253.1177,-27.7117 354.648,-16.1393 409.9103,-11.7925"/>
<polygon fill="#63b8ff" stroke="#63b8ff" points="410.2736,-15.2752 419.985,-11.0398 409.752,-8.2946 410.2736,-15.2752"/>
</a>
</g>
</g>
<!-- Node16&#45;&gt;Node8 -->
<g id="edge33_Node000016_Node000008" class="edge">
<title>Node16&#45;&gt;Node8</title>
<g id="a_edge33_Node000016_Node000008"><a xlink:title=" ">
<path fill="none" stroke="#63b8ff" d="M299.4449,-219.9197C304.4761,-212.4409 311.6143,-201.8301 317.7261,-192.745"/>
<polygon fill="#63b8ff" stroke="#63b8ff" points="320.702,-194.5917 323.3798,-184.3408 314.894,-190.6844 320.702,-194.5917"/>
</a>
</g>
</g>
<!-- Node17&#45;&gt;Node9 -->
<g id="edge37_Node000017_Node000009" class="edge">
<title>Node17&#45;&gt;Node9</title>
<g id="a_edge37_Node000017_Node000009"><a xlink:title=" ">
<path fill="none" stroke="#63b8ff" d="M652.0976,-109.9197C633.1141,-101.219 604.8819,-88.2792 583.402,-78.4343"/>
<polygon fill="#63b8ff" stroke="#63b8ff" points="584.6145,-75.1399 574.0655,-74.155 581.6979,-81.5034 584.6145,-75.1399"/>
</a>
</g>
</g>
<!-- Node17&#45;&gt;Node10 -->
<g id="edge35_Node000017_Node000010" class="edge">
<title>Node17&#45;&gt;Node10</title>
<g id="a_edge35_Node000017_Node000010"><a xlink:title=" ">
<path fill="none" stroke="#63b8ff" d="M664.4129,-109.731C651.5427,-95.6678 625.877,-69.7873 599,-55 561.7549,-34.5083 514.2097,-22.2374 482.0814,-15.6928"/>
<polygon fill="#63b8ff" stroke="#63b8ff" points="482.7102,-12.2496 472.2245,-13.7661 481.3673,-19.1196 482.7102,-12.2496"/>
</a>
</g>
</g>
<!-- Node17&#45;&gt;Node11 -->
<g id="edge36_Node000017_Node000011" class="edge">
<title>Node17&#45;&gt;Node11</title>
<g id="a_edge36_Node000017_Node000011"><a xlink:title=" ">
<path fill="none" stroke="#63b8ff" d="M665.1188,-109.79C654.2663,-96.6857 633.8073,-72.919 614,-55 602.1328,-44.2641 587.8395,-33.5016 576.0727,-25.141"/>
<polygon fill="#63b8ff" stroke="#63b8ff" points="577.8511,-22.1139 567.649,-19.2561 573.8422,-27.8523 577.8511,-22.1139"/>
</a>
</g>
</g>
<!-- Node18&#45;&gt;Node9 -->
<g id="edge40_Node000018_Node000009" class="edge">
<title>Node18&#45;&gt;Node9</title>
<g id="a_edge40_Node000018_Node000009"><a xlink:title=" ">
<path fill="none" stroke="#63b8ff" d="M536.4422,-164.9502C550.114,-157.3356 567.0102,-145.2514 575,-129 582.3088,-114.1337 575.0417,-96.2348 566.9564,-83.0676"/>
<polygon fill="#63b8ff" stroke="#63b8ff" points="569.6185,-80.7556 561.1213,-74.4272 563.8174,-84.6732 569.6185,-80.7556"/>
</a>
</g>
</g>
</g>
</svg>

<g id="navigator" transform="translate(0 0)" fill="#404254">
  <rect fill="#f2f5e9" fill-opacity="0.5" stroke="#606060" stroke-width=".5" x="0" y="0" width="60" height="60"/>
  <use id="zoomplus" xlink:href="#zoomPlus" x="17" y="9" onmousedown="handleZoom(evt,'in')"/>
  <use id="zoomminus" xlink:href="#zoomMin" x="42" y="9" onmousedown="handleZoom(evt,'out')"/>
  <use id="reset" xlink:href="#resetDef" x="30" y="36" onmousedown="handleReset()"/>
   <use id="arrowup" xlink:href="#arrowUp" x="0" y="0" onmousedown="handlePan(0,-1)"/>
  <use id="arrowright" xlink:href="#arrowRight" x="0" y="0" onmousedown="handlePan(1,0)"/>
  <use id="arrowdown" xlink:href="#arrowDown" x="0" y="0" onmousedown="handlePan(0,1)"/>
  <use id="arrowleft" xlink:href="#arrowLeft" x="0" y="0" onmousedown="handlePan(-1,0)"/>
</g>
<svg viewBox="0 0 15 15" width="100%" height="30px" preserveAspectRatio="xMaxYMin meet">
 <g id="arrow_out" transform="scale(0.3 0.3)">
  <a xlink:href="potrSendThread_8c__incl_org.svg" target="_base">
   <rect id="button" ry="5" rx="5" y="6" x="6" height="38" width="38"
        fill="#f2f5e9" fill-opacity="0.5" stroke="#606060" stroke-width="1.0"/>
   <path id="arrow"
     d="M 11.500037,31.436501 C 11.940474,20.09759 22.043105,11.32322 32.158766,21.979434 L 37.068811,17.246167 C 37.068811,17.246167 37.088388,32 37.088388,32 L 22.160133,31.978069 C 22.160133,31.978069 26.997745,27.140456 26.997745,27.140456 C 18.528582,18.264221 13.291696,25.230495 11.500037,31.436501 z"
     style="fill:#404040;"/>
  </a>
 </g>
</svg>

<style type='text/css'>
<![CDATA[
[data-mouse-over-selected='false'] { opacity: 0.7; }
[data-mouse-over-selected='true']  { opacity: 1.0; }
]]>
</style>
<script type="application/ecmascript"><![CDATA[
document.addEventListener('DOMContentLoaded', (event) => {
  highlightEdges();
  highlightAdjacentNodes();
});
]]></script>
</svg>
