<?xml version="1.0" encoding="UTF-8" standalone="no"?>
<!DOCTYPE svg PUBLIC "-//W3C//DTD SVG 1.1//EN"
 "http://www.w3.org/Graphics/SVG/1.1/DTD/svg11.dtd">
<!-- Generated by graphviz version 2.40.1 (0)
 -->
<!-- Title: porter/libsrc/porter/api/potrOpenService.c Pages: 1 -->
<svg width="1482pt" height="313pt"
 viewBox="0.00 0.00 1482.00 313.00" xmlns="http://www.w3.org/2000/svg" xmlns:xlink="http://www.w3.org/1999/xlink">
<g id="graph0" class="graph" transform="scale(1 1) rotate(0) translate(4 309)">
<title>porter/libsrc/porter/api/potrOpenService.c</title>
<!-- Node1 -->
<g id="Node000001" class="node">
<title>Node1</title>
<g id="a_Node000001"><a xlink:title="potrOpenService 関数の実装。">
<polygon fill="#999999" stroke="#666666" points="729,-305 613,-305 613,-275 729,-275 729,-305"/>
<text text-anchor="start" x="621" y="-293" font-family="Helvetica,sans-Serif" font-size="10.00" fill="#000000">porter/libsrc/porter</text>
<text text-anchor="middle" x="671" y="-282" font-family="Helvetica,sans-Serif" font-size="10.00" fill="#000000">/api/potrOpenService.c</text>
</a>
</g>
</g>
<!-- Node2 -->
<g id="Node000002" class="node">
<title>Node2</title>
<g id="a_Node000002"><a xlink:title=" ">
<polygon fill="#e0e0e0" stroke="#999999" points="48,-239 0,-239 0,-220 48,-220 48,-239"/>
<text text-anchor="middle" x="24" y="-227" font-family="Helvetica,sans-Serif" font-size="10.00" fill="#000000">stdlib.h</text>
</a>
</g>
</g>
<!-- Node1&#45;&gt;Node2 -->
<g id="edge1_Node000001_Node000002" class="edge">
<title>Node1&#45;&gt;Node2</title>
<g id="a_edge1_Node000001_Node000002"><a xlink:title=" ">
<path fill="none" stroke="#63b8ff" d="M612.9365,-288.9852C505.0844,-286.2745 266.5988,-276.4031 57.933,-238.8194"/>
<polygon fill="#63b8ff" stroke="#63b8ff" points="58.4859,-235.3625 48.0198,-237.0086 57.2281,-242.2486 58.4859,-235.3625"/>
</a>
</g>
</g>
<!-- Node3 -->
<g id="Node000003" class="node">
<title>Node3</title>
<g id="a_Node000003"><a xlink:title=" ">
<polygon fill="#e0e0e0" stroke="#999999" points="115.5,-239 66.5,-239 66.5,-220 115.5,-220 115.5,-239"/>
<text text-anchor="middle" x="91" y="-227" font-family="Helvetica,sans-Serif" font-size="10.00" fill="#000000">string.h</text>
</a>
</g>
</g>
<!-- Node1&#45;&gt;Node3 -->
<g id="edge2_Node000001_Node000003" class="edge">
<title>Node1&#45;&gt;Node3</title>
<g id="a_edge2_Node000001_Node000003"><a xlink:title=" ">
<path fill="none" stroke="#63b8ff" d="M612.6139,-288.1431C513.8566,-284.2204 307.5875,-272.655 125.757,-239.0406"/>
<polygon fill="#63b8ff" stroke="#63b8ff" points="126.2202,-235.5665 115.7463,-237.1628 124.9295,-242.4465 126.2202,-235.5665"/>
</a>
</g>
</g>
<!-- Node4 -->
<g id="Node000004" class="node">
<title>Node4</title>
<g id="a_Node000004"><a xlink:title=" ">
<polygon fill="#e0e0e0" stroke="#999999" points="206.5,-239 133.5,-239 133.5,-220 206.5,-220 206.5,-239"/>
<text text-anchor="middle" x="170" y="-227" font-family="Helvetica,sans-Serif" font-size="10.00" fill="#000000">sys/socket.h</text>
</a>
</g>
</g>
<!-- Node1&#45;&gt;Node4 -->
<g id="edge3_Node000001_Node000004" class="edge">
<title>Node1&#45;&gt;Node4</title>
<g id="a_edge3_Node000001_Node000004"><a xlink:title=" ">
<path fill="none" stroke="#63b8ff" d="M612.9324,-284.7545C527.0389,-276.6934 361.1619,-259.9695 221,-239 219.5526,-238.7834 218.0834,-238.5561 216.6011,-238.3202"/>
<polygon fill="#63b8ff" stroke="#63b8ff" points="217.1595,-234.8651 206.7184,-236.6632 216.0019,-241.7687 217.1595,-234.8651"/>
</a>
</g>
</g>
<!-- Node5 -->
<g id="Node000005" class="node">
<title>Node5</title>
<g id="a_Node000005"><a xlink:title=" ">
<polygon fill="#e0e0e0" stroke="#999999" points="418.5,-129 353.5,-129 353.5,-110 418.5,-110 418.5,-129"/>
<text text-anchor="middle" x="386" y="-117" font-family="Helvetica,sans-Serif" font-size="10.00" fill="#000000">netinet/in.h</text>
</a>
</g>
</g>
<!-- Node1&#45;&gt;Node5 -->
<g id="edge4_Node000001_Node000005" class="edge">
<title>Node1&#45;&gt;Node5</title>
<g id="a_edge4_Node000001_Node000005"><a xlink:title=" ">
<path fill="none" stroke="#63b8ff" d="M612.9035,-285.4078C520.4094,-277.5015 348.1927,-260.116 330,-239 302.8944,-207.539 342.2421,-160.7249 367.5316,-136.0685"/>
<polygon fill="#63b8ff" stroke="#63b8ff" points="369.9707,-138.5793 374.8396,-129.1695 365.1654,-133.4891 369.9707,-138.5793"/>
</a>
</g>
</g>
<!-- Node6 -->
<g id="Node000006" class="node">
<title>Node6</title>
<g id="a_Node000006"><a xlink:title=" ">
<polygon fill="#e0e0e0" stroke="#999999" points="484,-184 422,-184 422,-165 484,-165 484,-184"/>
<text text-anchor="middle" x="453" y="-172" font-family="Helvetica,sans-Serif" font-size="10.00" fill="#000000">arpa/inet.h</text>
</a>
</g>
</g>
<!-- Node1&#45;&gt;Node6 -->
<g id="edge5_Node000001_Node000006" class="edge">
<title>Node1&#45;&gt;Node6</title>
<g id="a_edge5_Node000001_Node000006"><a xlink:title=" ">
<path fill="none" stroke="#63b8ff" d="M612.8228,-280.3693C579.7638,-272.909 538.7638,-260.159 507,-239 489.0532,-227.045 473.8446,-207.4231 464.186,-192.9558"/>
<polygon fill="#63b8ff" stroke="#63b8ff" points="467.0033,-190.8648 458.6674,-184.3254 461.1059,-194.6358 467.0033,-190.8648"/>
</a>
</g>
</g>
<!-- Node7 -->
<g id="Node000007" class="node">
<title>Node7</title>
<g id="a_Node000007"><a xlink:title=" ">
<polygon fill="#e0e0e0" stroke="#999999" points="1411.5,-239 1360.5,-239 1360.5,-220 1411.5,-220 1411.5,-239"/>
<text text-anchor="middle" x="1386" y="-227" font-family="Helvetica,sans-Serif" font-size="10.00" fill="#000000">unistd.h</text>
</a>
</g>
</g>
<!-- Node1&#45;&gt;Node7 -->
<g id="edge6_Node000001_Node000007" class="edge">
<title>Node1&#45;&gt;Node7</title>
<g id="a_edge6_Node000001_Node000007"><a xlink:title=" ">
<path fill="none" stroke="#63b8ff" d="M729.1399,-288.692C846.4396,-285.3752 1119.5556,-274.2194 1346,-239 1347.4546,-238.7738 1348.9345,-238.5223 1350.4262,-238.2512"/>
<polygon fill="#63b8ff" stroke="#63b8ff" points="1351.2002,-241.6654 1360.2975,-236.2349 1349.7993,-234.807 1351.2002,-241.6654"/>
</a>
</g>
</g>
<!-- Node8 -->
<g id="Node000008" class="node">
<title>Node8</title>
<g id="a_Node000008"><a xlink:title=" ">
<polygon fill="#e0e0e0" stroke="#999999" points="1474,-239 1430,-239 1430,-220 1474,-220 1474,-239"/>
<text text-anchor="middle" x="1452" y="-227" font-family="Helvetica,sans-Serif" font-size="10.00" fill="#000000">time.h</text>
</a>
</g>
</g>
<!-- Node1&#45;&gt;Node8 -->
<g id="edge7_Node000001_Node000008" class="edge">
<title>Node1&#45;&gt;Node8</title>
<g id="a_edge7_Node000001_Node000008"><a xlink:title=" ">
<path fill="none" stroke="#63b8ff" d="M729.1396,-287.7731C877.8449,-281.8074 1270.249,-264.2985 1419.8773,-238.7448"/>
<polygon fill="#63b8ff" stroke="#63b8ff" points="1420.573,-242.176 1429.801,-236.9706 1419.3411,-235.2852 1420.573,-242.176"/>
</a>
</g>
</g>
<!-- Node9 -->
<g id="Node000009" class="node">
<title>Node9</title>
<g id="a_Node000009"><a xlink:href="porter__const_8h.html" target="_top" xlink:title="通信ライブラリの定数ファイル。">
<polygon fill="#ffffff" stroke="#666666" points="852.5,-19 773.5,-19 773.5,0 852.5,0 852.5,-19"/>
<text text-anchor="middle" x="813" y="-7" font-family="Helvetica,sans-Serif" font-size="10.00" fill="#000000">porter_const.h</text>
</a>
</g>
</g>
<!-- Node1&#45;&gt;Node9 -->
<g id="edge8_Node000001_Node000009" class="edge">
<title>Node1&#45;&gt;Node9</title>
<g id="a_edge8_Node000001_Node000009"><a xlink:title=" ">
<path fill="none" stroke="#63b8ff" d="M612.9208,-286.3576C523.1891,-280.0008 355.5989,-265.0147 302,-239 264.8146,-220.9518 235,-215.8339 235,-174.5 235,-174.5 235,-174.5 235,-119.5 235,-65.9358 623.0216,-26.3012 763.2217,-13.7287"/>
<polygon fill="#63b8ff" stroke="#63b8ff" points="763.6207,-17.2071 773.2717,-12.8358 763.0012,-10.2346 763.6207,-17.2071"/>
</a>
</g>
</g>
<!-- Node10 -->
<g id="Node000010" class="node">
<title>Node10</title>
<g id="a_Node000010"><a xlink:href="porter_8h.html" target="_top" xlink:title="通信ライブラリ (動的リンク用) のヘッダーファイル。">
<polygon fill="#ffffff" stroke="#666666" points="1081.5,-184 1032.5,-184 1032.5,-165 1081.5,-165 1081.5,-184"/>
<text text-anchor="middle" x="1057" y="-172" font-family="Helvetica,sans-Serif" font-size="10.00" fill="#000000">porter.h</text>
</a>
</g>
</g>
<!-- Node1&#45;&gt;Node10 -->
<g id="edge9_Node000001_Node000010" class="edge">
<title>Node1&#45;&gt;Node10</title>
<g id="a_edge9_Node000001_Node000010"><a xlink:title=" ">
<path fill="none" stroke="#63b8ff" d="M729.0078,-286.0371C829.3749,-278.6225 1026.8779,-261.3603 1049,-239 1060.2715,-227.6071 1061.4985,-209.002 1060.357,-194.6944"/>
<polygon fill="#63b8ff" stroke="#63b8ff" points="1063.7801,-193.8566 1059.0803,-184.3612 1056.833,-194.7149 1063.7801,-193.8566"/>
</a>
</g>
</g>
<!-- Node14 -->
<g id="Node000014" class="node">
<title>Node14</title>
<g id="a_Node000014"><a xlink:href="config_8h.html" target="_top" xlink:title="設定ファイル解析モジュールの内部ヘッダー。">
<polygon fill="#ffffff" stroke="#666666" points="1198,-184 1100,-184 1100,-165 1198,-165 1198,-184"/>
<text text-anchor="middle" x="1149" y="-172" font-family="Helvetica,sans-Serif" font-size="10.00" fill="#000000">../protocol/config.h</text>
</a>
</g>
</g>
<!-- Node1&#45;&gt;Node14 -->
<g id="edge14_Node000001_Node000014" class="edge">
<title>Node1&#45;&gt;Node14</title>
<g id="a_edge14_Node000001_Node000014"><a xlink:title=" ">
<path fill="none" stroke="#63b8ff" d="M729.1522,-286.3211C823.9751,-279.6893 1007.3159,-264.044 1067,-239 1092.885,-228.1384 1117.4825,-206.7878 1132.8642,-191.6293"/>
<polygon fill="#63b8ff" stroke="#63b8ff" points="1135.5041,-193.9368 1140.0257,-184.3553 1130.5159,-189.0257 1135.5041,-193.9368"/>
</a>
</g>
</g>
<!-- Node15 -->
<g id="Node000015" class="node">
<title>Node15</title>
<g id="a_Node000015"><a xlink:href="packet_8h.html" target="_top" xlink:title="パケット構築・解析モジュールの内部ヘッダー。">
<polygon fill="#ffffff" stroke="#666666" points="1300.5,-129 1199.5,-129 1199.5,-110 1300.5,-110 1300.5,-129"/>
<text text-anchor="middle" x="1250" y="-117" font-family="Helvetica,sans-Serif" font-size="10.00" fill="#000000">../protocol/packet.h</text>
</a>
</g>
</g>
<!-- Node1&#45;&gt;Node15 -->
<g id="edge16_Node000001_Node000015" class="edge">
<title>Node1&#45;&gt;Node15</title>
<g id="a_edge16_Node000001_Node000015"><a xlink:title=" ">
<path fill="none" stroke="#63b8ff" d="M729.3488,-287.398C818.633,-282.5786 994.1504,-269.7919 1140,-239 1218.941,-222.3339 1265.37,-249.1216 1313,-184 1326.8071,-165.1224 1303.0365,-146.3089 1280.8493,-133.9153"/>
<polygon fill="#63b8ff" stroke="#63b8ff" points="1282.3484,-130.7489 1271.8711,-129.1748 1279.08,-136.939 1282.3484,-130.7489"/>
</a>
</g>
</g>
<!-- Node16 -->
<g id="Node000016" class="node">
<title>Node16</title>
<g id="a_Node000016"><a xlink:href="window_8h.html" target="_top" xlink:title="スライディングウィンドウ管理モジュールの内部ヘッダー。">
<polygon fill="#ffffff" stroke="#666666" points="1029,-129 927,-129 927,-110 1029,-110 1029,-129"/>
<text text-anchor="middle" x="978" y="-117" font-family="Helvetica,sans-Serif" font-size="10.00" fill="#000000">../protocol/window.h</text>
</a>
</g>
</g>
<!-- Node1&#45;&gt;Node16 -->
<g id="edge20_Node000001_Node000016" class="edge">
<title>Node1&#45;&gt;Node16</title>
<g id="a_edge20_Node000001_Node000016"><a xlink:title=" ">
<path fill="none" stroke="#63b8ff" d="M729.2489,-284.9385C818.0626,-276.6252 978.8999,-258.9927 996,-239 1020.1985,-210.7081 1002.2027,-164.2231 988.88,-138.3588"/>
<polygon fill="#63b8ff" stroke="#63b8ff" points="991.7772,-136.3595 983.9312,-129.2398 985.6248,-139.6984 991.7772,-136.3595"/>
</a>
</g>
</g>
<!-- Node17 -->
<g id="Node000017" class="node">
<title>Node17</title>
<g id="a_Node000017"><a xlink:href="potrContext_8h.html" target="_top" xlink:title="セッションコンテキスト内部定義ヘッダー。">
<polygon fill="#ffffff" stroke="#666666" points="790,-184 706,-184 706,-165 790,-165 790,-184"/>
<text text-anchor="middle" x="748" y="-172" font-family="Helvetica,sans-Serif" font-size="10.00" fill="#000000">../potrContext.h</text>
</a>
</g>
</g>
<!-- Node1&#45;&gt;Node17 -->
<g id="edge24_Node000001_Node000017" class="edge">
<title>Node1&#45;&gt;Node17</title>
<g id="a_edge24_Node000001_Node000017"><a xlink:title=" ">
<path fill="none" stroke="#63b8ff" d="M612.9952,-283.4111C558.3644,-274.8606 489.0459,-256.4912 519,-220 540.8803,-193.3446 634.844,-182.022 695.4009,-177.4257"/>
<polygon fill="#63b8ff" stroke="#63b8ff" points="695.8324,-180.9038 705.5549,-176.6938 695.3292,-173.9219 695.8324,-180.9038"/>
</a>
</g>
</g>
<!-- Node18 -->
<g id="Node000018" class="node">
<title>Node18</title>
<g id="a_Node000018"><a xlink:href="compress_8h.html" target="_top" xlink:title="データ圧縮・解凍モジュールの内部ヘッダー。">
<polygon fill="#ffffff" stroke="#666666" points="690.5,-74 555.5,-74 555.5,-55 690.5,-55 690.5,-74"/>
<text text-anchor="middle" x="623" y="-62" font-family="Helvetica,sans-Serif" font-size="10.00" fill="#000000">infra/compress/compress.h</text>
</a>
</g>
</g>
<!-- Node1&#45;&gt;Node18 -->
<g id="edge46_Node000001_Node000018" class="edge">
<title>Node1&#45;&gt;Node18</title>
<g id="a_edge46_Node000001_Node000018"><a xlink:title=" ">
<path fill="none" stroke="#63b8ff" d="M612.7844,-285.7127C517.532,-278.1012 337.0002,-260.9425 318,-239 279.7148,-194.786 299.8888,-148.4037 344,-110 373.2822,-84.5065 472.9404,-73.1452 544.7989,-68.1854"/>
<polygon fill="#63b8ff" stroke="#63b8ff" points="545.44,-71.6508 555.1876,-67.4992 544.9786,-64.666 545.44,-71.6508"/>
</a>
</g>
</g>
<!-- Node20 -->
<g id="Node000020" class="node">
<title>Node20</title>
<g id="a_Node000020"><a xlink:href="potrSendQueue_8h.html" target="_top" xlink:title="非同期送信キューの型定義と操作関数。">
<polygon fill="#ffffff" stroke="#666666" points="909,-129 795,-129 795,-110 909,-110 909,-129"/>
<text text-anchor="middle" x="852" y="-117" font-family="Helvetica,sans-Serif" font-size="10.00" fill="#000000">infra/potrSendQueue.h</text>
</a>
</g>
</g>
<!-- Node1&#45;&gt;Node20 -->
<g id="edge47_Node000001_Node000020" class="edge">
<title>Node1&#45;&gt;Node20</title>
<g id="a_edge47_Node000001_Node000020"><a xlink:title=" ">
<path fill="none" stroke="#63b8ff" d="M729.1416,-284.3803C813.6431,-275.6188 962.1051,-257.7533 978,-239 1013.5449,-197.0632 934.5287,-154.2404 886.1171,-133.0701"/>
<polygon fill="#63b8ff" stroke="#63b8ff" points="887.4573,-129.8367 876.8859,-129.1314 884.7101,-136.2751 887.4573,-129.8367"/>
</a>
</g>
</g>
<!-- Node22 -->
<g id="Node000022" class="node">
<title>Node22</title>
<g id="a_Node000022"><a xlink:href="potrRecvThread_8h.html" target="_top" xlink:title="受信スレッド内部ヘッダー。">
<polygon fill="#ffffff" stroke="#666666" points="660.5,-239 527.5,-239 527.5,-220 660.5,-220 660.5,-239"/>
<text text-anchor="middle" x="594" y="-227" font-family="Helvetica,sans-Serif" font-size="10.00" fill="#000000">../thread/potrRecvThread.h</text>
</a>
</g>
</g>
<!-- Node1&#45;&gt;Node22 -->
<g id="edge42_Node000001_Node000022" class="edge">
<title>Node1&#45;&gt;Node22</title>
<g id="a_edge42_Node000001_Node000022"><a xlink:title=" ">
<path fill="none" stroke="#63b8ff" d="M651.5696,-274.7333C640.2089,-265.807 625.8843,-254.552 614.3662,-245.502"/>
<polygon fill="#63b8ff" stroke="#63b8ff" points="616.2265,-242.5125 606.2009,-239.0864 611.9017,-248.0168 616.2265,-242.5125"/>
</a>
</g>
</g>
<!-- Node23 -->
<g id="Node000023" class="node">
<title>Node23</title>
<g id="a_Node000023"><a xlink:href="potrHealthThread_8h.html" target="_top" xlink:title="ヘルスチェックスレッド内部ヘッダー。">
<polygon fill="#ffffff" stroke="#666666" points="817,-239 679,-239 679,-220 817,-220 817,-239"/>
<text text-anchor="middle" x="748" y="-227" font-family="Helvetica,sans-Serif" font-size="10.00" fill="#000000">../thread/potrHealthThread.h</text>
</a>
</g>
</g>
<!-- Node1&#45;&gt;Node23 -->
<g id="edge44_Node000001_Node000023" class="edge">
<title>Node1&#45;&gt;Node23</title>
<g id="a_edge44_Node000001_Node000023"><a xlink:title=" ">
<path fill="none" stroke="#63b8ff" d="M690.4304,-274.7333C701.7911,-265.807 716.1157,-254.552 727.6338,-245.502"/>
<polygon fill="#63b8ff" stroke="#63b8ff" points="730.0983,-248.0168 735.7991,-239.0864 725.7735,-242.5125 730.0983,-248.0168"/>
</a>
</g>
</g>
<!-- Node24 -->
<g id="Node000024" class="node">
<title>Node24</title>
<g id="a_Node000024"><a xlink:href="potrSendThread_8h.html" target="_top" xlink:title="非同期送信スレッドの内部ヘッダー。">
<polygon fill="#ffffff" stroke="#666666" points="968.5,-239 835.5,-239 835.5,-220 968.5,-220 968.5,-239"/>
<text text-anchor="middle" x="902" y="-227" font-family="Helvetica,sans-Serif" font-size="10.00" fill="#000000">../thread/potrSendThread.h</text>
</a>
</g>
</g>
<!-- Node1&#45;&gt;Node24 -->
<g id="edge48_Node000001_Node000024" class="edge">
<title>Node1&#45;&gt;Node24</title>
<g id="a_edge48_Node000001_Node000024"><a xlink:title=" ">
<path fill="none" stroke="#63b8ff" d="M728.3979,-274.9672C767.604,-264.699 818.8875,-251.2676 855.53,-241.6707"/>
<polygon fill="#63b8ff" stroke="#63b8ff" points="856.6677,-244.9909 865.4546,-239.0714 854.8941,-238.2193 856.6677,-244.9909"/>
</a>
</g>
</g>
<!-- Node25 -->
<g id="Node000025" class="node">
<title>Node25</title>
<g id="a_Node000025"><a xlink:href="potrIpAddr_8h.html" target="_top" xlink:title="IPv4 アドレス変換ユーティリティ (内部用)。">
<polygon fill="#ffffff" stroke="#666666" points="433,-239 339,-239 339,-220 433,-220 433,-239"/>
<text text-anchor="middle" x="386" y="-227" font-family="Helvetica,sans-Serif" font-size="10.00" fill="#000000">../util/potrIpAddr.h</text>
</a>
</g>
</g>
<!-- Node1&#45;&gt;Node25 -->
<g id="edge50_Node000001_Node000025" class="edge">
<title>Node1&#45;&gt;Node25</title>
<g id="a_edge50_Node000001_Node000025"><a xlink:title=" ">
<path fill="none" stroke="#63b8ff" d="M612.9825,-277.684C562.5833,-266.9852 490.1177,-251.6022 440.7142,-241.1148"/>
<polygon fill="#63b8ff" stroke="#63b8ff" points="441.3554,-237.673 430.8466,-239.0201 439.9018,-244.5204 441.3554,-237.673"/>
</a>
</g>
</g>
<!-- Node26 -->
<g id="Node000026" class="node">
<title>Node26</title>
<g id="a_Node000026"><a xlink:href="potrLog_8h.html" target="_top" xlink:title="porter 内部ログマクロ定義ヘッダー。">
<polygon fill="#ffffff" stroke="#666666" points="1304,-184 1216,-184 1216,-165 1304,-165 1304,-184"/>
<text text-anchor="middle" x="1260" y="-172" font-family="Helvetica,sans-Serif" font-size="10.00" fill="#000000">../infra/potrLog.h</text>
</a>
</g>
</g>
<!-- Node1&#45;&gt;Node26 -->
<g id="edge53_Node000001_Node000026" class="edge">
<title>Node1&#45;&gt;Node26</title>
<g id="a_edge53_Node000001_Node000026"><a xlink:title=" ">
<path fill="none" stroke="#63b8ff" d="M729.0496,-287.7802C811.8479,-283.5537 968.1087,-271.6335 1097,-239 1145.661,-226.6797 1199.2809,-203.4607 1231.2704,-188.501"/>
<polygon fill="#63b8ff" stroke="#63b8ff" points="1232.933,-191.5864 1240.4743,-184.1447 1229.9382,-185.2593 1232.933,-191.5864"/>
</a>
</g>
</g>
<!-- Node11 -->
<g id="Node000011" class="node">
<title>Node11</title>
<g id="a_Node000011"><a xlink:href="porter__type_8h.html" target="_top" xlink:title="通信ライブラリの型定義ファイル。">
<polygon fill="#ffffff" stroke="#666666" points="1132,-74 1058,-74 1058,-55 1132,-55 1132,-74"/>
<text text-anchor="middle" x="1095" y="-62" font-family="Helvetica,sans-Serif" font-size="10.00" fill="#000000">porter_type.h</text>
</a>
</g>
</g>
<!-- Node10&#45;&gt;Node11 -->
<g id="edge10_Node000010_Node000011" class="edge">
<title>Node10&#45;&gt;Node11</title>
<g id="a_edge10_Node000010_Node000011"><a xlink:title=" ">
<path fill="none" stroke="#63b8ff" d="M1060.3722,-164.7382C1066.6414,-146.5906 1080.1938,-107.36 1088.3613,-83.7172"/>
<polygon fill="#63b8ff" stroke="#63b8ff" points="1091.7325,-84.6776 1091.6896,-74.0828 1085.1161,-82.3919 1091.7325,-84.6776"/>
</a>
</g>
</g>
<!-- Node11&#45;&gt;Node9 -->
<g id="edge13_Node000011_Node000009" class="edge">
<title>Node11&#45;&gt;Node9</title>
<g id="a_edge13_Node000011_Node000009"><a xlink:title=" ">
<path fill="none" stroke="#63b8ff" d="M1057.8434,-57.2532C1007.7195,-47.4772 918.3084,-30.0389 862.5189,-19.1579"/>
<polygon fill="#63b8ff" stroke="#63b8ff" points="862.9952,-15.685 852.5101,-17.2059 861.6552,-22.5555 862.9952,-15.685"/>
</a>
</g>
</g>
<!-- Node12 -->
<g id="Node000012" class="node">
<title>Node12</title>
<g id="a_Node000012"><a xlink:title=" ">
<polygon fill="#e0e0e0" stroke="#999999" points="1002,-19 950,-19 950,0 1002,0 1002,-19"/>
<text text-anchor="middle" x="976" y="-7" font-family="Helvetica,sans-Serif" font-size="10.00" fill="#000000">stddef.h</text>
</a>
</g>
</g>
<!-- Node11&#45;&gt;Node12 -->
<g id="edge11_Node000011_Node000012" class="edge">
<title>Node11&#45;&gt;Node12</title>
<g id="a_edge11_Node000011_Node000012"><a xlink:title=" ">
<path fill="none" stroke="#63b8ff" d="M1074.2718,-54.9197C1055.4465,-46.219 1027.4495,-33.2792 1006.1487,-23.4343"/>
<polygon fill="#63b8ff" stroke="#63b8ff" points="1007.4357,-20.1734 996.89,-19.155 1004.4989,-26.5276 1007.4357,-20.1734"/>
</a>
</g>
</g>
<!-- Node13 -->
<g id="Node000013" class="node">
<title>Node13</title>
<g id="a_Node000013"><a xlink:title=" ">
<polygon fill="#e0e0e0" stroke="#999999" points="1069.5,-19 1020.5,-19 1020.5,0 1069.5,0 1069.5,-19"/>
<text text-anchor="middle" x="1045" y="-7" font-family="Helvetica,sans-Serif" font-size="10.00" fill="#000000">stdint.h</text>
</a>
</g>
</g>
<!-- Node11&#45;&gt;Node13 -->
<g id="edge12_Node000011_Node000013" class="edge">
<title>Node11&#45;&gt;Node13</title>
<g id="a_edge12_Node000011_Node000013"><a xlink:title=" ">
<path fill="none" stroke="#63b8ff" d="M1086.2907,-54.9197C1079.2793,-47.2072 1069.2399,-36.1639 1060.8162,-26.8978"/>
<polygon fill="#63b8ff" stroke="#63b8ff" points="1063.2628,-24.3859 1053.9462,-19.3408 1058.0832,-29.0946 1063.2628,-24.3859"/>
</a>
</g>
</g>
<!-- Node14&#45;&gt;Node11 -->
<g id="edge15_Node000014_Node000011" class="edge">
<title>Node14&#45;&gt;Node11</title>
<g id="a_edge15_Node000014_Node000011"><a xlink:title=" ">
<path fill="none" stroke="#63b8ff" d="M1144.2079,-164.7382C1135.2188,-146.4271 1115.6925,-106.6514 1104.1221,-83.082"/>
<polygon fill="#63b8ff" stroke="#63b8ff" points="1107.2529,-81.5171 1099.7043,-74.0828 1100.9692,-84.6019 1107.2529,-81.5171"/>
</a>
</g>
</g>
<!-- Node15&#45;&gt;Node11 -->
<g id="edge19_Node000015_Node000011" class="edge">
<title>Node15&#45;&gt;Node11</title>
<g id="a_edge19_Node000015_Node000011"><a xlink:title=" ">
<path fill="none" stroke="#63b8ff" d="M1223.0011,-109.9197C1197.6299,-100.9171 1159.4693,-87.3762 1131.4137,-77.421"/>
<polygon fill="#63b8ff" stroke="#63b8ff" points="1132.5439,-74.1083 1121.9491,-74.0626 1130.203,-80.7053 1132.5439,-74.1083"/>
</a>
</g>
</g>
<!-- Node15&#45;&gt;Node12 -->
<g id="edge17_Node000015_Node000012" class="edge">
<title>Node15&#45;&gt;Node12</title>
<g id="a_edge17_Node000015_Node000012"><a xlink:title=" ">
<path fill="none" stroke="#63b8ff" d="M1236.5158,-109.9128C1216.5175,-96.076 1177.4288,-70.4748 1141,-55 1134.9644,-52.4361 1058.7807,-31.769 1012.0721,-19.1872"/>
<polygon fill="#63b8ff" stroke="#63b8ff" points="1012.8719,-15.778 1002.3058,-16.5586 1011.0525,-22.5374 1012.8719,-15.778"/>
</a>
</g>
</g>
<!-- Node15&#45;&gt;Node13 -->
<g id="edge18_Node000015_Node000013" class="edge">
<title>Node15&#45;&gt;Node13</title>
<g id="a_edge18_Node000015_Node000013"><a xlink:title=" ">
<path fill="none" stroke="#63b8ff" d="M1244.9676,-109.62C1237.2302,-95.4185 1221.0711,-69.3675 1200,-55 1163.4102,-30.051 1112.9847,-18.5687 1079.7142,-13.4324"/>
<polygon fill="#63b8ff" stroke="#63b8ff" points="1079.9491,-9.9305 1069.5542,-11.9788 1078.9576,-16.8599 1079.9491,-9.9305"/>
</a>
</g>
</g>
<!-- Node16&#45;&gt;Node9 -->
<g id="edge22_Node000016_Node000009" class="edge">
<title>Node16&#45;&gt;Node9</title>
<g id="a_edge22_Node000016_Node000009"><a xlink:title=" ">
<path fill="none" stroke="#63b8ff" d="M927.5124,-109.9572C902.4012,-103.2183 872.8348,-92.0654 851,-74 836.4957,-61.9996 826.2396,-42.9307 820.0677,-28.6336"/>
<polygon fill="#63b8ff" stroke="#63b8ff" points="823.268,-27.2107 816.293,-19.2357 816.7724,-29.8197 823.268,-27.2107"/>
</a>
</g>
</g>
<!-- Node16&#45;&gt;Node11 -->
<g id="edge23_Node000016_Node000011" class="edge">
<title>Node16&#45;&gt;Node11</title>
<g id="a_edge23_Node000016_Node000011"><a xlink:title=" ">
<path fill="none" stroke="#63b8ff" d="M998.3798,-109.9197C1016.8888,-101.219 1044.4152,-88.2792 1065.358,-78.4343"/>
<polygon fill="#63b8ff" stroke="#63b8ff" points="1066.9002,-81.5768 1074.4611,-74.155 1063.9222,-75.2418 1066.9002,-81.5768"/>
</a>
</g>
</g>
<!-- Node16&#45;&gt;Node13 -->
<g id="edge21_Node000016_Node000013" class="edge">
<title>Node16&#45;&gt;Node13</title>
<g id="a_edge21_Node000016_Node000013"><a xlink:title=" ">
<path fill="none" stroke="#63b8ff" d="M984.0302,-109.7503C989.7158,-100.5463 998.4649,-86.3525 1006,-74 1015.4488,-58.5102 1026.1032,-40.8781 1033.8853,-27.9685"/>
<polygon fill="#63b8ff" stroke="#63b8ff" points="1037.0471,-29.5025 1039.2089,-19.1306 1031.0509,-25.8906 1037.0471,-29.5025"/>
</a>
</g>
</g>
<!-- Node17&#45;&gt;Node5 -->
<g id="edge41_Node000017_Node000005" class="edge">
<title>Node17&#45;&gt;Node5</title>
<g id="a_edge41_Node000017_Node000005"><a xlink:title=" ">
<path fill="none" stroke="#63b8ff" d="M705.7655,-168.0832C636.3133,-157.531 498.7375,-136.6286 428.8713,-126.0136"/>
<polygon fill="#63b8ff" stroke="#63b8ff" points="429.0776,-122.5049 418.6653,-124.463 428.0261,-129.4254 429.0776,-122.5049"/>
</a>
</g>
</g>
<!-- Node17&#45;&gt;Node11 -->
<g id="edge25_Node000017_Node000011" class="edge">
<title>Node17&#45;&gt;Node11</title>
<g id="a_edge25_Node000017_Node000011"><a xlink:title=" ">
<path fill="none" stroke="#63b8ff" d="M790.1791,-171.4024C860.0097,-165.6964 996.1016,-151.9621 1038,-129 1057.7516,-118.1753 1074.0033,-97.7396 1084.0298,-82.7617"/>
<polygon fill="#63b8ff" stroke="#63b8ff" points="1087.0158,-84.5888 1089.444,-74.2759 1081.1146,-80.8237 1087.0158,-84.5888"/>
</a>
</g>
</g>
<!-- Node17&#45;&gt;Node16 -->
<g id="edge26_Node000017_Node000016" class="edge">
<title>Node17&#45;&gt;Node16</title>
<g id="a_edge26_Node000017_Node000016"><a xlink:title=" ">
<path fill="none" stroke="#63b8ff" d="M787.8004,-164.9825C826.7231,-155.6749 886.112,-141.4732 928.1577,-131.4188"/>
<polygon fill="#63b8ff" stroke="#63b8ff" points="929.0042,-134.8151 937.916,-129.0853 927.3762,-128.0071 929.0042,-134.8151"/>
</a>
</g>
</g>
<!-- Node17&#45;&gt;Node18 -->
<g id="edge27_Node000017_Node000018" class="edge">
<title>Node17&#45;&gt;Node18</title>
<g id="a_edge27_Node000017_Node000018"><a xlink:title=" ">
<path fill="none" stroke="#63b8ff" d="M736.9071,-164.7382C715.4488,-145.8549 668.0506,-104.1445 641.6602,-80.921"/>
<polygon fill="#63b8ff" stroke="#63b8ff" points="643.7089,-78.0616 633.8896,-74.0828 639.0845,-83.3166 643.7089,-78.0616"/>
</a>
</g>
</g>
<!-- Node19 -->
<g id="Node000019" class="node">
<title>Node19</title>
<g id="a_Node000019"><a xlink:href="crypto_8h.html" target="_top" xlink:title="データ暗号化・復号モジュールの内部ヘッダー。">
<polygon fill="#ffffff" stroke="#666666" points="964,-74 860,-74 860,-55 964,-55 964,-74"/>
<text text-anchor="middle" x="912" y="-62" font-family="Helvetica,sans-Serif" font-size="10.00" fill="#000000">infra/crypto/crypto.h</text>
</a>
</g>
</g>
<!-- Node17&#45;&gt;Node19 -->
<g id="edge31_Node000017_Node000019" class="edge">
<title>Node17&#45;&gt;Node19</title>
<g id="a_edge31_Node000017_Node000019"><a xlink:title=" ">
<path fill="none" stroke="#63b8ff" d="M751.298,-164.7703C756.5224,-150.7559 767.9941,-124.9358 786,-110 804.9458,-94.2846 829.7624,-83.7866 852.3574,-76.8781"/>
<polygon fill="#63b8ff" stroke="#63b8ff" points="853.5737,-80.1702 862.2161,-74.0416 851.6382,-73.4431 853.5737,-80.1702"/>
</a>
</g>
</g>
<!-- Node17&#45;&gt;Node20 -->
<g id="edge35_Node000017_Node000020" class="edge">
<title>Node17&#45;&gt;Node20</title>
<g id="a_edge35_Node000017_Node000020"><a xlink:title=" ">
<path fill="none" stroke="#63b8ff" d="M766.1154,-164.9197C782.3455,-156.3365 806.3759,-143.6281 824.8937,-133.8351"/>
<polygon fill="#63b8ff" stroke="#63b8ff" points="826.5395,-136.924 833.7432,-129.155 823.267,-130.7361 826.5395,-136.924"/>
</a>
</g>
</g>
<!-- Node21 -->
<g id="Node000021" class="node">
<title>Node21</title>
<g id="a_Node000021"><a xlink:title=" ">
<polygon fill="#e0e0e0" stroke="#999999" points="765.5,-74 708.5,-74 708.5,-55 765.5,-55 765.5,-74"/>
<text text-anchor="middle" x="737" y="-62" font-family="Helvetica,sans-Serif" font-size="10.00" fill="#000000">pthread.h</text>
</a>
</g>
</g>
<!-- Node17&#45;&gt;Node21 -->
<g id="edge40_Node000017_Node000021" class="edge">
<title>Node17&#45;&gt;Node21</title>
<g id="a_edge40_Node000017_Node000021"><a xlink:title=" ">
<path fill="none" stroke="#63b8ff" d="M747.0238,-164.7382C745.2172,-146.6724 741.3213,-107.713 738.9538,-84.0376"/>
<polygon fill="#63b8ff" stroke="#63b8ff" points="742.436,-83.6849 737.9583,-74.0828 735.4708,-84.3815 742.436,-83.6849"/>
</a>
</g>
</g>
<!-- Node18&#45;&gt;Node9 -->
<g id="edge30_Node000018_Node000009" class="edge">
<title>Node18&#45;&gt;Node9</title>
<g id="a_edge30_Node000018_Node000009"><a xlink:title=" ">
<path fill="none" stroke="#63b8ff" d="M656.0955,-54.9197C687.7388,-45.7598 735.6121,-31.9018 770.1544,-21.9027"/>
<polygon fill="#63b8ff" stroke="#63b8ff" points="771.3332,-25.2052 779.9656,-19.0626 769.3867,-18.4813 771.3332,-25.2052"/>
</a>
</g>
</g>
<!-- Node18&#45;&gt;Node12 -->
<g id="edge28_Node000018_Node000012" class="edge">
<title>Node18&#45;&gt;Node12</title>
<g id="a_edge28_Node000018_Node000012"><a xlink:title=" ">
<path fill="none" stroke="#63b8ff" d="M684.0849,-54.9825C757.8017,-43.4969 879.3503,-24.5587 939.6879,-15.1577"/>
<polygon fill="#63b8ff" stroke="#63b8ff" points="940.5286,-18.569 949.8706,-13.5712 939.4509,-11.6525 940.5286,-18.569"/>
</a>
</g>
</g>
<!-- Node18&#45;&gt;Node13 -->
<g id="edge29_Node000018_Node000013" class="edge">
<title>Node18&#45;&gt;Node13</title>
<g id="a_edge29_Node000018_Node000013"><a xlink:title=" ">
<path fill="none" stroke="#63b8ff" d="M690.6026,-56.1303C693.7791,-55.7462 696.9239,-55.3678 700,-55 834.923,-38.868 872.7036,-45.4749 1010.1543,-18.8805"/>
<polygon fill="#63b8ff" stroke="#63b8ff" points="1011.0851,-22.2648 1020.2257,-16.9076 1009.7394,-15.3954 1011.0851,-22.2648"/>
</a>
</g>
</g>
<!-- Node19&#45;&gt;Node9 -->
<g id="edge34_Node000019_Node000009" class="edge">
<title>Node19&#45;&gt;Node9</title>
<g id="a_edge34_Node000019_Node000009"><a xlink:title=" ">
<path fill="none" stroke="#63b8ff" d="M894.7555,-54.9197C879.5174,-46.4541 857.056,-33.9755 839.5304,-24.2391"/>
<polygon fill="#63b8ff" stroke="#63b8ff" points="840.8204,-20.9519 830.379,-19.155 837.4209,-27.0711 840.8204,-20.9519"/>
</a>
</g>
</g>
<!-- Node19&#45;&gt;Node12 -->
<g id="edge32_Node000019_Node000012" class="edge">
<title>Node19&#45;&gt;Node12</title>
<g id="a_edge32_Node000019_Node000012"><a xlink:title=" ">
<path fill="none" stroke="#63b8ff" d="M923.1479,-54.9197C932.3945,-46.9735 945.7553,-35.4916 956.7296,-26.0605"/>
<polygon fill="#63b8ff" stroke="#63b8ff" points="959.2458,-28.513 964.5489,-19.3408 954.6834,-23.2041 959.2458,-28.513"/>
</a>
</g>
</g>
<!-- Node19&#45;&gt;Node13 -->
<g id="edge33_Node000019_Node000013" class="edge">
<title>Node19&#45;&gt;Node13</title>
<g id="a_edge33_Node000019_Node000013"><a xlink:title=" ">
<path fill="none" stroke="#63b8ff" d="M935.1668,-54.9197C956.4912,-46.1014 988.3451,-32.9287 1012.2654,-23.0369"/>
<polygon fill="#63b8ff" stroke="#63b8ff" points="1013.7489,-26.2109 1021.6524,-19.155 1011.0738,-19.7422 1013.7489,-26.2109"/>
</a>
</g>
</g>
<!-- Node20&#45;&gt;Node9 -->
<g id="edge37_Node000020_Node000009" class="edge">
<title>Node20&#45;&gt;Node9</title>
<g id="a_edge37_Node000020_Node000009"><a xlink:title=" ">
<path fill="none" stroke="#63b8ff" d="M842.0166,-109.679C833.983,-101.0873 823.2045,-87.8458 818,-74 812.6205,-59.6888 811.5483,-42.3601 811.7236,-29.2694"/>
<polygon fill="#63b8ff" stroke="#63b8ff" points="815.2302,-29.1674 812.122,-19.0388 808.2355,-28.895 815.2302,-29.1674"/>
</a>
</g>
</g>
<!-- Node20&#45;&gt;Node11 -->
<g id="edge38_Node000020_Node000011" class="edge">
<title>Node20&#45;&gt;Node11</title>
<g id="a_edge38_Node000020_Node000011"><a xlink:title=" ">
<path fill="none" stroke="#63b8ff" d="M894.05,-109.9825C936.8977,-100.2845 1003.2207,-85.2731 1047.8312,-75.1761"/>
<polygon fill="#63b8ff" stroke="#63b8ff" points="1048.8587,-78.5321 1057.8394,-72.9108 1047.3134,-71.7048 1048.8587,-78.5321"/>
</a>
</g>
</g>
<!-- Node20&#45;&gt;Node12 -->
<g id="edge36_Node000020_Node000012" class="edge">
<title>Node20&#45;&gt;Node12</title>
<g id="a_edge36_Node000020_Node000012"><a xlink:title=" ">
<path fill="none" stroke="#63b8ff" d="M890.4063,-109.9885C921.9229,-101.337 962.9347,-87.8397 973,-74 982.2607,-61.2666 982.2628,-43.0902 980.378,-29.2763"/>
<polygon fill="#63b8ff" stroke="#63b8ff" points="983.8039,-28.5506 978.6028,-19.3203 976.9126,-29.7795 983.8039,-28.5506"/>
</a>
</g>
</g>
<!-- Node20&#45;&gt;Node21 -->
<g id="edge39_Node000020_Node000021" class="edge">
<title>Node20&#45;&gt;Node21</title>
<g id="a_edge39_Node000020_Node000021"><a xlink:title=" ">
<path fill="none" stroke="#63b8ff" d="M831.9685,-109.9197C813.8579,-101.2581 786.9637,-88.3957 766.4138,-78.5675"/>
<polygon fill="#63b8ff" stroke="#63b8ff" points="767.7192,-75.3122 757.1878,-74.155 764.699,-81.6271 767.7192,-75.3122"/>
</a>
</g>
</g>
<!-- Node22&#45;&gt;Node17 -->
<g id="edge43_Node000022_Node000017" class="edge">
<title>Node22&#45;&gt;Node17</title>
<g id="a_edge43_Node000022_Node000017"><a xlink:title=" ">
<path fill="none" stroke="#63b8ff" d="M620.8248,-219.9197C645.9221,-210.9564 683.6158,-197.4944 711.4554,-187.5516"/>
<polygon fill="#63b8ff" stroke="#63b8ff" points="712.9845,-190.7221 721.2247,-184.0626 710.6301,-184.1299 712.9845,-190.7221"/>
</a>
</g>
</g>
<!-- Node23&#45;&gt;Node17 -->
<g id="edge45_Node000023_Node000017" class="edge">
<title>Node23&#45;&gt;Node17</title>
<g id="a_edge45_Node000023_Node000017"><a xlink:title=" ">
<path fill="none" stroke="#63b8ff" d="M748,-219.9197C748,-212.9083 748,-203.1442 748,-194.4652"/>
<polygon fill="#63b8ff" stroke="#63b8ff" points="751.5001,-194.3408 748,-184.3408 744.5001,-194.3409 751.5001,-194.3408"/>
</a>
</g>
</g>
<!-- Node24&#45;&gt;Node17 -->
<g id="edge49_Node000024_Node000017" class="edge">
<title>Node24&#45;&gt;Node17</title>
<g id="a_edge49_Node000024_Node000017"><a xlink:title=" ">
<path fill="none" stroke="#63b8ff" d="M875.1752,-219.9197C850.0779,-210.9564 812.3842,-197.4944 784.5446,-187.5516"/>
<polygon fill="#63b8ff" stroke="#63b8ff" points="785.3699,-184.1299 774.7753,-184.0626 783.0155,-190.7221 785.3699,-184.1299"/>
</a>
</g>
</g>
<!-- Node25&#45;&gt;Node5 -->
<g id="edge52_Node000025_Node000005" class="edge">
<title>Node25&#45;&gt;Node5</title>
<g id="a_edge52_Node000025_Node000005"><a xlink:title=" ">
<path fill="none" stroke="#63b8ff" d="M386,-219.7382C386,-201.7541 386,-163.0652 386,-139.3599"/>
<polygon fill="#63b8ff" stroke="#63b8ff" points="389.5001,-139.0828 386,-129.0828 382.5001,-139.0829 389.5001,-139.0828"/>
</a>
</g>
</g>
<!-- Node25&#45;&gt;Node6 -->
<g id="edge51_Node000025_Node000006" class="edge">
<title>Node25&#45;&gt;Node6</title>
<g id="a_edge51_Node000025_Node000006"><a xlink:title=" ">
<path fill="none" stroke="#63b8ff" d="M397.6705,-219.9197C407.4454,-211.8956 421.6122,-200.2661 433.1635,-190.7837"/>
<polygon fill="#63b8ff" stroke="#63b8ff" points="435.5035,-193.3911 441.0121,-184.3408 431.062,-187.9805 435.5035,-193.3911"/>
</a>
</g>
</g>
<!-- Node26&#45;&gt;Node11 -->
<g id="edge54_Node000026_Node000011" class="edge">
<title>Node26&#45;&gt;Node11</title>
<g id="a_edge54_Node000026_Node000011"><a xlink:title=" ">
<path fill="none" stroke="#63b8ff" d="M1245.4379,-164.9497C1231.4566,-155.768 1209.7536,-141.483 1191,-129 1165.8925,-112.2877 1137.1975,-92.981 1117.7692,-79.8784"/>
<polygon fill="#63b8ff" stroke="#63b8ff" points="1119.534,-76.847 1109.2869,-74.1549 1115.6187,-82.6496 1119.534,-76.847"/>
</a>
</g>
</g>
</g>
</svg>
