<?xml version="1.0" encoding="UTF-8" standalone="no"?>
<!DOCTYPE svg PUBLIC "-//W3C//DTD SVG 1.1//EN"
 "http://www.w3.org/Graphics/SVG/1.1/DTD/svg11.dtd">
<!-- Generated by graphviz version 2.40.1 (0)
 -->
<!-- Title: porter/libsrc/porter/potrOpenService.c Pages: 1 -->
<!--zoomable 313 -->

<svg id="main" version="1.1" xmlns="http://www.w3.org/2000/svg" xmlns:xlink="http://www.w3.org/1999/xlink" xml:space="preserve" onload="init(evt)">

<style type="text/css"><![CDATA[
.node, .edge {opacity: 0.7;}
.node.selected, .edge.selected {opacity: 1;}
.edge:hover path { stroke: red; }
.edge:hover polygon { stroke: red; fill: red; }
]]></style>

<defs>
  <circle id="rim" cx="0" cy="0" r="7"/>
  <circle id="rim2" cx="0" cy="0" r="3.5"/>
  <g id="zoomPlus">
    <use xlink:href="#rim" fill="#404040"><set attributeName="fill" to="#808080" begin="zoomplus.mouseover" end="zoomplus.mouseout"/></use>
    <path d="M-4,0h8M0,-4v8" fill="none" stroke="white" stroke-width="1.5" pointer-events="none"/>
  </g>
  <g id="zoomMin">
    <use xlink:href="#rim" fill="#404040"><set attributeName="fill" to="#808080" begin="zoomminus.mouseover" end="zoomminus.mouseout"/></use>
    <path d="M-4,0h8" fill="none" stroke="white" stroke-width="1.5" pointer-events="none"/>
  </g>
  <g id="arrowUp" transform="translate(30 24)">
    <use xlink:href="#rim"/>
    <path pointer-events="none" fill="none" stroke="white" stroke-width="1.5" d="M0,-3.0v7 M-2.5,-0.5L0,-3.0L2.5,-0.5"/>
  </g>
  <g id="arrowRight" transform="rotate(90) translate(36 -43)">
    <use xlink:href="#rim"/>
    <path pointer-events="none" fill="none" stroke="white" stroke-width="1.5" d="M0,-3.0v7 M-2.5,-0.5L0,-3.0L2.5,-0.5"/>
  </g>
  <g id="arrowDown" transform="rotate(180) translate(-30 -48)">
    <use xlink:href="#rim"/>
    <path pointer-events="none" fill="none" stroke="white" stroke-width="1.5" d="M0,-3.0v7 M-2.5,-0.5L0,-3.0L2.5,-0.5"/>
  </g>
  <g id="arrowLeft" transform="rotate(270) translate(-36 17)">
    <use xlink:href="#rim"/>
    <path pointer-events="none" fill="none" stroke="white" stroke-width="1.5" d="M0,-3.0v7 M-2.5,-0.5L0,-3.0L2.5,-0.5"/>
  </g>
  <g id="resetDef">
    <use xlink:href="#rim2" fill="#404040"><set attributeName="fill" to="#808080" begin="reset.mouseover" end="reset.mouseout"/></use>
  </g>
</defs>
<script type="application/ecmascript">
var viewWidth = 956;
var viewHeight = 313;
var sectionId = 'dynsection-0';
</script>
<script type="application/ecmascript" xlink:href="svg.min.js"/>
<svg id="graph" class="graph">
<g id="viewport">
<title>porter/libsrc/porter/potrOpenService.c</title>
<!-- Node1 -->
<g id="Node000001" class="node">
<title>Node1</title>
<g id="a_Node000001"><a xlink:title="potrOpenService 関数の実装。">
<polygon fill="#999999" stroke="#666666" points="508.5,-305 407.5,-305 407.5,-275 508.5,-275 508.5,-305"/>
<text text-anchor="start" x="415.5" y="-293" font-family="Helvetica,sans-Serif" font-size="10.00" fill="#000000">porter/libsrc/porter</text>
<text text-anchor="middle" x="458" y="-282" font-family="Helvetica,sans-Serif" font-size="10.00" fill="#000000">/potrOpenService.c</text>
</a>
</g>
</g>
<!-- Node2 -->
<g id="Node000002" class="node">
<title>Node2</title>
<g id="a_Node000002"><a xlink:title=" ">
<polygon fill="#e0e0e0" stroke="#999999" points="48,-239 0,-239 0,-220 48,-220 48,-239"/>
<text text-anchor="middle" x="24" y="-227" font-family="Helvetica,sans-Serif" font-size="10.00" fill="#000000">stdlib.h</text>
</a>
</g>
</g>
<!-- Node1&#45;&gt;Node2 -->
<g id="edge1_Node000001_Node000002" class="edge">
<title>Node1&#45;&gt;Node2</title>
<g id="a_edge1_Node000001_Node000002"><a xlink:title=" ">
<path fill="none" stroke="#63b8ff" d="M407.2628,-286.0667C332.63,-279.7288 188.8181,-265.4158 57.8509,-238.8984"/>
<polygon fill="#63b8ff" stroke="#63b8ff" points="58.5436,-235.4677 48.0439,-236.8847 57.1355,-242.3247 58.5436,-235.4677"/>
</a>
</g>
</g>
<!-- Node3 -->
<g id="Node000003" class="node">
<title>Node3</title>
<g id="a_Node000003"><a xlink:title=" ">
<polygon fill="#e0e0e0" stroke="#999999" points="115.5,-239 66.5,-239 66.5,-220 115.5,-220 115.5,-239"/>
<text text-anchor="middle" x="91" y="-227" font-family="Helvetica,sans-Serif" font-size="10.00" fill="#000000">string.h</text>
</a>
</g>
</g>
<!-- Node1&#45;&gt;Node3 -->
<g id="edge2_Node000001_Node000003" class="edge">
<title>Node1&#45;&gt;Node3</title>
<g id="a_edge2_Node000001_Node000003"><a xlink:title=" ">
<path fill="none" stroke="#63b8ff" d="M407.2668,-284.3172C343.4778,-276.7158 230.5103,-261.7454 125.5807,-239.1431"/>
<polygon fill="#63b8ff" stroke="#63b8ff" points="126.295,-235.7167 115.7787,-237.004 124.8025,-242.5557 126.295,-235.7167"/>
</a>
</g>
</g>
<!-- Node4 -->
<g id="Node000004" class="node">
<title>Node4</title>
<g id="a_Node000004"><a xlink:title=" ">
<polygon fill="#e0e0e0" stroke="#999999" points="206.5,-239 133.5,-239 133.5,-220 206.5,-220 206.5,-239"/>
<text text-anchor="middle" x="170" y="-227" font-family="Helvetica,sans-Serif" font-size="10.00" fill="#000000">sys/socket.h</text>
</a>
</g>
</g>
<!-- Node1&#45;&gt;Node4 -->
<g id="edge3_Node000001_Node000004" class="edge">
<title>Node1&#45;&gt;Node4</title>
<g id="a_edge3_Node000001_Node000004"><a xlink:title=" ">
<path fill="none" stroke="#63b8ff" d="M407.1743,-279.3231C353.2795,-268.0014 268.8689,-250.2693 216.627,-239.2949"/>
<polygon fill="#63b8ff" stroke="#63b8ff" points="217.1321,-235.8247 206.6261,-237.194 215.693,-242.6752 217.1321,-235.8247"/>
</a>
</g>
</g>
<!-- Node5 -->
<g id="Node000005" class="node">
<title>Node5</title>
<g id="a_Node000005"><a xlink:title=" ">
<polygon fill="#e0e0e0" stroke="#999999" points="282.5,-184 217.5,-184 217.5,-165 282.5,-165 282.5,-184"/>
<text text-anchor="middle" x="250" y="-172" font-family="Helvetica,sans-Serif" font-size="10.00" fill="#000000">netinet/in.h</text>
</a>
</g>
</g>
<!-- Node1&#45;&gt;Node5 -->
<g id="edge4_Node000001_Node000005" class="edge">
<title>Node1&#45;&gt;Node5</title>
<g id="a_edge4_Node000001_Node000005"><a xlink:title=" ">
<path fill="none" stroke="#63b8ff" d="M407.2726,-284.1591C353.4012,-276.8228 273.3779,-262.2942 254,-239 243.8091,-226.7495 243.695,-208.2384 245.6131,-194.1845"/>
<polygon fill="#63b8ff" stroke="#63b8ff" points="249.1061,-194.5358 247.4335,-184.0738 242.2169,-193.2954 249.1061,-194.5358"/>
</a>
</g>
</g>
<!-- Node6 -->
<g id="Node000006" class="node">
<title>Node6</title>
<g id="a_Node000006"><a xlink:title=" ">
<polygon fill="#e0e0e0" stroke="#999999" points="378,-184 316,-184 316,-165 378,-165 378,-184"/>
<text text-anchor="middle" x="347" y="-172" font-family="Helvetica,sans-Serif" font-size="10.00" fill="#000000">arpa/inet.h</text>
</a>
</g>
</g>
<!-- Node1&#45;&gt;Node6 -->
<g id="edge5_Node000001_Node000006" class="edge">
<title>Node1&#45;&gt;Node6</title>
<g id="a_edge5_Node000001_Node000006"><a xlink:title=" ">
<path fill="none" stroke="#63b8ff" d="M437.1437,-274.8076C424.5968,-265.2041 408.6584,-252.1579 396,-239 382.0579,-224.5079 368.4025,-206.0804 359.0637,-192.6361"/>
<polygon fill="#63b8ff" stroke="#63b8ff" points="361.8615,-190.5265 353.3376,-184.2342 356.0771,-194.4687 361.8615,-190.5265"/>
</a>
</g>
</g>
<!-- Node7 -->
<g id="Node000007" class="node">
<title>Node7</title>
<g id="a_Node000007"><a xlink:title=" ">
<polygon fill="#e0e0e0" stroke="#999999" points="456.5,-239 405.5,-239 405.5,-220 456.5,-220 456.5,-239"/>
<text text-anchor="middle" x="431" y="-227" font-family="Helvetica,sans-Serif" font-size="10.00" fill="#000000">unistd.h</text>
</a>
</g>
</g>
<!-- Node1&#45;&gt;Node7 -->
<g id="edge6_Node000001_Node000007" class="edge">
<title>Node1&#45;&gt;Node7</title>
<g id="a_edge6_Node000001_Node000007"><a xlink:title=" ">
<path fill="none" stroke="#63b8ff" d="M451.1868,-274.7333C447.5937,-266.6821 443.1551,-256.7365 439.3558,-248.2231"/>
<polygon fill="#63b8ff" stroke="#63b8ff" points="442.5498,-246.7919 435.2782,-239.0864 436.1575,-249.6447 442.5498,-246.7919"/>
</a>
</g>
</g>
<!-- Node8 -->
<g id="Node000008" class="node">
<title>Node8</title>
<g id="a_Node000008"><a xlink:href="porter__const_8h.html" target="_top" xlink:title="通信ライブラリの定数ファイル。">
<polygon fill="#ffffff" stroke="#666666" points="639.5,-19 560.5,-19 560.5,0 639.5,0 639.5,-19"/>
<text text-anchor="middle" x="600" y="-7" font-family="Helvetica,sans-Serif" font-size="10.00" fill="#000000">porter_const.h</text>
</a>
</g>
</g>
<!-- Node1&#45;&gt;Node8 -->
<g id="edge7_Node000001_Node000008" class="edge">
<title>Node1&#45;&gt;Node8</title>
<g id="a_edge7_Node000001_Node000008"><a xlink:title=" ">
<path fill="none" stroke="#63b8ff" d="M463.8586,-274.9426C471.7995,-253.1429 485,-211.3609 485,-174.5 485,-174.5 485,-174.5 485,-119.5 485,-89.6154 484.5807,-77.7151 504,-55 516.7416,-40.0959 535.4566,-29.7237 552.9863,-22.6897"/>
<polygon fill="#63b8ff" stroke="#63b8ff" points="554.4125,-25.8934 562.5576,-19.1178 551.965,-19.3352 554.4125,-25.8934"/>
</a>
</g>
</g>
<!-- Node9 -->
<g id="Node000009" class="node">
<title>Node9</title>
<g id="a_Node000009"><a xlink:href="porter_8h.html" target="_top" xlink:title="通信ライブラリ (動的リンク用) のヘッダーファイル。">
<polygon fill="#ffffff" stroke="#666666" points="901.5,-129 852.5,-129 852.5,-110 901.5,-110 901.5,-129"/>
<text text-anchor="middle" x="877" y="-117" font-family="Helvetica,sans-Serif" font-size="10.00" fill="#000000">porter.h</text>
</a>
</g>
</g>
<!-- Node1&#45;&gt;Node9 -->
<g id="edge8_Node000001_Node000009" class="edge">
<title>Node1&#45;&gt;Node9</title>
<g id="a_edge8_Node000001_Node000009"><a xlink:title=" ">
<path fill="none" stroke="#63b8ff" d="M508.6764,-285.0955C566.4518,-278.5552 663.2189,-264.696 743,-239 796.9277,-221.6309 821.2601,-227.1284 858,-184 868.6324,-171.5188 873.3172,-153.3178 875.3802,-139.4304"/>
<polygon fill="#63b8ff" stroke="#63b8ff" points="878.867,-139.7446 876.536,-129.4093 871.9132,-138.9424 878.867,-139.7446"/>
</a>
</g>
</g>
<!-- Node13 -->
<g id="Node000013" class="node">
<title>Node13</title>
<g id="a_Node000013"><a xlink:href="config_8h.html" target="_top" xlink:title="設定ファイル解析モジュールの内部ヘッダー。">
<polygon fill="#ffffff" stroke="#666666" points="848.5,-184 759.5,-184 759.5,-165 848.5,-165 848.5,-184"/>
<text text-anchor="middle" x="804" y="-172" font-family="Helvetica,sans-Serif" font-size="10.00" fill="#000000">protocol/config.h</text>
</a>
</g>
</g>
<!-- Node1&#45;&gt;Node13 -->
<g id="edge13_Node000001_Node000013" class="edge">
<title>Node1&#45;&gt;Node13</title>
<g id="a_edge13_Node000001_Node000013"><a xlink:title=" ">
<path fill="none" stroke="#63b8ff" d="M508.9867,-285.9769C561.6188,-280.4178 645.2323,-267.6078 712,-239 740.0437,-226.9842 768.1614,-205.5746 785.7946,-190.7349"/>
<polygon fill="#63b8ff" stroke="#63b8ff" points="788.2674,-193.2244 793.5625,-184.0476 783.7004,-187.9194 788.2674,-193.2244"/>
</a>
</g>
</g>
<!-- Node14 -->
<g id="Node000014" class="node">
<title>Node14</title>
<g id="a_Node000014"><a xlink:href="window_8h.html" target="_top" xlink:title="スライディングウィンドウ管理モジュールの内部ヘッダー。">
<polygon fill="#ffffff" stroke="#666666" points="682.5,-129 589.5,-129 589.5,-110 682.5,-110 682.5,-129"/>
<text text-anchor="middle" x="636" y="-117" font-family="Helvetica,sans-Serif" font-size="10.00" fill="#000000">protocol/window.h</text>
</a>
</g>
</g>
<!-- Node1&#45;&gt;Node14 -->
<g id="edge15_Node000001_Node000014" class="edge">
<title>Node1&#45;&gt;Node14</title>
<g id="a_edge15_Node000001_Node000014"><a xlink:title=" ">
<path fill="none" stroke="#63b8ff" d="M485.781,-274.9055C501.6246,-265.6241 521.3746,-252.8741 537,-239 572.7273,-207.277 606.4647,-162.158 623.8237,-137.427"/>
<polygon fill="#63b8ff" stroke="#63b8ff" points="626.8311,-139.2317 629.6447,-129.0173 621.0754,-135.2477 626.8311,-139.2317"/>
</a>
</g>
</g>
<!-- Node15 -->
<g id="Node000015" class="node">
<title>Node15</title>
<g id="a_Node000015"><a xlink:href="retransmit_8h.html" target="_top" xlink:title="再送制御モジュールの内部ヘッダー。">
<polygon fill="#ffffff" stroke="#666666" points="619,-74 513,-74 513,-55 619,-55 619,-74"/>
<text text-anchor="middle" x="566" y="-62" font-family="Helvetica,sans-Serif" font-size="10.00" fill="#000000">protocol/retransmit.h</text>
</a>
</g>
</g>
<!-- Node1&#45;&gt;Node15 -->
<g id="edge19_Node000001_Node000015" class="edge">
<title>Node1&#45;&gt;Node15</title>
<g id="a_edge19_Node000001_Node000015"><a xlink:title=" ">
<path fill="none" stroke="#63b8ff" d="M472.2777,-274.845C480.8575,-265.153 491.5246,-251.9999 499,-239 529.376,-186.1757 551.2375,-116.9613 560.7326,-83.8206"/>
<polygon fill="#63b8ff" stroke="#63b8ff" points="564.1451,-84.6138 563.473,-74.0403 557.4047,-82.7251 564.1451,-84.6138"/>
</a>
</g>
</g>
<!-- Node16 -->
<g id="Node000016" class="node">
<title>Node16</title>
<g id="a_Node000016"><a xlink:href="potrContext_8h.html" target="_top" xlink:title="セッションコンテキスト内部定義ヘッダー。">
<polygon fill="#ffffff" stroke="#666666" points="741.5,-184 666.5,-184 666.5,-165 741.5,-165 741.5,-184"/>
<text text-anchor="middle" x="704" y="-172" font-family="Helvetica,sans-Serif" font-size="10.00" fill="#000000">potrContext.h</text>
</a>
</g>
</g>
<!-- Node1&#45;&gt;Node16 -->
<g id="edge22_Node000001_Node000016" class="edge">
<title>Node1&#45;&gt;Node16</title>
<g id="a_edge22_Node000001_Node000016"><a xlink:title=" ">
<path fill="none" stroke="#63b8ff" d="M508.7415,-285.4501C569.7496,-278.9087 667.0698,-264.7063 692,-239 703.2625,-227.3869 705.7217,-208.8059 705.6791,-194.5634"/>
<polygon fill="#63b8ff" stroke="#63b8ff" points="709.1634,-194.1246 705.229,-184.2874 702.1701,-194.431 709.1634,-194.1246"/>
</a>
</g>
</g>
<!-- Node19 -->
<g id="Node000019" class="node">
<title>Node19</title>
<g id="a_Node000019"><a xlink:href="potrRecvThread_8h.html" target="_top" xlink:title="受信スレッド内部ヘッダー。">
<polygon fill="#ffffff" stroke="#666666" points="683,-239 589,-239 589,-220 683,-220 683,-239"/>
<text text-anchor="middle" x="636" y="-227" font-family="Helvetica,sans-Serif" font-size="10.00" fill="#000000">potrRecvThread.h</text>
</a>
</g>
</g>
<!-- Node1&#45;&gt;Node19 -->
<g id="edge30_Node000001_Node000019" class="edge">
<title>Node1&#45;&gt;Node19</title>
<g id="a_edge30_Node000001_Node000019"><a xlink:title=" ">
<path fill="none" stroke="#63b8ff" d="M502.4578,-274.8894C531.8969,-264.8834 570.0965,-251.8998 598.0944,-242.3836"/>
<polygon fill="#63b8ff" stroke="#63b8ff" points="599.5711,-245.5785 607.9128,-239.0465 597.3184,-238.9508 599.5711,-245.5785"/>
</a>
</g>
</g>
<!-- Node20 -->
<g id="Node000020" class="node">
<title>Node20</title>
<g id="a_Node000020"><a xlink:href="potrIpAddr_8h.html" target="_top" xlink:title="IPv4 アドレス変換ユーティリティ (内部用)。">
<polygon fill="#ffffff" stroke="#666666" points="348.5,-239 263.5,-239 263.5,-220 348.5,-220 348.5,-239"/>
<text text-anchor="middle" x="306" y="-227" font-family="Helvetica,sans-Serif" font-size="10.00" fill="#000000">util/potrIpAddr.h</text>
</a>
</g>
</g>
<!-- Node1&#45;&gt;Node20 -->
<g id="edge32_Node000001_Node000020" class="edge">
<title>Node1&#45;&gt;Node20</title>
<g id="a_edge32_Node000001_Node000020"><a xlink:title=" ">
<path fill="none" stroke="#63b8ff" d="M420.0361,-274.8894C395.3051,-265.0458 363.3342,-252.3205 339.5399,-242.8498"/>
<polygon fill="#63b8ff" stroke="#63b8ff" points="340.7963,-239.5828 330.2109,-239.1366 338.2076,-246.0866 340.7963,-239.5828"/>
</a>
</g>
</g>
<!-- Node10 -->
<g id="Node000010" class="node">
<title>Node10</title>
<g id="a_Node000010"><a xlink:href="porter__type_8h.html" target="_top" xlink:title="通信ライブラリの型定義ファイル。">
<polygon fill="#ffffff" stroke="#666666" points="816,-74 742,-74 742,-55 816,-55 816,-74"/>
<text text-anchor="middle" x="779" y="-62" font-family="Helvetica,sans-Serif" font-size="10.00" fill="#000000">porter_type.h</text>
</a>
</g>
</g>
<!-- Node9&#45;&gt;Node10 -->
<g id="edge9_Node000009_Node000010" class="edge">
<title>Node9&#45;&gt;Node10</title>
<g id="a_edge9_Node000009_Node000010"><a xlink:title=" ">
<path fill="none" stroke="#63b8ff" d="M859.9297,-109.9197C844.8455,-101.4541 822.611,-88.9755 805.2625,-79.2391"/>
<polygon fill="#63b8ff" stroke="#63b8ff" points="806.637,-75.9971 796.2035,-74.155 803.211,-82.1014 806.637,-75.9971"/>
</a>
</g>
</g>
<!-- Node10&#45;&gt;Node8 -->
<g id="edge12_Node000010_Node000008" class="edge">
<title>Node10&#45;&gt;Node8</title>
<g id="a_edge12_Node000010_Node000008"><a xlink:title=" ">
<path fill="none" stroke="#63b8ff" d="M747.8206,-54.9197C718.1372,-45.7991 673.2944,-32.0206 640.7847,-22.0316"/>
<polygon fill="#63b8ff" stroke="#63b8ff" points="641.7089,-18.6541 631.1219,-19.0626 639.6528,-25.3454 641.7089,-18.6541"/>
</a>
</g>
</g>
<!-- Node11 -->
<g id="Node000011" class="node">
<title>Node11</title>
<g id="a_Node000011"><a xlink:title=" ">
<polygon fill="#e0e0e0" stroke="#999999" points="811,-19 759,-19 759,0 811,0 811,-19"/>
<text text-anchor="middle" x="785" y="-7" font-family="Helvetica,sans-Serif" font-size="10.00" fill="#000000">stddef.h</text>
</a>
</g>
</g>
<!-- Node10&#45;&gt;Node11 -->
<g id="edge10_Node000010_Node000011" class="edge">
<title>Node10&#45;&gt;Node11</title>
<g id="a_edge10_Node000010_Node000011"><a xlink:title=" ">
<path fill="none" stroke="#63b8ff" d="M780.0451,-54.9197C780.81,-47.9083 781.8752,-38.1442 782.822,-29.4652"/>
<polygon fill="#63b8ff" stroke="#63b8ff" points="786.3213,-29.6614 783.9265,-19.3408 779.3625,-28.9023 786.3213,-29.6614"/>
</a>
</g>
</g>
<!-- Node12 -->
<g id="Node000012" class="node">
<title>Node12</title>
<g id="a_Node000012"><a xlink:title=" ">
<polygon fill="#e0e0e0" stroke="#999999" points="732.5,-19 683.5,-19 683.5,0 732.5,0 732.5,-19"/>
<text text-anchor="middle" x="708" y="-7" font-family="Helvetica,sans-Serif" font-size="10.00" fill="#000000">stdint.h</text>
</a>
</g>
</g>
<!-- Node10&#45;&gt;Node12 -->
<g id="edge11_Node000010_Node000012" class="edge">
<title>Node10&#45;&gt;Node12</title>
<g id="a_edge11_Node000010_Node000012"><a xlink:title=" ">
<path fill="none" stroke="#63b8ff" d="M766.6327,-54.9197C756.1737,-46.8177 740.9697,-35.0399 728.6651,-25.5082"/>
<polygon fill="#63b8ff" stroke="#63b8ff" points="730.7525,-22.6979 720.7036,-19.3408 726.4657,-28.2318 730.7525,-22.6979"/>
</a>
</g>
</g>
<!-- Node13&#45;&gt;Node10 -->
<g id="edge14_Node000013_Node000010" class="edge">
<title>Node13&#45;&gt;Node10</title>
<g id="a_edge14_Node000013_Node000010"><a xlink:title=" ">
<path fill="none" stroke="#63b8ff" d="M804.5018,-164.7125C804.9077,-151.9235 804.7763,-128.9285 800,-110 797.6695,-100.7643 793.4914,-91.1061 789.4723,-83.0762"/>
<polygon fill="#63b8ff" stroke="#63b8ff" points="792.5581,-81.4244 784.7836,-74.2267 786.3727,-84.7017 792.5581,-81.4244"/>
</a>
</g>
</g>
<!-- Node14&#45;&gt;Node8 -->
<g id="edge17_Node000014_Node000008" class="edge">
<title>Node14&#45;&gt;Node8</title>
<g id="a_edge17_Node000014_Node000008"><a xlink:title=" ">
<path fill="none" stroke="#63b8ff" d="M636.0647,-109.5886C635.861,-96.6655 634.5018,-73.5259 628,-55 624.6079,-45.3347 618.9316,-35.5408 613.5731,-27.5281"/>
<polygon fill="#63b8ff" stroke="#63b8ff" points="616.4215,-25.494 607.7971,-19.3401 610.7015,-29.5291 616.4215,-25.494"/>
</a>
</g>
</g>
<!-- Node14&#45;&gt;Node10 -->
<g id="edge18_Node000014_Node000010" class="edge">
<title>Node14&#45;&gt;Node10</title>
<g id="a_edge18_Node000014_Node000010"><a xlink:title=" ">
<path fill="none" stroke="#63b8ff" d="M660.9087,-109.9197C684.0402,-101.023 718.6951,-87.6942 744.488,-77.7739"/>
<polygon fill="#63b8ff" stroke="#63b8ff" points="745.8199,-81.0116 753.8969,-74.155 743.307,-74.4782 745.8199,-81.0116"/>
</a>
</g>
</g>
<!-- Node14&#45;&gt;Node12 -->
<g id="edge16_Node000014_Node000012" class="edge">
<title>Node14&#45;&gt;Node12</title>
<g id="a_edge16_Node000014_Node000012"><a xlink:title=" ">
<path fill="none" stroke="#63b8ff" d="M642.3895,-109.7382C654.482,-91.2636 680.876,-50.9395 696.2479,-27.4546"/>
<polygon fill="#63b8ff" stroke="#63b8ff" points="699.1794,-29.3667 701.7276,-19.0828 693.3225,-25.533 699.1794,-29.3667"/>
</a>
</g>
</g>
<!-- Node15&#45;&gt;Node8 -->
<g id="edge21_Node000015_Node000008" class="edge">
<title>Node15&#45;&gt;Node8</title>
<g id="a_edge21_Node000015_Node000008"><a xlink:title=" ">
<path fill="none" stroke="#63b8ff" d="M571.9223,-54.9197C576.4975,-47.5188 582.9686,-37.0509 588.5455,-28.0294"/>
<polygon fill="#63b8ff" stroke="#63b8ff" points="591.6354,-29.6872 593.9166,-19.3408 585.6812,-26.0064 591.6354,-29.6872"/>
</a>
</g>
</g>
<!-- Node15&#45;&gt;Node12 -->
<g id="edge20_Node000015_Node000012" class="edge">
<title>Node15&#45;&gt;Node12</title>
<g id="a_edge20_Node000015_Node000012"><a xlink:title=" ">
<path fill="none" stroke="#63b8ff" d="M590.7345,-54.9197C613.7043,-46.023 648.1168,-32.6942 673.7293,-22.7739"/>
<polygon fill="#63b8ff" stroke="#63b8ff" points="675.0117,-26.0306 683.0725,-19.155 672.4834,-19.5031 675.0117,-26.0306"/>
</a>
</g>
</g>
<!-- Node16&#45;&gt;Node10 -->
<g id="edge23_Node000016_Node000010" class="edge">
<title>Node16&#45;&gt;Node10</title>
<g id="a_edge23_Node000016_Node000010"><a xlink:title=" ">
<path fill="none" stroke="#63b8ff" d="M723.8641,-164.9736C737.8364,-157.2307 755.7964,-144.9791 766,-129 774.5493,-115.6116 777.6465,-97.736 778.6921,-84.1989"/>
<polygon fill="#63b8ff" stroke="#63b8ff" points="782.196,-84.1931 779.1626,-74.0419 775.2035,-83.8692 782.196,-84.1931"/>
</a>
</g>
</g>
<!-- Node16&#45;&gt;Node14 -->
<g id="edge25_Node000016_Node000014" class="edge">
<title>Node16&#45;&gt;Node14</title>
<g id="a_edge25_Node000016_Node000014"><a xlink:title=" ">
<path fill="none" stroke="#63b8ff" d="M692.1553,-164.9197C682.2345,-156.8956 667.8562,-145.2661 656.1326,-135.7837"/>
<polygon fill="#63b8ff" stroke="#63b8ff" points="658.143,-132.9083 648.1668,-129.3408 653.7409,-138.3509 658.143,-132.9083"/>
</a>
</g>
</g>
<!-- Node16&#45;&gt;Node15 -->
<g id="edge24_Node000016_Node000015" class="edge">
<title>Node16&#45;&gt;Node15</title>
<g id="a_edge24_Node000016_Node000015"><a xlink:title=" ">
<path fill="none" stroke="#63b8ff" d="M666.3056,-170.3462C638.4623,-165.2649 601.76,-153.9895 580,-129 569.3124,-116.7262 566.1746,-98.2176 565.4989,-84.1706"/>
<polygon fill="#63b8ff" stroke="#63b8ff" points="568.9977,-84.0269 565.3878,-74.066 561.9981,-84.1039 568.9977,-84.0269"/>
</a>
</g>
</g>
<!-- Node17 -->
<g id="Node000017" class="node">
<title>Node17</title>
<g id="a_Node000017"><a xlink:href="compress_8h.html" target="_top" xlink:title="データ圧縮・解凍モジュールの内部ヘッダー。">
<polygon fill="#ffffff" stroke="#666666" points="947.5,-74 834.5,-74 834.5,-55 947.5,-55 947.5,-74"/>
<text text-anchor="middle" x="891" y="-62" font-family="Helvetica,sans-Serif" font-size="10.00" fill="#000000">compress/compress.h</text>
</a>
</g>
</g>
<!-- Node16&#45;&gt;Node17 -->
<g id="edge26_Node000016_Node000017" class="edge">
<title>Node16&#45;&gt;Node17</title>
<g id="a_edge26_Node000016_Node000017"><a xlink:title=" ">
<path fill="none" stroke="#63b8ff" d="M741.6664,-166.5285C800.9932,-153.9306 909.6598,-130.6668 911,-129 921.727,-115.659 913.7107,-96.5532 904.8427,-82.5989"/>
<polygon fill="#63b8ff" stroke="#63b8ff" points="907.6537,-80.5104 899.0806,-74.2853 901.9004,-84.498 907.6537,-80.5104"/>
</a>
</g>
</g>
<!-- Node18 -->
<g id="Node000018" class="node">
<title>Node18</title>
<g id="a_Node000018"><a xlink:title=" ">
<polygon fill="#e0e0e0" stroke="#999999" points="757.5,-129 700.5,-129 700.5,-110 757.5,-110 757.5,-129"/>
<text text-anchor="middle" x="729" y="-117" font-family="Helvetica,sans-Serif" font-size="10.00" fill="#000000">pthread.h</text>
</a>
</g>
</g>
<!-- Node16&#45;&gt;Node18 -->
<g id="edge29_Node000016_Node000018" class="edge">
<title>Node16&#45;&gt;Node18</title>
<g id="a_edge29_Node000016_Node000018"><a xlink:title=" ">
<path fill="none" stroke="#63b8ff" d="M708.3547,-164.9197C711.6479,-157.6746 716.2772,-147.4903 720.3177,-138.601"/>
<polygon fill="#63b8ff" stroke="#63b8ff" points="723.5751,-139.8928 724.5269,-129.3408 717.2025,-136.9962 723.5751,-139.8928"/>
</a>
</g>
</g>
<!-- Node17&#45;&gt;Node11 -->
<g id="edge27_Node000017_Node000011" class="edge">
<title>Node17&#45;&gt;Node11</title>
<g id="a_edge27_Node000017_Node000011"><a xlink:title=" ">
<path fill="none" stroke="#63b8ff" d="M872.5362,-54.9197C855.994,-46.3365 831.5015,-33.6281 812.6276,-23.8351"/>
<polygon fill="#63b8ff" stroke="#63b8ff" points="814.0961,-20.654 803.6079,-19.155 810.8722,-26.8674 814.0961,-20.654"/>
</a>
</g>
</g>
<!-- Node17&#45;&gt;Node12 -->
<g id="edge28_Node000017_Node000012" class="edge">
<title>Node17&#45;&gt;Node12</title>
<g id="a_edge28_Node000017_Node000012"><a xlink:title=" ">
<path fill="none" stroke="#63b8ff" d="M859.1238,-54.9197C826.5498,-45.1297 776.1193,-29.973 742.5929,-19.8968"/>
<polygon fill="#63b8ff" stroke="#63b8ff" points="743.3536,-16.4708 732.7694,-16.9444 741.3388,-23.1746 743.3536,-16.4708"/>
</a>
</g>
</g>
<!-- Node19&#45;&gt;Node16 -->
<g id="edge31_Node000019_Node000016" class="edge">
<title>Node19&#45;&gt;Node16</title>
<g id="a_edge31_Node000019_Node000016"><a xlink:title=" ">
<path fill="none" stroke="#63b8ff" d="M647.8447,-219.9197C657.7655,-211.8956 672.1438,-200.2661 683.8674,-190.7837"/>
<polygon fill="#63b8ff" stroke="#63b8ff" points="686.2591,-193.3509 691.8332,-184.3408 681.857,-187.9083 686.2591,-193.3509"/>
</a>
</g>
</g>
<!-- Node20&#45;&gt;Node5 -->
<g id="edge34_Node000020_Node000005" class="edge">
<title>Node20&#45;&gt;Node5</title>
<g id="a_edge34_Node000020_Node000005"><a xlink:title=" ">
<path fill="none" stroke="#63b8ff" d="M296.2455,-219.9197C288.3135,-212.1293 276.9212,-200.9405 267.4288,-191.6176"/>
<polygon fill="#63b8ff" stroke="#63b8ff" points="269.6068,-188.8509 260.0198,-184.3408 264.7018,-193.845 269.6068,-188.8509"/>
</a>
</g>
</g>
<!-- Node20&#45;&gt;Node6 -->
<g id="edge33_Node000020_Node000006" class="edge">
<title>Node20&#45;&gt;Node6</title>
<g id="a_edge33_Node000020_Node000006"><a xlink:title=" ">
<path fill="none" stroke="#63b8ff" d="M313.1417,-219.9197C318.7749,-212.363 326.7917,-201.6087 333.6105,-192.4616"/>
<polygon fill="#63b8ff" stroke="#63b8ff" points="336.4935,-194.4501 339.6641,-184.3408 330.8813,-190.2665 336.4935,-194.4501"/>
</a>
</g>
</g>
</g>
</svg>

<g id="navigator" transform="translate(0 0)" fill="#404254">
  <rect fill="#f2f5e9" fill-opacity="0.5" stroke="#606060" stroke-width=".5" x="0" y="0" width="60" height="60"/>
  <use id="zoomplus" xlink:href="#zoomPlus" x="17" y="9" onmousedown="handleZoom(evt,'in')"/>
  <use id="zoomminus" xlink:href="#zoomMin" x="42" y="9" onmousedown="handleZoom(evt,'out')"/>
  <use id="reset" xlink:href="#resetDef" x="30" y="36" onmousedown="handleReset()"/>
   <use id="arrowup" xlink:href="#arrowUp" x="0" y="0" onmousedown="handlePan(0,-1)"/>
  <use id="arrowright" xlink:href="#arrowRight" x="0" y="0" onmousedown="handlePan(1,0)"/>
  <use id="arrowdown" xlink:href="#arrowDown" x="0" y="0" onmousedown="handlePan(0,1)"/>
  <use id="arrowleft" xlink:href="#arrowLeft" x="0" y="0" onmousedown="handlePan(-1,0)"/>
</g>
<svg viewBox="0 0 15 15" width="100%" height="30px" preserveAspectRatio="xMaxYMin meet">
 <g id="arrow_out" transform="scale(0.3 0.3)">
  <a xlink:href="potrOpenService_8c__incl_org.svg" target="_base">
   <rect id="button" ry="5" rx="5" y="6" x="6" height="38" width="38"
        fill="#f2f5e9" fill-opacity="0.5" stroke="#606060" stroke-width="1.0"/>
   <path id="arrow"
     d="M 11.500037,31.436501 C 11.940474,20.09759 22.043105,11.32322 32.158766,21.979434 L 37.068811,17.246167 C 37.068811,17.246167 37.088388,32 37.088388,32 L 22.160133,31.978069 C 22.160133,31.978069 26.997745,27.140456 26.997745,27.140456 C 18.528582,18.264221 13.291696,25.230495 11.500037,31.436501 z"
     style="fill:#404040;"/>
  </a>
 </g>
</svg>

<style type='text/css'>
<![CDATA[
[data-mouse-over-selected='false'] { opacity: 0.7; }
[data-mouse-over-selected='true']  { opacity: 1.0; }
]]>
</style>
<script type="application/ecmascript"><![CDATA[
document.addEventListener('DOMContentLoaded', (event) => {
  highlightEdges();
  highlightAdjacentNodes();
});
]]></script>
</svg>
