<?xml version="1.0" encoding="UTF-8" standalone="no"?>
<!DOCTYPE svg PUBLIC "-//W3C//DTD SVG 1.1//EN"
 "http://www.w3.org/Graphics/SVG/1.1/DTD/svg11.dtd">
<!-- Generated by graphviz version 2.40.1 (0)
 -->
<!-- Title: potr_health_thread_start Pages: 1 -->
<!--zoomable 138 -->

<svg id="main" version="1.1" xmlns="http://www.w3.org/2000/svg" xmlns:xlink="http://www.w3.org/1999/xlink" xml:space="preserve" onload="init(evt)">

<style type="text/css"><![CDATA[
.node, .edge {opacity: 0.7;}
.node.selected, .edge.selected {opacity: 1;}
.edge:hover path { stroke: red; }
.edge:hover polygon { stroke: red; fill: red; }
]]></style>

<defs>
  <circle id="rim" cx="0" cy="0" r="7"/>
  <circle id="rim2" cx="0" cy="0" r="3.5"/>
  <g id="zoomPlus">
    <use xlink:href="#rim" fill="#404040"><set attributeName="fill" to="#808080" begin="zoomplus.mouseover" end="zoomplus.mouseout"/></use>
    <path d="M-4,0h8M0,-4v8" fill="none" stroke="white" stroke-width="1.5" pointer-events="none"/>
  </g>
  <g id="zoomMin">
    <use xlink:href="#rim" fill="#404040"><set attributeName="fill" to="#808080" begin="zoomminus.mouseover" end="zoomminus.mouseout"/></use>
    <path d="M-4,0h8" fill="none" stroke="white" stroke-width="1.5" pointer-events="none"/>
  </g>
  <g id="arrowUp" transform="translate(30 24)">
    <use xlink:href="#rim"/>
    <path pointer-events="none" fill="none" stroke="white" stroke-width="1.5" d="M0,-3.0v7 M-2.5,-0.5L0,-3.0L2.5,-0.5"/>
  </g>
  <g id="arrowRight" transform="rotate(90) translate(36 -43)">
    <use xlink:href="#rim"/>
    <path pointer-events="none" fill="none" stroke="white" stroke-width="1.5" d="M0,-3.0v7 M-2.5,-0.5L0,-3.0L2.5,-0.5"/>
  </g>
  <g id="arrowDown" transform="rotate(180) translate(-30 -48)">
    <use xlink:href="#rim"/>
    <path pointer-events="none" fill="none" stroke="white" stroke-width="1.5" d="M0,-3.0v7 M-2.5,-0.5L0,-3.0L2.5,-0.5"/>
  </g>
  <g id="arrowLeft" transform="rotate(270) translate(-36 17)">
    <use xlink:href="#rim"/>
    <path pointer-events="none" fill="none" stroke="white" stroke-width="1.5" d="M0,-3.0v7 M-2.5,-0.5L0,-3.0L2.5,-0.5"/>
  </g>
  <g id="resetDef">
    <use xlink:href="#rim2" fill="#404040"><set attributeName="fill" to="#808080" begin="reset.mouseover" end="reset.mouseout"/></use>
  </g>
</defs>
<script type="application/ecmascript">
var viewWidth = 573;
var viewHeight = 138;
var sectionId = 'dynsection-5';
</script>
<script type="application/ecmascript" xlink:href="svg.min.js"/>
<svg id="graph" class="graph">
<g id="viewport">
<title>potr_health_thread_start</title>
<!-- Node1 -->
<g id="Node000001" class="node">
<title>Node1</title>
<g id="a_Node000001"><a xlink:title="ヘルスチェックスレッドを起動します。">
<polygon fill="#999999" stroke="#666666" points="97,-79.5 0,-79.5 0,-49.5 97,-49.5 97,-79.5"/>
<text text-anchor="start" x="8" y="-67.5" font-family="Helvetica,sans-Serif" font-size="10.00" fill="#000000">potr_health_thread</text>
<text text-anchor="middle" x="48.5" y="-56.5" font-family="Helvetica,sans-Serif" font-size="10.00" fill="#000000">_start</text>
</a>
</g>
</g>
<!-- Node2 -->
<g id="Node000002" class="node">
<title>Node2</title>
<g id="a_Node000002"><a xlink:href="potrHealthThread_8c.html#a7c706d98a6a4d22f8cc94b60698533c6" target="_top" xlink:title=" ">
<polygon fill="#ffffff" stroke="#666666" points="232,-74 133,-74 133,-55 232,-55 232,-74"/>
<text text-anchor="middle" x="182.5" y="-62" font-family="Helvetica,sans-Serif" font-size="10.00" fill="#000000">health_thread_func</text>
</a>
</g>
</g>
<!-- Node1&#45;&gt;Node2 -->
<g id="edge1_Node000001_Node000002" class="edge">
<title>Node1&#45;&gt;Node2</title>
<g id="a_edge1_Node000001_Node000002"><a xlink:title=" ">
<path fill="none" stroke="#63b8ff" d="M97.2561,-64.5C105.4491,-64.5 114.036,-64.5 122.4737,-64.5"/>
<polygon fill="#63b8ff" stroke="#63b8ff" points="122.6555,-68.0001 132.6554,-64.5 122.6554,-61.0001 122.6555,-68.0001"/>
</a>
</g>
</g>
<!-- Node3 -->
<g id="Node000003" class="node">
<title>Node3</title>
<g id="a_Node000003"><a xlink:href="potrHealthThread_8c.html#a98907ad6292bda01a6e3646c1d92b50f" target="_top" xlink:title=" ">
<polygon fill="#ffffff" stroke="#666666" points="355.5,-130 275.5,-130 275.5,-111 355.5,-111 355.5,-130"/>
<text text-anchor="middle" x="315.5" y="-118" font-family="Helvetica,sans-Serif" font-size="10.00" fill="#000000">health_get_ms</text>
</a>
</g>
</g>
<!-- Node2&#45;&gt;Node3 -->
<g id="edge2_Node000002_Node000003" class="edge">
<title>Node2&#45;&gt;Node3</title>
<g id="a_edge2_Node000002_Node000003"><a xlink:title=" ">
<path fill="none" stroke="#63b8ff" d="M203.0927,-74.0409C220.3246,-81.9308 245.6163,-93.2932 268,-102.5 271.7466,-104.041 275.6781,-105.6086 279.6074,-107.1436"/>
<polygon fill="#63b8ff" stroke="#63b8ff" points="278.6742,-110.5346 289.264,-110.8583 281.1874,-104.0013 278.6742,-110.5346"/>
</a>
</g>
</g>
<!-- Node4 -->
<g id="Node000004" class="node">
<title>Node4</title>
<g id="a_Node000004"><a xlink:href="potrHealthThread_8c.html#a142f92f00ffbf573f3ceede05d5020cb" target="_top" xlink:title=" ">
<polygon fill="#ffffff" stroke="#666666" points="351,-93 280,-93 280,-74 351,-74 351,-93"/>
<text text-anchor="middle" x="315.5" y="-81" font-family="Helvetica,sans-Serif" font-size="10.00" fill="#000000">health_sleep</text>
</a>
</g>
</g>
<!-- Node2&#45;&gt;Node4 -->
<g id="edge3_Node000002_Node000004" class="edge">
<title>Node2&#45;&gt;Node4</title>
<g id="a_edge3_Node000002_Node000004"><a xlink:title=" ">
<path fill="none" stroke="#63b8ff" d="M232.0243,-71.5749C244.3719,-73.3388 257.5564,-75.2223 269.7146,-76.9592"/>
<polygon fill="#63b8ff" stroke="#63b8ff" points="269.2507,-80.4284 279.6452,-78.3779 270.2407,-73.4988 269.2507,-80.4284"/>
</a>
</g>
</g>
<!-- Node5 -->
<g id="Node000005" class="node">
<title>Node5</title>
<g id="a_Node000005"><a xlink:href="packet_8c.html#a208f7dc4daa3e772a3f46ed3ab649a6f" target="_top" xlink:title="PING パケットを構築します。">
<polygon fill="#ffffff" stroke="#666666" points="363,-56 268,-56 268,-37 363,-37 363,-56"/>
<text text-anchor="middle" x="315.5" y="-44" font-family="Helvetica,sans-Serif" font-size="10.00" fill="#000000">packet_build_ping</text>
</a>
</g>
</g>
<!-- Node2&#45;&gt;Node5 -->
<g id="edge4_Node000002_Node000005" class="edge">
<title>Node2&#45;&gt;Node5</title>
<g id="a_edge4_Node000002_Node000005"><a xlink:title=" ">
<path fill="none" stroke="#63b8ff" d="M232.0243,-57.7975C240.4115,-56.6624 249.1847,-55.475 257.7602,-54.3144"/>
<polygon fill="#63b8ff" stroke="#63b8ff" points="258.261,-57.7786 267.7012,-52.969 257.3221,-50.8419 258.261,-57.7786"/>
</a>
</g>
</g>
<!-- Node8 -->
<g id="Node000008" class="node">
<title>Node8</title>
<g id="a_Node000008"><a xlink:href="packet_8c.html#aee7ebc74dbbe67fa4c9bcdced8dca70c" target="_top" xlink:title="パケットのヘッダー + ペイロードの合計バイト数を返します。">
<polygon fill="#ffffff" stroke="#666666" points="361.5,-19 269.5,-19 269.5,0 361.5,0 361.5,-19"/>
<text text-anchor="middle" x="315.5" y="-7" font-family="Helvetica,sans-Serif" font-size="10.00" fill="#000000">packet_wire_size</text>
</a>
</g>
</g>
<!-- Node2&#45;&gt;Node8 -->
<g id="edge7_Node000002_Node000008" class="edge">
<title>Node2&#45;&gt;Node8</title>
<g id="a_edge7_Node000002_Node000008"><a xlink:title=" ">
<path fill="none" stroke="#63b8ff" d="M204.9561,-54.9146C222.174,-47.5968 246.5448,-37.3071 268,-28.5 272.4883,-26.6576 277.2238,-24.7364 281.8968,-22.8539"/>
<polygon fill="#63b8ff" stroke="#63b8ff" points="283.3231,-26.0529 291.3015,-19.0818 280.7173,-19.556 283.3231,-26.0529"/>
</a>
</g>
</g>
<!-- Node6 -->
<g id="Node000006" class="node">
<title>Node6</title>
<g id="a_Node000006"><a xlink:href="packet_8c.html#a479088cf3b9ccf5ebe8891ad2881b196" target="_top" xlink:title=" ">
<polygon fill="#ffffff" stroke="#666666" points="483,-56 399,-56 399,-37 483,-37 483,-56"/>
<text text-anchor="middle" x="441" y="-44" font-family="Helvetica,sans-Serif" font-size="10.00" fill="#000000">fill_session_hdr</text>
</a>
</g>
</g>
<!-- Node5&#45;&gt;Node6 -->
<g id="edge5_Node000005_Node000006" class="edge">
<title>Node5&#45;&gt;Node6</title>
<g id="a_edge5_Node000005_Node000006"><a xlink:title=" ">
<path fill="none" stroke="#63b8ff" d="M363.3042,-46.5C371.5776,-46.5 380.2191,-46.5 388.6067,-46.5"/>
<polygon fill="#63b8ff" stroke="#63b8ff" points="388.67,-50.0001 398.67,-46.5 388.67,-43.0001 388.67,-50.0001"/>
</a>
</g>
</g>
<!-- Node7 -->
<g id="Node000007" class="node">
<title>Node7</title>
<g id="a_Node000007"><a xlink:href="packet_8c.html#a6564ae80f665edd6931ef662818e19b0" target="_top" xlink:title=" ">
<polygon fill="#ffffff" stroke="#666666" points="565,-56 519,-56 519,-37 565,-37 565,-56"/>
<text text-anchor="middle" x="542" y="-44" font-family="Helvetica,sans-Serif" font-size="10.00" fill="#000000">hton64</text>
</a>
</g>
</g>
<!-- Node6&#45;&gt;Node7 -->
<g id="edge6_Node000006_Node000007" class="edge">
<title>Node6&#45;&gt;Node7</title>
<g id="a_edge6_Node000006_Node000007"><a xlink:title=" ">
<path fill="none" stroke="#63b8ff" d="M483.2479,-46.5C491.7423,-46.5 500.5568,-46.5 508.6948,-46.5"/>
<polygon fill="#63b8ff" stroke="#63b8ff" points="508.9196,-50.0001 518.9196,-46.5 508.9195,-43.0001 508.9196,-50.0001"/>
</a>
</g>
</g>
</g>
</svg>

<g id="navigator" transform="translate(0 0)" fill="#404254">
  <rect fill="#f2f5e9" fill-opacity="0.5" stroke="#606060" stroke-width=".5" x="0" y="0" width="60" height="60"/>
  <use id="zoomplus" xlink:href="#zoomPlus" x="17" y="9" onmousedown="handleZoom(evt,'in')"/>
  <use id="zoomminus" xlink:href="#zoomMin" x="42" y="9" onmousedown="handleZoom(evt,'out')"/>
  <use id="reset" xlink:href="#resetDef" x="30" y="36" onmousedown="handleReset()"/>
   <use id="arrowup" xlink:href="#arrowUp" x="0" y="0" onmousedown="handlePan(0,-1)"/>
  <use id="arrowright" xlink:href="#arrowRight" x="0" y="0" onmousedown="handlePan(1,0)"/>
  <use id="arrowdown" xlink:href="#arrowDown" x="0" y="0" onmousedown="handlePan(0,1)"/>
  <use id="arrowleft" xlink:href="#arrowLeft" x="0" y="0" onmousedown="handlePan(-1,0)"/>
</g>
<svg viewBox="0 0 15 15" width="100%" height="30px" preserveAspectRatio="xMaxYMin meet">
 <g id="arrow_out" transform="scale(0.3 0.3)">
  <a xlink:href="potrHealthThread_8c_a8545c91db5b627eed4bf0b82280d661c_cgraph_org.svg" target="_base">
   <rect id="button" ry="5" rx="5" y="6" x="6" height="38" width="38"
        fill="#f2f5e9" fill-opacity="0.5" stroke="#606060" stroke-width="1.0"/>
   <path id="arrow"
     d="M 11.500037,31.436501 C 11.940474,20.09759 22.043105,11.32322 32.158766,21.979434 L 37.068811,17.246167 C 37.068811,17.246167 37.088388,32 37.088388,32 L 22.160133,31.978069 C 22.160133,31.978069 26.997745,27.140456 26.997745,27.140456 C 18.528582,18.264221 13.291696,25.230495 11.500037,31.436501 z"
     style="fill:#404040;"/>
  </a>
 </g>
</svg>

<style type='text/css'>
<![CDATA[
[data-mouse-over-selected='false'] { opacity: 0.7; }
[data-mouse-over-selected='true']  { opacity: 1.0; }
]]>
</style>
<script type="application/ecmascript"><![CDATA[
document.addEventListener('DOMContentLoaded', (event) => {
  highlightEdges();
  highlightAdjacentNodes();
});
]]></script>
</svg>
