<?xml version="1.0" encoding="UTF-8" standalone="no"?>
<!DOCTYPE svg PUBLIC "-//W3C//DTD SVG 1.1//EN"
 "http://www.w3.org/Graphics/SVG/1.1/DTD/svg11.dtd">
<!-- Generated by graphviz version 2.40.1 (0)
 -->
<!-- Title: recv_thread_func Pages: 1 -->
<svg width="403pt" height="249pt"
 viewBox="0.00 0.00 403.00 249.00" xmlns="http://www.w3.org/2000/svg" xmlns:xlink="http://www.w3.org/1999/xlink">

<svg id="main" version="1.1" xmlns="http://www.w3.org/2000/svg" xmlns:xlink="http://www.w3.org/1999/xlink" xml:space="preserve">

<style type="text/css"><![CDATA[
.node, .edge {opacity: 0.7;}
.node.selected, .edge.selected {opacity: 1;}
.edge:hover path { stroke: red; }
.edge:hover polygon { stroke: red; fill: red; }
]]></style>
<script type="application/ecmascript" xlink:href="svg.min.js"/>
<svg id="graph" class="graph">
<g id="graph0" class="graph" transform="scale(1 1) rotate(0) translate(4 245)">
<title>recv_thread_func</title>
<!-- Node1 -->
<g id="Node000001" class="node">
<title>Node1</title>
<g id="a_Node000001"><a xlink:title=" ">
<polygon fill="#999999" stroke="#666666" points="92,-130 0,-130 0,-111 92,-111 92,-130"/>
<text text-anchor="middle" x="46" y="-118" font-family="Helvetica,sans-Serif" font-size="10.00" fill="#000000">recv_thread_func</text>
</a>
</g>
</g>
<!-- Node2 -->
<g id="Node000002" class="node">
<title>Node2</title>
<g id="a_Node000002"><a xlink:href="packet_8c.html#a15889622b4af9f2ad1d7f3269532dc6f" target="_top" xlink:title="受信バイト列をパケット構造体に解析します。">
<polygon fill="#ffffff" stroke="#666666" points="230.5,-241 155.5,-241 155.5,-222 230.5,-222 230.5,-241"/>
<text text-anchor="middle" x="193" y="-229" font-family="Helvetica,sans-Serif" font-size="10.00" fill="#000000">packet_parse</text>
</a>
</g>
</g>
<!-- Node1&#45;&gt;Node2 -->
<g id="edge1_Node000001_Node000002" class="edge">
<title>Node1&#45;&gt;Node2</title>
<g id="a_edge1_Node000001_Node000002"><a xlink:title=" ">
<path fill="none" stroke="#63b8ff" d="M51.6877,-130.0318C63.4652,-148.9284 92.4178,-191.2332 128,-213.5 133.4066,-216.8834 139.4551,-219.6419 145.6275,-221.8882"/>
<polygon fill="#63b8ff" stroke="#63b8ff" points="144.7634,-225.2867 155.3547,-225.0128 146.9043,-218.6221 144.7634,-225.2867"/>
</a>
</g>
</g>
<!-- Node3 -->
<g id="Node000003" class="node">
<title>Node3</title>
<g id="a_Node000003"><a xlink:href="potrRecvThread_8c.html#a6c210bf450de8b4bc7b00a665ab436f9" target="_top" xlink:title=" ">
<polygon fill="#ffffff" stroke="#666666" points="227.5,-204 158.5,-204 158.5,-185 227.5,-185 227.5,-204"/>
<text text-anchor="middle" x="193" y="-192" font-family="Helvetica,sans-Serif" font-size="10.00" fill="#000000">recv_deliver</text>
</a>
</g>
</g>
<!-- Node1&#45;&gt;Node3 -->
<g id="edge2_Node000001_Node000003" class="edge">
<title>Node1&#45;&gt;Node3</title>
<g id="a_edge2_Node000001_Node000003"><a xlink:title=" ">
<path fill="none" stroke="#63b8ff" d="M57.4756,-130.168C72.6887,-142.5373 100.7932,-163.8685 128,-176.5 134.3508,-179.4485 141.2811,-182.0017 148.1738,-184.1833"/>
<polygon fill="#63b8ff" stroke="#63b8ff" points="147.5926,-187.6603 158.1735,-187.1166 149.563,-180.9433 147.5926,-187.6603"/>
</a>
</g>
</g>
<!-- Node5 -->
<g id="Node000005" class="node">
<title>Node5</title>
<g id="a_Node000005"><a xlink:href="potrRecvThread_8c.html#abc16a3b58a39e0842eab75e0e4a2ff82" target="_top" xlink:title=" ">
<polygon fill="#ffffff" stroke="#666666" points="225,-167 161,-167 161,-148 225,-148 225,-167"/>
<text text-anchor="middle" x="193" y="-155" font-family="Helvetica,sans-Serif" font-size="10.00" fill="#000000">send_nack</text>
</a>
</g>
</g>
<!-- Node1&#45;&gt;Node5 -->
<g id="edge4_Node000001_Node000005" class="edge">
<title>Node1&#45;&gt;Node5</title>
<g id="a_edge4_Node000001_Node000005"><a xlink:title=" ">
<path fill="none" stroke="#63b8ff" d="M83.8562,-130.0284C104.3258,-135.1806 129.662,-141.5578 150.7694,-146.8705"/>
<polygon fill="#63b8ff" stroke="#63b8ff" points="150.1997,-150.3362 160.7516,-149.3831 151.9084,-143.548 150.1997,-150.3362"/>
</a>
</g>
</g>
<!-- Node7 -->
<g id="Node000007" class="node">
<title>Node7</title>
<g id="a_Node000007"><a xlink:href="window_8c.html#a6ecfb9f52ac33918ba6f8cd0386b17c2" target="_top" xlink:title="受信ウィンドウで欠番が発生しているか確認し、NACK 番号を返します。">
<polygon fill="#ffffff" stroke="#666666" points="258,-93 128,-93 128,-74 258,-74 258,-93"/>
<text text-anchor="middle" x="193" y="-81" font-family="Helvetica,sans-Serif" font-size="10.00" fill="#000000">window_recv_needs_nack</text>
</a>
</g>
</g>
<!-- Node1&#45;&gt;Node7 -->
<g id="edge6_Node000001_Node000007" class="edge">
<title>Node1&#45;&gt;Node7</title>
<g id="a_edge6_Node000001_Node000007"><a xlink:title=" ">
<path fill="none" stroke="#63b8ff" d="M83.8562,-110.9716C102.5589,-106.2641 125.3245,-100.534 145.215,-95.5275"/>
<polygon fill="#63b8ff" stroke="#63b8ff" points="146.1737,-98.8955 155.0169,-93.0604 144.4651,-92.1072 146.1737,-98.8955"/>
</a>
</g>
</g>
<!-- Node9 -->
<g id="Node000009" class="node">
<title>Node9</title>
<g id="a_Node000009"><a xlink:href="window_8c.html#a883a182a547ff084957069939b131527" target="_top" xlink:title="受信ウィンドウから順序整列済みパケットを取り出します。">
<polygon fill="#ffffff" stroke="#666666" points="239.5,-130 146.5,-130 146.5,-111 239.5,-111 239.5,-130"/>
<text text-anchor="middle" x="193" y="-118" font-family="Helvetica,sans-Serif" font-size="10.00" fill="#000000">window_recv_pop</text>
</a>
</g>
</g>
<!-- Node1&#45;&gt;Node9 -->
<g id="edge8_Node000001_Node000009" class="edge">
<title>Node1&#45;&gt;Node9</title>
<g id="a_edge8_Node000001_Node000009"><a xlink:title=" ">
<path fill="none" stroke="#63b8ff" d="M92.1084,-120.5C105.9981,-120.5 121.4107,-120.5 135.9231,-120.5"/>
<polygon fill="#63b8ff" stroke="#63b8ff" points="136.2966,-124.0001 146.2966,-120.5 136.2965,-117.0001 136.2966,-124.0001"/>
</a>
</g>
</g>
<!-- Node10 -->
<g id="Node000010" class="node">
<title>Node10</title>
<g id="a_Node000010"><a xlink:href="window_8c.html#ac134e864859663f32389cf30fe55bc6e" target="_top" xlink:title="受信ウィンドウにパケットを格納します。">
<polygon fill="#ffffff" stroke="#666666" points="242,-19 144,-19 144,0 242,0 242,-19"/>
<text text-anchor="middle" x="193" y="-7" font-family="Helvetica,sans-Serif" font-size="10.00" fill="#000000">window_recv_push</text>
</a>
</g>
</g>
<!-- Node1&#45;&gt;Node10 -->
<g id="edge10_Node000001_Node000010" class="edge">
<title>Node1&#45;&gt;Node10</title>
<g id="a_edge10_Node000001_Node000010"><a xlink:title=" ">
<path fill="none" stroke="#63b8ff" d="M51.9251,-110.827C63.9132,-92.0746 92.9118,-50.6747 128,-28.5 131.3155,-26.4047 134.8706,-24.5329 138.5466,-22.8618"/>
<polygon fill="#63b8ff" stroke="#63b8ff" points="139.8972,-26.0912 147.8657,-19.1087 137.2821,-19.598 139.8972,-26.0912"/>
</a>
</g>
</g>
<!-- Node12 -->
<g id="Node000012" class="node">
<title>Node12</title>
<g id="a_Node000012"><a xlink:href="window_8c.html#aa3c39809a6b6c7275a2539d6edf95036" target="_top" xlink:title="ACK を処理して送信ウィンドウを前進させます。">
<polygon fill="#ffffff" stroke="#666666" points="240.5,-56 145.5,-56 145.5,-37 240.5,-37 240.5,-56"/>
<text text-anchor="middle" x="193" y="-44" font-family="Helvetica,sans-Serif" font-size="10.00" fill="#000000">window_send_ack</text>
</a>
</g>
</g>
<!-- Node1&#45;&gt;Node12 -->
<g id="edge13_Node000001_Node000012" class="edge">
<title>Node1&#45;&gt;Node12</title>
<g id="a_edge13_Node000001_Node000012"><a xlink:title=" ">
<path fill="none" stroke="#63b8ff" d="M57.799,-110.8675C73.1345,-98.7663 101.139,-78.0669 128,-65.5 132.9252,-63.1957 138.1924,-61.1039 143.5172,-59.223"/>
<polygon fill="#63b8ff" stroke="#63b8ff" points="144.7002,-62.5184 153.1027,-56.0648 142.5096,-55.8699 144.7002,-62.5184"/>
</a>
</g>
</g>
<!-- Node4 -->
<g id="Node000004" class="node">
<title>Node4</title>
<g id="a_Node000004"><a xlink:href="compress__linux_8c.html#a9b4c1ab5034e8a243544747d2efdcd21" target="_top" xlink:title="圧縮データを解凍します。">
<polygon fill="#ffffff" stroke="#666666" points="390.5,-204 298.5,-204 298.5,-185 390.5,-185 390.5,-204"/>
<text text-anchor="middle" x="344.5" y="-192" font-family="Helvetica,sans-Serif" font-size="10.00" fill="#000000">potr_decompress</text>
</a>
</g>
</g>
<!-- Node3&#45;&gt;Node4 -->
<g id="edge3_Node000003_Node000004" class="edge">
<title>Node3&#45;&gt;Node4</title>
<g id="a_edge3_Node000003_Node000004"><a xlink:title=" ">
<path fill="none" stroke="#63b8ff" d="M227.7572,-194.5C245.6931,-194.5 268.0169,-194.5 288.3252,-194.5"/>
<polygon fill="#63b8ff" stroke="#63b8ff" points="288.4151,-198.0001 298.4151,-194.5 288.415,-191.0001 288.4151,-198.0001"/>
</a>
</g>
</g>
<!-- Node6 -->
<g id="Node000006" class="node">
<title>Node6</title>
<g id="a_Node000006"><a xlink:href="packet_8c.html#aaf155f7d2936ffa8015eddaddd1d96be" target="_top" xlink:title="NACK パケットを構築します。">
<polygon fill="#ffffff" stroke="#666666" points="393.5,-167 295.5,-167 295.5,-148 393.5,-148 393.5,-167"/>
<text text-anchor="middle" x="344.5" y="-155" font-family="Helvetica,sans-Serif" font-size="10.00" fill="#000000">packet_build_nack</text>
</a>
</g>
</g>
<!-- Node5&#45;&gt;Node6 -->
<g id="edge5_Node000005_Node000006" class="edge">
<title>Node5&#45;&gt;Node6</title>
<g id="a_edge5_Node000005_Node000006"><a xlink:title=" ">
<path fill="none" stroke="#63b8ff" d="M225.1293,-157.5C242.5908,-157.5 264.7435,-157.5 285.2113,-157.5"/>
<polygon fill="#63b8ff" stroke="#63b8ff" points="285.4104,-161.0001 295.4104,-157.5 285.4104,-154.0001 285.4104,-161.0001"/>
</a>
</g>
</g>
<!-- Node8 -->
<g id="Node000008" class="node">
<title>Node8</title>
<g id="a_Node000008"><a xlink:href="window_8c.html#ad5f53882d6cd6075a78e83b94fb62cc3" target="_top" xlink:title=" ">
<polygon fill="#ffffff" stroke="#666666" points="374,-84 315,-84 315,-65 374,-65 374,-84"/>
<text text-anchor="middle" x="344.5" y="-72" font-family="Helvetica,sans-Serif" font-size="10.00" fill="#000000">win_index</text>
</a>
</g>
</g>
<!-- Node7&#45;&gt;Node8 -->
<g id="edge7_Node000007_Node000008" class="edge">
<title>Node7&#45;&gt;Node8</title>
<g id="a_edge7_Node000007_Node000008"><a xlink:title=" ">
<path fill="none" stroke="#63b8ff" d="M258.1289,-79.631C273.8503,-78.697 290.1944,-77.7261 304.3798,-76.8834"/>
<polygon fill="#63b8ff" stroke="#63b8ff" points="304.9857,-80.3536 314.7605,-76.2667 304.5705,-73.366 304.9857,-80.3536"/>
</a>
</g>
</g>
<!-- Node9&#45;&gt;Node8 -->
<g id="edge9_Node000009_Node000008" class="edge">
<title>Node9&#45;&gt;Node8</title>
<g id="a_edge9_Node000009_Node000008"><a xlink:title=" ">
<path fill="none" stroke="#63b8ff" d="M228.5007,-110.9655C238.0988,-108.307 248.4672,-105.3614 258,-102.5 273.9981,-97.698 291.5502,-92.0816 306.6381,-87.1447"/>
<polygon fill="#63b8ff" stroke="#63b8ff" points="307.7504,-90.4634 316.156,-84.0139 305.5631,-83.8139 307.7504,-90.4634"/>
</a>
</g>
</g>
<!-- Node10&#45;&gt;Node8 -->
<g id="edge12_Node000010_Node000008" class="edge">
<title>Node10&#45;&gt;Node8</title>
<g id="a_edge12_Node000010_Node000008"><a xlink:title=" ">
<path fill="none" stroke="#63b8ff" d="M230.5717,-19.0651C239.674,-21.7687 249.2885,-24.954 258,-28.5 269.8703,-33.3318 297.7402,-48.4154 318.6593,-60.0066"/>
<polygon fill="#63b8ff" stroke="#63b8ff" points="316.9751,-63.0747 327.4153,-64.8784 320.3786,-56.9578 316.9751,-63.0747"/>
</a>
</g>
</g>
<!-- Node11 -->
<g id="Node000011" class="node">
<title>Node11</title>
<g id="a_Node000011"><a xlink:href="seqnum_8c.html#a45fcfa48b2d66889a5b9b8f63650336a" target="_top" xlink:title="通番 seq がウィンドウ [base, base + window_size) に含まれるか判定します。">
<polygon fill="#ffffff" stroke="#666666" points="395,-37 294,-37 294,-18 395,-18 395,-37"/>
<text text-anchor="middle" x="344.5" y="-25" font-family="Helvetica,sans-Serif" font-size="10.00" fill="#000000">seqnum_in_window</text>
</a>
</g>
</g>
<!-- Node10&#45;&gt;Node11 -->
<g id="edge11_Node000010_Node000011" class="edge">
<title>Node10&#45;&gt;Node11</title>
<g id="a_edge11_Node000010_Node000011"><a xlink:title=" ">
<path fill="none" stroke="#63b8ff" d="M242.1877,-15.3441C255.3381,-16.9065 269.7114,-18.6142 283.4185,-20.2428"/>
<polygon fill="#63b8ff" stroke="#63b8ff" points="283.396,-23.7647 293.7391,-21.469 284.222,-16.8135 283.396,-23.7647"/>
</a>
</g>
</g>
<!-- Node12&#45;&gt;Node8 -->
<g id="edge15_Node000012_Node000008" class="edge">
<title>Node12&#45;&gt;Node8</title>
<g id="a_edge15_Node000012_Node000008"><a xlink:title=" ">
<path fill="none" stroke="#63b8ff" d="M240.5199,-55.2826C261.2108,-59.1066 285.181,-63.5368 304.8887,-67.1791"/>
<polygon fill="#63b8ff" stroke="#63b8ff" points="304.2966,-70.6289 314.7662,-69.0046 305.5688,-63.7454 304.2966,-70.6289"/>
</a>
</g>
</g>
<!-- Node12&#45;&gt;Node11 -->
<g id="edge14_Node000012_Node000011" class="edge">
<title>Node12&#45;&gt;Node11</title>
<g id="a_edge14_Node000012_Node000011"><a xlink:title=" ">
<path fill="none" stroke="#63b8ff" d="M240.5199,-40.5404C254.1365,-38.8327 269.1732,-36.9469 283.4807,-35.1526"/>
<polygon fill="#63b8ff" stroke="#63b8ff" points="284.2524,-38.5833 293.7391,-33.866 283.3813,-31.6377 284.2524,-38.5833"/>
</a>
</g>
</g>
</g>
</svg>
</svg>

<style type='text/css'>
<![CDATA[
[data-mouse-over-selected='false'] { opacity: 0.7; }
[data-mouse-over-selected='true']  { opacity: 1.0; }
]]>
</style>
<script type="application/ecmascript"><![CDATA[
document.addEventListener('DOMContentLoaded', (event) => {
  highlightEdges();
  highlightAdjacentNodes();
});
]]></script>
</svg>
