<?xml version="1.0" encoding="UTF-8" standalone="no"?>
<!DOCTYPE svg PUBLIC "-//W3C//DTD SVG 1.1//EN"
 "http://www.w3.org/Graphics/SVG/1.1/DTD/svg11.dtd">
<!-- Generated by graphviz version 2.40.1 (0)
 -->
<!-- Title: potr_send_thread_start Pages: 1 -->
<!--zoomable 300 -->

<svg id="main" version="1.1" xmlns="http://www.w3.org/2000/svg" xmlns:xlink="http://www.w3.org/1999/xlink" xml:space="preserve" onload="init(evt)">

<style type="text/css"><![CDATA[
.node, .edge {opacity: 0.7;}
.node.selected, .edge.selected {opacity: 1;}
.edge:hover path { stroke: red; }
.edge:hover polygon { stroke: red; fill: red; }
]]></style>

<defs>
  <circle id="rim" cx="0" cy="0" r="7"/>
  <circle id="rim2" cx="0" cy="0" r="3.5"/>
  <g id="zoomPlus">
    <use xlink:href="#rim" fill="#404040"><set attributeName="fill" to="#808080" begin="zoomplus.mouseover" end="zoomplus.mouseout"/></use>
    <path d="M-4,0h8M0,-4v8" fill="none" stroke="white" stroke-width="1.5" pointer-events="none"/>
  </g>
  <g id="zoomMin">
    <use xlink:href="#rim" fill="#404040"><set attributeName="fill" to="#808080" begin="zoomminus.mouseover" end="zoomminus.mouseout"/></use>
    <path d="M-4,0h8" fill="none" stroke="white" stroke-width="1.5" pointer-events="none"/>
  </g>
  <g id="arrowUp" transform="translate(30 24)">
    <use xlink:href="#rim"/>
    <path pointer-events="none" fill="none" stroke="white" stroke-width="1.5" d="M0,-3.0v7 M-2.5,-0.5L0,-3.0L2.5,-0.5"/>
  </g>
  <g id="arrowRight" transform="rotate(90) translate(36 -43)">
    <use xlink:href="#rim"/>
    <path pointer-events="none" fill="none" stroke="white" stroke-width="1.5" d="M0,-3.0v7 M-2.5,-0.5L0,-3.0L2.5,-0.5"/>
  </g>
  <g id="arrowDown" transform="rotate(180) translate(-30 -48)">
    <use xlink:href="#rim"/>
    <path pointer-events="none" fill="none" stroke="white" stroke-width="1.5" d="M0,-3.0v7 M-2.5,-0.5L0,-3.0L2.5,-0.5"/>
  </g>
  <g id="arrowLeft" transform="rotate(270) translate(-36 17)">
    <use xlink:href="#rim"/>
    <path pointer-events="none" fill="none" stroke="white" stroke-width="1.5" d="M0,-3.0v7 M-2.5,-0.5L0,-3.0L2.5,-0.5"/>
  </g>
  <g id="resetDef">
    <use xlink:href="#rim2" fill="#404040"><set attributeName="fill" to="#808080" begin="reset.mouseover" end="reset.mouseout"/></use>
  </g>
</defs>
<script type="application/ecmascript">
var viewWidth = 780;
var viewHeight = 300;
var sectionId = 'dynsection-2';
</script>
<script type="application/ecmascript" xlink:href="svg.min.js"/>
<svg id="graph" class="graph">
<g id="viewport">
<title>potr_send_thread_start</title>
<!-- Node1 -->
<g id="Node000001" class="node">
<title>Node1</title>
<g id="a_Node000001"><a xlink:title=" ">
<polygon fill="#999999" stroke="#666666" points="116,-160 0,-160 0,-141 116,-141 116,-160"/>
<text text-anchor="middle" x="58" y="-148" font-family="Helvetica,sans-Serif" font-size="10.00" fill="#000000">potr_send_thread_start</text>
</a>
</g>
</g>
<!-- Node2 -->
<g id="Node000002" class="node">
<title>Node2</title>
<g id="a_Node000002"><a xlink:href="potrSendThread_8c.html#a73c68e6c27f4228dd3e7bfdf470d9a6f" target="_top" xlink:title=" ">
<polygon fill="#ffffff" stroke="#666666" points="246,-160 152,-160 152,-141 246,-141 246,-160"/>
<text text-anchor="middle" x="199" y="-148" font-family="Helvetica,sans-Serif" font-size="10.00" fill="#000000">send_thread_func</text>
</a>
</g>
</g>
<!-- Node1&#45;&gt;Node2 -->
<g id="edge1_Node000001_Node000002" class="edge">
<title>Node1&#45;&gt;Node2</title>
<g id="a_edge1_Node000001_Node000002"><a xlink:title=" ">
<path fill="none" stroke="#63b8ff" d="M116.1642,-150.5C124.5774,-150.5 133.2326,-150.5 141.6302,-150.5"/>
<polygon fill="#63b8ff" stroke="#63b8ff" points="141.712,-154.0001 151.712,-150.5 141.712,-147.0001 141.712,-154.0001"/>
</a>
</g>
</g>
<!-- Node3 -->
<g id="Node000003" class="node">
<title>Node3</title>
<g id="a_Node000003"><a xlink:href="potrSendThread_8c.html#a071263257ea1725404c4a69fa37735da" target="_top" xlink:title=" ">
<polygon fill="#ffffff" stroke="#666666" points="406.5,-292 293.5,-292 293.5,-273 406.5,-273 406.5,-292"/>
<text text-anchor="middle" x="350" y="-280" font-family="Helvetica,sans-Serif" font-size="10.00" fill="#000000">append_payload_elem</text>
</a>
</g>
</g>
<!-- Node2&#45;&gt;Node3 -->
<g id="edge2_Node000002_Node000003" class="edge">
<title>Node2&#45;&gt;Node3</title>
<g id="a_edge2_Node000002_Node000003"><a xlink:title=" ">
<path fill="none" stroke="#63b8ff" d="M203.8461,-160.0695C214.8816,-180.9373 243.9041,-230.8739 282,-258.5 287.8529,-262.7444 294.5256,-266.2951 301.3504,-269.2492"/>
<polygon fill="#63b8ff" stroke="#63b8ff" points="300.1011,-272.5188 310.6884,-272.9168 302.6601,-266.0033 300.1011,-272.5188"/>
</a>
</g>
</g>
<!-- Node4 -->
<g id="Node000004" class="node">
<title>Node4</title>
<g id="a_Node000004"><a xlink:href="potrSendThread_8c.html#a260e2ab6373553aa61c9a71e9901ff46" target="_top" xlink:title=" ">
<polygon fill="#ffffff" stroke="#666666" points="387,-216 313,-216 313,-197 387,-197 387,-216"/>
<text text-anchor="middle" x="350" y="-204" font-family="Helvetica,sans-Serif" font-size="10.00" fill="#000000">flush_packed</text>
</a>
</g>
</g>
<!-- Node2&#45;&gt;Node4 -->
<g id="edge3_Node000002_Node000004" class="edge">
<title>Node2&#45;&gt;Node4</title>
<g id="a_edge3_Node000002_Node000004"><a xlink:title=" ">
<path fill="none" stroke="#63b8ff" d="M218.4552,-160.1506C235.0674,-168.1526 259.7367,-179.4765 282,-187.5 288.8181,-189.9572 296.1141,-192.2929 303.3034,-194.4321"/>
<polygon fill="#63b8ff" stroke="#63b8ff" points="302.4081,-197.8164 312.9861,-197.2203 304.3452,-191.0897 302.4081,-197.8164"/>
</a>
</g>
</g>
<!-- Node5 -->
<g id="Node000005" class="node">
<title>Node5</title>
<g id="a_Node000005"><a xlink:href="potrSendThread_8c.html#add6449980c94371f0df31387da6fa642" target="_top" xlink:title=" ">
<polygon fill="#ffffff" stroke="#666666" points="532.5,-254 483.5,-254 483.5,-235 532.5,-235 532.5,-254"/>
<text text-anchor="middle" x="508" y="-242" font-family="Helvetica,sans-Serif" font-size="10.00" fill="#000000">get_ms</text>
</a>
</g>
</g>
<!-- Node2&#45;&gt;Node5 -->
<g id="edge12_Node000002_Node000005" class="edge">
<title>Node2&#45;&gt;Node5</title>
<g id="a_edge12_Node000002_Node000005"><a xlink:title=" ">
<path fill="none" stroke="#63b8ff" d="M206.1602,-160.2207C219.1341,-176.9736 248.3265,-210.8908 282,-225.5 345.1686,-252.9056 427.4967,-251.735 473.3304,-248.2413"/>
<polygon fill="#63b8ff" stroke="#63b8ff" points="473.6805,-251.7243 483.3505,-247.395 473.0913,-244.7491 473.6805,-251.7243"/>
</a>
</g>
</g>
<!-- Node13 -->
<g id="Node000013" class="node">
<title>Node13</title>
<g id="a_Node000013"><a xlink:href="potrSendQueue_8c.html#a458ccbc2cfa29875c0cdd383dc02ec07" target="_top" xlink:title=" ">
<polygon fill="#ffffff" stroke="#666666" points="418,-179 282,-179 282,-160 418,-160 418,-179"/>
<text text-anchor="middle" x="350" y="-167" font-family="Helvetica,sans-Serif" font-size="10.00" fill="#000000">potr_send_queue_complete</text>
</a>
</g>
</g>
<!-- Node2&#45;&gt;Node13 -->
<g id="edge13_Node000002_Node000013" class="edge">
<title>Node2&#45;&gt;Node13</title>
<g id="a_edge13_Node000002_Node000013"><a xlink:title=" ">
<path fill="none" stroke="#63b8ff" d="M246.363,-156.4596C254.4445,-157.4765 263.0279,-158.5565 271.6609,-159.6428"/>
<polygon fill="#63b8ff" stroke="#63b8ff" points="271.4322,-163.1415 281.7909,-160.9174 272.3061,-156.1963 271.4322,-163.1415"/>
</a>
</g>
</g>
<!-- Node14 -->
<g id="Node000014" class="node">
<title>Node14</title>
<g id="a_Node000014"><a xlink:href="potrSendQueue_8c.html#a85bee3d59492ac3b4ed8f2dabd101d6a" target="_top" xlink:title=" ">
<polygon fill="#ffffff" stroke="#666666" points="408.5,-142 291.5,-142 291.5,-123 408.5,-123 408.5,-142"/>
<text text-anchor="middle" x="350" y="-130" font-family="Helvetica,sans-Serif" font-size="10.00" fill="#000000">potr_send_queue_peek</text>
</a>
</g>
</g>
<!-- Node2&#45;&gt;Node14 -->
<g id="edge14_Node000002_Node000014" class="edge">
<title>Node2&#45;&gt;Node14</title>
<g id="a_edge14_Node000002_Node000014"><a xlink:title=" ">
<path fill="none" stroke="#63b8ff" d="M246.363,-144.8541C257.4008,-143.5383 269.3748,-142.111 281.1326,-140.7094"/>
<polygon fill="#63b8ff" stroke="#63b8ff" points="281.8651,-144.1469 291.3805,-139.4878 281.0365,-137.1961 281.8651,-144.1469"/>
</a>
</g>
</g>
<!-- Node15 -->
<g id="Node000015" class="node">
<title>Node15</title>
<g id="a_Node000015"><a xlink:href="potrSendQueue_8c.html#a5ed67f7c2e47cd353cba9332312d0434" target="_top" xlink:title=" ">
<polygon fill="#ffffff" stroke="#666666" points="408.5,-104.5 291.5,-104.5 291.5,-74.5 408.5,-74.5 408.5,-104.5"/>
<text text-anchor="start" x="299.5" y="-92.5" font-family="Helvetica,sans-Serif" font-size="10.00" fill="#000000">potr_send_queue_peek</text>
<text text-anchor="middle" x="350" y="-81.5" font-family="Helvetica,sans-Serif" font-size="10.00" fill="#000000">_timed</text>
</a>
</g>
</g>
<!-- Node2&#45;&gt;Node15 -->
<g id="edge15_Node000002_Node000015" class="edge">
<title>Node2&#45;&gt;Node15</title>
<g id="a_edge15_Node000002_Node000015"><a xlink:title=" ">
<path fill="none" stroke="#63b8ff" d="M219.2717,-140.917C235.9583,-133.1615 260.3103,-122.146 282,-113.5 286.4882,-111.7109 291.1686,-109.9158 295.8813,-108.1571"/>
<polygon fill="#63b8ff" stroke="#63b8ff" points="297.3652,-111.341 305.5488,-104.612 294.9551,-104.7689 297.3652,-111.341"/>
</a>
</g>
</g>
<!-- Node16 -->
<g id="Node000016" class="node">
<title>Node16</title>
<g id="a_Node000016"><a xlink:href="potrSendQueue_8c.html#a527d9e5acbec5ca38349cfcef5fffafa" target="_top" xlink:title=" ">
<polygon fill="#ffffff" stroke="#666666" points="406,-56 294,-56 294,-37 406,-37 406,-56"/>
<text text-anchor="middle" x="350" y="-44" font-family="Helvetica,sans-Serif" font-size="10.00" fill="#000000">potr_send_queue_pop</text>
</a>
</g>
</g>
<!-- Node2&#45;&gt;Node16 -->
<g id="edge16_Node000002_Node000016" class="edge">
<title>Node2&#45;&gt;Node16</title>
<g id="a_edge16_Node000002_Node000016"><a xlink:title=" ">
<path fill="none" stroke="#63b8ff" d="M205.7805,-140.727C218.5867,-123.0131 248.1078,-85.581 282,-65.5 285.6778,-63.3209 289.6155,-61.3829 293.6741,-59.6608"/>
<polygon fill="#63b8ff" stroke="#63b8ff" points="295.182,-62.8326 303.2981,-56.0223 292.7065,-56.2849 295.182,-62.8326"/>
</a>
</g>
</g>
<!-- Node17 -->
<g id="Node000017" class="node">
<title>Node17</title>
<g id="a_Node000017"><a xlink:href="potrSendQueue_8c.html#a9c6fa4e2e1a8775e220623020d191611" target="_top" xlink:title=" ">
<polygon fill="#ffffff" stroke="#666666" points="414,-19 286,-19 286,0 414,0 414,-19"/>
<text text-anchor="middle" x="350" y="-7" font-family="Helvetica,sans-Serif" font-size="10.00" fill="#000000">potr_send_queue_try_pop</text>
</a>
</g>
</g>
<!-- Node2&#45;&gt;Node17 -->
<g id="edge17_Node000002_Node000017" class="edge">
<title>Node2&#45;&gt;Node17</title>
<g id="a_edge17_Node000002_Node000017"><a xlink:title=" ">
<path fill="none" stroke="#63b8ff" d="M202.7188,-140.7629C212.1609,-117.3881 239.3767,-57.7993 282,-27.5 284.0902,-26.0141 286.2951,-24.6509 288.5818,-23.4002"/>
<polygon fill="#63b8ff" stroke="#63b8ff" points="290.1657,-26.5233 297.7375,-19.1126 287.1969,-20.184 290.1657,-26.5233"/>
</a>
</g>
</g>
<!-- Node4&#45;&gt;Node5 -->
<g id="edge4_Node000004_Node000005" class="edge">
<title>Node4&#45;&gt;Node5</title>
<g id="a_edge4_Node000004_Node000005"><a xlink:title=" ">
<path fill="none" stroke="#63b8ff" d="M387.044,-215.4093C413.1781,-221.6947 447.9419,-230.0556 473.4923,-236.2007"/>
<polygon fill="#63b8ff" stroke="#63b8ff" points="472.9406,-239.6677 483.4818,-238.6032 474.5775,-232.8618 472.9406,-239.6677"/>
</a>
</g>
</g>
<!-- Node6 -->
<g id="Node000006" class="node">
<title>Node6</title>
<g id="a_Node000006"><a xlink:href="packet_8c.html#a0f1ece40d194d02905f9ebfa68cac012" target="_top" xlink:title="データパケット (パックコンテナ) を構築します。">
<polygon fill="#ffffff" stroke="#666666" points="562,-217 454,-217 454,-198 562,-198 562,-217"/>
<text text-anchor="middle" x="508" y="-205" font-family="Helvetica,sans-Serif" font-size="10.00" fill="#000000">packet_build_packed</text>
</a>
</g>
</g>
<!-- Node4&#45;&gt;Node6 -->
<g id="edge5_Node000004_Node000006" class="edge">
<title>Node4&#45;&gt;Node6</title>
<g id="a_edge5_Node000004_Node000006"><a xlink:title=" ">
<path fill="none" stroke="#63b8ff" d="M387.044,-206.7345C403.8988,-206.8411 424.343,-206.9705 443.5902,-207.0923"/>
<polygon fill="#63b8ff" stroke="#63b8ff" points="443.802,-210.5937 453.824,-207.1571 443.8464,-203.5938 443.802,-210.5937"/>
</a>
</g>
</g>
<!-- Node9 -->
<g id="Node000009" class="node">
<title>Node9</title>
<g id="a_Node000009"><a xlink:href="crypto__linux_8c.html#a379b176a834b6fb61d80039e32eebf73" target="_top" xlink:title="AES&#45;256&#45;GCM でデータを暗号化します。">
<polygon fill="#ffffff" stroke="#666666" points="543.5,-180 472.5,-180 472.5,-161 543.5,-161 543.5,-180"/>
<text text-anchor="middle" x="508" y="-168" font-family="Helvetica,sans-Serif" font-size="10.00" fill="#000000">potr_encrypt</text>
</a>
</g>
</g>
<!-- Node4&#45;&gt;Node9 -->
<g id="edge8_Node000004_Node000009" class="edge">
<title>Node4&#45;&gt;Node9</title>
<g id="a_edge8_Node000004_Node000009"><a xlink:title=" ">
<path fill="none" stroke="#63b8ff" d="M387.044,-198.0596C409.5503,-192.9316 438.4568,-186.3453 462.3672,-180.8974"/>
<polygon fill="#63b8ff" stroke="#63b8ff" points="463.3028,-184.274 472.2754,-178.6398 461.7477,-177.4489 463.3028,-184.274"/>
</a>
</g>
</g>
<!-- Node10 -->
<g id="Node000010" class="node">
<title>Node10</title>
<g id="a_Node000010"><a xlink:href="window_8c.html#a194f99cfb5f1631fb7643c1838a5278a" target="_top" xlink:title="送信ウィンドウにパケットを積みます。">
<polygon fill="#ffffff" stroke="#666666" points="558.5,-143 457.5,-143 457.5,-124 558.5,-124 558.5,-143"/>
<text text-anchor="middle" x="508" y="-131" font-family="Helvetica,sans-Serif" font-size="10.00" fill="#000000">window_send_push</text>
</a>
</g>
</g>
<!-- Node4&#45;&gt;Node10 -->
<g id="edge9_Node000004_Node000010" class="edge">
<title>Node4&#45;&gt;Node10</title>
<g id="a_edge9_Node000004_Node000010"><a xlink:title=" ">
<path fill="none" stroke="#63b8ff" d="M387.0339,-199.8205C397.4929,-196.9787 408.5814,-193.005 418,-187.5 437.5353,-176.082 434.752,-163.3959 454,-151.5 456.6059,-149.8894 459.3726,-148.405 462.2228,-147.0397"/>
<polygon fill="#63b8ff" stroke="#63b8ff" points="463.6907,-150.2188 471.5162,-143.0765 460.9448,-143.7798 463.6907,-150.2188"/>
</a>
</g>
</g>
<!-- Node7 -->
<g id="Node000007" class="node">
<title>Node7</title>
<g id="a_Node000007"><a xlink:href="packet_8c.html#a479088cf3b9ccf5ebe8891ad2881b196" target="_top" xlink:title=" ">
<polygon fill="#ffffff" stroke="#666666" points="686,-217 602,-217 602,-198 686,-198 686,-217"/>
<text text-anchor="middle" x="644" y="-205" font-family="Helvetica,sans-Serif" font-size="10.00" fill="#000000">fill_session_hdr</text>
</a>
</g>
</g>
<!-- Node6&#45;&gt;Node7 -->
<g id="edge6_Node000006_Node000007" class="edge">
<title>Node6&#45;&gt;Node7</title>
<g id="a_edge6_Node000006_Node000007"><a xlink:title=" ">
<path fill="none" stroke="#63b8ff" d="M562.1416,-207.5C571.8245,-207.5 581.8989,-207.5 591.5337,-207.5"/>
<polygon fill="#63b8ff" stroke="#63b8ff" points="591.7767,-211.0001 601.7767,-207.5 591.7767,-204.0001 591.7767,-211.0001"/>
</a>
</g>
</g>
<!-- Node8 -->
<g id="Node000008" class="node">
<title>Node8</title>
<g id="a_Node000008"><a xlink:href="packet_8c.html#a6564ae80f665edd6931ef662818e19b0" target="_top" xlink:title=" ">
<polygon fill="#ffffff" stroke="#666666" points="772,-217 726,-217 726,-198 772,-198 772,-217"/>
<text text-anchor="middle" x="749" y="-205" font-family="Helvetica,sans-Serif" font-size="10.00" fill="#000000">hton64</text>
</a>
</g>
</g>
<!-- Node7&#45;&gt;Node8 -->
<g id="edge7_Node000007_Node000008" class="edge">
<title>Node7&#45;&gt;Node8</title>
<g id="a_edge7_Node000007_Node000008"><a xlink:title=" ">
<path fill="none" stroke="#63b8ff" d="M686.1025,-207.5C695.9684,-207.5 706.3447,-207.5 715.7612,-207.5"/>
<polygon fill="#63b8ff" stroke="#63b8ff" points="715.9066,-211.0001 725.9066,-207.5 715.9065,-204.0001 715.9066,-211.0001"/>
</a>
</g>
</g>
<!-- Node11 -->
<g id="Node000011" class="node">
<title>Node11</title>
<g id="a_Node000011"><a xlink:href="window_8c.html#ad5f53882d6cd6075a78e83b94fb62cc3" target="_top" xlink:title=" ">
<polygon fill="#ffffff" stroke="#666666" points="673.5,-162 614.5,-162 614.5,-143 673.5,-143 673.5,-162"/>
<text text-anchor="middle" x="644" y="-150" font-family="Helvetica,sans-Serif" font-size="10.00" fill="#000000">win_index</text>
</a>
</g>
</g>
<!-- Node10&#45;&gt;Node11 -->
<g id="edge10_Node000010_Node000011" class="edge">
<title>Node10&#45;&gt;Node11</title>
<g id="a_edge10_Node000010_Node000011"><a xlink:title=" ">
<path fill="none" stroke="#63b8ff" d="M558.6414,-140.5749C573.7125,-142.6804 590.0029,-144.9563 604.2724,-146.9498"/>
<polygon fill="#63b8ff" stroke="#63b8ff" points="603.8712,-150.4277 614.2593,-148.345 604.8398,-143.495 603.8712,-150.4277"/>
</a>
</g>
</g>
<!-- Node12 -->
<g id="Node000012" class="node">
<title>Node12</title>
<g id="a_Node000012"><a xlink:href="window_8c.html#aa49e58851242a05b75813c79490da396" target="_top" xlink:title="送信ウィンドウが満杯かどうかを返します。">
<polygon fill="#ffffff" stroke="#666666" points="690,-125 598,-125 598,-106 690,-106 690,-125"/>
<text text-anchor="middle" x="644" y="-113" font-family="Helvetica,sans-Serif" font-size="10.00" fill="#000000">window_send_full</text>
</a>
</g>
</g>
<!-- Node10&#45;&gt;Node12 -->
<g id="edge11_Node000010_Node000012" class="edge">
<title>Node10&#45;&gt;Node12</title>
<g id="a_edge11_Node000010_Node000012"><a xlink:title=" ">
<path fill="none" stroke="#63b8ff" d="M558.6414,-126.7975C568.17,-125.5363 578.186,-124.2107 587.8704,-122.9289"/>
<polygon fill="#63b8ff" stroke="#63b8ff" points="588.3541,-126.3955 597.8084,-121.6136 587.4356,-119.456 588.3541,-126.3955"/>
</a>
</g>
</g>
</g>
</svg>

<g id="navigator" transform="translate(0 0)" fill="#404254">
  <rect fill="#f2f5e9" fill-opacity="0.5" stroke="#606060" stroke-width=".5" x="0" y="0" width="60" height="60"/>
  <use id="zoomplus" xlink:href="#zoomPlus" x="17" y="9" onmousedown="handleZoom(evt,'in')"/>
  <use id="zoomminus" xlink:href="#zoomMin" x="42" y="9" onmousedown="handleZoom(evt,'out')"/>
  <use id="reset" xlink:href="#resetDef" x="30" y="36" onmousedown="handleReset()"/>
   <use id="arrowup" xlink:href="#arrowUp" x="0" y="0" onmousedown="handlePan(0,-1)"/>
  <use id="arrowright" xlink:href="#arrowRight" x="0" y="0" onmousedown="handlePan(1,0)"/>
  <use id="arrowdown" xlink:href="#arrowDown" x="0" y="0" onmousedown="handlePan(0,1)"/>
  <use id="arrowleft" xlink:href="#arrowLeft" x="0" y="0" onmousedown="handlePan(-1,0)"/>
</g>
<svg viewBox="0 0 15 15" width="100%" height="30px" preserveAspectRatio="xMaxYMin meet">
 <g id="arrow_out" transform="scale(0.3 0.3)">
  <a xlink:href="potrSendThread_8h_a43c9d922d9a3e693d9327f34beee30bf_cgraph_org.svg" target="_base">
   <rect id="button" ry="5" rx="5" y="6" x="6" height="38" width="38"
        fill="#f2f5e9" fill-opacity="0.5" stroke="#606060" stroke-width="1.0"/>
   <path id="arrow"
     d="M 11.500037,31.436501 C 11.940474,20.09759 22.043105,11.32322 32.158766,21.979434 L 37.068811,17.246167 C 37.068811,17.246167 37.088388,32 37.088388,32 L 22.160133,31.978069 C 22.160133,31.978069 26.997745,27.140456 26.997745,27.140456 C 18.528582,18.264221 13.291696,25.230495 11.500037,31.436501 z"
     style="fill:#404040;"/>
  </a>
 </g>
</svg>

<style type='text/css'>
<![CDATA[
[data-mouse-over-selected='false'] { opacity: 0.7; }
[data-mouse-over-selected='true']  { opacity: 1.0; }
]]>
</style>
<script type="application/ecmascript"><![CDATA[
document.addEventListener('DOMContentLoaded', (event) => {
  highlightEdges();
  highlightAdjacentNodes();
});
]]></script>
</svg>
