<?xml version="1.0" encoding="UTF-8" standalone="no"?>
<!DOCTYPE svg PUBLIC "-//W3C//DTD SVG 1.1//EN"
 "http://www.w3.org/Graphics/SVG/1.1/DTD/svg11.dtd">
<!-- Generated by graphviz version 2.40.1 (0)
 -->
<!-- Title: porter/libsrc/porter/potrSend.c Pages: 1 -->
<!--zoomable 258 -->

<svg id="main" version="1.1" xmlns="http://www.w3.org/2000/svg" xmlns:xlink="http://www.w3.org/1999/xlink" xml:space="preserve" onload="init(evt)">

<style type="text/css"><![CDATA[
.node, .edge {opacity: 0.7;}
.node.selected, .edge.selected {opacity: 1;}
.edge:hover path { stroke: red; }
.edge:hover polygon { stroke: red; fill: red; }
]]></style>

<defs>
  <circle id="rim" cx="0" cy="0" r="7"/>
  <circle id="rim2" cx="0" cy="0" r="3.5"/>
  <g id="zoomPlus">
    <use xlink:href="#rim" fill="#404040"><set attributeName="fill" to="#808080" begin="zoomplus.mouseover" end="zoomplus.mouseout"/></use>
    <path d="M-4,0h8M0,-4v8" fill="none" stroke="white" stroke-width="1.5" pointer-events="none"/>
  </g>
  <g id="zoomMin">
    <use xlink:href="#rim" fill="#404040"><set attributeName="fill" to="#808080" begin="zoomminus.mouseover" end="zoomminus.mouseout"/></use>
    <path d="M-4,0h8" fill="none" stroke="white" stroke-width="1.5" pointer-events="none"/>
  </g>
  <g id="arrowUp" transform="translate(30 24)">
    <use xlink:href="#rim"/>
    <path pointer-events="none" fill="none" stroke="white" stroke-width="1.5" d="M0,-3.0v7 M-2.5,-0.5L0,-3.0L2.5,-0.5"/>
  </g>
  <g id="arrowRight" transform="rotate(90) translate(36 -43)">
    <use xlink:href="#rim"/>
    <path pointer-events="none" fill="none" stroke="white" stroke-width="1.5" d="M0,-3.0v7 M-2.5,-0.5L0,-3.0L2.5,-0.5"/>
  </g>
  <g id="arrowDown" transform="rotate(180) translate(-30 -48)">
    <use xlink:href="#rim"/>
    <path pointer-events="none" fill="none" stroke="white" stroke-width="1.5" d="M0,-3.0v7 M-2.5,-0.5L0,-3.0L2.5,-0.5"/>
  </g>
  <g id="arrowLeft" transform="rotate(270) translate(-36 17)">
    <use xlink:href="#rim"/>
    <path pointer-events="none" fill="none" stroke="white" stroke-width="1.5" d="M0,-3.0v7 M-2.5,-0.5L0,-3.0L2.5,-0.5"/>
  </g>
  <g id="resetDef">
    <use xlink:href="#rim2" fill="#404040"><set attributeName="fill" to="#808080" begin="reset.mouseover" end="reset.mouseout"/></use>
  </g>
</defs>
<script type="application/ecmascript">
var viewWidth = 848;
var viewHeight = 258;
var sectionId = 'dynsection-0';
</script>
<script type="application/ecmascript" xlink:href="svg.min.js"/>
<svg id="graph" class="graph">
<g id="viewport">
<title>porter/libsrc/porter/potrSend.c</title>
<!-- Node1 -->
<g id="Node000001" class="node">
<title>Node1</title>
<g id="a_Node000001"><a xlink:title="potrSend 関数の実装。">
<polygon fill="#999999" stroke="#666666" points="415,-250 320,-250 320,-220 415,-220 415,-250"/>
<text text-anchor="start" x="328" y="-238" font-family="Helvetica,sans-Serif" font-size="10.00" fill="#000000">porter/libsrc/porter</text>
<text text-anchor="middle" x="367.5" y="-227" font-family="Helvetica,sans-Serif" font-size="10.00" fill="#000000">/potrSend.c</text>
</a>
</g>
</g>
<!-- Node2 -->
<g id="Node000002" class="node">
<title>Node2</title>
<g id="a_Node000002"><a xlink:title=" ">
<polygon fill="#e0e0e0" stroke="#999999" points="49,-184 0,-184 0,-165 49,-165 49,-184"/>
<text text-anchor="middle" x="24.5" y="-172" font-family="Helvetica,sans-Serif" font-size="10.00" fill="#000000">string.h</text>
</a>
</g>
</g>
<!-- Node1&#45;&gt;Node2 -->
<g id="edge1_Node000001_Node000002" class="edge">
<title>Node1&#45;&gt;Node2</title>
<g id="a_edge1_Node000001_Node000002"><a xlink:title=" ">
<path fill="none" stroke="#63b8ff" d="M319.8991,-228.9357C260.7898,-221.0155 156.7495,-205.8001 59.3004,-184.2188"/>
<polygon fill="#63b8ff" stroke="#63b8ff" points="59.8092,-180.746 49.2856,-181.9728 58.2773,-187.5764 59.8092,-180.746"/>
</a>
</g>
</g>
<!-- Node3 -->
<g id="Node000003" class="node">
<title>Node3</title>
<g id="a_Node000003"><a xlink:title=" ">
<polygon fill="#e0e0e0" stroke="#999999" points="140,-184 67,-184 67,-165 140,-165 140,-184"/>
<text text-anchor="middle" x="103.5" y="-172" font-family="Helvetica,sans-Serif" font-size="10.00" fill="#000000">sys/socket.h</text>
</a>
</g>
</g>
<!-- Node1&#45;&gt;Node3 -->
<g id="edge2_Node000001_Node000003" class="edge">
<title>Node1&#45;&gt;Node3</title>
<g id="a_edge2_Node000001_Node000003"><a xlink:title=" ">
<path fill="none" stroke="#63b8ff" d="M319.9972,-224.1139C271.7666,-213.0611 197.5717,-196.0581 149.7843,-185.1068"/>
<polygon fill="#63b8ff" stroke="#63b8ff" points="150.5358,-181.6884 140.0066,-182.8661 148.9721,-188.5115 150.5358,-181.6884"/>
</a>
</g>
</g>
<!-- Node4 -->
<g id="Node000004" class="node">
<title>Node4</title>
<g id="a_Node000004"><a xlink:title=" ">
<polygon fill="#e0e0e0" stroke="#999999" points="202,-129 137,-129 137,-110 202,-110 202,-129"/>
<text text-anchor="middle" x="169.5" y="-117" font-family="Helvetica,sans-Serif" font-size="10.00" fill="#000000">netinet/in.h</text>
</a>
</g>
</g>
<!-- Node1&#45;&gt;Node4 -->
<g id="edge3_Node000001_Node000004" class="edge">
<title>Node1&#45;&gt;Node4</title>
<g id="a_edge3_Node000001_Node000004"><a xlink:title=" ">
<path fill="none" stroke="#63b8ff" d="M319.5917,-226.8786C272.802,-218.0162 206.0091,-202.5824 187.5,-184 175.8472,-172.301 171.5839,-153.7295 170.0975,-139.5124"/>
<polygon fill="#63b8ff" stroke="#63b8ff" points="173.5714,-139.0031 169.4126,-129.2586 166.5869,-139.4697 173.5714,-139.0031"/>
</a>
</g>
</g>
<!-- Node5 -->
<g id="Node000005" class="node">
<title>Node5</title>
<g id="a_Node000005"><a xlink:title=" ">
<polygon fill="#e0e0e0" stroke="#999999" points="282.5,-129 220.5,-129 220.5,-110 282.5,-110 282.5,-129"/>
<text text-anchor="middle" x="251.5" y="-117" font-family="Helvetica,sans-Serif" font-size="10.00" fill="#000000">arpa/inet.h</text>
</a>
</g>
</g>
<!-- Node1&#45;&gt;Node5 -->
<g id="edge4_Node000001_Node000005" class="edge">
<title>Node1&#45;&gt;Node5</title>
<g id="a_edge4_Node000001_Node000005"><a xlink:title=" ">
<path fill="none" stroke="#63b8ff" d="M352.335,-219.9004C330.6905,-198.3492 291.0639,-158.8933 268.4681,-136.395"/>
<polygon fill="#63b8ff" stroke="#63b8ff" points="270.7993,-133.777 261.2434,-129.2014 265.8602,-138.7374 270.7993,-133.777"/>
</a>
</g>
</g>
<!-- Node6 -->
<g id="Node000006" class="node">
<title>Node6</title>
<g id="a_Node000006"><a xlink:href="porter__const_8h.html" target="_top" xlink:title="通信ライブラリの定数ファイル。">
<polygon fill="#ffffff" stroke="#666666" points="840,-19 761,-19 761,0 840,0 840,-19"/>
<text text-anchor="middle" x="800.5" y="-7" font-family="Helvetica,sans-Serif" font-size="10.00" fill="#000000">porter_const.h</text>
</a>
</g>
</g>
<!-- Node1&#45;&gt;Node6 -->
<g id="edge5_Node000001_Node000006" class="edge">
<title>Node1&#45;&gt;Node6</title>
<g id="a_edge5_Node000001_Node000006"><a xlink:title=" ">
<path fill="none" stroke="#63b8ff" d="M415.216,-233.4348C481.4767,-229.9993 604.2833,-219.0276 702.5,-184 775.7236,-157.8858 813.1779,-147.5013 838.5,-74 844.4598,-56.7008 832.3728,-38.9221 820.2854,-26.4229"/>
<polygon fill="#63b8ff" stroke="#63b8ff" points="822.565,-23.76 812.9206,-19.3742 817.725,-28.8171 822.565,-23.76"/>
</a>
</g>
</g>
<!-- Node7 -->
<g id="Node000007" class="node">
<title>Node7</title>
<g id="a_Node000007"><a xlink:href="porter_8h.html" target="_top" xlink:title="通信ライブラリ (動的リンク用) のヘッダーファイル。">
<polygon fill="#ffffff" stroke="#666666" points="549,-184 500,-184 500,-165 549,-165 549,-184"/>
<text text-anchor="middle" x="524.5" y="-172" font-family="Helvetica,sans-Serif" font-size="10.00" fill="#000000">porter.h</text>
</a>
</g>
</g>
<!-- Node1&#45;&gt;Node7 -->
<g id="edge6_Node000001_Node000007" class="edge">
<title>Node1&#45;&gt;Node7</title>
<g id="a_edge6_Node000001_Node000007"><a xlink:title=" ">
<path fill="none" stroke="#63b8ff" d="M406.7127,-219.8894C432.4169,-209.9843 465.6929,-197.1613 490.3167,-187.6726"/>
<polygon fill="#63b8ff" stroke="#63b8ff" points="491.8867,-190.8185 499.9593,-183.9568 489.3696,-184.2867 491.8867,-190.8185"/>
</a>
</g>
</g>
<!-- Node11 -->
<g id="Node000011" class="node">
<title>Node11</title>
<g id="a_Node000011"><a xlink:href="packet_8h.html" target="_top" xlink:title="パケット構築・解析モジュールの内部ヘッダー。">
<polygon fill="#ffffff" stroke="#666666" points="506.5,-129 414.5,-129 414.5,-110 506.5,-110 506.5,-129"/>
<text text-anchor="middle" x="460.5" y="-117" font-family="Helvetica,sans-Serif" font-size="10.00" fill="#000000">protocol/packet.h</text>
</a>
</g>
</g>
<!-- Node1&#45;&gt;Node11 -->
<g id="edge11_Node000001_Node000011" class="edge">
<title>Node1&#45;&gt;Node11</title>
<g id="a_edge11_Node000001_Node000011"><a xlink:title=" ">
<path fill="none" stroke="#63b8ff" d="M379.6581,-219.9004C396.7837,-198.6315 427.9508,-159.924 446.1773,-137.2879"/>
<polygon fill="#63b8ff" stroke="#63b8ff" points="449.143,-139.1854 452.6885,-129.2014 443.6907,-134.7953 449.143,-139.1854"/>
</a>
</g>
</g>
<!-- Node12 -->
<g id="Node000012" class="node">
<title>Node12</title>
<g id="a_Node000012"><a xlink:href="seqnum_8h.html" target="_top" xlink:title="通番管理モジュールの内部ヘッダー。">
<polygon fill="#ffffff" stroke="#666666" points="521,-74 424,-74 424,-55 521,-55 521,-74"/>
<text text-anchor="middle" x="472.5" y="-62" font-family="Helvetica,sans-Serif" font-size="10.00" fill="#000000">protocol/seqnum.h</text>
</a>
</g>
</g>
<!-- Node1&#45;&gt;Node12 -->
<g id="edge15_Node000001_Node000012" class="edge">
<title>Node1&#45;&gt;Node12</title>
<g id="a_edge15_Node000001_Node000012"><a xlink:title=" ">
<path fill="none" stroke="#63b8ff" d="M368.859,-219.6933C371.7603,-194.5655 380.4857,-143.9729 405.5,-110 414.959,-97.1534 429.1944,-86.7565 442.1142,-79.1614"/>
<polygon fill="#63b8ff" stroke="#63b8ff" points="444.148,-82.0361 451.2023,-74.1312 440.7581,-75.9117 444.148,-82.0361"/>
</a>
</g>
</g>
<!-- Node13 -->
<g id="Node000013" class="node">
<title>Node13</title>
<g id="a_Node000013"><a xlink:href="window_8h.html" target="_top" xlink:title="スライディングウィンドウ管理モジュールの内部ヘッダー。">
<polygon fill="#ffffff" stroke="#666666" points="770,-129 677,-129 677,-110 770,-110 770,-129"/>
<text text-anchor="middle" x="723.5" y="-117" font-family="Helvetica,sans-Serif" font-size="10.00" fill="#000000">protocol/window.h</text>
</a>
</g>
</g>
<!-- Node1&#45;&gt;Node13 -->
<g id="edge17_Node000001_Node000013" class="edge">
<title>Node1&#45;&gt;Node13</title>
<g id="a_edge17_Node000001_Node000013"><a xlink:title=" ">
<path fill="none" stroke="#63b8ff" d="M415.1911,-231.7046C491.168,-225.7138 635.5024,-211.0825 678.5,-184 695.5842,-173.2393 707.9464,-153.3888 715.3414,-138.5402"/>
<polygon fill="#63b8ff" stroke="#63b8ff" points="718.6262,-139.7765 719.6644,-129.2327 712.2776,-136.8278 718.6262,-139.7765"/>
</a>
</g>
</g>
<!-- Node14 -->
<g id="Node000014" class="node">
<title>Node14</title>
<g id="a_Node000014"><a xlink:href="potrContext_8h.html" target="_top" xlink:title="セッションコンテキスト内部定義ヘッダー。">
<polygon fill="#ffffff" stroke="#666666" points="669,-184 594,-184 594,-165 669,-165 669,-184"/>
<text text-anchor="middle" x="631.5" y="-172" font-family="Helvetica,sans-Serif" font-size="10.00" fill="#000000">potrContext.h</text>
</a>
</g>
</g>
<!-- Node1&#45;&gt;Node14 -->
<g id="edge21_Node000001_Node000014" class="edge">
<title>Node1&#45;&gt;Node14</title>
<g id="a_edge21_Node000001_Node000014"><a xlink:title=" ">
<path fill="none" stroke="#63b8ff" d="M415.0028,-224.1139C462.8176,-213.1564 536.151,-196.3508 583.974,-185.3914"/>
<polygon fill="#63b8ff" stroke="#63b8ff" points="584.8079,-188.7911 593.7733,-183.1457 583.2442,-181.968 584.8079,-188.7911"/>
</a>
</g>
</g>
<!-- Node16 -->
<g id="Node000016" class="node">
<title>Node16</title>
<g id="a_Node000016"><a xlink:href="compress_8h.html" target="_top" xlink:title="データ圧縮・解凍モジュールの内部ヘッダー。">
<polygon fill="#ffffff" stroke="#666666" points="367,-74 254,-74 254,-55 367,-55 367,-74"/>
<text text-anchor="middle" x="310.5" y="-62" font-family="Helvetica,sans-Serif" font-size="10.00" fill="#000000">compress/compress.h</text>
</a>
</g>
</g>
<!-- Node1&#45;&gt;Node16 -->
<g id="edge31_Node000001_Node000016" class="edge">
<title>Node1&#45;&gt;Node16</title>
<g id="a_edge31_Node000001_Node000016"><a xlink:title=" ">
<path fill="none" stroke="#63b8ff" d="M362.4416,-219.8693C352.0666,-188.8351 328.3934,-118.0232 316.9412,-83.7672"/>
<polygon fill="#63b8ff" stroke="#63b8ff" points="320.1749,-82.4007 313.6848,-74.0264 313.536,-84.6202 320.1749,-82.4007"/>
</a>
</g>
</g>
<!-- Node18 -->
<g id="Node000018" class="node">
<title>Node18</title>
<g id="a_Node000018"><a xlink:href="potrIpAddr_8h.html" target="_top" xlink:title="IPv4 アドレス変換ユーティリティ (内部用)。">
<polygon fill="#ffffff" stroke="#666666" points="282,-184 197,-184 197,-165 282,-165 282,-184"/>
<text text-anchor="middle" x="239.5" y="-172" font-family="Helvetica,sans-Serif" font-size="10.00" fill="#000000">util/potrIpAddr.h</text>
</a>
</g>
</g>
<!-- Node1&#45;&gt;Node18 -->
<g id="edge32_Node000001_Node000018" class="edge">
<title>Node1&#45;&gt;Node18</title>
<g id="a_edge32_Node000001_Node000018"><a xlink:title=" ">
<path fill="none" stroke="#63b8ff" d="M335.5304,-219.8894C315.1671,-210.2645 288.975,-197.8847 269.09,-188.4859"/>
<polygon fill="#63b8ff" stroke="#63b8ff" points="270.4247,-185.2455 259.8881,-184.1366 267.4334,-191.5742 270.4247,-185.2455"/>
</a>
</g>
</g>
<!-- Node8 -->
<g id="Node000008" class="node">
<title>Node8</title>
<g id="a_Node000008"><a xlink:href="porter__type_8h.html" target="_top" xlink:title="通信ライブラリの型定義ファイル。">
<polygon fill="#ffffff" stroke="#666666" points="651.5,-74 577.5,-74 577.5,-55 651.5,-55 651.5,-74"/>
<text text-anchor="middle" x="614.5" y="-62" font-family="Helvetica,sans-Serif" font-size="10.00" fill="#000000">porter_type.h</text>
</a>
</g>
</g>
<!-- Node7&#45;&gt;Node8 -->
<g id="edge7_Node000007_Node000008" class="edge">
<title>Node7&#45;&gt;Node8</title>
<g id="a_edge7_Node000007_Node000008"><a xlink:title=" ">
<path fill="none" stroke="#63b8ff" d="M527.3147,-164.951C531.5869,-151.6105 540.7001,-127.1116 554.5,-110 564.1134,-98.0795 577.4918,-87.5414 589.1768,-79.6165"/>
<polygon fill="#63b8ff" stroke="#63b8ff" points="591.2118,-82.4682 597.6918,-74.086 587.399,-76.5977 591.2118,-82.4682"/>
</a>
</g>
</g>
<!-- Node8&#45;&gt;Node6 -->
<g id="edge10_Node000008_Node000006" class="edge">
<title>Node8&#45;&gt;Node6</title>
<g id="a_edge10_Node000008_Node000006"><a xlink:title=" ">
<path fill="none" stroke="#63b8ff" d="M646.8987,-54.9197C677.8759,-45.7598 724.7413,-31.9018 758.5565,-21.9027"/>
<polygon fill="#63b8ff" stroke="#63b8ff" points="759.564,-25.2546 768.161,-19.0626 757.579,-18.5419 759.564,-25.2546"/>
</a>
</g>
</g>
<!-- Node9 -->
<g id="Node000009" class="node">
<title>Node9</title>
<g id="a_Node000009"><a xlink:title=" ">
<polygon fill="#e0e0e0" stroke="#999999" points="421.5,-19 369.5,-19 369.5,0 421.5,0 421.5,-19"/>
<text text-anchor="middle" x="395.5" y="-7" font-family="Helvetica,sans-Serif" font-size="10.00" fill="#000000">stddef.h</text>
</a>
</g>
</g>
<!-- Node8&#45;&gt;Node9 -->
<g id="edge8_Node000008_Node000009" class="edge">
<title>Node8&#45;&gt;Node9</title>
<g id="a_edge8_Node000008_Node000009"><a xlink:title=" ">
<path fill="none" stroke="#63b8ff" d="M577.3496,-55.17C536.7107,-44.9639 472.0067,-28.714 431.734,-18.5999"/>
<polygon fill="#63b8ff" stroke="#63b8ff" points="432.3556,-15.1474 421.8043,-16.1061 430.6505,-21.9365 432.3556,-15.1474"/>
</a>
</g>
</g>
<!-- Node10 -->
<g id="Node000010" class="node">
<title>Node10</title>
<g id="a_Node000010"><a xlink:title=" ">
<polygon fill="#e0e0e0" stroke="#999999" points="606,-19 557,-19 557,0 606,0 606,-19"/>
<text text-anchor="middle" x="581.5" y="-7" font-family="Helvetica,sans-Serif" font-size="10.00" fill="#000000">stdint.h</text>
</a>
</g>
</g>
<!-- Node8&#45;&gt;Node10 -->
<g id="edge9_Node000008_Node000010" class="edge">
<title>Node8&#45;&gt;Node10</title>
<g id="a_edge9_Node000008_Node000010"><a xlink:title=" ">
<path fill="none" stroke="#63b8ff" d="M608.7518,-54.9197C604.3113,-47.5188 598.0305,-37.0509 592.6176,-28.0294"/>
<polygon fill="#63b8ff" stroke="#63b8ff" points="595.5507,-26.115 587.4045,-19.3408 589.5483,-29.7165 595.5507,-26.115"/>
</a>
</g>
</g>
<!-- Node11&#45;&gt;Node8 -->
<g id="edge14_Node000011_Node000008" class="edge">
<title>Node11&#45;&gt;Node8</title>
<g id="a_edge14_Node000011_Node000008"><a xlink:title=" ">
<path fill="none" stroke="#63b8ff" d="M487.3248,-109.9197C512.4221,-100.9564 550.1158,-87.4944 577.9554,-77.5516"/>
<polygon fill="#63b8ff" stroke="#63b8ff" points="579.4845,-80.7221 587.7247,-74.0626 577.1301,-74.1299 579.4845,-80.7221"/>
</a>
</g>
</g>
<!-- Node11&#45;&gt;Node9 -->
<g id="edge12_Node000011_Node000009" class="edge">
<title>Node11&#45;&gt;Node9</title>
<g id="a_edge12_Node000011_Node000009"><a xlink:title=" ">
<path fill="none" stroke="#63b8ff" d="M447.817,-109.9966C437.4508,-101.5986 423.1435,-88.4633 414.5,-74 406.2658,-60.2217 401.3957,-42.6369 398.6514,-29.3095"/>
<polygon fill="#63b8ff" stroke="#63b8ff" points="402.0614,-28.4997 396.8189,-19.2929 395.1757,-29.7595 402.0614,-28.4997"/>
</a>
</g>
</g>
<!-- Node11&#45;&gt;Node10 -->
<g id="edge13_Node000011_Node000010" class="edge">
<title>Node11&#45;&gt;Node10</title>
<g id="a_edge13_Node000011_Node000010"><a xlink:title=" ">
<path fill="none" stroke="#63b8ff" d="M478.5984,-109.9226C493.4434,-101.5744 514.5379,-88.5475 530.5,-74 545.7594,-60.093 560.0546,-41.3135 569.6048,-27.6055"/>
<polygon fill="#63b8ff" stroke="#63b8ff" points="572.693,-29.2877 575.412,-19.0477 566.9007,-25.3571 572.693,-29.2877"/>
</a>
</g>
</g>
<!-- Node12&#45;&gt;Node10 -->
<g id="edge16_Node000012_Node000010" class="edge">
<title>Node12&#45;&gt;Node10</title>
<g id="a_edge16_Node000012_Node000010"><a xlink:title=" ">
<path fill="none" stroke="#63b8ff" d="M491.4864,-54.9197C508.5744,-46.2973 533.9126,-33.512 553.356,-23.7011"/>
<polygon fill="#63b8ff" stroke="#63b8ff" points="555.0144,-26.7847 562.3655,-19.155 551.8609,-20.5352 555.0144,-26.7847"/>
</a>
</g>
</g>
<!-- Node13&#45;&gt;Node6 -->
<g id="edge19_Node000013_Node000006" class="edge">
<title>Node13&#45;&gt;Node6</title>
<g id="a_edge19_Node000013_Node000006"><a xlink:title=" ">
<path fill="none" stroke="#63b8ff" d="M769.832,-109.9634C789.5912,-103.3559 810.7613,-92.3141 822.5,-74 831.6299,-59.7559 823.6954,-41.2994 814.9119,-27.7811"/>
<polygon fill="#63b8ff" stroke="#63b8ff" points="817.5437,-25.4428 808.8946,-19.3236 811.84,-29.5008 817.5437,-25.4428"/>
</a>
</g>
</g>
<!-- Node13&#45;&gt;Node8 -->
<g id="edge20_Node000013_Node000008" class="edge">
<title>Node13&#45;&gt;Node8</title>
<g id="a_edge20_Node000013_Node000008"><a xlink:title=" ">
<path fill="none" stroke="#63b8ff" d="M704.5136,-109.9197C687.4256,-101.2973 662.0874,-88.512 642.644,-78.7011"/>
<polygon fill="#63b8ff" stroke="#63b8ff" points="644.1391,-75.5352 633.6345,-74.155 640.9856,-81.7847 644.1391,-75.5352"/>
</a>
</g>
</g>
<!-- Node13&#45;&gt;Node10 -->
<g id="edge18_Node000013_Node000010" class="edge">
<title>Node13&#45;&gt;Node10</title>
<g id="a_edge18_Node000013_Node000010"><a xlink:title=" ">
<path fill="none" stroke="#63b8ff" d="M715.6492,-109.9422C704.3726,-96.5912 682.5138,-72.0799 660.5,-55 645.07,-43.0283 626.1612,-32.0267 610.7118,-23.8413"/>
<polygon fill="#63b8ff" stroke="#63b8ff" points="612.0911,-20.6142 601.6014,-19.1251 608.873,-26.8306 612.0911,-20.6142"/>
</a>
</g>
</g>
<!-- Node14&#45;&gt;Node8 -->
<g id="edge22_Node000014_Node000008" class="edge">
<title>Node14&#45;&gt;Node8</title>
<g id="a_edge22_Node000014_Node000008"><a xlink:title=" ">
<path fill="none" stroke="#63b8ff" d="M632.0589,-164.7952C632.5948,-152.0954 632.8887,-129.1969 629.5,-110 627.9317,-101.1155 624.9995,-91.5913 622.1407,-83.5646"/>
<polygon fill="#63b8ff" stroke="#63b8ff" points="625.3558,-82.1713 618.5458,-74.055 618.808,-84.6466 625.3558,-82.1713"/>
</a>
</g>
</g>
<!-- Node14&#45;&gt;Node13 -->
<g id="edge26_Node000014_Node000013" class="edge">
<title>Node14&#45;&gt;Node13</title>
<g id="a_edge26_Node000014_Node000013"><a xlink:title=" ">
<path fill="none" stroke="#63b8ff" d="M647.5252,-164.9197C661.5547,-156.5325 682.1731,-144.2063 698.3919,-134.5103"/>
<polygon fill="#63b8ff" stroke="#63b8ff" points="700.5626,-137.2904 707.3498,-129.155 696.9707,-131.2822 700.5626,-137.2904"/>
</a>
</g>
</g>
<!-- Node15 -->
<g id="Node000015" class="node">
<title>Node15</title>
<g id="a_Node000015"><a xlink:href="retransmit_8h.html" target="_top" xlink:title="再送制御モジュールの内部ヘッダー。">
<polygon fill="#ffffff" stroke="#666666" points="813.5,-74 707.5,-74 707.5,-55 813.5,-55 813.5,-74"/>
<text text-anchor="middle" x="760.5" y="-62" font-family="Helvetica,sans-Serif" font-size="10.00" fill="#000000">protocol/retransmit.h</text>
</a>
</g>
</g>
<!-- Node14&#45;&gt;Node15 -->
<g id="edge23_Node000014_Node000015" class="edge">
<title>Node14&#45;&gt;Node15</title>
<g id="a_edge23_Node000014_Node000015"><a xlink:title=" ">
<path fill="none" stroke="#63b8ff" d="M669.3125,-168.1012C708.6493,-160.5829 766.3224,-146.8374 779.5,-129 789.5318,-115.4207 782.1649,-96.5986 773.8559,-82.7915"/>
<polygon fill="#63b8ff" stroke="#63b8ff" points="776.5869,-80.5756 768.1554,-74.16 770.7458,-84.4333 776.5869,-80.5756"/>
</a>
</g>
</g>
<!-- Node14&#45;&gt;Node16 -->
<g id="edge27_Node000014_Node000016" class="edge">
<title>Node14&#45;&gt;Node16</title>
<g id="a_edge27_Node000014_Node000016"><a xlink:title=" ">
<path fill="none" stroke="#63b8ff" d="M593.7286,-168.7555C538.5922,-160.0559 438.9884,-143.0626 405.5,-129 376.7518,-116.9279 347.6707,-95.5308 329.3944,-80.7093"/>
<polygon fill="#63b8ff" stroke="#63b8ff" points="331.2714,-77.7191 321.3391,-74.0312 326.8038,-83.108 331.2714,-77.7191"/>
</a>
</g>
</g>
<!-- Node17 -->
<g id="Node000017" class="node">
<title>Node17</title>
<g id="a_Node000017"><a xlink:title=" ">
<polygon fill="#e0e0e0" stroke="#999999" points="620,-129 563,-129 563,-110 620,-110 620,-129"/>
<text text-anchor="middle" x="591.5" y="-117" font-family="Helvetica,sans-Serif" font-size="10.00" fill="#000000">pthread.h</text>
</a>
</g>
</g>
<!-- Node14&#45;&gt;Node17 -->
<g id="edge30_Node000014_Node000017" class="edge">
<title>Node14&#45;&gt;Node17</title>
<g id="a_edge30_Node000014_Node000017"><a xlink:title=" ">
<path fill="none" stroke="#63b8ff" d="M624.5325,-164.9197C619.0367,-157.363 611.2154,-146.6087 604.563,-137.4616"/>
<polygon fill="#63b8ff" stroke="#63b8ff" points="607.3693,-135.3696 598.657,-129.3408 601.7081,-139.4868 607.3693,-135.3696"/>
</a>
</g>
</g>
<!-- Node15&#45;&gt;Node6 -->
<g id="edge25_Node000015_Node000006" class="edge">
<title>Node15&#45;&gt;Node6</title>
<g id="a_edge25_Node000015_Node000006"><a xlink:title=" ">
<path fill="none" stroke="#63b8ff" d="M767.4675,-54.9197C772.9633,-47.363 780.7846,-36.6087 787.437,-27.4616"/>
<polygon fill="#63b8ff" stroke="#63b8ff" points="790.2919,-29.4868 793.343,-19.3408 784.6307,-25.3696 790.2919,-29.4868"/>
</a>
</g>
</g>
<!-- Node15&#45;&gt;Node10 -->
<g id="edge24_Node000015_Node000010" class="edge">
<title>Node15&#45;&gt;Node10</title>
<g id="a_edge24_Node000015_Node000010"><a xlink:title=" ">
<path fill="none" stroke="#63b8ff" d="M729.3206,-54.9197C697.5494,-45.1576 648.4112,-30.0593 615.6175,-19.983"/>
<polygon fill="#63b8ff" stroke="#63b8ff" points="616.5891,-16.6201 606.0022,-17.0286 614.5331,-23.3114 616.5891,-16.6201"/>
</a>
</g>
</g>
<!-- Node16&#45;&gt;Node9 -->
<g id="edge28_Node000016_Node000009" class="edge">
<title>Node16&#45;&gt;Node9</title>
<g id="a_edge28_Node000016_Node000009"><a xlink:title=" ">
<path fill="none" stroke="#63b8ff" d="M325.3059,-54.9197C338.1468,-46.6109 356.962,-34.4363 371.8811,-24.7828"/>
<polygon fill="#63b8ff" stroke="#63b8ff" points="374.0843,-27.5261 380.5786,-19.155 370.2815,-21.6491 374.0843,-27.5261"/>
</a>
</g>
</g>
<!-- Node16&#45;&gt;Node10 -->
<g id="edge29_Node000016_Node000010" class="edge">
<title>Node16&#45;&gt;Node10</title>
<g id="a_edge29_Node000016_Node000010"><a xlink:title=" ">
<path fill="none" stroke="#63b8ff" d="M357.3952,-54.9825C411.3091,-44.0406 498.5495,-26.335 546.7379,-16.555"/>
<polygon fill="#63b8ff" stroke="#63b8ff" points="547.582,-19.9552 556.686,-14.536 546.1896,-13.095 547.582,-19.9552"/>
</a>
</g>
</g>
<!-- Node18&#45;&gt;Node4 -->
<g id="edge34_Node000018_Node000004" class="edge">
<title>Node18&#45;&gt;Node4</title>
<g id="a_edge34_Node000018_Node000004"><a xlink:title=" ">
<path fill="none" stroke="#63b8ff" d="M227.3069,-164.9197C217.0944,-156.8956 202.2932,-145.2661 190.2247,-135.7837"/>
<polygon fill="#63b8ff" stroke="#63b8ff" points="192.0503,-132.767 182.0247,-129.3408 187.7255,-138.2712 192.0503,-132.767"/>
</a>
</g>
</g>
<!-- Node18&#45;&gt;Node5 -->
<g id="edge33_Node000018_Node000005" class="edge">
<title>Node18&#45;&gt;Node5</title>
<g id="a_edge33_Node000018_Node000005"><a xlink:title=" ">
<path fill="none" stroke="#63b8ff" d="M241.5902,-164.9197C243.137,-157.8304 245.2978,-147.9269 247.207,-139.1763"/>
<polygon fill="#63b8ff" stroke="#63b8ff" points="250.6407,-139.8571 249.3529,-129.3408 243.8016,-138.3649 250.6407,-139.8571"/>
</a>
</g>
</g>
</g>
</svg>

<g id="navigator" transform="translate(0 0)" fill="#404254">
  <rect fill="#f2f5e9" fill-opacity="0.5" stroke="#606060" stroke-width=".5" x="0" y="0" width="60" height="60"/>
  <use id="zoomplus" xlink:href="#zoomPlus" x="17" y="9" onmousedown="handleZoom(evt,'in')"/>
  <use id="zoomminus" xlink:href="#zoomMin" x="42" y="9" onmousedown="handleZoom(evt,'out')"/>
  <use id="reset" xlink:href="#resetDef" x="30" y="36" onmousedown="handleReset()"/>
   <use id="arrowup" xlink:href="#arrowUp" x="0" y="0" onmousedown="handlePan(0,-1)"/>
  <use id="arrowright" xlink:href="#arrowRight" x="0" y="0" onmousedown="handlePan(1,0)"/>
  <use id="arrowdown" xlink:href="#arrowDown" x="0" y="0" onmousedown="handlePan(0,1)"/>
  <use id="arrowleft" xlink:href="#arrowLeft" x="0" y="0" onmousedown="handlePan(-1,0)"/>
</g>
<svg viewBox="0 0 15 15" width="100%" height="30px" preserveAspectRatio="xMaxYMin meet">
 <g id="arrow_out" transform="scale(0.3 0.3)">
  <a xlink:href="potrSend_8c__incl_org.svg" target="_base">
   <rect id="button" ry="5" rx="5" y="6" x="6" height="38" width="38"
        fill="#f2f5e9" fill-opacity="0.5" stroke="#606060" stroke-width="1.0"/>
   <path id="arrow"
     d="M 11.500037,31.436501 C 11.940474,20.09759 22.043105,11.32322 32.158766,21.979434 L 37.068811,17.246167 C 37.068811,17.246167 37.088388,32 37.088388,32 L 22.160133,31.978069 C 22.160133,31.978069 26.997745,27.140456 26.997745,27.140456 C 18.528582,18.264221 13.291696,25.230495 11.500037,31.436501 z"
     style="fill:#404040;"/>
  </a>
 </g>
</svg>

<style type='text/css'>
<![CDATA[
[data-mouse-over-selected='false'] { opacity: 0.7; }
[data-mouse-over-selected='true']  { opacity: 1.0; }
]]>
</style>
<script type="application/ecmascript"><![CDATA[
document.addEventListener('DOMContentLoaded', (event) => {
  highlightEdges();
  highlightAdjacentNodes();
});
]]></script>
</svg>
