<?xml version="1.0" encoding="UTF-8" standalone="no"?>
<!DOCTYPE svg PUBLIC "-//W3C//DTD SVG 1.1//EN"
 "http://www.w3.org/Graphics/SVG/1.1/DTD/svg11.dtd">
<!-- Generated by graphviz version 2.40.1 (0)
 -->
<!-- Title: potr_health_thread_start Pages: 1 -->
<svg width="573pt" height="138pt"
 viewBox="0.00 0.00 573.00 138.00" xmlns="http://www.w3.org/2000/svg" xmlns:xlink="http://www.w3.org/1999/xlink">
<g id="graph0" class="graph" transform="scale(1 1) rotate(0) translate(4 134)">
<title>potr_health_thread_start</title>
<!-- Node1 -->
<g id="Node000001" class="node">
<title>Node1</title>
<g id="a_Node000001"><a xlink:title="ヘルスチェックスレッドを起動します。">
<polygon fill="#999999" stroke="#666666" points="97,-79.5 0,-79.5 0,-49.5 97,-49.5 97,-79.5"/>
<text text-anchor="start" x="8" y="-67.5" font-family="Helvetica,sans-Serif" font-size="10.00" fill="#000000">potr_health_thread</text>
<text text-anchor="middle" x="48.5" y="-56.5" font-family="Helvetica,sans-Serif" font-size="10.00" fill="#000000">_start</text>
</a>
</g>
</g>
<!-- Node2 -->
<g id="Node000002" class="node">
<title>Node2</title>
<g id="a_Node000002"><a xlink:href="potrHealthThread_8c.html#a7c706d98a6a4d22f8cc94b60698533c6" target="_top" xlink:title=" ">
<polygon fill="#ffffff" stroke="#666666" points="232,-74 133,-74 133,-55 232,-55 232,-74"/>
<text text-anchor="middle" x="182.5" y="-62" font-family="Helvetica,sans-Serif" font-size="10.00" fill="#000000">health_thread_func</text>
</a>
</g>
</g>
<!-- Node1&#45;&gt;Node2 -->
<g id="edge1_Node000001_Node000002" class="edge">
<title>Node1&#45;&gt;Node2</title>
<g id="a_edge1_Node000001_Node000002"><a xlink:title=" ">
<path fill="none" stroke="#63b8ff" d="M97.2561,-64.5C105.4491,-64.5 114.036,-64.5 122.4737,-64.5"/>
<polygon fill="#63b8ff" stroke="#63b8ff" points="122.6555,-68.0001 132.6554,-64.5 122.6554,-61.0001 122.6555,-68.0001"/>
</a>
</g>
</g>
<!-- Node3 -->
<g id="Node000003" class="node">
<title>Node3</title>
<g id="a_Node000003"><a xlink:href="potrHealthThread_8c.html#a98907ad6292bda01a6e3646c1d92b50f" target="_top" xlink:title=" ">
<polygon fill="#ffffff" stroke="#666666" points="355.5,-130 275.5,-130 275.5,-111 355.5,-111 355.5,-130"/>
<text text-anchor="middle" x="315.5" y="-118" font-family="Helvetica,sans-Serif" font-size="10.00" fill="#000000">health_get_ms</text>
</a>
</g>
</g>
<!-- Node2&#45;&gt;Node3 -->
<g id="edge2_Node000002_Node000003" class="edge">
<title>Node2&#45;&gt;Node3</title>
<g id="a_edge2_Node000002_Node000003"><a xlink:title=" ">
<path fill="none" stroke="#63b8ff" d="M203.0927,-74.0409C220.3246,-81.9308 245.6163,-93.2932 268,-102.5 271.7466,-104.041 275.6781,-105.6086 279.6074,-107.1436"/>
<polygon fill="#63b8ff" stroke="#63b8ff" points="278.6742,-110.5346 289.264,-110.8583 281.1874,-104.0013 278.6742,-110.5346"/>
</a>
</g>
</g>
<!-- Node4 -->
<g id="Node000004" class="node">
<title>Node4</title>
<g id="a_Node000004"><a xlink:href="potrHealthThread_8c.html#a142f92f00ffbf573f3ceede05d5020cb" target="_top" xlink:title=" ">
<polygon fill="#ffffff" stroke="#666666" points="351,-93 280,-93 280,-74 351,-74 351,-93"/>
<text text-anchor="middle" x="315.5" y="-81" font-family="Helvetica,sans-Serif" font-size="10.00" fill="#000000">health_sleep</text>
</a>
</g>
</g>
<!-- Node2&#45;&gt;Node4 -->
<g id="edge3_Node000002_Node000004" class="edge">
<title>Node2&#45;&gt;Node4</title>
<g id="a_edge3_Node000002_Node000004"><a xlink:title=" ">
<path fill="none" stroke="#63b8ff" d="M232.0243,-71.5749C244.3719,-73.3388 257.5564,-75.2223 269.7146,-76.9592"/>
<polygon fill="#63b8ff" stroke="#63b8ff" points="269.2507,-80.4284 279.6452,-78.3779 270.2407,-73.4988 269.2507,-80.4284"/>
</a>
</g>
</g>
<!-- Node5 -->
<g id="Node000005" class="node">
<title>Node5</title>
<g id="a_Node000005"><a xlink:href="packet_8c.html#a208f7dc4daa3e772a3f46ed3ab649a6f" target="_top" xlink:title="PING パケットを構築します。">
<polygon fill="#ffffff" stroke="#666666" points="363,-56 268,-56 268,-37 363,-37 363,-56"/>
<text text-anchor="middle" x="315.5" y="-44" font-family="Helvetica,sans-Serif" font-size="10.00" fill="#000000">packet_build_ping</text>
</a>
</g>
</g>
<!-- Node2&#45;&gt;Node5 -->
<g id="edge4_Node000002_Node000005" class="edge">
<title>Node2&#45;&gt;Node5</title>
<g id="a_edge4_Node000002_Node000005"><a xlink:title=" ">
<path fill="none" stroke="#63b8ff" d="M232.0243,-57.7975C240.4115,-56.6624 249.1847,-55.475 257.7602,-54.3144"/>
<polygon fill="#63b8ff" stroke="#63b8ff" points="258.261,-57.7786 267.7012,-52.969 257.3221,-50.8419 258.261,-57.7786"/>
</a>
</g>
</g>
<!-- Node8 -->
<g id="Node000008" class="node">
<title>Node8</title>
<g id="a_Node000008"><a xlink:href="packet_8c.html#aee7ebc74dbbe67fa4c9bcdced8dca70c" target="_top" xlink:title="パケットのヘッダー + ペイロードの合計バイト数を返します。">
<polygon fill="#ffffff" stroke="#666666" points="361.5,-19 269.5,-19 269.5,0 361.5,0 361.5,-19"/>
<text text-anchor="middle" x="315.5" y="-7" font-family="Helvetica,sans-Serif" font-size="10.00" fill="#000000">packet_wire_size</text>
</a>
</g>
</g>
<!-- Node2&#45;&gt;Node8 -->
<g id="edge7_Node000002_Node000008" class="edge">
<title>Node2&#45;&gt;Node8</title>
<g id="a_edge7_Node000002_Node000008"><a xlink:title=" ">
<path fill="none" stroke="#63b8ff" d="M204.9561,-54.9146C222.174,-47.5968 246.5448,-37.3071 268,-28.5 272.4883,-26.6576 277.2238,-24.7364 281.8968,-22.8539"/>
<polygon fill="#63b8ff" stroke="#63b8ff" points="283.3231,-26.0529 291.3015,-19.0818 280.7173,-19.556 283.3231,-26.0529"/>
</a>
</g>
</g>
<!-- Node6 -->
<g id="Node000006" class="node">
<title>Node6</title>
<g id="a_Node000006"><a xlink:href="packet_8c.html#a479088cf3b9ccf5ebe8891ad2881b196" target="_top" xlink:title=" ">
<polygon fill="#ffffff" stroke="#666666" points="483,-56 399,-56 399,-37 483,-37 483,-56"/>
<text text-anchor="middle" x="441" y="-44" font-family="Helvetica,sans-Serif" font-size="10.00" fill="#000000">fill_session_hdr</text>
</a>
</g>
</g>
<!-- Node5&#45;&gt;Node6 -->
<g id="edge5_Node000005_Node000006" class="edge">
<title>Node5&#45;&gt;Node6</title>
<g id="a_edge5_Node000005_Node000006"><a xlink:title=" ">
<path fill="none" stroke="#63b8ff" d="M363.3042,-46.5C371.5776,-46.5 380.2191,-46.5 388.6067,-46.5"/>
<polygon fill="#63b8ff" stroke="#63b8ff" points="388.67,-50.0001 398.67,-46.5 388.67,-43.0001 388.67,-50.0001"/>
</a>
</g>
</g>
<!-- Node7 -->
<g id="Node000007" class="node">
<title>Node7</title>
<g id="a_Node000007"><a xlink:href="packet_8c.html#a6564ae80f665edd6931ef662818e19b0" target="_top" xlink:title=" ">
<polygon fill="#ffffff" stroke="#666666" points="565,-56 519,-56 519,-37 565,-37 565,-56"/>
<text text-anchor="middle" x="542" y="-44" font-family="Helvetica,sans-Serif" font-size="10.00" fill="#000000">hton64</text>
</a>
</g>
</g>
<!-- Node6&#45;&gt;Node7 -->
<g id="edge6_Node000006_Node000007" class="edge">
<title>Node6&#45;&gt;Node7</title>
<g id="a_edge6_Node000006_Node000007"><a xlink:title=" ">
<path fill="none" stroke="#63b8ff" d="M483.2479,-46.5C491.7423,-46.5 500.5568,-46.5 508.6948,-46.5"/>
<polygon fill="#63b8ff" stroke="#63b8ff" points="508.9196,-50.0001 518.9196,-46.5 508.9195,-43.0001 508.9196,-50.0001"/>
</a>
</g>
</g>
</g>
</svg>
