<?xml version="1.0" encoding="UTF-8" standalone="no"?>
<!DOCTYPE svg PUBLIC "-//W3C//DTD SVG 1.1//EN"
 "http://www.w3.org/Graphics/SVG/1.1/DTD/svg11.dtd">
<!-- Generated by graphviz version 2.40.1 (0)
 -->
<!-- Title: porter/libsrc/porter/util/potrIpAddr.c Pages: 1 -->
<svg width="418pt" height="148pt"
 viewBox="0.00 0.00 417.50 148.00" xmlns="http://www.w3.org/2000/svg" xmlns:xlink="http://www.w3.org/1999/xlink">
<g id="graph0" class="graph" transform="scale(1 1) rotate(0) translate(4 144)">
<title>porter/libsrc/porter/util/potrIpAddr.c</title>
<!-- Node1 -->
<g id="Node000001" class="node">
<title>Node1</title>
<g id="a_Node000001"><a xlink:title="IPv4 アドレス変換ユーティリティ (内部用)。">
<polygon fill="#999999" stroke="#666666" points="209.5,-140 114.5,-140 114.5,-110 209.5,-110 209.5,-140"/>
<text text-anchor="start" x="122.5" y="-128" font-family="Helvetica,sans-Serif" font-size="10.00" fill="#000000">porter/libsrc/porter</text>
<text text-anchor="middle" x="162" y="-117" font-family="Helvetica,sans-Serif" font-size="10.00" fill="#000000">/util/potrIpAddr.c</text>
</a>
</g>
</g>
<!-- Node2 -->
<g id="Node000002" class="node">
<title>Node2</title>
<g id="a_Node000002"><a xlink:title=" ">
<polygon fill="#e0e0e0" stroke="#999999" points="52,-74 0,-74 0,-55 52,-55 52,-74"/>
<text text-anchor="middle" x="26" y="-62" font-family="Helvetica,sans-Serif" font-size="10.00" fill="#000000">stddef.h</text>
</a>
</g>
</g>
<!-- Node1&#45;&gt;Node2 -->
<g id="edge1_Node000001_Node000002" class="edge">
<title>Node1&#45;&gt;Node2</title>
<g id="a_edge1_Node000001_Node000002"><a xlink:title=" ">
<path fill="none" stroke="#63b8ff" d="M128.0323,-109.8894C106.1996,-100.177 78.0607,-87.6593 56.8648,-78.2303"/>
<polygon fill="#63b8ff" stroke="#63b8ff" points="58.2217,-75.0033 47.6624,-74.1366 55.3765,-81.399 58.2217,-75.0033"/>
</a>
</g>
</g>
<!-- Node3 -->
<g id="Node000003" class="node">
<title>Node3</title>
<g id="a_Node000003"><a xlink:title=" ">
<polygon fill="#e0e0e0" stroke="#999999" points="119.5,-74 70.5,-74 70.5,-55 119.5,-55 119.5,-74"/>
<text text-anchor="middle" x="95" y="-62" font-family="Helvetica,sans-Serif" font-size="10.00" fill="#000000">netdb.h</text>
</a>
</g>
</g>
<!-- Node1&#45;&gt;Node3 -->
<g id="edge2_Node000001_Node000003" class="edge">
<title>Node1&#45;&gt;Node3</title>
<g id="a_edge2_Node000001_Node000003"><a xlink:title=" ">
<path fill="none" stroke="#63b8ff" d="M145.0931,-109.7333C135.4016,-100.982 123.2313,-89.9924 113.3136,-81.0369"/>
<polygon fill="#63b8ff" stroke="#63b8ff" points="115.384,-78.1906 105.6163,-74.0864 110.6926,-83.386 115.384,-78.1906"/>
</a>
</g>
</g>
<!-- Node4 -->
<g id="Node000004" class="node">
<title>Node4</title>
<g id="a_Node000004"><a xlink:title=" ">
<polygon fill="#e0e0e0" stroke="#999999" points="186.5,-74 137.5,-74 137.5,-55 186.5,-55 186.5,-74"/>
<text text-anchor="middle" x="162" y="-62" font-family="Helvetica,sans-Serif" font-size="10.00" fill="#000000">string.h</text>
</a>
</g>
</g>
<!-- Node1&#45;&gt;Node4 -->
<g id="edge3_Node000001_Node000004" class="edge">
<title>Node1&#45;&gt;Node4</title>
<g id="a_edge3_Node000001_Node000004"><a xlink:title=" ">
<path fill="none" stroke="#63b8ff" d="M162,-109.7333C162,-102.0322 162,-92.5977 162,-84.3414"/>
<polygon fill="#63b8ff" stroke="#63b8ff" points="165.5001,-84.0864 162,-74.0864 158.5001,-84.0864 165.5001,-84.0864"/>
</a>
</g>
</g>
<!-- Node5 -->
<g id="Node000005" class="node">
<title>Node5</title>
<g id="a_Node000005"><a xlink:href="porter__const_8h.html" target="_top" xlink:title="通信ライブラリの定数ファイル。">
<polygon fill="#ffffff" stroke="#666666" points="283.5,-74 204.5,-74 204.5,-55 283.5,-55 283.5,-74"/>
<text text-anchor="middle" x="244" y="-62" font-family="Helvetica,sans-Serif" font-size="10.00" fill="#000000">porter_const.h</text>
</a>
</g>
</g>
<!-- Node1&#45;&gt;Node5 -->
<g id="edge4_Node000001_Node000005" class="edge">
<title>Node1&#45;&gt;Node5</title>
<g id="a_edge4_Node000001_Node000005"><a xlink:title=" ">
<path fill="none" stroke="#63b8ff" d="M182.6921,-109.7333C194.9091,-100.7195 210.3447,-89.3311 222.6712,-80.2365"/>
<polygon fill="#63b8ff" stroke="#63b8ff" points="225.0379,-82.8399 231.0069,-74.0864 220.882,-77.207 225.0379,-82.8399"/>
</a>
</g>
</g>
<!-- Node6 -->
<g id="Node000006" class="node">
<title>Node6</title>
<g id="a_Node000006"><a xlink:href="potrIpAddr_8h.html" target="_top" xlink:title="IPv4 アドレス変換ユーティリティ (内部用)。">
<polygon fill="#ffffff" stroke="#666666" points="370.5,-74 301.5,-74 301.5,-55 370.5,-55 370.5,-74"/>
<text text-anchor="middle" x="336" y="-62" font-family="Helvetica,sans-Serif" font-size="10.00" fill="#000000">potrIpAddr.h</text>
</a>
</g>
</g>
<!-- Node1&#45;&gt;Node6 -->
<g id="edge5_Node000001_Node000006" class="edge">
<title>Node1&#45;&gt;Node6</title>
<g id="a_edge5_Node000001_Node000006"><a xlink:title=" ">
<path fill="none" stroke="#63b8ff" d="M205.4587,-109.8894C234.2363,-99.8834 271.5774,-86.8998 298.9462,-77.3836"/>
<polygon fill="#63b8ff" stroke="#63b8ff" points="300.2481,-80.6366 308.5439,-74.0465 297.9491,-74.0249 300.2481,-80.6366"/>
</a>
</g>
</g>
<!-- Node7 -->
<g id="Node000007" class="node">
<title>Node7</title>
<g id="a_Node000007"><a xlink:title=" ">
<polygon fill="#e0e0e0" stroke="#999999" points="326,-19 264,-19 264,0 326,0 326,-19"/>
<text text-anchor="middle" x="295" y="-7" font-family="Helvetica,sans-Serif" font-size="10.00" fill="#000000">arpa/inet.h</text>
</a>
</g>
</g>
<!-- Node6&#45;&gt;Node7 -->
<g id="edge6_Node000006_Node000007" class="edge">
<title>Node6&#45;&gt;Node7</title>
<g id="a_edge6_Node000006_Node000007"><a xlink:title=" ">
<path fill="none" stroke="#63b8ff" d="M328.8583,-54.9197C323.2251,-47.363 315.2083,-36.6087 308.3895,-27.4616"/>
<polygon fill="#63b8ff" stroke="#63b8ff" points="311.1187,-25.2665 302.3359,-19.3408 305.5065,-29.4501 311.1187,-25.2665"/>
</a>
</g>
</g>
<!-- Node8 -->
<g id="Node000008" class="node">
<title>Node8</title>
<g id="a_Node000008"><a xlink:title=" ">
<polygon fill="#e0e0e0" stroke="#999999" points="409.5,-19 344.5,-19 344.5,0 409.5,0 409.5,-19"/>
<text text-anchor="middle" x="377" y="-7" font-family="Helvetica,sans-Serif" font-size="10.00" fill="#000000">netinet/in.h</text>
</a>
</g>
</g>
<!-- Node6&#45;&gt;Node8 -->
<g id="edge7_Node000006_Node000008" class="edge">
<title>Node6&#45;&gt;Node8</title>
<g id="a_edge7_Node000006_Node000008"><a xlink:title=" ">
<path fill="none" stroke="#63b8ff" d="M343.1417,-54.9197C348.7749,-47.363 356.7917,-36.6087 363.6105,-27.4616"/>
<polygon fill="#63b8ff" stroke="#63b8ff" points="366.4935,-29.4501 369.6641,-19.3408 360.8813,-25.2665 366.4935,-29.4501"/>
</a>
</g>
</g>
</g>
</svg>
