<?xml version="1.0" encoding="UTF-8" standalone="no"?>
<!DOCTYPE svg PUBLIC "-//W3C//DTD SVG 1.1//EN"
 "http://www.w3.org/Graphics/SVG/1.1/DTD/svg11.dtd">
<!-- Generated by graphviz version 2.40.1 (0)
 -->
<!-- Title: potr_log_write Pages: 1 -->
<svg width="240pt" height="175pt"
 viewBox="0.00 0.00 240.00 175.00" xmlns="http://www.w3.org/2000/svg" xmlns:xlink="http://www.w3.org/1999/xlink">
<g id="graph0" class="graph" transform="scale(1 1) rotate(0) translate(4 171)">
<title>potr_log_write</title>
<!-- Node1 -->
<g id="Node000001" class="node">
<title>Node1</title>
<g id="a_Node000001"><a xlink:title="ログメッセージを書き込みます (内部関数)。">
<polygon fill="#999999" stroke="#666666" points="77,-93 0,-93 0,-74 77,-74 77,-93"/>
<text text-anchor="middle" x="38.5" y="-81" font-family="Helvetica,sans-Serif" font-size="10.00" fill="#000000">potr_log_write</text>
</a>
</g>
</g>
<!-- Node2 -->
<g id="Node000002" class="node">
<title>Node2</title>
<g id="a_Node000002"><a xlink:href="potrLog_8c.html#ab9b1510a4897a49d3f74476b29076239" target="_top" xlink:title="PotrLogLevel を syslog の priority に変換する (Linux のみ)。">
<polygon fill="#ffffff" stroke="#666666" points="232,-167 113,-167 113,-148 232,-148 232,-167"/>
<text text-anchor="middle" x="172.5" y="-155" font-family="Helvetica,sans-Serif" font-size="10.00" fill="#000000">level_to_syslog_priority</text>
</a>
</g>
</g>
<!-- Node1&#45;&gt;Node2 -->
<g id="edge1_Node000001_Node000002" class="edge">
<title>Node1&#45;&gt;Node2</title>
<g id="a_edge1_Node000001_Node000002"><a xlink:title=" ">
<path fill="none" stroke="#63b8ff" d="M48.8049,-93.1378C62.4955,-105.4743 87.8881,-126.7702 113,-139.5 116.527,-141.2879 120.2633,-142.9328 124.0767,-144.4389"/>
<polygon fill="#63b8ff" stroke="#63b8ff" points="123.0451,-147.7877 133.6393,-147.8995 125.4271,-141.2054 123.0451,-147.7877"/>
</a>
</g>
</g>
<!-- Node3 -->
<g id="Node000003" class="node">
<title>Node3</title>
<g id="a_Node000003"><a xlink:href="potrLog_8c.html#ab440b31287f4ab75e0e3e594eff75578" target="_top" xlink:title="パスの末尾ファイル名部分を返す。">
<polygon fill="#ffffff" stroke="#666666" points="212.5,-130 132.5,-130 132.5,-111 212.5,-111 212.5,-130"/>
<text text-anchor="middle" x="172.5" y="-118" font-family="Helvetica,sans-Serif" font-size="10.00" fill="#000000">log_basename</text>
</a>
</g>
</g>
<!-- Node1&#45;&gt;Node3 -->
<g id="edge2_Node000001_Node000003" class="edge">
<title>Node1&#45;&gt;Node3</title>
<g id="a_edge2_Node000001_Node000003"><a xlink:title=" ">
<path fill="none" stroke="#63b8ff" d="M73.0083,-93.0284C89.7581,-97.6534 110.0827,-103.2654 127.9847,-108.2085"/>
<polygon fill="#63b8ff" stroke="#63b8ff" points="127.072,-111.5874 137.6429,-110.8753 128.9352,-104.8399 127.072,-111.5874"/>
</a>
</g>
</g>
<!-- Node4 -->
<g id="Node000004" class="node">
<title>Node4</title>
<g id="a_Node000004"><a xlink:href="potrLog_8c.html#a42443659f56ce0f07d1e7c3681cd47ab" target="_top" xlink:title=" ">
<polygon fill="#ffffff" stroke="#666666" points="199,-93 146,-93 146,-74 199,-74 199,-93"/>
<text text-anchor="middle" x="172.5" y="-81" font-family="Helvetica,sans-Serif" font-size="10.00" fill="#000000">log_lock</text>
</a>
</g>
</g>
<!-- Node1&#45;&gt;Node4 -->
<g id="edge3_Node000001_Node000004" class="edge">
<title>Node1&#45;&gt;Node4</title>
<g id="a_edge3_Node000001_Node000004"><a xlink:title=" ">
<path fill="none" stroke="#63b8ff" d="M77.2584,-83.5C95.6088,-83.5 117.4188,-83.5 135.5348,-83.5"/>
<polygon fill="#63b8ff" stroke="#63b8ff" points="135.7203,-87.0001 145.7202,-83.5 135.7202,-80.0001 135.7203,-87.0001"/>
</a>
</g>
</g>
<!-- Node5 -->
<g id="Node000005" class="node">
<title>Node5</title>
<g id="a_Node000005"><a xlink:href="potrLog_8c.html#a76f9122ad02601e097184079b22338f5" target="_top" xlink:title="現在時刻を &quot;[YYYY&#45;MM&#45;DD HH:MM:SS.mmm]&quot; 形式で buf に書き込む。">
<polygon fill="#ffffff" stroke="#666666" points="212.5,-56 132.5,-56 132.5,-37 212.5,-37 212.5,-56"/>
<text text-anchor="middle" x="172.5" y="-44" font-family="Helvetica,sans-Serif" font-size="10.00" fill="#000000">log_timestamp</text>
</a>
</g>
</g>
<!-- Node1&#45;&gt;Node5 -->
<g id="edge4_Node000001_Node000005" class="edge">
<title>Node1&#45;&gt;Node5</title>
<g id="a_edge4_Node000001_Node000005"><a xlink:title=" ">
<path fill="none" stroke="#63b8ff" d="M73.0083,-73.9716C89.7581,-69.3466 110.0827,-63.7346 127.9847,-58.7915"/>
<polygon fill="#63b8ff" stroke="#63b8ff" points="128.9352,-62.1601 137.6429,-56.1247 127.072,-55.4126 128.9352,-62.1601"/>
</a>
</g>
</g>
<!-- Node6 -->
<g id="Node000006" class="node">
<title>Node6</title>
<g id="a_Node000006"><a xlink:href="potrLog_8c.html#aa07558479d82b0b29196e21122eec296" target="_top" xlink:title=" ">
<polygon fill="#ffffff" stroke="#666666" points="204,-19 141,-19 141,0 204,0 204,-19"/>
<text text-anchor="middle" x="172.5" y="-7" font-family="Helvetica,sans-Serif" font-size="10.00" fill="#000000">log_unlock</text>
</a>
</g>
</g>
<!-- Node1&#45;&gt;Node6 -->
<g id="edge5_Node000001_Node000006" class="edge">
<title>Node1&#45;&gt;Node6</title>
<g id="a_edge5_Node000001_Node000006"><a xlink:title=" ">
<path fill="none" stroke="#63b8ff" d="M49.3466,-73.6862C63.2112,-61.587 88.3778,-41.0853 113,-28.5 118.7028,-25.5851 124.9413,-23.0038 131.1647,-20.7575"/>
<polygon fill="#63b8ff" stroke="#63b8ff" points="132.4878,-24.0053 140.8528,-17.5033 130.2588,-17.3696 132.4878,-24.0053"/>
</a>
</g>
</g>
</g>
</svg>
