<?xml version="1.0" encoding="UTF-8" standalone="no"?>
<!DOCTYPE svg PUBLIC "-//W3C//DTD SVG 1.1//EN"
 "http://www.w3.org/Graphics/SVG/1.1/DTD/svg11.dtd">
<!-- Generated by graphviz version 2.40.1 (0)
 -->
<!-- Title: porter/libsrc/porter/thread/potrHealthThread.c Pages: 1 -->
<!--zoomable 313 -->

<svg id="main" version="1.1" xmlns="http://www.w3.org/2000/svg" xmlns:xlink="http://www.w3.org/1999/xlink" xml:space="preserve" onload="init(evt)">

<style type="text/css"><![CDATA[
.node, .edge {opacity: 0.7;}
.node.selected, .edge.selected {opacity: 1;}
.edge:hover path { stroke: red; }
.edge:hover polygon { stroke: red; fill: red; }
]]></style>

<defs>
  <circle id="rim" cx="0" cy="0" r="7"/>
  <circle id="rim2" cx="0" cy="0" r="3.5"/>
  <g id="zoomPlus">
    <use xlink:href="#rim" fill="#404040"><set attributeName="fill" to="#808080" begin="zoomplus.mouseover" end="zoomplus.mouseout"/></use>
    <path d="M-4,0h8M0,-4v8" fill="none" stroke="white" stroke-width="1.5" pointer-events="none"/>
  </g>
  <g id="zoomMin">
    <use xlink:href="#rim" fill="#404040"><set attributeName="fill" to="#808080" begin="zoomminus.mouseover" end="zoomminus.mouseout"/></use>
    <path d="M-4,0h8" fill="none" stroke="white" stroke-width="1.5" pointer-events="none"/>
  </g>
  <g id="arrowUp" transform="translate(30 24)">
    <use xlink:href="#rim"/>
    <path pointer-events="none" fill="none" stroke="white" stroke-width="1.5" d="M0,-3.0v7 M-2.5,-0.5L0,-3.0L2.5,-0.5"/>
  </g>
  <g id="arrowRight" transform="rotate(90) translate(36 -43)">
    <use xlink:href="#rim"/>
    <path pointer-events="none" fill="none" stroke="white" stroke-width="1.5" d="M0,-3.0v7 M-2.5,-0.5L0,-3.0L2.5,-0.5"/>
  </g>
  <g id="arrowDown" transform="rotate(180) translate(-30 -48)">
    <use xlink:href="#rim"/>
    <path pointer-events="none" fill="none" stroke="white" stroke-width="1.5" d="M0,-3.0v7 M-2.5,-0.5L0,-3.0L2.5,-0.5"/>
  </g>
  <g id="arrowLeft" transform="rotate(270) translate(-36 17)">
    <use xlink:href="#rim"/>
    <path pointer-events="none" fill="none" stroke="white" stroke-width="1.5" d="M0,-3.0v7 M-2.5,-0.5L0,-3.0L2.5,-0.5"/>
  </g>
  <g id="resetDef">
    <use xlink:href="#rim2" fill="#404040"><set attributeName="fill" to="#808080" begin="reset.mouseover" end="reset.mouseout"/></use>
  </g>
</defs>
<script type="application/ecmascript">
var viewWidth = 870;
var viewHeight = 313;
var sectionId = 'dynsection-0';
</script>
<script type="application/ecmascript" xlink:href="svg.min.js"/>
<svg id="graph" class="graph">
<g id="viewport">
<title>porter/libsrc/porter/thread/potrHealthThread.c</title>
<!-- Node1 -->
<g id="Node000001" class="node">
<title>Node1</title>
<g id="a_Node000001"><a xlink:title="ヘルスチェックスレッドモジュール。">
<polygon fill="#999999" stroke="#666666" points="458.5,-305 326.5,-305 326.5,-275 458.5,-275 458.5,-305"/>
<text text-anchor="start" x="334.5" y="-293" font-family="Helvetica,sans-Serif" font-size="10.00" fill="#000000">porter/libsrc/porter</text>
<text text-anchor="middle" x="392.5" y="-282" font-family="Helvetica,sans-Serif" font-size="10.00" fill="#000000">/thread/potrHealthThread.c</text>
</a>
</g>
</g>
<!-- Node2 -->
<g id="Node000002" class="node">
<title>Node2</title>
<g id="a_Node000002"><a xlink:title=" ">
<polygon fill="#e0e0e0" stroke="#999999" points="49,-239 0,-239 0,-220 49,-220 49,-239"/>
<text text-anchor="middle" x="24.5" y="-227" font-family="Helvetica,sans-Serif" font-size="10.00" fill="#000000">string.h</text>
</a>
</g>
</g>
<!-- Node1&#45;&gt;Node2 -->
<g id="edge1_Node000001_Node000002" class="edge">
<title>Node1&#45;&gt;Node2</title>
<g id="a_edge1_Node000001_Node000002"><a xlink:title=" ">
<path fill="none" stroke="#63b8ff" d="M326.2472,-282.4788C260.5861,-274.4461 157.035,-260.2239 59.3233,-239.1958"/>
<polygon fill="#63b8ff" stroke="#63b8ff" points="59.7946,-235.7164 49.2784,-237.0052 58.303,-242.5556 59.7946,-235.7164"/>
</a>
</g>
</g>
<!-- Node3 -->
<g id="Node000003" class="node">
<title>Node3</title>
<g id="a_Node000003"><a xlink:title=" ">
<polygon fill="#e0e0e0" stroke="#999999" points="140,-239 67,-239 67,-220 140,-220 140,-239"/>
<text text-anchor="middle" x="103.5" y="-227" font-family="Helvetica,sans-Serif" font-size="10.00" fill="#000000">sys/socket.h</text>
</a>
</g>
</g>
<!-- Node1&#45;&gt;Node3 -->
<g id="edge2_Node000001_Node000003" class="edge">
<title>Node1&#45;&gt;Node3</title>
<g id="a_edge2_Node000001_Node000003"><a xlink:title=" ">
<path fill="none" stroke="#63b8ff" d="M326.1976,-276.1201C272.4797,-264.8746 198.1294,-249.31 150.4191,-239.3222"/>
<polygon fill="#63b8ff" stroke="#63b8ff" points="150.8707,-235.8409 140.3657,-237.2176 149.4364,-242.6924 150.8707,-235.8409"/>
</a>
</g>
</g>
<!-- Node4 -->
<g id="Node000004" class="node">
<title>Node4</title>
<g id="a_Node000004"><a xlink:title=" ">
<polygon fill="#e0e0e0" stroke="#999999" points="262,-129 197,-129 197,-110 262,-110 262,-129"/>
<text text-anchor="middle" x="229.5" y="-117" font-family="Helvetica,sans-Serif" font-size="10.00" fill="#000000">netinet/in.h</text>
</a>
</g>
</g>
<!-- Node1&#45;&gt;Node4 -->
<g id="edge3_Node000001_Node000004" class="edge">
<title>Node1&#45;&gt;Node4</title>
<g id="a_edge3_Node000001_Node000004"><a xlink:title=" ">
<path fill="none" stroke="#63b8ff" d="M380.7614,-274.8281C369.3724,-260.3556 351.3828,-238.1367 334.5,-220 305.534,-188.8826 269.2171,-155.195 247.7702,-135.7974"/>
<polygon fill="#63b8ff" stroke="#63b8ff" points="250.0996,-133.1852 240.3248,-129.098 245.4173,-138.3887 250.0996,-133.1852"/>
</a>
</g>
</g>
<!-- Node5 -->
<g id="Node000005" class="node">
<title>Node5</title>
<g id="a_Node000005"><a xlink:title=" ">
<polygon fill="#e0e0e0" stroke="#999999" points="263.5,-239 201.5,-239 201.5,-220 263.5,-220 263.5,-239"/>
<text text-anchor="middle" x="232.5" y="-227" font-family="Helvetica,sans-Serif" font-size="10.00" fill="#000000">arpa/inet.h</text>
</a>
</g>
</g>
<!-- Node1&#45;&gt;Node5 -->
<g id="edge4_Node000001_Node000005" class="edge">
<title>Node1&#45;&gt;Node5</title>
<g id="a_edge4_Node000001_Node000005"><a xlink:title=" ">
<path fill="none" stroke="#63b8ff" d="M352.538,-274.8894C326.3897,-265.002 292.5525,-252.2073 267.4717,-242.7237"/>
<polygon fill="#63b8ff" stroke="#63b8ff" points="268.5767,-239.3997 257.9851,-239.1366 266.1009,-245.9473 268.5767,-239.3997"/>
</a>
</g>
</g>
<!-- Node6 -->
<g id="Node000006" class="node">
<title>Node6</title>
<g id="a_Node000006"><a xlink:title=" ">
<polygon fill="#e0e0e0" stroke="#999999" points="325.5,-239 281.5,-239 281.5,-220 325.5,-220 325.5,-239"/>
<text text-anchor="middle" x="303.5" y="-227" font-family="Helvetica,sans-Serif" font-size="10.00" fill="#000000">time.h</text>
</a>
</g>
</g>
<!-- Node1&#45;&gt;Node6 -->
<g id="edge5_Node000001_Node000006" class="edge">
<title>Node1&#45;&gt;Node6</title>
<g id="a_edge5_Node000001_Node000006"><a xlink:title=" ">
<path fill="none" stroke="#63b8ff" d="M370.0415,-274.7333C356.5241,-265.5444 339.3764,-253.8879 325.8741,-244.7093"/>
<polygon fill="#63b8ff" stroke="#63b8ff" points="327.8401,-241.8137 317.6023,-239.0864 323.9048,-247.6028 327.8401,-241.8137"/>
</a>
</g>
</g>
<!-- Node7 -->
<g id="Node000007" class="node">
<title>Node7</title>
<g id="a_Node000007"><a xlink:href="porter__const_8h.html" target="_top" xlink:title="通信ライブラリの定数ファイル。">
<polygon fill="#ffffff" stroke="#666666" points="452,-19 373,-19 373,0 452,0 452,-19"/>
<text text-anchor="middle" x="412.5" y="-7" font-family="Helvetica,sans-Serif" font-size="10.00" fill="#000000">porter_const.h</text>
</a>
</g>
</g>
<!-- Node1&#45;&gt;Node7 -->
<g id="edge6_Node000001_Node000007" class="edge">
<title>Node1&#45;&gt;Node7</title>
<g id="a_edge6_Node000001_Node000007"><a xlink:title=" ">
<path fill="none" stroke="#63b8ff" d="M326.277,-279.892C275.986,-271.0013 212.2219,-256.7252 192.5,-239 169.7509,-218.5541 168.5,-205.0869 168.5,-174.5 168.5,-174.5 168.5,-174.5 168.5,-119.5 168.5,-88.7553 170.0435,-74.8753 193.5,-55 218.5325,-33.7894 305.9394,-20.7555 362.4686,-14.3453"/>
<polygon fill="#63b8ff" stroke="#63b8ff" points="363.0857,-17.7986 372.6425,-13.225 362.3194,-10.8407 363.0857,-17.7986"/>
</a>
</g>
</g>
<!-- Node8 -->
<g id="Node000008" class="node">
<title>Node8</title>
<g id="a_Node000008"><a xlink:href="porter_8h.html" target="_top" xlink:title="通信ライブラリ (動的リンク用) のヘッダーファイル。">
<polygon fill="#ffffff" stroke="#666666" points="652,-184 603,-184 603,-165 652,-165 652,-184"/>
<text text-anchor="middle" x="627.5" y="-172" font-family="Helvetica,sans-Serif" font-size="10.00" fill="#000000">porter.h</text>
</a>
</g>
</g>
<!-- Node1&#45;&gt;Node8 -->
<g id="edge7_Node000001_Node000008" class="edge">
<title>Node1&#45;&gt;Node8</title>
<g id="a_edge7_Node000001_Node000008"><a xlink:title=" ">
<path fill="none" stroke="#63b8ff" d="M458.5884,-278.3808C491.7094,-270.6026 531.4729,-258.1792 563.5,-239 583.6739,-226.919 602.0531,-207.0386 613.8878,-192.5375"/>
<polygon fill="#63b8ff" stroke="#63b8ff" points="616.9233,-194.3407 620.3684,-184.3216 611.4272,-190.0055 616.9233,-194.3407"/>
</a>
</g>
</g>
<!-- Node12 -->
<g id="Node000012" class="node">
<title>Node12</title>
<g id="a_Node000012"><a xlink:href="packet_8h.html" target="_top" xlink:title="パケット構築・解析モジュールの内部ヘッダー。">
<polygon fill="#ffffff" stroke="#666666" points="862,-129 761,-129 761,-110 862,-110 862,-129"/>
<text text-anchor="middle" x="811.5" y="-117" font-family="Helvetica,sans-Serif" font-size="10.00" fill="#000000">../protocol/packet.h</text>
</a>
</g>
</g>
<!-- Node1&#45;&gt;Node12 -->
<g id="edge12_Node000001_Node000012" class="edge">
<title>Node1&#45;&gt;Node12</title>
<g id="a_edge12_Node000001_Node000012"><a xlink:title=" ">
<path fill="none" stroke="#63b8ff" d="M458.5367,-279.1772C556.0233,-262.0222 732.0546,-226.1735 779.5,-184 792.9012,-172.0879 801.331,-153.2755 806.1532,-139.035"/>
<polygon fill="#63b8ff" stroke="#63b8ff" points="809.5754,-139.813 809.1602,-129.2263 802.8828,-137.7613 809.5754,-139.813"/>
</a>
</g>
</g>
<!-- Node13 -->
<g id="Node000013" class="node">
<title>Node13</title>
<g id="a_Node000013"><a xlink:href="window_8h.html" target="_top" xlink:title="スライディングウィンドウ管理モジュールの内部ヘッダー。">
<polygon fill="#ffffff" stroke="#666666" points="666.5,-129 564.5,-129 564.5,-110 666.5,-110 666.5,-129"/>
<text text-anchor="middle" x="615.5" y="-117" font-family="Helvetica,sans-Serif" font-size="10.00" fill="#000000">../protocol/window.h</text>
</a>
</g>
</g>
<!-- Node1&#45;&gt;Node13 -->
<g id="edge16_Node000001_Node000013" class="edge">
<title>Node1&#45;&gt;Node13</title>
<g id="a_edge16_Node000001_Node000013"><a xlink:title=" ">
<path fill="none" stroke="#63b8ff" d="M436.5602,-274.914C458.4218,-266.2707 484.5597,-254.1197 505.5,-239 546.4256,-209.4502 583.9035,-162.793 602.7431,-137.4037"/>
<polygon fill="#63b8ff" stroke="#63b8ff" points="605.747,-139.2247 608.8127,-129.0831 600.0917,-135.0994 605.747,-139.2247"/>
</a>
</g>
</g>
<!-- Node14 -->
<g id="Node000014" class="node">
<title>Node14</title>
<g id="a_Node000014"><a xlink:href="potrContext_8h.html" target="_top" xlink:title="セッションコンテキスト内部定義ヘッダー。">
<polygon fill="#ffffff" stroke="#666666" points="502.5,-184 418.5,-184 418.5,-165 502.5,-165 502.5,-184"/>
<text text-anchor="middle" x="460.5" y="-172" font-family="Helvetica,sans-Serif" font-size="10.00" fill="#000000">../potrContext.h</text>
</a>
</g>
</g>
<!-- Node1&#45;&gt;Node14 -->
<g id="edge20_Node000001_Node000014" class="edge">
<title>Node1&#45;&gt;Node14</title>
<g id="a_edge20_Node000001_Node000014"><a xlink:title=" ">
<path fill="none" stroke="#63b8ff" d="M445.2051,-274.9939C462.7305,-267.218 480.3499,-255.7244 490.5,-239 499.8389,-223.6122 488.8195,-204.8388 477.5962,-191.5227"/>
<polygon fill="#63b8ff" stroke="#63b8ff" points="480.0821,-189.0542 470.7619,-184.0159 474.9059,-193.7667 480.0821,-189.0542"/>
</a>
</g>
</g>
<!-- Node19 -->
<g id="Node000019" class="node">
<title>Node19</title>
<g id="a_Node000019"><a xlink:href="potrHealthThread_8h.html" target="_top" xlink:title="ヘルスチェックスレッド内部ヘッダー。">
<polygon fill="#ffffff" stroke="#666666" points="481,-239 382,-239 382,-220 481,-220 481,-239"/>
<text text-anchor="middle" x="431.5" y="-227" font-family="Helvetica,sans-Serif" font-size="10.00" fill="#000000">potrHealthThread.h</text>
</a>
</g>
</g>
<!-- Node1&#45;&gt;Node19 -->
<g id="edge38_Node000001_Node000019" class="edge">
<title>Node1&#45;&gt;Node19</title>
<g id="a_edge38_Node000001_Node000019"><a xlink:title=" ">
<path fill="none" stroke="#63b8ff" d="M402.3413,-274.7333C407.6442,-266.5071 414.2219,-256.3031 419.7872,-247.6699"/>
<polygon fill="#63b8ff" stroke="#63b8ff" points="422.8439,-249.3878 425.3203,-239.0864 416.9604,-245.5951 422.8439,-249.3878"/>
</a>
</g>
</g>
<!-- Node20 -->
<g id="Node000020" class="node">
<title>Node20</title>
<g id="a_Node000020"><a xlink:href="potrLog_8h.html" target="_top" xlink:title="porter 内部ログマクロ定義ヘッダー。">
<polygon fill="#ffffff" stroke="#666666" points="770.5,-184 682.5,-184 682.5,-165 770.5,-165 770.5,-184"/>
<text text-anchor="middle" x="726.5" y="-172" font-family="Helvetica,sans-Serif" font-size="10.00" fill="#000000">../infra/potrLog.h</text>
</a>
</g>
</g>
<!-- Node1&#45;&gt;Node20 -->
<g id="edge40_Node000001_Node000020" class="edge">
<title>Node1&#45;&gt;Node20</title>
<g id="a_edge40_Node000001_Node000020"><a xlink:title=" ">
<path fill="none" stroke="#63b8ff" d="M458.7447,-275.9439C497.1596,-267.0086 546.1596,-254.2586 588.5,-239 628.3378,-224.6433 672.3285,-203.0126 699.6919,-188.8239"/>
<polygon fill="#63b8ff" stroke="#63b8ff" points="701.4058,-191.8773 708.6432,-184.1396 698.1602,-185.6752 701.4058,-191.8773"/>
</a>
</g>
</g>
<!-- Node9 -->
<g id="Node000009" class="node">
<title>Node9</title>
<g id="a_Node000009"><a xlink:href="porter__type_8h.html" target="_top" xlink:title="通信ライブラリの型定義ファイル。">
<polygon fill="#ffffff" stroke="#666666" points="742.5,-74 668.5,-74 668.5,-55 742.5,-55 742.5,-74"/>
<text text-anchor="middle" x="705.5" y="-62" font-family="Helvetica,sans-Serif" font-size="10.00" fill="#000000">porter_type.h</text>
</a>
</g>
</g>
<!-- Node8&#45;&gt;Node9 -->
<g id="edge8_Node000008_Node000009" class="edge">
<title>Node8&#45;&gt;Node9</title>
<g id="a_edge8_Node000008_Node000009"><a xlink:title=" ">
<path fill="none" stroke="#63b8ff" d="M640.1992,-164.7481C650.6897,-156.1986 665.4402,-142.9803 675.5,-129 685.5174,-115.0786 693.4949,-97.28 698.6977,-83.9077"/>
<polygon fill="#63b8ff" stroke="#63b8ff" points="702.0684,-84.884 702.2613,-74.2909 695.5046,-82.4516 702.0684,-84.884"/>
</a>
</g>
</g>
<!-- Node9&#45;&gt;Node7 -->
<g id="edge11_Node000009_Node000007" class="edge">
<title>Node9&#45;&gt;Node7</title>
<g id="a_edge11_Node000009_Node000007"><a xlink:title=" ">
<path fill="none" stroke="#63b8ff" d="M668.3567,-56.7577C665.3618,-56.1552 662.3812,-55.5628 659.5,-55 591.238,-41.6655 512.1474,-27.2833 462.2245,-18.3359"/>
<polygon fill="#63b8ff" stroke="#63b8ff" points="462.795,-14.8825 452.3349,-16.5662 461.5619,-21.773 462.795,-14.8825"/>
</a>
</g>
</g>
<!-- Node10 -->
<g id="Node000010" class="node">
<title>Node10</title>
<g id="a_Node000010"><a xlink:title=" ">
<polygon fill="#e0e0e0" stroke="#999999" points="624.5,-19 572.5,-19 572.5,0 624.5,0 624.5,-19"/>
<text text-anchor="middle" x="598.5" y="-7" font-family="Helvetica,sans-Serif" font-size="10.00" fill="#000000">stddef.h</text>
</a>
</g>
</g>
<!-- Node9&#45;&gt;Node10 -->
<g id="edge9_Node000009_Node000010" class="edge">
<title>Node9&#45;&gt;Node10</title>
<g id="a_edge9_Node000009_Node000010"><a xlink:title=" ">
<path fill="none" stroke="#63b8ff" d="M686.862,-54.9197C670.1638,-46.3365 645.4402,-33.6281 626.3882,-23.8351"/>
<polygon fill="#63b8ff" stroke="#63b8ff" points="627.7773,-20.6138 617.2834,-19.155 624.5772,-26.8395 627.7773,-20.6138"/>
</a>
</g>
</g>
<!-- Node11 -->
<g id="Node000011" class="node">
<title>Node11</title>
<g id="a_Node000011"><a xlink:title=" ">
<polygon fill="#e0e0e0" stroke="#999999" points="730,-19 681,-19 681,0 730,0 730,-19"/>
<text text-anchor="middle" x="705.5" y="-7" font-family="Helvetica,sans-Serif" font-size="10.00" fill="#000000">stdint.h</text>
</a>
</g>
</g>
<!-- Node9&#45;&gt;Node11 -->
<g id="edge10_Node000009_Node000011" class="edge">
<title>Node9&#45;&gt;Node11</title>
<g id="a_edge10_Node000009_Node000011"><a xlink:title=" ">
<path fill="none" stroke="#63b8ff" d="M705.5,-54.9197C705.5,-47.9083 705.5,-38.1442 705.5,-29.4652"/>
<polygon fill="#63b8ff" stroke="#63b8ff" points="709.0001,-29.3408 705.5,-19.3408 702.0001,-29.3409 709.0001,-29.3408"/>
</a>
</g>
</g>
<!-- Node12&#45;&gt;Node9 -->
<g id="edge15_Node000012_Node000009" class="edge">
<title>Node12&#45;&gt;Node9</title>
<g id="a_edge15_Node000012_Node000009"><a xlink:title=" ">
<path fill="none" stroke="#63b8ff" d="M793.0362,-109.9197C776.494,-101.3365 752.0015,-88.6281 733.1276,-78.8351"/>
<polygon fill="#63b8ff" stroke="#63b8ff" points="734.5961,-75.654 724.1079,-74.155 731.3722,-81.8674 734.5961,-75.654"/>
</a>
</g>
</g>
<!-- Node12&#45;&gt;Node10 -->
<g id="edge13_Node000012_Node000010" class="edge">
<title>Node12&#45;&gt;Node10</title>
<g id="a_edge13_Node000012_Node000010"><a xlink:title=" ">
<path fill="none" stroke="#63b8ff" d="M804.9606,-109.6585C795.0524,-95.5049 774.8925,-69.513 751.5,-55 715.1647,-32.4572 667.047,-20.5594 634.5506,-14.6639"/>
<polygon fill="#63b8ff" stroke="#63b8ff" points="635.0311,-11.1953 624.5834,-12.9548 633.848,-18.0946 635.0311,-11.1953"/>
</a>
</g>
</g>
<!-- Node12&#45;&gt;Node11 -->
<g id="edge14_Node000012_Node000011" class="edge">
<title>Node12&#45;&gt;Node11</title>
<g id="a_edge14_Node000012_Node000011"><a xlink:title=" ">
<path fill="none" stroke="#63b8ff" d="M817.1207,-109.8333C824.1388,-96.3529 833.9163,-71.6889 822.5,-55 812.8541,-40.8992 771.1421,-27.0047 740.257,-18.3523"/>
<polygon fill="#63b8ff" stroke="#63b8ff" points="740.8285,-14.8804 730.26,-15.6263 738.9869,-21.6338 740.8285,-14.8804"/>
</a>
</g>
</g>
<!-- Node13&#45;&gt;Node7 -->
<g id="edge18_Node000013_Node000007" class="edge">
<title>Node13&#45;&gt;Node7</title>
<g id="a_edge18_Node000013_Node000007"><a xlink:title=" ">
<path fill="none" stroke="#63b8ff" d="M564.4683,-116.8413C503.2303,-112.4588 405.9625,-101.2958 383.5,-74 371.8914,-59.8936 383.5748,-40.395 395.3956,-26.5382"/>
<polygon fill="#63b8ff" stroke="#63b8ff" points="398.022,-28.8527 402.1964,-19.1149 392.8605,-24.1241 398.022,-28.8527"/>
</a>
</g>
</g>
<!-- Node13&#45;&gt;Node9 -->
<g id="edge19_Node000013_Node000009" class="edge">
<title>Node13&#45;&gt;Node9</title>
<g id="a_edge19_Node000013_Node000009"><a xlink:title=" ">
<path fill="none" stroke="#63b8ff" d="M631.1768,-109.9197C644.9014,-101.5325 665.0715,-89.2063 680.9377,-79.5103"/>
<polygon fill="#63b8ff" stroke="#63b8ff" points="682.9931,-82.3561 689.7009,-74.155 679.3429,-76.3831 682.9931,-82.3561"/>
</a>
</g>
</g>
<!-- Node13&#45;&gt;Node11 -->
<g id="edge17_Node000013_Node000011" class="edge">
<title>Node13&#45;&gt;Node11</title>
<g id="a_edge17_Node000013_Node000011"><a xlink:title=" ">
<path fill="none" stroke="#63b8ff" d="M662.2998,-109.939C697.2577,-101.7365 740.7718,-88.9018 751.5,-74 763.407,-57.4607 746.1203,-38.4594 729.4454,-25.3867"/>
<polygon fill="#63b8ff" stroke="#63b8ff" points="731.0698,-22.2371 720.9391,-19.1355 726.9245,-27.8777 731.0698,-22.2371"/>
</a>
</g>
</g>
<!-- Node14&#45;&gt;Node4 -->
<g id="edge37_Node000014_Node000004" class="edge">
<title>Node14&#45;&gt;Node4</title>
<g id="a_edge37_Node000014_Node000004"><a xlink:title=" ">
<path fill="none" stroke="#63b8ff" d="M420.5266,-164.9825C379.0437,-155.1056 314.4143,-139.7177 272.0149,-129.6226"/>
<polygon fill="#63b8ff" stroke="#63b8ff" points="272.8083,-126.2137 262.2696,-127.3023 271.1869,-133.0234 272.8083,-126.2137"/>
</a>
</g>
</g>
<!-- Node14&#45;&gt;Node9 -->
<g id="edge21_Node000014_Node000009" class="edge">
<title>Node14&#45;&gt;Node9</title>
<g id="a_edge21_Node000014_Node000009"><a xlink:title=" ">
<path fill="none" stroke="#63b8ff" d="M473.4683,-164.9741C495.2823,-149.0749 538.5898,-118.0746 555.5,-110 588.4846,-94.2499 628.1493,-82.5018 658.4042,-74.8919"/>
<polygon fill="#63b8ff" stroke="#63b8ff" points="659.4019,-78.251 668.2806,-72.47 657.7347,-71.4524 659.4019,-78.251"/>
</a>
</g>
</g>
<!-- Node14&#45;&gt;Node13 -->
<g id="edge22_Node000014_Node000013" class="edge">
<title>Node14&#45;&gt;Node13</title>
<g id="a_edge22_Node000014_Node000013"><a xlink:title=" ">
<path fill="none" stroke="#63b8ff" d="M487.4989,-164.9197C512.8701,-155.9171 551.0307,-142.3762 579.0863,-132.421"/>
<polygon fill="#63b8ff" stroke="#63b8ff" points="580.297,-135.7053 588.5509,-129.0626 577.9561,-129.1083 580.297,-135.7053"/>
</a>
</g>
</g>
<!-- Node15 -->
<g id="Node000015" class="node">
<title>Node15</title>
<g id="a_Node000015"><a xlink:href="compress_8h.html" target="_top" xlink:title="データ圧縮・解凍モジュールの内部ヘッダー。">
<polygon fill="#ffffff" stroke="#666666" points="528,-74 393,-74 393,-55 528,-55 528,-74"/>
<text text-anchor="middle" x="460.5" y="-62" font-family="Helvetica,sans-Serif" font-size="10.00" fill="#000000">infra/compress/compress.h</text>
</a>
</g>
</g>
<!-- Node14&#45;&gt;Node15 -->
<g id="edge23_Node000014_Node000015" class="edge">
<title>Node14&#45;&gt;Node15</title>
<g id="a_edge23_Node000014_Node000015"><a xlink:title=" ">
<path fill="none" stroke="#63b8ff" d="M460.5,-164.7382C460.5,-146.7541 460.5,-108.0652 460.5,-84.3599"/>
<polygon fill="#63b8ff" stroke="#63b8ff" points="464.0001,-84.0828 460.5,-74.0828 457.0001,-84.0829 464.0001,-84.0828"/>
</a>
</g>
</g>
<!-- Node16 -->
<g id="Node000016" class="node">
<title>Node16</title>
<g id="a_Node000016"><a xlink:href="crypto_8h.html" target="_top" xlink:title="データ暗号化・復号モジュールの内部ヘッダー。">
<polygon fill="#ffffff" stroke="#666666" points="650.5,-74 546.5,-74 546.5,-55 650.5,-55 650.5,-74"/>
<text text-anchor="middle" x="598.5" y="-62" font-family="Helvetica,sans-Serif" font-size="10.00" fill="#000000">infra/crypto/crypto.h</text>
</a>
</g>
</g>
<!-- Node14&#45;&gt;Node16 -->
<g id="edge27_Node000014_Node000016" class="edge">
<title>Node14&#45;&gt;Node16</title>
<g id="a_edge27_Node000014_Node000016"><a xlink:title=" ">
<path fill="none" stroke="#63b8ff" d="M468.2355,-164.9808C479.344,-151.6758 500.8688,-127.2187 522.5,-110 537.3048,-98.2152 555.4356,-87.2475 570.2749,-79.034"/>
<polygon fill="#63b8ff" stroke="#63b8ff" points="572.3525,-81.8895 579.4831,-74.0534 569.0222,-75.7324 572.3525,-81.8895"/>
</a>
</g>
</g>
<!-- Node17 -->
<g id="Node000017" class="node">
<title>Node17</title>
<g id="a_Node000017"><a xlink:href="potrSendQueue_8h.html" target="_top" xlink:title="非同期送信キューの型定義と操作関数。">
<polygon fill="#ffffff" stroke="#666666" points="432.5,-129 318.5,-129 318.5,-110 432.5,-110 432.5,-129"/>
<text text-anchor="middle" x="375.5" y="-117" font-family="Helvetica,sans-Serif" font-size="10.00" fill="#000000">infra/potrSendQueue.h</text>
</a>
</g>
</g>
<!-- Node14&#45;&gt;Node17 -->
<g id="edge31_Node000014_Node000017" class="edge">
<title>Node14&#45;&gt;Node17</title>
<g id="a_edge31_Node000014_Node000017"><a xlink:title=" ">
<path fill="none" stroke="#63b8ff" d="M445.6941,-164.9197C432.8532,-156.6109 414.038,-144.4363 399.1189,-134.7828"/>
<polygon fill="#63b8ff" stroke="#63b8ff" points="400.7185,-131.6491 390.4214,-129.155 396.9157,-137.5261 400.7185,-131.6491"/>
</a>
</g>
</g>
<!-- Node18 -->
<g id="Node000018" class="node">
<title>Node18</title>
<g id="a_Node000018"><a xlink:title=" ">
<polygon fill="#e0e0e0" stroke="#999999" points="260,-74 203,-74 203,-55 260,-55 260,-74"/>
<text text-anchor="middle" x="231.5" y="-62" font-family="Helvetica,sans-Serif" font-size="10.00" fill="#000000">pthread.h</text>
</a>
</g>
</g>
<!-- Node14&#45;&gt;Node18 -->
<g id="edge36_Node000014_Node000018" class="edge">
<title>Node14&#45;&gt;Node18</title>
<g id="a_edge36_Node000014_Node000018"><a xlink:title=" ">
<path fill="none" stroke="#63b8ff" d="M418.3839,-166.5377C387.0841,-159.5193 344.0124,-147.4887 309.5,-129 285.9757,-116.3977 262.9107,-96.047 248.0396,-81.577"/>
<polygon fill="#63b8ff" stroke="#63b8ff" points="250.223,-78.8114 240.67,-74.2296 245.2807,-83.7687 250.223,-78.8114"/>
</a>
</g>
</g>
<!-- Node15&#45;&gt;Node7 -->
<g id="edge26_Node000015_Node000007" class="edge">
<title>Node15&#45;&gt;Node7</title>
<g id="a_edge26_Node000015_Node000007"><a xlink:title=" ">
<path fill="none" stroke="#63b8ff" d="M452.139,-54.9197C445.4081,-47.2072 435.7703,-36.1639 427.6836,-26.8978"/>
<polygon fill="#63b8ff" stroke="#63b8ff" points="430.3007,-24.5737 421.0884,-19.3408 425.0267,-29.1765 430.3007,-24.5737"/>
</a>
</g>
</g>
<!-- Node15&#45;&gt;Node10 -->
<g id="edge24_Node000015_Node000010" class="edge">
<title>Node15&#45;&gt;Node10</title>
<g id="a_edge24_Node000015_Node000010"><a xlink:title=" ">
<path fill="none" stroke="#63b8ff" d="M484.5378,-54.9197C506.7622,-46.0622 540.0093,-32.8115 564.8652,-22.9052"/>
<polygon fill="#63b8ff" stroke="#63b8ff" points="566.2811,-26.1087 574.2747,-19.155 563.6894,-19.6061 566.2811,-26.1087"/>
</a>
</g>
</g>
<!-- Node15&#45;&gt;Node11 -->
<g id="edge25_Node000015_Node000011" class="edge">
<title>Node15&#45;&gt;Node11</title>
<g id="a_edge25_Node000015_Node000011"><a xlink:title=" ">
<path fill="none" stroke="#63b8ff" d="M502.896,-54.9825C550.4433,-44.3087 626.6615,-27.1984 670.8085,-17.2879"/>
<polygon fill="#63b8ff" stroke="#63b8ff" points="671.786,-20.6556 680.7765,-15.0502 670.2526,-13.8256 671.786,-20.6556"/>
</a>
</g>
</g>
<!-- Node16&#45;&gt;Node7 -->
<g id="edge30_Node000016_Node000007" class="edge">
<title>Node16&#45;&gt;Node7</title>
<g id="a_edge30_Node000016_Node000007"><a xlink:title=" ">
<path fill="none" stroke="#63b8ff" d="M566.1013,-54.9197C535.1241,-45.7598 488.2587,-31.9018 454.4435,-21.9027"/>
<polygon fill="#63b8ff" stroke="#63b8ff" points="455.421,-18.5419 444.839,-19.0626 453.436,-25.2546 455.421,-18.5419"/>
</a>
</g>
</g>
<!-- Node16&#45;&gt;Node10 -->
<g id="edge28_Node000016_Node000010" class="edge">
<title>Node16&#45;&gt;Node10</title>
<g id="a_edge28_Node000016_Node000010"><a xlink:title=" ">
<path fill="none" stroke="#63b8ff" d="M598.5,-54.9197C598.5,-47.9083 598.5,-38.1442 598.5,-29.4652"/>
<polygon fill="#63b8ff" stroke="#63b8ff" points="602.0001,-29.3408 598.5,-19.3408 595.0001,-29.3409 602.0001,-29.3408"/>
</a>
</g>
</g>
<!-- Node16&#45;&gt;Node11 -->
<g id="edge29_Node000016_Node000011" class="edge">
<title>Node16&#45;&gt;Node11</title>
<g id="a_edge29_Node000016_Node000011"><a xlink:title=" ">
<path fill="none" stroke="#63b8ff" d="M617.138,-54.9197C633.8362,-46.3365 658.5598,-33.6281 677.6118,-23.8351"/>
<polygon fill="#63b8ff" stroke="#63b8ff" points="679.4228,-26.8395 686.7166,-19.155 676.2227,-20.6138 679.4228,-26.8395"/>
</a>
</g>
</g>
<!-- Node17&#45;&gt;Node7 -->
<g id="edge33_Node000017_Node000007" class="edge">
<title>Node17&#45;&gt;Node7</title>
<g id="a_edge33_Node000017_Node000007"><a xlink:title=" ">
<path fill="none" stroke="#63b8ff" d="M353.6564,-109.9225C330.2243,-98.2288 298.1824,-77.2444 312.5,-55 323.8922,-37.3005 344.0453,-26.4055 363.289,-19.7376"/>
<polygon fill="#63b8ff" stroke="#63b8ff" points="364.4299,-23.0479 372.9182,-16.7075 362.3287,-16.3707 364.4299,-23.0479"/>
</a>
</g>
</g>
<!-- Node17&#45;&gt;Node9 -->
<g id="edge34_Node000017_Node000009" class="edge">
<title>Node17&#45;&gt;Node9</title>
<g id="a_edge34_Node000017_Node000009"><a xlink:title=" ">
<path fill="none" stroke="#63b8ff" d="M432.7452,-111.0988C488.0055,-102.8148 574.2791,-89.4258 658.392,-74.141"/>
<polygon fill="#63b8ff" stroke="#63b8ff" points="659.1633,-77.5581 668.3708,-72.3167 657.9044,-70.6722 659.1633,-77.5581"/>
</a>
</g>
</g>
<!-- Node17&#45;&gt;Node10 -->
<g id="edge32_Node000017_Node000010" class="edge">
<title>Node17&#45;&gt;Node10</title>
<g id="a_edge32_Node000017_Node000010"><a xlink:title=" ">
<path fill="none" stroke="#63b8ff" d="M373.5643,-109.7767C371.3883,-95.7704 369.7625,-69.9601 383.5,-55 407.1977,-29.1934 507.5553,-16.9965 562.3785,-12.1641"/>
<polygon fill="#63b8ff" stroke="#63b8ff" points="562.7082,-15.6488 572.3783,-11.3199 562.1193,-8.6736 562.7082,-15.6488"/>
</a>
</g>
</g>
<!-- Node17&#45;&gt;Node18 -->
<g id="edge35_Node000017_Node000018" class="edge">
<title>Node17&#45;&gt;Node18</title>
<g id="a_edge35_Node000017_Node000018"><a xlink:title=" ">
<path fill="none" stroke="#63b8ff" d="M350.4171,-109.9197C327.1238,-101.023 292.2266,-87.6942 266.2534,-77.7739"/>
<polygon fill="#63b8ff" stroke="#63b8ff" points="267.3692,-74.4535 256.7786,-74.155 264.8716,-80.9928 267.3692,-74.4535"/>
</a>
</g>
</g>
<!-- Node19&#45;&gt;Node14 -->
<g id="edge39_Node000019_Node000014" class="edge">
<title>Node19&#45;&gt;Node14</title>
<g id="a_edge39_Node000019_Node000014"><a xlink:title=" ">
<path fill="none" stroke="#63b8ff" d="M436.5514,-219.9197C440.4126,-212.5967 445.8572,-202.2709 450.5795,-193.3147"/>
<polygon fill="#63b8ff" stroke="#63b8ff" points="453.7431,-194.819 455.3112,-184.3408 447.5511,-191.5541 453.7431,-194.819"/>
</a>
</g>
</g>
<!-- Node20&#45;&gt;Node9 -->
<g id="edge41_Node000020_Node000009" class="edge">
<title>Node20&#45;&gt;Node9</title>
<g id="a_edge41_Node000020_Node000009"><a xlink:title=" ">
<path fill="none" stroke="#63b8ff" d="M724.6364,-164.7382C721.1875,-146.6724 713.7498,-107.713 709.2299,-84.0376"/>
<polygon fill="#63b8ff" stroke="#63b8ff" points="712.6427,-83.2491 707.3294,-74.0828 705.7668,-84.5618 712.6427,-83.2491"/>
</a>
</g>
</g>
</g>
</svg>

<g id="navigator" transform="translate(0 0)" fill="#404254">
  <rect fill="#f2f5e9" fill-opacity="0.5" stroke="#606060" stroke-width=".5" x="0" y="0" width="60" height="60"/>
  <use id="zoomplus" xlink:href="#zoomPlus" x="17" y="9" onmousedown="handleZoom(evt,'in')"/>
  <use id="zoomminus" xlink:href="#zoomMin" x="42" y="9" onmousedown="handleZoom(evt,'out')"/>
  <use id="reset" xlink:href="#resetDef" x="30" y="36" onmousedown="handleReset()"/>
   <use id="arrowup" xlink:href="#arrowUp" x="0" y="0" onmousedown="handlePan(0,-1)"/>
  <use id="arrowright" xlink:href="#arrowRight" x="0" y="0" onmousedown="handlePan(1,0)"/>
  <use id="arrowdown" xlink:href="#arrowDown" x="0" y="0" onmousedown="handlePan(0,1)"/>
  <use id="arrowleft" xlink:href="#arrowLeft" x="0" y="0" onmousedown="handlePan(-1,0)"/>
</g>
<svg viewBox="0 0 15 15" width="100%" height="30px" preserveAspectRatio="xMaxYMin meet">
 <g id="arrow_out" transform="scale(0.3 0.3)">
  <a xlink:href="potrHealthThread_8c__incl_org.svg" target="_base">
   <rect id="button" ry="5" rx="5" y="6" x="6" height="38" width="38"
        fill="#f2f5e9" fill-opacity="0.5" stroke="#606060" stroke-width="1.0"/>
   <path id="arrow"
     d="M 11.500037,31.436501 C 11.940474,20.09759 22.043105,11.32322 32.158766,21.979434 L 37.068811,17.246167 C 37.068811,17.246167 37.088388,32 37.088388,32 L 22.160133,31.978069 C 22.160133,31.978069 26.997745,27.140456 26.997745,27.140456 C 18.528582,18.264221 13.291696,25.230495 11.500037,31.436501 z"
     style="fill:#404040;"/>
  </a>
 </g>
</svg>

<style type='text/css'>
<![CDATA[
[data-mouse-over-selected='false'] { opacity: 0.7; }
[data-mouse-over-selected='true']  { opacity: 1.0; }
]]>
</style>
<script type="application/ecmascript"><![CDATA[
document.addEventListener('DOMContentLoaded', (event) => {
  highlightEdges();
  highlightAdjacentNodes();
});
]]></script>
</svg>
