<?xml version="1.0" encoding="UTF-8" standalone="no"?>
<!DOCTYPE svg PUBLIC "-//W3C//DTD SVG 1.1//EN"
 "http://www.w3.org/Graphics/SVG/1.1/DTD/svg11.dtd">
<!-- Generated by graphviz version 2.40.1 (0)
 -->
<!-- Title: porter/libsrc/porter/potrRecvThread.c Pages: 1 -->
<!--zoomable 313 -->

<svg id="main" version="1.1" xmlns="http://www.w3.org/2000/svg" xmlns:xlink="http://www.w3.org/1999/xlink" xml:space="preserve" onload="init(evt)">

<style type="text/css"><![CDATA[
.node, .edge {opacity: 0.7;}
.node.selected, .edge.selected {opacity: 1;}
.edge:hover path { stroke: red; }
.edge:hover polygon { stroke: red; fill: red; }
]]></style>

<defs>
  <circle id="rim" cx="0" cy="0" r="7"/>
  <circle id="rim2" cx="0" cy="0" r="3.5"/>
  <g id="zoomPlus">
    <use xlink:href="#rim" fill="#404040"><set attributeName="fill" to="#808080" begin="zoomplus.mouseover" end="zoomplus.mouseout"/></use>
    <path d="M-4,0h8M0,-4v8" fill="none" stroke="white" stroke-width="1.5" pointer-events="none"/>
  </g>
  <g id="zoomMin">
    <use xlink:href="#rim" fill="#404040"><set attributeName="fill" to="#808080" begin="zoomminus.mouseover" end="zoomminus.mouseout"/></use>
    <path d="M-4,0h8" fill="none" stroke="white" stroke-width="1.5" pointer-events="none"/>
  </g>
  <g id="arrowUp" transform="translate(30 24)">
    <use xlink:href="#rim"/>
    <path pointer-events="none" fill="none" stroke="white" stroke-width="1.5" d="M0,-3.0v7 M-2.5,-0.5L0,-3.0L2.5,-0.5"/>
  </g>
  <g id="arrowRight" transform="rotate(90) translate(36 -43)">
    <use xlink:href="#rim"/>
    <path pointer-events="none" fill="none" stroke="white" stroke-width="1.5" d="M0,-3.0v7 M-2.5,-0.5L0,-3.0L2.5,-0.5"/>
  </g>
  <g id="arrowDown" transform="rotate(180) translate(-30 -48)">
    <use xlink:href="#rim"/>
    <path pointer-events="none" fill="none" stroke="white" stroke-width="1.5" d="M0,-3.0v7 M-2.5,-0.5L0,-3.0L2.5,-0.5"/>
  </g>
  <g id="arrowLeft" transform="rotate(270) translate(-36 17)">
    <use xlink:href="#rim"/>
    <path pointer-events="none" fill="none" stroke="white" stroke-width="1.5" d="M0,-3.0v7 M-2.5,-0.5L0,-3.0L2.5,-0.5"/>
  </g>
  <g id="resetDef">
    <use xlink:href="#rim2" fill="#404040"><set attributeName="fill" to="#808080" begin="reset.mouseover" end="reset.mouseout"/></use>
  </g>
</defs>
<script type="application/ecmascript">
var viewWidth = 836;
var viewHeight = 313;
var sectionId = 'dynsection-0';
</script>
<script type="application/ecmascript" xlink:href="svg.min.js"/>
<svg id="graph" class="graph">
<g id="viewport">
<title>porter/libsrc/porter/potrRecvThread.c</title>
<!-- Node1 -->
<g id="Node000001" class="node">
<title>Node1</title>
<g id="a_Node000001"><a xlink:title="受信スレッドモジュール。">
<polygon fill="#999999" stroke="#666666" points="450,-305 353,-305 353,-275 450,-275 450,-305"/>
<text text-anchor="start" x="361" y="-293" font-family="Helvetica,sans-Serif" font-size="10.00" fill="#000000">porter/libsrc/porter</text>
<text text-anchor="middle" x="401.5" y="-282" font-family="Helvetica,sans-Serif" font-size="10.00" fill="#000000">/potrRecvThread.c</text>
</a>
</g>
</g>
<!-- Node2 -->
<g id="Node000002" class="node">
<title>Node2</title>
<g id="a_Node000002"><a xlink:title=" ">
<polygon fill="#e0e0e0" stroke="#999999" points="49,-239 0,-239 0,-220 49,-220 49,-239"/>
<text text-anchor="middle" x="24.5" y="-227" font-family="Helvetica,sans-Serif" font-size="10.00" fill="#000000">string.h</text>
</a>
</g>
</g>
<!-- Node1&#45;&gt;Node2 -->
<g id="edge1_Node000001_Node000002" class="edge">
<title>Node1&#45;&gt;Node2</title>
<g id="a_edge1_Node000001_Node000002"><a xlink:title=" ">
<path fill="none" stroke="#63b8ff" d="M352.9926,-284.8713C288.0104,-277.5471 169.0164,-262.5481 59.1931,-239.1566"/>
<polygon fill="#63b8ff" stroke="#63b8ff" points="59.7896,-235.7048 49.2761,-237.0157 58.3124,-242.5472 59.7896,-235.7048"/>
</a>
</g>
</g>
<!-- Node3 -->
<g id="Node000003" class="node">
<title>Node3</title>
<g id="a_Node000003"><a xlink:title=" ">
<polygon fill="#e0e0e0" stroke="#999999" points="140,-239 67,-239 67,-220 140,-220 140,-239"/>
<text text-anchor="middle" x="103.5" y="-227" font-family="Helvetica,sans-Serif" font-size="10.00" fill="#000000">sys/socket.h</text>
</a>
</g>
</g>
<!-- Node1&#45;&gt;Node3 -->
<g id="edge2_Node000001_Node000003" class="edge">
<title>Node1&#45;&gt;Node3</title>
<g id="a_edge2_Node000001_Node000003"><a xlink:title=" ">
<path fill="none" stroke="#63b8ff" d="M352.9714,-280.3544C304.2102,-270.632 226.6157,-255.0773 150.563,-239.414"/>
<polygon fill="#63b8ff" stroke="#63b8ff" points="150.8321,-235.8959 140.3312,-237.3041 149.4183,-242.7517 150.8321,-235.8959"/>
</a>
</g>
</g>
<!-- Node4 -->
<g id="Node000004" class="node">
<title>Node4</title>
<g id="a_Node000004"><a xlink:title=" ">
<polygon fill="#e0e0e0" stroke="#999999" points="223,-239 158,-239 158,-220 223,-220 223,-239"/>
<text text-anchor="middle" x="190.5" y="-227" font-family="Helvetica,sans-Serif" font-size="10.00" fill="#000000">netinet/in.h</text>
</a>
</g>
</g>
<!-- Node1&#45;&gt;Node4 -->
<g id="edge3_Node000001_Node000004" class="edge">
<title>Node1&#45;&gt;Node4</title>
<g id="a_edge3_Node000001_Node000004"><a xlink:title=" ">
<path fill="none" stroke="#63b8ff" d="M352.8274,-276.0441C316.6052,-265.6581 267.6439,-251.6195 232.9933,-241.6841"/>
<polygon fill="#63b8ff" stroke="#63b8ff" points="233.7537,-238.2611 223.1763,-238.8693 231.8243,-244.99 233.7537,-238.2611"/>
</a>
</g>
</g>
<!-- Node5 -->
<g id="Node000005" class="node">
<title>Node5</title>
<g id="a_Node000005"><a xlink:title=" ">
<polygon fill="#e0e0e0" stroke="#999999" points="303.5,-239 241.5,-239 241.5,-220 303.5,-220 303.5,-239"/>
<text text-anchor="middle" x="272.5" y="-227" font-family="Helvetica,sans-Serif" font-size="10.00" fill="#000000">arpa/inet.h</text>
</a>
</g>
</g>
<!-- Node1&#45;&gt;Node5 -->
<g id="edge4_Node000001_Node000005" class="edge">
<title>Node1&#45;&gt;Node5</title>
<g id="a_edge4_Node000001_Node000005"><a xlink:title=" ">
<path fill="none" stroke="#63b8ff" d="M369.2806,-274.8894C348.7583,-265.2645 322.3615,-252.8847 302.3212,-243.4859"/>
<polygon fill="#63b8ff" stroke="#63b8ff" points="303.5873,-240.2139 293.0474,-239.1366 300.615,-246.5516 303.5873,-240.2139"/>
</a>
</g>
</g>
<!-- Node6 -->
<g id="Node000006" class="node">
<title>Node6</title>
<g id="a_Node000006"><a xlink:title=" ">
<polygon fill="#e0e0e0" stroke="#999999" points="373,-239 322,-239 322,-220 373,-220 373,-239"/>
<text text-anchor="middle" x="347.5" y="-227" font-family="Helvetica,sans-Serif" font-size="10.00" fill="#000000">unistd.h</text>
</a>
</g>
</g>
<!-- Node1&#45;&gt;Node6 -->
<g id="edge5_Node000001_Node000006" class="edge">
<title>Node1&#45;&gt;Node6</title>
<g id="a_edge5_Node000001_Node000006"><a xlink:title=" ">
<path fill="none" stroke="#63b8ff" d="M387.8735,-274.7333C380.2187,-266.157 370.6451,-255.4311 362.742,-246.5766"/>
<polygon fill="#63b8ff" stroke="#63b8ff" points="365.3266,-244.2163 356.0565,-239.0864 360.1043,-248.8775 365.3266,-244.2163"/>
</a>
</g>
</g>
<!-- Node7 -->
<g id="Node000007" class="node">
<title>Node7</title>
<g id="a_Node000007"><a xlink:href="porter__const_8h.html" target="_top" xlink:title="通信ライブラリの定数ファイル。">
<polygon fill="#ffffff" stroke="#666666" points="745,-19 666,-19 666,0 745,0 745,-19"/>
<text text-anchor="middle" x="705.5" y="-7" font-family="Helvetica,sans-Serif" font-size="10.00" fill="#000000">porter_const.h</text>
</a>
</g>
</g>
<!-- Node1&#45;&gt;Node7 -->
<g id="edge6_Node000001_Node000007" class="edge">
<title>Node1&#45;&gt;Node7</title>
<g id="a_edge6_Node000001_Node000007"><a xlink:title=" ">
<path fill="none" stroke="#63b8ff" d="M450.3676,-287.0816C562.264,-279.0635 827.5,-251.8947 827.5,-174.5 827.5,-174.5 827.5,-174.5 827.5,-119.5 827.5,-89.6154 828.22,-77.4546 808.5,-55 794.485,-39.0416 773.8145,-28.4334 754.6618,-21.5086"/>
<polygon fill="#63b8ff" stroke="#63b8ff" points="755.7177,-18.1712 745.1237,-18.3062 753.4896,-24.8071 755.7177,-18.1712"/>
</a>
</g>
</g>
<!-- Node8 -->
<g id="Node000008" class="node">
<title>Node8</title>
<g id="a_Node000008"><a xlink:href="packet_8h.html" target="_top" xlink:title="パケット構築・解析モジュールの内部ヘッダー。">
<polygon fill="#ffffff" stroke="#666666" points="505.5,-129 413.5,-129 413.5,-110 505.5,-110 505.5,-129"/>
<text text-anchor="middle" x="459.5" y="-117" font-family="Helvetica,sans-Serif" font-size="10.00" fill="#000000">protocol/packet.h</text>
</a>
</g>
</g>
<!-- Node1&#45;&gt;Node8 -->
<g id="edge7_Node000001_Node000008" class="edge">
<title>Node1&#45;&gt;Node8</title>
<g id="a_edge7_Node000001_Node000008"><a xlink:title=" ">
<path fill="none" stroke="#63b8ff" d="M406.6471,-274.8693C417.2042,-243.8351 441.2927,-173.0232 452.9458,-138.7672"/>
<polygon fill="#63b8ff" stroke="#63b8ff" points="456.3523,-139.6208 456.2593,-129.0264 449.7252,-137.3664 456.3523,-139.6208"/>
</a>
</g>
</g>
<!-- Node12 -->
<g id="Node000012" class="node">
<title>Node12</title>
<g id="a_Node000012"><a xlink:href="window_8h.html" target="_top" xlink:title="スライディングウィンドウ管理モジュールの内部ヘッダー。">
<polygon fill="#ffffff" stroke="#666666" points="730,-129 637,-129 637,-110 730,-110 730,-129"/>
<text text-anchor="middle" x="683.5" y="-117" font-family="Helvetica,sans-Serif" font-size="10.00" fill="#000000">protocol/window.h</text>
</a>
</g>
</g>
<!-- Node1&#45;&gt;Node12 -->
<g id="edge14_Node000001_Node000012" class="edge">
<title>Node1&#45;&gt;Node12</title>
<g id="a_edge14_Node000001_Node000012"><a xlink:title=" ">
<path fill="none" stroke="#63b8ff" d="M450.0795,-282.3588C502.9959,-273.2926 583.4541,-257.1061 608.5,-239 643.8987,-213.4097 666.3736,-165.4849 676.753,-138.7593"/>
<polygon fill="#63b8ff" stroke="#63b8ff" points="680.051,-139.9318 680.2489,-129.3388 673.4884,-137.4964 680.051,-139.9318"/>
</a>
</g>
</g>
<!-- Node13 -->
<g id="Node000013" class="node">
<title>Node13</title>
<g id="a_Node000013"><a xlink:href="potrContext_8h.html" target="_top" xlink:title="セッションコンテキスト内部定義ヘッダー。">
<polygon fill="#ffffff" stroke="#666666" points="590,-184 515,-184 515,-165 590,-165 590,-184"/>
<text text-anchor="middle" x="552.5" y="-172" font-family="Helvetica,sans-Serif" font-size="10.00" fill="#000000">potrContext.h</text>
</a>
</g>
</g>
<!-- Node1&#45;&gt;Node13 -->
<g id="edge18_Node000001_Node000013" class="edge">
<title>Node1&#45;&gt;Node13</title>
<g id="a_edge18_Node000001_Node000013"><a xlink:title=" ">
<path fill="none" stroke="#63b8ff" d="M421.2406,-274.9004C449.7849,-253.0668 502.3543,-212.8565 531.5566,-190.5196"/>
<polygon fill="#63b8ff" stroke="#63b8ff" points="534.0004,-193.0569 539.8168,-184.2014 529.7475,-187.4969 534.0004,-193.0569"/>
</a>
</g>
</g>
<!-- Node15 -->
<g id="Node000015" class="node">
<title>Node15</title>
<g id="a_Node000015"><a xlink:href="compress_8h.html" target="_top" xlink:title="データ圧縮・解凍モジュールの内部ヘッダー。">
<polygon fill="#ffffff" stroke="#666666" points="431,-74 318,-74 318,-55 431,-55 431,-74"/>
<text text-anchor="middle" x="374.5" y="-62" font-family="Helvetica,sans-Serif" font-size="10.00" fill="#000000">compress/compress.h</text>
</a>
</g>
</g>
<!-- Node1&#45;&gt;Node15 -->
<g id="edge30_Node000001_Node000015" class="edge">
<title>Node1&#45;&gt;Node15</title>
<g id="a_edge30_Node000001_Node000015"><a xlink:title=" ">
<path fill="none" stroke="#63b8ff" d="M399.6865,-274.8542C394.9442,-235.247 382.1757,-128.606 376.8661,-84.2616"/>
<polygon fill="#63b8ff" stroke="#63b8ff" points="380.3235,-83.6956 375.6593,-74.1827 373.3731,-84.5279 380.3235,-83.6956"/>
</a>
</g>
</g>
<!-- Node17 -->
<g id="Node000017" class="node">
<title>Node17</title>
<g id="a_Node000017"><a xlink:href="potrRecvThread_8h.html" target="_top" xlink:title="受信スレッド内部ヘッダー。">
<polygon fill="#ffffff" stroke="#666666" points="599.5,-239 505.5,-239 505.5,-220 599.5,-220 599.5,-239"/>
<text text-anchor="middle" x="552.5" y="-227" font-family="Helvetica,sans-Serif" font-size="10.00" fill="#000000">potrRecvThread.h</text>
</a>
</g>
</g>
<!-- Node1&#45;&gt;Node17 -->
<g id="edge28_Node000001_Node000017" class="edge">
<title>Node1&#45;&gt;Node17</title>
<g id="a_edge28_Node000001_Node000017"><a xlink:title=" ">
<path fill="none" stroke="#63b8ff" d="M439.2142,-274.8894C463.6732,-265.0895 495.2608,-252.4336 518.8651,-242.9762"/>
<polygon fill="#63b8ff" stroke="#63b8ff" points="520.4675,-246.1048 528.4484,-239.1366 517.864,-239.6069 520.4675,-246.1048"/>
</a>
</g>
</g>
<!-- Node9 -->
<g id="Node000009" class="node">
<title>Node9</title>
<g id="a_Node000009"><a xlink:title=" ">
<polygon fill="#e0e0e0" stroke="#999999" points="485.5,-19 433.5,-19 433.5,0 485.5,0 485.5,-19"/>
<text text-anchor="middle" x="459.5" y="-7" font-family="Helvetica,sans-Serif" font-size="10.00" fill="#000000">stddef.h</text>
</a>
</g>
</g>
<!-- Node8&#45;&gt;Node9 -->
<g id="edge8_Node000008_Node000009" class="edge">
<title>Node8&#45;&gt;Node9</title>
<g id="a_edge8_Node000008_Node000009"><a xlink:title=" ">
<path fill="none" stroke="#63b8ff" d="M459.5,-109.7382C459.5,-91.7541 459.5,-53.0652 459.5,-29.3599"/>
<polygon fill="#63b8ff" stroke="#63b8ff" points="463.0001,-29.0828 459.5,-19.0828 456.0001,-29.0829 463.0001,-29.0828"/>
</a>
</g>
</g>
<!-- Node10 -->
<g id="Node000010" class="node">
<title>Node10</title>
<g id="a_Node000010"><a xlink:title=" ">
<polygon fill="#e0e0e0" stroke="#999999" points="587,-19 538,-19 538,0 587,0 587,-19"/>
<text text-anchor="middle" x="562.5" y="-7" font-family="Helvetica,sans-Serif" font-size="10.00" fill="#000000">stdint.h</text>
</a>
</g>
</g>
<!-- Node8&#45;&gt;Node10 -->
<g id="edge9_Node000008_Node000010" class="edge">
<title>Node8&#45;&gt;Node10</title>
<g id="a_edge9_Node000008_Node000010"><a xlink:title=" ">
<path fill="none" stroke="#63b8ff" d="M467.7999,-109.7025C478.7241,-96.9025 498.6372,-73.8957 516.5,-55 525.7165,-45.2506 536.3459,-34.6943 545.0637,-26.2063"/>
<polygon fill="#63b8ff" stroke="#63b8ff" points="547.6821,-28.543 552.437,-19.0751 542.8156,-23.5113 547.6821,-28.543"/>
</a>
</g>
</g>
<!-- Node11 -->
<g id="Node000011" class="node">
<title>Node11</title>
<g id="a_Node000011"><a xlink:href="porter__type_8h.html" target="_top" xlink:title="通信ライブラリの型定義ファイル。">
<polygon fill="#ffffff" stroke="#666666" points="599.5,-74 525.5,-74 525.5,-55 599.5,-55 599.5,-74"/>
<text text-anchor="middle" x="562.5" y="-62" font-family="Helvetica,sans-Serif" font-size="10.00" fill="#000000">porter_type.h</text>
</a>
</g>
</g>
<!-- Node8&#45;&gt;Node11 -->
<g id="edge10_Node000008_Node000011" class="edge">
<title>Node8&#45;&gt;Node11</title>
<g id="a_edge10_Node000008_Node000011"><a xlink:title=" ">
<path fill="none" stroke="#63b8ff" d="M477.4412,-109.9197C493.4418,-101.3757 517.0974,-88.7441 535.4028,-78.9694"/>
<polygon fill="#63b8ff" stroke="#63b8ff" points="537.2462,-81.9528 544.4188,-74.155 533.949,-75.778 537.2462,-81.9528"/>
</a>
</g>
</g>
<!-- Node11&#45;&gt;Node7 -->
<g id="edge13_Node000011_Node000007" class="edge">
<title>Node11&#45;&gt;Node7</title>
<g id="a_edge13_Node000011_Node000007"><a xlink:title=" ">
<path fill="none" stroke="#63b8ff" d="M587.4087,-54.9197C610.5402,-46.023 645.1951,-32.6942 670.988,-22.7739"/>
<polygon fill="#63b8ff" stroke="#63b8ff" points="672.3199,-26.0116 680.3969,-19.155 669.807,-19.4782 672.3199,-26.0116"/>
</a>
</g>
</g>
<!-- Node11&#45;&gt;Node9 -->
<g id="edge11_Node000011_Node000009" class="edge">
<title>Node11&#45;&gt;Node9</title>
<g id="a_edge11_Node000011_Node000009"><a xlink:title=" ">
<path fill="none" stroke="#63b8ff" d="M544.5588,-54.9197C528.5582,-46.3757 504.9026,-33.7441 486.5972,-23.9694"/>
<polygon fill="#63b8ff" stroke="#63b8ff" points="488.051,-20.778 477.5812,-19.155 484.7538,-26.9528 488.051,-20.778"/>
</a>
</g>
</g>
<!-- Node11&#45;&gt;Node10 -->
<g id="edge12_Node000011_Node000010" class="edge">
<title>Node11&#45;&gt;Node10</title>
<g id="a_edge12_Node000011_Node000010"><a xlink:title=" ">
<path fill="none" stroke="#63b8ff" d="M562.5,-54.9197C562.5,-47.9083 562.5,-38.1442 562.5,-29.4652"/>
<polygon fill="#63b8ff" stroke="#63b8ff" points="566.0001,-29.3408 562.5,-19.3408 559.0001,-29.3409 566.0001,-29.3408"/>
</a>
</g>
</g>
<!-- Node12&#45;&gt;Node7 -->
<g id="edge16_Node000012_Node000007" class="edge">
<title>Node12&#45;&gt;Node7</title>
<g id="a_edge16_Node000012_Node000007"><a xlink:title=" ">
<path fill="none" stroke="#63b8ff" d="M682.41,-109.7346C681.2656,-96.9693 680.1722,-74.0001 684.5,-55 686.6154,-45.7127 690.7624,-36.0471 694.8164,-28.0254"/>
<polygon fill="#63b8ff" stroke="#63b8ff" points="697.9134,-29.6563 699.5723,-19.1921 691.7499,-26.3378 697.9134,-29.6563"/>
</a>
</g>
</g>
<!-- Node12&#45;&gt;Node10 -->
<g id="edge15_Node000012_Node000010" class="edge">
<title>Node12&#45;&gt;Node10</title>
<g id="a_edge15_Node000012_Node000010"><a xlink:title=" ">
<path fill="none" stroke="#63b8ff" d="M672.7621,-109.7382C651.9904,-90.8549 606.109,-49.1445 580.5631,-25.921"/>
<polygon fill="#63b8ff" stroke="#63b8ff" points="582.7949,-23.2198 573.0411,-19.0828 578.0862,-28.3994 582.7949,-23.2198"/>
</a>
</g>
</g>
<!-- Node12&#45;&gt;Node11 -->
<g id="edge17_Node000012_Node000011" class="edge">
<title>Node12&#45;&gt;Node11</title>
<g id="a_edge17_Node000012_Node000011"><a xlink:title=" ">
<path fill="none" stroke="#63b8ff" d="M662.4234,-109.9197C643.1955,-101.1798 614.5576,-88.1625 592.8631,-78.3014"/>
<polygon fill="#63b8ff" stroke="#63b8ff" points="594.2931,-75.1068 583.7411,-74.155 591.3964,-81.4794 594.2931,-75.1068"/>
</a>
</g>
</g>
<!-- Node13&#45;&gt;Node11 -->
<g id="edge19_Node000013_Node000011" class="edge">
<title>Node13&#45;&gt;Node11</title>
<g id="a_edge19_Node000013_Node000011"><a xlink:title=" ">
<path fill="none" stroke="#63b8ff" d="M552.1111,-164.8511C551.7248,-152.2118 551.4501,-129.3786 553.5,-110 554.4085,-101.4118 556.1354,-92.0336 557.8355,-84.0347"/>
<polygon fill="#63b8ff" stroke="#63b8ff" points="561.2709,-84.711 560.0579,-74.1859 554.4425,-83.1702 561.2709,-84.711"/>
</a>
</g>
</g>
<!-- Node13&#45;&gt;Node12 -->
<g id="edge23_Node000013_Node000012" class="edge">
<title>Node13&#45;&gt;Node12</title>
<g id="a_edge23_Node000013_Node000012"><a xlink:title=" ">
<path fill="none" stroke="#63b8ff" d="M575.3185,-164.9197C596.3222,-156.1014 627.6971,-142.9287 651.2577,-133.0369"/>
<polygon fill="#63b8ff" stroke="#63b8ff" points="652.6381,-136.2533 660.5035,-129.155 649.9282,-129.7991 652.6381,-136.2533"/>
</a>
</g>
</g>
<!-- Node14 -->
<g id="Node000014" class="node">
<title>Node14</title>
<g id="a_Node000014"><a xlink:href="retransmit_8h.html" target="_top" xlink:title="再送制御モジュールの内部ヘッダー。">
<polygon fill="#ffffff" stroke="#666666" points="799.5,-74 693.5,-74 693.5,-55 799.5,-55 799.5,-74"/>
<text text-anchor="middle" x="746.5" y="-62" font-family="Helvetica,sans-Serif" font-size="10.00" fill="#000000">protocol/retransmit.h</text>
</a>
</g>
</g>
<!-- Node13&#45;&gt;Node14 -->
<g id="edge20_Node000013_Node000014" class="edge">
<title>Node13&#45;&gt;Node14</title>
<g id="a_edge20_Node000013_Node000014"><a xlink:title=" ">
<path fill="none" stroke="#63b8ff" d="M590.1908,-170.4226C638.9943,-164.3203 720.1097,-151.1032 739.5,-129 750.0501,-116.9738 751.0483,-98.4382 749.8461,-84.3179"/>
<polygon fill="#63b8ff" stroke="#63b8ff" points="753.2864,-83.6265 748.5507,-74.149 746.3425,-84.5111 753.2864,-83.6265"/>
</a>
</g>
</g>
<!-- Node13&#45;&gt;Node15 -->
<g id="edge24_Node000013_Node000015" class="edge">
<title>Node13&#45;&gt;Node15</title>
<g id="a_edge24_Node000013_Node000015"><a xlink:title=" ">
<path fill="none" stroke="#63b8ff" d="M514.9617,-171.4533C482.3145,-166.9965 435.5058,-156.022 404.5,-129 391.1455,-117.3614 383.338,-98.516 379.0539,-84.1936"/>
<polygon fill="#63b8ff" stroke="#63b8ff" points="382.3806,-83.0838 376.4312,-74.3171 375.6151,-84.8804 382.3806,-83.0838"/>
</a>
</g>
</g>
<!-- Node16 -->
<g id="Node000016" class="node">
<title>Node16</title>
<g id="a_Node000016"><a xlink:title=" ">
<polygon fill="#e0e0e0" stroke="#999999" points="619,-129 562,-129 562,-110 619,-110 619,-129"/>
<text text-anchor="middle" x="590.5" y="-117" font-family="Helvetica,sans-Serif" font-size="10.00" fill="#000000">pthread.h</text>
</a>
</g>
</g>
<!-- Node13&#45;&gt;Node16 -->
<g id="edge27_Node000013_Node000016" class="edge">
<title>Node13&#45;&gt;Node16</title>
<g id="a_edge27_Node000013_Node000016"><a xlink:title=" ">
<path fill="none" stroke="#63b8ff" d="M559.1191,-164.9197C564.2863,-157.4409 571.6174,-146.8301 577.8944,-137.745"/>
<polygon fill="#63b8ff" stroke="#63b8ff" points="580.8961,-139.5577 583.7009,-129.3408 575.137,-135.5786 580.8961,-139.5577"/>
</a>
</g>
</g>
<!-- Node14&#45;&gt;Node7 -->
<g id="edge22_Node000014_Node000007" class="edge">
<title>Node14&#45;&gt;Node7</title>
<g id="a_edge22_Node000014_Node000007"><a xlink:title=" ">
<path fill="none" stroke="#63b8ff" d="M739.3583,-54.9197C733.7251,-47.363 725.7083,-36.6087 718.8895,-27.4616"/>
<polygon fill="#63b8ff" stroke="#63b8ff" points="721.6187,-25.2665 712.8359,-19.3408 716.0065,-29.4501 721.6187,-25.2665"/>
</a>
</g>
</g>
<!-- Node14&#45;&gt;Node10 -->
<g id="edge21_Node000014_Node000010" class="edge">
<title>Node14&#45;&gt;Node10</title>
<g id="a_edge21_Node000014_Node000010"><a xlink:title=" ">
<path fill="none" stroke="#63b8ff" d="M714.4496,-54.9197C681.6043,-45.1018 630.7024,-29.8866 596.9943,-19.8108"/>
<polygon fill="#63b8ff" stroke="#63b8ff" points="597.7077,-16.3711 587.1241,-16.8605 595.7029,-23.0779 597.7077,-16.3711"/>
</a>
</g>
</g>
<!-- Node15&#45;&gt;Node9 -->
<g id="edge25_Node000015_Node000009" class="edge">
<title>Node15&#45;&gt;Node9</title>
<g id="a_edge25_Node000015_Node000009"><a xlink:title=" ">
<path fill="none" stroke="#63b8ff" d="M389.3059,-54.9197C402.1468,-46.6109 420.962,-34.4363 435.8811,-24.7828"/>
<polygon fill="#63b8ff" stroke="#63b8ff" points="438.0843,-27.5261 444.5786,-19.155 434.2815,-21.6491 438.0843,-27.5261"/>
</a>
</g>
</g>
<!-- Node15&#45;&gt;Node10 -->
<g id="edge26_Node000015_Node000010" class="edge">
<title>Node15&#45;&gt;Node10</title>
<g id="a_edge26_Node000015_Node000010"><a xlink:title=" ">
<path fill="none" stroke="#63b8ff" d="M407.2471,-54.9197C441.1426,-45.0035 493.8587,-29.5812 528.2855,-19.5096"/>
<polygon fill="#63b8ff" stroke="#63b8ff" points="529.2953,-22.8609 537.9102,-16.6938 527.3297,-16.1425 529.2953,-22.8609"/>
</a>
</g>
</g>
<!-- Node17&#45;&gt;Node13 -->
<g id="edge29_Node000017_Node000013" class="edge">
<title>Node17&#45;&gt;Node13</title>
<g id="a_edge29_Node000017_Node000013"><a xlink:title=" ">
<path fill="none" stroke="#63b8ff" d="M552.5,-219.9197C552.5,-212.9083 552.5,-203.1442 552.5,-194.4652"/>
<polygon fill="#63b8ff" stroke="#63b8ff" points="556.0001,-194.3408 552.5,-184.3408 549.0001,-194.3409 556.0001,-194.3408"/>
</a>
</g>
</g>
</g>
</svg>

<g id="navigator" transform="translate(0 0)" fill="#404254">
  <rect fill="#f2f5e9" fill-opacity="0.5" stroke="#606060" stroke-width=".5" x="0" y="0" width="60" height="60"/>
  <use id="zoomplus" xlink:href="#zoomPlus" x="17" y="9" onmousedown="handleZoom(evt,'in')"/>
  <use id="zoomminus" xlink:href="#zoomMin" x="42" y="9" onmousedown="handleZoom(evt,'out')"/>
  <use id="reset" xlink:href="#resetDef" x="30" y="36" onmousedown="handleReset()"/>
   <use id="arrowup" xlink:href="#arrowUp" x="0" y="0" onmousedown="handlePan(0,-1)"/>
  <use id="arrowright" xlink:href="#arrowRight" x="0" y="0" onmousedown="handlePan(1,0)"/>
  <use id="arrowdown" xlink:href="#arrowDown" x="0" y="0" onmousedown="handlePan(0,1)"/>
  <use id="arrowleft" xlink:href="#arrowLeft" x="0" y="0" onmousedown="handlePan(-1,0)"/>
</g>
<svg viewBox="0 0 15 15" width="100%" height="30px" preserveAspectRatio="xMaxYMin meet">
 <g id="arrow_out" transform="scale(0.3 0.3)">
  <a xlink:href="potrRecvThread_8c__incl_org.svg" target="_base">
   <rect id="button" ry="5" rx="5" y="6" x="6" height="38" width="38"
        fill="#f2f5e9" fill-opacity="0.5" stroke="#606060" stroke-width="1.0"/>
   <path id="arrow"
     d="M 11.500037,31.436501 C 11.940474,20.09759 22.043105,11.32322 32.158766,21.979434 L 37.068811,17.246167 C 37.068811,17.246167 37.088388,32 37.088388,32 L 22.160133,31.978069 C 22.160133,31.978069 26.997745,27.140456 26.997745,27.140456 C 18.528582,18.264221 13.291696,25.230495 11.500037,31.436501 z"
     style="fill:#404040;"/>
  </a>
 </g>
</svg>

<style type='text/css'>
<![CDATA[
[data-mouse-over-selected='false'] { opacity: 0.7; }
[data-mouse-over-selected='true']  { opacity: 1.0; }
]]>
</style>
<script type="application/ecmascript"><![CDATA[
document.addEventListener('DOMContentLoaded', (event) => {
  highlightEdges();
  highlightAdjacentNodes();
});
]]></script>
</svg>
