<?xml version="1.0" encoding="UTF-8" standalone="no"?>
<!DOCTYPE svg PUBLIC "-//W3C//DTD SVG 1.1//EN"
 "http://www.w3.org/Graphics/SVG/1.1/DTD/svg11.dtd">
<!-- Generated by graphviz version 2.40.1 (0)
 -->
<!-- Title: porter/libsrc/porter/thread/potrHealthThread.h Pages: 1 -->
<svg width="410pt" height="104pt"
 viewBox="0.00 0.00 410.00 104.00" xmlns="http://www.w3.org/2000/svg" xmlns:xlink="http://www.w3.org/1999/xlink">
<g id="graph0" class="graph" transform="scale(1 1) rotate(0) translate(4 100)">
<title>porter/libsrc/porter/thread/potrHealthThread.h</title>
<!-- Node1 -->
<g id="Node000001" class="node">
<title>Node1</title>
<g id="a_Node000001"><a xlink:title="ヘルスチェックスレッド内部ヘッダー。">
<polygon fill="#999999" stroke="#666666" points="260,-96 128,-96 128,-66 260,-66 260,-96"/>
<text text-anchor="start" x="136" y="-84" font-family="Helvetica,sans-Serif" font-size="10.00" fill="#000000">porter/libsrc/porter</text>
<text text-anchor="middle" x="194" y="-73" font-family="Helvetica,sans-Serif" font-size="10.00" fill="#000000">/thread/potrHealthThread.h</text>
</a>
</g>
</g>
<!-- Node2 -->
<g id="Node000002" class="node">
<title>Node2</title>
<g id="a_Node000002"><a xlink:href="potrCloseService_8c.html" target="_top" xlink:title=" ">
<polygon fill="#ffffff" stroke="#666666" points="118,-30 0,-30 0,0 118,0 118,-30"/>
<text text-anchor="start" x="8" y="-18" font-family="Helvetica,sans-Serif" font-size="10.00" fill="#000000">porter/libsrc/porter</text>
<text text-anchor="middle" x="59" y="-7" font-family="Helvetica,sans-Serif" font-size="10.00" fill="#000000">/api/potrCloseService.c</text>
</a>
</g>
</g>
<!-- Node1&#45;&gt;Node2 -->
<g id="edge1_Node000001_Node000002" class="edge">
<title>Node1&#45;&gt;Node2</title>
<g id="a_edge1_Node000001_Node000002"><a xlink:title=" ">
<path fill="none" stroke="#63b8ff" d="M153.926,-61.4083C133.4163,-51.3813 108.8363,-39.3644 89.8276,-30.0713"/>
<polygon fill="#63b8ff" stroke="#63b8ff" points="152.5072,-64.6105 163.0283,-65.8583 155.5817,-58.3218 152.5072,-64.6105"/>
</a>
</g>
</g>
<!-- Node3 -->
<g id="Node000003" class="node">
<title>Node3</title>
<g id="a_Node000003"><a xlink:href="potrOpenService_8c.html" target="_top" xlink:title="potrOpenService 関数の実装。">
<polygon fill="#ffffff" stroke="#666666" points="252,-30 136,-30 136,0 252,0 252,-30"/>
<text text-anchor="start" x="144" y="-18" font-family="Helvetica,sans-Serif" font-size="10.00" fill="#000000">porter/libsrc/porter</text>
<text text-anchor="middle" x="194" y="-7" font-family="Helvetica,sans-Serif" font-size="10.00" fill="#000000">/api/potrOpenService.c</text>
</a>
</g>
</g>
<!-- Node1&#45;&gt;Node3 -->
<g id="edge2_Node000001_Node000003" class="edge">
<title>Node1&#45;&gt;Node3</title>
<g id="a_edge2_Node000001_Node000003"><a xlink:title=" ">
<path fill="none" stroke="#63b8ff" d="M194,-55.4546C194,-46.9317 194,-37.7088 194,-30.2246"/>
<polygon fill="#63b8ff" stroke="#63b8ff" points="190.5001,-55.6923 194,-65.6924 197.5001,-55.6924 190.5001,-55.6923"/>
</a>
</g>
</g>
<!-- Node4 -->
<g id="Node000004" class="node">
<title>Node4</title>
<g id="a_Node000004"><a xlink:href="potrHealthThread_8c.html" target="_top" xlink:title="ヘルスチェックスレッドモジュール。">
<polygon fill="#ffffff" stroke="#666666" points="402,-30 270,-30 270,0 402,0 402,-30"/>
<text text-anchor="start" x="278" y="-18" font-family="Helvetica,sans-Serif" font-size="10.00" fill="#000000">porter/libsrc/porter</text>
<text text-anchor="middle" x="336" y="-7" font-family="Helvetica,sans-Serif" font-size="10.00" fill="#000000">/thread/potrHealthThread.c</text>
</a>
</g>
</g>
<!-- Node1&#45;&gt;Node4 -->
<g id="edge3_Node000001_Node000004" class="edge">
<title>Node1&#45;&gt;Node4</title>
<g id="a_edge3_Node000001_Node000004"><a xlink:title=" ">
<path fill="none" stroke="#63b8ff" d="M235.8607,-61.5436C257.492,-51.4896 283.4896,-39.4063 303.5739,-30.0713"/>
<polygon fill="#63b8ff" stroke="#63b8ff" points="234.1708,-58.4694 226.5777,-65.8583 237.1212,-64.8173 234.1708,-58.4694"/>
</a>
</g>
</g>
</g>
</svg>
