<?xml version="1.0" encoding="UTF-8" standalone="no"?>
<!DOCTYPE svg PUBLIC "-//W3C//DTD SVG 1.1//EN"
 "http://www.w3.org/Graphics/SVG/1.1/DTD/svg11.dtd">
<!-- Generated by graphviz version 2.40.1 (0)
 -->
<!-- Title: porter/libsrc/porter/util/potrIpAddr.h Pages: 1 -->
<svg width="154pt" height="93pt"
 viewBox="0.00 0.00 153.50 93.00" xmlns="http://www.w3.org/2000/svg" xmlns:xlink="http://www.w3.org/1999/xlink">
<g id="graph0" class="graph" transform="scale(1 1) rotate(0) translate(4 89)">
<title>porter/libsrc/porter/util/potrIpAddr.h</title>
<!-- Node1 -->
<g id="Node000001" class="node">
<title>Node1</title>
<g id="a_Node000001"><a xlink:title="IPv4 アドレス変換ユーティリティ (内部用)。">
<polygon fill="#999999" stroke="#666666" points="119.5,-85 24.5,-85 24.5,-55 119.5,-55 119.5,-85"/>
<text text-anchor="start" x="32.5" y="-73" font-family="Helvetica,sans-Serif" font-size="10.00" fill="#000000">porter/libsrc/porter</text>
<text text-anchor="middle" x="72" y="-62" font-family="Helvetica,sans-Serif" font-size="10.00" fill="#000000">/util/potrIpAddr.h</text>
</a>
</g>
</g>
<!-- Node2 -->
<g id="Node000002" class="node">
<title>Node2</title>
<g id="a_Node000002"><a xlink:title=" ">
<polygon fill="#e0e0e0" stroke="#999999" points="62,-19 0,-19 0,0 62,0 62,-19"/>
<text text-anchor="middle" x="31" y="-7" font-family="Helvetica,sans-Serif" font-size="10.00" fill="#000000">arpa/inet.h</text>
</a>
</g>
</g>
<!-- Node1&#45;&gt;Node2 -->
<g id="edge1_Node000001_Node000002" class="edge">
<title>Node1&#45;&gt;Node2</title>
<g id="a_edge1_Node000001_Node000002"><a xlink:title=" ">
<path fill="none" stroke="#63b8ff" d="M61.654,-54.7333C56.0199,-46.4196 49.0168,-36.0858 43.1272,-27.3949"/>
<polygon fill="#63b8ff" stroke="#63b8ff" points="46.004,-25.4011 37.4966,-19.0864 40.2092,-29.3281 46.004,-25.4011"/>
</a>
</g>
</g>
<!-- Node3 -->
<g id="Node000003" class="node">
<title>Node3</title>
<g id="a_Node000003"><a xlink:title=" ">
<polygon fill="#e0e0e0" stroke="#999999" points="145.5,-19 80.5,-19 80.5,0 145.5,0 145.5,-19"/>
<text text-anchor="middle" x="113" y="-7" font-family="Helvetica,sans-Serif" font-size="10.00" fill="#000000">netinet/in.h</text>
</a>
</g>
</g>
<!-- Node1&#45;&gt;Node3 -->
<g id="edge2_Node000001_Node000003" class="edge">
<title>Node1&#45;&gt;Node3</title>
<g id="a_edge2_Node000001_Node000003"><a xlink:title=" ">
<path fill="none" stroke="#63b8ff" d="M82.346,-54.7333C87.9801,-46.4196 94.9832,-36.0858 100.8728,-27.3949"/>
<polygon fill="#63b8ff" stroke="#63b8ff" points="103.7908,-29.3281 106.5034,-19.0864 97.996,-25.4011 103.7908,-29.3281"/>
</a>
</g>
</g>
</g>
</svg>
