<?xml version="1.0" encoding="UTF-8" standalone="no"?>
<!DOCTYPE svg PUBLIC "-//W3C//DTD SVG 1.1//EN"
 "http://www.w3.org/Graphics/SVG/1.1/DTD/svg11.dtd">
<!-- Generated by graphviz version 2.40.1 (0)
 -->
<!-- Title: health_thread_func Pages: 1 -->
<svg width="440pt" height="138pt"
 viewBox="0.00 0.00 440.00 138.00" xmlns="http://www.w3.org/2000/svg" xmlns:xlink="http://www.w3.org/1999/xlink">
<g id="graph0" class="graph" transform="scale(1 1) rotate(0) translate(4 134)">
<title>health_thread_func</title>
<!-- Node1 -->
<g id="Node000001" class="node">
<title>Node1</title>
<g id="a_Node000001"><a xlink:title=" ">
<polygon fill="#999999" stroke="#666666" points="99,-74 0,-74 0,-55 99,-55 99,-74"/>
<text text-anchor="middle" x="49.5" y="-62" font-family="Helvetica,sans-Serif" font-size="10.00" fill="#000000">health_thread_func</text>
</a>
</g>
</g>
<!-- Node2 -->
<g id="Node000002" class="node">
<title>Node2</title>
<g id="a_Node000002"><a xlink:href="potrHealthThread_8c.html#a98907ad6292bda01a6e3646c1d92b50f" target="_top" xlink:title=" ">
<polygon fill="#ffffff" stroke="#666666" points="222.5,-130 142.5,-130 142.5,-111 222.5,-111 222.5,-130"/>
<text text-anchor="middle" x="182.5" y="-118" font-family="Helvetica,sans-Serif" font-size="10.00" fill="#000000">health_get_ms</text>
</a>
</g>
</g>
<!-- Node1&#45;&gt;Node2 -->
<g id="edge1_Node000001_Node000002" class="edge">
<title>Node1&#45;&gt;Node2</title>
<g id="a_edge1_Node000001_Node000002"><a xlink:title=" ">
<path fill="none" stroke="#63b8ff" d="M70.0927,-74.0409C87.3246,-81.9308 112.6163,-93.2932 135,-102.5 138.7466,-104.041 142.6781,-105.6086 146.6074,-107.1436"/>
<polygon fill="#63b8ff" stroke="#63b8ff" points="145.6742,-110.5346 156.264,-110.8583 148.1874,-104.0013 145.6742,-110.5346"/>
</a>
</g>
</g>
<!-- Node3 -->
<g id="Node000003" class="node">
<title>Node3</title>
<g id="a_Node000003"><a xlink:href="potrHealthThread_8c.html#a142f92f00ffbf573f3ceede05d5020cb" target="_top" xlink:title=" ">
<polygon fill="#ffffff" stroke="#666666" points="218,-93 147,-93 147,-74 218,-74 218,-93"/>
<text text-anchor="middle" x="182.5" y="-81" font-family="Helvetica,sans-Serif" font-size="10.00" fill="#000000">health_sleep</text>
</a>
</g>
</g>
<!-- Node1&#45;&gt;Node3 -->
<g id="edge2_Node000001_Node000003" class="edge">
<title>Node1&#45;&gt;Node3</title>
<g id="a_edge2_Node000001_Node000003"><a xlink:title=" ">
<path fill="none" stroke="#63b8ff" d="M99.0243,-71.5749C111.3719,-73.3388 124.5564,-75.2223 136.7146,-76.9592"/>
<polygon fill="#63b8ff" stroke="#63b8ff" points="136.2507,-80.4284 146.6452,-78.3779 137.2407,-73.4988 136.2507,-80.4284"/>
</a>
</g>
</g>
<!-- Node4 -->
<g id="Node000004" class="node">
<title>Node4</title>
<g id="a_Node000004"><a xlink:href="packet_8c.html#a208f7dc4daa3e772a3f46ed3ab649a6f" target="_top" xlink:title="PING パケットを構築します。">
<polygon fill="#ffffff" stroke="#666666" points="230,-56 135,-56 135,-37 230,-37 230,-56"/>
<text text-anchor="middle" x="182.5" y="-44" font-family="Helvetica,sans-Serif" font-size="10.00" fill="#000000">packet_build_ping</text>
</a>
</g>
</g>
<!-- Node1&#45;&gt;Node4 -->
<g id="edge3_Node000001_Node000004" class="edge">
<title>Node1&#45;&gt;Node4</title>
<g id="a_edge3_Node000001_Node000004"><a xlink:title=" ">
<path fill="none" stroke="#63b8ff" d="M99.0243,-57.7975C107.4115,-56.6624 116.1847,-55.475 124.7602,-54.3144"/>
<polygon fill="#63b8ff" stroke="#63b8ff" points="125.261,-57.7786 134.7012,-52.969 124.3221,-50.8419 125.261,-57.7786"/>
</a>
</g>
</g>
<!-- Node7 -->
<g id="Node000007" class="node">
<title>Node7</title>
<g id="a_Node000007"><a xlink:href="packet_8c.html#aee7ebc74dbbe67fa4c9bcdced8dca70c" target="_top" xlink:title="パケットのヘッダー + ペイロードの合計バイト数を返します。">
<polygon fill="#ffffff" stroke="#666666" points="228.5,-19 136.5,-19 136.5,0 228.5,0 228.5,-19"/>
<text text-anchor="middle" x="182.5" y="-7" font-family="Helvetica,sans-Serif" font-size="10.00" fill="#000000">packet_wire_size</text>
</a>
</g>
</g>
<!-- Node1&#45;&gt;Node7 -->
<g id="edge6_Node000001_Node000007" class="edge">
<title>Node1&#45;&gt;Node7</title>
<g id="a_edge6_Node000001_Node000007"><a xlink:title=" ">
<path fill="none" stroke="#63b8ff" d="M71.9561,-54.9146C89.174,-47.5968 113.5448,-37.3071 135,-28.5 139.4883,-26.6576 144.2238,-24.7364 148.8968,-22.8539"/>
<polygon fill="#63b8ff" stroke="#63b8ff" points="150.3231,-26.0529 158.3015,-19.0818 147.7173,-19.556 150.3231,-26.0529"/>
</a>
</g>
</g>
<!-- Node5 -->
<g id="Node000005" class="node">
<title>Node5</title>
<g id="a_Node000005"><a xlink:href="packet_8c.html#a479088cf3b9ccf5ebe8891ad2881b196" target="_top" xlink:title=" ">
<polygon fill="#ffffff" stroke="#666666" points="350,-56 266,-56 266,-37 350,-37 350,-56"/>
<text text-anchor="middle" x="308" y="-44" font-family="Helvetica,sans-Serif" font-size="10.00" fill="#000000">fill_session_hdr</text>
</a>
</g>
</g>
<!-- Node4&#45;&gt;Node5 -->
<g id="edge4_Node000004_Node000005" class="edge">
<title>Node4&#45;&gt;Node5</title>
<g id="a_edge4_Node000004_Node000005"><a xlink:title=" ">
<path fill="none" stroke="#63b8ff" d="M230.3042,-46.5C238.5776,-46.5 247.2191,-46.5 255.6067,-46.5"/>
<polygon fill="#63b8ff" stroke="#63b8ff" points="255.67,-50.0001 265.67,-46.5 255.67,-43.0001 255.67,-50.0001"/>
</a>
</g>
</g>
<!-- Node6 -->
<g id="Node000006" class="node">
<title>Node6</title>
<g id="a_Node000006"><a xlink:href="packet_8c.html#a6564ae80f665edd6931ef662818e19b0" target="_top" xlink:title=" ">
<polygon fill="#ffffff" stroke="#666666" points="432,-56 386,-56 386,-37 432,-37 432,-56"/>
<text text-anchor="middle" x="409" y="-44" font-family="Helvetica,sans-Serif" font-size="10.00" fill="#000000">hton64</text>
</a>
</g>
</g>
<!-- Node5&#45;&gt;Node6 -->
<g id="edge5_Node000005_Node000006" class="edge">
<title>Node5&#45;&gt;Node6</title>
<g id="a_edge5_Node000005_Node000006"><a xlink:title=" ">
<path fill="none" stroke="#63b8ff" d="M350.2479,-46.5C358.7423,-46.5 367.5568,-46.5 375.6948,-46.5"/>
<polygon fill="#63b8ff" stroke="#63b8ff" points="375.9196,-50.0001 385.9196,-46.5 375.9195,-43.0001 375.9196,-50.0001"/>
</a>
</g>
</g>
</g>
</svg>
