<?xml version="1.0" encoding="UTF-8" standalone="no"?>
<!DOCTYPE svg PUBLIC "-//W3C//DTD SVG 1.1//EN"
 "http://www.w3.org/Graphics/SVG/1.1/DTD/svg11.dtd">
<!-- Generated by graphviz version 2.40.1 (0)
 -->
<!-- Title: porter/libsrc/porter/potrContext.h Pages: 1 -->
<svg width="414pt" height="203pt"
 viewBox="0.00 0.00 413.50 203.00" xmlns="http://www.w3.org/2000/svg" xmlns:xlink="http://www.w3.org/1999/xlink">

<svg id="main" version="1.1" xmlns="http://www.w3.org/2000/svg" xmlns:xlink="http://www.w3.org/1999/xlink" xml:space="preserve">

<style type="text/css"><![CDATA[
.node, .edge {opacity: 0.7;}
.node.selected, .edge.selected {opacity: 1;}
.edge:hover path { stroke: red; }
.edge:hover polygon { stroke: red; fill: red; }
]]></style>
<script type="application/ecmascript" xlink:href="svg.min.js"/>
<svg id="graph" class="graph">
<g id="graph0" class="graph" transform="scale(1 1) rotate(0) translate(4 199)">
<title>porter/libsrc/porter/potrContext.h</title>
<!-- Node1 -->
<g id="Node000001" class="node">
<title>Node1</title>
<g id="a_Node000001"><a xlink:title="セッションコンテキスト内部定義ヘッダー。">
<polygon fill="#999999" stroke="#666666" points="286,-195 191,-195 191,-165 286,-165 286,-195"/>
<text text-anchor="start" x="199" y="-183" font-family="Helvetica,sans-Serif" font-size="10.00" fill="#000000">porter/libsrc/porter</text>
<text text-anchor="middle" x="238.5" y="-172" font-family="Helvetica,sans-Serif" font-size="10.00" fill="#000000">/potrContext.h</text>
</a>
</g>
</g>
<!-- Node2 -->
<g id="Node000002" class="node">
<title>Node2</title>
<g id="a_Node000002"><a xlink:href="porter__type_8h.html" target="_top" xlink:title="通信ライブラリの型定義ファイル。">
<polygon fill="#ffffff" stroke="#666666" points="205.5,-74 131.5,-74 131.5,-55 205.5,-55 205.5,-74"/>
<text text-anchor="middle" x="168.5" y="-62" font-family="Helvetica,sans-Serif" font-size="10.00" fill="#000000">porter_type.h</text>
</a>
</g>
</g>
<!-- Node1&#45;&gt;Node2 -->
<g id="edge1_Node000001_Node000002" class="edge">
<title>Node1&#45;&gt;Node2</title>
<g id="a_edge1_Node000001_Node000002"><a xlink:title=" ">
<path fill="none" stroke="#63b8ff" d="M215.9645,-164.7907C204.2528,-155.7338 190.7089,-143.2407 182.5,-129 174.6315,-115.3498 171.1767,-97.7555 169.6642,-84.3919"/>
<polygon fill="#63b8ff" stroke="#63b8ff" points="173.1437,-84.0027 168.7964,-74.3409 166.1697,-84.6049 173.1437,-84.0027"/>
</a>
</g>
</g>
<!-- Node6 -->
<g id="Node000006" class="node">
<title>Node6</title>
<g id="a_Node000006"><a xlink:href="retransmit_8h.html" target="_top" xlink:title="再送制御モジュールの内部ヘッダー。">
<polygon fill="#ffffff" stroke="#666666" points="405.5,-74 299.5,-74 299.5,-55 405.5,-55 405.5,-74"/>
<text text-anchor="middle" x="352.5" y="-62" font-family="Helvetica,sans-Serif" font-size="10.00" fill="#000000">protocol/retransmit.h</text>
</a>
</g>
</g>
<!-- Node1&#45;&gt;Node6 -->
<g id="edge5_Node000001_Node000006" class="edge">
<title>Node1&#45;&gt;Node6</title>
<g id="a_edge5_Node000001_Node000006"><a xlink:title=" ">
<path fill="none" stroke="#63b8ff" d="M256.0703,-164.8077C267.3186,-154.8865 282.0797,-141.4991 294.5,-129 309.6512,-113.7528 325.9375,-95.4569 337.3831,-82.2518"/>
<polygon fill="#63b8ff" stroke="#63b8ff" points="340.2761,-84.2558 344.1449,-74.3925 334.9697,-79.6904 340.2761,-84.2558"/>
</a>
</g>
</g>
<!-- Node7 -->
<g id="Node000007" class="node">
<title>Node7</title>
<g id="a_Node000007"><a xlink:href="window_8h.html" target="_top" xlink:title="スライディングウィンドウ管理モジュールの内部ヘッダー。">
<polygon fill="#ffffff" stroke="#666666" points="285,-129 192,-129 192,-110 285,-110 285,-129"/>
<text text-anchor="middle" x="238.5" y="-117" font-family="Helvetica,sans-Serif" font-size="10.00" fill="#000000">protocol/window.h</text>
</a>
</g>
</g>
<!-- Node1&#45;&gt;Node7 -->
<g id="edge8_Node000001_Node000007" class="edge">
<title>Node1&#45;&gt;Node7</title>
<g id="a_edge8_Node000001_Node000007"><a xlink:title=" ">
<path fill="none" stroke="#63b8ff" d="M238.5,-164.7333C238.5,-157.0322 238.5,-147.5977 238.5,-139.3414"/>
<polygon fill="#63b8ff" stroke="#63b8ff" points="242.0001,-139.0864 238.5,-129.0864 235.0001,-139.0864 242.0001,-139.0864"/>
</a>
</g>
</g>
<!-- Node8 -->
<g id="Node000008" class="node">
<title>Node8</title>
<g id="a_Node000008"><a xlink:href="compress_8h.html" target="_top" xlink:title="データ圧縮・解凍モジュールの内部ヘッダー。">
<polygon fill="#ffffff" stroke="#666666" points="113,-74 0,-74 0,-55 113,-55 113,-74"/>
<text text-anchor="middle" x="56.5" y="-62" font-family="Helvetica,sans-Serif" font-size="10.00" fill="#000000">compress/compress.h</text>
</a>
</g>
</g>
<!-- Node1&#45;&gt;Node8 -->
<g id="edge12_Node000001_Node000008" class="edge">
<title>Node1&#45;&gt;Node8</title>
<g id="a_edge12_Node000001_Node000008"><a xlink:title=" ">
<path fill="none" stroke="#63b8ff" d="M214.7067,-164.9004C179.8574,-142.7845 115.297,-101.8135 80.3918,-79.6621"/>
<polygon fill="#63b8ff" stroke="#63b8ff" points="82.1058,-76.6045 71.7871,-74.2014 78.355,-82.5149 82.1058,-76.6045"/>
</a>
</g>
</g>
<!-- Node9 -->
<g id="Node000009" class="node">
<title>Node9</title>
<g id="a_Node000009"><a xlink:title=" ">
<polygon fill="#e0e0e0" stroke="#999999" points="399,-129 342,-129 342,-110 399,-110 399,-129"/>
<text text-anchor="middle" x="370.5" y="-117" font-family="Helvetica,sans-Serif" font-size="10.00" fill="#000000">pthread.h</text>
</a>
</g>
</g>
<!-- Node1&#45;&gt;Node9 -->
<g id="edge15_Node000001_Node000009" class="edge">
<title>Node1&#45;&gt;Node9</title>
<g id="a_edge15_Node000001_Node000009"><a xlink:title=" ">
<path fill="none" stroke="#63b8ff" d="M271.4687,-164.8894C292.5637,-155.2208 319.7246,-142.7721 340.2646,-133.3579"/>
<polygon fill="#63b8ff" stroke="#63b8ff" points="341.8424,-136.4849 349.4748,-129.1366 338.9258,-130.1214 341.8424,-136.4849"/>
</a>
</g>
</g>
<!-- Node3 -->
<g id="Node000003" class="node">
<title>Node3</title>
<g id="a_Node000003"><a xlink:title=" ">
<polygon fill="#e0e0e0" stroke="#999999" points="114.5,-19 62.5,-19 62.5,0 114.5,0 114.5,-19"/>
<text text-anchor="middle" x="88.5" y="-7" font-family="Helvetica,sans-Serif" font-size="10.00" fill="#000000">stddef.h</text>
</a>
</g>
</g>
<!-- Node2&#45;&gt;Node3 -->
<g id="edge2_Node000002_Node000003" class="edge">
<title>Node2&#45;&gt;Node3</title>
<g id="a_edge2_Node000002_Node000003"><a xlink:title=" ">
<path fill="none" stroke="#63b8ff" d="M154.5651,-54.9197C142.5935,-46.6893 125.1047,-34.6657 111.1279,-25.0567"/>
<polygon fill="#63b8ff" stroke="#63b8ff" points="112.767,-21.9362 102.5437,-19.155 108.8012,-27.7045 112.767,-21.9362"/>
</a>
</g>
</g>
<!-- Node4 -->
<g id="Node000004" class="node">
<title>Node4</title>
<g id="a_Node000004"><a xlink:title=" ">
<polygon fill="#e0e0e0" stroke="#999999" points="203,-19 154,-19 154,0 203,0 203,-19"/>
<text text-anchor="middle" x="178.5" y="-7" font-family="Helvetica,sans-Serif" font-size="10.00" fill="#000000">stdint.h</text>
</a>
</g>
</g>
<!-- Node2&#45;&gt;Node4 -->
<g id="edge3_Node000002_Node000004" class="edge">
<title>Node2&#45;&gt;Node4</title>
<g id="a_edge3_Node000002_Node000004"><a xlink:title=" ">
<path fill="none" stroke="#63b8ff" d="M170.2419,-54.9197C171.5167,-47.9083 173.292,-38.1442 174.87,-29.4652"/>
<polygon fill="#63b8ff" stroke="#63b8ff" points="178.3654,-29.8057 176.7108,-19.3408 171.4783,-28.5534 178.3654,-29.8057"/>
</a>
</g>
</g>
<!-- Node5 -->
<g id="Node000005" class="node">
<title>Node5</title>
<g id="a_Node000005"><a xlink:href="porter__const_8h.html" target="_top" xlink:title="通信ライブラリの定数ファイル。">
<polygon fill="#ffffff" stroke="#666666" points="311,-19 232,-19 232,0 311,0 311,-19"/>
<text text-anchor="middle" x="271.5" y="-7" font-family="Helvetica,sans-Serif" font-size="10.00" fill="#000000">porter_const.h</text>
</a>
</g>
</g>
<!-- Node2&#45;&gt;Node5 -->
<g id="edge4_Node000002_Node000005" class="edge">
<title>Node2&#45;&gt;Node5</title>
<g id="a_edge4_Node000002_Node000005"><a xlink:title=" ">
<path fill="none" stroke="#63b8ff" d="M186.4412,-54.9197C202.4418,-46.3757 226.0974,-33.7441 244.4028,-23.9694"/>
<polygon fill="#63b8ff" stroke="#63b8ff" points="246.2462,-26.9528 253.4188,-19.155 242.949,-20.778 246.2462,-26.9528"/>
</a>
</g>
</g>
<!-- Node6&#45;&gt;Node4 -->
<g id="edge6_Node000006_Node000004" class="edge">
<title>Node6&#45;&gt;Node4</title>
<g id="a_edge6_Node000006_Node000004"><a xlink:title=" ">
<path fill="none" stroke="#63b8ff" d="M322.1915,-54.9197C291.7045,-45.283 244.7665,-30.4463 212.9007,-20.3738"/>
<polygon fill="#63b8ff" stroke="#63b8ff" points="213.7141,-16.9603 203.1242,-17.2835 211.6043,-23.6348 213.7141,-16.9603"/>
</a>
</g>
</g>
<!-- Node6&#45;&gt;Node5 -->
<g id="edge7_Node000006_Node000005" class="edge">
<title>Node6&#45;&gt;Node5</title>
<g id="a_edge7_Node000006_Node000005"><a xlink:title=" ">
<path fill="none" stroke="#63b8ff" d="M338.3909,-54.9197C326.1542,-46.6109 308.2244,-34.4363 294.0074,-24.7828"/>
<polygon fill="#63b8ff" stroke="#63b8ff" points="295.9584,-21.877 285.7192,-19.155 292.0262,-27.6682 295.9584,-21.877"/>
</a>
</g>
</g>
<!-- Node7&#45;&gt;Node2 -->
<g id="edge11_Node000007_Node000002" class="edge">
<title>Node7&#45;&gt;Node2</title>
<g id="a_edge11_Node000007_Node000002"><a xlink:title=" ">
<path fill="none" stroke="#63b8ff" d="M226.3069,-109.9197C216.0944,-101.8956 201.2932,-90.2661 189.2247,-80.7837"/>
<polygon fill="#63b8ff" stroke="#63b8ff" points="191.0503,-77.767 181.0247,-74.3408 186.7255,-83.2712 191.0503,-77.767"/>
</a>
</g>
</g>
<!-- Node7&#45;&gt;Node4 -->
<g id="edge9_Node000007_Node000004" class="edge">
<title>Node7&#45;&gt;Node4</title>
<g id="a_edge9_Node000007_Node000004"><a xlink:title=" ">
<path fill="none" stroke="#63b8ff" d="M235.9561,-109.9086C232.2917,-96.9387 224.8168,-73.3238 214.5,-55 208.925,-45.0982 201.2726,-35.0875 194.4563,-26.9868"/>
<polygon fill="#63b8ff" stroke="#63b8ff" points="196.9856,-24.5618 187.7777,-19.321 191.7076,-29.16 196.9856,-24.5618"/>
</a>
</g>
</g>
<!-- Node7&#45;&gt;Node5 -->
<g id="edge10_Node000007_Node000005" class="edge">
<title>Node7&#45;&gt;Node5</title>
<g id="a_edge10_Node000007_Node000005"><a xlink:title=" ">
<path fill="none" stroke="#63b8ff" d="M241.4285,-109.7382C246.8728,-91.5906 258.642,-52.36 265.7349,-28.7172"/>
<polygon fill="#63b8ff" stroke="#63b8ff" points="269.104,-29.6668 268.6252,-19.0828 262.3992,-27.6554 269.104,-29.6668"/>
</a>
</g>
</g>
<!-- Node8&#45;&gt;Node3 -->
<g id="edge13_Node000008_Node000003" class="edge">
<title>Node8&#45;&gt;Node3</title>
<g id="a_edge13_Node000008_Node000003"><a xlink:title=" ">
<path fill="none" stroke="#63b8ff" d="M62.074,-54.9197C66.38,-47.5188 72.4704,-37.0509 77.7193,-28.0294"/>
<polygon fill="#63b8ff" stroke="#63b8ff" points="80.7707,-29.7445 82.7744,-19.3408 74.7202,-26.2242 80.7707,-29.7445"/>
</a>
</g>
</g>
<!-- Node8&#45;&gt;Node4 -->
<g id="edge14_Node000008_Node000004" class="edge">
<title>Node8&#45;&gt;Node4</title>
<g id="a_edge14_Node000008_Node000004"><a xlink:title=" ">
<path fill="none" stroke="#63b8ff" d="M77.7508,-54.9197C97.1376,-46.1798 126.0122,-33.1625 147.886,-23.3014"/>
<polygon fill="#63b8ff" stroke="#63b8ff" points="149.4054,-26.4557 157.0834,-19.155 146.5285,-20.0742 149.4054,-26.4557"/>
</a>
</g>
</g>
</g>
</svg>
</svg>

<style type='text/css'>
<![CDATA[
[data-mouse-over-selected='false'] { opacity: 0.7; }
[data-mouse-over-selected='true']  { opacity: 1.0; }
]]>
</style>
<script type="application/ecmascript"><![CDATA[
document.addEventListener('DOMContentLoaded', (event) => {
  highlightEdges();
  highlightAdjacentNodes();
});
]]></script>
</svg>
