<?xml version="1.0" encoding="UTF-8" standalone="no"?>
<!DOCTYPE svg PUBLIC "-//W3C//DTD SVG 1.1//EN"
 "http://www.w3.org/Graphics/SVG/1.1/DTD/svg11.dtd">
<!-- Generated by graphviz version 2.40.1 (0)
 -->
<!-- Title: porter/libsrc/porter/api/potrSend.c Pages: 1 -->
<!--zoomable 258 -->

<svg id="main" version="1.1" xmlns="http://www.w3.org/2000/svg" xmlns:xlink="http://www.w3.org/1999/xlink" xml:space="preserve" onload="init(evt)">

<style type="text/css"><![CDATA[
.node, .edge {opacity: 0.7;}
.node.selected, .edge.selected {opacity: 1;}
.edge:hover path { stroke: red; }
.edge:hover polygon { stroke: red; fill: red; }
]]></style>

<defs>
  <circle id="rim" cx="0" cy="0" r="7"/>
  <circle id="rim2" cx="0" cy="0" r="3.5"/>
  <g id="zoomPlus">
    <use xlink:href="#rim" fill="#404040"><set attributeName="fill" to="#808080" begin="zoomplus.mouseover" end="zoomplus.mouseout"/></use>
    <path d="M-4,0h8M0,-4v8" fill="none" stroke="white" stroke-width="1.5" pointer-events="none"/>
  </g>
  <g id="zoomMin">
    <use xlink:href="#rim" fill="#404040"><set attributeName="fill" to="#808080" begin="zoomminus.mouseover" end="zoomminus.mouseout"/></use>
    <path d="M-4,0h8" fill="none" stroke="white" stroke-width="1.5" pointer-events="none"/>
  </g>
  <g id="arrowUp" transform="translate(30 24)">
    <use xlink:href="#rim"/>
    <path pointer-events="none" fill="none" stroke="white" stroke-width="1.5" d="M0,-3.0v7 M-2.5,-0.5L0,-3.0L2.5,-0.5"/>
  </g>
  <g id="arrowRight" transform="rotate(90) translate(36 -43)">
    <use xlink:href="#rim"/>
    <path pointer-events="none" fill="none" stroke="white" stroke-width="1.5" d="M0,-3.0v7 M-2.5,-0.5L0,-3.0L2.5,-0.5"/>
  </g>
  <g id="arrowDown" transform="rotate(180) translate(-30 -48)">
    <use xlink:href="#rim"/>
    <path pointer-events="none" fill="none" stroke="white" stroke-width="1.5" d="M0,-3.0v7 M-2.5,-0.5L0,-3.0L2.5,-0.5"/>
  </g>
  <g id="arrowLeft" transform="rotate(270) translate(-36 17)">
    <use xlink:href="#rim"/>
    <path pointer-events="none" fill="none" stroke="white" stroke-width="1.5" d="M0,-3.0v7 M-2.5,-0.5L0,-3.0L2.5,-0.5"/>
  </g>
  <g id="resetDef">
    <use xlink:href="#rim2" fill="#404040"><set attributeName="fill" to="#808080" begin="reset.mouseover" end="reset.mouseout"/></use>
  </g>
</defs>
<script type="application/ecmascript">
var viewWidth = 581;
var viewHeight = 258;
var sectionId = 'dynsection-0';
</script>
<script type="application/ecmascript" xlink:href="svg.min.js"/>
<svg id="graph" class="graph">
<g id="viewport">
<title>porter/libsrc/porter/api/potrSend.c</title>
<!-- Node1 -->
<g id="Node000001" class="node">
<title>Node1</title>
<g id="a_Node000001"><a xlink:title="potrSend 関数の実装。">
<polygon fill="#999999" stroke="#666666" points="384.58,-250 289.58,-250 289.58,-220 384.58,-220 384.58,-250"/>
<text text-anchor="start" x="297.58" y="-238" font-family="Helvetica,sans-Serif" font-size="10.00" fill="#000000">porter/libsrc/porter</text>
<text text-anchor="middle" x="337.08" y="-227" font-family="Helvetica,sans-Serif" font-size="10.00" fill="#000000">/api/potrSend.c</text>
</a>
</g>
</g>
<!-- Node2 -->
<g id="Node000002" class="node">
<title>Node2</title>
<g id="a_Node000002"><a xlink:href="porter__const_8h.html" target="_top" xlink:title="通信ライブラリの定数ファイル。">
<polygon fill="#ffffff" stroke="#666666" points="261.58,-19 182.58,-19 182.58,0 261.58,0 261.58,-19"/>
<text text-anchor="middle" x="222.08" y="-7" font-family="Helvetica,sans-Serif" font-size="10.00" fill="#000000">porter_const.h</text>
</a>
</g>
</g>
<!-- Node1&#45;&gt;Node2 -->
<g id="edge1_Node000001_Node000002" class="edge">
<title>Node1&#45;&gt;Node2</title>
<g id="a_edge1_Node000001_Node000002"><a xlink:title=" ">
<path fill="none" stroke="#63b8ff" d="M289.4971,-231.287C222.2363,-223.5737 99.3994,-200.0642 26.08,-129 7.0544,-110.5596 8.293,-99.9779 3.08,-74 1.4186,-65.7206 -2.2493,-61.5503 3.08,-55 24.003,-29.2832 114.4416,-17.6303 172.3561,-12.7211"/>
<polygon fill="#63b8ff" stroke="#63b8ff" points="172.7286,-16.2025 182.4141,-11.9082 172.1646,-9.2252 172.7286,-16.2025"/>
</a>
</g>
</g>
<!-- Node3 -->
<g id="Node000003" class="node">
<title>Node3</title>
<g id="a_Node000003"><a xlink:href="porter_8h.html" target="_top" xlink:title="通信ライブラリ (動的リンク用) のヘッダーファイル。">
<polygon fill="#ffffff" stroke="#666666" points="376.58,-184 327.58,-184 327.58,-165 376.58,-165 376.58,-184"/>
<text text-anchor="middle" x="352.08" y="-172" font-family="Helvetica,sans-Serif" font-size="10.00" fill="#000000">porter.h</text>
</a>
</g>
</g>
<!-- Node1&#45;&gt;Node3 -->
<g id="edge2_Node000001_Node000003" class="edge">
<title>Node1&#45;&gt;Node3</title>
<g id="a_edge2_Node000001_Node000003"><a xlink:title=" ">
<path fill="none" stroke="#63b8ff" d="M340.8651,-219.7333C342.7962,-211.9447 345.1669,-202.3831 347.2303,-194.0604"/>
<polygon fill="#63b8ff" stroke="#63b8ff" points="350.6938,-194.6348 349.7032,-184.0864 343.8995,-192.9502 350.6938,-194.6348"/>
</a>
</g>
</g>
<!-- Node7 -->
<g id="Node000007" class="node">
<title>Node7</title>
<g id="a_Node000007"><a xlink:href="potrContext_8h.html" target="_top" xlink:title="セッションコンテキスト内部定義ヘッダー。">
<polygon fill="#ffffff" stroke="#666666" points="299.08,-184 215.08,-184 215.08,-165 299.08,-165 299.08,-184"/>
<text text-anchor="middle" x="257.08" y="-172" font-family="Helvetica,sans-Serif" font-size="10.00" fill="#000000">../potrContext.h</text>
</a>
</g>
</g>
<!-- Node1&#45;&gt;Node7 -->
<g id="edge7_Node000001_Node000007" class="edge">
<title>Node1&#45;&gt;Node7</title>
<g id="a_edge7_Node000001_Node000007"><a xlink:title=" ">
<path fill="none" stroke="#63b8ff" d="M316.8926,-219.7333C304.9735,-210.7195 289.9145,-199.3311 277.8886,-190.2365"/>
<polygon fill="#63b8ff" stroke="#63b8ff" points="279.8434,-187.3267 269.7563,-184.0864 275.6211,-192.9099 279.8434,-187.3267"/>
</a>
</g>
</g>
<!-- Node9 -->
<g id="Node000009" class="node">
<title>Node9</title>
<g id="a_Node000009"><a xlink:href="compress_8h.html" target="_top" xlink:title="データ圧縮・解凍モジュールの内部ヘッダー。">
<polygon fill="#ffffff" stroke="#666666" points="555.58,-74 420.58,-74 420.58,-55 555.58,-55 555.58,-74"/>
<text text-anchor="middle" x="488.08" y="-62" font-family="Helvetica,sans-Serif" font-size="10.00" fill="#000000">infra/compress/compress.h</text>
</a>
</g>
</g>
<!-- Node1&#45;&gt;Node9 -->
<g id="edge29_Node000001_Node000009" class="edge">
<title>Node1&#45;&gt;Node9</title>
<g id="a_edge29_Node000001_Node000009"><a xlink:title=" ">
<path fill="none" stroke="#63b8ff" d="M384.905,-227.5223C430.9844,-219.2252 495.889,-204.2827 511.08,-184 533.5409,-154.0108 513.8446,-108.2234 499.6207,-82.918"/>
<polygon fill="#63b8ff" stroke="#63b8ff" points="502.6316,-81.1333 494.5366,-74.298 496.6022,-84.6895 502.6316,-81.1333"/>
</a>
</g>
</g>
<!-- Node11 -->
<g id="Node000011" class="node">
<title>Node11</title>
<g id="a_Node000011"><a xlink:href="potrSendQueue_8h.html" target="_top" xlink:title="非同期送信キューの型定義と操作関数。">
<polygon fill="#ffffff" stroke="#666666" points="159.08,-129 45.08,-129 45.08,-110 159.08,-110 159.08,-129"/>
<text text-anchor="middle" x="102.08" y="-117" font-family="Helvetica,sans-Serif" font-size="10.00" fill="#000000">infra/potrSendQueue.h</text>
</a>
</g>
</g>
<!-- Node1&#45;&gt;Node11 -->
<g id="edge28_Node000001_Node000011" class="edge">
<title>Node1&#45;&gt;Node11</title>
<g id="a_edge28_Node000001_Node000011"><a xlink:title=" ">
<path fill="none" stroke="#63b8ff" d="M292.5408,-219.9686C266.7777,-210.7081 234.0277,-197.9581 206.08,-184 176.6082,-169.2807 144.685,-148.7299 124.0917,-134.8115"/>
<polygon fill="#63b8ff" stroke="#63b8ff" points="125.9707,-131.8565 115.7384,-129.1086 122.0238,-137.6377 125.9707,-131.8565"/>
</a>
</g>
</g>
<!-- Node14 -->
<g id="Node000014" class="node">
<title>Node14</title>
<g id="a_Node000014"><a xlink:href="potrLog_8h.html" target="_top" xlink:title="porter 内部ログマクロ定義ヘッダー。">
<polygon fill="#ffffff" stroke="#666666" points="502.08,-184 414.08,-184 414.08,-165 502.08,-165 502.08,-184"/>
<text text-anchor="middle" x="458.08" y="-172" font-family="Helvetica,sans-Serif" font-size="10.00" fill="#000000">../infra/potrLog.h</text>
</a>
</g>
</g>
<!-- Node1&#45;&gt;Node14 -->
<g id="edge30_Node000001_Node000014" class="edge">
<title>Node1&#45;&gt;Node14</title>
<g id="a_edge30_Node000001_Node000014"><a xlink:title=" ">
<path fill="none" stroke="#63b8ff" d="M367.3013,-219.8894C386.4635,-210.3083 411.0857,-197.9971 429.8515,-188.6142"/>
<polygon fill="#63b8ff" stroke="#63b8ff" points="431.4279,-191.7393 438.8069,-184.1366 428.2973,-185.4783 431.4279,-191.7393"/>
</a>
</g>
</g>
<!-- Node4 -->
<g id="Node000004" class="node">
<title>Node4</title>
<g id="a_Node000004"><a xlink:href="porter__type_8h.html" target="_top" xlink:title="通信ライブラリの型定義ファイル。">
<polygon fill="#ffffff" stroke="#666666" points="402.08,-74 328.08,-74 328.08,-55 402.08,-55 402.08,-74"/>
<text text-anchor="middle" x="365.08" y="-62" font-family="Helvetica,sans-Serif" font-size="10.00" fill="#000000">porter_type.h</text>
</a>
</g>
</g>
<!-- Node3&#45;&gt;Node4 -->
<g id="edge3_Node000003_Node000004" class="edge">
<title>Node3&#45;&gt;Node4</title>
<g id="a_edge3_Node000003_Node000004"><a xlink:title=" ">
<path fill="none" stroke="#63b8ff" d="M376.6304,-168.2543C396.0133,-161.8884 421.7725,-149.9045 434.08,-129 446.272,-108.2918 421.8943,-90.1558 398.8202,-78.4332"/>
<polygon fill="#63b8ff" stroke="#63b8ff" points="400.3202,-75.271 389.7888,-74.113 397.2994,-81.5857 400.3202,-75.271"/>
</a>
</g>
</g>
<!-- Node4&#45;&gt;Node2 -->
<g id="edge6_Node000004_Node000002" class="edge">
<title>Node4&#45;&gt;Node2</title>
<g id="a_edge6_Node000004_Node000002"><a xlink:title=" ">
<path fill="none" stroke="#63b8ff" d="M340.1713,-54.9197C317.0398,-46.023 282.3849,-32.6942 256.592,-22.7739"/>
<polygon fill="#63b8ff" stroke="#63b8ff" points="257.773,-19.4782 247.1831,-19.155 255.2601,-26.0116 257.773,-19.4782"/>
</a>
</g>
</g>
<!-- Node5 -->
<g id="Node000005" class="node">
<title>Node5</title>
<g id="a_Node000005"><a xlink:title=" ">
<polygon fill="#e0e0e0" stroke="#999999" points="349.08,-19 297.08,-19 297.08,0 349.08,0 349.08,-19"/>
<text text-anchor="middle" x="323.08" y="-7" font-family="Helvetica,sans-Serif" font-size="10.00" fill="#000000">stddef.h</text>
</a>
</g>
</g>
<!-- Node4&#45;&gt;Node5 -->
<g id="edge4_Node000004_Node000005" class="edge">
<title>Node4&#45;&gt;Node5</title>
<g id="a_edge4_Node000004_Node000005"><a xlink:title=" ">
<path fill="none" stroke="#63b8ff" d="M357.7642,-54.9197C351.9936,-47.363 343.7812,-36.6087 336.7961,-27.4616"/>
<polygon fill="#63b8ff" stroke="#63b8ff" points="339.4457,-25.1643 330.5948,-19.3408 333.8823,-29.4127 339.4457,-25.1643"/>
</a>
</g>
</g>
<!-- Node6 -->
<g id="Node000006" class="node">
<title>Node6</title>
<g id="a_Node000006"><a xlink:title=" ">
<polygon fill="#e0e0e0" stroke="#999999" points="424.58,-19 375.58,-19 375.58,0 424.58,0 424.58,-19"/>
<text text-anchor="middle" x="400.08" y="-7" font-family="Helvetica,sans-Serif" font-size="10.00" fill="#000000">stdint.h</text>
</a>
</g>
</g>
<!-- Node4&#45;&gt;Node6 -->
<g id="edge5_Node000004_Node000006" class="edge">
<title>Node4&#45;&gt;Node6</title>
<g id="a_edge5_Node000004_Node000006"><a xlink:title=" ">
<path fill="none" stroke="#63b8ff" d="M371.1765,-54.9197C375.8862,-47.5188 382.5477,-37.0509 388.2886,-28.0294"/>
<polygon fill="#63b8ff" stroke="#63b8ff" points="391.4017,-29.6565 393.8177,-19.3408 385.496,-25.8984 391.4017,-29.6565"/>
</a>
</g>
</g>
<!-- Node7&#45;&gt;Node4 -->
<g id="edge8_Node000007_Node000004" class="edge">
<title>Node7&#45;&gt;Node4</title>
<g id="a_edge8_Node000007_Node000004"><a xlink:title=" ">
<path fill="none" stroke="#63b8ff" d="M299.281,-166.7559C336.9592,-158.8817 388.0085,-145.5088 400.08,-129 411.1438,-113.8693 397.9307,-94.8265 384.6906,-81.3656"/>
<polygon fill="#63b8ff" stroke="#63b8ff" points="386.7436,-78.4897 377.0752,-74.1569 381.9314,-83.5733 386.7436,-78.4897"/>
</a>
</g>
</g>
<!-- Node8 -->
<g id="Node000008" class="node">
<title>Node8</title>
<g id="a_Node000008"><a xlink:href="window_8h.html" target="_top" xlink:title="スライディングウィンドウ管理モジュールの内部ヘッダー。">
<polygon fill="#ffffff" stroke="#666666" points="391.58,-129 298.58,-129 298.58,-110 391.58,-110 391.58,-129"/>
<text text-anchor="middle" x="345.08" y="-117" font-family="Helvetica,sans-Serif" font-size="10.00" fill="#000000">protocol/window.h</text>
</a>
</g>
</g>
<!-- Node7&#45;&gt;Node8 -->
<g id="edge9_Node000007_Node000008" class="edge">
<title>Node7&#45;&gt;Node8</title>
<g id="a_edge9_Node000007_Node000008"><a xlink:title=" ">
<path fill="none" stroke="#63b8ff" d="M272.4084,-164.9197C285.828,-156.5325 305.55,-144.2063 321.0636,-134.5103"/>
<polygon fill="#63b8ff" stroke="#63b8ff" points="323.007,-137.4231 329.632,-129.155 319.297,-131.4871 323.007,-137.4231"/>
</a>
</g>
</g>
<!-- Node7&#45;&gt;Node9 -->
<g id="edge13_Node000007_Node000009" class="edge">
<title>Node7&#45;&gt;Node9</title>
<g id="a_edge13_Node000007_Node000009"><a xlink:title=" ">
<path fill="none" stroke="#63b8ff" d="M299.2172,-167.9943C332.7251,-161.5642 379.9734,-149.6228 417.08,-129 438.9827,-116.8271 459.6665,-96.681 472.9974,-82.1398"/>
<polygon fill="#63b8ff" stroke="#63b8ff" points="475.916,-84.1252 479.9505,-74.3286 470.6873,-79.471 475.916,-84.1252"/>
</a>
</g>
</g>
<!-- Node10 -->
<g id="Node000010" class="node">
<title>Node10</title>
<g id="a_Node000010"><a xlink:href="crypto_8h.html" target="_top" xlink:title="データ暗号化・復号モジュールの内部ヘッダー。">
<polygon fill="#ffffff" stroke="#666666" points="310.08,-74 206.08,-74 206.08,-55 310.08,-55 310.08,-74"/>
<text text-anchor="middle" x="258.08" y="-62" font-family="Helvetica,sans-Serif" font-size="10.00" fill="#000000">infra/crypto/crypto.h</text>
</a>
</g>
</g>
<!-- Node7&#45;&gt;Node10 -->
<g id="edge17_Node000007_Node000010" class="edge">
<title>Node7&#45;&gt;Node10</title>
<g id="a_edge17_Node000007_Node000010"><a xlink:title=" ">
<path fill="none" stroke="#63b8ff" d="M239.9588,-164.8272C221.5303,-153.0419 196.1109,-131.9695 206.08,-110 211.6178,-97.7961 222.2254,-87.5785 232.4232,-79.9377"/>
<polygon fill="#63b8ff" stroke="#63b8ff" points="234.556,-82.7178 240.7727,-74.1385 230.5628,-76.9685 234.556,-82.7178"/>
</a>
</g>
</g>
<!-- Node7&#45;&gt;Node11 -->
<g id="edge21_Node000007_Node000011" class="edge">
<title>Node7&#45;&gt;Node11</title>
<g id="a_edge21_Node000007_Node000011"><a xlink:title=" ">
<path fill="none" stroke="#63b8ff" d="M230.0811,-164.9197C204.71,-155.9171 166.5493,-142.3762 138.4938,-132.421"/>
<polygon fill="#63b8ff" stroke="#63b8ff" points="139.6239,-129.1083 129.0291,-129.0626 137.283,-135.7053 139.6239,-129.1083"/>
</a>
</g>
</g>
<!-- Node12 -->
<g id="Node000012" class="node">
<title>Node12</title>
<g id="a_Node000012"><a xlink:title=" ">
<polygon fill="#e0e0e0" stroke="#999999" points="69.58,-74 12.58,-74 12.58,-55 69.58,-55 69.58,-74"/>
<text text-anchor="middle" x="41.08" y="-62" font-family="Helvetica,sans-Serif" font-size="10.00" fill="#000000">pthread.h</text>
</a>
</g>
</g>
<!-- Node7&#45;&gt;Node12 -->
<g id="edge26_Node000007_Node000012" class="edge">
<title>Node7&#45;&gt;Node12</title>
<g id="a_edge26_Node000007_Node000012"><a xlink:title=" ">
<path fill="none" stroke="#63b8ff" d="M214.6538,-171.9658C156.8998,-167.5293 58.1689,-156.0999 36.08,-129 25.9016,-116.5125 28.6988,-97.7695 33.1266,-83.7012"/>
<polygon fill="#63b8ff" stroke="#63b8ff" points="36.5132,-84.6295 36.6424,-74.0354 29.9349,-82.2366 36.5132,-84.6295"/>
</a>
</g>
</g>
<!-- Node13 -->
<g id="Node000013" class="node">
<title>Node13</title>
<g id="a_Node000013"><a xlink:title=" ">
<polygon fill="#e0e0e0" stroke="#999999" points="280.58,-129 215.58,-129 215.58,-110 280.58,-110 280.58,-129"/>
<text text-anchor="middle" x="248.08" y="-117" font-family="Helvetica,sans-Serif" font-size="10.00" fill="#000000">netinet/in.h</text>
</a>
</g>
</g>
<!-- Node7&#45;&gt;Node13 -->
<g id="edge27_Node000007_Node000013" class="edge">
<title>Node7&#45;&gt;Node13</title>
<g id="a_edge27_Node000007_Node000013"><a xlink:title=" ">
<path fill="none" stroke="#63b8ff" d="M255.5123,-164.9197C254.365,-157.9083 252.7673,-148.1442 251.347,-139.4652"/>
<polygon fill="#63b8ff" stroke="#63b8ff" points="254.7594,-138.6443 249.6903,-129.3408 247.8512,-139.7748 254.7594,-138.6443"/>
</a>
</g>
</g>
<!-- Node8&#45;&gt;Node2 -->
<g id="edge11_Node000008_Node000002" class="edge">
<title>Node8&#45;&gt;Node2</title>
<g id="a_edge11_Node000008_Node000002"><a xlink:title=" ">
<path fill="none" stroke="#63b8ff" d="M298.4182,-111.3629C259.7772,-103.5619 209.2992,-90.5402 197.08,-74 186.6602,-59.8955 196.2599,-40.8971 206.4318,-27.1761"/>
<polygon fill="#63b8ff" stroke="#63b8ff" points="209.4487,-29.0101 212.9941,-19.026 203.9964,-24.62 209.4487,-29.0101"/>
</a>
</g>
</g>
<!-- Node8&#45;&gt;Node4 -->
<g id="edge12_Node000008_Node000004" class="edge">
<title>Node8&#45;&gt;Node4</title>
<g id="a_edge12_Node000008_Node000004"><a xlink:title=" ">
<path fill="none" stroke="#63b8ff" d="M348.5637,-109.9197C351.17,-102.7525 354.8222,-92.7089 358.0298,-83.8882"/>
<polygon fill="#63b8ff" stroke="#63b8ff" points="361.3733,-84.9349 361.5015,-74.3408 354.7948,-82.5426 361.3733,-84.9349"/>
</a>
</g>
</g>
<!-- Node8&#45;&gt;Node6 -->
<g id="edge10_Node000008_Node000006" class="edge">
<title>Node8&#45;&gt;Node6</title>
<g id="a_edge10_Node000008_Node000006"><a xlink:title=" ">
<path fill="none" stroke="#63b8ff" d="M391.7407,-116.5844C449.719,-111.8758 543.6533,-100.3116 565.08,-74 601.9212,-28.7597 493.5687,-15.1498 434.9683,-11.1347"/>
<polygon fill="#63b8ff" stroke="#63b8ff" points="434.85,-7.6206 424.6515,-10.4911 434.4142,-14.607 434.85,-7.6206"/>
</a>
</g>
</g>
<!-- Node9&#45;&gt;Node2 -->
<g id="edge16_Node000009_Node000002" class="edge">
<title>Node9&#45;&gt;Node2</title>
<g id="a_edge16_Node000009_Node000002"><a xlink:title=" ">
<path fill="none" stroke="#63b8ff" d="M442.05,-54.9825C394.5728,-45.1658 320.7659,-29.905 271.9317,-19.8077"/>
<polygon fill="#63b8ff" stroke="#63b8ff" points="272.4101,-16.3326 261.9085,-17.7352 270.9927,-23.1876 272.4101,-16.3326"/>
</a>
</g>
</g>
<!-- Node9&#45;&gt;Node5 -->
<g id="edge14_Node000009_Node000005" class="edge">
<title>Node9&#45;&gt;Node5</title>
<g id="a_edge14_Node000009_Node000005"><a xlink:title=" ">
<path fill="none" stroke="#63b8ff" d="M459.3392,-54.9197C431.4667,-45.6289 389.094,-31.5047 359.0089,-21.4763"/>
<polygon fill="#63b8ff" stroke="#63b8ff" points="359.9096,-18.0873 349.3159,-18.2453 357.6959,-24.728 359.9096,-18.0873"/>
</a>
</g>
</g>
<!-- Node9&#45;&gt;Node6 -->
<g id="edge15_Node000009_Node000006" class="edge">
<title>Node9&#45;&gt;Node6</title>
<g id="a_edge15_Node000009_Node000006"><a xlink:title=" ">
<path fill="none" stroke="#63b8ff" d="M472.7516,-54.9197C459.332,-46.5325 439.6101,-34.2063 424.0965,-24.5103"/>
<polygon fill="#63b8ff" stroke="#63b8ff" points="425.8631,-21.4871 415.5281,-19.155 422.153,-27.4231 425.8631,-21.4871"/>
</a>
</g>
</g>
<!-- Node10&#45;&gt;Node2 -->
<g id="edge20_Node000010_Node000002" class="edge">
<title>Node10&#45;&gt;Node2</title>
<g id="a_edge20_Node000010_Node000002"><a xlink:title=" ">
<path fill="none" stroke="#63b8ff" d="M251.8093,-54.9197C246.9141,-47.4409 239.9688,-36.8301 234.0222,-27.745"/>
<polygon fill="#63b8ff" stroke="#63b8ff" points="236.9264,-25.791 228.5213,-19.3408 231.0695,-29.6247 236.9264,-25.791"/>
</a>
</g>
</g>
<!-- Node10&#45;&gt;Node5 -->
<g id="edge18_Node000010_Node000005" class="edge">
<title>Node10&#45;&gt;Node5</title>
<g id="a_edge18_Node000010_Node000005"><a xlink:title=" ">
<path fill="none" stroke="#63b8ff" d="M269.4022,-54.9197C278.7932,-46.9735 292.3627,-35.4916 303.5085,-26.0605"/>
<polygon fill="#63b8ff" stroke="#63b8ff" points="306.0769,-28.4721 311.4499,-19.3408 301.5552,-23.1284 306.0769,-28.4721"/>
</a>
</g>
</g>
<!-- Node10&#45;&gt;Node6 -->
<g id="edge19_Node000010_Node000006" class="edge">
<title>Node10&#45;&gt;Node6</title>
<g id="a_edge19_Node000010_Node000006"><a xlink:title=" ">
<path fill="none" stroke="#63b8ff" d="M282.8145,-54.9197C305.7843,-46.023 340.1969,-32.6942 365.8093,-22.7739"/>
<polygon fill="#63b8ff" stroke="#63b8ff" points="367.0917,-26.0306 375.1525,-19.155 364.5634,-19.5031 367.0917,-26.0306"/>
</a>
</g>
</g>
<!-- Node11&#45;&gt;Node2 -->
<g id="edge23_Node000011_Node000002" class="edge">
<title>Node11&#45;&gt;Node2</title>
<g id="a_edge23_Node000011_Node000002"><a xlink:title=" ">
<path fill="none" stroke="#63b8ff" d="M103.4029,-109.5505C105.7172,-95.7342 111.705,-70.6736 126.08,-55 139.6491,-40.2052 159.0337,-29.766 176.8359,-22.6531"/>
<polygon fill="#63b8ff" stroke="#63b8ff" points="178.3731,-25.8151 186.5162,-19.0371 175.9236,-19.2577 178.3731,-25.8151"/>
</a>
</g>
</g>
<!-- Node11&#45;&gt;Node4 -->
<g id="edge24_Node000011_Node000004" class="edge">
<title>Node11&#45;&gt;Node4</title>
<g id="a_edge24_Node000011_Node000004"><a xlink:title=" ">
<path fill="none" stroke="#63b8ff" d="M147.5909,-109.9825C195.2189,-100.0223 269.6465,-84.4576 317.8923,-74.3682"/>
<polygon fill="#63b8ff" stroke="#63b8ff" points="318.6992,-77.7752 327.7709,-72.3023 317.2662,-70.9234 318.6992,-77.7752"/>
</a>
</g>
</g>
<!-- Node11&#45;&gt;Node5 -->
<g id="edge22_Node000011_Node000005" class="edge">
<title>Node11&#45;&gt;Node5</title>
<g id="a_edge22_Node000011_Node000005"><a xlink:title=" ">
<path fill="none" stroke="#63b8ff" d="M114.0654,-109.9036C131.5098,-96.2849 165.2894,-71.2085 197.08,-55 226.164,-40.1715 261.235,-27.9249 286.9836,-19.887"/>
<polygon fill="#63b8ff" stroke="#63b8ff" points="288.1699,-23.1843 296.7089,-16.9124 286.1224,-16.4904 288.1699,-23.1843"/>
</a>
</g>
</g>
<!-- Node11&#45;&gt;Node12 -->
<g id="edge25_Node000011_Node000012" class="edge">
<title>Node11&#45;&gt;Node12</title>
<g id="a_edge25_Node000011_Node000012"><a xlink:title=" ">
<path fill="none" stroke="#63b8ff" d="M91.4546,-109.9197C82.6415,-101.9735 69.907,-90.4916 59.4471,-81.0605"/>
<polygon fill="#63b8ff" stroke="#63b8ff" points="61.765,-78.4378 51.9944,-74.3408 57.0776,-83.6367 61.765,-78.4378"/>
</a>
</g>
</g>
<!-- Node14&#45;&gt;Node4 -->
<g id="edge31_Node000014_Node000004" class="edge">
<title>Node14&#45;&gt;Node4</title>
<g id="a_edge31_Node000014_Node000004"><a xlink:title=" ">
<path fill="none" stroke="#63b8ff" d="M459.4693,-164.7978C460.8722,-151.2753 461.4434,-126.5615 450.08,-110 440.042,-95.3701 423.7437,-85.0547 408.0903,-77.9892"/>
<polygon fill="#63b8ff" stroke="#63b8ff" points="409.0666,-74.6048 398.489,-74.0003 406.3809,-81.0691 409.0666,-74.6048"/>
</a>
</g>
</g>
</g>
</svg>

<g id="navigator" transform="translate(0 0)" fill="#404254">
  <rect fill="#f2f5e9" fill-opacity="0.5" stroke="#606060" stroke-width=".5" x="0" y="0" width="60" height="60"/>
  <use id="zoomplus" xlink:href="#zoomPlus" x="17" y="9" onmousedown="handleZoom(evt,'in')"/>
  <use id="zoomminus" xlink:href="#zoomMin" x="42" y="9" onmousedown="handleZoom(evt,'out')"/>
  <use id="reset" xlink:href="#resetDef" x="30" y="36" onmousedown="handleReset()"/>
   <use id="arrowup" xlink:href="#arrowUp" x="0" y="0" onmousedown="handlePan(0,-1)"/>
  <use id="arrowright" xlink:href="#arrowRight" x="0" y="0" onmousedown="handlePan(1,0)"/>
  <use id="arrowdown" xlink:href="#arrowDown" x="0" y="0" onmousedown="handlePan(0,1)"/>
  <use id="arrowleft" xlink:href="#arrowLeft" x="0" y="0" onmousedown="handlePan(-1,0)"/>
</g>
<svg viewBox="0 0 15 15" width="100%" height="30px" preserveAspectRatio="xMaxYMin meet">
 <g id="arrow_out" transform="scale(0.3 0.3)">
  <a xlink:href="potrSend_8c__incl_org.svg" target="_base">
   <rect id="button" ry="5" rx="5" y="6" x="6" height="38" width="38"
        fill="#f2f5e9" fill-opacity="0.5" stroke="#606060" stroke-width="1.0"/>
   <path id="arrow"
     d="M 11.500037,31.436501 C 11.940474,20.09759 22.043105,11.32322 32.158766,21.979434 L 37.068811,17.246167 C 37.068811,17.246167 37.088388,32 37.088388,32 L 22.160133,31.978069 C 22.160133,31.978069 26.997745,27.140456 26.997745,27.140456 C 18.528582,18.264221 13.291696,25.230495 11.500037,31.436501 z"
     style="fill:#404040;"/>
  </a>
 </g>
</svg>

<style type='text/css'>
<![CDATA[
[data-mouse-over-selected='false'] { opacity: 0.7; }
[data-mouse-over-selected='true']  { opacity: 1.0; }
]]>
</style>
<script type="application/ecmascript"><![CDATA[
document.addEventListener('DOMContentLoaded', (event) => {
  highlightEdges();
  highlightAdjacentNodes();
});
]]></script>
</svg>
