<?xml version="1.0" encoding="UTF-8" standalone="no"?>
<!DOCTYPE svg PUBLIC "-//W3C//DTD SVG 1.1//EN"
 "http://www.w3.org/Graphics/SVG/1.1/DTD/svg11.dtd">
<!-- Generated by graphviz version 2.40.1 (0)
 -->
<!-- Title: porter/libsrc/porter/infra/potrSendQueue.h Pages: 1 -->
<svg width="1019pt" height="236pt"
 viewBox="0.00 0.00 1019.00 236.00" xmlns="http://www.w3.org/2000/svg" xmlns:xlink="http://www.w3.org/1999/xlink">
<g id="graph0" class="graph" transform="scale(1 1) rotate(0) translate(4 232)">
<title>porter/libsrc/porter/infra/potrSendQueue.h</title>
<!-- Node1 -->
<g id="Node000001" class="node">
<title>Node1</title>
<g id="a_Node000001"><a xlink:title="非同期送信キューの型定義と操作関数。">
<polygon fill="#999999" stroke="#666666" points="714,-228 597,-228 597,-198 714,-198 714,-228"/>
<text text-anchor="start" x="605" y="-216" font-family="Helvetica,sans-Serif" font-size="10.00" fill="#000000">porter/libsrc/porter</text>
<text text-anchor="middle" x="655.5" y="-205" font-family="Helvetica,sans-Serif" font-size="10.00" fill="#000000">/infra/potrSendQueue.h</text>
</a>
</g>
</g>
<!-- Node2 -->
<g id="Node000002" class="node">
<title>Node2</title>
<g id="a_Node000002"><a xlink:href="potrCloseService_8c.html" target="_top" xlink:title=" ">
<polygon fill="#ffffff" stroke="#666666" points="408.5,-30 290.5,-30 290.5,0 408.5,0 408.5,-30"/>
<text text-anchor="start" x="298.5" y="-18" font-family="Helvetica,sans-Serif" font-size="10.00" fill="#000000">porter/libsrc/porter</text>
<text text-anchor="middle" x="349.5" y="-7" font-family="Helvetica,sans-Serif" font-size="10.00" fill="#000000">/api/potrCloseService.c</text>
</a>
</g>
</g>
<!-- Node1&#45;&gt;Node2 -->
<g id="edge1_Node000001_Node000002" class="edge">
<title>Node1&#45;&gt;Node2</title>
<g id="a_edge1_Node000001_Node000002"><a xlink:title=" ">
<path fill="none" stroke="#63b8ff" d="M586.6513,-205.5737C471.9317,-191.5955 249.7512,-157.1433 204.5,-96 196.5682,-85.2825 196.7931,-76.8804 204.5,-66 214.9501,-51.2468 254.9603,-37.8233 290.3108,-28.4551"/>
<polygon fill="#63b8ff" stroke="#63b8ff" points="586.3912,-209.0675 596.7369,-206.7836 587.225,-202.1174 586.3912,-209.0675"/>
</a>
</g>
</g>
<!-- Node3 -->
<g id="Node000003" class="node">
<title>Node3</title>
<g id="a_Node000003"><a xlink:href="potrOpenService_8c.html" target="_top" xlink:title="potrOpenService 関数の実装。">
<polygon fill="#ffffff" stroke="#666666" points="629.5,-30 513.5,-30 513.5,0 629.5,0 629.5,-30"/>
<text text-anchor="start" x="521.5" y="-18" font-family="Helvetica,sans-Serif" font-size="10.00" fill="#000000">porter/libsrc/porter</text>
<text text-anchor="middle" x="571.5" y="-7" font-family="Helvetica,sans-Serif" font-size="10.00" fill="#000000">/api/potrOpenService.c</text>
</a>
</g>
</g>
<!-- Node1&#45;&gt;Node3 -->
<g id="edge2_Node000001_Node000003" class="edge">
<title>Node1&#45;&gt;Node3</title>
<g id="a_edge2_Node000001_Node000003"><a xlink:title=" ">
<path fill="none" stroke="#63b8ff" d="M715.6474,-194.7398C787.7933,-169.8238 893.5007,-121.8342 846.5,-66 816.2906,-30.1129 684.513,-39.1269 638.5,-30 635.577,-29.4202 632.5859,-28.8106 629.5679,-28.1825"/>
<polygon fill="#63b8ff" stroke="#63b8ff" points="714.4994,-191.4333 706.1496,-197.955 716.7439,-198.0637 714.4994,-191.4333"/>
</a>
</g>
</g>
<!-- Node4 -->
<g id="Node000004" class="node">
<title>Node4</title>
<g id="a_Node000004"><a xlink:href="potrSend_8c.html" target="_top" xlink:title="potrSend 関数の実装。">
<polygon fill="#ffffff" stroke="#666666" points="837,-96 742,-96 742,-66 837,-66 837,-96"/>
<text text-anchor="start" x="750" y="-84" font-family="Helvetica,sans-Serif" font-size="10.00" fill="#000000">porter/libsrc/porter</text>
<text text-anchor="middle" x="789.5" y="-73" font-family="Helvetica,sans-Serif" font-size="10.00" fill="#000000">/api/potrSend.c</text>
</a>
</g>
</g>
<!-- Node1&#45;&gt;Node4 -->
<g id="edge3_Node000001_Node000004" class="edge">
<title>Node1&#45;&gt;Node4</title>
<g id="a_edge3_Node000001_Node000004"><a xlink:title=" ">
<path fill="none" stroke="#63b8ff" d="M678.0377,-190.7987C705.2357,-164.0066 750.2523,-119.6619 773.895,-96.3721"/>
<polygon fill="#63b8ff" stroke="#63b8ff" points="675.5394,-188.3468 670.8715,-197.8579 680.4518,-193.3336 675.5394,-188.3468"/>
</a>
</g>
</g>
<!-- Node5 -->
<g id="Node000005" class="node">
<title>Node5</title>
<g id="a_Node000005"><a xlink:href="potrSendQueue_8c.html" target="_top" xlink:title="非同期送信キューの実装。">
<polygon fill="#ffffff" stroke="#666666" points="1011,-162 894,-162 894,-132 1011,-132 1011,-162"/>
<text text-anchor="start" x="902" y="-150" font-family="Helvetica,sans-Serif" font-size="10.00" fill="#000000">porter/libsrc/porter</text>
<text text-anchor="middle" x="952.5" y="-139" font-family="Helvetica,sans-Serif" font-size="10.00" fill="#000000">/infra/potrSendQueue.c</text>
</a>
</g>
</g>
<!-- Node1&#45;&gt;Node5 -->
<g id="edge4_Node000001_Node000005" class="edge">
<title>Node1&#45;&gt;Node5</title>
<g id="a_edge4_Node000001_Node000005"><a xlink:title=" ">
<path fill="none" stroke="#63b8ff" d="M724.2054,-197.7321C775.6119,-186.3085 845.1649,-170.8522 893.9443,-160.0124"/>
<polygon fill="#63b8ff" stroke="#63b8ff" points="723.1802,-194.3745 714.1776,-199.9605 724.6988,-201.2078 723.1802,-194.3745"/>
</a>
</g>
</g>
<!-- Node6 -->
<g id="Node000006" class="node">
<title>Node6</title>
<g id="a_Node000006"><a xlink:href="potrContext_8h.html" target="_top" xlink:title="セッションコンテキスト内部定義ヘッダー。">
<polygon fill="#ffffff" stroke="#666666" points="525,-162 430,-162 430,-132 525,-132 525,-162"/>
<text text-anchor="start" x="438" y="-150" font-family="Helvetica,sans-Serif" font-size="10.00" fill="#000000">porter/libsrc/porter</text>
<text text-anchor="middle" x="477.5" y="-139" font-family="Helvetica,sans-Serif" font-size="10.00" fill="#000000">/potrContext.h</text>
</a>
</g>
</g>
<!-- Node1&#45;&gt;Node6 -->
<g id="edge5_Node000001_Node000006" class="edge">
<title>Node1&#45;&gt;Node6</title>
<g id="a_edge5_Node000001_Node000006"><a xlink:title=" ">
<path fill="none" stroke="#63b8ff" d="M605.2033,-194.3507C577.6704,-184.1418 544.0003,-171.6574 518.1468,-162.0713"/>
<polygon fill="#63b8ff" stroke="#63b8ff" points="604.0702,-197.6633 614.6632,-197.8583 606.5038,-191.0999 604.0702,-197.6633"/>
</a>
</g>
</g>
<!-- Node11 -->
<g id="Node000011" class="node">
<title>Node11</title>
<g id="a_Node000011"><a xlink:href="potrSendThread_8c.html" target="_top" xlink:title="非同期送信スレッドの実装。">
<polygon fill="#ffffff" stroke="#666666" points="127,-30 0,-30 0,0 127,0 127,-30"/>
<text text-anchor="start" x="8" y="-18" font-family="Helvetica,sans-Serif" font-size="10.00" fill="#000000">porter/libsrc/porter</text>
<text text-anchor="middle" x="63.5" y="-7" font-family="Helvetica,sans-Serif" font-size="10.00" fill="#000000">/thread/potrSendThread.c</text>
</a>
</g>
</g>
<!-- Node1&#45;&gt;Node11 -->
<g id="edge24_Node000001_Node000011" class="edge">
<title>Node1&#45;&gt;Node11</title>
<g id="a_edge24_Node000001_Node000011"><a xlink:title=" ">
<path fill="none" stroke="#63b8ff" d="M586.7105,-207.1709C489.5324,-198.4272 317.2333,-180.9119 257.5,-162 197.6061,-143.0372 181.5271,-135.2837 132.5,-96 108.2809,-76.5941 86.1335,-47.7746 73.7691,-30.2544"/>
<polygon fill="#63b8ff" stroke="#63b8ff" points="586.4655,-210.6629 596.7371,-208.0659 587.0879,-203.6906 586.4655,-210.6629"/>
</a>
</g>
</g>
<!-- Node6&#45;&gt;Node2 -->
<g id="edge6_Node000006_Node000002" class="edge">
<title>Node6&#45;&gt;Node2</title>
<g id="a_edge6_Node000006_Node000002"><a xlink:title=" ">
<path fill="none" stroke="#63b8ff" d="M419.4814,-144.0577C350.3073,-139.1938 240.8339,-126.7408 215.5,-96 188.7896,-63.5889 243.1265,-40.7963 290.4128,-27.8175"/>
<polygon fill="#63b8ff" stroke="#63b8ff" points="419.5877,-147.5726 429.7991,-144.7482 420.0552,-140.5882 419.5877,-147.5726"/>
</a>
</g>
</g>
<!-- Node6&#45;&gt;Node3 -->
<g id="edge7_Node000006_Node000003" class="edge">
<title>Node6&#45;&gt;Node3</title>
<g id="a_edge7_Node000006_Node000003"><a xlink:title=" ">
<path fill="none" stroke="#63b8ff" d="M535.3573,-138.1913C581.856,-129.7902 641.7633,-115.5219 656.5,-96 675.966,-70.2132 638.7441,-45.3076 607.5679,-30.077"/>
<polygon fill="#63b8ff" stroke="#63b8ff" points="534.6059,-134.7696 525.3615,-139.9456 535.816,-141.6642 534.6059,-134.7696"/>
</a>
</g>
</g>
<!-- Node6&#45;&gt;Node4 -->
<g id="edge8_Node000006_Node000004" class="edge">
<title>Node6&#45;&gt;Node4</title>
<g id="a_edge8_Node000006_Node000004"><a xlink:title=" ">
<path fill="none" stroke="#63b8ff" d="M535.1911,-135.8455C585.9428,-125.8863 661.7703,-110.6506 727.5,-96 732.1479,-94.964 736.9837,-93.8528 741.8131,-92.721"/>
<polygon fill="#63b8ff" stroke="#63b8ff" points="534.2115,-132.4708 525.0702,-137.8268 535.5564,-139.3404 534.2115,-132.4708"/>
</a>
</g>
</g>
<!-- Node7 -->
<g id="Node000007" class="node">
<title>Node7</title>
<g id="a_Node000007"><a xlink:href="potrHealthThread_8c.html" target="_top" xlink:title="ヘルスチェックスレッドモジュール。">
<polygon fill="#ffffff" stroke="#666666" points="779.5,-30 647.5,-30 647.5,0 779.5,0 779.5,-30"/>
<text text-anchor="start" x="655.5" y="-18" font-family="Helvetica,sans-Serif" font-size="10.00" fill="#000000">porter/libsrc/porter</text>
<text text-anchor="middle" x="713.5" y="-7" font-family="Helvetica,sans-Serif" font-size="10.00" fill="#000000">/thread/potrHealthThread.c</text>
</a>
</g>
</g>
<!-- Node6&#45;&gt;Node7 -->
<g id="edge9_Node000006_Node000007" class="edge">
<title>Node6&#45;&gt;Node7</title>
<g id="a_edge9_Node000006_Node000007"><a xlink:title=" ">
<path fill="none" stroke="#63b8ff" d="M535.3634,-137.2878C584.9103,-128.0116 651.4823,-112.962 672.5,-96 693.4738,-79.0735 704.7214,-48.619 709.8782,-30.2613"/>
<polygon fill="#63b8ff" stroke="#63b8ff" points="534.5885,-133.8715 525.3859,-139.1215 535.8539,-140.7562 534.5885,-133.8715"/>
</a>
</g>
</g>
<!-- Node8 -->
<g id="Node000008" class="node">
<title>Node8</title>
<g id="a_Node000008"><a xlink:href="potrHealthThread_8h.html" target="_top" xlink:title="ヘルスチェックスレッド内部ヘッダー。">
<polygon fill="#ffffff" stroke="#666666" points="647.5,-96 515.5,-96 515.5,-66 647.5,-66 647.5,-96"/>
<text text-anchor="start" x="523.5" y="-84" font-family="Helvetica,sans-Serif" font-size="10.00" fill="#000000">porter/libsrc/porter</text>
<text text-anchor="middle" x="581.5" y="-73" font-family="Helvetica,sans-Serif" font-size="10.00" fill="#000000">/thread/potrHealthThread.h</text>
</a>
</g>
</g>
<!-- Node6&#45;&gt;Node8 -->
<g id="edge10_Node000006_Node000008" class="edge">
<title>Node6&#45;&gt;Node8</title>
<g id="a_edge10_Node000006_Node000008"><a xlink:title=" ">
<path fill="none" stroke="#63b8ff" d="M510.0918,-126.3167C525.5311,-116.5188 543.6353,-105.0295 557.7513,-96.0713"/>
<polygon fill="#63b8ff" stroke="#63b8ff" points="507.9276,-123.5448 501.3597,-131.8583 511.6784,-129.4551 507.9276,-123.5448"/>
</a>
</g>
</g>
<!-- Node9 -->
<g id="Node000009" class="node">
<title>Node9</title>
<g id="a_Node000009"><a xlink:href="potrRecvThread_8c.html" target="_top" xlink:title="受信スレッドモジュール。">
<polygon fill="#ffffff" stroke="#666666" points="272,-30 145,-30 145,0 272,0 272,-30"/>
<text text-anchor="start" x="153" y="-18" font-family="Helvetica,sans-Serif" font-size="10.00" fill="#000000">porter/libsrc/porter</text>
<text text-anchor="middle" x="208.5" y="-7" font-family="Helvetica,sans-Serif" font-size="10.00" fill="#000000">/thread/potrRecvThread.c</text>
</a>
</g>
</g>
<!-- Node6&#45;&gt;Node9 -->
<g id="edge14_Node000006_Node000009" class="edge">
<title>Node6&#45;&gt;Node9</title>
<g id="a_edge14_Node000006_Node000009"><a xlink:title=" ">
<path fill="none" stroke="#63b8ff" d="M419.5956,-144.583C347.7148,-140.2263 231.2916,-128.2601 204.5,-96 189.2079,-77.5866 195.9895,-47.9092 202.2717,-30.0477"/>
<polygon fill="#63b8ff" stroke="#63b8ff" points="419.6777,-148.0934 429.8618,-145.1721 420.0787,-141.1049 419.6777,-148.0934"/>
</a>
</g>
</g>
<!-- Node10 -->
<g id="Node000010" class="node">
<title>Node10</title>
<g id="a_Node000010"><a xlink:href="potrRecvThread_8h.html" target="_top" xlink:title="受信スレッド内部ヘッダー。">
<polygon fill="#ffffff" stroke="#666666" points="497,-96 370,-96 370,-66 497,-66 497,-96"/>
<text text-anchor="start" x="378" y="-84" font-family="Helvetica,sans-Serif" font-size="10.00" fill="#000000">porter/libsrc/porter</text>
<text text-anchor="middle" x="433.5" y="-73" font-family="Helvetica,sans-Serif" font-size="10.00" fill="#000000">/thread/potrRecvThread.h</text>
</a>
</g>
</g>
<!-- Node6&#45;&gt;Node10 -->
<g id="edge15_Node000006_Node000010" class="edge">
<title>Node6&#45;&gt;Node10</title>
<g id="a_edge15_Node000006_Node000010"><a xlink:title=" ">
<path fill="none" stroke="#63b8ff" d="M461.5994,-123.1492C455.6128,-114.1692 448.9719,-104.2078 443.6497,-96.2246"/>
<polygon fill="#63b8ff" stroke="#63b8ff" points="458.8357,-125.3133 467.2949,-131.6924 464.6601,-121.4304 458.8357,-125.3133"/>
</a>
</g>
</g>
<!-- Node6&#45;&gt;Node11 -->
<g id="edge19_Node000006_Node000011" class="edge">
<title>Node6&#45;&gt;Node11</title>
<g id="a_edge19_Node000006_Node000011"><a xlink:title=" ">
<path fill="none" stroke="#63b8ff" d="M419.6753,-143.2688C360.6182,-137.9593 267.1232,-125.3604 191.5,-96 149.334,-79.6292 106.0473,-48.692 82.1803,-30.152"/>
<polygon fill="#63b8ff" stroke="#63b8ff" points="419.6666,-146.7809 429.9292,-144.1484 420.265,-139.8065 419.6666,-146.7809"/>
</a>
</g>
</g>
<!-- Node12 -->
<g id="Node000012" class="node">
<title>Node12</title>
<g id="a_Node000012"><a xlink:href="potrSendThread_8h.html" target="_top" xlink:title="非同期送信スレッドの内部ヘッダー。">
<polygon fill="#ffffff" stroke="#666666" points="352,-96 225,-96 225,-66 352,-66 352,-96"/>
<text text-anchor="start" x="233" y="-84" font-family="Helvetica,sans-Serif" font-size="10.00" fill="#000000">porter/libsrc/porter</text>
<text text-anchor="middle" x="288.5" y="-73" font-family="Helvetica,sans-Serif" font-size="10.00" fill="#000000">/thread/potrSendThread.h</text>
</a>
</g>
</g>
<!-- Node6&#45;&gt;Node12 -->
<g id="edge20_Node000006_Node000012" class="edge">
<title>Node6&#45;&gt;Node12</title>
<g id="a_edge20_Node000006_Node000012"><a xlink:title=" ">
<path fill="none" stroke="#63b8ff" d="M424.4777,-128.4843C395.1731,-118.2509 359.2298,-105.6993 331.6587,-96.0713"/>
<polygon fill="#63b8ff" stroke="#63b8ff" points="423.5447,-131.8657 434.1396,-131.8583 425.8526,-125.257 423.5447,-131.8657"/>
</a>
</g>
</g>
<!-- Node8&#45;&gt;Node2 -->
<g id="edge11_Node000008_Node000002" class="edge">
<title>Node8&#45;&gt;Node2</title>
<g id="a_edge11_Node000008_Node000002"><a xlink:title=" ">
<path fill="none" stroke="#63b8ff" d="M518.5754,-63.099C482.2679,-52.7702 437.1166,-39.9254 402.6084,-30.1084"/>
<polygon fill="#63b8ff" stroke="#63b8ff" points="517.9892,-66.5711 528.5653,-65.941 519.9047,-59.8382 517.9892,-66.5711"/>
</a>
</g>
</g>
<!-- Node8&#45;&gt;Node3 -->
<g id="edge12_Node000008_Node000003" class="edge">
<title>Node8&#45;&gt;Node3</title>
<g id="a_edge12_Node000008_Node000003"><a xlink:title=" ">
<path fill="none" stroke="#63b8ff" d="M577.6725,-55.7385C576.3692,-47.1369 574.9533,-37.792 573.8068,-30.2246"/>
<polygon fill="#63b8ff" stroke="#63b8ff" points="574.222,-56.3296 579.1807,-65.6924 581.143,-55.2809 574.222,-56.3296"/>
</a>
</g>
</g>
<!-- Node8&#45;&gt;Node7 -->
<g id="edge13_Node000008_Node000007" class="edge">
<title>Node8&#45;&gt;Node7</title>
<g id="a_edge13_Node000008_Node000007"><a xlink:title=" ">
<path fill="none" stroke="#63b8ff" d="M620.9547,-61.2726C640.9538,-51.2731 664.8549,-39.3225 683.3574,-30.0713"/>
<polygon fill="#63b8ff" stroke="#63b8ff" points="619.1625,-58.2556 611.7835,-65.8583 622.293,-64.5166 619.1625,-58.2556"/>
</a>
</g>
</g>
<!-- Node10&#45;&gt;Node2 -->
<g id="edge16_Node000010_Node000002" class="edge">
<title>Node10&#45;&gt;Node2</title>
<g id="a_edge16_Node000010_Node000002"><a xlink:title=" ">
<path fill="none" stroke="#63b8ff" d="M405.9735,-59.372C393.8458,-49.8432 379.8839,-38.873 368.8768,-30.2246"/>
<polygon fill="#63b8ff" stroke="#63b8ff" points="403.992,-62.2663 414.0176,-65.6924 408.3168,-56.762 403.992,-62.2663"/>
</a>
</g>
</g>
<!-- Node10&#45;&gt;Node3 -->
<g id="edge17_Node000010_Node000003" class="edge">
<title>Node10&#45;&gt;Node3</title>
<g id="a_edge17_Node000010_Node000003"><a xlink:title=" ">
<path fill="none" stroke="#63b8ff" d="M474.1815,-61.5436C495.2035,-51.4896 520.4687,-39.4063 539.9873,-30.0713"/>
<polygon fill="#63b8ff" stroke="#63b8ff" points="472.6712,-58.3862 465.16,-65.8583 475.6915,-64.7011 472.6712,-58.3862"/>
</a>
</g>
</g>
<!-- Node10&#45;&gt;Node9 -->
<g id="edge18_Node000010_Node000009" class="edge">
<title>Node10&#45;&gt;Node9</title>
<g id="a_edge18_Node000010_Node000009"><a xlink:title=" ">
<path fill="none" stroke="#63b8ff" d="M372.474,-63.099C337.262,-52.7702 293.473,-39.9254 260.006,-30.1084"/>
<polygon fill="#63b8ff" stroke="#63b8ff" points="371.5816,-66.4847 382.1625,-65.941 373.552,-59.7677 371.5816,-66.4847"/>
</a>
</g>
</g>
<!-- Node12&#45;&gt;Node2 -->
<g id="edge21_Node000012_Node000002" class="edge">
<title>Node12&#45;&gt;Node2</title>
<g id="a_edge21_Node000012_Node000002"><a xlink:title=" ">
<path fill="none" stroke="#63b8ff" d="M309.5114,-58.2663C318.0732,-49.0027 327.7429,-38.5404 335.4288,-30.2246"/>
<polygon fill="#63b8ff" stroke="#63b8ff" points="306.8651,-55.973 302.6479,-65.6924 312.0057,-60.7242 306.8651,-55.973"/>
</a>
</g>
</g>
<!-- Node12&#45;&gt;Node3 -->
<g id="edge22_Node000012_Node000003" class="edge">
<title>Node12&#45;&gt;Node3</title>
<g id="a_edge22_Node000012_Node000003"><a xlink:title=" ">
<path fill="none" stroke="#63b8ff" d="M361.8764,-63.8875C409.1063,-52.8727 469.6356,-38.7564 513.4984,-28.5269"/>
<polygon fill="#63b8ff" stroke="#63b8ff" points="360.9544,-60.5085 352.0107,-66.1883 362.5443,-67.3256 360.9544,-60.5085"/>
</a>
</g>
</g>
<!-- Node12&#45;&gt;Node11 -->
<g id="edge23_Node000012_Node000011" class="edge">
<title>Node12&#45;&gt;Node11</title>
<g id="a_edge23_Node000012_Node000011"><a xlink:title=" ">
<path fill="none" stroke="#63b8ff" d="M227.474,-63.099C192.262,-52.7702 148.473,-39.9254 115.006,-30.1084"/>
<polygon fill="#63b8ff" stroke="#63b8ff" points="226.5816,-66.4847 237.1625,-65.941 228.552,-59.7677 226.5816,-66.4847"/>
</a>
</g>
</g>
</g>
</svg>
