<?xml version="1.0" encoding="UTF-8" standalone="no"?>
<!DOCTYPE svg PUBLIC "-//W3C//DTD SVG 1.1//EN"
 "http://www.w3.org/Graphics/SVG/1.1/DTD/svg11.dtd">
<!-- Generated by graphviz version 2.40.1 (0)
 -->
<!-- Title: potr_send_queue_shutdown Pages: 1 -->
<svg width="498pt" height="64pt"
 viewBox="0.00 0.00 498.00 64.00" xmlns="http://www.w3.org/2000/svg" xmlns:xlink="http://www.w3.org/1999/xlink">

<svg id="main" version="1.1" xmlns="http://www.w3.org/2000/svg" xmlns:xlink="http://www.w3.org/1999/xlink" xml:space="preserve">

<style type="text/css"><![CDATA[
.node, .edge {opacity: 0.7;}
.node.selected, .edge.selected {opacity: 1;}
.edge:hover path { stroke: red; }
.edge:hover polygon { stroke: red; fill: red; }
]]></style>
<script type="application/ecmascript" xlink:href="svg.min.js"/>
<svg id="graph" class="graph">
<g id="graph0" class="graph" transform="scale(1 1) rotate(0) translate(4 60)">
<title>potr_send_queue_shutdown</title>
<!-- Node1 -->
<g id="Node000001" class="node">
<title>Node1</title>
<g id="a_Node000001"><a xlink:title=" ">
<polygon fill="#999999" stroke="#666666" points="490,-37 353,-37 353,-18 490,-18 490,-37"/>
<text text-anchor="middle" x="421.5" y="-25" font-family="Helvetica,sans-Serif" font-size="10.00" fill="#000000">potr_send_queue_shutdown</text>
</a>
</g>
</g>
<!-- Node2 -->
<g id="Node000002" class="node">
<title>Node2</title>
<g id="a_Node000002"><a xlink:href="potrSendThread_8c.html#ae7190d12d6dc1dddf97b338b417628d2" target="_top" xlink:title=" ">
<polygon fill="#ffffff" stroke="#666666" points="317,-37 201,-37 201,-18 317,-18 317,-37"/>
<text text-anchor="middle" x="259" y="-25" font-family="Helvetica,sans-Serif" font-size="10.00" fill="#000000">potr_send_thread_stop</text>
</a>
</g>
</g>
<!-- Node1&#45;&gt;Node2 -->
<g id="edge1_Node000001_Node000002" class="edge">
<title>Node1&#45;&gt;Node2</title>
<g id="a_edge1_Node000001_Node000002"><a xlink:title=" ">
<path fill="none" stroke="#63b8ff" d="M342.3195,-27.5C333.871,-27.5 325.3927,-27.5 317.2502,-27.5"/>
<polygon fill="#63b8ff" stroke="#63b8ff" points="342.5854,-31.0001 352.5854,-27.5 342.5853,-24.0001 342.5854,-31.0001"/>
</a>
</g>
</g>
<!-- Node3 -->
<g id="Node000003" class="node">
<title>Node3</title>
<g id="a_Node000003"><a xlink:href="potrCloseService_8c.html#a69faa7ad17883d282cfbbabfe2d4913f" target="_top" xlink:title="サービスを閉じます。">
<polygon fill="#ffffff" stroke="#666666" points="165,-56 74,-56 74,-37 165,-37 165,-56"/>
<text text-anchor="middle" x="119.5" y="-44" font-family="Helvetica,sans-Serif" font-size="10.00" fill="#000000">potrCloseService</text>
</a>
</g>
</g>
<!-- Node2&#45;&gt;Node3 -->
<g id="edge2_Node000002_Node000003" class="edge">
<title>Node2&#45;&gt;Node3</title>
<g id="a_edge2_Node000002_Node000003"><a xlink:title=" ">
<path fill="none" stroke="#63b8ff" d="M190.6195,-36.8135C182.0396,-37.9821 173.432,-39.1544 165.3164,-40.2598"/>
<polygon fill="#63b8ff" stroke="#63b8ff" points="191.2116,-40.2652 200.6477,-35.4476 190.2668,-33.3293 191.2116,-40.2652"/>
</a>
</g>
</g>
<!-- Node5 -->
<g id="Node000005" class="node">
<title>Node5</title>
<g id="a_Node000005"><a xlink:href="potrOpenService_8c.html#a8ce1599677086e0c54400b696ed28680" target="_top" xlink:title="設定ファイルから指定サービスを開きます。">
<polygon fill="#ffffff" stroke="#666666" points="164,-19 75,-19 75,0 164,0 164,-19"/>
<text text-anchor="middle" x="119.5" y="-7" font-family="Helvetica,sans-Serif" font-size="10.00" fill="#000000">potrOpenService</text>
</a>
</g>
</g>
<!-- Node2&#45;&gt;Node5 -->
<g id="edge4_Node000002_Node000005" class="edge">
<title>Node2&#45;&gt;Node5</title>
<g id="a_edge4_Node000002_Node000005"><a xlink:title=" ">
<path fill="none" stroke="#63b8ff" d="M190.5274,-18.6648C181.5247,-17.5032 172.4935,-16.3379 164.0342,-15.2464"/>
<polygon fill="#63b8ff" stroke="#63b8ff" points="190.282,-22.1621 200.6477,-19.9707 191.1779,-15.2197 190.282,-22.1621"/>
</a>
</g>
</g>
<!-- Node4 -->
<g id="Node000004" class="node">
<title>Node4</title>
<g id="a_Node000004"><a xlink:href="recv_8c.html#a0ddf1224851353fc92bfbff6f499fa97" target="_top" xlink:title="メインエントリーポイント。">
<polygon fill="#ffffff" stroke="#666666" points="38,-37 0,-37 0,-18 38,-18 38,-37"/>
<text text-anchor="middle" x="19" y="-25" font-family="Helvetica,sans-Serif" font-size="10.00" fill="#000000">main</text>
</a>
</g>
</g>
<!-- Node3&#45;&gt;Node4 -->
<g id="edge3_Node000003_Node000004" class="edge">
<title>Node3&#45;&gt;Node4</title>
<g id="a_edge3_Node000003_Node000004"><a xlink:title=" ">
<path fill="none" stroke="#63b8ff" d="M63.9152,-35.9914C54.6956,-34.2484 45.7183,-32.5512 38.2437,-31.1381"/>
<polygon fill="#63b8ff" stroke="#63b8ff" points="63.4787,-39.4708 73.9548,-37.8895 64.7791,-32.5927 63.4787,-39.4708"/>
</a>
</g>
</g>
<!-- Node5&#45;&gt;Node4 -->
<g id="edge5_Node000005_Node000004" class="edge">
<title>Node5&#45;&gt;Node4</title>
<g id="a_edge5_Node000005_Node000004"><a xlink:title=" ">
<path fill="none" stroke="#63b8ff" d="M64.8196,-19.2935C55.2285,-21.0113 45.8543,-22.6903 38.1093,-24.0774"/>
<polygon fill="#63b8ff" stroke="#63b8ff" points="65.6077,-22.7081 74.834,-17.4999 64.3735,-15.8178 65.6077,-22.7081"/>
</a>
</g>
</g>
</g>
</svg>
</svg>

<style type='text/css'>
<![CDATA[
[data-mouse-over-selected='false'] { opacity: 0.7; }
[data-mouse-over-selected='true']  { opacity: 1.0; }
]]>
</style>
<script type="application/ecmascript"><![CDATA[
document.addEventListener('DOMContentLoaded', (event) => {
  highlightEdges();
  highlightAdjacentNodes();
});
]]></script>
</svg>
