<?xml version="1.0" encoding="UTF-8" standalone="no"?>
<!DOCTYPE svg PUBLIC "-//W3C//DTD SVG 1.1//EN"
 "http://www.w3.org/Graphics/SVG/1.1/DTD/svg11.dtd">
<!-- Generated by graphviz version 2.40.1 (0)
 -->
<!-- Title: porter/libsrc/porter/potrClose.c Pages: 1 -->
<!--zoomable 313 -->

<svg id="main" version="1.1" xmlns="http://www.w3.org/2000/svg" xmlns:xlink="http://www.w3.org/1999/xlink" xml:space="preserve" onload="init(evt)">

<style type="text/css"><![CDATA[
.node, .edge {opacity: 0.7;}
.node.selected, .edge.selected {opacity: 1;}
.edge:hover path { stroke: red; }
.edge:hover polygon { stroke: red; fill: red; }
]]></style>

<defs>
  <circle id="rim" cx="0" cy="0" r="7"/>
  <circle id="rim2" cx="0" cy="0" r="3.5"/>
  <g id="zoomPlus">
    <use xlink:href="#rim" fill="#404040"><set attributeName="fill" to="#808080" begin="zoomplus.mouseover" end="zoomplus.mouseout"/></use>
    <path d="M-4,0h8M0,-4v8" fill="none" stroke="white" stroke-width="1.5" pointer-events="none"/>
  </g>
  <g id="zoomMin">
    <use xlink:href="#rim" fill="#404040"><set attributeName="fill" to="#808080" begin="zoomminus.mouseover" end="zoomminus.mouseout"/></use>
    <path d="M-4,0h8" fill="none" stroke="white" stroke-width="1.5" pointer-events="none"/>
  </g>
  <g id="arrowUp" transform="translate(30 24)">
    <use xlink:href="#rim"/>
    <path pointer-events="none" fill="none" stroke="white" stroke-width="1.5" d="M0,-3.0v7 M-2.5,-0.5L0,-3.0L2.5,-0.5"/>
  </g>
  <g id="arrowRight" transform="rotate(90) translate(36 -43)">
    <use xlink:href="#rim"/>
    <path pointer-events="none" fill="none" stroke="white" stroke-width="1.5" d="M0,-3.0v7 M-2.5,-0.5L0,-3.0L2.5,-0.5"/>
  </g>
  <g id="arrowDown" transform="rotate(180) translate(-30 -48)">
    <use xlink:href="#rim"/>
    <path pointer-events="none" fill="none" stroke="white" stroke-width="1.5" d="M0,-3.0v7 M-2.5,-0.5L0,-3.0L2.5,-0.5"/>
  </g>
  <g id="arrowLeft" transform="rotate(270) translate(-36 17)">
    <use xlink:href="#rim"/>
    <path pointer-events="none" fill="none" stroke="white" stroke-width="1.5" d="M0,-3.0v7 M-2.5,-0.5L0,-3.0L2.5,-0.5"/>
  </g>
  <g id="resetDef">
    <use xlink:href="#rim2" fill="#404040"><set attributeName="fill" to="#808080" begin="reset.mouseover" end="reset.mouseout"/></use>
  </g>
</defs>
<script type="application/ecmascript">
var viewWidth = 926;
var viewHeight = 313;
var sectionId = 'dynsection-0';
</script>
<script type="application/ecmascript" xlink:href="svg.min.js"/>
<svg id="graph" class="graph">
<g id="viewport">
<title>porter/libsrc/porter/potrClose.c</title>
<!-- Node1 -->
<g id="Node000001" class="node">
<title>Node1</title>
<g id="a_Node000001"><a xlink:title="potrClose 関数の実装。">
<polygon fill="#999999" stroke="#666666" points="439.5,-305 344.5,-305 344.5,-275 439.5,-275 439.5,-305"/>
<text text-anchor="start" x="352.5" y="-293" font-family="Helvetica,sans-Serif" font-size="10.00" fill="#000000">porter/libsrc/porter</text>
<text text-anchor="middle" x="392" y="-282" font-family="Helvetica,sans-Serif" font-size="10.00" fill="#000000">/potrClose.c</text>
</a>
</g>
</g>
<!-- Node2 -->
<g id="Node000002" class="node">
<title>Node2</title>
<g id="a_Node000002"><a xlink:title=" ">
<polygon fill="#e0e0e0" stroke="#999999" points="48,-239 0,-239 0,-220 48,-220 48,-239"/>
<text text-anchor="middle" x="24" y="-227" font-family="Helvetica,sans-Serif" font-size="10.00" fill="#000000">stdlib.h</text>
</a>
</g>
</g>
<!-- Node1&#45;&gt;Node2 -->
<g id="edge1_Node000001_Node000002" class="edge">
<title>Node1&#45;&gt;Node2</title>
<g id="a_edge1_Node000001_Node000002"><a xlink:title=" ">
<path fill="none" stroke="#63b8ff" d="M344.4894,-284.729C281.2129,-277.2777 165.6924,-262.1733 58.1094,-239.0082"/>
<polygon fill="#63b8ff" stroke="#63b8ff" points="58.575,-235.5275 48.0587,-236.8151 57.0826,-242.3666 58.575,-235.5275"/>
</a>
</g>
</g>
<!-- Node3 -->
<g id="Node000003" class="node">
<title>Node3</title>
<g id="a_Node000003"><a xlink:title=" ">
<polygon fill="#e0e0e0" stroke="#999999" points="115.5,-239 66.5,-239 66.5,-220 115.5,-220 115.5,-239"/>
<text text-anchor="middle" x="91" y="-227" font-family="Helvetica,sans-Serif" font-size="10.00" fill="#000000">string.h</text>
</a>
</g>
</g>
<!-- Node1&#45;&gt;Node3 -->
<g id="edge2_Node000001_Node000003" class="edge">
<title>Node1&#45;&gt;Node3</title>
<g id="a_edge2_Node000001_Node000003"><a xlink:title=" ">
<path fill="none" stroke="#63b8ff" d="M344.053,-281.3615C291.4119,-271.7156 204.4643,-255.3075 130,-239 128.5534,-238.6832 127.0783,-238.3535 125.5892,-238.0153"/>
<polygon fill="#63b8ff" stroke="#63b8ff" points="126.2517,-234.5759 115.7172,-235.705 124.6566,-241.3917 126.2517,-234.5759"/>
</a>
</g>
</g>
<!-- Node4 -->
<g id="Node000004" class="node">
<title>Node4</title>
<g id="a_Node000004"><a xlink:title=" ">
<polygon fill="#e0e0e0" stroke="#999999" points="211,-184 149,-184 149,-165 211,-165 211,-184"/>
<text text-anchor="middle" x="180" y="-172" font-family="Helvetica,sans-Serif" font-size="10.00" fill="#000000">arpa/inet.h</text>
</a>
</g>
</g>
<!-- Node1&#45;&gt;Node4 -->
<g id="edge3_Node000001_Node000004" class="edge">
<title>Node1&#45;&gt;Node4</title>
<g id="a_edge3_Node000001_Node000004"><a xlink:title=" ">
<path fill="none" stroke="#63b8ff" d="M344.426,-286.2648C284.1199,-280.428 185.2942,-266.8055 163,-239 152.5233,-225.9334 159.3097,-207.0448 167.1977,-193.0827"/>
<polygon fill="#63b8ff" stroke="#63b8ff" points="170.3283,-194.6762 172.636,-184.3358 164.3836,-190.9801 170.3283,-194.6762"/>
</a>
</g>
</g>
<!-- Node5 -->
<g id="Node000005" class="node">
<title>Node5</title>
<g id="a_Node000005"><a xlink:title=" ">
<polygon fill="#e0e0e0" stroke="#999999" points="375.5,-184 310.5,-184 310.5,-165 375.5,-165 375.5,-184"/>
<text text-anchor="middle" x="343" y="-172" font-family="Helvetica,sans-Serif" font-size="10.00" fill="#000000">netinet/in.h</text>
</a>
</g>
</g>
<!-- Node1&#45;&gt;Node5 -->
<g id="edge4_Node000001_Node000005" class="edge">
<title>Node1&#45;&gt;Node5</title>
<g id="a_edge4_Node000001_Node000005"><a xlink:title=" ">
<path fill="none" stroke="#63b8ff" d="M408.1708,-274.8794C421.5718,-260.4441 436.8085,-238.2511 426,-220 416.9854,-204.778 400.8743,-194.3121 385.2296,-187.2942"/>
<polygon fill="#63b8ff" stroke="#63b8ff" points="386.197,-183.9083 375.6164,-183.3583 383.5447,-190.3864 386.197,-183.9083"/>
</a>
</g>
</g>
<!-- Node6 -->
<g id="Node000006" class="node">
<title>Node6</title>
<g id="a_Node000006"><a xlink:title=" ">
<polygon fill="#e0e0e0" stroke="#999999" points="348.5,-239 275.5,-239 275.5,-220 348.5,-220 348.5,-239"/>
<text text-anchor="middle" x="312" y="-227" font-family="Helvetica,sans-Serif" font-size="10.00" fill="#000000">sys/socket.h</text>
</a>
</g>
</g>
<!-- Node1&#45;&gt;Node6 -->
<g id="edge5_Node000001_Node000006" class="edge">
<title>Node1&#45;&gt;Node6</title>
<g id="a_edge5_Node000001_Node000006"><a xlink:title=" ">
<path fill="none" stroke="#63b8ff" d="M371.8126,-274.7333C359.8935,-265.7195 344.8345,-254.3311 332.8086,-245.2365"/>
<polygon fill="#63b8ff" stroke="#63b8ff" points="334.7634,-242.3267 324.6762,-239.0864 330.5411,-247.9099 334.7634,-242.3267"/>
</a>
</g>
</g>
<!-- Node7 -->
<g id="Node000007" class="node">
<title>Node7</title>
<g id="a_Node000007"><a xlink:title=" ">
<polygon fill="#e0e0e0" stroke="#999999" points="417.5,-239 366.5,-239 366.5,-220 417.5,-220 417.5,-239"/>
<text text-anchor="middle" x="392" y="-227" font-family="Helvetica,sans-Serif" font-size="10.00" fill="#000000">unistd.h</text>
</a>
</g>
</g>
<!-- Node1&#45;&gt;Node7 -->
<g id="edge6_Node000001_Node000007" class="edge">
<title>Node1&#45;&gt;Node7</title>
<g id="a_edge6_Node000001_Node000007"><a xlink:title=" ">
<path fill="none" stroke="#63b8ff" d="M392,-274.7333C392,-267.0322 392,-257.5977 392,-249.3414"/>
<polygon fill="#63b8ff" stroke="#63b8ff" points="395.5001,-249.0864 392,-239.0864 388.5001,-249.0864 395.5001,-249.0864"/>
</a>
</g>
</g>
<!-- Node8 -->
<g id="Node000008" class="node">
<title>Node8</title>
<g id="a_Node000008"><a xlink:href="porter__const_8h.html" target="_top" xlink:title="通信ライブラリの定数ファイル。">
<polygon fill="#ffffff" stroke="#666666" points="650.5,-19 571.5,-19 571.5,0 650.5,0 650.5,-19"/>
<text text-anchor="middle" x="611" y="-7" font-family="Helvetica,sans-Serif" font-size="10.00" fill="#000000">porter_const.h</text>
</a>
</g>
</g>
<!-- Node1&#45;&gt;Node8 -->
<g id="edge7_Node000001_Node000008" class="edge">
<title>Node1&#45;&gt;Node8</title>
<g id="a_edge7_Node000001_Node000008"><a xlink:title=" ">
<path fill="none" stroke="#63b8ff" d="M415.6923,-274.7544C442.9512,-255.1448 484,-218.3373 484,-174.5 484,-174.5 484,-174.5 484,-119.5 484,-89.6154 483.0872,-77.2838 503,-55 518.2732,-37.9083 541.0193,-27.0481 561.7033,-20.2448"/>
<polygon fill="#63b8ff" stroke="#63b8ff" points="562.792,-23.572 571.3376,-17.3091 560.7516,-16.876 562.792,-23.572"/>
</a>
</g>
</g>
<!-- Node9 -->
<g id="Node000009" class="node">
<title>Node9</title>
<g id="a_Node000009"><a xlink:href="porter_8h.html" target="_top" xlink:title="通信ライブラリ (動的リンク用) のヘッダーファイル。">
<polygon fill="#ffffff" stroke="#666666" points="910.5,-129 861.5,-129 861.5,-110 910.5,-110 910.5,-129"/>
<text text-anchor="middle" x="886" y="-117" font-family="Helvetica,sans-Serif" font-size="10.00" fill="#000000">porter.h</text>
</a>
</g>
</g>
<!-- Node1&#45;&gt;Node9 -->
<g id="edge8_Node000001_Node000009" class="edge">
<title>Node1&#45;&gt;Node9</title>
<g id="a_edge8_Node000001_Node000009"><a xlink:title=" ">
<path fill="none" stroke="#63b8ff" d="M439.5495,-287.0416C498.6779,-282.1726 601.9514,-269.7261 685,-239 755.9517,-212.7495 830.1125,-161.3963 865.2154,-135.3952"/>
<polygon fill="#63b8ff" stroke="#63b8ff" points="867.7559,-137.8653 873.6602,-129.0681 863.5586,-132.2632 867.7559,-137.8653"/>
</a>
</g>
</g>
<!-- Node13 -->
<g id="Node000013" class="node">
<title>Node13</title>
<g id="a_Node000013"><a xlink:href="potrContext_8h.html" target="_top" xlink:title="セッションコンテキスト内部定義ヘッダー。">
<polygon fill="#ffffff" stroke="#666666" points="681.5,-184 606.5,-184 606.5,-165 681.5,-165 681.5,-184"/>
<text text-anchor="middle" x="644" y="-172" font-family="Helvetica,sans-Serif" font-size="10.00" fill="#000000">potrContext.h</text>
</a>
</g>
</g>
<!-- Node1&#45;&gt;Node13 -->
<g id="edge13_Node000001_Node000013" class="edge">
<title>Node1&#45;&gt;Node13</title>
<g id="a_edge13_Node000001_Node000013"><a xlink:title=" ">
<path fill="none" stroke="#63b8ff" d="M424.9446,-274.9004C474.2463,-252.3038 566.4941,-210.0235 614.0114,-188.2448"/>
<polygon fill="#63b8ff" stroke="#63b8ff" points="615.5344,-191.3969 623.1667,-184.0486 612.6178,-185.0335 615.5344,-191.3969"/>
</a>
</g>
</g>
<!-- Node18 -->
<g id="Node000018" class="node">
<title>Node18</title>
<g id="a_Node000018"><a xlink:href="potrRecvThread_8h.html" target="_top" xlink:title="受信スレッド内部ヘッダー。">
<polygon fill="#ffffff" stroke="#666666" points="676,-239 582,-239 582,-220 676,-220 676,-239"/>
<text text-anchor="middle" x="629" y="-227" font-family="Helvetica,sans-Serif" font-size="10.00" fill="#000000">potrRecvThread.h</text>
</a>
</g>
</g>
<!-- Node1&#45;&gt;Node18 -->
<g id="edge26_Node000001_Node000018" class="edge">
<title>Node1&#45;&gt;Node18</title>
<g id="a_edge26_Node000001_Node000018"><a xlink:title=" ">
<path fill="none" stroke="#63b8ff" d="M439.6754,-277.8297C481.0091,-267.2783 540.5019,-252.0913 581.7194,-241.5695"/>
<polygon fill="#63b8ff" stroke="#63b8ff" points="582.6982,-244.932 591.5218,-239.0672 580.9668,-238.1495 582.6982,-244.932"/>
</a>
</g>
</g>
<!-- Node19 -->
<g id="Node000019" class="node">
<title>Node19</title>
<g id="a_Node000019"><a xlink:href="potrIpAddr_8h.html" target="_top" xlink:title="IPv4 アドレス変換ユーティリティ (内部用)。">
<polygon fill="#ffffff" stroke="#666666" points="257.5,-239 172.5,-239 172.5,-220 257.5,-220 257.5,-239"/>
<text text-anchor="middle" x="215" y="-227" font-family="Helvetica,sans-Serif" font-size="10.00" fill="#000000">util/potrIpAddr.h</text>
</a>
</g>
</g>
<!-- Node1&#45;&gt;Node19 -->
<g id="edge28_Node000001_Node000019" class="edge">
<title>Node1&#45;&gt;Node19</title>
<g id="a_edge28_Node000001_Node000019"><a xlink:title=" ">
<path fill="none" stroke="#63b8ff" d="M347.792,-274.8894C318.5183,-264.8834 280.5333,-251.8998 252.6926,-242.3836"/>
<polygon fill="#63b8ff" stroke="#63b8ff" points="253.524,-238.9691 242.9294,-239.0465 251.2599,-245.5928 253.524,-238.9691"/>
</a>
</g>
</g>
<!-- Node10 -->
<g id="Node000010" class="node">
<title>Node10</title>
<g id="a_Node000010"><a xlink:href="porter__type_8h.html" target="_top" xlink:title="通信ライブラリの型定義ファイル。">
<polygon fill="#ffffff" stroke="#666666" points="786,-74 712,-74 712,-55 786,-55 786,-74"/>
<text text-anchor="middle" x="749" y="-62" font-family="Helvetica,sans-Serif" font-size="10.00" fill="#000000">porter_type.h</text>
</a>
</g>
</g>
<!-- Node9&#45;&gt;Node10 -->
<g id="edge9_Node000009_Node000010" class="edge">
<title>Node9&#45;&gt;Node10</title>
<g id="a_edge9_Node000009_Node000010"><a xlink:title=" ">
<path fill="none" stroke="#63b8ff" d="M862.1364,-109.9197C840.0731,-101.0622 807.0669,-87.8115 782.391,-77.9052"/>
<polygon fill="#63b8ff" stroke="#63b8ff" points="783.6339,-74.6326 773.0498,-74.155 781.0259,-81.1287 783.6339,-74.6326"/>
</a>
</g>
</g>
<!-- Node10&#45;&gt;Node8 -->
<g id="edge12_Node000010_Node000008" class="edge">
<title>Node10&#45;&gt;Node8</title>
<g id="a_edge12_Node000010_Node000008"><a xlink:title=" ">
<path fill="none" stroke="#63b8ff" d="M724.9622,-54.9197C702.7378,-46.0622 669.4907,-32.8115 644.6348,-22.9052"/>
<polygon fill="#63b8ff" stroke="#63b8ff" points="645.8106,-19.6061 635.2253,-19.155 643.2189,-26.1087 645.8106,-19.6061"/>
</a>
</g>
</g>
<!-- Node11 -->
<g id="Node000011" class="node">
<title>Node11</title>
<g id="a_Node000011"><a xlink:title=" ">
<polygon fill="#e0e0e0" stroke="#999999" points="860,-19 808,-19 808,0 860,0 860,-19"/>
<text text-anchor="middle" x="834" y="-7" font-family="Helvetica,sans-Serif" font-size="10.00" fill="#000000">stddef.h</text>
</a>
</g>
</g>
<!-- Node10&#45;&gt;Node11 -->
<g id="edge10_Node000010_Node000011" class="edge">
<title>Node10&#45;&gt;Node11</title>
<g id="a_edge10_Node000010_Node000011"><a xlink:title=" ">
<path fill="none" stroke="#63b8ff" d="M763.8059,-54.9197C776.6468,-46.6109 795.462,-34.4363 810.3811,-24.7828"/>
<polygon fill="#63b8ff" stroke="#63b8ff" points="812.5843,-27.5261 819.0786,-19.155 808.7815,-21.6491 812.5843,-27.5261"/>
</a>
</g>
</g>
<!-- Node12 -->
<g id="Node000012" class="node">
<title>Node12</title>
<g id="a_Node000012"><a xlink:title=" ">
<polygon fill="#e0e0e0" stroke="#999999" points="735.5,-19 686.5,-19 686.5,0 735.5,0 735.5,-19"/>
<text text-anchor="middle" x="711" y="-7" font-family="Helvetica,sans-Serif" font-size="10.00" fill="#000000">stdint.h</text>
</a>
</g>
</g>
<!-- Node10&#45;&gt;Node12 -->
<g id="edge11_Node000010_Node000012" class="edge">
<title>Node10&#45;&gt;Node12</title>
<g id="a_edge11_Node000010_Node000012"><a xlink:title=" ">
<path fill="none" stroke="#63b8ff" d="M742.3809,-54.9197C737.2137,-47.4409 729.8826,-36.8301 723.6056,-27.745"/>
<polygon fill="#63b8ff" stroke="#63b8ff" points="726.363,-25.5786 717.7991,-19.3408 720.6039,-29.5577 726.363,-25.5786"/>
</a>
</g>
</g>
<!-- Node13&#45;&gt;Node10 -->
<g id="edge14_Node000013_Node000010" class="edge">
<title>Node13&#45;&gt;Node10</title>
<g id="a_edge14_Node000013_Node000010"><a xlink:title=" ">
<path fill="none" stroke="#63b8ff" d="M657.367,-164.7719C668.9612,-156.0329 685.8934,-142.5291 699,-129 713.0976,-114.448 727.0469,-96.0275 736.6147,-82.6011"/>
<polygon fill="#63b8ff" stroke="#63b8ff" points="739.6193,-84.4121 742.4866,-74.2126 733.8846,-80.3978 739.6193,-84.4121"/>
</a>
</g>
</g>
<!-- Node14 -->
<g id="Node000014" class="node">
<title>Node14</title>
<g id="a_Node000014"><a xlink:href="retransmit_8h.html" target="_top" xlink:title="再送制御モジュールの内部ヘッダー。">
<polygon fill="#ffffff" stroke="#666666" points="618,-74 512,-74 512,-55 618,-55 618,-74"/>
<text text-anchor="middle" x="565" y="-62" font-family="Helvetica,sans-Serif" font-size="10.00" fill="#000000">protocol/retransmit.h</text>
</a>
</g>
</g>
<!-- Node13&#45;&gt;Node14 -->
<g id="edge15_Node000013_Node000014" class="edge">
<title>Node13&#45;&gt;Node14</title>
<g id="a_edge15_Node000013_Node000014"><a xlink:title=" ">
<path fill="none" stroke="#63b8ff" d="M627.971,-164.9553C615.5185,-156.8058 598.632,-144.035 588,-129 578.4546,-115.5015 572.4927,-97.6354 569.0378,-84.13"/>
<polygon fill="#63b8ff" stroke="#63b8ff" points="572.3599,-82.96 566.7017,-74.0026 565.539,-84.5335 572.3599,-82.96"/>
</a>
</g>
</g>
<!-- Node15 -->
<g id="Node000015" class="node">
<title>Node15</title>
<g id="a_Node000015"><a xlink:href="window_8h.html" target="_top" xlink:title="スライディングウィンドウ管理モジュールの内部ヘッダー。">
<polygon fill="#ffffff" stroke="#666666" points="690.5,-129 597.5,-129 597.5,-110 690.5,-110 690.5,-129"/>
<text text-anchor="middle" x="644" y="-117" font-family="Helvetica,sans-Serif" font-size="10.00" fill="#000000">protocol/window.h</text>
</a>
</g>
</g>
<!-- Node13&#45;&gt;Node15 -->
<g id="edge18_Node000013_Node000015" class="edge">
<title>Node13&#45;&gt;Node15</title>
<g id="a_edge18_Node000013_Node000015"><a xlink:title=" ">
<path fill="none" stroke="#63b8ff" d="M644,-164.9197C644,-157.9083 644,-148.1442 644,-139.4652"/>
<polygon fill="#63b8ff" stroke="#63b8ff" points="647.5001,-139.3408 644,-129.3408 640.5001,-139.3409 647.5001,-139.3408"/>
</a>
</g>
</g>
<!-- Node16 -->
<g id="Node000016" class="node">
<title>Node16</title>
<g id="a_Node000016"><a xlink:href="compress_8h.html" target="_top" xlink:title="データ圧縮・解凍モジュールの内部ヘッダー。">
<polygon fill="#ffffff" stroke="#666666" points="917.5,-74 804.5,-74 804.5,-55 917.5,-55 917.5,-74"/>
<text text-anchor="middle" x="861" y="-62" font-family="Helvetica,sans-Serif" font-size="10.00" fill="#000000">compress/compress.h</text>
</a>
</g>
</g>
<!-- Node13&#45;&gt;Node16 -->
<g id="edge22_Node000013_Node000016" class="edge">
<title>Node13&#45;&gt;Node16</title>
<g id="a_edge22_Node000013_Node000016"><a xlink:title=" ">
<path fill="none" stroke="#63b8ff" d="M681.7974,-167.4435C725.0448,-158.8457 792.6482,-143.6483 814,-129 830.7094,-117.5366 843.6665,-98.1201 851.7051,-83.5788"/>
<polygon fill="#63b8ff" stroke="#63b8ff" points="854.9463,-84.933 856.4701,-74.4484 848.7405,-81.6943 854.9463,-84.933"/>
</a>
</g>
</g>
<!-- Node17 -->
<g id="Node000017" class="node">
<title>Node17</title>
<g id="a_Node000017"><a xlink:title=" ">
<polygon fill="#e0e0e0" stroke="#999999" points="804.5,-129 747.5,-129 747.5,-110 804.5,-110 804.5,-129"/>
<text text-anchor="middle" x="776" y="-117" font-family="Helvetica,sans-Serif" font-size="10.00" fill="#000000">pthread.h</text>
</a>
</g>
</g>
<!-- Node13&#45;&gt;Node17 -->
<g id="edge25_Node000013_Node000017" class="edge">
<title>Node13&#45;&gt;Node17</title>
<g id="a_edge25_Node000013_Node000017"><a xlink:title=" ">
<path fill="none" stroke="#63b8ff" d="M666.9926,-164.9197C688.1567,-156.1014 719.7711,-142.9287 743.5116,-133.0369"/>
<polygon fill="#63b8ff" stroke="#63b8ff" points="744.9433,-136.232 752.8279,-129.155 742.251,-129.7705 744.9433,-136.232"/>
</a>
</g>
</g>
<!-- Node14&#45;&gt;Node8 -->
<g id="edge17_Node000014_Node000008" class="edge">
<title>Node14&#45;&gt;Node8</title>
<g id="a_edge17_Node000014_Node000008"><a xlink:title=" ">
<path fill="none" stroke="#63b8ff" d="M573.0126,-54.9197C579.3979,-47.2851 588.513,-36.3867 596.2138,-27.1792"/>
<polygon fill="#63b8ff" stroke="#63b8ff" points="599.0387,-29.2571 602.7695,-19.3408 593.6691,-24.7662 599.0387,-29.2571"/>
</a>
</g>
</g>
<!-- Node14&#45;&gt;Node12 -->
<g id="edge16_Node000014_Node000012" class="edge">
<title>Node14&#45;&gt;Node12</title>
<g id="a_edge16_Node000014_Node000012"><a xlink:title=" ">
<path fill="none" stroke="#63b8ff" d="M590.4313,-54.9197C614.3378,-45.9138 650.3,-32.3664 676.7292,-22.4102"/>
<polygon fill="#63b8ff" stroke="#63b8ff" points="678.2225,-25.5879 686.3466,-18.7872 675.7547,-19.0373 678.2225,-25.5879"/>
</a>
</g>
</g>
<!-- Node15&#45;&gt;Node8 -->
<g id="edge20_Node000015_Node000008" class="edge">
<title>Node15&#45;&gt;Node8</title>
<g id="a_edge20_Node000015_Node000008"><a xlink:title=" ">
<path fill="none" stroke="#63b8ff" d="M641.7053,-109.8152C638.6427,-97.1372 632.9147,-74.2621 627,-55 624.3339,-46.3175 621.0547,-36.8242 618.1605,-28.7659"/>
<polygon fill="#63b8ff" stroke="#63b8ff" points="621.3805,-27.38 614.6616,-19.188 614.8055,-29.7819 621.3805,-27.38"/>
</a>
</g>
</g>
<!-- Node15&#45;&gt;Node10 -->
<g id="edge21_Node000015_Node000010" class="edge">
<title>Node15&#45;&gt;Node10</title>
<g id="a_edge21_Node000015_Node000010"><a xlink:title=" ">
<path fill="none" stroke="#63b8ff" d="M662.2896,-109.9197C678.6757,-101.3365 702.9372,-88.6281 721.6331,-78.8351"/>
<polygon fill="#63b8ff" stroke="#63b8ff" points="723.3334,-81.8956 730.5677,-74.155 720.0853,-75.6947 723.3334,-81.8956"/>
</a>
</g>
</g>
<!-- Node15&#45;&gt;Node12 -->
<g id="edge19_Node000015_Node000012" class="edge">
<title>Node15&#45;&gt;Node12</title>
<g id="a_edge19_Node000015_Node000012"><a xlink:title=" ">
<path fill="none" stroke="#63b8ff" d="M649.9458,-109.7382C661.1487,-91.3454 685.5425,-51.2959 699.8736,-27.7673"/>
<polygon fill="#63b8ff" stroke="#63b8ff" points="702.9504,-29.444 705.1632,-19.0828 696.972,-25.8026 702.9504,-29.444"/>
</a>
</g>
</g>
<!-- Node16&#45;&gt;Node11 -->
<g id="edge23_Node000016_Node000011" class="edge">
<title>Node16&#45;&gt;Node11</title>
<g id="a_edge23_Node000016_Node000011"><a xlink:title=" ">
<path fill="none" stroke="#63b8ff" d="M856.297,-54.9197C852.7403,-47.6746 847.7407,-37.4903 843.3769,-28.601"/>
<polygon fill="#63b8ff" stroke="#63b8ff" points="846.3796,-26.7751 838.831,-19.3408 840.0959,-29.8599 846.3796,-26.7751"/>
</a>
</g>
</g>
<!-- Node16&#45;&gt;Node12 -->
<g id="edge24_Node000016_Node000012" class="edge">
<title>Node16&#45;&gt;Node12</title>
<g id="a_edge24_Node000016_Node000012"><a xlink:title=" ">
<path fill="none" stroke="#63b8ff" d="M834.872,-54.9197C810.0527,-45.8193 772.5863,-32.0816 745.3583,-22.098"/>
<polygon fill="#63b8ff" stroke="#63b8ff" points="746.4262,-18.7618 735.8325,-18.6053 744.0164,-25.3339 746.4262,-18.7618"/>
</a>
</g>
</g>
<!-- Node18&#45;&gt;Node13 -->
<g id="edge27_Node000018_Node000013" class="edge">
<title>Node18&#45;&gt;Node13</title>
<g id="a_edge27_Node000018_Node000013"><a xlink:title=" ">
<path fill="none" stroke="#63b8ff" d="M631.6128,-219.9197C633.5462,-212.8304 636.2472,-202.9269 638.6337,-194.1763"/>
<polygon fill="#63b8ff" stroke="#63b8ff" points="642.0616,-194.9094 641.3161,-184.3408 635.3082,-193.0675 642.0616,-194.9094"/>
</a>
</g>
</g>
<!-- Node19&#45;&gt;Node4 -->
<g id="edge29_Node000019_Node000004" class="edge">
<title>Node19&#45;&gt;Node4</title>
<g id="a_edge29_Node000019_Node000004"><a xlink:title=" ">
<path fill="none" stroke="#63b8ff" d="M208.9035,-219.9197C204.1938,-212.5188 197.5324,-202.0509 191.7914,-193.0294"/>
<polygon fill="#63b8ff" stroke="#63b8ff" points="194.584,-190.8984 186.2623,-184.3408 188.6783,-194.6565 194.584,-190.8984"/>
</a>
</g>
</g>
<!-- Node19&#45;&gt;Node5 -->
<g id="edge30_Node000019_Node000005" class="edge">
<title>Node19&#45;&gt;Node5</title>
<g id="a_edge30_Node000019_Node000005"><a xlink:title=" ">
<path fill="none" stroke="#63b8ff" d="M237.2959,-219.9197C257.7274,-211.1406 288.2027,-198.0457 311.1887,-188.1689"/>
<polygon fill="#63b8ff" stroke="#63b8ff" points="312.7242,-191.3186 320.5301,-184.155 309.9606,-184.8872 312.7242,-191.3186"/>
</a>
</g>
</g>
</g>
</svg>

<g id="navigator" transform="translate(0 0)" fill="#404254">
  <rect fill="#f2f5e9" fill-opacity="0.5" stroke="#606060" stroke-width=".5" x="0" y="0" width="60" height="60"/>
  <use id="zoomplus" xlink:href="#zoomPlus" x="17" y="9" onmousedown="handleZoom(evt,'in')"/>
  <use id="zoomminus" xlink:href="#zoomMin" x="42" y="9" onmousedown="handleZoom(evt,'out')"/>
  <use id="reset" xlink:href="#resetDef" x="30" y="36" onmousedown="handleReset()"/>
   <use id="arrowup" xlink:href="#arrowUp" x="0" y="0" onmousedown="handlePan(0,-1)"/>
  <use id="arrowright" xlink:href="#arrowRight" x="0" y="0" onmousedown="handlePan(1,0)"/>
  <use id="arrowdown" xlink:href="#arrowDown" x="0" y="0" onmousedown="handlePan(0,1)"/>
  <use id="arrowleft" xlink:href="#arrowLeft" x="0" y="0" onmousedown="handlePan(-1,0)"/>
</g>
<svg viewBox="0 0 15 15" width="100%" height="30px" preserveAspectRatio="xMaxYMin meet">
 <g id="arrow_out" transform="scale(0.3 0.3)">
  <a xlink:href="potrClose_8c__incl_org.svg" target="_base">
   <rect id="button" ry="5" rx="5" y="6" x="6" height="38" width="38"
        fill="#f2f5e9" fill-opacity="0.5" stroke="#606060" stroke-width="1.0"/>
   <path id="arrow"
     d="M 11.500037,31.436501 C 11.940474,20.09759 22.043105,11.32322 32.158766,21.979434 L 37.068811,17.246167 C 37.068811,17.246167 37.088388,32 37.088388,32 L 22.160133,31.978069 C 22.160133,31.978069 26.997745,27.140456 26.997745,27.140456 C 18.528582,18.264221 13.291696,25.230495 11.500037,31.436501 z"
     style="fill:#404040;"/>
  </a>
 </g>
</svg>

<style type='text/css'>
<![CDATA[
[data-mouse-over-selected='false'] { opacity: 0.7; }
[data-mouse-over-selected='true']  { opacity: 1.0; }
]]>
</style>
<script type="application/ecmascript"><![CDATA[
document.addEventListener('DOMContentLoaded', (event) => {
  highlightEdges();
  highlightAdjacentNodes();
});
]]></script>
</svg>
