<?xml version="1.0" encoding="UTF-8" standalone="no"?>
<!DOCTYPE svg PUBLIC "-//W3C//DTD SVG 1.1//EN"
 "http://www.w3.org/Graphics/SVG/1.1/DTD/svg11.dtd">
<!-- Generated by graphviz version 2.40.1 (0)
 -->
<!-- Title: potrSend Pages: 1 -->
<svg width="329pt" height="214pt"
 viewBox="0.00 0.00 329.00 214.00" xmlns="http://www.w3.org/2000/svg" xmlns:xlink="http://www.w3.org/1999/xlink">

<svg id="main" version="1.1" xmlns="http://www.w3.org/2000/svg" xmlns:xlink="http://www.w3.org/1999/xlink" xml:space="preserve">

<style type="text/css"><![CDATA[
.node, .edge {opacity: 0.7;}
.node.selected, .edge.selected {opacity: 1;}
.edge:hover path { stroke: red; }
.edge:hover polygon { stroke: red; fill: red; }
]]></style>
<script type="application/ecmascript" xlink:href="svg.min.js"/>
<svg id="graph" class="graph">
<g id="graph0" class="graph" transform="scale(1 1) rotate(0) translate(4 210)">
<title>potrSend</title>
<!-- Node1 -->
<g id="Node000001" class="node">
<title>Node1</title>
<g id="a_Node000001"><a xlink:title="データを送信します。">
<polygon fill="#999999" stroke="#666666" points="56,-113 0,-113 0,-94 56,-94 56,-113"/>
<text text-anchor="middle" x="28" y="-101" font-family="Helvetica,sans-Serif" font-size="10.00" fill="#000000">potrSend</text>
</a>
</g>
</g>
<!-- Node2 -->
<g id="Node000002" class="node">
<title>Node2</title>
<g id="a_Node000002"><a xlink:href="potrSend_8c.html#a9ebacd64367cd4c5f9965da30ab0d622" target="_top" xlink:title=" ">
<polygon fill="#ffffff" stroke="#666666" points="185,-206 100,-206 100,-187 185,-187 185,-206"/>
<text text-anchor="middle" x="142.5" y="-194" font-family="Helvetica,sans-Serif" font-size="10.00" fill="#000000">build_dest_addr</text>
</a>
</g>
</g>
<!-- Node1&#45;&gt;Node2 -->
<g id="edge1_Node000001_Node000002" class="edge">
<title>Node1&#45;&gt;Node2</title>
<g id="a_edge1_Node000001_Node000002"><a xlink:title=" ">
<path fill="none" stroke="#63b8ff" d="M33.8582,-113.2039C43.8779,-129.0282 65.7839,-160.4341 92,-178.5 94.1124,-179.9557 96.3554,-181.3066 98.6762,-182.5584"/>
<polygon fill="#63b8ff" stroke="#63b8ff" points="97.365,-185.8096 107.9029,-186.9073 100.3496,-179.4777 97.365,-185.8096"/>
</a>
</g>
</g>
<!-- Node4 -->
<g id="Node000004" class="node">
<title>Node4</title>
<g id="a_Node000004"><a xlink:href="packet_8c.html#ac572f0e690242c2b458502ac9b76daaa" target="_top" xlink:title="データパケットを構築します。">
<polygon fill="#ffffff" stroke="#666666" points="190,-169 95,-169 95,-150 190,-150 190,-169"/>
<text text-anchor="middle" x="142.5" y="-157" font-family="Helvetica,sans-Serif" font-size="10.00" fill="#000000">packet_build_data</text>
</a>
</g>
</g>
<!-- Node1&#45;&gt;Node4 -->
<g id="edge3_Node000001_Node000004" class="edge">
<title>Node1&#45;&gt;Node4</title>
<g id="a_edge3_Node000001_Node000004"><a xlink:title=" ">
<path fill="none" stroke="#63b8ff" d="M42.3032,-113.0846C54.9927,-121.319 74.2218,-133.1498 92,-141.5 95.5936,-143.1879 99.3918,-144.813 103.2265,-146.3495"/>
<polygon fill="#63b8ff" stroke="#63b8ff" points="102.1474,-149.6837 112.7384,-149.9713 104.6384,-143.1419 102.1474,-149.6837"/>
</a>
</g>
</g>
<!-- Node5 -->
<g id="Node000005" class="node">
<title>Node5</title>
<g id="a_Node000005"><a xlink:href="packet_8c.html#aee7ebc74dbbe67fa4c9bcdced8dca70c" target="_top" xlink:title="パケットのヘッダー + ペイロードの合計バイト数を返します。">
<polygon fill="#ffffff" stroke="#666666" points="188.5,-132 96.5,-132 96.5,-113 188.5,-113 188.5,-132"/>
<text text-anchor="middle" x="142.5" y="-120" font-family="Helvetica,sans-Serif" font-size="10.00" fill="#000000">packet_wire_size</text>
</a>
</g>
</g>
<!-- Node1&#45;&gt;Node5 -->
<g id="edge4_Node000001_Node000005" class="edge">
<title>Node1&#45;&gt;Node5</title>
<g id="a_edge4_Node000001_Node000005"><a xlink:title=" ">
<path fill="none" stroke="#63b8ff" d="M56.0099,-108.1479C65.2415,-109.6798 75.8597,-111.4418 86.4245,-113.1949"/>
<polygon fill="#63b8ff" stroke="#63b8ff" points="86.0523,-116.6809 96.4904,-114.8652 87.1982,-109.7753 86.0523,-116.6809"/>
</a>
</g>
</g>
<!-- Node6 -->
<g id="Node000006" class="node">
<title>Node6</title>
<g id="a_Node000006"><a xlink:href="compress__linux_8c.html#ae3eac2a4f0aae5db6c833f63dbaae78b" target="_top" xlink:title="データを圧縮します。">
<polygon fill="#ffffff" stroke="#666666" points="183,-95 102,-95 102,-76 183,-76 183,-95"/>
<text text-anchor="middle" x="142.5" y="-83" font-family="Helvetica,sans-Serif" font-size="10.00" fill="#000000">potr_compress</text>
</a>
</g>
</g>
<!-- Node1&#45;&gt;Node6 -->
<g id="edge5_Node000001_Node000006" class="edge">
<title>Node1&#45;&gt;Node6</title>
<g id="a_edge5_Node000001_Node000006"><a xlink:title=" ">
<path fill="none" stroke="#63b8ff" d="M56.0099,-99.0967C66.7684,-97.4054 79.41,-95.4181 91.6558,-93.493"/>
<polygon fill="#63b8ff" stroke="#63b8ff" points="92.464,-96.909 101.7991,-91.8984 91.3769,-89.9939 92.464,-96.909"/>
</a>
</g>
</g>
<!-- Node7 -->
<g id="Node000007" class="node">
<title>Node7</title>
<g id="a_Node000007"><a xlink:href="window_8c.html#aa49e58851242a05b75813c79490da396" target="_top" xlink:title="送信ウィンドウが満杯かどうかを返します。">
<polygon fill="#ffffff" stroke="#666666" points="321,-57 229,-57 229,-38 321,-38 321,-57"/>
<text text-anchor="middle" x="275" y="-45" font-family="Helvetica,sans-Serif" font-size="10.00" fill="#000000">window_send_full</text>
</a>
</g>
</g>
<!-- Node1&#45;&gt;Node7 -->
<g id="edge6_Node000001_Node000007" class="edge">
<title>Node1&#45;&gt;Node7</title>
<g id="a_edge6_Node000001_Node000007"><a xlink:title=" ">
<path fill="none" stroke="#63b8ff" d="M41.4815,-93.7668C53.944,-85.3094 73.3072,-73.5007 92,-67.5 133.1668,-54.2848 181.928,-49.4516 218.7614,-47.8318"/>
<polygon fill="#63b8ff" stroke="#63b8ff" points="218.9555,-51.3271 228.8177,-47.4559 218.6939,-44.332 218.9555,-51.3271"/>
</a>
</g>
</g>
<!-- Node8 -->
<g id="Node000008" class="node">
<title>Node8</title>
<g id="a_Node000008"><a xlink:href="window_8c.html#a194f99cfb5f1631fb7643c1838a5278a" target="_top" xlink:title="送信ウィンドウにパケットを積みます。">
<polygon fill="#ffffff" stroke="#666666" points="193,-19 92,-19 92,0 193,0 193,-19"/>
<text text-anchor="middle" x="142.5" y="-7" font-family="Helvetica,sans-Serif" font-size="10.00" fill="#000000">window_send_push</text>
</a>
</g>
</g>
<!-- Node1&#45;&gt;Node8 -->
<g id="edge7_Node000001_Node000008" class="edge">
<title>Node1&#45;&gt;Node8</title>
<g id="a_edge7_Node000001_Node000008"><a xlink:title=" ">
<path fill="none" stroke="#63b8ff" d="M34.9118,-93.8021C45.7233,-79.184 67.9065,-51.3227 92,-33.5 96.9494,-29.8388 102.546,-26.5186 108.1652,-23.5952"/>
<polygon fill="#63b8ff" stroke="#63b8ff" points="110.0578,-26.5676 117.5333,-19.0597 107.0074,-20.2671 110.0578,-26.5676"/>
</a>
</g>
</g>
<!-- Node3 -->
<g id="Node000003" class="node">
<title>Node3</title>
<g id="a_Node000003"><a xlink:href="potrIpAddr_8c.html#a3cec4d9d1cf322295151f0f4319db29e" target="_top" xlink:title=" ">
<polygon fill="#ffffff" stroke="#666666" points="319,-206 231,-206 231,-187 319,-187 319,-206"/>
<text text-anchor="middle" x="275" y="-194" font-family="Helvetica,sans-Serif" font-size="10.00" fill="#000000">parse_ipv4_addr</text>
</a>
</g>
</g>
<!-- Node2&#45;&gt;Node3 -->
<g id="edge2_Node000002_Node000003" class="edge">
<title>Node2&#45;&gt;Node3</title>
<g id="a_edge2_Node000002_Node000003"><a xlink:title=" ">
<path fill="none" stroke="#63b8ff" d="M185.1532,-196.5C196.3875,-196.5 208.6632,-196.5 220.4312,-196.5"/>
<polygon fill="#63b8ff" stroke="#63b8ff" points="220.6031,-200.0001 230.603,-196.5 220.603,-193.0001 220.6031,-200.0001"/>
</a>
</g>
</g>
<!-- Node8&#45;&gt;Node7 -->
<g id="edge9_Node000008_Node000007" class="edge">
<title>Node8&#45;&gt;Node7</title>
<g id="a_edge9_Node000008_Node000007"><a xlink:title=" ">
<path fill="none" stroke="#63b8ff" d="M175.9353,-19.089C192.8829,-23.9494 213.6634,-29.9091 231.8075,-35.1127"/>
<polygon fill="#63b8ff" stroke="#63b8ff" points="230.9979,-38.5216 241.5754,-37.9141 232.9278,-31.7928 230.9979,-38.5216"/>
</a>
</g>
</g>
<!-- Node9 -->
<g id="Node000009" class="node">
<title>Node9</title>
<g id="a_Node000009"><a xlink:href="window_8c.html#ad5f53882d6cd6075a78e83b94fb62cc3" target="_top" xlink:title=" ">
<polygon fill="#ffffff" stroke="#666666" points="304.5,-19 245.5,-19 245.5,0 304.5,0 304.5,-19"/>
<text text-anchor="middle" x="275" y="-7" font-family="Helvetica,sans-Serif" font-size="10.00" fill="#000000">win_index</text>
</a>
</g>
</g>
<!-- Node8&#45;&gt;Node9 -->
<g id="edge8_Node000008_Node000009" class="edge">
<title>Node8&#45;&gt;Node9</title>
<g id="a_edge8_Node000008_Node000009"><a xlink:title=" ">
<path fill="none" stroke="#63b8ff" d="M193.349,-9.5C207.1696,-9.5 221.9368,-9.5 235.0596,-9.5"/>
<polygon fill="#63b8ff" stroke="#63b8ff" points="235.1819,-13.0001 245.1818,-9.5 235.1818,-6.0001 235.1819,-13.0001"/>
</a>
</g>
</g>
</g>
</svg>
</svg>

<style type='text/css'>
<![CDATA[
[data-mouse-over-selected='false'] { opacity: 0.7; }
[data-mouse-over-selected='true']  { opacity: 1.0; }
]]>
</style>
<script type="application/ecmascript"><![CDATA[
document.addEventListener('DOMContentLoaded', (event) => {
  highlightEdges();
  highlightAdjacentNodes();
});
]]></script>
</svg>
