<?xml version="1.0" encoding="UTF-8" standalone="no"?>
<!DOCTYPE svg PUBLIC "-//W3C//DTD SVG 1.1//EN"
 "http://www.w3.org/Graphics/SVG/1.1/DTD/svg11.dtd">
<!-- Generated by graphviz version 2.40.1 (0)
 -->
<!-- Title: porter/libsrc/porter/potrRecvThread.h Pages: 1 -->
<svg width="414pt" height="258pt"
 viewBox="0.00 0.00 413.50 258.00" xmlns="http://www.w3.org/2000/svg" xmlns:xlink="http://www.w3.org/1999/xlink">
<g id="graph0" class="graph" transform="scale(1 1) rotate(0) translate(4 254)">
<title>porter/libsrc/porter/potrRecvThread.h</title>
<!-- Node1 -->
<g id="Node000001" class="node">
<title>Node1</title>
<g id="a_Node000001"><a xlink:title="受信スレッド内部ヘッダー。">
<polygon fill="#999999" stroke="#666666" points="287,-250 190,-250 190,-220 287,-220 287,-250"/>
<text text-anchor="start" x="198" y="-238" font-family="Helvetica,sans-Serif" font-size="10.00" fill="#000000">porter/libsrc/porter</text>
<text text-anchor="middle" x="238.5" y="-227" font-family="Helvetica,sans-Serif" font-size="10.00" fill="#000000">/potrRecvThread.h</text>
</a>
</g>
</g>
<!-- Node2 -->
<g id="Node000002" class="node">
<title>Node2</title>
<g id="a_Node000002"><a xlink:href="potrContext_8h.html" target="_top" xlink:title="セッションコンテキスト内部定義ヘッダー。">
<polygon fill="#ffffff" stroke="#666666" points="276,-184 201,-184 201,-165 276,-165 276,-184"/>
<text text-anchor="middle" x="238.5" y="-172" font-family="Helvetica,sans-Serif" font-size="10.00" fill="#000000">potrContext.h</text>
</a>
</g>
</g>
<!-- Node1&#45;&gt;Node2 -->
<g id="edge1_Node000001_Node000002" class="edge">
<title>Node1&#45;&gt;Node2</title>
<g id="a_edge1_Node000001_Node000002"><a xlink:title=" ">
<path fill="none" stroke="#63b8ff" d="M238.5,-219.7333C238.5,-212.0322 238.5,-202.5977 238.5,-194.3414"/>
<polygon fill="#63b8ff" stroke="#63b8ff" points="242.0001,-194.0864 238.5,-184.0864 235.0001,-194.0864 242.0001,-194.0864"/>
</a>
</g>
</g>
<!-- Node3 -->
<g id="Node000003" class="node">
<title>Node3</title>
<g id="a_Node000003"><a xlink:href="porter__type_8h.html" target="_top" xlink:title="通信ライブラリの型定義ファイル。">
<polygon fill="#ffffff" stroke="#666666" points="205.5,-74 131.5,-74 131.5,-55 205.5,-55 205.5,-74"/>
<text text-anchor="middle" x="168.5" y="-62" font-family="Helvetica,sans-Serif" font-size="10.00" fill="#000000">porter_type.h</text>
</a>
</g>
</g>
<!-- Node2&#45;&gt;Node3 -->
<g id="edge2_Node000002_Node000003" class="edge">
<title>Node2&#45;&gt;Node3</title>
<g id="a_edge2_Node000002_Node000003"><a xlink:title=" ">
<path fill="none" stroke="#63b8ff" d="M221.4097,-164.9834C208.7137,-157.0165 192.0112,-144.4746 182.5,-129 174.2498,-115.5771 170.8233,-97.9659 169.4189,-84.5379"/>
<polygon fill="#63b8ff" stroke="#63b8ff" points="172.8984,-84.1333 168.6533,-74.4261 165.9183,-84.6619 172.8984,-84.1333"/>
</a>
</g>
</g>
<!-- Node7 -->
<g id="Node000007" class="node">
<title>Node7</title>
<g id="a_Node000007"><a xlink:href="retransmit_8h.html" target="_top" xlink:title="再送制御モジュールの内部ヘッダー。">
<polygon fill="#ffffff" stroke="#666666" points="405.5,-74 299.5,-74 299.5,-55 405.5,-55 405.5,-74"/>
<text text-anchor="middle" x="352.5" y="-62" font-family="Helvetica,sans-Serif" font-size="10.00" fill="#000000">protocol/retransmit.h</text>
</a>
</g>
</g>
<!-- Node2&#45;&gt;Node7 -->
<g id="edge6_Node000002_Node000007" class="edge">
<title>Node2&#45;&gt;Node7</title>
<g id="a_edge6_Node000002_Node000007"><a xlink:title=" ">
<path fill="none" stroke="#63b8ff" d="M251.4289,-164.9183C263.096,-156.0601 280.5218,-142.2952 294.5,-129 310.254,-114.0157 326.6859,-95.418 338.0204,-82.0484"/>
<polygon fill="#63b8ff" stroke="#63b8ff" points="340.9339,-84.0208 344.6743,-74.1082 335.5687,-79.5247 340.9339,-84.0208"/>
</a>
</g>
</g>
<!-- Node8 -->
<g id="Node000008" class="node">
<title>Node8</title>
<g id="a_Node000008"><a xlink:href="window_8h.html" target="_top" xlink:title="スライディングウィンドウ管理モジュールの内部ヘッダー。">
<polygon fill="#ffffff" stroke="#666666" points="285,-129 192,-129 192,-110 285,-110 285,-129"/>
<text text-anchor="middle" x="238.5" y="-117" font-family="Helvetica,sans-Serif" font-size="10.00" fill="#000000">protocol/window.h</text>
</a>
</g>
</g>
<!-- Node2&#45;&gt;Node8 -->
<g id="edge9_Node000002_Node000008" class="edge">
<title>Node2&#45;&gt;Node8</title>
<g id="a_edge9_Node000002_Node000008"><a xlink:title=" ">
<path fill="none" stroke="#63b8ff" d="M238.5,-164.9197C238.5,-157.9083 238.5,-148.1442 238.5,-139.4652"/>
<polygon fill="#63b8ff" stroke="#63b8ff" points="242.0001,-139.3408 238.5,-129.3408 235.0001,-139.3409 242.0001,-139.3408"/>
</a>
</g>
</g>
<!-- Node9 -->
<g id="Node000009" class="node">
<title>Node9</title>
<g id="a_Node000009"><a xlink:href="compress_8h.html" target="_top" xlink:title="データ圧縮・解凍モジュールの内部ヘッダー。">
<polygon fill="#ffffff" stroke="#666666" points="113,-74 0,-74 0,-55 113,-55 113,-74"/>
<text text-anchor="middle" x="56.5" y="-62" font-family="Helvetica,sans-Serif" font-size="10.00" fill="#000000">compress/compress.h</text>
</a>
</g>
</g>
<!-- Node2&#45;&gt;Node9 -->
<g id="edge13_Node000002_Node000009" class="edge">
<title>Node2&#45;&gt;Node9</title>
<g id="a_edge13_Node000002_Node000009"><a xlink:title=" ">
<path fill="none" stroke="#63b8ff" d="M222.6671,-164.9306C190.9358,-145.7524 119.35,-102.4863 81.3254,-79.5044"/>
<polygon fill="#63b8ff" stroke="#63b8ff" points="82.7946,-76.3028 72.4259,-74.1256 79.1738,-82.2936 82.7946,-76.3028"/>
</a>
</g>
</g>
<!-- Node10 -->
<g id="Node000010" class="node">
<title>Node10</title>
<g id="a_Node000010"><a xlink:title=" ">
<polygon fill="#e0e0e0" stroke="#999999" points="399,-129 342,-129 342,-110 399,-110 399,-129"/>
<text text-anchor="middle" x="370.5" y="-117" font-family="Helvetica,sans-Serif" font-size="10.00" fill="#000000">pthread.h</text>
</a>
</g>
</g>
<!-- Node2&#45;&gt;Node10 -->
<g id="edge16_Node000002_Node000010" class="edge">
<title>Node2&#45;&gt;Node10</title>
<g id="a_edge16_Node000002_Node000010"><a xlink:title=" ">
<path fill="none" stroke="#63b8ff" d="M261.4926,-164.9197C282.6567,-156.1014 314.2711,-142.9287 338.0116,-133.0369"/>
<polygon fill="#63b8ff" stroke="#63b8ff" points="339.4433,-136.232 347.3279,-129.155 336.751,-129.7705 339.4433,-136.232"/>
</a>
</g>
</g>
<!-- Node4 -->
<g id="Node000004" class="node">
<title>Node4</title>
<g id="a_Node000004"><a xlink:title=" ">
<polygon fill="#e0e0e0" stroke="#999999" points="114.5,-19 62.5,-19 62.5,0 114.5,0 114.5,-19"/>
<text text-anchor="middle" x="88.5" y="-7" font-family="Helvetica,sans-Serif" font-size="10.00" fill="#000000">stddef.h</text>
</a>
</g>
</g>
<!-- Node3&#45;&gt;Node4 -->
<g id="edge3_Node000003_Node000004" class="edge">
<title>Node3&#45;&gt;Node4</title>
<g id="a_edge3_Node000003_Node000004"><a xlink:title=" ">
<path fill="none" stroke="#63b8ff" d="M154.5651,-54.9197C142.5935,-46.6893 125.1047,-34.6657 111.1279,-25.0567"/>
<polygon fill="#63b8ff" stroke="#63b8ff" points="112.767,-21.9362 102.5437,-19.155 108.8012,-27.7045 112.767,-21.9362"/>
</a>
</g>
</g>
<!-- Node5 -->
<g id="Node000005" class="node">
<title>Node5</title>
<g id="a_Node000005"><a xlink:title=" ">
<polygon fill="#e0e0e0" stroke="#999999" points="203,-19 154,-19 154,0 203,0 203,-19"/>
<text text-anchor="middle" x="178.5" y="-7" font-family="Helvetica,sans-Serif" font-size="10.00" fill="#000000">stdint.h</text>
</a>
</g>
</g>
<!-- Node3&#45;&gt;Node5 -->
<g id="edge4_Node000003_Node000005" class="edge">
<title>Node3&#45;&gt;Node5</title>
<g id="a_edge4_Node000003_Node000005"><a xlink:title=" ">
<path fill="none" stroke="#63b8ff" d="M170.2419,-54.9197C171.5167,-47.9083 173.292,-38.1442 174.87,-29.4652"/>
<polygon fill="#63b8ff" stroke="#63b8ff" points="178.3654,-29.8057 176.7108,-19.3408 171.4783,-28.5534 178.3654,-29.8057"/>
</a>
</g>
</g>
<!-- Node6 -->
<g id="Node000006" class="node">
<title>Node6</title>
<g id="a_Node000006"><a xlink:href="porter__const_8h.html" target="_top" xlink:title="通信ライブラリの定数ファイル。">
<polygon fill="#ffffff" stroke="#666666" points="311,-19 232,-19 232,0 311,0 311,-19"/>
<text text-anchor="middle" x="271.5" y="-7" font-family="Helvetica,sans-Serif" font-size="10.00" fill="#000000">porter_const.h</text>
</a>
</g>
</g>
<!-- Node3&#45;&gt;Node6 -->
<g id="edge5_Node000003_Node000006" class="edge">
<title>Node3&#45;&gt;Node6</title>
<g id="a_edge5_Node000003_Node000006"><a xlink:title=" ">
<path fill="none" stroke="#63b8ff" d="M186.4412,-54.9197C202.4418,-46.3757 226.0974,-33.7441 244.4028,-23.9694"/>
<polygon fill="#63b8ff" stroke="#63b8ff" points="246.2462,-26.9528 253.4188,-19.155 242.949,-20.778 246.2462,-26.9528"/>
</a>
</g>
</g>
<!-- Node7&#45;&gt;Node5 -->
<g id="edge7_Node000007_Node000005" class="edge">
<title>Node7&#45;&gt;Node5</title>
<g id="a_edge7_Node000007_Node000005"><a xlink:title=" ">
<path fill="none" stroke="#63b8ff" d="M322.1915,-54.9197C291.7045,-45.283 244.7665,-30.4463 212.9007,-20.3738"/>
<polygon fill="#63b8ff" stroke="#63b8ff" points="213.7141,-16.9603 203.1242,-17.2835 211.6043,-23.6348 213.7141,-16.9603"/>
</a>
</g>
</g>
<!-- Node7&#45;&gt;Node6 -->
<g id="edge8_Node000007_Node000006" class="edge">
<title>Node7&#45;&gt;Node6</title>
<g id="a_edge8_Node000007_Node000006"><a xlink:title=" ">
<path fill="none" stroke="#63b8ff" d="M338.3909,-54.9197C326.1542,-46.6109 308.2244,-34.4363 294.0074,-24.7828"/>
<polygon fill="#63b8ff" stroke="#63b8ff" points="295.9584,-21.877 285.7192,-19.155 292.0262,-27.6682 295.9584,-21.877"/>
</a>
</g>
</g>
<!-- Node8&#45;&gt;Node3 -->
<g id="edge12_Node000008_Node000003" class="edge">
<title>Node8&#45;&gt;Node3</title>
<g id="a_edge12_Node000008_Node000003"><a xlink:title=" ">
<path fill="none" stroke="#63b8ff" d="M226.3069,-109.9197C216.0944,-101.8956 201.2932,-90.2661 189.2247,-80.7837"/>
<polygon fill="#63b8ff" stroke="#63b8ff" points="191.0503,-77.767 181.0247,-74.3408 186.7255,-83.2712 191.0503,-77.767"/>
</a>
</g>
</g>
<!-- Node8&#45;&gt;Node5 -->
<g id="edge10_Node000008_Node000005" class="edge">
<title>Node8&#45;&gt;Node5</title>
<g id="a_edge10_Node000008_Node000005"><a xlink:title=" ">
<path fill="none" stroke="#63b8ff" d="M235.9561,-109.9086C232.2917,-96.9387 224.8168,-73.3238 214.5,-55 208.925,-45.0982 201.2726,-35.0875 194.4563,-26.9868"/>
<polygon fill="#63b8ff" stroke="#63b8ff" points="196.9856,-24.5618 187.7777,-19.321 191.7076,-29.16 196.9856,-24.5618"/>
</a>
</g>
</g>
<!-- Node8&#45;&gt;Node6 -->
<g id="edge11_Node000008_Node000006" class="edge">
<title>Node8&#45;&gt;Node6</title>
<g id="a_edge11_Node000008_Node000006"><a xlink:title=" ">
<path fill="none" stroke="#63b8ff" d="M241.4285,-109.7382C246.8728,-91.5906 258.642,-52.36 265.7349,-28.7172"/>
<polygon fill="#63b8ff" stroke="#63b8ff" points="269.104,-29.6668 268.6252,-19.0828 262.3992,-27.6554 269.104,-29.6668"/>
</a>
</g>
</g>
<!-- Node9&#45;&gt;Node4 -->
<g id="edge14_Node000009_Node000004" class="edge">
<title>Node9&#45;&gt;Node4</title>
<g id="a_edge14_Node000009_Node000004"><a xlink:title=" ">
<path fill="none" stroke="#63b8ff" d="M62.074,-54.9197C66.38,-47.5188 72.4704,-37.0509 77.7193,-28.0294"/>
<polygon fill="#63b8ff" stroke="#63b8ff" points="80.7707,-29.7445 82.7744,-19.3408 74.7202,-26.2242 80.7707,-29.7445"/>
</a>
</g>
</g>
<!-- Node9&#45;&gt;Node5 -->
<g id="edge15_Node000009_Node000005" class="edge">
<title>Node9&#45;&gt;Node5</title>
<g id="a_edge15_Node000009_Node000005"><a xlink:title=" ">
<path fill="none" stroke="#63b8ff" d="M77.7508,-54.9197C97.1376,-46.1798 126.0122,-33.1625 147.886,-23.3014"/>
<polygon fill="#63b8ff" stroke="#63b8ff" points="149.4054,-26.4557 157.0834,-19.155 146.5285,-20.0742 149.4054,-26.4557"/>
</a>
</g>
</g>
</g>
</svg>
