<?xml version="1.0" encoding="UTF-8" standalone="no"?>
<!DOCTYPE svg PUBLIC "-//W3C//DTD SVG 1.1//EN"
 "http://www.w3.org/Graphics/SVG/1.1/DTD/svg11.dtd">
<!-- Generated by graphviz version 2.40.1 (0)
 -->
<!-- Title: comm_recv_thread_start Pages: 1 -->
<svg width="982pt" height="631pt"
 viewBox="0.00 0.00 982.00 631.00" xmlns="http://www.w3.org/2000/svg" xmlns:xlink="http://www.w3.org/1999/xlink">
<g id="graph0" class="graph" transform="scale(1 1) rotate(0) translate(4 627)">
<title>comm_recv_thread_start</title>
<!-- Node1 -->
<g id="Node000001" class="node">
<title>Node1</title>
<g id="a_Node000001"><a xlink:title="受信スレッドを起動します。">
<polygon fill="#999999" stroke="#666666" points="125,-322 0,-322 0,-303 125,-303 125,-322"/>
<text text-anchor="middle" x="62.5" y="-310" font-family="Helvetica,sans-Serif" font-size="10.00" fill="#000000">comm_recv_thread_start</text>
</a>
</g>
</g>
<!-- Node2 -->
<g id="Node000002" class="node">
<title>Node2</title>
<g id="a_Node000002"><a xlink:href="potrRecvThread_8c.html#a300c2d6c99e3491d0ee4c7cb4de36146" target="_top" xlink:title=" ">
<polygon fill="#ffffff" stroke="#666666" points="253,-322 161,-322 161,-303 253,-303 253,-322"/>
<text text-anchor="middle" x="207" y="-310" font-family="Helvetica,sans-Serif" font-size="10.00" fill="#000000">recv_thread_func</text>
</a>
</g>
</g>
<!-- Node1&#45;&gt;Node2 -->
<g id="edge1_Node000001_Node000002" class="edge">
<title>Node1&#45;&gt;Node2</title>
<g id="a_edge1_Node000001_Node000002"><a xlink:title=" ">
<path fill="none" stroke="#63b8ff" d="M125.0394,-312.5C133.6072,-312.5 142.3606,-312.5 150.8057,-312.5"/>
<polygon fill="#63b8ff" stroke="#63b8ff" points="150.9209,-316.0001 160.9208,-312.5 150.9208,-309.0001 150.9209,-316.0001"/>
</a>
</g>
</g>
<!-- Node3 -->
<g id="Node000003" class="node">
<title>Node3</title>
<g id="a_Node000003"><a xlink:href="potrRecvThread_8c.html#aa7706a3d13b19d6f86696195cb2d9190" target="_top" xlink:title=" ">
<polygon fill="#ffffff" stroke="#666666" points="426,-623 289,-623 289,-604 426,-604 426,-623"/>
<text text-anchor="middle" x="357.5" y="-611" font-family="Helvetica,sans-Serif" font-size="10.00" fill="#000000">check_and_update_session</text>
</a>
</g>
</g>
<!-- Node2&#45;&gt;Node3 -->
<g id="edge2_Node000002_Node000003" class="edge">
<title>Node2&#45;&gt;Node3</title>
<g id="a_edge2_Node000002_Node000003"><a xlink:title=" ">
<path fill="none" stroke="#63b8ff" d="M208.6559,-322.1976C216.3856,-366.4396 250.1831,-548.7251 289,-589.5 292.6533,-593.3375 296.9544,-596.5619 301.5919,-599.271"/>
<polygon fill="#63b8ff" stroke="#63b8ff" points="300.3307,-602.5527 310.8431,-603.8715 303.4475,-596.2849 300.3307,-602.5527"/>
</a>
</g>
</g>
<!-- Node4 -->
<g id="Node000004" class="node">
<title>Node4</title>
<g id="a_Node000004"><a xlink:href="window_8c.html#a2589115bd38c8d2dcbc47ef7ef87e8a7" target="_top" xlink:title="ウィンドウを初期化します。">
<polygon fill="#ffffff" stroke="#666666" points="544,-585 478,-585 478,-566 544,-566 544,-585"/>
<text text-anchor="middle" x="511" y="-573" font-family="Helvetica,sans-Serif" font-size="10.00" fill="#000000">window_init</text>
</a>
</g>
</g>
<!-- Node2&#45;&gt;Node4 -->
<g id="edge43_Node000002_Node000004" class="edge">
<title>Node2&#45;&gt;Node4</title>
<g id="a_edge43_Node000002_Node000004"><a xlink:title=" ">
<path fill="none" stroke="#63b8ff" d="M208.7833,-322.0835C216.6768,-363.4148 249.8193,-525.7143 289,-556.5 339.83,-596.439 418.8986,-592.3312 467.678,-584.6637"/>
<polygon fill="#63b8ff" stroke="#63b8ff" points="468.3282,-588.1036 477.6063,-582.9881 467.1632,-581.2012 468.3282,-588.1036"/>
</a>
</g>
</g>
<!-- Node5 -->
<g id="Node000005" class="node">
<title>Node5</title>
<g id="a_Node000005"><a xlink:href="potrRecvThread_8c.html#acffd59e7efedff4fe46050ebfb68be25" target="_top" xlink:title=" ">
<polygon fill="#ffffff" stroke="#666666" points="413.5,-547 301.5,-547 301.5,-528 413.5,-528 413.5,-547"/>
<text text-anchor="middle" x="357.5" y="-535" font-family="Helvetica,sans-Serif" font-size="10.00" fill="#000000">check_health_timeout</text>
</a>
</g>
</g>
<!-- Node2&#45;&gt;Node5 -->
<g id="edge4_Node000002_Node000005" class="edge">
<title>Node2&#45;&gt;Node5</title>
<g id="a_edge4_Node000002_Node000005"><a xlink:title=" ">
<path fill="none" stroke="#63b8ff" d="M207.8042,-322.0252C211.0985,-354.8256 226.5213,-464.1139 289,-519.5 290.3284,-520.6776 291.7249,-521.7797 293.1775,-522.8109"/>
<polygon fill="#63b8ff" stroke="#63b8ff" points="291.6269,-525.9584 302.0278,-527.9763 295.1554,-519.9128 291.6269,-525.9584"/>
</a>
</g>
</g>
<!-- Node7 -->
<g id="Node000007" class="node">
<title>Node7</title>
<g id="a_Node000007"><a xlink:href="potrRecvThread_8c.html#adf76797ea71368f81830ec4eef8cadd2" target="_top" xlink:title=" ">
<polygon fill="#ffffff" stroke="#666666" points="400.5,-473 314.5,-473 314.5,-454 400.5,-454 400.5,-473"/>
<text text-anchor="middle" x="357.5" y="-461" font-family="Helvetica,sans-Serif" font-size="10.00" fill="#000000">check_src_addr</text>
</a>
</g>
</g>
<!-- Node2&#45;&gt;Node7 -->
<g id="edge7_Node000002_Node000007" class="edge">
<title>Node2&#45;&gt;Node7</title>
<g id="a_edge7_Node000002_Node000007"><a xlink:title=" ">
<path fill="none" stroke="#63b8ff" d="M210.7072,-322.3371C220.1093,-345.9912 247.1485,-406.5309 289,-439.5 294.3205,-443.6913 300.4266,-447.1806 306.7537,-450.0779"/>
<polygon fill="#63b8ff" stroke="#63b8ff" points="305.5357,-453.3612 316.1162,-453.9121 308.1886,-446.8833 305.5357,-453.3612"/>
</a>
</g>
</g>
<!-- Node8 -->
<g id="Node000008" class="node">
<title>Node8</title>
<g id="a_Node000008"><a xlink:href="potrRecvThread_8c.html#a25a97682fd79b97dfa94ebc3a374a326" target="_top" xlink:title=" ">
<polygon fill="#ffffff" stroke="#666666" points="560,-435 462,-435 462,-416 560,-416 560,-435"/>
<text text-anchor="middle" x="511" y="-423" font-family="Helvetica,sans-Serif" font-size="10.00" fill="#000000">drain_recv_window</text>
</a>
</g>
</g>
<!-- Node2&#45;&gt;Node8 -->
<g id="edge8_Node000002_Node000008" class="edge">
<title>Node2&#45;&gt;Node8</title>
<g id="a_edge8_Node000002_Node000008"><a xlink:title=" ">
<path fill="none" stroke="#63b8ff" d="M218.1791,-322.0332C233.2907,-334.4552 261.5184,-356.054 289,-368.5 341.5706,-392.3085 405.8276,-407.435 451.6569,-416.0753"/>
<polygon fill="#63b8ff" stroke="#63b8ff" points="451.258,-419.5605 461.7259,-417.9253 452.523,-412.6758 451.258,-419.5605"/>
</a>
</g>
</g>
<!-- Node12 -->
<g id="Node000012" class="node">
<title>Node12</title>
<g id="a_Node000012"><a xlink:href="potrRecvThread_8c.html#adbd11557ab385826d115d2a5eea41e7a" target="_top" xlink:title=" ">
<polygon fill="#ffffff" stroke="#666666" points="710,-546 612,-546 612,-527 710,-527 710,-546"/>
<text text-anchor="middle" x="661" y="-534" font-family="Helvetica,sans-Serif" font-size="10.00" fill="#000000">notify_health_alive</text>
</a>
</g>
</g>
<!-- Node2&#45;&gt;Node12 -->
<g id="edge17_Node000002_Node000012" class="edge">
<title>Node2&#45;&gt;Node12</title>
<g id="a_edge17_Node000002_Node000012"><a xlink:title=" ">
<path fill="none" stroke="#63b8ff" d="M213.2058,-322.1817C225.4669,-340.5446 254.6099,-380.5538 289,-402.5 342.7968,-436.8307 366.0512,-423.6176 426,-445.5 486.6339,-467.6325 501.0238,-475.2678 560,-501.5 576.1671,-508.691 579.4132,-512.3386 596,-518.5 601.2139,-520.4368 606.7307,-522.2745 612.2586,-523.9833"/>
<polygon fill="#63b8ff" stroke="#63b8ff" points="611.5754,-527.4311 622.1576,-526.9134 613.5622,-520.719 611.5754,-527.4311"/>
</a>
</g>
</g>
<!-- Node16 -->
<g id="Node000016" class="node">
<title>Node16</title>
<g id="a_Node000016"><a xlink:href="potrRecvThread_8c.html#a323723920a21898dde58087f13e32cca" target="_top" xlink:title=" ">
<polygon fill="#ffffff" stroke="#666666" points="396.5,-56 318.5,-56 318.5,-37 396.5,-37 396.5,-56"/>
<text text-anchor="middle" x="357.5" y="-44" font-family="Helvetica,sans-Serif" font-size="10.00" fill="#000000">get_ms_mono</text>
</a>
</g>
</g>
<!-- Node2&#45;&gt;Node16 -->
<g id="edge16_Node000002_Node000016" class="edge">
<title>Node2&#45;&gt;Node16</title>
<g id="a_edge16_Node000002_Node000016"><a xlink:title=" ">
<path fill="none" stroke="#63b8ff" d="M207.3872,-302.6298C209.3412,-266.3933 220.972,-139.2323 289,-70.5 294.5472,-64.8954 301.4755,-60.5968 308.7783,-57.3005"/>
<polygon fill="#63b8ff" stroke="#63b8ff" points="310.1119,-60.5372 318.153,-53.6385 307.5649,-54.017 310.1119,-60.5372"/>
</a>
</g>
</g>
<!-- Node17 -->
<g id="Node000017" class="node">
<title>Node17</title>
<g id="a_Node000017"><a xlink:href="packet_8c.html#a15889622b4af9f2ad1d7f3269532dc6f" target="_top" xlink:title="受信バイト列をパケット構造体に解析します。">
<polygon fill="#ffffff" stroke="#666666" points="548.5,-94 473.5,-94 473.5,-75 548.5,-75 548.5,-94"/>
<text text-anchor="middle" x="511" y="-82" font-family="Helvetica,sans-Serif" font-size="10.00" fill="#000000">packet_parse</text>
</a>
</g>
</g>
<!-- Node2&#45;&gt;Node17 -->
<g id="edge18_Node000002_Node000017" class="edge">
<title>Node2&#45;&gt;Node17</title>
<g id="a_edge18_Node000002_Node000017"><a xlink:title=" ">
<path fill="none" stroke="#63b8ff" d="M207.5914,-302.8174C210.1908,-269.5357 223.6168,-159.155 289,-109.5 339.0313,-71.504 414.6268,-71.5816 463.4063,-76.7639"/>
<polygon fill="#63b8ff" stroke="#63b8ff" points="463.0497,-80.246 473.3895,-77.9354 463.8656,-73.2937 463.0497,-80.246"/>
</a>
</g>
</g>
<!-- Node20 -->
<g id="Node000020" class="node">
<title>Node20</title>
<g id="a_Node000020"><a xlink:href="packet_8c.html#aee7ebc74dbbe67fa4c9bcdced8dca70c" target="_top" xlink:title="パケットのヘッダー + ペイロードの合計バイト数を返します。">
<polygon fill="#ffffff" stroke="#666666" points="707,-170 615,-170 615,-151 707,-151 707,-170"/>
<text text-anchor="middle" x="661" y="-158" font-family="Helvetica,sans-Serif" font-size="10.00" fill="#000000">packet_wire_size</text>
</a>
</g>
</g>
<!-- Node2&#45;&gt;Node20 -->
<g id="edge21_Node000002_Node000020" class="edge">
<title>Node2&#45;&gt;Node20</title>
<g id="a_edge21_Node000002_Node000020"><a xlink:title=" ">
<path fill="none" stroke="#63b8ff" d="M210.5236,-302.8789C219.518,-279.8615 245.7204,-221.667 289,-196.5 388.3097,-138.7516 528.1872,-143.6619 605.0172,-152.1829"/>
<polygon fill="#63b8ff" stroke="#63b8ff" points="604.6363,-155.6621 614.9751,-153.3471 605.4492,-148.7094 604.6363,-155.6621"/>
</a>
</g>
</g>
<!-- Node21 -->
<g id="Node000021" class="node">
<title>Node21</title>
<g id="a_Node000021"><a xlink:href="crypto__linux_8c.html#a87f4be5a01528fa66248534ac0c30928" target="_top" xlink:title="AES&#45;256&#45;GCM でデータを復号し、認証タグを検証します。">
<polygon fill="#ffffff" stroke="#666666" points="393,-19 322,-19 322,0 393,0 393,-19"/>
<text text-anchor="middle" x="357.5" y="-7" font-family="Helvetica,sans-Serif" font-size="10.00" fill="#000000">potr_decrypt</text>
</a>
</g>
</g>
<!-- Node2&#45;&gt;Node21 -->
<g id="edge22_Node000002_Node000021" class="edge">
<title>Node2&#45;&gt;Node21</title>
<g id="a_edge22_Node000002_Node000021"><a xlink:title=" ">
<path fill="none" stroke="#63b8ff" d="M208.4935,-302.7554C215.6233,-257.4594 247.5707,-67.9796 289,-27.5 295.39,-21.2565 303.6706,-17.107 312.2538,-14.3659"/>
<polygon fill="#63b8ff" stroke="#63b8ff" points="313.1922,-17.7384 321.9886,-11.833 311.4294,-10.964 313.1922,-17.7384"/>
</a>
</g>
</g>
<!-- Node22 -->
<g id="Node000022" class="node">
<title>Node22</title>
<g id="a_Node000022"><a xlink:href="potrRecvThread_8c.html#a69c2cb6947b8a810bb95585972a60e09" target="_top" xlink:title=" ">
<polygon fill="#ffffff" stroke="#666666" points="406,-322 309,-322 309,-303 406,-303 406,-322"/>
<text text-anchor="middle" x="357.5" y="-310" font-family="Helvetica,sans-Serif" font-size="10.00" fill="#000000">process_outer_pkt</text>
</a>
</g>
</g>
<!-- Node2&#45;&gt;Node22 -->
<g id="edge23_Node000002_Node000022" class="edge">
<title>Node2&#45;&gt;Node22</title>
<g id="a_edge23_Node000002_Node000022"><a xlink:title=" ">
<path fill="none" stroke="#63b8ff" d="M253.383,-312.5C267.6985,-312.5 283.6569,-312.5 298.6942,-312.5"/>
<polygon fill="#63b8ff" stroke="#63b8ff" points="298.926,-316.0001 308.9259,-312.5 298.9259,-309.0001 298.926,-316.0001"/>
</a>
</g>
</g>
<!-- Node23 -->
<g id="Node000023" class="node">
<title>Node23</title>
<g id="a_Node000023"><a xlink:href="potrRecvThread_8c.html#aeab28b0e8d42c5c5e28e69bf70074990" target="_top" xlink:title=" ">
<polygon fill="#ffffff" stroke="#666666" points="543,-208 479,-208 479,-189 543,-189 543,-208"/>
<text text-anchor="middle" x="511" y="-196" font-family="Helvetica,sans-Serif" font-size="10.00" fill="#000000">send_nack</text>
</a>
</g>
</g>
<!-- Node2&#45;&gt;Node23 -->
<g id="edge35_Node000002_Node000023" class="edge">
<title>Node2&#45;&gt;Node23</title>
<g id="a_edge35_Node000002_Node000023"><a xlink:title=" ">
<path fill="none" stroke="#63b8ff" d="M213.5996,-302.9248C226.0903,-285.6399 255.0034,-249.4501 289,-232.5 346.5826,-203.7903 422.1741,-197.966 468.6304,-197.4522"/>
<polygon fill="#63b8ff" stroke="#63b8ff" points="468.6622,-200.9522 478.6506,-197.4192 468.639,-193.9523 468.6622,-200.9522"/>
</a>
</g>
</g>
<!-- Node28 -->
<g id="Node000028" class="node">
<title>Node28</title>
<g id="a_Node000028"><a xlink:href="seqnum_8c.html#a45fcfa48b2d66889a5b9b8f63650336a" target="_top" xlink:title="通番 seq がウィンドウ [base, base + window_size) に含まれるか判定します。">
<polygon fill="#ffffff" stroke="#666666" points="711.5,-283 610.5,-283 610.5,-264 711.5,-264 711.5,-283"/>
<text text-anchor="middle" x="661" y="-271" font-family="Helvetica,sans-Serif" font-size="10.00" fill="#000000">seqnum_in_window</text>
</a>
</g>
</g>
<!-- Node2&#45;&gt;Node28 -->
<g id="edge40_Node000002_Node000028" class="edge">
<title>Node2&#45;&gt;Node28</title>
<g id="a_edge40_Node000002_Node000028"><a xlink:title=" ">
<path fill="none" stroke="#63b8ff" d="M242.2656,-302.9116C256.6531,-299.3718 273.5183,-295.6928 289,-293.5 398.0191,-278.0589 526.5534,-274.31 600.4348,-273.5311"/>
<polygon fill="#63b8ff" stroke="#63b8ff" points="600.5215,-277.0306 610.4893,-273.44 600.458,-270.0309 600.5215,-277.0306"/>
</a>
</g>
</g>
<!-- Node29 -->
<g id="Node000029" class="node">
<title>Node29</title>
<g id="a_Node000029"><a xlink:href="potrRecvThread_8c.html#a1794de2bc67170db1366ab5024329605" target="_top" xlink:title=" ">
<polygon fill="#ffffff" stroke="#666666" points="544.5,-132 477.5,-132 477.5,-113 544.5,-113 544.5,-132"/>
<text text-anchor="middle" x="511" y="-120" font-family="Helvetica,sans-Serif" font-size="10.00" fill="#000000">send_reject</text>
</a>
</g>
</g>
<!-- Node2&#45;&gt;Node29 -->
<g id="edge36_Node000002_Node000029" class="edge">
<title>Node2&#45;&gt;Node29</title>
<g id="a_edge36_Node000002_Node000029"><a xlink:title=" ">
<path fill="none" stroke="#63b8ff" d="M208.4838,-302.9331C213.5628,-273.7575 233.1387,-185.5288 289,-146.5 341.6987,-109.6809 419.2787,-110.4923 467.3913,-115.6317"/>
<polygon fill="#63b8ff" stroke="#63b8ff" points="467.1441,-119.1266 477.4847,-116.8197 467.9624,-112.1746 467.1441,-119.1266"/>
</a>
</g>
</g>
<!-- Node31 -->
<g id="Node000031" class="node">
<title>Node31</title>
<g id="a_Node000031"><a xlink:href="potrRecvThread_8c.html#a7ee78d472443c5ffd31c52cb06300627" target="_top" xlink:title=" ">
<polygon fill="#ffffff" stroke="#666666" points="404.5,-510 310.5,-510 310.5,-491 404.5,-491 404.5,-510"/>
<text text-anchor="middle" x="357.5" y="-498" font-family="Helvetica,sans-Serif" font-size="10.00" fill="#000000">update_path_recv</text>
</a>
</g>
</g>
<!-- Node2&#45;&gt;Node31 -->
<g id="edge41_Node000002_Node000031" class="edge">
<title>Node2&#45;&gt;Node31</title>
<g id="a_edge41_Node000002_Node000031"><a xlink:title=" ">
<path fill="none" stroke="#63b8ff" d="M208.764,-322.3363C214.5347,-351.556 235.6391,-438.5342 289,-482.5 292.5661,-485.4382 296.5613,-487.9017 300.7827,-489.9665"/>
<polygon fill="#63b8ff" stroke="#63b8ff" points="299.7269,-493.3166 310.3067,-493.8794 302.387,-486.8417 299.7269,-493.3166"/>
</a>
</g>
</g>
<!-- Node32 -->
<g id="Node000032" class="node">
<title>Node32</title>
<g id="a_Node000032"><a xlink:href="window_8c.html#a09a3ee7def6addf4974f7644a3d0c913" target="_top" xlink:title="受信ウィンドウで指定通番をスキップして次の通番へ前進させます。">
<polygon fill="#ffffff" stroke="#666666" points="405,-359 310,-359 310,-340 405,-340 405,-359"/>
<text text-anchor="middle" x="357.5" y="-347" font-family="Helvetica,sans-Serif" font-size="10.00" fill="#000000">window_recv_skip</text>
</a>
</g>
</g>
<!-- Node2&#45;&gt;Node32 -->
<g id="edge44_Node000002_Node000032" class="edge">
<title>Node2&#45;&gt;Node32</title>
<g id="a_edge44_Node000002_Node000032"><a xlink:title=" ">
<path fill="none" stroke="#63b8ff" d="M245.7575,-322.0284C264.993,-326.7574 288.4261,-332.5184 308.8561,-337.541"/>
<polygon fill="#63b8ff" stroke="#63b8ff" points="308.0661,-340.951 318.6126,-339.9396 309.7373,-334.1534 308.0661,-340.951"/>
</a>
</g>
</g>
<!-- Node33 -->
<g id="Node000033" class="node">
<title>Node33</title>
<g id="a_Node000033"><a xlink:href="window_8c.html#a809726c67053a1b04955b9f58a590c56" target="_top" xlink:title="送信ウィンドウから指定通番のパケットを取得します (再送用)。">
<polygon fill="#ffffff" stroke="#666666" points="557.5,-245 464.5,-245 464.5,-226 557.5,-226 557.5,-245"/>
<text text-anchor="middle" x="511" y="-233" font-family="Helvetica,sans-Serif" font-size="10.00" fill="#000000">window_send_get</text>
</a>
</g>
</g>
<!-- Node2&#45;&gt;Node33 -->
<g id="edge46_Node000002_Node000033" class="edge">
<title>Node2&#45;&gt;Node33</title>
<g id="a_edge46_Node000002_Node000033"><a xlink:title=" ">
<path fill="none" stroke="#63b8ff" d="M218.3344,-302.9115C233.3946,-290.7651 261.3342,-270.2442 289,-260.5 342.9063,-241.5135 408.3088,-236.1014 454.1124,-234.9274"/>
<polygon fill="#63b8ff" stroke="#63b8ff" points="454.2259,-238.426 464.1551,-234.7297 454.0881,-231.4273 454.2259,-238.426"/>
</a>
</g>
</g>
<!-- Node3&#45;&gt;Node4 -->
<g id="edge3_Node000003_Node000004" class="edge">
<title>Node3&#45;&gt;Node4</title>
<g id="a_edge3_Node000003_Node000004"><a xlink:title=" ">
<path fill="none" stroke="#63b8ff" d="M396.2345,-603.911C418.1079,-598.4961 445.4926,-591.7168 468.0254,-586.1387"/>
<polygon fill="#63b8ff" stroke="#63b8ff" points="469.1338,-589.47 477.9997,-583.6695 467.4516,-582.6751 469.1338,-589.47"/>
</a>
</g>
</g>
<!-- Node5&#45;&gt;Node4 -->
<g id="edge6_Node000005_Node000004" class="edge">
<title>Node5&#45;&gt;Node4</title>
<g id="a_edge6_Node000005_Node000004"><a xlink:title=" ">
<path fill="none" stroke="#63b8ff" d="M396.2345,-547.089C418.1079,-552.5039 445.4926,-559.2832 468.0254,-564.8613"/>
<polygon fill="#63b8ff" stroke="#63b8ff" points="467.4516,-568.3249 477.9997,-567.3305 469.1338,-561.53 467.4516,-568.3249"/>
</a>
</g>
</g>
<!-- Node6 -->
<g id="Node000006" class="node">
<title>Node6</title>
<g id="a_Node000006"><a xlink:href="potrRecvThread_8c.html#a019adce8e207841015b8f2a83e5d0a07" target="_top" xlink:title=" ">
<polygon fill="#ffffff" stroke="#666666" points="551,-529 471,-529 471,-510 551,-510 551,-529"/>
<text text-anchor="middle" x="511" y="-517" font-family="Helvetica,sans-Serif" font-size="10.00" fill="#000000">get_monotonic</text>
</a>
</g>
</g>
<!-- Node5&#45;&gt;Node6 -->
<g id="edge5_Node000005_Node000006" class="edge">
<title>Node5&#45;&gt;Node6</title>
<g id="a_edge5_Node000005_Node000006"><a xlink:title=" ">
<path fill="none" stroke="#63b8ff" d="M413.7861,-530.8997C429.0807,-529.1062 445.5449,-527.1755 460.4979,-525.4221"/>
<polygon fill="#63b8ff" stroke="#63b8ff" points="461.0513,-528.8812 470.5756,-524.2403 460.236,-521.9289 461.0513,-528.8812"/>
</a>
</g>
</g>
<!-- Node9 -->
<g id="Node000009" class="node">
<title>Node9</title>
<g id="a_Node000009"><a xlink:href="potrRecvThread_8c.html#ae3c092bf9cdbee7a84a5ee97cb550930" target="_top" xlink:title=" ">
<polygon fill="#ffffff" stroke="#666666" points="716,-509 606,-509 606,-490 716,-490 716,-509"/>
<text text-anchor="middle" x="661" y="-497" font-family="Helvetica,sans-Serif" font-size="10.00" fill="#000000">deliver_payload_elem</text>
</a>
</g>
</g>
<!-- Node8&#45;&gt;Node9 -->
<g id="edge9_Node000008_Node000009" class="edge">
<title>Node8&#45;&gt;Node9</title>
<g id="a_edge9_Node000008_Node000009"><a xlink:title=" ">
<path fill="none" stroke="#63b8ff" d="M533.6583,-435.0296C542.1991,-439.0202 551.8198,-444.0105 560,-449.5 577.7757,-461.4288 577.1969,-471.2669 596,-481.5 599.2783,-483.2841 602.748,-484.9031 606.3105,-486.3702"/>
<polygon fill="#63b8ff" stroke="#63b8ff" points="605.2966,-489.7268 615.8899,-489.9087 607.7222,-483.1605 605.2966,-489.7268"/>
</a>
</g>
</g>
<!-- Node8&#45;&gt;Node12 -->
<g id="edge12_Node000008_Node000012" class="edge">
<title>Node8&#45;&gt;Node12</title>
<g id="a_edge12_Node000008_Node000012"><a xlink:title=" ">
<path fill="none" stroke="#63b8ff" d="M538.1349,-435.0591C545.852,-438.7108 553.8277,-443.4827 560,-449.5 584.7677,-473.6455 569.1047,-496.7494 596,-518.5 598.0713,-520.1751 600.2878,-521.6946 602.6073,-523.073"/>
<polygon fill="#63b8ff" stroke="#63b8ff" points="601.4617,-526.4116 611.9754,-527.7203 604.5725,-520.1408 601.4617,-526.4116"/>
</a>
</g>
</g>
<!-- Node13 -->
<g id="Node000013" class="node">
<title>Node13</title>
<g id="a_Node000013"><a xlink:href="packet_8c.html#a794632611e7b50ce887e971786a0d5a3" target="_top" xlink:title="データパケットから次のペイロードエレメントを取り出します。">
<polygon fill="#ffffff" stroke="#666666" points="714.5,-472 607.5,-472 607.5,-453 714.5,-453 714.5,-472"/>
<text text-anchor="middle" x="661" y="-460" font-family="Helvetica,sans-Serif" font-size="10.00" fill="#000000">packet_unpack_next</text>
</a>
</g>
</g>
<!-- Node8&#45;&gt;Node13 -->
<g id="edge13_Node000008_Node000013" class="edge">
<title>Node8&#45;&gt;Node13</title>
<g id="a_edge13_Node000008_Node000013"><a xlink:title=" ">
<path fill="none" stroke="#63b8ff" d="M549.6287,-435.0284C568.8003,-439.7574 592.1556,-445.5184 612.5177,-450.541"/>
<polygon fill="#63b8ff" stroke="#63b8ff" points="611.6945,-453.9428 622.2418,-452.9396 613.371,-447.1465 611.6945,-453.9428"/>
</a>
</g>
</g>
<!-- Node14 -->
<g id="Node000014" class="node">
<title>Node14</title>
<g id="a_Node000014"><a xlink:href="window_8c.html#a883a182a547ff084957069939b131527" target="_top" xlink:title="受信ウィンドウから順序整列済みパケットを取り出します。">
<polygon fill="#ffffff" stroke="#666666" points="707.5,-435 614.5,-435 614.5,-416 707.5,-416 707.5,-435"/>
<text text-anchor="middle" x="661" y="-423" font-family="Helvetica,sans-Serif" font-size="10.00" fill="#000000">window_recv_pop</text>
</a>
</g>
</g>
<!-- Node8&#45;&gt;Node14 -->
<g id="edge14_Node000008_Node000014" class="edge">
<title>Node8&#45;&gt;Node14</title>
<g id="a_edge14_Node000008_Node000014"><a xlink:title=" ">
<path fill="none" stroke="#63b8ff" d="M560.1156,-425.5C574.1415,-425.5 589.5439,-425.5 603.9985,-425.5"/>
<polygon fill="#63b8ff" stroke="#63b8ff" points="604.3229,-429.0001 614.3228,-425.5 604.3228,-422.0001 604.3229,-429.0001"/>
</a>
</g>
</g>
<!-- Node10 -->
<g id="Node000010" class="node">
<title>Node10</title>
<g id="a_Node000010"><a xlink:href="potrRecvThread_8c.html#a6c210bf450de8b4bc7b00a665ab436f9" target="_top" xlink:title=" ">
<polygon fill="#ffffff" stroke="#666666" points="838.5,-509 769.5,-509 769.5,-490 838.5,-490 838.5,-509"/>
<text text-anchor="middle" x="804" y="-497" font-family="Helvetica,sans-Serif" font-size="10.00" fill="#000000">recv_deliver</text>
</a>
</g>
</g>
<!-- Node9&#45;&gt;Node10 -->
<g id="edge10_Node000009_Node000010" class="edge">
<title>Node9&#45;&gt;Node10</title>
<g id="a_edge10_Node000009_Node000010"><a xlink:title=" ">
<path fill="none" stroke="#63b8ff" d="M716.2875,-499.5C730.4418,-499.5 745.4909,-499.5 759.0541,-499.5"/>
<polygon fill="#63b8ff" stroke="#63b8ff" points="759.0969,-503.0001 769.0969,-499.5 759.0968,-496.0001 759.0969,-503.0001"/>
</a>
</g>
</g>
<!-- Node11 -->
<g id="Node000011" class="node">
<title>Node11</title>
<g id="a_Node000011"><a xlink:href="compress__linux_8c.html#a9b4c1ab5034e8a243544747d2efdcd21" target="_top" xlink:title="圧縮データを解凍します。">
<polygon fill="#ffffff" stroke="#666666" points="974,-509 882,-509 882,-490 974,-490 974,-509"/>
<text text-anchor="middle" x="928" y="-497" font-family="Helvetica,sans-Serif" font-size="10.00" fill="#000000">potr_decompress</text>
</a>
</g>
</g>
<!-- Node10&#45;&gt;Node11 -->
<g id="edge11_Node000010_Node000011" class="edge">
<title>Node10&#45;&gt;Node11</title>
<g id="a_edge11_Node000010_Node000011"><a xlink:title=" ">
<path fill="none" stroke="#63b8ff" d="M838.5409,-499.5C848.7459,-499.5 860.1947,-499.5 871.406,-499.5"/>
<polygon fill="#63b8ff" stroke="#63b8ff" points="871.5928,-503.0001 881.5928,-499.5 871.5927,-496.0001 871.5928,-503.0001"/>
</a>
</g>
</g>
<!-- Node15 -->
<g id="Node000015" class="node">
<title>Node15</title>
<g id="a_Node000015"><a xlink:href="window_8c.html#ad5f53882d6cd6075a78e83b94fb62cc3" target="_top" xlink:title=" ">
<polygon fill="#ffffff" stroke="#666666" points="833.5,-359 774.5,-359 774.5,-340 833.5,-340 833.5,-359"/>
<text text-anchor="middle" x="804" y="-347" font-family="Helvetica,sans-Serif" font-size="10.00" fill="#000000">win_index</text>
</a>
</g>
</g>
<!-- Node14&#45;&gt;Node15 -->
<g id="edge15_Node000014_Node000015" class="edge">
<title>Node14&#45;&gt;Node15</title>
<g id="a_edge15_Node000014_Node000015"><a xlink:title=" ">
<path fill="none" stroke="#63b8ff" d="M691.395,-415.9369C702.5252,-412.0069 715.0652,-407.0662 726,-401.5 746.4903,-391.0696 768.1195,-376.3153 783.3904,-365.1858"/>
<polygon fill="#63b8ff" stroke="#63b8ff" points="785.638,-367.8766 791.5903,-359.1118 781.4714,-362.2516 785.638,-367.8766"/>
</a>
</g>
</g>
<!-- Node18 -->
<g id="Node000018" class="node">
<title>Node18</title>
<g id="a_Node000018"><a xlink:href="packet_8c.html#a1890f684720279e482a7731dd14ff5b7" target="_top" xlink:title=" ">
<polygon fill="#ffffff" stroke="#666666" points="827,-95 781,-95 781,-76 827,-76 827,-95"/>
<text text-anchor="middle" x="804" y="-83" font-family="Helvetica,sans-Serif" font-size="10.00" fill="#000000">ntoh64</text>
</a>
</g>
</g>
<!-- Node17&#45;&gt;Node18 -->
<g id="edge19_Node000017_Node000018" class="edge">
<title>Node17&#45;&gt;Node18</title>
<g id="a_edge19_Node000017_Node000018"><a xlink:title=" ">
<path fill="none" stroke="#63b8ff" d="M548.7048,-84.6287C606.3749,-84.8255 715.5747,-85.1982 770.5705,-85.3859"/>
<polygon fill="#63b8ff" stroke="#63b8ff" points="770.8037,-88.8866 780.8156,-85.4209 770.8277,-81.8867 770.8037,-88.8866"/>
</a>
</g>
</g>
<!-- Node19 -->
<g id="Node000019" class="node">
<title>Node19</title>
<g id="a_Node000019"><a xlink:href="packet_8c.html#a6564ae80f665edd6931ef662818e19b0" target="_top" xlink:title=" ">
<polygon fill="#ffffff" stroke="#666666" points="951,-114 905,-114 905,-95 951,-95 951,-114"/>
<text text-anchor="middle" x="928" y="-102" font-family="Helvetica,sans-Serif" font-size="10.00" fill="#000000">hton64</text>
</a>
</g>
</g>
<!-- Node18&#45;&gt;Node19 -->
<g id="edge20_Node000018_Node000019" class="edge">
<title>Node18&#45;&gt;Node19</title>
<g id="a_edge20_Node000018_Node000019"><a xlink:title=" ">
<path fill="none" stroke="#63b8ff" d="M827.0328,-89.0292C846.0528,-91.9436 873.3005,-96.1186 894.6975,-99.3972"/>
<polygon fill="#63b8ff" stroke="#63b8ff" points="894.255,-102.8702 904.6697,-100.9252 895.3152,-95.9509 894.255,-102.8702"/>
</a>
</g>
</g>
<!-- Node22&#45;&gt;Node8 -->
<g id="edge24_Node000022_Node000008" class="edge">
<title>Node22&#45;&gt;Node8</title>
<g id="a_edge24_Node000022_Node000008"><a xlink:title=" ">
<path fill="none" stroke="#63b8ff" d="M406.1264,-321.4688C413.0727,-323.8199 419.916,-326.7788 426,-330.5 442.8988,-340.8359 477.728,-383.1707 497.1474,-407.6978"/>
<polygon fill="#63b8ff" stroke="#63b8ff" points="494.6121,-410.1362 503.543,-415.8362 500.116,-405.8109 494.6121,-410.1362"/>
</a>
</g>
</g>
<!-- Node22&#45;&gt;Node23 -->
<g id="edge25_Node000022_Node000023" class="edge">
<title>Node22&#45;&gt;Node23</title>
<g id="a_edge25_Node000022_Node000023"><a xlink:title=" ">
<path fill="none" stroke="#63b8ff" d="M365.7388,-302.713C382.2221,-283.6824 421.1935,-241.3806 462,-216.5 464.5027,-214.974 467.1552,-213.5463 469.8796,-212.2164"/>
<polygon fill="#63b8ff" stroke="#63b8ff" points="471.5617,-215.3003 479.3069,-208.0709 468.7439,-208.8925 471.5617,-215.3003"/>
</a>
</g>
</g>
<!-- Node26 -->
<g id="Node000026" class="node">
<title>Node26</title>
<g id="a_Node000026"><a xlink:href="window_8c.html#a6ecfb9f52ac33918ba6f8cd0386b17c2" target="_top" xlink:title="受信ウィンドウで欠番が発生しているか確認し、NACK 番号を返します。">
<polygon fill="#ffffff" stroke="#666666" points="726,-359 596,-359 596,-340 726,-340 726,-359"/>
<text text-anchor="middle" x="661" y="-347" font-family="Helvetica,sans-Serif" font-size="10.00" fill="#000000">window_recv_needs_nack</text>
</a>
</g>
</g>
<!-- Node22&#45;&gt;Node26 -->
<g id="edge30_Node000022_Node000026" class="edge">
<title>Node22&#45;&gt;Node26</title>
<g id="a_edge30_Node000022_Node000026"><a xlink:title=" ">
<path fill="none" stroke="#63b8ff" d="M406.0565,-321.0319C423.6446,-323.9549 443.6848,-327.0922 462,-329.5 502.7509,-334.8574 548.363,-339.5364 585.6282,-343.019"/>
<polygon fill="#63b8ff" stroke="#63b8ff" points="585.6268,-346.5337 595.9065,-343.9691 586.2712,-339.5634 585.6268,-346.5337"/>
</a>
</g>
</g>
<!-- Node27 -->
<g id="Node000027" class="node">
<title>Node27</title>
<g id="a_Node000027"><a xlink:href="window_8c.html#ac134e864859663f32389cf30fe55bc6e" target="_top" xlink:title="受信ウィンドウにパケットを格納します。">
<polygon fill="#ffffff" stroke="#666666" points="560,-321 462,-321 462,-302 560,-302 560,-321"/>
<text text-anchor="middle" x="511" y="-309" font-family="Helvetica,sans-Serif" font-size="10.00" fill="#000000">window_recv_push</text>
</a>
</g>
</g>
<!-- Node22&#45;&gt;Node27 -->
<g id="edge32_Node000022_Node000027" class="edge">
<title>Node22&#45;&gt;Node27</title>
<g id="a_edge32_Node000022_Node000027"><a xlink:title=" ">
<path fill="none" stroke="#63b8ff" d="M406.0684,-312.1836C420.5554,-312.0892 436.598,-311.9847 451.6906,-311.8864"/>
<polygon fill="#63b8ff" stroke="#63b8ff" points="451.9798,-315.3847 461.9568,-311.8195 451.9342,-308.3848 451.9798,-315.3847"/>
</a>
</g>
</g>
<!-- Node23&#45;&gt;Node20 -->
<g id="edge29_Node000023_Node000020" class="edge">
<title>Node23&#45;&gt;Node20</title>
<g id="a_edge29_Node000023_Node000020"><a xlink:title=" ">
<path fill="none" stroke="#63b8ff" d="M543.1788,-190.348C563.6502,-185.1619 590.5228,-178.3542 613.4339,-172.5501"/>
<polygon fill="#63b8ff" stroke="#63b8ff" points="614.4771,-175.8965 623.3113,-170.0478 612.758,-169.1108 614.4771,-175.8965"/>
</a>
</g>
</g>
<!-- Node24 -->
<g id="Node000024" class="node">
<title>Node24</title>
<g id="a_Node000024"><a xlink:href="packet_8c.html#a3f4ec3e4fc9c07b3704ecd8ae082af10" target="_top" xlink:title="NACK パケットを構築します。">
<polygon fill="#ffffff" stroke="#666666" points="710,-207 612,-207 612,-188 710,-188 710,-207"/>
<text text-anchor="middle" x="661" y="-195" font-family="Helvetica,sans-Serif" font-size="10.00" fill="#000000">packet_build_nack</text>
</a>
</g>
</g>
<!-- Node23&#45;&gt;Node24 -->
<g id="edge26_Node000023_Node000024" class="edge">
<title>Node23&#45;&gt;Node24</title>
<g id="a_edge26_Node000023_Node000024"><a xlink:title=" ">
<path fill="none" stroke="#63b8ff" d="M543.1788,-198.2855C560.1857,-198.1721 581.6105,-198.0293 601.5115,-197.8966"/>
<polygon fill="#63b8ff" stroke="#63b8ff" points="601.7717,-201.395 611.7481,-197.8283 601.7249,-194.3952 601.7717,-201.395"/>
</a>
</g>
</g>
<!-- Node25 -->
<g id="Node000025" class="node">
<title>Node25</title>
<g id="a_Node000025"><a xlink:href="packet_8c.html#a479088cf3b9ccf5ebe8891ad2881b196" target="_top" xlink:title=" ">
<polygon fill="#ffffff" stroke="#666666" points="846,-132 762,-132 762,-113 846,-113 846,-132"/>
<text text-anchor="middle" x="804" y="-120" font-family="Helvetica,sans-Serif" font-size="10.00" fill="#000000">fill_session_hdr</text>
</a>
</g>
</g>
<!-- Node24&#45;&gt;Node25 -->
<g id="edge27_Node000024_Node000025" class="edge">
<title>Node24&#45;&gt;Node25</title>
<g id="a_edge27_Node000024_Node000025"><a xlink:title=" ">
<path fill="none" stroke="#63b8ff" d="M701.6745,-187.9114C709.9201,-185.3344 718.3908,-182.2089 726,-178.5 747.7962,-167.8762 770.0045,-151.2467 785.1203,-138.8656"/>
<polygon fill="#63b8ff" stroke="#63b8ff" points="787.7257,-141.2489 793.1439,-132.1443 783.2306,-135.8828 787.7257,-141.2489"/>
</a>
</g>
</g>
<!-- Node25&#45;&gt;Node19 -->
<g id="edge28_Node000025_Node000019" class="edge">
<title>Node25&#45;&gt;Node19</title>
<g id="a_edge28_Node000025_Node000019"><a xlink:title=" ">
<path fill="none" stroke="#63b8ff" d="M846.3269,-116.3558C862.1348,-114.0611 879.8462,-111.4901 894.7245,-109.3303"/>
<polygon fill="#63b8ff" stroke="#63b8ff" points="895.5964,-112.7405 904.9898,-107.8402 894.5907,-105.8131 895.5964,-112.7405"/>
</a>
</g>
</g>
<!-- Node26&#45;&gt;Node15 -->
<g id="edge31_Node000026_Node000015" class="edge">
<title>Node26&#45;&gt;Node15</title>
<g id="a_edge31_Node000026_Node000015"><a xlink:title=" ">
<path fill="none" stroke="#63b8ff" d="M726.223,-349.5C739.0816,-349.5 752.213,-349.5 763.9366,-349.5"/>
<polygon fill="#63b8ff" stroke="#63b8ff" points="764.2591,-353.0001 774.2591,-349.5 764.259,-346.0001 764.2591,-353.0001"/>
</a>
</g>
</g>
<!-- Node27&#45;&gt;Node15 -->
<g id="edge34_Node000027_Node000015" class="edge">
<title>Node27&#45;&gt;Node15</title>
<g id="a_edge34_Node000027_Node000015"><a xlink:title=" ">
<path fill="none" stroke="#63b8ff" d="M560.3647,-313.7435C604.1144,-316.2346 669.6179,-321.1962 726,-330.5 738.5699,-332.5742 752.1076,-335.5895 764.3195,-338.6094"/>
<polygon fill="#63b8ff" stroke="#63b8ff" points="763.661,-342.0533 774.2153,-341.1266 765.3867,-335.2693 763.661,-342.0533"/>
</a>
</g>
</g>
<!-- Node27&#45;&gt;Node28 -->
<g id="edge33_Node000027_Node000028" class="edge">
<title>Node27&#45;&gt;Node28</title>
<g id="a_edge33_Node000027_Node000028"><a xlink:title=" ">
<path fill="none" stroke="#63b8ff" d="M548.8513,-301.911C568.4671,-296.9417 592.6187,-290.8233 613.479,-285.5387"/>
<polygon fill="#63b8ff" stroke="#63b8ff" points="614.5866,-288.8687 623.4209,-283.0201 612.8675,-282.0831 614.5866,-288.8687"/>
</a>
</g>
</g>
<!-- Node29&#45;&gt;Node20 -->
<g id="edge39_Node000029_Node000020" class="edge">
<title>Node29&#45;&gt;Node20</title>
<g id="a_edge39_Node000029_Node000020"><a xlink:title=" ">
<path fill="none" stroke="#63b8ff" d="M544.6629,-131.0279C564.9622,-136.1704 591.1367,-142.8013 613.5163,-148.4708"/>
<polygon fill="#63b8ff" stroke="#63b8ff" points="612.9438,-151.9363 623.4971,-150.9993 614.6629,-145.1506 612.9438,-151.9363"/>
</a>
</g>
</g>
<!-- Node30 -->
<g id="Node000030" class="node">
<title>Node30</title>
<g id="a_Node000030"><a xlink:href="packet_8c.html#a43aeeb2f7222107832ecb58a92598d12" target="_top" xlink:title="再送不能通知 (REJECT) パケットを構築します。">
<polygon fill="#ffffff" stroke="#666666" points="711.5,-132 610.5,-132 610.5,-113 711.5,-113 711.5,-132"/>
<text text-anchor="middle" x="661" y="-120" font-family="Helvetica,sans-Serif" font-size="10.00" fill="#000000">packet_build_reject</text>
</a>
</g>
</g>
<!-- Node29&#45;&gt;Node30 -->
<g id="edge37_Node000029_Node000030" class="edge">
<title>Node29&#45;&gt;Node30</title>
<g id="a_edge37_Node000029_Node000030"><a xlink:title=" ">
<path fill="none" stroke="#63b8ff" d="M544.6629,-122.5C561.0637,-122.5 581.2999,-122.5 600.271,-122.5"/>
<polygon fill="#63b8ff" stroke="#63b8ff" points="600.3476,-126.0001 610.3476,-122.5 600.3475,-119.0001 600.3476,-126.0001"/>
</a>
</g>
</g>
<!-- Node30&#45;&gt;Node25 -->
<g id="edge38_Node000030_Node000025" class="edge">
<title>Node30&#45;&gt;Node25</title>
<g id="a_edge38_Node000030_Node000025"><a xlink:title=" ">
<path fill="none" stroke="#63b8ff" d="M711.8191,-122.5C724.7413,-122.5 738.6497,-122.5 751.6468,-122.5"/>
<polygon fill="#63b8ff" stroke="#63b8ff" points="751.8386,-126.0001 761.8386,-122.5 751.8385,-119.0001 751.8386,-126.0001"/>
</a>
</g>
</g>
<!-- Node31&#45;&gt;Node6 -->
<g id="edge42_Node000031_Node000006" class="edge">
<title>Node31&#45;&gt;Node6</title>
<g id="a_edge42_Node000031_Node000006"><a xlink:title=" ">
<path fill="none" stroke="#63b8ff" d="M404.8076,-506.3557C422.5632,-508.5534 442.7967,-511.0579 460.8053,-513.287"/>
<polygon fill="#63b8ff" stroke="#63b8ff" points="460.4784,-516.7731 470.8326,-514.5281 461.3383,-509.8262 460.4784,-516.7731"/>
</a>
</g>
</g>
<!-- Node32&#45;&gt;Node15 -->
<g id="edge45_Node000032_Node000015" class="edge">
<title>Node32&#45;&gt;Node15</title>
<g id="a_edge45_Node000032_Node000015"><a xlink:title=" ">
<path fill="none" stroke="#63b8ff" d="M405.0852,-357.1211C475.4655,-367.225 611.3537,-382.2621 726,-368.5 738.6491,-366.9816 752.2094,-364.1252 764.4177,-361.0799"/>
<polygon fill="#63b8ff" stroke="#63b8ff" points="765.5111,-364.4119 774.3049,-358.5026 763.7454,-357.6383 765.5111,-364.4119"/>
</a>
</g>
</g>
<!-- Node33&#45;&gt;Node15 -->
<g id="edge48_Node000033_Node000015" class="edge">
<title>Node33&#45;&gt;Node15</title>
<g id="a_edge48_Node000033_Node000015"><a xlink:title=" ">
<path fill="none" stroke="#63b8ff" d="M557.5174,-229.6356C603.1342,-226.0912 673.3116,-226.6839 726,-254.5 758.3847,-271.597 782.4014,-308.4606 794.7168,-330.9079"/>
<polygon fill="#63b8ff" stroke="#63b8ff" points="791.6501,-332.5961 799.4046,-339.8154 797.8446,-329.336 791.6501,-332.5961"/>
</a>
</g>
</g>
<!-- Node33&#45;&gt;Node28 -->
<g id="edge47_Node000033_Node000028" class="edge">
<title>Node33&#45;&gt;Node28</title>
<g id="a_edge47_Node000033_Node000028"><a xlink:title=" ">
<path fill="none" stroke="#63b8ff" d="M548.8513,-245.089C568.4671,-250.0583 592.6187,-256.1767 613.479,-261.4613"/>
<polygon fill="#63b8ff" stroke="#63b8ff" points="612.8675,-264.9169 623.4209,-263.9799 614.5866,-258.1313 612.8675,-264.9169"/>
</a>
</g>
</g>
</g>
</svg>
