<?xml version="1.0" encoding="UTF-8" standalone="no"?>
<!DOCTYPE svg PUBLIC "-//W3C//DTD SVG 1.1//EN"
 "http://www.w3.org/Graphics/SVG/1.1/DTD/svg11.dtd">
<!-- Generated by graphviz version 2.40.1 (0)
 -->
<!-- Title: porter/libsrc/porter/infra/potrLog.c Pages: 1 -->
<svg width="606pt" height="203pt"
 viewBox="0.00 0.00 605.50 203.00" xmlns="http://www.w3.org/2000/svg" xmlns:xlink="http://www.w3.org/1999/xlink">
<g id="graph0" class="graph" transform="scale(1 1) rotate(0) translate(4 199)">
<title>porter/libsrc/porter/infra/potrLog.c</title>
<!-- Node1 -->
<g id="Node000001" class="node">
<title>Node1</title>
<g id="a_Node000001"><a xlink:title="porter ロガー実装。">
<polygon fill="#999999" stroke="#666666" points="348.5,-195 253.5,-195 253.5,-165 348.5,-165 348.5,-195"/>
<text text-anchor="start" x="261.5" y="-183" font-family="Helvetica,sans-Serif" font-size="10.00" fill="#000000">porter/libsrc/porter</text>
<text text-anchor="middle" x="301" y="-172" font-family="Helvetica,sans-Serif" font-size="10.00" fill="#000000">/infra/potrLog.c</text>
</a>
</g>
</g>
<!-- Node2 -->
<g id="Node000002" class="node">
<title>Node2</title>
<g id="a_Node000002"><a xlink:title=" ">
<polygon fill="#e0e0e0" stroke="#999999" points="46,-129 0,-129 0,-110 46,-110 46,-129"/>
<text text-anchor="middle" x="23" y="-117" font-family="Helvetica,sans-Serif" font-size="10.00" fill="#000000">stdio.h</text>
</a>
</g>
</g>
<!-- Node1&#45;&gt;Node2 -->
<g id="edge1_Node000001_Node000002" class="edge">
<title>Node1&#45;&gt;Node2</title>
<g id="a_edge1_Node000001_Node000002"><a xlink:title=" ">
<path fill="none" stroke="#63b8ff" d="M253.1099,-171.3088C205.4756,-162.3877 130.1326,-147.5343 55.9855,-129.0885"/>
<polygon fill="#63b8ff" stroke="#63b8ff" points="56.5596,-125.6241 46.0082,-126.5825 54.8542,-132.4132 56.5596,-125.6241"/>
</a>
</g>
</g>
<!-- Node3 -->
<g id="Node000003" class="node">
<title>Node3</title>
<g id="a_Node000003"><a xlink:title=" ">
<polygon fill="#e0e0e0" stroke="#999999" points="116,-129 64,-129 64,-110 116,-110 116,-129"/>
<text text-anchor="middle" x="90" y="-117" font-family="Helvetica,sans-Serif" font-size="10.00" fill="#000000">stdarg.h</text>
</a>
</g>
</g>
<!-- Node1&#45;&gt;Node3 -->
<g id="edge2_Node000001_Node000003" class="edge">
<title>Node1&#45;&gt;Node3</title>
<g id="a_edge2_Node000001_Node000003"><a xlink:title=" ">
<path fill="none" stroke="#63b8ff" d="M253.3844,-166.3472C214.7755,-155.2769 161.1866,-139.9113 126.0652,-129.841"/>
<polygon fill="#63b8ff" stroke="#63b8ff" points="126.8138,-126.4147 116.2365,-127.0228 124.8844,-133.1435 126.8138,-126.4147"/>
</a>
</g>
</g>
<!-- Node4 -->
<g id="Node000004" class="node">
<title>Node4</title>
<g id="a_Node000004"><a xlink:title=" ">
<polygon fill="#e0e0e0" stroke="#999999" points="183.5,-129 134.5,-129 134.5,-110 183.5,-110 183.5,-129"/>
<text text-anchor="middle" x="159" y="-117" font-family="Helvetica,sans-Serif" font-size="10.00" fill="#000000">string.h</text>
</a>
</g>
</g>
<!-- Node1&#45;&gt;Node4 -->
<g id="edge3_Node000001_Node000004" class="edge">
<title>Node1&#45;&gt;Node4</title>
<g id="a_edge3_Node000001_Node000004"><a xlink:title=" ">
<path fill="none" stroke="#63b8ff" d="M265.5337,-164.8894C242.6351,-155.1333 213.0926,-142.5465 190.9279,-133.1031"/>
<polygon fill="#63b8ff" stroke="#63b8ff" points="192.1898,-129.8363 181.618,-129.1366 189.446,-136.2762 192.1898,-129.8363"/>
</a>
</g>
</g>
<!-- Node5 -->
<g id="Node000005" class="node">
<title>Node5</title>
<g id="a_Node000005"><a xlink:title=" ">
<polygon fill="#e0e0e0" stroke="#999999" points="254.5,-129 201.5,-129 201.5,-110 254.5,-110 254.5,-129"/>
<text text-anchor="middle" x="228" y="-117" font-family="Helvetica,sans-Serif" font-size="10.00" fill="#000000">syslog.h</text>
</a>
</g>
</g>
<!-- Node1&#45;&gt;Node5 -->
<g id="edge4_Node000001_Node000005" class="edge">
<title>Node1&#45;&gt;Node5</title>
<g id="a_edge4_Node000001_Node000005"><a xlink:title=" ">
<path fill="none" stroke="#63b8ff" d="M282.579,-164.7333C271.8084,-155.807 258.228,-144.552 247.3082,-135.502"/>
<polygon fill="#63b8ff" stroke="#63b8ff" points="249.5,-132.7727 239.5671,-129.0864 245.0332,-138.1623 249.5,-132.7727"/>
</a>
</g>
</g>
<!-- Node6 -->
<g id="Node000006" class="node">
<title>Node6</title>
<g id="a_Node000006"><a xlink:title=" ">
<polygon fill="#e0e0e0" stroke="#999999" points="329.5,-129 272.5,-129 272.5,-110 329.5,-110 329.5,-129"/>
<text text-anchor="middle" x="301" y="-117" font-family="Helvetica,sans-Serif" font-size="10.00" fill="#000000">pthread.h</text>
</a>
</g>
</g>
<!-- Node1&#45;&gt;Node6 -->
<g id="edge5_Node000001_Node000006" class="edge">
<title>Node1&#45;&gt;Node6</title>
<g id="a_edge5_Node000001_Node000006"><a xlink:title=" ">
<path fill="none" stroke="#63b8ff" d="M301,-164.7333C301,-157.0322 301,-147.5977 301,-139.3414"/>
<polygon fill="#63b8ff" stroke="#63b8ff" points="304.5001,-139.0864 301,-129.0864 297.5001,-139.0864 304.5001,-139.0864"/>
</a>
</g>
</g>
<!-- Node7 -->
<g id="Node000007" class="node">
<title>Node7</title>
<g id="a_Node000007"><a xlink:title=" ">
<polygon fill="#e0e0e0" stroke="#999999" points="392,-129 348,-129 348,-110 392,-110 392,-129"/>
<text text-anchor="middle" x="370" y="-117" font-family="Helvetica,sans-Serif" font-size="10.00" fill="#000000">time.h</text>
</a>
</g>
</g>
<!-- Node1&#45;&gt;Node7 -->
<g id="edge6_Node000001_Node000007" class="edge">
<title>Node1&#45;&gt;Node7</title>
<g id="a_edge6_Node000001_Node000007"><a xlink:title=" ">
<path fill="none" stroke="#63b8ff" d="M318.4116,-164.7333C328.4922,-155.8945 341.1769,-144.7724 351.4455,-135.7688"/>
<polygon fill="#63b8ff" stroke="#63b8ff" points="353.8552,-138.3109 359.0667,-129.0864 349.2402,-133.0475 353.8552,-138.3109"/>
</a>
</g>
</g>
<!-- Node8 -->
<g id="Node000008" class="node">
<title>Node8</title>
<g id="a_Node000008"><a xlink:href="porter__const_8h.html" target="_top" xlink:title="通信ライブラリの定数ファイル。">
<polygon fill="#ffffff" stroke="#666666" points="459.5,-19 380.5,-19 380.5,0 459.5,0 459.5,-19"/>
<text text-anchor="middle" x="420" y="-7" font-family="Helvetica,sans-Serif" font-size="10.00" fill="#000000">porter_const.h</text>
</a>
</g>
</g>
<!-- Node1&#45;&gt;Node8 -->
<g id="edge7_Node000001_Node000008" class="edge">
<title>Node1&#45;&gt;Node8</title>
<g id="a_edge7_Node000001_Node000008"><a xlink:title=" ">
<path fill="none" stroke="#63b8ff" d="M348.6628,-166.2922C367.7936,-158.4118 388.2829,-146.4995 401,-129 422.4187,-99.5264 423.5364,-55.1393 422.0295,-29.5744"/>
<polygon fill="#63b8ff" stroke="#63b8ff" points="425.4925,-28.9673 421.2159,-19.274 418.5142,-29.5185 425.4925,-28.9673"/>
</a>
</g>
</g>
<!-- Node9 -->
<g id="Node000009" class="node">
<title>Node9</title>
<g id="a_Node000009"><a xlink:href="porter_8h.html" target="_top" xlink:title="通信ライブラリ (動的リンク用) のヘッダーファイル。">
<polygon fill="#ffffff" stroke="#666666" points="497.5,-129 448.5,-129 448.5,-110 497.5,-110 497.5,-129"/>
<text text-anchor="middle" x="473" y="-117" font-family="Helvetica,sans-Serif" font-size="10.00" fill="#000000">porter.h</text>
</a>
</g>
</g>
<!-- Node1&#45;&gt;Node9 -->
<g id="edge8_Node000001_Node000009" class="edge">
<title>Node1&#45;&gt;Node9</title>
<g id="a_edge8_Node000001_Node000009"><a xlink:title=" ">
<path fill="none" stroke="#63b8ff" d="M343.9592,-164.8894C373.2035,-154.6028 411.3944,-141.1694 438.6241,-131.5915"/>
<polygon fill="#63b8ff" stroke="#63b8ff" points="439.8512,-134.8702 448.1232,-128.2503 437.5284,-128.2668 439.8512,-134.8702"/>
</a>
</g>
</g>
<!-- Node13 -->
<g id="Node000013" class="node">
<title>Node13</title>
<g id="a_Node000013"><a xlink:href="potrLog_8h.html" target="_top" xlink:title="porter 内部ログマクロ定義ヘッダー。">
<polygon fill="#ffffff" stroke="#666666" points="572.5,-129 515.5,-129 515.5,-110 572.5,-110 572.5,-129"/>
<text text-anchor="middle" x="544" y="-117" font-family="Helvetica,sans-Serif" font-size="10.00" fill="#000000">potrLog.h</text>
</a>
</g>
</g>
<!-- Node1&#45;&gt;Node13 -->
<g id="edge13_Node000001_Node000013" class="edge">
<title>Node1&#45;&gt;Node13</title>
<g id="a_edge13_Node000001_Node000013"><a xlink:title=" ">
<path fill="none" stroke="#63b8ff" d="M348.8975,-168.266C388.4642,-158.5448 446.3718,-144.2533 505.4487,-129.3781"/>
<polygon fill="#63b8ff" stroke="#63b8ff" points="506.4818,-132.7272 515.323,-126.889 504.7708,-125.9395 506.4818,-132.7272"/>
</a>
</g>
</g>
<!-- Node10 -->
<g id="Node000010" class="node">
<title>Node10</title>
<g id="a_Node000010"><a xlink:href="porter__type_8h.html" target="_top" xlink:title="通信ライブラリの型定義ファイル。">
<polygon fill="#ffffff" stroke="#666666" points="541,-74 467,-74 467,-55 541,-55 541,-74"/>
<text text-anchor="middle" x="504" y="-62" font-family="Helvetica,sans-Serif" font-size="10.00" fill="#000000">porter_type.h</text>
</a>
</g>
</g>
<!-- Node9&#45;&gt;Node10 -->
<g id="edge9_Node000009_Node000010" class="edge">
<title>Node9&#45;&gt;Node10</title>
<g id="a_edge9_Node000009_Node000010"><a xlink:title=" ">
<path fill="none" stroke="#63b8ff" d="M478.3998,-109.9197C482.5273,-102.5967 488.3473,-92.2709 493.3953,-83.3147"/>
<polygon fill="#63b8ff" stroke="#63b8ff" points="496.5922,-84.7709 498.4534,-74.3408 490.4941,-81.3338 496.5922,-84.7709"/>
</a>
</g>
</g>
<!-- Node10&#45;&gt;Node8 -->
<g id="edge12_Node000010_Node000008" class="edge">
<title>Node10&#45;&gt;Node8</title>
<g id="a_edge12_Node000010_Node000008"><a xlink:title=" ">
<path fill="none" stroke="#63b8ff" d="M489.3683,-54.9197C476.6784,-46.6109 458.0846,-34.4363 443.341,-24.7828"/>
<polygon fill="#63b8ff" stroke="#63b8ff" points="445.0293,-21.7048 434.7459,-19.155 441.1948,-27.5611 445.0293,-21.7048"/>
</a>
</g>
</g>
<!-- Node11 -->
<g id="Node000011" class="node">
<title>Node11</title>
<g id="a_Node000011"><a xlink:title=" ">
<polygon fill="#e0e0e0" stroke="#999999" points="530,-19 478,-19 478,0 530,0 530,-19"/>
<text text-anchor="middle" x="504" y="-7" font-family="Helvetica,sans-Serif" font-size="10.00" fill="#000000">stddef.h</text>
</a>
</g>
</g>
<!-- Node10&#45;&gt;Node11 -->
<g id="edge10_Node000010_Node000011" class="edge">
<title>Node10&#45;&gt;Node11</title>
<g id="a_edge10_Node000010_Node000011"><a xlink:title=" ">
<path fill="none" stroke="#63b8ff" d="M504,-54.9197C504,-47.9083 504,-38.1442 504,-29.4652"/>
<polygon fill="#63b8ff" stroke="#63b8ff" points="507.5001,-29.3408 504,-19.3408 500.5001,-29.3409 507.5001,-29.3408"/>
</a>
</g>
</g>
<!-- Node12 -->
<g id="Node000012" class="node">
<title>Node12</title>
<g id="a_Node000012"><a xlink:title=" ">
<polygon fill="#e0e0e0" stroke="#999999" points="597.5,-19 548.5,-19 548.5,0 597.5,0 597.5,-19"/>
<text text-anchor="middle" x="573" y="-7" font-family="Helvetica,sans-Serif" font-size="10.00" fill="#000000">stdint.h</text>
</a>
</g>
</g>
<!-- Node10&#45;&gt;Node12 -->
<g id="edge11_Node000010_Node000012" class="edge">
<title>Node10&#45;&gt;Node12</title>
<g id="a_edge11_Node000010_Node000012"><a xlink:title=" ">
<path fill="none" stroke="#63b8ff" d="M516.0189,-54.9197C526.0856,-46.8956 540.6753,-35.2661 552.5713,-25.7837"/>
<polygon fill="#63b8ff" stroke="#63b8ff" points="555.0161,-28.3109 560.6542,-19.3408 550.6529,-22.8371 555.0161,-28.3109"/>
</a>
</g>
</g>
<!-- Node13&#45;&gt;Node10 -->
<g id="edge14_Node000013_Node000010" class="edge">
<title>Node13&#45;&gt;Node10</title>
<g id="a_edge14_Node000013_Node000010"><a xlink:title=" ">
<path fill="none" stroke="#63b8ff" d="M537.0325,-109.9197C531.5367,-102.363 523.7154,-91.6087 517.063,-82.4616"/>
<polygon fill="#63b8ff" stroke="#63b8ff" points="519.8693,-80.3696 511.157,-74.3408 514.2081,-84.4868 519.8693,-80.3696"/>
</a>
</g>
</g>
</g>
</svg>
