<?xml version="1.0" encoding="UTF-8" standalone="no"?>
<!DOCTYPE svg PUBLIC "-//W3C//DTD SVG 1.1//EN"
 "http://www.w3.org/Graphics/SVG/1.1/DTD/svg11.dtd">
<!-- Generated by graphviz version 2.40.1 (0)
 -->
<!-- Title: comm_recv_thread_stop Pages: 1 -->
<svg width="300pt" height="27pt"
 viewBox="0.00 0.00 300.00 27.00" xmlns="http://www.w3.org/2000/svg" xmlns:xlink="http://www.w3.org/1999/xlink">
<g id="graph0" class="graph" transform="scale(1 1) rotate(0) translate(4 23)">
<title>comm_recv_thread_stop</title>
<!-- Node1 -->
<g id="Node000001" class="node">
<title>Node1</title>
<g id="a_Node000001"><a xlink:title="受信スレッドを停止します。">
<polygon fill="#999999" stroke="#666666" points="292,-19 168,-19 168,0 292,0 292,-19"/>
<text text-anchor="middle" x="230" y="-7" font-family="Helvetica,sans-Serif" font-size="10.00" fill="#000000">comm_recv_thread_stop</text>
</a>
</g>
</g>
<!-- Node2 -->
<g id="Node000002" class="node">
<title>Node2</title>
<g id="a_Node000002"><a xlink:href="potrClose_8c.html#a51c433a52d99667ce32f68845db2379e" target="_top" xlink:title="サービスを閉じます。">
<polygon fill="#ffffff" stroke="#666666" points="132,-19 74,-19 74,0 132,0 132,-19"/>
<text text-anchor="middle" x="103" y="-7" font-family="Helvetica,sans-Serif" font-size="10.00" fill="#000000">potrClose</text>
</a>
</g>
</g>
<!-- Node1&#45;&gt;Node2 -->
<g id="edge1_Node000001_Node000002" class="edge">
<title>Node1&#45;&gt;Node2</title>
<g id="a_edge1_Node000001_Node000002"><a xlink:title=" ">
<path fill="none" stroke="#63b8ff" d="M157.7834,-9.5C148.7993,-9.5 140.0526,-9.5 132.2809,-9.5"/>
<polygon fill="#63b8ff" stroke="#63b8ff" points="157.9882,-13.0001 167.9882,-9.5 157.9881,-6.0001 157.9882,-13.0001"/>
</a>
</g>
</g>
<!-- Node3 -->
<g id="Node000003" class="node">
<title>Node3</title>
<g id="a_Node000003"><a xlink:href="recv_8c.html#a0ddf1224851353fc92bfbff6f499fa97" target="_top" xlink:title="メインエントリーポイント。">
<polygon fill="#ffffff" stroke="#666666" points="38,-19 0,-19 0,0 38,0 38,-19"/>
<text text-anchor="middle" x="19" y="-7" font-family="Helvetica,sans-Serif" font-size="10.00" fill="#000000">main</text>
</a>
</g>
</g>
<!-- Node2&#45;&gt;Node3 -->
<g id="edge2_Node000002_Node000003" class="edge">
<title>Node2&#45;&gt;Node3</title>
<g id="a_edge2_Node000002_Node000003"><a xlink:title=" ">
<path fill="none" stroke="#63b8ff" d="M63.4698,-9.5C54.6872,-9.5 45.7601,-9.5 38.2318,-9.5"/>
<polygon fill="#63b8ff" stroke="#63b8ff" points="63.6209,-13.0001 73.6209,-9.5 63.6208,-6.0001 63.6209,-13.0001"/>
</a>
</g>
</g>
</g>
</svg>
