<?xml version="1.0" encoding="UTF-8" standalone="no"?>
<!DOCTYPE svg PUBLIC "-//W3C//DTD SVG 1.1//EN"
 "http://www.w3.org/Graphics/SVG/1.1/DTD/svg11.dtd">
<!-- Generated by graphviz version 2.40.1 (0)
 -->
<!-- Title: drain_recv_window Pages: 1 -->
<svg width="485pt" height="138pt"
 viewBox="0.00 0.00 485.00 138.00" xmlns="http://www.w3.org/2000/svg" xmlns:xlink="http://www.w3.org/1999/xlink">

<svg id="main" version="1.1" xmlns="http://www.w3.org/2000/svg" xmlns:xlink="http://www.w3.org/1999/xlink" xml:space="preserve">

<style type="text/css"><![CDATA[
.node, .edge {opacity: 0.7;}
.node.selected, .edge.selected {opacity: 1;}
.edge:hover path { stroke: red; }
.edge:hover polygon { stroke: red; fill: red; }
]]></style>
<script type="application/ecmascript" xlink:href="svg.min.js"/>
<svg id="graph" class="graph">
<g id="graph0" class="graph" transform="scale(1 1) rotate(0) translate(4 134)">
<title>drain_recv_window</title>
<!-- Node1 -->
<g id="Node000001" class="node">
<title>Node1</title>
<g id="a_Node000001"><a xlink:title=" ">
<polygon fill="#999999" stroke="#666666" points="98,-74 0,-74 0,-55 98,-55 98,-74"/>
<text text-anchor="middle" x="49" y="-62" font-family="Helvetica,sans-Serif" font-size="10.00" fill="#000000">drain_recv_window</text>
</a>
</g>
</g>
<!-- Node2 -->
<g id="Node000002" class="node">
<title>Node2</title>
<g id="a_Node000002"><a xlink:href="potrRecvThread_8c.html#ae3c092bf9cdbee7a84a5ee97cb550930" target="_top" xlink:title=" ">
<polygon fill="#ffffff" stroke="#666666" points="244,-130 134,-130 134,-111 244,-111 244,-130"/>
<text text-anchor="middle" x="189" y="-118" font-family="Helvetica,sans-Serif" font-size="10.00" fill="#000000">deliver_payload_elem</text>
</a>
</g>
</g>
<!-- Node1&#45;&gt;Node2 -->
<g id="edge1_Node000001_Node000002" class="edge">
<title>Node1&#45;&gt;Node2</title>
<g id="a_edge1_Node000001_Node000002"><a xlink:title=" ">
<path fill="none" stroke="#63b8ff" d="M69.0162,-74.1593C86.0851,-82.2237 111.3796,-93.7694 134,-102.5 138.5635,-104.2613 143.3806,-106.0038 148.1897,-107.6708"/>
<polygon fill="#63b8ff" stroke="#63b8ff" points="147.3719,-111.0887 157.9661,-110.9686 149.6093,-104.4559 147.3719,-111.0887"/>
</a>
</g>
</g>
<!-- Node5 -->
<g id="Node000005" class="node">
<title>Node5</title>
<g id="a_Node000005"><a xlink:href="potrRecvThread_8c.html#adbd11557ab385826d115d2a5eea41e7a" target="_top" xlink:title=" ">
<polygon fill="#ffffff" stroke="#666666" points="238,-93 140,-93 140,-74 238,-74 238,-93"/>
<text text-anchor="middle" x="189" y="-81" font-family="Helvetica,sans-Serif" font-size="10.00" fill="#000000">notify_health_alive</text>
</a>
</g>
</g>
<!-- Node1&#45;&gt;Node5 -->
<g id="edge4_Node000001_Node000005" class="edge">
<title>Node1&#45;&gt;Node5</title>
<g id="a_edge4_Node000001_Node000005"><a xlink:title=" ">
<path fill="none" stroke="#63b8ff" d="M98.3588,-71.1987C108.3961,-72.5609 119.0553,-74.0075 129.4042,-75.412"/>
<polygon fill="#63b8ff" stroke="#63b8ff" points="129.2352,-78.9211 139.6151,-76.7978 130.1766,-71.9847 129.2352,-78.9211"/>
</a>
</g>
</g>
<!-- Node6 -->
<g id="Node000006" class="node">
<title>Node6</title>
<g id="a_Node000006"><a xlink:href="packet_8c.html#a794632611e7b50ce887e971786a0d5a3" target="_top" xlink:title="データパケットから次のペイロードエレメントを取り出します。">
<polygon fill="#ffffff" stroke="#666666" points="242.5,-56 135.5,-56 135.5,-37 242.5,-37 242.5,-56"/>
<text text-anchor="middle" x="189" y="-44" font-family="Helvetica,sans-Serif" font-size="10.00" fill="#000000">packet_unpack_next</text>
</a>
</g>
</g>
<!-- Node1&#45;&gt;Node6 -->
<g id="edge5_Node000001_Node000006" class="edge">
<title>Node1&#45;&gt;Node6</title>
<g id="a_edge5_Node000001_Node000006"><a xlink:title=" ">
<path fill="none" stroke="#63b8ff" d="M98.3588,-58.1539C107.0529,-57.0361 116.2135,-55.8583 125.235,-54.6984"/>
<polygon fill="#63b8ff" stroke="#63b8ff" points="125.857,-58.1473 135.329,-53.4006 124.9643,-51.2044 125.857,-58.1473"/>
</a>
</g>
</g>
<!-- Node7 -->
<g id="Node000007" class="node">
<title>Node7</title>
<g id="a_Node000007"><a xlink:href="window_8c.html#a883a182a547ff084957069939b131527" target="_top" xlink:title="受信ウィンドウから順序整列済みパケットを取り出します。">
<polygon fill="#ffffff" stroke="#666666" points="235.5,-19 142.5,-19 142.5,0 235.5,0 235.5,-19"/>
<text text-anchor="middle" x="189" y="-7" font-family="Helvetica,sans-Serif" font-size="10.00" fill="#000000">window_recv_pop</text>
</a>
</g>
</g>
<!-- Node1&#45;&gt;Node7 -->
<g id="edge6_Node000001_Node000007" class="edge">
<title>Node1&#45;&gt;Node7</title>
<g id="a_edge6_Node000001_Node000007"><a xlink:title=" ">
<path fill="none" stroke="#63b8ff" d="M69.3876,-54.9795C86.4683,-47.1601 111.5856,-36.0245 134,-27.5 138.5721,-25.7612 143.3945,-24.0326 148.2066,-22.3734"/>
<polygon fill="#63b8ff" stroke="#63b8ff" points="149.6239,-25.5895 157.9862,-19.0839 147.3921,-18.9548 149.6239,-25.5895"/>
</a>
</g>
</g>
<!-- Node3 -->
<g id="Node000003" class="node">
<title>Node3</title>
<g id="a_Node000003"><a xlink:href="potrRecvThread_8c.html#a6c210bf450de8b4bc7b00a665ab436f9" target="_top" xlink:title=" ">
<polygon fill="#ffffff" stroke="#666666" points="349,-130 280,-130 280,-111 349,-111 349,-130"/>
<text text-anchor="middle" x="314.5" y="-118" font-family="Helvetica,sans-Serif" font-size="10.00" fill="#000000">recv_deliver</text>
</a>
</g>
</g>
<!-- Node2&#45;&gt;Node3 -->
<g id="edge2_Node000002_Node000003" class="edge">
<title>Node2&#45;&gt;Node3</title>
<g id="a_edge2_Node000002_Node000003"><a xlink:title=" ">
<path fill="none" stroke="#63b8ff" d="M244.0461,-120.5C252.5668,-120.5 261.2798,-120.5 269.5439,-120.5"/>
<polygon fill="#63b8ff" stroke="#63b8ff" points="269.7236,-124.0001 279.7235,-120.5 269.7235,-117.0001 269.7236,-124.0001"/>
</a>
</g>
</g>
<!-- Node4 -->
<g id="Node000004" class="node">
<title>Node4</title>
<g id="a_Node000004"><a xlink:href="compress__linux_8c.html#a9b4c1ab5034e8a243544747d2efdcd21" target="_top" xlink:title="圧縮データを解凍します。">
<polygon fill="#ffffff" stroke="#666666" points="477,-130 385,-130 385,-111 477,-111 477,-130"/>
<text text-anchor="middle" x="431" y="-118" font-family="Helvetica,sans-Serif" font-size="10.00" fill="#000000">potr_decompress</text>
</a>
</g>
</g>
<!-- Node3&#45;&gt;Node4 -->
<g id="edge3_Node000003_Node000004" class="edge">
<title>Node3&#45;&gt;Node4</title>
<g id="a_edge3_Node000003_Node000004"><a xlink:title=" ">
<path fill="none" stroke="#63b8ff" d="M349.1384,-120.5C357.141,-120.5 365.8593,-120.5 374.5251,-120.5"/>
<polygon fill="#63b8ff" stroke="#63b8ff" points="374.6279,-124.0001 384.6279,-120.5 374.6279,-117.0001 374.6279,-124.0001"/>
</a>
</g>
</g>
<!-- Node8 -->
<g id="Node000008" class="node">
<title>Node8</title>
<g id="a_Node000008"><a xlink:href="window_8c.html#ad5f53882d6cd6075a78e83b94fb62cc3" target="_top" xlink:title=" ">
<polygon fill="#ffffff" stroke="#666666" points="344,-19 285,-19 285,0 344,0 344,-19"/>
<text text-anchor="middle" x="314.5" y="-7" font-family="Helvetica,sans-Serif" font-size="10.00" fill="#000000">win_index</text>
</a>
</g>
</g>
<!-- Node7&#45;&gt;Node8 -->
<g id="edge7_Node000007_Node000008" class="edge">
<title>Node7&#45;&gt;Node8</title>
<g id="a_edge7_Node000007_Node000008"><a xlink:title=" ">
<path fill="none" stroke="#63b8ff" d="M235.7316,-9.5C248.5807,-9.5 262.3902,-9.5 274.8021,-9.5"/>
<polygon fill="#63b8ff" stroke="#63b8ff" points="274.8477,-13.0001 284.8477,-9.5 274.8476,-6.0001 274.8477,-13.0001"/>
</a>
</g>
</g>
</g>
</svg>
</svg>

<style type='text/css'>
<![CDATA[
[data-mouse-over-selected='false'] { opacity: 0.7; }
[data-mouse-over-selected='true']  { opacity: 1.0; }
]]>
</style>
<script type="application/ecmascript"><![CDATA[
document.addEventListener('DOMContentLoaded', (event) => {
  highlightEdges();
  highlightAdjacentNodes();
});
]]></script>
</svg>
