<?xml version="1.0" encoding="UTF-8" standalone="no"?>
<!DOCTYPE svg PUBLIC "-//W3C//DTD SVG 1.1//EN"
 "http://www.w3.org/Graphics/SVG/1.1/DTD/svg11.dtd">
<!-- Generated by graphviz version 2.40.1 (0)
 -->
<!-- Title: get_monotonic Pages: 1 -->
<svg width="724pt" height="64pt"
 viewBox="0.00 0.00 724.00 64.00" xmlns="http://www.w3.org/2000/svg" xmlns:xlink="http://www.w3.org/1999/xlink">
<g id="graph0" class="graph" transform="scale(1 1) rotate(0) translate(4 60)">
<title>get_monotonic</title>
<!-- Node1 -->
<g id="Node000001" class="node">
<title>Node1</title>
<g id="a_Node000001"><a xlink:title=" ">
<polygon fill="#999999" stroke="#666666" points="716,-37 636,-37 636,-18 716,-18 716,-37"/>
<text text-anchor="middle" x="676" y="-25" font-family="Helvetica,sans-Serif" font-size="10.00" fill="#000000">get_monotonic</text>
</a>
</g>
</g>
<!-- Node2 -->
<g id="Node000002" class="node">
<title>Node2</title>
<g id="a_Node000002"><a xlink:href="potrRecvThread_8c.html#acffd59e7efedff4fe46050ebfb68be25" target="_top" xlink:title=" ">
<polygon fill="#ffffff" stroke="#666666" points="600,-56 488,-56 488,-37 600,-37 600,-56"/>
<text text-anchor="middle" x="544" y="-44" font-family="Helvetica,sans-Serif" font-size="10.00" fill="#000000">check_health_timeout</text>
</a>
</g>
</g>
<!-- Node1&#45;&gt;Node2 -->
<g id="edge1_Node000001_Node000002" class="edge">
<title>Node1&#45;&gt;Node2</title>
<g id="a_edge1_Node000001_Node000002"><a xlink:title=" ">
<path fill="none" stroke="#63b8ff" d="M625.6926,-34.7412C617.3289,-35.9451 608.6083,-37.2003 600.1115,-38.4233"/>
<polygon fill="#63b8ff" stroke="#63b8ff" points="626.2791,-38.193 635.6784,-33.3039 625.2817,-31.2644 626.2791,-38.193"/>
</a>
</g>
</g>
<!-- Node7 -->
<g id="Node000007" class="node">
<title>Node7</title>
<g id="a_Node000007"><a xlink:href="potrRecvThread_8c.html#a7ee78d472443c5ffd31c52cb06300627" target="_top" xlink:title=" ">
<polygon fill="#ffffff" stroke="#666666" points="591,-19 497,-19 497,0 591,0 591,-19"/>
<text text-anchor="middle" x="544" y="-7" font-family="Helvetica,sans-Serif" font-size="10.00" fill="#000000">update_path_recv</text>
</a>
</g>
</g>
<!-- Node1&#45;&gt;Node7 -->
<g id="edge6_Node000001_Node000007" class="edge">
<title>Node1&#45;&gt;Node7</title>
<g id="a_edge6_Node000001_Node000007"><a xlink:title=" ">
<path fill="none" stroke="#63b8ff" d="M625.4988,-20.6135C614.1717,-19.0689 602.1991,-17.4362 591.0204,-15.9119"/>
<polygon fill="#63b8ff" stroke="#63b8ff" points="625.2972,-24.1183 635.6784,-22.0016 626.243,-17.1825 625.2972,-24.1183"/>
</a>
</g>
</g>
<!-- Node3 -->
<g id="Node000003" class="node">
<title>Node3</title>
<g id="a_Node000003"><a xlink:href="potrRecvThread_8c.html#a300c2d6c99e3491d0ee4c7cb4de36146" target="_top" xlink:title=" ">
<polygon fill="#ffffff" stroke="#666666" points="452,-37 360,-37 360,-18 452,-18 452,-37"/>
<text text-anchor="middle" x="406" y="-25" font-family="Helvetica,sans-Serif" font-size="10.00" fill="#000000">recv_thread_func</text>
</a>
</g>
</g>
<!-- Node2&#45;&gt;Node3 -->
<g id="edge2_Node000002_Node000003" class="edge">
<title>Node2&#45;&gt;Node3</title>
<g id="a_edge2_Node000002_Node000003"><a xlink:title=" ">
<path fill="none" stroke="#63b8ff" d="M477.831,-37.3898C469.2287,-36.2054 460.5677,-35.0129 452.3839,-33.8862"/>
<polygon fill="#63b8ff" stroke="#63b8ff" points="477.4862,-40.8752 487.8701,-38.772 478.441,-33.9407 477.4862,-40.8752"/>
</a>
</g>
</g>
<!-- Node4 -->
<g id="Node000004" class="node">
<title>Node4</title>
<g id="a_Node000004"><a xlink:href="potrRecvThread_8c.html#a1006d5ccaf47db6c24908eb7ae366505" target="_top" xlink:title="受信スレッドを起動します。">
<polygon fill="#ffffff" stroke="#666666" points="324,-37 199,-37 199,-18 324,-18 324,-37"/>
<text text-anchor="middle" x="261.5" y="-25" font-family="Helvetica,sans-Serif" font-size="10.00" fill="#000000">comm_recv_thread_start</text>
</a>
</g>
</g>
<!-- Node3&#45;&gt;Node4 -->
<g id="edge3_Node000003_Node000004" class="edge">
<title>Node3&#45;&gt;Node4</title>
<g id="a_edge3_Node000003_Node000004"><a xlink:title=" ">
<path fill="none" stroke="#63b8ff" d="M349.7793,-27.5C341.345,-27.5 332.6039,-27.5 324.0476,-27.5"/>
<polygon fill="#63b8ff" stroke="#63b8ff" points="349.882,-31.0001 359.882,-27.5 349.882,-24.0001 349.882,-31.0001"/>
</a>
</g>
</g>
<!-- Node5 -->
<g id="Node000005" class="node">
<title>Node5</title>
<g id="a_Node000005"><a xlink:href="potrOpenService_8c.html#a8ce1599677086e0c54400b696ed28680" target="_top" xlink:title="設定ファイルから指定サービスを開きます。">
<polygon fill="#ffffff" stroke="#666666" points="163,-37 74,-37 74,-18 163,-18 163,-37"/>
<text text-anchor="middle" x="118.5" y="-25" font-family="Helvetica,sans-Serif" font-size="10.00" fill="#000000">potrOpenService</text>
</a>
</g>
</g>
<!-- Node4&#45;&gt;Node5 -->
<g id="edge4_Node000004_Node000005" class="edge">
<title>Node4&#45;&gt;Node5</title>
<g id="a_edge4_Node000004_Node000005"><a xlink:title=" ">
<path fill="none" stroke="#63b8ff" d="M188.5984,-27.5C179.9114,-27.5 171.252,-27.5 163.1334,-27.5"/>
<polygon fill="#63b8ff" stroke="#63b8ff" points="188.7782,-31.0001 198.7781,-27.5 188.7781,-24.0001 188.7782,-31.0001"/>
</a>
</g>
</g>
<!-- Node6 -->
<g id="Node000006" class="node">
<title>Node6</title>
<g id="a_Node000006"><a xlink:href="recv_8c.html#a0ddf1224851353fc92bfbff6f499fa97" target="_top" xlink:title="メインエントリーポイント。">
<polygon fill="#ffffff" stroke="#666666" points="38,-37 0,-37 0,-18 38,-18 38,-37"/>
<text text-anchor="middle" x="19" y="-25" font-family="Helvetica,sans-Serif" font-size="10.00" fill="#000000">main</text>
</a>
</g>
</g>
<!-- Node5&#45;&gt;Node6 -->
<g id="edge5_Node000005_Node000006" class="edge">
<title>Node5&#45;&gt;Node6</title>
<g id="a_edge5_Node000005_Node000006"><a xlink:title=" ">
<path fill="none" stroke="#63b8ff" d="M63.8932,-27.5C54.615,-27.5 45.5643,-27.5 38.0485,-27.5"/>
<polygon fill="#63b8ff" stroke="#63b8ff" points="63.9885,-31.0001 73.9884,-27.5 63.9884,-24.0001 63.9885,-31.0001"/>
</a>
</g>
</g>
<!-- Node7&#45;&gt;Node3 -->
<g id="edge7_Node000007_Node000003" class="edge">
<title>Node7&#45;&gt;Node3</title>
<g id="a_edge7_Node000007_Node000003"><a xlink:title=" ">
<path fill="none" stroke="#63b8ff" d="M486.945,-16.942C475.4519,-18.4411 463.5028,-19.9996 452.426,-21.4444"/>
<polygon fill="#63b8ff" stroke="#63b8ff" points="487.4309,-20.4083 496.8942,-15.6442 486.5255,-13.4671 487.4309,-20.4083"/>
</a>
</g>
</g>
</g>
</svg>
