<?xml version="1.0" encoding="UTF-8" standalone="no"?>
<!DOCTYPE svg PUBLIC "-//W3C//DTD SVG 1.1//EN"
 "http://www.w3.org/Graphics/SVG/1.1/DTD/svg11.dtd">
<!-- Generated by graphviz version 2.40.1 (0)
 -->
<!-- Title: notify_health_alive Pages: 1 -->
<svg width="861pt" height="84pt"
 viewBox="0.00 0.00 861.00 84.00" xmlns="http://www.w3.org/2000/svg" xmlns:xlink="http://www.w3.org/1999/xlink">
<g id="graph0" class="graph" transform="scale(1 1) rotate(0) translate(4 80)">
<title>notify_health_alive</title>
<!-- Node1 -->
<g id="Node000001" class="node">
<title>Node1</title>
<g id="a_Node000001"><a xlink:title=" ">
<polygon fill="#999999" stroke="#666666" points="853,-19 755,-19 755,0 853,0 853,-19"/>
<text text-anchor="middle" x="804" y="-7" font-family="Helvetica,sans-Serif" font-size="10.00" fill="#000000">notify_health_alive</text>
</a>
</g>
</g>
<!-- Node2 -->
<g id="Node000002" class="node">
<title>Node2</title>
<g id="a_Node000002"><a xlink:href="potrRecvThread_8c.html#a25a97682fd79b97dfa94ebc3a374a326" target="_top" xlink:title=" ">
<polygon fill="#ffffff" stroke="#666666" points="719,-38 621,-38 621,-19 719,-19 719,-38"/>
<text text-anchor="middle" x="670" y="-26" font-family="Helvetica,sans-Serif" font-size="10.00" fill="#000000">drain_recv_window</text>
</a>
</g>
</g>
<!-- Node1&#45;&gt;Node2 -->
<g id="edge1_Node000001_Node000002" class="edge">
<title>Node1&#45;&gt;Node2</title>
<g id="a_edge1_Node000001_Node000002"><a xlink:title=" ">
<path fill="none" stroke="#63b8ff" d="M744.8826,-17.8823C736.2816,-19.1019 727.5047,-20.3463 719.1298,-21.5338"/>
<polygon fill="#63b8ff" stroke="#63b8ff" points="745.4547,-21.3363 754.8642,-16.467 744.4719,-14.4056 745.4547,-21.3363"/>
</a>
</g>
</g>
<!-- Node4 -->
<g id="Node000004" class="node">
<title>Node4</title>
<g id="a_Node000004"><a xlink:href="potrRecvThread_8c.html#a300c2d6c99e3491d0ee4c7cb4de36146" target="_top" xlink:title=" ">
<polygon fill="#ffffff" stroke="#666666" points="452,-38 360,-38 360,-19 452,-19 452,-38"/>
<text text-anchor="middle" x="406" y="-26" font-family="Helvetica,sans-Serif" font-size="10.00" fill="#000000">recv_thread_func</text>
</a>
</g>
</g>
<!-- Node1&#45;&gt;Node4 -->
<g id="edge8_Node000001_Node000004" class="edge">
<title>Node1&#45;&gt;Node4</title>
<g id="a_edge8_Node000001_Node000004"><a xlink:title=" ">
<path fill="none" stroke="#63b8ff" d="M744.3809,-8.1743C708.5914,-7.7087 662.1659,-7.6846 621,-9.5 562.6007,-12.0754 495.5379,-18.5675 452.0561,-23.2464"/>
<polygon fill="#63b8ff" stroke="#63b8ff" points="744.6034,-11.6778 754.6533,-8.3238 744.7053,-4.6786 744.6034,-11.6778"/>
</a>
</g>
</g>
<!-- Node3 -->
<g id="Node000003" class="node">
<title>Node3</title>
<g id="a_Node000003"><a xlink:href="potrRecvThread_8c.html#a69c2cb6947b8a810bb95585972a60e09" target="_top" xlink:title=" ">
<polygon fill="#ffffff" stroke="#666666" points="585,-76 488,-76 488,-57 585,-57 585,-76"/>
<text text-anchor="middle" x="536.5" y="-64" font-family="Helvetica,sans-Serif" font-size="10.00" fill="#000000">process_outer_pkt</text>
</a>
</g>
</g>
<!-- Node2&#45;&gt;Node3 -->
<g id="edge2_Node000002_Node000003" class="edge">
<title>Node2&#45;&gt;Node3</title>
<g id="a_edge2_Node000002_Node000003"><a xlink:title=" ">
<path fill="none" stroke="#63b8ff" d="M626.47,-40.8906C608.1878,-46.0945 587.2508,-52.0541 570.1769,-56.9141"/>
<polygon fill="#63b8ff" stroke="#63b8ff" points="627.6526,-44.1931 636.3123,-38.089 625.7361,-37.4605 627.6526,-44.1931"/>
</a>
</g>
</g>
<!-- Node2&#45;&gt;Node4 -->
<g id="edge7_Node000002_Node000004" class="edge">
<title>Node2&#45;&gt;Node4</title>
<g id="a_edge7_Node000002_Node000004"><a xlink:title=" ">
<path fill="none" stroke="#63b8ff" d="M610.721,-28.5C562.756,-28.5 496.1684,-28.5 452.1221,-28.5"/>
<polygon fill="#63b8ff" stroke="#63b8ff" points="610.9624,-32.0001 620.9623,-28.5 610.9623,-25.0001 610.9624,-32.0001"/>
</a>
</g>
</g>
<!-- Node3&#45;&gt;Node4 -->
<g id="edge3_Node000003_Node000004" class="edge">
<title>Node3&#45;&gt;Node4</title>
<g id="a_edge3_Node000003_Node000004"><a xlink:title=" ">
<path fill="none" stroke="#63b8ff" d="M493.9482,-54.1094C476.0768,-48.9055 455.6103,-42.9459 438.9201,-38.0859"/>
<polygon fill="#63b8ff" stroke="#63b8ff" points="492.9896,-57.4756 503.5693,-56.911 494.9466,-50.7547 492.9896,-57.4756"/>
</a>
</g>
</g>
<!-- Node5 -->
<g id="Node000005" class="node">
<title>Node5</title>
<g id="a_Node000005"><a xlink:href="potrRecvThread_8c.html#a1006d5ccaf47db6c24908eb7ae366505" target="_top" xlink:title="受信スレッドを起動します。">
<polygon fill="#ffffff" stroke="#666666" points="324,-38 199,-38 199,-19 324,-19 324,-38"/>
<text text-anchor="middle" x="261.5" y="-26" font-family="Helvetica,sans-Serif" font-size="10.00" fill="#000000">comm_recv_thread_start</text>
</a>
</g>
</g>
<!-- Node4&#45;&gt;Node5 -->
<g id="edge4_Node000004_Node000005" class="edge">
<title>Node4&#45;&gt;Node5</title>
<g id="a_edge4_Node000004_Node000005"><a xlink:title=" ">
<path fill="none" stroke="#63b8ff" d="M349.7793,-28.5C341.345,-28.5 332.6039,-28.5 324.0476,-28.5"/>
<polygon fill="#63b8ff" stroke="#63b8ff" points="349.882,-32.0001 359.882,-28.5 349.882,-25.0001 349.882,-32.0001"/>
</a>
</g>
</g>
<!-- Node6 -->
<g id="Node000006" class="node">
<title>Node6</title>
<g id="a_Node000006"><a xlink:href="potrOpenService_8c.html#a8ce1599677086e0c54400b696ed28680" target="_top" xlink:title="設定ファイルから指定サービスを開きます。">
<polygon fill="#ffffff" stroke="#666666" points="163,-38 74,-38 74,-19 163,-19 163,-38"/>
<text text-anchor="middle" x="118.5" y="-26" font-family="Helvetica,sans-Serif" font-size="10.00" fill="#000000">potrOpenService</text>
</a>
</g>
</g>
<!-- Node5&#45;&gt;Node6 -->
<g id="edge5_Node000005_Node000006" class="edge">
<title>Node5&#45;&gt;Node6</title>
<g id="a_edge5_Node000005_Node000006"><a xlink:title=" ">
<path fill="none" stroke="#63b8ff" d="M188.5984,-28.5C179.9114,-28.5 171.252,-28.5 163.1334,-28.5"/>
<polygon fill="#63b8ff" stroke="#63b8ff" points="188.7782,-32.0001 198.7781,-28.5 188.7781,-25.0001 188.7782,-32.0001"/>
</a>
</g>
</g>
<!-- Node7 -->
<g id="Node000007" class="node">
<title>Node7</title>
<g id="a_Node000007"><a xlink:href="recv_8c.html#a0ddf1224851353fc92bfbff6f499fa97" target="_top" xlink:title="メインエントリーポイント。">
<polygon fill="#ffffff" stroke="#666666" points="38,-38 0,-38 0,-19 38,-19 38,-38"/>
<text text-anchor="middle" x="19" y="-26" font-family="Helvetica,sans-Serif" font-size="10.00" fill="#000000">main</text>
</a>
</g>
</g>
<!-- Node6&#45;&gt;Node7 -->
<g id="edge6_Node000006_Node000007" class="edge">
<title>Node6&#45;&gt;Node7</title>
<g id="a_edge6_Node000006_Node000007"><a xlink:title=" ">
<path fill="none" stroke="#63b8ff" d="M63.8932,-28.5C54.615,-28.5 45.5643,-28.5 38.0485,-28.5"/>
<polygon fill="#63b8ff" stroke="#63b8ff" points="63.9885,-32.0001 73.9884,-28.5 63.9884,-25.0001 63.9885,-32.0001"/>
</a>
</g>
</g>
</g>
</svg>
