<?xml version="1.0" encoding="UTF-8" standalone="no"?>
<!DOCTYPE svg PUBLIC "-//W3C//DTD SVG 1.1//EN"
 "http://www.w3.org/Graphics/SVG/1.1/DTD/svg11.dtd">
<!-- Generated by graphviz version 2.40.1 (0)
 -->
<!-- Title: porter/libsrc/porter/util/potrIpAddr.h Pages: 1 -->
<svg width="448pt" height="104pt"
 viewBox="0.00 0.00 448.00 104.00" xmlns="http://www.w3.org/2000/svg" xmlns:xlink="http://www.w3.org/1999/xlink">
<g id="graph0" class="graph" transform="scale(1 1) rotate(0) translate(4 100)">
<title>porter/libsrc/porter/util/potrIpAddr.h</title>
<!-- Node1 -->
<g id="Node000001" class="node">
<title>Node1</title>
<g id="a_Node000001"><a xlink:title="IPv4 アドレス変換ユーティリティ (内部用)。">
<polygon fill="#999999" stroke="#666666" points="269,-96 174,-96 174,-66 269,-66 269,-96"/>
<text text-anchor="start" x="182" y="-84" font-family="Helvetica,sans-Serif" font-size="10.00" fill="#000000">porter/libsrc/porter</text>
<text text-anchor="middle" x="221.5" y="-73" font-family="Helvetica,sans-Serif" font-size="10.00" fill="#000000">/util/potrIpAddr.h</text>
</a>
</g>
</g>
<!-- Node2 -->
<g id="Node000002" class="node">
<title>Node2</title>
<g id="a_Node000002"><a xlink:href="potrClose_8c.html" target="_top" xlink:title="potrClose 関数の実装。">
<polygon fill="#ffffff" stroke="#666666" points="95,-30 0,-30 0,0 95,0 95,-30"/>
<text text-anchor="start" x="8" y="-18" font-family="Helvetica,sans-Serif" font-size="10.00" fill="#000000">porter/libsrc/porter</text>
<text text-anchor="middle" x="47.5" y="-7" font-family="Helvetica,sans-Serif" font-size="10.00" fill="#000000">/potrClose.c</text>
</a>
</g>
</g>
<!-- Node1&#45;&gt;Node2 -->
<g id="edge1_Node000001_Node000002" class="edge">
<title>Node1&#45;&gt;Node2</title>
<g id="a_edge1_Node000001_Node000002"><a xlink:title=" ">
<path fill="none" stroke="#63b8ff" d="M171.9806,-62.2168C145.1321,-52.0329 112.3956,-39.6156 87.2334,-30.0713"/>
<polygon fill="#63b8ff" stroke="#63b8ff" points="170.9896,-65.5842 181.5809,-65.8583 173.4722,-59.0392 170.9896,-65.5842"/>
</a>
</g>
</g>
<!-- Node3 -->
<g id="Node000003" class="node">
<title>Node3</title>
<g id="a_Node000003"><a xlink:href="potrOpenService_8c.html" target="_top" xlink:title="potrOpenService 関数の実装。">
<polygon fill="#ffffff" stroke="#666666" points="214,-30 113,-30 113,0 214,0 214,-30"/>
<text text-anchor="start" x="121" y="-18" font-family="Helvetica,sans-Serif" font-size="10.00" fill="#000000">porter/libsrc/porter</text>
<text text-anchor="middle" x="163.5" y="-7" font-family="Helvetica,sans-Serif" font-size="10.00" fill="#000000">/potrOpenService.c</text>
</a>
</g>
</g>
<!-- Node1&#45;&gt;Node3 -->
<g id="edge2_Node000001_Node000003" class="edge">
<title>Node1&#45;&gt;Node3</title>
<g id="a_edge2_Node000001_Node000003"><a xlink:title=" ">
<path fill="none" stroke="#63b8ff" d="M201.2774,-57.9881C193.1975,-48.7937 184.114,-38.4573 176.8792,-30.2246"/>
<polygon fill="#63b8ff" stroke="#63b8ff" points="198.8176,-60.4911 208.0479,-65.6924 204.0758,-55.8703 198.8176,-60.4911"/>
</a>
</g>
</g>
<!-- Node4 -->
<g id="Node000004" class="node">
<title>Node4</title>
<g id="a_Node000004"><a xlink:href="potrSend_8c.html" target="_top" xlink:title="potrSend 関数の実装。">
<polygon fill="#ffffff" stroke="#666666" points="327,-30 232,-30 232,0 327,0 327,-30"/>
<text text-anchor="start" x="240" y="-18" font-family="Helvetica,sans-Serif" font-size="10.00" fill="#000000">porter/libsrc/porter</text>
<text text-anchor="middle" x="279.5" y="-7" font-family="Helvetica,sans-Serif" font-size="10.00" fill="#000000">/potrSend.c</text>
</a>
</g>
</g>
<!-- Node1&#45;&gt;Node4 -->
<g id="edge3_Node000001_Node000004" class="edge">
<title>Node1&#45;&gt;Node4</title>
<g id="a_edge3_Node000001_Node000004"><a xlink:title=" ">
<path fill="none" stroke="#63b8ff" d="M241.7226,-57.9881C249.8025,-48.7937 258.886,-38.4573 266.1208,-30.2246"/>
<polygon fill="#63b8ff" stroke="#63b8ff" points="238.9242,-55.8703 234.9521,-65.6924 244.1824,-60.4911 238.9242,-55.8703"/>
</a>
</g>
</g>
<!-- Node5 -->
<g id="Node000005" class="node">
<title>Node5</title>
<g id="a_Node000005"><a xlink:href="potrIpAddr_8c.html" target="_top" xlink:title="IPv4 アドレス変換ユーティリティ (内部用)。">
<polygon fill="#ffffff" stroke="#666666" points="440,-30 345,-30 345,0 440,0 440,-30"/>
<text text-anchor="start" x="353" y="-18" font-family="Helvetica,sans-Serif" font-size="10.00" fill="#000000">porter/libsrc/porter</text>
<text text-anchor="middle" x="392.5" y="-7" font-family="Helvetica,sans-Serif" font-size="10.00" fill="#000000">/util/potrIpAddr.c</text>
</a>
</g>
</g>
<!-- Node1&#45;&gt;Node5 -->
<g id="edge4_Node000001_Node000005" class="edge">
<title>Node1&#45;&gt;Node5</title>
<g id="a_edge4_Node000001_Node000005"><a xlink:title=" ">
<path fill="none" stroke="#63b8ff" d="M270.1656,-62.2168C296.5512,-52.0329 328.7233,-39.6156 353.4517,-30.0713"/>
<polygon fill="#63b8ff" stroke="#63b8ff" points="268.7998,-58.9922 260.7309,-65.8583 271.3204,-65.5227 268.7998,-58.9922"/>
</a>
</g>
</g>
</g>
</svg>
