<?xml version="1.0" encoding="UTF-8" standalone="no"?>
<!DOCTYPE svg PUBLIC "-//W3C//DTD SVG 1.1//EN"
 "http://www.w3.org/Graphics/SVG/1.1/DTD/svg11.dtd">
<!-- Generated by graphviz version 2.40.1 (0)
 -->
<!-- Title: potr_health_thread_stop Pages: 1 -->
<svg width="330pt" height="64pt"
 viewBox="0.00 0.00 330.00 64.00" xmlns="http://www.w3.org/2000/svg" xmlns:xlink="http://www.w3.org/1999/xlink">
<g id="graph0" class="graph" transform="scale(1 1) rotate(0) translate(4 60)">
<title>potr_health_thread_stop</title>
<!-- Node1 -->
<g id="Node000001" class="node">
<title>Node1</title>
<g id="a_Node000001"><a xlink:title="ヘルスチェックスレッドを停止します。">
<polygon fill="#999999" stroke="#666666" points="322,-37 201,-37 201,-18 322,-18 322,-37"/>
<text text-anchor="middle" x="261.5" y="-25" font-family="Helvetica,sans-Serif" font-size="10.00" fill="#000000">potr_health_thread_stop</text>
</a>
</g>
</g>
<!-- Node2 -->
<g id="Node000002" class="node">
<title>Node2</title>
<g id="a_Node000002"><a xlink:href="potrCloseService_8c.html#a69faa7ad17883d282cfbbabfe2d4913f" target="_top" xlink:title="サービスを閉じます。">
<polygon fill="#ffffff" stroke="#666666" points="165,-56 74,-56 74,-37 165,-37 165,-56"/>
<text text-anchor="middle" x="119.5" y="-44" font-family="Helvetica,sans-Serif" font-size="10.00" fill="#000000">potrCloseService</text>
</a>
</g>
</g>
<!-- Node1&#45;&gt;Node2 -->
<g id="edge1_Node000001_Node000002" class="edge">
<title>Node1&#45;&gt;Node2</title>
<g id="a_edge1_Node000001_Node000002"><a xlink:title=" ">
<path fill="none" stroke="#63b8ff" d="M190.7544,-36.966C182.1115,-38.1224 173.4636,-39.2795 165.323,-40.3687"/>
<polygon fill="#63b8ff" stroke="#63b8ff" points="191.4199,-40.4082 200.8673,-35.6128 190.4915,-33.47 191.4199,-40.4082"/>
</a>
</g>
</g>
<!-- Node4 -->
<g id="Node000004" class="node">
<title>Node4</title>
<g id="a_Node000004"><a xlink:href="potrOpenService_8c.html#a8ce1599677086e0c54400b696ed28680" target="_top" xlink:title="設定ファイルから指定サービスを開きます。">
<polygon fill="#ffffff" stroke="#666666" points="164,-19 75,-19 75,0 164,0 164,-19"/>
<text text-anchor="middle" x="119.5" y="-7" font-family="Helvetica,sans-Serif" font-size="10.00" fill="#000000">potrOpenService</text>
</a>
</g>
</g>
<!-- Node1&#45;&gt;Node4 -->
<g id="edge3_Node000001_Node000004" class="edge">
<title>Node1&#45;&gt;Node4</title>
<g id="a_edge3_Node000001_Node000004"><a xlink:title=" ">
<path fill="none" stroke="#63b8ff" d="M190.6616,-18.5205C181.593,-17.3709 172.5209,-16.221 164.037,-15.1455"/>
<polygon fill="#63b8ff" stroke="#63b8ff" points="190.5065,-22.0288 200.8673,-19.8142 191.3869,-15.0843 190.5065,-22.0288"/>
</a>
</g>
</g>
<!-- Node3 -->
<g id="Node000003" class="node">
<title>Node3</title>
<g id="a_Node000003"><a xlink:href="recv_8c.html#a0ddf1224851353fc92bfbff6f499fa97" target="_top" xlink:title="メインエントリーポイント。">
<polygon fill="#ffffff" stroke="#666666" points="38,-37 0,-37 0,-18 38,-18 38,-37"/>
<text text-anchor="middle" x="19" y="-25" font-family="Helvetica,sans-Serif" font-size="10.00" fill="#000000">main</text>
</a>
</g>
</g>
<!-- Node2&#45;&gt;Node3 -->
<g id="edge2_Node000002_Node000003" class="edge">
<title>Node2&#45;&gt;Node3</title>
<g id="a_edge2_Node000002_Node000003"><a xlink:title=" ">
<path fill="none" stroke="#63b8ff" d="M63.9152,-35.9914C54.6956,-34.2484 45.7183,-32.5512 38.2437,-31.1381"/>
<polygon fill="#63b8ff" stroke="#63b8ff" points="63.4787,-39.4708 73.9548,-37.8895 64.7791,-32.5927 63.4787,-39.4708"/>
</a>
</g>
</g>
<!-- Node4&#45;&gt;Node3 -->
<g id="edge4_Node000004_Node000003" class="edge">
<title>Node4&#45;&gt;Node3</title>
<g id="a_edge4_Node000004_Node000003"><a xlink:title=" ">
<path fill="none" stroke="#63b8ff" d="M64.8196,-19.2935C55.2285,-21.0113 45.8543,-22.6903 38.1093,-24.0774"/>
<polygon fill="#63b8ff" stroke="#63b8ff" points="65.6077,-22.7081 74.834,-17.4999 64.3735,-15.8178 65.6077,-22.7081"/>
</a>
</g>
</g>
</g>
</svg>
