<?xml version="1.0" encoding="UTF-8" standalone="no"?>
<!DOCTYPE svg PUBLIC "-//W3C//DTD SVG 1.1//EN"
 "http://www.w3.org/Graphics/SVG/1.1/DTD/svg11.dtd">
<!-- Generated by graphviz version 2.40.1 (0)
 -->
<!-- Title: get_ms_mono Pages: 1 -->
<svg width="574pt" height="27pt"
 viewBox="0.00 0.00 574.00 27.00" xmlns="http://www.w3.org/2000/svg" xmlns:xlink="http://www.w3.org/1999/xlink">
<g id="graph0" class="graph" transform="scale(1 1) rotate(0) translate(4 23)">
<title>get_ms_mono</title>
<!-- Node1 -->
<g id="Node000001" class="node">
<title>Node1</title>
<g id="a_Node000001"><a xlink:title=" ">
<polygon fill="#999999" stroke="#666666" points="566,-19 488,-19 488,0 566,0 566,-19"/>
<text text-anchor="middle" x="527" y="-7" font-family="Helvetica,sans-Serif" font-size="10.00" fill="#000000">get_ms_mono</text>
</a>
</g>
</g>
<!-- Node2 -->
<g id="Node000002" class="node">
<title>Node2</title>
<g id="a_Node000002"><a xlink:href="potrRecvThread_8c.html#a300c2d6c99e3491d0ee4c7cb4de36146" target="_top" xlink:title=" ">
<polygon fill="#ffffff" stroke="#666666" points="452,-19 360,-19 360,0 452,0 452,-19"/>
<text text-anchor="middle" x="406" y="-7" font-family="Helvetica,sans-Serif" font-size="10.00" fill="#000000">recv_thread_func</text>
</a>
</g>
</g>
<!-- Node1&#45;&gt;Node2 -->
<g id="edge1_Node000001_Node000002" class="edge">
<title>Node1&#45;&gt;Node2</title>
<g id="a_edge1_Node000001_Node000002"><a xlink:title=" ">
<path fill="none" stroke="#63b8ff" d="M477.6621,-9.5C469.2625,-9.5 460.5655,-9.5 452.2493,-9.5"/>
<polygon fill="#63b8ff" stroke="#63b8ff" points="477.7148,-13.0001 487.7148,-9.5 477.7147,-6.0001 477.7148,-13.0001"/>
</a>
</g>
</g>
<!-- Node3 -->
<g id="Node000003" class="node">
<title>Node3</title>
<g id="a_Node000003"><a xlink:href="potrRecvThread_8c.html#a1006d5ccaf47db6c24908eb7ae366505" target="_top" xlink:title="受信スレッドを起動します。">
<polygon fill="#ffffff" stroke="#666666" points="324,-19 199,-19 199,0 324,0 324,-19"/>
<text text-anchor="middle" x="261.5" y="-7" font-family="Helvetica,sans-Serif" font-size="10.00" fill="#000000">comm_recv_thread_start</text>
</a>
</g>
</g>
<!-- Node2&#45;&gt;Node3 -->
<g id="edge2_Node000002_Node000003" class="edge">
<title>Node2&#45;&gt;Node3</title>
<g id="a_edge2_Node000002_Node000003"><a xlink:title=" ">
<path fill="none" stroke="#63b8ff" d="M349.7793,-9.5C341.345,-9.5 332.6039,-9.5 324.0476,-9.5"/>
<polygon fill="#63b8ff" stroke="#63b8ff" points="349.882,-13.0001 359.882,-9.5 349.882,-6.0001 349.882,-13.0001"/>
</a>
</g>
</g>
<!-- Node4 -->
<g id="Node000004" class="node">
<title>Node4</title>
<g id="a_Node000004"><a xlink:href="potrOpenService_8c.html#a8ce1599677086e0c54400b696ed28680" target="_top" xlink:title="設定ファイルから指定サービスを開きます。">
<polygon fill="#ffffff" stroke="#666666" points="163,-19 74,-19 74,0 163,0 163,-19"/>
<text text-anchor="middle" x="118.5" y="-7" font-family="Helvetica,sans-Serif" font-size="10.00" fill="#000000">potrOpenService</text>
</a>
</g>
</g>
<!-- Node3&#45;&gt;Node4 -->
<g id="edge3_Node000003_Node000004" class="edge">
<title>Node3&#45;&gt;Node4</title>
<g id="a_edge3_Node000003_Node000004"><a xlink:title=" ">
<path fill="none" stroke="#63b8ff" d="M188.5984,-9.5C179.9114,-9.5 171.252,-9.5 163.1334,-9.5"/>
<polygon fill="#63b8ff" stroke="#63b8ff" points="188.7782,-13.0001 198.7781,-9.5 188.7781,-6.0001 188.7782,-13.0001"/>
</a>
</g>
</g>
<!-- Node5 -->
<g id="Node000005" class="node">
<title>Node5</title>
<g id="a_Node000005"><a xlink:href="recv_8c.html#a0ddf1224851353fc92bfbff6f499fa97" target="_top" xlink:title="メインエントリーポイント。">
<polygon fill="#ffffff" stroke="#666666" points="38,-19 0,-19 0,0 38,0 38,-19"/>
<text text-anchor="middle" x="19" y="-7" font-family="Helvetica,sans-Serif" font-size="10.00" fill="#000000">main</text>
</a>
</g>
</g>
<!-- Node4&#45;&gt;Node5 -->
<g id="edge4_Node000004_Node000005" class="edge">
<title>Node4&#45;&gt;Node5</title>
<g id="a_edge4_Node000004_Node000005"><a xlink:title=" ">
<path fill="none" stroke="#63b8ff" d="M63.8932,-9.5C54.615,-9.5 45.5643,-9.5 38.0485,-9.5"/>
<polygon fill="#63b8ff" stroke="#63b8ff" points="63.9885,-13.0001 73.9884,-9.5 63.9884,-6.0001 63.9885,-13.0001"/>
</a>
</g>
</g>
</g>
</svg>
