<?xml version="1.0" encoding="UTF-8" standalone="no"?>
<!DOCTYPE svg PUBLIC "-//W3C//DTD SVG 1.1//EN"
 "http://www.w3.org/Graphics/SVG/1.1/DTD/svg11.dtd">
<!-- Generated by graphviz version 2.40.1 (0)
 -->
<!-- Title: potr_send_queue_peek_timed Pages: 1 -->
<svg width="606pt" height="38pt"
 viewBox="0.00 0.00 606.00 38.00" xmlns="http://www.w3.org/2000/svg" xmlns:xlink="http://www.w3.org/1999/xlink">
<g id="graph0" class="graph" transform="scale(1 1) rotate(0) translate(4 34)">
<title>potr_send_queue_peek_timed</title>
<!-- Node1 -->
<g id="Node000001" class="node">
<title>Node1</title>
<g id="a_Node000001"><a xlink:title=" ">
<polygon fill="#999999" stroke="#666666" points="598,-30 481,-30 481,0 598,0 598,-30"/>
<text text-anchor="start" x="489" y="-18" font-family="Helvetica,sans-Serif" font-size="10.00" fill="#000000">potr_send_queue_peek</text>
<text text-anchor="middle" x="539.5" y="-7" font-family="Helvetica,sans-Serif" font-size="10.00" fill="#000000">_timed</text>
</a>
</g>
</g>
<!-- Node2 -->
<g id="Node000002" class="node">
<title>Node2</title>
<g id="a_Node000002"><a xlink:href="potrSendThread_8c.html#a73c68e6c27f4228dd3e7bfdf470d9a6f" target="_top" xlink:title=" ">
<polygon fill="#ffffff" stroke="#666666" points="445,-24.5 351,-24.5 351,-5.5 445,-5.5 445,-24.5"/>
<text text-anchor="middle" x="398" y="-12.5" font-family="Helvetica,sans-Serif" font-size="10.00" fill="#000000">send_thread_func</text>
</a>
</g>
</g>
<!-- Node1&#45;&gt;Node2 -->
<g id="edge1_Node000001_Node000002" class="edge">
<title>Node1&#45;&gt;Node2</title>
<g id="a_edge1_Node000001_Node000002"><a xlink:title=" ">
<path fill="none" stroke="#63b8ff" d="M470.6474,-15C462.0256,-15 453.3663,-15 445.182,-15"/>
<polygon fill="#63b8ff" stroke="#63b8ff" points="470.7206,-18.5001 480.7205,-15 470.7205,-11.5001 470.7206,-18.5001"/>
</a>
</g>
</g>
<!-- Node3 -->
<g id="Node000003" class="node">
<title>Node3</title>
<g id="a_Node000003"><a xlink:href="potrSendThread_8c.html#a43c9d922d9a3e693d9327f34beee30bf" target="_top" xlink:title=" ">
<polygon fill="#ffffff" stroke="#666666" points="315,-24.5 199,-24.5 199,-5.5 315,-5.5 315,-24.5"/>
<text text-anchor="middle" x="257" y="-12.5" font-family="Helvetica,sans-Serif" font-size="10.00" fill="#000000">potr_send_thread_start</text>
</a>
</g>
</g>
<!-- Node2&#45;&gt;Node3 -->
<g id="edge2_Node000002_Node000003" class="edge">
<title>Node2&#45;&gt;Node3</title>
<g id="a_edge2_Node000002_Node000003"><a xlink:title=" ">
<path fill="none" stroke="#63b8ff" d="M340.612,-15C332.2461,-15 323.6249,-15 315.2421,-15"/>
<polygon fill="#63b8ff" stroke="#63b8ff" points="340.6568,-18.5001 350.6568,-15 340.6568,-11.5001 340.6568,-18.5001"/>
</a>
</g>
</g>
<!-- Node4 -->
<g id="Node000004" class="node">
<title>Node4</title>
<g id="a_Node000004"><a xlink:href="potrOpenService_8c.html#a8ce1599677086e0c54400b696ed28680" target="_top" xlink:title="設定ファイルから指定サービスを開きます。">
<polygon fill="#ffffff" stroke="#666666" points="163,-24.5 74,-24.5 74,-5.5 163,-5.5 163,-24.5"/>
<text text-anchor="middle" x="118.5" y="-12.5" font-family="Helvetica,sans-Serif" font-size="10.00" fill="#000000">potrOpenService</text>
</a>
</g>
</g>
<!-- Node3&#45;&gt;Node4 -->
<g id="edge3_Node000003_Node000004" class="edge">
<title>Node3&#45;&gt;Node4</title>
<g id="a_edge3_Node000003_Node000004"><a xlink:title=" ">
<path fill="none" stroke="#63b8ff" d="M188.613,-15C180.0163,-15 171.4018,-15 163.2996,-15"/>
<polygon fill="#63b8ff" stroke="#63b8ff" points="188.665,-18.5001 198.6649,-15 188.6649,-11.5001 188.665,-18.5001"/>
</a>
</g>
</g>
<!-- Node5 -->
<g id="Node000005" class="node">
<title>Node5</title>
<g id="a_Node000005"><a xlink:href="recv_8c.html#a0ddf1224851353fc92bfbff6f499fa97" target="_top" xlink:title="メインエントリーポイント。">
<polygon fill="#ffffff" stroke="#666666" points="38,-24.5 0,-24.5 0,-5.5 38,-5.5 38,-24.5"/>
<text text-anchor="middle" x="19" y="-12.5" font-family="Helvetica,sans-Serif" font-size="10.00" fill="#000000">main</text>
</a>
</g>
</g>
<!-- Node4&#45;&gt;Node5 -->
<g id="edge4_Node000004_Node000005" class="edge">
<title>Node4&#45;&gt;Node5</title>
<g id="a_edge4_Node000004_Node000005"><a xlink:title=" ">
<path fill="none" stroke="#63b8ff" d="M63.8932,-15C54.615,-15 45.5643,-15 38.0485,-15"/>
<polygon fill="#63b8ff" stroke="#63b8ff" points="63.9885,-18.5001 73.9884,-15 63.9884,-11.5001 63.9885,-18.5001"/>
</a>
</g>
</g>
</g>
</svg>
