<?xml version="1.0" encoding="UTF-8" standalone="no"?>
<!DOCTYPE svg PUBLIC "-//W3C//DTD SVG 1.1//EN"
 "http://www.w3.org/Graphics/SVG/1.1/DTD/svg11.dtd">
<!-- Generated by graphviz version 2.40.1 (0)
 -->
<!-- Title: parse_ipv4_addr Pages: 1 -->
<svg width="450pt" height="102pt"
 viewBox="0.00 0.00 450.00 102.00" xmlns="http://www.w3.org/2000/svg" xmlns:xlink="http://www.w3.org/1999/xlink">
<g id="graph0" class="graph" transform="scale(1 1) rotate(0) translate(4 98)">
<title>parse_ipv4_addr</title>
<!-- Node1 -->
<g id="Node000001" class="node">
<title>Node1</title>
<g id="a_Node000001"><a xlink:title=" ">
<polygon fill="#999999" stroke="#666666" points="442,-56 354,-56 354,-37 442,-37 442,-56"/>
<text text-anchor="middle" x="398" y="-44" font-family="Helvetica,sans-Serif" font-size="10.00" fill="#000000">parse_ipv4_addr</text>
</a>
</g>
</g>
<!-- Node2 -->
<g id="Node000002" class="node">
<title>Node2</title>
<g id="a_Node000002"><a xlink:href="potrOpenService_8c.html#a5030960c3944377ae18e01090e3eb126" target="_top" xlink:title=" ">
<polygon fill="#ffffff" stroke="#666666" points="318,-94 201,-94 201,-75 318,-75 318,-94"/>
<text text-anchor="middle" x="259.5" y="-82" font-family="Helvetica,sans-Serif" font-size="10.00" fill="#000000">open_socket_multicast</text>
</a>
</g>
</g>
<!-- Node1&#45;&gt;Node2 -->
<g id="edge1_Node000001_Node000002" class="edge">
<title>Node1&#45;&gt;Node2</title>
<g id="a_edge1_Node000001_Node000002"><a xlink:title=" ">
<path fill="none" stroke="#63b8ff" d="M353.3658,-58.7462C334.2753,-63.984 312.3155,-70.0091 294.4382,-74.9141"/>
<polygon fill="#63b8ff" stroke="#63b8ff" points="354.3331,-62.1102 363.0506,-56.089 352.4809,-55.3597 354.3331,-62.1102"/>
</a>
</g>
</g>
<!-- Node3 -->
<g id="Node000003" class="node">
<title>Node3</title>
<g id="a_Node000003"><a xlink:href="potrOpenService_8c.html#a8ce1599677086e0c54400b696ed28680" target="_top" xlink:title="設定ファイルから指定サービスを開きます。">
<polygon fill="#ffffff" stroke="#666666" points="164,-56 75,-56 75,-37 164,-37 164,-56"/>
<text text-anchor="middle" x="119.5" y="-44" font-family="Helvetica,sans-Serif" font-size="10.00" fill="#000000">potrOpenService</text>
</a>
</g>
</g>
<!-- Node1&#45;&gt;Node3 -->
<g id="edge6_Node000001_Node000003" class="edge">
<title>Node1&#45;&gt;Node3</title>
<g id="a_edge6_Node000001_Node000003"><a xlink:title=" ">
<path fill="none" stroke="#63b8ff" d="M343.7721,-46.5C291.4677,-46.5 213.2351,-46.5 164.3449,-46.5"/>
<polygon fill="#63b8ff" stroke="#63b8ff" points="343.8709,-50.0001 353.8708,-46.5 343.8708,-43.0001 343.8709,-50.0001"/>
</a>
</g>
</g>
<!-- Node5 -->
<g id="Node000005" class="node">
<title>Node5</title>
<g id="a_Node000005"><a xlink:href="potrCloseService_8c.html#a69faa7ad17883d282cfbbabfe2d4913f" target="_top" xlink:title="サービスを閉じます。">
<polygon fill="#ffffff" stroke="#666666" points="165,-19 74,-19 74,0 165,0 165,-19"/>
<text text-anchor="middle" x="119.5" y="-7" font-family="Helvetica,sans-Serif" font-size="10.00" fill="#000000">potrCloseService</text>
</a>
</g>
</g>
<!-- Node1&#45;&gt;Node5 -->
<g id="edge4_Node000001_Node000005" class="edge">
<title>Node1&#45;&gt;Node5</title>
<g id="a_edge4_Node000001_Node000005"><a xlink:title=" ">
<path fill="none" stroke="#63b8ff" d="M343.8339,-39.3038C291.8594,-32.3987 214.241,-22.0868 165.2741,-15.5813"/>
<polygon fill="#63b8ff" stroke="#63b8ff" points="343.497,-42.7897 353.8708,-40.6372 344.4189,-35.8507 343.497,-42.7897"/>
</a>
</g>
</g>
<!-- Node2&#45;&gt;Node3 -->
<g id="edge2_Node000002_Node000003" class="edge">
<title>Node2&#45;&gt;Node3</title>
<g id="a_edge2_Node000002_Node000003"><a xlink:title=" ">
<path fill="none" stroke="#63b8ff" d="M214.3824,-72.2538C195.0851,-67.016 172.8876,-60.9909 154.8166,-56.0859"/>
<polygon fill="#63b8ff" stroke="#63b8ff" points="213.6044,-75.6692 224.1721,-74.911 215.4381,-68.9136 213.6044,-75.6692"/>
</a>
</g>
</g>
<!-- Node4 -->
<g id="Node000004" class="node">
<title>Node4</title>
<g id="a_Node000004"><a xlink:href="recv_8c.html#a0ddf1224851353fc92bfbff6f499fa97" target="_top" xlink:title="メインエントリーポイント。">
<polygon fill="#ffffff" stroke="#666666" points="38,-37 0,-37 0,-18 38,-18 38,-37"/>
<text text-anchor="middle" x="19" y="-25" font-family="Helvetica,sans-Serif" font-size="10.00" fill="#000000">main</text>
</a>
</g>
</g>
<!-- Node3&#45;&gt;Node4 -->
<g id="edge3_Node000003_Node000004" class="edge">
<title>Node3&#45;&gt;Node4</title>
<g id="a_edge3_Node000003_Node000004"><a xlink:title=" ">
<path fill="none" stroke="#63b8ff" d="M64.8196,-36.1624C55.2285,-34.3492 45.8543,-32.5769 38.1093,-31.1127"/>
<polygon fill="#63b8ff" stroke="#63b8ff" points="64.3578,-39.637 74.834,-38.0557 65.6582,-32.7589 64.3578,-39.637"/>
</a>
</g>
</g>
<!-- Node5&#45;&gt;Node4 -->
<g id="edge5_Node000005_Node000004" class="edge">
<title>Node5&#45;&gt;Node4</title>
<g id="a_edge5_Node000005_Node000004"><a xlink:title=" ">
<path fill="none" stroke="#63b8ff" d="M63.9152,-19.4555C54.6956,-21.1068 45.7183,-22.7146 38.2437,-24.0534"/>
<polygon fill="#63b8ff" stroke="#63b8ff" points="64.7285,-22.8656 73.9548,-17.6573 63.4944,-15.9752 64.7285,-22.8656"/>
</a>
</g>
</g>
</g>
</svg>
