<?xml version="1.0" encoding="UTF-8" standalone="no"?>
<!DOCTYPE svg PUBLIC "-//W3C//DTD SVG 1.1//EN"
 "http://www.w3.org/Graphics/SVG/1.1/DTD/svg11.dtd">
<!-- Generated by graphviz version 2.40.1 (0)
 -->
<!-- Title: recv_thread_func Pages: 1 -->
<svg width="821pt" height="631pt"
 viewBox="0.00 0.00 821.00 631.00" xmlns="http://www.w3.org/2000/svg" xmlns:xlink="http://www.w3.org/1999/xlink">
<g id="graph0" class="graph" transform="scale(1 1) rotate(0) translate(4 627)">
<title>recv_thread_func</title>
<!-- Node1 -->
<g id="Node000001" class="node">
<title>Node1</title>
<g id="a_Node000001"><a xlink:title=" ">
<polygon fill="#999999" stroke="#666666" points="92,-322 0,-322 0,-303 92,-303 92,-322"/>
<text text-anchor="middle" x="46" y="-310" font-family="Helvetica,sans-Serif" font-size="10.00" fill="#000000">recv_thread_func</text>
</a>
</g>
</g>
<!-- Node2 -->
<g id="Node000002" class="node">
<title>Node2</title>
<g id="a_Node000002"><a xlink:href="potrRecvThread_8c.html#aa7706a3d13b19d6f86696195cb2d9190" target="_top" xlink:title=" ">
<polygon fill="#ffffff" stroke="#666666" points="265,-623 128,-623 128,-604 265,-604 265,-623"/>
<text text-anchor="middle" x="196.5" y="-611" font-family="Helvetica,sans-Serif" font-size="10.00" fill="#000000">check_and_update_session</text>
</a>
</g>
</g>
<!-- Node1&#45;&gt;Node2 -->
<g id="edge1_Node000001_Node000002" class="edge">
<title>Node1&#45;&gt;Node2</title>
<g id="a_edge1_Node000001_Node000002"><a xlink:title=" ">
<path fill="none" stroke="#63b8ff" d="M47.6559,-322.1976C55.3856,-366.4396 89.1831,-548.7251 128,-589.5 131.6533,-593.3375 135.9544,-596.5619 140.5919,-599.271"/>
<polygon fill="#63b8ff" stroke="#63b8ff" points="139.3307,-602.5527 149.8431,-603.8715 142.4475,-596.2849 139.3307,-602.5527"/>
</a>
</g>
</g>
<!-- Node3 -->
<g id="Node000003" class="node">
<title>Node3</title>
<g id="a_Node000003"><a xlink:href="window_8c.html#a2589115bd38c8d2dcbc47ef7ef87e8a7" target="_top" xlink:title="ウィンドウを初期化します。">
<polygon fill="#ffffff" stroke="#666666" points="383,-585 317,-585 317,-566 383,-566 383,-585"/>
<text text-anchor="middle" x="350" y="-573" font-family="Helvetica,sans-Serif" font-size="10.00" fill="#000000">window_init</text>
</a>
</g>
</g>
<!-- Node1&#45;&gt;Node3 -->
<g id="edge42_Node000001_Node000003" class="edge">
<title>Node1&#45;&gt;Node3</title>
<g id="a_edge42_Node000001_Node000003"><a xlink:title=" ">
<path fill="none" stroke="#63b8ff" d="M47.7833,-322.0835C55.6768,-363.4148 88.8193,-525.7143 128,-556.5 178.83,-596.439 257.8986,-592.3312 306.678,-584.6637"/>
<polygon fill="#63b8ff" stroke="#63b8ff" points="307.3282,-588.1036 316.6063,-582.9881 306.1632,-581.2012 307.3282,-588.1036"/>
</a>
</g>
</g>
<!-- Node4 -->
<g id="Node000004" class="node">
<title>Node4</title>
<g id="a_Node000004"><a xlink:href="potrRecvThread_8c.html#acffd59e7efedff4fe46050ebfb68be25" target="_top" xlink:title=" ">
<polygon fill="#ffffff" stroke="#666666" points="252.5,-547 140.5,-547 140.5,-528 252.5,-528 252.5,-547"/>
<text text-anchor="middle" x="196.5" y="-535" font-family="Helvetica,sans-Serif" font-size="10.00" fill="#000000">check_health_timeout</text>
</a>
</g>
</g>
<!-- Node1&#45;&gt;Node4 -->
<g id="edge3_Node000001_Node000004" class="edge">
<title>Node1&#45;&gt;Node4</title>
<g id="a_edge3_Node000001_Node000004"><a xlink:title=" ">
<path fill="none" stroke="#63b8ff" d="M46.8042,-322.0252C50.0985,-354.8256 65.5213,-464.1139 128,-519.5 129.3284,-520.6776 130.7249,-521.7797 132.1775,-522.8109"/>
<polygon fill="#63b8ff" stroke="#63b8ff" points="130.6269,-525.9584 141.0278,-527.9763 134.1554,-519.9128 130.6269,-525.9584"/>
</a>
</g>
</g>
<!-- Node6 -->
<g id="Node000006" class="node">
<title>Node6</title>
<g id="a_Node000006"><a xlink:href="potrRecvThread_8c.html#adf76797ea71368f81830ec4eef8cadd2" target="_top" xlink:title=" ">
<polygon fill="#ffffff" stroke="#666666" points="239.5,-473 153.5,-473 153.5,-454 239.5,-454 239.5,-473"/>
<text text-anchor="middle" x="196.5" y="-461" font-family="Helvetica,sans-Serif" font-size="10.00" fill="#000000">check_src_addr</text>
</a>
</g>
</g>
<!-- Node1&#45;&gt;Node6 -->
<g id="edge6_Node000001_Node000006" class="edge">
<title>Node1&#45;&gt;Node6</title>
<g id="a_edge6_Node000001_Node000006"><a xlink:title=" ">
<path fill="none" stroke="#63b8ff" d="M49.7072,-322.3371C59.1093,-345.9912 86.1485,-406.5309 128,-439.5 133.3205,-443.6913 139.4266,-447.1806 145.7537,-450.0779"/>
<polygon fill="#63b8ff" stroke="#63b8ff" points="144.5357,-453.3612 155.1162,-453.9121 147.1886,-446.8833 144.5357,-453.3612"/>
</a>
</g>
</g>
<!-- Node7 -->
<g id="Node000007" class="node">
<title>Node7</title>
<g id="a_Node000007"><a xlink:href="potrRecvThread_8c.html#a25a97682fd79b97dfa94ebc3a374a326" target="_top" xlink:title=" ">
<polygon fill="#ffffff" stroke="#666666" points="399,-435 301,-435 301,-416 399,-416 399,-435"/>
<text text-anchor="middle" x="350" y="-423" font-family="Helvetica,sans-Serif" font-size="10.00" fill="#000000">drain_recv_window</text>
</a>
</g>
</g>
<!-- Node1&#45;&gt;Node7 -->
<g id="edge7_Node000001_Node000007" class="edge">
<title>Node1&#45;&gt;Node7</title>
<g id="a_edge7_Node000001_Node000007"><a xlink:title=" ">
<path fill="none" stroke="#63b8ff" d="M57.1791,-322.0332C72.2907,-334.4552 100.5184,-356.054 128,-368.5 180.5706,-392.3085 244.8276,-407.435 290.6569,-416.0753"/>
<polygon fill="#63b8ff" stroke="#63b8ff" points="290.258,-419.5605 300.7259,-417.9253 291.523,-412.6758 290.258,-419.5605"/>
</a>
</g>
</g>
<!-- Node11 -->
<g id="Node000011" class="node">
<title>Node11</title>
<g id="a_Node000011"><a xlink:href="potrRecvThread_8c.html#adbd11557ab385826d115d2a5eea41e7a" target="_top" xlink:title=" ">
<polygon fill="#ffffff" stroke="#666666" points="549,-546 451,-546 451,-527 549,-527 549,-546"/>
<text text-anchor="middle" x="500" y="-534" font-family="Helvetica,sans-Serif" font-size="10.00" fill="#000000">notify_health_alive</text>
</a>
</g>
</g>
<!-- Node1&#45;&gt;Node11 -->
<g id="edge16_Node000001_Node000011" class="edge">
<title>Node1&#45;&gt;Node11</title>
<g id="a_edge16_Node000001_Node000011"><a xlink:title=" ">
<path fill="none" stroke="#63b8ff" d="M52.2058,-322.1817C64.4669,-340.5446 93.6099,-380.5538 128,-402.5 181.7968,-436.8307 205.0512,-423.6176 265,-445.5 325.6339,-467.6325 340.0238,-475.2678 399,-501.5 415.1671,-508.691 418.4132,-512.3386 435,-518.5 440.2139,-520.4368 445.7307,-522.2745 451.2586,-523.9833"/>
<polygon fill="#63b8ff" stroke="#63b8ff" points="450.5754,-527.4311 461.1576,-526.9134 452.5622,-520.719 450.5754,-527.4311"/>
</a>
</g>
</g>
<!-- Node15 -->
<g id="Node000015" class="node">
<title>Node15</title>
<g id="a_Node000015"><a xlink:href="potrRecvThread_8c.html#a323723920a21898dde58087f13e32cca" target="_top" xlink:title=" ">
<polygon fill="#ffffff" stroke="#666666" points="235.5,-56 157.5,-56 157.5,-37 235.5,-37 235.5,-56"/>
<text text-anchor="middle" x="196.5" y="-44" font-family="Helvetica,sans-Serif" font-size="10.00" fill="#000000">get_ms_mono</text>
</a>
</g>
</g>
<!-- Node1&#45;&gt;Node15 -->
<g id="edge15_Node000001_Node000015" class="edge">
<title>Node1&#45;&gt;Node15</title>
<g id="a_edge15_Node000001_Node000015"><a xlink:title=" ">
<path fill="none" stroke="#63b8ff" d="M46.3872,-302.6298C48.3412,-266.3933 59.972,-139.2323 128,-70.5 133.5472,-64.8954 140.4755,-60.5968 147.7783,-57.3005"/>
<polygon fill="#63b8ff" stroke="#63b8ff" points="149.1119,-60.5372 157.153,-53.6385 146.5649,-54.017 149.1119,-60.5372"/>
</a>
</g>
</g>
<!-- Node16 -->
<g id="Node000016" class="node">
<title>Node16</title>
<g id="a_Node000016"><a xlink:href="packet_8c.html#a15889622b4af9f2ad1d7f3269532dc6f" target="_top" xlink:title="受信バイト列をパケット構造体に解析します。">
<polygon fill="#ffffff" stroke="#666666" points="387.5,-94 312.5,-94 312.5,-75 387.5,-75 387.5,-94"/>
<text text-anchor="middle" x="350" y="-82" font-family="Helvetica,sans-Serif" font-size="10.00" fill="#000000">packet_parse</text>
</a>
</g>
</g>
<!-- Node1&#45;&gt;Node16 -->
<g id="edge17_Node000001_Node000016" class="edge">
<title>Node1&#45;&gt;Node16</title>
<g id="a_edge17_Node000001_Node000016"><a xlink:title=" ">
<path fill="none" stroke="#63b8ff" d="M46.5914,-302.8174C49.1908,-269.5357 62.6168,-159.155 128,-109.5 178.0313,-71.504 253.6268,-71.5816 302.4063,-76.7639"/>
<polygon fill="#63b8ff" stroke="#63b8ff" points="302.0497,-80.246 312.3895,-77.9354 302.8656,-73.2937 302.0497,-80.246"/>
</a>
</g>
</g>
<!-- Node19 -->
<g id="Node000019" class="node">
<title>Node19</title>
<g id="a_Node000019"><a xlink:href="packet_8c.html#aee7ebc74dbbe67fa4c9bcdced8dca70c" target="_top" xlink:title="パケットのヘッダー + ペイロードの合計バイト数を返します。">
<polygon fill="#ffffff" stroke="#666666" points="546,-170 454,-170 454,-151 546,-151 546,-170"/>
<text text-anchor="middle" x="500" y="-158" font-family="Helvetica,sans-Serif" font-size="10.00" fill="#000000">packet_wire_size</text>
</a>
</g>
</g>
<!-- Node1&#45;&gt;Node19 -->
<g id="edge20_Node000001_Node000019" class="edge">
<title>Node1&#45;&gt;Node19</title>
<g id="a_edge20_Node000001_Node000019"><a xlink:title=" ">
<path fill="none" stroke="#63b8ff" d="M49.5236,-302.8789C58.518,-279.8615 84.7204,-221.667 128,-196.5 227.3097,-138.7516 367.1872,-143.6619 444.0172,-152.1829"/>
<polygon fill="#63b8ff" stroke="#63b8ff" points="443.6363,-155.6621 453.9751,-153.3471 444.4492,-148.7094 443.6363,-155.6621"/>
</a>
</g>
</g>
<!-- Node20 -->
<g id="Node000020" class="node">
<title>Node20</title>
<g id="a_Node000020"><a xlink:href="crypto__linux_8c.html#a87f4be5a01528fa66248534ac0c30928" target="_top" xlink:title="AES&#45;256&#45;GCM でデータを復号し、認証タグを検証します。">
<polygon fill="#ffffff" stroke="#666666" points="232,-19 161,-19 161,0 232,0 232,-19"/>
<text text-anchor="middle" x="196.5" y="-7" font-family="Helvetica,sans-Serif" font-size="10.00" fill="#000000">potr_decrypt</text>
</a>
</g>
</g>
<!-- Node1&#45;&gt;Node20 -->
<g id="edge21_Node000001_Node000020" class="edge">
<title>Node1&#45;&gt;Node20</title>
<g id="a_edge21_Node000001_Node000020"><a xlink:title=" ">
<path fill="none" stroke="#63b8ff" d="M47.4935,-302.7554C54.6233,-257.4594 86.5707,-67.9796 128,-27.5 134.39,-21.2565 142.6706,-17.107 151.2538,-14.3659"/>
<polygon fill="#63b8ff" stroke="#63b8ff" points="152.1922,-17.7384 160.9886,-11.833 150.4294,-10.964 152.1922,-17.7384"/>
</a>
</g>
</g>
<!-- Node21 -->
<g id="Node000021" class="node">
<title>Node21</title>
<g id="a_Node000021"><a xlink:href="potrRecvThread_8c.html#a69c2cb6947b8a810bb95585972a60e09" target="_top" xlink:title=" ">
<polygon fill="#ffffff" stroke="#666666" points="245,-322 148,-322 148,-303 245,-303 245,-322"/>
<text text-anchor="middle" x="196.5" y="-310" font-family="Helvetica,sans-Serif" font-size="10.00" fill="#000000">process_outer_pkt</text>
</a>
</g>
</g>
<!-- Node1&#45;&gt;Node21 -->
<g id="edge22_Node000001_Node000021" class="edge">
<title>Node1&#45;&gt;Node21</title>
<g id="a_edge22_Node000001_Node000021"><a xlink:title=" ">
<path fill="none" stroke="#63b8ff" d="M92.383,-312.5C106.6985,-312.5 122.6569,-312.5 137.6942,-312.5"/>
<polygon fill="#63b8ff" stroke="#63b8ff" points="137.926,-316.0001 147.9259,-312.5 137.9259,-309.0001 137.926,-316.0001"/>
</a>
</g>
</g>
<!-- Node22 -->
<g id="Node000022" class="node">
<title>Node22</title>
<g id="a_Node000022"><a xlink:href="potrRecvThread_8c.html#aeab28b0e8d42c5c5e28e69bf70074990" target="_top" xlink:title=" ">
<polygon fill="#ffffff" stroke="#666666" points="382,-208 318,-208 318,-189 382,-189 382,-208"/>
<text text-anchor="middle" x="350" y="-196" font-family="Helvetica,sans-Serif" font-size="10.00" fill="#000000">send_nack</text>
</a>
</g>
</g>
<!-- Node1&#45;&gt;Node22 -->
<g id="edge34_Node000001_Node000022" class="edge">
<title>Node1&#45;&gt;Node22</title>
<g id="a_edge34_Node000001_Node000022"><a xlink:title=" ">
<path fill="none" stroke="#63b8ff" d="M52.5996,-302.9248C65.0903,-285.6399 94.0034,-249.4501 128,-232.5 185.5826,-203.7903 261.1741,-197.966 307.6304,-197.4522"/>
<polygon fill="#63b8ff" stroke="#63b8ff" points="307.6622,-200.9522 317.6506,-197.4192 307.639,-193.9523 307.6622,-200.9522"/>
</a>
</g>
</g>
<!-- Node27 -->
<g id="Node000027" class="node">
<title>Node27</title>
<g id="a_Node000027"><a xlink:href="seqnum_8c.html#a45fcfa48b2d66889a5b9b8f63650336a" target="_top" xlink:title="通番 seq がウィンドウ [base, base + window_size) に含まれるか判定します。">
<polygon fill="#ffffff" stroke="#666666" points="550.5,-283 449.5,-283 449.5,-264 550.5,-264 550.5,-283"/>
<text text-anchor="middle" x="500" y="-271" font-family="Helvetica,sans-Serif" font-size="10.00" fill="#000000">seqnum_in_window</text>
</a>
</g>
</g>
<!-- Node1&#45;&gt;Node27 -->
<g id="edge39_Node000001_Node000027" class="edge">
<title>Node1&#45;&gt;Node27</title>
<g id="a_edge39_Node000001_Node000027"><a xlink:title=" ">
<path fill="none" stroke="#63b8ff" d="M81.2656,-302.9116C95.6531,-299.3718 112.5183,-295.6928 128,-293.5 237.0191,-278.0589 365.5534,-274.31 439.4348,-273.5311"/>
<polygon fill="#63b8ff" stroke="#63b8ff" points="439.5215,-277.0306 449.4893,-273.44 439.458,-270.0309 439.5215,-277.0306"/>
</a>
</g>
</g>
<!-- Node28 -->
<g id="Node000028" class="node">
<title>Node28</title>
<g id="a_Node000028"><a xlink:href="potrRecvThread_8c.html#a1794de2bc67170db1366ab5024329605" target="_top" xlink:title=" ">
<polygon fill="#ffffff" stroke="#666666" points="383.5,-132 316.5,-132 316.5,-113 383.5,-113 383.5,-132"/>
<text text-anchor="middle" x="350" y="-120" font-family="Helvetica,sans-Serif" font-size="10.00" fill="#000000">send_reject</text>
</a>
</g>
</g>
<!-- Node1&#45;&gt;Node28 -->
<g id="edge35_Node000001_Node000028" class="edge">
<title>Node1&#45;&gt;Node28</title>
<g id="a_edge35_Node000001_Node000028"><a xlink:title=" ">
<path fill="none" stroke="#63b8ff" d="M47.4838,-302.9331C52.5628,-273.7575 72.1387,-185.5288 128,-146.5 180.6987,-109.6809 258.2787,-110.4923 306.3913,-115.6317"/>
<polygon fill="#63b8ff" stroke="#63b8ff" points="306.1441,-119.1266 316.4847,-116.8197 306.9624,-112.1746 306.1441,-119.1266"/>
</a>
</g>
</g>
<!-- Node30 -->
<g id="Node000030" class="node">
<title>Node30</title>
<g id="a_Node000030"><a xlink:href="potrRecvThread_8c.html#a7ee78d472443c5ffd31c52cb06300627" target="_top" xlink:title=" ">
<polygon fill="#ffffff" stroke="#666666" points="243.5,-510 149.5,-510 149.5,-491 243.5,-491 243.5,-510"/>
<text text-anchor="middle" x="196.5" y="-498" font-family="Helvetica,sans-Serif" font-size="10.00" fill="#000000">update_path_recv</text>
</a>
</g>
</g>
<!-- Node1&#45;&gt;Node30 -->
<g id="edge40_Node000001_Node000030" class="edge">
<title>Node1&#45;&gt;Node30</title>
<g id="a_edge40_Node000001_Node000030"><a xlink:title=" ">
<path fill="none" stroke="#63b8ff" d="M47.764,-322.3363C53.5347,-351.556 74.6391,-438.5342 128,-482.5 131.5661,-485.4382 135.5613,-487.9017 139.7827,-489.9665"/>
<polygon fill="#63b8ff" stroke="#63b8ff" points="138.7269,-493.3166 149.3067,-493.8794 141.387,-486.8417 138.7269,-493.3166"/>
</a>
</g>
</g>
<!-- Node31 -->
<g id="Node000031" class="node">
<title>Node31</title>
<g id="a_Node000031"><a xlink:href="window_8c.html#a09a3ee7def6addf4974f7644a3d0c913" target="_top" xlink:title="受信ウィンドウで指定通番をスキップして次の通番へ前進させます。">
<polygon fill="#ffffff" stroke="#666666" points="244,-359 149,-359 149,-340 244,-340 244,-359"/>
<text text-anchor="middle" x="196.5" y="-347" font-family="Helvetica,sans-Serif" font-size="10.00" fill="#000000">window_recv_skip</text>
</a>
</g>
</g>
<!-- Node1&#45;&gt;Node31 -->
<g id="edge43_Node000001_Node000031" class="edge">
<title>Node1&#45;&gt;Node31</title>
<g id="a_edge43_Node000001_Node000031"><a xlink:title=" ">
<path fill="none" stroke="#63b8ff" d="M84.7575,-322.0284C103.993,-326.7574 127.4261,-332.5184 147.8561,-337.541"/>
<polygon fill="#63b8ff" stroke="#63b8ff" points="147.0661,-340.951 157.6126,-339.9396 148.7373,-334.1534 147.0661,-340.951"/>
</a>
</g>
</g>
<!-- Node32 -->
<g id="Node000032" class="node">
<title>Node32</title>
<g id="a_Node000032"><a xlink:href="window_8c.html#a809726c67053a1b04955b9f58a590c56" target="_top" xlink:title="送信ウィンドウから指定通番のパケットを取得します (再送用)。">
<polygon fill="#ffffff" stroke="#666666" points="396.5,-245 303.5,-245 303.5,-226 396.5,-226 396.5,-245"/>
<text text-anchor="middle" x="350" y="-233" font-family="Helvetica,sans-Serif" font-size="10.00" fill="#000000">window_send_get</text>
</a>
</g>
</g>
<!-- Node1&#45;&gt;Node32 -->
<g id="edge45_Node000001_Node000032" class="edge">
<title>Node1&#45;&gt;Node32</title>
<g id="a_edge45_Node000001_Node000032"><a xlink:title=" ">
<path fill="none" stroke="#63b8ff" d="M57.3344,-302.9115C72.3946,-290.7651 100.3342,-270.2442 128,-260.5 181.9063,-241.5135 247.3088,-236.1014 293.1124,-234.9274"/>
<polygon fill="#63b8ff" stroke="#63b8ff" points="293.2259,-238.426 303.1551,-234.7297 293.0881,-231.4273 293.2259,-238.426"/>
</a>
</g>
</g>
<!-- Node2&#45;&gt;Node3 -->
<g id="edge2_Node000002_Node000003" class="edge">
<title>Node2&#45;&gt;Node3</title>
<g id="a_edge2_Node000002_Node000003"><a xlink:title=" ">
<path fill="none" stroke="#63b8ff" d="M235.2345,-603.911C257.1079,-598.4961 284.4926,-591.7168 307.0254,-586.1387"/>
<polygon fill="#63b8ff" stroke="#63b8ff" points="308.1338,-589.47 316.9997,-583.6695 306.4516,-582.6751 308.1338,-589.47"/>
</a>
</g>
</g>
<!-- Node4&#45;&gt;Node3 -->
<g id="edge5_Node000004_Node000003" class="edge">
<title>Node4&#45;&gt;Node3</title>
<g id="a_edge5_Node000004_Node000003"><a xlink:title=" ">
<path fill="none" stroke="#63b8ff" d="M235.2345,-547.089C257.1079,-552.5039 284.4926,-559.2832 307.0254,-564.8613"/>
<polygon fill="#63b8ff" stroke="#63b8ff" points="306.4516,-568.3249 316.9997,-567.3305 308.1338,-561.53 306.4516,-568.3249"/>
</a>
</g>
</g>
<!-- Node5 -->
<g id="Node000005" class="node">
<title>Node5</title>
<g id="a_Node000005"><a xlink:href="potrRecvThread_8c.html#a019adce8e207841015b8f2a83e5d0a07" target="_top" xlink:title=" ">
<polygon fill="#ffffff" stroke="#666666" points="390,-529 310,-529 310,-510 390,-510 390,-529"/>
<text text-anchor="middle" x="350" y="-517" font-family="Helvetica,sans-Serif" font-size="10.00" fill="#000000">get_monotonic</text>
</a>
</g>
</g>
<!-- Node4&#45;&gt;Node5 -->
<g id="edge4_Node000004_Node000005" class="edge">
<title>Node4&#45;&gt;Node5</title>
<g id="a_edge4_Node000004_Node000005"><a xlink:title=" ">
<path fill="none" stroke="#63b8ff" d="M252.7861,-530.8997C268.0807,-529.1062 284.5449,-527.1755 299.4979,-525.4221"/>
<polygon fill="#63b8ff" stroke="#63b8ff" points="300.0513,-528.8812 309.5756,-524.2403 299.236,-521.9289 300.0513,-528.8812"/>
</a>
</g>
</g>
<!-- Node8 -->
<g id="Node000008" class="node">
<title>Node8</title>
<g id="a_Node000008"><a xlink:href="potrRecvThread_8c.html#ae3c092bf9cdbee7a84a5ee97cb550930" target="_top" xlink:title=" ">
<polygon fill="#ffffff" stroke="#666666" points="555,-509 445,-509 445,-490 555,-490 555,-509"/>
<text text-anchor="middle" x="500" y="-497" font-family="Helvetica,sans-Serif" font-size="10.00" fill="#000000">deliver_payload_elem</text>
</a>
</g>
</g>
<!-- Node7&#45;&gt;Node8 -->
<g id="edge8_Node000007_Node000008" class="edge">
<title>Node7&#45;&gt;Node8</title>
<g id="a_edge8_Node000007_Node000008"><a xlink:title=" ">
<path fill="none" stroke="#63b8ff" d="M372.6583,-435.0296C381.1991,-439.0202 390.8198,-444.0105 399,-449.5 416.7757,-461.4288 416.1969,-471.2669 435,-481.5 438.2783,-483.2841 441.748,-484.9031 445.3105,-486.3702"/>
<polygon fill="#63b8ff" stroke="#63b8ff" points="444.2966,-489.7268 454.8899,-489.9087 446.7222,-483.1605 444.2966,-489.7268"/>
</a>
</g>
</g>
<!-- Node7&#45;&gt;Node11 -->
<g id="edge11_Node000007_Node000011" class="edge">
<title>Node7&#45;&gt;Node11</title>
<g id="a_edge11_Node000007_Node000011"><a xlink:title=" ">
<path fill="none" stroke="#63b8ff" d="M377.1349,-435.0591C384.852,-438.7108 392.8277,-443.4827 399,-449.5 423.7677,-473.6455 408.1047,-496.7494 435,-518.5 437.0713,-520.1751 439.2878,-521.6946 441.6073,-523.073"/>
<polygon fill="#63b8ff" stroke="#63b8ff" points="440.4617,-526.4116 450.9754,-527.7203 443.5725,-520.1408 440.4617,-526.4116"/>
</a>
</g>
</g>
<!-- Node12 -->
<g id="Node000012" class="node">
<title>Node12</title>
<g id="a_Node000012"><a xlink:href="packet_8c.html#a794632611e7b50ce887e971786a0d5a3" target="_top" xlink:title="データパケットから次のペイロードエレメントを取り出します。">
<polygon fill="#ffffff" stroke="#666666" points="553.5,-472 446.5,-472 446.5,-453 553.5,-453 553.5,-472"/>
<text text-anchor="middle" x="500" y="-460" font-family="Helvetica,sans-Serif" font-size="10.00" fill="#000000">packet_unpack_next</text>
</a>
</g>
</g>
<!-- Node7&#45;&gt;Node12 -->
<g id="edge12_Node000007_Node000012" class="edge">
<title>Node7&#45;&gt;Node12</title>
<g id="a_edge12_Node000007_Node000012"><a xlink:title=" ">
<path fill="none" stroke="#63b8ff" d="M388.6287,-435.0284C407.8003,-439.7574 431.1556,-445.5184 451.5177,-450.541"/>
<polygon fill="#63b8ff" stroke="#63b8ff" points="450.6945,-453.9428 461.2418,-452.9396 452.371,-447.1465 450.6945,-453.9428"/>
</a>
</g>
</g>
<!-- Node13 -->
<g id="Node000013" class="node">
<title>Node13</title>
<g id="a_Node000013"><a xlink:href="window_8c.html#a883a182a547ff084957069939b131527" target="_top" xlink:title="受信ウィンドウから順序整列済みパケットを取り出します。">
<polygon fill="#ffffff" stroke="#666666" points="546.5,-435 453.5,-435 453.5,-416 546.5,-416 546.5,-435"/>
<text text-anchor="middle" x="500" y="-423" font-family="Helvetica,sans-Serif" font-size="10.00" fill="#000000">window_recv_pop</text>
</a>
</g>
</g>
<!-- Node7&#45;&gt;Node13 -->
<g id="edge13_Node000007_Node000013" class="edge">
<title>Node7&#45;&gt;Node13</title>
<g id="a_edge13_Node000007_Node000013"><a xlink:title=" ">
<path fill="none" stroke="#63b8ff" d="M399.1156,-425.5C413.1415,-425.5 428.5439,-425.5 442.9985,-425.5"/>
<polygon fill="#63b8ff" stroke="#63b8ff" points="443.3229,-429.0001 453.3228,-425.5 443.3228,-422.0001 443.3229,-429.0001"/>
</a>
</g>
</g>
<!-- Node9 -->
<g id="Node000009" class="node">
<title>Node9</title>
<g id="a_Node000009"><a xlink:href="potrRecvThread_8c.html#a6c210bf450de8b4bc7b00a665ab436f9" target="_top" xlink:title=" ">
<polygon fill="#ffffff" stroke="#666666" points="677.5,-509 608.5,-509 608.5,-490 677.5,-490 677.5,-509"/>
<text text-anchor="middle" x="643" y="-497" font-family="Helvetica,sans-Serif" font-size="10.00" fill="#000000">recv_deliver</text>
</a>
</g>
</g>
<!-- Node8&#45;&gt;Node9 -->
<g id="edge9_Node000008_Node000009" class="edge">
<title>Node8&#45;&gt;Node9</title>
<g id="a_edge9_Node000008_Node000009"><a xlink:title=" ">
<path fill="none" stroke="#63b8ff" d="M555.2875,-499.5C569.4418,-499.5 584.4909,-499.5 598.0541,-499.5"/>
<polygon fill="#63b8ff" stroke="#63b8ff" points="598.0969,-503.0001 608.0969,-499.5 598.0968,-496.0001 598.0969,-503.0001"/>
</a>
</g>
</g>
<!-- Node10 -->
<g id="Node000010" class="node">
<title>Node10</title>
<g id="a_Node000010"><a xlink:href="compress__linux_8c.html#a9b4c1ab5034e8a243544747d2efdcd21" target="_top" xlink:title="圧縮データを解凍します。">
<polygon fill="#ffffff" stroke="#666666" points="813,-509 721,-509 721,-490 813,-490 813,-509"/>
<text text-anchor="middle" x="767" y="-497" font-family="Helvetica,sans-Serif" font-size="10.00" fill="#000000">potr_decompress</text>
</a>
</g>
</g>
<!-- Node9&#45;&gt;Node10 -->
<g id="edge10_Node000009_Node000010" class="edge">
<title>Node9&#45;&gt;Node10</title>
<g id="a_edge10_Node000009_Node000010"><a xlink:title=" ">
<path fill="none" stroke="#63b8ff" d="M677.5409,-499.5C687.7459,-499.5 699.1947,-499.5 710.406,-499.5"/>
<polygon fill="#63b8ff" stroke="#63b8ff" points="710.5928,-503.0001 720.5928,-499.5 710.5927,-496.0001 710.5928,-503.0001"/>
</a>
</g>
</g>
<!-- Node14 -->
<g id="Node000014" class="node">
<title>Node14</title>
<g id="a_Node000014"><a xlink:href="window_8c.html#ad5f53882d6cd6075a78e83b94fb62cc3" target="_top" xlink:title=" ">
<polygon fill="#ffffff" stroke="#666666" points="672.5,-359 613.5,-359 613.5,-340 672.5,-340 672.5,-359"/>
<text text-anchor="middle" x="643" y="-347" font-family="Helvetica,sans-Serif" font-size="10.00" fill="#000000">win_index</text>
</a>
</g>
</g>
<!-- Node13&#45;&gt;Node14 -->
<g id="edge14_Node000013_Node000014" class="edge">
<title>Node13&#45;&gt;Node14</title>
<g id="a_edge14_Node000013_Node000014"><a xlink:title=" ">
<path fill="none" stroke="#63b8ff" d="M530.395,-415.9369C541.5252,-412.0069 554.0652,-407.0662 565,-401.5 585.4903,-391.0696 607.1195,-376.3153 622.3904,-365.1858"/>
<polygon fill="#63b8ff" stroke="#63b8ff" points="624.638,-367.8766 630.5903,-359.1118 620.4714,-362.2516 624.638,-367.8766"/>
</a>
</g>
</g>
<!-- Node17 -->
<g id="Node000017" class="node">
<title>Node17</title>
<g id="a_Node000017"><a xlink:href="packet_8c.html#a1890f684720279e482a7731dd14ff5b7" target="_top" xlink:title=" ">
<polygon fill="#ffffff" stroke="#666666" points="666,-95 620,-95 620,-76 666,-76 666,-95"/>
<text text-anchor="middle" x="643" y="-83" font-family="Helvetica,sans-Serif" font-size="10.00" fill="#000000">ntoh64</text>
</a>
</g>
</g>
<!-- Node16&#45;&gt;Node17 -->
<g id="edge18_Node000016_Node000017" class="edge">
<title>Node16&#45;&gt;Node17</title>
<g id="a_edge18_Node000016_Node000017"><a xlink:title=" ">
<path fill="none" stroke="#63b8ff" d="M387.7048,-84.6287C445.3749,-84.8255 554.5747,-85.1982 609.5705,-85.3859"/>
<polygon fill="#63b8ff" stroke="#63b8ff" points="609.8037,-88.8866 619.8156,-85.4209 609.8277,-81.8867 609.8037,-88.8866"/>
</a>
</g>
</g>
<!-- Node18 -->
<g id="Node000018" class="node">
<title>Node18</title>
<g id="a_Node000018"><a xlink:href="packet_8c.html#a6564ae80f665edd6931ef662818e19b0" target="_top" xlink:title=" ">
<polygon fill="#ffffff" stroke="#666666" points="790,-114 744,-114 744,-95 790,-95 790,-114"/>
<text text-anchor="middle" x="767" y="-102" font-family="Helvetica,sans-Serif" font-size="10.00" fill="#000000">hton64</text>
</a>
</g>
</g>
<!-- Node17&#45;&gt;Node18 -->
<g id="edge19_Node000017_Node000018" class="edge">
<title>Node17&#45;&gt;Node18</title>
<g id="a_edge19_Node000017_Node000018"><a xlink:title=" ">
<path fill="none" stroke="#63b8ff" d="M666.0328,-89.0292C685.0528,-91.9436 712.3005,-96.1186 733.6975,-99.3972"/>
<polygon fill="#63b8ff" stroke="#63b8ff" points="733.255,-102.8702 743.6697,-100.9252 734.3152,-95.9509 733.255,-102.8702"/>
</a>
</g>
</g>
<!-- Node21&#45;&gt;Node7 -->
<g id="edge23_Node000021_Node000007" class="edge">
<title>Node21&#45;&gt;Node7</title>
<g id="a_edge23_Node000021_Node000007"><a xlink:title=" ">
<path fill="none" stroke="#63b8ff" d="M245.1264,-321.4688C252.0727,-323.8199 258.916,-326.7788 265,-330.5 281.8988,-340.8359 316.728,-383.1707 336.1474,-407.6978"/>
<polygon fill="#63b8ff" stroke="#63b8ff" points="333.6121,-410.1362 342.543,-415.8362 339.116,-405.8109 333.6121,-410.1362"/>
</a>
</g>
</g>
<!-- Node21&#45;&gt;Node22 -->
<g id="edge24_Node000021_Node000022" class="edge">
<title>Node21&#45;&gt;Node22</title>
<g id="a_edge24_Node000021_Node000022"><a xlink:title=" ">
<path fill="none" stroke="#63b8ff" d="M204.7388,-302.713C221.2221,-283.6824 260.1935,-241.3806 301,-216.5 303.5027,-214.974 306.1552,-213.5463 308.8796,-212.2164"/>
<polygon fill="#63b8ff" stroke="#63b8ff" points="310.5617,-215.3003 318.3069,-208.0709 307.7439,-208.8925 310.5617,-215.3003"/>
</a>
</g>
</g>
<!-- Node25 -->
<g id="Node000025" class="node">
<title>Node25</title>
<g id="a_Node000025"><a xlink:href="window_8c.html#a6ecfb9f52ac33918ba6f8cd0386b17c2" target="_top" xlink:title="受信ウィンドウで欠番が発生しているか確認し、NACK 番号を返します。">
<polygon fill="#ffffff" stroke="#666666" points="565,-359 435,-359 435,-340 565,-340 565,-359"/>
<text text-anchor="middle" x="500" y="-347" font-family="Helvetica,sans-Serif" font-size="10.00" fill="#000000">window_recv_needs_nack</text>
</a>
</g>
</g>
<!-- Node21&#45;&gt;Node25 -->
<g id="edge29_Node000021_Node000025" class="edge">
<title>Node21&#45;&gt;Node25</title>
<g id="a_edge29_Node000021_Node000025"><a xlink:title=" ">
<path fill="none" stroke="#63b8ff" d="M245.0565,-321.0319C262.6446,-323.9549 282.6848,-327.0922 301,-329.5 341.7509,-334.8574 387.363,-339.5364 424.6282,-343.019"/>
<polygon fill="#63b8ff" stroke="#63b8ff" points="424.6268,-346.5337 434.9065,-343.9691 425.2712,-339.5634 424.6268,-346.5337"/>
</a>
</g>
</g>
<!-- Node26 -->
<g id="Node000026" class="node">
<title>Node26</title>
<g id="a_Node000026"><a xlink:href="window_8c.html#ac134e864859663f32389cf30fe55bc6e" target="_top" xlink:title="受信ウィンドウにパケットを格納します。">
<polygon fill="#ffffff" stroke="#666666" points="399,-321 301,-321 301,-302 399,-302 399,-321"/>
<text text-anchor="middle" x="350" y="-309" font-family="Helvetica,sans-Serif" font-size="10.00" fill="#000000">window_recv_push</text>
</a>
</g>
</g>
<!-- Node21&#45;&gt;Node26 -->
<g id="edge31_Node000021_Node000026" class="edge">
<title>Node21&#45;&gt;Node26</title>
<g id="a_edge31_Node000021_Node000026"><a xlink:title=" ">
<path fill="none" stroke="#63b8ff" d="M245.0684,-312.1836C259.5554,-312.0892 275.598,-311.9847 290.6906,-311.8864"/>
<polygon fill="#63b8ff" stroke="#63b8ff" points="290.9798,-315.3847 300.9568,-311.8195 290.9342,-308.3848 290.9798,-315.3847"/>
</a>
</g>
</g>
<!-- Node22&#45;&gt;Node19 -->
<g id="edge28_Node000022_Node000019" class="edge">
<title>Node22&#45;&gt;Node19</title>
<g id="a_edge28_Node000022_Node000019"><a xlink:title=" ">
<path fill="none" stroke="#63b8ff" d="M382.1788,-190.348C402.6502,-185.1619 429.5228,-178.3542 452.4339,-172.5501"/>
<polygon fill="#63b8ff" stroke="#63b8ff" points="453.4771,-175.8965 462.3113,-170.0478 451.758,-169.1108 453.4771,-175.8965"/>
</a>
</g>
</g>
<!-- Node23 -->
<g id="Node000023" class="node">
<title>Node23</title>
<g id="a_Node000023"><a xlink:href="packet_8c.html#a3f4ec3e4fc9c07b3704ecd8ae082af10" target="_top" xlink:title="NACK パケットを構築します。">
<polygon fill="#ffffff" stroke="#666666" points="549,-207 451,-207 451,-188 549,-188 549,-207"/>
<text text-anchor="middle" x="500" y="-195" font-family="Helvetica,sans-Serif" font-size="10.00" fill="#000000">packet_build_nack</text>
</a>
</g>
</g>
<!-- Node22&#45;&gt;Node23 -->
<g id="edge25_Node000022_Node000023" class="edge">
<title>Node22&#45;&gt;Node23</title>
<g id="a_edge25_Node000022_Node000023"><a xlink:title=" ">
<path fill="none" stroke="#63b8ff" d="M382.1788,-198.2855C399.1857,-198.1721 420.6105,-198.0293 440.5115,-197.8966"/>
<polygon fill="#63b8ff" stroke="#63b8ff" points="440.7717,-201.395 450.7481,-197.8283 440.7249,-194.3952 440.7717,-201.395"/>
</a>
</g>
</g>
<!-- Node24 -->
<g id="Node000024" class="node">
<title>Node24</title>
<g id="a_Node000024"><a xlink:href="packet_8c.html#a479088cf3b9ccf5ebe8891ad2881b196" target="_top" xlink:title=" ">
<polygon fill="#ffffff" stroke="#666666" points="685,-132 601,-132 601,-113 685,-113 685,-132"/>
<text text-anchor="middle" x="643" y="-120" font-family="Helvetica,sans-Serif" font-size="10.00" fill="#000000">fill_session_hdr</text>
</a>
</g>
</g>
<!-- Node23&#45;&gt;Node24 -->
<g id="edge26_Node000023_Node000024" class="edge">
<title>Node23&#45;&gt;Node24</title>
<g id="a_edge26_Node000023_Node000024"><a xlink:title=" ">
<path fill="none" stroke="#63b8ff" d="M540.6745,-187.9114C548.9201,-185.3344 557.3908,-182.2089 565,-178.5 586.7962,-167.8762 609.0045,-151.2467 624.1203,-138.8656"/>
<polygon fill="#63b8ff" stroke="#63b8ff" points="626.7257,-141.2489 632.1439,-132.1443 622.2306,-135.8828 626.7257,-141.2489"/>
</a>
</g>
</g>
<!-- Node24&#45;&gt;Node18 -->
<g id="edge27_Node000024_Node000018" class="edge">
<title>Node24&#45;&gt;Node18</title>
<g id="a_edge27_Node000024_Node000018"><a xlink:title=" ">
<path fill="none" stroke="#63b8ff" d="M685.3269,-116.3558C701.1348,-114.0611 718.8462,-111.4901 733.7245,-109.3303"/>
<polygon fill="#63b8ff" stroke="#63b8ff" points="734.5964,-112.7405 743.9898,-107.8402 733.5907,-105.8131 734.5964,-112.7405"/>
</a>
</g>
</g>
<!-- Node25&#45;&gt;Node14 -->
<g id="edge30_Node000025_Node000014" class="edge">
<title>Node25&#45;&gt;Node14</title>
<g id="a_edge30_Node000025_Node000014"><a xlink:title=" ">
<path fill="none" stroke="#63b8ff" d="M565.223,-349.5C578.0816,-349.5 591.213,-349.5 602.9366,-349.5"/>
<polygon fill="#63b8ff" stroke="#63b8ff" points="603.2591,-353.0001 613.2591,-349.5 603.259,-346.0001 603.2591,-353.0001"/>
</a>
</g>
</g>
<!-- Node26&#45;&gt;Node14 -->
<g id="edge33_Node000026_Node000014" class="edge">
<title>Node26&#45;&gt;Node14</title>
<g id="a_edge33_Node000026_Node000014"><a xlink:title=" ">
<path fill="none" stroke="#63b8ff" d="M399.3647,-313.7435C443.1144,-316.2346 508.6179,-321.1962 565,-330.5 577.5699,-332.5742 591.1076,-335.5895 603.3195,-338.6094"/>
<polygon fill="#63b8ff" stroke="#63b8ff" points="602.661,-342.0533 613.2153,-341.1266 604.3867,-335.2693 602.661,-342.0533"/>
</a>
</g>
</g>
<!-- Node26&#45;&gt;Node27 -->
<g id="edge32_Node000026_Node000027" class="edge">
<title>Node26&#45;&gt;Node27</title>
<g id="a_edge32_Node000026_Node000027"><a xlink:title=" ">
<path fill="none" stroke="#63b8ff" d="M387.8513,-301.911C407.4671,-296.9417 431.6187,-290.8233 452.479,-285.5387"/>
<polygon fill="#63b8ff" stroke="#63b8ff" points="453.5866,-288.8687 462.4209,-283.0201 451.8675,-282.0831 453.5866,-288.8687"/>
</a>
</g>
</g>
<!-- Node28&#45;&gt;Node19 -->
<g id="edge38_Node000028_Node000019" class="edge">
<title>Node28&#45;&gt;Node19</title>
<g id="a_edge38_Node000028_Node000019"><a xlink:title=" ">
<path fill="none" stroke="#63b8ff" d="M383.6629,-131.0279C403.9622,-136.1704 430.1367,-142.8013 452.5163,-148.4708"/>
<polygon fill="#63b8ff" stroke="#63b8ff" points="451.9438,-151.9363 462.4971,-150.9993 453.6629,-145.1506 451.9438,-151.9363"/>
</a>
</g>
</g>
<!-- Node29 -->
<g id="Node000029" class="node">
<title>Node29</title>
<g id="a_Node000029"><a xlink:href="packet_8c.html#a43aeeb2f7222107832ecb58a92598d12" target="_top" xlink:title="再送不能通知 (REJECT) パケットを構築します。">
<polygon fill="#ffffff" stroke="#666666" points="550.5,-132 449.5,-132 449.5,-113 550.5,-113 550.5,-132"/>
<text text-anchor="middle" x="500" y="-120" font-family="Helvetica,sans-Serif" font-size="10.00" fill="#000000">packet_build_reject</text>
</a>
</g>
</g>
<!-- Node28&#45;&gt;Node29 -->
<g id="edge36_Node000028_Node000029" class="edge">
<title>Node28&#45;&gt;Node29</title>
<g id="a_edge36_Node000028_Node000029"><a xlink:title=" ">
<path fill="none" stroke="#63b8ff" d="M383.6629,-122.5C400.0637,-122.5 420.2999,-122.5 439.271,-122.5"/>
<polygon fill="#63b8ff" stroke="#63b8ff" points="439.3476,-126.0001 449.3476,-122.5 439.3475,-119.0001 439.3476,-126.0001"/>
</a>
</g>
</g>
<!-- Node29&#45;&gt;Node24 -->
<g id="edge37_Node000029_Node000024" class="edge">
<title>Node29&#45;&gt;Node24</title>
<g id="a_edge37_Node000029_Node000024"><a xlink:title=" ">
<path fill="none" stroke="#63b8ff" d="M550.8191,-122.5C563.7413,-122.5 577.6497,-122.5 590.6468,-122.5"/>
<polygon fill="#63b8ff" stroke="#63b8ff" points="590.8386,-126.0001 600.8386,-122.5 590.8385,-119.0001 590.8386,-126.0001"/>
</a>
</g>
</g>
<!-- Node30&#45;&gt;Node5 -->
<g id="edge41_Node000030_Node000005" class="edge">
<title>Node30&#45;&gt;Node5</title>
<g id="a_edge41_Node000030_Node000005"><a xlink:title=" ">
<path fill="none" stroke="#63b8ff" d="M243.8076,-506.3557C261.5632,-508.5534 281.7967,-511.0579 299.8053,-513.287"/>
<polygon fill="#63b8ff" stroke="#63b8ff" points="299.4784,-516.7731 309.8326,-514.5281 300.3383,-509.8262 299.4784,-516.7731"/>
</a>
</g>
</g>
<!-- Node31&#45;&gt;Node14 -->
<g id="edge44_Node000031_Node000014" class="edge">
<title>Node31&#45;&gt;Node14</title>
<g id="a_edge44_Node000031_Node000014"><a xlink:title=" ">
<path fill="none" stroke="#63b8ff" d="M244.0852,-357.1211C314.4655,-367.225 450.3537,-382.2621 565,-368.5 577.6491,-366.9816 591.2094,-364.1252 603.4177,-361.0799"/>
<polygon fill="#63b8ff" stroke="#63b8ff" points="604.5111,-364.4119 613.3049,-358.5026 602.7454,-357.6383 604.5111,-364.4119"/>
</a>
</g>
</g>
<!-- Node32&#45;&gt;Node14 -->
<g id="edge47_Node000032_Node000014" class="edge">
<title>Node32&#45;&gt;Node14</title>
<g id="a_edge47_Node000032_Node000014"><a xlink:title=" ">
<path fill="none" stroke="#63b8ff" d="M396.5174,-229.6356C442.1342,-226.0912 512.3116,-226.6839 565,-254.5 597.3847,-271.597 621.4014,-308.4606 633.7168,-330.9079"/>
<polygon fill="#63b8ff" stroke="#63b8ff" points="630.6501,-332.5961 638.4046,-339.8154 636.8446,-329.336 630.6501,-332.5961"/>
</a>
</g>
</g>
<!-- Node32&#45;&gt;Node27 -->
<g id="edge46_Node000032_Node000027" class="edge">
<title>Node32&#45;&gt;Node27</title>
<g id="a_edge46_Node000032_Node000027"><a xlink:title=" ">
<path fill="none" stroke="#63b8ff" d="M387.8513,-245.089C407.4671,-250.0583 431.6187,-256.1767 452.479,-261.4613"/>
<polygon fill="#63b8ff" stroke="#63b8ff" points="451.8675,-264.9169 462.4209,-263.9799 453.5866,-258.1313 451.8675,-264.9169"/>
</a>
</g>
</g>
</g>
</svg>
