<?xml version="1.0" encoding="UTF-8" standalone="no"?>
<!DOCTYPE svg PUBLIC "-//W3C//DTD SVG 1.1//EN"
 "http://www.w3.org/Graphics/SVG/1.1/DTD/svg11.dtd">
<!-- Generated by graphviz version 2.40.1 (0)
 -->
<!-- Title: main Pages: 1 -->
<!--zoomable 438 -->

<svg id="main" version="1.1" xmlns="http://www.w3.org/2000/svg" xmlns:xlink="http://www.w3.org/1999/xlink" xml:space="preserve" onload="init(evt)">

<style type="text/css"><![CDATA[
.node, .edge {opacity: 0.7;}
.node.selected, .edge.selected {opacity: 1;}
.edge:hover path { stroke: red; }
.edge:hover polygon { stroke: red; fill: red; }
]]></style>

<defs>
  <circle id="rim" cx="0" cy="0" r="7"/>
  <circle id="rim2" cx="0" cy="0" r="3.5"/>
  <g id="zoomPlus">
    <use xlink:href="#rim" fill="#404040"><set attributeName="fill" to="#808080" begin="zoomplus.mouseover" end="zoomplus.mouseout"/></use>
    <path d="M-4,0h8M0,-4v8" fill="none" stroke="white" stroke-width="1.5" pointer-events="none"/>
  </g>
  <g id="zoomMin">
    <use xlink:href="#rim" fill="#404040"><set attributeName="fill" to="#808080" begin="zoomminus.mouseover" end="zoomminus.mouseout"/></use>
    <path d="M-4,0h8" fill="none" stroke="white" stroke-width="1.5" pointer-events="none"/>
  </g>
  <g id="arrowUp" transform="translate(30 24)">
    <use xlink:href="#rim"/>
    <path pointer-events="none" fill="none" stroke="white" stroke-width="1.5" d="M0,-3.0v7 M-2.5,-0.5L0,-3.0L2.5,-0.5"/>
  </g>
  <g id="arrowRight" transform="rotate(90) translate(36 -43)">
    <use xlink:href="#rim"/>
    <path pointer-events="none" fill="none" stroke="white" stroke-width="1.5" d="M0,-3.0v7 M-2.5,-0.5L0,-3.0L2.5,-0.5"/>
  </g>
  <g id="arrowDown" transform="rotate(180) translate(-30 -48)">
    <use xlink:href="#rim"/>
    <path pointer-events="none" fill="none" stroke="white" stroke-width="1.5" d="M0,-3.0v7 M-2.5,-0.5L0,-3.0L2.5,-0.5"/>
  </g>
  <g id="arrowLeft" transform="rotate(270) translate(-36 17)">
    <use xlink:href="#rim"/>
    <path pointer-events="none" fill="none" stroke="white" stroke-width="1.5" d="M0,-3.0v7 M-2.5,-0.5L0,-3.0L2.5,-0.5"/>
  </g>
  <g id="resetDef">
    <use xlink:href="#rim2" fill="#404040"><set attributeName="fill" to="#808080" begin="reset.mouseover" end="reset.mouseout"/></use>
  </g>
</defs>
<script type="application/ecmascript">
var viewWidth = 782;
var viewHeight = 438;
var sectionId = 'dynsection-3';
</script>
<script type="application/ecmascript" xlink:href="svg.min.js"/>
<svg id="graph" class="graph">
<g id="viewport">
<title>main</title>
<!-- Node1 -->
<g id="Node000001" class="node">
<title>Node1</title>
<g id="a_Node000001"><a xlink:title="メインエントリーポイント。">
<polygon fill="#999999" stroke="#666666" points="38,-279 0,-279 0,-260 38,-260 38,-279"/>
<text text-anchor="middle" x="19" y="-267" font-family="Helvetica,sans-Serif" font-size="10.00" fill="#000000">main</text>
</a>
</g>
</g>
<!-- Node2 -->
<g id="Node000002" class="node">
<title>Node2</title>
<g id="a_Node000002"><a xlink:href="recv_8c.html#ac60e5b9f39e7833dd0bff674009b61a0" target="_top" xlink:title="受信コールバック関数。">
<polygon fill="#ffffff" stroke="#666666" points="144,-391 93,-391 93,-372 144,-372 144,-391"/>
<text text-anchor="middle" x="118.5" y="-379" font-family="Helvetica,sans-Serif" font-size="10.00" fill="#000000">on_recv</text>
</a>
</g>
</g>
<!-- Node1&#45;&gt;Node2 -->
<g id="edge1_Node000001_Node000002" class="edge">
<title>Node1&#45;&gt;Node2</title>
<g id="a_edge1_Node000001_Node000002"><a xlink:title=" ">
<path fill="none" stroke="#63b8ff" d="M22.2327,-279.1486C28.9741,-297.8975 46.2518,-339.5099 74,-363.5 76.8803,-365.9902 80.1498,-368.1648 83.578,-370.0573"/>
<polygon fill="#63b8ff" stroke="#63b8ff" points="82.3262,-373.3364 92.8644,-374.4304 85.3085,-367.0035 82.3262,-373.3364"/>
</a>
</g>
</g>
<!-- Node3 -->
<g id="Node000003" class="node">
<title>Node3</title>
<g id="a_Node000003"><a xlink:href="potrClose_8c.html#a51c433a52d99667ce32f68845db2379e" target="_top" xlink:title="サービスを閉じます。">
<polygon fill="#ffffff" stroke="#666666" points="147.5,-354 89.5,-354 89.5,-335 147.5,-335 147.5,-354"/>
<text text-anchor="middle" x="118.5" y="-342" font-family="Helvetica,sans-Serif" font-size="10.00" fill="#000000">potrClose</text>
</a>
</g>
</g>
<!-- Node1&#45;&gt;Node3 -->
<g id="edge2_Node000001_Node000003" class="edge">
<title>Node1&#45;&gt;Node3</title>
<g id="a_edge2_Node000001_Node000003"><a xlink:title=" ">
<path fill="none" stroke="#63b8ff" d="M32.0079,-279.3049C48.7106,-291.8949 77.8974,-313.895 97.6997,-328.8214"/>
<polygon fill="#63b8ff" stroke="#63b8ff" points="95.7112,-331.7054 105.8035,-334.9298 99.9247,-326.1156 95.7112,-331.7054"/>
</a>
</g>
</g>
<!-- Node6 -->
<g id="Node000006" class="node">
<title>Node6</title>
<g id="a_Node000006"><a xlink:href="potrOpenService_8c.html#a7b5bb6c02c8f7ca7eaa193b07bbe7cba" target="_top" xlink:title="設定ファイルから指定サービスを開きます。">
<polygon fill="#ffffff" stroke="#666666" points="163,-261 74,-261 74,-242 163,-242 163,-261"/>
<text text-anchor="middle" x="118.5" y="-249" font-family="Helvetica,sans-Serif" font-size="10.00" fill="#000000">potrOpenService</text>
</a>
</g>
</g>
<!-- Node1&#45;&gt;Node6 -->
<g id="edge5_Node000001_Node000006" class="edge">
<title>Node1&#45;&gt;Node6</title>
<g id="a_edge5_Node000001_Node000006"><a xlink:title=" ">
<path fill="none" stroke="#63b8ff" d="M38.1846,-266.0294C45.6495,-264.679 54.6133,-263.0574 63.8046,-261.3947"/>
<polygon fill="#63b8ff" stroke="#63b8ff" points="64.5899,-264.8095 73.8071,-259.5851 63.3437,-257.9213 64.5899,-264.8095"/>
</a>
</g>
</g>
<!-- Node32 -->
<g id="Node000032" class="node">
<title>Node32</title>
<g id="a_Node000032"><a xlink:href="recv_8c.html#a1ee1c53cf345098b4cbfd9d7517cd203" target="_top" xlink:title="SIGINT シグナルハンドラー。">
<polygon fill="#ffffff" stroke="#666666" points="151.5,-224 85.5,-224 85.5,-205 151.5,-205 151.5,-224"/>
<text text-anchor="middle" x="118.5" y="-212" font-family="Helvetica,sans-Serif" font-size="10.00" fill="#000000">sig_handler</text>
</a>
</g>
</g>
<!-- Node1&#45;&gt;Node32 -->
<g id="edge40_Node000001_Node000032" class="edge">
<title>Node1&#45;&gt;Node32</title>
<g id="a_edge40_Node000001_Node000032"><a xlink:title=" ">
<path fill="none" stroke="#63b8ff" d="M32.1567,-259.9409C43.0537,-252.2586 59.1097,-241.472 74,-233.5 77.3049,-231.7306 80.8097,-230.0008 84.3444,-228.3505"/>
<polygon fill="#63b8ff" stroke="#63b8ff" points="85.9489,-231.4672 93.6539,-224.1951 83.0956,-225.0751 85.9489,-231.4672"/>
</a>
</g>
</g>
<!-- Node4 -->
<g id="Node000004" class="node">
<title>Node4</title>
<g id="a_Node000004"><a xlink:href="potrRecvThread_8c.html#a7c78b3cb3453065cd140eb118741ad45" target="_top" xlink:title="受信スレッドを停止します。">
<polygon fill="#ffffff" stroke="#666666" points="323.5,-430 199.5,-430 199.5,-411 323.5,-411 323.5,-430"/>
<text text-anchor="middle" x="261.5" y="-418" font-family="Helvetica,sans-Serif" font-size="10.00" fill="#000000">comm_recv_thread_stop</text>
</a>
</g>
</g>
<!-- Node3&#45;&gt;Node4 -->
<g id="edge3_Node000003_Node000004" class="edge">
<title>Node3&#45;&gt;Node4</title>
<g id="a_edge3_Node000003_Node000004"><a xlink:title=" ">
<path fill="none" stroke="#63b8ff" d="M145.1372,-354.1331C151.2111,-356.7981 157.4933,-359.949 163,-363.5 181.2414,-375.2628 180.5447,-385.0757 199,-396.5 205.5227,-400.5377 212.8363,-404.0887 220.0996,-407.1356"/>
<polygon fill="#63b8ff" stroke="#63b8ff" points="219.3061,-410.5839 229.8936,-410.9762 221.8616,-404.067 219.3061,-410.5839"/>
</a>
</g>
</g>
<!-- Node5 -->
<g id="Node000005" class="node">
<title>Node5</title>
<g id="a_Node000005"><a xlink:href="potrIpAddr_8c.html#a3cec4d9d1cf322295151f0f4319db29e" target="_top" xlink:title=" ">
<polygon fill="#ffffff" stroke="#666666" points="459.5,-327 371.5,-327 371.5,-308 459.5,-308 459.5,-327"/>
<text text-anchor="middle" x="415.5" y="-315" font-family="Helvetica,sans-Serif" font-size="10.00" fill="#000000">parse_ipv4_addr</text>
</a>
</g>
</g>
<!-- Node3&#45;&gt;Node5 -->
<g id="edge4_Node000003_Node000005" class="edge">
<title>Node3&#45;&gt;Node5</title>
<g id="a_edge4_Node000003_Node000005"><a xlink:title=" ">
<path fill="none" stroke="#63b8ff" d="M147.5025,-352.9933C187.6785,-363.4515 262.2947,-378.1378 324,-363.5 349.1915,-357.5241 375.3294,-343.4631 393.1862,-332.4485"/>
<polygon fill="#63b8ff" stroke="#63b8ff" points="395.1577,-335.3426 401.7205,-327.0252 391.4032,-329.4346 395.1577,-335.3426"/>
</a>
</g>
</g>
<!-- Node7 -->
<g id="Node000007" class="node">
<title>Node7</title>
<g id="a_Node000007"><a xlink:href="potrRecvThread_8c.html#a1006d5ccaf47db6c24908eb7ae366505" target="_top" xlink:title="受信スレッドを起動します。">
<polygon fill="#ffffff" stroke="#666666" points="324,-169 199,-169 199,-150 324,-150 324,-169"/>
<text text-anchor="middle" x="261.5" y="-157" font-family="Helvetica,sans-Serif" font-size="10.00" fill="#000000">comm_recv_thread_start</text>
</a>
</g>
</g>
<!-- Node6&#45;&gt;Node7 -->
<g id="edge6_Node000006_Node000007" class="edge">
<title>Node6&#45;&gt;Node7</title>
<g id="a_edge6_Node000006_Node000007"><a xlink:title=" ">
<path fill="none" stroke="#63b8ff" d="M149.5559,-241.8072C154.3392,-239.5273 159.0078,-236.7802 163,-233.5 185.5729,-214.9529 175.6221,-196.0216 199,-178.5 201.5056,-176.6221 204.1976,-174.9283 207.0068,-173.4006"/>
<polygon fill="#63b8ff" stroke="#63b8ff" points="208.7121,-176.4672 216.2928,-169.0655 205.751,-170.1244 208.7121,-176.4672"/>
</a>
</g>
</g>
<!-- Node20 -->
<g id="Node000020" class="node">
<title>Node20</title>
<g id="a_Node000020"><a xlink:href="config_8c.html#afd290b0c734dce1335e786e638c67a12" target="_top" xlink:title="設定ファイルから [global] セクションを読み込みます。">
<polygon fill="#ffffff" stroke="#666666" points="310,-132 213,-132 213,-113 310,-113 310,-132"/>
<text text-anchor="middle" x="261.5" y="-120" font-family="Helvetica,sans-Serif" font-size="10.00" fill="#000000">config_load_global</text>
</a>
</g>
</g>
<!-- Node6&#45;&gt;Node20 -->
<g id="edge23_Node000006_Node000020" class="edge">
<title>Node6&#45;&gt;Node20</title>
<g id="a_edge23_Node000006_Node000020"><a xlink:title=" ">
<path fill="none" stroke="#63b8ff" d="M151.5354,-241.784C155.7438,-239.5469 159.7188,-236.8187 163,-233.5 193.8703,-202.2762 166.7675,-171.3156 199,-141.5 200.6911,-139.9357 202.5073,-138.5001 204.4181,-137.1824"/>
<polygon fill="#63b8ff" stroke="#63b8ff" points="206.3439,-140.1137 213.3075,-132.1288 202.8843,-134.0284 206.3439,-140.1137"/>
</a>
</g>
</g>
<!-- Node24 -->
<g id="Node000024" class="node">
<title>Node24</title>
<g id="a_Node000024"><a xlink:href="config_8c.html#a4b72d1221265c0c8c3748a30ac0fd48f" target="_top" xlink:title="設定ファイルから指定サービスの定義を読み込みます。">
<polygon fill="#ffffff" stroke="#666666" points="313,-95 210,-95 210,-76 313,-76 313,-95"/>
<text text-anchor="middle" x="261.5" y="-83" font-family="Helvetica,sans-Serif" font-size="10.00" fill="#000000">config_load_service</text>
</a>
</g>
</g>
<!-- Node6&#45;&gt;Node24 -->
<g id="edge28_Node000006_Node000024" class="edge">
<title>Node6&#45;&gt;Node24</title>
<g id="a_edge28_Node000006_Node000024"><a xlink:title=" ">
<path fill="none" stroke="#63b8ff" d="M152.2942,-241.8326C156.2877,-239.5965 160.0013,-236.8556 163,-233.5 202.663,-189.1158 157.3965,-147.0706 199,-104.5 200.4268,-103.04 201.9619,-101.6915 203.5831,-100.4458"/>
<polygon fill="#63b8ff" stroke="#63b8ff" points="205.6506,-103.2821 212.3031,-95.0362 201.9604,-97.3337 205.6506,-103.2821"/>
</a>
</g>
</g>
<!-- Node27 -->
<g id="Node000027" class="node">
<title>Node27</title>
<g id="a_Node000027"><a xlink:href="potrOpenService_8c.html#aafa846f610c7badee584434e161be459" target="_top" xlink:title=" ">
<polygon fill="#ffffff" stroke="#666666" points="321.5,-354 201.5,-354 201.5,-335 321.5,-335 321.5,-354"/>
<text text-anchor="middle" x="261.5" y="-342" font-family="Helvetica,sans-Serif" font-size="10.00" fill="#000000">open_socket_broadcast</text>
</a>
</g>
</g>
<!-- Node6&#45;&gt;Node27 -->
<g id="edge34_Node000006_Node000027" class="edge">
<title>Node6&#45;&gt;Node27</title>
<g id="a_edge34_Node000006_Node000027"><a xlink:title=" ">
<path fill="none" stroke="#63b8ff" d="M126.1176,-261.0727C139.291,-276.9936 167.9175,-308.8998 199,-326.5 202.1842,-328.303 205.5637,-329.938 209.0382,-331.4186"/>
<polygon fill="#63b8ff" stroke="#63b8ff" points="207.797,-334.6911 218.3878,-334.9866 210.2929,-328.1511 207.797,-334.6911"/>
</a>
</g>
</g>
<!-- Node28 -->
<g id="Node000028" class="node">
<title>Node28</title>
<g id="a_Node000028"><a xlink:href="potrOpenService_8c.html#a946841991d9b2b7998aa8137584b34b7" target="_top" xlink:title=" ">
<polygon fill="#ffffff" stroke="#666666" points="320,-206 203,-206 203,-187 320,-187 320,-206"/>
<text text-anchor="middle" x="261.5" y="-194" font-family="Helvetica,sans-Serif" font-size="10.00" fill="#000000">open_socket_multicast</text>
</a>
</g>
</g>
<!-- Node6&#45;&gt;Node28 -->
<g id="edge35_Node000006_Node000028" class="edge">
<title>Node6&#45;&gt;Node28</title>
<g id="a_edge35_Node000006_Node000028"><a xlink:title=" ">
<path fill="none" stroke="#63b8ff" d="M143.13,-241.9425C149.6351,-239.3081 156.6195,-236.3801 163,-233.5 179.3044,-226.1403 182.3835,-222.125 199,-215.5 204.6014,-213.2667 210.5723,-211.1415 216.5174,-209.1757"/>
<polygon fill="#63b8ff" stroke="#63b8ff" points="217.9577,-212.3907 226.4287,-206.0273 215.8383,-205.7192 217.9577,-212.3907"/>
</a>
</g>
</g>
<!-- Node29 -->
<g id="Node000029" class="node">
<title>Node29</title>
<g id="a_Node000029"><a xlink:href="potrOpenService_8c.html#a4a8bf6df6f3ab1ea5a6ce77fba8d2d34" target="_top" xlink:title=" ">
<polygon fill="#ffffff" stroke="#666666" points="316,-317 207,-317 207,-298 316,-298 316,-317"/>
<text text-anchor="middle" x="261.5" y="-305" font-family="Helvetica,sans-Serif" font-size="10.00" fill="#000000">open_socket_unicast</text>
</a>
</g>
</g>
<!-- Node6&#45;&gt;Node29 -->
<g id="edge37_Node000006_Node000029" class="edge">
<title>Node6&#45;&gt;Node29</title>
<g id="a_edge37_Node000006_Node000029"><a xlink:title=" ">
<path fill="none" stroke="#63b8ff" d="M136.6801,-261.1138C152.7626,-269.3669 177.0209,-281.2088 199,-289.5 204.0844,-291.418 209.4659,-293.251 214.8532,-294.9631"/>
<polygon fill="#63b8ff" stroke="#63b8ff" points="213.9072,-298.3338 224.4934,-297.9068 215.9515,-291.6389 213.9072,-298.3338"/>
</a>
</g>
</g>
<!-- Node30 -->
<g id="Node000030" class="node">
<title>Node30</title>
<g id="a_Node000030"><a xlink:href="retransmit_8c.html#a5b35cc6aee4a37fc60b71abd175527e0" target="_top" xlink:title="再送制御管理構造体を初期化します。">
<polygon fill="#ffffff" stroke="#666666" points="300.5,-280 222.5,-280 222.5,-261 300.5,-261 300.5,-280"/>
<text text-anchor="middle" x="261.5" y="-268" font-family="Helvetica,sans-Serif" font-size="10.00" fill="#000000">retransmit_init</text>
</a>
</g>
</g>
<!-- Node6&#45;&gt;Node30 -->
<g id="edge38_Node000006_Node000030" class="edge">
<title>Node6&#45;&gt;Node30</title>
<g id="a_edge38_Node000006_Node000030"><a xlink:title=" ">
<path fill="none" stroke="#63b8ff" d="M163.3537,-257.4596C178.8076,-259.5129 196.1995,-261.8237 212.0025,-263.9234"/>
<polygon fill="#63b8ff" stroke="#63b8ff" points="211.7477,-267.4202 222.1216,-265.2679 212.6697,-260.4812 211.7477,-267.4202"/>
</a>
</g>
</g>
<!-- Node31 -->
<g id="Node000031" class="node">
<title>Node31</title>
<g id="a_Node000031"><a xlink:href="window_8c.html#ac2fe725387be874649c2557619abf841" target="_top" xlink:title="ウィンドウを初期化します。">
<polygon fill="#ffffff" stroke="#666666" points="294.5,-243 228.5,-243 228.5,-224 294.5,-224 294.5,-243"/>
<text text-anchor="middle" x="261.5" y="-231" font-family="Helvetica,sans-Serif" font-size="10.00" fill="#000000">window_init</text>
</a>
</g>
</g>
<!-- Node6&#45;&gt;Node31 -->
<g id="edge39_Node000006_Node000031" class="edge">
<title>Node6&#45;&gt;Node31</title>
<g id="a_edge39_Node000006_Node000031"><a xlink:title=" ">
<path fill="none" stroke="#63b8ff" d="M163.3537,-245.8541C180.7184,-243.6683 200.5299,-241.1746 217.7848,-239.0026"/>
<polygon fill="#63b8ff" stroke="#63b8ff" points="218.6688,-242.4191 228.1533,-237.6975 217.7945,-235.4739 218.6688,-242.4191"/>
</a>
</g>
</g>
<!-- Node8 -->
<g id="Node000008" class="node">
<title>Node8</title>
<g id="a_Node000008"><a xlink:href="potrRecvThread_8c.html#a300c2d6c99e3491d0ee4c7cb4de36146" target="_top" xlink:title=" ">
<polygon fill="#ffffff" stroke="#666666" points="461.5,-225 369.5,-225 369.5,-206 461.5,-206 461.5,-225"/>
<text text-anchor="middle" x="415.5" y="-213" font-family="Helvetica,sans-Serif" font-size="10.00" fill="#000000">recv_thread_func</text>
</a>
</g>
</g>
<!-- Node7&#45;&gt;Node8 -->
<g id="edge7_Node000007_Node000008" class="edge">
<title>Node7&#45;&gt;Node8</title>
<g id="a_edge7_Node000007_Node000008"><a xlink:title=" ">
<path fill="none" stroke="#63b8ff" d="M294.7642,-169.0118C304.2644,-171.8903 314.5902,-175.1746 324,-178.5 344.311,-185.6778 366.7398,-194.7289 384.3081,-202.0824"/>
<polygon fill="#63b8ff" stroke="#63b8ff" points="382.9498,-205.308 393.5239,-205.9704 385.6707,-198.8585 382.9498,-205.308"/>
</a>
</g>
</g>
<!-- Node9 -->
<g id="Node000009" class="node">
<title>Node9</title>
<g id="a_Node000009"><a xlink:href="packet_8c.html#a15889622b4af9f2ad1d7f3269532dc6f" target="_top" xlink:title="受信バイト列をパケット構造体に解析します。">
<polygon fill="#ffffff" stroke="#666666" points="609.5,-197 534.5,-197 534.5,-178 609.5,-178 609.5,-197"/>
<text text-anchor="middle" x="572" y="-185" font-family="Helvetica,sans-Serif" font-size="10.00" fill="#000000">packet_parse</text>
</a>
</g>
</g>
<!-- Node8&#45;&gt;Node9 -->
<g id="edge8_Node000008_Node000009" class="edge">
<title>Node8&#45;&gt;Node9</title>
<g id="a_edge8_Node000008_Node000009"><a xlink:title=" ">
<path fill="none" stroke="#63b8ff" d="M461.6087,-207.2505C481.3411,-203.7201 504.3739,-199.5992 524.2804,-196.0377"/>
<polygon fill="#63b8ff" stroke="#63b8ff" points="525.144,-199.4388 534.3712,-194.2323 523.9111,-192.5483 525.144,-199.4388"/>
</a>
</g>
</g>
<!-- Node10 -->
<g id="Node000010" class="node">
<title>Node10</title>
<g id="a_Node000010"><a xlink:href="potrRecvThread_8c.html#a6c210bf450de8b4bc7b00a665ab436f9" target="_top" xlink:title=" ">
<polygon fill="#ffffff" stroke="#666666" points="606.5,-345 537.5,-345 537.5,-326 606.5,-326 606.5,-345"/>
<text text-anchor="middle" x="572" y="-333" font-family="Helvetica,sans-Serif" font-size="10.00" fill="#000000">recv_deliver</text>
</a>
</g>
</g>
<!-- Node8&#45;&gt;Node10 -->
<g id="edge9_Node000008_Node000010" class="edge">
<title>Node8&#45;&gt;Node10</title>
<g id="a_edge9_Node000008_Node000010"><a xlink:title=" ">
<path fill="none" stroke="#63b8ff" d="M421.2969,-225.0133C434.123,-245.2384 466.9643,-292.6842 507,-317.5 513.295,-321.4019 520.4472,-324.4745 527.6488,-326.8894"/>
<polygon fill="#63b8ff" stroke="#63b8ff" points="526.8413,-330.3006 537.4239,-329.7909 528.8333,-323.59 526.8413,-330.3006"/>
</a>
</g>
</g>
<!-- Node12 -->
<g id="Node000012" class="node">
<title>Node12</title>
<g id="a_Node000012"><a xlink:href="potrRecvThread_8c.html#abc16a3b58a39e0842eab75e0e4a2ff82" target="_top" xlink:title=" ">
<polygon fill="#ffffff" stroke="#666666" points="604,-308 540,-308 540,-289 604,-289 604,-308"/>
<text text-anchor="middle" x="572" y="-296" font-family="Helvetica,sans-Serif" font-size="10.00" fill="#000000">send_nack</text>
</a>
</g>
</g>
<!-- Node8&#45;&gt;Node12 -->
<g id="edge11_Node000008_Node000012" class="edge">
<title>Node8&#45;&gt;Node12</title>
<g id="a_edge11_Node000008_Node000012"><a xlink:title=" ">
<path fill="none" stroke="#63b8ff" d="M426.2575,-225.0678C442.5972,-239.1317 475.1492,-265.353 507,-280.5 514.2122,-283.9298 522.1951,-286.8097 530.0261,-289.1893"/>
<polygon fill="#63b8ff" stroke="#63b8ff" points="529.2204,-292.5985 539.7947,-291.9396 531.1175,-285.8604 529.2204,-292.5985"/>
</a>
</g>
</g>
<!-- Node14 -->
<g id="Node000014" class="node">
<title>Node14</title>
<g id="a_Node000014"><a xlink:href="window_8c.html#a6ecfb9f52ac33918ba6f8cd0386b17c2" target="_top" xlink:title="受信ウィンドウで欠番が発生しているか確認し、NACK 番号を返します。">
<polygon fill="#ffffff" stroke="#666666" points="637,-160 507,-160 507,-141 637,-141 637,-160"/>
<text text-anchor="middle" x="572" y="-148" font-family="Helvetica,sans-Serif" font-size="10.00" fill="#000000">window_recv_needs_nack</text>
</a>
</g>
</g>
<!-- Node8&#45;&gt;Node14 -->
<g id="edge13_Node000008_Node000014" class="edge">
<title>Node8&#45;&gt;Node14</title>
<g id="a_edge13_Node000008_Node000014"><a xlink:title=" ">
<path fill="none" stroke="#63b8ff" d="M432.2766,-205.9023C450.3124,-195.8635 480.0339,-180.1179 507,-169.5 512.8868,-167.1821 519.1708,-164.9991 525.425,-162.9967"/>
<polygon fill="#63b8ff" stroke="#63b8ff" points="526.6348,-166.2866 535.1669,-160.0054 524.5801,-159.5949 526.6348,-166.2866"/>
</a>
</g>
</g>
<!-- Node16 -->
<g id="Node000016" class="node">
<title>Node16</title>
<g id="a_Node000016"><a xlink:href="window_8c.html#a883a182a547ff084957069939b131527" target="_top" xlink:title="受信ウィンドウから順序整列済みパケットを取り出します。">
<polygon fill="#ffffff" stroke="#666666" points="618.5,-123 525.5,-123 525.5,-104 618.5,-104 618.5,-123"/>
<text text-anchor="middle" x="572" y="-111" font-family="Helvetica,sans-Serif" font-size="10.00" fill="#000000">window_recv_pop</text>
</a>
</g>
</g>
<!-- Node8&#45;&gt;Node16 -->
<g id="edge15_Node000008_Node000016" class="edge">
<title>Node8&#45;&gt;Node16</title>
<g id="a_edge15_Node000008_Node000016"><a xlink:title=" ">
<path fill="none" stroke="#63b8ff" d="M430.3415,-205.8936C441.9426,-198.0722 458.1933,-186.4118 471,-174.5 489.0021,-157.7558 486.3451,-145.8349 507,-132.5 510.295,-130.3727 513.835,-128.4772 517.5002,-126.7892"/>
<polygon fill="#63b8ff" stroke="#63b8ff" points="518.8559,-130.0163 526.8006,-123.0069 516.2188,-123.5321 518.8559,-130.0163"/>
</a>
</g>
</g>
<!-- Node17 -->
<g id="Node000017" class="node">
<title>Node17</title>
<g id="a_Node000017"><a xlink:href="window_8c.html#ac134e864859663f32389cf30fe55bc6e" target="_top" xlink:title="受信ウィンドウにパケットを格納します。">
<polygon fill="#ffffff" stroke="#666666" points="621,-271 523,-271 523,-252 621,-252 621,-271"/>
<text text-anchor="middle" x="572" y="-259" font-family="Helvetica,sans-Serif" font-size="10.00" fill="#000000">window_recv_push</text>
</a>
</g>
</g>
<!-- Node8&#45;&gt;Node17 -->
<g id="edge17_Node000008_Node000017" class="edge">
<title>Node8&#45;&gt;Node17</title>
<g id="a_edge17_Node000008_Node000017"><a xlink:title=" ">
<path fill="none" stroke="#63b8ff" d="M445.9388,-225.0382C463.7101,-230.5509 486.5851,-237.5509 507,-243.5 513.4957,-245.3929 520.3704,-247.3483 527.1223,-249.2416"/>
<polygon fill="#63b8ff" stroke="#63b8ff" points="526.2956,-252.6445 536.8681,-251.9565 528.1741,-245.9012 526.2956,-252.6445"/>
</a>
</g>
</g>
<!-- Node19 -->
<g id="Node000019" class="node">
<title>Node19</title>
<g id="a_Node000019"><a xlink:href="window_8c.html#aa3c39809a6b6c7275a2539d6edf95036" target="_top" xlink:title="ACK を処理して送信ウィンドウを前進させます。">
<polygon fill="#ffffff" stroke="#666666" points="619.5,-234 524.5,-234 524.5,-215 619.5,-215 619.5,-234"/>
<text text-anchor="middle" x="572" y="-222" font-family="Helvetica,sans-Serif" font-size="10.00" fill="#000000">window_send_ack</text>
</a>
</g>
</g>
<!-- Node8&#45;&gt;Node19 -->
<g id="edge20_Node000008_Node000019" class="edge">
<title>Node8&#45;&gt;Node19</title>
<g id="a_edge20_Node000008_Node000019"><a xlink:title=" ">
<path fill="none" stroke="#63b8ff" d="M461.6087,-218.1516C478.1149,-219.1009 496.9306,-220.1829 514.2939,-221.1814"/>
<polygon fill="#63b8ff" stroke="#63b8ff" points="514.1365,-224.6781 524.3209,-221.7581 514.5384,-217.6896 514.1365,-224.6781"/>
</a>
</g>
</g>
<!-- Node11 -->
<g id="Node000011" class="node">
<title>Node11</title>
<g id="a_Node000011"><a xlink:href="compress__linux_8c.html#a9b4c1ab5034e8a243544747d2efdcd21" target="_top" xlink:title="圧縮データを解凍します。">
<polygon fill="#ffffff" stroke="#666666" points="769.5,-345 677.5,-345 677.5,-326 769.5,-326 769.5,-345"/>
<text text-anchor="middle" x="723.5" y="-333" font-family="Helvetica,sans-Serif" font-size="10.00" fill="#000000">potr_decompress</text>
</a>
</g>
</g>
<!-- Node10&#45;&gt;Node11 -->
<g id="edge10_Node000010_Node000011" class="edge">
<title>Node10&#45;&gt;Node11</title>
<g id="a_edge10_Node000010_Node000011"><a xlink:title=" ">
<path fill="none" stroke="#63b8ff" d="M606.7572,-335.5C624.6931,-335.5 647.0169,-335.5 667.3252,-335.5"/>
<polygon fill="#63b8ff" stroke="#63b8ff" points="667.4151,-339.0001 677.4151,-335.5 667.415,-332.0001 667.4151,-339.0001"/>
</a>
</g>
</g>
<!-- Node13 -->
<g id="Node000013" class="node">
<title>Node13</title>
<g id="a_Node000013"><a xlink:href="packet_8c.html#aaf155f7d2936ffa8015eddaddd1d96be" target="_top" xlink:title="NACK パケットを構築します。">
<polygon fill="#ffffff" stroke="#666666" points="772.5,-308 674.5,-308 674.5,-289 772.5,-289 772.5,-308"/>
<text text-anchor="middle" x="723.5" y="-296" font-family="Helvetica,sans-Serif" font-size="10.00" fill="#000000">packet_build_nack</text>
</a>
</g>
</g>
<!-- Node12&#45;&gt;Node13 -->
<g id="edge12_Node000012_Node000013" class="edge">
<title>Node12&#45;&gt;Node13</title>
<g id="a_edge12_Node000012_Node000013"><a xlink:title=" ">
<path fill="none" stroke="#63b8ff" d="M604.1293,-298.5C621.5908,-298.5 643.7435,-298.5 664.2113,-298.5"/>
<polygon fill="#63b8ff" stroke="#63b8ff" points="664.4104,-302.0001 674.4104,-298.5 664.4104,-295.0001 664.4104,-302.0001"/>
</a>
</g>
</g>
<!-- Node15 -->
<g id="Node000015" class="node">
<title>Node15</title>
<g id="a_Node000015"><a xlink:href="window_8c.html#ad5f53882d6cd6075a78e83b94fb62cc3" target="_top" xlink:title=" ">
<polygon fill="#ffffff" stroke="#666666" points="753,-197 694,-197 694,-178 753,-178 753,-197"/>
<text text-anchor="middle" x="723.5" y="-185" font-family="Helvetica,sans-Serif" font-size="10.00" fill="#000000">win_index</text>
</a>
</g>
</g>
<!-- Node14&#45;&gt;Node15 -->
<g id="edge14_Node000014_Node000015" class="edge">
<title>Node14&#45;&gt;Node15</title>
<g id="a_edge14_Node000014_Node000015"><a xlink:title=" ">
<path fill="none" stroke="#63b8ff" d="M611.015,-160.0284C633.3674,-165.4874 661.3505,-172.3216 683.8142,-177.8078"/>
<polygon fill="#63b8ff" stroke="#63b8ff" points="683.162,-181.2513 693.7069,-180.2238 684.8228,-174.4511 683.162,-181.2513"/>
</a>
</g>
</g>
<!-- Node16&#45;&gt;Node15 -->
<g id="edge16_Node000016_Node000015" class="edge">
<title>Node16&#45;&gt;Node15</title>
<g id="a_edge16_Node000016_Node000015"><a xlink:title=" ">
<path fill="none" stroke="#63b8ff" d="M611.1437,-123.0019C619.8257,-125.6403 628.861,-128.8128 637,-132.5 660.6617,-143.2194 685.4627,-159.5961 702.4109,-171.6935"/>
<polygon fill="#63b8ff" stroke="#63b8ff" points="700.8153,-174.8607 710.9616,-177.9109 704.932,-169.1991 700.8153,-174.8607"/>
</a>
</g>
</g>
<!-- Node17&#45;&gt;Node15 -->
<g id="edge19_Node000017_Node000015" class="edge">
<title>Node17&#45;&gt;Node15</title>
<g id="a_edge19_Node000017_Node000015"><a xlink:title=" ">
<path fill="none" stroke="#63b8ff" d="M613.9273,-251.916C621.7467,-249.5638 629.7373,-246.7638 637,-243.5 661.1783,-232.6344 686.3459,-215.5865 703.2578,-203.1528"/>
<polygon fill="#63b8ff" stroke="#63b8ff" points="705.3948,-205.9252 711.3001,-197.1286 701.1981,-200.3226 705.3948,-205.9252"/>
</a>
</g>
</g>
<!-- Node18 -->
<g id="Node000018" class="node">
<title>Node18</title>
<g id="a_Node000018"><a xlink:href="seqnum_8c.html#a45fcfa48b2d66889a5b9b8f63650336a" target="_top" xlink:title="通番 seq がウィンドウ [base, base + window_size) に含まれるか判定します。">
<polygon fill="#ffffff" stroke="#666666" points="774,-252 673,-252 673,-233 774,-233 774,-252"/>
<text text-anchor="middle" x="723.5" y="-240" font-family="Helvetica,sans-Serif" font-size="10.00" fill="#000000">seqnum_in_window</text>
</a>
</g>
</g>
<!-- Node17&#45;&gt;Node18 -->
<g id="edge18_Node000017_Node000018" class="edge">
<title>Node17&#45;&gt;Node18</title>
<g id="a_edge18_Node000017_Node000018"><a xlink:title=" ">
<path fill="none" stroke="#63b8ff" d="M621.1877,-255.3312C634.3381,-253.682 648.7114,-251.8794 662.4185,-250.1604"/>
<polygon fill="#63b8ff" stroke="#63b8ff" points="663.2524,-253.5833 672.7391,-248.866 662.3813,-246.6377 663.2524,-253.5833"/>
</a>
</g>
</g>
<!-- Node19&#45;&gt;Node15 -->
<g id="edge22_Node000019_Node000015" class="edge">
<title>Node19&#45;&gt;Node15</title>
<g id="a_edge22_Node000019_Node000015"><a xlink:title=" ">
<path fill="none" stroke="#63b8ff" d="M611.015,-214.9716C633.3674,-209.5126 661.3505,-202.6784 683.8142,-197.1922"/>
<polygon fill="#63b8ff" stroke="#63b8ff" points="684.8228,-200.5489 693.7069,-194.7762 683.162,-193.7487 684.8228,-200.5489"/>
</a>
</g>
</g>
<!-- Node19&#45;&gt;Node18 -->
<g id="edge21_Node000019_Node000018" class="edge">
<title>Node19&#45;&gt;Node18</title>
<g id="a_edge21_Node000019_Node000018"><a xlink:title=" ">
<path fill="none" stroke="#63b8ff" d="M619.5199,-230.1459C633.1365,-231.7637 648.1732,-233.5503 662.4807,-235.2502"/>
<polygon fill="#63b8ff" stroke="#63b8ff" points="662.396,-238.7647 672.7391,-236.469 663.222,-231.8135 662.396,-238.7647"/>
</a>
</g>
</g>
<!-- Node21 -->
<g id="Node000021" class="node">
<title>Node21</title>
<g id="a_Node000021"><a xlink:href="config_8c.html#a613c87799141fafda471fdd4069f8343" target="_top" xlink:title=" ">
<polygon fill="#ffffff" stroke="#666666" points="471,-132 360,-132 360,-113 471,-113 471,-132"/>
<text text-anchor="middle" x="415.5" y="-120" font-family="Helvetica,sans-Serif" font-size="10.00" fill="#000000">open_config_file_read</text>
</a>
</g>
</g>
<!-- Node20&#45;&gt;Node21 -->
<g id="edge24_Node000020_Node000021" class="edge">
<title>Node20&#45;&gt;Node21</title>
<g id="a_edge24_Node000020_Node000021"><a xlink:title=" ">
<path fill="none" stroke="#63b8ff" d="M310.2266,-122.5C322.796,-122.5 336.5327,-122.5 349.8106,-122.5"/>
<polygon fill="#63b8ff" stroke="#63b8ff" points="349.8481,-126.0001 359.848,-122.5 349.848,-119.0001 349.8481,-126.0001"/>
</a>
</g>
</g>
<!-- Node22 -->
<g id="Node000022" class="node">
<title>Node22</title>
<g id="a_Node000022"><a xlink:href="config_8c.html#a5f2de03809866bfac8920bc13a97aaca" target="_top" xlink:title=" ">
<polygon fill="#ffffff" stroke="#666666" points="443.5,-95 387.5,-95 387.5,-76 443.5,-76 443.5,-95"/>
<text text-anchor="middle" x="415.5" y="-83" font-family="Helvetica,sans-Serif" font-size="10.00" fill="#000000">parse_kv</text>
</a>
</g>
</g>
<!-- Node20&#45;&gt;Node22 -->
<g id="edge25_Node000020_Node000022" class="edge">
<title>Node20&#45;&gt;Node22</title>
<g id="a_edge25_Node000020_Node000022"><a xlink:title=" ">
<path fill="none" stroke="#63b8ff" d="M301.1588,-112.9716C324.6035,-107.3388 354.142,-100.2418 377.3229,-94.6724"/>
<polygon fill="#63b8ff" stroke="#63b8ff" points="378.2503,-98.0493 387.1559,-92.3099 376.615,-91.243 378.2503,-98.0493"/>
</a>
</g>
</g>
<!-- Node23 -->
<g id="Node000023" class="node">
<title>Node23</title>
<g id="a_Node000023"><a xlink:href="config_8c.html#a2c8b5f7a0223db682d3326ce74f794f4" target="_top" xlink:title=" ">
<polygon fill="#ffffff" stroke="#666666" points="588.5,-86 555.5,-86 555.5,-67 588.5,-67 588.5,-86"/>
<text text-anchor="middle" x="572" y="-74" font-family="Helvetica,sans-Serif" font-size="10.00" fill="#000000">trim</text>
</a>
</g>
</g>
<!-- Node20&#45;&gt;Node23 -->
<g id="edge27_Node000020_Node000023" class="edge">
<title>Node20&#45;&gt;Node23</title>
<g id="a_edge27_Node000020_Node000023"><a xlink:title=" ">
<path fill="none" stroke="#63b8ff" d="M301.5049,-132.0106C319.3019,-135.7757 340.5826,-139.6444 360,-141.5 409.1096,-146.1932 426.6506,-163.1081 471,-141.5 494.3383,-130.129 485.5087,-110.0636 507,-95.5 518.4056,-87.771 532.9896,-83.1367 545.4522,-80.3834"/>
<polygon fill="#63b8ff" stroke="#63b8ff" points="546.1474,-83.814 555.3054,-78.4865 544.824,-76.9402 546.1474,-83.814"/>
</a>
</g>
</g>
<!-- Node22&#45;&gt;Node23 -->
<g id="edge26_Node000022_Node000023" class="edge">
<title>Node22&#45;&gt;Node23</title>
<g id="a_edge26_Node000022_Node000023"><a xlink:title=" ">
<path fill="none" stroke="#63b8ff" d="M443.841,-83.8702C472.6128,-82.2156 516.8349,-79.6724 545.0834,-78.0479"/>
<polygon fill="#63b8ff" stroke="#63b8ff" points="545.6324,-81.5222 555.4149,-77.4538 545.2305,-74.5338 545.6324,-81.5222"/>
</a>
</g>
</g>
<!-- Node24&#45;&gt;Node21 -->
<g id="edge31_Node000024_Node000021" class="edge">
<title>Node24&#45;&gt;Node21</title>
<g id="a_edge31_Node000024_Node000021"><a xlink:title=" ">
<path fill="none" stroke="#63b8ff" d="M301.1588,-95.0284C320.8417,-99.7574 344.8197,-105.5184 365.7248,-110.541"/>
<polygon fill="#63b8ff" stroke="#63b8ff" points="365.1672,-114.0066 375.7082,-112.9396 366.8026,-107.2003 365.1672,-114.0066"/>
</a>
</g>
</g>
<!-- Node24&#45;&gt;Node22 -->
<g id="edge32_Node000024_Node000022" class="edge">
<title>Node24&#45;&gt;Node22</title>
<g id="a_edge32_Node000024_Node000022"><a xlink:title=" ">
<path fill="none" stroke="#63b8ff" d="M313.2082,-85.5C334.1466,-85.5 357.892,-85.5 377.2306,-85.5"/>
<polygon fill="#63b8ff" stroke="#63b8ff" points="377.475,-89.0001 387.475,-85.5 377.475,-82.0001 377.475,-89.0001"/>
</a>
</g>
</g>
<!-- Node24&#45;&gt;Node23 -->
<g id="edge33_Node000024_Node000023" class="edge">
<title>Node24&#45;&gt;Node23</title>
<g id="a_edge33_Node000024_Node000023"><a xlink:title=" ">
<path fill="none" stroke="#63b8ff" d="M304.4205,-75.9154C321.6065,-72.5349 341.6483,-69.163 360,-67.5 426.5421,-61.4699 505.209,-68.5017 545.4198,-73.114"/>
<polygon fill="#63b8ff" stroke="#63b8ff" points="545.1277,-76.6039 555.4711,-74.3097 545.9546,-69.6529 545.1277,-76.6039"/>
</a>
</g>
</g>
<!-- Node25 -->
<g id="Node000025" class="node">
<title>Node25</title>
<g id="a_Node000025"><a xlink:href="config_8c.html#af598a3e207900d3f07fc6afa897ff37f" target="_top" xlink:title=" ">
<polygon fill="#ffffff" stroke="#666666" points="461.5,-19 369.5,-19 369.5,0 461.5,0 461.5,-19"/>
<text text-anchor="middle" x="415.5" y="-7" font-family="Helvetica,sans-Serif" font-size="10.00" fill="#000000">apply_service_kv</text>
</a>
</g>
</g>
<!-- Node24&#45;&gt;Node25 -->
<g id="edge29_Node000024_Node000025" class="edge">
<title>Node24&#45;&gt;Node25</title>
<g id="a_edge29_Node000024_Node000025"><a xlink:title=" ">
<path fill="none" stroke="#63b8ff" d="M278.7295,-75.8823C298.2302,-65.1196 331.053,-47.3739 360,-33.5 367.3884,-29.9588 375.4303,-26.3462 383.0405,-23.0347"/>
<polygon fill="#63b8ff" stroke="#63b8ff" points="384.56,-26.1913 392.3675,-19.0294 381.7978,-19.7593 384.56,-26.1913"/>
</a>
</g>
</g>
<!-- Node26 -->
<g id="Node000026" class="node">
<title>Node26</title>
<g id="a_Node000026"><a xlink:href="config_8c.html#a07c7ea9e8c66fbaa3d3c8c848a8a4975" target="_top" xlink:title=" ">
<polygon fill="#ffffff" stroke="#666666" points="615,-19 529,-19 529,0 615,0 615,-19"/>
<text text-anchor="middle" x="572" y="-7" font-family="Helvetica,sans-Serif" font-size="10.00" fill="#000000">copy_cstr_trunc</text>
</a>
</g>
</g>
<!-- Node25&#45;&gt;Node26 -->
<g id="edge30_Node000025_Node000026" class="edge">
<title>Node25&#45;&gt;Node26</title>
<g id="a_edge30_Node000025_Node000026"><a xlink:title=" ">
<path fill="none" stroke="#63b8ff" d="M461.6087,-9.5C479.5625,-9.5 500.2485,-9.5 518.826,-9.5"/>
<polygon fill="#63b8ff" stroke="#63b8ff" points="518.8992,-13.0001 528.8992,-9.5 518.8991,-6.0001 518.8992,-13.0001"/>
</a>
</g>
</g>
<!-- Node28&#45;&gt;Node5 -->
<g id="edge36_Node000028_Node000005" class="edge">
<title>Node28&#45;&gt;Node5</title>
<g id="a_edge36_Node000028_Node000005"><a xlink:title=" ">
<path fill="none" stroke="#63b8ff" d="M304.2336,-206.0671C311.1297,-208.5597 317.9746,-211.6603 324,-215.5 358.7363,-237.636 388.3412,-276.488 403.866,-299.3185"/>
<polygon fill="#63b8ff" stroke="#63b8ff" points="401.0163,-301.3544 409.4577,-307.7571 406.8515,-297.4878 401.0163,-301.3544"/>
</a>
</g>
</g>
</g>
</svg>

<g id="navigator" transform="translate(0 0)" fill="#404254">
  <rect fill="#f2f5e9" fill-opacity="0.5" stroke="#606060" stroke-width=".5" x="0" y="0" width="60" height="60"/>
  <use id="zoomplus" xlink:href="#zoomPlus" x="17" y="9" onmousedown="handleZoom(evt,'in')"/>
  <use id="zoomminus" xlink:href="#zoomMin" x="42" y="9" onmousedown="handleZoom(evt,'out')"/>
  <use id="reset" xlink:href="#resetDef" x="30" y="36" onmousedown="handleReset()"/>
   <use id="arrowup" xlink:href="#arrowUp" x="0" y="0" onmousedown="handlePan(0,-1)"/>
  <use id="arrowright" xlink:href="#arrowRight" x="0" y="0" onmousedown="handlePan(1,0)"/>
  <use id="arrowdown" xlink:href="#arrowDown" x="0" y="0" onmousedown="handlePan(0,1)"/>
  <use id="arrowleft" xlink:href="#arrowLeft" x="0" y="0" onmousedown="handlePan(-1,0)"/>
</g>
<svg viewBox="0 0 15 15" width="100%" height="30px" preserveAspectRatio="xMaxYMin meet">
 <g id="arrow_out" transform="scale(0.3 0.3)">
  <a xlink:href="recv_8c_a0ddf1224851353fc92bfbff6f499fa97_cgraph_org.svg" target="_base">
   <rect id="button" ry="5" rx="5" y="6" x="6" height="38" width="38"
        fill="#f2f5e9" fill-opacity="0.5" stroke="#606060" stroke-width="1.0"/>
   <path id="arrow"
     d="M 11.500037,31.436501 C 11.940474,20.09759 22.043105,11.32322 32.158766,21.979434 L 37.068811,17.246167 C 37.068811,17.246167 37.088388,32 37.088388,32 L 22.160133,31.978069 C 22.160133,31.978069 26.997745,27.140456 26.997745,27.140456 C 18.528582,18.264221 13.291696,25.230495 11.500037,31.436501 z"
     style="fill:#404040;"/>
  </a>
 </g>
</svg>

<style type='text/css'>
<![CDATA[
[data-mouse-over-selected='false'] { opacity: 0.7; }
[data-mouse-over-selected='true']  { opacity: 1.0; }
]]>
</style>
<script type="application/ecmascript"><![CDATA[
document.addEventListener('DOMContentLoaded', (event) => {
  highlightEdges();
  highlightAdjacentNodes();
});
]]></script>
</svg>
