<?xml version="1.0" encoding="UTF-8" standalone="no"?>
<!DOCTYPE svg PUBLIC "-//W3C//DTD SVG 1.1//EN"
 "http://www.w3.org/Graphics/SVG/1.1/DTD/svg11.dtd">
<!-- Generated by graphviz version 2.40.1 (0)
 -->
<!-- Title: porter/libsrc/porter/protocol/retransmit.h Pages: 1 -->
<svg width="410pt" height="236pt"
 viewBox="0.00 0.00 410.00 236.00" xmlns="http://www.w3.org/2000/svg" xmlns:xlink="http://www.w3.org/1999/xlink">
<g id="graph0" class="graph" transform="scale(1 1) rotate(0) translate(4 232)">
<title>porter/libsrc/porter/protocol/retransmit.h</title>
<!-- Node1 -->
<g id="Node000001" class="node">
<title>Node1</title>
<g id="a_Node000001"><a xlink:title="再送制御モジュールの内部ヘッダー。">
<polygon fill="#999999" stroke="#666666" points="238,-228 129,-228 129,-198 238,-198 238,-228"/>
<text text-anchor="start" x="137" y="-216" font-family="Helvetica,sans-Serif" font-size="10.00" fill="#000000">porter/libsrc/porter</text>
<text text-anchor="middle" x="183.5" y="-205" font-family="Helvetica,sans-Serif" font-size="10.00" fill="#000000">/protocol/retransmit.h</text>
</a>
</g>
</g>
<!-- Node2 -->
<g id="Node000002" class="node">
<title>Node2</title>
<g id="a_Node000002"><a xlink:href="potrContext_8h.html" target="_top" xlink:title="セッションコンテキスト内部定義ヘッダー。">
<polygon fill="#ffffff" stroke="#666666" points="231,-162 136,-162 136,-132 231,-132 231,-162"/>
<text text-anchor="start" x="144" y="-150" font-family="Helvetica,sans-Serif" font-size="10.00" fill="#000000">porter/libsrc/porter</text>
<text text-anchor="middle" x="183.5" y="-139" font-family="Helvetica,sans-Serif" font-size="10.00" fill="#000000">/potrContext.h</text>
</a>
</g>
</g>
<!-- Node1&#45;&gt;Node2 -->
<g id="edge1_Node000001_Node000002" class="edge">
<title>Node1&#45;&gt;Node2</title>
<g id="a_edge1_Node000001_Node000002"><a xlink:title=" ">
<path fill="none" stroke="#63b8ff" d="M183.5,-187.4546C183.5,-178.9317 183.5,-169.7088 183.5,-162.2246"/>
<polygon fill="#63b8ff" stroke="#63b8ff" points="180.0001,-187.6923 183.5,-197.6924 187.0001,-187.6924 180.0001,-187.6923"/>
</a>
</g>
</g>
<!-- Node4 -->
<g id="Node000004" class="node">
<title>Node4</title>
<g id="a_Node000004"><a xlink:href="potrOpenService_8c.html" target="_top" xlink:title="potrOpenService 関数の実装。">
<polygon fill="#ffffff" stroke="#666666" points="101,-30 0,-30 0,0 101,0 101,-30"/>
<text text-anchor="start" x="8" y="-18" font-family="Helvetica,sans-Serif" font-size="10.00" fill="#000000">porter/libsrc/porter</text>
<text text-anchor="middle" x="50.5" y="-7" font-family="Helvetica,sans-Serif" font-size="10.00" fill="#000000">/potrOpenService.c</text>
</a>
</g>
</g>
<!-- Node1&#45;&gt;Node4 -->
<g id="edge10_Node000001_Node000004" class="edge">
<title>Node1&#45;&gt;Node4</title>
<g id="a_edge10_Node000001_Node000004"><a xlink:title=" ">
<path fill="none" stroke="#63b8ff" d="M147.3633,-192.5637C115.8846,-172.5118 72.2753,-138.7531 52.5,-96 42.697,-74.8065 44.7663,-47.0402 47.4329,-30.1364"/>
<polygon fill="#63b8ff" stroke="#63b8ff" points="145.5473,-195.5559 155.8903,-197.852 149.2367,-189.607 145.5473,-195.5559"/>
</a>
</g>
</g>
<!-- Node8 -->
<g id="Node000008" class="node">
<title>Node8</title>
<g id="a_Node000008"><a xlink:href="retransmit_8c.html" target="_top" xlink:title="再送制御モジュール。">
<polygon fill="#ffffff" stroke="#666666" points="358,-162 249,-162 249,-132 358,-132 358,-162"/>
<text text-anchor="start" x="257" y="-150" font-family="Helvetica,sans-Serif" font-size="10.00" fill="#000000">porter/libsrc/porter</text>
<text text-anchor="middle" x="303.5" y="-139" font-family="Helvetica,sans-Serif" font-size="10.00" fill="#000000">/protocol/retransmit.c</text>
</a>
</g>
</g>
<!-- Node1&#45;&gt;Node8 -->
<g id="edge11_Node000001_Node000008" class="edge">
<title>Node1&#45;&gt;Node8</title>
<g id="a_edge11_Node000001_Node000008"><a xlink:title=" ">
<path fill="none" stroke="#63b8ff" d="M220.1103,-192.8643C238.1379,-182.9491 259.5055,-171.197 276.0977,-162.0713"/>
<polygon fill="#63b8ff" stroke="#63b8ff" points="218.1059,-189.9723 211.0304,-197.8583 221.4793,-196.1058 218.1059,-189.9723"/>
</a>
</g>
</g>
<!-- Node3 -->
<g id="Node000003" class="node">
<title>Node3</title>
<g id="a_Node000003"><a xlink:href="potrClose_8c.html" target="_top" xlink:title="potrClose 関数の実装。">
<polygon fill="#ffffff" stroke="#666666" points="402,-30 307,-30 307,0 402,0 402,-30"/>
<text text-anchor="start" x="315" y="-18" font-family="Helvetica,sans-Serif" font-size="10.00" fill="#000000">porter/libsrc/porter</text>
<text text-anchor="middle" x="354.5" y="-7" font-family="Helvetica,sans-Serif" font-size="10.00" fill="#000000">/potrClose.c</text>
</a>
</g>
</g>
<!-- Node2&#45;&gt;Node3 -->
<g id="edge2_Node000002_Node000003" class="edge">
<title>Node2&#45;&gt;Node3</title>
<g id="a_edge2_Node000002_Node000003"><a xlink:title=" ">
<path fill="none" stroke="#63b8ff" d="M240.5852,-129.3382C270.3958,-119.2381 303.0117,-106.5253 314.5,-96 334.1591,-77.9889 345.3476,-48.1795 350.6463,-30.1839"/>
<polygon fill="#63b8ff" stroke="#63b8ff" points="239.4166,-126.0383 231.0354,-132.5195 241.629,-132.6795 239.4166,-126.0383"/>
</a>
</g>
</g>
<!-- Node2&#45;&gt;Node4 -->
<g id="edge3_Node000002_Node000004" class="edge">
<title>Node2&#45;&gt;Node4</title>
<g id="a_edge3_Node000002_Node000004"><a xlink:title=" ">
<path fill="none" stroke="#63b8ff" d="M126.1119,-132.9029C105.5538,-125.1668 83.9212,-113.4636 69.5,-96 53.9567,-77.1775 50.6551,-47.9063 50.2062,-30.1849"/>
<polygon fill="#63b8ff" stroke="#63b8ff" points="125.1706,-136.2817 135.7655,-136.2871 127.4864,-129.6759 125.1706,-136.2817"/>
</a>
</g>
</g>
<!-- Node5 -->
<g id="Node000005" class="node">
<title>Node5</title>
<g id="a_Node000005"><a xlink:href="potrRecvThread_8c.html" target="_top" xlink:title="受信スレッドモジュール。">
<polygon fill="#ffffff" stroke="#666666" points="289,-30 192,-30 192,0 289,0 289,-30"/>
<text text-anchor="start" x="200" y="-18" font-family="Helvetica,sans-Serif" font-size="10.00" fill="#000000">porter/libsrc/porter</text>
<text text-anchor="middle" x="240.5" y="-7" font-family="Helvetica,sans-Serif" font-size="10.00" fill="#000000">/potrRecvThread.c</text>
</a>
</g>
</g>
<!-- Node2&#45;&gt;Node5 -->
<g id="edge4_Node000002_Node000005" class="edge">
<title>Node2&#45;&gt;Node5</title>
<g id="a_edge4_Node000002_Node000005"><a xlink:title=" ">
<path fill="none" stroke="#63b8ff" d="M240.2388,-128.4491C265.5752,-118.9074 291.3459,-106.9988 298.5,-96 313.7776,-72.5122 286.4933,-46.3145 264.3965,-30.2424"/>
<polygon fill="#63b8ff" stroke="#63b8ff" points="238.7756,-125.2576 230.5894,-131.9833 241.1831,-131.8306 238.7756,-125.2576"/>
</a>
</g>
</g>
<!-- Node6 -->
<g id="Node000006" class="node">
<title>Node6</title>
<g id="a_Node000006"><a xlink:href="potrRecvThread_8h.html" target="_top" xlink:title="受信スレッド内部ヘッダー。">
<polygon fill="#ffffff" stroke="#666666" points="289,-96 192,-96 192,-66 289,-66 289,-96"/>
<text text-anchor="start" x="200" y="-84" font-family="Helvetica,sans-Serif" font-size="10.00" fill="#000000">porter/libsrc/porter</text>
<text text-anchor="middle" x="240.5" y="-73" font-family="Helvetica,sans-Serif" font-size="10.00" fill="#000000">/potrRecvThread.h</text>
</a>
</g>
</g>
<!-- Node2&#45;&gt;Node6 -->
<g id="edge5_Node000002_Node000006" class="edge">
<title>Node2&#45;&gt;Node6</title>
<g id="a_edge5_Node000002_Node000006"><a xlink:title=" ">
<path fill="none" stroke="#63b8ff" d="M203.3739,-123.9881C211.3145,-114.7937 220.2415,-104.4573 227.3515,-96.2246"/>
<polygon fill="#63b8ff" stroke="#63b8ff" points="200.6076,-121.8364 196.7202,-131.6924 205.9053,-126.4118 200.6076,-121.8364"/>
</a>
</g>
</g>
<!-- Node7 -->
<g id="Node000007" class="node">
<title>Node7</title>
<g id="a_Node000007"><a xlink:href="potrSend_8c.html" target="_top" xlink:title="potrSend 関数の実装。">
<polygon fill="#ffffff" stroke="#666666" points="174,-96 79,-96 79,-66 174,-66 174,-96"/>
<text text-anchor="start" x="87" y="-84" font-family="Helvetica,sans-Serif" font-size="10.00" fill="#000000">porter/libsrc/porter</text>
<text text-anchor="middle" x="126.5" y="-73" font-family="Helvetica,sans-Serif" font-size="10.00" fill="#000000">/potrSend.c</text>
</a>
</g>
</g>
<!-- Node2&#45;&gt;Node7 -->
<g id="edge9_Node000002_Node000007" class="edge">
<title>Node2&#45;&gt;Node7</title>
<g id="a_edge9_Node000002_Node000007"><a xlink:title=" ">
<path fill="none" stroke="#63b8ff" d="M163.6261,-123.9881C155.6855,-114.7937 146.7585,-104.4573 139.6485,-96.2246"/>
<polygon fill="#63b8ff" stroke="#63b8ff" points="161.0947,-126.4118 170.2798,-131.6924 166.3924,-121.8364 161.0947,-126.4118"/>
</a>
</g>
</g>
<!-- Node6&#45;&gt;Node3 -->
<g id="edge6_Node000006_Node000003" class="edge">
<title>Node6&#45;&gt;Node3</title>
<g id="a_edge6_Node000006_Node000003"><a xlink:title=" ">
<path fill="none" stroke="#63b8ff" d="M275.7519,-60.591C292.7781,-50.7337 312.8499,-39.1132 328.4678,-30.0713"/>
<polygon fill="#63b8ff" stroke="#63b8ff" points="273.5545,-57.8189 266.6539,-65.8583 277.0618,-63.8769 273.5545,-57.8189"/>
</a>
</g>
</g>
<!-- Node6&#45;&gt;Node4 -->
<g id="edge7_Node000006_Node000004" class="edge">
<title>Node6&#45;&gt;Node4</title>
<g id="a_edge7_Node000006_Node000004"><a xlink:title=" ">
<path fill="none" stroke="#63b8ff" d="M187.1971,-62.4843C157.7375,-52.2509 121.604,-39.6993 93.887,-30.0713"/>
<polygon fill="#63b8ff" stroke="#63b8ff" points="186.3154,-65.8831 196.9102,-65.8583 188.6123,-59.2706 186.3154,-65.8831"/>
</a>
</g>
</g>
<!-- Node6&#45;&gt;Node5 -->
<g id="edge8_Node000006_Node000005" class="edge">
<title>Node6&#45;&gt;Node5</title>
<g id="a_edge8_Node000006_Node000005"><a xlink:title=" ">
<path fill="none" stroke="#63b8ff" d="M240.5,-55.4546C240.5,-46.9317 240.5,-37.7088 240.5,-30.2246"/>
<polygon fill="#63b8ff" stroke="#63b8ff" points="237.0001,-55.6923 240.5,-65.6924 244.0001,-55.6924 237.0001,-55.6923"/>
</a>
</g>
</g>
</g>
</svg>
