<?xml version="1.0" encoding="UTF-8" standalone="no"?>
<!DOCTYPE svg PUBLIC "-//W3C//DTD SVG 1.1//EN"
 "http://www.w3.org/Graphics/SVG/1.1/DTD/svg11.dtd">
<!-- Generated by graphviz version 2.40.1 (0)
 -->
<!-- Title: porter/libsrc/porter/protocol/retransmit.c Pages: 1 -->
<svg width="192pt" height="148pt"
 viewBox="0.00 0.00 192.00 148.00" xmlns="http://www.w3.org/2000/svg" xmlns:xlink="http://www.w3.org/1999/xlink">
<g id="graph0" class="graph" transform="scale(1 1) rotate(0) translate(4 144)">
<title>porter/libsrc/porter/protocol/retransmit.c</title>
<!-- Node1 -->
<g id="Node000001" class="node">
<title>Node1</title>
<g id="a_Node000001"><a xlink:title="再送制御モジュール。">
<polygon fill="#999999" stroke="#666666" points="132,-140 23,-140 23,-110 132,-110 132,-140"/>
<text text-anchor="start" x="31" y="-128" font-family="Helvetica,sans-Serif" font-size="10.00" fill="#000000">porter/libsrc/porter</text>
<text text-anchor="middle" x="77.5" y="-117" font-family="Helvetica,sans-Serif" font-size="10.00" fill="#000000">/protocol/retransmit.c</text>
</a>
</g>
</g>
<!-- Node2 -->
<g id="Node000002" class="node">
<title>Node2</title>
<g id="a_Node000002"><a xlink:title=" ">
<polygon fill="#e0e0e0" stroke="#999999" points="49,-74 0,-74 0,-55 49,-55 49,-74"/>
<text text-anchor="middle" x="24.5" y="-62" font-family="Helvetica,sans-Serif" font-size="10.00" fill="#000000">string.h</text>
</a>
</g>
</g>
<!-- Node1&#45;&gt;Node2 -->
<g id="edge1_Node000001_Node000002" class="edge">
<title>Node1&#45;&gt;Node2</title>
<g id="a_edge1_Node000001_Node000002"><a xlink:title=" ">
<path fill="none" stroke="#63b8ff" d="M64.1259,-109.7333C56.6894,-101.2446 47.4081,-90.6498 39.6977,-81.8483"/>
<polygon fill="#63b8ff" stroke="#63b8ff" points="42.1202,-79.302 32.898,-74.0864 36.8548,-83.9147 42.1202,-79.302"/>
</a>
</g>
</g>
<!-- Node3 -->
<g id="Node000003" class="node">
<title>Node3</title>
<g id="a_Node000003"><a xlink:href="porter__const_8h.html" target="_top" xlink:title="通信ライブラリの定数ファイル。">
<polygon fill="#ffffff" stroke="#666666" points="117,-19 38,-19 38,0 117,0 117,-19"/>
<text text-anchor="middle" x="77.5" y="-7" font-family="Helvetica,sans-Serif" font-size="10.00" fill="#000000">porter_const.h</text>
</a>
</g>
</g>
<!-- Node1&#45;&gt;Node3 -->
<g id="edge2_Node000001_Node000003" class="edge">
<title>Node1&#45;&gt;Node3</title>
<g id="a_edge2_Node000001_Node000003"><a xlink:title=" ">
<path fill="none" stroke="#63b8ff" d="M77.5,-109.9004C77.5,-89.2903 77.5,-52.3051 77.5,-29.4365"/>
<polygon fill="#63b8ff" stroke="#63b8ff" points="81.0001,-29.2014 77.5,-19.2014 74.0001,-29.2014 81.0001,-29.2014"/>
</a>
</g>
</g>
<!-- Node4 -->
<g id="Node000004" class="node">
<title>Node4</title>
<g id="a_Node000004"><a xlink:href="retransmit_8h.html" target="_top" xlink:title="再送制御モジュールの内部ヘッダー。">
<polygon fill="#ffffff" stroke="#666666" points="173.5,-74 105.5,-74 105.5,-55 173.5,-55 173.5,-74"/>
<text text-anchor="middle" x="139.5" y="-62" font-family="Helvetica,sans-Serif" font-size="10.00" fill="#000000">retransmit.h</text>
</a>
</g>
</g>
<!-- Node1&#45;&gt;Node4 -->
<g id="edge3_Node000001_Node000004" class="edge">
<title>Node1&#45;&gt;Node4</title>
<g id="a_edge3_Node000001_Node000004"><a xlink:title=" ">
<path fill="none" stroke="#63b8ff" d="M93.1452,-109.7333C102.0238,-101.0695 113.1505,-90.212 122.2772,-81.3062"/>
<polygon fill="#63b8ff" stroke="#63b8ff" points="124.9632,-83.5754 129.6759,-74.0864 120.0744,-78.5654 124.9632,-83.5754"/>
</a>
</g>
</g>
<!-- Node4&#45;&gt;Node3 -->
<g id="edge5_Node000004_Node000003" class="edge">
<title>Node4&#45;&gt;Node3</title>
<g id="a_edge5_Node000004_Node000003"><a xlink:title=" ">
<path fill="none" stroke="#63b8ff" d="M128.7004,-54.9197C119.7428,-46.9735 106.7996,-35.4916 96.1682,-26.0605"/>
<polygon fill="#63b8ff" stroke="#63b8ff" points="98.3967,-23.3587 88.5933,-19.3408 93.7514,-28.5953 98.3967,-23.3587"/>
</a>
</g>
</g>
<!-- Node5 -->
<g id="Node000005" class="node">
<title>Node5</title>
<g id="a_Node000005"><a xlink:title=" ">
<polygon fill="#e0e0e0" stroke="#999999" points="184,-19 135,-19 135,0 184,0 184,-19"/>
<text text-anchor="middle" x="159.5" y="-7" font-family="Helvetica,sans-Serif" font-size="10.00" fill="#000000">stdint.h</text>
</a>
</g>
</g>
<!-- Node4&#45;&gt;Node5 -->
<g id="edge4_Node000004_Node000005" class="edge">
<title>Node4&#45;&gt;Node5</title>
<g id="a_edge4_Node000004_Node000005"><a xlink:title=" ">
<path fill="none" stroke="#63b8ff" d="M142.9837,-54.9197C145.59,-47.7525 149.2422,-37.7089 152.4497,-28.8882"/>
<polygon fill="#63b8ff" stroke="#63b8ff" points="155.7933,-29.9349 155.9215,-19.3408 149.2147,-27.5426 155.7933,-29.9349"/>
</a>
</g>
</g>
</g>
</svg>
