<?xml version="1.0" encoding="UTF-8" standalone="no"?>
<!DOCTYPE svg PUBLIC "-//W3C//DTD SVG 1.1//EN"
 "http://www.w3.org/Graphics/SVG/1.1/DTD/svg11.dtd">
<!-- Generated by graphviz version 2.40.1 (0)
 -->
<!-- Title: porter/src/send/send.c Pages: 1 -->
<svg width="421pt" height="192pt"
 viewBox="0.00 0.00 420.50 192.00" xmlns="http://www.w3.org/2000/svg" xmlns:xlink="http://www.w3.org/1999/xlink">
<g id="graph0" class="graph" transform="scale(1 1) rotate(0) translate(4 188)">
<title>porter/src/send/send.c</title>
<!-- Node1 -->
<g id="Node000001" class="node">
<title>Node1</title>
<g id="a_Node000001"><a xlink:title="送信テストコマンド。">
<polygon fill="#999999" stroke="#666666" points="212,-184 98,-184 98,-165 212,-165 212,-184"/>
<text text-anchor="middle" x="155" y="-172" font-family="Helvetica,sans-Serif" font-size="10.00" fill="#000000">porter/src/send/send.c</text>
</a>
</g>
</g>
<!-- Node2 -->
<g id="Node000002" class="node">
<title>Node2</title>
<g id="a_Node000002"><a xlink:title=" ">
<polygon fill="#e0e0e0" stroke="#999999" points="46,-129 0,-129 0,-110 46,-110 46,-129"/>
<text text-anchor="middle" x="23" y="-117" font-family="Helvetica,sans-Serif" font-size="10.00" fill="#000000">stdio.h</text>
</a>
</g>
</g>
<!-- Node1&#45;&gt;Node2 -->
<g id="edge1_Node000001_Node000002" class="edge">
<title>Node1&#45;&gt;Node2</title>
<g id="a_edge1_Node000001_Node000002"><a xlink:title=" ">
<path fill="none" stroke="#63b8ff" d="M132.0074,-164.9197C110.8433,-156.1014 79.2289,-142.9287 55.4884,-133.0369"/>
<polygon fill="#63b8ff" stroke="#63b8ff" points="56.749,-129.7705 46.1721,-129.155 54.0567,-136.232 56.749,-129.7705"/>
</a>
</g>
</g>
<!-- Node3 -->
<g id="Node000003" class="node">
<title>Node3</title>
<g id="a_Node000003"><a xlink:title=" ">
<polygon fill="#e0e0e0" stroke="#999999" points="112,-129 64,-129 64,-110 112,-110 112,-129"/>
<text text-anchor="middle" x="88" y="-117" font-family="Helvetica,sans-Serif" font-size="10.00" fill="#000000">stdlib.h</text>
</a>
</g>
</g>
<!-- Node1&#45;&gt;Node3 -->
<g id="edge2_Node000001_Node000003" class="edge">
<title>Node1&#45;&gt;Node3</title>
<g id="a_edge2_Node000001_Node000003"><a xlink:title=" ">
<path fill="none" stroke="#63b8ff" d="M143.3295,-164.9197C133.5546,-156.8956 119.3878,-145.2661 107.8365,-135.7837"/>
<polygon fill="#63b8ff" stroke="#63b8ff" points="109.938,-132.9805 99.9879,-129.3408 105.4965,-138.3911 109.938,-132.9805"/>
</a>
</g>
</g>
<!-- Node4 -->
<g id="Node000004" class="node">
<title>Node4</title>
<g id="a_Node000004"><a xlink:title=" ">
<polygon fill="#e0e0e0" stroke="#999999" points="179.5,-129 130.5,-129 130.5,-110 179.5,-110 179.5,-129"/>
<text text-anchor="middle" x="155" y="-117" font-family="Helvetica,sans-Serif" font-size="10.00" fill="#000000">string.h</text>
</a>
</g>
</g>
<!-- Node1&#45;&gt;Node4 -->
<g id="edge3_Node000001_Node000004" class="edge">
<title>Node1&#45;&gt;Node4</title>
<g id="a_edge3_Node000001_Node000004"><a xlink:title=" ">
<path fill="none" stroke="#63b8ff" d="M155,-164.9197C155,-157.9083 155,-148.1442 155,-139.4652"/>
<polygon fill="#63b8ff" stroke="#63b8ff" points="158.5001,-139.3408 155,-129.3408 151.5001,-139.3409 158.5001,-139.3408"/>
</a>
</g>
</g>
<!-- Node5 -->
<g id="Node000005" class="node">
<title>Node5</title>
<g id="a_Node000005"><a xlink:title=" ">
<polygon fill="#e0e0e0" stroke="#999999" points="248.5,-129 197.5,-129 197.5,-110 248.5,-110 248.5,-129"/>
<text text-anchor="middle" x="223" y="-117" font-family="Helvetica,sans-Serif" font-size="10.00" fill="#000000">unistd.h</text>
</a>
</g>
</g>
<!-- Node1&#45;&gt;Node5 -->
<g id="edge4_Node000001_Node000005" class="edge">
<title>Node1&#45;&gt;Node5</title>
<g id="a_edge4_Node000001_Node000005"><a xlink:title=" ">
<path fill="none" stroke="#63b8ff" d="M166.8447,-164.9197C176.7655,-156.8956 191.1438,-145.2661 202.8674,-135.7837"/>
<polygon fill="#63b8ff" stroke="#63b8ff" points="205.2591,-138.3509 210.8332,-129.3408 200.857,-132.9083 205.2591,-138.3509"/>
</a>
</g>
</g>
<!-- Node6 -->
<g id="Node000006" class="node">
<title>Node6</title>
<g id="a_Node000006"><a xlink:href="porter_8h.html" target="_top" xlink:title="通信ライブラリ (動的リンク用) のヘッダーファイル。">
<polygon fill="#ffffff" stroke="#666666" points="315.5,-129 266.5,-129 266.5,-110 315.5,-110 315.5,-129"/>
<text text-anchor="middle" x="291" y="-117" font-family="Helvetica,sans-Serif" font-size="10.00" fill="#000000">porter.h</text>
</a>
</g>
</g>
<!-- Node1&#45;&gt;Node6 -->
<g id="edge5_Node000001_Node000006" class="edge">
<title>Node1&#45;&gt;Node6</title>
<g id="a_edge5_Node000001_Node000006"><a xlink:title=" ">
<path fill="none" stroke="#63b8ff" d="M178.6894,-164.9197C200.5917,-156.0622 233.357,-142.8115 257.8527,-132.9052"/>
<polygon fill="#63b8ff" stroke="#63b8ff" points="259.1674,-136.1489 267.1258,-129.155 256.5429,-129.6595 259.1674,-136.1489"/>
</a>
</g>
</g>
<!-- Node7 -->
<g id="Node000007" class="node">
<title>Node7</title>
<g id="a_Node000007"><a xlink:href="porter__type_8h.html" target="_top" xlink:title="通信ライブラリの型定義ファイル。">
<polygon fill="#ffffff" stroke="#666666" points="328,-74 254,-74 254,-55 328,-55 328,-74"/>
<text text-anchor="middle" x="291" y="-62" font-family="Helvetica,sans-Serif" font-size="10.00" fill="#000000">porter_type.h</text>
</a>
</g>
</g>
<!-- Node6&#45;&gt;Node7 -->
<g id="edge6_Node000006_Node000007" class="edge">
<title>Node6&#45;&gt;Node7</title>
<g id="a_edge6_Node000006_Node000007"><a xlink:title=" ">
<path fill="none" stroke="#63b8ff" d="M291,-109.9197C291,-102.9083 291,-93.1442 291,-84.4652"/>
<polygon fill="#63b8ff" stroke="#63b8ff" points="294.5001,-84.3408 291,-74.3408 287.5001,-84.3409 294.5001,-84.3408"/>
</a>
</g>
</g>
<!-- Node8 -->
<g id="Node000008" class="node">
<title>Node8</title>
<g id="a_Node000008"><a xlink:title=" ">
<polygon fill="#e0e0e0" stroke="#999999" points="248,-19 196,-19 196,0 248,0 248,-19"/>
<text text-anchor="middle" x="222" y="-7" font-family="Helvetica,sans-Serif" font-size="10.00" fill="#000000">stddef.h</text>
</a>
</g>
</g>
<!-- Node7&#45;&gt;Node8 -->
<g id="edge7_Node000007_Node000008" class="edge">
<title>Node7&#45;&gt;Node8</title>
<g id="a_edge7_Node000007_Node000008"><a xlink:title=" ">
<path fill="none" stroke="#63b8ff" d="M278.9811,-54.9197C268.9144,-46.8956 254.3247,-35.2661 242.4287,-25.7837"/>
<polygon fill="#63b8ff" stroke="#63b8ff" points="244.3471,-22.8371 234.3458,-19.3408 239.9839,-28.3109 244.3471,-22.8371"/>
</a>
</g>
</g>
<!-- Node9 -->
<g id="Node000009" class="node">
<title>Node9</title>
<g id="a_Node000009"><a xlink:title=" ">
<polygon fill="#e0e0e0" stroke="#999999" points="315.5,-19 266.5,-19 266.5,0 315.5,0 315.5,-19"/>
<text text-anchor="middle" x="291" y="-7" font-family="Helvetica,sans-Serif" font-size="10.00" fill="#000000">stdint.h</text>
</a>
</g>
</g>
<!-- Node7&#45;&gt;Node9 -->
<g id="edge8_Node000007_Node000009" class="edge">
<title>Node7&#45;&gt;Node9</title>
<g id="a_edge8_Node000007_Node000009"><a xlink:title=" ">
<path fill="none" stroke="#63b8ff" d="M291,-54.9197C291,-47.9083 291,-38.1442 291,-29.4652"/>
<polygon fill="#63b8ff" stroke="#63b8ff" points="294.5001,-29.3408 291,-19.3408 287.5001,-29.3409 294.5001,-29.3408"/>
</a>
</g>
</g>
<!-- Node10 -->
<g id="Node000010" class="node">
<title>Node10</title>
<g id="a_Node000010"><a xlink:href="porter__const_8h.html" target="_top" xlink:title="通信ライブラリの定数ファイル。">
<polygon fill="#ffffff" stroke="#666666" points="412.5,-19 333.5,-19 333.5,0 412.5,0 412.5,-19"/>
<text text-anchor="middle" x="373" y="-7" font-family="Helvetica,sans-Serif" font-size="10.00" fill="#000000">porter_const.h</text>
</a>
</g>
</g>
<!-- Node7&#45;&gt;Node10 -->
<g id="edge9_Node000007_Node000010" class="edge">
<title>Node7&#45;&gt;Node10</title>
<g id="a_edge9_Node000007_Node000010"><a xlink:title=" ">
<path fill="none" stroke="#63b8ff" d="M305.2833,-54.9197C317.6711,-46.6109 335.8222,-34.4363 350.2147,-24.7828"/>
<polygon fill="#63b8ff" stroke="#63b8ff" points="352.25,-27.6321 358.6052,-19.155 348.3507,-21.8187 352.25,-27.6321"/>
</a>
</g>
</g>
</g>
</svg>
