<?xml version="1.0" encoding="UTF-8" standalone="no"?>
<!DOCTYPE svg PUBLIC "-//W3C//DTD SVG 1.1//EN"
 "http://www.w3.org/Graphics/SVG/1.1/DTD/svg11.dtd">
<!-- Generated by graphviz version 2.40.1 (0)
 -->
<!-- Title: porter/src/send/send.c Pages: 1 -->
<svg width="352pt" height="192pt"
 viewBox="0.00 0.00 351.50 192.00" xmlns="http://www.w3.org/2000/svg" xmlns:xlink="http://www.w3.org/1999/xlink">
<g id="graph0" class="graph" transform="scale(1 1) rotate(0) translate(4 188)">
<title>porter/src/send/send.c</title>
<!-- Node1 -->
<g id="Node000001" class="node">
<title>Node1</title>
<g id="a_Node000001"><a xlink:title="送信テストコマンド。">
<polygon fill="#999999" stroke="#666666" points="178,-184 64,-184 64,-165 178,-165 178,-184"/>
<text text-anchor="middle" x="121" y="-172" font-family="Helvetica,sans-Serif" font-size="10.00" fill="#000000">porter/src/send/send.c</text>
</a>
</g>
</g>
<!-- Node2 -->
<g id="Node000002" class="node">
<title>Node2</title>
<g id="a_Node000002"><a xlink:title=" ">
<polygon fill="#e0e0e0" stroke="#999999" points="46,-129 0,-129 0,-110 46,-110 46,-129"/>
<text text-anchor="middle" x="23" y="-117" font-family="Helvetica,sans-Serif" font-size="10.00" fill="#000000">stdio.h</text>
</a>
</g>
</g>
<!-- Node1&#45;&gt;Node2 -->
<g id="edge1_Node000001_Node000002" class="edge">
<title>Node1&#45;&gt;Node2</title>
<g id="a_edge1_Node000001_Node000002"><a xlink:title=" ">
<path fill="none" stroke="#63b8ff" d="M103.9297,-164.9197C88.8455,-156.4541 66.611,-143.9755 49.2625,-134.2391"/>
<polygon fill="#63b8ff" stroke="#63b8ff" points="50.637,-130.9971 40.2035,-129.155 47.211,-137.1014 50.637,-130.9971"/>
</a>
</g>
</g>
<!-- Node3 -->
<g id="Node000003" class="node">
<title>Node3</title>
<g id="a_Node000003"><a xlink:title=" ">
<polygon fill="#e0e0e0" stroke="#999999" points="112,-129 64,-129 64,-110 112,-110 112,-129"/>
<text text-anchor="middle" x="88" y="-117" font-family="Helvetica,sans-Serif" font-size="10.00" fill="#000000">stdlib.h</text>
</a>
</g>
</g>
<!-- Node1&#45;&gt;Node3 -->
<g id="edge2_Node000001_Node000003" class="edge">
<title>Node1&#45;&gt;Node3</title>
<g id="a_edge2_Node000001_Node000003"><a xlink:title=" ">
<path fill="none" stroke="#63b8ff" d="M115.2518,-164.9197C110.8113,-157.5188 104.5305,-147.0509 99.1176,-138.0294"/>
<polygon fill="#63b8ff" stroke="#63b8ff" points="102.0507,-136.115 93.9045,-129.3408 96.0483,-139.7165 102.0507,-136.115"/>
</a>
</g>
</g>
<!-- Node4 -->
<g id="Node000004" class="node">
<title>Node4</title>
<g id="a_Node000004"><a xlink:title=" ">
<polygon fill="#e0e0e0" stroke="#999999" points="179.5,-129 130.5,-129 130.5,-110 179.5,-110 179.5,-129"/>
<text text-anchor="middle" x="155" y="-117" font-family="Helvetica,sans-Serif" font-size="10.00" fill="#000000">string.h</text>
</a>
</g>
</g>
<!-- Node1&#45;&gt;Node4 -->
<g id="edge3_Node000001_Node000004" class="edge">
<title>Node1&#45;&gt;Node4</title>
<g id="a_edge3_Node000001_Node000004"><a xlink:title=" ">
<path fill="none" stroke="#63b8ff" d="M126.9223,-164.9197C131.4975,-157.5188 137.9686,-147.0509 143.5455,-138.0294"/>
<polygon fill="#63b8ff" stroke="#63b8ff" points="146.6354,-139.6872 148.9166,-129.3408 140.6812,-136.0064 146.6354,-139.6872"/>
</a>
</g>
</g>
<!-- Node5 -->
<g id="Node000005" class="node">
<title>Node5</title>
<g id="a_Node000005"><a xlink:href="porter_8h.html" target="_top" xlink:title="通信ライブラリ (動的リンク用) のヘッダーファイル。">
<polygon fill="#ffffff" stroke="#666666" points="246.5,-129 197.5,-129 197.5,-110 246.5,-110 246.5,-129"/>
<text text-anchor="middle" x="222" y="-117" font-family="Helvetica,sans-Serif" font-size="10.00" fill="#000000">porter.h</text>
</a>
</g>
</g>
<!-- Node1&#45;&gt;Node5 -->
<g id="edge4_Node000001_Node000005" class="edge">
<title>Node1&#45;&gt;Node5</title>
<g id="a_edge4_Node000001_Node000005"><a xlink:title=" ">
<path fill="none" stroke="#63b8ff" d="M138.5929,-164.9197C154.2828,-156.3757 177.479,-143.7441 195.4289,-133.9694"/>
<polygon fill="#63b8ff" stroke="#63b8ff" points="197.1614,-137.0113 204.2699,-129.155 193.8137,-130.8637 197.1614,-137.0113"/>
</a>
</g>
</g>
<!-- Node6 -->
<g id="Node000006" class="node">
<title>Node6</title>
<g id="a_Node000006"><a xlink:href="porter__type_8h.html" target="_top" xlink:title="通信ライブラリの型定義ファイル。">
<polygon fill="#ffffff" stroke="#666666" points="259,-74 185,-74 185,-55 259,-55 259,-74"/>
<text text-anchor="middle" x="222" y="-62" font-family="Helvetica,sans-Serif" font-size="10.00" fill="#000000">porter_type.h</text>
</a>
</g>
</g>
<!-- Node5&#45;&gt;Node6 -->
<g id="edge5_Node000005_Node000006" class="edge">
<title>Node5&#45;&gt;Node6</title>
<g id="a_edge5_Node000005_Node000006"><a xlink:title=" ">
<path fill="none" stroke="#63b8ff" d="M222,-109.9197C222,-102.9083 222,-93.1442 222,-84.4652"/>
<polygon fill="#63b8ff" stroke="#63b8ff" points="225.5001,-84.3408 222,-74.3408 218.5001,-84.3409 225.5001,-84.3408"/>
</a>
</g>
</g>
<!-- Node7 -->
<g id="Node000007" class="node">
<title>Node7</title>
<g id="a_Node000007"><a xlink:title=" ">
<polygon fill="#e0e0e0" stroke="#999999" points="179,-19 127,-19 127,0 179,0 179,-19"/>
<text text-anchor="middle" x="153" y="-7" font-family="Helvetica,sans-Serif" font-size="10.00" fill="#000000">stddef.h</text>
</a>
</g>
</g>
<!-- Node6&#45;&gt;Node7 -->
<g id="edge6_Node000006_Node000007" class="edge">
<title>Node6&#45;&gt;Node7</title>
<g id="a_edge6_Node000006_Node000007"><a xlink:title=" ">
<path fill="none" stroke="#63b8ff" d="M209.9811,-54.9197C199.9144,-46.8956 185.3247,-35.2661 173.4287,-25.7837"/>
<polygon fill="#63b8ff" stroke="#63b8ff" points="175.3471,-22.8371 165.3458,-19.3408 170.9839,-28.3109 175.3471,-22.8371"/>
</a>
</g>
</g>
<!-- Node8 -->
<g id="Node000008" class="node">
<title>Node8</title>
<g id="a_Node000008"><a xlink:title=" ">
<polygon fill="#e0e0e0" stroke="#999999" points="246.5,-19 197.5,-19 197.5,0 246.5,0 246.5,-19"/>
<text text-anchor="middle" x="222" y="-7" font-family="Helvetica,sans-Serif" font-size="10.00" fill="#000000">stdint.h</text>
</a>
</g>
</g>
<!-- Node6&#45;&gt;Node8 -->
<g id="edge7_Node000006_Node000008" class="edge">
<title>Node6&#45;&gt;Node8</title>
<g id="a_edge7_Node000006_Node000008"><a xlink:title=" ">
<path fill="none" stroke="#63b8ff" d="M222,-54.9197C222,-47.9083 222,-38.1442 222,-29.4652"/>
<polygon fill="#63b8ff" stroke="#63b8ff" points="225.5001,-29.3408 222,-19.3408 218.5001,-29.3409 225.5001,-29.3408"/>
</a>
</g>
</g>
<!-- Node9 -->
<g id="Node000009" class="node">
<title>Node9</title>
<g id="a_Node000009"><a xlink:href="porter__const_8h.html" target="_top" xlink:title="通信ライブラリの定数ファイル。">
<polygon fill="#ffffff" stroke="#666666" points="343.5,-19 264.5,-19 264.5,0 343.5,0 343.5,-19"/>
<text text-anchor="middle" x="304" y="-7" font-family="Helvetica,sans-Serif" font-size="10.00" fill="#000000">porter_const.h</text>
</a>
</g>
</g>
<!-- Node6&#45;&gt;Node9 -->
<g id="edge8_Node000006_Node000009" class="edge">
<title>Node6&#45;&gt;Node9</title>
<g id="a_edge8_Node000006_Node000009"><a xlink:title=" ">
<path fill="none" stroke="#63b8ff" d="M236.2833,-54.9197C248.6711,-46.6109 266.8222,-34.4363 281.2147,-24.7828"/>
<polygon fill="#63b8ff" stroke="#63b8ff" points="283.25,-27.6321 289.6052,-19.155 279.3507,-21.8187 283.25,-27.6321"/>
</a>
</g>
</g>
</g>
</svg>
