<?xml version="1.0" encoding="UTF-8" standalone="no"?>
<!DOCTYPE svg PUBLIC "-//W3C//DTD SVG 1.1//EN"
 "http://www.w3.org/Graphics/SVG/1.1/DTD/svg11.dtd">
<!-- Generated by graphviz version 2.40.1 (0)
 -->
<!-- Title: main Pages: 1 -->
<svg width="782pt" height="610pt"
 viewBox="0.00 0.00 782.00 609.57" xmlns="http://www.w3.org/2000/svg" xmlns:xlink="http://www.w3.org/1999/xlink">
<g id="graph0" class="graph" transform="scale(1 1) rotate(0) translate(4 605.5739)">
<title>main</title>
<!-- Node1 -->
<g id="Node000001" class="node">
<title>Node1</title>
<g id="a_Node000001"><a xlink:title="メインエントリーポイント。">
<polygon fill="#999999" stroke="#666666" points="38,-374 0,-374 0,-355 38,-355 38,-374"/>
<text text-anchor="middle" x="19" y="-362" font-family="Helvetica,sans-Serif" font-size="10.00" fill="#000000">main</text>
</a>
</g>
</g>
<!-- Node2 -->
<g id="Node000002" class="node">
<title>Node2</title>
<g id="a_Node000002"><a xlink:href="potrClose_8c.html#a51c433a52d99667ce32f68845db2379e" target="_top" xlink:title="サービスを閉じます。">
<polygon fill="#ffffff" stroke="#666666" points="147.5,-374 89.5,-374 89.5,-355 147.5,-355 147.5,-374"/>
<text text-anchor="middle" x="118.5" y="-362" font-family="Helvetica,sans-Serif" font-size="10.00" fill="#000000">potrClose</text>
</a>
</g>
</g>
<!-- Node1&#45;&gt;Node2 -->
<g id="edge1_Node000001_Node000002" class="edge">
<title>Node1&#45;&gt;Node2</title>
<g id="a_edge1_Node000001_Node000002"><a xlink:title=" ">
<path fill="none" stroke="#63b8ff" d="M38.1846,-364.5C49.7048,-364.5 64.7952,-364.5 78.7818,-364.5"/>
<polygon fill="#63b8ff" stroke="#63b8ff" points="79.1849,-368.0001 89.1849,-364.5 79.1848,-361.0001 79.1849,-368.0001"/>
</a>
</g>
</g>
<!-- Node5 -->
<g id="Node000005" class="node">
<title>Node5</title>
<g id="a_Node000005"><a xlink:href="potrOpenService_8c.html#a7b5bb6c02c8f7ca7eaa193b07bbe7cba" target="_top" xlink:title="設定ファイルから指定サービスを開きます。">
<polygon fill="#ffffff" stroke="#666666" points="163,-206 74,-206 74,-187 163,-187 163,-206"/>
<text text-anchor="middle" x="118.5" y="-194" font-family="Helvetica,sans-Serif" font-size="10.00" fill="#000000">potrOpenService</text>
</a>
</g>
</g>
<!-- Node1&#45;&gt;Node5 -->
<g id="edge4_Node000001_Node000005" class="edge">
<title>Node1&#45;&gt;Node5</title>
<g id="a_edge4_Node000001_Node000005"><a xlink:title=" ">
<path fill="none" stroke="#63b8ff" d="M24.6346,-354.9862C40.5675,-328.0845 86.1629,-251.0994 107.3849,-215.2673"/>
<polygon fill="#63b8ff" stroke="#63b8ff" points="110.5948,-216.7156 112.6793,-206.3279 104.5719,-213.1485 110.5948,-216.7156"/>
</a>
</g>
</g>
<!-- Node31 -->
<g id="Node000031" class="node">
<title>Node31</title>
<g id="a_Node000031"><a xlink:href="potrSend_8c.html#a50f796e2c18751b09924b8251fbd81aa" target="_top" xlink:title="データを送信します。">
<polygon fill="#ffffff" stroke="#666666" points="146.5,-504 90.5,-504 90.5,-485 146.5,-485 146.5,-504"/>
<text text-anchor="middle" x="118.5" y="-492" font-family="Helvetica,sans-Serif" font-size="10.00" fill="#000000">potrSend</text>
</a>
</g>
</g>
<!-- Node1&#45;&gt;Node31 -->
<g id="edge39_Node000001_Node000031" class="edge">
<title>Node1&#45;&gt;Node31</title>
<g id="a_edge39_Node000001_Node000031"><a xlink:title=" ">
<path fill="none" stroke="#63b8ff" d="M26.4787,-374.2711C43.1991,-396.1169 83.8022,-449.1661 105.0435,-476.9187"/>
<polygon fill="#63b8ff" stroke="#63b8ff" points="102.3477,-479.1551 111.205,-484.9688 107.9064,-474.9005 102.3477,-479.1551"/>
</a>
</g>
</g>
<!-- Node3 -->
<g id="Node000003" class="node">
<title>Node3</title>
<g id="a_Node000003"><a xlink:href="potrRecvThread_8c.html#a7c78b3cb3453065cd140eb118741ad45" target="_top" xlink:title="受信スレッドを停止します。">
<polygon fill="#ffffff" stroke="#666666" points="323.5,-393 199.5,-393 199.5,-374 323.5,-374 323.5,-393"/>
<text text-anchor="middle" x="261.5" y="-381" font-family="Helvetica,sans-Serif" font-size="10.00" fill="#000000">comm_recv_thread_stop</text>
</a>
</g>
</g>
<!-- Node2&#45;&gt;Node3 -->
<g id="edge2_Node000002_Node000003" class="edge">
<title>Node2&#45;&gt;Node3</title>
<g id="a_edge2_Node000002_Node000003"><a xlink:title=" ">
<path fill="none" stroke="#63b8ff" d="M147.7833,-368.3908C159.8664,-369.9962 174.4557,-371.9347 189.0955,-373.8798"/>
<polygon fill="#63b8ff" stroke="#63b8ff" points="188.8348,-377.3759 199.2087,-375.2235 189.7569,-370.4368 188.8348,-377.3759"/>
</a>
</g>
</g>
<!-- Node4 -->
<g id="Node000004" class="node">
<title>Node4</title>
<g id="a_Node000004"><a xlink:href="potrIpAddr_8c.html#a3cec4d9d1cf322295151f0f4319db29e" target="_top" xlink:title=" ">
<polygon fill="#ffffff" stroke="#666666" points="459.5,-355 371.5,-355 371.5,-336 459.5,-336 459.5,-355"/>
<text text-anchor="middle" x="415.5" y="-343" font-family="Helvetica,sans-Serif" font-size="10.00" fill="#000000">parse_ipv4_addr</text>
</a>
</g>
</g>
<!-- Node2&#45;&gt;Node4 -->
<g id="edge3_Node000002_Node000004" class="edge">
<title>Node2&#45;&gt;Node4</title>
<g id="a_edge3_Node000002_Node000004"><a xlink:title=" ">
<path fill="none" stroke="#63b8ff" d="M147.5184,-362.6436C196.9483,-359.4814 298.2262,-353.0024 361.1409,-348.9775"/>
<polygon fill="#63b8ff" stroke="#63b8ff" points="361.52,-352.4605 371.2761,-348.3291 361.073,-345.4748 361.52,-352.4605"/>
</a>
</g>
</g>
<!-- Node6 -->
<g id="Node000006" class="node">
<title>Node6</title>
<g id="a_Node000006"><a xlink:href="potrRecvThread_8c.html#a1006d5ccaf47db6c24908eb7ae366505" target="_top" xlink:title="受信スレッドを起動します。">
<polygon fill="#ffffff" stroke="#666666" points="324,-280 199,-280 199,-261 324,-261 324,-280"/>
<text text-anchor="middle" x="261.5" y="-268" font-family="Helvetica,sans-Serif" font-size="10.00" fill="#000000">comm_recv_thread_start</text>
</a>
</g>
</g>
<!-- Node5&#45;&gt;Node6 -->
<g id="edge5_Node000005_Node000006" class="edge">
<title>Node5&#45;&gt;Node6</title>
<g id="a_edge5_Node000005_Node000006"><a xlink:title=" ">
<path fill="none" stroke="#63b8ff" d="M129.7533,-206.1385C144.6746,-218.4758 172.2505,-239.7724 199,-252.5 203.0084,-254.4072 207.2597,-256.1532 211.5846,-257.7424"/>
<polygon fill="#63b8ff" stroke="#63b8ff" points="210.5102,-261.0738 221.1046,-260.9729 212.7596,-254.4451 210.5102,-261.0738"/>
</a>
</g>
</g>
<!-- Node19 -->
<g id="Node000019" class="node">
<title>Node19</title>
<g id="a_Node000019"><a xlink:href="config_8c.html#afd290b0c734dce1335e786e638c67a12" target="_top" xlink:title="設定ファイルから [global] セクションを読み込みます。">
<polygon fill="#ffffff" stroke="#666666" points="310,-132 213,-132 213,-113 310,-113 310,-132"/>
<text text-anchor="middle" x="261.5" y="-120" font-family="Helvetica,sans-Serif" font-size="10.00" fill="#000000">config_load_global</text>
</a>
</g>
</g>
<!-- Node5&#45;&gt;Node19 -->
<g id="edge22_Node000005_Node000019" class="edge">
<title>Node5&#45;&gt;Node19</title>
<g id="a_edge22_Node000005_Node000019"><a xlink:title=" ">
<path fill="none" stroke="#63b8ff" d="M130.0729,-186.8982C145.1171,-174.8294 172.5979,-154.1643 199,-141.5 203.6734,-139.2583 208.6701,-137.2115 213.7258,-135.3613"/>
<polygon fill="#63b8ff" stroke="#63b8ff" points="215.1152,-138.5856 223.4513,-132.0464 212.8568,-131.9599 215.1152,-138.5856"/>
</a>
</g>
</g>
<!-- Node23 -->
<g id="Node000023" class="node">
<title>Node23</title>
<g id="a_Node000023"><a xlink:href="config_8c.html#a4b72d1221265c0c8c3748a30ac0fd48f" target="_top" xlink:title="設定ファイルから指定サービスの定義を読み込みます。">
<polygon fill="#ffffff" stroke="#666666" points="313,-58 210,-58 210,-39 313,-39 313,-58"/>
<text text-anchor="middle" x="261.5" y="-46" font-family="Helvetica,sans-Serif" font-size="10.00" fill="#000000">config_load_service</text>
</a>
</g>
</g>
<!-- Node5&#45;&gt;Node23 -->
<g id="edge27_Node000005_Node000023" class="edge">
<title>Node5&#45;&gt;Node23</title>
<g id="a_edge27_Node000005_Node000023"><a xlink:title=" ">
<path fill="none" stroke="#63b8ff" d="M121.8245,-186.7501C130.5182,-162.7262 156.2591,-100.2629 199,-67.5 201.4415,-65.6285 204.0672,-63.9403 206.8108,-62.4175"/>
<polygon fill="#63b8ff" stroke="#63b8ff" points="208.3673,-65.553 215.8931,-58.0955 205.3594,-59.2322 208.3673,-65.553"/>
</a>
</g>
</g>
<!-- Node26 -->
<g id="Node000026" class="node">
<title>Node26</title>
<g id="a_Node000026"><a xlink:href="potrOpenService_8c.html#aafa846f610c7badee584434e161be459" target="_top" xlink:title=" ">
<polygon fill="#ffffff" stroke="#666666" points="321.5,-95 201.5,-95 201.5,-76 321.5,-76 321.5,-95"/>
<text text-anchor="middle" x="261.5" y="-83" font-family="Helvetica,sans-Serif" font-size="10.00" fill="#000000">open_socket_broadcast</text>
</a>
</g>
</g>
<!-- Node5&#45;&gt;Node26 -->
<g id="edge33_Node000005_Node000026" class="edge">
<title>Node5&#45;&gt;Node26</title>
<g id="a_edge33_Node000005_Node000026"><a xlink:title=" ">
<path fill="none" stroke="#63b8ff" d="M124.2923,-186.8563C136.0184,-168.1553 164.4151,-126.8412 199,-104.5 202.2821,-102.3798 205.8128,-100.4862 209.4657,-98.7965"/>
<polygon fill="#63b8ff" stroke="#63b8ff" points="210.7985,-102.0329 218.7258,-95.0038 208.1453,-95.5552 210.7985,-102.0329"/>
</a>
</g>
</g>
<!-- Node27 -->
<g id="Node000027" class="node">
<title>Node27</title>
<g id="a_Node000027"><a xlink:href="potrOpenService_8c.html#a946841991d9b2b7998aa8137584b34b7" target="_top" xlink:title=" ">
<polygon fill="#ffffff" stroke="#666666" points="320,-317 203,-317 203,-298 320,-298 320,-317"/>
<text text-anchor="middle" x="261.5" y="-305" font-family="Helvetica,sans-Serif" font-size="10.00" fill="#000000">open_socket_multicast</text>
</a>
</g>
</g>
<!-- Node5&#45;&gt;Node27 -->
<g id="edge34_Node000005_Node000027" class="edge">
<title>Node5&#45;&gt;Node27</title>
<g id="a_edge34_Node000005_Node000027"><a xlink:title=" ">
<path fill="none" stroke="#63b8ff" d="M124.0579,-206.0039C135.5734,-224.8502 163.917,-267.069 199,-289.5 201.5805,-291.1499 204.3159,-292.6523 207.1443,-294.0198"/>
<polygon fill="#63b8ff" stroke="#63b8ff" points="205.8453,-297.2705 216.4187,-297.9442 208.5732,-290.8239 205.8453,-297.2705"/>
</a>
</g>
</g>
<!-- Node28 -->
<g id="Node000028" class="node">
<title>Node28</title>
<g id="a_Node000028"><a xlink:href="potrOpenService_8c.html#a4a8bf6df6f3ab1ea5a6ce77fba8d2d34" target="_top" xlink:title=" ">
<polygon fill="#ffffff" stroke="#666666" points="316,-243 207,-243 207,-224 316,-224 316,-243"/>
<text text-anchor="middle" x="261.5" y="-231" font-family="Helvetica,sans-Serif" font-size="10.00" fill="#000000">open_socket_unicast</text>
</a>
</g>
</g>
<!-- Node5&#45;&gt;Node28 -->
<g id="edge36_Node000005_Node000028" class="edge">
<title>Node5&#45;&gt;Node28</title>
<g id="a_edge36_Node000005_Node000028"><a xlink:title=" ">
<path fill="none" stroke="#63b8ff" d="M155.3261,-206.0284C173.3664,-210.6962 195.2925,-216.3694 214.5248,-221.3456"/>
<polygon fill="#63b8ff" stroke="#63b8ff" points="213.7438,-224.7587 224.3017,-223.8753 215.4973,-217.9819 213.7438,-224.7587"/>
</a>
</g>
</g>
<!-- Node29 -->
<g id="Node000029" class="node">
<title>Node29</title>
<g id="a_Node000029"><a xlink:href="retransmit_8c.html#a5b35cc6aee4a37fc60b71abd175527e0" target="_top" xlink:title="再送制御管理構造体を初期化します。">
<polygon fill="#ffffff" stroke="#666666" points="300.5,-206 222.5,-206 222.5,-187 300.5,-187 300.5,-206"/>
<text text-anchor="middle" x="261.5" y="-194" font-family="Helvetica,sans-Serif" font-size="10.00" fill="#000000">retransmit_init</text>
</a>
</g>
</g>
<!-- Node5&#45;&gt;Node29 -->
<g id="edge37_Node000005_Node000029" class="edge">
<title>Node5&#45;&gt;Node29</title>
<g id="a_edge37_Node000005_Node000029"><a xlink:title=" ">
<path fill="none" stroke="#63b8ff" d="M163.3537,-196.5C178.8076,-196.5 196.1995,-196.5 212.0025,-196.5"/>
<polygon fill="#63b8ff" stroke="#63b8ff" points="212.1216,-200.0001 222.1216,-196.5 212.1215,-193.0001 212.1216,-200.0001"/>
</a>
</g>
</g>
<!-- Node30 -->
<g id="Node000030" class="node">
<title>Node30</title>
<g id="a_Node000030"><a xlink:href="window_8c.html#ac2fe725387be874649c2557619abf841" target="_top" xlink:title="ウィンドウを初期化します。">
<polygon fill="#ffffff" stroke="#666666" points="294.5,-169 228.5,-169 228.5,-150 294.5,-150 294.5,-169"/>
<text text-anchor="middle" x="261.5" y="-157" font-family="Helvetica,sans-Serif" font-size="10.00" fill="#000000">window_init</text>
</a>
</g>
</g>
<!-- Node5&#45;&gt;Node30 -->
<g id="edge38_Node000005_Node000030" class="edge">
<title>Node5&#45;&gt;Node30</title>
<g id="a_edge38_Node000005_Node000030"><a xlink:title=" ">
<path fill="none" stroke="#63b8ff" d="M155.3261,-186.9716C174.5818,-181.9893 198.2646,-175.8616 218.3734,-170.6586"/>
<polygon fill="#63b8ff" stroke="#63b8ff" points="219.4165,-174.0041 228.2209,-168.1107 217.663,-167.2272 219.4165,-174.0041"/>
</a>
</g>
</g>
<!-- Node7 -->
<g id="Node000007" class="node">
<title>Node7</title>
<g id="a_Node000007"><a xlink:href="potrRecvThread_8c.html#a300c2d6c99e3491d0ee4c7cb4de36146" target="_top" xlink:title=" ">
<polygon fill="#ffffff" stroke="#666666" points="461.5,-289 369.5,-289 369.5,-270 461.5,-270 461.5,-289"/>
<text text-anchor="middle" x="415.5" y="-277" font-family="Helvetica,sans-Serif" font-size="10.00" fill="#000000">recv_thread_func</text>
</a>
</g>
</g>
<!-- Node6&#45;&gt;Node7 -->
<g id="edge6_Node000006_Node000007" class="edge">
<title>Node6&#45;&gt;Node7</title>
<g id="a_edge6_Node000006_Node000007"><a xlink:title=" ">
<path fill="none" stroke="#63b8ff" d="M324.1377,-274.1606C335.7413,-274.8388 347.796,-275.5433 359.1968,-276.2096"/>
<polygon fill="#63b8ff" stroke="#63b8ff" points="359.2642,-279.7194 369.4514,-276.8088 359.6727,-272.7313 359.2642,-279.7194"/>
</a>
</g>
</g>
<!-- Node8 -->
<g id="Node000008" class="node">
<title>Node8</title>
<g id="a_Node000008"><a xlink:href="packet_8c.html#a15889622b4af9f2ad1d7f3269532dc6f" target="_top" xlink:title="受信バイト列をパケット構造体に解析します。">
<polygon fill="#ffffff" stroke="#666666" points="609.5,-220 534.5,-220 534.5,-201 609.5,-201 609.5,-220"/>
<text text-anchor="middle" x="572" y="-208" font-family="Helvetica,sans-Serif" font-size="10.00" fill="#000000">packet_parse</text>
</a>
</g>
</g>
<!-- Node7&#45;&gt;Node8 -->
<g id="edge7_Node000007_Node000008" class="edge">
<title>Node7&#45;&gt;Node8</title>
<g id="a_edge7_Node000007_Node000008"><a xlink:title=" ">
<path fill="none" stroke="#63b8ff" d="M430.5407,-269.9584C448.2739,-259.0258 478.8976,-241.1255 507,-229.5 512.5678,-227.1967 518.5114,-225.0541 524.4572,-223.1002"/>
<polygon fill="#63b8ff" stroke="#63b8ff" points="525.8977,-226.3171 534.3996,-219.995 523.8108,-219.6354 525.8977,-226.3171"/>
</a>
</g>
</g>
<!-- Node9 -->
<g id="Node000009" class="node">
<title>Node9</title>
<g id="a_Node000009"><a xlink:href="potrRecvThread_8c.html#a6c210bf450de8b4bc7b00a665ab436f9" target="_top" xlink:title=" ">
<polygon fill="#ffffff" stroke="#666666" points="606.5,-257 537.5,-257 537.5,-238 606.5,-238 606.5,-257"/>
<text text-anchor="middle" x="572" y="-245" font-family="Helvetica,sans-Serif" font-size="10.00" fill="#000000">recv_deliver</text>
</a>
</g>
</g>
<!-- Node7&#45;&gt;Node9 -->
<g id="edge8_Node000007_Node000009" class="edge">
<title>Node7&#45;&gt;Node9</title>
<g id="a_edge8_Node000007_Node000009"><a xlink:title=" ">
<path fill="none" stroke="#63b8ff" d="M461.6087,-270.072C482.2801,-265.8453 506.5735,-260.878 527.1003,-256.6808"/>
<polygon fill="#63b8ff" stroke="#63b8ff" points="528.05,-260.0591 537.1461,-254.6267 526.6476,-253.201 528.05,-260.0591"/>
</a>
</g>
</g>
<!-- Node11 -->
<g id="Node000011" class="node">
<title>Node11</title>
<g id="a_Node000011"><a xlink:href="potrRecvThread_8c.html#abc16a3b58a39e0842eab75e0e4a2ff82" target="_top" xlink:title=" ">
<polygon fill="#ffffff" stroke="#666666" points="604,-183 540,-183 540,-164 604,-164 604,-183"/>
<text text-anchor="middle" x="572" y="-171" font-family="Helvetica,sans-Serif" font-size="10.00" fill="#000000">send_nack</text>
</a>
</g>
</g>
<!-- Node7&#45;&gt;Node11 -->
<g id="edge10_Node000007_Node000011" class="edge">
<title>Node7&#45;&gt;Node11</title>
<g id="a_edge10_Node000007_Node000011"><a xlink:title=" ">
<path fill="none" stroke="#63b8ff" d="M422.9578,-269.8429C437.2936,-251.9352 470.5247,-213.4954 507,-192.5 514.0992,-188.4137 522.1487,-185.1442 530.1054,-182.5498"/>
<polygon fill="#63b8ff" stroke="#63b8ff" points="531.1,-185.9056 539.6947,-179.7103 529.1125,-179.1936 531.1,-185.9056"/>
</a>
</g>
</g>
<!-- Node13 -->
<g id="Node000013" class="node">
<title>Node13</title>
<g id="a_Node000013"><a xlink:href="window_8c.html#a6ecfb9f52ac33918ba6f8cd0386b17c2" target="_top" xlink:title="受信ウィンドウで欠番が発生しているか確認し、NACK 番号を返します。">
<polygon fill="#ffffff" stroke="#666666" points="637,-368 507,-368 507,-349 637,-349 637,-368"/>
<text text-anchor="middle" x="572" y="-356" font-family="Helvetica,sans-Serif" font-size="10.00" fill="#000000">window_recv_needs_nack</text>
</a>
</g>
</g>
<!-- Node7&#45;&gt;Node13 -->
<g id="edge12_Node000007_Node000013" class="edge">
<title>Node7&#45;&gt;Node13</title>
<g id="a_edge12_Node000007_Node000013"><a xlink:title=" ">
<path fill="none" stroke="#63b8ff" d="M427.2002,-289.1003C443.932,-302.3935 476.097,-326.3617 507,-340.5 511.2991,-342.4669 515.859,-344.2611 520.4904,-345.8881"/>
<polygon fill="#63b8ff" stroke="#63b8ff" points="519.4446,-349.2284 530.0369,-348.9949 521.6109,-342.572 519.4446,-349.2284"/>
</a>
</g>
</g>
<!-- Node15 -->
<g id="Node000015" class="node">
<title>Node15</title>
<g id="a_Node000015"><a xlink:href="window_8c.html#a883a182a547ff084957069939b131527" target="_top" xlink:title="受信ウィンドウから順序整列済みパケットを取り出します。">
<polygon fill="#ffffff" stroke="#666666" points="618.5,-405 525.5,-405 525.5,-386 618.5,-386 618.5,-405"/>
<text text-anchor="middle" x="572" y="-393" font-family="Helvetica,sans-Serif" font-size="10.00" fill="#000000">window_recv_pop</text>
</a>
</g>
</g>
<!-- Node7&#45;&gt;Node15 -->
<g id="edge14_Node000007_Node000015" class="edge">
<title>Node7&#45;&gt;Node15</title>
<g id="a_edge14_Node000007_Node000015"><a xlink:title=" ">
<path fill="none" stroke="#63b8ff" d="M428.1498,-289.038C439.9118,-298.2197 457.5869,-312.8362 471,-327.5 489.4818,-347.7052 484.5315,-361.8477 507,-377.5 509.8734,-379.5017 512.9625,-381.2813 516.1777,-382.8635"/>
<polygon fill="#63b8ff" stroke="#63b8ff" points="514.9256,-386.1343 525.4983,-386.82 517.6609,-379.6908 514.9256,-386.1343"/>
</a>
</g>
</g>
<!-- Node16 -->
<g id="Node000016" class="node">
<title>Node16</title>
<g id="a_Node000016"><a xlink:href="window_8c.html#ac134e864859663f32389cf30fe55bc6e" target="_top" xlink:title="受信ウィンドウにパケットを格納します。">
<polygon fill="#ffffff" stroke="#666666" points="621,-294 523,-294 523,-275 621,-275 621,-294"/>
<text text-anchor="middle" x="572" y="-282" font-family="Helvetica,sans-Serif" font-size="10.00" fill="#000000">window_recv_push</text>
</a>
</g>
</g>
<!-- Node7&#45;&gt;Node16 -->
<g id="edge16_Node000007_Node000016" class="edge">
<title>Node7&#45;&gt;Node16</title>
<g id="a_edge16_Node000007_Node000016"><a xlink:title=" ">
<path fill="none" stroke="#63b8ff" d="M461.6087,-280.9731C477.5873,-281.4836 495.7302,-282.0633 512.6246,-282.603"/>
<polygon fill="#63b8ff" stroke="#63b8ff" points="512.8453,-286.1118 522.952,-282.933 513.0689,-279.1153 512.8453,-286.1118"/>
</a>
</g>
</g>
<!-- Node18 -->
<g id="Node000018" class="node">
<title>Node18</title>
<g id="a_Node000018"><a xlink:href="window_8c.html#aa3c39809a6b6c7275a2539d6edf95036" target="_top" xlink:title="ACK を処理して送信ウィンドウを前進させます。">
<polygon fill="#ffffff" stroke="#666666" points="619.5,-331 524.5,-331 524.5,-312 619.5,-312 619.5,-331"/>
<text text-anchor="middle" x="572" y="-319" font-family="Helvetica,sans-Serif" font-size="10.00" fill="#000000">window_send_ack</text>
</a>
</g>
</g>
<!-- Node7&#45;&gt;Node18 -->
<g id="edge19_Node000007_Node000018" class="edge">
<title>Node7&#45;&gt;Node18</title>
<g id="a_edge19_Node000007_Node000018"><a xlink:title=" ">
<path fill="none" stroke="#63b8ff" d="M451.0123,-289.0305C473.344,-295.0236 502.3749,-302.8147 526.4012,-309.2626"/>
<polygon fill="#63b8ff" stroke="#63b8ff" points="525.7923,-312.723 536.3577,-311.9347 527.6067,-305.9622 525.7923,-312.723"/>
</a>
</g>
</g>
<!-- Node10 -->
<g id="Node000010" class="node">
<title>Node10</title>
<g id="a_Node000010"><a xlink:href="compress__linux_8c.html#a9b4c1ab5034e8a243544747d2efdcd21" target="_top" xlink:title="圧縮データを解凍します。">
<polygon fill="#ffffff" stroke="#666666" points="769.5,-257 677.5,-257 677.5,-238 769.5,-238 769.5,-257"/>
<text text-anchor="middle" x="723.5" y="-245" font-family="Helvetica,sans-Serif" font-size="10.00" fill="#000000">potr_decompress</text>
</a>
</g>
</g>
<!-- Node9&#45;&gt;Node10 -->
<g id="edge9_Node000009_Node000010" class="edge">
<title>Node9&#45;&gt;Node10</title>
<g id="a_edge9_Node000009_Node000010"><a xlink:title=" ">
<path fill="none" stroke="#63b8ff" d="M606.7572,-247.5C624.6931,-247.5 647.0169,-247.5 667.3252,-247.5"/>
<polygon fill="#63b8ff" stroke="#63b8ff" points="667.4151,-251.0001 677.4151,-247.5 667.415,-244.0001 667.4151,-251.0001"/>
</a>
</g>
</g>
<!-- Node12 -->
<g id="Node000012" class="node">
<title>Node12</title>
<g id="a_Node000012"><a xlink:href="packet_8c.html#aaf155f7d2936ffa8015eddaddd1d96be" target="_top" xlink:title="NACK パケットを構築します。">
<polygon fill="#ffffff" stroke="#666666" points="772.5,-183 674.5,-183 674.5,-164 772.5,-164 772.5,-183"/>
<text text-anchor="middle" x="723.5" y="-171" font-family="Helvetica,sans-Serif" font-size="10.00" fill="#000000">packet_build_nack</text>
</a>
</g>
</g>
<!-- Node11&#45;&gt;Node12 -->
<g id="edge11_Node000011_Node000012" class="edge">
<title>Node11&#45;&gt;Node12</title>
<g id="a_edge11_Node000011_Node000012"><a xlink:title=" ">
<path fill="none" stroke="#63b8ff" d="M604.1293,-173.5C621.5908,-173.5 643.7435,-173.5 664.2113,-173.5"/>
<polygon fill="#63b8ff" stroke="#63b8ff" points="664.4104,-177.0001 674.4104,-173.5 664.4104,-170.0001 664.4104,-177.0001"/>
</a>
</g>
</g>
<!-- Node14 -->
<g id="Node000014" class="node">
<title>Node14</title>
<g id="a_Node000014"><a xlink:href="window_8c.html#ad5f53882d6cd6075a78e83b94fb62cc3" target="_top" xlink:title=" ">
<polygon fill="#ffffff" stroke="#666666" points="753,-368 694,-368 694,-349 753,-349 753,-368"/>
<text text-anchor="middle" x="723.5" y="-356" font-family="Helvetica,sans-Serif" font-size="10.00" fill="#000000">win_index</text>
</a>
</g>
</g>
<!-- Node13&#45;&gt;Node14 -->
<g id="edge13_Node000013_Node000014" class="edge">
<title>Node13&#45;&gt;Node14</title>
<g id="a_edge13_Node000013_Node000014"><a xlink:title=" ">
<path fill="none" stroke="#63b8ff" d="M637.1289,-358.5C652.8503,-358.5 669.1944,-358.5 683.3798,-358.5"/>
<polygon fill="#63b8ff" stroke="#63b8ff" points="683.7606,-362.0001 693.7605,-358.5 683.7605,-355.0001 683.7606,-362.0001"/>
</a>
</g>
</g>
<!-- Node15&#45;&gt;Node14 -->
<g id="edge15_Node000015_Node000014" class="edge">
<title>Node15&#45;&gt;Node14</title>
<g id="a_edge15_Node000015_Node000014"><a xlink:title=" ">
<path fill="none" stroke="#63b8ff" d="M611.015,-385.9716C633.3674,-380.5126 661.3505,-373.6784 683.8142,-368.1922"/>
<polygon fill="#63b8ff" stroke="#63b8ff" points="684.8228,-371.5489 693.7069,-365.7762 683.162,-364.7487 684.8228,-371.5489"/>
</a>
</g>
</g>
<!-- Node16&#45;&gt;Node14 -->
<g id="edge18_Node000016_Node000014" class="edge">
<title>Node16&#45;&gt;Node14</title>
<g id="a_edge18_Node000016_Node000014"><a xlink:title=" ">
<path fill="none" stroke="#63b8ff" d="M611.1437,-294.0019C619.8257,-296.6403 628.861,-299.8128 637,-303.5 660.6617,-314.2194 685.4627,-330.5961 702.4109,-342.6935"/>
<polygon fill="#63b8ff" stroke="#63b8ff" points="700.8153,-345.8607 710.9616,-348.9109 704.932,-340.1991 700.8153,-345.8607"/>
</a>
</g>
</g>
<!-- Node17 -->
<g id="Node000017" class="node">
<title>Node17</title>
<g id="a_Node000017"><a xlink:href="seqnum_8c.html#a45fcfa48b2d66889a5b9b8f63650336a" target="_top" xlink:title="通番 seq がウィンドウ [base, base + window_size) に含まれるか判定します。">
<polygon fill="#ffffff" stroke="#666666" points="774,-312 673,-312 673,-293 774,-293 774,-312"/>
<text text-anchor="middle" x="723.5" y="-300" font-family="Helvetica,sans-Serif" font-size="10.00" fill="#000000">seqnum_in_window</text>
</a>
</g>
</g>
<!-- Node16&#45;&gt;Node17 -->
<g id="edge17_Node000016_Node000017" class="edge">
<title>Node16&#45;&gt;Node17</title>
<g id="a_edge17_Node000016_Node000017"><a xlink:title=" ">
<path fill="none" stroke="#63b8ff" d="M621.1877,-290.3441C634.3381,-291.9065 648.7114,-293.6142 662.4185,-295.2428"/>
<polygon fill="#63b8ff" stroke="#63b8ff" points="662.396,-298.7647 672.7391,-296.469 663.222,-291.8135 662.396,-298.7647"/>
</a>
</g>
</g>
<!-- Node18&#45;&gt;Node14 -->
<g id="edge21_Node000018_Node000014" class="edge">
<title>Node18&#45;&gt;Node14</title>
<g id="a_edge21_Node000018_Node000014"><a xlink:title=" ">
<path fill="none" stroke="#63b8ff" d="M611.015,-331.0284C633.3674,-336.4874 661.3505,-343.3216 683.8142,-348.8078"/>
<polygon fill="#63b8ff" stroke="#63b8ff" points="683.162,-352.2513 693.7069,-351.2238 684.8228,-345.4511 683.162,-352.2513"/>
</a>
</g>
</g>
<!-- Node18&#45;&gt;Node17 -->
<g id="edge20_Node000018_Node000017" class="edge">
<title>Node18&#45;&gt;Node17</title>
<g id="a_edge20_Node000018_Node000017"><a xlink:title=" ">
<path fill="none" stroke="#63b8ff" d="M619.5199,-315.5404C633.1365,-313.8327 648.1732,-311.9469 662.4807,-310.1526"/>
<polygon fill="#63b8ff" stroke="#63b8ff" points="663.2524,-313.5833 672.7391,-308.866 662.3813,-306.6377 663.2524,-313.5833"/>
</a>
</g>
</g>
<!-- Node20 -->
<g id="Node000020" class="node">
<title>Node20</title>
<g id="a_Node000020"><a xlink:href="config_8c.html#a613c87799141fafda471fdd4069f8343" target="_top" xlink:title=" ">
<polygon fill="#ffffff" stroke="#666666" points="471,-95 360,-95 360,-76 471,-76 471,-95"/>
<text text-anchor="middle" x="415.5" y="-83" font-family="Helvetica,sans-Serif" font-size="10.00" fill="#000000">open_config_file_read</text>
</a>
</g>
</g>
<!-- Node19&#45;&gt;Node20 -->
<g id="edge23_Node000019_Node000020" class="edge">
<title>Node19&#45;&gt;Node20</title>
<g id="a_edge23_Node000019_Node000020"><a xlink:title=" ">
<path fill="none" stroke="#63b8ff" d="M301.1588,-112.9716C320.8417,-108.2426 344.8197,-102.4816 365.7248,-97.459"/>
<polygon fill="#63b8ff" stroke="#63b8ff" points="366.8026,-100.7997 375.7082,-95.0604 365.1672,-93.9934 366.8026,-100.7997"/>
</a>
</g>
</g>
<!-- Node21 -->
<g id="Node000021" class="node">
<title>Node21</title>
<g id="a_Node000021"><a xlink:href="config_8c.html#a5f2de03809866bfac8920bc13a97aaca" target="_top" xlink:title=" ">
<polygon fill="#ffffff" stroke="#666666" points="443.5,-132 387.5,-132 387.5,-113 443.5,-113 443.5,-132"/>
<text text-anchor="middle" x="415.5" y="-120" font-family="Helvetica,sans-Serif" font-size="10.00" fill="#000000">parse_kv</text>
</a>
</g>
</g>
<!-- Node19&#45;&gt;Node21 -->
<g id="edge24_Node000019_Node000021" class="edge">
<title>Node19&#45;&gt;Node21</title>
<g id="a_edge24_Node000019_Node000021"><a xlink:title=" ">
<path fill="none" stroke="#63b8ff" d="M310.2266,-122.5C331.8379,-122.5 356.8998,-122.5 377.1481,-122.5"/>
<polygon fill="#63b8ff" stroke="#63b8ff" points="377.2541,-126.0001 387.254,-122.5 377.254,-119.0001 377.2541,-126.0001"/>
</a>
</g>
</g>
<!-- Node22 -->
<g id="Node000022" class="node">
<title>Node22</title>
<g id="a_Node000022"><a xlink:href="config_8c.html#a2c8b5f7a0223db682d3326ce74f794f4" target="_top" xlink:title=" ">
<polygon fill="#ffffff" stroke="#666666" points="588.5,-132 555.5,-132 555.5,-113 588.5,-113 588.5,-132"/>
<text text-anchor="middle" x="572" y="-120" font-family="Helvetica,sans-Serif" font-size="10.00" fill="#000000">trim</text>
</a>
</g>
</g>
<!-- Node19&#45;&gt;Node22 -->
<g id="edge26_Node000019_Node000022" class="edge">
<title>Node19&#45;&gt;Node22</title>
<g id="a_edge26_Node000019_Node000022"><a xlink:title=" ">
<path fill="none" stroke="#63b8ff" d="M301.5049,-132.0106C319.3019,-135.7757 340.5826,-139.6444 360,-141.5 409.1096,-146.1932 421.8797,-146.0801 471,-141.5 496.5667,-139.1161 525.3069,-133.408 545.5728,-128.8665"/>
<polygon fill="#63b8ff" stroke="#63b8ff" points="546.3749,-132.2735 555.3363,-126.6217 544.8063,-125.4514 546.3749,-132.2735"/>
</a>
</g>
</g>
<!-- Node21&#45;&gt;Node22 -->
<g id="edge25_Node000021_Node000022" class="edge">
<title>Node21&#45;&gt;Node22</title>
<g id="a_edge25_Node000021_Node000022"><a xlink:title=" ">
<path fill="none" stroke="#63b8ff" d="M443.841,-122.5C472.6128,-122.5 516.8349,-122.5 545.0834,-122.5"/>
<polygon fill="#63b8ff" stroke="#63b8ff" points="545.415,-126.0001 555.4149,-122.5 545.4149,-119.0001 545.415,-126.0001"/>
</a>
</g>
</g>
<!-- Node23&#45;&gt;Node20 -->
<g id="edge30_Node000023_Node000020" class="edge">
<title>Node23&#45;&gt;Node20</title>
<g id="a_edge30_Node000023_Node000020"><a xlink:title=" ">
<path fill="none" stroke="#63b8ff" d="M301.1588,-58.0284C320.8417,-62.7574 344.8197,-68.5184 365.7248,-73.541"/>
<polygon fill="#63b8ff" stroke="#63b8ff" points="365.1672,-77.0066 375.7082,-75.9396 366.8026,-70.2003 365.1672,-77.0066"/>
</a>
</g>
</g>
<!-- Node23&#45;&gt;Node21 -->
<g id="edge31_Node000023_Node000021" class="edge">
<title>Node23&#45;&gt;Node21</title>
<g id="a_edge31_Node000023_Node000021"><a xlink:title=" ">
<path fill="none" stroke="#63b8ff" d="M303.4448,-58.0432C310.5765,-60.5527 317.7044,-63.6651 324,-67.5 343.5948,-79.4359 340.5165,-92.3834 360,-104.5 365.4191,-107.8701 371.5322,-110.6716 377.6696,-112.9802"/>
<polygon fill="#63b8ff" stroke="#63b8ff" points="376.6434,-116.3279 387.2376,-116.2133 378.8843,-109.6962 376.6434,-116.3279"/>
</a>
</g>
</g>
<!-- Node23&#45;&gt;Node22 -->
<g id="edge32_Node000023_Node000022" class="edge">
<title>Node23&#45;&gt;Node22</title>
<g id="a_edge32_Node000023_Node000022"><a xlink:title=" ">
<path fill="none" stroke="#63b8ff" d="M313.4121,-47.4038C356.5004,-47.8579 418.9275,-51.7026 471,-67.5 500.1944,-76.3568 530.5204,-94.2352 550.2263,-107.2103"/>
<polygon fill="#63b8ff" stroke="#63b8ff" points="548.4945,-110.2638 558.743,-112.9507 552.4069,-104.4592 548.4945,-110.2638"/>
</a>
</g>
</g>
<!-- Node24 -->
<g id="Node000024" class="node">
<title>Node24</title>
<g id="a_Node000024"><a xlink:href="config_8c.html#af598a3e207900d3f07fc6afa897ff37f" target="_top" xlink:title=" ">
<polygon fill="#ffffff" stroke="#666666" points="461.5,-19 369.5,-19 369.5,0 461.5,0 461.5,-19"/>
<text text-anchor="middle" x="415.5" y="-7" font-family="Helvetica,sans-Serif" font-size="10.00" fill="#000000">apply_service_kv</text>
</a>
</g>
</g>
<!-- Node23&#45;&gt;Node24 -->
<g id="edge28_Node000023_Node000024" class="edge">
<title>Node23&#45;&gt;Node24</title>
<g id="a_edge28_Node000023_Node000024"><a xlink:title=" ">
<path fill="none" stroke="#63b8ff" d="M299.1726,-38.9595C319.9447,-33.6991 345.9362,-27.1168 368.0793,-21.5091"/>
<polygon fill="#63b8ff" stroke="#63b8ff" points="369.115,-24.8574 377.9497,-19.0095 367.3965,-18.0716 369.115,-24.8574"/>
</a>
</g>
</g>
<!-- Node25 -->
<g id="Node000025" class="node">
<title>Node25</title>
<g id="a_Node000025"><a xlink:href="config_8c.html#a07c7ea9e8c66fbaa3d3c8c848a8a4975" target="_top" xlink:title=" ">
<polygon fill="#ffffff" stroke="#666666" points="615,-19 529,-19 529,0 615,0 615,-19"/>
<text text-anchor="middle" x="572" y="-7" font-family="Helvetica,sans-Serif" font-size="10.00" fill="#000000">copy_cstr_trunc</text>
</a>
</g>
</g>
<!-- Node24&#45;&gt;Node25 -->
<g id="edge29_Node000024_Node000025" class="edge">
<title>Node24&#45;&gt;Node25</title>
<g id="a_edge29_Node000024_Node000025"><a xlink:title=" ">
<path fill="none" stroke="#63b8ff" d="M461.6087,-9.5C479.5625,-9.5 500.2485,-9.5 518.826,-9.5"/>
<polygon fill="#63b8ff" stroke="#63b8ff" points="518.8992,-13.0001 528.8992,-9.5 518.8991,-6.0001 518.8992,-13.0001"/>
</a>
</g>
</g>
<!-- Node27&#45;&gt;Node4 -->
<g id="edge35_Node000027_Node000004" class="edge">
<title>Node27&#45;&gt;Node4</title>
<g id="a_edge35_Node000027_Node000004"><a xlink:title=" ">
<path fill="none" stroke="#63b8ff" d="M300.3607,-317.089C320.5911,-322.0809 345.5207,-328.2324 367.0036,-333.5334"/>
<polygon fill="#63b8ff" stroke="#63b8ff" points="366.3714,-336.9823 376.9187,-335.9799 368.0485,-330.1861 366.3714,-336.9823"/>
</a>
</g>
</g>
<!-- Node32 -->
<g id="Node000032" class="node">
<title>Node32</title>
<g id="a_Node000032"><a xlink:href="potrSend_8c.html#a9ebacd64367cd4c5f9965da30ab0d622" target="_top" xlink:title=" ">
<polygon fill="#ffffff" stroke="#666666" points="304,-430 219,-430 219,-411 304,-411 304,-430"/>
<text text-anchor="middle" x="261.5" y="-418" font-family="Helvetica,sans-Serif" font-size="10.00" fill="#000000">build_dest_addr</text>
</a>
</g>
</g>
<!-- Node31&#45;&gt;Node32 -->
<g id="edge40_Node000031_Node000032" class="edge">
<title>Node31&#45;&gt;Node32</title>
<g id="a_edge40_Node000031_Node000032"><a xlink:title=" ">
<path fill="none" stroke="#63b8ff" d="M130.0729,-484.8982C145.1171,-472.8294 172.5979,-452.1643 199,-439.5 203.6734,-437.2583 208.6701,-435.2115 213.7258,-433.3613"/>
<polygon fill="#63b8ff" stroke="#63b8ff" points="215.1152,-436.5856 223.4513,-430.0464 212.8568,-429.9599 215.1152,-436.5856"/>
</a>
</g>
</g>
<!-- Node33 -->
<g id="Node000033" class="node">
<title>Node33</title>
<g id="a_Node000033"><a xlink:href="packet_8c.html#ac572f0e690242c2b458502ac9b76daaa" target="_top" xlink:title="データパケットを構築します。">
<polygon fill="#ffffff" stroke="#666666" points="309,-541 214,-541 214,-522 309,-522 309,-541"/>
<text text-anchor="middle" x="261.5" y="-529" font-family="Helvetica,sans-Serif" font-size="10.00" fill="#000000">packet_build_data</text>
</a>
</g>
</g>
<!-- Node31&#45;&gt;Node33 -->
<g id="edge42_Node000031_Node000033" class="edge">
<title>Node31&#45;&gt;Node33</title>
<g id="a_edge42_Node000031_Node000033"><a xlink:title=" ">
<path fill="none" stroke="#63b8ff" d="M146.7522,-501.81C166.1797,-506.8367 192.4306,-513.6289 214.9213,-519.4482"/>
<polygon fill="#63b8ff" stroke="#63b8ff" points="214.0666,-522.8422 224.6246,-521.9588 215.8201,-516.0654 214.0666,-522.8422"/>
</a>
</g>
</g>
<!-- Node34 -->
<g id="Node000034" class="node">
<title>Node34</title>
<g id="a_Node000034"><a xlink:href="packet_8c.html#aee7ebc74dbbe67fa4c9bcdced8dca70c" target="_top" xlink:title="パケットのヘッダー + ペイロードの合計バイト数を返します。">
<polygon fill="#ffffff" stroke="#666666" points="307.5,-504 215.5,-504 215.5,-485 307.5,-485 307.5,-504"/>
<text text-anchor="middle" x="261.5" y="-492" font-family="Helvetica,sans-Serif" font-size="10.00" fill="#000000">packet_wire_size</text>
</a>
</g>
</g>
<!-- Node31&#45;&gt;Node34 -->
<g id="edge43_Node000031_Node000034" class="edge">
<title>Node31&#45;&gt;Node34</title>
<g id="a_edge43_Node000031_Node000034"><a xlink:title=" ">
<path fill="none" stroke="#63b8ff" d="M146.7522,-494.5C163.3874,-494.5 185.0256,-494.5 205.0221,-494.5"/>
<polygon fill="#63b8ff" stroke="#63b8ff" points="205.2942,-498.0001 215.2942,-494.5 205.2941,-491.0001 205.2942,-498.0001"/>
</a>
</g>
</g>
<!-- Node35 -->
<g id="Node000035" class="node">
<title>Node35</title>
<g id="a_Node000035"><a xlink:href="compress__linux_8c.html#ae3eac2a4f0aae5db6c833f63dbaae78b" target="_top" xlink:title="データを圧縮します。">
<polygon fill="#ffffff" stroke="#666666" points="302,-578 221,-578 221,-559 302,-559 302,-578"/>
<text text-anchor="middle" x="261.5" y="-566" font-family="Helvetica,sans-Serif" font-size="10.00" fill="#000000">potr_compress</text>
</a>
</g>
</g>
<!-- Node31&#45;&gt;Node35 -->
<g id="edge44_Node000031_Node000035" class="edge">
<title>Node31&#45;&gt;Node35</title>
<g id="a_edge44_Node000031_Node000035"><a xlink:title=" ">
<path fill="none" stroke="#63b8ff" d="M129.7533,-504.1385C144.6746,-516.4758 172.2505,-537.7724 199,-550.5 203.0084,-552.4072 207.2597,-554.1532 211.5846,-555.7424"/>
<polygon fill="#63b8ff" stroke="#63b8ff" points="210.5102,-559.0738 221.1046,-558.9729 212.7596,-552.4451 210.5102,-559.0738"/>
</a>
</g>
</g>
<!-- Node36 -->
<g id="Node000036" class="node">
<title>Node36</title>
<g id="a_Node000036"><a xlink:href="window_8c.html#aa49e58851242a05b75813c79490da396" target="_top" xlink:title="送信ウィンドウが満杯かどうかを返します。">
<polygon fill="#ffffff" stroke="#666666" points="461.5,-574 369.5,-574 369.5,-555 461.5,-555 461.5,-574"/>
<text text-anchor="middle" x="415.5" y="-562" font-family="Helvetica,sans-Serif" font-size="10.00" fill="#000000">window_send_full</text>
</a>
</g>
</g>
<!-- Node31&#45;&gt;Node36 -->
<g id="edge45_Node000031_Node000036" class="edge">
<title>Node31&#45;&gt;Node36</title>
<g id="a_edge45_Node000031_Node000036"><a xlink:title=" ">
<path fill="none" stroke="#63b8ff" d="M123.2597,-504.2561C133.6933,-524.3676 160.7381,-570.0143 199,-587.5 259.7582,-615.2665 339.8104,-593.7331 383.5593,-577.736"/>
<polygon fill="#63b8ff" stroke="#63b8ff" points="384.9834,-580.9393 393.0956,-574.1244 382.5042,-574.3931 384.9834,-580.9393"/>
</a>
</g>
</g>
<!-- Node37 -->
<g id="Node000037" class="node">
<title>Node37</title>
<g id="a_Node000037"><a xlink:href="window_8c.html#a194f99cfb5f1631fb7643c1838a5278a" target="_top" xlink:title="送信ウィンドウにパケットを積みます。">
<polygon fill="#ffffff" stroke="#666666" points="312,-467 211,-467 211,-448 312,-448 312,-467"/>
<text text-anchor="middle" x="261.5" y="-455" font-family="Helvetica,sans-Serif" font-size="10.00" fill="#000000">window_send_push</text>
</a>
</g>
</g>
<!-- Node31&#45;&gt;Node37 -->
<g id="edge46_Node000031_Node000037" class="edge">
<title>Node31&#45;&gt;Node37</title>
<g id="a_edge46_Node000031_Node000037"><a xlink:title=" ">
<path fill="none" stroke="#63b8ff" d="M146.7522,-487.19C166.1797,-482.1633 192.4306,-475.3711 214.9213,-469.5518"/>
<polygon fill="#63b8ff" stroke="#63b8ff" points="215.8201,-472.9346 224.6246,-467.0412 214.0666,-466.1578 215.8201,-472.9346"/>
</a>
</g>
</g>
<!-- Node32&#45;&gt;Node4 -->
<g id="edge41_Node000032_Node000004" class="edge">
<title>Node32&#45;&gt;Node4</title>
<g id="a_edge41_Node000032_Node000004"><a xlink:title=" ">
<path fill="none" stroke="#63b8ff" d="M300.7692,-410.9932C308.6065,-408.5963 316.6756,-405.76 324,-402.5 349.4806,-391.1587 376.3019,-373.706 394.2684,-361.1003"/>
<polygon fill="#63b8ff" stroke="#63b8ff" points="396.6971,-363.6669 402.8026,-355.0082 392.63,-357.9696 396.6971,-363.6669"/>
</a>
</g>
</g>
<!-- Node37&#45;&gt;Node14 -->
<g id="edge47_Node000037_Node000014" class="edge">
<title>Node37&#45;&gt;Node14</title>
<g id="a_edge47_Node000037_Node000014"><a xlink:title=" ">
<path fill="none" stroke="#63b8ff" d="M312.0446,-458.9233C385.7357,-459.4141 525.9747,-454.3093 637,-414.5 662.3823,-405.3989 687.8614,-387.602 704.5244,-374.5041"/>
<polygon fill="#63b8ff" stroke="#63b8ff" points="706.8066,-377.1599 712.3873,-368.1539 702.4085,-371.7141 706.8066,-377.1599"/>
</a>
</g>
</g>
<!-- Node37&#45;&gt;Node36 -->
<g id="edge48_Node000037_Node000036" class="edge">
<title>Node37&#45;&gt;Node36</title>
<g id="a_edge48_Node000037_Node000036"><a xlink:title=" ">
<path fill="none" stroke="#63b8ff" d="M303.0103,-467.104C310.2623,-469.6154 317.5438,-472.7127 324,-476.5 355.795,-495.1511 385.1001,-526.9927 401.5977,-546.8288"/>
<polygon fill="#63b8ff" stroke="#63b8ff" points="399.0239,-549.2115 408.0469,-554.7646 404.4563,-544.7967 399.0239,-549.2115"/>
</a>
</g>
</g>
</g>
</svg>
