<?xml version="1.0" encoding="UTF-8" standalone="no"?>
<!DOCTYPE svg PUBLIC "-//W3C//DTD SVG 1.1//EN"
 "http://www.w3.org/Graphics/SVG/1.1/DTD/svg11.dtd">
<!-- Generated by graphviz version 2.40.1 (0)
 -->
<!-- Title: seqnum_in_window Pages: 1 -->
<svg width="864pt" height="82pt"
 viewBox="0.00 0.00 864.00 82.06" xmlns="http://www.w3.org/2000/svg" xmlns:xlink="http://www.w3.org/1999/xlink">
<g id="graph0" class="graph" transform="scale(1 1) rotate(0) translate(4 78.0643)">
<title>seqnum_in_window</title>
<!-- Node1 -->
<g id="Node000001" class="node">
<title>Node1</title>
<g id="a_Node000001"><a xlink:title="通番 seq がウィンドウ [base, base + window_size) に含まれるか判定します。">
<polygon fill="#999999" stroke="#666666" points="856,-56 755,-56 755,-37 856,-37 856,-56"/>
<text text-anchor="middle" x="805.5" y="-44" font-family="Helvetica,sans-Serif" font-size="10.00" fill="#000000">seqnum_in_window</text>
</a>
</g>
</g>
<!-- Node2 -->
<g id="Node000002" class="node">
<title>Node2</title>
<g id="a_Node000002"><a xlink:href="potrRecvThread_8c.html#a300c2d6c99e3491d0ee4c7cb4de36146" target="_top" xlink:title=" ">
<polygon fill="#ffffff" stroke="#666666" points="452,-56 360,-56 360,-37 452,-37 452,-56"/>
<text text-anchor="middle" x="406" y="-44" font-family="Helvetica,sans-Serif" font-size="10.00" fill="#000000">recv_thread_func</text>
</a>
</g>
</g>
<!-- Node1&#45;&gt;Node2 -->
<g id="edge1_Node000001_Node000002" class="edge">
<title>Node1&#45;&gt;Node2</title>
<g id="a_edge1_Node000001_Node000002"><a xlink:title=" ">
<path fill="none" stroke="#63b8ff" d="M760.5747,-58.2975C747.2861,-61.2618 732.6424,-64.0194 719,-65.5 616.9327,-76.5777 590.0021,-77.1628 488,-65.5 471.7391,-63.6407 454.0112,-59.7716 439.2123,-56.0071"/>
<polygon fill="#63b8ff" stroke="#63b8ff" points="761.4842,-61.6795 770.4334,-56.0083 759.9008,-54.861 761.4842,-61.6795"/>
</a>
</g>
</g>
<!-- Node6 -->
<g id="Node000006" class="node">
<title>Node6</title>
<g id="a_Node000006"><a xlink:href="window_8c.html#ac134e864859663f32389cf30fe55bc6e" target="_top" xlink:title="受信ウィンドウにパケットを格納します。">
<polygon fill="#ffffff" stroke="#666666" points="719,-56 621,-56 621,-37 719,-37 719,-56"/>
<text text-anchor="middle" x="670" y="-44" font-family="Helvetica,sans-Serif" font-size="10.00" fill="#000000">window_recv_push</text>
</a>
</g>
</g>
<!-- Node1&#45;&gt;Node6 -->
<g id="edge5_Node000001_Node000006" class="edge">
<title>Node1&#45;&gt;Node6</title>
<g id="a_edge5_Node000001_Node000006"><a xlink:title=" ">
<path fill="none" stroke="#63b8ff" d="M744.49,-46.5C736.0669,-46.5 727.5035,-46.5 719.3274,-46.5"/>
<polygon fill="#63b8ff" stroke="#63b8ff" points="744.6593,-50.0001 754.6593,-46.5 744.6593,-43.0001 744.6593,-50.0001"/>
</a>
</g>
</g>
<!-- Node8 -->
<g id="Node000008" class="node">
<title>Node8</title>
<g id="a_Node000008"><a xlink:href="window_8c.html#a809726c67053a1b04955b9f58a590c56" target="_top" xlink:title="送信ウィンドウから指定通番のパケットを取得します (再送用)。">
<polygon fill="#ffffff" stroke="#666666" points="583,-19 490,-19 490,0 583,0 583,-19"/>
<text text-anchor="middle" x="536.5" y="-7" font-family="Helvetica,sans-Serif" font-size="10.00" fill="#000000">window_send_get</text>
</a>
</g>
</g>
<!-- Node1&#45;&gt;Node8 -->
<g id="edge8_Node000001_Node000008" class="edge">
<title>Node1&#45;&gt;Node8</title>
<g id="a_edge8_Node000001_Node000008"><a xlink:title=" ">
<path fill="none" stroke="#63b8ff" d="M756.5017,-34.6847C744.3039,-32.0346 731.2197,-29.4377 719,-27.5 673.0905,-20.2199 620.1872,-15.389 583.1998,-12.5817"/>
<polygon fill="#63b8ff" stroke="#63b8ff" points="755.9794,-38.154 766.501,-36.91 757.5001,-31.3212 755.9794,-38.154"/>
</a>
</g>
</g>
<!-- Node3 -->
<g id="Node000003" class="node">
<title>Node3</title>
<g id="a_Node000003"><a xlink:href="potrRecvThread_8c.html#a1006d5ccaf47db6c24908eb7ae366505" target="_top" xlink:title="受信スレッドを起動します。">
<polygon fill="#ffffff" stroke="#666666" points="324,-56 199,-56 199,-37 324,-37 324,-56"/>
<text text-anchor="middle" x="261.5" y="-44" font-family="Helvetica,sans-Serif" font-size="10.00" fill="#000000">comm_recv_thread_start</text>
</a>
</g>
</g>
<!-- Node2&#45;&gt;Node3 -->
<g id="edge2_Node000002_Node000003" class="edge">
<title>Node2&#45;&gt;Node3</title>
<g id="a_edge2_Node000002_Node000003"><a xlink:title=" ">
<path fill="none" stroke="#63b8ff" d="M349.7793,-46.5C341.345,-46.5 332.6039,-46.5 324.0476,-46.5"/>
<polygon fill="#63b8ff" stroke="#63b8ff" points="349.882,-50.0001 359.882,-46.5 349.882,-43.0001 349.882,-50.0001"/>
</a>
</g>
</g>
<!-- Node4 -->
<g id="Node000004" class="node">
<title>Node4</title>
<g id="a_Node000004"><a xlink:href="potrOpenService_8c.html#a8ce1599677086e0c54400b696ed28680" target="_top" xlink:title="設定ファイルから指定サービスを開きます。">
<polygon fill="#ffffff" stroke="#666666" points="163,-56 74,-56 74,-37 163,-37 163,-56"/>
<text text-anchor="middle" x="118.5" y="-44" font-family="Helvetica,sans-Serif" font-size="10.00" fill="#000000">potrOpenService</text>
</a>
</g>
</g>
<!-- Node3&#45;&gt;Node4 -->
<g id="edge3_Node000003_Node000004" class="edge">
<title>Node3&#45;&gt;Node4</title>
<g id="a_edge3_Node000003_Node000004"><a xlink:title=" ">
<path fill="none" stroke="#63b8ff" d="M188.5984,-46.5C179.9114,-46.5 171.252,-46.5 163.1334,-46.5"/>
<polygon fill="#63b8ff" stroke="#63b8ff" points="188.7782,-50.0001 198.7781,-46.5 188.7781,-43.0001 188.7782,-50.0001"/>
</a>
</g>
</g>
<!-- Node5 -->
<g id="Node000005" class="node">
<title>Node5</title>
<g id="a_Node000005"><a xlink:href="recv_8c.html#a0ddf1224851353fc92bfbff6f499fa97" target="_top" xlink:title="メインエントリーポイント。">
<polygon fill="#ffffff" stroke="#666666" points="38,-56 0,-56 0,-37 38,-37 38,-56"/>
<text text-anchor="middle" x="19" y="-44" font-family="Helvetica,sans-Serif" font-size="10.00" fill="#000000">main</text>
</a>
</g>
</g>
<!-- Node4&#45;&gt;Node5 -->
<g id="edge4_Node000004_Node000005" class="edge">
<title>Node4&#45;&gt;Node5</title>
<g id="a_edge4_Node000004_Node000005"><a xlink:title=" ">
<path fill="none" stroke="#63b8ff" d="M63.8932,-46.5C54.615,-46.5 45.5643,-46.5 38.0485,-46.5"/>
<polygon fill="#63b8ff" stroke="#63b8ff" points="63.9885,-50.0001 73.9884,-46.5 63.9884,-43.0001 63.9885,-50.0001"/>
</a>
</g>
</g>
<!-- Node7 -->
<g id="Node000007" class="node">
<title>Node7</title>
<g id="a_Node000007"><a xlink:href="potrRecvThread_8c.html#a69c2cb6947b8a810bb95585972a60e09" target="_top" xlink:title=" ">
<polygon fill="#ffffff" stroke="#666666" points="585,-56 488,-56 488,-37 585,-37 585,-56"/>
<text text-anchor="middle" x="536.5" y="-44" font-family="Helvetica,sans-Serif" font-size="10.00" fill="#000000">process_outer_pkt</text>
</a>
</g>
</g>
<!-- Node6&#45;&gt;Node7 -->
<g id="edge6_Node000006_Node000007" class="edge">
<title>Node6&#45;&gt;Node7</title>
<g id="a_edge6_Node000006_Node000007"><a xlink:title=" ">
<path fill="none" stroke="#63b8ff" d="M610.469,-46.5C602.0131,-46.5 593.4008,-46.5 585.1835,-46.5"/>
<polygon fill="#63b8ff" stroke="#63b8ff" points="610.6689,-50.0001 620.6688,-46.5 610.6688,-43.0001 610.6689,-50.0001"/>
</a>
</g>
</g>
<!-- Node7&#45;&gt;Node2 -->
<g id="edge7_Node000007_Node000002" class="edge">
<title>Node7&#45;&gt;Node2</title>
<g id="a_edge7_Node000007_Node000002"><a xlink:title=" ">
<path fill="none" stroke="#63b8ff" d="M477.8554,-46.5C469.2004,-46.5 460.3888,-46.5 452.0381,-46.5"/>
<polygon fill="#63b8ff" stroke="#63b8ff" points="477.9067,-50.0001 487.9066,-46.5 477.9066,-43.0001 477.9067,-50.0001"/>
</a>
</g>
</g>
<!-- Node8&#45;&gt;Node2 -->
<g id="edge9_Node000008_Node000002" class="edge">
<title>Node8&#45;&gt;Node2</title>
<g id="a_edge9_Node000008_Node000002"><a xlink:title=" ">
<path fill="none" stroke="#63b8ff" d="M493.0256,-21.8261C475.7417,-26.7265 456.1555,-32.2797 439.9467,-36.8753"/>
<polygon fill="#63b8ff" stroke="#63b8ff" points="494.227,-25.1235 502.893,-19.0284 492.3175,-18.3889 494.227,-25.1235"/>
</a>
</g>
</g>
</g>
</svg>
