<?xml version="1.0" encoding="UTF-8" standalone="no"?>
<!DOCTYPE svg PUBLIC "-//W3C//DTD SVG 1.1//EN"
 "http://www.w3.org/Graphics/SVG/1.1/DTD/svg11.dtd">
<!-- Generated by graphviz version 2.40.1 (0)
 -->
<!-- Title: PotrContext_ Pages: 1 -->
<svg width="426pt" height="606pt"
 viewBox="0.00 0.00 426.00 606.00" xmlns="http://www.w3.org/2000/svg" xmlns:xlink="http://www.w3.org/1999/xlink">
<g id="graph0" class="graph" transform="scale(1 1) rotate(0) translate(4 602)">
<title>PotrContext_</title>
<!-- Node1 -->
<g id="Node000001" class="node">
<title>Node1</title>
<g id="a_Node000001"><a xlink:title="セッションコンテキスト構造体。PotrHandle の実体。">
<polygon fill="#999999" stroke="transparent" points="258,-214 163,-214 163,0 258,0 258,-214"/>
<text text-anchor="start" x="182" y="-202" font-family="Helvetica,sans-Serif" font-size="10.00" fill="#000000">PotrContext_</text>
<text text-anchor="start" x="167.5" y="-187" font-family="Helvetica,sans-Serif" font-size="10.00" fill="#000000">+</text>
<text text-anchor="start" x="178.5" y="-187" font-family="Helvetica,sans-Serif" font-size="10.00" fill="#000000">callback</text>
<text text-anchor="start" x="167.5" y="-172" font-family="Helvetica,sans-Serif" font-size="10.00" fill="#000000">+</text>
<text text-anchor="start" x="178.5" y="-172" font-family="Helvetica,sans-Serif" font-size="10.00" fill="#000000">recv_thread</text>
<text text-anchor="start" x="167.5" y="-157" font-family="Helvetica,sans-Serif" font-size="10.00" fill="#000000">+</text>
<text text-anchor="start" x="178.5" y="-157" font-family="Helvetica,sans-Serif" font-size="10.00" fill="#000000">sock</text>
<text text-anchor="start" x="167.5" y="-142" font-family="Helvetica,sans-Serif" font-size="10.00" fill="#000000">+</text>
<text text-anchor="start" x="178.5" y="-142" font-family="Helvetica,sans-Serif" font-size="10.00" fill="#000000">running</text>
<text text-anchor="start" x="167.5" y="-127" font-family="Helvetica,sans-Serif" font-size="10.00" fill="#000000">+</text>
<text text-anchor="start" x="178.5" y="-127" font-family="Helvetica,sans-Serif" font-size="10.00" fill="#000000">_pad</text>
<text text-anchor="start" x="167.5" y="-112" font-family="Helvetica,sans-Serif" font-size="10.00" fill="#000000">+</text>
<text text-anchor="start" x="178.5" y="-112" font-family="Helvetica,sans-Serif" font-size="10.00" fill="#000000">frag_buf_len</text>
<text text-anchor="start" x="167.5" y="-97" font-family="Helvetica,sans-Serif" font-size="10.00" fill="#000000">+</text>
<text text-anchor="start" x="178.5" y="-97" font-family="Helvetica,sans-Serif" font-size="10.00" fill="#000000">frag_compressed</text>
<text text-anchor="start" x="167.5" y="-82" font-family="Helvetica,sans-Serif" font-size="10.00" fill="#000000">+</text>
<text text-anchor="start" x="178.5" y="-82" font-family="Helvetica,sans-Serif" font-size="10.00" fill="#000000">_frag_pad2</text>
<text text-anchor="start" x="167.5" y="-67" font-family="Helvetica,sans-Serif" font-size="10.00" fill="#000000">+</text>
<text text-anchor="start" x="178.5" y="-67" font-family="Helvetica,sans-Serif" font-size="10.00" fill="#000000">frag_buf</text>
<text text-anchor="start" x="167.5" y="-52" font-family="Helvetica,sans-Serif" font-size="10.00" fill="#000000">+</text>
<text text-anchor="start" x="178.5" y="-52" font-family="Helvetica,sans-Serif" font-size="10.00" fill="#000000">_frag_pad</text>
<text text-anchor="start" x="167.5" y="-37" font-family="Helvetica,sans-Serif" font-size="10.00" fill="#000000">+</text>
<text text-anchor="start" x="178.5" y="-37" font-family="Helvetica,sans-Serif" font-size="10.00" fill="#000000">compress_buf</text>
<text text-anchor="start" x="167.5" y="-22" font-family="Helvetica,sans-Serif" font-size="10.00" fill="#000000">+</text>
<text text-anchor="start" x="178.5" y="-22" font-family="Helvetica,sans-Serif" font-size="10.00" fill="#000000">_cmp_pad</text>
<text text-anchor="start" x="209" y="-7" font-family="Helvetica,sans-Serif" font-size="10.00" fill="#000000"> </text>
<polygon fill="#666666" stroke="#666666" points="163.5,-197 163.5,-197 258.5,-197 258.5,-197 163.5,-197"/>
<polygon fill="#666666" stroke="#666666" points="163.5,-17 163.5,-17 176.5,-17 176.5,-17 163.5,-17"/>
<polygon fill="#666666" stroke="#666666" points="176.5,-17 176.5,-17 258.5,-17 258.5,-17 176.5,-17"/>
<polygon fill="none" stroke="#666666" points="163,0 163,-214 258,-214 258,0 163,0"/>
</a>
</g>
</g>
<!-- Node2 -->
<g id="Node000002" class="node">
<title>Node2</title>
<g id="a_Node000002"><a xlink:href="structPotrServiceDef.html" target="_top" xlink:title="サービス定義。">
<polygon fill="#ffffff" stroke="transparent" points="89,-436 0,-436 0,-282 89,-282 89,-436"/>
<text text-anchor="start" x="11.5" y="-424" font-family="Helvetica,sans-Serif" font-size="10.00" fill="#000000">PotrServiceDef</text>
<text text-anchor="start" x="4.5" y="-409" font-family="Helvetica,sans-Serif" font-size="10.00" fill="#000000">+</text>
<text text-anchor="start" x="15.5" y="-409" font-family="Helvetica,sans-Serif" font-size="10.00" fill="#000000">service_id</text>
<text text-anchor="start" x="4.5" y="-394" font-family="Helvetica,sans-Serif" font-size="10.00" fill="#000000">+</text>
<text text-anchor="start" x="15.5" y="-394" font-family="Helvetica,sans-Serif" font-size="10.00" fill="#000000">type</text>
<text text-anchor="start" x="4.5" y="-379" font-family="Helvetica,sans-Serif" font-size="10.00" fill="#000000">+</text>
<text text-anchor="start" x="15.5" y="-379" font-family="Helvetica,sans-Serif" font-size="10.00" fill="#000000">dst_port</text>
<text text-anchor="start" x="4.5" y="-364" font-family="Helvetica,sans-Serif" font-size="10.00" fill="#000000">+</text>
<text text-anchor="start" x="15.5" y="-364" font-family="Helvetica,sans-Serif" font-size="10.00" fill="#000000">src_port</text>
<text text-anchor="start" x="4.5" y="-349" font-family="Helvetica,sans-Serif" font-size="10.00" fill="#000000">+</text>
<text text-anchor="start" x="15.5" y="-349" font-family="Helvetica,sans-Serif" font-size="10.00" fill="#000000">ttl</text>
<text text-anchor="start" x="4.5" y="-334" font-family="Helvetica,sans-Serif" font-size="10.00" fill="#000000">+</text>
<text text-anchor="start" x="15.5" y="-334" font-family="Helvetica,sans-Serif" font-size="10.00" fill="#000000">_pad</text>
<text text-anchor="start" x="4.5" y="-319" font-family="Helvetica,sans-Serif" font-size="10.00" fill="#000000">+</text>
<text text-anchor="start" x="15.5" y="-319" font-family="Helvetica,sans-Serif" font-size="10.00" fill="#000000">multicast_group</text>
<text text-anchor="start" x="4.5" y="-304" font-family="Helvetica,sans-Serif" font-size="10.00" fill="#000000">+</text>
<text text-anchor="start" x="15.5" y="-304" font-family="Helvetica,sans-Serif" font-size="10.00" fill="#000000">broadcast_addr</text>
<text text-anchor="start" x="43" y="-289" font-family="Helvetica,sans-Serif" font-size="10.00" fill="#000000"> </text>
<polygon fill="#666666" stroke="#666666" points=".5,-419 .5,-419 89.5,-419 89.5,-419 .5,-419"/>
<polygon fill="#666666" stroke="#666666" points=".5,-299 .5,-299 13.5,-299 13.5,-299 .5,-299"/>
<polygon fill="#666666" stroke="#666666" points="13.5,-299 13.5,-299 89.5,-299 89.5,-299 13.5,-299"/>
<polygon fill="none" stroke="#666666" points="0,-282 0,-436 89,-436 89,-282 0,-282"/>
</a>
</g>
</g>
<!-- Node2&#45;&gt;Node1 -->
<g id="edge1_Node000001_Node000002" class="edge">
<title>Node2&#45;&gt;Node1</title>
<g id="a_edge1_Node000001_Node000002"><a xlink:title=" ">
<path fill="none" stroke="#63b8ff" d="M89.2033,-291.1371C109.8285,-259.8266 134.4946,-222.3816 156.1819,-189.4588"/>
<polygon fill="none" stroke="#63b8ff" points="156.2077,-189.4195 156.168,-182.2085 162.809,-179.3984 162.8488,-186.6094 156.2077,-189.4195"/>
</a>
</g>
<text text-anchor="start" x="130.5" y="-245" font-family="Helvetica,sans-Serif" font-size="10.00" fill="#c0c0c0">+service</text>
</g>
<!-- Node3 -->
<g id="Node000003" class="node">
<title>Node3</title>
<g id="a_Node000003"><a xlink:href="structPotrGlobalConfig.html" target="_top" xlink:title="グローバル設定。">
<polygon fill="#ffffff" stroke="transparent" points="226,-413.5 107,-413.5 107,-304.5 226,-304.5 226,-413.5"/>
<text text-anchor="start" x="130" y="-401" font-family="Helvetica,sans-Serif" font-size="10.00" fill="#000000">PotrGlobalConfig</text>
<text text-anchor="start" x="111.5" y="-386" font-family="Helvetica,sans-Serif" font-size="10.00" fill="#000000">+</text>
<text text-anchor="start" x="122.5" y="-386" font-family="Helvetica,sans-Serif" font-size="10.00" fill="#000000">retransmit_timeout_ms</text>
<text text-anchor="start" x="111.5" y="-371" font-family="Helvetica,sans-Serif" font-size="10.00" fill="#000000">+</text>
<text text-anchor="start" x="122.5" y="-371" font-family="Helvetica,sans-Serif" font-size="10.00" fill="#000000">window_size</text>
<text text-anchor="start" x="111.5" y="-356" font-family="Helvetica,sans-Serif" font-size="10.00" fill="#000000">+</text>
<text text-anchor="start" x="122.5" y="-356" font-family="Helvetica,sans-Serif" font-size="10.00" fill="#000000">max_payload</text>
<text text-anchor="start" x="111.5" y="-341" font-family="Helvetica,sans-Serif" font-size="10.00" fill="#000000">+</text>
<text text-anchor="start" x="122.5" y="-341" font-family="Helvetica,sans-Serif" font-size="10.00" fill="#000000">retransmit_count</text>
<text text-anchor="start" x="111.5" y="-326" font-family="Helvetica,sans-Serif" font-size="10.00" fill="#000000">+</text>
<text text-anchor="start" x="122.5" y="-326" font-family="Helvetica,sans-Serif" font-size="10.00" fill="#000000">_pad</text>
<text text-anchor="start" x="165" y="-311" font-family="Helvetica,sans-Serif" font-size="10.00" fill="#000000"> </text>
<polygon fill="#666666" stroke="#666666" points="107.5,-396 107.5,-396 226.5,-396 226.5,-396 107.5,-396"/>
<polygon fill="#666666" stroke="#666666" points="107.5,-321 107.5,-321 120.5,-321 120.5,-321 107.5,-321"/>
<polygon fill="#666666" stroke="#666666" points="120.5,-321 120.5,-321 226.5,-321 226.5,-321 120.5,-321"/>
<polygon fill="none" stroke="#666666" points="107,-304.5 107,-413.5 226,-413.5 226,-304.5 107,-304.5"/>
</a>
</g>
</g>
<!-- Node3&#45;&gt;Node1 -->
<g id="edge2_Node000001_Node000003" class="edge">
<title>Node3&#45;&gt;Node1</title>
<g id="a_edge2_Node000001_Node000003"><a xlink:title=" ">
<path fill="none" stroke="#63b8ff" d="M176.0473,-304.3198C180.0654,-281.3072 184.9098,-253.562 189.68,-226.2417"/>
<polygon fill="none" stroke="#63b8ff" points="189.7259,-225.9787 186.8175,-219.3801 191.7899,-214.1576 194.6983,-220.7562 189.7259,-225.9787"/>
</a>
</g>
<text text-anchor="start" x="191.5" y="-245" font-family="Helvetica,sans-Serif" font-size="10.00" fill="#c0c0c0">+global</text>
</g>
<!-- Node4 -->
<g id="Node000004" class="node">
<title>Node4</title>
<g id="a_Node000004"><a xlink:href="structPotrWindow.html" target="_top" xlink:title="スライディングウィンドウ管理構造体。">
<polygon fill="#ffffff" stroke="transparent" points="318.5,-413.5 244.5,-413.5 244.5,-304.5 318.5,-304.5 318.5,-413.5"/>
<text text-anchor="start" x="255.5" y="-401" font-family="Helvetica,sans-Serif" font-size="10.00" fill="#000000">PotrWindow</text>
<text text-anchor="start" x="248.5" y="-386" font-family="Helvetica,sans-Serif" font-size="10.00" fill="#000000">+</text>
<text text-anchor="start" x="259.5" y="-386" font-family="Helvetica,sans-Serif" font-size="10.00" fill="#000000">valid</text>
<text text-anchor="start" x="248.5" y="-371" font-family="Helvetica,sans-Serif" font-size="10.00" fill="#000000">+</text>
<text text-anchor="start" x="259.5" y="-371" font-family="Helvetica,sans-Serif" font-size="10.00" fill="#000000">base_seq</text>
<text text-anchor="start" x="248.5" y="-356" font-family="Helvetica,sans-Serif" font-size="10.00" fill="#000000">+</text>
<text text-anchor="start" x="259.5" y="-356" font-family="Helvetica,sans-Serif" font-size="10.00" fill="#000000">next_seq</text>
<text text-anchor="start" x="248.5" y="-341" font-family="Helvetica,sans-Serif" font-size="10.00" fill="#000000">+</text>
<text text-anchor="start" x="259.5" y="-341" font-family="Helvetica,sans-Serif" font-size="10.00" fill="#000000">window_size</text>
<text text-anchor="start" x="248.5" y="-326" font-family="Helvetica,sans-Serif" font-size="10.00" fill="#000000">+</text>
<text text-anchor="start" x="259.5" y="-326" font-family="Helvetica,sans-Serif" font-size="10.00" fill="#000000">_pad</text>
<text text-anchor="start" x="279.5" y="-311" font-family="Helvetica,sans-Serif" font-size="10.00" fill="#000000"> </text>
<polygon fill="#666666" stroke="#666666" points="244.5,-396 244.5,-396 318.5,-396 318.5,-396 244.5,-396"/>
<polygon fill="#666666" stroke="#666666" points="244.5,-321 244.5,-321 257.5,-321 257.5,-321 244.5,-321"/>
<polygon fill="#666666" stroke="#666666" points="257.5,-321 257.5,-321 318.5,-321 318.5,-321 257.5,-321"/>
<polygon fill="none" stroke="#666666" points="244.5,-304.5 244.5,-413.5 318.5,-413.5 318.5,-304.5 244.5,-304.5"/>
</a>
</g>
</g>
<!-- Node4&#45;&gt;Node1 -->
<g id="edge3_Node000001_Node000004" class="edge">
<title>Node4&#45;&gt;Node1</title>
<g id="a_edge3_Node000001_Node000004"><a xlink:title=" ">
<path fill="none" stroke="#63b8ff" d="M266.0941,-304.3198C259.5813,-281.204 251.7231,-253.313 243.9923,-225.8742"/>
<polygon fill="none" stroke="#63b8ff" points="243.9455,-225.7079 238.4683,-221.0175 240.6912,-214.1576 246.1685,-218.848 243.9455,-225.7079"/>
</a>
</g>
<text text-anchor="start" x="257.5" y="-253" font-family="Helvetica,sans-Serif" font-size="10.00" fill="#c0c0c0">+recv_window</text>
<text text-anchor="start" x="257.5" y="-238" font-family="Helvetica,sans-Serif" font-size="10.00" fill="#c0c0c0">+send_window</text>
</g>
<!-- Node5 -->
<g id="Node000005" class="node">
<title>Node5</title>
<g id="a_Node000005"><a xlink:href="structPotrPacket.html" target="_top" xlink:title="ネットワーク送受信用パケット構造体。">
<polygon fill="#ffffff" stroke="transparent" points="317,-598 246,-598 246,-489 317,-489 317,-598"/>
<text text-anchor="start" x="257.5" y="-585.5" font-family="Helvetica,sans-Serif" font-size="10.00" fill="#000000">PotrPacket</text>
<text text-anchor="start" x="250.5" y="-570.5" font-family="Helvetica,sans-Serif" font-size="10.00" fill="#000000">+</text>
<text text-anchor="start" x="261.5" y="-570.5" font-family="Helvetica,sans-Serif" font-size="10.00" fill="#000000">seq_num</text>
<text text-anchor="start" x="250.5" y="-555.5" font-family="Helvetica,sans-Serif" font-size="10.00" fill="#000000">+</text>
<text text-anchor="start" x="261.5" y="-555.5" font-family="Helvetica,sans-Serif" font-size="10.00" fill="#000000">ack_num</text>
<text text-anchor="start" x="250.5" y="-540.5" font-family="Helvetica,sans-Serif" font-size="10.00" fill="#000000">+</text>
<text text-anchor="start" x="261.5" y="-540.5" font-family="Helvetica,sans-Serif" font-size="10.00" fill="#000000">flags</text>
<text text-anchor="start" x="250.5" y="-525.5" font-family="Helvetica,sans-Serif" font-size="10.00" fill="#000000">+</text>
<text text-anchor="start" x="261.5" y="-525.5" font-family="Helvetica,sans-Serif" font-size="10.00" fill="#000000">payload_len</text>
<text text-anchor="start" x="250.5" y="-510.5" font-family="Helvetica,sans-Serif" font-size="10.00" fill="#000000">+</text>
<text text-anchor="start" x="261.5" y="-510.5" font-family="Helvetica,sans-Serif" font-size="10.00" fill="#000000">payload</text>
<text text-anchor="start" x="280" y="-495.5" font-family="Helvetica,sans-Serif" font-size="10.00" fill="#000000"> </text>
<polygon fill="#666666" stroke="#666666" points="246.5,-580.5 246.5,-580.5 317.5,-580.5 317.5,-580.5 246.5,-580.5"/>
<polygon fill="#666666" stroke="#666666" points="246.5,-505.5 246.5,-505.5 259.5,-505.5 259.5,-505.5 246.5,-505.5"/>
<polygon fill="#666666" stroke="#666666" points="259.5,-505.5 259.5,-505.5 317.5,-505.5 317.5,-505.5 259.5,-505.5"/>
<polygon fill="none" stroke="#666666" points="246,-489 246,-598 317,-598 317,-489 246,-489"/>
</a>
</g>
</g>
<!-- Node5&#45;&gt;Node4 -->
<g id="edge4_Node000004_Node000005" class="edge">
<title>Node5&#45;&gt;Node4</title>
<g id="a_edge4_Node000004_Node000005"><a xlink:title=" ">
<path fill="none" stroke="#63b8ff" d="M281.5,-488.6434C281.5,-468.9347 281.5,-446.485 281.5,-425.869"/>
<polygon fill="none" stroke="#63b8ff" points="281.5001,-425.6452 277.5,-419.6452 281.5,-413.6452 285.5,-419.6452 281.5001,-425.6452"/>
</a>
</g>
<text text-anchor="start" x="285" y="-459.5" font-family="Helvetica,sans-Serif" font-size="10.00" fill="#c0c0c0">+packets</text>
</g>
<!-- Node6 -->
<g id="Node000006" class="node">
<title>Node6</title>
<g id="a_Node000006"><a xlink:href="structPotrRetransmit.html" target="_top" xlink:title="再送制御管理構造体。">
<polygon fill="#ffffff" stroke="transparent" points="413.5,-398.5 337.5,-398.5 337.5,-319.5 413.5,-319.5 413.5,-398.5"/>
<text text-anchor="start" x="342.5" y="-386" font-family="Helvetica,sans-Serif" font-size="10.00" fill="#000000">PotrRetransmit</text>
<text text-anchor="start" x="342.5" y="-371" font-family="Helvetica,sans-Serif" font-size="10.00" fill="#000000">+</text>
<text text-anchor="start" x="354.5" y="-371" font-family="Helvetica,sans-Serif" font-size="10.00" fill="#000000">timeout_ms</text>
<text text-anchor="start" x="342.5" y="-356" font-family="Helvetica,sans-Serif" font-size="10.00" fill="#000000">+</text>
<text text-anchor="start" x="354.5" y="-356" font-family="Helvetica,sans-Serif" font-size="10.00" fill="#000000">max_retry</text>
<text text-anchor="start" x="342.5" y="-341" font-family="Helvetica,sans-Serif" font-size="10.00" fill="#000000">+</text>
<text text-anchor="start" x="354.5" y="-341" font-family="Helvetica,sans-Serif" font-size="10.00" fill="#000000">_pad</text>
<text text-anchor="start" x="373.5" y="-326" font-family="Helvetica,sans-Serif" font-size="10.00" fill="#000000"> </text>
<polygon fill="#666666" stroke="#666666" points="337.5,-381 337.5,-381 413.5,-381 413.5,-381 337.5,-381"/>
<polygon fill="#666666" stroke="#666666" points="337.5,-336 337.5,-336 352.5,-336 352.5,-336 337.5,-336"/>
<polygon fill="#666666" stroke="#666666" points="352.5,-336 352.5,-336 413.5,-336 413.5,-336 352.5,-336"/>
<polygon fill="none" stroke="#666666" points="337.5,-319.5 337.5,-398.5 413.5,-398.5 413.5,-319.5 337.5,-319.5"/>
</a>
</g>
</g>
<!-- Node6&#45;&gt;Node1 -->
<g id="edge5_Node000001_Node000006" class="edge">
<title>Node6&#45;&gt;Node1</title>
<g id="a_edge5_Node000001_Node000006"><a xlink:title=" ">
<path fill="none" stroke="#63b8ff" d="M365.3157,-319.3524C357.5733,-293.3105 345.3626,-259.1656 328.5,-232 311.6927,-204.9234 288.3749,-178.6857 266.9026,-157.2984"/>
<polygon fill="none" stroke="#63b8ff" points="266.7347,-157.1342 259.6482,-155.7998 258.1544,-148.745 265.241,-150.0795 266.7347,-157.1342"/>
</a>
</g>
<text text-anchor="start" x="347.5" y="-245" font-family="Helvetica,sans-Serif" font-size="10.00" fill="#c0c0c0">+retransmit</text>
</g>
<!-- Node7 -->
<g id="Node000007" class="node">
<title>Node7</title>
<g id="a_Node000007"><a xlink:href="structRetransmitEntry.html" target="_top" xlink:title="再送制御エントリ。">
<polygon fill="#ffffff" stroke="transparent" points="418,-598 335,-598 335,-489 418,-489 418,-598"/>
<text text-anchor="start" x="341.5" y="-585.5" font-family="Helvetica,sans-Serif" font-size="10.00" fill="#000000">RetransmitEntry</text>
<text text-anchor="start" x="339.5" y="-570.5" font-family="Helvetica,sans-Serif" font-size="10.00" fill="#000000">+</text>
<text text-anchor="start" x="350.5" y="-570.5" font-family="Helvetica,sans-Serif" font-size="10.00" fill="#000000">seq_num</text>
<text text-anchor="start" x="339.5" y="-555.5" font-family="Helvetica,sans-Serif" font-size="10.00" fill="#000000">+</text>
<text text-anchor="start" x="350.5" y="-555.5" font-family="Helvetica,sans-Serif" font-size="10.00" fill="#000000">send_time_ms</text>
<text text-anchor="start" x="339.5" y="-540.5" font-family="Helvetica,sans-Serif" font-size="10.00" fill="#000000">+</text>
<text text-anchor="start" x="350.5" y="-540.5" font-family="Helvetica,sans-Serif" font-size="10.00" fill="#000000">retry_count</text>
<text text-anchor="start" x="339.5" y="-525.5" font-family="Helvetica,sans-Serif" font-size="10.00" fill="#000000">+</text>
<text text-anchor="start" x="350.5" y="-525.5" font-family="Helvetica,sans-Serif" font-size="10.00" fill="#000000">active</text>
<text text-anchor="start" x="339.5" y="-510.5" font-family="Helvetica,sans-Serif" font-size="10.00" fill="#000000">+</text>
<text text-anchor="start" x="350.5" y="-510.5" font-family="Helvetica,sans-Serif" font-size="10.00" fill="#000000">_pad</text>
<text text-anchor="start" x="375" y="-495.5" font-family="Helvetica,sans-Serif" font-size="10.00" fill="#000000"> </text>
<polygon fill="#666666" stroke="#666666" points="335.5,-580.5 335.5,-580.5 418.5,-580.5 418.5,-580.5 335.5,-580.5"/>
<polygon fill="#666666" stroke="#666666" points="335.5,-505.5 335.5,-505.5 348.5,-505.5 348.5,-505.5 335.5,-505.5"/>
<polygon fill="#666666" stroke="#666666" points="348.5,-505.5 348.5,-505.5 418.5,-505.5 418.5,-505.5 348.5,-505.5"/>
<polygon fill="none" stroke="#666666" points="335,-489 335,-598 418,-598 418,-489 335,-489"/>
</a>
</g>
</g>
<!-- Node7&#45;&gt;Node6 -->
<g id="edge6_Node000006_Node000007" class="edge">
<title>Node7&#45;&gt;Node6</title>
<g id="a_edge6_Node000006_Node000007"><a xlink:title=" ">
<path fill="none" stroke="#63b8ff" d="M376.2027,-488.6434C376.0693,-464.0398 375.9128,-435.1645 375.7814,-410.9178"/>
<polygon fill="none" stroke="#63b8ff" points="375.7804,-410.7072 371.7478,-404.729 375.7152,-398.7074 379.7477,-404.6856 375.7804,-410.7072"/>
</a>
</g>
<text text-anchor="start" x="378.5" y="-459.5" font-family="Helvetica,sans-Serif" font-size="10.00" fill="#c0c0c0">+entries</text>
</g>
</g>
</svg>
