<?xml version="1.0" encoding="UTF-8" standalone="no"?>
<!DOCTYPE svg PUBLIC "-//W3C//DTD SVG 1.1//EN"
 "http://www.w3.org/Graphics/SVG/1.1/DTD/svg11.dtd">
<!-- Generated by graphviz version 2.40.1 (0)
 -->
<!-- Title: PotrRetransmit Pages: 1 -->
<svg width="92pt" height="249pt"
 viewBox="0.00 0.00 91.50 249.00" xmlns="http://www.w3.org/2000/svg" xmlns:xlink="http://www.w3.org/1999/xlink">
<g id="graph0" class="graph" transform="scale(1 1) rotate(0) translate(4 245)">
<title>PotrRetransmit</title>
<!-- Node1 -->
<g id="Node000001" class="node">
<title>Node1</title>
<g id="a_Node000001"><a xlink:title="再送制御管理構造体。">
<polygon fill="#999999" stroke="transparent" points="79.5,-79 3.5,-79 3.5,0 79.5,0 79.5,-79"/>
<text text-anchor="start" x="8.5" y="-66.5" font-family="Helvetica,sans-Serif" font-size="10.00" fill="#000000">PotrRetransmit</text>
<text text-anchor="start" x="8.5" y="-51.5" font-family="Helvetica,sans-Serif" font-size="10.00" fill="#000000">+</text>
<text text-anchor="start" x="20.5" y="-51.5" font-family="Helvetica,sans-Serif" font-size="10.00" fill="#000000">timeout_ms</text>
<text text-anchor="start" x="8.5" y="-36.5" font-family="Helvetica,sans-Serif" font-size="10.00" fill="#000000">+</text>
<text text-anchor="start" x="20.5" y="-36.5" font-family="Helvetica,sans-Serif" font-size="10.00" fill="#000000">max_retry</text>
<text text-anchor="start" x="8.5" y="-21.5" font-family="Helvetica,sans-Serif" font-size="10.00" fill="#000000">+</text>
<text text-anchor="start" x="20.5" y="-21.5" font-family="Helvetica,sans-Serif" font-size="10.00" fill="#000000">_pad</text>
<text text-anchor="start" x="39.5" y="-6.5" font-family="Helvetica,sans-Serif" font-size="10.00" fill="#000000"> </text>
<polygon fill="#666666" stroke="#666666" points="3.5,-61.5 3.5,-61.5 79.5,-61.5 79.5,-61.5 3.5,-61.5"/>
<polygon fill="#666666" stroke="#666666" points="3.5,-16.5 3.5,-16.5 18.5,-16.5 18.5,-16.5 3.5,-16.5"/>
<polygon fill="#666666" stroke="#666666" points="18.5,-16.5 18.5,-16.5 79.5,-16.5 79.5,-16.5 18.5,-16.5"/>
<polygon fill="none" stroke="#666666" points="3.5,0 3.5,-79 79.5,-79 79.5,0 3.5,0"/>
</a>
</g>
</g>
<!-- Node2 -->
<g id="Node000002" class="node">
<title>Node2</title>
<g id="a_Node000002"><a xlink:href="structRetransmitEntry.html" target="_top" xlink:title="再送制御エントリ。">
<polygon fill="#ffffff" stroke="transparent" points="83,-241 0,-241 0,-132 83,-132 83,-241"/>
<text text-anchor="start" x="6.5" y="-228.5" font-family="Helvetica,sans-Serif" font-size="10.00" fill="#000000">RetransmitEntry</text>
<text text-anchor="start" x="4.5" y="-213.5" font-family="Helvetica,sans-Serif" font-size="10.00" fill="#000000">+</text>
<text text-anchor="start" x="15.5" y="-213.5" font-family="Helvetica,sans-Serif" font-size="10.00" fill="#000000">seq_num</text>
<text text-anchor="start" x="4.5" y="-198.5" font-family="Helvetica,sans-Serif" font-size="10.00" fill="#000000">+</text>
<text text-anchor="start" x="15.5" y="-198.5" font-family="Helvetica,sans-Serif" font-size="10.00" fill="#000000">send_time_ms</text>
<text text-anchor="start" x="4.5" y="-183.5" font-family="Helvetica,sans-Serif" font-size="10.00" fill="#000000">+</text>
<text text-anchor="start" x="15.5" y="-183.5" font-family="Helvetica,sans-Serif" font-size="10.00" fill="#000000">retry_count</text>
<text text-anchor="start" x="4.5" y="-168.5" font-family="Helvetica,sans-Serif" font-size="10.00" fill="#000000">+</text>
<text text-anchor="start" x="15.5" y="-168.5" font-family="Helvetica,sans-Serif" font-size="10.00" fill="#000000">active</text>
<text text-anchor="start" x="4.5" y="-153.5" font-family="Helvetica,sans-Serif" font-size="10.00" fill="#000000">+</text>
<text text-anchor="start" x="15.5" y="-153.5" font-family="Helvetica,sans-Serif" font-size="10.00" fill="#000000">_pad</text>
<text text-anchor="start" x="40" y="-138.5" font-family="Helvetica,sans-Serif" font-size="10.00" fill="#000000"> </text>
<polygon fill="#666666" stroke="#666666" points=".5,-223.5 .5,-223.5 83.5,-223.5 83.5,-223.5 .5,-223.5"/>
<polygon fill="#666666" stroke="#666666" points=".5,-148.5 .5,-148.5 13.5,-148.5 13.5,-148.5 .5,-148.5"/>
<polygon fill="#666666" stroke="#666666" points="13.5,-148.5 13.5,-148.5 83.5,-148.5 83.5,-148.5 13.5,-148.5"/>
<polygon fill="none" stroke="#666666" points="0,-132 0,-241 83,-241 83,-132 0,-132"/>
</a>
</g>
</g>
<!-- Node2&#45;&gt;Node1 -->
<g id="edge1_Node000001_Node000002" class="edge">
<title>Node2&#45;&gt;Node1</title>
<g id="a_edge1_Node000001_Node000002"><a xlink:title=" ">
<path fill="none" stroke="#63b8ff" d="M41.5,-131.7626C41.5,-118.5247 41.5,-104.4164 41.5,-91.3174"/>
<polygon fill="none" stroke="#63b8ff" points="41.5001,-91.129 37.5,-85.129 41.5,-79.129 45.5,-85.129 41.5001,-91.129"/>
</a>
</g>
<text text-anchor="start" x="44.5" y="-102.5" font-family="Helvetica,sans-Serif" font-size="10.00" fill="#c0c0c0">+entries</text>
</g>
</g>
</svg>
