<?xml version="1.0" encoding="UTF-8" standalone="no"?>
<!DOCTYPE svg PUBLIC "-//W3C//DTD SVG 1.1//EN"
 "http://www.w3.org/Graphics/SVG/1.1/DTD/svg11.dtd">
<!-- Generated by graphviz version 2.40.1 (0)
 -->
<!-- Title: PotrSendQueue Pages: 1 -->
<svg width="94pt" height="339pt"
 viewBox="0.00 0.00 94.00 339.00" xmlns="http://www.w3.org/2000/svg" xmlns:xlink="http://www.w3.org/1999/xlink">
<g id="graph0" class="graph" transform="scale(1 1) rotate(0) translate(4 335)">
<title>PotrSendQueue</title>
<!-- Node1 -->
<g id="Node000001" class="node">
<title>Node1</title>
<g id="a_Node000001"><a xlink:title="非同期送信キュー。">
<polygon fill="#999999" stroke="transparent" points="83,-184 3,-184 3,0 83,0 83,-184"/>
<text text-anchor="start" x="8" y="-172" font-family="Helvetica,sans-Serif" font-size="10.00" fill="#000000">PotrSendQueue</text>
<text text-anchor="start" x="7.5" y="-157" font-family="Helvetica,sans-Serif" font-size="10.00" fill="#000000">+</text>
<text text-anchor="start" x="19" y="-157" font-family="Helvetica,sans-Serif" font-size="10.00" fill="#000000">payload_pool</text>
<text text-anchor="start" x="7.5" y="-142" font-family="Helvetica,sans-Serif" font-size="10.00" fill="#000000">+</text>
<text text-anchor="start" x="19" y="-142" font-family="Helvetica,sans-Serif" font-size="10.00" fill="#000000">depth</text>
<text text-anchor="start" x="7.5" y="-127" font-family="Helvetica,sans-Serif" font-size="10.00" fill="#000000">+</text>
<text text-anchor="start" x="19" y="-127" font-family="Helvetica,sans-Serif" font-size="10.00" fill="#000000">head</text>
<text text-anchor="start" x="7.5" y="-112" font-family="Helvetica,sans-Serif" font-size="10.00" fill="#000000">+</text>
<text text-anchor="start" x="19" y="-112" font-family="Helvetica,sans-Serif" font-size="10.00" fill="#000000">tail</text>
<text text-anchor="start" x="7.5" y="-97" font-family="Helvetica,sans-Serif" font-size="10.00" fill="#000000">+</text>
<text text-anchor="start" x="19" y="-97" font-family="Helvetica,sans-Serif" font-size="10.00" fill="#000000">count</text>
<text text-anchor="start" x="7.5" y="-82" font-family="Helvetica,sans-Serif" font-size="10.00" fill="#000000">+</text>
<text text-anchor="start" x="19" y="-82" font-family="Helvetica,sans-Serif" font-size="10.00" fill="#000000">inflight</text>
<text text-anchor="start" x="7.5" y="-67" font-family="Helvetica,sans-Serif" font-size="10.00" fill="#000000">+</text>
<text text-anchor="start" x="19" y="-67" font-family="Helvetica,sans-Serif" font-size="10.00" fill="#000000">mutex</text>
<text text-anchor="start" x="7.5" y="-52" font-family="Helvetica,sans-Serif" font-size="10.00" fill="#000000">+</text>
<text text-anchor="start" x="19" y="-52" font-family="Helvetica,sans-Serif" font-size="10.00" fill="#000000">not_empty</text>
<text text-anchor="start" x="7.5" y="-37" font-family="Helvetica,sans-Serif" font-size="10.00" fill="#000000">+</text>
<text text-anchor="start" x="19" y="-37" font-family="Helvetica,sans-Serif" font-size="10.00" fill="#000000">not_full</text>
<text text-anchor="start" x="7.5" y="-22" font-family="Helvetica,sans-Serif" font-size="10.00" fill="#000000">+</text>
<text text-anchor="start" x="19" y="-22" font-family="Helvetica,sans-Serif" font-size="10.00" fill="#000000">drained</text>
<text text-anchor="start" x="41" y="-7" font-family="Helvetica,sans-Serif" font-size="10.00" fill="#000000"> </text>
<polygon fill="#666666" stroke="#666666" points="3,-167 3,-167 83,-167 83,-167 3,-167"/>
<polygon fill="#666666" stroke="#666666" points="3,-17 3,-17 17,-17 17,-17 3,-17"/>
<polygon fill="#666666" stroke="#666666" points="17,-17 17,-17 83,-17 83,-17 17,-17"/>
<polygon fill="none" stroke="#666666" points="3,0 3,-184 83,-184 83,0 3,0"/>
</a>
</g>
</g>
<!-- Node2 -->
<g id="Node000002" class="node">
<title>Node2</title>
<g id="a_Node000002"><a xlink:href="structPotrPayloadElem.html" target="_top" xlink:title="送信キューの 1 エントリ。ペイロードエレメント 1 個分のデータを保持する。">
<polygon fill="#ffffff" stroke="transparent" points="86,-331 0,-331 0,-237 86,-237 86,-331"/>
<text text-anchor="start" x="5" y="-319" font-family="Helvetica,sans-Serif" font-size="10.00" fill="#000000">PotrPayloadElem</text>
<text text-anchor="start" x="7.5" y="-304" font-family="Helvetica,sans-Serif" font-size="10.00" fill="#000000">+</text>
<text text-anchor="start" x="22" y="-304" font-family="Helvetica,sans-Serif" font-size="10.00" fill="#000000">flags</text>
<text text-anchor="start" x="7.5" y="-289" font-family="Helvetica,sans-Serif" font-size="10.00" fill="#000000">+</text>
<text text-anchor="start" x="22" y="-289" font-family="Helvetica,sans-Serif" font-size="10.00" fill="#000000">payload_len</text>
<text text-anchor="start" x="7.5" y="-274" font-family="Helvetica,sans-Serif" font-size="10.00" fill="#000000">+</text>
<text text-anchor="start" x="22" y="-274" font-family="Helvetica,sans-Serif" font-size="10.00" fill="#000000">_pad</text>
<text text-anchor="start" x="7.5" y="-259" font-family="Helvetica,sans-Serif" font-size="10.00" fill="#000000">+</text>
<text text-anchor="start" x="22" y="-259" font-family="Helvetica,sans-Serif" font-size="10.00" fill="#000000">payload</text>
<text text-anchor="start" x="41" y="-244" font-family="Helvetica,sans-Serif" font-size="10.00" fill="#000000"> </text>
<polygon fill="#666666" stroke="#666666" points="0,-314 0,-314 86,-314 86,-314 0,-314"/>
<polygon fill="#666666" stroke="#666666" points="0,-254 0,-254 20,-254 20,-254 0,-254"/>
<polygon fill="#666666" stroke="#666666" points="20,-254 20,-254 86,-254 86,-254 20,-254"/>
<polygon fill="none" stroke="#666666" points="0,-237 0,-331 86,-331 86,-237 0,-237"/>
</a>
</g>
</g>
<!-- Node2&#45;&gt;Node1 -->
<g id="edge1_Node000001_Node000002" class="edge">
<title>Node2&#45;&gt;Node1</title>
<g id="a_edge1_Node000001_Node000002"><a xlink:title=" ">
<path fill="none" stroke="#63b8ff" d="M43,-236.5393C43,-224.2572 43,-210.5366 43,-196.5722"/>
<polygon fill="none" stroke="#63b8ff" points="43.0001,-196.2677 39,-190.2677 43,-184.2677 47,-190.2676 43.0001,-196.2677"/>
</a>
</g>
<text text-anchor="start" x="46" y="-207.5" font-family="Helvetica,sans-Serif" font-size="10.00" fill="#c0c0c0">+entries</text>
</g>
</g>
</svg>
