<?xml version="1.0" encoding="UTF-8" standalone="no"?>
<!DOCTYPE svg PUBLIC "-//W3C//DTD SVG 1.1//EN"
 "http://www.w3.org/Graphics/SVG/1.1/DTD/svg11.dtd">
<!-- Generated by graphviz version 2.40.1 (0)
 -->
<!-- Title: PotrNackDedupEntry Pages: 1 -->
<svg width="110pt" height="87pt"
 viewBox="0.00 0.00 110.00 87.00" xmlns="http://www.w3.org/2000/svg" xmlns:xlink="http://www.w3.org/1999/xlink">
<g id="graph0" class="graph" transform="scale(1 1) rotate(0) translate(4 83)">
<title>PotrNackDedupEntry</title>
<!-- Node1 -->
<g id="Node000001" class="node">
<title>Node1</title>
<g id="a_Node000001"><a xlink:title="NACK 重複抑制バッファの 1 エントリ。">
<polygon fill="#999999" stroke="transparent" points="102,-79 0,-79 0,0 102,0 102,-79"/>
<text text-anchor="start" x="5" y="-66.5" font-family="Helvetica,sans-Serif" font-size="10.00" fill="#000000">PotrNackDedupEntry</text>
<text text-anchor="start" x="14.5" y="-51.5" font-family="Helvetica,sans-Serif" font-size="10.00" fill="#000000">+</text>
<text text-anchor="start" x="36" y="-51.5" font-family="Helvetica,sans-Serif" font-size="10.00" fill="#000000">ack_num</text>
<text text-anchor="start" x="14.5" y="-36.5" font-family="Helvetica,sans-Serif" font-size="10.00" fill="#000000">+</text>
<text text-anchor="start" x="36" y="-36.5" font-family="Helvetica,sans-Serif" font-size="10.00" fill="#000000">_pad</text>
<text text-anchor="start" x="14.5" y="-21.5" font-family="Helvetica,sans-Serif" font-size="10.00" fill="#000000">+</text>
<text text-anchor="start" x="36" y="-21.5" font-family="Helvetica,sans-Serif" font-size="10.00" fill="#000000">time_ms</text>
<text text-anchor="start" x="49" y="-6.5" font-family="Helvetica,sans-Serif" font-size="10.00" fill="#000000"> </text>
<polygon fill="#666666" stroke="#666666" points="0,-61.5 0,-61.5 102,-61.5 102,-61.5 0,-61.5"/>
<polygon fill="#666666" stroke="#666666" points="0,-16.5 0,-16.5 34,-16.5 34,-16.5 0,-16.5"/>
<polygon fill="#666666" stroke="#666666" points="34,-16.5 34,-16.5 102,-16.5 102,-16.5 34,-16.5"/>
<polygon fill="none" stroke="#666666" points="0,0 0,-79 102,-79 102,0 0,0"/>
</a>
</g>
</g>
</g>
</svg>
