<?xml version="1.0" encoding="UTF-8" standalone="no"?>
<!DOCTYPE svg PUBLIC "-//W3C//DTD SVG 1.1//EN"
 "http://www.w3.org/Graphics/SVG/1.1/DTD/svg11.dtd">
<!-- Generated by graphviz version 2.40.1 (0)
 -->
<!-- Title: PotrContext_ Pages: 1 -->
<!--zoomable 741 -->

<svg id="main" version="1.1" xmlns="http://www.w3.org/2000/svg" xmlns:xlink="http://www.w3.org/1999/xlink" xml:space="preserve" onload="init(evt)">

<style type="text/css"><![CDATA[
.node, .edge {opacity: 0.7;}
.node.selected, .edge.selected {opacity: 1;}
.edge:hover path { stroke: red; }
.edge:hover polygon { stroke: red; fill: red; }
]]></style>

<defs>
  <circle id="rim" cx="0" cy="0" r="7"/>
  <circle id="rim2" cx="0" cy="0" r="3.5"/>
  <g id="zoomPlus">
    <use xlink:href="#rim" fill="#404040"><set attributeName="fill" to="#808080" begin="zoomplus.mouseover" end="zoomplus.mouseout"/></use>
    <path d="M-4,0h8M0,-4v8" fill="none" stroke="white" stroke-width="1.5" pointer-events="none"/>
  </g>
  <g id="zoomMin">
    <use xlink:href="#rim" fill="#404040"><set attributeName="fill" to="#808080" begin="zoomminus.mouseover" end="zoomminus.mouseout"/></use>
    <path d="M-4,0h8" fill="none" stroke="white" stroke-width="1.5" pointer-events="none"/>
  </g>
  <g id="arrowUp" transform="translate(30 24)">
    <use xlink:href="#rim"/>
    <path pointer-events="none" fill="none" stroke="white" stroke-width="1.5" d="M0,-3.0v7 M-2.5,-0.5L0,-3.0L2.5,-0.5"/>
  </g>
  <g id="arrowRight" transform="rotate(90) translate(36 -43)">
    <use xlink:href="#rim"/>
    <path pointer-events="none" fill="none" stroke="white" stroke-width="1.5" d="M0,-3.0v7 M-2.5,-0.5L0,-3.0L2.5,-0.5"/>
  </g>
  <g id="arrowDown" transform="rotate(180) translate(-30 -48)">
    <use xlink:href="#rim"/>
    <path pointer-events="none" fill="none" stroke="white" stroke-width="1.5" d="M0,-3.0v7 M-2.5,-0.5L0,-3.0L2.5,-0.5"/>
  </g>
  <g id="arrowLeft" transform="rotate(270) translate(-36 17)">
    <use xlink:href="#rim"/>
    <path pointer-events="none" fill="none" stroke="white" stroke-width="1.5" d="M0,-3.0v7 M-2.5,-0.5L0,-3.0L2.5,-0.5"/>
  </g>
  <g id="resetDef">
    <use xlink:href="#rim2" fill="#404040"><set attributeName="fill" to="#808080" begin="reset.mouseover" end="reset.mouseout"/></use>
  </g>
</defs>
<script type="application/ecmascript">
var viewWidth = 541;
var viewHeight = 741;
var sectionId = 'dynsection-0';
</script>
<script type="application/ecmascript" xlink:href="svg.min.js"/>
<svg id="graph" class="graph">
<g id="viewport">
<title>PotrContext_</title>
<!-- Node1 -->
<g id="Node000001" class="node">
<title>Node1</title>
<g id="a_Node000001"><a xlink:title="セッションコンテキスト構造体。PotrHandle の実体。">
<polygon fill="#999999" stroke="transparent" points="327.5,-199 217.5,-199 217.5,0 327.5,0 327.5,-199"/>
<text text-anchor="start" x="243.5" y="-186.5" font-family="Helvetica,sans-Serif" font-size="10.00" fill="#000000">PotrContext_</text>
<text text-anchor="start" x="221.5" y="-171.5" font-family="Helvetica,sans-Serif" font-size="10.00" fill="#000000">+</text>
<text text-anchor="start" x="232.5" y="-171.5" font-family="Helvetica,sans-Serif" font-size="10.00" fill="#000000">callback</text>
<text text-anchor="start" x="221.5" y="-156.5" font-family="Helvetica,sans-Serif" font-size="10.00" fill="#000000">+</text>
<text text-anchor="start" x="232.5" y="-156.5" font-family="Helvetica,sans-Serif" font-size="10.00" fill="#000000">recv_thread</text>
<text text-anchor="start" x="221.5" y="-141.5" font-family="Helvetica,sans-Serif" font-size="10.00" fill="#000000">+</text>
<text text-anchor="start" x="232.5" y="-141.5" font-family="Helvetica,sans-Serif" font-size="10.00" fill="#000000">health_thread</text>
<text text-anchor="start" x="221.5" y="-126.5" font-family="Helvetica,sans-Serif" font-size="10.00" fill="#000000">+</text>
<text text-anchor="start" x="232.5" y="-126.5" font-family="Helvetica,sans-Serif" font-size="10.00" fill="#000000">health_mutex</text>
<text text-anchor="start" x="221.5" y="-111.5" font-family="Helvetica,sans-Serif" font-size="10.00" fill="#000000">+</text>
<text text-anchor="start" x="232.5" y="-111.5" font-family="Helvetica,sans-Serif" font-size="10.00" fill="#000000">health_wakeup</text>
<text text-anchor="start" x="221.5" y="-96.5" font-family="Helvetica,sans-Serif" font-size="10.00" fill="#000000">+</text>
<text text-anchor="start" x="232.5" y="-96.5" font-family="Helvetica,sans-Serif" font-size="10.00" fill="#000000">send_window_mutex</text>
<text text-anchor="start" x="221.5" y="-81.5" font-family="Helvetica,sans-Serif" font-size="10.00" fill="#000000">+</text>
<text text-anchor="start" x="232.5" y="-81.5" font-family="Helvetica,sans-Serif" font-size="10.00" fill="#000000">sock</text>
<text text-anchor="start" x="221.5" y="-66.5" font-family="Helvetica,sans-Serif" font-size="10.00" fill="#000000">+</text>
<text text-anchor="start" x="232.5" y="-66.5" font-family="Helvetica,sans-Serif" font-size="10.00" fill="#000000">n_path</text>
<text text-anchor="start" x="221.5" y="-51.5" font-family="Helvetica,sans-Serif" font-size="10.00" fill="#000000">+</text>
<text text-anchor="start" x="232.5" y="-51.5" font-family="Helvetica,sans-Serif" font-size="10.00" fill="#000000">running</text>
<text text-anchor="start" x="221.5" y="-36.5" font-family="Helvetica,sans-Serif" font-size="10.00" fill="#000000">+</text>
<text text-anchor="start" x="232.5" y="-36.5" font-family="Helvetica,sans-Serif" font-size="10.00" fill="#000000">health_running</text>
<text text-anchor="start" x="232.5" y="-21.5" font-family="Helvetica,sans-Serif" font-size="10.00" fill="#000000">and 34 more...</text>
<text text-anchor="start" x="270.5" y="-6.5" font-family="Helvetica,sans-Serif" font-size="10.00" fill="#000000"> </text>
<polygon fill="#666666" stroke="#666666" points="217.5,-181.5 217.5,-181.5 327.5,-181.5 327.5,-181.5 217.5,-181.5"/>
<polygon fill="#666666" stroke="#666666" points="217.5,-16.5 217.5,-16.5 230.5,-16.5 230.5,-16.5 217.5,-16.5"/>
<polygon fill="#666666" stroke="#666666" points="230.5,-16.5 230.5,-16.5 327.5,-16.5 327.5,-16.5 230.5,-16.5"/>
<polygon fill="none" stroke="#666666" points="217.5,0 217.5,-199 327.5,-199 327.5,0 217.5,0"/>
</a>
</g>
</g>
<!-- Node2 -->
<g id="Node000002" class="node">
<title>Node2</title>
<g id="a_Node000002"><a xlink:href="structPotrServiceDef.html" target="_top" xlink:title="サービス定義。">
<polygon fill="#ffffff" stroke="transparent" points="91,-511 0,-511 0,-267 91,-267 91,-511"/>
<text text-anchor="start" x="12.5" y="-499" font-family="Helvetica,sans-Serif" font-size="10.00" fill="#000000">PotrServiceDef</text>
<text text-anchor="start" x="4.5" y="-484" font-family="Helvetica,sans-Serif" font-size="10.00" fill="#000000">+</text>
<text text-anchor="start" x="15.5" y="-484" font-family="Helvetica,sans-Serif" font-size="10.00" fill="#000000">service_id</text>
<text text-anchor="start" x="4.5" y="-469" font-family="Helvetica,sans-Serif" font-size="10.00" fill="#000000">+</text>
<text text-anchor="start" x="15.5" y="-469" font-family="Helvetica,sans-Serif" font-size="10.00" fill="#000000">type</text>
<text text-anchor="start" x="4.5" y="-454" font-family="Helvetica,sans-Serif" font-size="10.00" fill="#000000">+</text>
<text text-anchor="start" x="15.5" y="-454" font-family="Helvetica,sans-Serif" font-size="10.00" fill="#000000">dst_port</text>
<text text-anchor="start" x="4.5" y="-439" font-family="Helvetica,sans-Serif" font-size="10.00" fill="#000000">+</text>
<text text-anchor="start" x="15.5" y="-439" font-family="Helvetica,sans-Serif" font-size="10.00" fill="#000000">src_port</text>
<text text-anchor="start" x="4.5" y="-424" font-family="Helvetica,sans-Serif" font-size="10.00" fill="#000000">+</text>
<text text-anchor="start" x="15.5" y="-424" font-family="Helvetica,sans-Serif" font-size="10.00" fill="#000000">ttl</text>
<text text-anchor="start" x="4.5" y="-409" font-family="Helvetica,sans-Serif" font-size="10.00" fill="#000000">+</text>
<text text-anchor="start" x="15.5" y="-409" font-family="Helvetica,sans-Serif" font-size="10.00" fill="#000000">_pad</text>
<text text-anchor="start" x="4.5" y="-394" font-family="Helvetica,sans-Serif" font-size="10.00" fill="#000000">+</text>
<text text-anchor="start" x="15.5" y="-394" font-family="Helvetica,sans-Serif" font-size="10.00" fill="#000000">pack_wait_ms</text>
<text text-anchor="start" x="4.5" y="-379" font-family="Helvetica,sans-Serif" font-size="10.00" fill="#000000">+</text>
<text text-anchor="start" x="15.5" y="-379" font-family="Helvetica,sans-Serif" font-size="10.00" fill="#000000">multicast_group</text>
<text text-anchor="start" x="4.5" y="-364" font-family="Helvetica,sans-Serif" font-size="10.00" fill="#000000">+</text>
<text text-anchor="start" x="15.5" y="-364" font-family="Helvetica,sans-Serif" font-size="10.00" fill="#000000">broadcast_addr</text>
<text text-anchor="start" x="4.5" y="-349" font-family="Helvetica,sans-Serif" font-size="10.00" fill="#000000">+</text>
<text text-anchor="start" x="15.5" y="-349" font-family="Helvetica,sans-Serif" font-size="10.00" fill="#000000">src_addr</text>
<text text-anchor="start" x="4.5" y="-334" font-family="Helvetica,sans-Serif" font-size="10.00" fill="#000000">+</text>
<text text-anchor="start" x="15.5" y="-334" font-family="Helvetica,sans-Serif" font-size="10.00" fill="#000000">dst_addr</text>
<text text-anchor="start" x="4.5" y="-319" font-family="Helvetica,sans-Serif" font-size="10.00" fill="#000000">+</text>
<text text-anchor="start" x="15.5" y="-319" font-family="Helvetica,sans-Serif" font-size="10.00" fill="#000000">encrypt_key</text>
<text text-anchor="start" x="4.5" y="-304" font-family="Helvetica,sans-Serif" font-size="10.00" fill="#000000">+</text>
<text text-anchor="start" x="15.5" y="-304" font-family="Helvetica,sans-Serif" font-size="10.00" fill="#000000">encrypt_enabled</text>
<text text-anchor="start" x="4.5" y="-289" font-family="Helvetica,sans-Serif" font-size="10.00" fill="#000000">+</text>
<text text-anchor="start" x="15.5" y="-289" font-family="Helvetica,sans-Serif" font-size="10.00" fill="#000000">_pad_encrypt</text>
<text text-anchor="start" x="44" y="-274" font-family="Helvetica,sans-Serif" font-size="10.00" fill="#000000"> </text>
<polygon fill="#666666" stroke="#666666" points=".5,-494 .5,-494 91.5,-494 91.5,-494 .5,-494"/>
<polygon fill="#666666" stroke="#666666" points=".5,-284 .5,-284 13.5,-284 13.5,-284 .5,-284"/>
<polygon fill="#666666" stroke="#666666" points="13.5,-284 13.5,-284 91.5,-284 91.5,-284 13.5,-284"/>
<polygon fill="none" stroke="#666666" points="0,-267 0,-511 91,-511 91,-267 0,-267"/>
</a>
</g>
</g>
<!-- Node2&#45;&gt;Node1 -->
<g id="edge1_Node000001_Node000002" class="edge">
<title>Node2&#45;&gt;Node1</title>
<g id="a_edge1_Node000001_Node000002"><a xlink:title=" ">
<path fill="none" stroke="#63b8ff" d="M91.0642,-280.0237C93.7712,-275.5413 96.5844,-271.1793 99.5,-267 129.8008,-223.5654 172.4757,-182.1018 207.8585,-151.2943"/>
<polygon fill="none" stroke="#63b8ff" points="208.0582,-151.1225 209.9982,-144.1773 217.1554,-143.2968 215.2154,-150.242 208.0582,-151.1225"/>
</a>
</g>
<text text-anchor="start" x="140.5" y="-230" font-family="Helvetica,sans-Serif" font-size="10.00" fill="#c0c0c0">+service</text>
</g>
<!-- Node3 -->
<g id="Node000003" class="node">
<title>Node3</title>
<g id="a_Node000003"><a xlink:href="structPotrGlobalConfig.html" target="_top" xlink:title="グローバル設定。">
<polygon fill="#ffffff" stroke="transparent" points="216,-451 109,-451 109,-327 216,-327 216,-451"/>
<text text-anchor="start" x="126" y="-439" font-family="Helvetica,sans-Serif" font-size="10.00" fill="#000000">PotrGlobalConfig</text>
<text text-anchor="start" x="113.5" y="-424" font-family="Helvetica,sans-Serif" font-size="10.00" fill="#000000">+</text>
<text text-anchor="start" x="124.5" y="-424" font-family="Helvetica,sans-Serif" font-size="10.00" fill="#000000">window_size</text>
<text text-anchor="start" x="113.5" y="-409" font-family="Helvetica,sans-Serif" font-size="10.00" fill="#000000">+</text>
<text text-anchor="start" x="124.5" y="-409" font-family="Helvetica,sans-Serif" font-size="10.00" fill="#000000">max_payload</text>
<text text-anchor="start" x="113.5" y="-394" font-family="Helvetica,sans-Serif" font-size="10.00" fill="#000000">+</text>
<text text-anchor="start" x="124.5" y="-394" font-family="Helvetica,sans-Serif" font-size="10.00" fill="#000000">health_interval_ms</text>
<text text-anchor="start" x="113.5" y="-379" font-family="Helvetica,sans-Serif" font-size="10.00" fill="#000000">+</text>
<text text-anchor="start" x="124.5" y="-379" font-family="Helvetica,sans-Serif" font-size="10.00" fill="#000000">health_timeout_ms</text>
<text text-anchor="start" x="113.5" y="-364" font-family="Helvetica,sans-Serif" font-size="10.00" fill="#000000">+</text>
<text text-anchor="start" x="124.5" y="-364" font-family="Helvetica,sans-Serif" font-size="10.00" fill="#000000">max_message_size</text>
<text text-anchor="start" x="113.5" y="-349" font-family="Helvetica,sans-Serif" font-size="10.00" fill="#000000">+</text>
<text text-anchor="start" x="124.5" y="-349" font-family="Helvetica,sans-Serif" font-size="10.00" fill="#000000">send_queue_depth</text>
<text text-anchor="start" x="161" y="-334" font-family="Helvetica,sans-Serif" font-size="10.00" fill="#000000"> </text>
<polygon fill="#666666" stroke="#666666" points="109.5,-434 109.5,-434 216.5,-434 216.5,-434 109.5,-434"/>
<polygon fill="#666666" stroke="#666666" points="109.5,-344 109.5,-344 122.5,-344 122.5,-344 109.5,-344"/>
<polygon fill="#666666" stroke="#666666" points="122.5,-344 122.5,-344 216.5,-344 216.5,-344 122.5,-344"/>
<polygon fill="none" stroke="#666666" points="109,-327 109,-451 216,-451 216,-327 109,-327"/>
</a>
</g>
</g>
<!-- Node3&#45;&gt;Node1 -->
<g id="edge2_Node000001_Node000003" class="edge">
<title>Node3&#45;&gt;Node1</title>
<g id="a_edge2_Node000001_Node000003"><a xlink:title=" ">
<path fill="none" stroke="#63b8ff" d="M186.0978,-326.895C198.9956,-292.9501 215.3584,-249.8863 230.3669,-210.3867"/>
<polygon fill="none" stroke="#63b8ff" points="230.4011,-210.2964 228.7931,-203.2668 234.6635,-199.0788 236.2715,-206.1084 230.4011,-210.2964"/>
</a>
</g>
<text text-anchor="start" x="230.5" y="-230" font-family="Helvetica,sans-Serif" font-size="10.00" fill="#c0c0c0">+global</text>
</g>
<!-- Node4 -->
<g id="Node000004" class="node">
<title>Node4</title>
<g id="a_Node000004"><a xlink:href="structPotrWindow.html" target="_top" xlink:title="スライディングウィンドウ管理構造体。">
<polygon fill="#ffffff" stroke="transparent" points="311,-458.5 234,-458.5 234,-319.5 311,-319.5 311,-458.5"/>
<text text-anchor="start" x="247" y="-446" font-family="Helvetica,sans-Serif" font-size="10.00" fill="#000000">PotrWindow</text>
<text text-anchor="start" x="238.5" y="-431" font-family="Helvetica,sans-Serif" font-size="10.00" fill="#000000">+</text>
<text text-anchor="start" x="249.5" y="-431" font-family="Helvetica,sans-Serif" font-size="10.00" fill="#000000">valid</text>
<text text-anchor="start" x="238.5" y="-416" font-family="Helvetica,sans-Serif" font-size="10.00" fill="#000000">+</text>
<text text-anchor="start" x="249.5" y="-416" font-family="Helvetica,sans-Serif" font-size="10.00" fill="#000000">payload_pool</text>
<text text-anchor="start" x="238.5" y="-401" font-family="Helvetica,sans-Serif" font-size="10.00" fill="#000000">+</text>
<text text-anchor="start" x="249.5" y="-401" font-family="Helvetica,sans-Serif" font-size="10.00" fill="#000000">base_seq</text>
<text text-anchor="start" x="238.5" y="-386" font-family="Helvetica,sans-Serif" font-size="10.00" fill="#000000">+</text>
<text text-anchor="start" x="249.5" y="-386" font-family="Helvetica,sans-Serif" font-size="10.00" fill="#000000">next_seq</text>
<text text-anchor="start" x="238.5" y="-371" font-family="Helvetica,sans-Serif" font-size="10.00" fill="#000000">+</text>
<text text-anchor="start" x="249.5" y="-371" font-family="Helvetica,sans-Serif" font-size="10.00" fill="#000000">window_size</text>
<text text-anchor="start" x="238.5" y="-356" font-family="Helvetica,sans-Serif" font-size="10.00" fill="#000000">+</text>
<text text-anchor="start" x="249.5" y="-356" font-family="Helvetica,sans-Serif" font-size="10.00" fill="#000000">max_payload</text>
<text text-anchor="start" x="238.5" y="-341" font-family="Helvetica,sans-Serif" font-size="10.00" fill="#000000">+</text>
<text text-anchor="start" x="249.5" y="-341" font-family="Helvetica,sans-Serif" font-size="10.00" fill="#000000">_pad</text>
<text text-anchor="start" x="271" y="-326" font-family="Helvetica,sans-Serif" font-size="10.00" fill="#000000"> </text>
<polygon fill="#666666" stroke="#666666" points="234.5,-441 234.5,-441 311.5,-441 311.5,-441 234.5,-441"/>
<polygon fill="#666666" stroke="#666666" points="234.5,-336 234.5,-336 247.5,-336 247.5,-336 234.5,-336"/>
<polygon fill="#666666" stroke="#666666" points="247.5,-336 247.5,-336 311.5,-336 311.5,-336 247.5,-336"/>
<polygon fill="none" stroke="#666666" points="234,-319.5 234,-458.5 311,-458.5 311,-319.5 234,-319.5"/>
</a>
</g>
</g>
<!-- Node4&#45;&gt;Node1 -->
<g id="edge3_Node000001_Node000004" class="edge">
<title>Node4&#45;&gt;Node1</title>
<g id="a_edge3_Node000001_Node000004"><a xlink:title=" ">
<path fill="none" stroke="#63b8ff" d="M272.5,-319.2891C272.5,-286.9708 272.5,-247.7545 272.5,-211.445"/>
<polygon fill="none" stroke="#63b8ff" points="272.5001,-211.2569 268.5,-205.2569 272.5,-199.2569 276.5,-205.2569 272.5001,-211.2569"/>
</a>
</g>
<text text-anchor="start" x="275.5" y="-238" font-family="Helvetica,sans-Serif" font-size="10.00" fill="#c0c0c0">+recv_window</text>
<text text-anchor="start" x="275.5" y="-223" font-family="Helvetica,sans-Serif" font-size="10.00" fill="#c0c0c0">+send_window</text>
</g>
<!-- Node5 -->
<g id="Node000005" class="node">
<title>Node5</title>
<g id="a_Node000005"><a xlink:href="structPotrPacket.html" target="_top" xlink:title="ネットワーク送受信用パケット構造体。">
<polygon fill="#ffffff" stroke="transparent" points="319,-733 226,-733 226,-564 319,-564 319,-733"/>
<text text-anchor="start" x="248.5" y="-720.5" font-family="Helvetica,sans-Serif" font-size="10.00" fill="#000000">PotrPacket</text>
<text text-anchor="start" x="230.5" y="-705.5" font-family="Helvetica,sans-Serif" font-size="10.00" fill="#000000">+</text>
<text text-anchor="start" x="241.5" y="-705.5" font-family="Helvetica,sans-Serif" font-size="10.00" fill="#000000">service_id</text>
<text text-anchor="start" x="230.5" y="-690.5" font-family="Helvetica,sans-Serif" font-size="10.00" fill="#000000">+</text>
<text text-anchor="start" x="241.5" y="-690.5" font-family="Helvetica,sans-Serif" font-size="10.00" fill="#000000">session_id</text>
<text text-anchor="start" x="230.5" y="-675.5" font-family="Helvetica,sans-Serif" font-size="10.00" fill="#000000">+</text>
<text text-anchor="start" x="241.5" y="-675.5" font-family="Helvetica,sans-Serif" font-size="10.00" fill="#000000">session_tv_sec</text>
<text text-anchor="start" x="230.5" y="-660.5" font-family="Helvetica,sans-Serif" font-size="10.00" fill="#000000">+</text>
<text text-anchor="start" x="241.5" y="-660.5" font-family="Helvetica,sans-Serif" font-size="10.00" fill="#000000">session_tv_nsec</text>
<text text-anchor="start" x="230.5" y="-645.5" font-family="Helvetica,sans-Serif" font-size="10.00" fill="#000000">+</text>
<text text-anchor="start" x="241.5" y="-645.5" font-family="Helvetica,sans-Serif" font-size="10.00" fill="#000000">seq_num</text>
<text text-anchor="start" x="230.5" y="-630.5" font-family="Helvetica,sans-Serif" font-size="10.00" fill="#000000">+</text>
<text text-anchor="start" x="241.5" y="-630.5" font-family="Helvetica,sans-Serif" font-size="10.00" fill="#000000">ack_num</text>
<text text-anchor="start" x="230.5" y="-615.5" font-family="Helvetica,sans-Serif" font-size="10.00" fill="#000000">+</text>
<text text-anchor="start" x="241.5" y="-615.5" font-family="Helvetica,sans-Serif" font-size="10.00" fill="#000000">flags</text>
<text text-anchor="start" x="230.5" y="-600.5" font-family="Helvetica,sans-Serif" font-size="10.00" fill="#000000">+</text>
<text text-anchor="start" x="241.5" y="-600.5" font-family="Helvetica,sans-Serif" font-size="10.00" fill="#000000">payload_len</text>
<text text-anchor="start" x="230.5" y="-585.5" font-family="Helvetica,sans-Serif" font-size="10.00" fill="#000000">+</text>
<text text-anchor="start" x="241.5" y="-585.5" font-family="Helvetica,sans-Serif" font-size="10.00" fill="#000000">payload</text>
<text text-anchor="start" x="271" y="-570.5" font-family="Helvetica,sans-Serif" font-size="10.00" fill="#000000"> </text>
<polygon fill="#666666" stroke="#666666" points="226.5,-715.5 226.5,-715.5 319.5,-715.5 319.5,-715.5 226.5,-715.5"/>
<polygon fill="#666666" stroke="#666666" points="226.5,-580.5 226.5,-580.5 239.5,-580.5 239.5,-580.5 226.5,-580.5"/>
<polygon fill="#666666" stroke="#666666" points="239.5,-580.5 239.5,-580.5 319.5,-580.5 319.5,-580.5 239.5,-580.5"/>
<polygon fill="none" stroke="#666666" points="226,-564 226,-733 319,-733 319,-564 226,-564"/>
</a>
</g>
</g>
<!-- Node5&#45;&gt;Node4 -->
<g id="edge4_Node000004_Node000005" class="edge">
<title>Node5&#45;&gt;Node4</title>
<g id="a_edge4_Node000004_Node000005"><a xlink:title=" ">
<path fill="none" stroke="#63b8ff" d="M272.5,-563.8891C272.5,-533.9904 272.5,-500.4386 272.5,-470.7791"/>
<polygon fill="none" stroke="#63b8ff" points="272.5001,-470.7612 268.5,-464.7612 272.5,-458.7612 276.5,-464.7612 272.5001,-470.7612"/>
</a>
</g>
<text text-anchor="start" x="276" y="-534.5" font-family="Helvetica,sans-Serif" font-size="10.00" fill="#c0c0c0">+packets</text>
</g>
<!-- Node6 -->
<g id="Node000006" class="node">
<title>Node6</title>
<g id="a_Node000006"><a xlink:href="structPotrNackDedupEntry.html" target="_top" xlink:title="NACK 重複抑制バッファの 1 エントリ。">
<polygon fill="#ffffff" stroke="transparent" points="431.5,-428.5 329.5,-428.5 329.5,-349.5 431.5,-349.5 431.5,-428.5"/>
<text text-anchor="start" x="334.5" y="-416" font-family="Helvetica,sans-Serif" font-size="10.00" fill="#000000">PotrNackDedupEntry</text>
<text text-anchor="start" x="344" y="-401" font-family="Helvetica,sans-Serif" font-size="10.00" fill="#000000">+</text>
<text text-anchor="start" x="365.5" y="-401" font-family="Helvetica,sans-Serif" font-size="10.00" fill="#000000">ack_num</text>
<text text-anchor="start" x="344" y="-386" font-family="Helvetica,sans-Serif" font-size="10.00" fill="#000000">+</text>
<text text-anchor="start" x="365.5" y="-386" font-family="Helvetica,sans-Serif" font-size="10.00" fill="#000000">_pad</text>
<text text-anchor="start" x="344" y="-371" font-family="Helvetica,sans-Serif" font-size="10.00" fill="#000000">+</text>
<text text-anchor="start" x="365.5" y="-371" font-family="Helvetica,sans-Serif" font-size="10.00" fill="#000000">time_ms</text>
<text text-anchor="start" x="378.5" y="-356" font-family="Helvetica,sans-Serif" font-size="10.00" fill="#000000"> </text>
<polygon fill="#666666" stroke="#666666" points="329.5,-411 329.5,-411 431.5,-411 431.5,-411 329.5,-411"/>
<polygon fill="#666666" stroke="#666666" points="329.5,-366 329.5,-366 363.5,-366 363.5,-366 329.5,-366"/>
<polygon fill="#666666" stroke="#666666" points="363.5,-366 363.5,-366 431.5,-366 431.5,-366 363.5,-366"/>
<polygon fill="none" stroke="#666666" points="329.5,-349.5 329.5,-428.5 431.5,-428.5 431.5,-349.5 329.5,-349.5"/>
</a>
</g>
</g>
<!-- Node6&#45;&gt;Node1 -->
<g id="edge5_Node000001_Node000006" class="edge">
<title>Node6&#45;&gt;Node1</title>
<g id="a_edge5_Node000001_Node000006"><a xlink:title=" ">
<path fill="none" stroke="#63b8ff" d="M376.8186,-349.2392C372.5535,-313.6053 363.7699,-260.415 346.5,-217 342.7854,-207.6618 338.3183,-198.2491 333.4422,-189.0337"/>
<polygon fill="none" stroke="#63b8ff" points="333.3342,-188.8372 326.9377,-185.5077 327.5509,-178.3227 333.9474,-181.6522 333.3342,-188.8372"/>
</a>
</g>
<text text-anchor="start" x="360.5" y="-230" font-family="Helvetica,sans-Serif" font-size="10.00" fill="#c0c0c0">+nack_dedup_buf</text>
</g>
<!-- Node7 -->
<g id="Node000007" class="node">
<title>Node7</title>
<g id="a_Node000007"><a xlink:href="structPotrSendQueue.html" target="_top" xlink:title="非同期送信キュー。">
<polygon fill="#ffffff" stroke="transparent" points="529.5,-481 449.5,-481 449.5,-297 529.5,-297 529.5,-481"/>
<text text-anchor="start" x="454.5" y="-469" font-family="Helvetica,sans-Serif" font-size="10.00" fill="#000000">PotrSendQueue</text>
<text text-anchor="start" x="454" y="-454" font-family="Helvetica,sans-Serif" font-size="10.00" fill="#000000">+</text>
<text text-anchor="start" x="465.5" y="-454" font-family="Helvetica,sans-Serif" font-size="10.00" fill="#000000">payload_pool</text>
<text text-anchor="start" x="454" y="-439" font-family="Helvetica,sans-Serif" font-size="10.00" fill="#000000">+</text>
<text text-anchor="start" x="465.5" y="-439" font-family="Helvetica,sans-Serif" font-size="10.00" fill="#000000">depth</text>
<text text-anchor="start" x="454" y="-424" font-family="Helvetica,sans-Serif" font-size="10.00" fill="#000000">+</text>
<text text-anchor="start" x="465.5" y="-424" font-family="Helvetica,sans-Serif" font-size="10.00" fill="#000000">head</text>
<text text-anchor="start" x="454" y="-409" font-family="Helvetica,sans-Serif" font-size="10.00" fill="#000000">+</text>
<text text-anchor="start" x="465.5" y="-409" font-family="Helvetica,sans-Serif" font-size="10.00" fill="#000000">tail</text>
<text text-anchor="start" x="454" y="-394" font-family="Helvetica,sans-Serif" font-size="10.00" fill="#000000">+</text>
<text text-anchor="start" x="465.5" y="-394" font-family="Helvetica,sans-Serif" font-size="10.00" fill="#000000">count</text>
<text text-anchor="start" x="454" y="-379" font-family="Helvetica,sans-Serif" font-size="10.00" fill="#000000">+</text>
<text text-anchor="start" x="465.5" y="-379" font-family="Helvetica,sans-Serif" font-size="10.00" fill="#000000">inflight</text>
<text text-anchor="start" x="454" y="-364" font-family="Helvetica,sans-Serif" font-size="10.00" fill="#000000">+</text>
<text text-anchor="start" x="465.5" y="-364" font-family="Helvetica,sans-Serif" font-size="10.00" fill="#000000">mutex</text>
<text text-anchor="start" x="454" y="-349" font-family="Helvetica,sans-Serif" font-size="10.00" fill="#000000">+</text>
<text text-anchor="start" x="465.5" y="-349" font-family="Helvetica,sans-Serif" font-size="10.00" fill="#000000">not_empty</text>
<text text-anchor="start" x="454" y="-334" font-family="Helvetica,sans-Serif" font-size="10.00" fill="#000000">+</text>
<text text-anchor="start" x="465.5" y="-334" font-family="Helvetica,sans-Serif" font-size="10.00" fill="#000000">not_full</text>
<text text-anchor="start" x="454" y="-319" font-family="Helvetica,sans-Serif" font-size="10.00" fill="#000000">+</text>
<text text-anchor="start" x="465.5" y="-319" font-family="Helvetica,sans-Serif" font-size="10.00" fill="#000000">drained</text>
<text text-anchor="start" x="487.5" y="-304" font-family="Helvetica,sans-Serif" font-size="10.00" fill="#000000"> </text>
<polygon fill="#666666" stroke="#666666" points="449.5,-464 449.5,-464 529.5,-464 529.5,-464 449.5,-464"/>
<polygon fill="#666666" stroke="#666666" points="449.5,-314 449.5,-314 463.5,-314 463.5,-314 449.5,-314"/>
<polygon fill="#666666" stroke="#666666" points="463.5,-314 463.5,-314 529.5,-314 529.5,-314 463.5,-314"/>
<polygon fill="none" stroke="#666666" points="449.5,-297 449.5,-481 529.5,-481 529.5,-297 449.5,-297"/>
</a>
</g>
</g>
<!-- Node7&#45;&gt;Node1 -->
<g id="edge6_Node000001_Node000007" class="edge">
<title>Node7&#45;&gt;Node1</title>
<g id="a_edge6_Node000001_Node000007"><a xlink:title=" ">
<path fill="none" stroke="#63b8ff" d="M478.6351,-296.6905C472.1763,-269.258 461.8869,-240.3312 445.5,-217 418.6249,-178.736 375.0066,-149.2339 338.2929,-129.3619"/>
<polygon fill="none" stroke="#63b8ff" points="338.2649,-129.3472 331.0925,-130.0932 327.6452,-123.7595 334.8177,-123.0135 338.2649,-129.3472"/>
</a>
</g>
<text text-anchor="start" x="466" y="-230" font-family="Helvetica,sans-Serif" font-size="10.00" fill="#c0c0c0">+send_queue</text>
</g>
<!-- Node8 -->
<g id="Node000008" class="node">
<title>Node8</title>
<g id="a_Node000008"><a xlink:href="structPotrPayloadElem.html" target="_top" xlink:title="送信キューの 1 エントリ。ペイロードエレメント 1 個分のデータを保持する。">
<polygon fill="#ffffff" stroke="transparent" points="532.5,-695.5 446.5,-695.5 446.5,-601.5 532.5,-601.5 532.5,-695.5"/>
<text text-anchor="start" x="451.5" y="-683.5" font-family="Helvetica,sans-Serif" font-size="10.00" fill="#000000">PotrPayloadElem</text>
<text text-anchor="start" x="454" y="-668.5" font-family="Helvetica,sans-Serif" font-size="10.00" fill="#000000">+</text>
<text text-anchor="start" x="468.5" y="-668.5" font-family="Helvetica,sans-Serif" font-size="10.00" fill="#000000">flags</text>
<text text-anchor="start" x="454" y="-653.5" font-family="Helvetica,sans-Serif" font-size="10.00" fill="#000000">+</text>
<text text-anchor="start" x="468.5" y="-653.5" font-family="Helvetica,sans-Serif" font-size="10.00" fill="#000000">payload_len</text>
<text text-anchor="start" x="454" y="-638.5" font-family="Helvetica,sans-Serif" font-size="10.00" fill="#000000">+</text>
<text text-anchor="start" x="468.5" y="-638.5" font-family="Helvetica,sans-Serif" font-size="10.00" fill="#000000">_pad</text>
<text text-anchor="start" x="454" y="-623.5" font-family="Helvetica,sans-Serif" font-size="10.00" fill="#000000">+</text>
<text text-anchor="start" x="468.5" y="-623.5" font-family="Helvetica,sans-Serif" font-size="10.00" fill="#000000">payload</text>
<text text-anchor="start" x="487.5" y="-608.5" font-family="Helvetica,sans-Serif" font-size="10.00" fill="#000000"> </text>
<polygon fill="#666666" stroke="#666666" points="446.5,-678.5 446.5,-678.5 532.5,-678.5 532.5,-678.5 446.5,-678.5"/>
<polygon fill="#666666" stroke="#666666" points="446.5,-618.5 446.5,-618.5 466.5,-618.5 466.5,-618.5 446.5,-618.5"/>
<polygon fill="#666666" stroke="#666666" points="466.5,-618.5 466.5,-618.5 532.5,-618.5 532.5,-618.5 466.5,-618.5"/>
<polygon fill="none" stroke="#666666" points="446.5,-601.5 446.5,-695.5 532.5,-695.5 532.5,-601.5 446.5,-601.5"/>
</a>
</g>
</g>
<!-- Node8&#45;&gt;Node7 -->
<g id="edge7_Node000007_Node000008" class="edge">
<title>Node8&#45;&gt;Node7</title>
<g id="a_edge7_Node000007_Node000008"><a xlink:title=" ">
<path fill="none" stroke="#63b8ff" d="M489.5,-601.2054C489.5,-570.9975 489.5,-530.608 489.5,-493.1756"/>
<polygon fill="none" stroke="#63b8ff" points="489.5001,-493.1428 485.5,-487.1429 489.5,-481.1428 493.5,-487.1428 489.5001,-493.1428"/>
</a>
</g>
<text text-anchor="start" x="492.5" y="-534.5" font-family="Helvetica,sans-Serif" font-size="10.00" fill="#c0c0c0">+entries</text>
</g>
</g>
</svg>

<g id="navigator" transform="translate(0 0)" fill="#404254">
  <rect fill="#f2f5e9" fill-opacity="0.5" stroke="#606060" stroke-width=".5" x="0" y="0" width="60" height="60"/>
  <use id="zoomplus" xlink:href="#zoomPlus" x="17" y="9" onmousedown="handleZoom(evt,'in')"/>
  <use id="zoomminus" xlink:href="#zoomMin" x="42" y="9" onmousedown="handleZoom(evt,'out')"/>
  <use id="reset" xlink:href="#resetDef" x="30" y="36" onmousedown="handleReset()"/>
   <use id="arrowup" xlink:href="#arrowUp" x="0" y="0" onmousedown="handlePan(0,-1)"/>
  <use id="arrowright" xlink:href="#arrowRight" x="0" y="0" onmousedown="handlePan(1,0)"/>
  <use id="arrowdown" xlink:href="#arrowDown" x="0" y="0" onmousedown="handlePan(0,1)"/>
  <use id="arrowleft" xlink:href="#arrowLeft" x="0" y="0" onmousedown="handlePan(-1,0)"/>
</g>
<svg viewBox="0 0 15 15" width="100%" height="30px" preserveAspectRatio="xMaxYMin meet">
 <g id="arrow_out" transform="scale(0.3 0.3)">
  <a xlink:href="structPotrContext____coll__graph_org.svg" target="_base">
   <rect id="button" ry="5" rx="5" y="6" x="6" height="38" width="38"
        fill="#f2f5e9" fill-opacity="0.5" stroke="#606060" stroke-width="1.0"/>
   <path id="arrow"
     d="M 11.500037,31.436501 C 11.940474,20.09759 22.043105,11.32322 32.158766,21.979434 L 37.068811,17.246167 C 37.068811,17.246167 37.088388,32 37.088388,32 L 22.160133,31.978069 C 22.160133,31.978069 26.997745,27.140456 26.997745,27.140456 C 18.528582,18.264221 13.291696,25.230495 11.500037,31.436501 z"
     style="fill:#404040;"/>
  </a>
 </g>
</svg>

<style type='text/css'>
<![CDATA[
[data-mouse-over-selected='false'] { opacity: 0.7; }
[data-mouse-over-selected='true']  { opacity: 1.0; }
]]>
</style>
<script type="application/ecmascript"><![CDATA[
document.addEventListener('DOMContentLoaded', (event) => {
  highlightEdges();
  highlightAdjacentNodes();
});
]]></script>
</svg>
