<?xml version="1.0" encoding="UTF-8" standalone="no"?>
<!DOCTYPE svg PUBLIC "-//W3C//DTD SVG 1.1//EN"
 "http://www.w3.org/Graphics/SVG/1.1/DTD/svg11.dtd">
<!-- Generated by graphviz version 2.40.1 (0)
 -->
<!-- Title: PotrGlobalConfig Pages: 1 -->
<svg width="115pt" height="132pt"
 viewBox="0.00 0.00 115.00 132.00" xmlns="http://www.w3.org/2000/svg" xmlns:xlink="http://www.w3.org/1999/xlink">
<g id="graph0" class="graph" transform="scale(1 1) rotate(0) translate(4 128)">
<title>PotrGlobalConfig</title>
<!-- Node1 -->
<g id="Node000001" class="node">
<title>Node1</title>
<g id="a_Node000001"><a xlink:title="グローバル設定。">
<polygon fill="#999999" stroke="transparent" points="107,-124 0,-124 0,0 107,0 107,-124"/>
<text text-anchor="start" x="17" y="-112" font-family="Helvetica,sans-Serif" font-size="10.00" fill="#000000">PotrGlobalConfig</text>
<text text-anchor="start" x="4.5" y="-97" font-family="Helvetica,sans-Serif" font-size="10.00" fill="#000000">+</text>
<text text-anchor="start" x="15.5" y="-97" font-family="Helvetica,sans-Serif" font-size="10.00" fill="#000000">window_size</text>
<text text-anchor="start" x="4.5" y="-82" font-family="Helvetica,sans-Serif" font-size="10.00" fill="#000000">+</text>
<text text-anchor="start" x="15.5" y="-82" font-family="Helvetica,sans-Serif" font-size="10.00" fill="#000000">max_payload</text>
<text text-anchor="start" x="4.5" y="-67" font-family="Helvetica,sans-Serif" font-size="10.00" fill="#000000">+</text>
<text text-anchor="start" x="15.5" y="-67" font-family="Helvetica,sans-Serif" font-size="10.00" fill="#000000">health_interval_ms</text>
<text text-anchor="start" x="4.5" y="-52" font-family="Helvetica,sans-Serif" font-size="10.00" fill="#000000">+</text>
<text text-anchor="start" x="15.5" y="-52" font-family="Helvetica,sans-Serif" font-size="10.00" fill="#000000">health_timeout_ms</text>
<text text-anchor="start" x="4.5" y="-37" font-family="Helvetica,sans-Serif" font-size="10.00" fill="#000000">+</text>
<text text-anchor="start" x="15.5" y="-37" font-family="Helvetica,sans-Serif" font-size="10.00" fill="#000000">max_message_size</text>
<text text-anchor="start" x="4.5" y="-22" font-family="Helvetica,sans-Serif" font-size="10.00" fill="#000000">+</text>
<text text-anchor="start" x="15.5" y="-22" font-family="Helvetica,sans-Serif" font-size="10.00" fill="#000000">send_queue_depth</text>
<text text-anchor="start" x="52" y="-7" font-family="Helvetica,sans-Serif" font-size="10.00" fill="#000000"> </text>
<polygon fill="#666666" stroke="#666666" points=".5,-107 .5,-107 107.5,-107 107.5,-107 .5,-107"/>
<polygon fill="#666666" stroke="#666666" points=".5,-17 .5,-17 13.5,-17 13.5,-17 .5,-17"/>
<polygon fill="#666666" stroke="#666666" points="13.5,-17 13.5,-17 107.5,-17 107.5,-17 13.5,-17"/>
<polygon fill="none" stroke="#666666" points="0,0 0,-124 107,-124 107,0 0,0"/>
</a>
</g>
</g>
</g>
</svg>
