<?xml version="1.0" encoding="UTF-8" standalone="no"?>
<!DOCTYPE svg PUBLIC "-//W3C//DTD SVG 1.1//EN"
 "http://www.w3.org/Graphics/SVG/1.1/DTD/svg11.dtd">
<!-- Generated by graphviz version 2.40.1 (0)
 -->
<!-- Title: PotrGlobalConfig Pages: 1 -->
<svg width="127pt" height="117pt"
 viewBox="0.00 0.00 127.00 117.00" xmlns="http://www.w3.org/2000/svg" xmlns:xlink="http://www.w3.org/1999/xlink">
<g id="graph0" class="graph" transform="scale(1 1) rotate(0) translate(4 113)">
<title>PotrGlobalConfig</title>
<!-- Node1 -->
<g id="Node000001" class="node">
<title>Node1</title>
<g id="a_Node000001"><a xlink:title="グローバル設定。">
<polygon fill="#999999" stroke="transparent" points="119,-109 0,-109 0,0 119,0 119,-109"/>
<text text-anchor="start" x="23" y="-96.5" font-family="Helvetica,sans-Serif" font-size="10.00" fill="#000000">PotrGlobalConfig</text>
<text text-anchor="start" x="4.5" y="-81.5" font-family="Helvetica,sans-Serif" font-size="10.00" fill="#000000">+</text>
<text text-anchor="start" x="15.5" y="-81.5" font-family="Helvetica,sans-Serif" font-size="10.00" fill="#000000">retransmit_timeout_ms</text>
<text text-anchor="start" x="4.5" y="-66.5" font-family="Helvetica,sans-Serif" font-size="10.00" fill="#000000">+</text>
<text text-anchor="start" x="15.5" y="-66.5" font-family="Helvetica,sans-Serif" font-size="10.00" fill="#000000">window_size</text>
<text text-anchor="start" x="4.5" y="-51.5" font-family="Helvetica,sans-Serif" font-size="10.00" fill="#000000">+</text>
<text text-anchor="start" x="15.5" y="-51.5" font-family="Helvetica,sans-Serif" font-size="10.00" fill="#000000">max_payload</text>
<text text-anchor="start" x="4.5" y="-36.5" font-family="Helvetica,sans-Serif" font-size="10.00" fill="#000000">+</text>
<text text-anchor="start" x="15.5" y="-36.5" font-family="Helvetica,sans-Serif" font-size="10.00" fill="#000000">retransmit_count</text>
<text text-anchor="start" x="4.5" y="-21.5" font-family="Helvetica,sans-Serif" font-size="10.00" fill="#000000">+</text>
<text text-anchor="start" x="15.5" y="-21.5" font-family="Helvetica,sans-Serif" font-size="10.00" fill="#000000">_pad</text>
<text text-anchor="start" x="58" y="-6.5" font-family="Helvetica,sans-Serif" font-size="10.00" fill="#000000"> </text>
<polygon fill="#666666" stroke="#666666" points=".5,-91.5 .5,-91.5 119.5,-91.5 119.5,-91.5 .5,-91.5"/>
<polygon fill="#666666" stroke="#666666" points=".5,-16.5 .5,-16.5 13.5,-16.5 13.5,-16.5 .5,-16.5"/>
<polygon fill="#666666" stroke="#666666" points="13.5,-16.5 13.5,-16.5 119.5,-16.5 119.5,-16.5 13.5,-16.5"/>
<polygon fill="none" stroke="#666666" points="0,0 0,-109 119,-109 119,0 0,0"/>
</a>
</g>
</g>
</g>
</svg>
