<?xml version="1.0" encoding="UTF-8" standalone="no"?>
<!DOCTYPE svg PUBLIC "-//W3C//DTD SVG 1.1//EN"
 "http://www.w3.org/Graphics/SVG/1.1/DTD/svg11.dtd">
<!-- Generated by graphviz version 2.40.1 (0)
 -->
<!-- Title: PotrWindow Pages: 1 -->
<svg width="92pt" height="279pt"
 viewBox="0.00 0.00 92.00 279.00" xmlns="http://www.w3.org/2000/svg" xmlns:xlink="http://www.w3.org/1999/xlink">
<g id="graph0" class="graph" transform="scale(1 1) rotate(0) translate(4 275)">
<title>PotrWindow</title>
<!-- Node1 -->
<g id="Node000001" class="node">
<title>Node1</title>
<g id="a_Node000001"><a xlink:title="スライディングウィンドウ管理構造体。">
<polygon fill="#999999" stroke="transparent" points="74,-109 0,-109 0,0 74,0 74,-109"/>
<text text-anchor="start" x="11" y="-96.5" font-family="Helvetica,sans-Serif" font-size="10.00" fill="#000000">PotrWindow</text>
<text text-anchor="start" x="4" y="-81.5" font-family="Helvetica,sans-Serif" font-size="10.00" fill="#000000">+</text>
<text text-anchor="start" x="15" y="-81.5" font-family="Helvetica,sans-Serif" font-size="10.00" fill="#000000">valid</text>
<text text-anchor="start" x="4" y="-66.5" font-family="Helvetica,sans-Serif" font-size="10.00" fill="#000000">+</text>
<text text-anchor="start" x="15" y="-66.5" font-family="Helvetica,sans-Serif" font-size="10.00" fill="#000000">base_seq</text>
<text text-anchor="start" x="4" y="-51.5" font-family="Helvetica,sans-Serif" font-size="10.00" fill="#000000">+</text>
<text text-anchor="start" x="15" y="-51.5" font-family="Helvetica,sans-Serif" font-size="10.00" fill="#000000">next_seq</text>
<text text-anchor="start" x="4" y="-36.5" font-family="Helvetica,sans-Serif" font-size="10.00" fill="#000000">+</text>
<text text-anchor="start" x="15" y="-36.5" font-family="Helvetica,sans-Serif" font-size="10.00" fill="#000000">window_size</text>
<text text-anchor="start" x="4" y="-21.5" font-family="Helvetica,sans-Serif" font-size="10.00" fill="#000000">+</text>
<text text-anchor="start" x="15" y="-21.5" font-family="Helvetica,sans-Serif" font-size="10.00" fill="#000000">_pad</text>
<text text-anchor="start" x="35" y="-6.5" font-family="Helvetica,sans-Serif" font-size="10.00" fill="#000000"> </text>
<polygon fill="#666666" stroke="#666666" points="0,-91.5 0,-91.5 74,-91.5 74,-91.5 0,-91.5"/>
<polygon fill="#666666" stroke="#666666" points="0,-16.5 0,-16.5 13,-16.5 13,-16.5 0,-16.5"/>
<polygon fill="#666666" stroke="#666666" points="13,-16.5 13,-16.5 74,-16.5 74,-16.5 13,-16.5"/>
<polygon fill="none" stroke="#666666" points="0,0 0,-109 74,-109 74,0 0,0"/>
</a>
</g>
</g>
<!-- Node2 -->
<g id="Node000002" class="node">
<title>Node2</title>
<g id="a_Node000002"><a xlink:href="structPotrPacket.html" target="_top" xlink:title="ネットワーク送受信用パケット構造体。">
<polygon fill="#ffffff" stroke="transparent" points="72.5,-271 1.5,-271 1.5,-162 72.5,-162 72.5,-271"/>
<text text-anchor="start" x="13" y="-258.5" font-family="Helvetica,sans-Serif" font-size="10.00" fill="#000000">PotrPacket</text>
<text text-anchor="start" x="6" y="-243.5" font-family="Helvetica,sans-Serif" font-size="10.00" fill="#000000">+</text>
<text text-anchor="start" x="17" y="-243.5" font-family="Helvetica,sans-Serif" font-size="10.00" fill="#000000">seq_num</text>
<text text-anchor="start" x="6" y="-228.5" font-family="Helvetica,sans-Serif" font-size="10.00" fill="#000000">+</text>
<text text-anchor="start" x="17" y="-228.5" font-family="Helvetica,sans-Serif" font-size="10.00" fill="#000000">ack_num</text>
<text text-anchor="start" x="6" y="-213.5" font-family="Helvetica,sans-Serif" font-size="10.00" fill="#000000">+</text>
<text text-anchor="start" x="17" y="-213.5" font-family="Helvetica,sans-Serif" font-size="10.00" fill="#000000">flags</text>
<text text-anchor="start" x="6" y="-198.5" font-family="Helvetica,sans-Serif" font-size="10.00" fill="#000000">+</text>
<text text-anchor="start" x="17" y="-198.5" font-family="Helvetica,sans-Serif" font-size="10.00" fill="#000000">payload_len</text>
<text text-anchor="start" x="6" y="-183.5" font-family="Helvetica,sans-Serif" font-size="10.00" fill="#000000">+</text>
<text text-anchor="start" x="17" y="-183.5" font-family="Helvetica,sans-Serif" font-size="10.00" fill="#000000">payload</text>
<text text-anchor="start" x="35.5" y="-168.5" font-family="Helvetica,sans-Serif" font-size="10.00" fill="#000000"> </text>
<polygon fill="#666666" stroke="#666666" points="2,-253.5 2,-253.5 73,-253.5 73,-253.5 2,-253.5"/>
<polygon fill="#666666" stroke="#666666" points="2,-178.5 2,-178.5 15,-178.5 15,-178.5 2,-178.5"/>
<polygon fill="#666666" stroke="#666666" points="15,-178.5 15,-178.5 73,-178.5 73,-178.5 15,-178.5"/>
<polygon fill="none" stroke="#666666" points="1.5,-162 1.5,-271 72.5,-271 72.5,-162 1.5,-162"/>
</a>
</g>
</g>
<!-- Node2&#45;&gt;Node1 -->
<g id="edge1_Node000001_Node000002" class="edge">
<title>Node2&#45;&gt;Node1</title>
<g id="a_edge1_Node000001_Node000002"><a xlink:title=" ">
<path fill="none" stroke="#63b8ff" d="M37,-161.6542C37,-148.6527 37,-134.6442 37,-121.1808"/>
<polygon fill="none" stroke="#63b8ff" points="37.0001,-121.0142 33,-115.0142 37,-109.0142 41,-115.0141 37.0001,-121.0142"/>
</a>
</g>
<text text-anchor="start" x="40.5" y="-132.5" font-family="Helvetica,sans-Serif" font-size="10.00" fill="#c0c0c0">+packets</text>
</g>
</g>
</svg>
