<?xml version="1.0" encoding="UTF-8" standalone="no"?>
<!DOCTYPE svg PUBLIC "-//W3C//DTD SVG 1.1//EN"
 "http://www.w3.org/Graphics/SVG/1.1/DTD/svg11.dtd">
<!-- Generated by graphviz version 2.40.1 (0)
 -->
<!-- Title: porter/libsrc/porter/protocol/window.h Pages: 1 -->
<!--zoomable 236 -->

<svg id="main" version="1.1" xmlns="http://www.w3.org/2000/svg" xmlns:xlink="http://www.w3.org/1999/xlink" xml:space="preserve" onload="init(evt)">

<style type="text/css"><![CDATA[
.node, .edge {opacity: 0.7;}
.node.selected, .edge.selected {opacity: 1;}
.edge:hover path { stroke: red; }
.edge:hover polygon { stroke: red; fill: red; }
]]></style>

<defs>
  <circle id="rim" cx="0" cy="0" r="7"/>
  <circle id="rim2" cx="0" cy="0" r="3.5"/>
  <g id="zoomPlus">
    <use xlink:href="#rim" fill="#404040"><set attributeName="fill" to="#808080" begin="zoomplus.mouseover" end="zoomplus.mouseout"/></use>
    <path d="M-4,0h8M0,-4v8" fill="none" stroke="white" stroke-width="1.5" pointer-events="none"/>
  </g>
  <g id="zoomMin">
    <use xlink:href="#rim" fill="#404040"><set attributeName="fill" to="#808080" begin="zoomminus.mouseover" end="zoomminus.mouseout"/></use>
    <path d="M-4,0h8" fill="none" stroke="white" stroke-width="1.5" pointer-events="none"/>
  </g>
  <g id="arrowUp" transform="translate(30 24)">
    <use xlink:href="#rim"/>
    <path pointer-events="none" fill="none" stroke="white" stroke-width="1.5" d="M0,-3.0v7 M-2.5,-0.5L0,-3.0L2.5,-0.5"/>
  </g>
  <g id="arrowRight" transform="rotate(90) translate(36 -43)">
    <use xlink:href="#rim"/>
    <path pointer-events="none" fill="none" stroke="white" stroke-width="1.5" d="M0,-3.0v7 M-2.5,-0.5L0,-3.0L2.5,-0.5"/>
  </g>
  <g id="arrowDown" transform="rotate(180) translate(-30 -48)">
    <use xlink:href="#rim"/>
    <path pointer-events="none" fill="none" stroke="white" stroke-width="1.5" d="M0,-3.0v7 M-2.5,-0.5L0,-3.0L2.5,-0.5"/>
  </g>
  <g id="arrowLeft" transform="rotate(270) translate(-36 17)">
    <use xlink:href="#rim"/>
    <path pointer-events="none" fill="none" stroke="white" stroke-width="1.5" d="M0,-3.0v7 M-2.5,-0.5L0,-3.0L2.5,-0.5"/>
  </g>
  <g id="resetDef">
    <use xlink:href="#rim2" fill="#404040"><set attributeName="fill" to="#808080" begin="reset.mouseover" end="reset.mouseout"/></use>
  </g>
</defs>
<script type="application/ecmascript">
var viewWidth = 1057;
var viewHeight = 236;
var sectionId = 'dynsection-1';
</script>
<script type="application/ecmascript" xlink:href="svg.min.js"/>
<svg id="graph" class="graph">
<g id="viewport">
<title>porter/libsrc/porter/protocol/window.h</title>
<!-- Node1 -->
<g id="Node000001" class="node">
<title>Node1</title>
<g id="a_Node000001"><a xlink:title="スライディングウィンドウ管理モジュールの内部ヘッダー。">
<polygon fill="#999999" stroke="#666666" points="859,-228 763,-228 763,-198 859,-198 859,-228"/>
<text text-anchor="start" x="771" y="-216" font-family="Helvetica,sans-Serif" font-size="10.00" fill="#000000">porter/libsrc/porter</text>
<text text-anchor="middle" x="811" y="-205" font-family="Helvetica,sans-Serif" font-size="10.00" fill="#000000">/protocol/window.h</text>
</a>
</g>
</g>
<!-- Node2 -->
<g id="Node000002" class="node">
<title>Node2</title>
<g id="a_Node000002"><a xlink:href="potrCloseService_8c.html" target="_top" xlink:title=" ">
<polygon fill="#ffffff" stroke="#666666" points="588,-30 470,-30 470,0 588,0 588,-30"/>
<text text-anchor="start" x="478" y="-18" font-family="Helvetica,sans-Serif" font-size="10.00" fill="#000000">porter/libsrc/porter</text>
<text text-anchor="middle" x="529" y="-7" font-family="Helvetica,sans-Serif" font-size="10.00" fill="#000000">/api/potrCloseService.c</text>
</a>
</g>
</g>
<!-- Node1&#45;&gt;Node2 -->
<g id="edge1_Node000001_Node000002" class="edge">
<title>Node1&#45;&gt;Node2</title>
<g id="a_edge1_Node000001_Node000002"><a xlink:title=" ">
<path fill="none" stroke="#63b8ff" d="M808.4003,-187.672C803.6163,-154.6232 790.3079,-97.3275 754,-66 729.4743,-44.8385 646.1173,-30.0581 588.0635,-22.0433"/>
<polygon fill="#63b8ff" stroke="#63b8ff" points="804.9662,-188.4078 809.7169,-197.8778 811.9086,-187.5122 804.9662,-188.4078"/>
</a>
</g>
</g>
<!-- Node3 -->
<g id="Node000003" class="node">
<title>Node3</title>
<g id="a_Node000003"><a xlink:href="potrOpenService_8c.html" target="_top" xlink:title="potrOpenService 関数の実装。">
<polygon fill="#ffffff" stroke="#666666" points="294,-30 178,-30 178,0 294,0 294,-30"/>
<text text-anchor="start" x="186" y="-18" font-family="Helvetica,sans-Serif" font-size="10.00" fill="#000000">porter/libsrc/porter</text>
<text text-anchor="middle" x="236" y="-7" font-family="Helvetica,sans-Serif" font-size="10.00" fill="#000000">/api/potrOpenService.c</text>
</a>
</g>
</g>
<!-- Node1&#45;&gt;Node3 -->
<g id="edge2_Node000001_Node000003" class="edge">
<title>Node1&#45;&gt;Node3</title>
<g id="a_edge2_Node000001_Node000003"><a xlink:title=" ">
<path fill="none" stroke="#63b8ff" d="M752.6573,-211.8347C605.8988,-207.5473 227.6359,-187.6472 151,-96 130.078,-70.9799 168.5117,-45.5943 200.279,-30.0735"/>
<polygon fill="#63b8ff" stroke="#63b8ff" points="752.7231,-215.3378 762.8165,-212.1172 752.9177,-208.3405 752.7231,-215.3378"/>
</a>
</g>
</g>
<!-- Node4 -->
<g id="Node000004" class="node">
<title>Node4</title>
<g id="a_Node000004"><a xlink:href="potrContext_8h.html" target="_top" xlink:title="セッションコンテキスト内部定義ヘッダー。">
<polygon fill="#ffffff" stroke="#666666" points="622.5,-162 527.5,-162 527.5,-132 622.5,-132 622.5,-162"/>
<text text-anchor="start" x="535.5" y="-150" font-family="Helvetica,sans-Serif" font-size="10.00" fill="#000000">porter/libsrc/porter</text>
<text text-anchor="middle" x="575" y="-139" font-family="Helvetica,sans-Serif" font-size="10.00" fill="#000000">/potrContext.h</text>
</a>
</g>
</g>
<!-- Node1&#45;&gt;Node4 -->
<g id="edge3_Node000001_Node000004" class="edge">
<title>Node1&#45;&gt;Node4</title>
<g id="a_edge3_Node000001_Node000004"><a xlink:title=" ">
<path fill="none" stroke="#63b8ff" d="M753.3041,-196.8647C713.1656,-185.6395 660.2961,-170.854 622.5718,-160.304"/>
<polygon fill="#63b8ff" stroke="#63b8ff" points="752.3843,-200.2417 762.9574,-199.5644 754.2696,-193.5003 752.3843,-200.2417"/>
</a>
</g>
</g>
<!-- Node6 -->
<g id="Node000006" class="node">
<title>Node6</title>
<g id="a_Node000006"><a xlink:href="potrHealthThread_8c.html" target="_top" xlink:title="ヘルスチェックスレッドモジュール。">
<polygon fill="#ffffff" stroke="#666666" points="132,-30 0,-30 0,0 132,0 132,-30"/>
<text text-anchor="start" x="8" y="-18" font-family="Helvetica,sans-Serif" font-size="10.00" fill="#000000">porter/libsrc/porter</text>
<text text-anchor="middle" x="66" y="-7" font-family="Helvetica,sans-Serif" font-size="10.00" fill="#000000">/thread/potrHealthThread.c</text>
</a>
</g>
</g>
<!-- Node1&#45;&gt;Node6 -->
<g id="edge23_Node000001_Node000006" class="edge">
<title>Node1&#45;&gt;Node6</title>
<g id="a_edge23_Node000001_Node000006"><a xlink:title=" ">
<path fill="none" stroke="#63b8ff" d="M752.6062,-211.7843C621.0326,-208.4504 305.0815,-196.9507 205,-162 155.0753,-144.5652 140.8988,-135.7305 106,-96 88.6113,-76.2039 76.8187,-47.5064 70.766,-30.116"/>
<polygon fill="#63b8ff" stroke="#63b8ff" points="752.799,-215.29 762.8822,-212.0375 752.9714,-208.2921 752.799,-215.29"/>
</a>
</g>
</g>
<!-- Node8 -->
<g id="Node000008" class="node">
<title>Node8</title>
<g id="a_Node000008"><a xlink:href="potrRecvThread_8c.html" target="_top" xlink:title="受信スレッドモジュール。">
<polygon fill="#ffffff" stroke="#666666" points="965.5,-30 838.5,-30 838.5,0 965.5,0 965.5,-30"/>
<text text-anchor="start" x="846.5" y="-18" font-family="Helvetica,sans-Serif" font-size="10.00" fill="#000000">porter/libsrc/porter</text>
<text text-anchor="middle" x="902" y="-7" font-family="Helvetica,sans-Serif" font-size="10.00" fill="#000000">/thread/potrRecvThread.c</text>
</a>
</g>
</g>
<!-- Node1&#45;&gt;Node8 -->
<g id="edge24_Node000001_Node000008" class="edge">
<title>Node1&#45;&gt;Node8</title>
<g id="a_edge24_Node000001_Node000008"><a xlink:title=" ">
<path fill="none" stroke="#63b8ff" d="M828.1213,-189.6475C833.9036,-181.1841 840.1227,-171.3923 845,-162 868.9676,-115.8447 888.7563,-57.2274 897.3668,-30.0706"/>
<polygon fill="#63b8ff" stroke="#63b8ff" points="825.201,-187.716 822.3282,-197.9139 830.9335,-191.7333 825.201,-187.716"/>
</a>
</g>
</g>
<!-- Node10 -->
<g id="Node000010" class="node">
<title>Node10</title>
<g id="a_Node000010"><a xlink:href="potrSendThread_8c.html" target="_top" xlink:title="非同期送信スレッドの実装。">
<polygon fill="#ffffff" stroke="#666666" points="820.5,-30 693.5,-30 693.5,0 820.5,0 820.5,-30"/>
<text text-anchor="start" x="701.5" y="-18" font-family="Helvetica,sans-Serif" font-size="10.00" fill="#000000">porter/libsrc/porter</text>
<text text-anchor="middle" x="757" y="-7" font-family="Helvetica,sans-Serif" font-size="10.00" fill="#000000">/thread/potrSendThread.c</text>
</a>
</g>
</g>
<!-- Node1&#45;&gt;Node10 -->
<g id="edge25_Node000001_Node000010" class="edge">
<title>Node1&#45;&gt;Node10</title>
<g id="a_edge25_Node000001_Node000010"><a xlink:title=" ">
<path fill="none" stroke="#63b8ff" d="M820.9767,-188.4328C831.6817,-157.9956 844.674,-105.3479 825,-66 817.2786,-50.5572 802.4113,-38.5773 788.5428,-30.1207"/>
<polygon fill="#63b8ff" stroke="#63b8ff" points="817.6791,-187.2592 817.4845,-197.8523 824.2425,-189.6926 817.6791,-187.2592"/>
</a>
</g>
</g>
<!-- Node12 -->
<g id="Node000012" class="node">
<title>Node12</title>
<g id="a_Node000012"><a xlink:href="window_8c.html" target="_top" xlink:title="スライディングウィンドウ管理モジュール。">
<polygon fill="#ffffff" stroke="#666666" points="1049,-162 953,-162 953,-132 1049,-132 1049,-162"/>
<text text-anchor="start" x="961" y="-150" font-family="Helvetica,sans-Serif" font-size="10.00" fill="#000000">porter/libsrc/porter</text>
<text text-anchor="middle" x="1001" y="-139" font-family="Helvetica,sans-Serif" font-size="10.00" fill="#000000">/protocol/window.c</text>
</a>
</g>
</g>
<!-- Node1&#45;&gt;Node12 -->
<g id="edge22_Node000001_Node000012" class="edge">
<title>Node1&#45;&gt;Node12</title>
<g id="a_edge22_Node000001_Node000012"><a xlink:title=" ">
<path fill="none" stroke="#63b8ff" d="M864.3029,-194.4843C893.7625,-184.2509 929.896,-171.6993 957.613,-162.0713"/>
<polygon fill="#63b8ff" stroke="#63b8ff" points="862.8877,-191.2706 854.5898,-197.8583 865.1846,-197.8831 862.8877,-191.2706"/>
</a>
</g>
</g>
<!-- Node4&#45;&gt;Node2 -->
<g id="edge4_Node000004_Node000002" class="edge">
<title>Node4&#45;&gt;Node2</title>
<g id="a_edge4_Node000004_Node000002"><a xlink:title=" ">
<path fill="none" stroke="#63b8ff" d="M592.6846,-123.2353C602.7175,-106.6512 611.5386,-84.2999 602,-66 593.7821,-50.234 578.2163,-38.3411 563.5625,-30.0231"/>
<polygon fill="#63b8ff" stroke="#63b8ff" points="589.6332,-121.5068 587.095,-131.7931 595.4938,-125.3348 589.6332,-121.5068"/>
</a>
</g>
</g>
<!-- Node4&#45;&gt;Node3 -->
<g id="edge5_Node000004_Node000003" class="edge">
<title>Node4&#45;&gt;Node3</title>
<g id="a_edge5_Node000004_Node000003"><a xlink:title=" ">
<path fill="none" stroke="#63b8ff" d="M517.183,-144.058C408.878,-137.9524 184.2089,-122.2434 161,-96 140.3051,-72.5993 176.3697,-46.1597 205.304,-30.0379"/>
<polygon fill="#63b8ff" stroke="#63b8ff" points="517.1116,-147.5593 527.2902,-144.6189 517.4996,-140.5701 517.1116,-147.5593"/>
</a>
</g>
</g>
<!-- Node5 -->
<g id="Node000005" class="node">
<title>Node5</title>
<g id="a_Node000005"><a xlink:href="potrSend_8c.html" target="_top" xlink:title="potrSend 関数の実装。">
<polygon fill="#ffffff" stroke="#666666" points="744.5,-96 649.5,-96 649.5,-66 744.5,-66 744.5,-96"/>
<text text-anchor="start" x="657.5" y="-84" font-family="Helvetica,sans-Serif" font-size="10.00" fill="#000000">porter/libsrc/porter</text>
<text text-anchor="middle" x="697" y="-73" font-family="Helvetica,sans-Serif" font-size="10.00" fill="#000000">/api/potrSend.c</text>
</a>
</g>
</g>
<!-- Node4&#45;&gt;Node5 -->
<g id="edge6_Node000004_Node000005" class="edge">
<title>Node4&#45;&gt;Node5</title>
<g id="a_edge6_Node000004_Node000005"><a xlink:title=" ">
<path fill="none" stroke="#63b8ff" d="M611.9684,-127.0007C630.3491,-117.057 652.1949,-105.2388 669.141,-96.0713"/>
<polygon fill="#63b8ff" stroke="#63b8ff" points="610.1193,-124.0216 602.9893,-131.8583 613.4501,-130.1784 610.1193,-124.0216"/>
</a>
</g>
</g>
<!-- Node4&#45;&gt;Node6 -->
<g id="edge7_Node000004_Node000006" class="edge">
<title>Node4&#45;&gt;Node6</title>
<g id="a_edge7_Node000004_Node000006"><a xlink:title=" ">
<path fill="none" stroke="#63b8ff" d="M516.9624,-144.5309C416.432,-139.5135 214.5571,-125.9608 151,-96 119.1016,-80.9631 91.4981,-49.2584 76.952,-30.2805"/>
<polygon fill="#63b8ff" stroke="#63b8ff" points="517.0856,-148.0409 527.2441,-145.0318 517.4264,-141.0492 517.0856,-148.0409"/>
</a>
</g>
</g>
<!-- Node7 -->
<g id="Node000007" class="node">
<title>Node7</title>
<g id="a_Node000007"><a xlink:href="potrHealthThread_8h.html" target="_top" xlink:title="ヘルスチェックスレッド内部ヘッダー。">
<polygon fill="#ffffff" stroke="#666666" points="302,-96 170,-96 170,-66 302,-66 302,-96"/>
<text text-anchor="start" x="178" y="-84" font-family="Helvetica,sans-Serif" font-size="10.00" fill="#000000">porter/libsrc/porter</text>
<text text-anchor="middle" x="236" y="-73" font-family="Helvetica,sans-Serif" font-size="10.00" fill="#000000">/thread/potrHealthThread.h</text>
</a>
</g>
</g>
<!-- Node4&#45;&gt;Node7 -->
<g id="edge8_Node000004_Node000007" class="edge">
<title>Node4&#45;&gt;Node7</title>
<g id="a_edge8_Node000004_Node000007"><a xlink:title=" ">
<path fill="none" stroke="#63b8ff" d="M517.309,-135.9681C463.8112,-125.7112 382.0007,-109.9579 311,-96 308.1336,-95.4365 305.2059,-94.8591 302.2487,-94.2742"/>
<polygon fill="#63b8ff" stroke="#63b8ff" points="516.8093,-139.4359 527.2894,-137.8808 518.1269,-132.5611 516.8093,-139.4359"/>
</a>
</g>
</g>
<!-- Node4&#45;&gt;Node8 -->
<g id="edge12_Node000004_Node000008" class="edge">
<title>Node4&#45;&gt;Node8</title>
<g id="a_edge12_Node000004_Node000008"><a xlink:title=" ">
<path fill="none" stroke="#63b8ff" d="M632.6926,-137.0367C673.0401,-128.9027 727.6116,-115.5328 773,-96 814.2946,-78.229 857.6311,-48.3408 882.0876,-30.2652"/>
<polygon fill="#63b8ff" stroke="#63b8ff" points="631.8914,-133.6271 622.7555,-138.9924 633.2432,-140.4954 631.8914,-133.6271"/>
</a>
</g>
</g>
<!-- Node9 -->
<g id="Node000009" class="node">
<title>Node9</title>
<g id="a_Node000009"><a xlink:href="potrRecvThread_8h.html" target="_top" xlink:title="受信スレッド内部ヘッダー。">
<polygon fill="#ffffff" stroke="#666666" points="592.5,-96 465.5,-96 465.5,-66 592.5,-66 592.5,-96"/>
<text text-anchor="start" x="473.5" y="-84" font-family="Helvetica,sans-Serif" font-size="10.00" fill="#000000">porter/libsrc/porter</text>
<text text-anchor="middle" x="529" y="-73" font-family="Helvetica,sans-Serif" font-size="10.00" fill="#000000">/thread/potrRecvThread.h</text>
</a>
</g>
</g>
<!-- Node4&#45;&gt;Node9 -->
<g id="edge13_Node000004_Node000009" class="edge">
<title>Node4&#45;&gt;Node9</title>
<g id="a_edge13_Node000004_Node000009"><a xlink:title=" ">
<path fill="none" stroke="#63b8ff" d="M558.5721,-123.4295C552.2627,-114.3769 545.2331,-104.2909 539.6111,-96.2246"/>
<polygon fill="#63b8ff" stroke="#63b8ff" points="555.7417,-125.4897 564.3311,-131.6924 561.4845,-121.4871 555.7417,-125.4897"/>
</a>
</g>
</g>
<!-- Node4&#45;&gt;Node10 -->
<g id="edge17_Node000004_Node000010" class="edge">
<title>Node4&#45;&gt;Node10</title>
<g id="a_edge17_Node000004_Node000010"><a xlink:title=" ">
<path fill="none" stroke="#63b8ff" d="M632.6776,-138.053C679.0628,-129.5645 738.9045,-115.2458 754,-96 768.6772,-77.2875 765.2834,-47.981 761.2814,-30.223"/>
<polygon fill="#63b8ff" stroke="#63b8ff" points="631.9396,-134.6293 622.7073,-139.827 633.1659,-141.521 631.9396,-134.6293"/>
</a>
</g>
</g>
<!-- Node11 -->
<g id="Node000011" class="node">
<title>Node11</title>
<g id="a_Node000011"><a xlink:href="potrSendThread_8h.html" target="_top" xlink:title="非同期送信スレッドの内部ヘッダー。">
<polygon fill="#ffffff" stroke="#666666" points="447.5,-96 320.5,-96 320.5,-66 447.5,-66 447.5,-96"/>
<text text-anchor="start" x="328.5" y="-84" font-family="Helvetica,sans-Serif" font-size="10.00" fill="#000000">porter/libsrc/porter</text>
<text text-anchor="middle" x="384" y="-73" font-family="Helvetica,sans-Serif" font-size="10.00" fill="#000000">/thread/potrSendThread.h</text>
</a>
</g>
</g>
<!-- Node4&#45;&gt;Node11 -->
<g id="edge18_Node000004_Node000011" class="edge">
<title>Node4&#45;&gt;Node11</title>
<g id="a_edge18_Node000004_Node000011"><a xlink:title=" ">
<path fill="none" stroke="#63b8ff" d="M521.4166,-128.4843C491.8019,-118.2509 455.4782,-105.6993 427.6154,-96.0713"/>
<polygon fill="#63b8ff" stroke="#63b8ff" points="520.586,-131.9003 531.1807,-131.8583 522.8722,-125.2841 520.586,-131.9003"/>
</a>
</g>
</g>
<!-- Node7&#45;&gt;Node2 -->
<g id="edge9_Node000007_Node000002" class="edge">
<title>Node7&#45;&gt;Node2</title>
<g id="a_edge9_Node000007_Node000002"><a xlink:title=" ">
<path fill="none" stroke="#63b8ff" d="M312.0637,-63.8662C361.1783,-52.8028 424.1538,-38.6172 469.5871,-28.3831"/>
<polygon fill="#63b8ff" stroke="#63b8ff" points="311.1067,-60.494 302.1203,-66.106 312.645,-67.3229 311.1067,-60.494"/>
</a>
</g>
</g>
<!-- Node7&#45;&gt;Node3 -->
<g id="edge10_Node000007_Node000003" class="edge">
<title>Node7&#45;&gt;Node3</title>
<g id="a_edge10_Node000007_Node000003"><a xlink:title=" ">
<path fill="none" stroke="#63b8ff" d="M236,-55.4546C236,-46.9317 236,-37.7088 236,-30.2246"/>
<polygon fill="#63b8ff" stroke="#63b8ff" points="232.5001,-55.6923 236,-65.6924 239.5001,-55.6924 232.5001,-55.6923"/>
</a>
</g>
</g>
<!-- Node7&#45;&gt;Node6 -->
<g id="edge11_Node000007_Node000006" class="edge">
<title>Node7&#45;&gt;Node6</title>
<g id="a_edge11_Node000007_Node000006"><a xlink:title=" ">
<path fill="none" stroke="#63b8ff" d="M187.619,-62.2168C161.3877,-52.0329 129.4037,-39.6156 104.82,-30.0713"/>
<polygon fill="#63b8ff" stroke="#63b8ff" points="186.4097,-65.5018 196.9986,-65.8583 188.9432,-58.9763 186.4097,-65.5018"/>
</a>
</g>
</g>
<!-- Node9&#45;&gt;Node2 -->
<g id="edge14_Node000009_Node000002" class="edge">
<title>Node9&#45;&gt;Node2</title>
<g id="a_edge14_Node000009_Node000002"><a xlink:title=" ">
<path fill="none" stroke="#63b8ff" d="M529,-55.4546C529,-46.9317 529,-37.7088 529,-30.2246"/>
<polygon fill="#63b8ff" stroke="#63b8ff" points="525.5001,-55.6923 529,-65.6924 532.5001,-55.6924 525.5001,-55.6923"/>
</a>
</g>
</g>
<!-- Node9&#45;&gt;Node3 -->
<g id="edge15_Node000009_Node000003" class="edge">
<title>Node9&#45;&gt;Node3</title>
<g id="a_edge15_Node000009_Node000003"><a xlink:title=" ">
<path fill="none" stroke="#63b8ff" d="M455.3586,-64.4118C405.5707,-53.1968 340.7215,-38.5892 294.4735,-28.1715"/>
<polygon fill="#63b8ff" stroke="#63b8ff" points="454.8986,-67.8959 465.4234,-66.679 456.4369,-61.067 454.8986,-67.8959"/>
</a>
</g>
</g>
<!-- Node9&#45;&gt;Node8 -->
<g id="edge16_Node000009_Node000008" class="edge">
<title>Node9&#45;&gt;Node8</title>
<g id="a_edge16_Node000009_Node000008"><a xlink:title=" ">
<path fill="none" stroke="#63b8ff" d="M602.4683,-69.3427C663.4977,-59.4695 752.544,-44.6249 830,-30 832.7603,-29.4788 835.5779,-28.9364 838.4225,-28.3803"/>
<polygon fill="#63b8ff" stroke="#63b8ff" points="601.8577,-65.8959 592.5431,-70.9445 602.9731,-72.8065 601.8577,-65.8959"/>
</a>
</g>
</g>
<!-- Node11&#45;&gt;Node2 -->
<g id="edge19_Node000011_Node000002" class="edge">
<title>Node11&#45;&gt;Node2</title>
<g id="a_edge19_Node000011_Node000002"><a xlink:title=" ">
<path fill="none" stroke="#63b8ff" d="M426.4482,-61.6788C448.5952,-51.598 475.2882,-39.4481 495.8889,-30.0713"/>
<polygon fill="#63b8ff" stroke="#63b8ff" points="424.9175,-58.5299 417.2659,-65.8583 427.8174,-64.901 424.9175,-58.5299"/>
</a>
</g>
</g>
<!-- Node11&#45;&gt;Node3 -->
<g id="edge20_Node000011_Node000003" class="edge">
<title>Node11&#45;&gt;Node3</title>
<g id="a_edge20_Node000011_Node000003"><a xlink:title=" ">
<path fill="none" stroke="#63b8ff" d="M340.6736,-61.6788C318.0683,-51.598 290.8231,-39.4481 269.7962,-30.0713"/>
<polygon fill="#63b8ff" stroke="#63b8ff" points="339.4873,-64.9819 350.0458,-65.8583 342.3383,-58.5888 339.4873,-64.9819"/>
</a>
</g>
</g>
<!-- Node11&#45;&gt;Node10 -->
<g id="edge21_Node000011_Node000010" class="edge">
<title>Node11&#45;&gt;Node10</title>
<g id="a_edge21_Node000011_Node000010"><a xlink:title=" ">
<path fill="none" stroke="#63b8ff" d="M457.6348,-65.7265C544.7489,-49.405 634.7165,-34.5126 693.4569,-25.0555"/>
<polygon fill="#63b8ff" stroke="#63b8ff" points="456.7574,-62.3301 447.5775,-67.6197 458.0524,-69.2092 456.7574,-62.3301"/>
</a>
</g>
</g>
</g>
</svg>

<g id="navigator" transform="translate(0 0)" fill="#404254">
  <rect fill="#f2f5e9" fill-opacity="0.5" stroke="#606060" stroke-width=".5" x="0" y="0" width="60" height="60"/>
  <use id="zoomplus" xlink:href="#zoomPlus" x="17" y="9" onmousedown="handleZoom(evt,'in')"/>
  <use id="zoomminus" xlink:href="#zoomMin" x="42" y="9" onmousedown="handleZoom(evt,'out')"/>
  <use id="reset" xlink:href="#resetDef" x="30" y="36" onmousedown="handleReset()"/>
   <use id="arrowup" xlink:href="#arrowUp" x="0" y="0" onmousedown="handlePan(0,-1)"/>
  <use id="arrowright" xlink:href="#arrowRight" x="0" y="0" onmousedown="handlePan(1,0)"/>
  <use id="arrowdown" xlink:href="#arrowDown" x="0" y="0" onmousedown="handlePan(0,1)"/>
  <use id="arrowleft" xlink:href="#arrowLeft" x="0" y="0" onmousedown="handlePan(-1,0)"/>
</g>
<svg viewBox="0 0 15 15" width="100%" height="30px" preserveAspectRatio="xMaxYMin meet">
 <g id="arrow_out" transform="scale(0.3 0.3)">
  <a xlink:href="window_8h__dep__incl_org.svg" target="_base">
   <rect id="button" ry="5" rx="5" y="6" x="6" height="38" width="38"
        fill="#f2f5e9" fill-opacity="0.5" stroke="#606060" stroke-width="1.0"/>
   <path id="arrow"
     d="M 11.500037,31.436501 C 11.940474,20.09759 22.043105,11.32322 32.158766,21.979434 L 37.068811,17.246167 C 37.068811,17.246167 37.088388,32 37.088388,32 L 22.160133,31.978069 C 22.160133,31.978069 26.997745,27.140456 26.997745,27.140456 C 18.528582,18.264221 13.291696,25.230495 11.500037,31.436501 z"
     style="fill:#404040;"/>
  </a>
 </g>
</svg>

<style type='text/css'>
<![CDATA[
[data-mouse-over-selected='false'] { opacity: 0.7; }
[data-mouse-over-selected='true']  { opacity: 1.0; }
]]>
</style>
<script type="application/ecmascript"><![CDATA[
document.addEventListener('DOMContentLoaded', (event) => {
  highlightEdges();
  highlightAdjacentNodes();
});
]]></script>
</svg>
