<?xml version="1.0" encoding="UTF-8" standalone="no"?>
<!DOCTYPE svg PUBLIC "-//W3C//DTD SVG 1.1//EN"
 "http://www.w3.org/Graphics/SVG/1.1/DTD/svg11.dtd">
<!-- Generated by graphviz version 2.40.1 (0)
 -->
<!-- Title: window_send_ack Pages: 1 -->
<svg width="240pt" height="64pt"
 viewBox="0.00 0.00 240.00 64.00" xmlns="http://www.w3.org/2000/svg" xmlns:xlink="http://www.w3.org/1999/xlink">
<g id="graph0" class="graph" transform="scale(1 1) rotate(0) translate(4 60)">
<title>window_send_ack</title>
<!-- Node1 -->
<g id="Node000001" class="node">
<title>Node1</title>
<g id="a_Node000001"><a xlink:title="ACK を処理して送信ウィンドウを前進させます。">
<polygon fill="#999999" stroke="#666666" points="95,-37 0,-37 0,-18 95,-18 95,-37"/>
<text text-anchor="middle" x="47.5" y="-25" font-family="Helvetica,sans-Serif" font-size="10.00" fill="#000000">window_send_ack</text>
</a>
</g>
</g>
<!-- Node2 -->
<g id="Node000002" class="node">
<title>Node2</title>
<g id="a_Node000002"><a xlink:href="seqnum_8c.html#a45fcfa48b2d66889a5b9b8f63650336a" target="_top" xlink:title="通番 seq がウィンドウ [base, base + window_size) に含まれるか判定します。">
<polygon fill="#ffffff" stroke="#666666" points="232,-56 131,-56 131,-37 232,-37 232,-56"/>
<text text-anchor="middle" x="181.5" y="-44" font-family="Helvetica,sans-Serif" font-size="10.00" fill="#000000">seqnum_in_window</text>
</a>
</g>
</g>
<!-- Node1&#45;&gt;Node2 -->
<g id="edge1_Node000001_Node000002" class="edge">
<title>Node1&#45;&gt;Node2</title>
<g id="a_edge1_Node000001_Node000002"><a xlink:title=" ">
<path fill="none" stroke="#63b8ff" d="M95.1207,-34.2522C103.4472,-35.4328 112.2106,-36.6754 120.8329,-37.898"/>
<polygon fill="#63b8ff" stroke="#63b8ff" points="120.4629,-41.3804 130.8553,-39.319 121.4457,-34.4497 120.4629,-41.3804"/>
</a>
</g>
</g>
<!-- Node3 -->
<g id="Node000003" class="node">
<title>Node3</title>
<g id="a_Node000003"><a xlink:href="window_8c.html#ad5f53882d6cd6075a78e83b94fb62cc3" target="_top" xlink:title=" ">
<polygon fill="#ffffff" stroke="#666666" points="211,-19 152,-19 152,0 211,0 211,-19"/>
<text text-anchor="middle" x="181.5" y="-7" font-family="Helvetica,sans-Serif" font-size="10.00" fill="#000000">win_index</text>
</a>
</g>
</g>
<!-- Node1&#45;&gt;Node3 -->
<g id="edge2_Node000001_Node000003" class="edge">
<title>Node1&#45;&gt;Node3</title>
<g id="a_edge2_Node000001_Node000003"><a xlink:title=" ">
<path fill="none" stroke="#63b8ff" d="M95.1207,-21.1032C110.375,-19.0541 127.0957,-16.808 141.7285,-14.8424"/>
<polygon fill="#63b8ff" stroke="#63b8ff" points="142.5186,-18.2678 151.9636,-13.4676 141.5866,-11.3301 142.5186,-18.2678"/>
</a>
</g>
</g>
</g>
</svg>
