<?xml version="1.0" encoding="UTF-8" standalone="no"?>
<!DOCTYPE svg PUBLIC "-//W3C//DTD SVG 1.1//EN"
 "http://www.w3.org/Graphics/SVG/1.1/DTD/svg11.dtd">
<!-- Generated by graphviz version 2.40.1 (0)
 -->
<!-- Title: window_init Pages: 1 -->
<!--zoomable 138 -->

<svg id="main" version="1.1" xmlns="http://www.w3.org/2000/svg" xmlns:xlink="http://www.w3.org/1999/xlink" xml:space="preserve" onload="init(evt)">

<style type="text/css"><![CDATA[
.node, .edge {opacity: 0.7;}
.node.selected, .edge.selected {opacity: 1;}
.edge:hover path { stroke: red; }
.edge:hover polygon { stroke: red; fill: red; }
]]></style>

<defs>
  <circle id="rim" cx="0" cy="0" r="7"/>
  <circle id="rim2" cx="0" cy="0" r="3.5"/>
  <g id="zoomPlus">
    <use xlink:href="#rim" fill="#404040"><set attributeName="fill" to="#808080" begin="zoomplus.mouseover" end="zoomplus.mouseout"/></use>
    <path d="M-4,0h8M0,-4v8" fill="none" stroke="white" stroke-width="1.5" pointer-events="none"/>
  </g>
  <g id="zoomMin">
    <use xlink:href="#rim" fill="#404040"><set attributeName="fill" to="#808080" begin="zoomminus.mouseover" end="zoomminus.mouseout"/></use>
    <path d="M-4,0h8" fill="none" stroke="white" stroke-width="1.5" pointer-events="none"/>
  </g>
  <g id="arrowUp" transform="translate(30 24)">
    <use xlink:href="#rim"/>
    <path pointer-events="none" fill="none" stroke="white" stroke-width="1.5" d="M0,-3.0v7 M-2.5,-0.5L0,-3.0L2.5,-0.5"/>
  </g>
  <g id="arrowRight" transform="rotate(90) translate(36 -43)">
    <use xlink:href="#rim"/>
    <path pointer-events="none" fill="none" stroke="white" stroke-width="1.5" d="M0,-3.0v7 M-2.5,-0.5L0,-3.0L2.5,-0.5"/>
  </g>
  <g id="arrowDown" transform="rotate(180) translate(-30 -48)">
    <use xlink:href="#rim"/>
    <path pointer-events="none" fill="none" stroke="white" stroke-width="1.5" d="M0,-3.0v7 M-2.5,-0.5L0,-3.0L2.5,-0.5"/>
  </g>
  <g id="arrowLeft" transform="rotate(270) translate(-36 17)">
    <use xlink:href="#rim"/>
    <path pointer-events="none" fill="none" stroke="white" stroke-width="1.5" d="M0,-3.0v7 M-2.5,-0.5L0,-3.0L2.5,-0.5"/>
  </g>
  <g id="resetDef">
    <use xlink:href="#rim2" fill="#404040"><set attributeName="fill" to="#808080" begin="reset.mouseover" end="reset.mouseout"/></use>
  </g>
</defs>
<script type="application/ecmascript">
var viewWidth = 735;
var viewHeight = 138;
var sectionId = 'dynsection-1';
</script>
<script type="application/ecmascript" xlink:href="svg.min.js"/>
<svg id="graph" class="graph">
<g id="viewport">
<title>window_init</title>
<!-- Node1 -->
<g id="Node000001" class="node">
<title>Node1</title>
<g id="a_Node000001"><a xlink:title="ウィンドウを初期化します。">
<polygon fill="#999999" stroke="#666666" points="727,-72.5596 661,-72.5596 661,-53.5596 727,-53.5596 727,-72.5596"/>
<text text-anchor="middle" x="694" y="-60.5596" font-family="Helvetica,sans-Serif" font-size="10.00" fill="#000000">window_init</text>
</a>
</g>
</g>
<!-- Node2 -->
<g id="Node000002" class="node">
<title>Node2</title>
<g id="a_Node000002"><a xlink:href="potrRecvThread_8c.html#aa7706a3d13b19d6f86696195cb2d9190" target="_top" xlink:title=" ">
<polygon fill="#ffffff" stroke="#666666" points="625,-129.5596 488,-129.5596 488,-110.5596 625,-110.5596 625,-129.5596"/>
<text text-anchor="middle" x="556.5" y="-117.5596" font-family="Helvetica,sans-Serif" font-size="10.00" fill="#000000">check_and_update_session</text>
</a>
</g>
</g>
<!-- Node1&#45;&gt;Node2 -->
<g id="edge1_Node000001_Node000002" class="edge">
<title>Node1&#45;&gt;Node2</title>
<g id="a_edge1_Node000001_Node000002"><a xlink:title=" ">
<path fill="none" stroke="#63b8ff" d="M666.498,-77.061C653.9802,-83.213 638.8885,-90.3254 625,-96.0596 612.4207,-101.2532 598.2637,-106.3362 586.099,-110.4776"/>
<polygon fill="#63b8ff" stroke="#63b8ff" points="668.1098,-80.1684 675.5061,-72.5825 664.9935,-73.9003 668.1098,-80.1684"/>
</a>
</g>
</g>
<!-- Node3 -->
<g id="Node000003" class="node">
<title>Node3</title>
<g id="a_Node000003"><a xlink:href="potrRecvThread_8c.html#a300c2d6c99e3491d0ee4c7cb4de36146" target="_top" xlink:title=" ">
<polygon fill="#ffffff" stroke="#666666" points="452,-81.5596 360,-81.5596 360,-62.5596 452,-62.5596 452,-81.5596"/>
<text text-anchor="middle" x="406" y="-69.5596" font-family="Helvetica,sans-Serif" font-size="10.00" fill="#000000">recv_thread_func</text>
</a>
</g>
</g>
<!-- Node1&#45;&gt;Node3 -->
<g id="edge9_Node000001_Node000003" class="edge">
<title>Node1&#45;&gt;Node3</title>
<g id="a_edge9_Node000001_Node000003"><a xlink:title=" ">
<path fill="none" stroke="#63b8ff" d="M650.7979,-64.4097C597.3914,-66.0786 506.8738,-68.9073 452.1449,-70.6176"/>
<polygon fill="#63b8ff" stroke="#63b8ff" points="651.077,-67.9027 660.9627,-64.092 650.8583,-60.9062 651.077,-67.9027"/>
</a>
</g>
</g>
<!-- Node5 -->
<g id="Node000005" class="node">
<title>Node5</title>
<g id="a_Node000005"><a xlink:href="potrOpenService_8c.html#a8ce1599677086e0c54400b696ed28680" target="_top" xlink:title="設定ファイルから指定サービスを開きます。">
<polygon fill="#ffffff" stroke="#666666" points="163,-34.5596 74,-34.5596 74,-15.5596 163,-15.5596 163,-34.5596"/>
<text text-anchor="middle" x="118.5" y="-22.5596" font-family="Helvetica,sans-Serif" font-size="10.00" fill="#000000">potrOpenService</text>
</a>
</g>
</g>
<!-- Node1&#45;&gt;Node5 -->
<g id="edge8_Node000001_Node000005" class="edge">
<title>Node1&#45;&gt;Node5</title>
<g id="a_edge8_Node000001_Node000005"><a xlink:title=" ">
<path fill="none" stroke="#63b8ff" d="M672.8218,-47.7227C659.7424,-39.2173 642.2182,-29.4873 625,-25.0596 459.1445,17.5907 252.5095,-4.6508 163.1257,-17.7351"/>
<polygon fill="#63b8ff" stroke="#63b8ff" points="670.8658,-50.6251 681.1082,-53.3352 674.7913,-44.8294 670.8658,-50.6251"/>
</a>
</g>
</g>
<!-- Node7 -->
<g id="Node000007" class="node">
<title>Node7</title>
<g id="a_Node000007"><a xlink:href="potrRecvThread_8c.html#acffd59e7efedff4fe46050ebfb68be25" target="_top" xlink:title=" ">
<polygon fill="#ffffff" stroke="#666666" points="612.5,-53.5596 500.5,-53.5596 500.5,-34.5596 612.5,-34.5596 612.5,-53.5596"/>
<text text-anchor="middle" x="556.5" y="-41.5596" font-family="Helvetica,sans-Serif" font-size="10.00" fill="#000000">check_health_timeout</text>
</a>
</g>
</g>
<!-- Node1&#45;&gt;Node7 -->
<g id="edge6_Node000001_Node000007" class="edge">
<title>Node1&#45;&gt;Node7</title>
<g id="a_edge6_Node000001_Node000007"><a xlink:title=" ">
<path fill="none" stroke="#63b8ff" d="M650.4841,-57.0465C638.4392,-55.3821 625.1944,-53.5519 612.5443,-51.8039"/>
<polygon fill="#63b8ff" stroke="#63b8ff" points="650.3301,-60.5584 660.7151,-58.4602 651.2883,-53.6243 650.3301,-60.5584"/>
</a>
</g>
</g>
<!-- Node2&#45;&gt;Node3 -->
<g id="edge2_Node000002_Node000003" class="edge">
<title>Node2&#45;&gt;Node3</title>
<g id="a_edge2_Node000002_Node000003"><a xlink:title=" ">
<path fill="none" stroke="#63b8ff" d="M516.7359,-107.3774C491.4384,-99.3091 459.2013,-89.0275 436.042,-81.6411"/>
<polygon fill="#63b8ff" stroke="#63b8ff" points="515.8151,-110.7573 526.4058,-110.4614 517.9421,-104.0883 515.8151,-110.7573"/>
</a>
</g>
</g>
<!-- Node4 -->
<g id="Node000004" class="node">
<title>Node4</title>
<g id="a_Node000004"><a xlink:href="potrRecvThread_8c.html#a1006d5ccaf47db6c24908eb7ae366505" target="_top" xlink:title="受信スレッドを起動します。">
<polygon fill="#ffffff" stroke="#666666" points="324,-72.5596 199,-72.5596 199,-53.5596 324,-53.5596 324,-72.5596"/>
<text text-anchor="middle" x="261.5" y="-60.5596" font-family="Helvetica,sans-Serif" font-size="10.00" fill="#000000">comm_recv_thread_start</text>
</a>
</g>
</g>
<!-- Node3&#45;&gt;Node4 -->
<g id="edge3_Node000003_Node000004" class="edge">
<title>Node3&#45;&gt;Node4</title>
<g id="a_edge3_Node000003_Node000004"><a xlink:title=" ">
<path fill="none" stroke="#63b8ff" d="M349.7793,-68.558C341.345,-68.0326 332.6039,-67.4882 324.0476,-66.9553"/>
<polygon fill="#63b8ff" stroke="#63b8ff" points="349.6837,-72.0587 359.882,-69.1872 350.1189,-65.0722 349.6837,-72.0587"/>
</a>
</g>
</g>
<!-- Node4&#45;&gt;Node5 -->
<g id="edge4_Node000004_Node000005" class="edge">
<title>Node4&#45;&gt;Node5</title>
<g id="a_edge4_Node000004_Node000005"><a xlink:title=" ">
<path fill="none" stroke="#63b8ff" d="M215.6867,-50.8854C195.9129,-45.6309 173.1162,-39.573 154.5734,-34.6455"/>
<polygon fill="#63b8ff" stroke="#63b8ff" points="214.8516,-54.2849 225.4151,-53.4706 216.6494,-47.5197 214.8516,-54.2849"/>
</a>
</g>
</g>
<!-- Node6 -->
<g id="Node000006" class="node">
<title>Node6</title>
<g id="a_Node000006"><a xlink:href="recv_8c.html#a0ddf1224851353fc92bfbff6f499fa97" target="_top" xlink:title="メインエントリーポイント。">
<polygon fill="#ffffff" stroke="#666666" points="38,-34.5596 0,-34.5596 0,-15.5596 38,-15.5596 38,-34.5596"/>
<text text-anchor="middle" x="19" y="-22.5596" font-family="Helvetica,sans-Serif" font-size="10.00" fill="#000000">main</text>
</a>
</g>
</g>
<!-- Node5&#45;&gt;Node6 -->
<g id="edge5_Node000005_Node000006" class="edge">
<title>Node5&#45;&gt;Node6</title>
<g id="a_edge5_Node000005_Node000006"><a xlink:title=" ">
<path fill="none" stroke="#63b8ff" d="M63.8932,-25.0596C54.615,-25.0596 45.5643,-25.0596 38.0485,-25.0596"/>
<polygon fill="#63b8ff" stroke="#63b8ff" points="63.9885,-28.5597 73.9884,-25.0596 63.9884,-21.5597 63.9885,-28.5597"/>
</a>
</g>
</g>
<!-- Node7&#45;&gt;Node3 -->
<g id="edge7_Node000007_Node000003" class="edge">
<title>Node7&#45;&gt;Node3</title>
<g id="a_edge7_Node000007_Node000003"><a xlink:title=" ">
<path fill="none" stroke="#63b8ff" d="M495.2832,-55.4488C480.8599,-58.1322 465.7235,-60.9482 452.096,-63.4836"/>
<polygon fill="#63b8ff" stroke="#63b8ff" points="495.9363,-58.8874 505.1274,-53.6173 494.6559,-52.0055 495.9363,-58.8874"/>
</a>
</g>
</g>
</g>
</svg>

<g id="navigator" transform="translate(0 0)" fill="#404254">
  <rect fill="#f2f5e9" fill-opacity="0.5" stroke="#606060" stroke-width=".5" x="0" y="0" width="60" height="60"/>
  <use id="zoomplus" xlink:href="#zoomPlus" x="17" y="9" onmousedown="handleZoom(evt,'in')"/>
  <use id="zoomminus" xlink:href="#zoomMin" x="42" y="9" onmousedown="handleZoom(evt,'out')"/>
  <use id="reset" xlink:href="#resetDef" x="30" y="36" onmousedown="handleReset()"/>
   <use id="arrowup" xlink:href="#arrowUp" x="0" y="0" onmousedown="handlePan(0,-1)"/>
  <use id="arrowright" xlink:href="#arrowRight" x="0" y="0" onmousedown="handlePan(1,0)"/>
  <use id="arrowdown" xlink:href="#arrowDown" x="0" y="0" onmousedown="handlePan(0,1)"/>
  <use id="arrowleft" xlink:href="#arrowLeft" x="0" y="0" onmousedown="handlePan(-1,0)"/>
</g>
<svg viewBox="0 0 15 15" width="100%" height="30px" preserveAspectRatio="xMaxYMin meet">
 <g id="arrow_out" transform="scale(0.3 0.3)">
  <a xlink:href="window_8c_a2589115bd38c8d2dcbc47ef7ef87e8a7_icgraph_org.svg" target="_base">
   <rect id="button" ry="5" rx="5" y="6" x="6" height="38" width="38"
        fill="#f2f5e9" fill-opacity="0.5" stroke="#606060" stroke-width="1.0"/>
   <path id="arrow"
     d="M 11.500037,31.436501 C 11.940474,20.09759 22.043105,11.32322 32.158766,21.979434 L 37.068811,17.246167 C 37.068811,17.246167 37.088388,32 37.088388,32 L 22.160133,31.978069 C 22.160133,31.978069 26.997745,27.140456 26.997745,27.140456 C 18.528582,18.264221 13.291696,25.230495 11.500037,31.436501 z"
     style="fill:#404040;"/>
  </a>
 </g>
</svg>

<style type='text/css'>
<![CDATA[
[data-mouse-over-selected='false'] { opacity: 0.7; }
[data-mouse-over-selected='true']  { opacity: 1.0; }
]]>
</style>
<script type="application/ecmascript"><![CDATA[
document.addEventListener('DOMContentLoaded', (event) => {
  highlightEdges();
  highlightAdjacentNodes();
});
]]></script>
</svg>
