<?xml version="1.0" encoding="UTF-8" standalone="no"?>
<!DOCTYPE svg PUBLIC "-//W3C//DTD SVG 1.1//EN"
 "http://www.w3.org/Graphics/SVG/1.1/DTD/svg11.dtd">
<!-- Generated by graphviz version 2.40.1 (0)
 -->
<!-- Title: window_init Pages: 1 -->
<svg width="735pt" height="138pt"
 viewBox="0.00 0.00 735.00 137.56" xmlns="http://www.w3.org/2000/svg" xmlns:xlink="http://www.w3.org/1999/xlink">
<g id="graph0" class="graph" transform="scale(1 1) rotate(0) translate(4 133.5596)">
<title>window_init</title>
<!-- Node1 -->
<g id="Node000001" class="node">
<title>Node1</title>
<g id="a_Node000001"><a xlink:title="ウィンドウを初期化します。">
<polygon fill="#999999" stroke="#666666" points="727,-72.5596 661,-72.5596 661,-53.5596 727,-53.5596 727,-72.5596"/>
<text text-anchor="middle" x="694" y="-60.5596" font-family="Helvetica,sans-Serif" font-size="10.00" fill="#000000">window_init</text>
</a>
</g>
</g>
<!-- Node2 -->
<g id="Node000002" class="node">
<title>Node2</title>
<g id="a_Node000002"><a xlink:href="potrRecvThread_8c.html#aa7706a3d13b19d6f86696195cb2d9190" target="_top" xlink:title=" ">
<polygon fill="#ffffff" stroke="#666666" points="625,-129.5596 488,-129.5596 488,-110.5596 625,-110.5596 625,-129.5596"/>
<text text-anchor="middle" x="556.5" y="-117.5596" font-family="Helvetica,sans-Serif" font-size="10.00" fill="#000000">check_and_update_session</text>
</a>
</g>
</g>
<!-- Node1&#45;&gt;Node2 -->
<g id="edge1_Node000001_Node000002" class="edge">
<title>Node1&#45;&gt;Node2</title>
<g id="a_edge1_Node000001_Node000002"><a xlink:title=" ">
<path fill="none" stroke="#63b8ff" d="M666.498,-77.061C653.9802,-83.213 638.8885,-90.3254 625,-96.0596 612.4207,-101.2532 598.2637,-106.3362 586.099,-110.4776"/>
<polygon fill="#63b8ff" stroke="#63b8ff" points="668.1098,-80.1684 675.5061,-72.5825 664.9935,-73.9003 668.1098,-80.1684"/>
</a>
</g>
</g>
<!-- Node3 -->
<g id="Node000003" class="node">
<title>Node3</title>
<g id="a_Node000003"><a xlink:href="potrRecvThread_8c.html#a300c2d6c99e3491d0ee4c7cb4de36146" target="_top" xlink:title=" ">
<polygon fill="#ffffff" stroke="#666666" points="452,-81.5596 360,-81.5596 360,-62.5596 452,-62.5596 452,-81.5596"/>
<text text-anchor="middle" x="406" y="-69.5596" font-family="Helvetica,sans-Serif" font-size="10.00" fill="#000000">recv_thread_func</text>
</a>
</g>
</g>
<!-- Node1&#45;&gt;Node3 -->
<g id="edge9_Node000001_Node000003" class="edge">
<title>Node1&#45;&gt;Node3</title>
<g id="a_edge9_Node000001_Node000003"><a xlink:title=" ">
<path fill="none" stroke="#63b8ff" d="M650.7979,-64.4097C597.3914,-66.0786 506.8738,-68.9073 452.1449,-70.6176"/>
<polygon fill="#63b8ff" stroke="#63b8ff" points="651.077,-67.9027 660.9627,-64.092 650.8583,-60.9062 651.077,-67.9027"/>
</a>
</g>
</g>
<!-- Node5 -->
<g id="Node000005" class="node">
<title>Node5</title>
<g id="a_Node000005"><a xlink:href="potrOpenService_8c.html#a8ce1599677086e0c54400b696ed28680" target="_top" xlink:title="設定ファイルから指定サービスを開きます。">
<polygon fill="#ffffff" stroke="#666666" points="163,-34.5596 74,-34.5596 74,-15.5596 163,-15.5596 163,-34.5596"/>
<text text-anchor="middle" x="118.5" y="-22.5596" font-family="Helvetica,sans-Serif" font-size="10.00" fill="#000000">potrOpenService</text>
</a>
</g>
</g>
<!-- Node1&#45;&gt;Node5 -->
<g id="edge8_Node000001_Node000005" class="edge">
<title>Node1&#45;&gt;Node5</title>
<g id="a_edge8_Node000001_Node000005"><a xlink:title=" ">
<path fill="none" stroke="#63b8ff" d="M672.8218,-47.7227C659.7424,-39.2173 642.2182,-29.4873 625,-25.0596 459.1445,17.5907 252.5095,-4.6508 163.1257,-17.7351"/>
<polygon fill="#63b8ff" stroke="#63b8ff" points="670.8658,-50.6251 681.1082,-53.3352 674.7913,-44.8294 670.8658,-50.6251"/>
</a>
</g>
</g>
<!-- Node7 -->
<g id="Node000007" class="node">
<title>Node7</title>
<g id="a_Node000007"><a xlink:href="potrRecvThread_8c.html#acffd59e7efedff4fe46050ebfb68be25" target="_top" xlink:title=" ">
<polygon fill="#ffffff" stroke="#666666" points="612.5,-53.5596 500.5,-53.5596 500.5,-34.5596 612.5,-34.5596 612.5,-53.5596"/>
<text text-anchor="middle" x="556.5" y="-41.5596" font-family="Helvetica,sans-Serif" font-size="10.00" fill="#000000">check_health_timeout</text>
</a>
</g>
</g>
<!-- Node1&#45;&gt;Node7 -->
<g id="edge6_Node000001_Node000007" class="edge">
<title>Node1&#45;&gt;Node7</title>
<g id="a_edge6_Node000001_Node000007"><a xlink:title=" ">
<path fill="none" stroke="#63b8ff" d="M650.4841,-57.0465C638.4392,-55.3821 625.1944,-53.5519 612.5443,-51.8039"/>
<polygon fill="#63b8ff" stroke="#63b8ff" points="650.3301,-60.5584 660.7151,-58.4602 651.2883,-53.6243 650.3301,-60.5584"/>
</a>
</g>
</g>
<!-- Node2&#45;&gt;Node3 -->
<g id="edge2_Node000002_Node000003" class="edge">
<title>Node2&#45;&gt;Node3</title>
<g id="a_edge2_Node000002_Node000003"><a xlink:title=" ">
<path fill="none" stroke="#63b8ff" d="M516.7359,-107.3774C491.4384,-99.3091 459.2013,-89.0275 436.042,-81.6411"/>
<polygon fill="#63b8ff" stroke="#63b8ff" points="515.8151,-110.7573 526.4058,-110.4614 517.9421,-104.0883 515.8151,-110.7573"/>
</a>
</g>
</g>
<!-- Node4 -->
<g id="Node000004" class="node">
<title>Node4</title>
<g id="a_Node000004"><a xlink:href="potrRecvThread_8c.html#a1006d5ccaf47db6c24908eb7ae366505" target="_top" xlink:title="受信スレッドを起動します。">
<polygon fill="#ffffff" stroke="#666666" points="324,-72.5596 199,-72.5596 199,-53.5596 324,-53.5596 324,-72.5596"/>
<text text-anchor="middle" x="261.5" y="-60.5596" font-family="Helvetica,sans-Serif" font-size="10.00" fill="#000000">comm_recv_thread_start</text>
</a>
</g>
</g>
<!-- Node3&#45;&gt;Node4 -->
<g id="edge3_Node000003_Node000004" class="edge">
<title>Node3&#45;&gt;Node4</title>
<g id="a_edge3_Node000003_Node000004"><a xlink:title=" ">
<path fill="none" stroke="#63b8ff" d="M349.7793,-68.558C341.345,-68.0326 332.6039,-67.4882 324.0476,-66.9553"/>
<polygon fill="#63b8ff" stroke="#63b8ff" points="349.6837,-72.0587 359.882,-69.1872 350.1189,-65.0722 349.6837,-72.0587"/>
</a>
</g>
</g>
<!-- Node4&#45;&gt;Node5 -->
<g id="edge4_Node000004_Node000005" class="edge">
<title>Node4&#45;&gt;Node5</title>
<g id="a_edge4_Node000004_Node000005"><a xlink:title=" ">
<path fill="none" stroke="#63b8ff" d="M215.6867,-50.8854C195.9129,-45.6309 173.1162,-39.573 154.5734,-34.6455"/>
<polygon fill="#63b8ff" stroke="#63b8ff" points="214.8516,-54.2849 225.4151,-53.4706 216.6494,-47.5197 214.8516,-54.2849"/>
</a>
</g>
</g>
<!-- Node6 -->
<g id="Node000006" class="node">
<title>Node6</title>
<g id="a_Node000006"><a xlink:href="recv_8c.html#a0ddf1224851353fc92bfbff6f499fa97" target="_top" xlink:title="メインエントリーポイント。">
<polygon fill="#ffffff" stroke="#666666" points="38,-34.5596 0,-34.5596 0,-15.5596 38,-15.5596 38,-34.5596"/>
<text text-anchor="middle" x="19" y="-22.5596" font-family="Helvetica,sans-Serif" font-size="10.00" fill="#000000">main</text>
</a>
</g>
</g>
<!-- Node5&#45;&gt;Node6 -->
<g id="edge5_Node000005_Node000006" class="edge">
<title>Node5&#45;&gt;Node6</title>
<g id="a_edge5_Node000005_Node000006"><a xlink:title=" ">
<path fill="none" stroke="#63b8ff" d="M63.8932,-25.0596C54.615,-25.0596 45.5643,-25.0596 38.0485,-25.0596"/>
<polygon fill="#63b8ff" stroke="#63b8ff" points="63.9885,-28.5597 73.9884,-25.0596 63.9884,-21.5597 63.9885,-28.5597"/>
</a>
</g>
</g>
<!-- Node7&#45;&gt;Node3 -->
<g id="edge7_Node000007_Node000003" class="edge">
<title>Node7&#45;&gt;Node3</title>
<g id="a_edge7_Node000007_Node000003"><a xlink:title=" ">
<path fill="none" stroke="#63b8ff" d="M495.2832,-55.4488C480.8599,-58.1322 465.7235,-60.9482 452.096,-63.4836"/>
<polygon fill="#63b8ff" stroke="#63b8ff" points="495.9363,-58.8874 505.1274,-53.6173 494.6559,-52.0055 495.9363,-58.8874"/>
</a>
</g>
</g>
</g>
</svg>
