<?xml version="1.0" encoding="UTF-8" standalone="no"?>
<!DOCTYPE svg PUBLIC "-//W3C//DTD SVG 1.1//EN"
 "http://www.w3.org/Graphics/SVG/1.1/DTD/svg11.dtd">
<!-- Generated by graphviz version 2.40.1 (0)
 -->
<!-- Title: win_index Pages: 1 -->
<svg width="721pt" height="175pt"
 viewBox="0.00 0.00 721.00 175.00" xmlns="http://www.w3.org/2000/svg" xmlns:xlink="http://www.w3.org/1999/xlink">
<g id="graph0" class="graph" transform="scale(1 1) rotate(0) translate(4 171)">
<title>win_index</title>
<!-- Node1 -->
<g id="Node000001" class="node">
<title>Node1</title>
<g id="a_Node000001"><a xlink:title=" ">
<polygon fill="#999999" stroke="#666666" points="713,-93 654,-93 654,-74 713,-74 713,-93"/>
<text text-anchor="middle" x="683.5" y="-81" font-family="Helvetica,sans-Serif" font-size="10.00" fill="#000000">win_index</text>
</a>
</g>
</g>
<!-- Node2 -->
<g id="Node000002" class="node">
<title>Node2</title>
<g id="a_Node000002"><a xlink:href="window_8c.html#a6ecfb9f52ac33918ba6f8cd0386b17c2" target="_top" xlink:title="受信ウィンドウで欠番が発生しているか確認し、NACK 番号を返します。">
<polygon fill="#ffffff" stroke="#666666" points="618,-167 488,-167 488,-148 618,-148 618,-167"/>
<text text-anchor="middle" x="553" y="-155" font-family="Helvetica,sans-Serif" font-size="10.00" fill="#000000">window_recv_needs_nack</text>
</a>
</g>
</g>
<!-- Node1&#45;&gt;Node2 -->
<g id="edge1_Node000001_Node000002" class="edge">
<title>Node1&#45;&gt;Node2</title>
<g id="a_edge1_Node000001_Node000002"><a xlink:title=" ">
<path fill="none" stroke="#63b8ff" d="M667.4525,-100.7983C655.0458,-113.2189 636.8543,-129.4733 618,-139.5 611.6936,-142.8537 604.702,-145.6312 597.7098,-147.9166"/>
<polygon fill="#63b8ff" stroke="#63b8ff" points="670.2771,-102.9126 674.7188,-93.2938 665.2482,-98.0433 670.2771,-102.9126"/>
</a>
</g>
</g>
<!-- Node7 -->
<g id="Node000007" class="node">
<title>Node7</title>
<g id="a_Node000007"><a xlink:href="window_8c.html#a883a182a547ff084957069939b131527" target="_top" xlink:title="受信ウィンドウから順序整列済みパケットを取り出します。">
<polygon fill="#ffffff" stroke="#666666" points="599.5,-130 506.5,-130 506.5,-111 599.5,-111 599.5,-130"/>
<text text-anchor="middle" x="553" y="-118" font-family="Helvetica,sans-Serif" font-size="10.00" fill="#000000">window_recv_pop</text>
</a>
</g>
</g>
<!-- Node1&#45;&gt;Node7 -->
<g id="edge6_Node000001_Node000007" class="edge">
<title>Node1&#45;&gt;Node7</title>
<g id="a_edge6_Node000001_Node000007"><a xlink:title=" ">
<path fill="none" stroke="#63b8ff" d="M644.0476,-95.0284C635.4665,-97.5124 626.4332,-100.1093 618,-102.5 608.199,-105.2785 597.5526,-108.2473 587.7672,-110.9563"/>
<polygon fill="#63b8ff" stroke="#63b8ff" points="645.2221,-98.3321 653.8503,-92.1835 643.271,-91.6095 645.2221,-98.3321"/>
</a>
</g>
</g>
<!-- Node8 -->
<g id="Node000008" class="node">
<title>Node8</title>
<g id="a_Node000008"><a xlink:href="window_8c.html#ac134e864859663f32389cf30fe55bc6e" target="_top" xlink:title="受信ウィンドウにパケットを格納します。">
<polygon fill="#ffffff" stroke="#666666" points="602,-93 504,-93 504,-74 602,-74 602,-93"/>
<text text-anchor="middle" x="553" y="-81" font-family="Helvetica,sans-Serif" font-size="10.00" fill="#000000">window_recv_push</text>
</a>
</g>
</g>
<!-- Node1&#45;&gt;Node8 -->
<g id="edge8_Node000001_Node000008" class="edge">
<title>Node1&#45;&gt;Node8</title>
<g id="a_edge8_Node000001_Node000008"><a xlink:title=" ">
<path fill="none" stroke="#63b8ff" d="M643.7765,-83.5C630.6698,-83.5 615.9319,-83.5 602.2042,-83.5"/>
<polygon fill="#63b8ff" stroke="#63b8ff" points="643.8876,-87.0001 653.8875,-83.5 643.8875,-80.0001 643.8876,-87.0001"/>
</a>
</g>
</g>
<!-- Node9 -->
<g id="Node000009" class="node">
<title>Node9</title>
<g id="a_Node000009"><a xlink:href="window_8c.html#aa3c39809a6b6c7275a2539d6edf95036" target="_top" xlink:title="ACK を処理して送信ウィンドウを前進させます。">
<polygon fill="#ffffff" stroke="#666666" points="600.5,-56 505.5,-56 505.5,-37 600.5,-37 600.5,-56"/>
<text text-anchor="middle" x="553" y="-44" font-family="Helvetica,sans-Serif" font-size="10.00" fill="#000000">window_send_ack</text>
</a>
</g>
</g>
<!-- Node1&#45;&gt;Node9 -->
<g id="edge10_Node000001_Node000009" class="edge">
<title>Node1&#45;&gt;Node9</title>
<g id="a_edge10_Node000001_Node000009"><a xlink:title=" ">
<path fill="none" stroke="#63b8ff" d="M644.0849,-72.3248C625.7565,-67.1283 604.1848,-61.0122 586.6361,-56.0367"/>
<polygon fill="#63b8ff" stroke="#63b8ff" points="643.312,-75.7436 653.8875,-75.1041 645.2215,-69.009 643.312,-75.7436"/>
</a>
</g>
</g>
<!-- Node10 -->
<g id="Node000010" class="node">
<title>Node10</title>
<g id="a_Node000010"><a xlink:href="window_8c.html#a194f99cfb5f1631fb7643c1838a5278a" target="_top" xlink:title="送信ウィンドウにパケットを積みます。">
<polygon fill="#ffffff" stroke="#666666" points="603.5,-19 502.5,-19 502.5,0 603.5,0 603.5,-19"/>
<text text-anchor="middle" x="553" y="-7" font-family="Helvetica,sans-Serif" font-size="10.00" fill="#000000">window_send_push</text>
</a>
</g>
</g>
<!-- Node1&#45;&gt;Node10 -->
<g id="edge12_Node000001_Node000010" class="edge">
<title>Node1&#45;&gt;Node10</title>
<g id="a_edge12_Node000001_Node000010"><a xlink:title=" ">
<path fill="none" stroke="#63b8ff" d="M667.4525,-66.2017C655.0458,-53.7811 636.8543,-37.5267 618,-27.5 611.6936,-24.1463 604.702,-21.3688 597.7098,-19.0834"/>
<polygon fill="#63b8ff" stroke="#63b8ff" points="665.2482,-68.9567 674.7188,-73.7062 670.2771,-64.0874 665.2482,-68.9567"/>
</a>
</g>
</g>
<!-- Node3 -->
<g id="Node000003" class="node">
<title>Node3</title>
<g id="a_Node000003"><a xlink:href="potrRecvThread_8c.html#a300c2d6c99e3491d0ee4c7cb4de36146" target="_top" xlink:title=" ">
<polygon fill="#ffffff" stroke="#666666" points="452,-111 360,-111 360,-92 452,-92 452,-111"/>
<text text-anchor="middle" x="406" y="-99" font-family="Helvetica,sans-Serif" font-size="10.00" fill="#000000">recv_thread_func</text>
</a>
</g>
</g>
<!-- Node2&#45;&gt;Node3 -->
<g id="edge2_Node000002_Node000003" class="edge">
<title>Node2&#45;&gt;Node3</title>
<g id="a_edge2_Node000002_Node000003"><a xlink:title=" ">
<path fill="none" stroke="#63b8ff" d="M504.911,-145.1417C499.1675,-143.3842 493.4218,-141.4917 488,-139.5 465.6133,-131.2761 440.9026,-119.4216 424.5198,-111.1471"/>
<polygon fill="#63b8ff" stroke="#63b8ff" points="503.9361,-148.5032 514.5173,-147.9658 505.9105,-141.7874 503.9361,-148.5032"/>
</a>
</g>
</g>
<!-- Node4 -->
<g id="Node000004" class="node">
<title>Node4</title>
<g id="a_Node000004"><a xlink:href="potrRecvThread_8c.html#a1006d5ccaf47db6c24908eb7ae366505" target="_top" xlink:title="受信スレッドを起動します。">
<polygon fill="#ffffff" stroke="#666666" points="324,-111 199,-111 199,-92 324,-92 324,-111"/>
<text text-anchor="middle" x="261.5" y="-99" font-family="Helvetica,sans-Serif" font-size="10.00" fill="#000000">comm_recv_thread_start</text>
</a>
</g>
</g>
<!-- Node3&#45;&gt;Node4 -->
<g id="edge3_Node000003_Node000004" class="edge">
<title>Node3&#45;&gt;Node4</title>
<g id="a_edge3_Node000003_Node000004"><a xlink:title=" ">
<path fill="none" stroke="#63b8ff" d="M349.7793,-101.5C341.345,-101.5 332.6039,-101.5 324.0476,-101.5"/>
<polygon fill="#63b8ff" stroke="#63b8ff" points="349.882,-105.0001 359.882,-101.5 349.882,-98.0001 349.882,-105.0001"/>
</a>
</g>
</g>
<!-- Node5 -->
<g id="Node000005" class="node">
<title>Node5</title>
<g id="a_Node000005"><a xlink:href="potrOpenService_8c.html#a7b5bb6c02c8f7ca7eaa193b07bbe7cba" target="_top" xlink:title="設定ファイルから指定サービスを開きます。">
<polygon fill="#ffffff" stroke="#666666" points="163,-111 74,-111 74,-92 163,-92 163,-111"/>
<text text-anchor="middle" x="118.5" y="-99" font-family="Helvetica,sans-Serif" font-size="10.00" fill="#000000">potrOpenService</text>
</a>
</g>
</g>
<!-- Node4&#45;&gt;Node5 -->
<g id="edge4_Node000004_Node000005" class="edge">
<title>Node4&#45;&gt;Node5</title>
<g id="a_edge4_Node000004_Node000005"><a xlink:title=" ">
<path fill="none" stroke="#63b8ff" d="M188.5984,-101.5C179.9114,-101.5 171.252,-101.5 163.1334,-101.5"/>
<polygon fill="#63b8ff" stroke="#63b8ff" points="188.7782,-105.0001 198.7781,-101.5 188.7781,-98.0001 188.7782,-105.0001"/>
</a>
</g>
</g>
<!-- Node6 -->
<g id="Node000006" class="node">
<title>Node6</title>
<g id="a_Node000006"><a xlink:href="recv_8c.html#a0ddf1224851353fc92bfbff6f499fa97" target="_top" xlink:title="メインエントリーポイント。">
<polygon fill="#ffffff" stroke="#666666" points="38,-111 0,-111 0,-92 38,-92 38,-111"/>
<text text-anchor="middle" x="19" y="-99" font-family="Helvetica,sans-Serif" font-size="10.00" fill="#000000">main</text>
</a>
</g>
</g>
<!-- Node5&#45;&gt;Node6 -->
<g id="edge5_Node000005_Node000006" class="edge">
<title>Node5&#45;&gt;Node6</title>
<g id="a_edge5_Node000005_Node000006"><a xlink:title=" ">
<path fill="none" stroke="#63b8ff" d="M63.8932,-101.5C54.615,-101.5 45.5643,-101.5 38.0485,-101.5"/>
<polygon fill="#63b8ff" stroke="#63b8ff" points="63.9885,-105.0001 73.9884,-101.5 63.9884,-98.0001 63.9885,-105.0001"/>
</a>
</g>
</g>
<!-- Node7&#45;&gt;Node3 -->
<g id="edge7_Node000007_Node000003" class="edge">
<title>Node7&#45;&gt;Node3</title>
<g id="a_edge7_Node000007_Node000003"><a xlink:title=" ">
<path fill="none" stroke="#63b8ff" d="M496.5273,-113.2008C481.8742,-111.3069 466.2656,-109.2894 452.2091,-107.4726"/>
<polygon fill="#63b8ff" stroke="#63b8ff" points="496.1221,-116.6775 506.4883,-114.4883 497.0195,-109.7352 496.1221,-116.6775"/>
</a>
</g>
</g>
<!-- Node8&#45;&gt;Node3 -->
<g id="edge9_Node000008_Node000003" class="edge">
<title>Node8&#45;&gt;Node3</title>
<g id="a_edge9_Node000008_Node000003"><a xlink:title=" ">
<path fill="none" stroke="#63b8ff" d="M493.684,-90.7632C479.7967,-92.4637 465.2071,-94.2501 452.0014,-95.8672"/>
<polygon fill="#63b8ff" stroke="#63b8ff" points="494.1418,-94.2334 503.6422,-89.5438 493.2909,-87.2853 494.1418,-94.2334"/>
</a>
</g>
</g>
<!-- Node9&#45;&gt;Node3 -->
<g id="edge11_Node000009_Node000003" class="edge">
<title>Node9&#45;&gt;Node3</title>
<g id="a_edge11_Node000009_Node000003"><a xlink:title=" ">
<path fill="none" stroke="#63b8ff" d="M507.6863,-58.9272C501.0387,-60.9865 494.3095,-63.2037 488,-65.5 466.377,-73.3694 442.3488,-84.1721 425.9235,-91.8862"/>
<polygon fill="#63b8ff" stroke="#63b8ff" points="508.7414,-62.2648 517.3092,-56.0323 506.7248,-55.5615 508.7414,-62.2648"/>
</a>
</g>
</g>
<!-- Node11 -->
<g id="Node000011" class="node">
<title>Node11</title>
<g id="a_Node000011"><a xlink:href="potrSend_8c.html#a50f796e2c18751b09924b8251fbd81aa" target="_top" xlink:title="データを送信します。">
<polygon fill="#ffffff" stroke="#666666" points="434,-19 378,-19 378,0 434,0 434,-19"/>
<text text-anchor="middle" x="406" y="-7" font-family="Helvetica,sans-Serif" font-size="10.00" fill="#000000">potrSend</text>
</a>
</g>
</g>
<!-- Node10&#45;&gt;Node11 -->
<g id="edge13_Node000010_Node000011" class="edge">
<title>Node10&#45;&gt;Node11</title>
<g id="a_edge13_Node000010_Node000011"><a xlink:title=" ">
<path fill="none" stroke="#63b8ff" d="M492.3703,-9.5C472.2771,-9.5 450.8593,-9.5 434.3785,-9.5"/>
<polygon fill="#63b8ff" stroke="#63b8ff" points="492.411,-13.0001 502.4109,-9.5 492.4109,-6.0001 492.411,-13.0001"/>
</a>
</g>
</g>
<!-- Node12 -->
<g id="Node000012" class="node">
<title>Node12</title>
<g id="a_Node000012"><a xlink:href="send_8c.html#a0ddf1224851353fc92bfbff6f499fa97" target="_top" xlink:title="メインエントリーポイント。">
<polygon fill="#ffffff" stroke="#666666" points="280.5,-19 242.5,-19 242.5,0 280.5,0 280.5,-19"/>
<text text-anchor="middle" x="261.5" y="-7" font-family="Helvetica,sans-Serif" font-size="10.00" fill="#000000">main</text>
</a>
</g>
</g>
<!-- Node11&#45;&gt;Node12 -->
<g id="edge14_Node000011_Node000012" class="edge">
<title>Node11&#45;&gt;Node12</title>
<g id="a_edge14_Node000011_Node000012"><a xlink:title=" ">
<path fill="none" stroke="#63b8ff" d="M367.5584,-9.5C339.6066,-9.5 302.9383,-9.5 280.8544,-9.5"/>
<polygon fill="#63b8ff" stroke="#63b8ff" points="367.7959,-13.0001 377.7959,-9.5 367.7959,-6.0001 367.7959,-13.0001"/>
</a>
</g>
</g>
</g>
</svg>
