<?xml version="1.0" encoding="UTF-8" standalone="no"?>
<!DOCTYPE svg PUBLIC "-//W3C//DTD SVG 1.1//EN"
 "http://www.w3.org/Graphics/SVG/1.1/DTD/svg11.dtd">
<!-- Generated by graphviz version 2.40.1 (0)
 -->
<!-- Title: window_destroy Pages: 1 -->
<svg width="400pt" height="65pt"
 viewBox="0.00 0.00 400.00 65.00" xmlns="http://www.w3.org/2000/svg" xmlns:xlink="http://www.w3.org/1999/xlink">
<g id="graph0" class="graph" transform="scale(1 1) rotate(0) translate(4 61)">
<title>window_destroy</title>
<!-- Node1 -->
<g id="Node000001" class="node">
<title>Node1</title>
<g id="a_Node000001"><a xlink:title="ウィンドウが保持する動的確保バッファを解放します。">
<polygon fill="#999999" stroke="#666666" points="392,-38 306,-38 306,-19 392,-19 392,-38"/>
<text text-anchor="middle" x="349" y="-26" font-family="Helvetica,sans-Serif" font-size="10.00" fill="#000000">window_destroy</text>
</a>
</g>
</g>
<!-- Node2 -->
<g id="Node000002" class="node">
<title>Node2</title>
<g id="a_Node000002"><a xlink:href="potrOpenService_8c.html#a7fc026a3ab7d51f3dd4d89b8dcffd506" target="_top" xlink:title=" ">
<polygon fill="#ffffff" stroke="#666666" points="270,-57 201,-57 201,-38 270,-38 270,-57"/>
<text text-anchor="middle" x="235.5" y="-45" font-family="Helvetica,sans-Serif" font-size="10.00" fill="#000000">ctx_cleanup</text>
</a>
</g>
</g>
<!-- Node1&#45;&gt;Node2 -->
<g id="edge1_Node000001_Node000002" class="edge">
<title>Node1&#45;&gt;Node2</title>
<g id="a_edge1_Node000001_Node000002"><a xlink:title=" ">
<path fill="none" stroke="#63b8ff" d="M295.6825,-37.4254C287.0087,-38.8774 278.2276,-40.3474 270.1536,-41.699"/>
<polygon fill="#63b8ff" stroke="#63b8ff" points="296.4819,-40.8404 305.7667,-35.7373 295.3261,-33.9364 296.4819,-40.8404"/>
</a>
</g>
</g>
<!-- Node5 -->
<g id="Node000005" class="node">
<title>Node5</title>
<g id="a_Node000005"><a xlink:href="potrCloseService_8c.html#a69faa7ad17883d282cfbbabfe2d4913f" target="_top" xlink:title="サービスを閉じます。">
<polygon fill="#ffffff" stroke="#666666" points="165,-19 74,-19 74,0 165,0 165,-19"/>
<text text-anchor="middle" x="119.5" y="-7" font-family="Helvetica,sans-Serif" font-size="10.00" fill="#000000">potrCloseService</text>
</a>
</g>
</g>
<!-- Node1&#45;&gt;Node5 -->
<g id="edge4_Node000001_Node000005" class="edge">
<title>Node1&#45;&gt;Node5</title>
<g id="a_edge4_Node000001_Node000005"><a xlink:title=" ">
<path fill="none" stroke="#63b8ff" d="M295.8397,-24.0989C256.2911,-20.8248 202.872,-16.4023 165.2257,-13.2856"/>
<polygon fill="#63b8ff" stroke="#63b8ff" points="295.5781,-27.5892 305.8328,-24.9262 296.1557,-20.613 295.5781,-27.5892"/>
</a>
</g>
</g>
<!-- Node3 -->
<g id="Node000003" class="node">
<title>Node3</title>
<g id="a_Node000003"><a xlink:href="potrOpenService_8c.html#a8ce1599677086e0c54400b696ed28680" target="_top" xlink:title="設定ファイルから指定サービスを開きます。">
<polygon fill="#ffffff" stroke="#666666" points="164,-56 75,-56 75,-37 164,-37 164,-56"/>
<text text-anchor="middle" x="119.5" y="-44" font-family="Helvetica,sans-Serif" font-size="10.00" fill="#000000">potrOpenService</text>
</a>
</g>
</g>
<!-- Node2&#45;&gt;Node3 -->
<g id="edge2_Node000002_Node000003" class="edge">
<title>Node2&#45;&gt;Node3</title>
<g id="a_edge2_Node000002_Node000003"><a xlink:title=" ">
<path fill="none" stroke="#63b8ff" d="M190.4332,-47.1115C181.8112,-47.0372 172.7873,-46.9594 164.1775,-46.8852"/>
<polygon fill="#63b8ff" stroke="#63b8ff" points="190.6663,-50.6135 200.6962,-47.2 190.7268,-43.6138 190.6663,-50.6135"/>
</a>
</g>
</g>
<!-- Node4 -->
<g id="Node000004" class="node">
<title>Node4</title>
<g id="a_Node000004"><a xlink:href="recv_8c.html#a0ddf1224851353fc92bfbff6f499fa97" target="_top" xlink:title="メインエントリーポイント。">
<polygon fill="#ffffff" stroke="#666666" points="38,-37 0,-37 0,-18 38,-18 38,-37"/>
<text text-anchor="middle" x="19" y="-25" font-family="Helvetica,sans-Serif" font-size="10.00" fill="#000000">main</text>
</a>
</g>
</g>
<!-- Node3&#45;&gt;Node4 -->
<g id="edge3_Node000003_Node000004" class="edge">
<title>Node3&#45;&gt;Node4</title>
<g id="a_edge3_Node000003_Node000004"><a xlink:title=" ">
<path fill="none" stroke="#63b8ff" d="M64.8196,-36.1624C55.2285,-34.3492 45.8543,-32.5769 38.1093,-31.1127"/>
<polygon fill="#63b8ff" stroke="#63b8ff" points="64.3578,-39.637 74.834,-38.0557 65.6582,-32.7589 64.3578,-39.637"/>
</a>
</g>
</g>
<!-- Node5&#45;&gt;Node4 -->
<g id="edge5_Node000005_Node000004" class="edge">
<title>Node5&#45;&gt;Node4</title>
<g id="a_edge5_Node000005_Node000004"><a xlink:title=" ">
<path fill="none" stroke="#63b8ff" d="M63.9152,-19.4555C54.6956,-21.1068 45.7183,-22.7146 38.2437,-24.0534"/>
<polygon fill="#63b8ff" stroke="#63b8ff" points="64.7285,-22.8656 73.9548,-17.6573 63.4944,-15.9752 64.7285,-22.8656"/>
</a>
</g>
</g>
</g>
</svg>
