<?xml version="1.0" encoding="UTF-8" standalone="no"?>
<!DOCTYPE svg PUBLIC "-//W3C//DTD SVG 1.1//EN"
 "http://www.w3.org/Graphics/SVG/1.1/DTD/svg11.dtd">
<!-- Generated by graphviz version 2.40.1 (0)
 -->
<!-- Title: win_index Pages: 1 -->
<!--zoomable 216 -->

<svg id="main" version="1.1" xmlns="http://www.w3.org/2000/svg" xmlns:xlink="http://www.w3.org/1999/xlink" xml:space="preserve" onload="init(evt)">

<style type="text/css"><![CDATA[
.node, .edge {opacity: 0.7;}
.node.selected, .edge.selected {opacity: 1;}
.edge:hover path { stroke: red; }
.edge:hover polygon { stroke: red; fill: red; }
]]></style>

<defs>
  <circle id="rim" cx="0" cy="0" r="7"/>
  <circle id="rim2" cx="0" cy="0" r="3.5"/>
  <g id="zoomPlus">
    <use xlink:href="#rim" fill="#404040"><set attributeName="fill" to="#808080" begin="zoomplus.mouseover" end="zoomplus.mouseout"/></use>
    <path d="M-4,0h8M0,-4v8" fill="none" stroke="white" stroke-width="1.5" pointer-events="none"/>
  </g>
  <g id="zoomMin">
    <use xlink:href="#rim" fill="#404040"><set attributeName="fill" to="#808080" begin="zoomminus.mouseover" end="zoomminus.mouseout"/></use>
    <path d="M-4,0h8" fill="none" stroke="white" stroke-width="1.5" pointer-events="none"/>
  </g>
  <g id="arrowUp" transform="translate(30 24)">
    <use xlink:href="#rim"/>
    <path pointer-events="none" fill="none" stroke="white" stroke-width="1.5" d="M0,-3.0v7 M-2.5,-0.5L0,-3.0L2.5,-0.5"/>
  </g>
  <g id="arrowRight" transform="rotate(90) translate(36 -43)">
    <use xlink:href="#rim"/>
    <path pointer-events="none" fill="none" stroke="white" stroke-width="1.5" d="M0,-3.0v7 M-2.5,-0.5L0,-3.0L2.5,-0.5"/>
  </g>
  <g id="arrowDown" transform="rotate(180) translate(-30 -48)">
    <use xlink:href="#rim"/>
    <path pointer-events="none" fill="none" stroke="white" stroke-width="1.5" d="M0,-3.0v7 M-2.5,-0.5L0,-3.0L2.5,-0.5"/>
  </g>
  <g id="arrowLeft" transform="rotate(270) translate(-36 17)">
    <use xlink:href="#rim"/>
    <path pointer-events="none" fill="none" stroke="white" stroke-width="1.5" d="M0,-3.0v7 M-2.5,-0.5L0,-3.0L2.5,-0.5"/>
  </g>
  <g id="resetDef">
    <use xlink:href="#rim2" fill="#404040"><set attributeName="fill" to="#808080" begin="reset.mouseover" end="reset.mouseout"/></use>
  </g>
</defs>
<script type="application/ecmascript">
var viewWidth = 990;
var viewHeight = 216;
var sectionId = 'dynsection-3';
</script>
<script type="application/ecmascript" xlink:href="svg.min.js"/>
<svg id="graph" class="graph">
<g id="viewport">
<title>win_index</title>
<!-- Node1 -->
<g id="Node000001" class="node">
<title>Node1</title>
<g id="a_Node000001"><a xlink:title=" ">
<polygon fill="#999999" stroke="#666666" points="982,-114 923,-114 923,-95 982,-95 982,-114"/>
<text text-anchor="middle" x="952.5" y="-102" font-family="Helvetica,sans-Serif" font-size="10.00" fill="#000000">win_index</text>
</a>
</g>
</g>
<!-- Node2 -->
<g id="Node000002" class="node">
<title>Node2</title>
<g id="a_Node000002"><a xlink:href="window_8c.html#a6ecfb9f52ac33918ba6f8cd0386b17c2" target="_top" xlink:title="受信ウィンドウで欠番が発生しているか確認し、NACK 番号を返します。">
<polygon fill="#ffffff" stroke="#666666" points="753,-133 623,-133 623,-114 753,-114 753,-133"/>
<text text-anchor="middle" x="688" y="-121" font-family="Helvetica,sans-Serif" font-size="10.00" fill="#000000">window_recv_needs_nack</text>
</a>
</g>
</g>
<!-- Node1&#45;&gt;Node2 -->
<g id="edge1_Node000001_Node000002" class="edge">
<title>Node1&#45;&gt;Node2</title>
<g id="a_edge1_Node000001_Node000002"><a xlink:title=" ">
<path fill="none" stroke="#63b8ff" d="M912.7598,-107.3547C870.5236,-110.3887 803.0662,-115.2344 753.0606,-118.8265"/>
<polygon fill="#63b8ff" stroke="#63b8ff" points="913.2049,-110.8318 922.9284,-106.6242 912.7033,-103.8498 913.2049,-110.8318"/>
</a>
</g>
</g>
<!-- Node8 -->
<g id="Node000008" class="node">
<title>Node8</title>
<g id="a_Node000008"><a xlink:href="window_8c.html#a883a182a547ff084957069939b131527" target="_top" xlink:title="受信ウィンドウから順序整列済みパケットを取り出します。">
<polygon fill="#ffffff" stroke="#666666" points="884.5,-171 791.5,-171 791.5,-152 884.5,-152 884.5,-171"/>
<text text-anchor="middle" x="838" y="-159" font-family="Helvetica,sans-Serif" font-size="10.00" fill="#000000">window_recv_pop</text>
</a>
</g>
</g>
<!-- Node1&#45;&gt;Node8 -->
<g id="edge7_Node000001_Node000008" class="edge">
<title>Node1&#45;&gt;Node8</title>
<g id="a_edge7_Node000001_Node000008"><a xlink:title=" ">
<path fill="none" stroke="#63b8ff" d="M924.4252,-118.7314C912.8506,-124.5761 899.2945,-131.3923 887,-137.5 877.3289,-142.3045 866.5543,-147.5892 857.5768,-151.9738"/>
<polygon fill="#63b8ff" stroke="#63b8ff" points="926.2657,-121.7229 933.6106,-114.0873 923.1072,-115.4759 926.2657,-121.7229"/>
</a>
</g>
</g>
<!-- Node10 -->
<g id="Node000010" class="node">
<title>Node10</title>
<g id="a_Node000010"><a xlink:href="window_8c.html#ac134e864859663f32389cf30fe55bc6e" target="_top" xlink:title="受信ウィンドウにパケットを格納します。">
<polygon fill="#ffffff" stroke="#666666" points="887,-95 789,-95 789,-76 887,-76 887,-95"/>
<text text-anchor="middle" x="838" y="-83" font-family="Helvetica,sans-Serif" font-size="10.00" fill="#000000">window_recv_push</text>
</a>
</g>
</g>
<!-- Node1&#45;&gt;Node10 -->
<g id="edge11_Node000001_Node000010" class="edge">
<title>Node1&#45;&gt;Node10</title>
<g id="a_edge11_Node000001_Node000010"><a xlink:title=" ">
<path fill="none" stroke="#63b8ff" d="M912.6378,-97.8853C904.4125,-96.5204 895.6581,-95.0677 887.1475,-93.6555"/>
<polygon fill="#63b8ff" stroke="#63b8ff" points="912.2773,-101.3733 922.7154,-99.5576 913.4233,-94.4677 912.2773,-101.3733"/>
</a>
</g>
</g>
<!-- Node11 -->
<g id="Node000011" class="node">
<title>Node11</title>
<g id="a_Node000011"><a xlink:href="window_8c.html#a09a3ee7def6addf4974f7644a3d0c913" target="_top" xlink:title="受信ウィンドウで指定通番をスキップして次の通番へ前進させます。">
<polygon fill="#ffffff" stroke="#666666" points="586,-85 491,-85 491,-66 586,-66 586,-85"/>
<text text-anchor="middle" x="538.5" y="-73" font-family="Helvetica,sans-Serif" font-size="10.00" fill="#000000">window_recv_skip</text>
</a>
</g>
</g>
<!-- Node1&#45;&gt;Node11 -->
<g id="edge13_Node000001_Node000011" class="edge">
<title>Node1&#45;&gt;Node11</title>
<g id="a_edge13_Node000001_Node000011"><a xlink:title=" ">
<path fill="none" stroke="#63b8ff" d="M932.1533,-88.927C919.8167,-80.4839 903.345,-70.898 887,-66.5 782.2376,-38.3111 653.3232,-54.0101 585.4412,-65.9571"/>
<polygon fill="#63b8ff" stroke="#63b8ff" points="930.174,-91.8143 940.3446,-94.7823 934.2447,-86.1196 930.174,-91.8143"/>
</a>
</g>
</g>
<!-- Node12 -->
<g id="Node000012" class="node">
<title>Node12</title>
<g id="a_Node000012"><a xlink:href="window_8c.html#a809726c67053a1b04955b9f58a590c56" target="_top" xlink:title="送信ウィンドウから指定通番のパケットを取得します (再送用)。">
<polygon fill="#ffffff" stroke="#666666" points="884.5,-208 791.5,-208 791.5,-189 884.5,-189 884.5,-208"/>
<text text-anchor="middle" x="838" y="-196" font-family="Helvetica,sans-Serif" font-size="10.00" fill="#000000">window_send_get</text>
</a>
</g>
</g>
<!-- Node1&#45;&gt;Node12 -->
<g id="edge15_Node000001_Node000012" class="edge">
<title>Node1&#45;&gt;Node12</title>
<g id="a_edge15_Node000001_Node000012"><a xlink:title=" ">
<path fill="none" stroke="#63b8ff" d="M940.9506,-122.567C929.2177,-139.6226 909.5931,-164.8515 887,-180.5 882.1573,-183.8541 876.6149,-186.6654 871.0402,-188.9933"/>
<polygon fill="#63b8ff" stroke="#63b8ff" points="943.9959,-124.3085 946.6257,-114.0453 938.1696,-120.4285 943.9959,-124.3085"/>
</a>
</g>
</g>
<!-- Node13 -->
<g id="Node000013" class="node">
<title>Node13</title>
<g id="a_Node000013"><a xlink:href="window_8c.html#a194f99cfb5f1631fb7643c1838a5278a" target="_top" xlink:title="送信ウィンドウにパケットを積みます。">
<polygon fill="#ffffff" stroke="#666666" points="738.5,-19 637.5,-19 637.5,0 738.5,0 738.5,-19"/>
<text text-anchor="middle" x="688" y="-7" font-family="Helvetica,sans-Serif" font-size="10.00" fill="#000000">window_send_push</text>
</a>
</g>
</g>
<!-- Node1&#45;&gt;Node13 -->
<g id="edge17_Node000001_Node000013" class="edge">
<title>Node1&#45;&gt;Node13</title>
<g id="a_edge17_Node000001_Node000013"><a xlink:title=" ">
<path fill="none" stroke="#63b8ff" d="M941.3764,-86.4876C929.9576,-69.7175 910.5574,-45.5508 887,-33.5 840.6839,-9.8069 780.597,-5.6017 738.6188,-6.2034"/>
<polygon fill="#63b8ff" stroke="#63b8ff" points="938.4808,-88.4547 946.8748,-94.9194 944.3443,-84.6312 938.4808,-88.4547"/>
</a>
</g>
</g>
<!-- Node3 -->
<g id="Node000003" class="node">
<title>Node3</title>
<g id="a_Node000003"><a xlink:href="potrRecvThread_8c.html#a69c2cb6947b8a810bb95585972a60e09" target="_top" xlink:title=" ">
<polygon fill="#ffffff" stroke="#666666" points="587,-132 490,-132 490,-113 587,-113 587,-132"/>
<text text-anchor="middle" x="538.5" y="-120" font-family="Helvetica,sans-Serif" font-size="10.00" fill="#000000">process_outer_pkt</text>
</a>
</g>
</g>
<!-- Node2&#45;&gt;Node3 -->
<g id="edge2_Node000002_Node000003" class="edge">
<title>Node2&#45;&gt;Node3</title>
<g id="a_edge2_Node000002_Node000003"><a xlink:title=" ">
<path fill="none" stroke="#63b8ff" d="M612.7192,-122.9964C604.059,-122.9385 595.4083,-122.8807 587.2321,-122.826"/>
<polygon fill="#63b8ff" stroke="#63b8ff" points="612.8388,-126.4972 622.862,-123.0643 612.8857,-119.4974 612.8388,-126.4972"/>
</a>
</g>
</g>
<!-- Node4 -->
<g id="Node000004" class="node">
<title>Node4</title>
<g id="a_Node000004"><a xlink:href="potrRecvThread_8c.html#a300c2d6c99e3491d0ee4c7cb4de36146" target="_top" xlink:title=" ">
<polygon fill="#ffffff" stroke="#666666" points="453,-132 361,-132 361,-113 453,-113 453,-132"/>
<text text-anchor="middle" x="407" y="-120" font-family="Helvetica,sans-Serif" font-size="10.00" fill="#000000">recv_thread_func</text>
</a>
</g>
</g>
<!-- Node3&#45;&gt;Node4 -->
<g id="edge3_Node000003_Node000004" class="edge">
<title>Node3&#45;&gt;Node4</title>
<g id="a_edge3_Node000003_Node000004"><a xlink:title=" ">
<path fill="none" stroke="#63b8ff" d="M479.6285,-122.5C470.7729,-122.5 461.749,-122.5 453.2088,-122.5"/>
<polygon fill="#63b8ff" stroke="#63b8ff" points="479.9079,-126.0001 489.9079,-122.5 479.9078,-119.0001 479.9079,-126.0001"/>
</a>
</g>
</g>
<!-- Node5 -->
<g id="Node000005" class="node">
<title>Node5</title>
<g id="a_Node000005"><a xlink:href="potrRecvThread_8c.html#a1006d5ccaf47db6c24908eb7ae366505" target="_top" xlink:title="受信スレッドを起動します。">
<polygon fill="#ffffff" stroke="#666666" points="324,-113 199,-113 199,-94 324,-94 324,-113"/>
<text text-anchor="middle" x="261.5" y="-101" font-family="Helvetica,sans-Serif" font-size="10.00" fill="#000000">comm_recv_thread_start</text>
</a>
</g>
</g>
<!-- Node4&#45;&gt;Node5 -->
<g id="edge4_Node000004_Node000005" class="edge">
<title>Node4&#45;&gt;Node5</title>
<g id="a_edge4_Node000004_Node000005"><a xlink:title=" ">
<path fill="none" stroke="#63b8ff" d="M350.9085,-115.1753C342.184,-114.036 333.1216,-112.8527 324.2608,-111.6956"/>
<polygon fill="#63b8ff" stroke="#63b8ff" points="350.5938,-118.6639 360.9629,-116.4883 351.5003,-111.7228 350.5938,-118.6639"/>
</a>
</g>
</g>
<!-- Node6 -->
<g id="Node000006" class="node">
<title>Node6</title>
<g id="a_Node000006"><a xlink:href="potrOpenService_8c.html#a8ce1599677086e0c54400b696ed28680" target="_top" xlink:title="設定ファイルから指定サービスを開きます。">
<polygon fill="#ffffff" stroke="#666666" points="163,-85 74,-85 74,-66 163,-66 163,-85"/>
<text text-anchor="middle" x="118.5" y="-73" font-family="Helvetica,sans-Serif" font-size="10.00" fill="#000000">potrOpenService</text>
</a>
</g>
</g>
<!-- Node5&#45;&gt;Node6 -->
<g id="edge5_Node000005_Node000006" class="edge">
<title>Node5&#45;&gt;Node6</title>
<g id="a_edge5_Node000005_Node000006"><a xlink:title=" ">
<path fill="none" stroke="#63b8ff" d="M202.7464,-91.9958C189.5534,-89.4125 175.762,-86.7121 163.2481,-84.2619"/>
<polygon fill="#63b8ff" stroke="#63b8ff" points="202.2013,-95.4554 212.6875,-93.9423 203.5464,-88.5859 202.2013,-95.4554"/>
</a>
</g>
</g>
<!-- Node7 -->
<g id="Node000007" class="node">
<title>Node7</title>
<g id="a_Node000007"><a xlink:href="recv_8c.html#a0ddf1224851353fc92bfbff6f499fa97" target="_top" xlink:title="メインエントリーポイント。">
<polygon fill="#ffffff" stroke="#666666" points="38,-85 0,-85 0,-66 38,-66 38,-85"/>
<text text-anchor="middle" x="19" y="-73" font-family="Helvetica,sans-Serif" font-size="10.00" fill="#000000">main</text>
</a>
</g>
</g>
<!-- Node6&#45;&gt;Node7 -->
<g id="edge6_Node000006_Node000007" class="edge">
<title>Node6&#45;&gt;Node7</title>
<g id="a_edge6_Node000006_Node000007"><a xlink:title=" ">
<path fill="none" stroke="#63b8ff" d="M63.8932,-75.5C54.615,-75.5 45.5643,-75.5 38.0485,-75.5"/>
<polygon fill="#63b8ff" stroke="#63b8ff" points="63.9885,-79.0001 73.9884,-75.5 63.9884,-72.0001 63.9885,-79.0001"/>
</a>
</g>
</g>
<!-- Node9 -->
<g id="Node000009" class="node">
<title>Node9</title>
<g id="a_Node000009"><a xlink:href="potrRecvThread_8c.html#a25a97682fd79b97dfa94ebc3a374a326" target="_top" xlink:title=" ">
<polygon fill="#ffffff" stroke="#666666" points="737,-170 639,-170 639,-151 737,-151 737,-170"/>
<text text-anchor="middle" x="688" y="-158" font-family="Helvetica,sans-Serif" font-size="10.00" fill="#000000">drain_recv_window</text>
</a>
</g>
</g>
<!-- Node8&#45;&gt;Node9 -->
<g id="edge8_Node000008_Node000009" class="edge">
<title>Node8&#45;&gt;Node9</title>
<g id="a_edge8_Node000008_Node000009"><a xlink:title=" ">
<path fill="none" stroke="#63b8ff" d="M781.049,-161.1203C766.611,-161.0241 751.2243,-160.9215 737.2065,-160.828"/>
<polygon fill="#63b8ff" stroke="#63b8ff" points="781.3382,-164.6222 791.3613,-161.1891 781.3849,-157.6224 781.3382,-164.6222"/>
</a>
</g>
</g>
<!-- Node9&#45;&gt;Node3 -->
<g id="edge9_Node000009_Node000003" class="edge">
<title>Node9&#45;&gt;Node3</title>
<g id="a_edge9_Node000009_Node000003"><a xlink:title=" ">
<path fill="none" stroke="#63b8ff" d="M640.3484,-148.3879C619.5274,-143.0956 595.4623,-136.9787 575.9539,-132.0201"/>
<polygon fill="#63b8ff" stroke="#63b8ff" points="639.7208,-151.8396 650.2748,-150.911 641.4453,-145.0553 639.7208,-151.8396"/>
</a>
</g>
</g>
<!-- Node9&#45;&gt;Node4 -->
<g id="edge10_Node000009_Node000004" class="edge">
<title>Node9&#45;&gt;Node4</title>
<g id="a_edge10_Node000009_Node000004"><a xlink:title=" ">
<path fill="none" stroke="#63b8ff" d="M628.9595,-156.8421C589.4611,-153.903 536.4128,-149.0069 490,-141.5 474.8235,-139.0453 458.2796,-135.4493 443.9841,-132.0445"/>
<polygon fill="#63b8ff" stroke="#63b8ff" points="628.7263,-160.3343 638.953,-157.5655 629.2318,-153.3525 628.7263,-160.3343"/>
</a>
</g>
</g>
<!-- Node10&#45;&gt;Node3 -->
<g id="edge12_Node000010_Node000003" class="edge">
<title>Node10&#45;&gt;Node3</title>
<g id="a_edge12_Node000010_Node000003"><a xlink:title=" ">
<path fill="none" stroke="#63b8ff" d="M778.6485,-89.3253C735.3631,-92.5271 675.3652,-97.8189 623,-105.5 609.3788,-107.498 594.6346,-110.2555 581.3338,-112.9686"/>
<polygon fill="#63b8ff" stroke="#63b8ff" points="779.0032,-92.8089 788.7241,-88.5954 778.4974,-85.8272 779.0032,-92.8089"/>
</a>
</g>
</g>
<!-- Node11&#45;&gt;Node4 -->
<g id="edge14_Node000011_Node000004" class="edge">
<title>Node11&#45;&gt;Node4</title>
<g id="a_edge14_Node000011_Node000004"><a xlink:title=" ">
<path fill="none" stroke="#63b8ff" d="M502.3878,-88.407C480.7829,-96.1289 453.7788,-105.7806 434.0228,-112.8417"/>
<polygon fill="#63b8ff" stroke="#63b8ff" points="503.6504,-91.6727 511.889,-85.0112 501.2944,-85.081 503.6504,-91.6727"/>
</a>
</g>
</g>
<!-- Node12&#45;&gt;Node4 -->
<g id="edge16_Node000012_Node000004" class="edge">
<title>Node12&#45;&gt;Node4</title>
<g id="a_edge16_Node000012_Node000004"><a xlink:title=" ">
<path fill="none" stroke="#63b8ff" d="M781.0361,-198.3915C711.1123,-196.8778 589.5619,-189.7365 490,-160.5 466.1265,-153.4895 440.3179,-140.7855 423.9268,-132.0082"/>
<polygon fill="#63b8ff" stroke="#63b8ff" points="781.3237,-201.8974 791.3866,-198.5824 781.4528,-194.8985 781.3237,-201.8974"/>
</a>
</g>
</g>
<!-- Node14 -->
<g id="Node000014" class="node">
<title>Node14</title>
<g id="a_Node000014"><a xlink:href="potrSendThread_8c.html#a260e2ab6373553aa61c9a71e9901ff46" target="_top" xlink:title=" ">
<polygon fill="#ffffff" stroke="#666666" points="575.5,-29 501.5,-29 501.5,-10 575.5,-10 575.5,-29"/>
<text text-anchor="middle" x="538.5" y="-17" font-family="Helvetica,sans-Serif" font-size="10.00" fill="#000000">flush_packed</text>
</a>
</g>
</g>
<!-- Node13&#45;&gt;Node14 -->
<g id="edge18_Node000013_Node000014" class="edge">
<title>Node13&#45;&gt;Node14</title>
<g id="a_edge18_Node000013_Node000014"><a xlink:title=" ">
<path fill="none" stroke="#63b8ff" d="M627.2814,-13.5614C609.8613,-14.7267 591.3868,-15.9624 575.8275,-17.0032"/>
<polygon fill="#63b8ff" stroke="#63b8ff" points="627.642,-17.0452 637.3861,-12.8855 627.1748,-10.0608 627.642,-17.0452"/>
</a>
</g>
</g>
<!-- Node15 -->
<g id="Node000015" class="node">
<title>Node15</title>
<g id="a_Node000015"><a xlink:href="potrSendThread_8c.html#a73c68e6c27f4228dd3e7bfdf470d9a6f" target="_top" xlink:title=" ">
<polygon fill="#ffffff" stroke="#666666" points="454,-49 360,-49 360,-30 454,-30 454,-49"/>
<text text-anchor="middle" x="407" y="-37" font-family="Helvetica,sans-Serif" font-size="10.00" fill="#000000">send_thread_func</text>
</a>
</g>
</g>
<!-- Node14&#45;&gt;Node15 -->
<g id="edge19_Node000014_Node000015" class="edge">
<title>Node14&#45;&gt;Node15</title>
<g id="a_edge19_Node000014_Node000015"><a xlink:title=" ">
<path fill="none" stroke="#63b8ff" d="M490.9485,-26.7322C479.0138,-28.5473 466.2106,-30.4946 454.2887,-32.3078"/>
<polygon fill="#63b8ff" stroke="#63b8ff" points="491.8091,-30.1416 501.1691,-25.1777 490.7565,-23.2212 491.8091,-30.1416"/>
</a>
</g>
</g>
<!-- Node16 -->
<g id="Node000016" class="node">
<title>Node16</title>
<g id="a_Node000016"><a xlink:href="potrSendThread_8c.html#a43c9d922d9a3e693d9327f34beee30bf" target="_top" xlink:title=" ">
<polygon fill="#ffffff" stroke="#666666" points="319.5,-67 203.5,-67 203.5,-48 319.5,-48 319.5,-67"/>
<text text-anchor="middle" x="261.5" y="-55" font-family="Helvetica,sans-Serif" font-size="10.00" fill="#000000">potr_send_thread_start</text>
</a>
</g>
</g>
<!-- Node15&#45;&gt;Node16 -->
<g id="edge20_Node000015_Node000016" class="edge">
<title>Node15&#45;&gt;Node16</title>
<g id="a_edge20_Node000015_Node000016"><a xlink:title=" ">
<path fill="none" stroke="#63b8ff" d="M349.6692,-46.5925C339.8176,-47.8112 329.5706,-49.0789 319.6965,-50.3004"/>
<polygon fill="#63b8ff" stroke="#63b8ff" points="350.2657,-50.0454 359.7603,-45.3441 349.4062,-43.0984 350.2657,-50.0454"/>
</a>
</g>
</g>
<!-- Node16&#45;&gt;Node6 -->
<g id="edge21_Node000016_Node000006" class="edge">
<title>Node16&#45;&gt;Node6</title>
<g id="a_edge21_Node000016_Node000006"><a xlink:title=" ">
<path fill="none" stroke="#63b8ff" d="M193.1543,-66.103C182.9121,-67.3922 172.5834,-68.6923 163.0111,-69.8972"/>
<polygon fill="#63b8ff" stroke="#63b8ff" points="193.8519,-69.5429 203.3364,-64.8213 192.9776,-62.5977 193.8519,-69.5429"/>
</a>
</g>
</g>
</g>
</svg>

<g id="navigator" transform="translate(0 0)" fill="#404254">
  <rect fill="#f2f5e9" fill-opacity="0.5" stroke="#606060" stroke-width=".5" x="0" y="0" width="60" height="60"/>
  <use id="zoomplus" xlink:href="#zoomPlus" x="17" y="9" onmousedown="handleZoom(evt,'in')"/>
  <use id="zoomminus" xlink:href="#zoomMin" x="42" y="9" onmousedown="handleZoom(evt,'out')"/>
  <use id="reset" xlink:href="#resetDef" x="30" y="36" onmousedown="handleReset()"/>
   <use id="arrowup" xlink:href="#arrowUp" x="0" y="0" onmousedown="handlePan(0,-1)"/>
  <use id="arrowright" xlink:href="#arrowRight" x="0" y="0" onmousedown="handlePan(1,0)"/>
  <use id="arrowdown" xlink:href="#arrowDown" x="0" y="0" onmousedown="handlePan(0,1)"/>
  <use id="arrowleft" xlink:href="#arrowLeft" x="0" y="0" onmousedown="handlePan(-1,0)"/>
</g>
<svg viewBox="0 0 15 15" width="100%" height="30px" preserveAspectRatio="xMaxYMin meet">
 <g id="arrow_out" transform="scale(0.3 0.3)">
  <a xlink:href="window_8c_ad5f53882d6cd6075a78e83b94fb62cc3_icgraph_org.svg" target="_base">
   <rect id="button" ry="5" rx="5" y="6" x="6" height="38" width="38"
        fill="#f2f5e9" fill-opacity="0.5" stroke="#606060" stroke-width="1.0"/>
   <path id="arrow"
     d="M 11.500037,31.436501 C 11.940474,20.09759 22.043105,11.32322 32.158766,21.979434 L 37.068811,17.246167 C 37.068811,17.246167 37.088388,32 37.088388,32 L 22.160133,31.978069 C 22.160133,31.978069 26.997745,27.140456 26.997745,27.140456 C 18.528582,18.264221 13.291696,25.230495 11.500037,31.436501 z"
     style="fill:#404040;"/>
  </a>
 </g>
</svg>

<style type='text/css'>
<![CDATA[
[data-mouse-over-selected='false'] { opacity: 0.7; }
[data-mouse-over-selected='true']  { opacity: 1.0; }
]]>
</style>
<script type="application/ecmascript"><![CDATA[
document.addEventListener('DOMContentLoaded', (event) => {
  highlightEdges();
  highlightAdjacentNodes();
});
]]></script>
</svg>
