<?xml version="1.0" encoding="UTF-8" standalone="no"?>
<!DOCTYPE svg PUBLIC "-//W3C//DTD SVG 1.1//EN"
 "http://www.w3.org/Graphics/SVG/1.1/DTD/svg11.dtd">
<!-- Generated by graphviz version 2.40.1 (0)
 -->
<!-- Title: porter/libsrc/porter/protocol/window.h Pages: 1 -->
<svg width="544pt" height="236pt"
 viewBox="0.00 0.00 543.50 236.00" xmlns="http://www.w3.org/2000/svg" xmlns:xlink="http://www.w3.org/1999/xlink">
<g id="graph0" class="graph" transform="scale(1 1) rotate(0) translate(4 232)">
<title>porter/libsrc/porter/protocol/window.h</title>
<!-- Node1 -->
<g id="Node000001" class="node">
<title>Node1</title>
<g id="a_Node000001"><a xlink:title="スライディングウィンドウ管理モジュールの内部ヘッダー。">
<polygon fill="#999999" stroke="#666666" points="383.5,-228 287.5,-228 287.5,-198 383.5,-198 383.5,-228"/>
<text text-anchor="start" x="295.5" y="-216" font-family="Helvetica,sans-Serif" font-size="10.00" fill="#000000">porter/libsrc/porter</text>
<text text-anchor="middle" x="335.5" y="-205" font-family="Helvetica,sans-Serif" font-size="10.00" fill="#000000">/protocol/window.h</text>
</a>
</g>
</g>
<!-- Node2 -->
<g id="Node000002" class="node">
<title>Node2</title>
<g id="a_Node000002"><a xlink:href="potrContext_8h.html" target="_top" xlink:title="セッションコンテキスト内部定義ヘッダー。">
<polygon fill="#ffffff" stroke="#666666" points="269,-162 174,-162 174,-132 269,-132 269,-162"/>
<text text-anchor="start" x="182" y="-150" font-family="Helvetica,sans-Serif" font-size="10.00" fill="#000000">porter/libsrc/porter</text>
<text text-anchor="middle" x="221.5" y="-139" font-family="Helvetica,sans-Serif" font-size="10.00" fill="#000000">/potrContext.h</text>
</a>
</g>
</g>
<!-- Node1&#45;&gt;Node2 -->
<g id="edge1_Node000001_Node000002" class="edge">
<title>Node1&#45;&gt;Node2</title>
<g id="a_edge1_Node000001_Node000002"><a xlink:title=" ">
<path fill="none" stroke="#63b8ff" d="M300.2481,-192.591C283.2219,-182.7337 263.1501,-171.1132 247.5322,-162.0713"/>
<polygon fill="#63b8ff" stroke="#63b8ff" points="298.9382,-195.8769 309.3461,-197.8583 302.4455,-189.8189 298.9382,-195.8769"/>
</a>
</g>
</g>
<!-- Node4 -->
<g id="Node000004" class="node">
<title>Node4</title>
<g id="a_Node000004"><a xlink:href="potrOpenService_8c.html" target="_top" xlink:title="potrOpenService 関数の実装。">
<polygon fill="#ffffff" stroke="#666666" points="329,-30 228,-30 228,0 329,0 329,-30"/>
<text text-anchor="start" x="236" y="-18" font-family="Helvetica,sans-Serif" font-size="10.00" fill="#000000">porter/libsrc/porter</text>
<text text-anchor="middle" x="278.5" y="-7" font-family="Helvetica,sans-Serif" font-size="10.00" fill="#000000">/potrOpenService.c</text>
</a>
</g>
</g>
<!-- Node1&#45;&gt;Node4 -->
<g id="edge10_Node000001_Node000004" class="edge">
<title>Node1&#45;&gt;Node4</title>
<g id="a_edge10_Node000001_Node000004"><a xlink:title=" ">
<path fill="none" stroke="#63b8ff" d="M357.0143,-190.0216C382.5216,-159.8751 418.4915,-106.1017 392.5,-66 378.4078,-44.2575 352.6315,-31.7008 329.15,-24.4918"/>
<polygon fill="#63b8ff" stroke="#63b8ff" points="354.103,-188.0341 350.1575,-197.867 359.3736,-192.6407 354.103,-188.0341"/>
</a>
</g>
</g>
<!-- Node5 -->
<g id="Node000005" class="node">
<title>Node5</title>
<g id="a_Node000005"><a xlink:href="potrRecvThread_8c.html" target="_top" xlink:title="受信スレッドモジュール。">
<polygon fill="#ffffff" stroke="#666666" points="97,-30 0,-30 0,0 97,0 97,-30"/>
<text text-anchor="start" x="8" y="-18" font-family="Helvetica,sans-Serif" font-size="10.00" fill="#000000">porter/libsrc/porter</text>
<text text-anchor="middle" x="48.5" y="-7" font-family="Helvetica,sans-Serif" font-size="10.00" fill="#000000">/potrRecvThread.c</text>
</a>
</g>
</g>
<!-- Node1&#45;&gt;Node5 -->
<g id="edge11_Node000001_Node000005" class="edge">
<title>Node1&#45;&gt;Node5</title>
<g id="a_edge11_Node000001_Node000005"><a xlink:title=" ">
<path fill="none" stroke="#63b8ff" d="M277.6334,-201.7323C243.4331,-193.6365 200.0128,-180.7954 164.5,-162 123.4564,-140.2774 111.51,-133.0389 83.5,-96 68.0689,-75.5948 57.8763,-47.3423 52.6542,-30.1642"/>
<polygon fill="#63b8ff" stroke="#63b8ff" points="276.9457,-205.1654 287.4754,-203.9922 278.5123,-198.343 276.9457,-205.1654"/>
</a>
</g>
</g>
<!-- Node7 -->
<g id="Node000007" class="node">
<title>Node7</title>
<g id="a_Node000007"><a xlink:href="potrSend_8c.html" target="_top" xlink:title="potrSend 関数の実装。">
<polygon fill="#ffffff" stroke="#666666" points="383,-96 288,-96 288,-66 383,-66 383,-96"/>
<text text-anchor="start" x="296" y="-84" font-family="Helvetica,sans-Serif" font-size="10.00" fill="#000000">porter/libsrc/porter</text>
<text text-anchor="middle" x="335.5" y="-73" font-family="Helvetica,sans-Serif" font-size="10.00" fill="#000000">/potrSend.c</text>
</a>
</g>
</g>
<!-- Node1&#45;&gt;Node7 -->
<g id="edge12_Node000001_Node000007" class="edge">
<title>Node1&#45;&gt;Node7</title>
<g id="a_edge12_Node000001_Node000007"><a xlink:title=" ">
<path fill="none" stroke="#63b8ff" d="M335.5,-187.6316C335.5,-160.6266 335.5,-118.7661 335.5,-96.3721"/>
<polygon fill="#63b8ff" stroke="#63b8ff" points="332.0001,-187.8579 335.5,-197.8579 339.0001,-187.858 332.0001,-187.8579"/>
</a>
</g>
</g>
<!-- Node8 -->
<g id="Node000008" class="node">
<title>Node8</title>
<g id="a_Node000008"><a xlink:href="window_8c.html" target="_top" xlink:title="スライディングウィンドウ管理モジュール。">
<polygon fill="#ffffff" stroke="#666666" points="535.5,-162 439.5,-162 439.5,-132 535.5,-132 535.5,-162"/>
<text text-anchor="start" x="447.5" y="-150" font-family="Helvetica,sans-Serif" font-size="10.00" fill="#000000">porter/libsrc/porter</text>
<text text-anchor="middle" x="487.5" y="-139" font-family="Helvetica,sans-Serif" font-size="10.00" fill="#000000">/protocol/window.c</text>
</a>
</g>
</g>
<!-- Node1&#45;&gt;Node8 -->
<g id="edge13_Node000001_Node000008" class="edge">
<title>Node1&#45;&gt;Node8</title>
<g id="a_edge13_Node000001_Node000008"><a xlink:title=" ">
<path fill="none" stroke="#63b8ff" d="M379.6868,-193.8136C402.9636,-183.7066 431.0988,-171.49 452.7904,-162.0713"/>
<polygon fill="#63b8ff" stroke="#63b8ff" points="378.1505,-190.6649 370.3719,-197.8583 380.9385,-197.0858 378.1505,-190.6649"/>
</a>
</g>
</g>
<!-- Node3 -->
<g id="Node000003" class="node">
<title>Node3</title>
<g id="a_Node000003"><a xlink:href="potrClose_8c.html" target="_top" xlink:title="potrClose 関数の実装。">
<polygon fill="#ffffff" stroke="#666666" points="210,-30 115,-30 115,0 210,0 210,-30"/>
<text text-anchor="start" x="123" y="-18" font-family="Helvetica,sans-Serif" font-size="10.00" fill="#000000">porter/libsrc/porter</text>
<text text-anchor="middle" x="162.5" y="-7" font-family="Helvetica,sans-Serif" font-size="10.00" fill="#000000">/potrClose.c</text>
</a>
</g>
</g>
<!-- Node2&#45;&gt;Node3 -->
<g id="edge2_Node000002_Node000003" class="edge">
<title>Node2&#45;&gt;Node3</title>
<g id="a_edge2_Node000002_Node000003"><a xlink:title=" ">
<path fill="none" stroke="#63b8ff" d="M164.6224,-129.67C148.8819,-121.9685 133.6276,-111.1114 124.5,-96 111.2488,-74.0618 130.8652,-46.7543 146.4857,-30.1124"/>
<polygon fill="#63b8ff" stroke="#63b8ff" points="163.3483,-132.9347 173.9037,-133.8481 166.2218,-126.5516 163.3483,-132.9347"/>
</a>
</g>
</g>
<!-- Node2&#45;&gt;Node4 -->
<g id="edge3_Node000002_Node000004" class="edge">
<title>Node2&#45;&gt;Node4</title>
<g id="a_edge3_Node000002_Node000004"><a xlink:title=" ">
<path fill="none" stroke="#63b8ff" d="M232.1451,-122.3482C243.7938,-95.3723 262.1059,-52.9652 271.8621,-30.3721"/>
<polygon fill="#63b8ff" stroke="#63b8ff" points="228.7898,-121.2897 228.0386,-131.8579 235.2163,-124.0648 228.7898,-121.2897"/>
</a>
</g>
</g>
<!-- Node2&#45;&gt;Node5 -->
<g id="edge4_Node000002_Node000005" class="edge">
<title>Node2&#45;&gt;Node5</title>
<g id="a_edge4_Node000002_Node000005"><a xlink:title=" ">
<path fill="none" stroke="#63b8ff" d="M171.4744,-127.8882C153.1885,-119.6068 132.9669,-108.8406 116.5,-96 92.0301,-76.9189 70.2333,-47.7305 58.2444,-30.0953"/>
<polygon fill="#63b8ff" stroke="#63b8ff" points="170.2664,-131.1802 180.8303,-131.9902 173.0773,-124.7693 170.2664,-131.1802"/>
</a>
</g>
</g>
<!-- Node6 -->
<g id="Node000006" class="node">
<title>Node6</title>
<g id="a_Node000006"><a xlink:href="potrRecvThread_8h.html" target="_top" xlink:title="受信スレッド内部ヘッダー。">
<polygon fill="#ffffff" stroke="#666666" points="231,-96 134,-96 134,-66 231,-66 231,-96"/>
<text text-anchor="start" x="142" y="-84" font-family="Helvetica,sans-Serif" font-size="10.00" fill="#000000">porter/libsrc/porter</text>
<text text-anchor="middle" x="182.5" y="-73" font-family="Helvetica,sans-Serif" font-size="10.00" fill="#000000">/potrRecvThread.h</text>
</a>
</g>
</g>
<!-- Node2&#45;&gt;Node6 -->
<g id="edge5_Node000002_Node000006" class="edge">
<title>Node2&#45;&gt;Node6</title>
<g id="a_edge5_Node000002_Node000006"><a xlink:title=" ">
<path fill="none" stroke="#63b8ff" d="M207.2403,-122.8682C201.9775,-113.9619 196.1646,-104.1246 191.4964,-96.2246"/>
<polygon fill="#63b8ff" stroke="#63b8ff" points="204.354,-124.8637 212.4546,-131.6924 210.3805,-121.3025 204.354,-124.8637"/>
</a>
</g>
</g>
<!-- Node2&#45;&gt;Node7 -->
<g id="edge9_Node000002_Node000007" class="edge">
<title>Node2&#45;&gt;Node7</title>
<g id="a_edge9_Node000002_Node000007"><a xlink:title=" ">
<path fill="none" stroke="#63b8ff" d="M256.7519,-126.591C273.7781,-116.7337 293.8499,-105.1132 309.4678,-96.0713"/>
<polygon fill="#63b8ff" stroke="#63b8ff" points="254.5545,-123.8189 247.6539,-131.8583 258.0618,-129.8769 254.5545,-123.8189"/>
</a>
</g>
</g>
<!-- Node6&#45;&gt;Node3 -->
<g id="edge6_Node000006_Node000003" class="edge">
<title>Node6&#45;&gt;Node3</title>
<g id="a_edge6_Node000006_Node000003"><a xlink:title=" ">
<path fill="none" stroke="#63b8ff" d="M174.9308,-56.0218C172.3008,-47.3425 169.4319,-37.8752 167.1135,-30.2246"/>
<polygon fill="#63b8ff" stroke="#63b8ff" points="171.6116,-57.1372 177.8613,-65.6924 178.3108,-55.1071 171.6116,-57.1372"/>
</a>
</g>
</g>
<!-- Node6&#45;&gt;Node4 -->
<g id="edge7_Node000006_Node000004" class="edge">
<title>Node6&#45;&gt;Node4</title>
<g id="a_edge7_Node000006_Node000004"><a xlink:title=" ">
<path fill="none" stroke="#63b8ff" d="M213.1617,-59.9201C227.2041,-50.2659 243.5337,-39.0394 256.3551,-30.2246"/>
<polygon fill="#63b8ff" stroke="#63b8ff" points="211.0232,-57.1429 204.7656,-65.6924 214.9889,-62.9112 211.0232,-57.1429"/>
</a>
</g>
</g>
<!-- Node6&#45;&gt;Node5 -->
<g id="edge8_Node000006_Node000005" class="edge">
<title>Node6&#45;&gt;Node5</title>
<g id="a_edge8_Node000006_Node000005"><a xlink:title=" ">
<path fill="none" stroke="#63b8ff" d="M142.7228,-61.4083C122.3651,-51.3813 97.9671,-39.3644 79.0993,-30.0713"/>
<polygon fill="#63b8ff" stroke="#63b8ff" points="141.2403,-64.5795 151.7577,-65.8583 144.3333,-58.2999 141.2403,-64.5795"/>
</a>
</g>
</g>
</g>
</svg>
