<?xml version="1.0" encoding="UTF-8" standalone="no"?>
<!DOCTYPE svg PUBLIC "-//W3C//DTD SVG 1.1//EN"
 "http://www.w3.org/Graphics/SVG/1.1/DTD/svg11.dtd">
<!-- Generated by graphviz version 2.40.1 (0)
 -->
<!-- Title: porter/libsrc/porter/protocol/window.h Pages: 1 -->
<svg width="225pt" height="148pt"
 viewBox="0.00 0.00 225.00 148.00" xmlns="http://www.w3.org/2000/svg" xmlns:xlink="http://www.w3.org/1999/xlink">
<g id="graph0" class="graph" transform="scale(1 1) rotate(0) translate(4 144)">
<title>porter/libsrc/porter/protocol/window.h</title>
<!-- Node1 -->
<g id="Node000001" class="node">
<title>Node1</title>
<g id="a_Node000001"><a xlink:title="スライディングウィンドウ管理モジュールの内部ヘッダー。">
<polygon fill="#999999" stroke="#666666" points="141.5,-140 45.5,-140 45.5,-110 141.5,-110 141.5,-140"/>
<text text-anchor="start" x="53.5" y="-128" font-family="Helvetica,sans-Serif" font-size="10.00" fill="#000000">porter/libsrc/porter</text>
<text text-anchor="middle" x="93.5" y="-117" font-family="Helvetica,sans-Serif" font-size="10.00" fill="#000000">/protocol/window.h</text>
</a>
</g>
</g>
<!-- Node2 -->
<g id="Node000002" class="node">
<title>Node2</title>
<g id="a_Node000002"><a xlink:title=" ">
<polygon fill="#e0e0e0" stroke="#999999" points="49,-19 0,-19 0,0 49,0 49,-19"/>
<text text-anchor="middle" x="24.5" y="-7" font-family="Helvetica,sans-Serif" font-size="10.00" fill="#000000">stdint.h</text>
</a>
</g>
</g>
<!-- Node1&#45;&gt;Node2 -->
<g id="edge1_Node000001_Node000002" class="edge">
<title>Node1&#45;&gt;Node2</title>
<g id="a_edge1_Node000001_Node000002"><a xlink:title=" ">
<path fill="none" stroke="#63b8ff" d="M76.8136,-109.7701C67.1838,-100.253 55.4458,-87.3094 47.5,-74 39.1206,-59.9643 33.1073,-42.3986 29.3358,-29.144"/>
<polygon fill="#63b8ff" stroke="#63b8ff" points="32.6432,-27.9619 26.6922,-19.1963 25.878,-29.7598 32.6432,-27.9619"/>
</a>
</g>
</g>
<!-- Node3 -->
<g id="Node000003" class="node">
<title>Node3</title>
<g id="a_Node000003"><a xlink:href="porter__const_8h.html" target="_top" xlink:title="通信ライブラリの定数ファイル。">
<polygon fill="#ffffff" stroke="#666666" points="217,-19 138,-19 138,0 217,0 217,-19"/>
<text text-anchor="middle" x="177.5" y="-7" font-family="Helvetica,sans-Serif" font-size="10.00" fill="#000000">porter_const.h</text>
</a>
</g>
</g>
<!-- Node1&#45;&gt;Node3 -->
<g id="edge2_Node000001_Node000003" class="edge">
<title>Node1&#45;&gt;Node3</title>
<g id="a_edge2_Node000001_Node000003"><a xlink:title=" ">
<path fill="none" stroke="#63b8ff" d="M108.8674,-109.6258C118.2483,-99.8513 130.1873,-86.6885 139.5,-74 150.2853,-59.3052 160.6585,-41.3524 167.834,-28.1219"/>
<polygon fill="#63b8ff" stroke="#63b8ff" points="171.0491,-29.5301 172.6517,-19.0572 164.8679,-26.2449 171.0491,-29.5301"/>
</a>
</g>
</g>
<!-- Node4 -->
<g id="Node000004" class="node">
<title>Node4</title>
<g id="a_Node000004"><a xlink:href="porter__type_8h.html" target="_top" xlink:title="通信ライブラリの型定義ファイル。">
<polygon fill="#ffffff" stroke="#666666" points="130.5,-74 56.5,-74 56.5,-55 130.5,-55 130.5,-74"/>
<text text-anchor="middle" x="93.5" y="-62" font-family="Helvetica,sans-Serif" font-size="10.00" fill="#000000">porter_type.h</text>
</a>
</g>
</g>
<!-- Node1&#45;&gt;Node4 -->
<g id="edge3_Node000001_Node000004" class="edge">
<title>Node1&#45;&gt;Node4</title>
<g id="a_edge3_Node000001_Node000004"><a xlink:title=" ">
<path fill="none" stroke="#63b8ff" d="M93.5,-109.7333C93.5,-102.0322 93.5,-92.5977 93.5,-84.3414"/>
<polygon fill="#63b8ff" stroke="#63b8ff" points="97.0001,-84.0864 93.5,-74.0864 90.0001,-84.0864 97.0001,-84.0864"/>
</a>
</g>
</g>
<!-- Node4&#45;&gt;Node2 -->
<g id="edge5_Node000004_Node000002" class="edge">
<title>Node4&#45;&gt;Node2</title>
<g id="a_edge5_Node000004_Node000002"><a xlink:title=" ">
<path fill="none" stroke="#63b8ff" d="M81.4811,-54.9197C71.4144,-46.8956 56.8247,-35.2661 44.9287,-25.7837"/>
<polygon fill="#63b8ff" stroke="#63b8ff" points="46.8471,-22.8371 36.8458,-19.3408 42.4839,-28.3109 46.8471,-22.8371"/>
</a>
</g>
</g>
<!-- Node4&#45;&gt;Node3 -->
<g id="edge6_Node000004_Node000003" class="edge">
<title>Node4&#45;&gt;Node3</title>
<g id="a_edge6_Node000004_Node000003"><a xlink:title=" ">
<path fill="none" stroke="#63b8ff" d="M108.1317,-54.9197C120.8216,-46.6109 139.4154,-34.4363 154.159,-24.7828"/>
<polygon fill="#63b8ff" stroke="#63b8ff" points="156.3052,-27.5611 162.7541,-19.155 152.4707,-21.7048 156.3052,-27.5611"/>
</a>
</g>
</g>
<!-- Node5 -->
<g id="Node000005" class="node">
<title>Node5</title>
<g id="a_Node000005"><a xlink:title=" ">
<polygon fill="#e0e0e0" stroke="#999999" points="119.5,-19 67.5,-19 67.5,0 119.5,0 119.5,-19"/>
<text text-anchor="middle" x="93.5" y="-7" font-family="Helvetica,sans-Serif" font-size="10.00" fill="#000000">stddef.h</text>
</a>
</g>
</g>
<!-- Node4&#45;&gt;Node5 -->
<g id="edge4_Node000004_Node000005" class="edge">
<title>Node4&#45;&gt;Node5</title>
<g id="a_edge4_Node000004_Node000005"><a xlink:title=" ">
<path fill="none" stroke="#63b8ff" d="M93.5,-54.9197C93.5,-47.9083 93.5,-38.1442 93.5,-29.4652"/>
<polygon fill="#63b8ff" stroke="#63b8ff" points="97.0001,-29.3408 93.5,-19.3408 90.0001,-29.3409 97.0001,-29.3408"/>
</a>
</g>
</g>
</g>
</svg>
