<?xml version="1.0" encoding="UTF-8" standalone="no"?>
<!DOCTYPE svg PUBLIC "-//W3C//DTD SVG 1.1//EN"
 "http://www.w3.org/Graphics/SVG/1.1/DTD/svg11.dtd">
<!-- Generated by graphviz version 2.40.1 (0)
 -->
<!-- Title: porter/libsrc/porter/protocol/window.c Pages: 1 -->
<svg width="488pt" height="203pt"
 viewBox="0.00 0.00 487.50 203.00" xmlns="http://www.w3.org/2000/svg" xmlns:xlink="http://www.w3.org/1999/xlink">

<svg id="main" version="1.1" xmlns="http://www.w3.org/2000/svg" xmlns:xlink="http://www.w3.org/1999/xlink" xml:space="preserve">

<style type="text/css"><![CDATA[
.node, .edge {opacity: 0.7;}
.node.selected, .edge.selected {opacity: 1;}
.edge:hover path { stroke: red; }
.edge:hover polygon { stroke: red; fill: red; }
]]></style>
<script type="application/ecmascript" xlink:href="svg.min.js"/>
<svg id="graph" class="graph">
<g id="graph0" class="graph" transform="scale(1 1) rotate(0) translate(4 199)">
<title>porter/libsrc/porter/protocol/window.c</title>
<!-- Node1 -->
<g id="Node000001" class="node">
<title>Node1</title>
<g id="a_Node000001"><a xlink:title="スライディングウィンドウ管理モジュール。">
<polygon fill="#999999" stroke="#666666" points="242,-195 146,-195 146,-165 242,-165 242,-195"/>
<text text-anchor="start" x="154" y="-183" font-family="Helvetica,sans-Serif" font-size="10.00" fill="#000000">porter/libsrc/porter</text>
<text text-anchor="middle" x="194" y="-172" font-family="Helvetica,sans-Serif" font-size="10.00" fill="#000000">/protocol/window.c</text>
</a>
</g>
</g>
<!-- Node2 -->
<g id="Node000002" class="node">
<title>Node2</title>
<g id="a_Node000002"><a xlink:title=" ">
<polygon fill="#e0e0e0" stroke="#999999" points="48,-129 0,-129 0,-110 48,-110 48,-129"/>
<text text-anchor="middle" x="24" y="-117" font-family="Helvetica,sans-Serif" font-size="10.00" fill="#000000">stdlib.h</text>
</a>
</g>
</g>
<!-- Node1&#45;&gt;Node2 -->
<g id="edge1_Node000001_Node000002" class="edge">
<title>Node1&#45;&gt;Node2</title>
<g id="a_edge1_Node000001_Node000002"><a xlink:title=" ">
<path fill="none" stroke="#63b8ff" d="M151.5403,-164.8894C122.5884,-154.5859 84.7648,-141.1251 57.8432,-131.5442"/>
<polygon fill="#63b8ff" stroke="#63b8ff" points="58.695,-128.1324 48.1003,-128.0769 56.348,-134.7272 58.695,-128.1324"/>
</a>
</g>
</g>
<!-- Node3 -->
<g id="Node000003" class="node">
<title>Node3</title>
<g id="a_Node000003"><a xlink:title=" ">
<polygon fill="#e0e0e0" stroke="#999999" points="115.5,-129 66.5,-129 66.5,-110 115.5,-110 115.5,-129"/>
<text text-anchor="middle" x="91" y="-117" font-family="Helvetica,sans-Serif" font-size="10.00" fill="#000000">string.h</text>
</a>
</g>
</g>
<!-- Node1&#45;&gt;Node3 -->
<g id="edge2_Node000001_Node000003" class="edge">
<title>Node1&#45;&gt;Node3</title>
<g id="a_edge2_Node000001_Node000003"><a xlink:title=" ">
<path fill="none" stroke="#63b8ff" d="M168.2744,-164.8894C152.3353,-155.527 131.958,-143.5579 116.131,-134.2614"/>
<polygon fill="#63b8ff" stroke="#63b8ff" points="117.8013,-131.1834 107.406,-129.1366 114.256,-137.2192 117.8013,-131.1834"/>
</a>
</g>
</g>
<!-- Node4 -->
<g id="Node000004" class="node">
<title>Node4</title>
<g id="a_Node000004"><a xlink:title=" ">
<polygon fill="#e0e0e0" stroke="#999999" points="196,-129 134,-129 134,-110 196,-110 196,-129"/>
<text text-anchor="middle" x="165" y="-117" font-family="Helvetica,sans-Serif" font-size="10.00" fill="#000000">arpa/inet.h</text>
</a>
</g>
</g>
<!-- Node1&#45;&gt;Node4 -->
<g id="edge3_Node000001_Node000004" class="edge">
<title>Node1&#45;&gt;Node4</title>
<g id="a_edge3_Node000001_Node000004"><a xlink:title=" ">
<path fill="none" stroke="#63b8ff" d="M186.6821,-164.7333C182.8228,-156.6821 178.0555,-146.7365 173.9747,-138.2231"/>
<polygon fill="#63b8ff" stroke="#63b8ff" points="177.0738,-136.5911 169.5951,-129.0864 170.7615,-139.6169 177.0738,-136.5911"/>
</a>
</g>
</g>
<!-- Node5 -->
<g id="Node000005" class="node">
<title>Node5</title>
<g id="a_Node000005"><a xlink:href="porter__const_8h.html" target="_top" xlink:title="通信ライブラリの定数ファイル。">
<polygon fill="#ffffff" stroke="#666666" points="282.5,-19 203.5,-19 203.5,0 282.5,0 282.5,-19"/>
<text text-anchor="middle" x="243" y="-7" font-family="Helvetica,sans-Serif" font-size="10.00" fill="#000000">porter_const.h</text>
</a>
</g>
</g>
<!-- Node1&#45;&gt;Node5 -->
<g id="edge4_Node000001_Node000005" class="edge">
<title>Node1&#45;&gt;Node5</title>
<g id="a_edge4_Node000001_Node000005"><a xlink:title=" ">
<path fill="none" stroke="#63b8ff" d="M198.3484,-164.8693C207.2673,-133.8351 227.618,-63.0232 237.4628,-28.7672"/>
<polygon fill="#63b8ff" stroke="#63b8ff" points="240.8639,-29.6041 240.2622,-19.0264 234.1362,-27.6706 240.8639,-29.6041"/>
</a>
</g>
</g>
<!-- Node6 -->
<g id="Node000006" class="node">
<title>Node6</title>
<g id="a_Node000006"><a xlink:href="seqnum_8h.html" target="_top" xlink:title="通番管理モジュールの内部ヘッダー。">
<polygon fill="#ffffff" stroke="#666666" points="479.5,-74 420.5,-74 420.5,-55 479.5,-55 479.5,-74"/>
<text text-anchor="middle" x="450" y="-62" font-family="Helvetica,sans-Serif" font-size="10.00" fill="#000000">seqnum.h</text>
</a>
</g>
</g>
<!-- Node1&#45;&gt;Node6 -->
<g id="edge5_Node000001_Node000006" class="edge">
<title>Node1&#45;&gt;Node6</title>
<g id="a_edge5_Node000001_Node000006"><a xlink:title=" ">
<path fill="none" stroke="#63b8ff" d="M242.2661,-165.7458C271.1657,-156.5744 308.3202,-143.6518 340,-129 371.2951,-114.5261 405.2268,-93.7894 427.003,-79.7679"/>
<polygon fill="#63b8ff" stroke="#63b8ff" points="429.0753,-82.5953 435.5484,-74.2077 425.2576,-76.728 429.0753,-82.5953"/>
</a>
</g>
</g>
<!-- Node8 -->
<g id="Node000008" class="node">
<title>Node8</title>
<g id="a_Node000008"><a xlink:href="window_8h.html" target="_top" xlink:title="スライディングウィンドウ管理モジュールの内部ヘッダー。">
<polygon fill="#ffffff" stroke="#666666" points="331,-129 275,-129 275,-110 331,-110 331,-129"/>
<text text-anchor="middle" x="303" y="-117" font-family="Helvetica,sans-Serif" font-size="10.00" fill="#000000">window.h</text>
</a>
</g>
</g>
<!-- Node1&#45;&gt;Node8 -->
<g id="edge7_Node000001_Node000008" class="edge">
<title>Node1&#45;&gt;Node8</title>
<g id="a_edge7_Node000001_Node000008"><a xlink:title=" ">
<path fill="none" stroke="#63b8ff" d="M221.2241,-164.8894C238.2494,-155.4395 260.0595,-143.3339 276.8734,-134.0015"/>
<polygon fill="#63b8ff" stroke="#63b8ff" points="278.5934,-137.0499 285.6383,-129.1366 275.1962,-130.9294 278.5934,-137.0499"/>
</a>
</g>
</g>
<!-- Node7 -->
<g id="Node000007" class="node">
<title>Node7</title>
<g id="a_Node000007"><a xlink:title=" ">
<polygon fill="#e0e0e0" stroke="#999999" points="420.5,-19 371.5,-19 371.5,0 420.5,0 420.5,-19"/>
<text text-anchor="middle" x="396" y="-7" font-family="Helvetica,sans-Serif" font-size="10.00" fill="#000000">stdint.h</text>
</a>
</g>
</g>
<!-- Node6&#45;&gt;Node7 -->
<g id="edge6_Node000006_Node000007" class="edge">
<title>Node6&#45;&gt;Node7</title>
<g id="a_edge6_Node000006_Node000007"><a xlink:title=" ">
<path fill="none" stroke="#63b8ff" d="M440.5939,-54.9197C432.9451,-47.1293 421.9597,-35.9405 412.8064,-26.6176"/>
<polygon fill="#63b8ff" stroke="#63b8ff" points="415.1653,-24.0244 405.6619,-19.3408 410.1704,-28.9286 415.1653,-24.0244"/>
</a>
</g>
</g>
<!-- Node8&#45;&gt;Node5 -->
<g id="edge9_Node000008_Node000005" class="edge">
<title>Node8&#45;&gt;Node5</title>
<g id="a_edge9_Node000008_Node000005"><a xlink:title=" ">
<path fill="none" stroke="#63b8ff" d="M297.6754,-109.7382C287.6875,-91.4271 265.9917,-51.6514 253.1356,-28.082"/>
<polygon fill="#63b8ff" stroke="#63b8ff" points="256.0882,-26.1858 248.227,-19.0828 249.9429,-29.5378 256.0882,-26.1858"/>
</a>
</g>
</g>
<!-- Node8&#45;&gt;Node7 -->
<g id="edge8_Node000008_Node000007" class="edge">
<title>Node8&#45;&gt;Node7</title>
<g id="a_edge8_Node000008_Node000007"><a xlink:title=" ">
<path fill="none" stroke="#63b8ff" d="M325.0179,-109.9134C340.3845,-102.2124 360.3332,-90.0384 373,-74 383.3492,-60.8961 389.2656,-42.7557 392.498,-29.0498"/>
<polygon fill="#63b8ff" stroke="#63b8ff" points="395.9391,-29.6927 394.5483,-19.1896 389.0857,-28.2675 395.9391,-29.6927"/>
</a>
</g>
</g>
<!-- Node9 -->
<g id="Node000009" class="node">
<title>Node9</title>
<g id="a_Node000009"><a xlink:href="porter__type_8h.html" target="_top" xlink:title="通信ライブラリの型定義ファイル。">
<polygon fill="#ffffff" stroke="#666666" points="364,-74 290,-74 290,-55 364,-55 364,-74"/>
<text text-anchor="middle" x="327" y="-62" font-family="Helvetica,sans-Serif" font-size="10.00" fill="#000000">porter_type.h</text>
</a>
</g>
</g>
<!-- Node8&#45;&gt;Node9 -->
<g id="edge10_Node000008_Node000009" class="edge">
<title>Node8&#45;&gt;Node9</title>
<g id="a_edge10_Node000008_Node000009"><a xlink:title=" ">
<path fill="none" stroke="#63b8ff" d="M307.1805,-109.9197C310.342,-102.6746 314.7861,-92.4903 318.665,-83.601"/>
<polygon fill="#63b8ff" stroke="#63b8ff" points="321.9142,-84.9061 322.7058,-74.3408 315.4984,-82.1064 321.9142,-84.9061"/>
</a>
</g>
</g>
<!-- Node9&#45;&gt;Node5 -->
<g id="edge13_Node000009_Node000005" class="edge">
<title>Node9&#45;&gt;Node5</title>
<g id="a_edge13_Node000009_Node000005"><a xlink:title=" ">
<path fill="none" stroke="#63b8ff" d="M312.3683,-54.9197C299.6784,-46.6109 281.0846,-34.4363 266.341,-24.7828"/>
<polygon fill="#63b8ff" stroke="#63b8ff" points="268.0293,-21.7048 257.7459,-19.155 264.1948,-27.5611 268.0293,-21.7048"/>
</a>
</g>
</g>
<!-- Node9&#45;&gt;Node7 -->
<g id="edge12_Node000009_Node000007" class="edge">
<title>Node9&#45;&gt;Node7</title>
<g id="a_edge12_Node000009_Node000007"><a xlink:title=" ">
<path fill="none" stroke="#63b8ff" d="M339.0189,-54.9197C349.0856,-46.8956 363.6753,-35.2661 375.5713,-25.7837"/>
<polygon fill="#63b8ff" stroke="#63b8ff" points="378.0161,-28.3109 383.6542,-19.3408 373.6529,-22.8371 378.0161,-28.3109"/>
</a>
</g>
</g>
<!-- Node10 -->
<g id="Node000010" class="node">
<title>Node10</title>
<g id="a_Node000010"><a xlink:title=" ">
<polygon fill="#e0e0e0" stroke="#999999" points="353,-19 301,-19 301,0 353,0 353,-19"/>
<text text-anchor="middle" x="327" y="-7" font-family="Helvetica,sans-Serif" font-size="10.00" fill="#000000">stddef.h</text>
</a>
</g>
</g>
<!-- Node9&#45;&gt;Node10 -->
<g id="edge11_Node000009_Node000010" class="edge">
<title>Node9&#45;&gt;Node10</title>
<g id="a_edge11_Node000009_Node000010"><a xlink:title=" ">
<path fill="none" stroke="#63b8ff" d="M327,-54.9197C327,-47.9083 327,-38.1442 327,-29.4652"/>
<polygon fill="#63b8ff" stroke="#63b8ff" points="330.5001,-29.3408 327,-19.3408 323.5001,-29.3409 330.5001,-29.3408"/>
</a>
</g>
</g>
</g>
</svg>
</svg>

<style type='text/css'>
<![CDATA[
[data-mouse-over-selected='false'] { opacity: 0.7; }
[data-mouse-over-selected='true']  { opacity: 1.0; }
]]>
</style>
<script type="application/ecmascript"><![CDATA[
document.addEventListener('DOMContentLoaded', (event) => {
  highlightEdges();
  highlightAdjacentNodes();
});
]]></script>
</svg>
