<?xml version="1.0" encoding="UTF-8" standalone="no"?>
<!DOCTYPE svg PUBLIC "-//W3C//DTD SVG 1.1//EN"
 "http://www.w3.org/Graphics/SVG/1.1/DTD/svg11.dtd">
<!-- Generated by graphviz version 2.40.1 (0)
 -->
<!-- Title: porter/libsrc/porter/protocol/window.c Pages: 1 -->
<svg width="341pt" height="203pt"
 viewBox="0.00 0.00 341.00 203.00" xmlns="http://www.w3.org/2000/svg" xmlns:xlink="http://www.w3.org/1999/xlink">

<svg id="main" version="1.1" xmlns="http://www.w3.org/2000/svg" xmlns:xlink="http://www.w3.org/1999/xlink" xml:space="preserve">

<style type="text/css"><![CDATA[
.node, .edge {opacity: 0.7;}
.node.selected, .edge.selected {opacity: 1;}
.edge:hover path { stroke: red; }
.edge:hover polygon { stroke: red; fill: red; }
]]></style>
<script type="application/ecmascript" xlink:href="svg.min.js"/>
<svg id="graph" class="graph">
<g id="graph0" class="graph" transform="scale(1 1) rotate(0) translate(4 199)">
<title>porter/libsrc/porter/protocol/window.c</title>
<!-- Node1 -->
<g id="Node000001" class="node">
<title>Node1</title>
<g id="a_Node000001"><a xlink:title="スライディングウィンドウ管理モジュール。">
<polygon fill="#999999" stroke="#666666" points="164.5,-195 68.5,-195 68.5,-165 164.5,-165 164.5,-195"/>
<text text-anchor="start" x="76.5" y="-183" font-family="Helvetica,sans-Serif" font-size="10.00" fill="#000000">porter/libsrc/porter</text>
<text text-anchor="middle" x="116.5" y="-172" font-family="Helvetica,sans-Serif" font-size="10.00" fill="#000000">/protocol/window.c</text>
</a>
</g>
</g>
<!-- Node2 -->
<g id="Node000002" class="node">
<title>Node2</title>
<g id="a_Node000002"><a xlink:title=" ">
<polygon fill="#e0e0e0" stroke="#999999" points="49,-129 0,-129 0,-110 49,-110 49,-129"/>
<text text-anchor="middle" x="24.5" y="-117" font-family="Helvetica,sans-Serif" font-size="10.00" fill="#000000">string.h</text>
</a>
</g>
</g>
<!-- Node1&#45;&gt;Node2 -->
<g id="edge1_Node000001_Node000002" class="edge">
<title>Node1&#45;&gt;Node2</title>
<g id="a_edge1_Node000001_Node000002"><a xlink:title=" ">
<path fill="none" stroke="#63b8ff" d="M93.2845,-164.7333C79.3114,-155.5444 61.5857,-143.8879 47.6283,-134.7093"/>
<polygon fill="#63b8ff" stroke="#63b8ff" points="49.356,-131.6566 39.0777,-129.0864 45.5099,-137.5053 49.356,-131.6566"/>
</a>
</g>
</g>
<!-- Node3 -->
<g id="Node000003" class="node">
<title>Node3</title>
<g id="a_Node000003"><a xlink:href="porter__const_8h.html" target="_top" xlink:title="通信ライブラリの定数ファイル。">
<polygon fill="#ffffff" stroke="#666666" points="136,-19 57,-19 57,0 136,0 136,-19"/>
<text text-anchor="middle" x="96.5" y="-7" font-family="Helvetica,sans-Serif" font-size="10.00" fill="#000000">porter_const.h</text>
</a>
</g>
</g>
<!-- Node1&#45;&gt;Node3 -->
<g id="edge2_Node000001_Node000003" class="edge">
<title>Node1&#45;&gt;Node3</title>
<g id="a_edge2_Node000001_Node000003"><a xlink:title=" ">
<path fill="none" stroke="#63b8ff" d="M114.7251,-164.8693C111.1005,-133.9695 102.8502,-63.6355 98.8125,-29.2141"/>
<polygon fill="#63b8ff" stroke="#63b8ff" points="102.2588,-28.5505 97.6175,-19.0264 95.3064,-29.3661 102.2588,-28.5505"/>
</a>
</g>
</g>
<!-- Node4 -->
<g id="Node000004" class="node">
<title>Node4</title>
<g id="a_Node000004"><a xlink:href="seqnum_8h.html" target="_top" xlink:title="通番管理モジュールの内部ヘッダー。">
<polygon fill="#ffffff" stroke="#666666" points="333,-74 274,-74 274,-55 333,-55 333,-74"/>
<text text-anchor="middle" x="303.5" y="-62" font-family="Helvetica,sans-Serif" font-size="10.00" fill="#000000">seqnum.h</text>
</a>
</g>
</g>
<!-- Node1&#45;&gt;Node4 -->
<g id="edge3_Node000001_Node000004" class="edge">
<title>Node1&#45;&gt;Node4</title>
<g id="a_edge3_Node000001_Node000004"><a xlink:title=" ">
<path fill="none" stroke="#63b8ff" d="M140.947,-164.9004C176.7537,-142.7845 243.0877,-101.8135 278.9518,-79.6621"/>
<polygon fill="#63b8ff" stroke="#63b8ff" points="281.1242,-82.4342 287.793,-74.2014 277.4457,-76.4786 281.1242,-82.4342"/>
</a>
</g>
</g>
<!-- Node6 -->
<g id="Node000006" class="node">
<title>Node6</title>
<g id="a_Node000006"><a xlink:href="window_8h.html" target="_top" xlink:title="スライディングウィンドウ管理モジュールの内部ヘッダー。">
<polygon fill="#ffffff" stroke="#666666" points="184.5,-129 128.5,-129 128.5,-110 184.5,-110 184.5,-129"/>
<text text-anchor="middle" x="156.5" y="-117" font-family="Helvetica,sans-Serif" font-size="10.00" fill="#000000">window.h</text>
</a>
</g>
</g>
<!-- Node1&#45;&gt;Node6 -->
<g id="edge5_Node000001_Node000006" class="edge">
<title>Node1&#45;&gt;Node6</title>
<g id="a_edge5_Node000001_Node000006"><a xlink:title=" ">
<path fill="none" stroke="#63b8ff" d="M126.5937,-164.7333C132.0325,-156.5071 138.7789,-146.3031 144.4868,-137.6699"/>
<polygon fill="#63b8ff" stroke="#63b8ff" points="147.5663,-139.3584 150.1619,-129.0864 141.7271,-135.4978 147.5663,-139.3584"/>
</a>
</g>
</g>
<!-- Node5 -->
<g id="Node000005" class="node">
<title>Node5</title>
<g id="a_Node000005"><a xlink:title=" ">
<polygon fill="#e0e0e0" stroke="#999999" points="274,-19 225,-19 225,0 274,0 274,-19"/>
<text text-anchor="middle" x="249.5" y="-7" font-family="Helvetica,sans-Serif" font-size="10.00" fill="#000000">stdint.h</text>
</a>
</g>
</g>
<!-- Node4&#45;&gt;Node5 -->
<g id="edge4_Node000004_Node000005" class="edge">
<title>Node4&#45;&gt;Node5</title>
<g id="a_edge4_Node000004_Node000005"><a xlink:title=" ">
<path fill="none" stroke="#63b8ff" d="M294.0939,-54.9197C286.4451,-47.1293 275.4597,-35.9405 266.3064,-26.6176"/>
<polygon fill="#63b8ff" stroke="#63b8ff" points="268.6653,-24.0244 259.1619,-19.3408 263.6704,-28.9286 268.6653,-24.0244"/>
</a>
</g>
</g>
<!-- Node6&#45;&gt;Node3 -->
<g id="edge7_Node000006_Node000003" class="edge">
<title>Node6&#45;&gt;Node3</title>
<g id="a_edge7_Node000006_Node000003"><a xlink:title=" ">
<path fill="none" stroke="#63b8ff" d="M151.1754,-109.7382C141.1875,-91.4271 119.4917,-51.6514 106.6356,-28.082"/>
<polygon fill="#63b8ff" stroke="#63b8ff" points="109.5882,-26.1858 101.727,-19.0828 103.4429,-29.5378 109.5882,-26.1858"/>
</a>
</g>
</g>
<!-- Node6&#45;&gt;Node5 -->
<g id="edge6_Node000006_Node000005" class="edge">
<title>Node6&#45;&gt;Node5</title>
<g id="a_edge6_Node000006_Node000005"><a xlink:title=" ">
<path fill="none" stroke="#63b8ff" d="M178.5179,-109.9134C193.8845,-102.2124 213.8332,-90.0384 226.5,-74 236.8492,-60.8961 242.7656,-42.7557 245.998,-29.0498"/>
<polygon fill="#63b8ff" stroke="#63b8ff" points="249.4391,-29.6927 248.0483,-19.1896 242.5857,-28.2675 249.4391,-29.6927"/>
</a>
</g>
</g>
<!-- Node7 -->
<g id="Node000007" class="node">
<title>Node7</title>
<g id="a_Node000007"><a xlink:href="porter__type_8h.html" target="_top" xlink:title="通信ライブラリの型定義ファイル。">
<polygon fill="#ffffff" stroke="#666666" points="217.5,-74 143.5,-74 143.5,-55 217.5,-55 217.5,-74"/>
<text text-anchor="middle" x="180.5" y="-62" font-family="Helvetica,sans-Serif" font-size="10.00" fill="#000000">porter_type.h</text>
</a>
</g>
</g>
<!-- Node6&#45;&gt;Node7 -->
<g id="edge8_Node000006_Node000007" class="edge">
<title>Node6&#45;&gt;Node7</title>
<g id="a_edge8_Node000006_Node000007"><a xlink:title=" ">
<path fill="none" stroke="#63b8ff" d="M160.6805,-109.9197C163.842,-102.6746 168.2861,-92.4903 172.165,-83.601"/>
<polygon fill="#63b8ff" stroke="#63b8ff" points="175.4142,-84.9061 176.2058,-74.3408 168.9984,-82.1064 175.4142,-84.9061"/>
</a>
</g>
</g>
<!-- Node7&#45;&gt;Node3 -->
<g id="edge11_Node000007_Node000003" class="edge">
<title>Node7&#45;&gt;Node3</title>
<g id="a_edge11_Node000007_Node000003"><a xlink:title=" ">
<path fill="none" stroke="#63b8ff" d="M165.8683,-54.9197C153.1784,-46.6109 134.5846,-34.4363 119.841,-24.7828"/>
<polygon fill="#63b8ff" stroke="#63b8ff" points="121.5293,-21.7048 111.2459,-19.155 117.6948,-27.5611 121.5293,-21.7048"/>
</a>
</g>
</g>
<!-- Node7&#45;&gt;Node5 -->
<g id="edge10_Node000007_Node000005" class="edge">
<title>Node7&#45;&gt;Node5</title>
<g id="a_edge10_Node000007_Node000005"><a xlink:title=" ">
<path fill="none" stroke="#63b8ff" d="M192.5189,-54.9197C202.5856,-46.8956 217.1753,-35.2661 229.0713,-25.7837"/>
<polygon fill="#63b8ff" stroke="#63b8ff" points="231.5161,-28.3109 237.1542,-19.3408 227.1529,-22.8371 231.5161,-28.3109"/>
</a>
</g>
</g>
<!-- Node8 -->
<g id="Node000008" class="node">
<title>Node8</title>
<g id="a_Node000008"><a xlink:title=" ">
<polygon fill="#e0e0e0" stroke="#999999" points="206.5,-19 154.5,-19 154.5,0 206.5,0 206.5,-19"/>
<text text-anchor="middle" x="180.5" y="-7" font-family="Helvetica,sans-Serif" font-size="10.00" fill="#000000">stddef.h</text>
</a>
</g>
</g>
<!-- Node7&#45;&gt;Node8 -->
<g id="edge9_Node000007_Node000008" class="edge">
<title>Node7&#45;&gt;Node8</title>
<g id="a_edge9_Node000007_Node000008"><a xlink:title=" ">
<path fill="none" stroke="#63b8ff" d="M180.5,-54.9197C180.5,-47.9083 180.5,-38.1442 180.5,-29.4652"/>
<polygon fill="#63b8ff" stroke="#63b8ff" points="184.0001,-29.3408 180.5,-19.3408 177.0001,-29.3409 184.0001,-29.3408"/>
</a>
</g>
</g>
</g>
</svg>
</svg>

<style type='text/css'>
<![CDATA[
[data-mouse-over-selected='false'] { opacity: 0.7; }
[data-mouse-over-selected='true']  { opacity: 1.0; }
]]>
</style>
<script type="application/ecmascript"><![CDATA[
document.addEventListener('DOMContentLoaded', (event) => {
  highlightEdges();
  highlightAdjacentNodes();
});
]]></script>
</svg>
