<svg xmlns="http://www.w3.org/2000/svg" xmlns:xlink="http://www.w3.org/1999/xlink" contentStyleType="text/css" data-diagram-type="ACTIVITY" height="387px" preserveAspectRatio="none" style="width:394px;height:387px;" version="1.1" viewBox="0 0 394 387" width="394px" zoomAndPan="magnify"><defs/><g><ellipse cx="72.0004" cy="20" fill="#222222" rx="10" ry="10" style="stroke:#222222;stroke-width:1;"/><path d="M138.0007,54.365 L138.0007,63.6201 L118.0007,67.6201 L138.0007,71.6201 L138.0007,80.8751 A0,0 0 0 0 138.0007,80.8751 L269.5007,80.8751 A0,0 0 0 0 269.5007,80.8751 L269.5007,64.365 L259.5007,54.365 L138.0007,54.365 A0,0 0 0 0 138.0007,54.365" fill="#FEFFDD" style="stroke:#181818;stroke-width:0.5;"/><path d="M259.5007,54.365 L259.5007,64.365 L269.5007,64.365 L259.5007,54.365" fill="#FEFFDD" style="stroke:#181818;stroke-width:0.5;"/><text fill="#000000" font-family="'Segoe UI', 'メイリオ', 'UDEV Gothic HSRFJPDOC', 'Hiragino Kaku Gothic ProN', 'ヒラギノ角ゴ ProN', 'Noto Sans JP', 'Helvetica Neue', Helvetica, Arial, sans-serif" font-size="13" lengthAdjust="spacing" textLength="110.5" x="144.0007" y="72.3651">XML + HTML &#12434;&#29983;&#25104;</text><rect fill="#F1F1F1" height="35.2401" rx="12.5" ry="12.5" style="stroke:#181818;stroke-width:0.5;" width="92.0005" x="26.0001" y="50"/><text fill="#000000" font-family="'Segoe UI', 'メイリオ', 'UDEV Gothic HSRFJPDOC', 'Hiragino Kaku Gothic ProN', 'ヒラギノ角ゴ ProN', 'Noto Sans JP', 'Helvetica Neue', Helvetica, Arial, sans-serif" font-size="12" lengthAdjust="spacing" textLength="72.0005" x="36.0001" y="72.0001">Doxygen &#23455;&#34892;</text><path d="M153.0008,95.2401 L153.0008,121.0051 L133.0008,125.0051 L153.0008,129.0051 L153.0008,154.7701 A0,0 0 0 0 153.0008,154.7701 L382.0009,154.7701 A0,0 0 0 0 382.0009,154.7701 L382.0009,105.2401 L372.0009,95.2401 L153.0008,95.2401 A0,0 0 0 0 153.0008,95.2401" fill="#FEFFDD" style="stroke:#181818;stroke-width:0.5;"/><path d="M372.0009,95.2401 L372.0009,105.2401 L382.0009,105.2401 L372.0009,95.2401" fill="#FEFFDD" style="stroke:#181818;stroke-width:0.5;"/><text fill="#000000" font-family="'Segoe UI', 'メイリオ', 'UDEV Gothic HSRFJPDOC', 'Hiragino Kaku Gothic ProN', 'ヒラギノ角ゴ ProN', 'Noto Sans JP', 'Helvetica Neue', Helvetica, Arial, sans-serif" font-size="13" lengthAdjust="spacing" textLength="149.5001" x="159.0008" y="113.2401">XML &#12398; graphType &#35201;&#32032;&#12392;</text><text fill="#000000" font-family="'Segoe UI', 'メイリオ', 'UDEV Gothic HSRFJPDOC', 'Hiragino Kaku Gothic ProN', 'ヒラギノ角ゴ ProN', 'Noto Sans JP', 'Helvetica Neue', Helvetica, Arial, sans-serif" font-size="13" lengthAdjust="spacing" textLength="208.0001" x="159.0008" y="129.7501">references/referencedby &#12434;&#35299;&#26512;&#12375;</text><text fill="#000000" font-family="'Segoe UI', 'メイリオ', 'UDEV Gothic HSRFJPDOC', 'Hiragino Kaku Gothic ProN', 'ヒラギノ角ゴ ProN', 'Noto Sans JP', 'Helvetica Neue', Helvetica, Arial, sans-serif" font-size="13" lengthAdjust="spacing" textLength="208.0001" x="159.0008" y="146.2601">&lt;plantuml&gt; &#12479;&#12464;&#12392;&#12375;&#12390; XML &#12395;&#25407;&#20837;</text><rect fill="#F1F1F1" height="35.2401" rx="12.5" ry="12.5" style="stroke:#181818;stroke-width:0.5;" width="122.0008" x="11" y="107.3851"/><text fill="#000000" font-family="'Segoe UI', 'メイリオ', 'UDEV Gothic HSRFJPDOC', 'Hiragino Kaku Gothic ProN', 'ヒラギノ角ゴ ProN', 'Noto Sans JP', 'Helvetica Neue', Helvetica, Arial, sans-serif" font-size="12" lengthAdjust="spacing" textLength="102.0008" x="21" y="129.3852">extract-graphs.py</text><path d="M141.0007,164.7701 L141.0007,190.5352 L121.0007,194.5352 L141.0007,198.5352 L141.0007,224.3002 A0,0 0 0 0 141.0007,224.3002 L331.0007,224.3002 A0,0 0 0 0 331.0007,224.3002 L331.0007,174.7701 L321.0007,164.7701 L141.0007,164.7701 A0,0 0 0 0 141.0007,164.7701" fill="#FEFFDD" style="stroke:#181818;stroke-width:0.5;"/><path d="M321.0007,164.7701 L321.0007,174.7701 L331.0007,174.7701 L321.0007,164.7701" fill="#FEFFDD" style="stroke:#181818;stroke-width:0.5;"/><text fill="#000000" font-family="'Segoe UI', 'メイリオ', 'UDEV Gothic HSRFJPDOC', 'Hiragino Kaku Gothic ProN', 'ヒラギノ角ゴ ProN', 'Noto Sans JP', 'Helvetica Neue', Helvetica, Arial, sans-serif" font-size="13" lengthAdjust="spacing" textLength="169" x="147.0007" y="182.7702">&lt;plantuml&gt; &#12479;&#12464;&#12434; Markdown</text><text fill="#000000" font-family="'Segoe UI', 'メイリオ', 'UDEV Gothic HSRFJPDOC', 'Hiragino Kaku Gothic ProN', 'ヒラギノ角ゴ ProN', 'Noto Sans JP', 'Helvetica Neue', Helvetica, Arial, sans-serif" font-size="13" lengthAdjust="spacing" textLength="130.0002" x="147.0007" y="199.2802">&#12467;&#12540;&#12489;&#12501;&#12455;&#12531;&#12473;&#12395;&#22793;&#25563;</text><text fill="#000000" font-family="'Segoe UI', 'メイリオ', 'UDEV Gothic HSRFJPDOC', 'Hiragino Kaku Gothic ProN', 'ヒラギノ角ゴ ProN', 'Noto Sans JP', 'Helvetica Neue', Helvetica, Arial, sans-serif" font-size="13" lengthAdjust="spacing" textLength="104.0001" x="147.0007" y="215.7902">(&#26082;&#23384;&#20966;&#29702;&#12392;&#32113;&#21512;)</text><rect fill="#F1F1F1" height="35.2401" rx="12.5" ry="12.5" style="stroke:#181818;stroke-width:0.5;" width="98.0006" x="23.0001" y="176.9151"/><text fill="#000000" font-family="'Segoe UI', 'メイリオ', 'UDEV Gothic HSRFJPDOC', 'Hiragino Kaku Gothic ProN', 'ヒラギノ角ゴ ProN', 'Noto Sans JP', 'Helvetica Neue', Helvetica, Arial, sans-serif" font-size="12" lengthAdjust="spacing" textLength="78.0006" x="33.0001" y="198.9152">preprocess.sh</text><path d="M129.0006,248.6652 L129.0006,257.9202 L109.0006,261.9202 L129.0006,265.9202 L129.0006,275.1752 A0,0 0 0 0 129.0006,275.1752 L280.0006,275.1752 A0,0 0 0 0 280.0006,275.1752 L280.0006,258.6652 L270.0006,248.6652 L129.0006,248.6652 A0,0 0 0 0 129.0006,248.6652" fill="#FEFFDD" style="stroke:#181818;stroke-width:0.5;"/><path d="M270.0006,248.6652 L270.0006,258.6652 L280.0006,258.6652 L270.0006,248.6652" fill="#FEFFDD" style="stroke:#181818;stroke-width:0.5;"/><text fill="#000000" font-family="'Segoe UI', 'メイリオ', 'UDEV Gothic HSRFJPDOC', 'Hiragino Kaku Gothic ProN', 'ヒラギノ角ゴ ProN', 'Noto Sans JP', 'Helvetica Neue', Helvetica, Arial, sans-serif" font-size="13" lengthAdjust="spacing" textLength="130" x="135.0006" y="266.6652">XML &#8594; Markdown &#22793;&#25563;</text><rect fill="#F1F1F1" height="35.2401" rx="12.5" ry="12.5" style="stroke:#181818;stroke-width:0.5;" width="74.0004" x="35.0002" y="244.3002"/><text fill="#000000" font-family="'Segoe UI', 'メイリオ', 'UDEV Gothic HSRFJPDOC', 'Hiragino Kaku Gothic ProN', 'ヒラギノ角ゴ ProN', 'Noto Sans JP', 'Helvetica Neue', Helvetica, Arial, sans-serif" font-size="12" lengthAdjust="spacing" textLength="54.0004" x="45.0002" y="266.3003">doxybook2</text><path d="M144.0007,303.9053 L144.0007,313.1603 L124.0007,317.1603 L144.0007,321.1603 L144.0007,330.4154 A0,0 0 0 0 144.0007,330.4154 L275.5008,330.4154 A0,0 0 0 0 275.5008,330.4154 L275.5008,313.9053 L265.5008,303.9053 L144.0007,303.9053 A0,0 0 0 0 144.0007,303.9053" fill="#FEFFDD" style="stroke:#181818;stroke-width:0.5;"/><path d="M265.5008,303.9053 L265.5008,313.9053 L275.5008,313.9053 L265.5008,303.9053" fill="#FEFFDD" style="stroke:#181818;stroke-width:0.5;"/><text fill="#000000" font-family="'Segoe UI', 'メイリオ', 'UDEV Gothic HSRFJPDOC', 'Hiragino Kaku Gothic ProN', 'ヒラギノ角ゴ ProN', 'Noto Sans JP', 'Helvetica Neue', Helvetica, Arial, sans-serif" font-size="13" lengthAdjust="spacing" textLength="110.5001" x="150.0007" y="321.9054">Markdown &#12398;&#24460;&#20966;&#29702;</text><rect fill="#F1F1F1" height="35.2401" rx="12.5" ry="12.5" style="stroke:#181818;stroke-width:0.5;" width="104.0006" x="20.0001" y="299.5403"/><text fill="#000000" font-family="'Segoe UI', 'メイリオ', 'UDEV Gothic HSRFJPDOC', 'Hiragino Kaku Gothic ProN', 'ヒラギノ角ゴ ProN', 'Noto Sans JP', 'Helvetica Neue', Helvetica, Arial, sans-serif" font-size="12" lengthAdjust="spacing" textLength="84.0006" x="30.0001" y="321.5404">postprocess.sh</text><ellipse cx="72.0004" cy="365.7804" fill="none" rx="11" ry="11" style="stroke:#222222;stroke-width:1;"/><ellipse cx="72.0004" cy="365.7804" fill="#222222" rx="6" ry="6" style="stroke:#222222;stroke-width:1;"/><line style="stroke:#181818;stroke-width:1;" x1="72.0004" x2="72.0004" y1="30" y2="50"/><polygon fill="#181818" points="68.0004,40,72.0004,50,76.0004,40,72.0004,44" style="stroke:#181818;stroke-width:1;"/><line style="stroke:#181818;stroke-width:1;" x1="72.0004" x2="72.0004" y1="85.2401" y2="107.3851"/><polygon fill="#181818" points="68.0004,97.3851,72.0004,107.3851,76.0004,97.3851,72.0004,101.3851" style="stroke:#181818;stroke-width:1;"/><line style="stroke:#181818;stroke-width:1;" x1="72.0004" x2="72.0004" y1="142.6252" y2="176.9151"/><polygon fill="#181818" points="68.0004,166.9151,72.0004,176.9151,76.0004,166.9151,72.0004,170.9151" style="stroke:#181818;stroke-width:1;"/><line style="stroke:#181818;stroke-width:1;" x1="72.0004" x2="72.0004" y1="212.1552" y2="244.3002"/><polygon fill="#181818" points="68.0004,234.3002,72.0004,244.3002,76.0004,234.3002,72.0004,238.3002" style="stroke:#181818;stroke-width:1;"/><line style="stroke:#181818;stroke-width:1;" x1="72.0004" x2="72.0004" y1="279.5403" y2="299.5403"/><polygon fill="#181818" points="68.0004,289.5403,72.0004,299.5403,76.0004,289.5403,72.0004,293.5403" style="stroke:#181818;stroke-width:1;"/><line style="stroke:#181818;stroke-width:1;" x1="72.0004" x2="72.0004" y1="334.7804" y2="354.7804"/><polygon fill="#181818" points="68.0004,344.7804,72.0004,354.7804,76.0004,344.7804,72.0004,348.7804" style="stroke:#181818;stroke-width:1;"/><!--SRC=[TPBFJy8m5CVl_1KzQeoGU9o4Ynuyo8s3ryBg88EsQKjansqH8I5n8HfCJCIVO68a6lHWOkH_iTd6ds7Po30AlVIrx_lUzzEyPhcmgYYNocRc0JShc486Qw08IwR1I1thEwHA610COgvI28iKK8iBoE98soKDoq0O-AF-zAQp7LrY8X1W5QCiD72GtmSROA-WDkbqmxD-qFBYIjHGRKjYqs2GbdcQMd-Be-DipNf8UmGYPS6Y24m7TlXsBUt7HCFG8L9y9SGpIQWNhPdfT7WNN7dIxYNYBAr2BEgrQaxb9z9vKPrKNjg3kTTJq9dunmzH0S9w11LJKuOe8yg6ftbv9V5_0wSByf2PEZd2YKewO-b-IhSjtNFf3AKxbiw7ClVlsy7fPI9R2tgt_lE5Vp88lQOY3TzVVQ-rlWHELyCe4c9kBP_3TtC10NwPQ9HmiVfLsg98JS7_wiGayvz0w0y0]--></g></svg>