<svg xmlns="http://www.w3.org/2000/svg" xmlns:xlink="http://www.w3.org/1999/xlink" contentStyleType="text/css" data-diagram-type="DESCRIPTION" height="594px" preserveAspectRatio="none" style="width:617px;height:594px;" version="1.1" viewBox="0 0 617 594" width="617px" zoomAndPan="magnify"><defs/><g><!--entity n0--><g class="entity" data-entity="n0" data-source-line="5" data-uid="ent0002" id="entity_n0"><rect fill="#ADD8E6" height="37.7799" rx="2.5" ry="2.5" style="stroke:#181818;stroke-width:0.5;" width="64.6248" x="115.5" y="7"/><text fill="#000000" font-family="'Segoe UI', 'メイリオ', 'UDEV Gothic HSRFJPDOC', 'Hiragino Kaku Gothic ProN', 'ヒラギノ角ゴ ProN', 'Noto Sans JP', 'Helvetica Neue', Helvetica, Arial, sans-serif" font-size="14" font-weight="bold" lengthAdjust="spacing" textLength="44.6248" x="125.5" y="30.9999">onLoad</text></g><!--entity n1--><g class="entity" data-entity="n1" data-source-line="6" data-uid="ent0003" id="entity_n1"><rect fill="#F1F1F1" height="55.5598" rx="2.5" ry="2.5" style="stroke:#181818;stroke-width:0.5;" width="131.9995" x="7" y="203"/><text fill="#000000" font-family="'Segoe UI', 'メイリオ', 'UDEV Gothic HSRFJPDOC', 'Hiragino Kaku Gothic ProN', 'ヒラギノ角ゴ ProN', 'Noto Sans JP', 'Helvetica Neue', Helvetica, Arial, sans-serif" font-size="14" lengthAdjust="spacing" textLength="83.9996" x="17" y="226.9999">funcman_init</text><text fill="#000000" font-family="'Segoe UI', 'メイリオ', 'UDEV Gothic HSRFJPDOC', 'Hiragino Kaku Gothic ProN', 'ヒラギノ角ゴ ProN', 'Noto Sans JP', 'Helvetica Neue', Helvetica, Arial, sans-serif" font-size="14" lengthAdjust="spacing" textLength="111.9995" x="17" y="244.7799">(funcman_init.c)</text></g><!--entity n2--><g class="entity" data-entity="n2" data-source-line="7" data-uid="ent0004" id="entity_n2"><rect fill="#F1F1F1" height="55.5598" rx="2.5" ry="2.5" style="stroke:#181818;stroke-width:0.5;" width="131.9995" x="179" y="203"/><text fill="#000000" font-family="'Segoe UI', 'メイリオ', 'UDEV Gothic HSRFJPDOC', 'Hiragino Kaku Gothic ProN', 'ヒラギノ角ゴ ProN', 'Noto Sans JP', 'Helvetica Neue', Helvetica, Arial, sans-serif" font-size="14" lengthAdjust="spacing" textLength="111.9995" x="189" y="226.9999">get_lib_basename</text><text fill="#000000" font-family="'Segoe UI', 'メイリオ', 'UDEV Gothic HSRFJPDOC', 'Hiragino Kaku Gothic ProN', 'ヒラギノ角ゴ ProN', 'Noto Sans JP', 'Helvetica Neue', Helvetica, Arial, sans-serif" font-size="14" lengthAdjust="spacing" textLength="111.9995" x="189" y="244.7799">(get_lib_info.c)</text></g><!--entity n3--><g class="entity" data-entity="n3" data-source-line="8" data-uid="ent0005" id="entity_n3"><rect fill="#F1F1F1" height="37.7799" rx="2.5" ry="2.5" style="stroke:#181818;stroke-width:0.5;" width="61.9998" x="117" y="105"/><text fill="#000000" font-family="'Segoe UI', 'メイリオ', 'UDEV Gothic HSRFJPDOC', 'Hiragino Kaku Gothic ProN', 'ヒラギノ角ゴ ProN', 'Noto Sans JP', 'Helvetica Neue', Helvetica, Arial, sans-serif" font-size="14" lengthAdjust="spacing" textLength="41.9998" x="127" y="128.9999">onLoad</text></g><!--entity n4--><g class="entity" data-entity="n4" data-source-line="9" data-uid="ent0006" id="entity_n4"><rect fill="#F1F1F1" height="55.5598" rx="2.5" ry="2.5" style="stroke:#181818;stroke-width:0.5;" width="131.9995" x="42" y="533"/><text fill="#000000" font-family="'Segoe UI', 'メイリオ', 'UDEV Gothic HSRFJPDOC', 'Hiragino Kaku Gothic ProN', 'ヒラギノ角ゴ ProN', 'Noto Sans JP', 'Helvetica Neue', Helvetica, Arial, sans-serif" font-size="14" lengthAdjust="spacing" textLength="55.9998" x="52" y="556.9999">copy_str</text><text fill="#000000" font-family="'Segoe UI', 'メイリオ', 'UDEV Gothic HSRFJPDOC', 'Hiragino Kaku Gothic ProN', 'ヒラギノ角ゴ ProN', 'Noto Sans JP', 'Helvetica Neue', Helvetica, Arial, sans-serif" font-size="14" lengthAdjust="spacing" textLength="111.9995" x="52" y="574.7799">(get_lib_info.c)</text></g><!--entity n5--><g class="entity" data-entity="n5" data-source-line="10" data-uid="ent0007" id="entity_n5"><rect fill="#F1F1F1" height="55.5598" rx="2.5" ry="2.5" style="stroke:#181818;stroke-width:0.5;" width="131.9995" x="96" y="319"/><text fill="#000000" font-family="'Segoe UI', 'メイリオ', 'UDEV Gothic HSRFJPDOC', 'Hiragino Kaku Gothic ProN', 'ヒラギノ角ゴ ProN', 'Noto Sans JP', 'Helvetica Neue', Helvetica, Arial, sans-serif" font-size="14" lengthAdjust="spacing" textLength="111.9995" x="106" y="342.9999">get_ilename_part</text><text fill="#000000" font-family="'Segoe UI', 'メイリオ', 'UDEV Gothic HSRFJPDOC', 'Hiragino Kaku Gothic ProN', 'ヒラギノ角ゴ ProN', 'Noto Sans JP', 'Helvetica Neue', Helvetica, Arial, sans-serif" font-size="14" lengthAdjust="spacing" textLength="111.9995" x="106" y="360.7799">(get_lib_info.c)</text></g><!--entity n6--><g class="entity" data-entity="n6" data-source-line="11" data-uid="ent0008" id="entity_n6"><rect fill="#F1F1F1" height="55.5598" rx="2.5" ry="2.5" style="stroke:#181818;stroke-width:0.5;" width="131.9995" x="263" y="319"/><text fill="#000000" font-family="'Segoe UI', 'メイリオ', 'UDEV Gothic HSRFJPDOC', 'Hiragino Kaku Gothic ProN', 'ヒラギノ角ゴ ProN', 'Noto Sans JP', 'Helvetica Neue', Helvetica, Arial, sans-serif" font-size="14" lengthAdjust="spacing" textLength="83.9996" x="273" y="342.9999">get_lib_path</text><text fill="#000000" font-family="'Segoe UI', 'メイリオ', 'UDEV Gothic HSRFJPDOC', 'Hiragino Kaku Gothic ProN', 'ヒラギノ角ゴ ProN', 'Noto Sans JP', 'Helvetica Neue', Helvetica, Arial, sans-serif" font-size="14" lengthAdjust="spacing" textLength="111.9995" x="273" y="360.7799">(get_lib_info.c)</text></g><!--entity n7--><g class="entity" data-entity="n7" data-source-line="12" data-uid="ent0009" id="entity_n7"><rect fill="#F1F1F1" height="55.5598" rx="2.5" ry="2.5" style="stroke:#181818;stroke-width:0.5;" width="180.9993" x="430.5" y="319"/><text fill="#000000" font-family="'Segoe UI', 'メイリオ', 'UDEV Gothic HSRFJPDOC', 'Hiragino Kaku Gothic ProN', 'ヒラギノ角ゴ ProN', 'Noto Sans JP', 'Helvetica Neue', Helvetica, Arial, sans-serif" font-size="14" lengthAdjust="spacing" textLength="160.9993" x="440.5" y="342.9999">strip_extension_inplace</text><text fill="#000000" font-family="'Segoe UI', 'メイリオ', 'UDEV Gothic HSRFJPDOC', 'Hiragino Kaku Gothic ProN', 'ヒラギノ角ゴ ProN', 'Noto Sans JP', 'Helvetica Neue', Helvetica, Arial, sans-serif" font-size="14" lengthAdjust="spacing" textLength="111.9995" x="440.5" y="360.7799">(get_lib_info.c)</text></g><!--entity n8--><g class="entity" data-entity="n8" data-source-line="13" data-uid="ent0010" id="entity_n8"><rect fill="#F1F1F1" height="37.7799" rx="2.5" ry="2.5" style="stroke:#181818;stroke-width:0.5;" width="152.9994" x="174.5" y="435"/><text fill="#000000" font-family="'Segoe UI', 'メイリオ', 'UDEV Gothic HSRFJPDOC', 'Hiragino Kaku Gothic ProN', 'ヒラギノ角ゴ ProN', 'Noto Sans JP', 'Helvetica Neue', Helvetica, Arial, sans-serif" font-size="14" lengthAdjust="spacing" textLength="132.9994" x="184.5" y="458.9999">get_self_path_posix</text></g><!--link n0 to n1--><g class="link" data-entity-1="n0" data-entity-2="n1" data-source-line="14" data-uid="lnk11" id="link_n0_n1"><path d="M133.467,45.0991 C122.4361,60.4945 107.7256,83.1117 99,105 C86.1385,137.2632 80.0797,170.8705 76.6995,196.957" fill="none" id="n0-to-n1" style="stroke:#181818;stroke-width:1;"/><polygon fill="#181818" points="75.9285,202.9073,81.0519,194.4959,76.571,197.9488,73.1182,193.4679,75.9285,202.9073" style="stroke:#181818;stroke-width:1;"/></g><!--link n0 to n2--><g class="link" data-entity-1="n0" data-entity-2="n2" data-source-line="15" data-uid="lnk12" id="link_n0_n2"><path d="M168.4789,45.2605 C183.2162,60.2203 202.4574,82.1984 214,105 C229.923,136.4546 237.0986,170.6026 240.9431,197.0111" fill="none" id="n0-to-n2" style="stroke:#181818;stroke-width:1;"/><polygon fill="#181818" points="241.8075,202.9485,244.4692,193.4661,241.0872,198.0007,236.5527,194.6186,241.8075,202.9485" style="stroke:#181818;stroke-width:1;"/></g><!--link n0 to n3--><g class="link" data-entity-1="n0" data-entity-2="n3" data-source-line="16" data-uid="lnk13" id="link_n0_n3"><path d="M148,45.3616 C148,62.5424 148,81.51 148,98.6786" fill="none" id="n0-to-n3" style="stroke:#181818;stroke-width:1;"/><polygon fill="#181818" points="148,104.6786,152,95.6786,148,99.6786,144,95.6786,148,104.6786" style="stroke:#181818;stroke-width:1;"/></g><!--link n2 to n4--><g class="link" data-entity-1="n2" data-entity-2="n4" data-source-line="17" data-uid="lnk14" id="link_n2_n4"><path d="M178.7115,257.5136 C137.298,275.5796 89.6825,299.6388 78,319 C36.9903,386.9649 69.6573,479.7316 91.4077,527.4316" fill="none" id="n2-to-n4" style="stroke:#181818;stroke-width:1;"/><polygon fill="#181818" points="93.897,532.8908,93.8025,523.0424,91.8226,528.3414,86.5235,526.3615,93.897,532.8908" style="stroke:#181818;stroke-width:1;"/></g><!--link n2 to n5--><g class="link" data-entity-1="n2" data-entity-2="n5" data-source-line="18" data-uid="lnk15" id="link_n2_n5"><path d="M224.908,259.0804 C211.9543,277.1844 198.6599,295.7644 185.686,313.8966" fill="none" id="n2-to-n5" style="stroke:#181818;stroke-width:1;"/><polygon fill="#181818" points="182.1946,318.7762,190.6847,313.7845,185.1041,314.7099,184.1787,309.1293,182.1946,318.7762" style="stroke:#181818;stroke-width:1;"/></g><!--link n2 to n6--><g class="link" data-entity-1="n2" data-entity-2="n6" data-source-line="19" data-uid="lnk16" id="link_n2_n6"><path d="M265.3341,259.0804 C278.4438,277.1844 291.9128,295.7843 305.043,313.9165" fill="none" id="n2-to-n6" style="stroke:#181818;stroke-width:1;"/><polygon fill="#181818" points="308.5621,318.7762,306.5233,309.1407,305.6296,314.7265,300.0437,313.8328,308.5621,318.7762" style="stroke:#181818;stroke-width:1;"/></g><!--link n2 to n7--><g class="link" data-entity-1="n2" data-entity-2="n7" data-source-line="20" data-uid="lnk17" id="link_n2_n7"><path d="M311.1089,258.7849 C354.3271,276.9491 405.0656,298.2739 448.4628,316.5133" fill="none" id="n2-to-n7" style="stroke:#181818;stroke-width:1;"/><polygon fill="#181818" points="453.9941,318.8381,447.247,311.6634,449.3847,316.9008,444.1473,319.0385,453.9941,318.8381" style="stroke:#181818;stroke-width:1;"/></g><!--link n3 to n1--><g class="link" data-entity-1="n3" data-entity-2="n1" data-source-line="21" data-uid="lnk18" id="link_n3_n1"><path d="M134.5915,143.1295 C122.9625,159.7202 109.417,179.045 96.2258,197.8645" fill="none" id="n3-to-n1" style="stroke:#181818;stroke-width:1;"/><polygon fill="#181818" points="92.782,202.7777,101.2233,197.7037,95.6519,198.6833,94.6723,193.1119,92.782,202.7777" style="stroke:#181818;stroke-width:1;"/></g><!--link n3 to n2--><g class="link" data-entity-1="n3" data-entity-2="n2" data-source-line="22" data-uid="lnk19" id="link_n3_n2"><path d="M165.3417,143.1295 C180.3818,159.7202 198.3248,179.5129 215.3855,198.3324" fill="none" id="n3-to-n2" style="stroke:#181818;stroke-width:1;"/><polygon fill="#181818" points="219.4153,202.7777,216.3341,193.4232,216.0571,199.0733,210.407,198.7963,219.4153,202.7777" style="stroke:#181818;stroke-width:1;"/></g><!--link n3 to n3--><g class="link" data-entity-1="n3" data-entity-2="n3" data-source-line="23" data-uid="lnk20" id="link_n3_n3"><path d="M179.2351,106.6344 C197.2395,103.0904 214,108.8789 214,124 C214,139.1211 203.1265,146.0684 185.1221,142.5244" fill="none" id="n3-to-n3" style="stroke:#181818;stroke-width:1;"/><polygon fill="#181818" points="179.2351,141.3656,187.2931,147.0285,184.141,142.3313,188.8382,139.1791,179.2351,141.3656" style="stroke:#181818;stroke-width:1;"/></g><!--link n6 to n8--><g class="link" data-entity-1="n6" data-entity-2="n8" data-source-line="24" data-uid="lnk21" id="link_n6_n8"><path d="M308.5064,375.113 C294.7848,393.9362 280.6188,413.3691 268.5017,429.9912" fill="none" id="n6-to-n8" style="stroke:#181818;stroke-width:1;"/><polygon fill="#181818" points="264.9673,434.8397,273.5013,429.9233,267.9127,430.7993,267.0366,425.2107,264.9673,434.8397" style="stroke:#181818;stroke-width:1;"/></g><!--link n8 to n4--><g class="link" data-entity-1="n8" data-entity-2="n4" data-source-line="25" data-uid="lnk22" id="link_n8_n4"><path d="M225.4345,473.1295 C203.1815,489.7803 175.4381,510.5393 150.2486,529.3874" fill="none" id="n8-to-n4" style="stroke:#181818;stroke-width:1;"/><polygon fill="#181818" points="145.4446,532.982,155.0471,530.7927,149.448,529.9865,150.2542,524.3874,145.4446,532.982" style="stroke:#181818;stroke-width:1;"/></g><!--SRC=[TP71Zi8W48RlVGhYNdQRkEwsMZqO3-xLHzY4J95M8Xq8J1Dz-qLHGipszi7m___CiFLqrN9NR1SFy6U55XmCh0LnxfqPyVXZj76C7A0F9ObKE2a8iDUIpShIuC70iInd33p3B_PsKFs9zdgK-RjkH340SeMAVl4zFtwAZwZzpWMz9AvLorlm4c6GGVIyKjYP9AfoKUmb5kgy88ozSazkocNv6gtqFPM7YMbAjFglNmjqcX8qkI1qeooN5vBebRcjmceGatEkNyEyrDqzZLlZrIM-sXJX1-RptMsPJweIrGLMaPQ9LecQHEi2w-HI9vSwkJIHGjhcuVS7]--></g></svg>