<svg xmlns="http://www.w3.org/2000/svg" xmlns:xlink="http://www.w3.org/1999/xlink" contentStyleType="text/css" data-diagram-type="DESCRIPTION" height="421px" preserveAspectRatio="none" style="width:647px;height:421px;" version="1.1" viewBox="0 0 647 421" width="647px" zoomAndPan="magnify"><defs/><g><!--cluster ????--><g class="cluster" data-entity="...." data-source-line="9" data-uid="ent0002" id="cluster_...."><rect fill="none" height="60" rx="2.5" ry="2.5" style="stroke:#181818;stroke-width:1;" width="524" x="7" y="7"/><text fill="#000000" font-family="Courier" font-size="14" font-weight="bold" lengthAdjust="spacing" textLength="57.7498" x="240.1251" y="22.9999">&#20006;&#21015;&#23455;&#34892;</text></g><!--entity linux--><g class="entity" data-entity="linux" data-source-line="10" data-uid="ent0003" id="entity_linux"><rect fill="#F1F1F1" height="23.7799" rx="2.5" ry="2.5" style="stroke:#181818;stroke-width:0.5;" width="159.9994" x="15" y="35"/><text fill="#000000" font-family="Courier" font-size="14" lengthAdjust="spacing" textLength="139.9994" x="25" y="51.9999">build-and-test-linux</text></g><!--entity windows--><g class="entity" data-entity="windows" data-source-line="11" data-uid="ent0004" id="entity_windows"><rect fill="#F1F1F1" height="23.7799" rx="2.5" ry="2.5" style="stroke:#181818;stroke-width:0.5;" width="173.9993" x="210" y="35"/><text fill="#000000" font-family="Courier" font-size="14" lengthAdjust="spacing" textLength="153.9993" x="220" y="51.9999">build-and-test-windows</text></g><!--entity docs--><g class="entity" data-entity="docs" data-source-line="12" data-uid="ent0005" id="entity_docs"><rect fill="#F1F1F1" height="23.7799" rx="2.5" ry="2.5" style="stroke:#181818;stroke-width:0.5;" width="103.9996" x="419" y="35"/><text fill="#000000" font-family="Courier" font-size="14" lengthAdjust="spacing" textLength="83.9996" x="429" y="51.9999">publish-docs</text></g><!--entity linux_artifact--><g class="entity" data-entity="linux_artifact" data-source-line="14" data-uid="ent0006" id="entity_linux_artifact"><rect fill="#F1F1F1" height="40.7799" rx="2.5" ry="2.5" style="stroke:#181818;stroke-width:0.5;" width="155.9995" x="17" y="120"/><polygon fill="#F1F1F1" points="155.9995,125,155.9995,139,167.9995,139,167.9995,131,161.9995,125,155.9995,125" style="stroke:#181818;stroke-width:0.5;"/><line style="stroke:#181818;stroke-width:0.5;" x1="161.9995" x2="161.9995" y1="125" y2="131"/><line style="stroke:#181818;stroke-width:0.5;" x1="167.9995" x2="161.9995" y1="131" y2="131"/><text fill="#000000" font-family="Courier" font-size="14" lengthAdjust="spacing" textLength="125.9995" x="27" y="146.9999">linux-test-results</text></g><!--entity windows_artifact--><g class="entity" data-entity="windows_artifact" data-source-line="15" data-uid="ent0007" id="entity_windows_artifact"><rect fill="#F1F1F1" height="40.7799" rx="2.5" ry="2.5" style="stroke:#181818;stroke-width:0.5;" width="169.9994" x="208" y="120"/><polygon fill="#F1F1F1" points="360.9994,125,360.9994,139,372.9994,139,372.9994,131,366.9994,125,360.9994,125" style="stroke:#181818;stroke-width:0.5;"/><line style="stroke:#181818;stroke-width:0.5;" x1="366.9994" x2="366.9994" y1="125" y2="131"/><line style="stroke:#181818;stroke-width:0.5;" x1="372.9994" x2="366.9994" y1="131" y2="131"/><text fill="#000000" font-family="Courier" font-size="14" lengthAdjust="spacing" textLength="139.9994" x="218" y="146.9999">windows-test-results</text></g><!--entity docs_artifact--><g class="entity" data-entity="docs_artifact" data-source-line="16" data-uid="ent0008" id="entity_docs_artifact"><rect fill="#F1F1F1" height="40.7799" rx="2.5" ry="2.5" style="stroke:#181818;stroke-width:0.5;" width="120.9996" x="413.5" y="120"/><polygon fill="#F1F1F1" points="517.4996,125,517.4996,139,529.4996,139,529.4996,131,523.4996,125,517.4996,125" style="stroke:#181818;stroke-width:0.5;"/><line style="stroke:#181818;stroke-width:0.5;" x1="523.4996" x2="523.4996" y1="125" y2="131"/><line style="stroke:#181818;stroke-width:0.5;" x1="529.4996" x2="523.4996" y1="131" y2="131"/><text fill="#000000" font-family="Courier" font-size="14" lengthAdjust="spacing" textLength="90.9996" x="423.5" y="146.9999">documentation</text></g><!--entity deploy--><g class="entity" data-entity="deploy" data-source-line="17" data-uid="ent0009" id="entity_deploy"><rect fill="#F1F1F1" height="41.5598" rx="2.5" ry="2.5" style="stroke:#181818;stroke-width:0.5;" width="166.9994" x="209.5" y="231"/><text fill="#000000" font-family="Courier" font-size="14" lengthAdjust="spacing" textLength="83.9996" x="219.5" y="247.9999">deploy-pages</text><text fill="#000000" font-family="Courier" font-size="14" lengthAdjust="spacing" textLength="146.9994" x="219.5" y="265.7799">(needs:&#160;&#12377;&#12409;&#12390;&#23436;&#20102;&#24460;)</text></g><!--entity pages--><g class="entity" data-entity="pages" data-source-line="18" data-uid="ent0010" id="entity_pages"><path d="M245.2232,368.6526 C247.9589,362.8527 253.839,361.6962 257.8166,367.2785 C260.9129,360.3762 266.8916,359.8027 270.6585,366.6523 C272.819,362.0945 277.8643,361.537 280.8625,365.6685 C284.1513,358.7172 290.9098,357.8656 295.0422,364.8076 C298.5349,358.3114 302.4879,359.4277 306.5239,364.2568 C311.361,359.9836 315.6225,360.2082 318.5913,366.4092 C322.2721,360.4188 328.1464,360.6787 331.5122,366.7467 C336.4403,362.353 339.9447,363.8116 342.5918,369.3034 C351.7711,373.1561 350.8202,379.4527 344.9237,385.4788 C351.2675,391.3271 349.5755,396.4936 342.6742,400.3365 C340.3445,407.1649 335.7341,409.4783 330.0292,403.7299 C327.2093,409.0162 323.2995,409.8882 319.2712,405.0088 C316.8021,411.8349 311.3519,414.1733 305.7676,408.3287 C303.0709,414.5223 299.3496,414.3829 294.8217,410.2742 C290.531,414.4348 284.7363,413.2113 282.9415,407.3233 C277.8751,413.411 273.3735,413.1961 270.0094,405.7023 C264.0849,409.6953 259.7103,410.0002 257.0096,402.1605 C252.8224,406.9627 248.951,406.8605 246.0474,400.8581 C237.3199,399.358 232.793,392.0877 238.9181,384.2225 C232.8264,375.8629 234.6868,370.2786 245.2232,368.6526" fill="#F1F1F1" style="stroke:#181818;stroke-width:0.5;"/><text fill="#000000" font-family="Courier" font-size="14" lengthAdjust="spacing" textLength="83.9996" x="251" y="388.9999">GitHub&#160;Pages</text></g><g class="entity" data-entity="GMN18" data-source-line="27" data-uid="ent0019" id="entity_GMN18"><path d="M411.5,222 L411.5,248 L376.7344,252 L411.5,256 L411.5,281.53 A0,0 0 0 0 411.5,281.53 L640.5002,281.53 A0,0 0 0 0 640.5002,281.53 L640.5002,232 L630.5002,222 L411.5,222 A0,0 0 0 0 411.5,222" fill="#FAFAFA" style="stroke:#181818;stroke-width:0.5;"/><path d="M630.5002,222 L630.5002,232 L640.5002,232 L630.5002,222" fill="#FAFAFA" style="stroke:#181818;stroke-width:0.5;"/><text fill="#000000" font-family="Courier" font-size="13" lengthAdjust="spacing" textLength="208.0002" x="417.5" y="240">&#12450;&#12540;&#12486;&#12451;&#12501;&#12449;&#12463;&#12488;&#12473;&#12488;&#12524;&#12540;&#12472;&#32076;&#30001;&#12391;</text><text fill="#000000" font-family="Courier" font-size="13" lengthAdjust="spacing" textLength="195.0002" x="417.5" y="256.51">&#30064;&#12394;&#12427;&#160;OS&#160;&#29872;&#22659;&#12398;&#12501;&#12449;&#12452;&#12523;&#12434;&#32113;&#21512;</text><text fill="#000000" font-family="Courier" font-size="13" lengthAdjust="spacing" textLength="208.0002" x="417.5" y="273.02">3&#160;&#12388;&#12398;&#12472;&#12519;&#12502;&#12377;&#12409;&#12390;&#25104;&#21151;&#26178;&#12398;&#12415;&#23455;&#34892;</text></g><!--link linux to linux_artifact--><g class="link" data-entity-1="linux" data-entity-2="linux_artifact" data-source-line="19" data-uid="lnk11" id="link_linux_linux_artifact"><path d="M95,59.2235 C95,74.5687 95,95.1271 95,113.6949" fill="none" id="linux-to-linux_artifact" style="stroke:#181818;stroke-width:1;"/><polygon fill="#181818" points="95,119.6949,99,110.6949,95,114.6949,91,110.6949,95,119.6949" style="stroke:#181818;stroke-width:1;"/></g><!--link windows to windows_artifact--><g class="link" data-entity-1="windows" data-entity-2="windows_artifact" data-source-line="20" data-uid="lnk12" id="link_windows_windows_artifact"><path d="M296.4771,59.2235 C295.8206,74.5687 294.9408,95.1326 294.1465,113.7004" fill="none" id="windows-to-windows_artifact" style="stroke:#181818;stroke-width:1;"/><polygon fill="#181818" points="293.8901,119.6949,298.2711,110.8741,294.1038,114.6995,290.2784,110.5322,293.8901,119.6949" style="stroke:#181818;stroke-width:1;"/></g><!--link docs to docs_artifact--><g class="link" data-entity-1="docs" data-entity-2="docs_artifact" data-source-line="21" data-uid="lnk13" id="link_docs_docs_artifact"><path d="M471.3922,59.2235 C471.8846,74.5687 472.5443,95.1302 473.1401,113.698" fill="none" id="docs-to-docs_artifact" style="stroke:#181818;stroke-width:1;"/><polygon fill="#181818" points="473.3325,119.6949,477.0418,110.5712,473.1721,114.6975,469.0459,110.8278,473.3325,119.6949" style="stroke:#181818;stroke-width:1;"/></g><!--link linux_artifact to deploy--><g class="link" data-entity-1="linux_artifact" data-entity-2="deploy" data-source-line="22" data-uid="lnk14" id="link_linux_artifact_deploy"><path d="M131.7783,161.211 C167.0066,181.0492 214.6842,207.8979 250.1813,227.8874" fill="none" id="linux_artifact-to-deploy" style="stroke:#181818;stroke-width:1;"/><polygon fill="#181818" points="255.4093,230.8315,249.5299,222.93,251.0526,228.3781,245.6045,229.9008,255.4093,230.8315" style="stroke:#181818;stroke-width:1;"/></g><!--link windows_artifact to deploy--><g class="link" data-entity-1="windows_artifact" data-entity-2="deploy" data-source-line="23" data-uid="lnk15" id="link_windows_artifact_deploy"><path d="M293,161.211 C293,180.9862 293,204.6529 293,224.6408" fill="none" id="windows_artifact-to-deploy" style="stroke:#181818;stroke-width:1;"/><polygon fill="#181818" points="293,230.6408,297,221.6408,293,225.6408,289,221.6408,293,230.6408" style="stroke:#181818;stroke-width:1;"/></g><!--link docs_artifact to deploy--><g class="link" data-entity-1="docs_artifact" data-entity-2="deploy" data-source-line="24" data-uid="lnk16" id="link_docs_artifact_deploy"><path d="M440.3795,161.211 C408.1757,181.0492 364.9211,207.6951 332.4717,227.6846" fill="none" id="docs_artifact-to-deploy" style="stroke:#181818;stroke-width:1;"/><polygon fill="#181818" points="327.3632,230.8315,337.1239,229.5168,331.6203,228.209,332.928,222.7054,327.3632,230.8315" style="stroke:#181818;stroke-width:1;"/></g><!--link deploy to pages--><g class="link" data-entity-1="deploy" data-entity-2="pages" data-source-line="25" data-uid="lnk17" id="link_deploy_pages"><path d="M293,273.2081 C293,296.8204 293,328.9152 293,353.7075" fill="none" id="deploy-to-pages" style="stroke:#181818;stroke-width:1;"/><polygon fill="#181818" points="293,359.7075,297,350.7075,293,354.7075,289,350.7075,293,359.7075" style="stroke:#181818;stroke-width:1;"/><text fill="#000000" font-family="Courier" font-size="13" lengthAdjust="spacing" textLength="130.0002" x="294" y="326">&#12450;&#12540;&#12486;&#12451;&#12501;&#12449;&#12463;&#12488;&#32113;&#21512;</text></g><!--SRC=[TL9DQnGn6BxFhtYTanu63zwa56IfzI1LrACWsKbsDZIRB4c6MiJ3PA0ikeTIRAMdqbfQQ6Lj3uMjYFwOTBh-33CVE_jbBybBde_tUPCiARt9oBAtzB0gr3hbNIHH1veeN8-aY3bk22OaQ8cuSX3Xshk7IOjo0gzM6c-UhAq-Nu6G8QMcr1t1HTYMeaESC2PJY6eZB3OeZw25c9f6d2cAcNugk5v3JkWtH2mfaRudIQWHZvWxkncUPBslsU3Wxs7VXmyUG8Wa1hyPKuO3n76WYT81epn-xmDIK5HtqLmE5qOLnAgkgTsuoQXg1rY49I4ll8yUafgsKAZ1BwnB8qcKYwuc7T-DQLFygiEYeWB-ft5DuuwxSwIfu7MC2RFCYacNYSsWYoAYtlBxd12i7eDDzcroRPEJRD2_-RcL_Uu_A1qAjXSo4JljAjNFuYQypBK5NBXunHJWfj_WmVByJ5NW6buO80zPexE9Pwqcf3BKlDCyFkEr01PRVLeC0kuUp95DVzbqovflDjsrvj2Q7pRjZQuki-sUnuKc86dKrY1QOokuKsNDTRwcttFK34TN_T6NIvkSEibezy8cPzPyXXUlORHpaHsbDXcCnSSsFRTcf-eAyCWzq76Ecw5DJsswLx_NRMyx-tHmkszoDFbJ_dQFS0nvrdy0]--></g></svg>