<?xml version="1.0" encoding="UTF-8" standalone="no"?>
<!DOCTYPE svg PUBLIC "-//W3C//DTD SVG 1.1//EN"
 "http://www.w3.org/Graphics/SVG/1.1/DTD/svg11.dtd">
<!-- Generated by graphviz version 2.40.1 (0)
 -->
<!-- Title: calc/libsrc/calc/calcHandler.c Pages: 1 -->
<svg width="224pt" height="137pt"
 viewBox="0.00 0.00 223.50 137.00" xmlns="http://www.w3.org/2000/svg" xmlns:xlink="http://www.w3.org/1999/xlink">
<g id="graph0" class="graph" transform="scale(1 1) rotate(0) translate(4 133)">
<title>calc/libsrc/calc/calcHandler.c</title>
<!-- Node1 -->
<g id="Node000001" class="node">
<title>Node1</title>
<g id="a_Node000001"><a xlink:title="calcHandler 関数の実装ファイル。">
<polygon fill="#999999" stroke="#666666" points="178.5,-129 35.5,-129 35.5,-110 178.5,-110 178.5,-129"/>
<text text-anchor="middle" x="107" y="-117" font-family="Helvetica,sans-Serif" font-size="10.00" fill="#000000">calc/libsrc/calc/calcHandler.c</text>
</a>
</g>
</g>
<!-- Node2 -->
<g id="Node000002" class="node">
<title>Node2</title>
<g id="a_Node000002"><a xlink:title=" ">
<polygon fill="#e0e0e0" stroke="#999999" points="52,-74 0,-74 0,-55 52,-55 52,-74"/>
<text text-anchor="middle" x="26" y="-62" font-family="Helvetica,sans-Serif" font-size="10.00" fill="#000000">stddef.h</text>
</a>
</g>
</g>
<!-- Node1&#45;&gt;Node2 -->
<g id="edge1_Node000001_Node000002" class="edge">
<title>Node1&#45;&gt;Node2</title>
<g id="a_edge1_Node000001_Node000002"><a xlink:title=" ">
<path fill="none" stroke="#63b8ff" d="M92.8909,-109.9197C80.6542,-101.6109 62.7244,-89.4363 48.5074,-79.7828"/>
<polygon fill="#63b8ff" stroke="#63b8ff" points="50.4584,-76.877 40.2192,-74.155 46.5262,-82.6682 50.4584,-76.877"/>
</a>
</g>
</g>
<!-- Node3 -->
<g id="Node000003" class="node">
<title>Node3</title>
<g id="a_Node000003"><a xlink:href="libcalcbase_8h.html" target="_top" xlink:title="計算ライブラリ (静的リンク用) のヘッダーファイル。">
<polygon fill="#ffffff" stroke="#666666" points="144,-74 70,-74 70,-55 144,-55 144,-74"/>
<text text-anchor="middle" x="107" y="-62" font-family="Helvetica,sans-Serif" font-size="10.00" fill="#000000">libcalcbase.h</text>
</a>
</g>
</g>
<!-- Node1&#45;&gt;Node3 -->
<g id="edge2_Node000001_Node000003" class="edge">
<title>Node1&#45;&gt;Node3</title>
<g id="a_edge2_Node000001_Node000003"><a xlink:title=" ">
<path fill="none" stroke="#63b8ff" d="M107,-109.9197C107,-102.9083 107,-93.1442 107,-84.4652"/>
<polygon fill="#63b8ff" stroke="#63b8ff" points="110.5001,-84.3408 107,-74.3408 103.5001,-84.3409 110.5001,-84.3408"/>
</a>
</g>
</g>
<!-- Node5 -->
<g id="Node000005" class="node">
<title>Node5</title>
<g id="a_Node000005"><a xlink:href="libcalc_8h.html" target="_top" xlink:title="計算ライブラリ (動的リンク用) のヘッダーファイル。">
<polygon fill="#ffffff" stroke="#666666" points="215.5,-74 162.5,-74 162.5,-55 215.5,-55 215.5,-74"/>
<text text-anchor="middle" x="189" y="-62" font-family="Helvetica,sans-Serif" font-size="10.00" fill="#000000">libcalc.h</text>
</a>
</g>
</g>
<!-- Node1&#45;&gt;Node5 -->
<g id="edge4_Node000001_Node000005" class="edge">
<title>Node1&#45;&gt;Node5</title>
<g id="a_edge4_Node000001_Node000005"><a xlink:title=" ">
<path fill="none" stroke="#63b8ff" d="M121.2833,-109.9197C133.6711,-101.6109 151.8222,-89.4363 166.2147,-79.7828"/>
<polygon fill="#63b8ff" stroke="#63b8ff" points="168.25,-82.6321 174.6052,-74.155 164.3507,-76.8187 168.25,-82.6321"/>
</a>
</g>
</g>
<!-- Node4 -->
<g id="Node000004" class="node">
<title>Node4</title>
<g id="a_Node000004"><a xlink:href="libcalc__const_8h.html" target="_top" xlink:title="計算ライブラリの定数ファイル。">
<polygon fill="#ffffff" stroke="#666666" points="189,-19 107,-19 107,0 189,0 189,-19"/>
<text text-anchor="middle" x="148" y="-7" font-family="Helvetica,sans-Serif" font-size="10.00" fill="#000000">libcalc_const.h</text>
</a>
</g>
</g>
<!-- Node3&#45;&gt;Node4 -->
<g id="edge3_Node000003_Node000004" class="edge">
<title>Node3&#45;&gt;Node4</title>
<g id="a_edge3_Node000003_Node000004"><a xlink:title=" ">
<path fill="none" stroke="#63b8ff" d="M114.1417,-54.9197C119.7749,-47.363 127.7917,-36.6087 134.6105,-27.4616"/>
<polygon fill="#63b8ff" stroke="#63b8ff" points="137.4935,-29.4501 140.6641,-19.3408 131.8813,-25.2665 137.4935,-29.4501"/>
</a>
</g>
</g>
<!-- Node5&#45;&gt;Node4 -->
<g id="edge5_Node000005_Node000004" class="edge">
<title>Node5&#45;&gt;Node4</title>
<g id="a_edge5_Node000005_Node000004"><a xlink:title=" ">
<path fill="none" stroke="#63b8ff" d="M181.8583,-54.9197C176.2251,-47.363 168.2083,-36.6087 161.3895,-27.4616"/>
<polygon fill="#63b8ff" stroke="#63b8ff" points="164.1187,-25.2665 155.3359,-19.3408 158.5065,-29.4501 164.1187,-25.2665"/>
</a>
</g>
</g>
</g>
</svg>
