<?xml version="1.0" encoding="UTF-8" standalone="no"?>
<!DOCTYPE svg PUBLIC "-//W3C//DTD SVG 1.1//EN"
 "http://www.w3.org/Graphics/SVG/1.1/DTD/svg11.dtd">
<!-- Generated by graphviz version 2.40.1 (0)
 -->
<!-- Title: main Pages: 1 -->
<svg width="306pt" height="115pt"
 viewBox="0.00 0.00 306.00 115.44" xmlns="http://www.w3.org/2000/svg" xmlns:xlink="http://www.w3.org/1999/xlink">
<g id="graph0" class="graph" transform="scale(1 1) rotate(0) translate(4 111.4385)">
<title>main</title>
<!-- Node1 -->
<g id="Node000001" class="node">
<title>Node1</title>
<g id="a_Node000001"><a xlink:title="プログラムのエントリーポイント。">
<polygon fill="#999999" stroke="#666666" points="38,-74 0,-74 0,-55 38,-55 38,-74"/>
<text text-anchor="middle" x="19" y="-62" font-family="Helvetica,sans-Serif" font-size="10.00" fill="#000000">main</text>
</a>
</g>
</g>
<!-- Node2 -->
<g id="Node000002" class="node">
<title>Node2</title>
<g id="a_Node000002"><a xlink:href="calcHandler_8c.html#a642fe53112def0e783784459698b3318" target="_top" xlink:title="指定された演算種別に基づいて計算を実行します。">
<polygon fill="#ffffff" stroke="#666666" points="142,-74 74,-74 74,-55 142,-55 142,-74"/>
<text text-anchor="middle" x="108" y="-62" font-family="Helvetica,sans-Serif" font-size="10.00" fill="#000000">calcHandler</text>
</a>
</g>
</g>
<!-- Node1&#45;&gt;Node2 -->
<g id="edge1_Node000001_Node000002" class="edge">
<title>Node1&#45;&gt;Node2</title>
<g id="a_edge1_Node000001_Node000002"><a xlink:title=" ">
<path fill="none" stroke="#63b8ff" d="M38.3117,-64.5C45.7343,-64.5 54.551,-64.5 63.3743,-64.5"/>
<polygon fill="#63b8ff" stroke="#63b8ff" points="63.652,-68.0001 73.652,-64.5 63.6519,-61.0001 63.652,-68.0001"/>
</a>
</g>
</g>
<!-- Node3 -->
<g id="Node000003" class="node">
<title>Node3</title>
<g id="a_Node000003"><a xlink:href="libsrc_2calcbase_2add_8c.html#ae0a73dcc2e58d59cbc0f200e50736260" target="_top" xlink:title="2 つの整数を加算します。">
<polygon fill="#ffffff" stroke="#666666" points="298,-75 266,-75 266,-56 298,-56 298,-75"/>
<text text-anchor="middle" x="282" y="-63" font-family="Helvetica,sans-Serif" font-size="10.00" fill="#000000">add</text>
</a>
</g>
</g>
<!-- Node2&#45;&gt;Node3 -->
<g id="edge2_Node000002_Node000003" class="edge">
<title>Node2&#45;&gt;Node3</title>
<g id="a_edge2_Node000002_Node000003"><a xlink:title=" ">
<path fill="none" stroke="#63b8ff" d="M121.1017,-74.2262C134.5731,-83.5723 156.5558,-97.0547 178,-102.5 200.4002,-108.188 207.985,-109.5329 230,-102.5 242.7675,-98.4213 255.0799,-89.9356 264.5164,-82.1185"/>
<polygon fill="#63b8ff" stroke="#63b8ff" points="267.1041,-84.5038 272.3046,-75.2731 262.4828,-79.246 267.1041,-84.5038"/>
</a>
</g>
</g>
<!-- Node4 -->
<g id="Node000004" class="node">
<title>Node4</title>
<g id="a_Node000004"><a xlink:href="divide_8c.html#a457d7ab9fae4d04f0083aeeee6c700bb" target="_top" xlink:title="2 つの整数を除算します。">
<polygon fill="#ffffff" stroke="#666666" points="225,-93 183,-93 183,-74 225,-74 225,-93"/>
<text text-anchor="middle" x="204" y="-81" font-family="Helvetica,sans-Serif" font-size="10.00" fill="#000000">divide</text>
</a>
</g>
</g>
<!-- Node2&#45;&gt;Node4 -->
<g id="edge3_Node000002_Node000004" class="edge">
<title>Node2&#45;&gt;Node4</title>
<g id="a_edge3_Node000002_Node000004"><a xlink:title=" ">
<path fill="none" stroke="#63b8ff" d="M142.1163,-71.2522C152.0899,-73.2261 162.9384,-75.3732 172.7264,-77.3104"/>
<polygon fill="#63b8ff" stroke="#63b8ff" points="172.3503,-80.8038 182.8396,-79.312 173.7094,-73.937 172.3503,-80.8038"/>
</a>
</g>
</g>
<!-- Node5 -->
<g id="Node000005" class="node">
<title>Node5</title>
<g id="a_Node000005"><a xlink:href="multiply_8c.html#aa2620c22f253b878c0356f0df6ac6d61" target="_top" xlink:title="2 つの整数を乗算します。">
<polygon fill="#ffffff" stroke="#666666" points="229,-56 179,-56 179,-37 229,-37 229,-56"/>
<text text-anchor="middle" x="204" y="-44" font-family="Helvetica,sans-Serif" font-size="10.00" fill="#000000">multiply</text>
</a>
</g>
</g>
<!-- Node2&#45;&gt;Node5 -->
<g id="edge4_Node000002_Node000005" class="edge">
<title>Node2&#45;&gt;Node5</title>
<g id="a_edge4_Node000002_Node000005"><a xlink:title=" ">
<path fill="none" stroke="#63b8ff" d="M142.1163,-58.1032C150.7931,-56.4763 160.1321,-54.7252 168.8589,-53.089"/>
<polygon fill="#63b8ff" stroke="#63b8ff" points="169.5621,-56.5182 178.7458,-51.2352 168.272,-49.6381 169.5621,-56.5182"/>
</a>
</g>
</g>
<!-- Node6 -->
<g id="Node000006" class="node">
<title>Node6</title>
<g id="a_Node000006"><a xlink:href="subtract_8c.html#a1bf275b5894cc190077fcae5246956ac" target="_top" xlink:title="2 つの整数を減算します。">
<polygon fill="#ffffff" stroke="#666666" points="230,-19 178,-19 178,0 230,0 230,-19"/>
<text text-anchor="middle" x="204" y="-7" font-family="Helvetica,sans-Serif" font-size="10.00" fill="#000000">subtract</text>
</a>
</g>
</g>
<!-- Node2&#45;&gt;Node6 -->
<g id="edge5_Node000002_Node000006" class="edge">
<title>Node2&#45;&gt;Node6</title>
<g id="a_edge5_Node000002_Node000006"><a xlink:title=" ">
<path fill="none" stroke="#63b8ff" d="M124.7219,-54.9197C139.4983,-46.4541 161.279,-33.9755 178.2735,-24.2391"/>
<polygon fill="#63b8ff" stroke="#63b8ff" points="180.2106,-27.1631 187.1476,-19.155 176.7308,-21.0893 180.2106,-27.1631"/>
</a>
</g>
</g>
<!-- Node6&#45;&gt;Node3 -->
<g id="edge6_Node000006_Node000003" class="edge">
<title>Node6&#45;&gt;Node3</title>
<g id="a_edge6_Node000006_Node000003"><a xlink:title=" ">
<path fill="none" stroke="#63b8ff" d="M217.5866,-19.2545C229.3305,-27.686 246.5199,-40.0271 260.1882,-49.8402"/>
<polygon fill="#63b8ff" stroke="#63b8ff" points="258.4046,-52.8684 268.5691,-55.8573 262.4871,-47.1821 258.4046,-52.8684"/>
</a>
</g>
</g>
</g>
</svg>
