<?xml version="1.0" encoding="UTF-8" standalone="no"?>
<!DOCTYPE svg PUBLIC "-//W3C//DTD SVG 1.1//EN"
 "http://www.w3.org/Graphics/SVG/1.1/DTD/svg11.dtd">
<!-- Generated by graphviz version 2.40.1 (0)
 -->
<!-- Title: calc/include/libcalc.h Pages: 1 -->
<svg width="401pt" height="104pt"
 viewBox="0.00 0.00 401.00 104.00" xmlns="http://www.w3.org/2000/svg" xmlns:xlink="http://www.w3.org/1999/xlink">
<g id="graph0" class="graph" transform="scale(1 1) rotate(0) translate(4 100)">
<title>calc/include/libcalc.h</title>
<!-- Node1 -->
<g id="Node000001" class="node">
<title>Node1</title>
<g id="a_Node000001"><a xlink:title="計算ライブラリ (動的リンク用) のヘッダーファイル。">
<polygon fill="#999999" stroke="#666666" points="265,-96 158,-96 158,-77 265,-77 265,-96"/>
<text text-anchor="middle" x="211.5" y="-84" font-family="Helvetica,sans-Serif" font-size="10.00" fill="#000000">calc/include/libcalc.h</text>
</a>
</g>
</g>
<!-- Node2 -->
<g id="Node000002" class="node">
<title>Node2</title>
<g id="a_Node000002"><a xlink:href="calcHandler_8c.html" target="_top" xlink:title="calcHandler 関数の実装ファイル。">
<polygon fill="#ffffff" stroke="#666666" points="143,-30 0,-30 0,-11 143,-11 143,-30"/>
<text text-anchor="middle" x="71.5" y="-18" font-family="Helvetica,sans-Serif" font-size="10.00" fill="#000000">calc/libsrc/calc/calcHandler.c</text>
</a>
</g>
</g>
<!-- Node1&#45;&gt;Node2 -->
<g id="edge1_Node000001_Node000002" class="edge">
<title>Node1&#45;&gt;Node2</title>
<g id="a_edge1_Node000001_Node000002"><a xlink:title=" ">
<path fill="none" stroke="#63b8ff" d="M181.7806,-72.4894C154.7362,-59.7399 115.5324,-41.2581 91.8818,-30.1085"/>
<polygon fill="#63b8ff" stroke="#63b8ff" points="180.605,-75.8046 191.1428,-76.903 183.59,-69.4729 180.605,-75.8046"/>
</a>
</g>
</g>
<!-- Node3 -->
<g id="Node000003" class="node">
<title>Node3</title>
<g id="a_Node000003"><a xlink:href="calc_8c.html" target="_top" xlink:title="calc 関数の呼び出しコマンド。">
<polygon fill="#ffffff" stroke="#666666" points="262,-30 161,-30 161,-11 262,-11 262,-30"/>
<text text-anchor="middle" x="211.5" y="-18" font-family="Helvetica,sans-Serif" font-size="10.00" fill="#000000">calc/src/calc/calc.c</text>
</a>
</g>
</g>
<!-- Node1&#45;&gt;Node3 -->
<g id="edge2_Node000001_Node000003" class="edge">
<title>Node1&#45;&gt;Node3</title>
<g id="a_edge2_Node000001_Node000003"><a xlink:title=" ">
<path fill="none" stroke="#63b8ff" d="M211.5,-66.732C211.5,-54.6966 211.5,-39.847 211.5,-30.2785"/>
<polygon fill="#63b8ff" stroke="#63b8ff" points="208.0001,-66.7614 211.5,-76.7615 215.0001,-66.7615 208.0001,-66.7614"/>
</a>
</g>
</g>
<!-- Node4 -->
<g id="Node000004" class="node">
<title>Node4</title>
<g id="a_Node000004"><a xlink:href="shared-and-static-add_8c.html" target="_top" xlink:title="動的リンク、静的リンクを使った関数の呼び出しコマンド。">
<polygon fill="#ffffff" stroke="#666666" points="393,-41 280,-41 280,0 393,0 393,-41"/>
<text text-anchor="start" x="288" y="-29" font-family="Helvetica,sans-Serif" font-size="10.00" fill="#000000">calc/src/shared&#45;and</text>
<text text-anchor="start" x="288" y="-18" font-family="Helvetica,sans-Serif" font-size="10.00" fill="#000000">&#45;static&#45;add/shared&#45;and</text>
<text text-anchor="middle" x="336.5" y="-7" font-family="Helvetica,sans-Serif" font-size="10.00" fill="#000000">&#45;static&#45;add.c</text>
</a>
</g>
</g>
<!-- Node1&#45;&gt;Node4 -->
<g id="edge3_Node000001_Node000004" class="edge">
<title>Node1&#45;&gt;Node4</title>
<g id="a_edge3_Node000001_Node000004"><a xlink:title=" ">
<path fill="none" stroke="#63b8ff" d="M238.6548,-72.1622C255.909,-63.052 278.5172,-51.1149 297.6544,-41.0105"/>
<polygon fill="#63b8ff" stroke="#63b8ff" points="236.8849,-69.1388 229.6761,-76.903 240.1533,-75.3289 236.8849,-69.1388"/>
</a>
</g>
</g>
</g>
</svg>
