<svg xmlns="http://www.w3.org/2000/svg" xmlns:xlink="http://www.w3.org/1999/xlink" contentStyleType="text/css" data-diagram-type="DESCRIPTION" height="885px" preserveAspectRatio="none" style="width:906px;height:885px;" version="1.1" viewBox="0 0 906 885" width="906px" zoomAndPan="magnify"><defs/><g><!--entity src--><g class="entity" data-entity="src" data-source-line="5" data-uid="ent0002" id="entity_src"><path d="M380.5,6 L421.5,6 A3.75,3.75 0 0 1 424,8.5 L431,27 L517.4995,27 A2.5,2.5 0 0 1 519.9995,29.5 L519.9995,59.2799 A2.5,2.5 0 0 1 517.4995,61.7799 L380.5,61.7799 A2.5,2.5 0 0 1 378,59.2799 L378,8.5 A2.5,2.5 0 0 1 380.5,6" fill="#FFC0C0" style="stroke:#181818;stroke-width:0.5;"/><line style="stroke:#181818;stroke-width:0.5;" x1="378" x2="431" y1="27" y2="27"/><text fill="#000000" font-family="メイリオ, `UDEV Gothic HSRFJPDOC`, Helvetica Neue, Helvetica, Arial, sans-serif" font-size="14" lengthAdjust="spacing" textLength="111.9995" x="388" y="47.9999">&#35069;&#21697;&#12477;&#12540;&#12473;&#12467;&#12540;&#12489;</text></g><!--entity Doxygen--><g class="entity" data-entity="Doxygen" data-source-line="6" data-uid="ent0003" id="entity_Doxygen"><rect fill="#F1F1F1" height="47.7799" rx="2.5" ry="2.5" style="stroke:#181818;stroke-width:0.5;" width="88.9998" x="318.5" y="132"/><rect fill="#F1F1F1" height="10" style="stroke:#181818;stroke-width:0.5;" width="15" x="387.4998" y="137"/><rect fill="#F1F1F1" height="2" style="stroke:#181818;stroke-width:0.5;" width="4" x="385.4998" y="139"/><rect fill="#F1F1F1" height="2" style="stroke:#181818;stroke-width:0.5;" width="4" x="385.4998" y="143"/><text fill="#000000" font-family="メイリオ, `UDEV Gothic HSRFJPDOC`, Helvetica Neue, Helvetica, Arial, sans-serif" font-size="14" lengthAdjust="spacing" textLength="48.9998" x="333.5" y="165.9999">Doxygen</text></g><!--entity Doxybook2--><g class="entity" data-entity="Doxybook2" data-source-line="7" data-uid="ent0004" id="entity_Doxybook2"><rect fill="#F1F1F1" height="47.7799" rx="2.5" ry="2.5" style="stroke:#181818;stroke-width:0.5;" width="102.9997" x="311.5" y="250"/><rect fill="#F1F1F1" height="10" style="stroke:#181818;stroke-width:0.5;" width="15" x="394.4997" y="255"/><rect fill="#F1F1F1" height="2" style="stroke:#181818;stroke-width:0.5;" width="4" x="392.4997" y="257"/><rect fill="#F1F1F1" height="2" style="stroke:#181818;stroke-width:0.5;" width="4" x="392.4997" y="261"/><text fill="#000000" font-family="メイリオ, `UDEV Gothic HSRFJPDOC`, Helvetica Neue, Helvetica, Arial, sans-serif" font-size="14" lengthAdjust="spacing" textLength="62.9997" x="326.5" y="283.9999">Doxybook2</text></g><!--entity src_md--><g class="entity" data-entity="src_md" data-source-line="8" data-uid="ent0005" id="entity_src_md"><path d="M294.5,359 L335.5,359 A3.75,3.75 0 0 1 338,361.5 L345,380 L431.4995,380 A2.5,2.5 0 0 1 433.9995,382.5 L433.9995,430.0598 A2.5,2.5 0 0 1 431.4995,432.5598 L294.5,432.5598 A2.5,2.5 0 0 1 292,430.0598 L292,361.5 A2.5,2.5 0 0 1 294.5,359" fill="#F1F1F1" style="stroke:#181818;stroke-width:0.5;"/><line style="stroke:#181818;stroke-width:0.5;" x1="292" x2="345" y1="380" y2="380"/><text fill="#000000" font-family="メイリオ, `UDEV Gothic HSRFJPDOC`, Helvetica Neue, Helvetica, Arial, sans-serif" font-size="14" lengthAdjust="spacing" textLength="111.9995" x="302" y="400.9999">&#35069;&#21697;&#12489;&#12461;&#12517;&#12513;&#12531;&#12488;</text><text fill="#000000" font-family="メイリオ, `UDEV Gothic HSRFJPDOC`, Helvetica Neue, Helvetica, Arial, sans-serif" font-size="14" lengthAdjust="spacing" textLength="69.9997" x="302" y="418.7799">(Markdown)</text></g><!--entity test_src--><g class="entity" data-entity="test_src" data-source-line="9" data-uid="ent0006" id="entity_test_src"><path d="M713.5,6 L754.5,6 A3.75,3.75 0 0 1 757,8.5 L764,27 L878.4994,27 A2.5,2.5 0 0 1 880.9994,29.5 L880.9994,59.2799 A2.5,2.5 0 0 1 878.4994,61.7799 L713.5,61.7799 A2.5,2.5 0 0 1 711,59.2799 L711,8.5 A2.5,2.5 0 0 1 713.5,6" fill="#FFC0C0" style="stroke:#181818;stroke-width:0.5;"/><line style="stroke:#181818;stroke-width:0.5;" x1="711" x2="764" y1="27" y2="27"/><text fill="#000000" font-family="メイリオ, `UDEV Gothic HSRFJPDOC`, Helvetica Neue, Helvetica, Arial, sans-serif" font-size="14" lengthAdjust="spacing" textLength="139.9994" x="721" y="47.9999">&#12486;&#12473;&#12488;&#12398;&#12477;&#12540;&#12473;&#12467;&#12540;&#12489;</text></g><!--entity test_evi--><g class="entity" data-entity="test_evi" data-source-line="10" data-uid="ent0007" id="entity_test_evi"><path d="M673.5,668 L714.5,668 A3.75,3.75 0 0 1 717,670.5 L724,689 L824.4995,689 A2.5,2.5 0 0 1 826.9995,691.5 L826.9995,739.0598 A2.5,2.5 0 0 1 824.4995,741.5598 L673.5,741.5598 A2.5,2.5 0 0 1 671,739.0598 L671,670.5 A2.5,2.5 0 0 1 673.5,668" fill="#F1F1F1" style="stroke:#181818;stroke-width:0.5;"/><line style="stroke:#181818;stroke-width:0.5;" x1="671" x2="724" y1="689" y2="689"/><text fill="#000000" font-family="メイリオ, `UDEV Gothic HSRFJPDOC`, Helvetica Neue, Helvetica, Arial, sans-serif" font-size="14" lengthAdjust="spacing" textLength="83.9996" x="681" y="709.9999">&#21336;&#20307;&#35430;&#39443;&#32080;&#26524;</text><text fill="#000000" font-family="メイリオ, `UDEV Gothic HSRFJPDOC`, Helvetica Neue, Helvetica, Arial, sans-serif" font-size="14" lengthAdjust="spacing" textLength="125.9995" x="681" y="727.7799">(&#12486;&#12473;&#12488;&#12456;&#12499;&#12487;&#12531;&#12473;)</text></g><!--entity gcov--><g class="entity" data-entity="gcov" data-source-line="11" data-uid="ent0008" id="entity_gcov"><rect fill="#F1F1F1" height="47.7799" rx="2.5" ry="2.5" style="stroke:#181818;stroke-width:0.5;" width="186.9994" x="646.5" y="372"/><rect fill="#F1F1F1" height="10" style="stroke:#181818;stroke-width:0.5;" width="15" x="813.4994" y="377"/><rect fill="#F1F1F1" height="2" style="stroke:#181818;stroke-width:0.5;" width="4" x="811.4994" y="379"/><rect fill="#F1F1F1" height="2" style="stroke:#181818;stroke-width:0.5;" width="4" x="811.4994" y="383"/><text fill="#000000" font-family="メイリオ, `UDEV Gothic HSRFJPDOC`, Helvetica Neue, Helvetica, Arial, sans-serif" font-size="14" lengthAdjust="spacing" textLength="146.9994" x="661.5" y="405.9999">gcov / OpenCppCovrage</text></g><!--entity lcov--><g class="entity" data-entity="lcov" data-source-line="12" data-uid="ent0009" id="entity_lcov"><rect fill="#F1F1F1" height="47.7799" rx="2.5" ry="2.5" style="stroke:#181818;stroke-width:0.5;" width="193.9993" x="652" y="494"/><rect fill="#F1F1F1" height="10" style="stroke:#181818;stroke-width:0.5;" width="15" x="825.9993" y="499"/><rect fill="#F1F1F1" height="2" style="stroke:#181818;stroke-width:0.5;" width="4" x="823.9993" y="501"/><rect fill="#F1F1F1" height="2" style="stroke:#181818;stroke-width:0.5;" width="4" x="823.9993" y="505"/><text fill="#000000" font-family="メイリオ, `UDEV Gothic HSRFJPDOC`, Helvetica Neue, Helvetica, Arial, sans-serif" font-size="14" lengthAdjust="spacing" textLength="153.9993" x="667" y="527.9999">lcov / ReportGenerator</text></g><!--entity gtest--><g class="entity" data-entity="gtest" data-source-line="13" data-uid="ent0010" id="entity_gtest"><rect fill="#F1F1F1" height="65.5598" rx="2.5" ry="2.5" style="stroke:#181818;stroke-width:0.5;" width="144.9995" x="723.5" y="123"/><rect fill="#F1F1F1" height="10" style="stroke:#181818;stroke-width:0.5;" width="15" x="848.4995" y="128"/><rect fill="#F1F1F1" height="2" style="stroke:#181818;stroke-width:0.5;" width="4" x="846.4995" y="130"/><rect fill="#F1F1F1" height="2" style="stroke:#181818;stroke-width:0.5;" width="4" x="846.4995" y="134"/><text fill="#000000" font-family="メイリオ, `UDEV Gothic HSRFJPDOC`, Helvetica Neue, Helvetica, Arial, sans-serif" font-size="14" lengthAdjust="spacing" textLength="76.9997" x="738.5" y="156.9999">Google Test</text><text fill="#000000" font-family="メイリオ, `UDEV Gothic HSRFJPDOC`, Helvetica Neue, Helvetica, Arial, sans-serif" font-size="14" lengthAdjust="spacing" textLength="104.9995" x="738.5" y="174.7799">(w/Google Mock)</text></g><!--entity docs_md--><g class="entity" data-entity="docs_md" data-source-line="14" data-uid="ent0011" id="entity_docs_md"><path d="M471.5,359 L512.5,359 A3.75,3.75 0 0 1 515,361.5 L522,380 L608.4995,380 A2.5,2.5 0 0 1 610.9995,382.5 L610.9995,430.0598 A2.5,2.5 0 0 1 608.4995,432.5598 L471.5,432.5598 A2.5,2.5 0 0 1 469,430.0598 L469,361.5 A2.5,2.5 0 0 1 471.5,359" fill="#FFC0C0" style="stroke:#181818;stroke-width:0.5;"/><line style="stroke:#181818;stroke-width:0.5;" x1="469" x2="522" y1="380" y2="380"/><text fill="#000000" font-family="メイリオ, `UDEV Gothic HSRFJPDOC`, Helvetica Neue, Helvetica, Arial, sans-serif" font-size="14" lengthAdjust="spacing" textLength="111.9995" x="479" y="400.9999">&#38306;&#36899;&#12489;&#12461;&#12517;&#12513;&#12531;&#12488;</text><text fill="#000000" font-family="メイリオ, `UDEV Gothic HSRFJPDOC`, Helvetica Neue, Helvetica, Arial, sans-serif" font-size="14" lengthAdjust="spacing" textLength="69.9997" x="479" y="418.7799">(Markdown)</text></g><!--entity Pandoc--><g class="entity" data-entity="Pandoc" data-source-line="15" data-uid="ent0012" id="entity_Pandoc"><rect fill="#F1F1F1" height="47.7799" rx="2.5" ry="2.5" style="stroke:#181818;stroke-width:0.5;" width="81.9998" x="322" y="494"/><rect fill="#F1F1F1" height="10" style="stroke:#181818;stroke-width:0.5;" width="15" x="383.9998" y="499"/><rect fill="#F1F1F1" height="2" style="stroke:#181818;stroke-width:0.5;" width="4" x="381.9998" y="501"/><rect fill="#F1F1F1" height="2" style="stroke:#181818;stroke-width:0.5;" width="4" x="381.9998" y="505"/><text fill="#000000" font-family="メイリオ, `UDEV Gothic HSRFJPDOC`, Helvetica Neue, Helvetica, Arial, sans-serif" font-size="14" lengthAdjust="spacing" textLength="41.9998" x="337" y="527.9999">Pandoc</text></g><!--entity html--><g class="entity" data-entity="html" data-source-line="16" data-uid="ent0013" id="entity_html"><path d="M165.5,668 L206.5,668 A3.75,3.75 0 0 1 209,670.5 L216,689 L274.4996,689 A2.5,2.5 0 0 1 276.9996,691.5 L276.9996,739.0598 A2.5,2.5 0 0 1 274.4996,741.5598 L165.5,741.5598 A2.5,2.5 0 0 1 163,739.0598 L163,670.5 A2.5,2.5 0 0 1 165.5,668" fill="#F1F1F1" style="stroke:#181818;stroke-width:0.5;"/><line style="stroke:#181818;stroke-width:0.5;" x1="163" x2="216" y1="689" y2="689"/><text fill="#000000" font-family="メイリオ, `UDEV Gothic HSRFJPDOC`, Helvetica Neue, Helvetica, Arial, sans-serif" font-size="14" lengthAdjust="spacing" textLength="83.9996" x="173" y="709.9999">&#12489;&#12461;&#12517;&#12513;&#12531;&#12488;</text><text fill="#000000" font-family="メイリオ, `UDEV Gothic HSRFJPDOC`, Helvetica Neue, Helvetica, Arial, sans-serif" font-size="14" lengthAdjust="spacing" textLength="41.9998" x="173" y="727.7799">(HTML)</text></g><!--entity docx--><g class="entity" data-entity="docx" data-source-line="17" data-uid="ent0014" id="entity_docx"><path d="M314.5,668 L355.5,668 A3.75,3.75 0 0 1 358,670.5 L365,689 L423.4996,689 A2.5,2.5 0 0 1 425.9996,691.5 L425.9996,739.0598 A2.5,2.5 0 0 1 423.4996,741.5598 L314.5,741.5598 A2.5,2.5 0 0 1 312,739.0598 L312,670.5 A2.5,2.5 0 0 1 314.5,668" fill="#F1F1F1" style="stroke:#181818;stroke-width:0.5;"/><line style="stroke:#181818;stroke-width:0.5;" x1="312" x2="365" y1="689" y2="689"/><text fill="#000000" font-family="メイリオ, `UDEV Gothic HSRFJPDOC`, Helvetica Neue, Helvetica, Arial, sans-serif" font-size="14" lengthAdjust="spacing" textLength="83.9996" x="322" y="709.9999">&#12489;&#12461;&#12517;&#12513;&#12531;&#12488;</text><text fill="#000000" font-family="メイリオ, `UDEV Gothic HSRFJPDOC`, Helvetica Neue, Helvetica, Arial, sans-serif" font-size="14" lengthAdjust="spacing" textLength="41.9998" x="322" y="727.7799">(DOCX)</text></g><g class="entity" data-entity="GMN15" data-source-line="19" data-uid="ent0016" id="entity_GMN15"><path d="M339,828.5 L339,855.01 A0,0 0 0 0 339,855.01 L399,855.01 A0,0 0 0 0 399,855.01 L399,838.5 L389,828.5 L373,828.5 L369,742.0742 L365,828.5 L339,828.5 A0,0 0 0 0 339,828.5" fill="#FEFFDD" style="stroke:#181818;stroke-width:0.5;"/><path d="M389,828.5 L389,838.5 L399,838.5 L389,828.5" fill="#FEFFDD" style="stroke:#181818;stroke-width:0.5;"/><text fill="#000000" font-family="メイリオ, `UDEV Gothic HSRFJPDOC`, Helvetica Neue, Helvetica, Arial, sans-serif" font-size="13" lengthAdjust="spacing" textLength="39" x="345" y="846.5">&#32013;&#21697;&#29992;</text></g><!--entity developer--><g class="entity" data-entity="developer" data-source-line="21" data-uid="ent0018" id="entity_developer"><ellipse cx="147.9999" cy="811.5" fill="#F1F1F1" rx="8" ry="8" style="stroke:#181818;stroke-width:0.5;"/><path d="M147.9999,819.5 L147.9999,846.5 M134.9999,827.5 L160.9999,827.5 M147.9999,846.5 L134.9999,861.5 M147.9999,846.5 L160.9999,861.5" fill="none" style="stroke:#181818;stroke-width:0.5;"/><text fill="#000000" font-family="メイリオ, `UDEV Gothic HSRFJPDOC`, Helvetica Neue, Helvetica, Arial, sans-serif" font-size="14" lengthAdjust="spacing" textLength="41.9998" x="127" y="876.9999">&#38283;&#30330;&#32773;</text></g><!--entity vscode--><g class="entity" data-entity="vscode" data-source-line="22" data-uid="ent0019" id="entity_vscode"><rect fill="#F1F1F1" height="65.5598" rx="2.5" ry="2.5" style="stroke:#181818;stroke-width:0.5;" width="151.9995" x="7" y="572"/><rect fill="#F1F1F1" height="10" style="stroke:#181818;stroke-width:0.5;" width="15" x="138.9995" y="577"/><rect fill="#F1F1F1" height="2" style="stroke:#181818;stroke-width:0.5;" width="4" x="136.9995" y="579"/><rect fill="#F1F1F1" height="2" style="stroke:#181818;stroke-width:0.5;" width="4" x="136.9995" y="583"/><text fill="#000000" font-family="メイリオ, `UDEV Gothic HSRFJPDOC`, Helvetica Neue, Helvetica, Arial, sans-serif" font-size="14" lengthAdjust="spacing" textLength="48.9998" x="22" y="605.9999">VS Code</text><text fill="#000000" font-family="メイリオ, `UDEV Gothic HSRFJPDOC`, Helvetica Neue, Helvetica, Arial, sans-serif" font-size="14" lengthAdjust="spacing" textLength="111.9995" x="22" y="623.7799">(&#12452;&#12531;&#12486;&#12522;&#12475;&#12531;&#12473;)</text></g><!--entity llm--><g class="entity" data-entity="llm" data-source-line="23" data-uid="ent0020" id="entity_llm"><rect fill="#F1F1F1" height="47.7799" rx="2.5" ry="2.5" style="stroke:#181818;stroke-width:0.5;" width="95.9998" x="477" y="681"/><rect fill="#F1F1F1" height="10" style="stroke:#181818;stroke-width:0.5;" width="15" x="552.9998" y="686"/><rect fill="#F1F1F1" height="2" style="stroke:#181818;stroke-width:0.5;" width="4" x="550.9998" y="688"/><rect fill="#F1F1F1" height="2" style="stroke:#181818;stroke-width:0.5;" width="4" x="550.9998" y="692"/><text fill="#000000" font-family="メイリオ, `UDEV Gothic HSRFJPDOC`, Helvetica Neue, Helvetica, Arial, sans-serif" font-size="14" lengthAdjust="spacing" textLength="55.9998" x="492" y="714.9999">AI (LLM)</text></g><g class="entity" data-entity="GMN21" data-source-line="25" data-uid="ent0022" id="entity_GMN21"><path d="M443,820.5 L443,863.52 A0,0 0 0 0 443,863.52 L607.0001,863.52 A0,0 0 0 0 607.0001,863.52 L607.0001,830.5 L597.0001,820.5 L529,820.5 L525,729.1775 L521,820.5 L443,820.5 A0,0 0 0 0 443,820.5" fill="#FEFFDD" style="stroke:#181818;stroke-width:0.5;"/><path d="M597.0001,820.5 L597.0001,830.5 L607.0001,830.5 L597.0001,820.5" fill="#FEFFDD" style="stroke:#181818;stroke-width:0.5;"/><text fill="#000000" font-family="メイリオ, `UDEV Gothic HSRFJPDOC`, Helvetica Neue, Helvetica, Arial, sans-serif" font-size="13" lengthAdjust="spacing" textLength="143.0001" x="449" y="838.5">AI &#12398;&#20837;&#21147;&#12487;&#12540;&#12479; &#12392;&#12375;&#12390;</text><text fill="#000000" font-family="メイリオ, `UDEV Gothic HSRFJPDOC`, Helvetica Neue, Helvetica, Arial, sans-serif" font-size="13" lengthAdjust="spacing" textLength="97.5" x="449" y="855.01">Markdown &#12434;&#27963;&#29992;</text></g><!--link src to Doxygen--><g class="link" data-entity-1="src" data-entity-2="Doxygen" data-source-line="28" data-uid="lnk24" id="link_src_Doxygen"><path d="M429.0537,62.2959 C414.1678,83.4131 397.5055,107.0503 383.3964,127.0655" fill="none" id="src-to-Doxygen" style="stroke:#181818;stroke-width:1;"/><polygon fill="#181818" points="379.9395,131.9695,388.3943,126.9181,382.8203,127.8828,381.8556,122.3088,379.9395,131.9695" style="stroke:#181818;stroke-width:1;"/></g><!--link Doxygen to Doxybook2--><g class="link" data-entity-1="Doxygen" data-entity-2="Doxybook2" data-source-line="29" data-uid="lnk25" id="link_Doxygen_Doxybook2"><path d="M363,180.1638 C363,200.5267 363,223.5148 363,243.8685" fill="none" id="Doxygen-to-Doxybook2" style="stroke:#181818;stroke-width:1;"/><polygon fill="#181818" points="363,249.8685,367,240.8685,363,244.8685,359,240.8685,363,249.8685" style="stroke:#181818;stroke-width:1;"/></g><!--link Doxybook2 to src_md--><g class="link" data-entity-1="Doxybook2" data-entity-2="src_md" data-source-line="30" data-uid="lnk26" id="link_Doxybook2_src_md"><path d="M363,298.1033 C363,315.4639 363,354.2112 363,373.9691" fill="none" id="Doxybook2-to-src_md" style="stroke:#181818;stroke-width:1;"/><polygon fill="#181818" points="363,379.9691,367,370.9691,363,374.9691,359,370.9691,363,379.9691" style="stroke:#181818;stroke-width:1;"/></g><!--link Doxygen to html--><g class="link" data-entity-1="Doxygen" data-entity-2="html" data-source-line="31" data-uid="lnk27" id="link_Doxygen_html"><path d="M318.2332,176.236 C282.7148,195.6994 239,228.8295 239,274 C239,274 239,274 239,518 C239,570.2119 232.4556,645.2703 226.8892,682.9234" fill="none" id="Doxygen-to-html" style="stroke:#181818;stroke-width:1;"/><polygon fill="#181818" points="226.0117,688.8589,231.2849,680.5406,226.7429,683.9127,223.3709,679.3707,226.0117,688.8589" style="stroke:#181818;stroke-width:1;"/></g><!--link src to gtest--><g class="link" data-entity-1="src" data-entity-2="gtest" data-source-line="32" data-uid="lnk28" id="link_src_gtest"><path d="M520.2238,46.9177 C566.6611,56.5391 628.0597,71.55 680,92 C701.2946,100.3841 718.3457,108.95 737.6099,119.92" fill="none" id="src-to-gtest" style="stroke:#181818;stroke-width:1;"/><polygon fill="#181818" points="742.8238,122.8891,736.9823,114.9596,738.4789,120.4149,733.0236,121.9115,742.8238,122.8891" style="stroke:#181818;stroke-width:1;"/></g><!--link src to gcov--><g class="link" data-entity-1="src" data-entity-2="gcov" data-source-line="33" data-uid="lnk29" id="link_src_gcov"><path d="M471.5921,62.1043 C526.8771,130.878 664.4882,302.0643 716.581,366.8671" fill="none" id="src-to-gcov" style="stroke:#181818;stroke-width:1;"/><polygon fill="#181818" points="720.3402,371.5435,717.819,362.0228,717.2075,367.6465,711.5838,367.0351,720.3402,371.5435" style="stroke:#181818;stroke-width:1;"/></g><!--link gcov to lcov--><g class="link" data-entity-1="gcov" data-entity-2="lcov" data-source-line="34" data-uid="lnk30" id="link_gcov_lcov"><path d="M741.7781,420.1033 C743.3559,441.4915 745.2075,466.59 746.7842,487.9631" fill="none" id="gcov-to-lcov" style="stroke:#181818;stroke-width:1;"/><polygon fill="#181818" points="747.2256,493.9468,750.5526,484.6769,746.8577,488.9603,742.5743,485.2655,747.2256,493.9468" style="stroke:#181818;stroke-width:1;"/></g><!--link gcov to test_evi--><g class="link" data-entity-1="gcov" data-entity-2="test_evi" data-source-line="35" data-uid="lnk31" id="link_gcov_test_evi"><path d="M700.698,420.0172 C676.5073,437.2538 647.6082,462.8859 634,494 C625.4514,513.5457 627.5488,521.6655 634,542 C649.3953,590.5265 681.031,632.5948 708.584,663.4312" fill="none" id="gcov-to-test_evi" style="stroke:#181818;stroke-width:1;"/><polygon fill="#181818" points="712.5817,667.9053,709.5678,658.5289,709.2502,664.1768,703.6023,663.8592,712.5817,667.9053" style="stroke:#181818;stroke-width:1;"/></g><!--link lcov to test_evi--><g class="link" data-entity-1="lcov" data-entity-2="test_evi" data-source-line="36" data-uid="lnk32" id="link_lcov_test_evi"><path d="M749,542.0642 C749,573.9262 749,645.4331 749,682.8094" fill="none" id="lcov-to-test_evi" style="stroke:#181818;stroke-width:1;"/><polygon fill="#181818" points="749,688.8094,753,679.8094,749,683.8094,745,679.8094,749,688.8094" style="stroke:#181818;stroke-width:1;"/></g><!--link test_src to gtest--><g class="link" data-entity-1="test_src" data-entity-2="gtest" data-source-line="37" data-uid="lnk33" id="link_test_src_gtest"><path d="M796,62.2959 C796,80.3159 796,97.7419 796,116.663" fill="none" id="test_src-to-gtest" style="stroke:#181818;stroke-width:1;"/><polygon fill="#181818" points="796,122.663,800,113.663,796,117.663,792,113.663,796,122.663" style="stroke:#181818;stroke-width:1;"/></g><!--link gtest to test_evi--><g class="link" data-entity-1="gtest" data-entity-2="test_evi" data-source-line="38" data-uid="lnk34" id="link_gtest_test_evi"><path d="M847.8018,189.1391 C873.4508,209.9239 899,239.3293 899,274 C899,274 899,274 899,518 C899,580.637 851.8765,651.5509 809.1471,685.1073" fill="none" id="gtest-to-test_evi" style="stroke:#181818;stroke-width:1;"/><polygon fill="#181818" points="804.4283,688.8131,813.977,686.4003,808.3606,685.7249,809.036,680.1085,804.4283,688.8131" style="stroke:#181818;stroke-width:1;"/></g><!--link docs_md to Pandoc--><g class="link" data-entity-1="docs_md" data-entity-2="Pandoc" data-source-line="39" data-uid="lnk35" id="link_docs_md_Pandoc"><path d="M485.9324,433.2669 C457.3645,452.9578 428.0658,473.1524 402.9857,490.4392" fill="none" id="docs_md-to-Pandoc" style="stroke:#181818;stroke-width:1;"/><polygon fill="#181818" points="398.0455,493.8443,407.7258,492.0301,402.1623,491.0067,403.1857,485.4432,398.0455,493.8443" style="stroke:#181818;stroke-width:1;"/></g><!--link src_md to Pandoc--><g class="link" data-entity-1="src_md" data-entity-2="Pandoc" data-source-line="40" data-uid="lnk36" id="link_src_md_Pandoc"><path d="M363,433.2669 C363,452.8877 363,470.3896 363,487.6595" fill="none" id="src_md-to-Pandoc" style="stroke:#181818;stroke-width:1;"/><polygon fill="#181818" points="363,493.6595,367,484.6595,363,488.6595,359,484.6595,363,493.6595" style="stroke:#181818;stroke-width:1;"/></g><!--link Pandoc to html--><g class="link" data-entity-1="Pandoc" data-entity-2="html" data-source-line="41" data-uid="lnk37" id="link_Pandoc_html"><path d="M344.598,542.0642 C320.2329,573.9262 280.6665,646.667 252.0846,684.0433" fill="none" id="Pandoc-to-html" style="stroke:#181818;stroke-width:1;"/><polygon fill="#181818" points="248.4399,688.8094,257.0844,684.09,251.4772,684.8376,250.7295,679.2304,248.4399,688.8094" style="stroke:#181818;stroke-width:1;"/></g><!--link Pandoc to docx--><g class="link" data-entity-1="Pandoc" data-entity-2="docx" data-source-line="42" data-uid="lnk38" id="link_Pandoc_docx"><path d="M363.7721,542.0642 C364.7944,573.9262 366.4151,645.4362 367.6143,682.8125" fill="none" id="Pandoc-to-docx" style="stroke:#181818;stroke-width:1;"/><polygon fill="#181818" points="367.8067,688.8094,371.516,679.6858,367.6464,683.812,363.5201,679.9423,367.8067,688.8094" style="stroke:#181818;stroke-width:1;"/></g><!--link html to developer--><g class="link" data-entity-1="html" data-entity-2="developer" data-source-line="43" data-uid="lnk39" id="link_html_developer"><path d="M200.5158,742.0742 C190.6039,760.9343 181.3506,778.5412 171.2979,797.6693" fill="none" id="html-to-developer" style="stroke:#181818;stroke-width:1;"/><polygon fill="#181818" points="168.5066,802.9805,176.2343,796.8746,170.8327,798.5545,169.1527,793.1529,168.5066,802.9805" style="stroke:#181818;stroke-width:1;"/></g><!--link docs_md to llm--><g class="link" data-entity-1="docs_md" data-entity-2="llm" data-source-line="44" data-uid="lnk40" id="link_docs_md_llm"><path d="M538.1906,433.2726 C535.0738,497.4793 529.067,621.2194 526.4609,674.9052" fill="none" id="docs_md-to-llm" style="stroke:#181818;stroke-width:1;"/><polygon fill="#181818" points="526.17,680.8981,530.6017,672.1026,526.4124,675.904,522.6111,671.7147,526.17,680.8981" style="stroke:#181818;stroke-width:1;"/></g><!--link src_md to llm--><g class="link" data-entity-1="src_md" data-entity-2="llm" data-source-line="45" data-uid="lnk41" id="link_src_md_llm"><path d="M385.9897,433.3095 C396.9269,451.4399 409.9881,473.6581 421,494 C457.0655,560.6226 492.9339,636.0444 511.3513,675.5275" fill="none" id="src_md-to-llm" style="stroke:#181818;stroke-width:1;"/><polygon fill="#181818" points="513.8877,680.965,513.7081,671.1178,511.774,676.4337,506.4581,674.4997,513.8877,680.965" style="stroke:#181818;stroke-width:1;"/></g><!--link src to vscode--><g class="link" data-entity-1="src" data-entity-2="vscode" data-source-line="46" data-uid="lnk42" id="link_src_vscode"><path d="M377.8531,42.7921 C270.626,58.0573 80,93.9247 80,156 C80,156 80,156 80,463.5 C80,500.603 80.8646,537.1688 81.7208,565.8421" fill="none" id="src-to-vscode" style="stroke:#181818;stroke-width:1;"/><polygon fill="#181818" points="81.8999,571.8394,85.6295,562.724,81.7507,566.8416,77.6331,562.9628,81.8999,571.8394" style="stroke:#181818;stroke-width:1;"/><text fill="#000000" font-family="メイリオ, `UDEV Gothic HSRFJPDOC`, Helvetica Neue, Helvetica, Arial, sans-serif" font-size="13" lengthAdjust="spacing" textLength="52.0001" x="107" y="270.5">&#12504;&#12483;&#12480;&#12398;</text><text fill="#000000" font-family="メイリオ, `UDEV Gothic HSRFJPDOC`, Helvetica Neue, Helvetica, Arial, sans-serif" font-size="13" lengthAdjust="spacing" textLength="104.0001" x="81" y="287.01">Doxygen &#12467;&#12513;&#12531;&#12488;</text></g><!--link vscode to developer--><g class="link" data-entity-1="vscode" data-entity-2="developer" data-source-line="47" data-uid="lnk43" id="link_vscode_developer"><path d="M92.1064,638.2034 C103.9508,681.39 123.0268,750.9439 135.6381,796.9268" fill="none" id="vscode-to-developer" style="stroke:#181818;stroke-width:1;"/><polygon fill="#181818" points="137.2251,802.7131,138.7022,792.9756,135.9026,797.8912,130.9871,795.0916,137.2251,802.7131" style="stroke:#181818;stroke-width:1;"/></g><!--SRC=[ZLHDQnD16BxtLmpnqXv2YaSf1KcX2WaLBUAXK3QxaxLaTjvbTatRMx93QsifY17ReWXQMwAW5-kXrk2F6TCa_yAPsUncTxj1z_JECy_x_SmkUFusmOip2wMnuJKsg6immq4rmspO39vHgmm46FAPGJrvXQa_W-HN1s9XXWh3qrw_qnP1J_1V8hWKmNTbyFq2CZpaCHFTgjVDUNDUEvdWk41b2BG4MzisfZbe3Q1nEoy5tnV1Ly7F1FyWkCoojqPdgmPhMB19vw9qwuwLyXLyLrN5zqJxsvGYVUpvwzbA8__-uV6VNcVu-NpKxGn-lBn-_qvcdGGDke9t17-k2WekvoRnS7CZqrl1Dg69IcZ5nRJikcLeCiF6saFTPDaaP3_4BZ1_6LFC31-OffCS-ZA0JJ1QbRbbWPkbyRaAPYEiobPbfLeRlVauQft-nrWjC3qvrocRV61GISWCFIVclTLg9Optr7V8l_bBA-KdSVujpQVWOrG3tmT7dzKtk3YKuXYyxce4KqkpzC4mvSHKdmU3av_3rauO33Sn0HUpx0GVFq9biB1QR_19Lx4h-1SHN2Lts_HCoScwthsFPYkLQaWXn9bQh2HA7VPtpleltchLI3N-bb1Nj8z4-ppcHVD78dXrVN6LsvrIRB6uc7f9Opl69syfFkcxn4D9kiIBYM9FH1CZaVQqcXL2RY2f1q1oqVZDfRDeIsB56mwH1jL5Gd5X8raqDDCj9R1OJ-eoH5AYIEQAjXadIcDHhQ4kq1qa-B7WNF2MtFCQZOQhVpXZQMlNCJ-P-Yy0]--></g></svg>