<svg xmlns="http://www.w3.org/2000/svg" xmlns:xlink="http://www.w3.org/1999/xlink" contentStyleType="text/css" data-diagram-type="DESCRIPTION" height="439px" preserveAspectRatio="none" style="width:791px;height:439px;" version="1.1" viewBox="0 0 791 439" width="791px" zoomAndPan="magnify"><defs/><g><!--cluster ????--><g class="cluster" data-entity="...." data-source-line="9" data-uid="ent0002" id="cluster_...."><rect fill="none" height="78" rx="2.5" ry="2.5" style="stroke:#181818;stroke-width:1;" width="719" x="48" y="7"/><text fill="#000000" font-family="Courier" font-size="14" font-weight="bold" lengthAdjust="spacing" textLength="57.7498" x="378.6251" y="22.9999">&#20006;&#21015;&#23455;&#34892;</text></g><!--entity linux_ol8--><g class="entity" data-entity="linux_ol8" data-source-line="10" data-uid="ent0003" id="entity_linux_ol8"><rect fill="#F1F1F1" height="41.5598" rx="2.5" ry="2.5" style="stroke:#181818;stroke-width:0.5;" width="159.9994" x="56" y="35"/><text fill="#000000" font-family="Courier" font-size="14" lengthAdjust="spacing" textLength="139.9994" x="66" y="51.9999">build-and-test-linux</text><text fill="#000000" font-family="Courier" font-size="14" lengthAdjust="spacing" textLength="34.9998" x="66" y="69.7799">(OL8)</text></g><!--entity linux_ol10--><g class="entity" data-entity="linux_ol10" data-source-line="11" data-uid="ent0004" id="entity_linux_ol10"><rect fill="#F1F1F1" height="41.5598" rx="2.5" ry="2.5" style="stroke:#181818;stroke-width:0.5;" width="159.9994" x="251" y="35"/><text fill="#000000" font-family="Courier" font-size="14" lengthAdjust="spacing" textLength="139.9994" x="261" y="51.9999">build-and-test-linux</text><text fill="#000000" font-family="Courier" font-size="14" lengthAdjust="spacing" textLength="41.9998" x="261" y="69.7799">(OL10)</text></g><!--entity windows--><g class="entity" data-entity="windows" data-source-line="12" data-uid="ent0005" id="entity_windows"><rect fill="#F1F1F1" height="23.7799" rx="2.5" ry="2.5" style="stroke:#181818;stroke-width:0.5;" width="173.9993" x="446" y="44"/><text fill="#000000" font-family="Courier" font-size="14" lengthAdjust="spacing" textLength="153.9993" x="456" y="60.9999">build-and-test-windows</text></g><!--entity docs--><g class="entity" data-entity="docs" data-source-line="13" data-uid="ent0006" id="entity_docs"><rect fill="#F1F1F1" height="23.7799" rx="2.5" ry="2.5" style="stroke:#181818;stroke-width:0.5;" width="103.9996" x="655" y="44"/><text fill="#000000" font-family="Courier" font-size="14" lengthAdjust="spacing" textLength="83.9996" x="665" y="60.9999">publish-docs</text></g><!--entity linux_ol8_artifact--><g class="entity" data-entity="linux_ol8_artifact" data-source-line="15" data-uid="ent0007" id="entity_linux_ol8_artifact"><rect fill="#F1F1F1" height="40.7799" rx="2.5" ry="2.5" style="stroke:#181818;stroke-width:0.5;" width="183.9993" x="7" y="138"/><polygon fill="#F1F1F1" points="173.9993,143,173.9993,157,185.9993,157,185.9993,149,179.9993,143,173.9993,143" style="stroke:#181818;stroke-width:0.5;"/><line style="stroke:#181818;stroke-width:0.5;" x1="179.9993" x2="179.9993" y1="143" y2="149"/><line style="stroke:#181818;stroke-width:0.5;" x1="185.9993" x2="179.9993" y1="149" y2="149"/><text fill="#000000" font-family="Courier" font-size="14" lengthAdjust="spacing" textLength="153.9993" x="17" y="164.9999">linux-ol8-test-results</text></g><!--entity linux_ol10_artifact--><g class="entity" data-entity="linux_ol10_artifact" data-source-line="16" data-uid="ent0008" id="entity_linux_ol10_artifact"><rect fill="#F1F1F1" height="40.7799" rx="2.5" ry="2.5" style="stroke:#181818;stroke-width:0.5;" width="190.9993" x="226.5" y="138"/><polygon fill="#F1F1F1" points="400.4993,143,400.4993,157,412.4993,157,412.4993,149,406.4993,143,400.4993,143" style="stroke:#181818;stroke-width:0.5;"/><line style="stroke:#181818;stroke-width:0.5;" x1="406.4993" x2="406.4993" y1="143" y2="149"/><line style="stroke:#181818;stroke-width:0.5;" x1="412.4993" x2="406.4993" y1="149" y2="149"/><text fill="#000000" font-family="Courier" font-size="14" lengthAdjust="spacing" textLength="160.9993" x="236.5" y="164.9999">linux-ol10-test-results</text></g><!--entity windows_artifact--><g class="entity" data-entity="windows_artifact" data-source-line="17" data-uid="ent0009" id="entity_windows_artifact"><rect fill="#F1F1F1" height="40.7799" rx="2.5" ry="2.5" style="stroke:#181818;stroke-width:0.5;" width="169.9994" x="453" y="138"/><polygon fill="#F1F1F1" points="605.9994,143,605.9994,157,617.9994,157,617.9994,149,611.9994,143,605.9994,143" style="stroke:#181818;stroke-width:0.5;"/><line style="stroke:#181818;stroke-width:0.5;" x1="611.9994" x2="611.9994" y1="143" y2="149"/><line style="stroke:#181818;stroke-width:0.5;" x1="617.9994" x2="611.9994" y1="149" y2="149"/><text fill="#000000" font-family="Courier" font-size="14" lengthAdjust="spacing" textLength="139.9994" x="463" y="164.9999">windows-test-results</text></g><!--entity docs_artifact--><g class="entity" data-entity="docs_artifact" data-source-line="18" data-uid="ent0010" id="entity_docs_artifact"><rect fill="#F1F1F1" height="40.7799" rx="2.5" ry="2.5" style="stroke:#181818;stroke-width:0.5;" width="120.9996" x="658.5" y="138"/><polygon fill="#F1F1F1" points="762.4996,143,762.4996,157,774.4996,157,774.4996,149,768.4996,143,762.4996,143" style="stroke:#181818;stroke-width:0.5;"/><line style="stroke:#181818;stroke-width:0.5;" x1="768.4996" x2="768.4996" y1="143" y2="149"/><line style="stroke:#181818;stroke-width:0.5;" x1="774.4996" x2="768.4996" y1="149" y2="149"/><text fill="#000000" font-family="Courier" font-size="14" lengthAdjust="spacing" textLength="90.9996" x="668.5" y="164.9999">documentation</text></g><!--entity deploy--><g class="entity" data-entity="deploy" data-source-line="19" data-uid="ent0011" id="entity_deploy"><rect fill="#F1F1F1" height="41.5598" rx="2.5" ry="2.5" style="stroke:#181818;stroke-width:0.5;" width="166.9994" x="346.5" y="249"/><text fill="#000000" font-family="Courier" font-size="14" lengthAdjust="spacing" textLength="83.9996" x="356.5" y="265.9999">deploy-pages</text><text fill="#000000" font-family="Courier" font-size="14" lengthAdjust="spacing" textLength="146.9994" x="356.5" y="283.7799">(needs:&#160;&#12377;&#12409;&#12390;&#23436;&#20102;&#24460;)</text></g><!--entity pages--><g class="entity" data-entity="pages" data-source-line="20" data-uid="ent0012" id="entity_pages"><path d="M382.2232,386.6526 C384.9589,380.8527 390.839,379.6962 394.8166,385.2785 C397.9129,378.3762 403.8916,377.8027 407.6585,384.6523 C409.819,380.0945 414.8643,379.537 417.8625,383.6685 C421.1513,376.7172 427.9098,375.8656 432.0422,382.8076 C435.5349,376.3114 439.4879,377.4277 443.5239,382.2568 C448.361,377.9836 452.6225,378.2082 455.5913,384.4092 C459.2721,378.4188 465.1464,378.6787 468.5122,384.7467 C473.4403,380.353 476.9447,381.8116 479.5918,387.3034 C488.7711,391.1561 487.8202,397.4527 481.9237,403.4788 C488.2675,409.3271 486.5755,414.4936 479.6742,418.3365 C477.3445,425.1649 472.7341,427.4783 467.0292,421.7299 C464.2093,427.0162 460.2995,427.8882 456.2712,423.0088 C453.8021,429.8349 448.3519,432.1733 442.7676,426.3287 C440.0709,432.5223 436.3496,432.3829 431.8217,428.2742 C427.531,432.4348 421.7363,431.2113 419.9415,425.3233 C414.8751,431.411 410.3735,431.1961 407.0094,423.7023 C401.0849,427.6953 396.7103,428.0002 394.0096,420.1605 C389.8224,424.9627 385.951,424.8605 383.0474,418.8581 C374.3199,417.358 369.793,410.0877 375.9181,402.2225 C369.8264,393.8629 371.6868,388.2786 382.2232,386.6526" fill="#F1F1F1" style="stroke:#181818;stroke-width:0.5;"/><text fill="#000000" font-family="Courier" font-size="14" lengthAdjust="spacing" textLength="83.9996" x="388" y="406.9999">GitHub&#160;Pages</text></g><g class="entity" data-entity="GMN22" data-source-line="31" data-uid="ent0023" id="entity_GMN22"><path d="M548.5,240 L548.5,266 L513.7344,270 L548.5,274 L548.5,299.53 A0,0 0 0 0 548.5,299.53 L777.5002,299.53 A0,0 0 0 0 777.5002,299.53 L777.5002,250 L767.5002,240 L548.5,240 A0,0 0 0 0 548.5,240" fill="#FAFAFA" style="stroke:#181818;stroke-width:0.5;"/><path d="M767.5002,240 L767.5002,250 L777.5002,250 L767.5002,240" fill="#FAFAFA" style="stroke:#181818;stroke-width:0.5;"/><text fill="#000000" font-family="Courier" font-size="13" lengthAdjust="spacing" textLength="208.0002" x="554.5" y="258">&#12450;&#12540;&#12486;&#12451;&#12501;&#12449;&#12463;&#12488;&#12473;&#12488;&#12524;&#12540;&#12472;&#32076;&#30001;&#12391;</text><text fill="#000000" font-family="Courier" font-size="13" lengthAdjust="spacing" textLength="195.0002" x="554.5" y="274.51">&#30064;&#12394;&#12427;&#160;OS&#160;&#29872;&#22659;&#12398;&#12501;&#12449;&#12452;&#12523;&#12434;&#32113;&#21512;</text><text fill="#000000" font-family="Courier" font-size="13" lengthAdjust="spacing" textLength="182.0002" x="554.5" y="291.02">&#12377;&#12409;&#12390;&#12398;&#12472;&#12519;&#12502;&#25104;&#21151;&#26178;&#12398;&#12415;&#23455;&#34892;</text></g><!--link linux_ol8 to linux_ol8_artifact--><g class="link" data-entity-1="linux_ol8" data-entity-2="linux_ol8_artifact" data-source-line="21" data-uid="lnk13" id="link_linux_ol8_linux_ol8_artifact"><path d="M128.3336,77.2381 C121.8988,95.0642 114.8013,114.7262 108.4413,132.345" fill="none" id="linux_ol8-to-linux_ol8_artifact" style="stroke:#181818;stroke-width:1;"/><polygon fill="#181818" points="106.4041,137.9886,113.2223,130.8814,108.1018,133.2856,105.6975,128.1651,106.4041,137.9886" style="stroke:#181818;stroke-width:1;"/></g><!--link linux_ol10 to linux_ol10_artifact--><g class="link" data-entity-1="linux_ol10" data-entity-2="linux_ol10_artifact" data-source-line="22" data-uid="lnk14" id="link_linux_ol10_linux_ol10_artifact"><path d="M329.1352,77.2381 C327.57,95.0642 325.8728,114.3928 324.3258,132.0116" fill="none" id="linux_ol10-to-linux_ol10_artifact" style="stroke:#181818;stroke-width:1;"/><polygon fill="#181818" points="323.801,137.9886,328.5729,129.373,324.2383,133.0078,320.6035,128.6732,323.801,137.9886" style="stroke:#181818;stroke-width:1;"/></g><!--link windows to windows_artifact--><g class="link" data-entity-1="windows" data-entity-2="windows_artifact" data-source-line="23" data-uid="lnk15" id="link_windows_windows_artifact"><path d="M533.5932,68.1606 C534.4313,85.3422 535.6811,110.962 536.7006,131.861" fill="none" id="windows-to-windows_artifact" style="stroke:#181818;stroke-width:1;"/><polygon fill="#181818" points="536.9929,137.8539,540.5496,128.6697,536.7493,132.8598,532.5591,129.0595,536.9929,137.8539" style="stroke:#181818;stroke-width:1;"/></g><!--link docs to docs_artifact--><g class="link" data-entity-1="docs" data-entity-2="docs_artifact" data-source-line="24" data-uid="lnk16" id="link_docs_docs_artifact"><path d="M708.4237,68.1606 C710.4352,85.3422 713.4385,110.9956 715.8852,131.8946" fill="none" id="docs-to-docs_artifact" style="stroke:#181818;stroke-width:1;"/><polygon fill="#181818" points="716.5829,137.8539,719.5093,128.4498,716.0015,132.8878,711.5635,129.3801,716.5829,137.8539" style="stroke:#181818;stroke-width:1;"/></g><!--link linux_ol8_artifact to deploy--><g class="link" data-entity-1="linux_ol8_artifact" data-entity-2="deploy" data-source-line="25" data-uid="lnk17" id="link_linux_ol8_artifact_deploy"><path d="M160.0962,179.0808 C219.1244,198.9649 302.4154,227.0221 361.8882,247.056" fill="none" id="linux_ol8_artifact-to-deploy" style="stroke:#181818;stroke-width:1;"/><polygon fill="#181818" points="367.5743,248.9714,360.3221,242.3076,362.8359,247.3752,357.7683,249.889,367.5743,248.9714" style="stroke:#181818;stroke-width:1;"/></g><!--link linux_ol10_artifact to deploy--><g class="link" data-entity-1="linux_ol10_artifact" data-entity-2="deploy" data-source-line="26" data-uid="lnk18" id="link_linux_ol10_artifact_deploy"><path d="M342.0609,179.211 C361.2153,198.9862 385.7763,224.3432 405.1368,244.3311" fill="none" id="linux_ol10_artifact-to-deploy" style="stroke:#181818;stroke-width:1;"/><polygon fill="#181818" points="409.3113,248.6408,405.9228,239.3932,405.8326,245.0493,400.1764,244.9592,409.3113,248.6408" style="stroke:#181818;stroke-width:1;"/></g><!--link windows_artifact to deploy--><g class="link" data-entity-1="windows_artifact" data-entity-2="deploy" data-source-line="27" data-uid="lnk19" id="link_windows_artifact_deploy"><path d="M517.9391,179.211 C498.7847,198.9862 474.2237,224.3432 454.8632,244.3311" fill="none" id="windows_artifact-to-deploy" style="stroke:#181818;stroke-width:1;"/><polygon fill="#181818" points="450.6887,248.6408,459.8236,244.9592,454.1674,245.0493,454.0772,239.3932,450.6887,248.6408" style="stroke:#181818;stroke-width:1;"/></g><!--link docs_artifact to deploy--><g class="link" data-entity-1="docs_artifact" data-entity-2="deploy" data-source-line="28" data-uid="lnk20" id="link_docs_artifact_deploy"><path d="M665.6562,179.0808 C614.118,198.9649 542.0288,226.7778 490.1024,246.8117" fill="none" id="docs_artifact-to-deploy" style="stroke:#181818;stroke-width:1;"/><polygon fill="#181818" points="484.5046,248.9714,494.3411,249.4637,489.1695,247.1716,491.4615,241.9999,484.5046,248.9714" style="stroke:#181818;stroke-width:1;"/></g><!--link deploy to pages--><g class="link" data-entity-1="deploy" data-entity-2="pages" data-source-line="29" data-uid="lnk21" id="link_deploy_pages"><path d="M430,291.2081 C430,314.8204 430,346.9152 430,371.7075" fill="none" id="deploy-to-pages" style="stroke:#181818;stroke-width:1;"/><polygon fill="#181818" points="430,377.7075,434,368.7075,430,372.7075,426,368.7075,430,377.7075" style="stroke:#181818;stroke-width:1;"/><text fill="#000000" font-family="Courier" font-size="13" lengthAdjust="spacing" textLength="130.0002" x="431" y="344">&#12450;&#12540;&#12486;&#12451;&#12501;&#12449;&#12463;&#12488;&#32113;&#21512;</text></g><!--SRC=[XPDDQzH06CVl-HIFEUaXk7ihKWgor7eehQX7eSmcizcXipFBp8HQn4CIA8lkeHIhz5JwGWigQtieR4NqmqpJzMCuUTdiErwIOVx_t_Cy_oTaMQfTYbUivSV5GMuJraO2jQ2Et6rVy81vDKwv02KGaqR2J5aFFDmW3CFBrThhfnjhwwlWKYJb6DtYZBjDmLlOW04UKsGJUNo7C1yQYCfnnHH50LNFE5CRo81sZGU2O65R0hiACP-Qkxl-HTBvalIE_vvqRNXd0RX8U63N0q8z1p7FKLWgXn8Ml7t37cwkBpso0Kd8BhOuNVe_KQrC8jNA8iR4C5bavYxEfRKTr2cHJSVZRcv83zPx2mb56iXLO6Vr7JDINanWQTBBoMctXlOvNBMo6AnMvf75ZBDO8SnZpDX1otnqf0XdPP2HCq_huJRbkquR-LYQ9JACFVa4T7YamriTNYIzxjtFlUHtDzzixhPSoWF3hX7rFAZ3YvJDvAoALUu0p0vtcBCoRokZl3EkyHKK-KhFJDuqKwbE1fpjEZBcEUPqdBPCDvpM9rhEYDchlCtM0sQxqQcEV-buJqTdEZxKqOcEVkYuCxYvJlOx5kCAWo1-Km5l34l1Gaf7j-ap_fwgKNzmqnrykjRXfK46XrSw_AgZZx3v2WO7LybfhCFU43xNyJST7HHTOVJHKq_Kr_6bZZ_VT_QJ3yVtHr5w6Vx9_ryBCm_ICVy1]--></g></svg>