<svg xmlns="http://www.w3.org/2000/svg" xmlns:xlink="http://www.w3.org/1999/xlink" contentStyleType="text/css" data-diagram-type="DESCRIPTION" height="814px" preserveAspectRatio="none" style="width:832px;height:814px;" version="1.1" viewBox="0 0 832 814" width="832px" zoomAndPan="magnify"><defs/><g><!--entity src--><g class="entity" data-entity="src" data-source-line="5" data-uid="ent0002" id="entity_src"><path d="M481.5,6 L522.5,6 A3.75,3.75 0 0 1 525,8.5 L532,27 L618.4995,27 A2.5,2.5 0 0 1 620.9995,29.5 L620.9995,59.2799 A2.5,2.5 0 0 1 618.4995,61.7799 L481.5,61.7799 A2.5,2.5 0 0 1 479,59.2799 L479,8.5 A2.5,2.5 0 0 1 481.5,6" fill="#FFC0C0" style="stroke:#181818;stroke-width:0.5;"/><line style="stroke:#181818;stroke-width:0.5;" x1="479" x2="532" y1="27" y2="27"/><text fill="#000000" font-family="メイリオ, `UDEV Gothic HSRFJPDOC`, Helvetica Neue, Helvetica, Arial, sans-serif" font-size="14" lengthAdjust="spacing" textLength="111.9995" x="489" y="47.9999">&#35069;&#21697;&#12477;&#12540;&#12473;&#12467;&#12540;&#12489;</text></g><!--entity Doxygen--><g class="entity" data-entity="Doxygen" data-source-line="6" data-uid="ent0003" id="entity_Doxygen"><rect fill="#F1F1F1" height="47.7799" rx="2.5" ry="2.5" style="stroke:#181818;stroke-width:0.5;" width="88.9998" x="142.5" y="131"/><rect fill="#F1F1F1" height="10" style="stroke:#181818;stroke-width:0.5;" width="15" x="211.4998" y="136"/><rect fill="#F1F1F1" height="2" style="stroke:#181818;stroke-width:0.5;" width="4" x="209.4998" y="138"/><rect fill="#F1F1F1" height="2" style="stroke:#181818;stroke-width:0.5;" width="4" x="209.4998" y="142"/><text fill="#000000" font-family="メイリオ, `UDEV Gothic HSRFJPDOC`, Helvetica Neue, Helvetica, Arial, sans-serif" font-size="14" lengthAdjust="spacing" textLength="48.9998" x="157.5" y="164.9999">Doxygen</text></g><!--entity Doxybook2--><g class="entity" data-entity="Doxybook2" data-source-line="7" data-uid="ent0004" id="entity_Doxybook2"><rect fill="#F1F1F1" height="47.7799" rx="2.5" ry="2.5" style="stroke:#181818;stroke-width:0.5;" width="102.9997" x="135.5" y="248"/><rect fill="#F1F1F1" height="10" style="stroke:#181818;stroke-width:0.5;" width="15" x="218.4997" y="253"/><rect fill="#F1F1F1" height="2" style="stroke:#181818;stroke-width:0.5;" width="4" x="216.4997" y="255"/><rect fill="#F1F1F1" height="2" style="stroke:#181818;stroke-width:0.5;" width="4" x="216.4997" y="259"/><text fill="#000000" font-family="メイリオ, `UDEV Gothic HSRFJPDOC`, Helvetica Neue, Helvetica, Arial, sans-serif" font-size="14" lengthAdjust="spacing" textLength="62.9997" x="150.5" y="281.9999">Doxybook2</text></g><!--entity src_md--><g class="entity" data-entity="src_md" data-source-line="8" data-uid="ent0005" id="entity_src_md"><path d="M118.5,356 L159.5,356 A3.75,3.75 0 0 1 162,358.5 L169,377 L255.4995,377 A2.5,2.5 0 0 1 257.9995,379.5 L257.9995,427.0598 A2.5,2.5 0 0 1 255.4995,429.5598 L118.5,429.5598 A2.5,2.5 0 0 1 116,427.0598 L116,358.5 A2.5,2.5 0 0 1 118.5,356" fill="#F1F1F1" style="stroke:#181818;stroke-width:0.5;"/><line style="stroke:#181818;stroke-width:0.5;" x1="116" x2="169" y1="377" y2="377"/><text fill="#000000" font-family="メイリオ, `UDEV Gothic HSRFJPDOC`, Helvetica Neue, Helvetica, Arial, sans-serif" font-size="14" lengthAdjust="spacing" textLength="111.9995" x="126" y="397.9999">&#35069;&#21697;&#12489;&#12461;&#12517;&#12513;&#12531;&#12488;</text><text fill="#000000" font-family="メイリオ, `UDEV Gothic HSRFJPDOC`, Helvetica Neue, Helvetica, Arial, sans-serif" font-size="14" lengthAdjust="spacing" textLength="69.9997" x="126" y="415.7799">(Markdown)</text></g><!--entity test_src--><g class="entity" data-entity="test_src" data-source-line="9" data-uid="ent0006" id="entity_test_src"><path d="M658.5,6 L699.5,6 A3.75,3.75 0 0 1 702,8.5 L709,27 L823.4994,27 A2.5,2.5 0 0 1 825.9994,29.5 L825.9994,59.2799 A2.5,2.5 0 0 1 823.4994,61.7799 L658.5,61.7799 A2.5,2.5 0 0 1 656,59.2799 L656,8.5 A2.5,2.5 0 0 1 658.5,6" fill="#FFC0C0" style="stroke:#181818;stroke-width:0.5;"/><line style="stroke:#181818;stroke-width:0.5;" x1="656" x2="709" y1="27" y2="27"/><text fill="#000000" font-family="メイリオ, `UDEV Gothic HSRFJPDOC`, Helvetica Neue, Helvetica, Arial, sans-serif" font-size="14" lengthAdjust="spacing" textLength="139.9994" x="666" y="47.9999">&#12486;&#12473;&#12488;&#12398;&#12477;&#12540;&#12473;&#12467;&#12540;&#12489;</text></g><!--entity test_evi--><g class="entity" data-entity="test_evi" data-source-line="10" data-uid="ent0007" id="entity_test_evi"><path d="M512.5,598 L553.5,598 A3.75,3.75 0 0 1 556,600.5 L563,619 L663.4995,619 A2.5,2.5 0 0 1 665.9995,621.5 L665.9995,669.0598 A2.5,2.5 0 0 1 663.4995,671.5598 L512.5,671.5598 A2.5,2.5 0 0 1 510,669.0598 L510,600.5 A2.5,2.5 0 0 1 512.5,598" fill="#F1F1F1" style="stroke:#181818;stroke-width:0.5;"/><line style="stroke:#181818;stroke-width:0.5;" x1="510" x2="563" y1="619" y2="619"/><text fill="#000000" font-family="メイリオ, `UDEV Gothic HSRFJPDOC`, Helvetica Neue, Helvetica, Arial, sans-serif" font-size="14" lengthAdjust="spacing" textLength="83.9996" x="520" y="639.9999">&#21336;&#20307;&#35430;&#39443;&#32080;&#26524;</text><text fill="#000000" font-family="メイリオ, `UDEV Gothic HSRFJPDOC`, Helvetica Neue, Helvetica, Arial, sans-serif" font-size="14" lengthAdjust="spacing" textLength="125.9995" x="520" y="657.7799">(&#12486;&#12473;&#12488;&#12456;&#12499;&#12487;&#12531;&#12473;)</text></g><!--entity gcov--><g class="entity" data-entity="gcov" data-source-line="11" data-uid="ent0008" id="entity_gcov"><rect fill="#F1F1F1" height="47.7799" rx="2.5" ry="2.5" style="stroke:#181818;stroke-width:0.5;" width="186.9994" x="470.5" y="369"/><rect fill="#F1F1F1" height="10" style="stroke:#181818;stroke-width:0.5;" width="15" x="637.4994" y="374"/><rect fill="#F1F1F1" height="2" style="stroke:#181818;stroke-width:0.5;" width="4" x="635.4994" y="376"/><rect fill="#F1F1F1" height="2" style="stroke:#181818;stroke-width:0.5;" width="4" x="635.4994" y="380"/><text fill="#000000" font-family="メイリオ, `UDEV Gothic HSRFJPDOC`, Helvetica Neue, Helvetica, Arial, sans-serif" font-size="14" lengthAdjust="spacing" textLength="146.9994" x="485.5" y="402.9999">gcov / OpenCppCovrage</text></g><!--entity lcov--><g class="entity" data-entity="lcov" data-source-line="12" data-uid="ent0009" id="entity_lcov"><rect fill="#F1F1F1" height="47.7799" rx="2.5" ry="2.5" style="stroke:#181818;stroke-width:0.5;" width="193.9993" x="491" y="490"/><rect fill="#F1F1F1" height="10" style="stroke:#181818;stroke-width:0.5;" width="15" x="664.9993" y="495"/><rect fill="#F1F1F1" height="2" style="stroke:#181818;stroke-width:0.5;" width="4" x="662.9993" y="497"/><rect fill="#F1F1F1" height="2" style="stroke:#181818;stroke-width:0.5;" width="4" x="662.9993" y="501"/><text fill="#000000" font-family="メイリオ, `UDEV Gothic HSRFJPDOC`, Helvetica Neue, Helvetica, Arial, sans-serif" font-size="14" lengthAdjust="spacing" textLength="153.9993" x="506" y="523.9999">lcov / ReportGenerator</text></g><!--entity gtest--><g class="entity" data-entity="gtest" data-source-line="13" data-uid="ent0010" id="entity_gtest"><rect fill="#F1F1F1" height="65.5598" rx="2.5" ry="2.5" style="stroke:#181818;stroke-width:0.5;" width="144.9995" x="665.5" y="122"/><rect fill="#F1F1F1" height="10" style="stroke:#181818;stroke-width:0.5;" width="15" x="790.4995" y="127"/><rect fill="#F1F1F1" height="2" style="stroke:#181818;stroke-width:0.5;" width="4" x="788.4995" y="129"/><rect fill="#F1F1F1" height="2" style="stroke:#181818;stroke-width:0.5;" width="4" x="788.4995" y="133"/><text fill="#000000" font-family="メイリオ, `UDEV Gothic HSRFJPDOC`, Helvetica Neue, Helvetica, Arial, sans-serif" font-size="14" lengthAdjust="spacing" textLength="76.9997" x="680.5" y="155.9999">Google Test</text><text fill="#000000" font-family="メイリオ, `UDEV Gothic HSRFJPDOC`, Helvetica Neue, Helvetica, Arial, sans-serif" font-size="14" lengthAdjust="spacing" textLength="104.9995" x="680.5" y="173.7799">(w/Google Mock)</text></g><!--entity docs_md--><g class="entity" data-entity="docs_md" data-source-line="14" data-uid="ent0011" id="entity_docs_md"><path d="M295.5,356 L336.5,356 A3.75,3.75 0 0 1 339,358.5 L346,377 L432.4995,377 A2.5,2.5 0 0 1 434.9995,379.5 L434.9995,427.0598 A2.5,2.5 0 0 1 432.4995,429.5598 L295.5,429.5598 A2.5,2.5 0 0 1 293,427.0598 L293,358.5 A2.5,2.5 0 0 1 295.5,356" fill="#FFC0C0" style="stroke:#181818;stroke-width:0.5;"/><line style="stroke:#181818;stroke-width:0.5;" x1="293" x2="346" y1="377" y2="377"/><text fill="#000000" font-family="メイリオ, `UDEV Gothic HSRFJPDOC`, Helvetica Neue, Helvetica, Arial, sans-serif" font-size="14" lengthAdjust="spacing" textLength="111.9995" x="303" y="397.9999">&#38306;&#36899;&#12489;&#12461;&#12517;&#12513;&#12531;&#12488;</text><text fill="#000000" font-family="メイリオ, `UDEV Gothic HSRFJPDOC`, Helvetica Neue, Helvetica, Arial, sans-serif" font-size="14" lengthAdjust="spacing" textLength="69.9997" x="303" y="415.7799">(Markdown)</text></g><!--entity Pandoc--><g class="entity" data-entity="Pandoc" data-source-line="15" data-uid="ent0012" id="entity_Pandoc"><rect fill="#F1F1F1" height="47.7799" rx="2.5" ry="2.5" style="stroke:#181818;stroke-width:0.5;" width="81.9998" x="148" y="490"/><rect fill="#F1F1F1" height="10" style="stroke:#181818;stroke-width:0.5;" width="15" x="209.9998" y="495"/><rect fill="#F1F1F1" height="2" style="stroke:#181818;stroke-width:0.5;" width="4" x="207.9998" y="497"/><rect fill="#F1F1F1" height="2" style="stroke:#181818;stroke-width:0.5;" width="4" x="207.9998" y="501"/><text fill="#000000" font-family="メイリオ, `UDEV Gothic HSRFJPDOC`, Helvetica Neue, Helvetica, Arial, sans-serif" font-size="14" lengthAdjust="spacing" textLength="41.9998" x="163" y="523.9999">Pandoc</text></g><!--entity html--><g class="entity" data-entity="html" data-source-line="16" data-uid="ent0013" id="entity_html"><path d="M8.5,598 L49.5,598 A3.75,3.75 0 0 1 52,600.5 L59,619 L117.4996,619 A2.5,2.5 0 0 1 119.9996,621.5 L119.9996,669.0598 A2.5,2.5 0 0 1 117.4996,671.5598 L8.5,671.5598 A2.5,2.5 0 0 1 6,669.0598 L6,600.5 A2.5,2.5 0 0 1 8.5,598" fill="#F1F1F1" style="stroke:#181818;stroke-width:0.5;"/><line style="stroke:#181818;stroke-width:0.5;" x1="6" x2="59" y1="619" y2="619"/><text fill="#000000" font-family="メイリオ, `UDEV Gothic HSRFJPDOC`, Helvetica Neue, Helvetica, Arial, sans-serif" font-size="14" lengthAdjust="spacing" textLength="83.9996" x="16" y="639.9999">&#12489;&#12461;&#12517;&#12513;&#12531;&#12488;</text><text fill="#000000" font-family="メイリオ, `UDEV Gothic HSRFJPDOC`, Helvetica Neue, Helvetica, Arial, sans-serif" font-size="14" lengthAdjust="spacing" textLength="41.9998" x="16" y="657.7799">(HTML)</text></g><!--entity docx--><g class="entity" data-entity="docx" data-source-line="17" data-uid="ent0014" id="entity_docx"><path d="M157.5,598 L198.5,598 A3.75,3.75 0 0 1 201,600.5 L208,619 L266.4996,619 A2.5,2.5 0 0 1 268.9996,621.5 L268.9996,669.0598 A2.5,2.5 0 0 1 266.4996,671.5598 L157.5,671.5598 A2.5,2.5 0 0 1 155,669.0598 L155,600.5 A2.5,2.5 0 0 1 157.5,598" fill="#F1F1F1" style="stroke:#181818;stroke-width:0.5;"/><line style="stroke:#181818;stroke-width:0.5;" x1="155" x2="208" y1="619" y2="619"/><text fill="#000000" font-family="メイリオ, `UDEV Gothic HSRFJPDOC`, Helvetica Neue, Helvetica, Arial, sans-serif" font-size="14" lengthAdjust="spacing" textLength="83.9996" x="165" y="639.9999">&#12489;&#12461;&#12517;&#12513;&#12531;&#12488;</text><text fill="#000000" font-family="メイリオ, `UDEV Gothic HSRFJPDOC`, Helvetica Neue, Helvetica, Arial, sans-serif" font-size="14" lengthAdjust="spacing" textLength="41.9998" x="165" y="657.7799">(DOCX)</text></g><g class="entity" data-entity="GMN15" data-source-line="19" data-uid="ent0016" id="entity_GMN15"><path d="M182,757.5 L182,784.01 A0,0 0 0 0 182,784.01 L242,784.01 A0,0 0 0 0 242,784.01 L242,767.5 L232,757.5 L216,757.5 L212,672.1626 L208,757.5 L182,757.5 A0,0 0 0 0 182,757.5" fill="#FEFFDD" style="stroke:#181818;stroke-width:0.5;"/><path d="M232,757.5 L232,767.5 L242,767.5 L232,757.5" fill="#FEFFDD" style="stroke:#181818;stroke-width:0.5;"/><text fill="#000000" font-family="メイリオ, `UDEV Gothic HSRFJPDOC`, Helvetica Neue, Helvetica, Arial, sans-serif" font-size="13" lengthAdjust="spacing" textLength="39" x="188" y="775.5">&#32013;&#21697;&#29992;</text></g><!--entity developer--><g class="entity" data-entity="developer" data-source-line="21" data-uid="ent0018" id="entity_developer"><ellipse cx="62.9998" cy="740.5" fill="#F1F1F1" rx="8" ry="8" style="stroke:#181818;stroke-width:0.5;"/><path d="M62.9998,748.5 L62.9998,775.5 M49.9998,756.5 L75.9998,756.5 M62.9998,775.5 L49.9998,790.5 M62.9998,775.5 L75.9998,790.5" fill="none" style="stroke:#181818;stroke-width:0.5;"/><text fill="#000000" font-family="メイリオ, `UDEV Gothic HSRFJPDOC`, Helvetica Neue, Helvetica, Arial, sans-serif" font-size="14" lengthAdjust="spacing" textLength="97.9996" x="14" y="805.9999">&#12502;&#12521;&#12454;&#12470;&#12391;&#38322;&#35239;</text></g><!--entity llm--><g class="entity" data-entity="llm" data-source-line="22" data-uid="ent0019" id="entity_llm"><rect fill="#F1F1F1" height="47.7799" rx="2.5" ry="2.5" style="stroke:#181818;stroke-width:0.5;" width="95.9998" x="313" y="611"/><rect fill="#F1F1F1" height="10" style="stroke:#181818;stroke-width:0.5;" width="15" x="388.9998" y="616"/><rect fill="#F1F1F1" height="2" style="stroke:#181818;stroke-width:0.5;" width="4" x="386.9998" y="618"/><rect fill="#F1F1F1" height="2" style="stroke:#181818;stroke-width:0.5;" width="4" x="386.9998" y="622"/><text fill="#000000" font-family="メイリオ, `UDEV Gothic HSRFJPDOC`, Helvetica Neue, Helvetica, Arial, sans-serif" font-size="14" lengthAdjust="spacing" textLength="55.9998" x="328" y="644.9999">AI (LLM)</text></g><g class="entity" data-entity="GMN20" data-source-line="24" data-uid="ent0021" id="entity_GMN20"><path d="M279,749.5 L279,792.52 A0,0 0 0 0 279,792.52 L443.0001,792.52 A0,0 0 0 0 443.0001,792.52 L443.0001,759.5 L433.0001,749.5 L365,749.5 L361,659.001 L357,749.5 L279,749.5 A0,0 0 0 0 279,749.5" fill="#FEFFDD" style="stroke:#181818;stroke-width:0.5;"/><path d="M433.0001,749.5 L433.0001,759.5 L443.0001,759.5 L433.0001,749.5" fill="#FEFFDD" style="stroke:#181818;stroke-width:0.5;"/><text fill="#000000" font-family="メイリオ, `UDEV Gothic HSRFJPDOC`, Helvetica Neue, Helvetica, Arial, sans-serif" font-size="13" lengthAdjust="spacing" textLength="143.0001" x="285" y="767.5">AI &#12398;&#20837;&#21147;&#12487;&#12540;&#12479; &#12392;&#12375;&#12390;</text><text fill="#000000" font-family="メイリオ, `UDEV Gothic HSRFJPDOC`, Helvetica Neue, Helvetica, Arial, sans-serif" font-size="13" lengthAdjust="spacing" textLength="123.5001" x="285" y="784.01">Markdown &#12434;&#27963;&#29992;&#12377;&#12427;</text></g><!--link src to Doxygen--><g class="link" data-entity-1="src" data-entity-2="Doxygen" data-source-line="27" data-uid="lnk23" id="link_src_Doxygen"><path d="M478.716,57.7613 C405.3141,82.2286 298.8985,117.7005 237.2218,138.2594" fill="none" id="src-to-Doxygen" style="stroke:#181818;stroke-width:1;"/><polygon fill="#181818" points="231.5297,140.1568,241.3328,141.1055,236.2731,138.5757,238.8029,133.516,231.5297,140.1568" style="stroke:#181818;stroke-width:1;"/></g><!--link Doxygen to Doxybook2--><g class="link" data-entity-1="Doxygen" data-entity-2="Doxybook2" data-source-line="28" data-uid="lnk24" id="link_Doxygen_Doxybook2"><path d="M187,179.2425 C187,199.3226 187,221.7171 187,241.7886" fill="none" id="Doxygen-to-Doxybook2" style="stroke:#181818;stroke-width:1;"/><polygon fill="#181818" points="187,247.7886,191,238.7886,187,242.7886,183,238.7886,187,247.7886" style="stroke:#181818;stroke-width:1;"/></g><!--link Doxybook2 to src_md--><g class="link" data-entity-1="Doxybook2" data-entity-2="src_md" data-source-line="29" data-uid="lnk25" id="link_Doxybook2_src_md"><path d="M187,296.1953 C187,313.299 187,351.5458 187,370.9716" fill="none" id="Doxybook2-to-src_md" style="stroke:#181818;stroke-width:1;"/><polygon fill="#181818" points="187,376.9716,191,367.9716,187,371.9716,183,367.9716,187,376.9716" style="stroke:#181818;stroke-width:1;"/></g><!--link Doxygen to html--><g class="link" data-entity-1="Doxygen" data-entity-2="html" data-source-line="30" data-uid="lnk26" id="link_Doxygen_html"><path d="M164.2595,179.0848 C148.8202,196.8001 129.2378,222.1946 118,248 C65.774,367.9269 60.9429,541.6526 61.7785,612.7645" fill="none" id="Doxygen-to-html" style="stroke:#181818;stroke-width:1;"/><polygon fill="#181818" points="61.849,618.7641,65.743,609.7177,61.7903,613.7644,57.7435,609.8117,61.849,618.7641" style="stroke:#181818;stroke-width:1;"/></g><!--link src to gtest--><g class="link" data-entity-1="src" data-entity-2="gtest" data-source-line="31" data-uid="lnk27" id="link_src_gtest"><path d="M593.6035,62.064 C621.3721,79.9363 652.4259,99.923 681.5829,118.6889" fill="none" id="src-to-gtest" style="stroke:#181818;stroke-width:1;"/><polygon fill="#181818" points="686.6282,121.9362,681.225,113.7018,682.4238,119.2302,676.8954,120.4289,686.6282,121.9362" style="stroke:#181818;stroke-width:1;"/></g><!--link src to gcov--><g class="link" data-entity-1="src" data-entity-2="gcov" data-source-line="32" data-uid="lnk28" id="link_src_gcov"><path d="M551.0986,62.1701 C553.7672,130.6021 560.3216,298.6758 562.8225,362.8045" fill="none" id="src-to-gcov" style="stroke:#181818;stroke-width:1;"/><polygon fill="#181818" points="563.0563,368.7999,566.7025,359.6509,562.8615,363.8037,558.7086,359.9626,563.0563,368.7999" style="stroke:#181818;stroke-width:1;"/></g><!--link gcov to lcov--><g class="link" data-entity-1="gcov" data-entity-2="lcov" data-source-line="33" data-uid="lnk29" id="link_gcov_lcov"><path d="M568.7991,417.1953 C572.9849,438.2991 577.8585,462.8699 582.0419,483.9613" fill="none" id="gcov-to-lcov" style="stroke:#181818;stroke-width:1;"/><polygon fill="#181818" points="583.2092,489.8466,585.3818,480.2404,582.2364,484.9421,577.5346,481.7968,583.2092,489.8466" style="stroke:#181818;stroke-width:1;"/></g><!--link gcov to test_evi--><g class="link" data-entity-1="gcov" data-entity-2="test_evi" data-source-line="34" data-uid="lnk30" id="link_gcov_test_evi"><path d="M531.0666,417.0703 C497.1806,444.999 452.0818,492.9902 473,538 C484.1732,562.0414 499.7923,578.6302 520.3354,594.2866" fill="none" id="gcov-to-test_evi" style="stroke:#181818;stroke-width:1;"/><polygon fill="#181818" points="525.1075,597.9235,520.374,589.2867,521.1308,594.8927,515.5248,595.6495,525.1075,597.9235" style="stroke:#181818;stroke-width:1;"/></g><!--link lcov to test_evi--><g class="link" data-entity-1="lcov" data-entity-2="test_evi" data-source-line="35" data-uid="lnk31" id="link_lcov_test_evi"><path d="M588,538.1953 C588,555.299 588,593.5458 588,612.9716" fill="none" id="lcov-to-test_evi" style="stroke:#181818;stroke-width:1;"/><polygon fill="#181818" points="588,618.9716,592,609.9716,588,613.9716,584,609.9716,588,618.9716" style="stroke:#181818;stroke-width:1;"/></g><!--link test_src to gtest--><g class="link" data-entity-1="test_src" data-entity-2="gtest" data-source-line="36" data-uid="lnk32" id="link_test_src_gtest"><path d="M740.3042,62.064 C739.8611,79.9363 739.4337,97.1721 738.9685,115.938" fill="none" id="test_src-to-gtest" style="stroke:#181818;stroke-width:1;"/><polygon fill="#181818" points="738.8198,121.9362,743.0416,113.0381,738.9437,116.9377,735.0441,112.8398,738.8198,121.9362" style="stroke:#181818;stroke-width:1;"/></g><!--link gtest to test_evi--><g class="link" data-entity-1="gtest" data-entity-2="test_evi" data-source-line="37" data-uid="lnk33" id="link_gtest_test_evi"><path d="M742.8216,188.0547 C751.3099,257.3971 762.7272,421.2844 702,538 C689.6457,561.7445 673.5298,599.4206 652.9997,615.2519" fill="none" id="gtest-to-test_evi" style="stroke:#181818;stroke-width:1;"/><polygon fill="#181818" points="648.2483,618.9158,657.818,616.5875,652.2078,615.8625,652.9328,610.2523,648.2483,618.9158" style="stroke:#181818;stroke-width:1;"/></g><!--link docs_md to Pandoc--><g class="link" data-entity-1="docs_md" data-entity-2="Pandoc" data-source-line="38" data-uid="lnk34" id="link_docs_md_Pandoc"><path d="M310.0663,430.2913 C281.9464,449.7342 253.3103,469.5341 228.6599,486.578" fill="none" id="docs_md-to-Pandoc" style="stroke:#181818;stroke-width:1;"/><polygon fill="#181818" points="223.7247,489.9903,233.4024,488.162,227.8374,487.1467,228.8526,481.5817,223.7247,489.9903" style="stroke:#181818;stroke-width:1;"/></g><!--link src_md to Pandoc--><g class="link" data-entity-1="src_md" data-entity-2="Pandoc" data-source-line="39" data-uid="lnk35" id="link_src_md_Pandoc"><path d="M187.6164,430.2913 C187.9378,449.7342 188.2222,466.9472 188.5039,483.9911" fill="none" id="src_md-to-Pandoc" style="stroke:#181818;stroke-width:1;"/><polygon fill="#181818" points="188.6031,489.9903,192.4538,480.9254,188.5205,484.991,184.4549,481.0576,188.6031,489.9903" style="stroke:#181818;stroke-width:1;"/></g><!--link Pandoc to html--><g class="link" data-entity-1="Pandoc" data-entity-2="html" data-source-line="40" data-uid="lnk36" id="link_Pandoc_html"><path d="M163.8049,538.1953 C145.9944,555.299 126.1147,595.3899 105.8861,614.8157" fill="none" id="Pandoc-to-html" style="stroke:#181818;stroke-width:1;"/><polygon fill="#181818" points="101.5585,618.9716,110.8206,615.6229,105.1649,615.5084,105.2794,609.8527,101.5585,618.9716" style="stroke:#181818;stroke-width:1;"/></g><!--link Pandoc to docx--><g class="link" data-entity-1="Pandoc" data-entity-2="docx" data-source-line="41" data-uid="lnk37" id="link_Pandoc_docx"><path d="M193.5991,538.1953 C196.8502,555.299 200.1486,587.4129 203.8411,606.8387" fill="none" id="Pandoc-to-docx" style="stroke:#181818;stroke-width:1;"/><polygon fill="#181818" points="204.9615,612.7332,207.2105,603.1446,204.0278,607.8212,199.3512,604.6385,204.9615,612.7332" style="stroke:#181818;stroke-width:1;"/></g><!--link html to developer--><g class="link" data-entity-1="html" data-entity-2="developer" data-source-line="42" data-uid="lnk38" id="link_html_developer"><path d="M63,672.1626 C63,690.7232 63,707.1726 63,725.9823" fill="none" id="html-to-developer" style="stroke:#181818;stroke-width:1;"/><polygon fill="#181818" points="63,731.9823,67,722.9823,63,726.9823,59,722.9823,63,731.9823" style="stroke:#181818;stroke-width:1;"/></g><!--link docs_md to llm--><g class="link" data-entity-1="docs_md" data-entity-2="llm" data-source-line="43" data-uid="lnk39" id="link_docs_md_llm"><path d="M363.5411,430.018 C362.919,480.1996 361.8999,562.4086 361.3738,604.8496" fill="none" id="docs_md-to-llm" style="stroke:#181818;stroke-width:1;"/><polygon fill="#181818" points="361.2994,610.8491,365.4106,601.8994,361.3614,605.8495,357.4113,601.8002,361.2994,610.8491" style="stroke:#181818;stroke-width:1;"/></g><!--link src_md to llm--><g class="link" data-entity-1="src_md" data-entity-2="llm" data-source-line="44" data-uid="lnk40" id="link_src_md_llm"><path d="M213.6163,430.018 C249.6972,480.1996 309.6173,563.5366 340.1327,605.9776" fill="none" id="src_md-to-llm" style="stroke:#181818;stroke-width:1;"/><polygon fill="#181818" points="343.6353,610.8491,341.629,601.2068,340.7164,606.7895,335.1337,605.8769,343.6353,610.8491" style="stroke:#181818;stroke-width:1;"/></g><!--SRC=[ZLD1QnD15BxtLmpnqXv2YkTIa1Iga52H7Zm8PRCxMKjcvospOzhUt1tKLYb88r5H12rDquCUj0f5WpzcJ9Fy2sTcivli9a7dDFEzxxtlpPjlrW9-GF3wqbffl0aQkzItcEMXccKtN0QFg5C60WnnPj50XJ3bIqYjEX07CrGOdlRwhL16FIb-oUXAHj_qHXmLa1MWWDdeHhrkhzgh9ia6pmUgIg0Ds3zmCPs3rW0QD-T9Y2CPVPRYJ8gFKYYLmmTqkMgnXWDxT2MHs_6SJAuKJtLNub26NnOqoN70T_AT9ldzupT_UgtXHMVKRGs-lxp-y5wfJef6NIbQKZpJ3KLNAvDwkBcRkrl1jQ69IcZBnxJi-sLeCil59aD7ycmIi-zX7nZVn1GpYmCpT3A7lWdW4eosbRPgSAyqFbV1RiHTkRgjpDL6xK-ZnwV_CLO7x43DTS5BthMe8kI6FgVcxUrg9Qxta7lat_oDhVBzL7_Vy2bmZ6h0ENZchDVWybYPO_2gQn1C7SCo1yjM4zFLsr9SoAWZenyoF1-rlmuxvt5XtCG4VCpoqxnr1orNAjLOdX1leReYAcFrdvprdxypDb3s-gsWhWnVox2JyfA18XcTN5_-LEtAyAsCNimshOrOBAvdFiXud-AJBvAUJ6pA_zCfwRoJsXClf4XYAMDIZP0P9EDhCXTDlr9MnUmKLfn9IAob0rD6YY-IH-DjzafJM6eJ7OoHpFjEQoLlcWh5s5y0]--></g></svg>