<svg xmlns="http://www.w3.org/2000/svg" xmlns:xlink="http://www.w3.org/1999/xlink" contentStyleType="text/css" data-diagram-type="DESCRIPTION" height="832px" preserveAspectRatio="none" style="width:760px;height:832px;" version="1.1" viewBox="0 0 760 832" width="760px" zoomAndPan="magnify"><defs/><g><!--entity src--><g class="entity" data-entity="src" data-source-line="5" data-uid="ent0002" id="entity_src"><path d="M409.5,6 L450.5,6 A3.75,3.75 0 0 1 453,8.5 L460,27 L546.4995,27 A2.5,2.5 0 0 1 548.9995,29.5 L548.9995,59.2799 A2.5,2.5 0 0 1 546.4995,61.7799 L409.5,61.7799 A2.5,2.5 0 0 1 407,59.2799 L407,8.5 A2.5,2.5 0 0 1 409.5,6" fill="#FFC0C0" style="stroke:#181818;stroke-width:0.5;"/><line style="stroke:#181818;stroke-width:0.5;" x1="407" x2="460" y1="27" y2="27"/><text fill="#000000" font-family="メイリオ, `UDEV Gothic HSRFJPDOC`, Helvetica Neue, Helvetica, Arial, sans-serif" font-size="14" lengthAdjust="spacing" textLength="111.9995" x="417" y="47.9999">&#35069;&#21697;&#12477;&#12540;&#12473;&#12467;&#12540;&#12489;</text></g><!--entity Doxygen--><g class="entity" data-entity="Doxygen" data-source-line="6" data-uid="ent0003" id="entity_Doxygen"><rect fill="#F1F1F1" height="47.7799" rx="2.5" ry="2.5" style="stroke:#181818;stroke-width:0.5;" width="88.9998" x="142.5" y="131"/><rect fill="#F1F1F1" height="10" style="stroke:#181818;stroke-width:0.5;" width="15" x="211.4998" y="136"/><rect fill="#F1F1F1" height="2" style="stroke:#181818;stroke-width:0.5;" width="4" x="209.4998" y="138"/><rect fill="#F1F1F1" height="2" style="stroke:#181818;stroke-width:0.5;" width="4" x="209.4998" y="142"/><text fill="#000000" font-family="メイリオ, `UDEV Gothic HSRFJPDOC`, Helvetica Neue, Helvetica, Arial, sans-serif" font-size="14" lengthAdjust="spacing" textLength="48.9998" x="157.5" y="164.9999">Doxygen</text></g><!--entity Doxybook2--><g class="entity" data-entity="Doxybook2" data-source-line="7" data-uid="ent0004" id="entity_Doxybook2"><rect fill="#F1F1F1" height="47.7799" rx="2.5" ry="2.5" style="stroke:#181818;stroke-width:0.5;" width="102.9997" x="135.5" y="248"/><rect fill="#F1F1F1" height="10" style="stroke:#181818;stroke-width:0.5;" width="15" x="218.4997" y="253"/><rect fill="#F1F1F1" height="2" style="stroke:#181818;stroke-width:0.5;" width="4" x="216.4997" y="255"/><rect fill="#F1F1F1" height="2" style="stroke:#181818;stroke-width:0.5;" width="4" x="216.4997" y="259"/><text fill="#000000" font-family="メイリオ, `UDEV Gothic HSRFJPDOC`, Helvetica Neue, Helvetica, Arial, sans-serif" font-size="14" lengthAdjust="spacing" textLength="62.9997" x="150.5" y="281.9999">Doxybook2</text></g><!--entity src_md--><g class="entity" data-entity="src_md" data-source-line="8" data-uid="ent0005" id="entity_src_md"><path d="M118.5,356 L159.5,356 A3.75,3.75 0 0 1 162,358.5 L169,377 L255.4995,377 A2.5,2.5 0 0 1 257.9995,379.5 L257.9995,427.0598 A2.5,2.5 0 0 1 255.4995,429.5598 L118.5,429.5598 A2.5,2.5 0 0 1 116,427.0598 L116,358.5 A2.5,2.5 0 0 1 118.5,356" fill="#F1F1F1" style="stroke:#181818;stroke-width:0.5;"/><line style="stroke:#181818;stroke-width:0.5;" x1="116" x2="169" y1="377" y2="377"/><text fill="#000000" font-family="メイリオ, `UDEV Gothic HSRFJPDOC`, Helvetica Neue, Helvetica, Arial, sans-serif" font-size="14" lengthAdjust="spacing" textLength="111.9995" x="126" y="397.9999">&#35069;&#21697;&#12489;&#12461;&#12517;&#12513;&#12531;&#12488;</text><text fill="#000000" font-family="メイリオ, `UDEV Gothic HSRFJPDOC`, Helvetica Neue, Helvetica, Arial, sans-serif" font-size="14" lengthAdjust="spacing" textLength="69.9997" x="126" y="415.7799">(Markdown)</text></g><!--entity test_src--><g class="entity" data-entity="test_src" data-source-line="9" data-uid="ent0006" id="entity_test_src"><path d="M586.5,6 L627.5,6 A3.75,3.75 0 0 1 630,8.5 L637,27 L751.4994,27 A2.5,2.5 0 0 1 753.9994,29.5 L753.9994,59.2799 A2.5,2.5 0 0 1 751.4994,61.7799 L586.5,61.7799 A2.5,2.5 0 0 1 584,59.2799 L584,8.5 A2.5,2.5 0 0 1 586.5,6" fill="#FFC0C0" style="stroke:#181818;stroke-width:0.5;"/><line style="stroke:#181818;stroke-width:0.5;" x1="584" x2="637" y1="27" y2="27"/><text fill="#000000" font-family="メイリオ, `UDEV Gothic HSRFJPDOC`, Helvetica Neue, Helvetica, Arial, sans-serif" font-size="14" lengthAdjust="spacing" textLength="139.9994" x="594" y="47.9999">&#12486;&#12473;&#12488;&#12398;&#12477;&#12540;&#12473;&#12467;&#12540;&#12489;</text></g><!--entity test_evi--><g class="entity" data-entity="test_evi" data-source-line="10" data-uid="ent0007" id="entity_test_evi"><path d="M502.5,616 L543.5,616 A3.75,3.75 0 0 1 546,618.5 L553,637 L653.4995,637 A2.5,2.5 0 0 1 655.9995,639.5 L655.9995,687.0598 A2.5,2.5 0 0 1 653.4995,689.5598 L502.5,689.5598 A2.5,2.5 0 0 1 500,687.0598 L500,618.5 A2.5,2.5 0 0 1 502.5,616" fill="#F1F1F1" style="stroke:#181818;stroke-width:0.5;"/><line style="stroke:#181818;stroke-width:0.5;" x1="500" x2="553" y1="637" y2="637"/><text fill="#000000" font-family="メイリオ, `UDEV Gothic HSRFJPDOC`, Helvetica Neue, Helvetica, Arial, sans-serif" font-size="14" lengthAdjust="spacing" textLength="83.9996" x="510" y="657.9999">&#21336;&#20307;&#35430;&#39443;&#32080;&#26524;</text><text fill="#000000" font-family="メイリオ, `UDEV Gothic HSRFJPDOC`, Helvetica Neue, Helvetica, Arial, sans-serif" font-size="14" lengthAdjust="spacing" textLength="125.9995" x="510" y="675.7799">(&#12486;&#12473;&#12488;&#12456;&#12499;&#12487;&#12531;&#12473;)</text></g><!--entity gcov--><g class="entity" data-entity="gcov" data-source-line="11" data-uid="ent0008" id="entity_gcov"><rect fill="#F1F1F1" height="47.7799" rx="2.5" ry="2.5" style="stroke:#181818;stroke-width:0.5;" width="67.9999" x="470" y="369"/><rect fill="#F1F1F1" height="10" style="stroke:#181818;stroke-width:0.5;" width="15" x="517.9999" y="374"/><rect fill="#F1F1F1" height="2" style="stroke:#181818;stroke-width:0.5;" width="4" x="515.9999" y="376"/><rect fill="#F1F1F1" height="2" style="stroke:#181818;stroke-width:0.5;" width="4" x="515.9999" y="380"/><text fill="#000000" font-family="メイリオ, `UDEV Gothic HSRFJPDOC`, Helvetica Neue, Helvetica, Arial, sans-serif" font-size="14" lengthAdjust="spacing" textLength="27.9999" x="485" y="402.9999">gcov</text></g><!--entity lcov--><g class="entity" data-entity="lcov" data-source-line="12" data-uid="ent0009" id="entity_lcov"><rect fill="#F1F1F1" height="47.7799" rx="2.5" ry="2.5" style="stroke:#181818;stroke-width:0.5;" width="67.9999" x="544" y="499"/><rect fill="#F1F1F1" height="10" style="stroke:#181818;stroke-width:0.5;" width="15" x="591.9999" y="504"/><rect fill="#F1F1F1" height="2" style="stroke:#181818;stroke-width:0.5;" width="4" x="589.9999" y="506"/><rect fill="#F1F1F1" height="2" style="stroke:#181818;stroke-width:0.5;" width="4" x="589.9999" y="510"/><text fill="#000000" font-family="メイリオ, `UDEV Gothic HSRFJPDOC`, Helvetica Neue, Helvetica, Arial, sans-serif" font-size="14" lengthAdjust="spacing" textLength="27.9999" x="559" y="532.9999">lcov</text></g><!--entity gtest--><g class="entity" data-entity="gtest" data-source-line="13" data-uid="ent0010" id="entity_gtest"><rect fill="#F1F1F1" height="65.5598" rx="2.5" ry="2.5" style="stroke:#181818;stroke-width:0.5;" width="144.9995" x="592.5" y="122"/><rect fill="#F1F1F1" height="10" style="stroke:#181818;stroke-width:0.5;" width="15" x="717.4995" y="127"/><rect fill="#F1F1F1" height="2" style="stroke:#181818;stroke-width:0.5;" width="4" x="715.4995" y="129"/><rect fill="#F1F1F1" height="2" style="stroke:#181818;stroke-width:0.5;" width="4" x="715.4995" y="133"/><text fill="#000000" font-family="メイリオ, `UDEV Gothic HSRFJPDOC`, Helvetica Neue, Helvetica, Arial, sans-serif" font-size="14" lengthAdjust="spacing" textLength="76.9997" x="607.5" y="155.9999">Google Test</text><text fill="#000000" font-family="メイリオ, `UDEV Gothic HSRFJPDOC`, Helvetica Neue, Helvetica, Arial, sans-serif" font-size="14" lengthAdjust="spacing" textLength="104.9995" x="607.5" y="173.7799">(w/Google Mock)</text></g><!--entity docs_md--><g class="entity" data-entity="docs_md" data-source-line="14" data-uid="ent0011" id="entity_docs_md"><path d="M295.5,356 L336.5,356 A3.75,3.75 0 0 1 339,358.5 L346,377 L432.4995,377 A2.5,2.5 0 0 1 434.9995,379.5 L434.9995,427.0598 A2.5,2.5 0 0 1 432.4995,429.5598 L295.5,429.5598 A2.5,2.5 0 0 1 293,427.0598 L293,358.5 A2.5,2.5 0 0 1 295.5,356" fill="#FFC0C0" style="stroke:#181818;stroke-width:0.5;"/><line style="stroke:#181818;stroke-width:0.5;" x1="293" x2="346" y1="377" y2="377"/><text fill="#000000" font-family="メイリオ, `UDEV Gothic HSRFJPDOC`, Helvetica Neue, Helvetica, Arial, sans-serif" font-size="14" lengthAdjust="spacing" textLength="111.9995" x="303" y="397.9999">&#38306;&#36899;&#12489;&#12461;&#12517;&#12513;&#12531;&#12488;</text><text fill="#000000" font-family="メイリオ, `UDEV Gothic HSRFJPDOC`, Helvetica Neue, Helvetica, Arial, sans-serif" font-size="14" lengthAdjust="spacing" textLength="69.9997" x="303" y="415.7799">(Markdown)</text></g><!--entity Pandoc--><g class="entity" data-entity="Pandoc" data-source-line="15" data-uid="ent0012" id="entity_Pandoc"><rect fill="#F1F1F1" height="47.7799" rx="2.5" ry="2.5" style="stroke:#181818;stroke-width:0.5;" width="81.9998" x="158" y="499"/><rect fill="#F1F1F1" height="10" style="stroke:#181818;stroke-width:0.5;" width="15" x="219.9998" y="504"/><rect fill="#F1F1F1" height="2" style="stroke:#181818;stroke-width:0.5;" width="4" x="217.9998" y="506"/><rect fill="#F1F1F1" height="2" style="stroke:#181818;stroke-width:0.5;" width="4" x="217.9998" y="510"/><text fill="#000000" font-family="メイリオ, `UDEV Gothic HSRFJPDOC`, Helvetica Neue, Helvetica, Arial, sans-serif" font-size="14" lengthAdjust="spacing" textLength="41.9998" x="173" y="532.9999">Pandoc</text></g><!--entity html--><g class="entity" data-entity="html" data-source-line="16" data-uid="ent0013" id="entity_html"><path d="M8.5,616 L49.5,616 A3.75,3.75 0 0 1 52,618.5 L59,637 L117.4996,637 A2.5,2.5 0 0 1 119.9996,639.5 L119.9996,687.0598 A2.5,2.5 0 0 1 117.4996,689.5598 L8.5,689.5598 A2.5,2.5 0 0 1 6,687.0598 L6,618.5 A2.5,2.5 0 0 1 8.5,616" fill="#F1F1F1" style="stroke:#181818;stroke-width:0.5;"/><line style="stroke:#181818;stroke-width:0.5;" x1="6" x2="59" y1="637" y2="637"/><text fill="#000000" font-family="メイリオ, `UDEV Gothic HSRFJPDOC`, Helvetica Neue, Helvetica, Arial, sans-serif" font-size="14" lengthAdjust="spacing" textLength="83.9996" x="16" y="657.9999">&#12489;&#12461;&#12517;&#12513;&#12531;&#12488;</text><text fill="#000000" font-family="メイリオ, `UDEV Gothic HSRFJPDOC`, Helvetica Neue, Helvetica, Arial, sans-serif" font-size="14" lengthAdjust="spacing" textLength="41.9998" x="16" y="675.7799">(html)</text></g><!--entity docx--><g class="entity" data-entity="docx" data-source-line="17" data-uid="ent0014" id="entity_docx"><path d="M157.5,616 L198.5,616 A3.75,3.75 0 0 1 201,618.5 L208,637 L266.4996,637 A2.5,2.5 0 0 1 268.9996,639.5 L268.9996,687.0598 A2.5,2.5 0 0 1 266.4996,689.5598 L157.5,689.5598 A2.5,2.5 0 0 1 155,687.0598 L155,618.5 A2.5,2.5 0 0 1 157.5,616" fill="#F1F1F1" style="stroke:#181818;stroke-width:0.5;"/><line style="stroke:#181818;stroke-width:0.5;" x1="155" x2="208" y1="637" y2="637"/><text fill="#000000" font-family="メイリオ, `UDEV Gothic HSRFJPDOC`, Helvetica Neue, Helvetica, Arial, sans-serif" font-size="14" lengthAdjust="spacing" textLength="83.9996" x="165" y="657.9999">&#12489;&#12461;&#12517;&#12513;&#12531;&#12488;</text><text fill="#000000" font-family="メイリオ, `UDEV Gothic HSRFJPDOC`, Helvetica Neue, Helvetica, Arial, sans-serif" font-size="14" lengthAdjust="spacing" textLength="41.9998" x="165" y="675.7799">(docx)</text></g><g class="entity" data-entity="GMN15" data-source-line="19" data-uid="ent0016" id="entity_GMN15"><path d="M182,775.5 L182,802.01 A0,0 0 0 0 182,802.01 L242,802.01 A0,0 0 0 0 242,802.01 L242,785.5 L232,775.5 L216,775.5 L212,690.1626 L208,775.5 L182,775.5 A0,0 0 0 0 182,775.5" fill="#FEFFDD" style="stroke:#181818;stroke-width:0.5;"/><path d="M232,775.5 L232,785.5 L242,785.5 L232,775.5" fill="#FEFFDD" style="stroke:#181818;stroke-width:0.5;"/><text fill="#000000" font-family="メイリオ, `UDEV Gothic HSRFJPDOC`, Helvetica Neue, Helvetica, Arial, sans-serif" font-size="13" lengthAdjust="spacing" textLength="39" x="188" y="793.5">&#32013;&#21697;&#29992;</text></g><!--entity developer--><g class="entity" data-entity="developer" data-source-line="21" data-uid="ent0018" id="entity_developer"><ellipse cx="62.9998" cy="758.5" fill="#F1F1F1" rx="8" ry="8" style="stroke:#181818;stroke-width:0.5;"/><path d="M62.9998,766.5 L62.9998,793.5 M49.9998,774.5 L75.9998,774.5 M62.9998,793.5 L49.9998,808.5 M62.9998,793.5 L75.9998,808.5" fill="none" style="stroke:#181818;stroke-width:0.5;"/><text fill="#000000" font-family="メイリオ, `UDEV Gothic HSRFJPDOC`, Helvetica Neue, Helvetica, Arial, sans-serif" font-size="14" lengthAdjust="spacing" textLength="97.9996" x="14" y="823.9999">&#12502;&#12521;&#12454;&#12470;&#12391;&#38322;&#35239;</text></g><!--entity rag--><g class="entity" data-entity="rag" data-source-line="22" data-uid="ent0019" id="entity_rag"><rect fill="#F1F1F1" height="65.5598" rx="2.5" ry="2.5" style="stroke:#181818;stroke-width:0.5;" width="137.9996" x="291" y="490"/><rect fill="#F1F1F1" height="10" style="stroke:#181818;stroke-width:0.5;" width="15" x="408.9996" y="495"/><rect fill="#F1F1F1" height="2" style="stroke:#181818;stroke-width:0.5;" width="4" x="406.9996" y="497"/><rect fill="#F1F1F1" height="2" style="stroke:#181818;stroke-width:0.5;" width="4" x="406.9996" y="501"/><text fill="#000000" font-family="メイリオ, `UDEV Gothic HSRFJPDOC`, Helvetica Neue, Helvetica, Arial, sans-serif" font-size="14" lengthAdjust="spacing" textLength="20.9999" x="306" y="523.9999">RAG</text><text fill="#000000" font-family="メイリオ, `UDEV Gothic HSRFJPDOC`, Helvetica Neue, Helvetica, Arial, sans-serif" font-size="14" lengthAdjust="spacing" textLength="97.9996" x="306" y="541.7799">(&#26908;&#32034;&#25313;&#24373;&#29983;&#25104;)</text></g><!--entity llm_db--><g class="entity" data-entity="llm_db" data-source-line="23" data-uid="ent0020" id="entity_llm_db"><path d="M308,630.5 C308,620.5 359.9998,620.5 359.9998,620.5 C359.9998,620.5 411.9996,620.5 411.9996,630.5 L411.9996,675.0598 C411.9996,685.0598 359.9998,685.0598 359.9998,685.0598 C359.9998,685.0598 308,685.0598 308,675.0598 L308,630.5" fill="#F1F1F1" style="stroke:#181818;stroke-width:0.5;"/><path d="M308,630.5 C308,640.5 359.9998,640.5 359.9998,640.5 C359.9998,640.5 411.9996,640.5 411.9996,630.5" fill="none" style="stroke:#181818;stroke-width:0.5;"/><text fill="#000000" font-family="メイリオ, `UDEV Gothic HSRFJPDOC`, Helvetica Neue, Helvetica, Arial, sans-serif" font-size="14" lengthAdjust="spacing" textLength="83.9996" x="318" y="658.4999">&#12487;&#12540;&#12479;&#12505;&#12540;&#12473;</text><text fill="#000000" font-family="メイリオ, `UDEV Gothic HSRFJPDOC`, Helvetica Neue, Helvetica, Arial, sans-serif" font-size="14" lengthAdjust="spacing" textLength="83.9996" x="318" y="676.2799">(LLM &#20998;&#26512;&#29992;)</text></g><g class="entity" data-entity="GMN21" data-source-line="25" data-uid="ent0022" id="entity_GMN21"><path d="M307,767.5 L307,810.52 A0,0 0 0 0 307,810.52 L412.5001,810.52 A0,0 0 0 0 412.5001,810.52 L412.5001,777.5 L402.5001,767.5 L364,767.5 L360,685.5754 L356,767.5 L307,767.5 A0,0 0 0 0 307,767.5" fill="#FEFFDD" style="stroke:#181818;stroke-width:0.5;"/><path d="M402.5001,767.5 L402.5001,777.5 L412.5001,777.5 L402.5001,767.5" fill="#FEFFDD" style="stroke:#181818;stroke-width:0.5;"/><text fill="#000000" font-family="メイリオ, `UDEV Gothic HSRFJPDOC`, Helvetica Neue, Helvetica, Arial, sans-serif" font-size="13" lengthAdjust="spacing" textLength="84.5001" x="313" y="785.5">AI &#12398;&#24540;&#31572;&#21521;&#12369;</text><text fill="#000000" font-family="メイリオ, `UDEV Gothic HSRFJPDOC`, Helvetica Neue, Helvetica, Arial, sans-serif" font-size="13" lengthAdjust="spacing" textLength="65.0001" x="313" y="802.01">&#20837;&#21147;&#12487;&#12540;&#12479;</text></g><!--link src to Doxygen--><g class="link" data-entity-1="src" data-entity-2="Doxygen" data-source-line="28" data-uid="lnk24" id="link_src_Doxygen"><path d="M410.5073,62.064 C355.4364,84.9629 284.7377,114.3599 237.0535,134.1874" fill="none" id="src-to-Doxygen" style="stroke:#181818;stroke-width:1;"/><polygon fill="#181818" points="231.5134,136.491,241.3594,136.729,236.1302,134.5713,238.2879,129.3421,231.5134,136.491" style="stroke:#181818;stroke-width:1;"/></g><!--link Doxygen to Doxybook2--><g class="link" data-entity-1="Doxygen" data-entity-2="Doxybook2" data-source-line="29" data-uid="lnk25" id="link_Doxygen_Doxybook2"><path d="M187,179.2425 C187,199.3226 187,221.7171 187,241.7886" fill="none" id="Doxygen-to-Doxybook2" style="stroke:#181818;stroke-width:1;"/><polygon fill="#181818" points="187,247.7886,191,238.7886,187,242.7886,183,238.7886,187,247.7886" style="stroke:#181818;stroke-width:1;"/></g><!--link Doxybook2 to src_md--><g class="link" data-entity-1="Doxybook2" data-entity-2="src_md" data-source-line="30" data-uid="lnk26" id="link_Doxybook2_src_md"><path d="M187,296.1953 C187,313.299 187,351.5458 187,370.9716" fill="none" id="Doxybook2-to-src_md" style="stroke:#181818;stroke-width:1;"/><polygon fill="#181818" points="187,376.9716,191,367.9716,187,371.9716,183,367.9716,187,376.9716" style="stroke:#181818;stroke-width:1;"/></g><!--link Doxygen to html--><g class="link" data-entity-1="Doxygen" data-entity-2="html" data-source-line="31" data-uid="lnk27" id="link_Doxygen_html"><path d="M164.2595,179.0848 C148.8202,196.8001 129.2378,222.1946 118,248 C62.967,374.3727 59.6482,557.1496 61.3147,630.7354" fill="none" id="Doxygen-to-html" style="stroke:#181818;stroke-width:1;"/><polygon fill="#181818" points="61.4505,636.7339,65.2457,627.6456,61.3373,631.7352,57.2478,627.8268,61.4505,636.7339" style="stroke:#181818;stroke-width:1;"/></g><!--link src to gtest--><g class="link" data-entity-1="src" data-entity-2="gtest" data-source-line="32" data-uid="lnk28" id="link_src_gtest"><path d="M521.3716,62.064 C548.9924,79.9363 579.8621,99.9108 608.864,118.6767" fill="none" id="src-to-gtest" style="stroke:#181818;stroke-width:1;"/><polygon fill="#181818" points="613.9014,121.9362,608.5183,113.6887,609.7035,119.2199,604.1723,120.4052,613.9014,121.9362" style="stroke:#181818;stroke-width:1;"/></g><!--link src to gcov--><g class="link" data-entity-1="src" data-entity-2="gcov" data-source-line="33" data-uid="lnk29" id="link_src_gcov"><path d="M480.0402,62.1701 C484.9963,130.6021 497.1695,298.6869 501.8139,362.8156" fill="none" id="src-to-gcov" style="stroke:#181818;stroke-width:1;"/><polygon fill="#181818" points="502.2473,368.7999,505.5867,359.5345,501.8861,363.813,497.6076,360.1123,502.2473,368.7999" style="stroke:#181818;stroke-width:1;"/></g><!--link gcov to lcov--><g class="link" data-entity-1="gcov" data-entity-2="lcov" data-source-line="34" data-uid="lnk30" id="link_gcov_lcov"><path d="M517.7454,417.1473 C531.037,440.4974 548.0934,470.4613 561.36,493.7676" fill="none" id="gcov-to-lcov" style="stroke:#181818;stroke-width:1;"/><polygon fill="#181818" points="564.3282,498.982,563.3522,489.1816,561.8547,494.6367,556.3997,493.1392,564.3282,498.982" style="stroke:#181818;stroke-width:1;"/></g><!--link gcov to test_evi--><g class="link" data-entity-1="gcov" data-entity-2="test_evi" data-source-line="35" data-uid="lnk31" id="link_gcov_test_evi"><path d="M504.5788,417.0731 C505.9521,449.4094 510.563,508.3224 526,556 C532.7098,576.7234 540.7335,610.9262 550.9228,628.4039" fill="none" id="gcov-to-test_evi" style="stroke:#181818;stroke-width:1;"/><polygon fill="#181818" points="553.9447,633.5873,552.8675,623.7975,551.4265,629.2678,545.9562,627.8267,553.9447,633.5873" style="stroke:#181818;stroke-width:1;"/></g><!--link lcov to test_evi--><g class="link" data-entity-1="lcov" data-entity-2="test_evi" data-source-line="36" data-uid="lnk32" id="link_lcov_test_evi"><path d="M578,547.1473 C578,566.4588 578,608.861 578,630.9463" fill="none" id="lcov-to-test_evi" style="stroke:#181818;stroke-width:1;"/><polygon fill="#181818" points="578,636.9463,582,627.9463,578,631.9463,574,627.9463,578,636.9463" style="stroke:#181818;stroke-width:1;"/></g><!--link test_src to gtest--><g class="link" data-entity-1="test_src" data-entity-2="gtest" data-source-line="37" data-uid="lnk33" id="link_test_src_gtest"><path d="M668.0723,62.064 C667.4814,79.9363 666.9117,97.1736 666.2913,115.9395" fill="none" id="test_src-to-gtest" style="stroke:#181818;stroke-width:1;"/><polygon fill="#181818" points="666.093,121.9362,670.3882,113.0733,666.2582,116.9389,662.3926,112.8089,666.093,121.9362" style="stroke:#181818;stroke-width:1;"/></g><!--link gtest to test_evi--><g class="link" data-entity-1="gtest" data-entity-2="test_evi" data-source-line="38" data-uid="lnk34" id="link_gtest_test_evi"><path d="M666.3518,188.0348 C668.2729,257.6582 667.9522,423.9251 629,556 C622.8644,576.8038 615.0786,614.1177 605.0023,631.5804" fill="none" id="gtest-to-test_evi" style="stroke:#181818;stroke-width:1;"/><polygon fill="#181818" points="602.0036,636.7773,609.9663,630.9811,604.5025,632.4466,603.0371,626.9828,602.0036,636.7773" style="stroke:#181818;stroke-width:1;"/></g><!--link docs_md to Pandoc--><g class="link" data-entity-1="docs_md" data-entity-2="Pandoc" data-source-line="39" data-uid="lnk35" id="link_docs_md_Pandoc"><path d="M316.7176,430.2528 C288.7203,452.3113 258.7745,475.905 234.3359,495.1596" fill="none" id="docs_md-to-Pandoc" style="stroke:#181818;stroke-width:1;"/><polygon fill="#181818" points="229.6229,498.8728,239.1678,496.4449,233.5504,495.7784,234.2168,490.161,229.6229,498.8728" style="stroke:#181818;stroke-width:1;"/></g><!--link src_md to Pandoc--><g class="link" data-entity-1="src_md" data-entity-2="Pandoc" data-source-line="40" data-uid="lnk36" id="link_src_md_Pandoc"><path d="M190.4387,430.2528 C192.4749,452.3113 194.444,473.6436 196.2214,492.8982" fill="none" id="src_md-to-Pandoc" style="stroke:#181818;stroke-width:1;"/><polygon fill="#181818" points="196.7729,498.8728,199.9287,489.5432,196.3133,493.894,191.9626,490.2786,196.7729,498.8728" style="stroke:#181818;stroke-width:1;"/></g><!--link Pandoc to html--><g class="link" data-entity-1="Pandoc" data-entity-2="html" data-source-line="41" data-uid="lnk37" id="link_Pandoc_html"><path d="M173.7382,547.1473 C153.5354,566.4588 129.2057,610.7151 106.101,632.8004" fill="none" id="Pandoc-to-html" style="stroke:#181818;stroke-width:1;"/><polygon fill="#181818" points="101.7638,636.9463,111.0336,633.619,105.3782,633.4914,105.5057,627.836,101.7638,636.9463" style="stroke:#181818;stroke-width:1;"/></g><!--link Pandoc to docx--><g class="link" data-entity-1="Pandoc" data-entity-2="docx" data-source-line="42" data-uid="lnk38" id="link_Pandoc_docx"><path d="M201.4147,547.1473 C203.3459,566.4588 205.4891,608.4372 207.6976,630.5225" fill="none" id="Pandoc-to-docx" style="stroke:#181818;stroke-width:1;"/><polygon fill="#181818" points="208.2946,636.4927,211.3792,627.1393,207.7971,631.5175,203.4189,627.9354,208.2946,636.4927" style="stroke:#181818;stroke-width:1;"/></g><!--link html to developer--><g class="link" data-entity-1="html" data-entity-2="developer" data-source-line="43" data-uid="lnk39" id="link_html_developer"><path d="M63,690.1626 C63,708.7232 63,725.1726 63,743.9823" fill="none" id="html-to-developer" style="stroke:#181818;stroke-width:1;"/><polygon fill="#181818" points="63,749.9823,67,740.9823,63,744.9823,59,740.9823,63,749.9823" style="stroke:#181818;stroke-width:1;"/></g><!--link docs_md to rag--><g class="link" data-entity-1="docs_md" data-entity-2="rag" data-source-line="44" data-uid="lnk40" id="link_docs_md_rag"><path d="M362.8538,430.2528 C362.2766,449.01 361.7672,465.5651 361.2081,483.7342" fill="none" id="docs_md-to-rag" style="stroke:#181818;stroke-width:1;"/><polygon fill="#181818" points="361.0236,489.7314,365.2985,480.8587,361.1774,484.7338,357.3023,480.6126,361.0236,489.7314" style="stroke:#181818;stroke-width:1;"/></g><!--link src_md to rag--><g class="link" data-entity-1="src_md" data-entity-2="rag" data-source-line="45" data-uid="lnk41" id="link_src_md_rag"><path d="M236.5749,430.2528 C261.6362,449.085 286.9917,468.1383 311.2204,486.3448" fill="none" id="src_md-to-rag" style="stroke:#181818;stroke-width:1;"/><polygon fill="#181818" points="316.0171,489.9492,311.225,481.3448,312.0199,486.9455,306.4191,487.7403,316.0171,489.9492" style="stroke:#181818;stroke-width:1;"/></g><!--link rag to llm_db--><g class="link" data-entity-1="rag" data-entity-2="llm_db" data-source-line="46" data-uid="lnk42" id="link_rag_llm_db"><path d="M360,556.1409 C360,575.8501 360,594.7513 360,614.3699" fill="none" id="rag-to-llm_db" style="stroke:#181818;stroke-width:1;"/><polygon fill="#181818" points="360,620.3699,364,611.3699,360,615.3699,356,611.3699,360,620.3699" style="stroke:#181818;stroke-width:1;"/></g><!--SRC=[ZLFFQzim5Bxthn3PPJs4bfrBeMnG1WsCiUCWABRYbSXIiBKqlIqMQzEDGafAw5ZeQBkcwQ4xREsWqD0_HdES_1UJvDYndOJD5pzzJ-zzxyUdDPVjOhI-jBOoCTpADgb21zgW18sAvT3tn7nECNK0So1nfGiHjWJaLwROH0x8ZIu6VhiXl87W3yAx5zulPV23780kS1q3F2cNZLLZLGSPrAvI8bE05xI-Qo4o1orHMdasZu8V2Ez6y4l1pmINBCstv6a1EXMJxf3bYAvecwbOmVTKLRmf6ZyM5CcGouhPIgDu__3apw0zkkwD- -tWhZKyxKhMQLAlBtXRy7rLa7U_FCs7QjkPtdAMGMlwWZAoJXmvyHpd9gKMHk2DJ2pPTrOcvm8rAY6bfJXJTOyxv-CF5_ynCvCQhXpQWZMzWaHUo4nqJivtpCPXFcNz-xvCMe_vw_e-eGo14cMCslgilk3sK6u-EEvh115Jtz87Q32gitS4lnPUJtY_HUDgtFavwbs5YL4DOLf5JdQQhpSsPGN3xztWzdpu-Sn_k0kElmsRhR0U1rewm8GCbg2B5CM-bisZu5z2_SZmhQq2y9jxmzEMh2wCnDWkcgM5lMoy15A3_cCtk3dsMqUYSHIx_8-N_gUlCSziiqgT-VnwwjLCx1YVlfluf7s9Hv4CYVSKvPvgA4OYAIf38tW6IOaTpqNZzvLcqPR4yZC1aIIL8o70i94i6fhfbX9OB2_b396KBf9SqUeJH14a_-40z8x_0W00]--></g></svg>