<svg xmlns="http://www.w3.org/2000/svg" xmlns:xlink="http://www.w3.org/1999/xlink" contentStyleType="text/css" data-diagram-type="DESCRIPTION" height="1009px" preserveAspectRatio="none" style="width:1428px;height:1009px;" version="1.1" viewBox="0 0 1428 1009" width="1428px" zoomAndPan="magnify"><title>porter &#12467;&#12531;&#12509;&#12540;&#12493;&#12531;&#12488;&#27083;&#25104;</title><defs/><g><g class="title" data-source-line="5"><text fill="#000000" font-family="'Segoe UI', 'メイリオ', 'UDEV Gothic HSRFJPDOC', 'Hiragino Kaku Gothic ProN', 'ヒラギノ角ゴ ProN', 'Noto Sans JP', 'Helvetica Neue', Helvetica, Arial, sans-serif" font-size="14" font-weight="bold" lengthAdjust="spacing" textLength="181.5617" x="616.3752" y="23.9999">porter &#12467;&#12531;&#12509;&#12540;&#12493;&#12531;&#12488;&#27083;&#25104;</text></g><!--cluster api--><g class="cluster" data-entity="api" data-source-line="6" data-uid="ent0002" id="cluster_api"><path d="M895.5,45.0599 L918.8124,45.0599 A3.75,3.75 0 0 1 921.3124,47.5599 L928.3124,68.8398 L1405.5,68.8398 A2.5,2.5 0 0 1 1408,71.3398 L1408,126.5599 A2.5,2.5 0 0 1 1405.5,129.0599 L895.5,129.0599 A2.5,2.5 0 0 1 893,126.5599 L893,47.5599 A2.5,2.5 0 0 1 895.5,45.0599" fill="none" style="stroke:#000000;stroke-width:1.5;"/><line style="stroke:#000000;stroke-width:1.5;" x1="893" x2="928.3124" y1="68.8398" y2="68.8398"/><text fill="#000000" font-family="'Segoe UI', 'メイリオ', 'UDEV Gothic HSRFJPDOC', 'Hiragino Kaku Gothic ProN', 'ヒラギノ角ゴ ProN', 'Noto Sans JP', 'Helvetica Neue', Helvetica, Arial, sans-serif" font-size="14" font-weight="bold" lengthAdjust="spacing" textLength="22.3124" x="897" y="61.0598">api</text></g><!--cluster thread--><g class="cluster" data-entity="thread" data-source-line="11" data-uid="ent0006" id="cluster_thread"><path d="M232.5,320.0599 L278.1248,320.0599 A3.75,3.75 0 0 1 280.6248,322.5599 L287.6248,343.8398 L776.5,343.8398 A2.5,2.5 0 0 1 779,346.3398 L779,401.5599 A2.5,2.5 0 0 1 776.5,404.0599 L232.5,404.0599 A2.5,2.5 0 0 1 230,401.5599 L230,322.5599 A2.5,2.5 0 0 1 232.5,320.0599" fill="none" style="stroke:#000000;stroke-width:1.5;"/><line style="stroke:#000000;stroke-width:1.5;" x1="230" x2="287.6248" y1="343.8398" y2="343.8398"/><text fill="#000000" font-family="'Segoe UI', 'メイリオ', 'UDEV Gothic HSRFJPDOC', 'Hiragino Kaku Gothic ProN', 'ヒラギノ角ゴ ProN', 'Noto Sans JP', 'Helvetica Neue', Helvetica, Arial, sans-serif" font-size="14" font-weight="bold" lengthAdjust="spacing" textLength="44.6248" x="234" y="336.0598">thread</text></g><!--cluster protocol--><g class="cluster" data-entity="protocol" data-source-line="16" data-uid="ent0010" id="cluster_protocol"><path d="M625.5,705.0599 L685.9998,705.0599 A3.75,3.75 0 0 1 688.4998,707.5599 L695.4998,728.8398 L1108.5,728.8398 A2.5,2.5 0 0 1 1111,731.3398 L1111,999.5599 A2.5,2.5 0 0 1 1108.5,1002.0599 L625.5,1002.0599 A2.5,2.5 0 0 1 623,999.5599 L623,707.5599 A2.5,2.5 0 0 1 625.5,705.0599" fill="none" style="stroke:#000000;stroke-width:1.5;"/><line style="stroke:#000000;stroke-width:1.5;" x1="623" x2="695.4998" y1="728.8398" y2="728.8398"/><text fill="#000000" font-family="'Segoe UI', 'メイリオ', 'UDEV Gothic HSRFJPDOC', 'Hiragino Kaku Gothic ProN', 'ヒラギノ角ゴ ProN', 'Noto Sans JP', 'Helvetica Neue', Helvetica, Arial, sans-serif" font-size="14" font-weight="bold" lengthAdjust="spacing" textLength="59.4998" x="627" y="721.0598">protocol</text></g><!--cluster infra--><g class="cluster" data-entity="infra" data-source-line="22" data-uid="ent0015" id="cluster_infra"><path d="M8.5,544.0599 L46.6873,544.0599 A3.75,3.75 0 0 1 49.1873,546.5599 L56.1873,567.8398 L798.5,567.8398 A2.5,2.5 0 0 1 801,570.3398 L801,679.5599 A2.5,2.5 0 0 1 798.5,682.0599 L8.5,682.0599 A2.5,2.5 0 0 1 6,679.5599 L6,546.5599 A2.5,2.5 0 0 1 8.5,544.0599" fill="none" style="stroke:#000000;stroke-width:1.5;"/><line style="stroke:#000000;stroke-width:1.5;" x1="6" x2="56.1873" y1="567.8398" y2="567.8398"/><text fill="#000000" font-family="'Segoe UI', 'メイリオ', 'UDEV Gothic HSRFJPDOC', 'Hiragino Kaku Gothic ProN', 'ヒラギノ角ゴ ProN', 'Noto Sans JP', 'Helvetica Neue', Helvetica, Arial, sans-serif" font-size="14" font-weight="bold" lengthAdjust="spacing" textLength="37.1873" x="10" y="560.0598">infra</text></g><!--cluster compress--><g class="cluster" data-entity="compress" data-source-line="25" data-uid="ent0018" id="cluster_compress"><path d="M584.5,572.0599 L644.9998,572.0599 A3.75,3.75 0 0 1 647.4998,574.5599 L654.4998,595.8398 L762.5,595.8398 A2.5,2.5 0 0 1 765,598.3398 L765,671.5599 A2.5,2.5 0 0 1 762.5,674.0599 L584.5,674.0599 A2.5,2.5 0 0 1 582,671.5599 L582,574.5599 A2.5,2.5 0 0 1 584.5,572.0599" fill="none" style="stroke:#000000;stroke-width:1.5;"/><line style="stroke:#000000;stroke-width:1.5;" x1="582" x2="654.4998" y1="595.8398" y2="595.8398"/><text fill="#000000" font-family="'Segoe UI', 'メイリオ', 'UDEV Gothic HSRFJPDOC', 'Hiragino Kaku Gothic ProN', 'ヒラギノ角ゴ ProN', 'Noto Sans JP', 'Helvetica Neue', Helvetica, Arial, sans-serif" font-size="14" font-weight="bold" lengthAdjust="spacing" textLength="59.4998" x="586" y="588.0598">compress</text></g><!--cluster crypto--><g class="cluster" data-entity="crypto" data-source-line="28" data-uid="ent0020" id="cluster_crypto"><path d="M382.5,572.0599 L428.1248,572.0599 A3.75,3.75 0 0 1 430.6248,574.5599 L437.6248,595.8398 L560.5,595.8398 A2.5,2.5 0 0 1 563,598.3398 L563,671.5599 A2.5,2.5 0 0 1 560.5,674.0599 L382.5,674.0599 A2.5,2.5 0 0 1 380,671.5599 L380,574.5599 A2.5,2.5 0 0 1 382.5,572.0599" fill="none" style="stroke:#000000;stroke-width:1.5;"/><line style="stroke:#000000;stroke-width:1.5;" x1="380" x2="437.6248" y1="595.8398" y2="595.8398"/><text fill="#000000" font-family="'Segoe UI', 'メイリオ', 'UDEV Gothic HSRFJPDOC', 'Hiragino Kaku Gothic ProN', 'ヒラギノ角ゴ ProN', 'Noto Sans JP', 'Helvetica Neue', Helvetica, Arial, sans-serif" font-size="14" font-weight="bold" lengthAdjust="spacing" textLength="44.6248" x="384" y="588.0598">crypto</text></g><!--cluster util--><g class="cluster" data-entity="util" data-source-line="32" data-uid="ent0022" id="cluster_util"><path d="M1121.5,900.0599 L1152.2499,900.0599 A3.75,3.75 0 0 1 1154.7499,902.5599 L1161.7499,923.8398 L1277.5,923.8398 A2.5,2.5 0 0 1 1280,926.3398 L1280,999.5599 A2.5,2.5 0 0 1 1277.5,1002.0599 L1121.5,1002.0599 A2.5,2.5 0 0 1 1119,999.5599 L1119,902.5599 A2.5,2.5 0 0 1 1121.5,900.0599" fill="none" style="stroke:#000000;stroke-width:1.5;"/><line style="stroke:#000000;stroke-width:1.5;" x1="1119" x2="1161.7499" y1="923.8398" y2="923.8398"/><text fill="#000000" font-family="'Segoe UI', 'メイリオ', 'UDEV Gothic HSRFJPDOC', 'Hiragino Kaku Gothic ProN', 'ヒラギノ角ゴ ProN', 'Noto Sans JP', 'Helvetica Neue', Helvetica, Arial, sans-serif" font-size="14" font-weight="bold" lengthAdjust="spacing" textLength="29.7499" x="1123" y="916.0598">util</text></g><!--entity potrOpenService--><g class="entity" data-entity="potrOpenService" data-source-line="7" data-uid="ent0003" id="entity_potrOpenService"><rect fill="#F1F1F1" height="47.7799" rx="2.5" ry="2.5" style="stroke:#181818;stroke-width:0.5;" width="144.9995" x="1067.5" y="73.0599"/><rect fill="#F1F1F1" height="10" style="stroke:#181818;stroke-width:0.5;" width="15" x="1192.4995" y="78.0599"/><rect fill="#F1F1F1" height="2" style="stroke:#181818;stroke-width:0.5;" width="4" x="1190.4995" y="80.0599"/><rect fill="#F1F1F1" height="2" style="stroke:#181818;stroke-width:0.5;" width="4" x="1190.4995" y="84.0599"/><text fill="#000000" font-family="'Segoe UI', 'メイリオ', 'UDEV Gothic HSRFJPDOC', 'Hiragino Kaku Gothic ProN', 'ヒラギノ角ゴ ProN', 'Noto Sans JP', 'Helvetica Neue', Helvetica, Arial, sans-serif" font-size="14" lengthAdjust="spacing" textLength="104.9995" x="1082.5" y="107.0598">potrOpenService</text></g><!--entity potrSend--><g class="entity" data-entity="potrSend" data-source-line="8" data-uid="ent0004" id="entity_potrSend"><rect fill="#F1F1F1" height="47.7799" rx="2.5" ry="2.5" style="stroke:#181818;stroke-width:0.5;" width="95.9998" x="901" y="73.0599"/><rect fill="#F1F1F1" height="10" style="stroke:#181818;stroke-width:0.5;" width="15" x="976.9998" y="78.0599"/><rect fill="#F1F1F1" height="2" style="stroke:#181818;stroke-width:0.5;" width="4" x="974.9998" y="80.0599"/><rect fill="#F1F1F1" height="2" style="stroke:#181818;stroke-width:0.5;" width="4" x="974.9998" y="84.0599"/><text fill="#000000" font-family="'Segoe UI', 'メイリオ', 'UDEV Gothic HSRFJPDOC', 'Hiragino Kaku Gothic ProN', 'ヒラギノ角ゴ ProN', 'Noto Sans JP', 'Helvetica Neue', Helvetica, Arial, sans-serif" font-size="14" lengthAdjust="spacing" textLength="55.9998" x="916" y="107.0598">potrSend</text></g><!--entity potrCloseService--><g class="entity" data-entity="potrCloseService" data-source-line="9" data-uid="ent0005" id="entity_potrCloseService"><rect fill="#F1F1F1" height="47.7799" rx="2.5" ry="2.5" style="stroke:#181818;stroke-width:0.5;" width="151.9995" x="1248" y="73.0599"/><rect fill="#F1F1F1" height="10" style="stroke:#181818;stroke-width:0.5;" width="15" x="1379.9995" y="78.0599"/><rect fill="#F1F1F1" height="2" style="stroke:#181818;stroke-width:0.5;" width="4" x="1377.9995" y="80.0599"/><rect fill="#F1F1F1" height="2" style="stroke:#181818;stroke-width:0.5;" width="4" x="1377.9995" y="84.0599"/><text fill="#000000" font-family="'Segoe UI', 'メイリオ', 'UDEV Gothic HSRFJPDOC', 'Hiragino Kaku Gothic ProN', 'ヒラギノ角ゴ ProN', 'Noto Sans JP', 'Helvetica Neue', Helvetica, Arial, sans-serif" font-size="14" lengthAdjust="spacing" textLength="111.9995" x="1263" y="107.0598">potrCloseService</text></g><!--entity potrRecvThread--><g class="entity" data-entity="potrRecvThread" data-source-line="12" data-uid="ent0007" id="entity_potrRecvThread"><rect fill="#F1F1F1" height="47.7799" rx="2.5" ry="2.5" style="stroke:#181818;stroke-width:0.5;" width="137.9996" x="425" y="348.0599"/><rect fill="#F1F1F1" height="10" style="stroke:#181818;stroke-width:0.5;" width="15" x="542.9996" y="353.0599"/><rect fill="#F1F1F1" height="2" style="stroke:#181818;stroke-width:0.5;" width="4" x="540.9996" y="355.0599"/><rect fill="#F1F1F1" height="2" style="stroke:#181818;stroke-width:0.5;" width="4" x="540.9996" y="359.0599"/><text fill="#000000" font-family="'Segoe UI', 'メイリオ', 'UDEV Gothic HSRFJPDOC', 'Hiragino Kaku Gothic ProN', 'ヒラギノ角ゴ ProN', 'Noto Sans JP', 'Helvetica Neue', Helvetica, Arial, sans-serif" font-size="14" lengthAdjust="spacing" textLength="97.9996" x="440" y="382.0598">potrRecvThread</text></g><!--entity potrSendThread--><g class="entity" data-entity="potrSendThread" data-source-line="13" data-uid="ent0008" id="entity_potrSendThread"><rect fill="#F1F1F1" height="47.7799" rx="2.5" ry="2.5" style="stroke:#181818;stroke-width:0.5;" width="137.9996" x="598" y="348.0599"/><rect fill="#F1F1F1" height="10" style="stroke:#181818;stroke-width:0.5;" width="15" x="715.9996" y="353.0599"/><rect fill="#F1F1F1" height="2" style="stroke:#181818;stroke-width:0.5;" width="4" x="713.9996" y="355.0599"/><rect fill="#F1F1F1" height="2" style="stroke:#181818;stroke-width:0.5;" width="4" x="713.9996" y="359.0599"/><text fill="#000000" font-family="'Segoe UI', 'メイリオ', 'UDEV Gothic HSRFJPDOC', 'Hiragino Kaku Gothic ProN', 'ヒラギノ角ゴ ProN', 'Noto Sans JP', 'Helvetica Neue', Helvetica, Arial, sans-serif" font-size="14" lengthAdjust="spacing" textLength="97.9996" x="613" y="382.0598">potrSendThread</text></g><!--entity potrHealthThread--><g class="entity" data-entity="potrHealthThread" data-source-line="14" data-uid="ent0009" id="entity_potrHealthThread"><rect fill="#F1F1F1" height="47.7799" rx="2.5" ry="2.5" style="stroke:#181818;stroke-width:0.5;" width="151.9995" x="238" y="348.0599"/><rect fill="#F1F1F1" height="10" style="stroke:#181818;stroke-width:0.5;" width="15" x="369.9995" y="353.0599"/><rect fill="#F1F1F1" height="2" style="stroke:#181818;stroke-width:0.5;" width="4" x="367.9995" y="355.0599"/><rect fill="#F1F1F1" height="2" style="stroke:#181818;stroke-width:0.5;" width="4" x="367.9995" y="359.0599"/><text fill="#000000" font-family="'Segoe UI', 'メイリオ', 'UDEV Gothic HSRFJPDOC', 'Hiragino Kaku Gothic ProN', 'ヒラギノ角ゴ ProN', 'Noto Sans JP', 'Helvetica Neue', Helvetica, Arial, sans-serif" font-size="14" lengthAdjust="spacing" textLength="111.9995" x="253" y="382.0598">potrHealthThread</text></g><!--entity packet\n(?????????)--><g class="entity" data-entity="packet.n..........." data-source-line="17" data-uid="ent0011" id="entity_packet.n..........."><rect fill="#F1F1F1" height="65.5598" rx="2.5" ry="2.5" style="stroke:#181818;stroke-width:0.5;" width="180.3354" x="631" y="733.0599"/><rect fill="#F1F1F1" height="10" style="stroke:#181818;stroke-width:0.5;" width="15" x="791.3354" y="738.0599"/><rect fill="#F1F1F1" height="2" style="stroke:#181818;stroke-width:0.5;" width="4" x="789.3354" y="740.0599"/><rect fill="#F1F1F1" height="2" style="stroke:#181818;stroke-width:0.5;" width="4" x="789.3354" y="744.0599"/><text fill="#000000" font-family="'Segoe UI', 'メイリオ', 'UDEV Gothic HSRFJPDOC', 'Hiragino Kaku Gothic ProN', 'ヒラギノ角ゴ ProN', 'Noto Sans JP', 'Helvetica Neue', Helvetica, Arial, sans-serif" font-size="14" lengthAdjust="spacing" textLength="41.9998" x="646" y="767.0598">packet</text><text fill="#000000" font-family="'Segoe UI', 'メイリオ', 'UDEV Gothic HSRFJPDOC', 'Hiragino Kaku Gothic ProN', 'ヒラギノ角ゴ ProN', 'Noto Sans JP', 'Helvetica Neue', Helvetica, Arial, sans-serif" font-size="14" lengthAdjust="spacing" textLength="140.3354" x="646" y="784.8398">(&#12497;&#12465;&#12483;&#12488;&#27083;&#31689;&#12539;&#35299;&#26512;)</text></g><!--entity window\n(????????????)--><g class="entity" data-entity="window.n.............." data-source-line="18" data-uid="ent0012" id="entity_window.n.............."><rect fill="#F1F1F1" height="65.5598" rx="2.5" ry="2.5" style="stroke:#181818;stroke-width:0.5;" width="221.9992" x="846" y="733.0599"/><rect fill="#F1F1F1" height="10" style="stroke:#181818;stroke-width:0.5;" width="15" x="1047.9992" y="738.0599"/><rect fill="#F1F1F1" height="2" style="stroke:#181818;stroke-width:0.5;" width="4" x="1045.9992" y="740.0599"/><rect fill="#F1F1F1" height="2" style="stroke:#181818;stroke-width:0.5;" width="4" x="1045.9992" y="744.0599"/><text fill="#000000" font-family="'Segoe UI', 'メイリオ', 'UDEV Gothic HSRFJPDOC', 'Hiragino Kaku Gothic ProN', 'ヒラギノ角ゴ ProN', 'Noto Sans JP', 'Helvetica Neue', Helvetica, Arial, sans-serif" font-size="14" lengthAdjust="spacing" textLength="41.9998" x="861" y="767.0598">window</text><text fill="#000000" font-family="'Segoe UI', 'メイリオ', 'UDEV Gothic HSRFJPDOC', 'Hiragino Kaku Gothic ProN', 'ヒラギノ角ゴ ProN', 'Noto Sans JP', 'Helvetica Neue', Helvetica, Arial, sans-serif" font-size="14" lengthAdjust="spacing" textLength="181.9992" x="861" y="784.8398">(&#12473;&#12521;&#12452;&#12487;&#12451;&#12531;&#12464;&#12454;&#12451;&#12531;&#12489;&#12454;)</text></g><!--entity seqnum\n(????)--><g class="entity" data-entity="seqnum.n......" data-source-line="19" data-uid="ent0013" id="entity_seqnum.n......"><rect fill="#F1F1F1" height="65.5598" rx="2.5" ry="2.5" style="stroke:#181818;stroke-width:0.5;" width="109.9997" x="666" y="928.0599"/><rect fill="#F1F1F1" height="10" style="stroke:#181818;stroke-width:0.5;" width="15" x="755.9997" y="933.0599"/><rect fill="#F1F1F1" height="2" style="stroke:#181818;stroke-width:0.5;" width="4" x="753.9997" y="935.0599"/><rect fill="#F1F1F1" height="2" style="stroke:#181818;stroke-width:0.5;" width="4" x="753.9997" y="939.0599"/><text fill="#000000" font-family="'Segoe UI', 'メイリオ', 'UDEV Gothic HSRFJPDOC', 'Hiragino Kaku Gothic ProN', 'ヒラギノ角ゴ ProN', 'Noto Sans JP', 'Helvetica Neue', Helvetica, Arial, sans-serif" font-size="14" lengthAdjust="spacing" textLength="41.9998" x="681" y="962.0598">seqnum</text><text fill="#000000" font-family="'Segoe UI', 'メイリオ', 'UDEV Gothic HSRFJPDOC', 'Hiragino Kaku Gothic ProN', 'ヒラギノ角ゴ ProN', 'Noto Sans JP', 'Helvetica Neue', Helvetica, Arial, sans-serif" font-size="14" lengthAdjust="spacing" textLength="69.9997" x="681" y="979.8398">(&#36890;&#30058;&#31649;&#29702;)</text></g><!--entity config\n(????????)--><g class="entity" data-entity="config.n.........." data-source-line="20" data-uid="ent0014" id="entity_config.n.........."><rect fill="#F1F1F1" height="65.5598" rx="2.5" ry="2.5" style="stroke:#181818;stroke-width:0.5;" width="165.9995" x="811" y="928.0599"/><rect fill="#F1F1F1" height="10" style="stroke:#181818;stroke-width:0.5;" width="15" x="956.9995" y="933.0599"/><rect fill="#F1F1F1" height="2" style="stroke:#181818;stroke-width:0.5;" width="4" x="954.9995" y="935.0599"/><rect fill="#F1F1F1" height="2" style="stroke:#181818;stroke-width:0.5;" width="4" x="954.9995" y="939.0599"/><text fill="#000000" font-family="'Segoe UI', 'メイリオ', 'UDEV Gothic HSRFJPDOC', 'Hiragino Kaku Gothic ProN', 'ヒラギノ角ゴ ProN', 'Noto Sans JP', 'Helvetica Neue', Helvetica, Arial, sans-serif" font-size="14" lengthAdjust="spacing" textLength="41.9998" x="826" y="962.0598">config</text><text fill="#000000" font-family="'Segoe UI', 'メイリオ', 'UDEV Gothic HSRFJPDOC', 'Hiragino Kaku Gothic ProN', 'ヒラギノ角ゴ ProN', 'Noto Sans JP', 'Helvetica Neue', Helvetica, Arial, sans-serif" font-size="14" lengthAdjust="spacing" textLength="125.9995" x="826" y="979.8398">(&#35373;&#23450;&#12501;&#12449;&#12452;&#12523;&#35299;&#26512;)</text></g><!--entity potrSendQueue\n(???????)--><g class="entity" data-entity="potrSendQueue.n........." data-source-line="23" data-uid="ent0016" id="entity_potrSendQueue.n........."><rect fill="#F1F1F1" height="65.5598" rx="2.5" ry="2.5" style="stroke:#181818;stroke-width:0.5;" width="151.9995" x="201" y="600.0599"/><rect fill="#F1F1F1" height="10" style="stroke:#181818;stroke-width:0.5;" width="15" x="332.9995" y="605.0599"/><rect fill="#F1F1F1" height="2" style="stroke:#181818;stroke-width:0.5;" width="4" x="330.9995" y="607.0599"/><rect fill="#F1F1F1" height="2" style="stroke:#181818;stroke-width:0.5;" width="4" x="330.9995" y="611.0599"/><text fill="#000000" font-family="'Segoe UI', 'メイリオ', 'UDEV Gothic HSRFJPDOC', 'Hiragino Kaku Gothic ProN', 'ヒラギノ角ゴ ProN', 'Noto Sans JP', 'Helvetica Neue', Helvetica, Arial, sans-serif" font-size="14" lengthAdjust="spacing" textLength="90.9996" x="216" y="634.0598">potrSendQueue</text><text fill="#000000" font-family="'Segoe UI', 'メイリオ', 'UDEV Gothic HSRFJPDOC', 'Hiragino Kaku Gothic ProN', 'ヒラギノ角ゴ ProN', 'Noto Sans JP', 'Helvetica Neue', Helvetica, Arial, sans-serif" font-size="14" lengthAdjust="spacing" textLength="111.9995" x="216" y="651.8398">(&#12522;&#12531;&#12464;&#12496;&#12483;&#12501;&#12449;)</text></g><!--entity potrLog\n(???????)--><g class="entity" data-entity="potrLog.n........." data-source-line="24" data-uid="ent0017" id="entity_potrLog.n........."><rect fill="#F1F1F1" height="65.5598" rx="2.5" ry="2.5" style="stroke:#181818;stroke-width:0.5;" width="152.3355" x="14" y="600.0599"/><rect fill="#F1F1F1" height="10" style="stroke:#181818;stroke-width:0.5;" width="15" x="146.3355" y="605.0599"/><rect fill="#F1F1F1" height="2" style="stroke:#181818;stroke-width:0.5;" width="4" x="144.3355" y="607.0599"/><rect fill="#F1F1F1" height="2" style="stroke:#181818;stroke-width:0.5;" width="4" x="144.3355" y="611.0599"/><text fill="#000000" font-family="'Segoe UI', 'メイリオ', 'UDEV Gothic HSRFJPDOC', 'Hiragino Kaku Gothic ProN', 'ヒラギノ角ゴ ProN', 'Noto Sans JP', 'Helvetica Neue', Helvetica, Arial, sans-serif" font-size="14" lengthAdjust="spacing" textLength="48.9998" x="29" y="634.0598">potrLog</text><text fill="#000000" font-family="'Segoe UI', 'メイリオ', 'UDEV Gothic HSRFJPDOC', 'Hiragino Kaku Gothic ProN', 'ヒラギノ角ゴ ProN', 'Noto Sans JP', 'Helvetica Neue', Helvetica, Arial, sans-serif" font-size="14" lengthAdjust="spacing" textLength="112.3355" x="29" y="651.8398">(&#12525;&#12462;&#12531;&#12464;&#12539;&#35373;&#23450;)</text></g><!--entity compress\n(raw DEFLATE)--><g class="entity" data-entity="compress.n.raw DEFLATE." data-source-line="26" data-uid="ent0019" id="entity_compress.n.raw DEFLATE."><rect fill="#F1F1F1" height="65.5598" rx="2.5" ry="2.5" style="stroke:#181818;stroke-width:0.5;" width="130.9996" x="590.5" y="600.0599"/><rect fill="#F1F1F1" height="10" style="stroke:#181818;stroke-width:0.5;" width="15" x="701.4996" y="605.0599"/><rect fill="#F1F1F1" height="2" style="stroke:#181818;stroke-width:0.5;" width="4" x="699.4996" y="607.0599"/><rect fill="#F1F1F1" height="2" style="stroke:#181818;stroke-width:0.5;" width="4" x="699.4996" y="611.0599"/><text fill="#000000" font-family="'Segoe UI', 'メイリオ', 'UDEV Gothic HSRFJPDOC', 'Hiragino Kaku Gothic ProN', 'ヒラギノ角ゴ ProN', 'Noto Sans JP', 'Helvetica Neue', Helvetica, Arial, sans-serif" font-size="14" lengthAdjust="spacing" textLength="55.9998" x="605.5" y="634.0598">compress</text><text fill="#000000" font-family="'Segoe UI', 'メイリオ', 'UDEV Gothic HSRFJPDOC', 'Hiragino Kaku Gothic ProN', 'ヒラギノ角ゴ ProN', 'Noto Sans JP', 'Helvetica Neue', Helvetica, Arial, sans-serif" font-size="14" lengthAdjust="spacing" textLength="90.9996" x="605.5" y="651.8398">(raw DEFLATE)</text></g><!--entity crypto\n(AES-256-GCM)--><g class="entity" data-entity="crypto.n.AES-256-GCM." data-source-line="29" data-uid="ent0021" id="entity_crypto.n.AES-256-GCM."><rect fill="#F1F1F1" height="65.5598" rx="2.5" ry="2.5" style="stroke:#181818;stroke-width:0.5;" width="130.9996" x="388.5" y="600.0599"/><rect fill="#F1F1F1" height="10" style="stroke:#181818;stroke-width:0.5;" width="15" x="499.4996" y="605.0599"/><rect fill="#F1F1F1" height="2" style="stroke:#181818;stroke-width:0.5;" width="4" x="497.4996" y="607.0599"/><rect fill="#F1F1F1" height="2" style="stroke:#181818;stroke-width:0.5;" width="4" x="497.4996" y="611.0599"/><text fill="#000000" font-family="'Segoe UI', 'メイリオ', 'UDEV Gothic HSRFJPDOC', 'Hiragino Kaku Gothic ProN', 'ヒラギノ角ゴ ProN', 'Noto Sans JP', 'Helvetica Neue', Helvetica, Arial, sans-serif" font-size="14" lengthAdjust="spacing" textLength="41.9998" x="403.5" y="634.0598">crypto</text><text fill="#000000" font-family="'Segoe UI', 'メイリオ', 'UDEV Gothic HSRFJPDOC', 'Hiragino Kaku Gothic ProN', 'ヒラギノ角ゴ ProN', 'Noto Sans JP', 'Helvetica Neue', Helvetica, Arial, sans-serif" font-size="14" lengthAdjust="spacing" textLength="90.9996" x="403.5" y="651.8398">(AES-256-GCM)</text></g><!--entity potrIpAddr\n(????)--><g class="entity" data-entity="potrIpAddr.n......" data-source-line="33" data-uid="ent0023" id="entity_potrIpAddr.n......"><rect fill="#F1F1F1" height="65.5598" rx="2.5" ry="2.5" style="stroke:#181818;stroke-width:0.5;" width="109.9997" x="1127" y="928.0599"/><rect fill="#F1F1F1" height="10" style="stroke:#181818;stroke-width:0.5;" width="15" x="1216.9997" y="933.0599"/><rect fill="#F1F1F1" height="2" style="stroke:#181818;stroke-width:0.5;" width="4" x="1214.9997" y="935.0599"/><rect fill="#F1F1F1" height="2" style="stroke:#181818;stroke-width:0.5;" width="4" x="1214.9997" y="939.0599"/><text fill="#000000" font-family="'Segoe UI', 'メイリオ', 'UDEV Gothic HSRFJPDOC', 'Hiragino Kaku Gothic ProN', 'ヒラギノ角ゴ ProN', 'Noto Sans JP', 'Helvetica Neue', Helvetica, Arial, sans-serif" font-size="14" lengthAdjust="spacing" textLength="69.9997" x="1142" y="962.0598">potrIpAddr</text><text fill="#000000" font-family="'Segoe UI', 'メイリオ', 'UDEV Gothic HSRFJPDOC', 'Hiragino Kaku Gothic ProN', 'ヒラギノ角ゴ ProN', 'Noto Sans JP', 'Helvetica Neue', Helvetica, Arial, sans-serif" font-size="14" lengthAdjust="spacing" textLength="69.9997" x="1142" y="979.8398">(&#21517;&#21069;&#35299;&#27770;)</text></g><!--entity CTX--><g class="entity" data-entity="CTX" data-source-line="35" data-uid="ent0024" id="entity_CTX"><path d="M1198,209.0599 C1198,199.0599 1270.9997,199.0599 1270.9997,199.0599 C1270.9997,199.0599 1343.9995,199.0599 1343.9995,209.0599 L1343.9995,253.6198 C1343.9995,263.6198 1270.9997,263.6198 1270.9997,263.6198 C1270.9997,263.6198 1198,263.6198 1198,253.6198 L1198,209.0599" fill="#F1F1F1" style="stroke:#181818;stroke-width:0.5;"/><path d="M1198,209.0599 C1198,219.0599 1270.9997,219.0599 1270.9997,219.0599 C1270.9997,219.0599 1343.9995,219.0599 1343.9995,209.0599" fill="none" style="stroke:#181818;stroke-width:0.5;"/><text fill="#000000" font-family="'Segoe UI', 'メイリオ', 'UDEV Gothic HSRFJPDOC', 'Hiragino Kaku Gothic ProN', 'ヒラギノ角ゴ ProN', 'Noto Sans JP', 'Helvetica Neue', Helvetica, Arial, sans-serif" font-size="14" lengthAdjust="spacing" textLength="76.9997" x="1208" y="237.0598">PotrContext</text><text fill="#000000" font-family="'Segoe UI', 'メイリオ', 'UDEV Gothic HSRFJPDOC', 'Hiragino Kaku Gothic ProN', 'ヒラギノ角ゴ ProN', 'Noto Sans JP', 'Helvetica Neue', Helvetica, Arial, sans-serif" font-size="14" lengthAdjust="spacing" textLength="125.9995" x="1208" y="254.8398">(&#12475;&#12483;&#12471;&#12519;&#12531;&#20840;&#29366;&#24907;)</text></g><!--entity potrSendQueue--><g class="entity" data-entity="potrSendQueue" data-source-line="37" data-uid="ent0026" id="entity_potrSendQueue"><rect fill="#F1F1F1" height="47.7799" rx="2.5" ry="2.5" style="stroke:#181818;stroke-width:0.5;" width="130.9996" x="881.5" y="457.0599"/><rect fill="#F1F1F1" height="10" style="stroke:#181818;stroke-width:0.5;" width="15" x="992.4996" y="462.0599"/><rect fill="#F1F1F1" height="2" style="stroke:#181818;stroke-width:0.5;" width="4" x="990.4996" y="464.0599"/><rect fill="#F1F1F1" height="2" style="stroke:#181818;stroke-width:0.5;" width="4" x="990.4996" y="468.0599"/><text fill="#000000" font-family="'Segoe UI', 'メイリオ', 'UDEV Gothic HSRFJPDOC', 'Hiragino Kaku Gothic ProN', 'ヒラギノ角ゴ ProN', 'Noto Sans JP', 'Helvetica Neue', Helvetica, Arial, sans-serif" font-size="14" lengthAdjust="spacing" textLength="90.9996" x="896.5" y="491.0598">potrSendQueue</text></g><!--entity packet--><g class="entity" data-entity="packet" data-source-line="39" data-uid="ent0029" id="entity_packet"><rect fill="#F1F1F1" height="47.7799" rx="2.5" ry="2.5" style="stroke:#181818;stroke-width:0.5;" width="81.9998" x="551" y="457.0599"/><rect fill="#F1F1F1" height="10" style="stroke:#181818;stroke-width:0.5;" width="15" x="612.9998" y="462.0599"/><rect fill="#F1F1F1" height="2" style="stroke:#181818;stroke-width:0.5;" width="4" x="610.9998" y="464.0599"/><rect fill="#F1F1F1" height="2" style="stroke:#181818;stroke-width:0.5;" width="4" x="610.9998" y="468.0599"/><text fill="#000000" font-family="'Segoe UI', 'メイリオ', 'UDEV Gothic HSRFJPDOC', 'Hiragino Kaku Gothic ProN', 'ヒラギノ角ゴ ProN', 'Noto Sans JP', 'Helvetica Neue', Helvetica, Arial, sans-serif" font-size="14" lengthAdjust="spacing" textLength="41.9998" x="566" y="491.0598">packet</text></g><!--entity window--><g class="entity" data-entity="window" data-source-line="40" data-uid="ent0031" id="entity_window"><rect fill="#F1F1F1" height="47.7799" rx="2.5" ry="2.5" style="stroke:#181818;stroke-width:0.5;" width="81.9998" x="434" y="457.0599"/><rect fill="#F1F1F1" height="10" style="stroke:#181818;stroke-width:0.5;" width="15" x="495.9998" y="462.0599"/><rect fill="#F1F1F1" height="2" style="stroke:#181818;stroke-width:0.5;" width="4" x="493.9998" y="464.0599"/><rect fill="#F1F1F1" height="2" style="stroke:#181818;stroke-width:0.5;" width="4" x="493.9998" y="468.0599"/><text fill="#000000" font-family="'Segoe UI', 'メイリオ', 'UDEV Gothic HSRFJPDOC', 'Hiragino Kaku Gothic ProN', 'ヒラギノ角ゴ ProN', 'Noto Sans JP', 'Helvetica Neue', Helvetica, Arial, sans-serif" font-size="14" lengthAdjust="spacing" textLength="41.9998" x="449" y="491.0598">window</text></g><!--entity seqnum--><g class="entity" data-entity="seqnum" data-source-line="46" data-uid="ent0038" id="entity_seqnum"><rect fill="#F1F1F1" height="47.7799" rx="2.5" ry="2.5" style="stroke:#181818;stroke-width:0.5;" width="81.9998" x="246" y="457.0599"/><rect fill="#F1F1F1" height="10" style="stroke:#181818;stroke-width:0.5;" width="15" x="307.9998" y="462.0599"/><rect fill="#F1F1F1" height="2" style="stroke:#181818;stroke-width:0.5;" width="4" x="305.9998" y="464.0599"/><rect fill="#F1F1F1" height="2" style="stroke:#181818;stroke-width:0.5;" width="4" x="305.9998" y="468.0599"/><text fill="#000000" font-family="'Segoe UI', 'メイリオ', 'UDEV Gothic HSRFJPDOC', 'Hiragino Kaku Gothic ProN', 'ヒラギノ角ゴ ProN', 'Noto Sans JP', 'Helvetica Neue', Helvetica, Arial, sans-serif" font-size="14" lengthAdjust="spacing" textLength="41.9998" x="261" y="491.0598">seqnum</text></g><!--link potrOpenService to CTX--><g class="link" data-entity-1="potrOpenService" data-entity-2="CTX" data-source-line="36" data-uid="lnk25" id="link_potrOpenService_CTX"><path d="M1162.0497,121.3303 C1174.9829,135.4204 1191.7329,153.4204 1207,169.0599 C1216.5467,178.8395 1222.7979,185.091 1232.5279,194.5836" fill="none" id="potrOpenService-to-CTX" style="stroke:#181818;stroke-width:1;"/><polygon fill="#181818" points="1236.8226,198.7735,1233.1738,189.6255,1233.2437,195.2819,1227.5873,195.3518,1236.8226,198.7735" style="stroke:#181818;stroke-width:1;"/><text fill="#000000" font-family="'Segoe UI', 'メイリオ', 'UDEV Gothic HSRFJPDOC', 'Hiragino Kaku Gothic ProN', 'ヒラギノ角ゴ ProN', 'Noto Sans JP', 'Helvetica Neue', Helvetica, Arial, sans-serif" font-size="13" lengthAdjust="spacing" textLength="78.3121" x="1208" y="165.0599">&#29983;&#25104;&#12539;&#21021;&#26399;&#21270;</text></g><!--link potrSend to potrSendQueue--><g class="link" data-entity-1="potrSend" data-entity-2="potrSendQueue" data-source-line="37" data-uid="lnk27" id="link_potrSend_potrSendQueue"><path d="M948.8749,121.0808 C948.5157,190.042 947.5154,382.0983 947.1563,451.0482" fill="none" id="potrSend-to-potrSendQueue" style="stroke:#181818;stroke-width:1;"/><polygon fill="#181818" points="947.1251,457.0481,951.1719,448.0691,947.1511,452.0482,943.172,448.0274,947.1251,457.0481" style="stroke:#181818;stroke-width:1;"/><text fill="#000000" font-family="'Segoe UI', 'メイリオ', 'UDEV Gothic HSRFJPDOC', 'Hiragino Kaku Gothic ProN', 'ヒラギノ角ゴ ProN', 'Noto Sans JP', 'Helvetica Neue', Helvetica, Arial, sans-serif" font-size="13" lengthAdjust="spacing" textLength="97.5001" x="948" y="308.0599">&#12456;&#12524;&#12513;&#12531;&#12488; push</text></g><!--link potrCloseService to CTX--><g class="link" data-entity-1="potrCloseService" data-entity-2="CTX" data-source-line="38" data-uid="lnk28" id="link_potrCloseService_CTX"><path d="M1314.5247,121.1058 C1305.9793,142.7917 1295.5378,169.2895 1286.0776,193.297" fill="none" id="potrCloseService-to-CTX" style="stroke:#181818;stroke-width:1;"/><polygon fill="#181818" points="1283.8779,198.8792,1290.8989,191.9723,1285.711,194.2273,1283.4559,189.0394,1283.8779,198.8792" style="stroke:#181818;stroke-width:1;"/><text fill="#000000" font-family="'Segoe UI', 'メイリオ', 'UDEV Gothic HSRFJPDOC', 'Hiragino Kaku Gothic ProN', 'ヒラギノ角ゴ ProN', 'Noto Sans JP', 'Helvetica Neue', Helvetica, Arial, sans-serif" font-size="13" lengthAdjust="spacing" textLength="117.3121" x="1303" y="165.0599">&#12473;&#12524;&#12483;&#12489;&#20572;&#27490;&#12539;&#35299;&#25918;</text></g><!--link potrSendThread to packet--><g class="link" data-entity-1="potrSendThread" data-entity-2="packet" data-source-line="39" data-uid="lnk30" id="link_potrSendThread_packet"><path d="M650.3551,396.2505 C637.9263,414.3137 624.4171,433.9471 611.9995,451.994" fill="none" id="potrSendThread-to-packet" style="stroke:#181818;stroke-width:1;"/><polygon fill="#181818" points="608.5984,456.9369,616.9953,451.7899,611.4326,452.8178,610.4048,447.2551,608.5984,456.9369" style="stroke:#181818;stroke-width:1;"/></g><!--link potrSendThread to window--><g class="link" data-entity-1="potrSendThread" data-entity-2="window" data-source-line="40" data-uid="lnk32" id="link_potrSendThread_window"><path d="M624.389,396.2505 C592.1294,414.5646 553.294,436.6117 521.3919,454.7228" fill="none" id="potrSendThread-to-window" style="stroke:#181818;stroke-width:1;"/><polygon fill="#181818" points="516.1741,457.685,525.9756,456.7203,520.5223,455.2165,522.026,449.7632,516.1741,457.685" style="stroke:#181818;stroke-width:1;"/></g><!--link potrSendThread to compress--><g class="link" data-entity-1="potrSendThread" data-entity-2="compress" data-source-line="41" data-uid="lnk33" id="link_potrSendThread_compress"><path d="M691.1999,396.1311 C698.8538,404.9175 706.6923,415.3428 712,426.0599 C731.9126,466.267 743.066,515.1639 749.2865,555.3365 C750.064,560.3581 750.7645,565.2434 751.3954,569.9583 C751.4742,570.5477 750.7707,588.9654 750.8474,589.5494" fill="none" id="potrSendThread-to-compress" style="stroke:#181818;stroke-width:1;"/><polygon fill="#181818" points="751.6287,595.4983,754.4227,586.0541,750.9776,590.5409,746.4908,587.0958,751.6287,595.4983" style="stroke:#181818;stroke-width:1;"/></g><!--link potrSendThread to crypto--><g class="link" data-entity-1="potrSendThread" data-entity-2="crypto" data-source-line="42" data-uid="lnk34" id="link_potrSendThread_crypto"><path d="M670.2519,396.2901 C672.7691,424.9283 672.6648,472.7626 650,505.0599 C628.1916,536.1368 597.0819,513.9168 574,544.0599 C568.2366,551.5864 564.1311,560.4738 561.2229,569.6707 C561.0412,570.2455 560.8641,570.8215 560.6916,571.3985 C560.6484,571.5427 562.3024,589.7119 562.2598,589.8562" fill="none" id="potrSendThread-to-crypto" style="stroke:#181818;stroke-width:1;"/><polygon fill="#181818" points="560.563,595.6113,566.9449,588.1099,561.977,590.8154,559.2715,585.8475,560.563,595.6113" style="stroke:#181818;stroke-width:1;"/></g><!--link potrSendThread to potrSendQueue--><g class="link" data-entity-1="potrSendThread" data-entity-2="potrSendQueue" data-source-line="43" data-uid="lnk35" id="link_potrSendThread_potrSendQueue"><path d="M728.7938,396.1154 C775.1759,414.1712 832.8286,436.6146 879.2893,454.7011" fill="none" id="potrSendThread-to-potrSendQueue" style="stroke:#181818;stroke-width:1;"/><polygon fill="#181818" points="884.8806,456.8777,877.9448,449.8853,880.2212,455.0639,875.0426,457.3403,884.8806,456.8777" style="stroke:#181818;stroke-width:1;"/></g><!--link potrRecvThread to packet--><g class="link" data-entity-1="potrRecvThread" data-entity-2="packet" data-source-line="44" data-uid="lnk36" id="link_potrRecvThread_packet"><path d="M515.7494,396.2505 C531.9896,414.3137 550.0743,434.4282 566.2999,452.4751" fill="none" id="potrRecvThread-to-packet" style="stroke:#181818;stroke-width:1;"/><polygon fill="#181818" points="570.3114,456.9369,567.2687,447.5699,566.9685,453.2187,561.3196,452.9185,570.3114,456.9369" style="stroke:#181818;stroke-width:1;"/></g><!--link potrRecvThread to window--><g class="link" data-entity-1="potrRecvThread" data-entity-2="window" data-source-line="45" data-uid="lnk37" id="link_potrRecvThread_window"><path d="M489.7833,396.2505 C486.6347,414.3137 483.381,432.9791 480.2352,451.026" fill="none" id="potrRecvThread-to-window" style="stroke:#181818;stroke-width:1;"/><polygon fill="#181818" points="479.2049,456.9369,484.691,448.7575,480.0635,452.0112,476.8098,447.3837,479.2049,456.9369" style="stroke:#181818;stroke-width:1;"/></g><!--link potrRecvThread to seqnum--><g class="link" data-entity-1="potrRecvThread" data-entity-2="seqnum" data-source-line="46" data-uid="lnk39" id="link_potrRecvThread_seqnum"><path d="M429.4893,396.09 C396.6464,408.5106 362.1394,421.9215 355,426.0599 C340.1558,434.6643 329.717,442.4774 317.6036,452.8911" fill="none" id="potrRecvThread-to-seqnum" style="stroke:#181818;stroke-width:1;"/><polygon fill="#181818" points="313.0538,456.8025,322.4861,453.9686,316.8453,453.543,317.2709,447.9022,313.0538,456.8025" style="stroke:#181818;stroke-width:1;"/></g><!--link potrRecvThread to compress--><g class="link" data-entity-1="potrRecvThread" data-entity-2="compress" data-source-line="47" data-uid="lnk40" id="link_potrRecvThread_compress"><path d="M430.0237,396.1236 C422.2921,398.874 414.4851,401.5781 407,404.0599 C328.2466,430.1721 277.6465,390.583 228,457.0599 C215.2348,474.1526 213.5004,489.4115 228,505.0599 C305.4047,588.5973 653.659,468.6485 739,544.0599 C746.206,550.4274 750.9998,558.8137 754.122,567.895 C754.5122,569.0302 754.8764,570.1762 755.2159,571.3306 C755.2583,571.4748 753.6384,589.6339 753.6801,589.7785" fill="none" id="potrRecvThread-to-compress" style="stroke:#181818;stroke-width:1;"/><polygon fill="#181818" points="755.342,595.5437,756.6927,585.7879,753.9571,590.7394,749.0057,588.0038,755.342,595.5437" style="stroke:#181818;stroke-width:1;"/></g><!--link potrRecvThread to crypto--><g class="link" data-entity-1="potrRecvThread" data-entity-2="crypto" data-source-line="48" data-uid="lnk41" id="link_potrRecvThread_crypto"><path d="M462.4436,396.2516 C430.6474,423.6096 389.7604,469.0337 416,505.0599 C449.265,550.7319 499.3509,501.9287 537,544.0599 C543.3025,551.1127 547.6395,559.7485 550.5861,568.8377 C550.7702,569.4058 550.9489,569.9756 551.1224,570.547 C551.2091,570.8326 551.2945,571.1187 551.3786,571.4051 C551.4206,571.5483 549.7978,589.707 549.8392,589.8503" fill="none" id="potrRecvThread-to-crypto" style="stroke:#181818;stroke-width:1;"/><polygon fill="#181818" points="551.5038,595.6148,552.85,585.8584,550.1166,590.8111,545.164,588.0778,551.5038,595.6148" style="stroke:#181818;stroke-width:1;"/></g><!--link api to thread--><!--link thread to infra--><!--link api to protocol--><!--link protocol to util--><!--SRC=[TLHDQnD16BxlhnXwCeT54FGWfH1Y_82A7yb1g3bCizDawMPcdPqq5Yde3gs9DH2XzL1QIwoOM9je4HID-6U6pTP_uUpiRh99pBAmi-_pFk_NF3EB3jkqq9AsU3bQEEicjY655R0AY-ibIghOo12BKC0en8w446OQCvc5W4qeGnG8zvlWyZqI_BVWJRMk3pkxmtfBisKGM49W0Thc0dYc0R1Y4qRlsGZd4DqmYwWGst886wEVZ4KSDFBO6iTXPOgWaGZr41Ktyieu4MdAT1j1YvLZOoAUJGaZHMB54QKTiSVuak1lX7ikE0zxyRyq11zST4w6xref5RLcOeFK0a_tf-2VXFj1y9V2FGdQTxyAzsEqvWsv3YaEUeAh5Kdv-_p0tp_r-ss_jHD2HOBNp9A4BhezhtyW-Bvmsohcvr7IHDKcNgCmCOIWumTLL4MgyjEe1jvIzGUXKgD9B9EISke9jn_x3SAioccKeqWgDaME4wPHDOO6IQUm1cvaRowdyrb5sfeWqasRaJ5D_KfIEflJhrozfj_At8r8YOwgpBGI3TsnquP19SbhDRr6CvZ1-Iyr0mCok0eTIRaVw8HWXfwg3NC7GRVk3y4xiYzlk-k_-ZxStaqj0EY0JFwHDgCyeEjB0GAk0t_lMCfLJiAh7mqFZxtNRxMnA9NVv9mBaYFShk1dWhT3nGExwfIrMVKciYYfdAbDQNWl3eUzzv6ezlveqygDaYez5kQWeGRdeV5-pSNLnin39zlLfi_QVygRGIVAcq73qp0FdIf-5e-Ab_SAq5VAfc4WND3ry7hGmayI0Eh8JBlB1yGtW1OlaWw1BFy1]--></g></svg>