<svg xmlns="http://www.w3.org/2000/svg" xmlns:xlink="http://www.w3.org/1999/xlink" contentStyleType="text/css" data-diagram-type="ACTIVITY" height="767px" preserveAspectRatio="none" style="width:932px;height:767px;" version="1.1" viewBox="0 0 932 767" width="932px" zoomAndPan="magnify"><defs/><g><ellipse cx="396.6272" cy="20" fill="#222222" rx="10" ry="10" style="stroke:#222222;stroke-width:1;"/><rect fill="#F1F1F1" height="35.2401" rx="12.5" ry="12.5" style="stroke:#181818;stroke-width:0.5;" width="218.0015" x="287.6264" y="50"/><text fill="#000000" font-family="'Segoe UI', 'メイリオ', 'UDEV Gothic HSRFJPDOC', 'Hiragino Kaku Gothic ProN', 'ヒラギノ角ゴ ProN', 'Noto Sans JP', 'Helvetica Neue', Helvetica, Arial, sans-serif" font-size="12" lengthAdjust="spacing" textLength="198.0015" x="297.6264" y="72.0001">&#26368;&#32066;&#38542;&#23652; makefile (__template.mk)</text><rect fill="#F1F1F1" height="35.2401" rx="12.5" ry="12.5" style="stroke:#181818;stroke-width:0.5;" width="242.0017" x="275.6263" y="105.2401"/><text fill="#000000" font-family="'Segoe UI', 'メイリオ', 'UDEV Gothic HSRFJPDOC', 'Hiragino Kaku Gothic ProN', 'ヒラギノ角ゴ ProN', 'Noto Sans JP', 'Helvetica Neue', Helvetica, Arial, sans-serif" font-size="12" lengthAdjust="spacing" textLength="222.0017" x="285.6263" y="127.2402">(1) &#12527;&#12540;&#12463;&#12473;&#12506;&#12540;&#12473;&#26908;&#32034; (find-up &#38306;&#25968;)</text><path d="M501.6277,156.5903 L501.6277,174.1003 L481.6277,178.1003 L501.6277,182.1003 L501.6277,199.6103 A0,0 0 0 0 501.6277,199.6103 L795.6279,199.6103 A0,0 0 0 0 795.6279,199.6103 L795.6279,166.5903 L785.6279,156.5903 L501.6277,156.5903 A0,0 0 0 0 501.6277,156.5903" fill="#FEFFDD" style="stroke:#181818;stroke-width:0.5;"/><path d="M785.6279,156.5903 L785.6279,166.5903 L795.6279,166.5903 L785.6279,156.5903" fill="#FEFFDD" style="stroke:#181818;stroke-width:0.5;"/><text fill="#000000" font-family="'Segoe UI', 'メイリオ', 'UDEV Gothic HSRFJPDOC', 'Hiragino Kaku Gothic ProN', 'ヒラギノ角ゴ ProN', 'Noto Sans JP', 'Helvetica Neue', Helvetica, Arial, sans-serif" font-size="13" lengthAdjust="spacing" textLength="221.0001" x="507.6277" y="174.5903">- &#12467;&#12531;&#12497;&#12452;&#12521;&#35373;&#23450; (CC, CXX, LD, AR)</text><text fill="#000000" font-family="'Segoe UI', 'メイリオ', 'UDEV Gothic HSRFJPDOC', 'Hiragino Kaku Gothic ProN', 'ヒラギノ角ゴ ProN', 'Noto Sans JP', 'Helvetica Neue', Helvetica, Arial, sans-serif" font-size="13" lengthAdjust="spacing" textLength="273.0002" x="507.6277" y="191.1003">- makepart.mk &#12398;&#35501;&#12415;&#36796;&#12415;&#65288;&#35242;&#38542;&#23652;&#12363;&#12425;&#38918;&#27425;&#65289;</text><rect fill="#F1F1F1" height="35.2401" rx="12.5" ry="12.5" style="stroke:#181818;stroke-width:0.5;" width="170.0011" x="311.6266" y="160.4802"/><text fill="#000000" font-family="'Segoe UI', 'メイリオ', 'UDEV Gothic HSRFJPDOC', 'Hiragino Kaku Gothic ProN', 'ヒラギノ角ゴ ProN', 'Noto Sans JP', 'Helvetica Neue', Helvetica, Arial, sans-serif" font-size="12" lengthAdjust="spacing" textLength="150.0011" x="321.6266" y="182.4803">(2) prepare.mk &#12434; include</text><rect fill="#F1F1F1" height="35.2401" rx="12.5" ry="12.5" style="stroke:#181818;stroke-width:0.5;" width="176.0012" x="308.6266" y="219.6103"/><text fill="#000000" font-family="'Segoe UI', 'メイリオ', 'UDEV Gothic HSRFJPDOC', 'Hiragino Kaku Gothic ProN', 'ヒラギノ角ゴ ProN', 'Noto Sans JP', 'Helvetica Neue', Helvetica, Arial, sans-serif" font-size="12" lengthAdjust="spacing" textLength="156.0012" x="318.6266" y="241.6104">(3) makemain.mk &#12434; include</text><path d="M498.6277,270.9604 L498.6277,288.4704 L478.6277,292.4704 L498.6277,296.4704 L498.6277,313.9805 A0,0 0 0 0 498.6277,313.9805 L727.6277,313.9805 A0,0 0 0 0 727.6277,313.9805 L727.6277,280.9604 L717.6277,270.9604 L498.6277,270.9604 A0,0 0 0 0 498.6277,270.9604" fill="#FEFFDD" style="stroke:#181818;stroke-width:0.5;"/><path d="M717.6277,270.9604 L717.6277,280.9604 L727.6277,280.9604 L717.6277,270.9604" fill="#FEFFDD" style="stroke:#181818;stroke-width:0.5;"/><text fill="#000000" font-family="'Segoe UI', 'メイリオ', 'UDEV Gothic HSRFJPDOC', 'Hiragino Kaku Gothic ProN', 'ヒラギノ角ゴ ProN', 'Noto Sans JP', 'Helvetica Neue', Helvetica, Arial, sans-serif" font-size="13" lengthAdjust="spacing" textLength="208" x="504.6277" y="288.9604">GNUmakefile/makefile/Makefile &#12434;</text><text fill="#000000" font-family="'Segoe UI', 'メイリオ', 'UDEV Gothic HSRFJPDOC', 'Hiragino Kaku Gothic ProN', 'ヒラギノ角ゴ ProN', 'Noto Sans JP', 'Helvetica Neue', Helvetica, Arial, sans-serif" font-size="13" lengthAdjust="spacing" textLength="169.0002" x="504.6277" y="305.4705">&#21547;&#12416;&#12469;&#12502;&#12487;&#12451;&#12524;&#12463;&#12488;&#12522;&#12434;&#26908;&#20986;</text><rect fill="#F1F1F1" height="35.2401" rx="12.5" ry="12.5" style="stroke:#181818;stroke-width:0.5;" width="164.0011" x="314.6266" y="274.8504"/><text fill="#000000" font-family="'Segoe UI', 'メイリオ', 'UDEV Gothic HSRFJPDOC', 'Hiragino Kaku Gothic ProN', 'ヒラギノ角ゴ ProN', 'Noto Sans JP', 'Helvetica Neue', Helvetica, Arial, sans-serif" font-size="12" lengthAdjust="spacing" textLength="144.0011" x="324.6266" y="296.8505">(4) &#12469;&#12502;&#12487;&#12451;&#12524;&#12463;&#12488;&#12522;&#26908;&#20986;</text><path d="M546.6281,323.9805 L546.6281,366.2555 L526.6281,370.2555 L546.6281,374.2555 L546.6281,416.5305 A0,0 0 0 0 546.6281,416.5305 L860.1284,416.5305 A0,0 0 0 0 860.1284,416.5305 L860.1284,333.9805 L850.1284,323.9805 L546.6281,323.9805 A0,0 0 0 0 546.6281,323.9805" fill="#FEFFDD" style="stroke:#181818;stroke-width:0.5;"/><path d="M850.1284,323.9805 L850.1284,333.9805 L860.1284,333.9805 L850.1284,323.9805" fill="#FEFFDD" style="stroke:#181818;stroke-width:0.5;"/><text fill="#000000" font-family="'Segoe UI', 'メイリオ', 'UDEV Gothic HSRFJPDOC', 'Hiragino Kaku Gothic ProN', 'ヒラギノ角ゴ ProN', 'Noto Sans JP', 'Helvetica Neue', Helvetica, Arial, sans-serif" font-size="13" lengthAdjust="spacing" textLength="292.5003" x="552.6281" y="341.9805">&#26368;&#32066;&#12487;&#12451;&#12524;&#12463;&#12488;&#12522;&#21517; (&#22823;&#25991;&#23383;&#23567;&#25991;&#23383;&#28961;&#35222;) &#12391;&#21028;&#23450;:</text><text fill="#000000" font-family="'Segoe UI', 'メイリオ', 'UDEV Gothic HSRFJPDOC', 'Hiragino Kaku Gothic ProN', 'ヒラギノ角ゴ ProN', 'Noto Sans JP', 'Helvetica Neue', Helvetica, Arial, sans-serif" font-size="13" lengthAdjust="spacing" textLength="175.5001" x="552.6281" y="358.4905">"linux"   &#8594; Linux &#12398;&#12415;&#26377;&#21177;</text><text fill="#000000" font-family="'Segoe UI', 'メイリオ', 'UDEV Gothic HSRFJPDOC', 'Hiragino Kaku Gothic ProN', 'ヒラギノ角ゴ ProN', 'Noto Sans JP', 'Helvetica Neue', Helvetica, Arial, sans-serif" font-size="13" lengthAdjust="spacing" textLength="188.5001" x="552.6281" y="375.0005">"windows" &#8594; Windows &#12398;&#12415;&#26377;&#21177;</text><text fill="#000000" font-family="'Segoe UI', 'メイリオ', 'UDEV Gothic HSRFJPDOC', 'Hiragino Kaku Gothic ProN', 'ヒラギノ角ゴ ProN', 'Noto Sans JP', 'Helvetica Neue', Helvetica, Arial, sans-serif" font-size="13" lengthAdjust="spacing" textLength="214.5001" x="552.6281" y="391.5105">"shared" / &#12381;&#12398;&#20182; &#8594; &#20001; OS &#12391;&#26377;&#21177;</text><text fill="#000000" font-family="'Segoe UI', 'メイリオ', 'UDEV Gothic HSRFJPDOC', 'Hiragino Kaku Gothic ProN', 'ヒラギノ角ゴ ProN', 'Noto Sans JP', 'Helvetica Neue', Helvetica, Arial, sans-serif" font-size="13" lengthAdjust="spacing" textLength="221" x="552.6281" y="408.0205">&#35443;&#32048;: os-subdirectory-filtering.md</text><rect fill="#F1F1F1" height="35.2401" rx="12.5" ry="12.5" style="stroke:#181818;stroke-width:0.5;" width="260.0018" x="266.6262" y="352.6354"/><text fill="#000000" font-family="'Segoe UI', 'メイリオ', 'UDEV Gothic HSRFJPDOC', 'Hiragino Kaku Gothic ProN', 'ヒラギノ角ゴ ProN', 'Noto Sans JP', 'Helvetica Neue', Helvetica, Arial, sans-serif" font-size="12" lengthAdjust="spacing" textLength="240.0018" x="276.6262" y="374.6355">(5) &#12469;&#12502;&#12487;&#12451;&#12524;&#12463;&#12488;&#12522;&#12398; OS &#12501;&#12451;&#12523;&#12479;&#12522;&#12531;&#12464;</text><rect fill="#F1F1F1" height="35.2401" rx="12.5" ry="12.5" style="stroke:#181818;stroke-width:0.5;" width="152.001" x="320.6267" y="436.5305"/><text fill="#000000" font-family="'Segoe UI', 'メイリオ', 'UDEV Gothic HSRFJPDOC', 'Hiragino Kaku Gothic ProN', 'ヒラギノ角ゴ ProN', 'Noto Sans JP', 'Helvetica Neue', Helvetica, Arial, sans-serif" font-size="12" lengthAdjust="spacing" textLength="132.001" x="330.6267" y="458.5306">(6) &#12497;&#12473;&#21028;&#23450;&#12395;&#12424;&#12427;&#20998;&#23696;</text><polygon fill="#F1F1F1" points="333.3776,491.7706,459.8767,491.7706,471.8767,503.7706,459.8767,515.7706,333.3776,515.7706,321.3776,503.7706,333.3776,491.7706" style="stroke:#181818;stroke-width:0.5;"/><text fill="#000000" font-family="'Segoe UI', 'メイリオ', 'UDEV Gothic HSRFJPDOC', 'Hiragino Kaku Gothic ProN', 'ヒラギノ角ゴ ProN', 'Noto Sans JP', 'Helvetica Neue', Helvetica, Arial, sans-serif" font-size="11" lengthAdjust="spacing" textLength="126.499" x="333.3776" y="507.7856">&#12497;&#12473;&#12395; /libsrc/ &#12434;&#21547;&#12416;?</text><text fill="#000000" font-family="'Segoe UI', 'メイリオ', 'UDEV Gothic HSRFJPDOC', 'Hiragino Kaku Gothic ProN', 'ヒラギノ角ゴ ProN', 'Noto Sans JP', 'Helvetica Neue', Helvetica, Arial, sans-serif" font-size="11" lengthAdjust="spacing" textLength="16.4999" x="304.8778" y="500.8007">yes</text><text fill="#000000" font-family="'Segoe UI', 'メイリオ', 'UDEV Gothic HSRFJPDOC', 'Hiragino Kaku Gothic ProN', 'ヒラギノ角ゴ ProN', 'Noto Sans JP', 'Helvetica Neue', Helvetica, Arial, sans-serif" font-size="11" lengthAdjust="spacing" textLength="10.9999" x="471.8767" y="500.8007">no</text><rect fill="#F1F1F1" height="35.2401" rx="12.5" ry="12.5" style="stroke:#181818;stroke-width:0.5;" width="80.0005" x="119.5007" y="525.7706"/><text fill="#000000" font-family="'Segoe UI', 'メイリオ', 'UDEV Gothic HSRFJPDOC', 'Hiragino Kaku Gothic ProN', 'ヒラギノ角ゴ ProN', 'Noto Sans JP', 'Helvetica Neue', Helvetica, Arial, sans-serif" font-size="12" lengthAdjust="spacing" textLength="60.0005" x="129.5007" y="547.7707">&#12521;&#12452;&#12502;&#12521;&#12522;</text><polygon fill="#F1F1F1" points="118.2512,596.0107,200.7506,596.0107,212.7506,608.0107,200.7506,620.0107,118.2512,620.0107,106.2512,608.0107,118.2512,596.0107" style="stroke:#181818;stroke-width:0.5;"/><text fill="#000000" font-family="'Segoe UI', 'メイリオ', 'UDEV Gothic HSRFJPDOC', 'Hiragino Kaku Gothic ProN', 'ヒラギノ角ゴ ProN', 'Noto Sans JP', 'Helvetica Neue', Helvetica, Arial, sans-serif" font-size="11" lengthAdjust="spacing" textLength="82.4994" x="118.2512" y="612.0257">.csproj &#12364;&#23384;&#22312;?</text><text fill="#000000" font-family="'Segoe UI', 'メイリオ', 'UDEV Gothic HSRFJPDOC', 'Hiragino Kaku Gothic ProN', 'ヒラギノ角ゴ ProN', 'Noto Sans JP', 'Helvetica Neue', Helvetica, Arial, sans-serif" font-size="11" lengthAdjust="spacing" textLength="16.4999" x="89.7514" y="605.0408">yes</text><text fill="#000000" font-family="'Segoe UI', 'メイリオ', 'UDEV Gothic HSRFJPDOC', 'Hiragino Kaku Gothic ProN', 'ヒラギノ角ゴ ProN', 'Noto Sans JP', 'Helvetica Neue', Helvetica, Arial, sans-serif" font-size="11" lengthAdjust="spacing" textLength="10.9999" x="212.7506" y="605.0408">no</text><rect fill="#F1F1F1" height="35.2401" rx="12.5" ry="12.5" style="stroke:#181818;stroke-width:0.5;" width="140.0009" x="11" y="630.0107"/><text fill="#000000" font-family="'Segoe UI', 'メイリオ', 'UDEV Gothic HSRFJPDOC', 'Hiragino Kaku Gothic ProN', 'ヒラギノ角ゴ ProN', 'Noto Sans JP', 'Helvetica Neue', Helvetica, Arial, sans-serif" font-size="12" lengthAdjust="spacing" textLength="120.0009" x="21" y="652.0108">makelibsrc_dotnet.mk</text><ellipse cx="81.0005" cy="711.2508" fill="none" rx="11" ry="11" style="stroke:#222222;stroke-width:1;"/><ellipse cx="81.0005" cy="711.2508" fill="#222222" rx="6" ry="6" style="stroke:#222222;stroke-width:1;"/><rect fill="#F1F1F1" height="35.2401" rx="12.5" ry="12.5" style="stroke:#181818;stroke-width:0.5;" width="134.0009" x="171.0009" y="630.0107"/><text fill="#000000" font-family="'Segoe UI', 'メイリオ', 'UDEV Gothic HSRFJPDOC', 'Hiragino Kaku Gothic ProN', 'ヒラギノ角ゴ ProN', 'Noto Sans JP', 'Helvetica Neue', Helvetica, Arial, sans-serif" font-size="12" lengthAdjust="spacing" textLength="114.0009" x="181.0009" y="652.0108">makelibsrc_c_cpp.mk</text><ellipse cx="238.0014" cy="711.2508" fill="none" rx="11" ry="11" style="stroke:#222222;stroke-width:1;"/><ellipse cx="238.0014" cy="711.2508" fill="#222222" rx="6" ry="6" style="stroke:#222222;stroke-width:1;"/><polygon fill="#F1F1F1" points="578.7538,525.7706,688.753,525.7706,700.753,537.7706,688.753,549.7706,578.7538,549.7706,566.7538,537.7706,578.7538,525.7706" style="stroke:#181818;stroke-width:0.5;"/><text fill="#000000" font-family="'Segoe UI', 'メイリオ', 'UDEV Gothic HSRFJPDOC', 'Hiragino Kaku Gothic ProN', 'ヒラギノ角ゴ ProN', 'Noto Sans JP', 'Helvetica Neue', Helvetica, Arial, sans-serif" font-size="11" lengthAdjust="spacing" textLength="109.9992" x="578.7538" y="541.7856">&#12497;&#12473;&#12395; /src/ &#12434;&#21547;&#12416;?</text><text fill="#000000" font-family="'Segoe UI', 'メイリオ', 'UDEV Gothic HSRFJPDOC', 'Hiragino Kaku Gothic ProN', 'ヒラギノ角ゴ ProN', 'Noto Sans JP', 'Helvetica Neue', Helvetica, Arial, sans-serif" font-size="11" lengthAdjust="spacing" textLength="16.4999" x="550.254" y="534.8007">yes</text><text fill="#000000" font-family="'Segoe UI', 'メイリオ', 'UDEV Gothic HSRFJPDOC', 'Hiragino Kaku Gothic ProN', 'ヒラギノ角ゴ ProN', 'Noto Sans JP', 'Helvetica Neue', Helvetica, Arial, sans-serif" font-size="11" lengthAdjust="spacing" textLength="10.9999" x="700.753" y="534.8007">no</text><rect fill="#F1F1F1" height="35.2401" rx="12.5" ry="12.5" style="stroke:#181818;stroke-width:0.5;" width="56.0003" x="457.5024" y="559.7706"/><text fill="#000000" font-family="'Segoe UI', 'メイリオ', 'UDEV Gothic HSRFJPDOC', 'Hiragino Kaku Gothic ProN', 'ヒラギノ角ゴ ProN', 'Noto Sans JP', 'Helvetica Neue', Helvetica, Arial, sans-serif" font-size="12" lengthAdjust="spacing" textLength="36.0003" x="467.5024" y="581.7707">&#23455;&#34892;&#20307;</text><polygon fill="#F1F1F1" points="444.2529,630.0107,526.7522,630.0107,538.7522,642.0107,526.7522,654.0107,444.2529,654.0107,432.2529,642.0107,444.2529,630.0107" style="stroke:#181818;stroke-width:0.5;"/><text fill="#000000" font-family="'Segoe UI', 'メイリオ', 'UDEV Gothic HSRFJPDOC', 'Hiragino Kaku Gothic ProN', 'ヒラギノ角ゴ ProN', 'Noto Sans JP', 'Helvetica Neue', Helvetica, Arial, sans-serif" font-size="11" lengthAdjust="spacing" textLength="82.4994" x="444.2529" y="646.0257">.csproj &#12364;&#23384;&#22312;?</text><text fill="#000000" font-family="'Segoe UI', 'メイリオ', 'UDEV Gothic HSRFJPDOC', 'Hiragino Kaku Gothic ProN', 'ヒラギノ角ゴ ProN', 'Noto Sans JP', 'Helvetica Neue', Helvetica, Arial, sans-serif" font-size="11" lengthAdjust="spacing" textLength="16.4999" x="415.753" y="639.0408">yes</text><text fill="#000000" font-family="'Segoe UI', 'メイリオ', 'UDEV Gothic HSRFJPDOC', 'Hiragino Kaku Gothic ProN', 'ヒラギノ角ゴ ProN', 'Noto Sans JP', 'Helvetica Neue', Helvetica, Arial, sans-serif" font-size="11" lengthAdjust="spacing" textLength="10.9999" x="538.7522" y="639.0408">no</text><rect fill="#F1F1F1" height="35.2401" rx="12.5" ry="12.5" style="stroke:#181818;stroke-width:0.5;" width="122.0008" x="355.0018" y="664.0107"/><text fill="#000000" font-family="'Segoe UI', 'メイリオ', 'UDEV Gothic HSRFJPDOC', 'Hiragino Kaku Gothic ProN', 'ヒラギノ角ゴ ProN', 'Noto Sans JP', 'Helvetica Neue', Helvetica, Arial, sans-serif" font-size="12" lengthAdjust="spacing" textLength="102.0008" x="365.0018" y="686.0108">makesrc_dotnet.mk</text><ellipse cx="416.0022" cy="745.2508" fill="none" rx="11" ry="11" style="stroke:#222222;stroke-width:1;"/><ellipse cx="416.0022" cy="745.2508" fill="#222222" rx="6" ry="6" style="stroke:#222222;stroke-width:1;"/><rect fill="#F1F1F1" height="35.2401" rx="12.5" ry="12.5" style="stroke:#181818;stroke-width:0.5;" width="116.0007" x="497.0026" y="664.0107"/><text fill="#000000" font-family="'Segoe UI', 'メイリオ', 'UDEV Gothic HSRFJPDOC', 'Hiragino Kaku Gothic ProN', 'ヒラギノ角ゴ ProN', 'Noto Sans JP', 'Helvetica Neue', Helvetica, Arial, sans-serif" font-size="12" lengthAdjust="spacing" textLength="96.0007" x="507.0026" y="686.0108">makesrc_c_cpp.mk</text><ellipse cx="555.0029" cy="745.2508" fill="none" rx="11" ry="11" style="stroke:#222222;stroke-width:1;"/><ellipse cx="555.0029" cy="745.2508" fill="#222222" rx="6" ry="6" style="stroke:#222222;stroke-width:1;"/><rect fill="#F1F1F1" height="35.2401" rx="12.5" ry="12.5" style="stroke:#181818;stroke-width:0.5;" width="278.002" x="643.0033" y="559.7706"/><text fill="#000000" font-family="'Segoe UI', 'メイリオ', 'UDEV Gothic HSRFJPDOC', 'Hiragino Kaku Gothic ProN', 'ヒラギノ角ゴ ProN', 'Noto Sans JP', 'Helvetica Neue', Helvetica, Arial, sans-serif" font-size="12" lengthAdjust="spacing" textLength="258.002" x="653.0033" y="581.7707">&#12456;&#12521;&#12540;: &#12497;&#12473;&#12395; /libsrc/ &#12414;&#12383;&#12399; /src/ &#12364;&#24517;&#35201;</text><ellipse cx="782.0043" cy="641.0107" fill="none" rx="11" ry="11" style="stroke:#222222;stroke-width:1;"/><ellipse cx="782.0043" cy="641.0107" fill="#222222" rx="6" ry="6" style="stroke:#222222;stroke-width:1;"/><line style="stroke:#181818;stroke-width:1;" x1="396.6272" x2="396.6272" y1="30" y2="50"/><polygon fill="#181818" points="392.6272,40,396.6272,50,400.6272,40,396.6272,44" style="stroke:#181818;stroke-width:1;"/><line style="stroke:#181818;stroke-width:1;" x1="396.6272" x2="396.6272" y1="85.2401" y2="105.2401"/><polygon fill="#181818" points="392.6272,95.2401,396.6272,105.2401,400.6272,95.2401,396.6272,99.2401" style="stroke:#181818;stroke-width:1;"/><line style="stroke:#181818;stroke-width:1;" x1="396.6272" x2="396.6272" y1="140.4802" y2="160.4802"/><polygon fill="#181818" points="392.6272,150.4802,396.6272,160.4802,400.6272,150.4802,396.6272,154.4802" style="stroke:#181818;stroke-width:1;"/><line style="stroke:#181818;stroke-width:1;" x1="396.6272" x2="396.6272" y1="195.7203" y2="219.6103"/><polygon fill="#181818" points="392.6272,209.6103,396.6272,219.6103,400.6272,209.6103,396.6272,213.6103" style="stroke:#181818;stroke-width:1;"/><line style="stroke:#181818;stroke-width:1;" x1="396.6272" x2="396.6272" y1="254.8504" y2="274.8504"/><polygon fill="#181818" points="392.6272,264.8504,396.6272,274.8504,400.6272,264.8504,396.6272,268.8504" style="stroke:#181818;stroke-width:1;"/><line style="stroke:#181818;stroke-width:1;" x1="396.6272" x2="396.6272" y1="310.0905" y2="352.6354"/><polygon fill="#181818" points="392.6272,342.6354,396.6272,352.6354,400.6272,342.6354,396.6272,346.6354" style="stroke:#181818;stroke-width:1;"/><line style="stroke:#181818;stroke-width:1;" x1="396.6272" x2="396.6272" y1="387.8755" y2="436.5305"/><polygon fill="#181818" points="392.6272,426.5305,396.6272,436.5305,400.6272,426.5305,396.6272,430.5305" style="stroke:#181818;stroke-width:1;"/><line style="stroke:#181818;stroke-width:1;" x1="81.0005" x2="81.0005" y1="665.2508" y2="700.2508"/><polygon fill="#181818" points="77.0005,690.2508,81.0005,700.2508,85.0005,690.2508,81.0005,694.2508" style="stroke:#181818;stroke-width:1;"/><line style="stroke:#181818;stroke-width:1;" x1="238.0014" x2="238.0014" y1="665.2508" y2="700.2508"/><polygon fill="#181818" points="234.0014,690.2508,238.0014,700.2508,242.0014,690.2508,238.0014,694.2508" style="stroke:#181818;stroke-width:1;"/><line style="stroke:#181818;stroke-width:1;" x1="106.2512" x2="81.0005" y1="608.0107" y2="608.0107"/><line style="stroke:#181818;stroke-width:1;" x1="81.0005" x2="81.0005" y1="608.0107" y2="630.0107"/><polygon fill="#181818" points="77.0005,620.0107,81.0005,630.0107,85.0005,620.0107,81.0005,624.0107" style="stroke:#181818;stroke-width:1;"/><line style="stroke:#181818;stroke-width:1;" x1="212.7506" x2="238.0014" y1="608.0107" y2="608.0107"/><line style="stroke:#181818;stroke-width:1;" x1="238.0014" x2="238.0014" y1="608.0107" y2="630.0107"/><polygon fill="#181818" points="234.0014,620.0107,238.0014,630.0107,242.0014,620.0107,238.0014,624.0107" style="stroke:#181818;stroke-width:1;"/><line style="stroke:#181818;stroke-width:1;" x1="159.5009" x2="159.5009" y1="561.0107" y2="596.0107"/><polygon fill="#181818" points="155.5009,586.0107,159.5009,596.0107,163.5009,586.0107,159.5009,590.0107" style="stroke:#181818;stroke-width:1;"/><line style="stroke:#181818;stroke-width:1;" x1="416.0022" x2="416.0022" y1="699.2508" y2="734.2508"/><polygon fill="#181818" points="412.0022,724.2508,416.0022,734.2508,420.0022,724.2508,416.0022,728.2508" style="stroke:#181818;stroke-width:1;"/><line style="stroke:#181818;stroke-width:1;" x1="555.0029" x2="555.0029" y1="699.2508" y2="734.2508"/><polygon fill="#181818" points="551.0029,724.2508,555.0029,734.2508,559.0029,724.2508,555.0029,728.2508" style="stroke:#181818;stroke-width:1;"/><line style="stroke:#181818;stroke-width:1;" x1="432.2529" x2="416.0022" y1="642.0107" y2="642.0107"/><line style="stroke:#181818;stroke-width:1;" x1="416.0022" x2="416.0022" y1="642.0107" y2="664.0107"/><polygon fill="#181818" points="412.0022,654.0107,416.0022,664.0107,420.0022,654.0107,416.0022,658.0107" style="stroke:#181818;stroke-width:1;"/><line style="stroke:#181818;stroke-width:1;" x1="538.7522" x2="555.0029" y1="642.0107" y2="642.0107"/><line style="stroke:#181818;stroke-width:1;" x1="555.0029" x2="555.0029" y1="642.0107" y2="664.0107"/><polygon fill="#181818" points="551.0029,654.0107,555.0029,664.0107,559.0029,654.0107,555.0029,658.0107" style="stroke:#181818;stroke-width:1;"/><line style="stroke:#181818;stroke-width:1;" x1="485.5026" x2="485.5026" y1="595.0107" y2="630.0107"/><polygon fill="#181818" points="481.5026,620.0107,485.5026,630.0107,489.5026,620.0107,485.5026,624.0107" style="stroke:#181818;stroke-width:1;"/><line style="stroke:#181818;stroke-width:1;" x1="782.0043" x2="782.0043" y1="595.0107" y2="630.0107"/><polygon fill="#181818" points="778.0043,620.0107,782.0043,630.0107,786.0043,620.0107,782.0043,624.0107" style="stroke:#181818;stroke-width:1;"/><line style="stroke:#181818;stroke-width:1;" x1="566.7538" x2="485.5026" y1="537.7706" y2="537.7706"/><line style="stroke:#181818;stroke-width:1;" x1="485.5026" x2="485.5026" y1="537.7706" y2="559.7706"/><polygon fill="#181818" points="481.5026,549.7706,485.5026,559.7706,489.5026,549.7706,485.5026,553.7706" style="stroke:#181818;stroke-width:1;"/><line style="stroke:#181818;stroke-width:1;" x1="700.753" x2="782.0043" y1="537.7706" y2="537.7706"/><line style="stroke:#181818;stroke-width:1;" x1="782.0043" x2="782.0043" y1="537.7706" y2="559.7706"/><polygon fill="#181818" points="778.0043,549.7706,782.0043,559.7706,786.0043,549.7706,782.0043,553.7706" style="stroke:#181818;stroke-width:1;"/><line style="stroke:#181818;stroke-width:1;" x1="321.3776" x2="159.5009" y1="503.7706" y2="503.7706"/><line style="stroke:#181818;stroke-width:1;" x1="159.5009" x2="159.5009" y1="503.7706" y2="525.7706"/><polygon fill="#181818" points="155.5009,515.7706,159.5009,525.7706,163.5009,515.7706,159.5009,519.7706" style="stroke:#181818;stroke-width:1;"/><line style="stroke:#181818;stroke-width:1;" x1="471.8767" x2="633.7534" y1="503.7706" y2="503.7706"/><line style="stroke:#181818;stroke-width:1;" x1="633.7534" x2="633.7534" y1="503.7706" y2="525.7706"/><polygon fill="#181818" points="629.7534,515.7706,633.7534,525.7706,637.7534,515.7706,633.7534,519.7706" style="stroke:#181818;stroke-width:1;"/><line style="stroke:#181818;stroke-width:1;" x1="396.6272" x2="396.6272" y1="471.7706" y2="491.7706"/><polygon fill="#181818" points="392.6272,481.7706,396.6272,491.7706,400.6272,481.7706,396.6272,485.7706" style="stroke:#181818;stroke-width:1;"/><!--SRC=[ZLDTJzDW5BxlhpZPLPSm5ZylDg8nC_46DT4Ok2DbVGTrNTkqxuBSqLPX22fYc8RCu73XOpAO0edJ2V_5bsxbYh_WULiWSmDZsZIdFSzvtkSvvtJ0efCgkIKCn4y3AwjeXcHAEHYLqjanKyzhSafNTHEeAMaMfeX61OjA9XKIhT9KUzyvNdxjVQr0JigIZA8I44T6ACaPgaH9VouRJGe9yKeKcBl3t2PpTfZJOEvo43TQbL9xRnN4ZAB9iRm1nyNLrb8zABaQ1SCa_3ma0UOiWgAbrRnCaeAcKmAcCZPE1O0OvdQPY_TRvbIOk-blrBpjPH1JgJv83G_tmU3TFhZpA1fWkKZaf06dlUrNQym-z0-Q-3nf5lorQcY6sNFCcJt-DDtQAfyqPmMYoS1FHLtNeW59JbAq7c49yJeQTVQPMsJk37C-CtUBEtOBpAsYLs_cHvVwUm-UdFKjVXxSF-iaaYF6M_Z2dAdBQ14JCdUAl76v37GD3n_ZE9Q2158Vyg_OGAVU9IuSRo-5j_0AHA-otYhEUBNtNlrD6BIVb_sr8fvihtk52iuWWHmHLT7opo80y7jw4GRv2syyzhjLclLUDZXa0gUlJrYH038KllI0h75S1Ja2SSnynEJHpsA0F_fU3lpOw-TOVtEtlLTFW6x5hFoeh9WaJNLpCeOzfSHKjB7-dDpPhPjyEt5x6g5iPcDJ2ioPymhJthU5fA1aG0m1c8AugenQPZhEfnEEvdOKw3ZHG9ma5b-p16vXi8j57hZL97xZ7Frfop3rfwXrtgjzy4eRtOLOofSWF614rgb6-AOcWvH5TGC3ebhuYsbwBnulm-Y1QxAI4JgBkjpysmgUu6sl-ENver_lGjx_D78gxG8VvzAwlNIK_6sbioAmqzC5vcm4hMucuA91sGVCNc7spfbRb7tumb-pB-eKV_u1]--></g></svg>